<svg width="16" height="16" viewBox="0 0 16 16" fill="none" xmlns="http://www.w3.org/2000/svg">
<path d="M4.26058 4.73343C4.27454 4.10172 4.26058 4.10108 4.91001 4.10108C7.05838 4.10108 9.20675 4.10748 11.3545 4.09469C11.639 4.09277 11.7021 4.17078 11.6928 4.43101C11.6722 4.9975 11.6875 4.99814 11.1052 4.99814H7.98234C6.84235 4.99814 5.70169 4.99239 4.56104 5.00262C4.34301 5.00453 4.25593 4.97129 4.26058 4.73343Z" fill="#F7F9FA"/>
<path d="M11.6935 8.26347C11.6715 8.83125 11.6875 8.83189 11.1059 8.83189H7.98301C6.84301 8.83189 5.70236 8.82613 4.5617 8.83636C4.34434 8.83828 4.25593 8.80631 4.26058 8.56782C4.27454 7.93547 4.26058 7.93483 4.91001 7.93483C7.05772 7.93483 9.20609 7.94058 11.3538 7.92844C11.635 7.92716 11.7034 8.00133 11.6935 8.26347Z" fill="#F7F9FA"/>
<path d="M11.6941 6.33253C11.6695 6.91437 11.6881 6.91501 11.0872 6.91501H7.96506C6.83504 6.91501 5.70568 6.90862 4.57632 6.92013C4.34367 6.92205 4.25194 6.88816 4.25992 6.63304C4.27986 6.0186 4.26391 6.01796 4.89472 6.01796C7.04309 6.01796 9.19146 6.02243 11.3392 6.0122C11.5997 6.0122 11.7061 6.04929 11.6941 6.33253Z" fill="#F7F9FA"/>
<path d="M15.9503 3.10556C15.947 1.84214 15.0058 0.925265 13.6916 0.922707C9.88343 0.915034 6.0746 0.915034 2.26643 0.922068C0.946299 0.924625 0.0110407 1.83383 0.00838186 3.10045C0.00306411 5.3255 0.00372883 7.55056 0.00838186 9.77562C0.010376 10.9099 0.750872 11.7488 1.91014 11.9137C2.16007 11.9495 2.20062 12.039 2.19796 12.2545C2.186 13.1586 2.19265 14.062 2.19265 15.0179C2.28504 14.9623 2.3216 14.9418 2.35683 14.9188C3.74543 13.9898 5.13602 13.0633 6.51996 12.1285C6.71007 12 6.89819 11.9457 7.13084 11.9463C9.31178 11.954 11.4934 11.9566 13.6743 11.9489C15.0084 11.9438 15.9477 11.032 15.951 9.7494C15.9556 7.53458 15.9563 5.32039 15.9503 3.10556ZM15.019 9.6049C15.019 10.5825 14.5311 11.0518 13.5128 11.0518C11.2773 11.0525 9.04124 11.0544 6.80579 11.0486C6.59707 11.0486 6.42557 11.0947 6.25407 11.211C5.2344 11.9022 4.2094 12.5851 3.12657 13.3101C3.12657 12.6222 3.10929 11.9956 3.13389 11.3702C3.14519 11.0915 3.04947 11.0211 2.78225 11.048C2.57486 11.0685 2.36082 11.0621 2.1521 11.0435C1.40495 10.9777 0.94364 10.5 0.940981 9.7769C0.935664 8.12665 0.939652 6.47704 0.939652 4.82742C0.939652 4.26349 0.936328 3.69891 0.939652 3.13498C0.94497 2.33383 1.44284 1.84342 2.27441 1.81912C2.48446 1.81273 2.69451 1.81784 2.90522 1.81784H13.4643C14.5484 1.81784 15.019 2.27117 15.019 3.31464C15.019 5.41118 15.019 7.50772 15.019 9.6049Z" fill="#F7F9FA"/>
<path d="M4.26058 4.73343C4.27454 4.10172 4.26058 4.10108 4.91001 4.10108C7.05838 4.10108 9.20675 4.10748 11.3545 4.09469C11.639 4.09277 11.7021 4.17078 11.6928 4.43101C11.6722 4.9975 11.6875 4.99814 11.1052 4.99814H7.98234C6.84235 4.99814 5.70169 4.99239 4.56104 5.00262C4.34301 5.00453 4.25593 4.97129 4.26058 4.73343Z" fill="black"/>
<path d="M11.6935 8.26347C11.6715 8.83125 11.6875 8.83189 11.1059 8.83189H7.98301C6.84301 8.83189 5.70236 8.82613 4.5617 8.83636C4.34434 8.83828 4.25593 8.80631 4.26058 8.56782C4.27454 7.93547 4.26058 7.93483 4.91001 7.93483C7.05772 7.93483 9.20609 7.94058 11.3538 7.92844C11.635 7.92716 11.7034 8.00133 11.6935 8.26347Z" fill="black"/>
<path d="M11.6941 6.33253C11.6695 6.91437 11.6881 6.91501 11.0872 6.91501H7.96506C6.83504 6.91501 5.70568 6.90862 4.57632 6.92013C4.34367 6.92205 4.25194 6.88816 4.25992 6.63304C4.27986 6.0186 4.26391 6.01796 4.89472 6.01796C7.04309 6.01796 9.19146 6.02243 11.3392 6.0122C11.5997 6.0122 11.7061 6.04929 11.6941 6.33253Z" fill="black"/>
<path d="M15.9503 3.10556C15.947 1.84214 15.0058 0.925265 13.6916 0.922707C9.88343 0.915034 6.0746 0.915034 2.26643 0.922068C0.946299 0.924625 0.0110407 1.83383 0.00838186 3.10045C0.00306411 5.3255 0.00372883 7.55056 0.00838186 9.77562C0.010376 10.9099 0.750872 11.7488 1.91014 11.9137C2.16007 11.9495 2.20062 12.039 2.19796 12.2545C2.186 13.1586 2.19265 14.062 2.19265 15.0179C2.28504 14.9623 2.3216 14.9418 2.35683 14.9188C3.74543 13.9898 5.13602 13.0633 6.51996 12.1285C6.71007 12 6.89819 11.9457 7.13084 11.9463C9.31178 11.954 11.4934 11.9566 13.6743 11.9489C15.0084 11.9438 15.9477 11.032 15.951 9.7494C15.9556 7.53458 15.9563 5.32039 15.9503 3.10556ZM15.019 9.6049C15.019 10.5825 14.5311 11.0518 13.5128 11.0518C11.2773 11.0525 9.04124 11.0544 6.80579 11.0486C6.59707 11.0486 6.42557 11.0947 6.25407 11.211C5.2344 11.9022 4.2094 12.5851 3.12657 13.3101C3.12657 12.6222 3.10929 11.9956 3.13389 11.3702C3.14519 11.0915 3.04947 11.0211 2.78225 11.048C2.57486 11.0685 2.36082 11.0621 2.1521 11.0435C1.40495 10.9777 0.94364 10.5 0.940981 9.7769C0.935664 8.12665 0.939652 6.47704 0.939652 4.82742C0.939652 4.26349 0.936328 3.69891 0.939652 3.13498C0.94497 2.33383 1.44284 1.84342 2.27441 1.81912C2.48446 1.81273 2.69451 1.81784 2.90522 1.81784H13.4643C14.5484 1.81784 15.019 2.27117 15.019 3.31464C15.019 5.41118 15.019 7.50772 15.019 9.6049Z" fill="black"/>
<path d="M4.26058 4.73343C4.27454 4.10172 4.26058 4.10108 4.91001 4.10108C7.05838 4.10108 9.20675 4.10748 11.3545 4.09469C11.639 4.09277 11.7021 4.17078 11.6928 4.43101C11.6722 4.9975 11.6875 4.99814 11.1052 4.99814H7.98234C6.84235 4.99814 5.70169 4.99239 4.56104 5.00262C4.34301 5.00453 4.25593 4.97129 4.26058 4.73343Z" fill="#F7F9FA"/>
<path d="M11.6935 8.26347C11.6715 8.83125 11.6875 8.83189 11.1059 8.83189H7.98301C6.84301 8.83189 5.70236 8.82613 4.5617 8.83636C4.34434 8.83828 4.25593 8.80631 4.26058 8.56782C4.27454 7.93547 4.26058 7.93483 4.91001 7.93483C7.05772 7.93483 9.20609 7.94058 11.3538 7.92844C11.635 7.92716 11.7034 8.00133 11.6935 8.26347Z" fill="#F7F9FA"/>
<path d="M4.25992 6.63304C4.27986 6.0186 4.26391 6.01796 4.89472 6.01796C7.04309 6.01796 9.19146 6.02243 11.3392 6.0122C11.5997 6.0122 11.7061 6.04929 11.6941 6.33253C11.6695 6.91437 11.6881 6.91501 11.0872 6.91501H7.96506C6.83504 6.91501 5.70568 6.90862 4.57632 6.92013C4.34367 6.92205 4.25194 6.88816 4.25992 6.63304Z" fill="#F7F9FA"/>
<path d="M11.6928 4.43101C11.6722 4.9975 11.6875 4.99814 11.1052 4.99814H7.98234C6.84235 4.99814 5.70169 4.99239 4.56104 5.00262C4.34301 5.00453 4.25593 4.97129 4.26058 4.73343C4.27454 4.10172 4.26058 4.10108 4.91001 4.10108C7.05838 4.10108 9.20675 4.10748 11.3545 4.09469C11.639 4.09277 11.7021 4.17078 11.6928 4.43101Z" fill="black"/>
<path d="M11.6941 6.33253C11.6695 6.91437 11.6881 6.91501 11.0872 6.91501H7.96506C6.83504 6.91501 5.70568 6.90862 4.57632 6.92013C4.34367 6.92205 4.25194 6.88816 4.25992 6.63304C4.27986 6.0186 4.26391 6.01796 4.89472 6.01796C7.04309 6.01796 9.19146 6.02243 11.3392 6.0122C11.5997 6.0122 11.7061 6.04929 11.6941 6.33253Z" fill="black"/>
<path d="M11.6935 8.26347C11.6715 8.83125 11.6875 8.83189 11.1059 8.83189H7.98301C6.84301 8.83189 5.70236 8.82613 4.5617 8.83636C4.34434 8.83828 4.25593 8.80631 4.26058 8.56782C4.27454 7.93547 4.26058 7.93483 4.91001 7.93483C7.05772 7.93483 9.20609 7.94058 11.3538 7.92844C11.635 7.92716 11.7034 8.00133 11.6935 8.26347Z" fill="black"/>
</svg>
