<svg width="22" height="22" viewBox="0 0 22 22" fill="none" xmlns="http://www.w3.org/2000/svg">
<g clip-path="url(#clip0_1232_2701)">
<path d="M11.4616 6.62653C11.6177 6.65866 11.777 6.67152 11.9362 6.66481C12.0863 6.58839 12.2487 6.53915 12.4159 6.51937C12.5564 6.5669 12.6895 6.6339 12.8114 6.71839C12.8956 6.78218 12.7553 6.75922 12.6354 6.71839C12.5796 6.70261 12.5251 6.683 12.4721 6.65971L12.6558 6.7286L12.7732 6.79494C12.7732 6.79494 12.8956 6.84342 12.7094 6.79494L12.4772 6.73881C12.4772 6.73881 12.7783 6.80515 12.7629 6.85363C12.7476 6.90211 12.5078 6.85363 12.5078 6.85363C12.5078 6.85363 12.7145 6.89445 12.7068 6.92252C12.6992 6.95059 12.5996 6.9608 12.4772 6.94294C12.4134 6.94294 12.2016 7.04755 12.0485 7.04245C12.0026 7.04245 11.852 6.96845 11.8112 6.971C11.3442 7.00673 11.4259 6.85618 11.4259 6.85618L11.4616 6.62653Z" fill="#D3A994"/>
<path d="M11.8598 6.68777C11.7016 6.73626 10.584 6.23869 10.584 6.23869C10.0457 5.92722 9.54265 5.5585 9.08361 5.13894C8.91266 4.9833 8.979 5.13894 8.84632 5.13894C8.84632 5.13894 8.26455 5.52424 8.39978 5.64927C8.93391 6.15864 9.5531 6.57057 10.2293 6.86639C10.7589 6.97971 11.302 7.0158 11.8419 6.97355C11.8419 6.97355 11.8649 6.68522 11.8598 6.68777Z" fill="#D3A994"/>
<path d="M8.74156 4.66179C8.92528 4.58014 9.50705 4.96544 9.826 5.63906C9.90765 5.80236 10.2598 5.87381 10.2598 5.87381C10.2598 5.87381 10.0837 6.08814 9.96122 6.21062C9.83875 6.3331 9.74945 6.39434 9.74945 6.51682C9.74945 6.63929 9.42539 6.8077 9.36416 6.86894C9.30292 6.93018 9.14981 6.47089 9.14981 6.47089C9.14981 6.47089 8.12917 6.55764 8.01434 5.98353C7.89952 5.40941 8.06793 4.91951 8.31799 4.78427C8.45022 4.71717 8.59393 4.67562 8.74156 4.66179Z" fill="#77000C"/>
<path d="M13.735 6.35606C13.5616 6.34483 13.3902 6.31226 13.2247 6.2591C12.9857 6.18553 12.7373 6.14686 12.4873 6.14428C12.2899 6.20034 12.1023 6.2864 11.931 6.39944C11.8264 6.49385 11.9744 6.46578 12.1351 6.39944C12.2093 6.37235 12.281 6.33907 12.3495 6.29993L12.0943 6.41475L11.9438 6.51937C11.9438 6.51937 11.8621 6.63419 12.1096 6.54743C12.2168 6.50916 12.4184 6.44537 12.4184 6.44537C12.4184 6.44537 12.0152 6.5704 12.0433 6.63419C12.0714 6.69798 12.3903 6.59847 12.3903 6.59847C12.3903 6.59847 12.1147 6.68012 12.1351 6.71839C12.1556 6.75667 12.2857 6.75922 12.4515 6.71839C12.6295 6.71886 12.8068 6.74027 12.9797 6.78218C13.041 6.78218 13.2783 6.76687 13.3318 6.78218L13.6329 6.83321L13.735 6.35606Z" fill="#E5C0AE"/>
<path d="M13.0818 6.14683C13.0588 6.19786 12.9746 7.30782 12.9746 7.30782L13.4849 7.37416L13.4084 6.20807L13.0818 6.14683Z" fill="#E2DDD9"/>
<path d="M15.9807 4.09534C16.0598 4.37091 16.4349 6.97356 15.945 7.26954C15.4551 7.56553 13.2837 7.54256 13.2837 7.54256C13.2837 7.54256 13.35 6.35351 13.3909 6.14683C13.9341 6.19369 14.4808 6.11422 14.9882 5.91464C14.9882 5.91464 15.1438 5.45024 15.6082 3.93969C15.7205 3.58246 15.9807 4.09534 15.9807 4.09534Z" fill="#282626"/>
<path d="M8.94576 20.5175C9.29533 20.8671 10.1067 21.0278 9.83627 21.2141C9.5658 21.4004 8.63446 21.3315 8.40226 21.1376C8.17007 20.9436 8.94576 20.5175 8.94576 20.5175Z" fill="#A3918D"/>
<path d="M9.56838 5.72071C9.29232 5.37251 9.0537 4.9962 8.85648 4.598C8.64215 3.99582 8.81055 3.27882 9.15757 3.04917C9.15757 3.04917 7.25406 2.33983 7.4633 2.83229C7.89452 3.85293 7.57301 4.09534 7.23364 4.56994C6.73608 5.26398 7.43013 5.93505 7.57812 6.13408C7.75673 6.37138 7.20048 6.49385 7.65722 6.94804C7.96597 7.25679 9.55817 6.6546 9.71382 6.59336C9.86947 6.53213 9.80823 6.0218 9.56838 5.72071Z" fill="#E5C0AE"/>
<path d="M7.31303 2.56182C6.92263 1.85247 7.25179 1.3396 7.82335 1.03085C8.39491 0.722108 8.94096 0.964509 9.32881 1.67131C9.40536 1.80654 9.32881 1.92647 9.37985 2.05915C9.47201 2.15675 9.56911 2.24957 9.67073 2.33728C9.7039 2.39341 9.635 2.52354 9.561 2.57968C9.62224 2.99304 9.67327 3.34516 9.22929 3.44978C8.85759 3.51242 8.47563 3.46113 8.13361 3.30265C7.7916 3.14417 7.50553 2.88591 7.31303 2.56182Z" fill="#E5C0AE"/>
<path d="M8.65505 1.77082L8.95613 1.17374C8.92041 0.972164 8.0146 0.574112 7.31036 1.22477C6.65714 1.8295 6.77961 2.30155 7.01181 2.7685C7.1809 3.07912 7.40581 3.35591 7.67524 3.58501C7.67524 3.58501 8.41775 2.86291 8.21618 2.78636C8.0937 2.74043 7.88956 2.37045 8.03245 2.27604C8.10135 2.22245 8.23658 2.27604 8.23658 2.27604L8.65505 1.77082Z" fill="#AA6535"/>
<path d="M7.73122 3.4855C7.42502 3.91673 6.50389 3.57991 6.45541 3.10276C5.73586 3.3171 5.27402 2.5363 5.58021 2.23011C5.38119 2.01322 5.3965 1.508 5.88641 1.63048C5.81241 1.27836 6.5932 1.29367 6.65189 1.63048C6.77437 1.49269 7.02188 1.73765 7.02188 2.04384C7.02188 2.35004 7.73122 3.4855 7.73122 3.4855Z" fill="#AA6535"/>
<path d="M8.18039 2.47762C8.31817 2.58223 8.37687 2.6843 8.31563 2.79912C8.25439 2.91394 8.36666 2.94711 8.4381 3.01601C8.50955 3.0849 8.34879 3.15124 8.38451 3.30179C8.42024 3.45233 8.65498 3.46509 8.63967 3.55695C8.62679 3.62609 8.61827 3.69597 8.61417 3.76618C8.63458 3.70494 8.69072 3.62839 8.71368 3.56205C8.73665 3.49571 8.51465 3.42171 8.49934 3.26861C8.48403 3.11552 8.65243 3.06959 8.59119 2.99304C8.52995 2.91649 8.42279 2.87056 8.49934 2.7634C8.57589 2.65623 8.52996 2.54906 8.40749 2.42659C8.28501 2.30411 8.49934 1.88819 8.66265 1.70448L8.4483 1.38297C8.31052 1.5922 8.0426 2.373 8.18039 2.47762Z" fill="#AA6535"/>
<path d="M8.91288 1.20436C8.71641 0.928787 8.14741 1.02065 7.99176 1.47994C7.83611 1.93923 7.1982 3.05683 6.53223 2.21735C6.64705 2.58478 7.24413 2.79146 7.55287 2.47251C7.86162 2.15356 8.16526 1.51566 8.30049 1.39063C8.55565 1.16098 8.78531 1.45952 8.8542 1.36766C8.8895 1.32024 8.90992 1.26341 8.91288 1.20436Z" fill="#BA7B50"/>
<path d="M8.87702 1.42125C8.83109 1.54883 8.87703 1.67641 8.53256 1.69937C8.18809 1.72234 7.76708 2.35514 7.67012 2.49292C7.57316 2.63071 7.37158 2.56182 7.37158 2.56182C7.37158 2.56182 7.53234 2.61795 7.69309 2.34238C7.85384 2.06681 8.33863 1.54883 8.55552 1.51311C8.61127 1.51004 8.66576 1.49528 8.71543 1.46978C8.7651 1.44429 8.80886 1.40862 8.84385 1.36511L8.87702 1.42125Z" fill="#BA7B50"/>
<path d="M6.24632 2.55416H6.25907C5.96819 2.55416 6.11874 2.27094 6.11874 2.27094C6.09712 2.26608 6.07668 2.25701 6.05857 2.24425C6.04047 2.23149 6.02505 2.21528 6.01321 2.19657C6.00136 2.17785 5.99332 2.15698 5.98953 2.13516C5.98575 2.11333 5.9863 2.09097 5.99115 2.06936C5.99601 2.04774 6.00509 2.0273 6.01785 2.00919C6.03061 1.99108 6.0468 1.97567 6.06552 1.96382C6.08424 1.95197 6.10512 1.94393 6.12694 1.94014C6.14877 1.93636 6.17113 1.93692 6.19274 1.94178C6.08302 1.78613 6.28459 1.7453 6.35603 1.76316C6.32803 1.74384 6.29533 1.73245 6.26139 1.73018C6.22745 1.72791 6.19354 1.73486 6.16321 1.75028C6.13289 1.7657 6.10729 1.78903 6.08913 1.8178C6.07097 1.84656 6.06093 1.8797 6.06005 1.91371C5.90696 1.93922 5.736 2.23011 5.9682 2.28879C5.9682 2.28879 5.78193 2.56692 6.07536 2.57968H6.1366C6.1366 2.57968 6.10599 2.73788 6.32032 2.71236L6.44279 2.6894C6.13915 2.6843 6.24632 2.55416 6.24632 2.55416ZM6.59335 1.95453C6.59651 1.94341 6.60191 1.93306 6.60925 1.92412C6.61658 1.91519 6.62569 1.90786 6.63599 1.90259C6.64628 1.89733 6.65754 1.89423 6.66908 1.89351C6.68062 1.89279 6.6922 1.89445 6.70306 1.8984L6.6061 1.77082C6.51169 1.67641 6.44025 1.72744 6.35094 1.75551C6.38666 1.75551 6.55761 1.72999 6.56527 1.81164L6.59335 1.95453Z" fill="#BA7B50"/>
<path d="M6.51162 2.5261C6.31005 2.40617 6.55244 2.19439 6.55244 2.19439C6.42486 2.0617 6.60603 1.83206 6.74637 1.93923C6.74637 1.77847 6.8816 1.80654 6.92243 1.84226C6.87905 1.76316 6.77444 1.72744 6.66727 1.87544C6.55755 1.84737 6.31003 2.03874 6.43506 2.17142C6.43506 2.17142 6.1646 2.373 6.36363 2.49293H6.41466C6.41466 2.49293 6.31005 2.64602 6.48101 2.70471C6.51429 2.71532 6.54844 2.72301 6.58306 2.72767C6.35852 2.62051 6.51162 2.5261 6.51162 2.5261Z" fill="#BA7B50"/>
<path d="M9.1042 8.5479C9.29812 9.40014 9.47929 11.6889 9.29812 14.437C9.3364 18.0093 8.5607 19.0835 9.43846 20.5813C9.69362 21.0125 8.33871 21.4259 8.01976 21.505C7.7523 21.5505 7.47756 21.524 7.22366 21.4284C6.92512 21.3136 6.69037 21.5229 6.45818 21.6836C6.35356 21.7499 6.02696 21.4131 5.87386 21.482C4.86853 21.9337 5.14409 21.334 4.88893 21.3723C4.4424 21.4386 4.24082 21.7066 3.91932 21.4489C3.75439 21.2682 3.62382 21.0589 3.53402 20.8314C3.53402 20.8314 2.85785 20.9921 2.61545 20.9156C2.37305 20.839 4.41943 16.0675 5.62379 12.3855C6.82816 8.70355 7.24662 8.17792 7.64978 8.33357C8.12592 8.45483 8.61331 8.52666 9.1042 8.5479Z" fill="#B20000"/>
<path d="M6.76927 5.04454C6.36357 5.97332 7.19284 7.02459 6.67487 8.00696C6.15689 8.98933 7.16479 8.77244 7.16479 8.77244L8.18543 9.0276C8.18543 9.0276 8.73402 6.50406 8.26962 5.78195C8.0757 5.48086 8.1599 5.01647 7.96598 4.79193C7.78306 4.59538 7.53217 4.47586 7.26429 4.45766L6.76927 5.04454Z" fill="#77000C"/>
<path d="M9.52779 5.58548C9.66813 5.81768 9.92839 6.0958 9.9539 6.43772C9.97687 6.73881 9.7804 6.94804 9.52779 7.17258C9.27518 7.39712 9.18076 8.50452 8.97408 9.19346C7.68041 9.00974 7.86923 9.17305 7.68296 8.98678C8.09632 8.70355 8.26219 7.63442 8.32853 7.07817C8.56072 5.13895 7.42525 4.99861 7.47628 4.94758C7.56986 4.83303 7.65513 4.71195 7.73144 4.58525C7.92644 4.66059 8.10818 4.76654 8.26983 4.89909C8.59073 5.16791 8.88238 5.46982 9.13994 5.79982C9.61199 5.70541 9.52779 5.58548 9.52779 5.58548Z" fill="#B20000"/>
<path d="M7.51439 7.92786C6.7489 8.5479 6.19776 8.8592 5.61599 10.3698C5.23069 11.3751 2.75053 20.5966 0.00244141 20.5175C0.545935 20.9819 0.660757 21.1376 1.35735 20.8288C2.05394 20.5201 1.86767 20.6349 2.09477 20.8671C2.32186 21.0993 2.44434 21.408 2.82963 21.0993C3.21493 20.7905 3.63084 20.7829 3.72014 21.2932C3.80945 21.8035 6.0166 18.1547 6.976 11.3751C7.09313 10.3805 7.386 9.41456 7.84099 8.52239L7.51439 7.92786Z" fill="#77000C"/>
<path d="M7.63198 13.3781C6.64961 16.5804 5.02169 21.3315 4.88135 21.3698C5.02169 21.357 5.02424 21.5126 5.13651 21.6249C6.90478 17.948 7.77487 12.9086 7.63198 13.3781Z" fill="#77000C"/>
<path d="M8.04237 14.0492C7.72417 16.6649 7.18035 19.2483 6.41699 21.7704C6.55011 21.6345 6.69721 21.513 6.85586 21.408C6.89396 21.3854 6.93654 21.3714 6.98062 21.367C7.0247 21.3626 7.06921 21.3679 7.11102 21.3825C7.11102 21.3825 7.36619 18.8513 7.83569 16.3992C7.9564 15.6213 8.02544 14.8362 8.04237 14.0492Z" fill="#77000C"/>
<path d="M11.2016 6.90211C11.4023 6.91906 11.6044 6.91307 11.8038 6.88425C11.9814 6.76611 12.1783 6.67976 12.3855 6.62909C12.5686 6.67008 12.7453 6.73529 12.9112 6.82301C13.026 6.8919 12.8474 6.88425 12.6917 6.86128C12.619 6.85026 12.5473 6.83319 12.4774 6.81025L12.7198 6.87149L12.878 6.93783C12.878 6.93783 13.0362 6.98121 12.7938 6.93783C12.6892 6.92252 12.4952 6.90211 12.4952 6.90211C12.4952 6.90211 12.8856 6.94038 12.8729 7.00417C12.8601 7.06796 12.5514 7.03479 12.5514 7.03479C12.5514 7.03479 12.8065 7.05776 12.8065 7.09348C12.8065 7.1292 12.6764 7.15982 12.5182 7.15217C12.4391 7.15217 12.1891 7.32313 12.0079 7.33844C11.9492 7.33844 11.7527 7.2721 11.6991 7.2823C11.1174 7.39457 11.1888 7.19299 11.1888 7.19299L11.2016 6.90211Z" fill="#E5C0AE"/>
<path d="M11.7115 6.92253C11.5202 7.00673 10.0555 6.53978 10.0555 6.53978C9.335 6.22388 8.65061 5.83121 8.01425 5.36859C7.7744 5.19764 7.87902 5.36859 7.71572 5.41963C7.71572 5.41963 7.0421 5.98609 7.22836 6.12642C7.97077 6.69282 8.80675 7.12463 9.69832 7.40223C10.3797 7.47128 11.0675 7.43946 11.7396 7.30782C11.7396 7.30782 11.7167 6.91997 11.7115 6.92253Z" fill="#E5C0AE"/>
<path d="M7.50415 4.82255C7.72359 4.69497 8.50694 5.09302 9.0045 5.89422C9.13208 6.0907 9.58628 6.12897 9.58628 6.12897C9.58628 6.12897 9.3949 6.4224 9.25711 6.59336C9.11932 6.76432 9.01726 6.84853 9.03512 7.00928C9.05298 7.17003 8.67025 7.42264 8.60136 7.50684C8.53247 7.59104 8.2773 7.03734 8.2773 7.03734C8.2773 7.03734 7.00149 7.2925 6.7795 6.58571C6.55751 5.87891 6.69531 5.24101 6.99129 5.03688C7.14721 4.93374 7.32121 4.86102 7.50415 4.82255Z" fill="#77000C"/>
<path d="M6.99118 5.1415C7.15559 4.99196 7.36984 4.9091 7.59208 4.9091C7.81433 4.9091 8.02858 4.99196 8.19298 5.1415C8.70331 5.537 8.82578 6.03456 8.97378 6.06008C9.10335 6.10237 9.22189 6.17297 9.32079 6.26676C9.32079 6.26676 9.09625 6.42496 9.06563 6.52192C9.03501 6.61888 8.93295 6.94038 8.8462 6.90977C8.75944 6.87915 8.71351 7.193 8.63952 7.2823C8.56552 7.37161 8.46856 7.09348 8.38436 6.99907C8.33875 6.94134 8.27487 6.90085 8.2032 6.88425C8.2032 6.88425 7.29482 7.1981 6.86105 6.39179C6.59823 5.87636 6.99118 5.1415 6.99118 5.1415Z" fill="#B20000"/>
<path d="M8.81591 6.23614C8.69242 6.03588 8.5043 5.88376 8.28263 5.80492C8.36173 5.89167 8.65771 6.31524 8.65771 6.31524L8.27497 6.12642L8.59903 6.54233C8.59903 6.54233 7.83354 6.59847 7.76465 6.52447C7.89733 6.71584 8.4689 6.74646 8.548 6.69798C8.65496 6.55497 8.74487 6.39998 8.81591 6.23614Z" fill="#77000C"/>
<path d="M17.7696 1.81675C17.618 2.16203 17.5464 2.53711 17.5603 2.91394C17.5796 3.17812 17.6875 3.42806 17.8665 3.62329L16.1187 3.93458C16.1187 3.93458 16.6468 2.93691 16.3126 2.57713C16.1059 2.35514 17.7696 1.81675 17.7696 1.81675Z" fill="#D3A994"/>
<path d="M17.1596 0.22199C16.366 -0.01531 16.1746 0.326605 15.9476 0.974715C15.9321 1.09244 15.9321 1.21167 15.9476 1.32939C15.7485 1.7402 15.7179 1.81675 15.6694 1.93922C15.6465 1.99536 15.7434 2.05405 15.8455 2.08722C15.82 2.47761 15.8633 2.79912 16.0573 2.8527C16.7003 3.03897 17.254 2.82208 17.5551 2.11529C17.8562 1.40849 17.8766 0.423567 17.1596 0.22199Z" fill="#D3A994"/>
<path d="M20.3977 19.6959C20.5559 20.6145 20.1706 20.9028 20.1425 21.2651C20.1144 21.6275 20.7523 21.6708 21.2167 21.186C21.4719 20.9309 21.4157 20.7395 21.7934 20.4206C22.0817 20.1654 21.4055 19.3259 21.4055 19.3259L20.3977 19.6959Z" fill="black"/>
<path d="M16.8966 19.8158C16.3862 20.6732 15.7611 20.6655 15.5851 20.9615C15.409 21.2575 16.0571 21.4131 16.6465 21.1784C16.9527 21.0559 17.3814 21.0993 17.833 20.9615C18.18 20.8569 17.9019 19.8771 17.9019 19.8771L16.8966 19.8158Z" fill="black"/>
<path d="M16.1389 15.746C16.2333 16.685 16.6492 20.1501 16.6492 20.1501L18.3614 20.3619C18.3614 20.3619 18.0246 15.5138 17.897 14.5901C17.6622 12.9392 17.6418 10.3672 16.9019 8.72141L15.1157 8.82093C15.1157 8.82093 16.0445 14.8045 16.1389 15.746Z" fill="black"/>
<path d="M15.8171 15.1591C15.6819 13.8119 15.2047 9.58641 15.1562 8.87961L15.7967 8.84389C15.7967 10.1529 16.2509 13.8859 16.4116 14.8249C16.5903 15.8812 16.9653 19.4714 17.0572 20.2726L16.5596 20.2113C16.5596 20.2113 15.9115 16.0981 15.8171 15.1591Z" fill="#282626"/>
<path d="M17.6211 3.19717L18.5831 3.60288C18.5831 3.60288 18.2131 6.45558 18.3611 7.68546C18.5091 8.91533 18.2488 8.79541 18.2488 8.79541C18.2488 8.79541 15.8784 9.25725 15.1205 8.9434C14.9981 8.89237 15.5084 3.90907 15.5084 3.90907L16.307 3.44213L16.8429 3.50081C16.8429 3.50081 17.7691 3.15889 17.6211 3.19717Z" fill="white"/>
<path d="M16.2484 3.34772C16.0024 3.49136 15.7466 3.61755 15.4829 3.72535C15.1665 3.86825 15.1895 4.20761 15.1538 4.52146C15.0228 5.07615 14.9518 5.64331 14.942 6.21318C14.942 6.56785 14.6868 7.65229 14.9011 8.82092C14.9216 8.9332 15.2839 8.8694 15.4319 8.70355C15.3222 7.81559 15.5288 6.8868 15.5416 6.18511C15.5926 4.02389 16.2484 3.34772 16.2484 3.34772Z" fill="black"/>
<path d="M17.4836 4.029C17.6166 3.75095 17.7884 3.49321 17.9939 3.26351C18.2723 3.45837 18.5668 3.6291 18.8742 3.77383C19.2033 3.94734 19.2084 4.35305 19.2416 4.66434C19.3054 5.24101 18.8206 7.4354 18.7976 7.55532C18.7262 7.90489 19.5631 9.72674 20.5021 14.0135C20.548 14.2278 19.2008 13.9522 19.1855 13.1357C19.1855 12.7045 18.2465 9.56344 18.022 8.84899C17.9556 8.62955 16.1312 8.95105 16.1057 8.65507C16.0572 8.11668 15.8276 7.15982 16.047 6.254C16.0598 6.1698 17.111 4.72559 17.4836 4.029Z" fill="black"/>
<path style="mix-blend-mode:multiply" d="M17.6213 3.08235L18.0678 3.46254C18.0678 3.46254 15.2968 7.92531 15.261 7.82579C14.8477 6.40455 15.9168 3.56205 15.9168 3.56205L16.6823 3.61819L17.6213 3.08235Z" fill="url(#paint0_linear_1232_2701)"/>
<path d="M17.6367 2.87056L16.6416 3.38599L17.0294 4.04431L17.772 3.25841L17.6367 2.87056Z" fill="white"/>
<path d="M17.3995 3.7126L17.7644 3.04152L18.193 3.37834L18.0527 3.99838L17.5424 3.91162L17.5602 4.4347L16.0752 6.18766L17.3995 3.7126Z" fill="#282626"/>
<path d="M16.3454 3.4855L16.1234 3.12062C16.0282 3.31031 15.9751 3.51834 15.9678 3.73046C16.1413 3.83252 16.325 3.6335 16.325 3.6335L16.3454 3.4855Z" fill="black"/>
<path d="M16.4527 3.4855L17.083 3.26861C17.083 3.26861 16.9375 3.93459 16.8278 4.01369C16.7418 3.9816 16.6631 3.93254 16.5965 3.86941C16.5299 3.80628 16.4766 3.73039 16.4399 3.64625L16.4527 3.4855Z" fill="black"/>
<path d="M16.3455 3.40895C16.3812 3.38854 16.5063 3.39109 16.5369 3.44212C16.5153 3.55135 16.5051 3.66251 16.5063 3.77384C16.5063 3.77384 16.3149 3.81466 16.2741 3.75597C16.2332 3.69728 16.3455 3.40895 16.3455 3.40895Z" fill="#282626"/>
<path d="M16.5316 0.477154C16.455 0.316402 16.1233 0.464395 16.0212 0.747624C15.9524 0.949202 16.0442 0.341919 16.3402 0.158202C16.6362 -0.0255136 17.3609 -0.0790975 17.69 0.158202L16.5316 0.477154Z" fill="#210500"/>
<path d="M16.519 0.477154C16.889 0.459293 17.4172 0.477151 17.2692 0.956855C17.1212 1.43656 17.0472 1.72234 17.3432 1.84482C17.4239 1.87719 17.4885 1.94016 17.5229 2.02C17.5574 2.09983 17.5588 2.19005 17.5269 2.27094C17.5269 2.27094 17.4657 2.92925 17.7004 2.91394C17.9352 2.89863 18.8385 2.49803 18.5603 1.23498C18.5603 1.23498 18.3868 0.520529 18.0883 0.303642C17.976 0.207087 17.845 0.134671 17.7036 0.0909003C17.5621 0.0471296 17.4131 0.032942 17.2659 0.049217C17.1188 0.065492 16.9765 0.111883 16.848 0.185503C16.7195 0.259124 16.6075 0.358401 16.519 0.477154Z" fill="#4F1109"/>
<path d="M16.5012 11.1046C16.9656 12.5769 17.7413 15.6771 18.0118 15.8685C18.2822 16.0598 20.1806 20.2062 20.2189 20.4792C20.918 20.4027 22.005 19.627 22.005 19.4331C22.005 19.2392 20.3388 15.1336 20.0275 14.7458C19.41 11.2603 18.8283 8.97402 18.7109 8.6219C17.8479 8.83686 16.966 8.96676 16.0776 9.00974L16.5012 11.1046Z" fill="black"/>
<path d="M14.3041 6.54744C14.1107 6.53614 13.9195 6.50013 13.7351 6.44027C13.467 6.35511 13.1872 6.31207 12.9059 6.31269C12.6857 6.37891 12.4767 6.47782 12.2858 6.60612C12.1659 6.71329 12.3317 6.68267 12.5129 6.60612C12.5965 6.57508 12.6776 6.53754 12.7553 6.49385L12.4823 6.62399L12.3113 6.74136C12.3113 6.74136 12.2195 6.87149 12.5002 6.77198L12.8446 6.65971C12.8446 6.65971 12.393 6.7975 12.4236 6.87149C12.4542 6.94549 12.8115 6.83067 12.8115 6.83067C12.8115 6.83067 12.5027 6.92253 12.518 6.96335C12.5333 7.00418 12.6864 7.00928 12.8701 6.96335C13.0697 6.96479 13.2684 6.98962 13.4621 7.03735C13.5336 7.03735 13.7964 7.01949 13.8602 7.03735L14.197 7.09348L14.3041 6.54744Z" fill="#D3A994"/>
<path d="M13.896 6.42496C13.8628 6.49385 13.7939 7.44561 13.7939 7.44561L14.3451 7.53236L14.3119 6.51171L13.896 6.42496Z" fill="white"/>
<path d="M19.0963 5.04454C19.1983 5.40176 18.0042 6.97356 17.3663 7.3614C16.7284 7.74925 14.1589 7.77476 14.1589 7.77476C14.0989 7.2992 14.0725 6.82002 14.0798 6.34076C14.784 6.40965 15.1285 6.31269 16.8304 5.93505C16.8304 5.93505 18.1828 4.00603 18.5349 3.99837C19.2519 3.97796 19.0963 5.04454 19.0963 5.04454Z" fill="#282626"/>
</g>
<defs>
<linearGradient id="paint0_linear_1232_2701" x1="17.4682" y1="7.34354" x2="15.1615" y2="2.40107" gradientUnits="userSpaceOnUse">
<stop stop-color="white"/>
<stop offset="0.64" stop-color="#BAADA6"/>
</linearGradient>
<clipPath id="clip0_1232_2701">
<rect width="22" height="21.7704" fill="white"/>
</clipPath>
</defs>
</svg>
