<svg width="21" height="20" viewBox="0 0 21 20" fill="none" xmlns="http://www.w3.org/2000/svg">
<path d="M9.12457 7.6223C6.61296 7.62587 4.57217 9.75428 4.56875 12.3744C4.5649 15.007 6.60312 17.1376 9.12885 17.1416C11.6537 17.1456 13.6937 15.0181 13.6924 12.3811C13.6911 9.74624 11.6486 7.61828 9.12457 7.6223ZM9.13741 15.2445C7.62694 15.2481 6.3951 13.9588 6.3981 12.3775C6.40109 10.7984 7.61324 9.53411 9.12799 9.53054C10.6436 9.52741 11.8793 10.814 11.8737 12.39C11.8682 13.9553 10.6359 15.241 9.13741 15.2445Z" fill="#F7F9FA"/>
<path d="M18.2606 11.0346C18.2606 13.0509 18.2623 15.0668 18.2602 17.0827C18.2589 18.5542 17.3391 19.7041 15.9523 19.964C15.7713 19.9979 15.5829 19.9975 15.3984 19.9975C13.3093 19.9997 11.2197 19.9988 9.13056 19.9988C7.04141 19.9988 4.90945 20.002 2.7989 19.9979C1.4164 19.9953 0.324102 19.0708 0.0544511 17.6775C0.0155015 17.4752 0.00308901 17.264 0.00308901 17.0568C9.28918e-05 13.9396 -0.00119116 10.8225 0.00137694 7.70536C0.00308901 6.00657 1.19683 4.76686 2.82415 4.76508C3.29454 4.76463 3.76536 4.76329 4.23575 4.76552C4.50669 4.76686 4.73653 4.66951 4.92743 4.47033C5.16969 4.21801 5.41109 3.9648 5.65377 3.71338C6.20121 3.14667 6.86378 2.86219 7.6325 2.85817C8.71624 2.85237 9.80041 2.8546 10.8841 2.85728C11.4594 2.85907 11.8814 3.27528 11.8729 3.82279C11.8643 4.37119 11.4547 4.76374 10.8854 4.76463C9.82309 4.76597 8.76075 4.76909 7.69841 4.7624C7.37868 4.76016 7.11759 4.86779 6.89759 5.10939C6.68144 5.34652 6.45545 5.57339 6.23331 5.80472C5.67603 6.38527 5.00062 6.66885 4.21606 6.67287C3.74525 6.67555 3.27485 6.67108 2.80403 6.67421C2.20139 6.67823 1.83072 7.06407 1.8303 7.69018C1.82944 10.8221 1.82944 13.9539 1.8303 17.0858C1.83072 17.6914 2.21037 18.0995 2.79077 18.1C7.01915 18.1031 11.2475 18.1031 15.4755 18.1C16.0662 18.0995 16.4304 17.6963 16.4308 17.0617C16.4325 14.9194 16.4317 12.7767 16.4308 10.6345C16.4308 10.4773 16.436 10.3214 16.4843 10.1718C16.626 9.73329 17.0412 9.47561 17.4962 9.54126C17.9062 9.60021 18.2392 9.98561 18.258 10.4322C18.2666 10.6327 18.2606 10.8337 18.2606 11.0346Z" fill="#F7F9FA"/>
<path d="M20.2599 4.74409C20.1006 4.77579 19.9333 4.76329 19.7698 4.76418C19.3208 4.76642 18.8718 4.77043 18.4228 4.7615C18.2927 4.75927 18.255 4.79098 18.2572 4.93165C18.2657 5.48898 18.2623 6.04676 18.2602 6.60454C18.2585 7.19492 17.8745 7.62141 17.3485 7.62185C16.8233 7.62185 16.4368 7.1976 16.4325 6.60633C16.4283 6.04855 16.427 5.49077 16.4347 4.93344C16.4368 4.79544 16.4026 4.75614 16.2703 4.7615C15.9925 4.77311 15.7143 4.76508 15.4365 4.76508C15.1588 4.76508 14.9088 4.76731 14.6451 4.76463C14.102 4.75927 13.6911 4.34484 13.6941 3.80805C13.6971 3.28243 14.0994 2.868 14.6327 2.85862C15.1386 2.84969 15.6446 2.85683 16.1509 2.85683C16.3381 2.85654 16.4317 2.75948 16.4317 2.56566C16.4317 2.05254 16.4291 1.53942 16.4317 1.0263C16.4364 0.43726 16.8212 0.00586269 17.3416 5.71386e-05C17.8698 -0.00574841 18.2589 0.431454 18.2606 1.03523C18.2619 1.57827 18.2662 2.12087 18.2572 2.66347C18.2546 2.8162 18.2871 2.86398 18.4412 2.86085C18.9827 2.85014 19.5245 2.84969 20.066 2.85907C20.5689 2.86711 20.9524 3.23152 20.9961 3.72186C21.0389 4.20908 20.729 4.6512 20.2599 4.74409Z" fill="#F7F9FA"/>
<path d="M18.2606 11.0346C18.2606 13.0509 18.2623 15.0668 18.2602 17.0827C18.2589 18.5542 17.3391 19.7041 15.9523 19.964C15.7713 19.9979 15.5829 19.9975 15.3984 19.9975C13.3093 19.9997 11.2197 19.9988 9.13056 19.9988C7.04141 19.9988 4.90945 20.002 2.7989 19.9979C1.4164 19.9953 0.324102 19.0708 0.0544511 17.6775C0.0155015 17.4752 0.00308901 17.264 0.00308901 17.0568C9.28918e-05 13.9396 -0.00119116 10.8225 0.00137694 7.70536C0.00308901 6.00657 1.19683 4.76686 2.82415 4.76508C3.29454 4.76463 3.76536 4.76329 4.23575 4.76552C4.50669 4.76686 4.73653 4.66951 4.92743 4.47033C5.16969 4.21801 5.41109 3.9648 5.65377 3.71338C6.20121 3.14667 6.86378 2.86219 7.6325 2.85817C8.71624 2.85237 9.80041 2.8546 10.8841 2.85728C11.4594 2.85907 11.8814 3.27528 11.8729 3.82279C11.8643 4.37119 11.4547 4.76374 10.8854 4.76463C9.82309 4.76597 8.76075 4.76909 7.69841 4.7624C7.37868 4.76016 7.11759 4.86779 6.89759 5.10939C6.68144 5.34652 6.45545 5.57339 6.23331 5.80472C5.67603 6.38527 5.00062 6.66885 4.21606 6.67287C3.74525 6.67555 3.27485 6.67108 2.80403 6.67421C2.20139 6.67823 1.83072 7.06407 1.8303 7.69018C1.82944 10.8221 1.82944 13.9539 1.8303 17.0858C1.83072 17.6914 2.21037 18.0995 2.79077 18.1C7.01915 18.1031 11.2475 18.1031 15.4755 18.1C16.0662 18.0995 16.4304 17.6963 16.4308 17.0617C16.4325 14.9194 16.4317 12.7767 16.4308 10.6345C16.4308 10.4773 16.436 10.3214 16.4843 10.1718C16.626 9.73329 17.0412 9.47561 17.4962 9.54126C17.9062 9.60021 18.2392 9.98561 18.258 10.4322C18.2666 10.6327 18.2606 10.8337 18.2606 11.0346Z" fill="black"/>
<path d="M9.12457 7.6223C6.61296 7.62587 4.57217 9.75428 4.56875 12.3744C4.5649 15.007 6.60312 17.1376 9.12885 17.1416C11.6537 17.1456 13.6937 15.0181 13.6924 12.3811C13.6911 9.74624 11.6486 7.61828 9.12457 7.6223ZM9.13741 15.2445C7.62694 15.2481 6.3951 13.9588 6.3981 12.3775C6.40109 10.7984 7.61324 9.53411 9.12799 9.53054C10.6436 9.52741 11.8793 10.814 11.8737 12.39C11.8682 13.9553 10.6359 15.241 9.13741 15.2445Z" fill="black"/>
<path d="M20.2599 4.74409C20.1006 4.77579 19.9333 4.76329 19.7698 4.76418C19.3208 4.76642 18.8718 4.77043 18.4228 4.7615C18.2927 4.75927 18.255 4.79098 18.2572 4.93165C18.2657 5.48898 18.2623 6.04676 18.2602 6.60454C18.2585 7.19492 17.8745 7.62141 17.3485 7.62185C16.8233 7.62185 16.4368 7.1976 16.4325 6.60633C16.4283 6.04855 16.427 5.49077 16.4347 4.93344C16.4368 4.79544 16.4026 4.75614 16.2703 4.7615C15.9925 4.77311 15.7143 4.76508 15.4365 4.76508C15.1588 4.76508 14.9088 4.76731 14.6451 4.76463C14.102 4.75927 13.6911 4.34484 13.6941 3.80805C13.6971 3.28243 14.0994 2.868 14.6327 2.85862C15.1386 2.84969 15.6446 2.85683 16.1509 2.85683C16.3381 2.85654 16.4317 2.75948 16.4317 2.56566C16.4317 2.05254 16.4291 1.53942 16.4317 1.0263C16.4364 0.43726 16.8212 0.00586269 17.3416 5.71386e-05C17.8698 -0.00574841 18.2589 0.431454 18.2606 1.03523C18.2619 1.57827 18.2662 2.12087 18.2572 2.66347C18.2546 2.8162 18.2871 2.86398 18.4412 2.86085C18.9827 2.85014 19.5245 2.84969 20.066 2.85907C20.5689 2.86711 20.9524 3.23152 20.9961 3.72186C21.0389 4.20908 20.729 4.6512 20.2599 4.74409Z" fill="black"/>
</svg>
