<svg width="32" height="8" viewBox="0 0 32 8" fill="none" xmlns="http://www.w3.org/2000/svg">
<g clip-path="url(#clip0_1232_6789)">
<path d="M2.93167 3.11182L2.74854 3.90099L2.9302 3.94365L3.1376 3.05151L2.93167 3.11182Z" fill="#3A3D3E"/>
<path d="M2.43376 2.94489L2.33594 3.36337L3.33693 3.59652L3.44725 3.12361L2.43376 2.94489Z" fill="#8E9193"/>
<path d="M3.19844 4.31066C3.17672 4.4039 3.12783 4.4886 3.05796 4.55405C2.9881 4.6195 2.90039 4.66276 2.80594 4.67835C2.71148 4.69394 2.61452 4.68117 2.52733 4.64165C2.44013 4.60213 2.36662 4.53764 2.31608 4.45633C2.26555 4.37502 2.24026 4.28055 2.24343 4.18487C2.24659 4.08919 2.27806 3.99659 2.33386 3.9188C2.38966 3.84101 2.46728 3.78151 2.55689 3.74784C2.64651 3.71417 2.7441 3.70783 2.83732 3.72963C2.96222 3.75885 3.07042 3.83645 3.13814 3.9454C3.20585 4.05435 3.22754 4.18573 3.19844 4.31066Z" fill="#2E2F30"/>
<path d="M3.04466 4.27461C3.03017 4.33744 2.99736 4.39455 2.95039 4.43872C2.90342 4.48289 2.84441 4.51213 2.78081 4.52274C2.71721 4.53335 2.6519 4.52486 2.59313 4.49833C2.53437 4.4718 2.48479 4.42844 2.45069 4.37372C2.41658 4.31901 2.39947 4.2554 2.40153 4.19096C2.40359 4.12652 2.42473 4.06413 2.46226 4.01171C2.49979 3.95928 2.55203 3.91917 2.61237 3.89645C2.67271 3.87373 2.73843 3.86942 2.80122 3.88407C2.88523 3.90368 2.95805 3.9558 3.00368 4.02901C3.04932 4.10222 3.06406 4.19055 3.04466 4.27461Z" fill="black"/>
<path d="M2.99713 4.2636C2.98479 4.3169 2.95691 4.36534 2.91704 4.40279C2.87716 4.44025 2.82706 4.46504 2.77309 4.47402C2.71912 4.48299 2.66371 4.47576 2.61385 4.45323C2.56399 4.43071 2.52193 4.3939 2.493 4.34746C2.46407 4.30103 2.44956 4.24705 2.45131 4.19237C2.45307 4.13769 2.471 4.08475 2.50284 4.04026C2.53469 3.99578 2.57901 3.96173 2.63021 3.94244C2.6814 3.92315 2.73717 3.91948 2.79046 3.9319C2.86182 3.94852 2.92367 3.99279 2.96242 4.05498C3.00117 4.11718 3.01365 4.19221 2.99713 4.2636Z" fill="#BABCBE"/>
<path d="M2.83915 4.23053C2.83393 4.25242 2.82234 4.27228 2.80585 4.2876C2.78936 4.30292 2.7687 4.31302 2.74648 4.31662C2.72426 4.32022 2.70148 4.31716 2.68099 4.30783C2.66051 4.29849 2.64325 4.28331 2.63138 4.26418C2.61952 4.24505 2.61358 4.22284 2.61432 4.20034C2.61506 4.17785 2.62244 4.15607 2.63554 4.13777C2.64863 4.11946 2.66685 4.10543 2.68791 4.09747C2.70896 4.0895 2.7319 4.08794 2.75383 4.09299C2.78334 4.09999 2.80888 4.11838 2.82487 4.14416C2.84086 4.16993 2.84599 4.20098 2.83915 4.23053Z" fill="#58595B"/>
<path d="M2.76196 4.18563C2.75978 4.19578 2.75463 4.20504 2.74716 4.21224C2.73969 4.21945 2.73025 4.22426 2.72003 4.22607C2.70981 4.22788 2.69929 4.22661 2.6898 4.22242C2.68031 4.21822 2.67228 4.2113 2.66675 4.20252C2.66121 4.19375 2.65841 4.18352 2.65871 4.17315C2.65901 4.16278 2.6624 4.15273 2.66843 4.14429C2.67446 4.13585 2.68287 4.1294 2.69259 4.12576C2.70231 4.12212 2.71289 4.12145 2.72298 4.12385C2.73627 4.12701 2.74779 4.13524 2.75507 4.14679C2.76236 4.15834 2.76483 4.17228 2.76196 4.18563Z" fill="#747477"/>
<path d="M13.949 5.67719L13.7651 6.46563L13.9468 6.50829L14.1549 5.61615L13.949 5.67719Z" fill="#3A3D3E"/>
<path d="M13.9989 7.17923C14.2258 7.03804 14.2953 6.7396 14.1541 6.51267C14.0129 6.28574 13.7145 6.21624 13.4876 6.35743C13.2606 6.49863 13.1911 6.79706 13.3323 7.024C13.4735 7.25093 13.772 7.32043 13.9989 7.17923Z" fill="#2E2F30"/>
<path d="M14.0616 6.84001C14.047 6.90276 14.0141 6.95977 13.967 7.00383C13.92 7.04789 13.861 7.07701 13.7974 7.08752C13.7338 7.09803 13.6686 7.08945 13.6099 7.06287C13.5512 7.03629 13.5017 6.9929 13.4676 6.93819C13.4336 6.88347 13.4165 6.8199 13.4186 6.75549C13.4207 6.69109 13.4419 6.62875 13.4794 6.57636C13.5169 6.52397 13.5691 6.48388 13.6294 6.46117C13.6897 6.43845 13.7554 6.43412 13.8181 6.44873C13.9022 6.4685 13.975 6.52077 14.0207 6.5941C14.0663 6.66743 14.081 6.75585 14.0616 6.84001Z" fill="black"/>
<path d="M14.0141 6.82893C14.0016 6.88216 13.9736 6.9305 13.9337 6.96785C13.8937 7.00519 13.8436 7.02986 13.7897 7.03873C13.7357 7.04761 13.6804 7.04029 13.6306 7.01771C13.5808 6.99513 13.5388 6.9583 13.5099 6.91186C13.4811 6.86543 13.4666 6.81149 13.4684 6.75684C13.4702 6.7022 13.4881 6.64931 13.52 6.60486C13.5518 6.56041 13.5961 6.52639 13.6472 6.5071C13.6984 6.48781 13.7541 6.48412 13.8074 6.49649C13.8428 6.50472 13.8762 6.51985 13.9058 6.54102C13.9354 6.56219 13.9605 6.58898 13.9797 6.61985C13.9989 6.65073 14.0118 6.68509 14.0177 6.72097C14.0236 6.75684 14.0223 6.79353 14.0141 6.82893Z" fill="#BABCBE"/>
<path d="M13.8564 6.7922C13.8513 6.81431 13.8398 6.83442 13.8233 6.84998C13.8068 6.86555 13.786 6.87586 13.7636 6.87962C13.7412 6.88338 13.7183 6.88042 13.6976 6.87111C13.6769 6.8618 13.6594 6.84656 13.6474 6.82733C13.6353 6.80809 13.6293 6.78571 13.6299 6.76303C13.6306 6.74034 13.638 6.71837 13.6512 6.69989C13.6643 6.68141 13.6827 6.66724 13.7039 6.65919C13.7251 6.65114 13.7483 6.64957 13.7704 6.65466C13.8 6.66149 13.8257 6.67982 13.8419 6.70561C13.858 6.7314 13.8633 6.76255 13.8564 6.7922Z" fill="#58595B"/>
<path d="M13.7783 6.75097C13.7767 6.75761 13.7738 6.76387 13.7698 6.7694C13.7659 6.77492 13.7608 6.7796 13.755 6.78316C13.7492 6.78672 13.7427 6.78908 13.736 6.79012C13.7292 6.79116 13.7224 6.79085 13.7157 6.78921C13.7091 6.78783 13.7027 6.78511 13.6971 6.78123C13.6915 6.77734 13.6868 6.77237 13.6831 6.7666C13.6795 6.76084 13.677 6.7544 13.676 6.74767C13.6749 6.74094 13.6751 6.73406 13.6768 6.72743C13.6806 6.71479 13.6891 6.70408 13.7006 6.69747C13.7121 6.69087 13.7256 6.68885 13.7385 6.69184C13.7514 6.69483 13.7626 6.70259 13.77 6.71357C13.7774 6.72454 13.7803 6.73791 13.7783 6.75097Z" fill="#747477"/>
<path d="M12.9055 5.43372L12.7217 6.22289L12.9033 6.26555L13.1115 5.37341L12.9055 5.43372Z" fill="#3A3D3E"/>
<path d="M12.4221 5.20282L12.3096 5.68603L14.3902 6.16998L14.5175 5.62425L12.4221 5.20282Z" fill="#8E9193"/>
<path d="M12.9549 6.93613C13.1819 6.79493 13.2514 6.4965 13.1102 6.26957C12.969 6.04264 12.6706 5.97313 12.4436 6.11433C12.2167 6.25553 12.1472 6.55396 12.2884 6.7809C12.4296 7.00783 12.728 7.07733 12.9549 6.93613Z" fill="#2E2F30"/>
<path d="M13.0181 6.59657C13.0036 6.65916 12.9707 6.71602 12.9238 6.75997C12.877 6.80392 12.8181 6.83298 12.7547 6.84349C12.6913 6.85399 12.6262 6.84547 12.5676 6.81899C12.5091 6.79252 12.4597 6.74928 12.4257 6.69474C12.3917 6.6402 12.3746 6.57681 12.3766 6.51258C12.3786 6.44834 12.3997 6.38614 12.437 6.33385C12.4744 6.28155 12.5264 6.24149 12.5865 6.21874C12.6466 6.19599 12.7121 6.19157 12.7747 6.20603C12.8164 6.21556 12.8558 6.23324 12.8906 6.25806C12.9255 6.28288 12.9551 6.31435 12.9777 6.35065C13.0003 6.38695 13.0155 6.42736 13.0225 6.46957C13.0294 6.51177 13.0279 6.55494 13.0181 6.59657Z" fill="black"/>
<path d="M12.9703 6.58403C12.9579 6.63733 12.9301 6.68578 12.8902 6.72323C12.8503 6.76069 12.8002 6.78547 12.7462 6.79445C12.6923 6.80343 12.6368 6.7962 12.587 6.77367C12.5371 6.75114 12.4951 6.71433 12.4661 6.6679C12.4372 6.62146 12.4227 6.56749 12.4245 6.51281C12.4262 6.45812 12.4441 6.40519 12.476 6.3607C12.5078 6.31621 12.5522 6.28217 12.6034 6.26288C12.6545 6.24359 12.7103 6.23992 12.7636 6.25233C12.799 6.26047 12.8324 6.27552 12.862 6.29662C12.8915 6.31771 12.9166 6.34444 12.9358 6.37526C12.955 6.40608 12.968 6.44038 12.9739 6.47621C12.9798 6.51204 12.9786 6.54868 12.9703 6.58403Z" fill="#BABCBE"/>
<path d="M12.813 6.54873C12.8079 6.57084 12.7964 6.59095 12.7798 6.60652C12.7633 6.62208 12.7426 6.63239 12.7202 6.63615C12.6978 6.63991 12.6748 6.63695 12.6541 6.62764C12.6334 6.61833 12.6159 6.60309 12.6039 6.58385C12.5919 6.56462 12.5858 6.54224 12.5865 6.51956C12.5872 6.49687 12.5946 6.4749 12.6077 6.45642C12.6209 6.43794 12.6392 6.42378 12.6605 6.41573C12.6817 6.40768 12.7048 6.4061 12.7269 6.41119C12.7566 6.41802 12.7823 6.43635 12.7984 6.46214C12.8146 6.48794 12.8198 6.51908 12.813 6.54873Z" fill="#58595B"/>
<path d="M12.7349 6.51046C12.7334 6.51708 12.7306 6.52333 12.7266 6.52885C12.7226 6.53437 12.7176 6.53906 12.7119 6.54264C12.7061 6.54623 12.6997 6.54864 12.693 6.54975C12.6863 6.55085 12.6794 6.55062 12.6728 6.54908C12.6662 6.54753 12.6599 6.5447 12.6544 6.54074C12.6489 6.53678 12.6442 6.53177 12.6406 6.526C12.637 6.52023 12.6346 6.51381 12.6335 6.5071C12.6324 6.5004 12.6326 6.49355 12.6342 6.48693C12.6373 6.47357 12.6456 6.46199 12.6572 6.45475C12.6689 6.44751 12.683 6.4452 12.6963 6.44832C12.7097 6.45144 12.7213 6.45974 12.7285 6.47139C12.7357 6.48305 12.7381 6.4971 12.7349 6.51046Z" fill="#747477"/>
<path d="M23.7539 4.85052C24.1431 4.91266 24.5418 4.84029 24.8843 4.64532C25.4867 4.3173 29.8856 1.65118 29.8856 1.65118C30.019 1.55732 30.1827 1.51666 30.3445 1.53718C30.6152 1.57322 31.8309 1.80122 31.8309 1.80122C31.8309 1.80122 32.0685 1.84241 31.9839 2.00862C31.8993 2.17484 28.6404 6.00154 28.6404 6.00154C28.625 6.01264 28.612 6.02684 28.6024 6.04323C28.5927 6.05962 28.5866 6.07785 28.5844 6.09674C28.5821 6.11564 28.5839 6.13479 28.5895 6.15297C28.5951 6.17115 28.6044 6.18796 28.6169 6.20233C28.6169 6.20233 28.6551 6.33545 28.4088 6.29868C28.1624 6.2619 24.0466 4.98732 23.7539 4.85052Z" fill="#E4E5E6"/>
<path d="M25.6218 4.74536C25.9157 4.77008 26.2114 4.7654 26.5044 4.73138C27.0667 4.66385 27.6225 4.54945 28.1658 4.38939C28.8277 4.20331 29.472 3.9481 30.145 3.801C30.2855 3.76938 30.4267 3.74511 30.5679 3.72745C31.0026 3.21262 31.413 2.72132 31.6785 2.39771C31.4894 2.41386 31.3017 2.44286 31.1166 2.48449C30.5076 2.62129 29.9317 2.87356 29.3735 3.14643C29.0852 3.28837 28.7991 3.4362 28.513 3.58183C28.2269 3.72745 27.9202 3.88411 27.612 4.00988C26.9537 4.27836 26.2601 4.45028 25.5527 4.5203C25.3886 4.53648 25.2232 4.54678 25.0584 4.55119L24.9849 4.59311C25.1881 4.67635 25.4029 4.7277 25.6218 4.74536Z" fill="#005C8D"/>
<g style="mix-blend-mode:multiply">
<path d="M28.6382 6.00152L28.9545 5.62789L28.7405 5.56391C28.3963 5.4602 28.0521 5.35577 27.7049 5.26015C27.3578 5.16454 27.0121 5.0829 26.6627 5.00641C26.0891 4.88064 25.5124 4.76665 24.9461 4.60925L24.8843 4.64382C24.5418 4.83878 24.1431 4.91117 23.7539 4.84902C24.0481 4.98582 28.1594 6.26041 28.4066 6.29718C28.6537 6.33395 28.6147 6.20083 28.6147 6.20083C28.6025 6.18649 28.5933 6.16978 28.5879 6.15175C28.5824 6.13372 28.5807 6.11475 28.5829 6.09603C28.5851 6.07732 28.5912 6.05927 28.6007 6.043C28.6102 6.02674 28.623 6.01261 28.6382 6.00152Z" fill="#C4C6C7"/>
</g>
<path d="M19.5849 3.20084L6.95746 0.0779944C6.95746 0.0779944 4.38843 -0.34123 2.46147 0.764196C1.78189 1.154 0.752215 1.01867 0.188837 1.57322C0.188837 1.57322 -0.232593 2.06379 0.183689 2.36534C0.59997 2.66688 14.299 6.34208 20.3917 7.09521C26.4844 7.84834 29.0285 7.1364 29.2513 6.72747C29.4742 6.31854 28.8924 5.85078 27.2891 5.37492C27.2891 5.37419 22.7909 4.14814 19.5849 3.20084Z" fill="#F4F4F4"/>
<g style="mix-blend-mode:multiply">
<path d="M20.4838 6.69728C14.3919 5.94341 0.692078 2.26822 0.275796 1.96667C0.230418 1.93648 0.19146 1.8976 0.161166 1.85228C0.130872 1.80697 0.10984 1.75611 0.0992811 1.70264C0.0044042 1.86886 -0.0985629 2.15937 0.183861 2.36457C0.599408 2.66612 14.2992 6.34131 20.3919 7.09444C26.4846 7.84757 29.0287 7.13563 29.2515 6.7267C29.2786 6.67979 29.2941 6.62707 29.2967 6.57294C29.2993 6.51881 29.2888 6.46485 29.2662 6.41559C28.7624 6.82746 26.1669 7.39966 20.4838 6.69728Z" fill="#F4F4F4"/>
</g>
<path d="M27.2894 5.37416C27.2894 5.37416 22.7912 4.14811 19.5853 3.20082L17.334 2.64038C17.5559 2.78179 17.764 2.94383 17.9555 3.12433C18.3784 3.53325 18.6865 4.03264 18.991 4.53204C19.1418 4.77916 19.2911 5.02848 19.4647 5.26163C19.6382 5.49478 19.8324 5.73381 20.0325 5.95666C20.4363 6.41146 20.8831 6.82623 21.3666 7.19521L21.3821 7.20698C26.7621 7.76815 29.0428 7.1121 29.2517 6.72671C29.4746 6.31778 28.8928 5.84854 27.2894 5.37416Z" fill="#005C8D"/>
<path d="M23.5781 5.71252C23.5316 5.78548 23.5017 5.86779 23.4907 5.9536C23.4796 6.03941 23.4876 6.12661 23.5141 6.20897C23.5141 6.20897 25.7941 6.74661 29.0832 7.23056C29.0832 7.23056 30.0915 7.10111 29.7274 7.01653C29.3634 6.93195 23.5781 5.71252 23.5781 5.71252Z" fill="#C4C6C7"/>
<g style="mix-blend-mode:screen">
<path d="M23.5856 5.711C23.5065 5.86151 23.4687 6.03025 23.476 6.20009C24.4429 6.40961 25.4228 6.55434 26.4091 6.63329C26.4091 6.63329 26.9673 6.43103 26.7768 6.3869C26.5863 6.34278 23.5856 5.711 23.5856 5.711Z" fill="#C4C6C7"/>
</g>
<path d="M5.33085 2.93535L4.95355 2.84709C4.93331 2.84241 4.9142 2.83379 4.89729 2.82172C4.88039 2.80965 4.86603 2.79437 4.85503 2.77675C4.84404 2.75913 4.83662 2.73951 4.83321 2.71902C4.82979 2.69853 4.83045 2.67757 4.83514 2.65734L5.13448 1.37025C5.1441 1.32932 5.16955 1.29388 5.20525 1.27169C5.24096 1.24949 5.28401 1.24235 5.32497 1.25184L5.70227 1.3401C5.72249 1.34477 5.74158 1.3534 5.75845 1.36548C5.77532 1.37756 5.78964 1.39286 5.80058 1.41049C5.81151 1.42813 5.81886 1.44775 5.82218 1.46824C5.8255 1.48872 5.82474 1.50966 5.81994 1.52985L5.5206 2.81694C5.51592 2.83718 5.5073 2.85629 5.49523 2.8732C5.48316 2.8901 5.46788 2.90446 5.45026 2.91546C5.43264 2.92645 5.41302 2.93387 5.39253 2.93728C5.37204 2.9407 5.35108 2.94004 5.33085 2.93535ZM5.32202 1.26434C5.2844 1.25593 5.24498 1.26262 5.21225 1.28298C5.17951 1.30334 5.15607 1.33573 5.14698 1.37319L4.8469 2.66028C4.83851 2.698 4.84531 2.73751 4.86581 2.77027C4.88632 2.80302 4.91889 2.82639 4.95649 2.83533L5.33306 2.92285C5.37068 2.93126 5.4101 2.92457 5.44283 2.90421C5.47557 2.88386 5.49901 2.85146 5.5081 2.814L5.80818 1.52691C5.81659 1.48929 5.8099 1.44987 5.78954 1.41713C5.76918 1.38439 5.73679 1.36096 5.69932 1.35186L5.32202 1.26434Z" fill="#959799"/>
<path d="M6.6416 1.53828L6.50263 1.50594C6.44724 1.49305 6.3919 1.5275 6.37901 1.58289L6.30716 1.89163C6.29427 1.94702 6.32872 2.00237 6.38411 2.01526L6.52308 2.0476C6.57847 2.06049 6.63382 2.02604 6.64671 1.97065L6.71855 1.66191C6.73144 1.60652 6.69699 1.55117 6.6416 1.53828Z" fill="#676A6B"/>
<path d="M6.53896 1.5899L6.4795 1.57605C6.45577 1.57052 6.43204 1.58528 6.42651 1.60902L6.38514 1.78666C6.37961 1.8104 6.39438 1.83412 6.41811 1.83965L6.47757 1.8535C6.5013 1.85903 6.52503 1.84426 6.53055 1.82053L6.57193 1.64288C6.57745 1.61915 6.56269 1.59542 6.53896 1.5899Z" fill="#97999B"/>
<path d="M7.15868 1.66076L7.01972 1.6284C6.96433 1.6155 6.90898 1.64994 6.89608 1.70533L6.82418 2.01406C6.81128 2.06944 6.84572 2.1248 6.90111 2.13769L7.04007 2.17006C7.09546 2.18296 7.15081 2.14852 7.16371 2.09313L7.23561 1.7844C7.24851 1.72902 7.21407 1.67366 7.15868 1.66076Z" fill="#676A6B"/>
<path d="M7.0619 1.71056L7.00245 1.69672C6.97871 1.69119 6.95499 1.70595 6.94946 1.72969L6.90809 1.90733C6.90256 1.93107 6.91732 1.95479 6.94106 1.96032L7.00051 1.97416C7.02425 1.97969 7.04797 1.96493 7.0535 1.94119L7.09487 1.76355C7.1004 1.73981 7.08564 1.71609 7.0619 1.71056Z" fill="#97999B"/>
<path d="M7.68262 1.78126L7.54365 1.74892C7.48826 1.73603 7.43291 1.77049 7.42002 1.82587L7.34818 2.13462C7.33529 2.19 7.36974 2.24535 7.42512 2.25824L7.56409 2.29058C7.61948 2.30347 7.67483 2.26902 7.68772 2.21363L7.75957 1.90489C7.77246 1.8495 7.738 1.79415 7.68262 1.78126Z" fill="#676A6B"/>
<path d="M7.58339 1.83109L7.52394 1.81725C7.5002 1.81173 7.47648 1.82649 7.47096 1.85023L7.42961 2.02788C7.42409 2.05162 7.43885 2.07534 7.46259 2.08087L7.52205 2.0947C7.54579 2.10023 7.56951 2.08546 7.57503 2.06172L7.61637 1.88407C7.6219 1.86033 7.60713 1.83661 7.58339 1.83109Z" fill="#97999B"/>
<path d="M8.1997 1.90228L8.06073 1.86991C8.00535 1.85701 7.94999 1.89146 7.93709 1.94684L7.86519 2.25557C7.8523 2.31096 7.88674 2.36631 7.94212 2.37921L8.08109 2.41157C8.13647 2.42447 8.19183 2.39003 8.20473 2.33464L8.27663 2.02591C8.28952 1.97053 8.25508 1.91517 8.1997 1.90228Z" fill="#676A6B"/>
<path d="M8.10341 1.95299L8.04396 1.93915C8.02022 1.93362 7.9965 1.94838 7.99097 1.97212L7.9496 2.14976C7.94407 2.1735 7.95883 2.19722 7.98257 2.20275L8.04202 2.2166C8.06576 2.22212 8.08948 2.20736 8.09501 2.18363L8.13638 2.00598C8.14191 1.98224 8.12715 1.95852 8.10341 1.95299Z" fill="#97999B"/>
<path d="M8.72363 2.0226L8.58466 1.99026C8.52927 1.97737 8.47393 2.01182 8.46104 2.06721L8.38919 2.37595C8.3763 2.43134 8.41075 2.48669 8.46614 2.49958L8.60511 2.53191C8.6605 2.5448 8.71585 2.51035 8.72874 2.45497L8.80058 2.14622C8.81347 2.09083 8.77902 2.03548 8.72363 2.0226Z" fill="#676A6B"/>
<path d="M8.62099 2.07458L8.56153 2.06073C8.5378 2.0552 8.51407 2.06996 8.50855 2.0937L8.46717 2.27134C8.46165 2.29508 8.47641 2.3188 8.50014 2.32433L8.5596 2.33818C8.58333 2.34371 8.60706 2.32894 8.61258 2.30521L8.65396 2.12756C8.65948 2.10383 8.64472 2.0801 8.62099 2.07458Z" fill="#97999B"/>
<path d="M9.2412 2.14538L9.10224 2.11302C9.04685 2.10012 8.9915 2.13456 8.9786 2.18995L8.9067 2.49868C8.8938 2.55406 8.92824 2.60942 8.98363 2.62231L9.12259 2.65468C9.17797 2.66758 9.23333 2.63313 9.24623 2.57775L9.31813 2.26902C9.33103 2.21363 9.29659 2.15828 9.2412 2.14538Z" fill="#676A6B"/>
<path d="M9.14345 2.19524L9.08399 2.1814C9.06026 2.17587 9.03653 2.19063 9.03101 2.21437L8.98963 2.39201C8.98411 2.41575 8.99887 2.43947 9.0226 2.445L9.08206 2.45884C9.10579 2.46437 9.12952 2.44961 9.13505 2.42587L9.17642 2.24823C9.18195 2.22449 9.16718 2.20077 9.14345 2.19524Z" fill="#97999B"/>
<path d="M9.76465 2.26539L9.62568 2.23305C9.57029 2.22017 9.51494 2.25462 9.50205 2.31L9.43021 2.61875C9.41732 2.67413 9.45177 2.72948 9.50716 2.74237L9.64613 2.77471C9.70151 2.7876 9.75686 2.75315 9.76975 2.69776L9.8416 2.38902C9.85449 2.33363 9.82004 2.27828 9.76465 2.26539Z" fill="#676A6B"/>
<path d="M9.6664 2.3154L9.60694 2.30157C9.58321 2.29604 9.55949 2.31081 9.55396 2.33455L9.51262 2.5122C9.5071 2.53594 9.52186 2.55966 9.5456 2.56518L9.60506 2.57902C9.62879 2.58454 9.65251 2.56978 9.65804 2.54604L9.69938 2.36839C9.7049 2.34465 9.69014 2.32093 9.6664 2.3154Z" fill="#97999B"/>
<path d="M10.2812 2.3869L10.1423 2.35453C10.0869 2.34163 10.0315 2.37607 10.0186 2.43146L9.94674 2.74019C9.93384 2.79557 9.96828 2.85093 10.0237 2.86383L10.1626 2.89619C10.218 2.90909 10.2734 2.87465 10.2863 2.81926L10.3582 2.51053C10.3711 2.45515 10.3366 2.39979 10.2812 2.3869Z" fill="#676A6B"/>
<path d="M10.1859 2.43688L10.1265 2.42303C10.1027 2.41751 10.079 2.43227 10.0735 2.456L10.0321 2.63365C10.0266 2.65738 10.0413 2.68111 10.0651 2.68664L10.1245 2.70048C10.1483 2.70601 10.172 2.69125 10.1775 2.66751L10.2189 2.48987C10.2244 2.46613 10.2097 2.44241 10.1859 2.43688Z" fill="#97999B"/>
<path d="M10.8057 2.50764L10.6667 2.4753C10.6113 2.46241 10.556 2.49687 10.5431 2.55225L10.4712 2.861C10.4583 2.91638 10.4928 2.97173 10.5482 2.98462L10.6871 3.01696C10.7425 3.02985 10.7979 2.9954 10.8108 2.94001L10.8826 2.63127C10.8955 2.57588 10.8611 2.52053 10.8057 2.50764Z" fill="#676A6B"/>
<path d="M10.7064 2.5582L10.647 2.54436C10.6232 2.53884 10.5995 2.55361 10.594 2.57734L10.5527 2.75499C10.5471 2.77873 10.5619 2.80245 10.5856 2.80798L10.6451 2.82181C10.6688 2.82734 10.6926 2.81257 10.6981 2.78883L10.7394 2.61118C10.7449 2.58745 10.7302 2.56372 10.7064 2.5582Z" fill="#97999B"/>
<path d="M11.3232 2.63006L11.1843 2.5977C11.1289 2.5848 11.0735 2.61924 11.0606 2.67462L10.9887 2.98335C10.9758 3.03874 11.0103 3.09409 11.0657 3.10699L11.2046 3.13936C11.26 3.15225 11.3154 3.11781 11.3283 3.06243L11.4002 2.7537C11.4131 2.69831 11.3786 2.64296 11.3232 2.63006Z" fill="#676A6B"/>
<path d="M11.2255 2.67986L11.166 2.66602C11.1423 2.66049 11.1186 2.67525 11.113 2.69898L11.0717 2.87663C11.0661 2.90037 11.0809 2.92409 11.1046 2.92962L11.1641 2.94346C11.1878 2.94899 11.2115 2.93423 11.2171 2.91049L11.2584 2.73285C11.264 2.70911 11.2492 2.68539 11.2255 2.67986Z" fill="#97999B"/>
<path d="M11.8467 2.74971L11.7077 2.71737C11.6523 2.70448 11.597 2.73893 11.5841 2.79432L11.5122 3.10306C11.4993 3.15845 11.5338 3.2138 11.5892 3.22668L11.7282 3.25902C11.7835 3.27191 11.8389 3.23746 11.8518 3.18207L11.9236 2.87333C11.9365 2.81795 11.9021 2.7626 11.8467 2.74971Z" fill="#676A6B"/>
<path d="M11.744 2.80218L11.6846 2.78833C11.6608 2.7828 11.6371 2.79756 11.6316 2.8213L11.5902 2.99895C11.5847 3.02268 11.5995 3.0464 11.6232 3.05193L11.6826 3.06578C11.7064 3.07131 11.7301 3.05655 11.7356 3.03281L11.777 2.85516C11.7825 2.83143 11.7678 2.8077 11.744 2.80218Z" fill="#97999B"/>
<path d="M12.3642 2.87158L12.2253 2.83921C12.1699 2.82631 12.1145 2.86075 12.1016 2.91614L12.0297 3.22487C12.0168 3.28026 12.0513 3.33561 12.1067 3.34851L12.2456 3.38087C12.301 3.39377 12.3564 3.35933 12.3693 3.30395L12.4412 2.99521C12.4541 2.93983 12.4196 2.88447 12.3642 2.87158Z" fill="#676A6B"/>
<path d="M12.267 2.92229L12.2075 2.90845C12.1838 2.90292 12.1601 2.91768 12.1545 2.94142L12.1132 3.11906C12.1076 3.1428 12.1224 3.16652 12.1461 3.17205L12.2056 3.18589C12.2293 3.19142 12.2531 3.17666 12.2586 3.15293L12.3 2.97528C12.3055 2.95155 12.2907 2.92782 12.267 2.92229Z" fill="#97999B"/>
<path d="M12.8877 2.99196L12.7487 2.95962C12.6933 2.94673 12.638 2.98118 12.6251 3.03657L12.5533 3.34531C12.5404 3.4007 12.5748 3.45605 12.6302 3.46894L12.7692 3.50128C12.8246 3.51416 12.8799 3.47971 12.8928 3.42433L12.9646 3.11558C12.9775 3.0602 12.9431 3.00485 12.8877 2.99196Z" fill="#676A6B"/>
<path d="M12.7885 3.04251L12.729 3.02868C12.7053 3.02315 12.6816 3.03792 12.676 3.06166L12.6347 3.23931C12.6292 3.26305 12.6439 3.28677 12.6677 3.29229L12.7271 3.30613C12.7509 3.31165 12.7746 3.29689 12.7801 3.27315L12.8215 3.0955C12.827 3.07176 12.8122 3.04804 12.7885 3.04251Z" fill="#97999B"/>
<path d="M13.4043 3.1145L13.2653 3.08213C13.2099 3.06923 13.1546 3.10367 13.1417 3.15906L13.0698 3.46779C13.0569 3.52317 13.0913 3.57853 13.1467 3.59143L13.2857 3.62379C13.3411 3.63669 13.3964 3.60225 13.4093 3.54686L13.4812 3.23813C13.4941 3.18275 13.4597 3.12739 13.4043 3.1145Z" fill="#676A6B"/>
<path d="M13.3085 3.16454L13.249 3.1507C13.2253 3.14517 13.2016 3.15993 13.196 3.18367L13.1547 3.36131C13.1491 3.38505 13.1639 3.40877 13.1876 3.4143L13.2471 3.42814C13.2708 3.43367 13.2946 3.41891 13.3001 3.39518L13.3415 3.21753C13.347 3.19379 13.3322 3.17007 13.3085 3.16454Z" fill="#97999B"/>
<path d="M13.9287 3.23475L13.7897 3.20241C13.7344 3.18953 13.679 3.22398 13.6661 3.27936L13.5943 3.58811C13.5814 3.64349 13.6158 3.69884 13.6712 3.71173L13.8102 3.74407C13.8656 3.75696 13.9209 3.72251 13.9338 3.66712L14.0057 3.35838C14.0185 3.30299 13.9841 3.24764 13.9287 3.23475Z" fill="#676A6B"/>
<path d="M13.8261 3.28753L13.7666 3.27368C13.7429 3.26815 13.7192 3.28291 13.7136 3.30665L13.6723 3.4843C13.6667 3.50803 13.6815 3.53176 13.7052 3.53729L13.7647 3.55113C13.7884 3.55666 13.8121 3.5419 13.8177 3.51816L13.859 3.34052C13.8646 3.31678 13.8498 3.29306 13.8261 3.28753Z" fill="#97999B"/>
<path d="M14.4492 3.35554L14.3102 3.3232C14.2549 3.31031 14.1995 3.34477 14.1866 3.40016L14.1148 3.7089C14.1019 3.76428 14.1363 3.81963 14.1917 3.83252L14.3307 3.86486C14.3861 3.87775 14.4414 3.8433 14.4543 3.78791L14.5262 3.47917C14.5391 3.42378 14.5046 3.36843 14.4492 3.35554Z" fill="#676A6B"/>
<path d="M14.3461 3.40752L14.2866 3.39368C14.2629 3.38815 14.2392 3.40291 14.2336 3.42665L14.1923 3.60429C14.1867 3.62803 14.2015 3.65175 14.2252 3.65728L14.2847 3.67112C14.3084 3.67665 14.3322 3.66189 14.3377 3.63815L14.3791 3.46051C14.3846 3.43677 14.3698 3.41305 14.3461 3.40752Z" fill="#97999B"/>
<path d="M14.9697 3.47627L14.8308 3.44393C14.7754 3.43104 14.72 3.46549 14.7071 3.52088L14.6353 3.82962C14.6224 3.88501 14.6568 3.94036 14.7122 3.95325L14.8512 3.98559C14.9066 3.99848 14.9619 3.96402 14.9748 3.90864L15.0467 3.5999C15.0596 3.54451 15.0251 3.48916 14.9697 3.47627Z" fill="#676A6B"/>
<path d="M14.8671 3.52904L14.8076 3.5152C14.7839 3.50967 14.7602 3.52443 14.7546 3.54817L14.7133 3.72581C14.7077 3.74955 14.7225 3.77327 14.7462 3.7788L14.8057 3.79265C14.8294 3.79817 14.8531 3.78341 14.8587 3.75968L14.9 3.58203C14.9056 3.5583 14.8908 3.53457 14.8671 3.52904Z" fill="#97999B"/>
<path d="M15.4853 3.59991L15.3464 3.56754C15.291 3.55465 15.2356 3.58909 15.2227 3.64447L15.1508 3.9532C15.1379 4.00859 15.1724 4.06394 15.2278 4.07684L15.3667 4.1092C15.4221 4.1221 15.4775 4.08766 15.4904 4.03228L15.5623 3.72355C15.5752 3.66816 15.5407 3.61281 15.4853 3.59991Z" fill="#676A6B"/>
<path d="M15.39 3.64916L15.3306 3.63531C15.3068 3.62979 15.2831 3.64455 15.2776 3.66828L15.2362 3.84593C15.2307 3.86967 15.2454 3.89339 15.2692 3.89892L15.3286 3.91276C15.3524 3.91829 15.3761 3.90353 15.3816 3.8798L15.423 3.70215C15.4285 3.67841 15.4138 3.65469 15.39 3.64916Z" fill="#97999B"/>
<path d="M16.0107 3.71907L15.8718 3.68673C15.8164 3.67384 15.761 3.70829 15.7481 3.76368L15.6763 4.07242C15.6634 4.12781 15.6979 4.18316 15.7533 4.19605L15.8922 4.22839C15.9476 4.24127 16.003 4.20682 16.0158 4.15144L16.0877 3.84269C16.1006 3.78731 16.0661 3.73196 16.0107 3.71907Z" fill="#676A6B"/>
<path d="M15.9125 3.76981L15.853 3.75597C15.8293 3.75045 15.8056 3.76522 15.8001 3.78895L15.7587 3.96661C15.7532 3.99034 15.768 4.01406 15.7917 4.01959L15.8511 4.03342C15.8749 4.03895 15.8986 4.02418 15.9041 4.00045L15.9455 3.82279C15.951 3.79905 15.9362 3.77533 15.9125 3.76981Z" fill="#97999B"/>
<path d="M16.5317 3.84053L16.3928 3.80819C16.3374 3.7953 16.282 3.82975 16.2691 3.88514L16.1973 4.19388C16.1844 4.24927 16.2189 4.30462 16.2742 4.31751L16.4132 4.34985C16.4686 4.36274 16.524 4.32828 16.5368 4.27289L16.6087 3.96415C16.6216 3.90877 16.5871 3.85342 16.5317 3.84053Z" fill="#676A6B"/>
<path d="M16.4281 3.89287L16.3687 3.87903C16.3449 3.8735 16.3212 3.88826 16.3157 3.912L16.2743 4.08964C16.2688 4.11338 16.2835 4.1371 16.3073 4.14263L16.3667 4.15648C16.3905 4.162 16.4142 4.14724 16.4197 4.12351L16.4611 3.94586C16.4666 3.92213 16.4519 3.8984 16.4281 3.89287Z" fill="#97999B"/>
<path d="M17.0469 3.96301L16.9079 3.93064C16.8525 3.91774 16.7972 3.95219 16.7843 4.00757L16.7124 4.3163C16.6995 4.37169 16.7339 4.42704 16.7893 4.43994L16.9283 4.4723C16.9836 4.4852 17.039 4.45076 17.0519 4.39537L17.1238 4.08664C17.1367 4.03126 17.1022 3.9759 17.0469 3.96301Z" fill="#676A6B"/>
<path d="M16.9535 4.01194L16.8941 3.9981C16.8703 3.99258 16.8466 4.00734 16.8411 4.03108L16.7997 4.20873C16.7942 4.23247 16.809 4.25619 16.8327 4.26171L16.8922 4.27555C16.9159 4.28107 16.9396 4.26631 16.9451 4.24257L16.9865 4.06492C16.992 4.04118 16.9772 4.01746 16.9535 4.01194Z" fill="#97999B"/>
<path d="M4.64368 0.725958L3.25142 0.401611C2.97826 0.499721 2.71399 0.621027 2.46151 0.764202C2.25219 0.876244 2.02737 0.956553 1.79443 1.0025L3.82656 1.47541C4.13553 1.26869 4.41109 1.01595 4.64368 0.725958Z" fill="#4C4F50"/>
<path d="M4.18773 0.620056C4.12963 0.666104 4.06898 0.708829 4.00606 0.748029C3.68619 0.937181 3.3315 1.06 2.96315 1.10915C2.78684 1.13535 2.60891 1.14911 2.43066 1.15034L3.82808 1.47542C4.13704 1.2687 4.4126 1.01596 4.64519 0.725965L4.18773 0.620056Z" fill="#1F2122"/>
<g style="mix-blend-mode:screen">
<path d="M2.52289 0.956124C2.93108 0.801674 3.35104 0.678113 3.75702 0.519249L3.67024 0.49939L3.54373 0.547198C3.07303 0.728126 2.60232 0.910524 2.12646 1.07968L2.18824 1.09366C2.29857 1.04512 2.40962 0.998782 2.52289 0.956124Z" fill="#4C4F50"/>
</g>
<path d="M9.90562 3.87454C9.90562 3.87454 8.75018 3.19201 6.93575 2.95078C6.78498 2.91547 6.53345 3.44134 6.37458 4.12754C6.21572 4.81375 6.2091 5.3933 6.35987 5.42861C6.35987 5.42861 7.46824 5.98022 9.43197 5.91108C9.55627 5.93977 9.7622 5.50804 9.89312 4.94687C10.024 4.3857 10.0284 3.90396 9.90562 3.87454Z" fill="#959799"/>
<path d="M9.90555 3.8745C9.90555 3.8745 8.91192 3.28612 7.32181 3.01031L6.72607 5.56831C7.20193 5.72644 8.1279 5.95444 9.4319 5.90811C9.5562 5.93679 9.76214 5.50506 9.89305 4.94389C10.024 4.38272 10.0284 3.90392 9.90555 3.8745Z" fill="#E4E5E6"/>
<path d="M13.5897 5.21605L10.4521 4.48572L10.3999 4.7424L14.3796 5.66837L16.333 5.52863L14.3531 5.06748L13.5897 5.21605Z" fill="#9A9D9F"/>
<path d="M20.6417 5.02923L19.0663 4.66223L10.5421 4.04663L10.4517 4.48571L13.5892 5.21604L14.3526 5.06748L16.3326 5.52862L20.5969 5.2234L20.6417 5.02923Z" fill="#D5D7D8"/>
<path d="M20.6417 5.02922L19.0663 4.66222L10.5267 4.19592L10.4517 4.4857L13.5892 5.21603L14.3526 5.06747L16.3326 5.52861L20.5969 5.22339L20.6417 5.02922Z" fill="#AFB2B4"/>
<path d="M20.0051 5.14322C19.6506 5.16161 19.2968 5.18809 18.9423 5.21162C18.5878 5.23516 18.2385 5.25428 17.8869 5.27929C17.2618 5.32342 16.6366 5.37637 16.0151 5.45433L16.3329 5.52788L20.5986 5.22265L20.6222 5.12042C20.4155 5.12484 20.2103 5.13293 20.0051 5.14322Z" fill="#D5D7D8"/>
<path d="M17.8352 5.42123L17.9389 5.41388L13.3782 4.35185L13.2002 4.34229L17.8352 5.42123Z" fill="#9A9D9F"/>
<path d="M19.7256 5.28517L19.9139 5.27193L16.7513 4.53572L16.4307 4.51807L19.7256 5.28517Z" fill="#9A9D9F"/>
</g>
<defs>
<clipPath id="clip0_1232_6789">
<rect width="32" height="7.42467" fill="white"/>
</clipPath>
</defs>
</svg>
