<svg width="32" height="31" viewBox="0 0 32 31" fill="none" xmlns="http://www.w3.org/2000/svg">
<rect width="32" height="30.5116" rx="7" fill="#231F20"/>
<g clip-path="url(#clip0_1129_24335)">
<path d="M19.6918 20.2053C19.6206 20.2755 19.5499 20.3457 19.4782 20.4146C19.1283 20.751 18.7766 20.7524 18.4258 20.4091C16.7043 18.7255 14.9842 17.0405 13.2655 15.3542C12.9147 15.01 12.9119 14.6621 13.259 14.3216C14.9828 12.6298 16.7094 10.9403 18.4337 9.24892C18.5812 9.1044 18.745 9.00091 18.9609 9C19.3633 9.00137 19.9979 9.63323 19.9961 10.0271C19.9952 10.251 19.8746 10.4092 19.722 10.5582C18.3244 11.9254 16.9304 13.2972 15.5276 14.6594C15.3825 14.8003 15.3829 14.8664 15.5276 15.0068C16.9192 16.3585 18.3025 17.7189 19.6881 19.0765C20.1036 19.4841 20.104 19.8 19.6918 20.2053Z" fill="white"/>
</g>
<defs>
<clipPath id="clip0_1129_24335">
<rect width="7" height="11.6667" fill="white" transform="translate(13 9)"/>
</clipPath>
</defs>
</svg>
