<svg width="32" height="31" viewBox="0 0 32 31" fill="none" xmlns="http://www.w3.org/2000/svg">
<rect width="32" height="30.5116" rx="7" fill="white"/>
<g clip-path="url(#clip0_35_1375)">
<path d="M19.6919 20.2053C19.6207 20.2755 19.55 20.3457 19.4784 20.4146C19.1285 20.751 18.7767 20.7524 18.4259 20.4091C16.7044 18.7255 14.9843 17.0405 13.2656 15.3542C12.9148 15.01 12.912 14.6621 13.2591 14.3216C14.9829 12.6298 16.7095 10.9403 18.4338 9.24892C18.5813 9.1044 18.7451 9.00091 18.961 9C19.3634 9.00137 19.9981 9.63323 19.9962 10.0271C19.9953 10.251 19.8748 10.4092 19.7222 10.5582C18.3245 11.9254 16.9305 13.2972 15.5277 14.6594C15.3826 14.8003 15.383 14.8664 15.5277 15.0068C16.9194 16.3585 18.3026 17.7189 19.6882 19.0765C20.1037 19.4841 20.1041 19.8 19.6919 20.2053Z" fill="black"/>
</g>
<defs>
<clipPath id="clip0_35_1375">
<rect width="7" height="11.6667" fill="white" transform="translate(13 9)"/>
</clipPath>
</defs>
</svg>
