<svg width="8" height="14" viewBox="0 0 8 14" fill="none" xmlns="http://www.w3.org/2000/svg">
<path d="M7.75213 7.10217C5.51575 9.10939 3.27908 11.1161 1.04415 13.1246C0.864419 13.2859 0.668769 13.3792 0.410023 13.3104C0.162566 13.2445 0.00048829 13.0485 0.00164599 12.8167C-0.00269538 12.6371 0.101787 12.5074 0.23579 12.3873C1.51041 11.2451 2.78359 10.1018 4.05706 8.95906C4.87323 8.22667 5.68709 7.49246 6.5079 6.7645C6.60312 6.67983 6.58778 6.64283 6.50298 6.56675C4.41102 4.69371 2.32254 2.81728 0.231738 0.943193C0.0470856 0.777748 -0.053634 0.595107 0.0294307 0.359576C0.152725 0.0112305 0.616093 -0.113048 0.930987 0.11675C0.975558 0.149318 1.01637 0.186576 1.05747 0.223312C3.2869 2.22428 5.51633 4.22525 7.74577 6.22648C8.08266 6.52871 8.08468 6.80359 7.75213 7.10217Z" fill="black"/>
</svg>
