<svg width="50" height="95" viewBox="0 0 50 95" fill="none" xmlns="http://www.w3.org/2000/svg">
<g opacity="0.05" clip-path="url(#clip0_1129_135866)">
<path d="M46.23 70.125C47.094 73.1864 46.3115 75.8786 43.7862 77.8615C42.8553 78.5939 42.7174 79.1578 43.0482 80.2187C43.894 82.9366 43.7896 83.0337 41.0051 83.823C39.8989 84.1365 38.7781 84.398 37.6976 84.7755C36.1878 85.3009 35.1448 84.9593 34.9306 83.2994C34.6991 81.4719 33.945 81.2321 32.2121 81.7683C26.9072 83.4145 21.5477 84.8812 16.1843 86.3341C15.0498 86.6407 14.8069 87.0206 15.1574 88.1508C15.9908 90.8648 15.8954 90.9406 13.083 91.7378C11.9803 92.0504 10.8594 92.3119 9.77547 92.6904C8.24826 93.2207 7.30006 92.8147 7.01108 91.1835C6.75634 89.7263 6.2287 88.9686 4.44323 88.7475C1.44971 88.374 -0.40237 86.3087 -1.22956 83.3905C-3.41693 75.6472 -5.61825 67.908 -7.8126 60.1667L-14.1507 37.8069C-15.6964 32.3408 -13.7465 28.9129 -8.19237 27.3348C-6.16155 26.7591 -4.1351 26.1547 -2.088 25.6231C-1.35129 25.4293 -1.10835 25.1693 -1.36052 24.386C-1.90715 22.6704 -2.39545 20.9345 -2.83391 19.1882C-3.01264 18.4779 -3.41745 18.3265 -4.0657 18.1541C-6.13285 17.6042 -7.34349 15.8069 -7.34231 13.5236C-7.33718 11.6666 -6.21235 10.3018 -4.12766 9.70341C0.576579 8.35869 5.28377 7.02439 9.99042 5.70148C12.086 5.11496 13.7517 5.68493 14.7316 7.26652C15.9288 9.2026 15.8621 11.4145 14.3703 12.9207C13.8015 13.4943 13.7034 13.9195 13.9225 14.6258C14.4227 16.2309 14.9134 17.8425 15.287 19.4797C15.5112 20.4433 15.9172 20.5456 16.7871 20.2765C19.036 19.5791 21.31 18.957 23.5795 18.3324C27.966 17.1302 31.7902 19.1839 33.0172 23.4994C37.4436 39.035 41.849 54.5765 46.23 70.125Z" fill="#F7F9FA"/>
<path d="M46.23 70.125C47.094 73.1864 46.3115 75.8786 43.7862 77.8615C42.8553 78.5939 42.7174 79.1578 43.0482 80.2187C43.894 82.9366 43.7896 83.0337 41.0051 83.823C39.8989 84.1365 38.7781 84.398 37.6976 84.7755C36.1878 85.3009 35.1448 84.9593 34.9306 83.2994C34.6991 81.4719 33.945 81.2321 32.2121 81.7683C26.9072 83.4145 21.5477 84.8812 16.1843 86.3341C15.0498 86.6407 14.8069 87.0206 15.1574 88.1508C15.9908 90.8648 15.8954 90.9406 13.083 91.7378C11.9803 92.0504 10.8594 92.3119 9.77547 92.6904C8.24826 93.2207 7.30006 92.8147 7.01108 91.1835C6.75634 89.7263 6.2287 88.9686 4.44323 88.7475C1.44971 88.374 -0.40237 86.3087 -1.22956 83.3905C-3.41693 75.6472 -5.61825 67.908 -7.8126 60.1667L-14.1507 37.8069C-15.6964 32.3408 -13.7465 28.9129 -8.19237 27.3348C-6.16155 26.7591 -4.1351 26.1547 -2.088 25.6231C-1.35129 25.4293 -1.10835 25.1693 -1.36052 24.386C-1.90715 22.6704 -2.39545 20.9345 -2.83391 19.1882C-3.01264 18.4779 -3.41745 18.3265 -4.0657 18.1541C-6.13285 17.6042 -7.34349 15.8069 -7.34231 13.5236C-7.33718 11.6666 -6.21235 10.3018 -4.12766 9.70341C0.576579 8.35869 5.28377 7.02439 9.99042 5.70148C12.086 5.11496 13.7517 5.68493 14.7316 7.26652C15.9288 9.2026 15.8621 11.4145 14.3703 12.9207C13.8015 13.4943 13.7034 13.9195 13.9225 14.6258C14.4227 16.2309 14.9134 17.8425 15.287 19.4797C15.5112 20.4433 15.9172 20.5456 16.7871 20.2765C19.036 19.5791 21.31 18.957 23.5795 18.3324C27.966 17.1302 31.7902 19.1839 33.0172 23.4994C37.4436 39.035 41.849 54.5765 46.23 70.125Z" fill="black"/>
<path d="M-0.63186 58.9146C-1.94198 54.2927 -3.25908 49.6728 -4.56221 45.049C-5.4046 42.0639 -4.28515 39.6961 -1.71705 38.9943C0.784748 38.3114 2.9584 39.7158 3.7753 42.5844C6.41924 51.8851 9.05619 61.1878 11.6862 70.4925C12.4996 73.3621 11.3872 75.7017 8.90366 76.4357C6.35031 77.1895 4.14884 75.7667 3.29948 72.7836C1.98238 68.1637 0.679243 63.5399 -0.630875 58.918L-0.63186 58.9146Z" fill="#F7F9FA"/>
<path d="M20.3197 53.088C21.6298 57.7098 22.9469 62.3297 24.2501 66.9535C25.0526 69.8112 23.9237 72.1592 21.4362 72.8793C18.9383 73.6024 16.7093 72.2024 15.9013 69.3651C13.2381 60.0098 10.5845 50.6481 7.94223 41.2869C7.14357 38.4694 8.35168 36.0952 10.8679 35.4231C13.3143 34.7709 15.51 36.1466 16.29 38.8719C17.65 43.6033 18.9797 48.3471 20.3222 53.0835L20.3197 53.088Z" fill="#F7F9FA"/>
<path d="M32.8398 49.4191C34.1499 54.041 35.467 58.6609 36.7702 63.2847C37.6091 66.2708 36.4861 68.6396 33.9215 69.3403C31.4302 70.0203 29.2456 68.604 28.4307 65.7423C25.7867 56.4416 23.1508 47.1424 20.5208 37.8377C19.7093 34.975 20.8267 32.6265 23.3078 31.897C25.8691 31.1447 28.0581 32.5635 28.9095 35.5535C30.2265 40.1734 31.5297 44.7972 32.8398 49.4191Z" fill="#F7F9FA"/>
<path d="M7.22371 22.9648C5.77212 23.3762 4.31169 23.7565 2.87288 24.2131C2.06674 24.4678 1.5761 24.5057 1.34624 23.4687C0.98757 21.831 0.506322 20.213 -0.0218101 18.6159C-0.311004 17.7419 -0.00185286 17.4894 0.7897 17.2762C3.81884 16.4588 6.84361 15.6127 9.84718 14.705C10.7286 14.4365 10.991 14.7107 11.1908 15.5087C11.5968 17.1405 12.0422 18.7649 12.5694 20.3586C12.8586 21.2326 12.5578 21.5015 11.7579 21.6983C10.2357 22.0735 8.7356 22.54 7.2247 22.9682L7.22371 22.9648Z" fill="#F7F9FA"/>
<path d="M2.13481 58.0479C0.841415 53.485 -0.445003 48.9202 -1.75236 44.3613C-2.04743 43.3203 -2.32138 42.2209 -0.974917 41.8242C0.371543 41.4276 0.74275 42.4844 1.04077 43.5358C3.63284 52.72 6.23635 61.9048 8.85034 71.0865C9.14639 72.131 9.41238 73.2289 8.07289 73.6236C6.72992 74.0193 6.35174 72.9644 6.0572 71.912C4.76104 67.2862 3.44493 62.6698 2.13481 58.0479Z" fill="black"/>
<path d="M14.6895 54.4891C13.3961 49.9262 12.1097 45.3614 10.8023 40.8025C10.5073 39.7615 10.2333 38.6621 11.5798 38.2654C12.9262 37.8688 13.2965 38.9221 13.5955 39.977C16.1885 49.1647 18.791 58.346 21.405 67.5277C21.7011 68.5722 21.9706 69.6691 20.6276 70.0648C19.2846 70.4605 18.9064 69.4056 18.6119 68.3532C17.3157 63.7274 15.9996 59.111 14.6895 54.4891Z" fill="black"/>
<path d="M27.2099 50.8237C25.9332 46.3198 24.6625 41.8105 23.3754 37.3096C23.0852 36.286 22.7402 35.1617 24.0688 34.7288C25.5326 34.2539 25.8705 35.4327 26.1768 36.5267C28.7566 45.6544 31.3434 54.7802 33.9372 63.904C34.2274 64.9276 34.569 66.0528 33.2438 66.4847C31.7835 66.9586 31.4421 65.7808 31.1358 64.6868C29.8361 60.062 28.52 55.4456 27.2099 50.8237Z" fill="black"/>
</g>
<defs>
<clipPath id="clip0_1129_135866">
<rect width="49.2964" height="83.6545" fill="white" transform="translate(-20.7822 14.4129) rotate(-15.826)"/>
</clipPath>
</defs>
</svg>
