<svg width="34" height="56" viewBox="0 0 34 56" fill="none" xmlns="http://www.w3.org/2000/svg">
<g opacity="0.2" clip-path="url(#clip0_1129_94717)">
<path d="M33.9875 48.1149C33.985 50.2443 32.9594 51.8353 30.9107 52.6514C30.1552 52.9532 29.9576 53.2912 29.9776 54.0348C30.0277 55.9397 29.9401 55.9831 27.9439 55.9831C27.151 55.9831 26.358 55.9469 25.57 55.9928C24.4694 56.0555 23.8415 55.6451 24.0116 54.5369C24.2017 53.3177 23.7465 53.0256 22.4957 53.0546C18.666 53.1463 14.8337 53.1125 11.0015 53.069C10.191 53.0594 9.95836 53.2598 9.97837 54.0517C10.0209 55.9517 9.94335 55.9831 7.92716 55.9831C7.1367 55.9831 6.34373 55.9469 5.55327 55.9928C4.44011 56.0555 3.88729 55.621 4.00235 54.5176C4.10742 53.5326 3.89979 52.9483 2.75662 52.4799C0.840495 51.6929 0 50.0246 0 47.9942C0.00500294 42.6078 0 37.2215 0 31.8352V16.2773C0.00250147 12.4748 1.94114 10.623 5.92348 10.6206C7.37934 10.6206 8.8377 10.6013 10.2961 10.6327C10.8214 10.6423 11.0315 10.5192 11.0115 9.96872C10.9715 8.76398 10.974 7.55682 11.0115 6.35208C11.0265 5.86197 10.7863 5.69056 10.3886 5.4612C9.12036 4.72966 8.65509 3.35109 9.08534 1.88077C9.43805 0.685685 10.4411 0.0120919 11.937 0.00726326C15.3115 2.03195e-05 18.686 2.03195e-05 22.058 0.00726326C23.5589 0.0120919 24.5569 0.683271 24.9097 1.88077C25.3399 3.34626 24.8796 4.75863 23.6064 5.45637C23.1211 5.72194 22.976 5.97786 22.9885 6.4728C23.0185 7.59787 23.0411 8.72535 22.981 9.84801C22.9485 10.5095 23.1986 10.6496 23.8265 10.6351C25.45 10.5964 27.0759 10.6109 28.6994 10.623C31.8362 10.6496 33.9875 12.6703 33.99 15.6737C34.005 26.4875 34.005 37.3012 33.9875 48.1149Z" fill="#F7F9FA"/>
<path d="M33.9875 48.1149C33.985 50.2443 32.9594 51.8353 30.9107 52.6514C30.1552 52.9532 29.9576 53.2912 29.9776 54.0348C30.0277 55.9397 29.9401 55.9831 27.9439 55.9831C27.151 55.9831 26.358 55.9469 25.57 55.9928C24.4694 56.0555 23.8415 55.6451 24.0116 54.5369C24.2017 53.3177 23.7465 53.0256 22.4957 53.0546C18.666 53.1463 14.8337 53.1125 11.0015 53.069C10.191 53.0594 9.95836 53.2598 9.97837 54.0517C10.0209 55.9517 9.94335 55.9831 7.92716 55.9831C7.1367 55.9831 6.34373 55.9469 5.55327 55.9928C4.44011 56.0555 3.88729 55.621 4.00235 54.5176C4.10742 53.5326 3.89979 52.9483 2.75662 52.4799C0.840495 51.6929 0 50.0246 0 47.9942C0.00500294 42.6078 0 37.2215 0 31.8352V16.2773C0.00250147 12.4748 1.94114 10.623 5.92348 10.6206C7.37934 10.6206 8.8377 10.6013 10.2961 10.6327C10.8214 10.6423 11.0315 10.5192 11.0115 9.96872C10.9715 8.76398 10.974 7.55682 11.0115 6.35208C11.0265 5.86197 10.7863 5.69056 10.3886 5.4612C9.12036 4.72966 8.65509 3.35109 9.08534 1.88077C9.43805 0.685685 10.4411 0.0120919 11.937 0.00726326C15.3115 2.03195e-05 18.686 2.03195e-05 22.058 0.00726326C23.5589 0.0120919 24.5569 0.683271 24.9097 1.88077C25.3399 3.34626 24.8796 4.75863 23.6064 5.45637C23.1211 5.72194 22.976 5.97786 22.9885 6.4728C23.0185 7.59787 23.0411 8.72535 22.981 9.84801C22.9485 10.5095 23.1986 10.6496 23.8265 10.6351C25.45 10.5964 27.0759 10.6109 28.6994 10.623C31.8362 10.6496 33.9875 12.6703 33.99 15.6737C34.005 26.4875 34.005 37.3012 33.9875 48.1149Z" fill="#231F20"/>
<path d="M5.00051 32.3397C5.00051 29.1239 4.99551 25.908 5.00051 22.6921C5.00302 20.6158 6.19122 19.2952 8.0273 19.3121C9.81585 19.329 10.994 20.6303 10.9965 22.6269C11.0015 29.0997 11.0015 35.5725 10.9965 42.0453C10.9965 44.0419 9.81835 45.3456 8.0323 45.365C6.19622 45.3843 5.00302 44.0661 5.00051 41.9897C4.99551 38.7739 5.00051 35.558 5.00051 32.3421V32.3397Z" fill="#F7F9FA"/>
<path d="M19.9992 32.4122C19.9992 35.628 20.0042 38.8439 19.9992 42.0598C19.9941 44.0467 18.8034 45.3529 17.0174 45.3625C15.2238 45.3722 14.0081 44.0636 14.0056 42.0887C13.9981 35.5773 13.9981 29.0635 14.0056 22.5521C14.0056 20.5917 15.2539 19.2831 17.0499 19.3097C18.7959 19.3362 19.9941 20.6231 19.9992 22.5207C20.0117 25.8163 20.0017 29.1142 20.0017 32.4097L19.9992 32.4122Z" fill="#F7F9FA"/>
<path d="M28.9971 32.3349C28.9971 35.5508 29.0021 38.7666 28.9971 41.9825C28.9921 44.0588 27.8014 45.3794 25.9678 45.3625C24.1868 45.3456 23.0036 44.0347 23.0011 42.0429C22.9961 35.5701 22.9961 29.0997 23.0011 22.627C23.0011 20.6351 24.1843 19.3266 25.9678 19.3097C27.8089 19.2928 28.9946 20.6062 28.9971 22.6873C29.0021 25.9032 28.9971 29.119 28.9971 32.3349Z" fill="#F7F9FA"/>
<path d="M16.9751 10.6206C15.9344 10.6206 14.8938 10.5988 13.8532 10.6302C13.2704 10.6471 12.9377 10.5819 12.9802 9.87213C13.0502 8.75188 13.0352 7.62199 12.9852 6.49692C12.9577 5.88127 13.2103 5.77504 13.7757 5.78228C15.9394 5.80884 18.1057 5.81608 20.2695 5.77986C20.9049 5.76779 21.0274 5.99232 21.0099 6.54279C20.9724 7.66786 20.9624 8.79534 21.0124 9.918C21.0399 10.5336 20.7898 10.6519 20.222 10.6326C19.1413 10.5964 18.0582 10.623 16.9751 10.623V10.6206Z" fill="#F7F9FA"/>
<path d="M6.99922 32.2866C6.99922 29.1118 7.00422 25.937 6.99422 22.7621C6.99422 22.0378 7.01923 21.2798 7.9873 21.2701C8.95537 21.2604 9.0029 22.0089 9.0029 22.7404C8.9954 29.1287 8.9954 35.5194 9.0029 41.9101C9.0029 42.6368 8.97288 43.3925 8.00982 43.4021C7.04425 43.4118 6.99172 42.6633 6.99422 41.9318C7.00422 38.7159 6.99922 35.5025 6.99922 32.2866Z" fill="#231F20"/>
<path d="M15.9995 32.2866C15.9995 29.1118 16.0045 25.937 15.9945 22.7621C15.9945 22.0378 16.0195 21.2798 16.9875 21.2701C17.9556 21.2604 18.0031 22.0065 18.0031 22.7404C17.9956 29.1311 17.9956 35.5194 18.0031 41.9101C18.0031 42.6368 17.9756 43.3925 17.0101 43.4021C16.0445 43.4118 15.992 42.6633 15.9945 41.9318C16.0045 38.7159 15.9995 35.5025 15.9995 32.2866Z" fill="#231F20"/>
<path d="M24.9971 32.2118C24.9971 29.078 25.0021 25.9418 24.9946 22.808C24.9946 22.0958 24.9771 21.3087 25.9401 21.2725C27.0008 21.2339 27.0033 22.0548 27.0008 22.8153C26.9958 29.1649 26.9958 35.5146 27.0008 41.8642C27.0008 42.5764 27.0158 43.3635 26.0552 43.3997C24.9971 43.4383 24.9921 42.6175 24.9946 41.857C25.0021 38.6411 24.9971 35.4276 24.9971 32.2118Z" fill="#231F20"/>
</g>
<defs>
<clipPath id="clip0_1129_94717">
<rect width="34" height="56" fill="white"/>
</clipPath>
</defs>
</svg>
