<svg width="23" height="18" viewBox="0 0 23 18" fill="none" xmlns="http://www.w3.org/2000/svg">
<path d="M4.70271 0L0.0581055 2.4558L4.70271 4.9116L9.34731 2.4558L4.70271 0Z" fill="#F8B26A"/>
<path d="M4.70271 5.3325L0.0581055 7.7883L4.70271 10.2441L9.34731 7.7883L4.70271 5.3325Z" fill="#F8B26A"/>
<path d="M0.0581055 2.4558V7.7469L4.70271 10.2027V4.9116L0.0581055 2.4558Z" fill="#E15B64"/>
<path d="M9.34724 2.4558V7.7469L4.70264 10.2027V4.9116L9.34724 2.4558Z" fill="#F47E60"/>
<path d="M15.8729 11.9004C16.9736 11.1129 16.9787 9.9624 15.8837 9.3357L14.0027 8.2593C13.7936 8.14205 13.5704 8.05183 13.3385 7.9908C13.3727 8.0715 13.3979 8.154 13.415 8.2374C13.4489 8.4012 13.4513 8.5689 13.4204 8.7378L15.2534 9.7866C16.0025 10.2153 15.9992 11.0025 15.2459 11.5413C14.4926 12.0801 13.2704 12.1701 12.5213 11.7414L10.6883 10.6926L10.6403 10.665C10.5724 10.6256 10.5078 10.5808 10.4471 10.5309C10.3825 10.4788 10.3238 10.4199 10.2719 10.3551C10.1833 10.2457 10.1229 10.1162 10.0958 9.978C10.0841 9.9144 10.0802 9.8502 10.0841 9.7851C10.0877 9.7212 10.0973 9.6573 10.1159 9.5931C10.1864 9.3519 10.3637 9.1134 10.6478 8.91C10.9319 8.7069 11.2826 8.5677 11.6495 8.496C11.747 8.4771 11.8454 8.4639 11.9441 8.4543C11.9102 8.31846 11.8397 8.19454 11.7401 8.0961C11.6804 8.0354 11.6137 7.98193 11.5415 7.9368C11.4278 7.9575 11.315 7.9812 11.204 8.0109C10.7711 8.1258 10.3628 8.307 10.0208 8.5515C9.67883 8.7963 9.44303 9.0759 9.31253 9.3639C9.28048 9.43588 9.25458 9.51044 9.23513 9.5868C9.21503 9.6633 9.20333 9.7398 9.19793 9.816C9.18038 10.0564 9.23759 10.2964 9.36173 10.503C9.40693 10.5814 9.45957 10.6552 9.51893 10.7235C9.64583 10.8681 9.80873 11.001 10.0097 11.1159L11.8907 12.1923C12.9857 12.819 14.7719 12.6879 15.8729 11.9004Z" fill="#333333"/>
<path d="M9.00206 10.428C8.96844 10.3485 8.94281 10.2659 8.92556 10.1814C8.89135 10.0165 8.88952 9.84658 8.92016 9.681L7.08716 8.6322C6.33806 8.2035 6.34136 7.4163 7.09466 6.8775C7.84796 6.3387 9.07016 6.2487 9.81926 6.6774L11.6523 7.7262L11.7003 7.7538C11.7723 7.7952 11.8353 7.8405 11.8935 7.8879C11.9613 7.9431 12.0198 8.0019 12.0687 8.0637C12.1611 8.181 12.2202 8.3082 12.2448 8.4408C12.2565 8.5044 12.2604 8.5686 12.2565 8.6337C12.2532 8.6987 12.2425 8.76311 12.2247 8.8257C12.1542 9.0669 11.9769 9.3054 11.6928 9.5088C11.4087 9.7119 11.058 9.8511 10.6911 9.9228C10.5936 9.9417 10.4952 9.9549 10.3965 9.9645C10.4265 10.0923 10.4946 10.2141 10.6005 10.3227C10.6563 10.38 10.7223 10.4334 10.7991 10.482C10.9128 10.4613 11.0256 10.4376 11.1366 10.4079C11.5695 10.293 11.9778 10.1118 12.3198 9.8673C12.6618 9.6228 12.8976 9.3429 13.0281 9.0549C13.0614 8.9811 13.086 8.9067 13.1055 8.832C13.1256 8.7555 13.1373 8.679 13.1427 8.6028C13.1602 8.36239 13.103 8.12243 12.9789 7.9158C12.9337 7.83743 12.881 7.76359 12.8217 7.6953C12.6809 7.53822 12.5151 7.40561 12.3309 7.3029L10.4499 6.2265C9.35516 5.6001 7.56866 5.7312 6.46796 6.5187C5.36726 7.3062 5.36216 8.4567 6.45716 9.0834L8.33816 10.1598C8.54719 10.277 8.77028 10.3671 9.00206 10.428Z" fill="#333333"/>
<path d="M17.5972 7.4061L12.9526 9.8619L17.5972 12.318L22.2418 9.8619L17.5972 7.4061Z" fill="#F8B26A"/>
<path d="M17.5972 12.6969L12.9526 15.153L17.5972 17.6088L22.2418 15.153L17.5972 12.6969Z" fill="#F8B26A"/>
<path d="M12.9526 9.8619V15.153L17.5972 17.6088V12.318L12.9526 9.8619Z" fill="#E15B64"/>
<path d="M22.2418 9.8619V15.153L17.5972 17.6088V12.318L22.2418 9.8619Z" fill="#F47E60"/>
</svg>
