<svg width="324" height="324" viewBox="0 0 324 324" fill="none" xmlns="http://www.w3.org/2000/svg">
<g clip-path="url(#clip0_3827_1270)">
<path d="M162 324C251.47 324 324 251.47 324 162C324 72.5299 251.47 0 162 0C72.5299 0 0 72.5299 0 162C0 251.47 72.5299 324 162 324Z" fill="url(#paint0_linear_3827_1270)"/>
<path d="M322.698 182.599C304.845 174.8 281.6 171.066 267.084 176.504C253.462 181.611 255.652 191.742 241.674 195.926C219.116 202.678 203.488 179.273 169.924 180.386C140.057 181.374 129.708 200.654 107.144 195.926C93.0718 192.979 90.4089 184.079 80.3904 177.8C63.6081 167.278 31.3868 167.391 0.408203 173.409C3.23089 213.945 20.96 250.373 48.1572 277.245C78.7512 282.902 112.038 285.926 144.513 284.719C201.577 282.601 259.291 267.321 298.602 249.125C311.182 229.443 319.627 206.861 322.704 182.599H322.698Z" fill="url(#paint1_linear_3827_1270)"/>
<path d="M251.959 92.1192H212.785C210.495 92.1192 208.4 91.2907 206.778 89.9119C204.778 88.2076 203.506 85.6749 203.506 82.8404C203.506 80.2781 204.541 77.9584 206.222 76.2778C207.903 74.5972 210.222 73.5616 212.785 73.5616H251.959C254.521 73.5616 256.841 74.5972 258.522 76.2778C260.202 77.9584 261.238 80.2781 261.238 82.8404C261.238 85.4027 260.202 87.7224 258.522 89.403C256.841 91.0836 254.521 92.1192 251.959 92.1192Z" fill="#D8E2F4"/>
<path d="M242.658 79.8122C244.457 72.2615 239.794 64.6823 232.243 62.8835C224.693 61.0847 217.113 65.7474 215.315 73.2981C213.516 80.8487 218.179 88.428 225.729 90.2268C233.28 92.0256 240.859 87.3628 242.658 79.8122Z" fill="#D8E2F4"/>
<path d="M85.6751 69.656H28.1916C24.4339 69.656 21.0254 68.1292 18.5637 65.6675C16.1019 63.2058 14.5752 59.7973 14.5752 56.0396C14.5752 53.3589 15.3504 50.8558 16.6878 48.7491C19.1022 44.9441 23.351 42.4232 28.1916 42.4232H85.681C89.4387 42.4232 92.8472 43.95 95.3089 46.4117C97.7706 48.8734 99.2974 52.2819 99.2974 56.0396C99.2974 59.5487 97.9718 62.7442 95.7941 65.1586C93.3028 67.9221 89.6931 69.656 85.681 69.656H85.6751Z" fill="white"/>
<path d="M51.9803 67.4546C63.3732 67.4546 72.609 58.2188 72.609 46.8259C72.609 35.433 63.3732 26.1972 51.9803 26.1972C40.5874 26.1972 31.3516 35.433 31.3516 46.8259C31.3516 58.2188 40.5874 67.4546 51.9803 67.4546Z" fill="white"/>
<path d="M229 298C229 299.109 202.81 300 170.5 300C138.19 300 112 299.103 112 298C112 296.897 138.19 296 170.5 296C202.81 296 229 296.897 229 298Z" fill="#D0DFF3"/>
<path d="M212.076 95.5159H145.379C136.094 95.5159 128.567 103.043 128.567 112.328V280.772C128.567 290.057 136.094 297.584 145.379 297.584H212.076C221.361 297.584 228.888 290.057 228.888 280.772V112.328C228.888 103.043 221.361 95.5159 212.076 95.5159Z" fill="white"/>
<path d="M212.082 299.353H145.379C135.13 299.353 126.792 291.015 126.792 280.766V112.322C126.792 102.073 135.13 93.7346 145.379 93.7346H212.082C222.332 93.7346 230.669 102.073 230.669 112.322V280.766C230.669 291.015 222.332 299.353 212.082 299.353ZM145.379 97.2911C137.089 97.2911 130.343 104.037 130.343 112.328V280.766C130.343 289.057 137.089 295.803 145.379 295.803H212.082C220.373 295.803 227.119 289.057 227.119 280.766V112.322C227.119 104.031 220.373 97.2852 212.082 97.2852H145.379V97.2911Z" fill="#E0E9F3"/>
<path d="M211.254 288.459H146.214C145.231 288.459 144.438 287.666 144.438 286.684C144.438 285.701 145.231 284.908 146.214 284.908H211.254C212.236 284.908 213.029 285.701 213.029 286.684C213.029 287.666 212.236 288.459 211.254 288.459Z" fill="#E0E9F3"/>
<path d="M145.988 109.203C145.988 111.02 144.515 112.487 142.704 112.487C140.893 112.487 139.42 111.014 139.42 109.203C139.42 107.392 140.893 105.919 142.704 105.919C144.515 105.919 145.988 107.392 145.988 109.203Z" fill="#E0E9F3"/>
<path d="M124.277 297.679C124.277 298.732 118.531 299.578 111.436 299.578C104.341 299.578 98.5947 298.726 98.5947 297.679C98.5947 296.631 104.341 295.779 111.436 295.779C118.531 295.779 124.277 296.631 124.277 297.679Z" fill="#D0DFF3"/>
<path d="M94.0504 240.361C93.6006 242.609 96.299 243.059 96.7488 246.201C97.1985 249.35 95.8493 250.243 96.299 252.042C96.7488 253.841 99.4472 254.291 99.891 258.782C100.341 263.274 98.5418 262.824 98.9916 265.522C99.4413 268.221 102.14 268.221 102.584 270.464C103.027 272.706 103.033 275.854 103.933 278.553C104.832 281.251 107.525 285.293 108.874 285.293C110.223 285.293 113.815 277.653 112.916 275.411C112.016 273.168 110.667 272.712 110.667 270.919C110.667 269.126 112.466 264.629 112.016 261.481C111.566 258.332 107.525 256.989 107.075 254.741C106.625 252.492 107.974 246.651 104.826 243.959C101.678 241.26 94.4942 238.118 94.0444 240.367L94.0504 240.361Z" fill="#3797F0"/>
<path d="M108.672 284.518C108.548 284.518 108.447 284.417 108.447 284.293C108.447 284.234 108.406 278.393 106.696 276.683C104.962 274.949 103.968 269.635 103.483 259.463C103.045 250.219 96.4169 242.604 96.3519 242.527C96.269 242.432 96.2808 242.29 96.3696 242.207C96.4643 242.124 96.6063 242.136 96.6892 242.225C96.7543 242.302 103.488 250.03 103.932 259.439C104.406 269.357 105.382 274.736 107.009 276.363C108.85 278.204 108.891 284.039 108.891 284.287C108.891 284.411 108.791 284.512 108.666 284.512L108.672 284.518Z" fill="#3797F0"/>
<path d="M135.184 247.16C136.77 248.746 131.592 249.409 131.142 252.551C130.692 255.693 130.692 257.042 128.893 258.841C127.094 260.64 124.402 261.09 124.852 263.783C125.301 266.481 126.201 269.173 124.852 270.523C123.502 271.872 120.36 271.872 119.461 274.115C118.561 276.357 119.011 279.056 117.212 281.305C115.413 283.553 112.72 288.045 110.472 287.145C108.223 286.246 109.572 275.914 110.472 274.115C111.371 272.316 112.271 270.967 112.271 269.623C112.271 268.28 111.821 266.031 112.721 263.783C113.62 261.534 118.561 260.634 119.011 259.291C119.461 257.948 119.91 250.752 122.603 248.959C125.301 247.16 132.485 244.468 135.184 247.16Z" fill="#3797F0"/>
<path d="M111.164 286.376C111.123 286.376 111.088 286.364 111.046 286.346C110.94 286.281 110.904 286.145 110.969 286.039C110.987 286.009 112.786 282.997 113.165 281.476C113.265 281.086 113.384 280.488 113.52 279.801C114.017 277.304 114.768 273.541 115.922 272.381C117.597 270.706 120.278 265.57 122.153 259.001C124.467 250.906 132.113 248.539 132.19 248.515C132.308 248.48 132.432 248.545 132.468 248.669C132.503 248.787 132.438 248.912 132.32 248.947C132.243 248.971 124.828 251.273 122.585 259.125C120.686 265.771 117.958 270.984 116.236 272.7C115.177 273.76 114.413 277.594 113.958 279.89C113.821 280.583 113.703 281.18 113.603 281.583C113.206 283.169 111.431 286.139 111.354 286.264C111.312 286.335 111.235 286.37 111.159 286.37L111.164 286.376Z" fill="#3797F0"/>
<path d="M110.59 252.302C105.199 252.752 106.998 268.925 106.998 268.925C108.347 282.855 110.146 289.145 111.49 289.595C112.833 290.045 115.531 269.824 115.531 264.883C115.531 264.883 115.981 251.853 110.59 252.302Z" fill="#7BB6ED"/>
<path d="M111.265 287.352C111.265 287.352 111.247 287.352 111.235 287.352C111.111 287.335 111.022 287.228 111.04 287.104C112.815 272.47 110.614 254.09 110.59 253.906C110.572 253.782 110.661 253.669 110.785 253.658C110.904 253.64 111.022 253.729 111.034 253.853C111.058 254.036 113.265 272.47 111.484 287.157C111.472 287.27 111.371 287.352 111.259 287.352H111.265Z" fill="white"/>
<path d="M117.963 297.578H104.294C103.838 297.578 103.453 297.3 103.4 296.933L101.412 282.754C101.323 282.115 101.82 281.547 102.459 281.547H119.792C120.437 281.547 120.934 282.115 120.845 282.754L118.857 296.933C118.803 297.3 118.419 297.578 117.963 297.578Z" fill="#D0DAED"/>
<g clip-path="url(#clip1_3827_1270)">
<path d="M175.274 197.4C172.825 194.994 172.199 191.546 173.661 188.521C175.145 185.46 178.269 183.829 181.772 184.29C184.915 184.702 187.572 187.247 188.14 190.536C188.594 193.172 187.801 195.468 185.907 197.367C184.265 199.012 184.421 199.639 186.673 200.362C191.154 201.8 193.702 205.796 193.171 210.466C193.051 211.53 192.357 211.691 191.551 211.701C188.594 211.734 185.637 211.731 182.68 211.742C181.95 211.745 181.223 211.742 180.496 211.742C177.036 211.742 173.579 211.753 170.122 211.737C168.318 211.729 167.999 211.385 167.988 209.571C167.952 204.896 170.264 201.693 174.675 200.302C176.687 199.666 176.837 198.938 175.274 197.4Z" fill="#F7F9FA"/>
<path d="M209.063 200.062C208.893 208.414 205.529 215.318 199.369 220.93C198.604 221.628 198.221 221.535 197.552 220.837C195.483 218.676 193.332 216.595 191.094 214.364C192.706 213.965 194.177 213.66 195.128 212.337C195.431 211.917 195.677 212.351 195.882 212.547C196.472 213.114 197.106 213.649 197.607 214.29C198.314 215.201 198.749 214.997 199.391 214.181C206.3 205.397 206.059 192.64 198.79 184.107C190.482 174.352 175.998 172.879 165.867 180.716C164.973 181.407 164.984 181.791 165.779 182.528C167.348 183.976 168.807 185.545 170.343 187.029C170.882 187.55 171.136 187.989 170.813 188.788C170.25 190.176 170.299 191.699 170.152 193.521C167.832 191.18 165.711 189.033 163.579 186.895C161.527 184.838 161.464 184.811 160.024 187.413C155.433 195.695 155.381 204.069 160.382 212.094C165.399 220.144 173 223.715 182.466 223.235C185.112 223.098 187.673 222.419 190.088 221.306C190.777 220.99 191.253 220.992 191.745 221.595C192.119 222.048 192.573 222.435 192.991 222.853C194.026 223.886 193.898 224.704 192.608 225.308C174.527 233.788 153.345 221.265 152.123 201.377C151.125 185.111 163.667 171.439 179.977 171.011C196.049 170.591 209.385 183.886 209.063 200.062Z" fill="#F7F9FA"/>
<path d="M175.274 197.4C172.825 194.994 172.199 191.546 173.661 188.521C175.145 185.46 178.269 183.829 181.772 184.29C184.915 184.702 187.572 187.247 188.14 190.536C188.594 193.172 187.801 195.468 185.907 197.367C184.265 199.012 184.421 199.639 186.673 200.362C191.154 201.8 193.702 205.796 193.171 210.466C193.051 211.53 192.357 211.691 191.551 211.701C188.594 211.734 185.637 211.731 182.68 211.742C181.95 211.745 181.223 211.742 180.496 211.742C177.036 211.742 173.579 211.753 170.122 211.737C168.318 211.729 167.999 211.385 167.988 209.571C167.952 204.896 170.264 201.693 174.675 200.302C176.687 199.666 176.837 198.938 175.274 197.4Z" fill="#F8F8F8"/>
<path d="M209.063 200.062C208.893 208.414 205.529 215.318 199.369 220.93C198.604 221.628 198.221 221.535 197.552 220.837C195.483 218.676 193.332 216.595 191.094 214.364C192.706 213.965 194.177 213.66 195.128 212.337C195.431 211.917 195.677 212.351 195.882 212.547C196.472 213.114 197.106 213.649 197.607 214.29C198.314 215.201 198.749 214.997 199.391 214.181C206.3 205.397 206.059 192.64 198.79 184.107C190.482 174.352 175.998 172.879 165.867 180.716C164.973 181.407 164.984 181.791 165.779 182.528C167.348 183.976 168.807 185.545 170.343 187.029C170.882 187.55 171.136 187.989 170.813 188.788C170.25 190.176 170.299 191.699 170.152 193.521C167.832 191.18 165.711 189.033 163.579 186.895C161.527 184.838 161.464 184.811 160.024 187.413C155.433 195.695 155.381 204.069 160.382 212.094C165.399 220.144 173 223.715 182.466 223.235C185.112 223.098 187.673 222.419 190.088 221.306C190.777 220.99 191.253 220.992 191.745 221.595C192.119 222.048 192.573 222.435 192.991 222.853C194.026 223.886 193.898 224.704 192.608 225.308C174.527 233.788 153.345 221.265 152.123 201.377C151.125 185.111 163.667 171.439 179.977 171.011C196.049 170.591 209.385 183.886 209.063 200.062Z" fill="#F8F8F8"/>
<path d="M209.063 200.062C208.893 208.414 205.529 215.318 199.369 220.93C198.604 221.628 198.221 221.535 197.552 220.837C195.483 218.676 193.332 216.595 191.094 214.364C192.706 213.965 194.177 213.66 195.128 212.337C195.431 211.917 195.677 212.351 195.882 212.547C196.472 213.114 197.106 213.649 197.607 214.29C198.314 215.201 198.749 214.997 199.391 214.181C206.3 205.397 206.059 192.64 198.79 184.107C190.482 174.352 175.998 172.879 165.867 180.716C164.973 181.407 164.984 181.791 165.779 182.528C167.348 183.976 168.807 185.545 170.343 187.029C170.882 187.55 171.136 187.989 170.813 188.788C170.25 190.176 170.299 191.699 170.152 193.521C167.832 191.18 165.711 189.033 163.579 186.895C161.527 184.838 161.464 184.811 160.024 187.413C155.433 195.695 155.381 204.069 160.382 212.094C165.399 220.144 173 223.715 182.466 223.235C185.112 223.098 187.673 222.419 190.088 221.306C190.777 220.99 191.253 220.992 191.745 221.595C192.119 222.048 192.573 222.435 192.991 222.853C194.026 223.886 193.898 224.704 192.608 225.308C174.527 233.788 153.345 221.265 152.123 201.377C151.125 185.111 163.667 171.439 179.977 171.011C196.049 170.591 209.385 183.886 209.063 200.062Z" fill="#3797F0"/>
<path d="M193.171 210.466C193.051 211.53 192.357 211.691 191.551 211.701C188.594 211.734 185.637 211.731 182.68 211.742C181.95 211.745 181.223 211.742 180.496 211.742C177.036 211.742 173.579 211.753 170.122 211.737C168.318 211.729 167.999 211.385 167.988 209.571C167.952 204.896 170.264 201.693 174.675 200.302C176.687 199.666 176.837 198.938 175.274 197.4C172.825 194.994 172.199 191.546 173.661 188.521C175.145 185.46 178.269 183.829 181.772 184.29C184.915 184.702 187.572 187.247 188.14 190.536C188.594 193.172 187.801 195.468 185.907 197.367C184.265 199.012 184.421 199.639 186.673 200.362C191.154 201.8 193.702 205.796 193.171 210.466Z" fill="#1A1A1A"/>
</g>
</g>
<defs>
<linearGradient id="paint0_linear_3827_1270" x1="162" y1="291.808" x2="162" y2="-32.1858" gradientUnits="userSpaceOnUse">
<stop stop-color="#FEFEFD"/>
<stop offset="1" stop-color="#EBF3FF"/>
</linearGradient>
<linearGradient id="paint1_linear_3827_1270" x1="161.55" y1="279.263" x2="161.55" y2="186.617" gradientUnits="userSpaceOnUse">
<stop stop-color="#FEFEFD"/>
<stop offset="0.84" stop-color="#EBF3FF"/>
</linearGradient>
<clipPath id="clip0_3827_1270">
<rect width="324" height="324" fill="white"/>
</clipPath>
<clipPath id="clip1_3827_1270">
<rect width="57" height="57" fill="white" transform="translate(152.068 171)"/>
</clipPath>
</defs>
</svg>
