<svg width="23" height="23" viewBox="0 0 23 23" fill="none" xmlns="http://www.w3.org/2000/svg">
<path d="M23.0001 11.0709C22.9945 17.164 18.0214 22.1275 11.9288 22.1202C5.82527 22.1124 0.866083 17.1329 0.879912 11.0268C0.894172 4.94491 5.86503 -0.0065062 11.9508 -2.41605e-05C18.0465 0.00645788 23.0053 4.97516 23.0001 11.0709Z" fill="#F7F9FA"/>
<path d="M23.0001 11.0709C22.9945 17.164 18.0214 22.1275 11.9288 22.1202C5.82527 22.1124 0.866083 17.1329 0.879912 11.0268C0.894172 4.94491 5.86503 -0.0065062 11.9508 -2.41605e-05C18.0465 0.00645788 23.0053 4.97516 23.0001 11.0709Z" fill="#2195F2"/>
<path d="M7.88752 10.1448C8.20773 10.1422 8.42251 10.271 8.61308 10.4624C9.32869 11.1819 10.0504 11.8954 10.7621 12.6188C10.8766 12.735 10.9328 12.732 11.0464 12.6179C12.7577 10.8989 14.4746 9.1859 16.188 7.46903C16.4326 7.224 16.71 7.0948 17.0618 7.16264C17.7489 7.29487 18.047 8.09001 17.6127 8.63925C17.5596 8.70666 17.4961 8.76673 17.4351 8.82766C15.5117 10.7515 13.5878 12.6754 11.664 14.5988C11.1523 15.1105 10.6562 15.1114 10.148 14.6032C9.19128 13.6464 8.2315 12.6927 7.27907 11.7316C6.76699 11.2152 6.95843 10.3998 7.6317 10.182C7.73022 10.15 7.82961 10.1491 7.88752 10.1448Z" fill="#F9F9F9"/>
</svg>
