<svg width="23" height="25" viewBox="0 0 23 25" fill="none" xmlns="http://www.w3.org/2000/svg">
<g clip-path="url(#clip0_1232_7085)">
<path style="mix-blend-mode:multiply" opacity="0.56" d="M1.17822 20.6611C2.74393 21.0958 4.6003 19.9388 5.98466 20.3443C7.06532 20.6611 7.82985 22.2827 8.89312 22.9398C10.6905 24.0509 12.9189 24.1422 15.0311 24.1148C17.0564 24.0894 19.1302 23.9739 20.9934 23.177C21.8517 22.8094 22.7168 22.2138 22.9429 21.3076C23.1404 20.5182 22.8019 19.699 22.4113 18.9854C20.9282 16.277 15.5982 17.7675 13.0903 17.8054C9.86944 17.8532 6.70572 17.3365 3.47679 17.4539C2.47998 17.4905 1.58999 17.2632 0.744094 17.9625C-0.292468 18.8171 -0.331596 20.245 1.17822 20.6611Z" fill="url(#paint0_linear_1232_7085)"/>
<path d="M3.87722 17.8277C4.86472 18.5109 6.19008 18.2265 7.38191 18.0762C8.28496 17.9635 9.19734 17.946 10.104 18.024C10.645 18.0706 11.2443 18.1358 11.6803 17.8128C11.8176 17.711 11.9287 17.5762 12.066 17.4756C12.3765 17.2477 12.7833 17.2166 13.1647 17.1613C13.7089 17.0828 14.2416 16.9392 14.7515 16.7334C15.4148 16.467 16.1178 15.9583 16.1036 15.2428C16.0918 14.7025 15.6365 14.2491 15.1204 14.087C14.6043 13.9249 14.0441 14.0075 13.5218 14.1454C12.6467 14.3765 11.8151 14.7628 10.9276 14.941C9.31653 15.264 7.66077 14.8789 6.03357 14.6485C5.49013 14.5715 4.90012 14.5199 4.42749 14.7988C3.95486 15.0776 3.73251 15.8223 4.14925 16.1831C3.80518 16.5844 3.44185 17.5271 3.87722 17.8277Z" fill="#4A4A4B"/>
<path d="M12.4277 17.3247C12.4247 17.4821 12.3714 17.6344 12.2756 17.7594C12.1514 17.901 11.965 17.96 11.7831 18.0078C10.626 18.3022 9.41929 18.3308 8.2256 18.3581L6.22452 18.4035C5.52023 18.4196 4.79606 18.432 4.13773 18.1824C3.4794 17.9327 2.8956 17.3551 2.85647 16.652C2.8279 16.1254 3.11173 15.6161 3.51046 15.2714C3.90918 14.9267 4.41287 14.7242 4.91904 14.5758C6.47171 14.1218 8.02065 14.315 9.52425 14.8466C10.6676 15.2503 12.5302 15.7888 12.4277 17.3247Z" fill="#3F3F3F"/>
<path d="M12.1058 21.6765C12.189 21.856 12.3741 21.8485 12.6902 21.8665C13.6139 21.9187 14.5381 21.9582 15.4626 21.9851C17.3122 22.0385 19.1621 22.04 21.0125 21.9895C21.2876 21.982 21.7578 22.0069 21.8994 21.7243C22.2882 20.961 21.8317 19.9232 21.7056 19.1506C21.5934 18.4612 21.4673 17.7745 21.3274 17.0905C21.3025 16.9706 21.2702 16.839 21.1684 16.77C21.0811 16.7239 20.9819 16.7055 20.8839 16.7172L15.7756 16.8315C15.0403 16.8483 14.0329 16.6874 13.3286 16.8818C12.8163 17.0228 12.8069 18.3177 12.7076 18.8251C12.615 19.2984 12.5902 19.8754 12.4163 20.3238C12.2697 20.7008 12.0387 20.9448 12.0523 21.3846C12.0507 21.4844 12.0689 21.5836 12.1058 21.6765Z" fill="#3C3934"/>
<path d="M12.1556 20.8573C12.1463 20.8826 12.1434 20.9098 12.1471 20.9366C12.1507 20.9633 12.1609 20.9888 12.1767 21.0107C12.2075 21.0344 12.2459 21.0463 12.2848 21.0442C15.1901 21.2218 18.0994 21.2709 21.0126 21.1914C21.2729 21.1839 21.5424 21.174 21.7765 21.0604C21.8752 21.0198 21.9559 20.945 22.0039 20.8498C22.0336 20.756 22.0389 20.6562 22.0194 20.5598C21.8467 19.1288 21.6161 17.7064 21.3275 16.2924C21.3027 16.1726 21.2704 16.0409 21.1685 15.9719C21.0878 15.9167 20.9822 15.9173 20.8841 15.9192L15.7758 16.0334C15.0404 16.0502 14.0331 15.8893 13.3288 16.0837C12.8164 16.2247 12.8071 17.5196 12.7077 18.0271C12.5239 18.9707 12.3398 19.9141 12.1556 20.8573Z" fill="#837B64"/>
<path d="M21.3671 20.4021C21.3286 20.0903 21.2907 19.7783 21.2534 19.4661C21.4488 19.45 21.6441 19.4313 21.8391 19.4102C21.895 19.7928 21.9459 20.176 21.9919 20.5598C22.0114 20.6562 22.0061 20.7561 21.9763 20.8499C21.9286 20.945 21.8481 21.0198 21.7497 21.0604C21.6567 21.1041 21.5583 21.135 21.4571 21.1523C21.4273 20.9018 21.3973 20.6517 21.3671 20.4021Z" fill="#7F786D"/>
<path d="M21.7307 18.6792C21.7692 18.9214 21.8055 19.1643 21.8394 19.4077C21.6444 19.4289 21.4492 19.4475 21.2538 19.4636C21.2208 19.1935 21.1879 18.9227 21.1562 18.6562C21.3475 18.6625 21.5394 18.6712 21.7307 18.6792Z" fill="#7F786D"/>
<path d="M21.5958 17.86C21.643 18.1339 21.6877 18.4072 21.7305 18.6817C21.5393 18.6712 21.3473 18.6625 21.1561 18.6556C21.1238 18.3942 21.094 18.1339 21.061 17.8725C21.2387 17.8718 21.4169 17.8718 21.5958 17.86Z" fill="#7F786D"/>
<path d="M21.4374 16.9937C21.4929 17.2835 21.5457 17.5723 21.5958 17.86C21.4169 17.8687 21.2386 17.8718 21.061 17.8725C21.0262 17.5826 20.9912 17.294 20.9561 17.0067L21.4374 16.9937Z" fill="#7F786D"/>
<path d="M21.3671 20.402C21.3969 20.6505 21.4269 20.9005 21.4571 21.1523C21.3012 21.1782 21.1433 21.1911 20.9851 21.1908C20.7553 21.1976 20.5249 21.2026 20.2951 21.2069C20.2918 21.1763 20.29 21.1459 20.2895 21.1156C20.2833 20.8983 20.2771 20.6809 20.269 20.4654L21.0094 20.4232C21.128 20.4182 21.2466 20.4095 21.3671 20.402Z" fill="#7F786D"/>
<path d="M20.8525 16.1484C20.8438 16.072 20.8345 15.9962 20.8252 15.9204H20.8569C20.9548 15.908 21.0542 15.9262 21.1413 15.9726C21.2432 16.0416 21.2755 16.1732 21.2997 16.2931C21.3477 16.5266 21.3937 16.7603 21.4376 16.9943L20.9562 17.0073C20.9221 16.721 20.8873 16.4341 20.8525 16.1484Z" fill="#7F786D"/>
<path d="M21.3671 20.402C21.2478 20.4095 21.128 20.417 21.0093 20.4232L20.269 20.4654C20.2578 20.1553 20.2442 19.8447 20.228 19.5338C20.5709 19.5158 20.9112 19.4934 21.2534 19.4642C21.2903 19.7773 21.3281 20.0899 21.3671 20.402Z" fill="#F3F3F3"/>
<path d="M21.1562 18.6556C21.1879 18.9251 21.2183 19.1959 21.2537 19.463C20.9127 19.4922 20.5705 19.5145 20.2283 19.5325C20.2142 19.2315 20.197 18.9307 20.1768 18.6301C20.5034 18.6351 20.8299 18.6436 21.1562 18.6556Z" fill="#6F6757"/>
<path d="M21.0605 17.8718C21.0922 18.1333 21.1226 18.3935 21.1555 18.655C20.8288 18.643 20.5024 18.6355 20.1761 18.6326C20.16 18.373 20.1413 18.114 20.1221 17.855C20.4351 17.865 20.75 17.8718 21.0605 17.8718Z" fill="#F3F3F3"/>
<path d="M20.956 17.0067C20.9908 17.2965 21.0258 17.5851 21.0609 17.8724C20.7504 17.8724 20.4349 17.865 20.1225 17.8557C20.1014 17.5811 20.0786 17.3066 20.0542 17.0321L20.956 17.0067Z" fill="#6F6757"/>
<path d="M20.8524 16.1484C20.8871 16.4341 20.9219 16.721 20.9561 17.0067L20.0543 17.0322C20.0286 16.7423 20.0011 16.4525 19.9717 16.1627C20.2657 16.1573 20.5592 16.1525 20.8524 16.1484Z" fill="#F3F3F3"/>
<path d="M20.8252 15.9204C20.8345 15.9962 20.8438 16.072 20.8525 16.1483C20.5585 16.1529 20.265 16.1579 19.9718 16.1632C19.9638 16.0887 19.9563 16.0148 19.9482 15.9397L20.8252 15.9204Z" fill="#7F786D"/>
<path d="M20.2899 21.1157C20.2899 21.1463 20.2918 21.1768 20.2955 21.207C19.8049 21.2182 19.3149 21.2237 18.8242 21.2269C18.8242 20.9946 18.8329 20.7617 18.8491 20.5294C19.3223 20.5145 19.7962 20.4915 20.2694 20.4673C20.2775 20.6822 20.2837 20.8983 20.2899 21.1157Z" fill="#7F786D"/>
<path d="M20.228 19.5356C20.2442 19.8458 20.2578 20.1563 20.269 20.4672C19.7958 20.4933 19.3219 20.5163 18.8486 20.5294C18.8697 20.2188 18.9033 19.9021 18.9412 19.5884C19.3703 19.5754 19.7995 19.5586 20.228 19.5356Z" fill="#6F6757"/>
<path d="M20.1767 18.6332C20.1966 18.9334 20.2138 19.2342 20.2283 19.5357C19.7997 19.5586 19.3706 19.5754 18.9414 19.5884C18.9793 19.2717 19.0221 18.9537 19.0613 18.6363C19.4335 18.631 19.8053 18.6299 20.1767 18.6332Z" fill="#F3F3F3"/>
<path d="M20.1225 17.8557C20.1417 18.1147 20.1604 18.3736 20.1765 18.6333C19.8039 18.6295 19.4312 18.6295 19.0586 18.6333C19.0921 18.3631 19.1207 18.0929 19.1474 17.8259C19.284 17.829 19.4201 17.8327 19.5567 17.837L20.1225 17.8557Z" fill="#6F6757"/>
<path d="M20.0542 17.0322C20.079 17.3067 20.1018 17.5812 20.1225 17.8557L19.5592 17.8377C19.4226 17.8333 19.2865 17.8296 19.1499 17.8265C19.1729 17.5694 19.189 17.3123 19.194 17.0558L20.0542 17.0322Z" fill="#F3F3F3"/>
<path d="M20.0541 17.0321L19.1939 17.0557C19.2012 16.7635 19.1904 16.471 19.1616 16.18C19.4312 16.1738 19.7013 16.1676 19.969 16.1633C20.0005 16.4527 20.0288 16.7423 20.0541 17.0321Z" fill="#6F6757"/>
<path d="M19.9718 16.1633C19.7016 16.1676 19.4315 16.1738 19.1644 16.1801C19.1569 16.1061 19.1483 16.0322 19.1377 15.9583L19.9507 15.9397C19.9563 16.0148 19.9637 16.0888 19.9718 16.1633Z" fill="#7F786D"/>
<path d="M19.1619 16.1801C19.1906 16.471 19.2014 16.7635 19.1942 17.0558L17.8669 17.093C17.8422 16.7994 17.8022 16.5073 17.7471 16.2179C18.2191 16.203 18.6899 16.1912 19.1619 16.1801Z" fill="#F3F3F3"/>
<path d="M17.8667 17.093L19.1939 17.0557C19.189 17.3122 19.1728 17.5694 19.1498 17.8265C18.7358 17.8174 18.3217 17.8128 17.9077 17.8128C17.9009 17.5718 17.8878 17.3315 17.8667 17.093Z" fill="#6F6757"/>
<path d="M19.1351 15.9583C19.1457 16.0322 19.1544 16.1061 19.1618 16.18C18.6898 16.1912 18.2191 16.203 17.747 16.2179C17.7328 16.1415 17.7166 16.0651 17.6992 15.99C18.1774 15.9788 18.6561 15.9683 19.1351 15.9583Z" fill="#7F786D"/>
<path d="M19.1499 17.8265C19.1256 18.0961 19.0946 18.3662 19.061 18.6339C18.6789 18.6393 18.2963 18.6494 17.9133 18.6643C17.9133 18.3793 17.9133 18.0942 17.9077 17.8104C18.3222 17.812 18.7362 17.8174 19.1499 17.8265Z" fill="#F3F3F3"/>
<path d="M19.0615 18.6364C19.0223 18.9537 18.9795 19.2717 18.9416 19.5885C18.5938 19.5996 18.2454 19.6083 17.897 19.6164C17.9026 19.2997 17.91 18.9835 17.9137 18.6668C18.2963 18.6527 18.6789 18.6426 19.0615 18.6364Z" fill="#6F6757"/>
<path d="M18.9413 19.5884C18.9034 19.9021 18.8698 20.2157 18.8487 20.5294C18.5295 20.5399 18.2109 20.5467 17.8917 20.548C17.8879 20.2375 17.8917 19.9269 17.8966 19.6164C18.245 19.6108 18.5935 19.5996 18.9413 19.5884Z" fill="#F3F3F3"/>
<path d="M17.914 21.21C17.9009 20.9896 17.8947 20.7685 17.8916 20.548C18.2108 20.548 18.5294 20.5399 18.8487 20.5294C18.8325 20.7616 18.8232 20.9945 18.8238 21.2268C18.5207 21.2268 18.2183 21.2268 17.9152 21.2268C17.9146 21.2206 17.914 21.215 17.914 21.21Z" fill="#7F786D"/>
<path d="M17.908 17.8128C17.9167 18.0966 17.9167 18.3817 17.9136 18.6668C17.4776 18.6829 17.0429 18.7036 16.6094 18.7289C16.6466 18.4277 16.6839 18.1271 16.7143 17.8258C17.1106 17.8172 17.5085 17.8128 17.908 17.8128Z" fill="#6F6757"/>
<path d="M17.9143 21.2101C17.9127 21.2156 17.9115 21.2212 17.9106 21.2268C17.3914 21.2268 16.8715 21.2206 16.3511 21.2082C16.3616 20.9796 16.3778 20.7517 16.3977 20.525C16.6976 20.5312 16.997 20.5418 17.2963 20.5468C17.4951 20.5505 17.6938 20.5511 17.8919 20.5499C17.8932 20.7685 17.9013 20.9896 17.9143 21.2101Z" fill="#7F786D"/>
<path d="M17.9136 18.6668C17.9099 18.9836 17.9024 19.2997 17.8968 19.6164C17.4273 19.6276 16.9584 19.6394 16.4907 19.6555C16.5274 19.345 16.5684 19.0345 16.6069 18.7289C17.0424 18.7041 17.478 18.6834 17.9136 18.6668Z" fill="#F3F3F3"/>
<path d="M17.8932 20.548C17.6951 20.548 17.4964 20.548 17.2976 20.5449C16.9983 20.54 16.6989 20.5294 16.3989 20.5232C16.425 20.2338 16.4573 19.9444 16.4921 19.6537C16.9597 19.6375 17.4287 19.6257 17.8982 19.6146C17.8932 19.9276 17.8882 20.2381 17.8932 20.548Z" fill="#6F6757"/>
<path d="M17.8671 17.093C17.8882 17.3315 17.9013 17.5719 17.9081 17.8128C17.5094 17.8128 17.1106 17.8172 16.7119 17.8259C16.7368 17.5924 16.7575 17.3582 16.774 17.1235L17.8671 17.093Z" fill="#F3F3F3"/>
<path d="M17.8667 17.093L16.7749 17.1265C16.7942 16.8346 16.8053 16.5433 16.8047 16.2514C17.1194 16.2398 17.4343 16.2297 17.7494 16.221C17.8036 16.5094 17.8428 16.8005 17.8667 17.093Z" fill="#6F6757"/>
<path d="M17.6994 15.99C17.7168 16.0651 17.7329 16.1415 17.7472 16.2179C17.4325 16.2266 17.1176 16.2368 16.8026 16.2484C16.8026 16.1695 16.8026 16.0894 16.7988 16.0105L17.6994 15.99Z" fill="#7F786D"/>
<path d="M16.8026 16.2484C16.8026 16.5403 16.7921 16.8315 16.7728 17.1234L15.5928 17.1564C15.6394 16.8676 15.6766 16.5788 15.6977 16.2869C16.0675 16.2736 16.4358 16.2608 16.8026 16.2484Z" fill="#F3F3F3"/>
<path d="M16.7987 16.0086C16.7987 16.0875 16.8025 16.1676 16.8025 16.2465C16.4352 16.2581 16.0679 16.2713 15.7007 16.2862C15.7081 16.2011 15.7131 16.1173 15.7162 16.0322H15.7485L16.7987 16.0086Z" fill="#7F786D"/>
<path d="M15.5952 17.1563L16.7753 17.1234C16.7591 17.3582 16.7384 17.5923 16.7131 17.8258C16.2991 17.8349 15.8838 17.849 15.4673 17.8681C15.5126 17.6308 15.5573 17.3936 15.5952 17.1563Z" fill="#6F6757"/>
<path d="M16.7131 17.8259C16.6827 18.1271 16.6454 18.4277 16.6082 18.7289C16.1647 18.7546 15.7213 18.7831 15.2778 18.8146C15.3399 18.4985 15.402 18.183 15.4642 17.8681C15.8803 17.8495 16.2966 17.8354 16.7131 17.8259Z" fill="#F3F3F3"/>
<path d="M16.607 18.7289C16.5685 19.0394 16.5275 19.3462 16.4909 19.6555C16.035 19.6717 15.5798 19.6909 15.1245 19.7176C15.1344 19.6419 15.145 19.5673 15.1568 19.4928C15.1916 19.2649 15.2326 19.0382 15.2761 18.8096C15.7199 18.7815 16.1636 18.7546 16.607 18.7289Z" fill="#6F6757"/>
<path d="M16.4905 19.6555C16.4557 19.9443 16.4234 20.2337 16.3973 20.525C16.1719 20.52 15.9464 20.5182 15.721 20.525C15.4955 20.5318 15.2614 20.5405 15.0322 20.5561C15.0577 20.2778 15.0869 20.0008 15.1248 19.7245C15.5794 19.6909 16.0346 19.6729 16.4905 19.6555Z" fill="#F3F3F3"/>
<path d="M16.3976 20.5232C16.3777 20.7517 16.3616 20.9797 16.351 21.2063C15.8945 21.1977 15.4374 21.1865 14.981 21.1703C14.9971 20.9635 15.0139 20.7567 15.0325 20.5493C15.2617 20.5337 15.4915 20.5226 15.7213 20.5182C15.9511 20.5139 16.1722 20.5182 16.3976 20.5232Z" fill="#7F786D"/>
<path d="M15.7191 16.0341C15.7191 16.1192 15.711 16.203 15.7036 16.2881C15.3032 16.3042 14.9028 16.3214 14.5024 16.3396C14.5099 16.2241 14.5136 16.108 14.5124 15.9912C14.9297 16.0049 15.3545 16.0403 15.7191 16.0341Z" fill="#7F786D"/>
<path d="M15.7005 16.2881C15.6793 16.5787 15.6421 16.8675 15.5955 17.1576L14.3975 17.1905C14.4471 16.9094 14.4811 16.6258 14.4993 16.3409C14.8985 16.3214 15.2988 16.3038 15.7005 16.2881Z" fill="#6F6757"/>
<path d="M14.3977 17.1886L15.5958 17.1557C15.5573 17.3929 15.5125 17.6302 15.466 17.8674C15.0614 17.8848 14.6577 17.907 14.2549 17.9339C14.3052 17.6855 14.353 17.437 14.3977 17.1886Z" fill="#F3F3F3"/>
<path d="M15.4657 17.8681C15.4036 18.183 15.3371 18.4985 15.2794 18.8146C14.8769 18.8428 14.4749 18.873 14.0732 18.9053C14.0838 18.8339 14.0962 18.7637 14.1086 18.6923C14.1534 18.4401 14.2062 18.1873 14.2577 17.9346C14.6589 17.9081 15.0616 17.8859 15.4657 17.8681Z" fill="#6F6757"/>
<path d="M15.2764 18.8146C15.2329 19.0406 15.1919 19.2673 15.1571 19.4977C15.1453 19.5723 15.1348 19.6468 15.1248 19.7226C14.7342 19.7474 14.3435 19.7785 13.9541 19.8188C13.982 19.5145 14.0206 19.2102 14.0702 18.9077C14.4723 18.8738 14.8743 18.8427 15.2764 18.8146Z" fill="#F3F3F3"/>
<path d="M15.1247 19.7201C15.0869 19.9965 15.0577 20.2735 15.0322 20.5517C14.6552 20.5753 14.2782 20.6138 13.9019 20.6399C13.9112 20.3654 13.9286 20.0902 13.954 19.8164C14.3434 19.776 14.7341 19.7449 15.1247 19.7201Z" fill="#6F6757"/>
<path d="M13.9045 21.13H13.8945C13.8945 20.9668 13.897 20.8035 13.902 20.6399C14.2784 20.6108 14.6553 20.5778 15.0323 20.5518C15.0137 20.7586 14.9969 20.9654 14.9808 21.1728C14.6222 21.1608 14.2634 21.1465 13.9045 21.13Z" fill="#7F786D"/>
<path d="M14.5096 15.9912C14.5096 16.108 14.5096 16.2241 14.4996 16.3396C14.1684 16.3545 13.8386 16.3703 13.5103 16.3868C13.532 16.267 13.5543 16.1465 13.5761 16.0272C13.8856 15.9876 14.1979 15.9755 14.5096 15.9912Z" fill="#7F786D"/>
<path d="M14.4997 16.3397C14.4815 16.6243 14.4475 16.9078 14.3978 17.1887L13.3569 17.2179L13.5097 16.39C13.5097 16.39 13.5097 16.39 13.5097 16.3862C13.8401 16.3701 14.1701 16.3546 14.4997 16.3397Z" fill="#F3F3F3"/>
<path d="M13.359 17.2185L14.3999 17.1893C14.3577 17.4377 14.3074 17.6861 14.2571 17.9346C13.9097 17.9582 13.5629 17.9846 13.2168 18.014C13.2609 17.7476 13.3087 17.4837 13.359 17.2185Z" fill="#6F6757"/>
<path d="M14.255 17.9339C14.2034 18.1867 14.1506 18.4394 14.1059 18.6916C14.0935 18.763 14.0811 18.8332 14.0705 18.9046C13.7285 18.9315 13.3871 18.9589 13.0464 18.9866C13.101 18.6616 13.1571 18.3372 13.2147 18.0134C13.5596 17.984 13.9064 17.9575 14.255 17.9339Z" fill="#F3F3F3"/>
<path d="M14.0705 18.9053C14.0208 19.2077 13.9823 19.5121 13.9543 19.8164C13.6003 19.8536 13.2457 19.8977 12.8936 19.9524C12.942 19.6301 12.9935 19.3083 13.0463 18.9873C13.3875 18.9595 13.7289 18.9322 14.0705 18.9053Z" fill="#6F6757"/>
<path d="M13.9543 19.8164C13.9288 20.0903 13.9114 20.3654 13.9021 20.6399C13.5295 20.6691 13.1568 20.694 12.7842 20.702C12.8171 20.4536 12.8531 20.2052 12.891 19.9568C13.2456 19.8978 13.6003 19.8537 13.9543 19.8164Z" fill="#F3F3F3"/>
<path d="M13.9019 20.6399C13.8961 20.8034 13.8937 20.9668 13.8945 21.1299C13.5082 21.1125 13.1231 21.0939 12.7368 21.0715C12.753 20.9473 12.7691 20.8231 12.7865 20.6989C13.1585 20.6939 13.5299 20.6666 13.9019 20.6399Z" fill="#7F786D"/>
<path d="M13.5101 16.3868C13.5101 16.3868 13.5101 16.3868 13.5101 16.3906L13.3592 17.2185C13.3114 17.4836 13.2636 17.7482 13.217 18.014C13.159 18.3382 13.1029 18.6626 13.0487 18.9873C12.9959 19.3083 12.9443 19.6301 12.8959 19.9524C12.858 20.2008 12.822 20.4492 12.7891 20.6977C12.7717 20.8219 12.7555 20.9461 12.7394 21.0703L12.2599 21.0424C12.2212 21.0449 12.1828 21.0334 12.1518 21.0101C12.1363 20.9879 12.1263 20.9624 12.1227 20.9356C12.119 20.9088 12.1218 20.8815 12.1307 20.856C12.315 19.9124 12.499 18.969 12.6829 18.0258C12.7822 17.5184 12.7915 16.2247 13.3039 16.0825C13.3941 16.0579 13.4858 16.039 13.5784 16.026C13.5542 16.1465 13.5319 16.267 13.5101 16.3868Z" fill="#7F786D"/>
<path d="M14.7026 16.6918C14.6796 16.6747 14.6605 16.6529 14.6465 16.6279C14.6325 16.6029 14.6239 16.5753 14.6213 16.5468C14.6186 16.5183 14.622 16.4895 14.6312 16.4624C14.6404 16.4352 14.6552 16.4104 14.6746 16.3893C14.7187 16.3499 14.7764 16.3293 14.8355 16.3319C14.8945 16.3344 14.9503 16.3599 14.9908 16.403C15.0085 16.4255 15.0215 16.4514 15.0291 16.479C15.0366 16.5067 15.0386 16.5355 15.0348 16.564C15.0311 16.5924 15.0217 16.6198 15.0072 16.6445C14.9927 16.6692 14.9734 16.6908 14.9504 16.7079C14.957 16.7078 14.9636 16.7091 14.9697 16.7116C14.9759 16.7141 14.9815 16.7178 14.9862 16.7225C14.9908 16.7272 14.9945 16.7327 14.997 16.7389C14.9995 16.745 15.0008 16.7516 15.0007 16.7582C14.9996 16.7648 14.9973 16.7711 14.9938 16.7768C14.9903 16.7825 14.9857 16.7874 14.9802 16.7913C14.9748 16.7951 14.9686 16.7979 14.9621 16.7994C14.9556 16.8008 14.9489 16.801 14.9423 16.7998C14.9629 16.9934 14.9957 17.1855 15.0404 17.375C15.0469 17.4132 15.0622 17.4493 15.0852 17.4805C15.119 17.51 15.1558 17.5358 15.1951 17.5576C15.2237 17.5793 15.2473 17.6197 15.2261 17.6476C15.0914 17.6327 14.9566 17.66 14.8212 17.66H14.4591C14.4522 17.6386 14.4493 17.6161 14.4504 17.5936C14.45 17.5824 14.4526 17.5713 14.4579 17.5614C14.4633 17.5516 14.4712 17.5434 14.4809 17.5377C14.4939 17.5308 14.5113 17.5296 14.5212 17.5184C14.5312 17.5072 14.5293 17.4805 14.5442 17.4694C14.5591 17.4582 14.5759 17.4656 14.5914 17.4625C14.6187 17.4569 14.6305 17.4271 14.638 17.4004C14.6622 17.3179 14.6809 17.2339 14.6939 17.1489C14.7145 17.0365 14.721 16.9219 14.7131 16.8079C14.7131 16.7986 14.71 16.788 14.7013 16.7856C14.6962 16.7843 14.6909 16.7843 14.6858 16.7856C14.6795 16.786 14.6731 16.785 14.6672 16.7826C14.6612 16.7803 14.6559 16.7767 14.6515 16.7721C14.6471 16.7675 14.6438 16.762 14.6418 16.7559C14.6398 16.7499 14.6391 16.7434 14.6399 16.7371C14.6436 16.7236 14.6519 16.7117 14.6633 16.7035C14.6747 16.6953 14.6885 16.6911 14.7026 16.6918Z" fill="#D7D6DA"/>
<path d="M15.3465 17.8246C15.3511 17.9138 15.3511 18.0031 15.3465 18.0923C15.3536 18.0972 15.3621 18.0998 15.3707 18.0998C15.3794 18.0998 15.3878 18.0972 15.3949 18.0923C15.3944 18.1546 15.3987 18.2169 15.408 18.2786C15.4123 18.2746 15.4175 18.2715 15.4232 18.2697C15.4288 18.2678 15.4348 18.2672 15.4408 18.2679C15.4467 18.2687 15.4523 18.2706 15.4574 18.2738C15.4625 18.2769 15.4668 18.2811 15.4701 18.2861C15.4822 18.3045 15.4887 18.3261 15.4887 18.3482C15.5066 18.5524 15.5124 18.7575 15.5061 18.9624C15.5062 18.9716 15.5043 18.9807 15.5005 18.9891C15.4775 19.0301 15.4024 18.9754 15.3701 19.009L15.3782 19.2158C15.379 19.2207 15.3788 19.2257 15.3776 19.2305C15.3764 19.2353 15.3743 19.2398 15.3713 19.2438C15.3648 19.2483 15.3574 19.2513 15.3496 19.2524C15.2875 19.2717 15.2925 19.3624 15.3117 19.4257C15.3266 19.4307 15.3421 19.4319 15.357 19.4369L16.2315 19.4518C16.2265 19.4015 16.2222 19.3512 16.2172 19.3015H16.152L16.1334 18.981C16.1191 18.9774 16.1041 18.977 16.0897 18.9798C16.0752 18.9826 16.0615 18.9885 16.0495 18.9972C16.0141 18.7565 16.0024 18.5129 16.0148 18.2699C16.0507 18.2731 16.087 18.2705 16.1222 18.2625C16.1222 18.2153 16.1253 18.1687 16.1272 18.1215C16.1551 18.1246 16.1833 18.1215 16.2098 18.1122C16.2023 18.0879 16.2371 17.796 16.2278 17.7954C16.1833 17.7923 16.1387 17.7923 16.0942 17.7954V17.9041C16.0942 17.9749 15.9551 17.924 15.9545 17.955L15.9582 17.8215L15.8148 17.8184C15.8185 17.8662 15.8216 17.914 15.8241 17.9625C15.7945 17.9614 15.765 17.9649 15.7365 17.973C15.7419 17.9215 15.7404 17.8695 15.7322 17.8184L15.6272 17.8085L15.6322 17.9439L15.5117 17.937C15.5154 17.8941 15.5135 17.8509 15.5061 17.8085C15.4535 17.8187 15.4001 17.8241 15.3465 17.8246Z" fill="#4A4A4B"/>
<path d="M17.9392 15.2447C17.9441 15.3341 17.9441 15.4236 17.9392 15.513C17.9464 15.5177 17.9548 15.5202 17.9634 15.5202C17.972 15.5202 17.9804 15.5177 17.9876 15.513C17.9873 15.5754 17.9918 15.6377 18.0013 15.6993C18.0056 15.6958 18.0106 15.6932 18.0159 15.6916C18.0212 15.6901 18.0269 15.6897 18.0324 15.6904C18.0379 15.6911 18.0432 15.6929 18.048 15.6957C18.0528 15.6985 18.057 15.7023 18.0603 15.7068C18.0721 15.7254 18.0787 15.7468 18.0795 15.7689C18.0969 15.9729 18.1025 16.1778 18.0963 16.3825C18.0966 16.3918 18.0949 16.4012 18.0913 16.4098C18.0677 16.4502 17.9932 16.3962 17.9609 16.4297L17.9684 16.6359C17.9693 16.6407 17.9692 16.6457 17.9681 16.6505C17.9671 16.6553 17.965 16.6598 17.9621 16.6638C17.9555 16.6686 17.9478 16.6717 17.9398 16.6732C17.8777 16.6918 17.8826 16.7831 17.9025 16.8458C17.9168 16.8514 17.933 16.8526 17.9472 16.8576L18.8248 16.8781C18.8192 16.8278 18.8149 16.7775 18.8099 16.7272L18.7478 16.7303C18.7416 16.6228 18.7354 16.516 18.7285 16.4092C18.7142 16.4059 18.6994 16.4056 18.6849 16.4084C18.6705 16.4112 18.6568 16.417 18.6447 16.4253C18.6098 16.1846 18.5982 15.9411 18.6099 15.6981C18.6461 15.7011 18.6825 15.6988 18.718 15.6912C18.718 15.644 18.7211 15.5968 18.7223 15.5496C18.7504 15.5533 18.7789 15.5503 18.8056 15.5409C18.7981 15.5161 18.8323 15.2242 18.8236 15.2236C18.7789 15.2205 18.7341 15.2205 18.6894 15.2236C18.6894 15.2596 18.6894 15.2962 18.6894 15.3323C18.6894 15.4031 18.5509 15.3521 18.5503 15.3826L18.5534 15.2497L18.4106 15.2459C18.4137 15.2938 18.4174 15.3422 18.4199 15.39C18.3901 15.3894 18.3604 15.3931 18.3317 15.4012C18.3373 15.3497 18.336 15.2977 18.328 15.2466L18.223 15.236L18.2273 15.372L18.1075 15.3652C18.111 15.3222 18.1089 15.279 18.1013 15.2366C18.0476 15.2447 17.9933 15.2474 17.9392 15.2447Z" fill="#D7D6DA"/>
<path d="M19.5151 16.7868C19.4921 16.7697 19.473 16.7479 19.459 16.723C19.445 16.698 19.4364 16.6703 19.4338 16.6418C19.4311 16.6133 19.4345 16.5845 19.4437 16.5574C19.4529 16.5303 19.4677 16.5054 19.4871 16.4844C19.5313 16.4451 19.589 16.4246 19.648 16.4272C19.707 16.4297 19.7627 16.4551 19.8033 16.498C19.821 16.5206 19.834 16.5464 19.8416 16.5741C19.8491 16.6017 19.8511 16.6306 19.8473 16.659C19.8436 16.6874 19.8342 16.7148 19.8197 16.7395C19.8052 16.7642 19.7859 16.7858 19.7629 16.803C19.7696 16.8029 19.7762 16.8041 19.7824 16.8067C19.7886 16.8092 19.7942 16.813 19.7989 16.8177C19.8036 16.8225 19.8073 16.8281 19.8097 16.8343C19.8122 16.8406 19.8134 16.8472 19.8132 16.8539C19.8121 16.8604 19.8097 16.8667 19.8061 16.8723C19.8026 16.8779 19.798 16.8827 19.7925 16.8865C19.7871 16.8903 19.781 16.893 19.7745 16.8945C19.768 16.8959 19.7613 16.896 19.7548 16.8949C19.7754 17.0885 19.8082 17.2805 19.8529 17.47C19.8594 17.5082 19.8747 17.5443 19.8977 17.5756C19.9316 17.6049 19.9684 17.6307 20.0076 17.6526C20.0362 17.6743 20.0604 17.7147 20.0386 17.7426C19.9039 17.7277 19.7691 17.7551 19.6337 17.7551H19.2716C19.2647 17.7336 19.2618 17.7111 19.2629 17.6886C19.2625 17.6774 19.2651 17.6663 19.2704 17.6565C19.2758 17.6466 19.2837 17.6384 19.2934 17.6327C19.307 17.6259 19.3244 17.6246 19.3344 17.6135C19.3443 17.6023 19.3418 17.5756 19.3567 17.565C19.3716 17.5545 19.3884 17.5613 19.4039 17.5576C19.4312 17.552 19.4437 17.5222 19.4511 17.4955C19.4747 17.4139 19.4932 17.3309 19.5064 17.247C19.527 17.1346 19.5335 17.0201 19.5256 16.9061C19.5256 16.8967 19.5256 16.8862 19.5138 16.8837C19.509 16.8825 19.5038 16.8825 19.4989 16.8837C19.4926 16.8841 19.4862 16.8831 19.4802 16.8808C19.4743 16.8785 19.4689 16.8749 19.4644 16.8703C19.46 16.8656 19.4566 16.8601 19.4546 16.8541C19.4525 16.848 19.4517 16.8416 19.4524 16.8353C19.4555 16.8211 19.4635 16.8086 19.475 16.7997C19.4864 16.7909 19.5006 16.7863 19.5151 16.7868Z" fill="#4A4A4B"/>
<path d="M17.2047 17.1265C17.1914 17.1539 17.1806 17.1824 17.1724 17.2116C17.1724 17.2421 17.2091 17.2737 17.2296 17.252C17.2425 17.4803 17.216 17.7091 17.1513 17.9283C17.1401 17.978 17.1164 18.024 17.0824 18.0619C17.0554 18.0796 17.0306 18.1005 17.0085 18.124C16.9898 18.1513 16.9905 18.1948 17.0227 18.2029H17.6438C17.6495 18.1835 17.6504 18.163 17.6464 18.1432C17.6424 18.1234 17.6336 18.1048 17.6208 18.0892C17.5985 18.0557 17.568 18.0271 17.5438 17.9967C17.4944 17.922 17.4627 17.837 17.4513 17.7482C17.4189 17.5822 17.3961 17.4144 17.383 17.2458C17.3902 17.25 17.3984 17.2524 17.4068 17.2528C17.4152 17.2533 17.4235 17.2517 17.4312 17.2482C17.4389 17.2448 17.4456 17.2395 17.4508 17.2329C17.456 17.2264 17.4596 17.2186 17.4612 17.2104C17.4649 17.1793 17.4401 17.1514 17.4407 17.1203C17.446 17.094 17.4559 17.0688 17.4699 17.0458C17.4775 17.0205 17.4793 16.9938 17.475 16.9678C17.4707 16.9417 17.4604 16.917 17.4451 16.8955C17.4427 16.8912 17.4395 16.8875 17.4358 16.8843C17.4153 16.8694 17.3929 16.8992 17.3848 16.9228C17.3857 16.9168 17.3853 16.9106 17.3836 16.9048C17.3819 16.8989 17.3789 16.8935 17.3749 16.8889C17.3709 16.8843 17.3659 16.8806 17.3603 16.8781C17.3548 16.8756 17.3487 16.8743 17.3426 16.8744C17.3365 16.875 17.3306 16.8769 17.3254 16.88C17.3201 16.8831 17.3156 16.8873 17.3121 16.8923C17.3086 16.8974 17.3063 16.9031 17.3052 16.9091C17.3041 16.9151 17.3044 16.9213 17.306 16.9272C17.306 16.9215 17.3047 16.916 17.3023 16.9109C17.2999 16.9058 17.2965 16.9013 17.2921 16.8976C17.2878 16.894 17.2828 16.8914 17.2773 16.89C17.2719 16.8885 17.2662 16.8883 17.2606 16.8893C17.2552 16.891 17.2503 16.8938 17.2462 16.8977C17.242 16.9015 17.2388 16.9062 17.2367 16.9115C17.2347 16.9167 17.2338 16.9223 17.2341 16.9279C17.2345 16.9336 17.2361 16.939 17.2389 16.944C17.2266 16.9316 17.2111 16.923 17.1942 16.9191C17.1857 16.9175 17.1769 16.9192 17.1697 16.924C17.1625 16.9287 17.1575 16.9361 17.1557 16.9446C17.1557 16.962 17.1718 16.9756 17.173 16.993C17.173 17.0234 17.1581 17.0321 17.1687 17.0601C17.1793 17.088 17.2178 17.0824 17.2047 17.1265Z" fill="#4A4A4B"/>
<path d="M13.591 18.4792C13.5817 18.5289 13.6419 18.5587 13.686 18.5836C13.7257 18.6062 13.7598 18.6373 13.7858 18.6749C13.8118 18.7124 13.8291 18.7553 13.8363 18.8003C13.8421 18.8451 13.838 18.8906 13.8241 18.9335C13.8103 18.9765 13.7871 19.0158 13.7562 19.0488L13.7686 19.1841C13.8214 19.1873 13.8407 19.2562 13.8345 19.3084C13.8283 19.3605 13.814 19.4208 13.8488 19.4605C13.891 19.4506 13.9109 19.5121 13.9078 19.5555C13.9085 19.5698 13.9048 19.5839 13.8972 19.5959C13.8891 19.6071 13.8643 19.6145 13.8562 19.6027H13.0345C13.042 19.5524 13.0501 19.5015 13.0569 19.4512C13.0766 19.4433 13.0984 19.4417 13.119 19.4469C13.1123 19.3593 13.1195 19.2713 13.1401 19.186C13.1557 19.1846 13.1713 19.1881 13.1848 19.1959C13.219 19.1278 13.2437 19.0553 13.2581 18.9804C13.238 18.9907 13.2148 18.9927 13.1932 18.9861C13.1717 18.9795 13.1535 18.9648 13.1426 18.945C13.1224 18.9044 13.1178 18.8578 13.1296 18.814C13.1417 18.7706 13.1508 18.7264 13.1569 18.6817C13.1656 18.5333 13.0358 18.4078 13.0283 18.2594C13.03 18.1949 13.0491 18.1321 13.0834 18.0774C13.1177 18.0228 13.166 17.9784 13.2233 17.9488C13.3381 17.8918 13.4622 17.856 13.5898 17.8433C13.5898 17.8433 13.5749 18.0054 13.5736 18.0196C13.7071 18.0488 13.9307 18.2358 13.9432 18.3861C13.9624 18.6246 13.6202 18.3308 13.591 18.4792Z" fill="#4A4A4B"/>
<path d="M18.252 19.2543C18.2386 19.2816 18.2278 19.3101 18.2197 19.3394C18.2197 19.3692 18.2564 19.4015 18.2762 19.3791C18.2898 19.6076 18.2633 19.8367 18.198 20.0561C18.1873 20.1058 18.1635 20.1516 18.1291 20.189C18.1023 20.2071 18.0775 20.2279 18.0551 20.2511C18.0365 20.2785 18.0378 20.3219 18.0694 20.33H18.6905C18.6962 20.3105 18.6971 20.2898 18.693 20.2699C18.6888 20.25 18.6799 20.2314 18.6669 20.2157C18.6452 20.1822 18.6147 20.1536 18.5905 20.1232C18.541 20.0486 18.5094 19.9636 18.498 19.8748C18.4657 19.7087 18.4427 19.5409 18.429 19.3723C18.4363 19.3767 18.4445 19.3792 18.453 19.3797C18.4615 19.3802 18.4699 19.3786 18.4777 19.3751C18.4854 19.3717 18.4922 19.3664 18.4975 19.3597C18.5027 19.3531 18.5063 19.3452 18.5079 19.3369C18.5116 19.3065 18.4868 19.2748 18.4874 19.2469C18.4924 19.2204 18.5023 19.1951 18.5166 19.1723C18.5241 19.147 18.5257 19.1204 18.5214 19.0943C18.5171 19.0683 18.507 19.0436 18.4918 19.022C18.4892 19.0179 18.4861 19.0141 18.4824 19.0109C18.4619 18.9966 18.439 19.0258 18.4315 19.0494C18.4323 19.0433 18.4318 19.0372 18.4301 19.0314C18.4283 19.0256 18.4253 19.0202 18.4213 19.0156C18.4173 19.011 18.4124 19.0073 18.4069 19.0048C18.4014 19.0023 18.3954 19.001 18.3893 19.0009C18.3832 19.0017 18.3774 19.0038 18.3721 19.007C18.3669 19.0101 18.3624 19.0144 18.3589 19.0194C18.3554 19.0244 18.3529 19.0301 18.3518 19.0361C18.3506 19.0422 18.3507 19.0483 18.352 19.0543C18.3522 19.0487 18.3511 19.043 18.3488 19.0379C18.3466 19.0327 18.3432 19.0281 18.3389 19.0244C18.3346 19.0207 18.3295 19.018 18.3241 19.0165C18.3186 19.015 18.3129 19.0148 18.3073 19.0158C18.3019 19.0175 18.297 19.0204 18.2929 19.0242C18.2887 19.028 18.2855 19.0327 18.2834 19.038C18.2813 19.0432 18.2804 19.0488 18.2808 19.0545C18.2812 19.0601 18.2828 19.0656 18.2856 19.0705C18.273 19.0586 18.2576 19.05 18.2408 19.0456C18.2235 19.0456 18.203 19.0537 18.2023 19.0711C18.2017 19.0885 18.2185 19.1022 18.2197 19.1195C18.2197 19.15 18.2048 19.1587 18.2154 19.1872C18.2259 19.2158 18.2657 19.2077 18.252 19.2543Z" fill="#D7D6DA"/>
<path d="M20.6727 19.0077C20.682 19.0574 20.6218 19.0879 20.5777 19.1127C20.5381 19.1352 20.5041 19.1663 20.4782 19.2037C20.4523 19.2411 20.4351 19.2839 20.428 19.3288C20.4219 19.3735 20.4258 19.4191 20.4396 19.4621C20.4533 19.505 20.4765 19.5444 20.5075 19.5773L20.4951 19.7127C20.4423 19.7158 20.4236 19.7853 20.4298 19.8369C20.4361 19.8884 20.4503 19.9499 20.4156 19.989C20.3727 19.9791 20.3535 20.0406 20.3535 20.084C20.3525 20.0982 20.356 20.1123 20.3634 20.1244C20.3721 20.1356 20.3963 20.1431 20.4044 20.1319H21.2261C21.2192 20.0809 21.2111 20.0306 21.2037 19.9797C21.184 19.9715 21.1621 19.9702 21.1416 19.976C21.1481 19.8884 21.1407 19.8004 21.1199 19.7151C21.1043 19.7136 21.0887 19.7168 21.0751 19.7245C21.041 19.6564 21.0165 19.5838 21.0025 19.5089C21.0225 19.5191 21.0456 19.5211 21.0671 19.5145C21.0885 19.5079 21.1066 19.4932 21.1174 19.4735C21.1375 19.4329 21.1422 19.3863 21.1304 19.3425C21.1184 19.2991 21.1095 19.2549 21.1037 19.2102C21.0944 19.0624 21.2279 18.9363 21.2316 18.7879C21.2302 18.7234 21.2113 18.6605 21.1771 18.6059C21.1429 18.5512 21.0946 18.5068 21.0373 18.4773C20.9224 18.42 20.798 18.3842 20.6702 18.3718C20.6702 18.3718 20.6851 18.5339 20.687 18.5475C20.5534 18.5767 20.3292 18.7637 20.3143 18.914C20.3013 19.1531 20.6441 18.8599 20.6727 19.0077Z" fill="#D7D6DA"/>
<path d="M10.3159 21.2927C10.3094 21.2645 10.309 21.2352 10.3147 21.2069C10.3204 21.1785 10.332 21.1517 10.3489 21.1282C10.3658 21.1047 10.3874 21.0851 10.4125 21.0706C10.4375 21.0561 10.4654 21.0471 10.4942 21.0443C10.5532 21.0437 10.6102 21.0663 10.6528 21.1071C10.6955 21.148 10.7206 21.2038 10.7227 21.2629C10.721 21.2915 10.7137 21.3195 10.7011 21.3453C10.6886 21.371 10.671 21.394 10.6494 21.4129C10.6278 21.4318 10.6027 21.4463 10.5756 21.4554C10.5484 21.4645 10.5196 21.4681 10.491 21.466C10.4961 21.4702 10.5003 21.4755 10.5032 21.4814C10.5062 21.4873 10.5079 21.4938 10.5084 21.5004C10.5088 21.5071 10.5078 21.5137 10.5056 21.5199C10.5034 21.5262 10.4999 21.5319 10.4954 21.5368C10.4903 21.541 10.4844 21.5442 10.478 21.5461C10.4717 21.548 10.465 21.5487 10.4584 21.548C10.4518 21.5473 10.4454 21.5453 10.4396 21.5421C10.4338 21.5389 10.4287 21.5345 10.4246 21.5293C10.3119 21.688 10.2099 21.854 10.119 22.0262C10.0984 22.0588 10.0859 22.0958 10.0824 22.1342C10.0887 22.1789 10.0995 22.2228 10.1147 22.2653C10.1215 22.3001 10.1147 22.346 10.0787 22.3528C9.98674 22.2529 9.86749 22.1845 9.76812 22.0951L9.49609 21.8566C9.50527 21.836 9.51787 21.8171 9.53336 21.8007C9.54064 21.7916 9.55032 21.7848 9.5613 21.781C9.57228 21.7771 9.58412 21.7764 9.59546 21.779C9.61037 21.779 9.62403 21.7933 9.63894 21.7908C9.65385 21.7883 9.66999 21.7678 9.68801 21.7697C9.70602 21.7715 9.71471 21.7877 9.72837 21.7951C9.7526 21.8088 9.78117 21.7951 9.80414 21.7802C9.87638 21.7339 9.94566 21.683 10.0116 21.6281C10.1011 21.5569 10.1816 21.4752 10.2513 21.3846C10.2569 21.3772 10.2619 21.3678 10.2575 21.3598C10.2541 21.3558 10.2499 21.3526 10.2451 21.3504C10.2403 21.3463 10.2364 21.3412 10.2337 21.3354C10.231 21.3296 10.2296 21.3233 10.2296 21.3169C10.2296 21.3105 10.231 21.3042 10.2337 21.2984C10.2364 21.2927 10.2403 21.2875 10.2451 21.2834C10.2564 21.2774 10.2693 21.2752 10.282 21.2768C10.2946 21.2785 10.3065 21.284 10.3159 21.2927Z" fill="#4A4A4B"/>
<path d="M15.5242 15.1012C15.5031 15.1472 15.5547 15.1907 15.5919 15.2255C15.6257 15.2569 15.6519 15.2956 15.6685 15.3386C15.6851 15.3817 15.6916 15.4279 15.6876 15.4739C15.6834 15.5192 15.6691 15.5631 15.6457 15.6021C15.6222 15.6411 15.5903 15.6744 15.5522 15.6993C15.5453 15.744 15.5391 15.7888 15.5329 15.8341C15.5832 15.849 15.5857 15.9204 15.5677 15.9701C15.5497 16.0198 15.5211 16.0751 15.546 16.1217C15.5894 16.1217 15.5932 16.1838 15.5814 16.2279C15.5791 16.2418 15.5723 16.2547 15.5621 16.2645C15.5516 16.2738 15.5261 16.2751 15.5205 16.2645L14.7212 16.0707C14.7398 16.0229 14.7597 15.9757 14.7783 15.9279C14.7996 15.9245 14.8215 15.9282 14.8404 15.9384C14.8547 15.852 14.8821 15.7682 14.9218 15.69C14.9373 15.6925 14.9517 15.6994 14.9634 15.7099C15.0121 15.6515 15.0527 15.5867 15.0839 15.5174C15.0619 15.5225 15.0388 15.5189 15.0195 15.5073C15.0001 15.4957 14.986 15.477 14.9802 15.4553C14.9697 15.4111 14.9761 15.3645 14.9982 15.3248C15.0199 15.2848 15.0387 15.2433 15.0547 15.2006C15.0976 15.0584 15.0007 14.9062 15.028 14.7603C15.0447 14.6982 15.0777 14.6418 15.1236 14.5968C15.1694 14.5518 15.2265 14.5199 15.2888 14.5044C15.4138 14.4753 15.5431 14.4694 15.6702 14.487C15.6702 14.487 15.618 14.641 15.6137 14.6541C15.7379 14.7162 15.9105 14.9472 15.8882 15.0969C15.8515 15.3292 15.5863 14.964 15.5242 15.1012Z" fill="#D7D6DA"/>
<path d="M10.681 19.4462C10.6326 19.4611 10.5959 19.4046 10.5667 19.3636C10.5399 19.3267 10.505 19.2964 10.4648 19.2749C10.4246 19.2534 10.38 19.2412 10.3345 19.2394C10.2889 19.238 10.2437 19.2469 10.2021 19.2654C10.1605 19.2839 10.1236 19.3115 10.0941 19.3462H9.95809C9.94939 19.2941 9.87859 19.2841 9.82704 19.2953C9.77549 19.3065 9.71711 19.3282 9.67426 19.2953C9.67923 19.2518 9.6165 19.2406 9.57303 19.2469C9.55899 19.2478 9.54557 19.253 9.53452 19.2618C9.52396 19.2717 9.51961 19.2965 9.53452 19.3034L9.6252 20.1201C9.67488 20.107 9.72394 20.0934 9.77363 20.0809C9.78014 20.0608 9.78014 20.039 9.77363 20.0188C9.8612 20.0158 9.94775 19.999 10.0301 19.9692C10.0302 19.9535 10.0252 19.9383 10.0158 19.9257C10.0794 19.8838 10.1486 19.8514 10.2214 19.8294C10.2136 19.8505 10.2143 19.8738 10.2233 19.8945C10.2324 19.9151 10.249 19.9314 10.2699 19.94C10.3123 19.956 10.3591 19.956 10.4015 19.94C10.4432 19.9231 10.4859 19.9092 10.5295 19.8984C10.676 19.8729 10.8158 19.9884 10.9642 19.9791C11.0271 19.9698 11.0864 19.944 11.1361 19.9044C11.1859 19.8649 11.2243 19.8128 11.2474 19.7536C11.2908 19.633 11.3119 19.5055 11.3095 19.3773C11.3095 19.3773 11.1499 19.4102 11.1363 19.4133C11.0922 19.2841 10.8816 19.0823 10.7307 19.0866C10.4953 19.0934 10.8251 19.4015 10.681 19.4462Z" fill="#D7D6DA"/>
<path d="M6.19148 4.98526C6.23495 4.9542 6.27967 4.92315 6.32501 4.8952C6.73305 4.63559 7.22804 4.48219 7.7044 4.56479C7.82502 4.58094 7.93978 4.62659 8.03853 4.6977C8.21057 4.83309 8.26895 5.06289 8.33168 5.27219C8.518 5.8858 8.82356 6.71058 9.4496 6.95218C10.1949 7.23787 10.6545 7.11925 10.8091 8.10426C11.0331 9.53147 11.2571 10.9587 11.4811 12.3859C11.5153 12.6039 11.5476 12.8374 11.4525 13.0368C11.3842 13.1802 11.2582 13.2852 11.1569 13.4094C10.8849 13.7398 10.7979 14.1802 10.6563 14.5839C10.5147 14.9876 10.2657 15.408 9.85267 15.5204C9.67648 15.5577 9.49522 15.5646 9.31669 15.5409L6.45233 15.3254C6.06106 15.2956 5.63376 15.2757 5.31577 15.5049C5.12449 15.6434 4.99965 15.8546 4.90276 16.0701C4.56056 16.8309 4.44317 17.7805 3.74571 18.2388C3.67622 18.2933 3.58917 18.3205 3.50101 18.3152C3.43352 18.2981 3.37138 18.2644 3.32028 18.2171L2.0943 17.2507C1.87879 17.0818 1.64899 16.8905 1.59061 16.6228C1.52043 16.2986 1.72166 15.9875 1.85891 15.6856C2.10734 15.1403 2.1533 14.5286 2.2005 13.9317C2.31788 12.4592 2.46135 10.9742 2.87063 9.54948C3.2737 8.14401 4.31399 6.96584 5.26423 5.87711C5.54681 5.55415 5.8443 5.23493 6.19148 4.98526Z" fill="#494952"/>
<path d="M7.44219 19.0009C7.44716 19.0901 7.44716 19.1795 7.44219 19.2686C7.44932 19.2735 7.45776 19.2761 7.46641 19.2761C7.47505 19.2761 7.4835 19.2735 7.49063 19.2686C7.49007 19.331 7.49443 19.3933 7.50367 19.4549C7.50803 19.4509 7.51323 19.4478 7.51889 19.446C7.52455 19.4441 7.53054 19.4436 7.53645 19.4443C7.54236 19.445 7.54805 19.447 7.55311 19.4501C7.55818 19.4532 7.5625 19.4574 7.56578 19.4624C7.57789 19.4808 7.58436 19.5024 7.58441 19.5245C7.60231 19.7287 7.60812 19.9338 7.6018 20.1387C7.60217 20.148 7.60025 20.1571 7.59621 20.1654C7.57323 20.2064 7.4987 20.1518 7.46579 20.1859L7.47386 20.3921C7.47487 20.397 7.47478 20.402 7.4736 20.4069C7.47241 20.4117 7.47017 20.4162 7.46703 20.4201C7.46069 20.4249 7.45318 20.4279 7.44529 20.4288C7.38319 20.448 7.38816 20.5387 7.40741 20.602C7.42231 20.607 7.43784 20.6083 7.45275 20.6139L8.32721 20.6288C8.32224 20.5784 8.31789 20.5281 8.31292 20.4778H8.25082C8.24399 20.371 8.23778 20.2642 8.23156 20.1574C8.21726 20.1537 8.20233 20.1533 8.18784 20.1561C8.17335 20.1589 8.15966 20.1648 8.14772 20.1735C8.11255 19.9328 8.1009 19.6892 8.11294 19.4462C8.14892 19.4494 8.18518 19.4469 8.22039 19.4388C8.22039 19.3922 8.22349 19.345 8.22535 19.2978C8.25324 19.301 8.28148 19.2978 8.30796 19.2885C8.30112 19.2643 8.33528 18.9724 8.32597 18.9717C8.28151 18.9686 8.23689 18.9686 8.19244 18.9717V19.0811C8.19244 19.1512 8.05394 19.1003 8.0527 19.1314L8.05642 18.9985L7.91296 18.9947C7.91668 19.0425 7.91979 19.0904 7.92289 19.1388C7.89314 19.138 7.86342 19.1415 7.8347 19.1494C7.84029 19.0979 7.83903 19.0459 7.83097 18.9947L7.72539 18.9848L7.73036 19.1202L7.6105 19.114C7.61372 19.0708 7.61163 19.0274 7.60429 18.9848C7.55087 18.9952 7.4966 19.0006 7.44219 19.0009Z" fill="#4A4A4B"/>
<path d="M12.9963 13.5467C13.1032 13.5859 13.2003 13.648 13.2807 13.7287C13.3202 13.7698 13.3455 13.8225 13.3531 13.8789C13.3607 13.9354 13.3502 13.9929 13.323 14.043C13.2684 14.1063 13.1955 14.151 13.1143 14.1709C12.6429 14.3367 12.1579 14.5019 11.6579 14.4907C11.1579 14.4796 10.6331 14.2572 10.3959 13.8169C10.3481 13.738 10.324 13.647 10.3263 13.5548C10.4468 11.9599 12.3032 13.2281 12.9963 13.5467Z" fill="#DDC8AF"/>
<path d="M5.4855 15.2677C5.59418 15.0777 5.80162 14.9572 6.00036 14.8491C6.6885 14.469 7.40149 14.0808 8.19397 13.9877C9.44915 13.8405 10.7751 14.4504 11.9552 14.0225C12.4564 13.8405 12.8868 13.4809 13.4196 13.4082C13.8637 13.3461 14.3109 13.5008 14.7009 13.707C15.1798 13.9593 15.6074 14.2988 15.9617 14.7081C15.1946 14.882 14.3599 14.5442 13.6109 14.7771C13.1656 14.9156 12.8135 15.2391 12.3868 15.4223C11.6539 15.7372 10.8056 15.6049 10.0031 15.5335C9.01754 15.4455 8.02554 15.4582 7.04251 15.5714C6.70838 15.6099 4.98678 16.144 5.4855 15.2677Z" fill="#EDD9BE"/>
<path d="M11.3754 1.78618C12.0312 1.87561 12.5977 2.30415 13.02 2.81342C13.1523 2.95744 13.2519 3.12843 13.3119 3.31463C13.4137 3.69907 13.22 4.09345 13.0324 4.44373L11.8269 6.69261C11.4766 7.34598 10.763 7.264 10.2196 6.79633C9.92396 6.5417 9.74199 6.17961 9.60163 5.81567C9.02279 4.31703 8.93584 1.45515 11.3754 1.78618Z" fill="#EDD9BE"/>
<path d="M12.2604 2.86682C12.5088 3.25809 12.5852 3.84066 12.9548 4.10896C13.287 4.34931 14.495 4.56482 14.8111 4.23317C15.0919 3.94003 15.0006 3.44938 14.7906 3.10221C14.4093 2.4712 13.7143 2.3445 13.2771 1.83274C12.7405 1.20609 12.5057 0.417331 11.658 0.0999655C10.6152 -0.291307 9.25444 0.526638 8.95571 1.56941C8.82777 2.01658 8.988 2.40972 9.06129 2.85005C9.18053 3.56304 9.16563 4.2872 9.29046 5.00329C9.31779 5.16042 9.37989 5.35295 9.53889 5.37593C9.69788 5.39891 9.80036 5.23619 9.87054 5.09832C10.0016 4.84057 10.1351 4.53936 10.0295 4.27354C9.95004 4.06983 9.73887 3.9009 9.76682 3.68601C9.79477 3.47112 10.0705 3.35809 10.2717 3.43758C10.473 3.51708 10.5947 3.727 10.6444 3.93444C10.7761 3.59782 10.7065 3.19909 10.8754 2.87862C10.9385 2.76377 11.0296 2.66672 11.1403 2.59648C11.2509 2.52623 11.3775 2.48506 11.5083 2.47679C11.894 2.4594 12.1089 2.62709 12.2604 2.86682Z" fill="#5D523E"/>
</g>
<defs>
<linearGradient id="paint0_linear_1232_7085" x1="5.45281e-05" y1="20.7406" x2="23.0007" y2="20.7406" gradientUnits="userSpaceOnUse">
<stop/>
<stop offset="1"/>
</linearGradient>
<clipPath id="clip0_1232_7085">
<rect width="23" height="24.1185" fill="white"/>
</clipPath>
</defs>
</svg>
