<svg width="26" height="18" viewBox="0 0 26 18" fill="none" xmlns="http://www.w3.org/2000/svg">
<g clip-path="url(#clip0_1232_6589)">
<path d="M6.30898 11.0133C6.09651 11.1534 5.94833 11.3721 5.89697 11.6214C6.17032 11.7561 6.61006 11.554 6.88737 11.5144C7.46577 11.4352 8.03624 11.2807 8.61661 11.249C8.99357 11.2607 9.37088 11.2455 9.74567 11.2034C9.94375 11.1638 10.1062 11.0053 9.89621 10.8271C9.76548 10.7161 9.50005 10.732 9.34951 10.7221C9.03258 10.7003 8.72358 10.6746 8.40467 10.6746C7.82072 10.6636 7.2379 10.7303 6.67147 10.8726C6.56054 10.9023 6.32681 10.9281 6.27531 11.0172L6.30898 11.0133Z" fill="#040306"/>
<path d="M18.1934 10.9954C18.4596 10.8854 18.7354 10.8005 19.0174 10.7419C19.2427 10.6902 19.4754 10.6788 19.7047 10.7082C19.8633 10.7369 20.0269 10.7125 20.1702 10.6389C20.5208 10.4527 20.8081 10.1397 21.1983 10.0446C21.5738 9.9524 21.9706 10.013 22.3016 10.213C22.5408 10.3663 22.7344 10.5811 22.8621 10.835C22.9671 11.033 23.0602 11.3559 22.9196 11.5639C22.7671 11.8016 22.5115 11.7877 22.2758 11.7858C21.9569 11.7858 21.6301 11.7541 21.3112 11.7243C20.6258 11.6649 19.9563 11.4134 19.2729 11.3282C18.997 11.3174 18.7239 11.2695 18.4608 11.1856C18.3816 11.1519 18.2033 11.0925 18.1558 11.0132V11.0509L18.1934 10.9954Z" fill="#040306"/>
<path d="M15.4282 11.453C15.4282 11.8492 15.1687 12.1701 14.8498 12.1701H11.5003C11.1794 12.1701 10.9199 11.8492 10.9199 11.453V9.85252C10.9199 9.45636 11.1794 9.13348 11.5003 9.13348H14.8498C15.1687 9.13348 15.4282 9.45636 15.4282 9.85252V11.453Z" fill="#048BB5"/>
<path d="M25.8634 11.0668C24.7521 11.2351 22.91 11.4154 20.9252 11.5659C20.0259 11.039 16.9458 10.8885 13.3051 10.8885C9.79312 10.8885 6.83578 11.0133 5.82161 11.5105C3.64273 11.35 1.62231 11.1777 0.520985 11.0668C-0.198046 10.9955 2.29182 13.8953 2.29182 13.8953H24.7363C24.7363 13.8953 26.4952 10.9737 25.8634 11.0668Z" fill="#FFBE00"/>
<path d="M12.3701 9.13348H11.9204V10.6508H12.3701V9.13348Z" fill="#040306"/>
<path d="M13.624 9.13348H13.1743V10.6508H13.624V9.13348Z" fill="#040306"/>
<path d="M14.7133 9.13348H14.2617V10.6508H14.7133V9.13348Z" fill="#040306"/>
<g style="mix-blend-mode:multiply">
<path d="M15.5157 13.8954C14.1747 12.689 12.0731 11.9146 9.71198 11.9146C7.35086 11.9146 5.24725 12.691 3.90625 13.8954H15.5157Z" fill="#FF6D00"/>
</g>
<g style="mix-blend-mode:multiply" opacity="0.4">
<path d="M25.8397 11.0668C24.7285 11.2351 22.8864 11.4154 20.9016 11.5659C20.5273 11.385 20.1258 11.2672 19.7131 11.2173C19.1129 11.231 18.5156 11.3053 17.9304 11.4391C16.4884 11.7085 15.0602 12.0809 13.6142 12.3345C12.1682 12.588 10.754 12.8693 9.31391 12.9822C8.59483 13.0495 7.87153 13.0595 7.15087 13.0119C6.75471 12.9822 6.36846 12.9386 5.97824 12.901C5.30279 12.9842 4.62931 13.0693 3.95584 13.1664C3.36549 13.2497 2.76859 13.2769 2.17312 13.2476C2.02258 13.2476 1.86213 13.2337 1.69971 13.2159C2.01664 13.6121 2.26225 13.8953 2.26225 13.8953H24.7127C24.7127 13.8953 26.4716 10.9737 25.8397 11.0668Z" fill="#FF6D00"/>
</g>
<path d="M15.5395 6.42377C15.6444 6.42377 15.7375 6.50102 15.8267 6.55252C15.9158 6.60402 16.0565 6.67929 16.1694 6.7506C16.241 6.81492 16.3179 6.87322 16.3991 6.92491C16.4724 6.96056 16.5378 6.93679 16.615 6.94274C16.615 7.01206 16.6329 7.02395 16.6844 7.03187C16.7359 7.03979 16.7438 7.00018 16.7695 6.9982C16.7953 6.99622 16.8191 7.02395 16.8448 7.02395C16.9628 7.01539 17.08 6.99818 17.1954 6.97245C17.3836 6.94274 17.5737 6.90114 17.758 6.8536C17.8511 6.82983 18.1026 6.71693 18.1799 6.78427C18.2571 6.85162 18.2472 7.09526 18.2472 7.19232C18.2389 7.34548 18.2123 7.49709 18.168 7.64394C18.1086 7.88164 18.0313 8.12131 17.7916 8.17479C17.5104 8.2362 17.1201 8.06981 16.8547 7.95889C16.5132 7.79074 16.1824 7.60154 15.8643 7.39238C15.7395 7.31909 15.6147 7.24778 15.4899 7.18043C15.4285 7.14874 15.2404 7.1012 15.2106 7.03187C15.1809 6.96254 15.3037 6.77437 15.3374 6.70306C15.3728 6.60511 15.4215 6.51248 15.482 6.42773L15.5395 6.42377Z" fill="#040306"/>
<path d="M14.6045 6.81791C14.6045 6.80404 14.6045 6.79612 14.6164 6.79216C14.6956 6.91497 14.7431 7.10116 14.866 7.19822C14.9888 7.29528 15.0502 7.22199 15.1492 7.16059C15.2713 7.08328 15.3718 6.97618 15.4411 6.84935C15.5104 6.72252 15.5463 6.58014 15.5454 6.43561C15.5467 6.33241 15.5229 6.23044 15.476 6.13849C15.4166 6.00578 15.4047 6.01965 15.278 6.00578C15.1849 6.00578 15.0799 5.97409 14.9848 5.97211C14.8541 5.97211 14.8541 6.02757 14.8323 6.17019C14.8046 6.34054 14.7471 6.6951 14.6065 6.79414C14.6065 6.80998 14.6065 6.79414 14.6263 6.79414L14.6045 6.81791Z" fill="#930527"/>
<path d="M19.2116 10.9836C19.275 11.0093 19.378 11.1083 19.4493 11.1381H19.4948C19.5806 11.1072 19.6547 11.0504 19.7068 10.9756C19.7682 10.8687 19.681 10.7775 19.7068 10.6904C19.7325 10.6032 19.8751 10.5953 19.9346 10.528L19.9524 10.5597C19.9722 10.5834 19.9524 10.4785 19.9425 10.4388C19.9157 10.3753 19.8832 10.3143 19.8454 10.2566C19.7583 10.0942 19.7206 10.0942 19.5642 10.1774C19.3854 10.2691 19.2245 10.3918 19.0888 10.5399C19.0353 10.6013 18.9224 10.7181 18.9442 10.8152C18.966 10.9122 19.1244 10.9459 19.2116 10.9836Z" fill="#F7DEB0"/>
<path d="M19.4731 11.142L19.5029 11.1262C19.6712 11.2034 19.9267 10.7894 19.7009 10.7597C19.6733 10.908 19.5966 11.0427 19.483 11.142H19.4731Z" fill="#DDBD8A"/>
<path d="M17.439 5.28877C17.4549 5.30263 17.4826 5.31055 17.4925 5.3264C17.5024 5.34225 17.4925 5.3779 17.4925 5.40959C17.4925 5.44129 17.5281 5.48883 17.54 5.53042C17.5519 5.57202 17.54 5.574 17.5539 5.60173C17.5678 5.62946 17.6054 5.61362 17.6193 5.64135C17.6331 5.66908 17.5717 5.73048 17.5935 5.78991C17.6153 5.84933 17.6965 5.84933 17.7381 5.85528C17.8593 5.84919 17.9807 5.86053 18.0986 5.88895C18.1437 5.92342 18.1787 5.96936 18.1999 6.02198C18.2212 6.07459 18.2279 6.13194 18.2194 6.18805C18.2178 6.21546 18.2111 6.24233 18.1996 6.26728C18.3671 6.34771 18.5452 6.40374 18.7285 6.43367L18.8949 6.36632C19.0045 6.32366 19.126 6.32366 19.2356 6.36632C19.2079 6.3168 19.1801 6.26926 19.1524 6.21776C19.0052 6.00116 18.9203 5.74836 18.9068 5.48685C18.9314 5.35629 18.9769 5.23055 19.0415 5.11446C19.0921 4.9832 19.1157 4.84305 19.1108 4.70245C19.0857 4.4588 18.9748 4.23202 18.7978 4.06265C18.7206 4.00183 18.6317 3.95745 18.5367 3.93224C18.4416 3.90703 18.3424 3.90153 18.2452 3.91607C18.0795 3.911 17.9165 3.95953 17.7805 4.05445C17.6446 4.14938 17.5429 4.28563 17.4905 4.44296C17.4639 4.57448 17.47 4.71053 17.5083 4.83912C17.529 4.89743 17.529 4.96107 17.5083 5.01938C17.4865 5.07484 17.4271 5.11247 17.3994 5.16794C17.3717 5.2234 17.3915 5.24519 17.439 5.28877ZM18.2313 3.92399C18.2313 3.9339 18.2194 3.93588 18.2155 3.94182L18.2313 3.92399Z" fill="#F7DEB0"/>
<path d="M18.2691 5.62353C18.4078 5.5641 18.4672 5.41554 18.5365 5.28877C18.587 5.27936 18.6325 5.25226 18.6648 5.21232C18.6971 5.17239 18.7141 5.12224 18.7128 5.07088C18.6989 4.95204 18.5365 4.96986 18.489 5.05702C18.5286 4.97383 18.687 4.89459 18.7385 4.98769C18.79 5.08079 18.7187 5.20756 18.6534 5.265C18.6146 5.29307 18.5827 5.32966 18.5603 5.37197C18.5325 5.4157 18.4999 5.45623 18.4632 5.49279C18.4076 5.55644 18.3404 5.60888 18.2651 5.6473L18.2691 5.62353Z" fill="#9E8256"/>
<path d="M19.3367 4.17557C19.1605 3.82893 18.8633 3.77941 18.5207 3.72791L18.4989 3.74573C18.1998 3.72394 17.7065 3.90024 17.7065 4.26668C17.765 4.27545 17.8244 4.27545 17.8828 4.26668C17.863 4.33007 17.762 4.49051 17.9066 4.48061C17.9066 4.57767 17.8908 4.58163 17.9581 4.62917C18.0255 4.67671 18.0532 4.65096 18.0869 4.70642C18.1101 4.75384 18.128 4.80366 18.1403 4.85498C18.1683 4.812 18.2074 4.77735 18.2534 4.75469C18.2994 4.73203 18.3507 4.7222 18.4018 4.72623C18.4477 4.7306 18.4919 4.74604 18.5305 4.77122C18.5692 4.79641 18.6011 4.83058 18.6237 4.87083C18.6642 4.90201 18.6965 4.94274 18.7176 4.98938C18.7387 5.03603 18.7479 5.08716 18.7445 5.13824C18.7411 5.17932 18.7291 5.21922 18.7093 5.25539C18.6895 5.29155 18.6623 5.32317 18.6296 5.3482C18.695 5.46507 18.7544 5.59976 18.9089 5.62155C19.0337 5.63938 19.0475 5.50468 19.0812 5.40168C19.1149 5.29868 19.1842 5.16002 19.2179 5.0392C19.2249 5.06092 19.2335 5.08211 19.2436 5.10258C19.3585 5.02335 19.3783 4.80744 19.3942 4.67473C19.4273 4.50641 19.4073 4.33195 19.3367 4.17557Z" fill="#3F0303"/>
<path d="M18.5381 3.64666C18.2172 3.61893 17.8943 3.61497 17.6685 3.87644C17.5724 3.97278 17.504 4.09319 17.4704 4.22506C17.4466 4.34787 17.512 4.40135 17.5516 4.50831C17.5655 4.48851 17.5813 4.44889 17.6051 4.43304C17.6289 4.4172 17.6269 4.43304 17.6467 4.46077C17.6665 4.48851 17.6823 4.56972 17.7675 4.52812C17.7675 4.55783 17.7675 4.58953 17.7675 4.61924C17.7675 4.64895 17.819 4.60537 17.8368 4.61924C17.8547 4.6331 17.8685 4.64301 17.8844 4.64697C17.9597 4.66678 17.9795 4.64697 18.027 4.58953C18.0668 4.52078 18.1208 4.46135 18.1855 4.41522C18.2627 4.36768 18.342 4.35183 18.3954 4.2726C18.5064 4.11612 18.3954 4.01708 18.3241 3.87644C18.2706 3.77146 18.4489 3.75363 18.5044 3.67836L18.5381 3.64666Z" fill="#3F0303"/>
<path d="M19.2673 4.10622C19.2811 3.97945 19.0969 3.7893 18.9919 3.73779C18.8146 3.667 18.624 3.6359 18.4334 3.64668C18.2615 3.64413 18.0939 3.7 17.958 3.80514C17.8748 3.87249 17.6292 4.06859 17.7024 4.2013C17.7024 4.21121 17.7024 4.22309 17.7163 4.23299C17.802 4.08392 17.9303 3.96389 18.0847 3.88834C18.203 3.82877 18.3336 3.79775 18.466 3.79775C18.5985 3.79775 18.7291 3.82877 18.8473 3.88834C18.6493 3.84872 18.5284 4.01709 18.37 4.08642C18.5265 4.05274 18.6928 4.01313 18.8473 3.98143C18.8018 4.08642 18.6493 4.11217 18.6493 4.24488C18.7166 4.24488 18.8196 4.16169 18.8771 4.12207C18.8573 4.19338 18.7859 4.23894 18.7899 4.32015C18.8632 4.34194 18.9246 4.26667 18.9761 4.22507C18.9761 4.32609 18.8929 4.39146 18.8533 4.47267C18.8145 4.57327 18.809 4.68364 18.8374 4.78762C18.9107 4.69056 19.0018 4.57567 19.0811 4.4806C19.1096 4.53191 19.1263 4.58892 19.1301 4.6475C19.1339 4.70608 19.1246 4.76477 19.1029 4.81931C19.0573 4.96787 18.9583 5.01739 18.8731 5.11445C18.9791 5.09012 19.0727 5.02819 19.1365 4.94014C19.1365 5.13822 18.887 5.32442 18.984 5.55419C18.9873 5.52377 18.9976 5.49452 19.0141 5.46874C19.0306 5.44297 19.0529 5.42137 19.0791 5.40563C19.1539 5.3608 19.2209 5.30391 19.2772 5.23726C19.3718 5.10607 19.4392 4.95721 19.4753 4.7995C19.4979 4.67691 19.4897 4.5506 19.4513 4.43198C19.4129 4.31336 19.3456 4.20617 19.2554 4.12009L19.2673 4.10622Z" fill="#2B0202"/>
<path d="M18.6512 3.65852C18.2887 3.62485 17.9321 3.5476 17.6231 3.79916C17.498 3.89636 17.4156 4.03844 17.3934 4.19532C17.3834 4.27955 17.3894 4.3649 17.4112 4.44688C17.4361 4.50765 17.4709 4.56388 17.5142 4.61327C17.5142 4.55384 17.5736 4.49244 17.6132 4.45876C17.6072 4.51142 17.6072 4.56458 17.6132 4.61723C17.652 4.60186 17.6881 4.58047 17.7202 4.55384C17.7083 4.59148 17.6845 4.66675 17.7202 4.70042C17.742 4.67863 17.7479 4.64694 17.7737 4.62911C17.7598 4.75985 17.8291 4.6509 17.8905 4.64694C17.8905 4.67665 17.8747 4.73608 17.9103 4.7539C17.946 4.77173 17.9856 4.72419 18.0272 4.7341C18.0272 4.86285 17.9817 5.0015 18.0589 5.11441C18.0787 5.07479 18.1362 5.06291 18.1599 5.01537C18.1592 5.04524 18.1531 5.07475 18.1421 5.10253C18.1421 5.15205 18.0431 5.3006 18.053 5.35409C18.0866 5.30457 18.2352 5.15601 18.2609 5.09856C18.2578 5.2038 18.2718 5.30884 18.3025 5.40955C18.3239 5.25952 18.3934 5.12049 18.5006 5.01339C18.5184 5.00141 18.5387 4.99343 18.5599 4.99001C18.5811 4.98659 18.6027 4.98781 18.6234 4.99358C18.6809 5.00745 18.6908 5.04706 18.7304 5.08272C18.754 5.04713 18.7638 5.00419 18.7581 4.96189C18.7462 4.91831 18.7066 4.90841 18.6848 4.87671C18.6353 4.80342 18.6848 4.74202 18.6848 4.67863C18.6353 4.66675 18.5957 4.72815 18.5521 4.73806C18.5521 4.65486 18.6393 4.5994 18.6353 4.52413C18.5323 4.49442 18.3243 4.7341 18.4036 4.47263C18.4194 4.42509 18.5125 4.28842 18.459 4.27455C18.4055 4.26068 18.2907 4.35378 18.2609 4.37359C18.2312 4.3934 18.1718 4.4449 18.1263 4.43698C18.1555 4.26429 18.2412 4.10616 18.3699 3.98733C18.3342 3.96753 18.2649 4.0111 18.2273 4.02695C18.1401 4.0626 18.0549 4.09033 17.9717 4.13391C17.8922 4.18256 17.8167 4.23754 17.7459 4.29832C17.7459 4.2587 17.7875 4.22701 17.7875 4.18343C17.7598 4.1973 17.6726 4.34982 17.637 4.32011C17.6013 4.2904 17.6647 4.11014 17.6806 4.08043C17.7642 3.93597 17.89 3.82054 18.0411 3.74964C18.1492 3.69627 18.2694 3.67236 18.3897 3.68031C18.4858 3.6704 18.5827 3.6704 18.6789 3.68031H18.665L18.6512 3.65852Z" fill="#3F0303"/>
<path d="M18.6511 4.99558C18.6707 5.02255 18.6832 5.05404 18.6874 5.08711C18.6916 5.12019 18.6874 5.15379 18.6752 5.18481C18.6629 5.21582 18.643 5.24324 18.6174 5.26452C18.5917 5.28581 18.5611 5.30027 18.5283 5.30657C18.5281 5.32374 18.5321 5.34071 18.54 5.35593C18.548 5.37116 18.5596 5.38415 18.5739 5.39372C18.6115 5.42542 18.6234 5.43136 18.6353 5.4789C18.6414 5.521 18.6593 5.56051 18.687 5.59278C18.7147 5.62506 18.7511 5.64877 18.7918 5.66113C18.9542 5.72254 18.8829 5.56803 18.8869 5.46305C18.8908 5.35807 18.9918 5.2412 19.0017 5.11443C18.9542 5.13226 18.9106 5.16791 18.8552 5.14216C18.7997 5.11641 18.8334 5.0966 18.8354 5.04312C18.8373 4.98964 18.8175 4.97974 18.772 4.97974C18.7264 4.97974 18.665 4.97974 18.665 4.97974L18.6511 4.99558Z" fill="#3F0303"/>
<path d="M17.328 7.80436C17.2626 8.29361 17.5063 8.79476 17.4587 9.29986C17.4587 9.40286 17.4033 9.47417 17.435 9.57915C17.4667 9.68414 17.633 9.7495 17.633 9.90203C17.633 10.0011 17.5261 10.0882 17.5399 10.2011C17.5538 10.314 17.6984 10.3655 17.7024 10.4725C17.7024 10.6112 17.53 10.7399 17.4865 10.8687C17.4697 10.9211 17.4572 10.9747 17.4488 11.0291H17.4706C18.3838 11.0291 19.3464 11.0093 20.22 11.3381L20.2754 11.3025C20.5329 11.1321 20.4121 10.7894 20.216 10.6072C20.0793 10.4804 20.0496 10.5101 19.9803 10.3418C19.9308 10.219 19.8416 10.1437 19.8317 10.0149C19.8317 9.94362 19.8753 9.86637 19.8634 9.78912C19.8396 9.70852 19.8085 9.63027 19.7703 9.55538C19.7398 9.46765 19.7166 9.37755 19.701 9.286C19.7129 9.16913 19.7386 9.0582 19.7604 8.92747C19.7753 8.74637 19.7586 8.56405 19.7109 8.38869C19.6693 8.05394 19.7109 7.75286 19.6416 7.45772C19.6308 7.22643 19.6003 6.99649 19.5505 6.77038C19.5248 6.65187 19.4835 6.5373 19.4276 6.42968C19.4166 6.36134 19.3966 6.29475 19.3682 6.2316C19.2995 6.12971 19.2392 6.02239 19.188 5.91071C19.1484 5.78592 19.188 5.64924 19.0751 5.55219C18.9921 5.60718 18.9062 5.65745 18.8176 5.70273C18.7087 5.71976 18.5989 5.72969 18.4887 5.73244C18.2709 5.78571 18.063 5.8733 17.8727 5.99192C17.933 6.06232 17.9768 6.14521 18.0011 6.23461C18.0255 6.32401 18.0296 6.4177 18.0134 6.50891C17.9497 6.66661 17.8666 6.81567 17.7658 6.95261C17.6449 7.11306 17.4369 7.26558 17.3696 7.4597C17.3365 7.55866 17.3198 7.66237 17.3201 7.76672L17.3022 7.77861C17.3082 7.80832 17.3161 7.80634 17.328 7.80436Z" fill="#BA0024"/>
<path d="M18.2648 6.48315V6.46136C18.148 6.65944 18.2529 7.01599 18.251 7.25368C18.249 7.49138 18.2133 7.66965 18.2034 7.87962C18.1876 8.15297 18.1222 8.44216 18.0905 8.72146C18.087 8.73785 18.0817 8.75379 18.0747 8.769C18.039 8.67986 17.9717 8.73136 17.9459 8.80069C17.9202 8.87002 17.9875 8.91756 17.8865 8.94133C17.837 8.95123 17.7894 8.90567 17.726 8.93142C17.6822 8.95688 17.641 8.98674 17.6032 9.02056L17.522 9.07404C17.5082 9.08791 17.4963 9.10375 17.4804 9.11762C17.1891 9.37765 16.8537 9.58359 16.49 9.72572C16.4504 9.74302 16.4083 9.75373 16.3652 9.75742C16.3949 9.89607 16.4326 10.0545 16.4583 10.1298C16.494 10.2388 16.5395 10.3576 16.5891 10.4705C16.648 10.4293 16.7159 10.4028 16.7871 10.3933C16.9694 10.3753 17.1501 10.3441 17.3279 10.3002C17.452 10.26 17.5803 10.2341 17.7102 10.2229L17.7577 10.2011C18.087 10.0601 18.4078 9.90004 18.7184 9.72176C18.97 9.58311 19.2216 9.52368 19.3582 9.23647C19.4402 9.04495 19.4696 8.83503 19.4434 8.62836C19.4767 8.45752 19.4874 8.28302 19.4751 8.10939C19.4512 7.62176 19.3523 7.14073 19.1819 6.68321C19.0136 6.31875 18.5223 5.99786 18.2648 6.48315Z" fill="#040306"/>
<path d="M17.5439 3.85664C17.7103 3.79523 17.9401 3.98737 18.0788 4.07651C18.2559 4.19943 18.4223 4.33727 18.5759 4.48851C18.7667 4.66633 18.8852 4.90823 18.9087 5.16793C18.9087 5.25508 18.8711 5.57399 18.9246 5.61361C18.978 5.65322 19.0652 5.57795 19.1226 5.54626C19.2138 5.48288 19.3207 5.47495 19.4059 5.41949C19.5228 5.32892 19.6132 5.20848 19.6674 5.07087C19.7041 4.99858 19.7294 4.92109 19.7426 4.84109C19.7426 4.77573 19.7228 4.68461 19.7426 4.62123C19.7624 4.55784 19.7426 4.59151 19.812 4.57765C19.8625 4.5699 19.9139 4.5699 19.9645 4.57765C20.0417 4.63707 19.9229 4.80742 19.9368 4.87675C19.9605 4.98173 20.0576 4.92825 20.0932 4.86288C20.1571 4.74117 20.2114 4.61468 20.2557 4.48455C20.283 4.39236 20.2996 4.29731 20.3052 4.2013C20.3149 4.16181 20.3135 4.12042 20.3013 4.08165C20.2891 4.04287 20.2664 4.0082 20.2359 3.98143C20.0734 3.79919 19.8555 3.67638 19.6991 3.48821C19.6079 3.37926 19.602 3.34559 19.4515 3.37332C19.3004 3.40462 19.1455 3.4133 18.9919 3.39907C18.7584 3.34373 18.5188 3.31778 18.2788 3.32182C18.0698 3.34619 17.8761 3.44372 17.7321 3.59715C17.6806 3.65261 17.5202 3.8091 17.5519 3.88437L17.5439 3.85664Z" fill="#006A96"/>
<path d="M18.7798 4.33997C18.9089 4.50393 18.9868 4.70239 19.0036 4.91044C19.0546 4.86732 19.115 4.83678 19.1799 4.8213C19.1592 4.67721 19.1136 4.5378 19.0452 4.4093C19.0274 4.37166 18.9898 4.26073 18.9422 4.25083C18.8947 4.24093 18.7937 4.33799 18.7877 4.34789L18.7798 4.33997Z" fill="#F9A621"/>
<path d="M18.8491 4.40732C18.9389 4.52633 18.9926 4.66868 19.0036 4.81735C19.0384 4.78713 19.0798 4.76543 19.1245 4.75396C19.1114 4.65041 19.0806 4.54989 19.0333 4.45684C19.0215 4.43109 18.9937 4.34988 18.962 4.34394C18.9303 4.338 18.859 4.40534 18.8551 4.41327L18.8491 4.40732Z" fill="#3F0303"/>
<path d="M18.8491 5.5958C19.0135 5.61957 18.9759 6.03158 19.0294 6.15042C19.0735 6.23249 19.1362 6.30303 19.2126 6.35637C19.289 6.4097 19.3769 6.44433 19.4691 6.45745C19.382 6.35049 19.3027 6.297 19.2908 6.1425C19.2745 6.02115 19.2348 5.90411 19.174 5.79784C19.1365 5.69758 19.0669 5.61258 18.9759 5.55618C18.8214 5.48091 18.8333 5.65126 18.8808 5.64136L18.8491 5.5958Z" fill="#3F0303"/>
<path d="M20.0677 6.27125C20.028 6.17018 19.9643 6.08026 19.8822 6.00919C19.8001 5.93812 19.702 5.88803 19.5963 5.8632C19.4997 5.84445 19.4076 5.80748 19.3249 5.75426C19.2991 5.72257 19.2734 5.69285 19.2476 5.65918C19.2026 5.5937 19.1371 5.54495 19.0614 5.52052C19.0259 5.51194 18.9931 5.49429 18.9664 5.4693C18.9397 5.44431 18.9199 5.41282 18.9089 5.37791C18.8238 5.17983 18.8 5.30858 18.8218 5.41752C18.798 5.3581 18.7861 5.3165 18.7208 5.29867C18.6624 5.28285 18.6008 5.28285 18.5425 5.29867C18.5127 5.50375 18.5208 5.71253 18.5662 5.9147C18.6111 6.04389 18.6811 6.16291 18.7723 6.2649C18.8634 6.3669 18.9738 6.44984 19.0971 6.50894C19.2084 6.5595 19.303 6.64079 19.3696 6.74326C19.4363 6.84572 19.4723 6.96509 19.4735 7.08734C19.481 7.17034 19.4667 7.25388 19.4319 7.32964C19.3972 7.40539 19.3432 7.47073 19.2754 7.51915C19.3299 7.52668 19.3854 7.51721 19.4343 7.49204C19.4832 7.46687 19.5232 7.42723 19.5487 7.37852C19.5487 7.39832 19.5487 7.41813 19.5487 7.43794C19.5269 7.6796 19.521 8.10151 19.8538 8.11736C19.7527 8.09557 19.7032 7.93314 19.7112 7.83806C19.7191 7.74298 19.8102 7.63998 19.8498 7.52906C19.9356 7.31206 19.9701 7.07821 19.9508 6.84568C19.973 6.83134 19.9935 6.81474 20.0122 6.79616C20.0665 6.7211 20.1001 6.63317 20.1098 6.54109C20.1196 6.449 20.105 6.35598 20.0677 6.27125ZM18.9961 6.16627C18.9408 6.11316 18.904 6.04374 18.8911 5.96819C18.8977 5.90066 18.9123 5.83417 18.9347 5.77011C18.9411 5.67678 18.9159 5.58402 18.8634 5.50666C18.8692 5.50801 18.8753 5.50801 18.8812 5.50666C18.9169 5.57202 18.9604 5.62947 18.9901 5.70474C19.018 5.79472 19.0339 5.88794 19.0377 5.98205C19.0749 6.12901 19.1469 6.26487 19.2476 6.37821C19.1572 6.31575 19.073 6.24477 18.9961 6.16627ZM19.9488 6.79616C19.9479 6.79092 19.9479 6.78555 19.9488 6.78031C19.9082 6.53003 19.7984 6.29609 19.6319 6.10486C19.6814 6.10776 19.7298 6.12046 19.7744 6.14222C19.8189 6.16398 19.8587 6.19437 19.8914 6.23163C19.9536 6.31055 19.9921 6.40556 20.0022 6.50554C20.0124 6.60552 19.9939 6.70633 19.9488 6.79616Z" fill="#3F0303"/>
<path d="M18.4233 9.62669C18.5917 9.57518 18.76 9.55538 18.9324 9.51774C19.0731 9.48129 19.2108 9.43428 19.3444 9.37711C19.4163 9.33701 19.4928 9.30575 19.5722 9.28401C19.6613 9.49793 19.2037 9.78515 19.073 9.8525C18.8968 9.95296 18.7093 10.0321 18.5144 10.0882C18.3732 10.1132 18.2336 10.1469 18.0965 10.1892C18.2411 10.3517 18.7303 10.1892 18.9126 10.1476C19.0549 10.1119 19.1951 10.0682 19.3325 10.0169C19.3959 9.99313 19.5306 9.88815 19.594 9.89805C19.8237 9.92975 19.2473 10.4527 19.1879 10.4923C18.8314 10.7498 18.3956 10.7518 18.0093 10.9162C18.3155 10.9698 18.6303 10.9453 18.9245 10.8449C19.0928 10.7934 19.2552 10.73 19.4216 10.6706C19.5246 10.6194 19.6329 10.5795 19.7445 10.5517C19.8396 10.7617 19.7108 10.9716 19.5464 11.146C19.6851 11.1737 19.8218 11.2054 19.9584 11.245C20.0593 11.1774 20.1472 11.0922 20.2179 10.9934C20.3665 10.7716 20.2179 10.6191 20.0614 10.4745C19.9215 10.3581 19.8229 10.1997 19.7802 10.0228C19.7643 9.86636 19.8693 9.8109 19.7802 9.6564C19.7091 9.54971 19.6718 9.42408 19.6732 9.29589C19.6732 9.16318 19.7326 9.03641 19.7505 8.89973C19.7651 8.77888 19.7466 8.65632 19.697 8.54517C19.6084 8.71239 19.4823 8.85681 19.3285 8.96708C19.1438 9.12809 18.9395 9.26519 18.7204 9.37512C18.5754 9.45173 18.4252 9.51792 18.2708 9.5732C18.1555 9.59312 18.0431 9.62704 17.936 9.67423C18.0992 9.71297 18.2707 9.69624 18.4233 9.62669Z" fill="#040306"/>
<path d="M16.3752 9.71387C16.4049 9.62672 16.3494 9.55937 16.3752 9.47221C16.4208 9.3494 16.5733 9.3494 16.6644 9.34544C16.9516 9.33158 17.1497 9.62671 17.2586 9.89808C17.3478 10.108 17.4409 10.6013 17.0843 10.526C16.9789 10.4903 16.8688 10.4702 16.7575 10.4666C16.603 10.4666 16.6327 10.4309 16.6327 10.2843C16.6327 10.1378 16.498 9.70595 16.3732 9.73962L16.3752 9.71387Z" fill="#BA0024"/>
<path d="M14.3231 5.82953C14.2201 5.82953 14.0617 5.77803 13.9745 5.82953C13.8081 5.94442 13.9745 6.03949 14.026 6.13259C14.0775 6.22569 14.0518 6.34652 14.1033 6.44952C14.1438 6.55801 14.1963 6.66166 14.2598 6.75852C14.4063 6.91897 14.7431 6.81201 14.6559 6.5446C14.6381 6.48716 14.6005 6.48319 14.6005 6.42575C14.6005 6.36831 14.6638 6.36831 14.6302 6.297C14.5965 6.22569 14.5509 6.24946 14.539 6.19202C14.5272 6.13457 14.5727 6.11873 14.539 6.05732C14.4971 5.96079 14.4284 5.8783 14.341 5.81963L14.3231 5.82953Z" fill="#BA0024"/>
<path d="M14.529 5.67499C14.422 5.68687 14.2417 5.78195 14.2695 5.92259C14.3527 5.94636 14.4675 5.88297 14.4874 6.00578C14.5864 6.01965 14.5072 6.11076 14.5072 6.17415C14.5072 6.23753 14.5428 6.31875 14.5507 6.39996C14.5745 6.66341 14.733 6.73075 14.83 6.4574C14.8994 6.25932 14.9885 6.04342 14.8736 5.86316C14.8409 5.79704 14.7872 5.74364 14.7209 5.71138C14.6545 5.67911 14.5794 5.66979 14.5072 5.68489L14.529 5.67499Z" fill="#BA0024"/>
<path d="M18.0748 13.9766L17.9005 14.0756L13.4556 4.19536L13.6794 4.13989L18.0748 13.9766Z" fill="#BA0024"/>
<path d="M13.8379 2.9811C14.133 3.63675 14.3152 4.9619 13.9448 5.15998C13.5744 5.35806 12.794 4.35578 12.4988 3.70211C12.2037 3.04845 12.4057 2.20859 12.5959 2.09172C12.8613 1.93128 13.5427 2.32546 13.8379 2.9811Z" fill="#BA0024"/>
<path d="M19.0119 14.4638C18.7306 13.8022 17.9026 12.8158 17.5283 13.006C17.1539 13.1961 17.3777 14.4916 17.661 15.1532C17.9442 15.8147 18.6653 16.1693 18.8673 16.0802C19.1466 15.9653 19.2951 15.1274 19.0119 14.4638Z" fill="#BA0024"/>
<path d="M16.4564 9.62672C16.3386 9.70867 16.2108 9.77524 16.0761 9.8248C15.9668 9.89474 15.8634 9.97358 15.7671 10.0605C15.6898 10.1219 15.6007 10.1615 15.6225 10.2784C15.6443 10.3953 15.7433 10.3497 15.8047 10.421C15.8364 10.4587 15.8047 10.5181 15.8443 10.5577C15.8839 10.5973 15.9335 10.5577 15.9751 10.5894C16.0483 10.633 16.0701 10.7637 16.1593 10.7716C16.2484 10.7795 16.3257 10.6825 16.389 10.6449C16.4926 10.5884 16.5869 10.5162 16.6683 10.4309C16.7324 10.3602 16.7827 10.2783 16.8169 10.1893C16.8605 10.0704 16.8347 10.0506 16.7733 9.94365C16.7119 9.83669 16.6208 9.58512 16.4782 9.62276L16.4564 9.62672Z" fill="#BA0024"/>
<path d="M15.6029 13.4457C15.0621 13.4853 14.5075 13.2199 13.9707 13.1585C13.3091 13.0852 12.7188 13.204 12.0691 13.311C11.4551 13.414 10.849 13.3585 10.2329 13.3605C9.51786 13.3605 8.86816 13.622 8.16299 13.7329C7.27163 13.8715 6.40008 13.7586 5.51268 13.8121C5.22348 13.83 4.94617 13.9488 4.65697 13.9646C4.40408 13.9629 4.15172 13.941 3.90228 13.8993C3.71624 13.8952 3.53029 13.9111 3.34766 13.9468C3.106 13.9745 2.86038 13.9666 2.62071 14.0023C2.26416 14.0538 1.92148 14.1766 1.56494 14.2004C1.2698 14.2182 0.984565 14.0934 0.691406 14.1191C1.24999 14.1548 1.8165 14.2558 2.37905 14.2974C2.7871 14.3271 3.18722 14.4301 3.59724 14.444C4.05085 14.4618 4.50841 14.444 4.96201 14.444C5.37114 14.4687 5.77812 14.521 6.18021 14.6005C6.68674 14.654 7.19626 14.6738 7.70543 14.6599C8.41455 14.6599 9.12566 14.5173 9.83479 14.551C10.6641 14.6206 11.4965 14.6477 12.3286 14.6322C13.0358 14.5926 13.729 14.5094 14.4382 14.5094C15.0137 14.5183 15.5882 14.4584 16.1496 14.3311C16.3219 14.2875 16.8409 14.1984 16.8587 13.9032C16.8805 13.5388 15.8227 13.5209 15.5851 13.4714L15.6029 13.4457Z" fill="#A0E8F9"/>
<path d="M23.5496 13.5071C23.0089 13.5447 22.4562 13.2793 21.9194 13.2199C21.2578 13.1446 20.6676 13.2654 20.0179 13.3724C19.4018 13.4734 18.7977 13.4179 18.1817 13.4199C17.4646 13.4199 16.8149 13.6814 16.1097 13.7923C15.2204 13.9329 14.3488 13.82 13.4594 13.8735C13.1702 13.8913 12.8929 14.0082 12.6057 14.0241C12.3521 14.0233 12.099 14.0014 11.849 13.9587C11.6629 13.9543 11.4768 13.971 11.2944 14.0082C11.0547 14.034 10.8091 14.028 10.5675 14.0637C10.2129 14.1132 9.87021 14.236 9.51169 14.2618C9.21655 14.2796 8.9333 14.1548 8.64014 14.1805C9.19872 14.2162 9.76523 14.3152 10.3278 14.3568C10.7358 14.3865 11.1359 14.4896 11.546 14.5054C11.9996 14.5212 12.4552 14.5054 12.9107 14.5054C13.3192 14.53 13.7256 14.5822 14.127 14.6619C14.6334 14.7163 15.143 14.7361 15.6522 14.7213C16.3633 14.7213 17.0744 14.5807 17.7835 14.6124C18.6128 14.6827 19.4452 14.7104 20.2773 14.6956C20.9845 14.6559 21.6778 14.5708 22.3869 14.5708C22.9625 14.5816 23.5373 14.5218 24.0983 14.3925C24.2706 14.3489 24.7896 14.2598 24.8055 13.9666C24.8272 13.6022 23.7715 13.5843 23.5318 13.5328L23.5496 13.5071Z" fill="#A0E8F9"/>
<path d="M3.91989 5.36799C4.04865 5.35611 4.16353 5.46109 4.27049 5.52448C4.41311 5.60965 4.55573 5.68096 4.6924 5.77604C4.78092 5.85544 4.87564 5.92764 4.97566 5.99195C5.06678 6.03552 5.14601 6.00581 5.24109 6.01175C5.24109 6.09891 5.26287 6.11278 5.32626 6.12466C5.35597 6.12466 5.39757 6.08504 5.42926 6.08306C5.46096 6.08108 5.49265 6.11476 5.52236 6.11278C5.66677 6.1012 5.81032 6.08069 5.95219 6.05137C6.18395 6.01373 6.41966 5.96223 6.64547 5.90479C6.76036 5.87508 7.06739 5.73642 7.16246 5.81962C7.25754 5.90281 7.24764 6.20191 7.24566 6.32076C7.23523 6.50881 7.20265 6.69497 7.1486 6.87538C7.07531 7.16854 6.98023 7.46962 6.68509 7.52707C6.34043 7.60234 5.86108 7.4003 5.53622 7.26362C5.11392 7.05598 4.70448 6.82315 4.31011 6.56638C4.15759 6.47724 4.00507 6.38811 3.85056 6.30491C3.77727 6.2653 3.54354 6.20785 3.50987 6.12466C3.47619 6.04147 3.62277 5.80773 3.66239 5.7285C3.70661 5.60884 3.76656 5.49561 3.84066 5.39176L3.91989 5.36799Z" fill="#045A75"/>
<path d="M2.77109 5.84934C2.77109 5.83349 2.76118 5.82359 2.78495 5.81765C2.88399 5.97017 2.94144 6.19994 3.09198 6.31879C3.24252 6.43764 3.31779 6.3485 3.43862 6.27323C3.59023 6.17912 3.7153 6.04784 3.80196 5.89185C3.88862 5.73586 3.93401 5.56032 3.93382 5.38187C3.93623 5.25518 3.90695 5.1299 3.84865 5.0174C3.77536 4.85102 3.76149 4.87083 3.59906 4.853C3.4822 4.84111 3.35741 4.81338 3.23856 4.8114C3.07811 4.8114 3.07811 4.87875 3.05038 5.04315C3.01671 5.24123 2.9454 5.6889 2.77307 5.80973C2.77307 5.82953 2.78496 5.80973 2.79882 5.80973L2.77109 5.84934Z" fill="#FFBE00"/>
<path d="M8.3511 10.942C8.58682 10.9043 8.82451 10.8746 9.06023 10.8588C9.06023 10.7756 9.01665 10.6983 9.04636 10.6191C9.07607 10.5398 9.24444 10.5022 9.32565 10.421L9.34744 10.4586C9.37319 10.4883 9.34744 10.3596 9.33358 10.3121C9.3022 10.2331 9.26305 10.1575 9.21671 10.0862C9.10975 9.88817 9.06221 9.88817 8.87007 9.98919C8.6509 10.1018 8.45367 10.2527 8.28771 10.4349C8.22037 10.5101 8.08963 10.6547 8.10944 10.7736C8.12925 10.8924 8.25602 10.9122 8.3511 10.942Z" fill="#F7DEB0"/>
<path d="M6.25356 3.97155C6.27337 3.98937 6.30704 3.9973 6.31893 4.01909C6.33081 4.04087 6.31893 4.08247 6.31893 4.12011C6.31893 4.19141 6.3625 4.21716 6.37637 4.26867C6.39024 4.32017 6.37637 4.32215 6.3942 4.35582C6.41202 4.38949 6.4556 4.36969 6.47541 4.40534C6.49522 4.441 6.41599 4.51429 6.44174 4.58559C6.46749 4.6569 6.56851 4.66087 6.62199 4.66879C6.77039 4.65967 6.91931 4.67302 7.06371 4.7084C7.11872 4.7513 7.16142 4.80796 7.18751 4.87265C7.21359 4.93735 7.22213 5.00778 7.21227 5.07683C7.21014 5.11056 7.20139 5.14354 7.18652 5.17389C7.39255 5.2705 7.61133 5.3372 7.83622 5.37197L8.0343 5.28878C8.16902 5.23817 8.31753 5.23817 8.45225 5.28878C8.42056 5.22935 8.3849 5.16993 8.35123 5.10655C8.17152 4.83947 8.06747 4.52871 8.05015 4.20726C8.08023 4.04696 8.13573 3.89249 8.21455 3.7497C8.27751 3.58901 8.30651 3.41703 8.29973 3.24459C8.27182 2.94266 8.13527 2.66112 7.91545 2.45227C7.82073 2.37765 7.71186 2.32303 7.59542 2.29171C7.47898 2.26039 7.35739 2.25301 7.23802 2.27004C7.03465 2.26401 6.83476 2.3238 6.66809 2.4405C6.50142 2.5572 6.37688 2.72459 6.31299 2.91776C6.2774 3.07995 6.28491 3.24863 6.33478 3.40702C6.36048 3.47873 6.36048 3.55715 6.33478 3.62887C6.30704 3.6982 6.23375 3.74375 6.20008 3.8111C6.16641 3.87845 6.19414 3.91806 6.25356 3.97155ZM7.22812 2.29381C7.22812 2.30767 7.21227 2.30965 7.20633 2.31758L7.22812 2.29381Z" fill="#F7DEB0"/>
<path d="M7.27151 4.38352C7.44384 4.31023 7.51713 4.12799 7.60231 3.97151C7.66416 3.95978 7.71984 3.92645 7.75938 3.87747C7.79893 3.82849 7.81979 3.76704 7.81821 3.7041C7.80237 3.55752 7.60231 3.57931 7.54288 3.68628C7.5924 3.58327 7.7786 3.4882 7.84991 3.6011C7.92122 3.71401 7.82614 3.87049 7.74294 3.94378C7.69615 3.97852 7.6576 4.02316 7.63004 4.07451C7.59658 4.12806 7.55666 4.17729 7.51119 4.22109C7.44509 4.30301 7.36283 4.37044 7.26953 4.41917L7.27151 4.38352Z" fill="#9E8256"/>
<path d="M8.69955 9.36523C8.69846 9.38569 8.69846 9.40619 8.69955 9.42664L8.71144 9.41475L8.69955 9.36523Z" fill="#205F8A"/>
<path d="M9.90983 10.8845C9.86771 10.74 9.78769 10.6094 9.67808 10.5062C9.50971 10.3497 9.48 10.3874 9.38888 10.1794C9.32748 10.0288 9.21655 9.9397 9.20467 9.78322C9.20467 9.69804 9.25815 9.60297 9.24428 9.50591C9.21495 9.40682 9.17649 9.31067 9.1294 9.21869C9.09172 9.11185 9.06387 9.00178 9.0462 8.88988C9.06007 8.74528 9.08978 8.6086 9.11949 8.44816C9.13553 8.22575 9.11478 8.00223 9.05809 7.78657C9.00659 7.37655 9.05809 7.00614 8.97093 6.64167C8.9577 6.35778 8.92059 6.07551 8.86001 5.79785C8.82832 5.65227 8.77701 5.51167 8.70749 5.3799C8.69448 5.29783 8.67049 5.21788 8.63618 5.1422C8.55185 5.01588 8.47703 4.88346 8.41235 4.74604C8.36481 4.59154 8.41235 4.42317 8.27369 4.30432C8.17118 4.36851 8.06466 4.42608 7.95478 4.47665C7.82009 4.52617 7.69134 4.47665 7.55862 4.51429C7.28974 4.5776 7.03333 4.68538 6.79997 4.8332C6.87249 4.92015 6.92484 5.02209 6.95326 5.13169C6.98169 5.24128 6.98549 5.35581 6.96438 5.46705C6.88594 5.66092 6.78417 5.8445 6.66132 6.01375C6.51276 6.21183 6.25525 6.39803 6.17206 6.63573C6.13196 6.75717 6.11124 6.88418 6.11066 7.01208L6.08887 7.02594C6.08887 7.05962 6.08887 7.05763 6.11066 7.05367C6.02944 7.64791 6.33052 8.27979 6.27308 8.88988C6.2612 9.01665 6.20375 9.10777 6.24337 9.23454C6.28299 9.36131 6.48503 9.4445 6.49493 9.6307C6.49493 9.75351 6.36222 9.85849 6.37806 9.99714C6.39391 10.1358 6.57614 10.1952 6.57614 10.3319C6.57614 10.5022 6.3642 10.6587 6.31072 10.8291C6.28902 10.8934 6.27376 10.9598 6.26516 11.0272H6.29091C6.76036 11.0272 7.23773 11.0272 7.7151 11.0489C8.44602 10.9222 9.18684 10.7796 9.90983 10.8845Z" fill="#006A96"/>
<path d="M2.42435 4.63706C2.29956 4.63706 2.10346 4.57367 1.9965 4.63706C1.79842 4.7777 1.9965 4.89654 2.05989 5.00945C2.12327 5.12236 2.0896 5.2729 2.15694 5.40561C2.20757 5.5392 2.27408 5.66622 2.35502 5.78394C2.53528 5.98202 2.94927 5.85129 2.84627 5.5205C2.82448 5.45117 2.77892 5.44523 2.77892 5.3759C2.77892 5.30657 2.85617 5.30459 2.81655 5.21545C2.77694 5.12632 2.71751 5.15999 2.70166 5.0867C2.69176 5.04312 2.74326 4.99756 2.71355 4.92229C2.65893 4.80217 2.57003 4.70087 2.45803 4.63112L2.42435 4.63706Z" fill="#FFBE00"/>
<path d="M2.67781 4.44693C2.54708 4.4608 2.32523 4.57767 2.3589 4.75198C2.46191 4.77773 2.59858 4.70048 2.62631 4.853C2.74714 4.87082 2.65008 4.98175 2.65206 5.05108C2.65404 5.12041 2.69564 5.22737 2.70554 5.32839C2.73327 5.65126 2.92937 5.72455 3.04822 5.39772C3.1334 5.16002 3.2463 4.88865 3.1017 4.65492C3.01059 4.50636 2.81647 4.36968 2.65206 4.43703L2.67781 4.44693Z" fill="#FFBE00"/>
<path d="M7.03386 14.6441L6.82191 14.7669L1.36084 2.62853L1.63617 2.5592L7.03386 14.6441Z" fill="#BA0024"/>
<path d="M1.82825 1.13699C2.19073 1.9412 2.42249 3.56743 1.96096 3.81305C1.49943 4.05867 0.546668 2.82265 0.178239 2.02043C-0.19019 1.2182 0.063351 0.186205 0.297086 0.0396254C0.625899 -0.152512 1.46576 0.330803 1.82825 1.13699Z" fill="#BA0024"/>
<path d="M8.18662 15.2462C7.83998 14.4321 6.82185 13.2199 6.36428 13.4536C5.90672 13.6873 6.17809 15.2779 6.52473 16.092C6.87137 16.9061 7.75877 17.3399 8.00835 17.229C8.35103 17.0765 8.53326 16.0583 8.18662 15.2462Z" fill="#BA0024"/>
<path d="M6.59789 2.35915C6.48894 2.44036 6.29483 2.75531 6.38594 2.91576C6.43744 3.00489 6.50479 2.93953 6.57412 2.97122C6.60185 2.98311 6.62364 3.04253 6.65731 3.06036C6.69099 3.07818 6.78409 3.06036 6.84153 3.07224C6.98576 3.15468 7.09913 3.28196 7.1644 3.43473C7.22976 3.61696 7.11686 3.74373 7.13271 3.91408C7.21392 3.89626 7.24957 3.97747 7.33079 3.95172C7.412 3.92597 7.42982 3.82495 7.46152 3.77344C7.5249 3.67044 7.68337 3.48227 7.80618 3.59121C7.98643 3.74769 7.71902 3.89626 7.71308 4.01906C7.71308 4.18545 7.99634 4.40136 8.10924 4.4588C8.12509 4.10622 8.30732 3.83485 8.35486 3.48425C8.38755 3.303 8.38169 3.11689 8.33766 2.93806C8.29363 2.75922 8.21243 2.59167 8.09934 2.44631C7.87154 2.18484 7.5051 2.17296 7.20203 2.17692C7.0297 2.17692 6.67712 2.22842 6.5662 2.39679L6.59789 2.35915Z" fill="#040306"/>
<path d="M7.1624 3.88238C7.1624 3.88238 7.1624 3.86059 7.14259 3.8705C7.10495 3.94181 7.12872 4.03887 7.08118 4.10027C7.06138 4.12404 7.01384 4.11414 6.99997 4.12998C6.98611 4.14583 6.97026 4.19139 6.95045 4.23298C6.92614 4.30076 6.8827 4.36003 6.8254 4.40362C6.7681 4.44721 6.69938 4.47326 6.62758 4.4786C6.49091 4.50436 6.44931 4.58953 6.3265 4.63509C6.21007 4.66436 6.10474 4.72701 6.02344 4.81534C6.06107 4.85496 6.12248 4.84307 6.17398 4.84307C6.07098 5.02332 6.37206 4.98569 6.44139 4.90448C6.50477 4.99361 6.57212 4.97579 6.65333 4.9223C6.6771 4.90646 6.68899 4.86486 6.7187 4.851C6.74841 4.83713 6.7801 4.86882 6.81378 4.851C6.84745 4.83317 6.8633 4.78167 6.89499 4.76384C6.92668 4.74601 6.95837 4.76384 6.98809 4.75195C7.05015 4.7069 7.10155 4.64874 7.13863 4.58161C7.18815 4.6232 7.36246 4.58161 7.39811 4.53209C7.43377 4.48257 7.4199 4.39937 7.42981 4.35778C7.45114 4.29406 7.45923 4.22665 7.45358 4.1597C7.45579 4.04694 7.44314 3.93439 7.41594 3.82494C7.36444 3.75165 7.16636 3.75561 7.15051 3.86059L7.1624 3.88238Z" fill="#040306"/>
<path d="M6.96448 4.81338C7.01202 4.68265 7.19623 4.5539 7.27348 4.41722C7.35112 4.27753 7.41736 4.1318 7.47156 3.98145C7.59142 3.65879 7.68741 3.32777 7.75878 2.99105C7.78453 2.86031 7.81424 2.73156 7.83207 2.59489C7.84281 2.52941 7.84811 2.46316 7.84792 2.39681C7.83947 2.34522 7.82756 2.29427 7.81226 2.24429C7.79245 2.10365 7.80037 1.95905 7.97072 2.04621C8.03411 2.07592 8.04599 2.16307 8.09947 2.19477C8.15296 2.22646 8.22823 2.19476 8.29755 2.21655C8.52535 2.27598 8.45998 2.50575 8.58081 2.66223C8.70164 2.81872 8.9433 2.79891 9.0879 2.87616C9.38105 3.03264 9.07403 3.56746 9.00668 3.81902C8.77691 4.67473 8.07967 4.98769 7.33489 4.94808C7.18429 4.95606 7.0363 4.9065 6.9209 4.80942L6.96448 4.81338Z" fill="#006A96"/>
<path d="M6.69124 1.96102C6.63578 1.83425 6.85763 1.62825 6.96657 1.58269C6.95271 1.61636 6.94875 1.67777 6.92894 1.71738C7.09929 1.66786 7.22408 1.39847 7.43206 1.42819C7.43697 1.50602 7.41609 1.58329 7.37264 1.64805C7.47564 1.59259 7.75295 1.41828 7.8718 1.51138C7.99065 1.60448 7.80247 1.64013 7.74899 1.70946C7.86388 1.74313 8.10553 1.79265 8.11148 1.96102C8.0778 1.95112 8.02828 1.97489 7.99263 1.96102C7.99263 2.14524 8.23231 2.27597 8.20656 2.47603C8.15171 2.46715 8.09995 2.44468 8.05601 2.41066C8.08374 2.56715 8.26598 2.63251 8.34521 2.75136C8.14713 2.77315 8.41454 3.04254 8.43831 3.16733C8.36502 3.16733 8.31748 3.10989 8.26796 3.05442C8.25211 3.19902 8.35512 3.32777 8.34521 3.47831C8.29371 3.47831 8.25013 3.41889 8.21052 3.37729C8.21052 3.51595 8.26598 3.65064 8.25211 3.79128C8.22465 3.78695 8.19895 3.77501 8.17794 3.7568C8.15693 3.73859 8.14145 3.71485 8.13326 3.68828C8.13326 3.77147 8.20061 4.07057 8.05601 4.00125C8.04017 4.10227 8.00847 4.24489 7.9134 4.2746C7.88684 4.22616 7.86749 4.17411 7.85595 4.12009C7.80841 4.28252 7.55289 4.7797 7.35679 4.71433C7.24388 4.81734 6.83782 5.30858 6.71897 5.18378C6.50306 4.94609 6.97054 4.65887 7.05769 4.51824C7.09136 4.46872 7.09929 4.42514 7.1389 4.36968C7.17852 4.31421 7.22408 4.32214 7.24389 4.26271C7.26369 4.20329 7.20823 4.12802 7.24389 4.06463C7.27954 4.00125 7.35085 4.03096 7.37858 3.9755C7.40631 3.92003 7.37858 3.81505 7.37858 3.75365C7.37858 3.69224 7.42612 3.59716 7.43998 3.51199C7.46375 3.36937 7.45979 3.23864 7.4895 3.098C7.36669 3.14158 7.42612 2.70184 7.43602 2.6127C7.19437 2.73551 7.23794 2.53743 7.23794 2.31756C7.14881 2.38095 7.03986 2.39482 7.06759 2.23239C6.96657 2.22051 6.90715 2.33341 6.81009 2.33143C6.81009 2.30568 6.81009 2.27201 6.81009 2.24824C6.73822 2.34322 6.66153 2.43446 6.58032 2.52159C6.53674 2.40472 6.48326 2.3552 6.51495 2.21258C6.53674 2.12147 6.5922 1.96102 6.68926 1.97092L6.69124 1.96102Z" fill="#A3B2AF"/>
<path d="M7.3707 5.75424V5.72453C7.17262 5.92261 7.19044 6.37622 7.11715 6.65155C7.04386 6.92688 6.94681 7.1309 6.86955 7.37454C6.77051 7.69147 6.60611 8.0084 6.47339 8.32731C6.46355 8.34471 6.45228 8.36127 6.43972 8.37683C6.42585 8.25798 6.32879 8.29165 6.27729 8.36494C6.22579 8.43823 6.29314 8.52142 6.16439 8.50954C6.10298 8.50954 6.06337 8.43031 5.98017 8.43625C5.92003 8.44948 5.86156 8.46941 5.80586 8.49567L5.69494 8.52737C5.67565 8.54175 5.6551 8.55435 5.63353 8.565C5.20447 8.7628 4.74233 8.879 4.27074 8.90768C4.21838 8.91254 4.16559 8.9092 4.11426 8.89778C4.11426 9.07209 4.11426 9.27215 4.11426 9.37317C4.11426 9.51381 4.14397 9.67029 4.16774 9.82281C4.25254 9.7976 4.34198 9.79218 4.4292 9.80696C4.64816 9.85635 4.87072 9.88815 5.09475 9.90204C5.25408 9.90176 5.41292 9.91971 5.56817 9.95552H5.63155C6.06219 9.91416 6.4901 9.84802 6.91313 9.75744C7.24987 9.68614 7.56481 9.72179 7.81439 9.42269C7.96929 9.22419 8.06721 8.98726 8.09765 8.73733C8.19056 8.54925 8.25721 8.3493 8.29573 8.14309C8.41408 7.55187 8.44213 6.94613 8.37892 6.3465C8.30365 5.8414 7.82034 5.27885 7.3707 5.75424Z" fill="#048BB5"/>
<path d="M4.16168 8.85816C4.22308 8.76705 4.17752 8.66009 4.24091 8.57491C4.33004 8.44616 4.50039 8.50162 4.61924 8.53331C4.9639 8.62443 5.10652 9.0503 5.16 9.41279C5.2016 9.69406 5.16 10.3101 4.76384 10.0882C4.64971 10.0061 4.52514 9.93946 4.39343 9.89016C4.2112 9.83866 4.25675 9.80301 4.30231 9.6287C4.34787 9.45439 4.31816 8.8958 4.15771 8.8859L4.16168 8.85816Z" fill="#FFBE00"/>
<path d="M4.2864 8.77496C4.12152 8.83301 3.94968 8.86898 3.77536 8.88193C3.6263 8.92445 3.48063 8.97808 3.33958 9.04237C3.22866 9.08793 3.11179 9.09982 3.10387 9.24045C3.09594 9.38109 3.22469 9.37119 3.27421 9.47815C3.29997 9.53361 3.24846 9.59303 3.27421 9.65444C3.29997 9.71584 3.37722 9.69802 3.41882 9.7416C3.4921 9.81885 3.47824 9.98127 3.58124 10.0268C3.68424 10.0724 3.80507 9.98325 3.89024 9.96344C4.02996 9.93637 4.16397 9.88545 4.2864 9.8129C4.38463 9.75603 4.46916 9.67827 4.534 9.58511C4.62116 9.4623 4.59739 9.42665 4.55778 9.27809C4.51816 9.12953 4.48647 8.79873 4.30621 8.78883L4.2864 8.77496Z" fill="#FFBE00"/>
<path fill-rule="evenodd" clip-rule="evenodd" d="M7.98075 13.6874C7.80247 13.7151 7.60043 13.5725 7.42612 13.5329C7.20589 13.4872 6.97673 13.5158 6.77444 13.6141C6.2931 13.7805 5.82762 13.416 5.35619 13.5844C5.18187 13.6517 5.05708 13.7587 4.8491 13.7052C4.70777 13.6512 4.56099 13.6126 4.41134 13.5903C4.06272 13.5725 3.88445 13.8498 3.53583 13.6893C2.9297 13.41 2.31565 14.2242 1.70557 13.8181C2.08017 14.0026 2.48881 14.1078 2.90593 14.1271C3.3802 14.1794 3.85965 14.1601 4.32815 14.0696C4.56137 14.0053 4.80457 13.9852 5.0452 14.0102C5.31855 14.0498 5.51267 14.1746 5.7979 14.1231C6.11483 14.0657 6.34659 13.9983 6.65559 14.1073C6.92102 14.2024 7.08741 14.0855 7.35283 14.0498C7.48295 14.053 7.61254 14.0322 7.73513 13.9884C7.80842 13.9528 8.06592 13.8161 7.9649 13.7448L7.98075 13.6874Z" fill="#1EC6D8"/>
<path fill-rule="evenodd" clip-rule="evenodd" d="M17.0031 13.6438C16.8299 13.5877 16.6616 13.5175 16.4999 13.4338C16.3019 13.3546 16.1038 13.2694 15.9057 13.1842C15.5824 13.0357 15.2294 12.9632 14.8737 12.9723C14.6083 12.9842 14.327 13.1703 14.0596 13.1089C13.8358 13.0555 13.6634 12.9307 13.4158 12.9109C13.0868 12.8679 12.7523 12.8997 12.4373 13.004C12.1956 13.107 11.9817 13.2298 11.7143 13.1565C11.5038 13.0697 11.2759 13.0331 11.0488 13.0495C10.823 13.0891 10.6209 13.2199 10.3852 13.2001C10.0425 13.1703 9.74936 13.0238 9.41064 13.1743C9.12145 13.3031 8.82828 13.3962 8.53513 13.5011C8.08849 13.6332 7.63399 13.7371 7.17432 13.8121C7.44767 13.723 7.79827 13.8319 8.07558 13.8656C8.55939 13.9275 9.05087 13.8828 9.51563 13.7349C9.9192 13.6045 10.338 13.5273 10.7615 13.5051C11.235 13.4853 11.643 13.7032 12.1045 13.717C12.5324 13.717 12.9602 13.5447 13.3861 13.4853C13.8536 13.4219 14.2062 13.5625 14.6459 13.6834C14.9945 13.7785 15.3511 13.6656 15.6977 13.7349C15.8958 13.7765 16.0939 13.933 16.3038 13.9468C16.4484 13.9646 17.1358 13.9468 17.005 13.6596L17.0031 13.6438Z" fill="#1EC6D8"/>
<path fill-rule="evenodd" clip-rule="evenodd" d="M9.37492 14.2103C9.02233 14.2459 8.72918 14.0835 8.38452 14.244C8.03986 14.4044 7.7467 14.3588 7.37431 14.2816C7.14422 14.2132 6.89923 14.2132 6.66914 14.2816C6.46518 14.3929 6.25486 14.4921 6.03925 14.5787C5.56642 14.6936 5.07808 14.7311 4.59326 14.6896C5.0746 14.6718 5.53414 14.9174 6.00953 14.9768C6.72856 15.066 7.31488 14.7669 8.00024 14.6144C8.28253 14.5299 8.5789 14.503 8.87179 14.5351C9.0462 14.6009 9.21681 14.6762 9.38284 14.7609C9.83049 14.8735 10.3024 14.8402 10.7298 14.6659C10.9379 14.5766 11.1626 14.5325 11.389 14.5366C11.6154 14.5407 11.8383 14.5929 12.0431 14.6896C12.4281 14.9341 12.8553 15.1047 13.3028 15.1928C13.9271 15.2808 14.5618 15.2593 15.1787 15.1294C15.7601 14.9787 16.3636 14.9318 16.9614 14.9907C17.2288 15.0303 17.4764 15.1393 17.7537 15.1729C18.148 15.2225 18.5465 15.2292 18.9422 15.1928C19.2234 15.1508 19.4991 15.0777 19.7642 14.9749C19.9623 14.9075 20.1346 14.7768 20.3367 14.7035C20.7785 14.572 21.2276 14.4662 21.6816 14.3866C21.9292 14.3252 22.3868 14.2756 22.3313 13.8874C22.1636 13.8195 21.9776 13.8112 21.8044 13.8636C21.3687 13.9567 20.9567 14.0815 20.513 14.133C19.6493 14.2321 18.7085 14.2994 17.8547 14.0994C17.3244 13.9517 16.7786 13.8666 16.2285 13.8458C15.6713 13.8738 15.1181 13.9554 14.5765 14.0895C13.697 14.2598 12.7561 14.4262 11.8668 14.234C11.3189 14.0917 10.7518 14.0382 10.187 14.0756C9.9335 14.1033 9.46405 14.0756 9.26003 14.2281L9.37492 14.2103Z" fill="#1EC6D8"/>
<path d="M14.9035 8.99483C14.9062 9.05041 14.8869 9.10483 14.8499 9.14633C14.8128 9.18784 14.7609 9.21311 14.7054 9.21668H11.7184C11.6628 9.21311 11.6109 9.18784 11.5739 9.14633C11.5368 9.10483 11.5176 9.05041 11.5203 8.99483C11.5176 8.93946 11.5369 8.88526 11.574 8.84407C11.6111 8.80288 11.663 8.77804 11.7184 8.77496H14.7113C14.7665 8.77854 14.8181 8.80353 14.8551 8.8446C14.8921 8.88568 14.9116 8.93959 14.9094 8.99483H14.9035Z" fill="#040306"/>
<path d="M13.0474 12.6851C13.1227 12.5424 12.9622 12.5286 12.8751 12.5682C12.9365 12.3582 12.8434 12.2909 12.6968 12.2632C12.5502 12.2354 12.3125 12.2216 12.3442 12.4909C12.3152 12.4888 12.2861 12.4926 12.2587 12.5021C12.2313 12.5117 12.2061 12.5268 12.1847 12.5465C12.1634 12.5661 12.1463 12.59 12.1345 12.6166C12.1228 12.6432 12.1166 12.6719 12.1164 12.7009C11.9797 12.7425 11.8391 12.5424 11.7381 12.7366C11.6608 12.6474 11.6331 12.4929 11.5083 12.4929C11.3835 12.4929 11.2904 12.691 11.2766 12.7782C11.2667 12.7881 11.2429 12.7782 11.231 12.7782C11.2053 12.893 11.1082 12.8415 11.021 12.8633C10.9418 12.6969 10.4149 13.0614 10.3892 13.1941C10.5872 13.2674 10.7516 13.1109 10.9438 13.1426C11.0073 13.1691 11.0738 13.1877 11.1419 13.1981C11.2134 13.2081 11.2864 13.1971 11.3518 13.1664C11.3507 13.1915 11.3563 13.2165 11.3681 13.2387C11.3798 13.261 11.3974 13.2796 11.4188 13.2928C11.4402 13.3059 11.4648 13.3131 11.49 13.3135C11.5151 13.3139 11.5399 13.3076 11.5618 13.2952C11.6371 13.4199 11.9164 13.5388 11.9976 13.3863C12.1125 13.4932 12.2293 13.3348 12.3145 13.307C12.3997 13.2793 12.4076 13.3367 12.4848 13.2932C12.5375 13.2516 12.5818 13.2006 12.6156 13.1426C12.7305 13.2337 12.8137 13.1426 12.887 13.0476C12.8952 13.0674 12.9083 13.0848 12.9251 13.0982C12.9419 13.1116 12.9619 13.1205 12.9831 13.1241C13.0042 13.1276 13.026 13.1258 13.0463 13.1186C13.0665 13.1115 13.0846 13.0993 13.0989 13.0832C13.1484 13.2813 13.5089 13.206 13.604 13.103C13.6456 13.1605 14.0497 13.1565 14.0655 13.0832C14.0952 12.9485 13.6397 12.8851 13.5763 12.8851C13.5584 12.796 13.4733 12.792 13.4039 12.8277C13.301 12.7474 13.1787 12.6955 13.0494 12.6771L13.0474 12.6851Z" fill="white"/>
<path d="M19.8556 13.1268C19.9646 13.0258 19.8041 12.897 19.717 12.9882C19.9151 12.903 19.6714 12.7009 19.5625 12.6712C19.3783 12.6177 19.1663 12.6593 19.1881 12.9129C19.0435 12.9267 18.8236 13.006 18.8692 13.208C18.7662 13.2635 18.7523 13.3467 18.6711 13.3804C18.5899 13.414 18.473 13.3348 18.4235 13.4873C18.2611 13.5705 18.1343 13.4873 17.9719 13.4873C17.8095 13.4873 17.6332 13.5685 17.4628 13.5864C17.1558 13.62 16.7636 13.6676 16.4903 13.5091C16.619 13.6379 16.8111 13.622 16.9498 13.7369C16.7696 13.7293 16.5895 13.7555 16.4189 13.8141C16.6348 13.8151 16.8505 13.8289 17.0647 13.8557C17.3152 13.8564 17.565 13.8291 17.8095 13.7745C18.2033 13.722 18.6009 13.7028 18.9979 13.7171C19.3763 13.7329 19.6932 13.5349 20.0656 13.6636C20.2756 13.7369 20.4103 13.6101 20.6083 13.6398C20.7391 13.6596 20.9609 13.8577 21.1154 13.7547C21.1319 13.7527 21.1485 13.7527 21.1649 13.7547C21.1736 13.7189 21.172 13.6814 21.1604 13.6464C21.1489 13.6114 21.1278 13.5803 21.0996 13.5566C21.1867 13.4497 21.0441 13.422 20.9589 13.4338C20.9749 13.4105 20.9841 13.3833 20.9856 13.3552C20.9872 13.327 20.981 13.2989 20.9677 13.274C20.9545 13.2491 20.9346 13.2283 20.9104 13.2139C20.8861 13.1995 20.8584 13.192 20.8302 13.1922C20.8044 13.0614 20.5152 13.0476 20.4776 13.1704C20.3449 13.0813 20.3885 12.9723 20.1963 12.9723C20.1347 12.9693 20.0732 12.9799 20.0161 13.0031C19.9589 13.0264 19.9076 13.0618 19.8655 13.107L19.8556 13.1268Z" fill="white"/>
</g>
<defs>
<clipPath id="clip0_1232_6589">
<rect width="26" height="17.2468" fill="white"/>
</clipPath>
</defs>
</svg>
