<svg width="21" height="20" viewBox="0 0 21 20" fill="none" xmlns="http://www.w3.org/2000/svg">
<path fill-rule="evenodd" clip-rule="evenodd" d="M11.161 1.84353L13.4964 6.19906C13.6123 6.41887 13.8373 6.57133 14.0987 6.60767L19.325 7.30877C19.5366 7.33448 19.7281 7.43818 19.8573 7.59595C20.1006 7.88933 20.0642 8.30769 19.7721 8.56119L15.986 11.9648C15.7945 12.1305 15.7083 12.3769 15.7581 12.6145L16.6707 17.4123C16.7339 17.8111 16.4418 18.1816 16.0138 18.2472C15.8357 18.2729 15.6538 18.2463 15.4939 18.1719L10.8326 15.9108C10.5989 15.7929 10.3174 15.7929 10.0847 15.9108L5.39283 18.1878C5.0012 18.3704 4.52627 18.2331 4.31369 17.8803C4.2323 17.7376 4.20262 17.5727 4.23135 17.4123L5.14387 12.6145C5.18792 12.3769 5.1027 12.1332 4.91598 11.9648L1.10021 8.5603C0.789011 8.27312 0.788053 7.8069 1.09829 7.51795C1.09925 7.51795 1.09925 7.51706 1.10021 7.51618C1.22756 7.40893 1.38555 7.33625 1.556 7.30877L6.78222 6.60767C7.04171 6.56867 7.26673 6.41622 7.3845 6.19906L9.71993 1.84353C9.81281 1.66626 9.97942 1.53065 10.1815 1.4686C10.3835 1.40567 10.6047 1.41985 10.7962 1.50937C10.9532 1.58205 11.0806 1.69905 11.161 1.84353Z" stroke="#FFB803" stroke-width="1.5" stroke-linecap="round" stroke-linejoin="round"/>
</svg>
