<svg width="358" height="132" viewBox="0 0 358 132" fill="none" xmlns="http://www.w3.org/2000/svg">
<g opacity="0.2" clip-path="url(#clip0_1129_135954)">
<path d="M10.9772 120.578C11.053 120.298 11.1172 120 11.1463 119.699C11.1784 119.401 11.1872 119.115 11.1872 118.841C11.1842 118.29 11.1405 117.788 11.1143 117.328C11.1026 117.125 11.1055 116.924 11.1259 116.729C11.1463 116.541 11.193 116.322 11.2484 116.104C11.3621 115.665 11.5108 115.219 11.6682 114.78C11.8082 114.391 11.5633 114.099 11.2571 114.019C10.951 113.94 10.5982 114.028 10.4699 114.385C10.3125 114.827 10.1521 115.287 10.0122 115.783C9.9451 116.03 9.87513 116.296 9.83722 116.594C9.79932 116.88 9.79057 117.16 9.7964 117.428C9.80807 117.965 9.87804 118.461 9.90137 118.929C9.92761 119.401 9.91011 119.826 9.79057 120.26C9.70019 120.605 9.91303 120.891 10.1988 121C10.4816 121.109 10.8519 121.02 10.9743 120.578H10.9772Z" fill="#2B2B2B"/>
<path d="M13.7211 110.604C14.1672 109.663 14.6453 108.737 14.9923 107.764C15.2955 106.909 15.6454 106.018 16.0973 105.243C16.2927 104.903 16.1119 104.573 15.8291 104.414C15.5463 104.255 15.1556 104.266 14.9515 104.617C14.4587 105.478 14.068 106.396 13.7007 107.313C13.3333 108.233 12.9834 109.156 12.5665 110.047C12.2283 110.763 13.377 111.33 13.7211 110.604Z" fill="#2B2B2B"/>
<path d="M18.7326 101.432C18.8872 101.235 19.0388 101.037 19.1991 100.84L19.689 100.244C20.0068 99.8398 20.3246 99.4387 20.6132 99.014C20.864 98.6365 21.1322 98.259 21.415 97.8933C21.6978 97.5247 21.9923 97.1679 22.3101 96.8493C22.8612 96.2861 21.9107 95.3807 21.348 95.9558C21.001 96.3038 20.6832 96.6812 20.3712 97.0617C20.0563 97.4421 19.7589 97.8373 19.4645 98.2354L19.0213 98.8341L18.5868 99.4387L18.1437 100.034C17.995 100.238 17.8463 100.438 17.6917 100.639C17.4497 100.969 17.5984 101.326 17.8609 101.518C18.1262 101.71 18.5023 101.745 18.7297 101.435L18.7326 101.432Z" fill="#2B2B2B"/>
<path d="M25.7218 93.6407C26.0921 93.2898 26.4653 92.9359 26.8444 92.5938C27.2234 92.2487 27.5791 91.883 27.9319 91.5114C28.238 91.1841 28.55 90.8391 28.8882 90.5235C29.2235 90.2079 29.5734 89.9042 29.9291 89.6329C30.5647 89.1728 29.7717 88.12 29.1186 88.5977C28.7279 88.8985 28.3517 89.2141 27.9815 89.5414C27.617 89.8747 27.2642 90.2256 26.9114 90.5707C26.5586 90.9187 26.2233 91.2844 25.8734 91.6353C25.5207 91.9833 25.1854 92.349 24.8267 92.6882C24.2465 93.2455 25.1649 94.1863 25.7306 93.6437L25.7218 93.6407Z" fill="#2B2B2B"/>
<path d="M33.815 87.07C34.2436 86.8017 34.6751 86.5333 35.1067 86.2649C35.544 86.0084 35.9726 85.74 36.3808 85.4392C36.7482 85.1885 37.1301 84.9349 37.5208 84.696C37.9144 84.463 38.3255 84.2566 38.7337 84.0737C39.0952 83.9204 39.1419 83.5488 39.0078 83.245C38.8737 82.9442 38.5529 82.7142 38.1827 82.8734C37.7336 83.0769 37.2876 83.2863 36.856 83.5311C36.4245 83.7818 35.9959 84.0295 35.5761 84.3008L34.334 85.1295C33.9287 85.4156 33.5176 85.6958 33.1007 85.9612C32.433 86.4153 33.1677 87.5065 33.8121 87.07H33.815Z" fill="#2B2B2B"/>
<path d="M43.1077 82.5284C43.583 82.3544 44.0728 82.2158 44.5539 82.0624C45.035 81.9032 45.519 81.7616 45.9884 81.564C46.4024 81.4018 46.8369 81.2514 47.2713 81.1099C47.7115 80.9831 48.1547 80.868 48.5921 80.7943C49.3589 80.6763 49.1344 79.3728 48.3355 79.4967C47.8515 79.5822 47.3704 79.6943 46.8922 79.8211C46.417 79.9627 45.9417 80.1013 45.4752 80.2664C45.0087 80.4345 44.5393 80.5908 44.0757 80.7737L42.6821 81.2809C41.9211 81.5463 42.3759 82.7879 43.1077 82.5313V82.5284Z" fill="#2B2B2B"/>
<path d="M53.2013 80.3431C53.7028 80.2871 54.2131 80.2782 54.7175 80.237C55.2219 80.2075 55.7292 80.1721 56.2307 80.0983C56.6739 80.0453 57.1258 79.9892 57.5865 79.9568C58.05 79.9273 58.5136 79.9155 58.9626 79.9302C59.7528 79.9568 59.7528 78.6356 58.9626 78.6061C58.4786 78.5884 57.9947 78.5943 57.5107 78.612C57.0208 78.6356 56.5252 78.668 56.0324 78.7093L54.5571 78.8656C54.0673 78.9305 53.5745 78.9659 53.0847 79.0219C52.2829 79.1015 52.4316 80.4168 53.2043 80.3402L53.2013 80.3431Z" fill="#2B2B2B"/>
<path d="M63.663 80.1514C64.6923 80.1514 65.7273 80.1986 66.7507 80.0836C67.1968 80.0334 67.6662 79.9862 68.1211 79.9597C68.573 79.9273 69.0278 79.9302 69.4681 79.9656C70.2349 80.0393 70.3486 78.7211 69.5351 78.6444C69.0395 78.6031 68.5409 78.5972 68.0423 78.6149C67.5496 78.6296 67.0685 78.6621 66.5816 78.6916C65.6078 78.7535 64.6339 78.8272 63.6601 78.8243C62.87 78.8243 62.8729 80.1484 63.666 80.1484L63.663 80.1514Z" fill="#2B2B2B"/>
<path d="M74.0164 80.753C74.515 80.8445 75.0106 80.9565 75.5092 81.0627C76.0078 81.1659 76.5064 81.2632 77.0137 81.3252C77.4598 81.3782 77.9175 81.4461 78.3695 81.5287C78.8214 81.6112 79.2762 81.7144 79.7019 81.8442C80.4454 82.0742 80.8069 80.8002 80.0343 80.5643C79.562 80.4227 79.0955 80.3107 78.6144 80.2074C78.1362 80.1042 77.6522 80.0157 77.1682 79.9361C76.1973 79.771 75.2206 79.6324 74.2526 79.4525C73.859 79.3787 73.6053 79.6737 73.5528 79.9981C73.4974 80.3254 73.6345 80.6793 74.0164 80.753Z" fill="#2B2B2B"/>
<path d="M84.1161 83.4131C85.1016 83.7228 86.0959 84.0737 87.1367 84.2241C87.5945 84.289 88.061 84.3569 88.5304 84.4217L88.8803 84.4748C88.9998 84.4925 89.0902 84.5132 89.1981 84.5338C89.4022 84.581 89.6063 84.64 89.8046 84.7166C90.1486 84.8523 90.4431 84.6252 90.5685 84.3215C90.6938 84.0177 90.6297 83.6196 90.2244 83.4662C89.7433 83.2745 89.1602 83.1595 88.7258 83.0917C88.2593 83.0091 87.7899 82.9265 87.3204 82.8381C86.3787 82.6552 85.4311 82.4429 84.5039 82.1509C83.7517 81.912 83.3552 83.1742 84.1161 83.4131Z" fill="#2B2B2B"/>
<path d="M93.7958 86.9934L94.478 87.3797L95.1282 87.7542C95.5626 88.0079 96.0029 88.2615 96.4636 88.4886C97.2741 88.8838 98.1226 89.3379 98.8981 89.8304C99.2422 90.0487 99.5629 89.8629 99.7291 89.5768C99.8953 89.2907 99.8807 88.8926 99.5571 88.6862C98.7611 88.1789 97.9214 87.6923 97.0554 87.2205C96.6239 86.9845 96.1837 86.7515 95.7405 86.5215L95.0728 86.1794C94.857 86.0673 94.6471 85.9582 94.4343 85.8373C93.752 85.448 93.096 86.5923 93.7928 86.9904L93.7958 86.9934Z" fill="#2B2B2B"/>
<path d="M102.799 92.4522C103.234 92.7235 103.659 93.0155 104.094 93.2897C104.528 93.564 104.965 93.8353 105.426 94.0654C106.231 94.4753 107.071 94.9324 107.802 95.4603C108.447 95.9233 109.17 94.8203 108.525 94.3573C107.735 93.7882 106.893 93.2927 106.038 92.809L104.756 92.0836C104.327 91.8417 103.907 91.5881 103.49 91.3286C102.814 90.9039 102.129 92.0334 102.796 92.4522H102.799Z" fill="#2B2B2B"/>
<path d="M111.594 98.2767C112.451 98.8518 113.29 99.4711 114.212 99.94C115.019 100.356 115.868 100.804 116.614 101.32C117.273 101.768 117.964 100.645 117.314 100.203C116.518 99.654 115.675 99.1733 114.83 98.6867C113.981 98.203 113.13 97.7193 112.32 97.1738C111.661 96.7314 110.935 97.8314 111.596 98.2767H111.594Z" fill="#2B2B2B"/>
<path d="M120.532 103.983C121.384 104.496 122.186 105.116 123.052 105.638C123.431 105.868 123.815 106.116 124.186 106.387C124.55 106.652 124.92 106.959 125.279 107.26C125.594 107.522 125.95 107.381 126.139 107.112C126.332 106.844 126.372 106.458 126.081 106.216L125.547 105.765C125.367 105.614 125.165 105.449 124.97 105.299C124.576 104.995 124.165 104.709 123.751 104.432C122.917 103.88 122.063 103.367 121.203 102.848C120.853 102.639 120.527 102.827 120.357 103.11C120.188 103.393 120.206 103.789 120.532 103.983Z" fill="#2B2B2B"/>
<path d="M129.119 110.088C129.97 110.637 130.789 111.265 131.693 111.76C132.486 112.197 133.317 112.677 134.058 113.211C134.382 113.447 134.726 113.282 134.903 113.005C135.081 112.727 135.099 112.338 134.781 112.108C133.227 110.987 131.486 110.047 129.824 108.973C129.148 108.54 128.463 109.666 129.122 110.088H129.119Z" fill="#2B2B2B"/>
<path d="M138.108 115.815C138.35 115.93 138.592 116.042 138.839 116.146C139.09 116.255 139.326 116.355 139.563 116.449C140.038 116.641 140.516 116.821 141.006 116.968C141.866 117.228 142.77 117.535 143.577 117.933C144.286 118.284 144.825 117.077 144.111 116.724C143.236 116.293 142.321 115.948 141.394 115.624L140 115.14C139.764 115.06 139.539 114.978 139.321 114.892C139.099 114.81 138.88 114.715 138.665 114.612C138.315 114.453 138 114.653 137.851 114.951C137.705 115.243 137.737 115.641 138.114 115.812L138.108 115.815Z" fill="#2B2B2B"/>
<path d="M147.75 120.103C148.217 120.321 148.686 120.543 149.153 120.764C149.389 120.87 149.625 120.973 149.864 121.071C150.103 121.168 150.36 121.256 150.61 121.336C151.056 121.469 151.511 121.604 151.966 121.734C152.418 121.873 152.87 122.002 153.301 122.159C154.068 122.418 154.418 121.144 153.689 120.894C153.243 120.734 152.794 120.59 152.345 120.442C152.118 120.372 151.896 120.295 151.672 120.221C151.447 120.147 151.22 120.074 150.998 119.991C150.555 119.835 150.094 119.658 149.642 119.478C149.19 119.298 148.739 119.106 148.295 118.9C147.578 118.567 147.03 119.767 147.747 120.103H147.75Z" fill="#2B2B2B"/>
<path d="M157.874 123.536C158.891 123.742 159.912 123.975 160.941 124.037C161.848 124.093 162.795 124.167 163.681 124.347C164.46 124.503 164.664 123.197 163.894 123.041C162.95 122.852 161.979 122.743 161.014 122.639C160.049 122.536 159.081 122.43 158.13 122.238C157.363 122.079 157.083 123.374 157.871 123.536H157.874Z" fill="#2B2B2B"/>
<path d="M168.317 125.273C168.831 125.338 169.344 125.418 169.86 125.48C170.376 125.536 170.892 125.577 171.411 125.58C171.866 125.577 172.335 125.574 172.799 125.589C173.265 125.609 173.732 125.624 174.181 125.677C174.974 125.766 175.055 124.447 174.28 124.359C173.805 124.303 173.324 124.276 172.842 124.244C172.361 124.214 171.877 124.203 171.393 124.179L169.938 124.105C169.454 124.07 168.97 124.026 168.489 123.964C168.099 123.914 167.86 124.208 167.816 124.539C167.772 124.866 167.924 125.226 168.317 125.276V125.273Z" fill="#2B2B2B"/>
<path d="M178.898 126.122C179.417 126.131 179.939 126.152 180.461 126.143C180.982 126.134 181.501 126.122 182.017 126.043C182.469 125.975 182.936 125.922 183.4 125.866C183.863 125.81 184.33 125.769 184.784 125.754C185.184 125.736 185.356 125.394 185.33 125.064C185.303 124.733 185.082 124.418 184.691 124.433C184.213 124.444 183.738 124.48 183.26 124.524C182.781 124.565 182.3 124.604 181.822 124.654C181.341 124.707 180.86 124.73 180.376 124.766C179.892 124.801 179.408 124.807 178.924 124.798C178.143 124.786 178.099 126.108 178.901 126.122H178.898Z" fill="#2B2B2B"/>
<path d="M189.525 125.429C190.038 125.359 190.566 125.27 191.076 125.17C191.589 125.067 192.091 124.943 192.581 124.784C193.438 124.503 194.348 124.232 195.225 124.132C195.607 124.088 195.759 123.745 195.721 123.415C195.683 123.088 195.438 122.772 195.033 122.822C194.042 122.937 193.085 123.194 192.146 123.453C191.677 123.583 191.208 123.716 190.738 123.834C190.269 123.952 189.802 124.055 189.324 124.123C188.554 124.238 188.729 125.55 189.525 125.429Z" fill="#2B2B2B"/>
<path d="M199.885 124.026C200.418 123.984 200.964 123.928 201.503 123.822C202.042 123.713 202.573 123.56 203.066 123.335C203.474 123.15 203.879 122.973 204.314 122.828C204.742 122.684 205.182 122.56 205.623 122.48C206.39 122.339 206.13 121.041 205.337 121.189C204.856 121.28 204.372 121.404 203.894 121.551C203.655 121.625 203.416 121.708 203.179 121.793L202.491 122.061C202.063 122.233 201.622 122.38 201.171 122.489C200.719 122.598 200.258 122.672 199.786 122.71C199.404 122.74 199.223 123.076 199.24 123.406C199.255 123.734 199.471 124.061 199.885 124.029V124.026Z" fill="#2B2B2B"/>
<path d="M210.294 121.625C210.836 121.466 211.349 121.268 211.833 121.056C212.317 120.843 212.763 120.622 213.195 120.401C213.384 120.301 213.577 120.212 213.772 120.133C213.971 120.056 214.175 119.985 214.39 119.926C214.816 119.805 215.268 119.729 215.717 119.67C216.116 119.62 216.262 119.263 216.201 118.938C216.14 118.614 215.898 118.316 215.513 118.363C215.038 118.422 214.548 118.502 214.043 118.626C213.545 118.747 213.02 118.938 212.562 119.157C211.632 119.59 210.813 120.097 209.935 120.351C209.565 120.457 209.46 120.826 209.542 121.147C209.623 121.469 209.903 121.737 210.297 121.625H210.294Z" fill="#2B2B2B"/>
<path d="M220.379 118.543C221.353 118.207 222.35 117.906 223.28 117.449C224.096 117.048 224.965 116.641 225.82 116.343C226.575 116.084 226.099 114.851 225.359 115.104C223.539 115.73 221.799 116.653 219.956 117.287C219.21 117.543 219.627 118.797 220.379 118.54V118.543Z" fill="#2B2B2B"/>
<path d="M230.289 114.765C230.768 114.559 231.246 114.355 231.721 114.134C232.19 113.913 232.663 113.668 233.094 113.403C233.858 112.928 234.689 112.459 235.523 112.114C236.255 111.813 235.724 110.604 234.989 110.905C234.091 111.276 233.223 111.728 232.362 112.211C231.931 112.45 231.514 112.686 231.082 112.913C230.654 113.137 230.216 113.356 229.773 113.547C229.415 113.707 229.359 114.084 229.485 114.391C229.61 114.695 229.922 114.925 230.289 114.762V114.765Z" fill="#2B2B2B"/>
<path d="M239.905 110.359C240.374 110.141 240.849 109.917 241.316 109.687C241.78 109.445 242.24 109.2 242.672 108.902C243.054 108.646 243.441 108.377 243.838 108.121C244.235 107.867 244.628 107.608 245.031 107.384C245.73 106.971 245.01 105.865 244.348 106.254C243.931 106.481 243.532 106.741 243.121 106.986C242.713 107.239 242.304 107.493 241.893 107.746C241.482 108.003 241.065 108.245 240.642 108.487C240.217 108.723 239.791 108.953 239.351 109.159C238.639 109.495 239.182 110.701 239.905 110.356V110.359Z" fill="#2B2B2B"/>
<path d="M249.04 104.791C249.859 104.169 250.713 103.582 251.468 102.88C252.133 102.264 252.853 101.636 253.603 101.137C254.261 100.701 253.512 99.6157 252.847 100.058C251.22 101.14 249.812 102.547 248.252 103.736C247.62 104.219 248.41 105.272 249.04 104.791Z" fill="#2B2B2B"/>
<path d="M257.588 98.6572C258.02 98.38 258.451 98.1028 258.883 97.8255L259.046 97.7164L259.227 97.5867C259.349 97.5011 259.46 97.4038 259.571 97.3065C259.792 97.1119 259.988 96.8995 260.16 96.6754C260.769 95.888 261.238 95.0239 261.787 94.319C262.026 94.0094 261.889 93.6643 261.632 93.4579C261.375 93.2544 260.982 93.2131 260.731 93.5375C260.122 94.3249 259.649 95.1418 259.069 95.8142C258.923 95.9823 258.775 96.1416 258.614 96.2861C258.451 96.4335 258.297 96.5545 258.084 96.7078C257.684 96.9939 257.282 97.2799 256.871 97.5513C256.206 97.9936 256.932 99.0966 257.588 98.6572Z" fill="#2B2B2B"/>
<path d="M264.991 90.8715C265.315 90.4674 265.641 90.0634 265.968 89.6594C266.286 89.2554 266.598 88.8572 266.878 88.406C267.367 87.6274 267.901 86.8194 268.49 86.1234C268.752 85.8196 268.61 85.4569 268.35 85.2563C268.088 85.0558 267.714 85.0145 267.455 85.3124C266.831 86.0497 266.271 86.843 265.717 87.6451C265.446 88.0462 265.143 88.4532 264.86 88.8543C264.571 89.2554 264.283 89.6535 263.977 90.0339C263.484 90.6444 264.484 91.4967 264.991 90.8685V90.8715Z" fill="#2B2B2B"/>
<path d="M271.449 82.378C271.741 81.9445 272.032 81.505 272.321 81.0715C272.601 80.6292 272.895 80.1956 273.105 79.712C273.493 78.8744 273.916 78.0044 274.411 77.2347C274.63 76.8956 274.435 76.5535 274.155 76.3913C273.866 76.2261 273.493 76.2379 273.28 76.5712C272.755 77.3822 272.303 78.2404 271.857 79.1104C271.636 79.5439 271.382 79.9627 271.137 80.3844C270.889 80.8061 270.636 81.2219 270.367 81.6319C269.933 82.2895 271.003 83.0533 271.446 82.378H271.449Z" fill="#2B2B2B"/>
<path d="M276.838 73.1118C277.071 72.6429 277.301 72.1711 277.534 71.6992C277.59 71.5812 277.648 71.4633 277.701 71.3424L277.846 70.9767C277.94 70.7319 278.027 70.4842 278.106 70.2335C278.243 69.7941 278.389 69.3429 278.549 68.9005C278.718 68.4611 278.87 68.0128 279.048 67.5911C279.363 66.8479 278.141 66.376 277.832 67.1015C277.739 67.3227 277.648 67.5498 277.564 67.7739C277.479 68.001 277.38 68.2222 277.292 68.4493C277.115 68.9005 276.948 69.3576 276.782 69.8177C276.613 70.2748 276.464 70.7437 276.263 71.189C276.074 71.6402 275.875 72.0855 275.663 72.525C275.319 73.2357 276.479 73.8432 276.835 73.1148L276.838 73.1118Z" fill="#2B2B2B"/>
<path d="M280.87 63.1556C280.957 62.9079 281.036 62.6572 281.109 62.4036L281.333 61.6456C281.479 61.1384 281.61 60.6311 281.701 60.115C281.771 59.6579 281.835 59.189 281.922 58.723C282.007 58.2571 282.109 57.797 282.234 57.3547C282.336 56.9654 282.059 56.697 281.742 56.6262C281.421 56.5554 281.062 56.6764 280.96 57.0568C280.829 57.5228 280.718 57.9917 280.616 58.4694C280.511 58.9442 280.438 59.4279 280.33 59.9027L280.007 61.333L279.832 62.0467L279.739 62.4006L279.625 62.7486C279.371 63.4977 280.61 63.9253 280.87 63.1556Z" fill="#2B2B2B"/>
<path d="M283.347 52.6891C283.391 52.4296 283.435 52.1701 283.479 51.9106L283.581 51.1261C283.645 50.6041 283.694 50.0792 283.703 49.5542C283.709 49.0942 283.694 48.6164 283.712 48.1445C283.724 47.6727 283.756 47.2008 283.805 46.7437C283.875 45.9386 282.569 45.8678 282.499 46.6493C282.447 47.13 282.403 47.6137 282.379 48.0973C282.347 48.581 282.353 49.0706 282.315 49.5572L282.219 51.0199L282.158 51.7513C282.126 51.9931 282.091 52.235 282.05 52.4768C281.922 53.2554 283.21 53.4854 283.342 52.6832L283.347 52.6891Z" fill="#2B2B2B"/>
<path d="M284.193 41.9602C284.188 41.4353 284.182 40.9074 284.176 40.3795C284.167 40.117 284.164 39.8516 284.141 39.5891C284.118 39.3266 284.085 39.0671 284.045 38.8076C283.972 38.3505 283.908 37.8816 283.849 37.4126C283.782 36.9437 283.73 36.4748 283.706 36.0148C283.666 35.2037 282.365 35.3453 282.403 36.1327C282.426 36.6164 282.473 37.0971 282.529 37.5807C282.569 38.0644 282.622 38.5481 282.68 39.0347L282.765 39.7631L282.82 40.4945C282.852 40.9811 282.878 41.4706 282.887 41.9602C282.875 42.7506 284.185 42.7742 284.196 41.9602H284.193Z" fill="#2B2B2B"/>
<path d="M283.327 31.2254C283.236 30.7063 283.149 30.1873 283.059 29.6653C282.959 29.1462 282.825 28.636 282.668 28.1347C282.531 27.6953 282.365 27.247 282.231 26.7928C282.161 26.5657 282.096 26.3387 282.035 26.1116C281.968 25.8874 281.907 25.6604 281.854 25.4362C281.665 24.6459 280.411 25.0263 280.592 25.7872C280.647 26.0201 280.709 26.2531 280.773 26.4861C280.831 26.7191 280.892 26.955 280.959 27.188C281.091 27.654 281.236 28.117 281.362 28.5888C281.487 29.0578 281.633 29.5267 281.741 30.0015C281.852 30.4763 281.954 30.954 282.041 31.4347C282.105 31.824 282.452 31.9715 282.776 31.9214C283.097 31.8712 283.397 31.6205 283.33 31.2195L283.327 31.2254Z" fill="#2B2B2B"/>
<path d="M280.552 20.7914L280.246 20.0511L280.091 19.6795L279.916 19.3139C279.692 18.8302 279.412 18.3436 279.094 17.913L278.231 16.7806C277.942 16.4001 277.654 16.0226 277.394 15.6422C276.922 14.9757 275.901 15.8044 276.348 16.4355C276.479 16.6331 276.616 16.8277 276.756 17.0194C276.893 17.2141 277.03 17.4087 277.173 17.5975L277.59 18.1784L277.998 18.7653L278.374 19.3581C278.499 19.5586 278.607 19.771 278.724 19.9804C278.84 20.1868 278.945 20.405 279.047 20.6233C279.147 20.8415 279.249 21.0597 279.339 21.2839C279.616 22.0123 280.846 21.5552 280.552 20.7855V20.7914Z" fill="#2B2B2B"/>
<path d="M274.44 11.8378C274.26 11.6461 274.076 11.4574 273.889 11.2686C273.706 11.0799 273.519 10.8911 273.327 10.7113C272.947 10.3456 272.545 10.0035 272.122 9.6938C271.743 9.42838 271.364 9.14821 270.982 8.87099C270.606 8.58788 270.227 8.30771 269.88 8.0069C269.256 7.4908 268.478 8.55544 269.076 9.05089C269.437 9.3635 269.816 9.65546 270.189 9.95332C270.568 10.2482 270.947 10.5431 271.326 10.841C271.703 11.1418 272.082 11.4456 272.446 11.7611C272.81 12.0796 273.169 12.407 273.501 12.7579C274.041 13.3212 275.003 12.4247 274.437 11.8349L274.44 11.8378Z" fill="#2B2B2B"/>
<path d="M266.09 5.07841C265.869 4.93685 265.644 4.80119 265.42 4.66258C265.195 4.52397 264.971 4.38831 264.74 4.2615C264.283 3.99903 263.81 3.76605 263.323 3.57435C262.892 3.41215 262.452 3.23815 262.014 3.06415C261.796 2.97863 261.577 2.88721 261.364 2.79578C261.148 2.70436 260.936 2.61294 260.729 2.51562C260.364 2.34162 260.058 2.5687 259.936 2.87541C259.813 3.18212 259.871 3.56551 260.218 3.73361C260.65 3.9312 261.081 4.12584 261.522 4.31458C261.959 4.50628 262.399 4.68912 262.837 4.88671L263.495 5.18458L264.146 5.50308C264.577 5.71837 265 5.9543 265.408 6.20792C266.067 6.62375 266.781 5.51488 266.093 5.08136L266.09 5.07841Z" fill="#2B2B2B"/>
<path d="M256.273 0.731384C256.019 0.663554 255.763 0.595724 255.506 0.527894L254.733 0.350947C254.477 0.291964 254.212 0.256575 253.952 0.215287C253.693 0.173999 253.43 0.147457 253.165 0.141559C252.934 0.129762 252.698 0.120915 252.465 0.109118C252.229 0.10322 251.993 0.0973218 251.757 0.0855253C251.52 0.0737288 251.284 0.0648814 251.048 0.0530849C250.815 0.0412884 250.582 0.0206445 250.351 0.0029497C249.538 -0.0530837 249.529 1.27107 250.287 1.32416C250.52 1.34185 250.754 1.3684 250.99 1.38019C251.226 1.39494 251.459 1.40673 251.695 1.43033L252.404 1.47751L253.112 1.53945C253.351 1.55419 253.585 1.58958 253.824 1.61612C254.06 1.64561 254.299 1.66921 254.535 1.71344L255.241 1.84026C255.474 1.89039 255.707 1.94937 255.94 2.00836C256.317 2.10273 256.591 1.8491 256.681 1.52765C256.771 1.21209 256.669 0.828705 256.273 0.728435V0.731384Z" fill="#2B2B2B"/>
<path d="M246.723 -0.146163C246.464 -0.194834 246.2 -0.232265 245.937 -0.269695C245.672 -0.304314 245.409 -0.351059 245.144 -0.367049C244.879 -0.389543 244.612 -0.406414 244.349 -0.415899C244.085 -0.422573 243.818 -0.408694 243.553 -0.393928C243.087 -0.372004 242.613 -0.306159 242.139 -0.277572C241.667 -0.226662 241.193 -0.198074 240.734 -0.170687C239.919 -0.117646 240.076 1.19517 240.832 1.145C241.066 1.12331 241.3 1.12676 241.535 1.10878C241.771 1.1001 242.004 1.06911 242.238 1.06324C242.71 1.04309 243.181 1.00431 243.654 0.999972C244.129 0.977891 244.605 0.993068 245.081 1.00544C245.32 1.01347 245.556 1.04206 245.794 1.06221C246.032 1.08518 246.268 1.11095 246.502 1.15448C247.256 1.28603 247.536 -0.00817008 246.724 -0.148974L246.723 -0.146163Z" fill="#2B2B2B"/>
<path d="M236.69 -0.310934C236.428 -0.352226 236.164 -0.382181 235.9 -0.412136C235.634 -0.439256 235.37 -0.478519 235.105 -0.487022C234.839 -0.501999 234.572 -0.511304 234.309 -0.513333C234.045 -0.512528 233.777 -0.491078 233.513 -0.468821C233.048 -0.433712 232.576 -0.354476 232.103 -0.312475C231.633 -0.248216 231.16 -0.206213 230.702 -0.165855C229.888 -0.0897429 230.083 1.21809 230.838 1.14652C231.07 1.11824 231.305 1.11504 231.539 1.0904C231.774 1.07507 232.006 1.03748 232.241 1.02499C232.711 0.991487 233.181 0.939377 233.654 0.921661C234.128 0.886134 234.604 0.887839 235.08 0.886711C235.32 0.887967 235.556 0.90987 235.795 0.923269C236.033 0.939502 236.27 0.958568 236.505 0.995447C237.262 1.1056 237.506 -0.196012 236.69 -0.313768L236.69 -0.310934Z" fill="#2B2B2B"/>
<path d="M225.686 0.608366L224.889 0.634019C224.623 0.644754 224.358 0.670115 224.093 0.69144C223.562 0.727534 223.038 0.819603 222.525 0.938919C222.074 1.04067 221.613 1.18124 221.152 1.28348C220.689 1.39228 220.233 1.51469 219.777 1.58971C219.379 1.66128 219.258 2.03324 219.331 2.35051C219.408 2.67332 219.67 2.94343 220.05 2.87436C220.52 2.79784 220.982 2.67846 221.448 2.58581C221.916 2.49467 222.381 2.37024 222.85 2.28969L223.557 2.154C223.794 2.11196 224.03 2.08304 224.27 2.04907C224.507 2.01763 224.745 1.97962 224.987 1.96431C225.226 1.94749 225.466 1.93471 225.704 1.92444C226.091 1.90479 226.286 1.58487 226.29 1.25259C226.292 0.925342 226.089 0.584712 225.681 0.60534L225.686 0.608366Z" fill="#2B2B2B"/>
<path d="M204.292 7.09432C203.247 7.37208 202.184 7.66676 201.224 8.17758C200.801 8.39891 200.376 8.63991 199.947 8.86997C199.525 9.10989 199.096 9.3334 198.672 9.54543C198.296 9.72582 198.282 10.1222 198.444 10.4068C198.611 10.6957 198.941 10.8838 199.296 10.7121C199.726 10.4979 200.159 10.2788 200.587 10.0525C201.016 9.83178 201.447 9.61375 201.889 9.40721C202.77 8.99523 203.682 8.62158 204.634 8.37156C205.017 8.26827 205.134 7.90321 205.055 7.58214C204.976 7.26106 204.695 6.98614 204.29 7.09541L204.292 7.09432Z" fill="#2B2B2B"/>
<path d="M215.438 3.33323C214.372 3.51675 213.287 3.7155 212.285 4.13867C211.844 4.32139 211.399 4.52358 210.951 4.71448C210.51 4.91582 210.063 5.10023 209.622 5.27364C209.23 5.41973 209.182 5.81335 209.318 6.11121C209.458 6.41387 209.77 6.63063 210.139 6.4913C210.586 6.3162 211.037 6.1366 211.483 5.94937C211.931 5.76779 212.379 5.58902 212.838 5.42268C213.752 5.09086 214.693 4.79998 215.664 4.63583C216.055 4.56708 216.204 4.2139 216.154 3.88706C216.104 3.56021 215.849 3.26139 215.435 3.33408L215.438 3.33323Z" fill="#2B2B2B"/>
<path d="M193.421 12.8456C193.182 12.9792 192.94 13.1103 192.699 13.2443C192.465 13.3861 192.227 13.5255 191.997 13.6727C191.77 13.8253 191.54 13.9784 191.322 14.1446C191.107 14.3133 190.892 14.4848 190.694 14.6687C190.519 14.8309 190.341 14.9966 190.164 15.1622C189.99 15.3303 189.813 15.4988 189.633 15.6649C189.282 16.0015 188.924 16.3303 188.569 16.6378C188.251 16.9064 188.33 17.2909 188.552 17.5304C188.777 17.7753 189.146 17.8717 189.452 17.62C189.82 17.3015 190.182 16.978 190.544 16.6546C190.905 16.3312 191.271 16.0102 191.645 15.6937L192.213 15.233C192.408 15.0855 192.603 14.938 192.798 14.7933C193.001 14.6565 193.2 14.5173 193.406 14.3859C193.616 14.2598 193.824 14.1342 194.038 14.0164C194.731 13.6581 194.182 12.4555 193.421 12.8485L193.421 12.8456Z" fill="#2B2B2B"/>
<path d="M185.467 20.1779L184.84 20.6911C184.63 20.8621 184.429 21.045 184.228 21.2249C184.027 21.4077 183.823 21.5847 183.636 21.7822C183.447 21.9769 183.266 22.1774 183.091 22.3839C182.776 22.7407 182.482 23.1329 182.161 23.4986C181.84 23.8643 181.537 24.2477 181.207 24.5869C180.919 24.8877 181.041 25.2681 181.289 25.4775C181.543 25.6928 181.913 25.7488 182.19 25.4628C182.531 25.1148 182.837 24.7343 183.176 24.3775C183.505 24.0147 183.823 23.6373 184.161 23.2775L184.665 22.7319L185.19 22.2069C185.54 21.853 185.91 21.5257 186.295 21.2072C186.601 20.9476 186.561 20.5643 186.359 20.3047C186.158 20.0423 185.791 19.9096 185.473 20.1779H185.467Z" fill="#2B2B2B"/>
<path d="M178.09 28.4502C177.95 28.6832 177.795 28.9103 177.661 29.1492L177.262 29.8688L177.066 30.2315L176.897 30.606C176.787 30.8567 176.684 31.1103 176.588 31.3669C176.428 31.8181 176.285 32.2929 176.116 32.7501C175.958 33.216 175.807 33.679 175.623 34.1185C175.469 34.5048 175.711 34.8056 176.017 34.9147C176.326 35.0238 176.705 34.9383 176.854 34.5638C177.046 34.1155 177.198 33.6495 177.373 33.1924L177.632 32.5053C177.717 32.2723 177.801 32.0423 177.897 31.8152C178.09 31.361 178.262 30.8951 178.489 30.4556L178.822 29.7921C178.935 29.5738 179.069 29.3645 179.198 29.1521C179.615 28.4738 178.533 27.7306 178.087 28.4532L178.09 28.4502Z" fill="#2B2B2B"/>
<path d="M173.895 38.7073C173.743 39.2234 173.574 39.7365 173.434 40.2556C173.288 40.7746 173.163 41.2996 173.079 41.8304C172.93 42.7653 172.775 43.7474 172.53 44.6586C172.323 45.4608 173.603 45.741 173.805 44.9594C174.064 44.001 174.248 43.016 174.449 42.0339C174.545 41.5414 174.65 41.0489 174.764 40.5564C174.875 40.0639 175.006 39.5802 175.146 39.0966C175.385 38.318 174.137 37.9169 173.895 38.7102V38.7073Z" fill="#2B2B2B"/>
<path d="M171.375 49.4451C171.297 49.9789 171.201 50.5127 171.136 51.0524C171.063 51.5891 171.026 52.1317 171.026 52.6714C171.026 53.1462 171.037 53.6387 171.026 54.1253C171.031 54.612 171.008 55.0986 170.979 55.5704C170.929 56.405 172.236 56.4227 172.285 55.6206C172.317 55.128 172.346 54.6355 172.355 54.1371C172.381 53.6417 172.381 53.1462 172.408 52.6449C172.428 52.1465 172.451 51.6451 172.492 51.1438C172.527 50.6424 172.591 50.144 172.664 49.6486C172.725 49.2475 172.443 48.9909 172.119 48.9349C171.798 48.8788 171.437 49.0263 171.373 49.4392L171.375 49.4451Z" fill="#2B2B2B"/>
<path d="M170.815 60.5102C170.856 61.0499 170.871 61.5925 170.926 62.1322C170.976 62.6719 171.043 63.2087 171.162 63.7365C171.262 64.1996 171.369 64.6744 171.466 65.1521C171.556 65.6299 171.649 66.1047 171.705 66.5736C171.754 66.9865 172.11 67.1339 172.431 67.075C172.754 67.016 173.043 66.7594 172.996 66.3583C172.935 65.8658 172.851 65.3763 172.772 64.8867C172.684 64.3972 172.6 63.9046 172.512 63.4121C172.419 62.9196 172.349 62.4242 172.276 61.9287C172.206 61.4333 172.162 60.9319 172.125 60.4335C172.087 59.6255 170.78 59.6726 170.818 60.5102H170.815Z" fill="#2B2B2B"/>
<path d="M172.475 71.4485C172.597 71.9735 172.737 72.4984 172.877 73.0234C172.953 73.2888 173.046 73.566 173.146 73.8285C173.259 74.088 173.361 74.3505 173.501 74.5923C173.735 75.0229 173.985 75.4534 174.239 75.8781C174.364 76.0905 174.487 76.2998 174.612 76.5122C174.732 76.7245 174.848 76.9339 174.965 77.1403C175.16 77.509 175.545 77.5149 175.822 77.3438C176.102 77.1728 176.28 76.8248 176.09 76.4709C175.854 76.0462 175.618 75.6186 175.382 75.191C175.143 74.7692 174.921 74.3416 174.705 73.911C174.609 73.6928 174.504 73.4746 174.414 73.2534C174.332 73.0263 174.239 72.8169 174.163 72.5721C174.012 72.0944 173.857 71.6166 173.743 71.13C173.551 70.3456 172.277 70.6375 172.475 71.4515V71.4485Z" fill="#2B2B2B"/>
<path d="M177.28 81.4048C177.536 81.856 177.758 82.319 177.982 82.7761C178.105 83.0239 178.233 83.2716 178.364 83.5134C178.504 83.7523 178.65 83.9823 178.805 84.2094C179.087 84.6016 179.373 84.9998 179.668 85.395C179.811 85.5925 179.956 85.7901 180.099 85.9877C180.239 86.1853 180.376 86.3829 180.51 86.5805C180.744 86.9285 181.125 86.8961 181.385 86.6955C181.644 86.495 181.787 86.1322 181.569 85.8019C181.295 85.4009 181.018 84.9998 180.741 84.5987C180.461 84.2006 180.19 83.7936 179.924 83.3837C179.656 82.9708 179.417 82.552 179.175 82.1126C178.927 81.6525 178.673 81.2013 178.42 80.753C178.216 80.3873 177.828 80.3785 177.545 80.5495C177.265 80.7176 177.087 81.0597 177.28 81.4077V81.4048Z" fill="#2B2B2B"/>
<path d="M183.493 90.5117C184.222 91.2991 184.939 92.1042 185.761 92.7796C186.12 93.0745 186.496 93.3871 186.86 93.7056C187.228 94.0212 187.586 94.3456 187.924 94.6729C188.219 94.9649 188.589 94.8528 188.802 94.6051C189.018 94.3544 189.085 93.974 188.802 93.6909C188.452 93.3488 188.094 93.0126 187.726 92.6823C187.365 92.3461 186.994 92.0187 186.621 91.6796C186.248 91.3434 185.875 91.0072 185.51 90.6651C185.146 90.323 184.787 89.972 184.449 89.6034C183.904 89.0106 182.93 89.8953 183.493 90.5087V90.5117Z" fill="#2B2B2B"/>
<path d="M191.625 97.9376C192.068 98.2502 192.514 98.5599 192.972 98.8489C193.43 99.1379 193.905 99.4033 194.395 99.6215C194.826 99.8132 195.272 100.008 195.716 100.205C196.159 100.4 196.593 100.612 197.01 100.825C197.748 101.208 198.278 99.999 197.573 99.6304L196.92 99.2971L196.261 98.9757C195.821 98.7604 195.377 98.5481 194.934 98.3328C194.494 98.1116 194.057 97.8845 193.625 97.6397C193.197 97.395 192.774 97.1354 192.368 96.8494C192.039 96.6223 191.689 96.7668 191.497 97.0381C191.304 97.3065 191.278 97.7017 191.622 97.9376H191.625Z" fill="#2B2B2B"/>
<path d="M201.182 103.202C202.103 103.709 203.004 104.275 203.978 104.694C204.832 105.063 205.73 105.47 206.538 105.939C206.891 106.148 207.223 105.953 207.375 105.658C207.526 105.363 207.5 104.974 207.153 104.771C205.447 103.78 203.576 103.013 201.809 102.04C201.088 101.645 200.473 102.812 201.182 103.202Z" fill="#2B2B2B"/>
<path d="M210.833 108.274C211.323 108.484 211.807 108.72 212.303 108.914C212.798 109.112 213.3 109.295 213.813 109.442C214.262 109.575 214.731 109.687 215.186 109.831C215.647 109.967 216.096 110.132 216.53 110.294C217.297 110.586 217.714 109.333 216.962 109.047C216.501 108.873 216.041 108.696 215.568 108.543C215.099 108.386 214.621 108.248 214.151 108.086L212.734 107.614C212.262 107.451 211.804 107.26 211.346 107.062C210.609 106.741 210.069 107.947 210.827 108.277L210.833 108.274Z" fill="#2B2B2B"/>
<path d="M221.087 112.005C221.597 112.152 222.108 112.318 222.621 112.462C223.137 112.598 223.653 112.722 224.178 112.804C224.638 112.881 225.114 112.949 225.583 113.037C226.052 113.123 226.519 113.229 226.968 113.353C227.758 113.562 228.047 112.273 227.271 112.064C226.796 111.931 226.315 111.813 225.831 111.713C225.344 111.613 224.857 111.515 224.37 111.415L222.906 111.114C222.422 110.999 221.938 110.875 221.46 110.737C220.688 110.51 220.303 111.775 221.09 112.005H221.087Z" fill="#2B2B2B"/>
<path d="M231.653 114.612C232.172 114.718 232.694 114.827 233.216 114.933C233.738 115.031 234.263 115.11 234.791 115.152C235.718 115.228 236.697 115.305 237.604 115.5C238.403 115.662 238.616 114.355 237.823 114.196C236.855 113.99 235.864 113.881 234.875 113.754C234.379 113.692 233.884 113.636 233.388 113.568C232.895 113.494 232.4 113.415 231.913 113.317C231.12 113.158 230.852 114.453 231.653 114.615V114.612Z" fill="#2B2B2B"/>
<path d="M242.343 116.491C242.865 116.573 243.389 116.656 243.911 116.738C244.436 116.815 244.978 116.868 245.512 116.88C245.984 116.877 246.465 116.895 246.949 116.898C247.43 116.906 247.911 116.933 248.378 116.968C249.2 117.039 249.241 115.715 248.448 115.647C247.961 115.612 247.474 115.573 246.984 115.553C246.494 115.529 246.005 115.503 245.512 115.479C245.019 115.441 244.532 115.417 244.031 115.364C243.532 115.314 243.037 115.255 242.541 115.181C241.739 115.057 241.538 116.364 242.343 116.491Z" fill="#2B2B2B"/>
<path d="M253.253 117.228C253.786 117.213 254.323 117.192 254.856 117.16C255.39 117.125 255.921 117.069 256.445 116.971C256.906 116.88 257.378 116.797 257.851 116.718C258.323 116.641 258.798 116.579 259.262 116.541C260.078 116.476 259.918 115.16 259.116 115.225C258.626 115.267 258.134 115.323 257.644 115.388C257.154 115.455 256.664 115.523 256.171 115.6C255.679 115.665 255.189 115.741 254.693 115.792C254.2 115.845 253.705 115.892 253.209 115.907C252.407 115.936 252.431 117.257 253.256 117.228H253.253Z" fill="#2B2B2B"/>
<path d="M264.087 116.122C265.131 115.972 266.189 115.868 267.213 115.606C268.113 115.376 269.07 115.152 269.991 115.043C270.802 114.945 270.598 113.639 269.796 113.733C267.831 113.966 265.886 114.523 263.903 114.812C263.099 114.93 263.285 116.24 264.087 116.122Z" fill="#2B2B2B"/>
<path d="M274.805 114.456C275.326 114.358 275.854 114.264 276.376 114.158C276.898 114.046 277.417 113.922 277.921 113.745C278.811 113.444 279.744 113.12 280.645 112.931C281.438 112.766 281.134 111.477 280.338 111.645C279.851 111.745 279.365 111.875 278.889 112.008C278.414 112.146 277.939 112.285 277.464 112.424C276.988 112.565 276.507 112.698 276.026 112.825C275.545 112.949 275.058 113.064 274.568 113.155C273.775 113.303 274 114.606 274.807 114.456H274.805Z" fill="#2B2B2B"/>
<path d="M285.386 112.023C286.415 111.778 287.462 111.568 288.456 111.203C289.331 110.881 290.258 110.554 291.165 110.342C291.96 110.153 291.611 108.876 290.826 109.062C288.905 109.51 287.03 110.265 285.083 110.731C284.292 110.92 284.593 112.208 285.383 112.02L285.386 112.023Z" fill="#2B2B2B"/>
<path d="M295.903 109.153C296.416 108.97 296.92 108.779 297.419 108.572C297.914 108.366 298.396 108.139 298.859 107.879C299.67 107.419 300.53 106.956 301.39 106.646C301.766 106.511 301.845 106.148 301.734 105.841C301.626 105.537 301.314 105.299 300.923 105.434C299.967 105.77 299.063 106.222 298.171 106.67C297.725 106.897 297.279 107.121 296.83 107.333C296.381 107.546 295.926 107.743 295.465 107.909C295.095 108.047 295.005 108.413 295.104 108.728C295.2 109.041 295.509 109.298 295.903 109.15V109.153Z" fill="#2B2B2B"/>
<path d="M339.52 118.792C338.736 119.734 337.446 119.383 336.914 118.146C336.215 116.514 335.61 114.843 334.967 113.19C331.542 104.36 328.121 95.5292 324.696 86.6993C324.542 86.2964 324.358 85.9047 324.139 85.3911C321.615 88.2568 319.189 91.0245 316.752 93.781C315.38 95.3372 314.015 96.9029 312.594 98.4158C311.978 99.0725 311.871 99.6414 312.212 100.508C313.557 103.954 314.771 107.451 316.121 110.897C316.564 112.03 316.489 112.891 315.751 113.892C313.722 116.633 313.308 117.853 310.305 114.141C308.199 111.539 305.813 109.164 303.703 106.563C302.7 105.326 301.407 104.753 300.058 104.161C296.671 102.679 293.278 101.21 289.892 99.7256C288.384 99.0607 288.261 98.2539 289.072 96.8022C290.312 94.5871 291.923 93.6539 294.582 94.0119C297.698 94.4322 300.885 94.3233 304.034 94.5325C304.952 94.593 305.459 94.3312 305.919 93.546C308.817 88.6004 311.763 83.6833 314.738 78.6767C314.205 78.3501 313.645 78.4629 313.122 78.4299C302.339 77.7604 291.557 77.1032 280.776 76.4503C279.844 76.3941 278.816 76.5142 278.3 75.5011C277.73 74.3861 278.602 73.6596 279.156 72.866C279.525 72.3412 279.929 71.8386 280.288 71.3069C281.735 69.1763 283.749 68.0338 286.285 67.6443C299.23 65.6469 312.166 63.6022 325.113 61.6174C326.266 61.4416 327.061 61.0372 327.747 60.0531C329.835 57.0494 332.071 54.1501 334.188 51.1632C335.863 48.7953 338.048 47.1122 340.681 45.9557C344.13 44.4427 347.739 47.0646 347.36 50.8249C347.08 53.6313 346.177 56.1953 344.471 58.4788C342.191 61.5295 339.997 64.6431 337.706 67.6827C337.118 68.4625 336.983 69.1842 337.134 70.129C339.154 82.9688 341.026 95.8336 343.201 108.647C343.927 112.927 341.948 115.871 339.52 118.792Z" fill="#333333"/>
<path d="M20.0977 96.3716C20.0977 90.7653 15.6047 86.2177 10.0591 86.2177C4.51355 86.2177 0.0205467 90.7623 0.0205467 96.3716C0.0205467 96.3716 -0.0844164 96.8847 0.169244 98.1175C0.288786 98.8076 0.472471 99.4711 0.723216 100.105C1.75535 103.149 4.2249 108.304 10.0591 116.452C15.8962 108.307 18.3658 103.152 19.395 100.105C19.6428 99.4711 19.8294 98.8076 19.949 98.1175C20.2026 96.8818 20.0977 96.3716 20.0977 96.3716ZM10.0591 102.529C6.69737 102.529 3.97124 99.7719 3.97124 96.3716C3.97124 92.9712 6.69737 90.2138 10.0591 90.2138C13.4208 90.2138 16.147 92.9712 16.147 96.3716C16.147 99.7719 13.4208 102.529 10.0591 102.529Z" fill="#2B2B2B"/>
<path d="M10.0595 123.061C11.2994 123.061 12.3045 122.044 12.3045 120.79C12.3045 119.536 11.2994 118.52 10.0595 118.52C8.81959 118.52 7.81445 119.536 7.81445 120.79C7.81445 122.044 8.81959 123.061 10.0595 123.061Z" fill="#2B2B2B"/>
</g>
<defs>
<clipPath id="clip0_1129_135954">
<rect width="358" height="132" fill="white"/>
</clipPath>
</defs>
</svg>
