<svg width="26" height="22" viewBox="0 0 26 22" fill="none" xmlns="http://www.w3.org/2000/svg">
<g clip-path="url(#clip0_1232_3029)">
<path d="M21.2782 4.97568L18.8369 8.61972H23.7195L21.2782 4.97568Z" fill="#345F41"/>
<path d="M21.2783 6.27914L17.6138 11.7439H24.9403L21.2783 6.27914Z" fill="#345F41"/>
<path d="M21.2781 8.23816L16.5537 15.2855H25.9999L21.2781 8.23816Z" fill="#345F41"/>
<path d="M20.7825 11.9795L17.2867 17.1959C17.2211 17.2933 17.1838 17.4061 17.1788 17.5223C17.1738 17.6386 17.2013 17.754 17.2583 17.8564C17.3153 17.9587 17.3997 18.0442 17.5026 18.1038C17.6056 18.1633 17.7232 18.1947 17.843 18.1946H24.8373C24.9571 18.1947 25.0747 18.1633 25.1776 18.1038C25.2806 18.0442 25.365 17.9587 25.422 17.8564C25.479 17.754 25.5065 17.6386 25.5015 17.5223C25.4965 17.4061 25.4592 17.2933 25.3936 17.1959L21.8977 11.9795C21.8375 11.8892 21.7549 11.8149 21.6575 11.7634C21.5601 11.712 21.451 11.6851 21.3401 11.6851C21.2293 11.6851 21.1202 11.712 21.0228 11.7634C20.9254 11.8149 20.8428 11.8892 20.7825 11.9795Z" fill="#345F41"/>
<path d="M17.1759 0L14.3813 4.17414H19.9731L17.1759 0Z" fill="#345F41"/>
<path d="M17.1759 1.49295L12.9814 7.75415H21.373L17.1759 1.49295Z" fill="#345F41"/>
<path d="M17.1763 3.73624L11.769 11.8105H22.5861L17.1763 3.73624Z" fill="#345F41"/>
<path d="M16.612 8.01024L12.6047 13.9872C12.5306 14.0985 12.4885 14.227 12.483 14.3594C12.4775 14.4918 12.5087 14.6233 12.5734 14.74C12.6381 14.8567 12.7338 14.9544 12.8506 15.0229C12.9674 15.0913 13.101 15.1281 13.2374 15.1293H21.2494C21.3863 15.129 21.5205 15.0929 21.6381 15.0248C21.7556 14.9567 21.8521 14.8591 21.9174 14.7422C21.9827 14.6253 22.0143 14.4936 22.009 14.3607C22.0038 14.2278 21.9617 14.0988 21.8874 13.9872L17.888 8.01024C17.8187 7.9072 17.7241 7.82256 17.6127 7.76398C17.5013 7.7054 17.3767 7.67471 17.25 7.67471C17.1233 7.67471 16.9986 7.7054 16.8872 7.76398C16.7758 7.82256 16.6812 7.9072 16.612 8.01024Z" fill="#345F41"/>
<path d="M8.13594 12.4046C7.31076 9.92572 6.19293 4.72214 6.19293 4.72214C6.19293 4.72214 5.06456 9.93084 4.25255 12.4046C3.44055 14.8783 1.2998 18.7298 1.2998 18.7298C2.91541 18.4585 4.55355 18.3342 6.19293 18.3585C7.83319 18.3341 9.47222 18.4584 11.0887 18.7298C11.0887 18.7298 8.95849 14.8809 8.13594 12.4046Z" fill="#EF717A"/>
<path d="M18.9477 4.73239C18.9477 4.73239 18.0276 5.10627 13.2478 5.10627C8.46807 5.10627 6.19287 4.73239 6.19287 4.73239C6.67754 7.32953 7.32644 9.89521 8.13589 12.4148C8.96635 14.8886 11.0886 18.7401 11.0886 18.7401C13.151 18.5031 15.2258 18.3834 17.3026 18.3816C19.4866 18.3857 21.6689 18.4994 23.8408 18.7221C23.8408 18.7221 21.7607 14.8579 20.8881 12.3969C20.0507 9.8912 19.4022 7.32958 18.9477 4.73239Z" fill="#C65454"/>
<path d="M4.57422 18.3944C5.06459 18.3713 5.60768 18.3585 6.19296 18.3585C6.77823 18.3585 7.32133 18.3713 7.81433 18.3944L6.19296 11.2113L4.57422 18.3944Z" fill="#5E345E"/>
<path d="M1.2998 18.8579C1.26866 18.8577 1.2386 18.8467 1.21495 18.8271C1.1913 18.8074 1.1756 18.7802 1.17061 18.7503L0.859522 16.9706C0.854126 16.937 0.862395 16.9027 0.882573 16.875C0.902752 16.8473 0.933254 16.8283 0.967613 16.822C1.00215 16.8168 1.03743 16.8248 1.06598 16.8444C1.09452 16.864 1.11409 16.8937 1.12052 16.927L1.42898 18.7196C1.432 18.7363 1.4316 18.7533 1.4278 18.7698C1.42399 18.7863 1.41686 18.8019 1.40681 18.8157C1.39676 18.8296 1.38399 18.8413 1.36924 18.8503C1.3545 18.8593 1.33806 18.8653 1.32089 18.8681L1.2998 18.8579Z" fill="#8E725E"/>
<path d="M11.0885 18.8579H11.0648C11.0304 18.8516 10.9999 18.8326 10.9797 18.8049C10.9596 18.7772 10.9513 18.7429 10.9567 18.7093L11.2678 16.9168C11.2707 16.9 11.277 16.8839 11.2864 16.8694C11.2957 16.855 11.3079 16.8425 11.3222 16.8326C11.3366 16.8227 11.3527 16.8157 11.3699 16.8119C11.387 16.8081 11.4047 16.8076 11.422 16.8105C11.4393 16.8134 11.4559 16.8195 11.4708 16.8286C11.4856 16.8376 11.4985 16.8495 11.5087 16.8634C11.5188 16.8773 11.5261 16.893 11.53 16.9096C11.5339 16.9263 11.5344 16.9435 11.5314 16.9603L11.2203 18.7401C11.2177 18.7722 11.2026 18.8022 11.1782 18.8241C11.1537 18.8459 11.1217 18.858 11.0885 18.8579Z" fill="#8E725E"/>
<path d="M23.8408 18.8579H23.8197C23.7853 18.8516 23.7548 18.8326 23.7346 18.8049C23.7144 18.7772 23.7062 18.7429 23.7116 18.7093L24.0227 16.9168C24.0256 16.9 24.0319 16.8839 24.0413 16.8694C24.0506 16.855 24.0628 16.8425 24.0771 16.8326C24.0914 16.8227 24.1076 16.8157 24.1247 16.8119C24.1419 16.8081 24.1596 16.8076 24.1769 16.8105C24.1942 16.8134 24.2108 16.8195 24.2256 16.8286C24.2405 16.8376 24.2534 16.8495 24.2635 16.8634C24.2737 16.8773 24.2809 16.893 24.2848 16.9096C24.2888 16.9263 24.2892 16.9435 24.2863 16.9603L23.9752 18.7401C23.9725 18.7727 23.9571 18.803 23.9321 18.8249C23.9071 18.8468 23.8744 18.8586 23.8408 18.8579Z" fill="#8E725E"/>
<path d="M12.9737 6.27914C15.0463 6.14827 17.0728 5.62638 18.9399 4.74265C18.9399 4.74265 18.0198 5.11652 13.24 5.11652C8.46026 5.11652 6.18506 4.74265 6.18506 4.74265C6.18506 4.74265 9.81008 6.40974 12.9737 6.27914Z" fill="#DB6363"/>
<path d="M12.333 9.62612C12.389 10.2245 12.4921 10.8177 12.6415 11.4008C12.7818 11.8982 13.0006 12.3716 13.29 12.8041H18.4731C18.1242 12.3067 17.8366 11.7713 17.6163 11.2087C17.41 10.6937 17.2564 10.1601 17.1576 9.61588L12.333 9.62612Z" fill="#5E345E"/>
<path d="M12.333 9.62101C12.5908 9.53734 12.8149 9.37696 12.9736 9.16262C13.0103 9.06263 13.0203 8.95527 13.0028 8.85051C12.9853 8.74575 12.9408 8.64699 12.8735 8.56339C13.503 8.69558 14.142 8.78118 14.7848 8.81948C15.7419 8.84966 16.6979 8.73563 17.619 8.48145C17.619 8.48145 17.8088 8.90398 17.6532 9.13701C17.5151 9.31759 17.3529 9.4795 17.1708 9.61845C16.3319 9.78104 15.476 9.84552 14.6214 9.81051C13.8551 9.79685 13.0906 9.73354 12.333 9.62101Z" fill="#AA4848"/>
</g>
<defs>
<clipPath id="clip0_1232_3029">
<rect width="26" height="22" fill="white"/>
</clipPath>
</defs>
</svg>
