<svg width="22" height="19" viewBox="0 0 22 19" fill="none" xmlns="http://www.w3.org/2000/svg">
<g clip-path="url(#clip0_1232_9183)">
<path d="M15.7138 9.49108L12.5713 7.6759L9.42873 9.49108L6.28507 7.6759L0 9.71798V11.3063L3.14253 13.1214L0 13.3483V14.9366L6.28507 18.567L9.42873 16.7518L12.5713 18.567L22 13.1214V11.5332L15.7138 9.49108Z" fill="#DBBB91"/>
<path d="M9.42871 7.90173L12.5712 6.08655L15.7138 7.90173L12.5712 9.71578L9.42871 7.90173Z" fill="white"/>
<path d="M12.5713 9.71578L15.7138 7.90173L18.8575 9.71578L15.7138 11.531L12.5713 9.71578Z" fill="#613216"/>
<path d="M3.14258 11.531L6.28625 9.71582L9.42878 11.531L6.28625 13.345L3.14258 11.531Z" fill="white"/>
<path d="M0 9.71578L3.14253 7.90173L6.2862 9.71578L3.14253 11.531L0 9.71578Z" fill="#613216"/>
<path d="M6.28613 13.3449L9.42867 11.5309L12.5712 13.3449L9.42867 15.159L6.28613 13.3449Z" fill="#613216"/>
<path d="M12.5713 13.3449L15.7138 11.5309L18.8575 13.3449L15.7138 15.159L12.5713 13.3449Z" fill="#613216"/>
<path d="M6.28613 9.71578L9.42867 7.90173L12.5712 9.71578L9.42867 11.531L6.28613 9.71578Z" fill="#613216"/>
<path d="M0 13.3449L3.14253 11.5309L6.2862 13.3449L3.14253 15.159L0 13.3449Z" fill="#613216"/>
<path d="M3.14258 15.159L6.28625 13.345L9.42878 15.159L6.28625 16.9742L3.14258 15.159Z" fill="white"/>
<path d="M9.42871 11.531L12.5712 9.71582L15.7138 11.531L12.5712 13.345L9.42871 11.531Z" fill="white"/>
<path d="M3.14258 7.90173L6.28625 6.08655L9.42878 7.90173L6.28625 9.71578L3.14258 7.90173Z" fill="white"/>
<path d="M15.7139 11.531L18.8575 9.71582L22.0001 11.531L18.8575 13.345L15.7139 11.531Z" fill="white"/>
<path d="M9.42871 15.159L12.5712 13.345L15.7138 15.159L12.5712 16.9742L9.42871 15.159Z" fill="white"/>
<path d="M8.16256 8.36682L8.4405 8.8399C9.02697 8.62778 9.66922 8.62778 10.2557 8.8399L10.5348 8.36682C10.9579 8.672 11.0022 9.06567 10.9806 9.58299C10.9988 9.83712 10.8411 10.0958 10.5041 10.2898C9.86656 10.6574 8.83417 10.6574 8.19659 10.2898C7.85624 10.0958 7.70195 9.83599 7.72124 9.58186C7.69401 9.06567 7.73826 8.672 8.16256 8.36682Z" fill="black"/>
<path d="M9.34594 9.65909C10.1373 9.65909 10.7788 9.28881 10.7788 8.83205C10.7788 8.37528 10.1373 8.005 9.34594 8.005C8.5546 8.005 7.91309 8.37528 7.91309 8.83205C7.91309 9.28881 8.5546 9.65909 9.34594 9.65909Z" fill="#4D4D4D"/>
<path d="M9.34609 7.30383H9.90766C10.0211 7.87108 10.1436 8.05827 10.3807 8.51887C10.5157 8.74577 10.4284 9.00103 10.1221 9.17801C9.88166 9.29954 9.61604 9.36287 9.34666 9.36287C9.07727 9.36287 8.81165 9.29954 8.57123 9.17801C8.26379 9.00103 8.17643 8.74463 8.3103 8.52227C8.54854 8.05827 8.67447 7.86994 8.78451 7.30383H9.34609Z" fill="black"/>
<path d="M9.34572 7.58412C9.89208 7.58412 10.335 7.32812 10.335 7.01233C10.335 6.69655 9.89208 6.44055 9.34572 6.44055C8.79936 6.44055 8.35645 6.69655 8.35645 7.01233C8.35645 7.32812 8.79936 7.58412 9.34572 7.58412Z" fill="#333333"/>
<path d="M9.34592 7.12689C9.71872 7.12689 10.0209 6.95267 10.0209 6.73776C10.0209 6.52285 9.71872 6.34863 9.34592 6.34863C8.97312 6.34863 8.6709 6.52285 8.6709 6.73776C8.6709 6.95267 8.97312 7.12689 9.34592 7.12689Z" fill="#4D4D4D"/>
<path d="M9.48641 6.98966C9.97381 6.9108 10.305 6.45177 10.2261 5.96438C10.1473 5.47699 9.68825 5.1458 9.20086 5.22466C8.71347 5.30351 8.38228 5.76254 8.46114 6.24993C8.53999 6.73733 8.99902 7.06851 9.48641 6.98966Z" fill="black"/>
<path d="M8.42378 8.57444V8.56877V8.56196L8.50773 8.3986C8.54404 8.33204 8.57694 8.26851 8.60643 8.208C8.70303 8.02245 8.77911 7.82692 8.83333 7.62488C8.91227 7.64929 8.9931 7.66712 9.07498 7.6782C8.97287 8.15695 8.91501 8.63344 8.69946 9.08156C8.67494 9.07045 8.65108 9.05795 8.62799 9.04412C8.51368 8.98934 8.42533 8.89203 8.3818 8.77298C8.37465 8.73879 8.37469 8.70348 8.38191 8.6693C8.38914 8.63512 8.4034 8.60282 8.42378 8.57444Z" fill="#808080"/>
<path d="M7.83591 9.57394V9.566C7.82719 9.41964 7.83022 9.27282 7.84498 9.12695C7.90862 9.24069 7.99562 9.33967 8.10024 9.41738V10.0652C7.91759 9.92223 7.8223 9.75092 7.83591 9.58188V9.57394Z" fill="#808080"/>
<path d="M8.64582 6.01056C8.62444 5.99415 8.60818 5.97199 8.59893 5.94668C8.58969 5.92136 8.58785 5.89393 8.59364 5.86761V5.84265C8.60335 5.78617 8.62335 5.73195 8.65263 5.68269C8.73205 5.54428 8.85684 5.46714 8.93058 5.51025C9.00432 5.55336 9.00092 5.69971 8.92037 5.83812C8.89126 5.88847 8.85275 5.93276 8.80692 5.96858L8.78764 5.98333C8.76854 6.00005 8.74534 6.01138 8.72042 6.01617C8.6955 6.02095 8.66975 6.01901 8.64582 6.01056Z" fill="#808080"/>
<path d="M11.5024 10.0345L11.7803 10.5076C12.3668 10.2955 13.0091 10.2955 13.5955 10.5076L13.8746 10.0345C14.2978 10.3397 14.342 10.7334 14.3205 11.2496C14.3398 11.5048 14.1809 11.7624 13.844 11.9575C13.2064 12.3251 12.174 12.3251 11.5364 11.9575C11.1961 11.7624 11.0418 11.5037 11.0611 11.2496C11.0339 10.7334 11.0781 10.3397 11.5024 10.0345Z" fill="#FBA53B"/>
<path d="M12.6858 11.3256C13.4771 11.3256 14.1186 10.9553 14.1186 10.4986C14.1186 10.0418 13.4771 9.67151 12.6858 9.67151C11.8944 9.67151 11.2529 10.0418 11.2529 10.4986C11.2529 10.9553 11.8944 11.3256 12.6858 11.3256Z" fill="#FFDEAB"/>
<path d="M11.9698 6.723C11.5739 6.9499 11.5739 7.32202 11.9698 7.55005C12.1917 7.66302 12.4372 7.72191 12.6862 7.72191C12.9353 7.72191 13.1807 7.66302 13.4027 7.55005C13.7975 7.32315 13.7975 6.95104 13.4027 6.723C13.1805 6.61074 12.9351 6.55225 12.6862 6.55225C12.4373 6.55225 12.1919 6.61074 11.9698 6.723Z" fill="#FFDEAB"/>
<path d="M11.5686 10.3602L11.6729 7.12573H13.6991L13.8046 10.3602C13.8046 10.5292 13.7003 10.7005 13.4768 10.8287C13.2319 10.9534 12.9609 11.0184 12.686 11.0184C12.4112 11.0184 12.1402 10.9534 11.8953 10.8287C11.6718 10.7005 11.5629 10.5303 11.5686 10.3602Z" fill="#FBA53B"/>
<path d="M11.353 7.13824V6.33275H11.7909C12.0708 6.20108 12.3762 6.13281 12.6855 6.13281C12.9947 6.13281 13.3002 6.20108 13.58 6.33275H14.0179V7.1337C14.0179 7.3311 13.8875 7.52737 13.6277 7.67826C13.1069 7.97889 12.2663 7.97889 11.7433 7.67826C11.4835 7.53191 11.353 7.33564 11.353 7.13824Z" fill="#FBA53B"/>
<path d="M11.759 6.44614L11.3858 6.5074C11.2905 6.26008 11.4096 5.99007 11.7443 5.79721C11.8148 5.75663 11.8888 5.72246 11.9655 5.69511L12.1776 5.83578L12.1912 6.06268L12.51 5.98894L12.5191 5.76204V5.7541L12.4658 5.58392C12.8661 5.5384 13.2709 5.61304 13.6286 5.79834C13.6985 5.83847 13.7636 5.88643 13.8226 5.94129V6.12394L13.8998 6.19542H13.9939C14.0756 6.43706 13.9531 6.69799 13.6286 6.88632C13.1079 7.18696 12.2673 7.18696 11.7443 6.88632C11.6902 6.85568 11.639 6.82037 11.5911 6.78081L11.9258 6.64127L12.0267 6.56299L11.8498 6.5437L11.759 6.44614Z" fill="#FFDEAB"/>
<path d="M12.0063 5.90959C12.0611 5.87876 12.1184 5.85257 12.1776 5.83131L12.1912 6.05821L12.51 5.98447L12.519 5.75757C12.8072 5.7235 13.0989 5.77686 13.3563 5.91073C13.6501 6.0809 13.7125 6.33389 13.5412 6.53923C13.489 6.60003 13.4263 6.65111 13.3563 6.69012C13.147 6.79582 12.9158 6.85088 12.6813 6.85088C12.4468 6.85088 12.2156 6.79582 12.0063 6.69012C11.9362 6.65111 11.8736 6.60003 11.8213 6.53923C11.65 6.33276 11.7124 6.07976 12.0063 5.90959Z" fill="#FBA53B"/>
<path d="M11.8213 6.53804C11.8736 6.59884 11.9362 6.64992 12.0062 6.68893C12.2155 6.79463 12.4467 6.84969 12.6812 6.84969C12.9157 6.84969 13.1469 6.79463 13.3563 6.68893C13.4263 6.64992 13.4889 6.59884 13.5412 6.53804C13.4891 6.47737 13.4264 6.42664 13.3563 6.38829C13.1471 6.28198 12.9158 6.22656 12.6812 6.22656C12.4466 6.22656 12.2153 6.28198 12.0062 6.38829C11.936 6.42664 11.8734 6.47737 11.8213 6.53804Z" fill="#FFDEAB"/>
<path d="M13.4491 6.96686L13.2222 6.75244L12.8921 6.83639L12.9636 7.08938V7.29926C13.1319 7.2905 13.2968 7.24888 13.4491 7.17674V6.96686Z" fill="#FFDEAB"/>
<path d="M13.2088 6.97375L12.9468 7.02594L12.9638 7.08947V7.29935C13.1321 7.29059 13.2971 7.24897 13.4494 7.17683L13.2088 6.97375Z" fill="#FFC375"/>
<path d="M12.5193 5.75644L12.5102 5.98333L12.1914 6.05708L12.1778 5.83018L12.1597 5.8177C12.2535 5.78848 12.35 5.76872 12.4478 5.7587L12.466 5.57605L12.5193 5.74622V5.75644Z" fill="#FFC375"/>
<path d="M11.5912 6.77519V6.97373C11.5086 6.90038 11.4388 6.81372 11.3848 6.71733V6.50291L11.7591 6.44165L11.8215 6.53808L12.0269 6.55737L11.9259 6.63565L11.5912 6.77519Z" fill="#FFDEAB"/>
<path d="M11.8215 6.67869L11.7671 6.62537L11.3848 6.71726C11.4325 6.81774 11.5033 6.90557 11.5912 6.97366V6.77512L11.8215 6.67869Z" fill="#FFC375"/>
<path d="M12.4659 5.57947L12.5192 5.75758L12.5102 5.98448L12.4478 5.76212L12.4659 5.57947Z" fill="#FFDEAB"/>
<path d="M13.8995 6.18974L13.6227 6.21017L13.5932 6.33723C13.569 6.29587 13.5397 6.25775 13.5059 6.22378V6.01957L13.8224 5.93335V6.116L13.8995 6.18974Z" fill="#FFC375"/>
<path d="M13.8224 6.11946L13.5059 6.22723V6.02302L13.8224 5.93567V6.11946Z" fill="#FFDEAB"/>
<path d="M11.9986 10.7141L11.9623 10.6959C11.7921 10.5972 11.6968 10.469 11.7013 10.3465V10.2092L11.7841 7.64417L12.0394 7.71224L11.9986 10.7141Z" fill="white"/>
<path d="M11.4356 6.97939L11.6523 7.16544V7.41389C11.5868 7.37485 11.5314 7.32092 11.4906 7.25646C11.4498 7.19201 11.4247 7.11885 11.4175 7.04292V6.9635L11.4356 6.97939Z" fill="white"/>
<path d="M11.1678 11.2337V11.2258C11.1586 11.0794 11.1616 10.9326 11.1769 10.7867C11.2407 10.9003 11.3272 10.9996 11.431 11.0783V11.7261C11.2495 11.582 11.1542 11.4118 11.1667 11.2417L11.1678 11.2337Z" fill="white"/>
<path d="M17.8692 9.99597L18.1472 10.4691C18.7336 10.2569 19.3759 10.2569 19.9624 10.4691L20.2414 9.99597C20.6646 10.3011 20.7089 10.696 20.6873 11.2121C20.7066 11.4663 20.5478 11.7249 20.2108 11.9189C19.5744 12.2865 18.5408 12.2865 17.9033 11.9189C17.5629 11.7249 17.4086 11.4651 17.4279 11.2121C17.4018 10.696 17.4449 10.3034 17.8692 9.99597Z" fill="black"/>
<path d="M19.0525 11.2881C19.8438 11.2881 20.4853 10.9178 20.4853 10.4611C20.4853 10.0043 19.8438 9.63403 19.0525 9.63403C18.2611 9.63403 17.6196 10.0043 17.6196 10.4611C17.6196 10.9178 18.2611 11.2881 19.0525 11.2881Z" fill="#4D4D4D"/>
<path d="M19.0526 8.93298H19.6142C19.7276 9.50023 19.8502 9.68855 20.0873 10.1492C20.2223 10.3761 20.1349 10.6302 19.8286 10.8072C19.5884 10.9295 19.3227 10.9933 19.0532 10.9933C18.7837 10.9933 18.5179 10.9295 18.2778 10.8072C17.9703 10.6302 17.8841 10.3738 18.0168 10.1526C18.2562 9.68855 18.381 9.49909 18.491 8.93298H19.0526Z" fill="black"/>
<path d="M19.0528 9.21314C19.5991 9.21314 20.042 8.95715 20.042 8.64136C20.042 8.32558 19.5991 8.06958 19.0528 8.06958C18.5064 8.06958 18.0635 8.32558 18.0635 8.64136C18.0635 8.95715 18.5064 9.21314 19.0528 9.21314Z" fill="#333333"/>
<path d="M19.0525 8.75709C19.4253 8.75709 19.7275 8.58236 19.7275 8.36683C19.7275 8.15129 19.4253 7.97656 19.0525 7.97656C18.6797 7.97656 18.3774 8.15129 18.3774 8.36683C18.3774 8.58236 18.6797 8.75709 19.0525 8.75709Z" fill="#4D4D4D"/>
<path d="M19.583 8.45843C19.9805 8.16558 20.0653 7.60593 19.7725 7.20843C19.4796 6.81093 18.92 6.72609 18.5225 7.01894C18.125 7.31179 18.0401 7.87143 18.333 8.26894C18.6258 8.66644 19.1855 8.75128 19.583 8.45843Z" fill="black"/>
<path d="M18.13 10.2036V10.1979V10.1911C18.1606 10.1333 18.1879 10.0777 18.2151 10.0289C18.2503 9.96081 18.2832 9.89842 18.3138 9.83716C18.4094 9.65117 18.4855 9.45574 18.5407 9.25403C18.6193 9.27839 18.6998 9.29659 18.7812 9.30849C18.6791 9.7861 18.6213 10.2626 18.4057 10.7107C18.3823 10.6994 18.3584 10.6869 18.3342 10.6733C18.2201 10.6182 18.1319 10.521 18.088 10.4021C18.0812 10.3679 18.0813 10.3327 18.0886 10.2985C18.0958 10.2644 18.1099 10.2321 18.13 10.2036Z" fill="#808080"/>
<path d="M17.546 11.2031V11.1952C17.5376 11.0488 17.541 10.9019 17.5562 10.7561C17.6193 10.8702 17.7059 10.9696 17.8103 11.0477V11.6955C17.6277 11.5514 17.5324 11.3812 17.546 11.211V11.2031Z" fill="#808080"/>
<path d="M18.3527 7.63958C18.3315 7.62309 18.3153 7.60092 18.306 7.57563C18.2968 7.55035 18.2949 7.52296 18.3005 7.49664V7.47168C18.3103 7.4152 18.3303 7.36098 18.3595 7.31172C18.439 7.17331 18.5637 7.09616 18.6386 7.13927C18.7135 7.18239 18.7078 7.32874 18.6284 7.46714C18.5989 7.51725 18.5605 7.56148 18.515 7.59761C18.509 7.60315 18.5026 7.60809 18.4957 7.61236C18.4766 7.6295 18.4532 7.64109 18.428 7.64589C18.4028 7.65069 18.3768 7.64851 18.3527 7.63958Z" fill="#808080"/>
<path d="M11.4594 13.8385L11.7419 14.3195C12.3369 14.1051 12.9881 14.1051 13.5831 14.3195L13.8656 13.8385C14.2967 14.1482 14.341 14.5487 14.3194 15.074C14.3398 15.3326 14.1776 15.5947 13.8361 15.7921C13.1883 16.1665 12.1344 16.1665 11.4911 15.7921C11.1508 15.5947 10.9874 15.3326 11.0067 15.074C10.984 14.5487 11.0283 14.1482 11.4594 13.8385Z" fill="black"/>
<path d="M12.6623 15.151C13.4668 15.151 14.1189 14.7747 14.1189 14.3104C14.1189 13.8461 13.4668 13.4697 12.6623 13.4697C11.8577 13.4697 11.2056 13.8461 11.2056 14.3104C11.2056 14.7747 11.8577 15.151 12.6623 15.151Z" fill="#4D4D4D"/>
<path d="M11.609 13.9962C11.7 13.8515 11.7695 13.6945 11.8155 13.5299H13.5081C13.5536 13.6934 13.6227 13.8494 13.7135 13.9928C13.8508 14.2197 13.7623 14.4829 13.4503 14.6621C13.2062 14.7863 12.9362 14.851 12.6624 14.851C12.3885 14.851 12.1186 14.7863 11.8745 14.6621C11.5625 14.4829 11.474 14.2219 11.609 13.9962Z" fill="black"/>
<path d="M10.9422 11.2291C11.0386 11.3426 11.3767 11.5888 11.548 11.5128C11.6209 11.4845 11.6896 11.4463 11.7522 11.3993C11.8407 11.5352 11.9567 11.6511 12.0925 11.7397C12.0925 11.7397 11.5434 12.3693 11.4969 12.7176C11.4255 13.2542 11.6478 13.8305 11.7011 13.9735C11.7222 14.0431 11.7574 14.1076 11.8047 14.1628C11.852 14.2181 11.9102 14.2629 11.9757 14.2945C12.3003 14.4599 12.6734 14.5034 13.0274 14.4171C13.1391 14.3921 13.2465 14.3508 13.3461 14.2945C13.4483 14.2408 13.5329 14.1589 13.5901 14.0586C13.6138 14.0141 13.6274 13.9649 13.6298 13.9145L13.6876 13.3847C14.4194 12.0233 13.8328 10.7424 12.9559 10.1094C12.9524 9.86074 12.8644 9.62068 12.7063 9.42871L12.451 9.82238C12.3339 9.82129 12.217 9.83078 12.1016 9.85074C12.0735 9.86121 12.0462 9.87372 12.0199 9.88818C11.8554 9.97553 11.5502 10.1775 11.5502 10.1775L11.4731 10.3545C11.4731 10.3545 10.9739 10.6381 10.941 10.7095C10.9081 10.781 10.8457 11.1191 10.9422 11.2291Z" fill="#4D4D4D"/>
<path d="M10.9422 11.2291C11.0386 11.3426 11.3767 11.5888 11.548 11.5128C11.621 11.4845 11.6897 11.4463 11.7522 11.3993C11.8408 11.5352 11.9567 11.6511 12.0926 11.7397C12.0926 11.7397 11.5435 12.3693 11.497 12.7176C11.4255 13.2542 11.6479 13.8305 11.7012 13.9735C11.7222 14.0431 11.7575 14.1075 11.8048 14.1628C11.852 14.2181 11.9102 14.2629 11.9757 14.2945C12.3003 14.4599 12.6735 14.5033 13.0274 14.417L13.0875 14.1822V13.6615C13.8817 12.0414 13.2089 10.8457 12.3365 10.4327L12.02 9.98914L11.9201 10.3034L11.556 10.1899L11.4788 10.3669C11.4788 10.3669 10.9796 10.6505 10.9467 10.722C10.9138 10.7935 10.8458 11.1191 10.9422 11.2291Z" fill="black"/>
<path d="M12.7073 9.44116L12.6619 9.98912L12.4531 9.83483L12.7073 9.44116Z" fill="black"/>
<path d="M12.021 9.8995V9.98913L12.5009 10.1502L12.662 9.98913L12.4521 9.8337C12.335 9.83261 12.2181 9.8421 12.1027 9.86206C12.0746 9.87254 12.0473 9.88505 12.021 9.8995Z" fill="black"/>
<path d="M11.743 13.6684C11.6391 13.3656 11.6004 13.0444 11.6295 12.7256C11.6624 12.4726 12.047 11.9848 12.1968 11.818L12.3102 11.6864C12.1236 11.6153 11.9671 11.4823 11.8666 11.3098L11.7747 11.1373C11.9052 11.3642 12.0663 11.43 12.5621 11.6093C11.777 12.577 11.6647 12.6133 12.0209 13.8102C11.8405 14.0371 11.7373 14.3366 11.9381 14.5238C11.8239 14.4678 11.7357 14.3698 11.6919 14.2504C11.6837 14.2164 11.6824 14.1811 11.6881 14.1466C11.6937 14.1122 11.7062 14.0791 11.7248 14.0496C11.7487 14.0129 11.7706 13.975 11.7906 13.9361L11.819 13.8828L11.7986 13.8261C11.7781 13.775 11.76 13.7228 11.743 13.6684Z" fill="#808080"/>
<path d="M11.0601 10.7708L11.1021 10.7379C11.0715 10.9875 11.4493 11.3244 11.5854 11.3573C11.5786 11.3573 11.5003 11.3664 11.4924 11.3698C11.4864 11.371 11.4802 11.371 11.4742 11.3698C11.3517 11.3698 11.1191 11.2042 11.0443 11.1191C11.0192 11.0036 11.0247 10.8836 11.0601 10.7708Z" fill="#808080"/>
<path d="M11.1407 15.0683V15.0604C11.1323 14.9117 11.1357 14.7626 11.1509 14.6145C11.2156 14.7298 11.3037 14.8303 11.4096 14.9095V15.5686C11.2235 15.4223 11.1271 15.2487 11.1407 15.0762V15.0683Z" fill="#808080"/>
<g style="mix-blend-mode:multiply">
<path d="M6.28613 16.9742V18.5637L9.42867 16.7496V15.1591L6.28613 16.9742Z" fill="#DBBB91"/>
</g>
<g style="mix-blend-mode:multiply">
<path d="M12.5713 16.9742V18.5636L22 13.1203V11.5309L12.5713 16.9742Z" fill="#DBBB91"/>
</g>
<path d="M14.7792 8.19897L15.0605 8.67773C15.6526 8.46447 16.3006 8.46447 16.8927 8.67773L17.1741 8.19897C17.6029 8.50756 17.6472 8.90576 17.6279 9.42876C17.6472 9.68629 17.4872 9.94722 17.1457 10.1435C16.5013 10.5156 15.4565 10.5156 14.8121 10.1435C14.4717 9.94722 14.3106 9.68969 14.3299 9.42876C14.3027 8.90576 14.3503 8.50756 14.7792 8.19897Z" fill="black"/>
<path d="M15.9772 9.50593C16.778 9.50593 17.4271 9.13108 17.4271 8.66867C17.4271 8.20627 16.778 7.83142 15.9772 7.83142C15.1765 7.83142 14.5273 8.20627 14.5273 8.66867C14.5273 9.13108 15.1765 9.50593 15.9772 9.50593Z" fill="#4D4D4D"/>
<path d="M14.9286 8.35668C15.3563 7.70208 15.3223 6.39628 15.2781 5.33667H16.6746C16.6304 6.39628 16.5963 7.70208 17.0229 8.35327C17.159 8.58017 17.0717 8.83997 16.7608 9.01922C16.5178 9.14286 16.249 9.20731 15.9763 9.20731C15.7037 9.20731 15.4349 9.14286 15.1918 9.01922C14.881 8.83997 14.7936 8.58131 14.9286 8.35668Z" fill="black"/>
<path d="M15.977 5.62022C16.6142 5.62022 17.1308 5.32207 17.1308 4.95427C17.1308 4.58648 16.6142 4.28833 15.977 4.28833C15.3398 4.28833 14.8232 4.58648 14.8232 4.95427C14.8232 5.32207 15.3398 5.62022 15.977 5.62022Z" fill="#333333"/>
<path d="M15.2723 4.17722C14.8832 4.40412 14.8832 4.76602 15.2723 4.99065C15.4907 5.10138 15.732 5.15908 15.9768 5.15908C16.2216 5.15908 16.463 5.10138 16.6814 4.99065C17.0705 4.76375 17.0705 4.40185 16.6814 4.17722C16.463 4.06649 16.2216 4.00879 15.9768 4.00879C15.732 4.00879 15.4907 4.06649 15.2723 4.17722Z" fill="#4D4D4D"/>
<path d="M14.9468 3.79944H17.0059L16.6224 4.51757C16.5825 4.58579 16.5243 4.64157 16.4545 4.67867C16.3063 4.75364 16.1425 4.7927 15.9763 4.7927C15.8102 4.7927 15.6464 4.75364 15.4981 4.67867C15.4283 4.64157 15.3702 4.58579 15.3302 4.51757L14.9468 3.79944Z" fill="black"/>
<path d="M14.9039 3.55433C14.9715 3.09659 15.1197 2.65447 15.3418 2.24854H16.617C16.8387 2.6549 16.9866 3.09741 17.0537 3.55546C17.0787 3.73358 16.9755 3.9185 16.7384 4.05577C16.5023 4.17548 16.2413 4.23785 15.9765 4.23785C15.7118 4.23785 15.4508 4.17548 15.2147 4.05577C14.9833 3.91737 14.8699 3.73245 14.9039 3.55433Z" fill="black"/>
<path d="M15.5163 2.05348C15.2622 2.19983 15.2622 2.43807 15.5163 2.58442C15.6587 2.65712 15.8164 2.69503 15.9763 2.69503C16.1362 2.69503 16.2939 2.65712 16.4363 2.58442C16.6916 2.43807 16.6916 2.19983 16.4363 2.05348C16.2939 1.98078 16.1362 1.94287 15.9763 1.94287C15.8164 1.94287 15.6587 1.98078 15.5163 2.05348Z" fill="#4D4D4D"/>
<path d="M15.5957 2.10786C15.5957 2.20896 15.6359 2.30591 15.7074 2.3774C15.7788 2.44889 15.8758 2.48905 15.9769 2.48905C16.078 2.48905 16.1749 2.44889 16.2464 2.3774C16.3179 2.30591 16.3581 2.20896 16.3581 2.10786C16.3581 1.60869 15.9769 1.07434 15.9769 1.07434C15.9769 1.07434 15.5957 1.54516 15.5957 2.10786Z" fill="#FBA53B"/>
<path d="M15.0365 3.55668C15.089 3.22157 15.1827 2.89425 15.3156 2.58215C15.3556 2.62105 15.4001 2.65495 15.4483 2.68312L15.4959 2.70808C15.2463 3.46932 15.1715 3.53285 15.6672 4.58452C15.6319 4.572 15.5978 4.55644 15.5651 4.53801C15.5185 4.51318 15.4794 4.47636 15.4517 4.43137L15.4177 4.36897L15.1749 3.91518L15.0682 3.71664C15.0401 3.66835 15.0289 3.61205 15.0365 3.55668Z" fill="#808080"/>
<path d="M14.4521 9.41173V9.40379C14.4434 9.25592 14.4464 9.10759 14.4612 8.96021C14.5259 9.07483 14.6136 9.17486 14.7187 9.25404V9.90977C14.5349 9.76456 14.4385 9.59211 14.4521 9.41967V9.41173Z" fill="#808080"/>
<path d="M14.9991 8.60961C14.9909 8.57607 14.9895 8.54123 14.995 8.50714C15.0004 8.47306 15.0126 8.4404 15.0308 8.41108C15.1053 8.29309 15.1655 8.16665 15.2101 8.03442C15.4268 7.42067 15.437 6.54484 15.4109 5.66675C15.4888 5.68829 15.568 5.70496 15.648 5.71667C15.6673 6.7933 15.8454 7.98564 15.2747 8.90571L15.2441 8.88983C15.1293 8.83161 15.0415 8.73118 14.9991 8.60961Z" fill="#808080"/>
<path d="M4.95075 13.7817L5.2321 14.2605C5.82421 14.0472 6.47218 14.0472 7.0643 14.2605L7.34678 13.7817C7.77449 14.0903 7.81987 14.4885 7.80058 15.0115C7.81987 15.2691 7.6599 15.53 7.31956 15.7274C6.67403 16.0995 5.62917 16.0995 4.98478 15.7274C4.64443 15.53 4.48333 15.2736 4.50262 15.0115C4.47766 14.4885 4.52191 14.0903 4.95075 13.7817Z" fill="#FBA53B"/>
<path d="M6.1491 15.0887C6.94984 15.0887 7.59897 14.7138 7.59897 14.2514C7.59897 13.789 6.94984 13.4142 6.1491 13.4142C5.34835 13.4142 4.69922 13.789 4.69922 14.2514C4.69922 14.7138 5.34835 15.0887 6.1491 15.0887Z" fill="#FFDEAB"/>
<path d="M5.10078 13.9395C5.19116 13.7951 5.26031 13.6384 5.30612 13.4744H6.99083C7.03657 13.6372 7.10534 13.7927 7.19504 13.9361C7.33118 14.163 7.24383 14.4228 6.93298 14.602C6.68995 14.7257 6.42114 14.7901 6.14848 14.7901C5.87581 14.7901 5.607 14.7257 5.36398 14.602C5.05426 14.4228 4.96577 14.1641 5.10078 13.9395Z" fill="#FBA53B"/>
<path d="M4.43241 11.1849C4.52884 11.2983 4.86578 11.5422 5.03595 11.4662C5.10885 11.4386 5.17727 11.4004 5.23902 11.3528C5.32788 11.4884 5.44374 11.6043 5.57937 11.6931C5.57937 11.6931 5.03368 12.3205 4.9883 12.6677C4.9157 13.202 5.13692 13.7749 5.19024 13.9156C5.21161 13.9847 5.24688 14.0488 5.2939 14.1038C5.34091 14.1588 5.39868 14.2036 5.46365 14.2355C5.78711 14.3994 6.15843 14.4424 6.51079 14.3569C6.62187 14.3316 6.72882 14.2908 6.82844 14.2355C6.93 14.1818 7.0142 14.1004 7.07123 14.0007C7.09434 13.9559 7.10786 13.9069 7.11093 13.8566L7.16879 13.3291C7.896 11.9802 7.31287 10.6982 6.43932 10.0685C6.43508 9.82228 6.3475 9.58473 6.19086 9.39465L5.93787 9.78605C5.82078 9.78496 5.70383 9.79445 5.58845 9.81442C5.56083 9.82516 5.53392 9.83767 5.5079 9.85185C5.34454 9.93921 5.04049 10.14 5.04049 10.14L4.96335 10.317C4.96335 10.317 4.46758 10.5983 4.43354 10.6698C4.39951 10.7413 4.34051 11.0748 4.43241 11.1849Z" fill="#FFDEAB"/>
<path d="M4.43241 11.1849C4.52884 11.2984 4.86578 11.5423 5.03595 11.4663C5.10885 11.4386 5.17727 11.4004 5.23902 11.3528C5.32788 11.4885 5.44374 11.6043 5.57937 11.6932C5.57937 11.6932 5.03368 12.3205 4.9883 12.6677C4.9157 13.202 5.13692 13.775 5.19024 13.9156C5.21161 13.9848 5.24688 14.0488 5.2939 14.1038C5.34091 14.1589 5.39868 14.2037 5.46365 14.2356C5.78711 14.3994 6.15843 14.4425 6.51079 14.357L6.56978 14.1232V13.6048C7.35712 11.9927 6.69231 10.8026 5.82329 10.3919L5.5079 9.94946L5.40239 10.2637L5.04049 10.1503L4.96335 10.3272C4.96335 10.3272 4.46758 10.6086 4.43354 10.6801C4.39951 10.7515 4.34051 11.0749 4.43241 11.1849Z" fill="#FBA53B"/>
<path d="M6.19293 9.40491L6.14869 9.9506L5.93994 9.79631L6.19293 9.40491Z" fill="#FBA53B"/>
<path d="M5.51025 9.86093V9.94942L5.98787 10.1105L6.14897 9.94942L5.94023 9.79513C5.82314 9.79404 5.70618 9.80353 5.5908 9.82349C5.56318 9.83424 5.53628 9.84674 5.51025 9.86093Z" fill="#FBA53B"/>
<path d="M5.23442 13.6127C5.13101 13.3111 5.09235 12.991 5.12097 12.6734C5.155 12.4227 5.53733 11.936 5.68141 11.7658L5.79486 11.6353C5.60912 11.5643 5.45335 11.4318 5.35354 11.2598L5.26165 11.0885C5.39211 11.3154 5.55208 11.3801 6.04558 11.5582C5.26391 12.5214 5.1516 12.5577 5.5067 13.7489C5.32745 13.9758 5.22421 14.273 5.42501 14.4602C5.31135 14.4043 5.22359 14.3068 5.17996 14.1879C5.17124 14.1542 5.16957 14.1191 5.17503 14.0848C5.1805 14.0504 5.19299 14.0176 5.21173 13.9883C5.23555 13.9519 5.25597 13.9168 5.27753 13.8748L5.30589 13.8215L5.28547 13.7648C5.26845 13.7194 5.2503 13.6661 5.23442 13.6127Z" fill="white"/>
<path d="M4.55396 10.7288C4.56701 10.7167 4.58105 10.7057 4.59593 10.6959C4.5653 10.9444 4.93628 11.2791 5.07695 11.312C5.07015 11.312 4.993 11.321 4.98392 11.3244C4.978 11.3262 4.9717 11.3262 4.96578 11.3244C4.84439 11.3244 4.61295 11.1599 4.53807 11.0748C4.51281 10.9601 4.51829 10.8408 4.55396 10.7288Z" fill="white"/>
<path d="M4.63416 15.0024V14.9945C4.62487 14.8466 4.6279 14.6983 4.64323 14.5509C4.70794 14.6655 4.79562 14.7656 4.90076 14.8447V15.5005C4.81934 15.447 4.75232 15.3744 4.70563 15.2889C4.65894 15.2034 4.634 15.1078 4.63302 15.0104L4.63416 15.0024Z" fill="white"/>
<path d="M5.03698 6.41553L5.31833 6.89428C5.91248 6.68176 6.56225 6.68377 7.15507 6.89995L7.43642 6.4212C7.86526 6.72978 7.9095 7.12912 7.89022 7.65098C7.9095 7.90851 7.74954 8.17058 7.40806 8.36685C6.76367 8.73896 5.71881 8.73896 5.07442 8.36685C4.73407 8.17058 4.57297 7.91305 4.59226 7.65098C4.5639 7.12685 4.60814 6.72411 5.03698 6.41553Z" fill="#FBA53B"/>
<path d="M5.20961 6.29302C4.64237 6.61976 4.64237 7.1507 5.20961 7.47743C5.77686 7.80416 6.69352 7.80416 7.25963 7.47743C7.82574 7.1507 7.82688 6.61976 7.25963 6.29302C6.69239 5.96629 5.77572 5.96629 5.20961 6.29302Z" fill="#FFDEAB"/>
<path d="M5.18684 6.57319C5.61567 5.91859 5.58051 4.61393 5.53626 3.55432H6.92828C6.88403 4.61393 6.85 5.91859 7.27657 6.56979C7.4127 6.79669 7.32535 7.05649 7.0145 7.23687C6.77258 7.35912 6.50542 7.4231 6.23437 7.42369C5.96332 7.42428 5.69589 7.36147 5.45344 7.24027C5.13919 7.05649 5.05183 6.79782 5.18684 6.57319Z" fill="#FBA53B"/>
<path d="M6.23532 3.83689C6.87253 3.83689 7.38909 3.53874 7.38909 3.17095C7.38909 2.80316 6.87253 2.505 6.23532 2.505C5.59811 2.505 5.08154 2.80316 5.08154 3.17095C5.08154 3.53874 5.59811 3.83689 6.23532 3.83689Z" fill="#FFC375"/>
<path d="M5.53062 2.39377C5.14149 2.62067 5.14149 2.98257 5.53062 3.2072C5.74896 3.31793 5.99032 3.37563 6.23514 3.37563C6.47995 3.37563 6.72131 3.31793 6.93965 3.2072C7.32878 2.98031 7.32878 2.6184 6.93965 2.39377C6.72131 2.28305 6.47995 2.22534 6.23514 2.22534C5.99032 2.22534 5.74896 2.28305 5.53062 2.39377Z" fill="#FFDEAB"/>
<path d="M5.20508 1.44641H7.26871L6.88526 2.73065C6.8449 2.79827 6.78685 2.85359 6.71735 2.89062C6.5691 2.96559 6.40529 3.00465 6.23916 3.00465C6.07303 3.00465 5.90923 2.96559 5.76098 2.89062C5.69148 2.85359 5.63343 2.79827 5.59307 2.73065L5.20508 1.44641Z" fill="#FBA53B"/>
<path d="M5.31374 1.03687C5.36693 0.983129 5.42725 0.936941 5.49299 0.899592C5.72286 0.78272 5.97708 0.721802 6.23495 0.721802C6.49282 0.721802 6.74704 0.78272 6.9769 0.899592C7.0423 0.936943 7.10224 0.983137 7.15502 1.03687H7.28435V1.32843C7.28435 1.48272 7.18111 1.63814 6.9769 1.75613C6.74704 1.873 6.49282 1.93392 6.23495 1.93392C5.97708 1.93392 5.72286 1.873 5.49299 1.75613C5.28765 1.64268 5.18555 1.48272 5.18555 1.32843V1.03687H5.31374Z" fill="#FBA53B"/>
<path d="M6.23495 1.64279C6.81452 1.64279 7.28435 1.37155 7.28435 1.03697C7.28435 0.702386 6.81452 0.431152 6.23495 0.431152C5.65538 0.431152 5.18555 0.702386 5.18555 1.03697C5.18555 1.37155 5.65538 1.64279 6.23495 1.64279Z" fill="#FFDEAB"/>
<path d="M5.55771 0.719221L5.72561 0.546778H5.85381C6.10225 0.470735 6.36775 0.470735 6.61619 0.546778H6.74325L6.91229 0.714682C7.087 0.888259 7.04616 1.11402 6.78976 1.26264C6.61786 1.34993 6.42779 1.39543 6.235 1.39543C6.04221 1.39543 5.85213 1.34993 5.68023 1.26264C5.42271 1.11402 5.38186 0.892798 5.55771 0.719221Z" fill="#FBA53B"/>
<path d="M5.81861 0.482165C5.59171 0.6149 5.59171 0.82932 5.81861 0.962055C5.94763 1.02753 6.09028 1.06165 6.23497 1.06165C6.37966 1.06165 6.5223 1.02753 6.65132 0.962055C6.87822 0.82932 6.87822 0.6149 6.65132 0.482165C6.5223 0.41669 6.37966 0.382568 6.23497 0.382568C6.09028 0.382568 5.94763 0.41669 5.81861 0.482165Z" fill="#FFDEAB"/>
<path d="M5.85156 0.382324C5.85134 0.458212 5.87364 0.532461 5.91564 0.595669C5.95763 0.658877 6.01744 0.708203 6.08749 0.7374C6.15754 0.766597 6.23467 0.774352 6.30913 0.759685C6.38359 0.745017 6.45202 0.708586 6.50576 0.655004C6.5595 0.601422 6.59614 0.5331 6.61103 0.458686C6.62591 0.384272 6.61839 0.307112 6.5894 0.236978C6.56041 0.166844 6.51126 0.10689 6.44817 0.0647048C6.38509 0.0225196 6.31091 3.3214e-07 6.23502 0C6.13352 -4.44235e-07 6.03616 0.0402447 5.96428 0.111912C5.8924 0.183579 5.85186 0.280821 5.85156 0.382324Z" fill="black"/>
<path d="M4.72078 7.62942V7.62148C4.71239 7.4732 4.71581 7.32449 4.73099 7.17676C4.79496 7.29222 4.88274 7.39276 4.98852 7.47173V8.12746C4.8036 7.98225 4.70717 7.80867 4.72078 7.63736V7.62942Z" fill="white"/>
<path d="M5.26876 6.82622C5.26017 6.79278 5.25846 6.75794 5.26373 6.72382C5.26899 6.68969 5.28113 6.65699 5.2994 6.62769C5.3758 6.50834 5.43787 6.38039 5.48431 6.2465C5.69987 5.63274 5.71121 4.75578 5.68398 3.87769C5.76227 3.89961 5.84184 3.91666 5.92223 3.92874C5.94151 5.00537 6.11849 6.19772 5.54784 7.11665L5.51721 7.10077C5.40131 7.04576 5.31196 6.94703 5.26876 6.82622Z" fill="white"/>
<path d="M5.39466 1.56786L5.38672 1.54517C5.39916 1.55377 5.41203 1.56172 5.42529 1.56899C5.56096 1.64492 5.70811 1.69818 5.86093 1.72668L5.91312 2.80332C5.88222 2.79161 5.85227 2.77758 5.8235 2.76134C5.7784 2.73788 5.73952 2.70405 5.71005 2.66264L5.38672 1.56786H5.39466Z" fill="white"/>
</g>
<defs>
<clipPath id="clip0_1232_9183">
<rect width="22" height="18.5648" fill="white"/>
</clipPath>
</defs>
</svg>
