<svg width="17" height="23" viewBox="0 0 17 23" fill="none" xmlns="http://www.w3.org/2000/svg">
<g clip-path="url(#clip0_1232_2941)">
<path d="M7.37012 23H16.4511V0.815448L14.6618 0.657091L14.3196 0H12.5286L12.3447 1.18495L11.4019 1.87844L11.846 4.02627L12.1481 4.0918L12.6742 6.58365L12.1864 8.07803L11.0287 8.40385L10.7775 8.73694L11.6585 10.974L12.1081 13.3075L11.5912 13.7498L11.5038 18.0673L10.0258 18.404L9.47426 20.8012L9.03924 20.7757L8.58237 22.0298L7.54304 21.9334L7.37012 23Z" fill="#A0896E"/>
<g style="mix-blend-mode:multiply" opacity="0.3">
<path d="M9.92578 18.839L11.5039 18.4076V18.0673L10.0259 18.404L9.92578 18.839Z" fill="#A0896E"/>
</g>
<g style="mix-blend-mode:multiply" opacity="0.3">
<path d="M10.972 8.83705C11.0902 8.79807 11.2123 8.77183 11.3361 8.75878C11.3361 8.75878 11.5836 8.86981 11.6236 8.82795C11.6637 8.78609 11.5072 8.66232 11.4289 8.62956C11.3532 8.62346 11.2771 8.62346 11.2014 8.62956C11.3361 8.61863 11.6928 8.57313 11.6928 8.57313C11.8967 8.67688 12.0241 8.6878 12.0569 8.6514C12.0896 8.61499 11.8639 8.43843 11.7747 8.42205C11.659 8.41926 11.5432 8.42718 11.4289 8.44571L11.4416 8.43297C11.6236 8.38201 12.1042 8.25095 12.0751 8.2018C11.9329 8.18482 11.7888 8.19595 11.651 8.23456L11.0157 8.41658L10.7627 8.74968L10.8391 8.94445C10.8813 8.91577 10.9209 8.88349 10.9575 8.84797L10.972 8.83705Z" fill="#A0896E"/>
</g>
<g style="mix-blend-mode:multiply" opacity="0.3">
<path d="M11.6056 10.8993L11.9369 9.34854L10.7246 8.66232L11.6056 10.8993Z" fill="#A0896E"/>
</g>
<path d="M3.13654 11.9678C3.13654 11.9678 1.54387 12.0388 1.49836 11.4345C1.45286 10.8302 2.28833 7.76315 3.01095 7.50104C3.48602 7.38091 4.42342 7.33722 4.73103 7.90512C5.03864 8.47302 3.5297 11.7785 3.13654 11.9678Z" fill="#202A35"/>
<path d="M5.98145 6.73656C6.67105 5.95427 7.40008 5.20763 8.16568 4.49954C8.33757 4.20497 8.54145 3.93028 8.77363 3.68045C9.37611 3.15624 10.1279 2.82678 10.7995 2.38083C10.8359 2.44833 10.8825 2.50974 10.9378 2.56285C10.2334 3.21084 9.88577 3.93527 8.7536 4.97096C8.7536 4.97096 7.19006 6.47445 7.06082 7.63209L5.98145 6.73656Z" fill="#E79715"/>
<path d="M8.72773 12.512C8.72773 12.512 9.28835 12.6704 9.45581 12.9471C9.69244 13.3293 7.92139 13.7498 7.92139 13.7498L8.72773 12.512Z" fill="#F4A422"/>
<path d="M5.53002 12.4338C5.53002 12.4338 7.95088 12.1498 8.8719 12.4338L8.16202 13.8462C8.16202 13.8462 6.04331 14.4651 4.91843 14.3923L4.0957 12.2081L5.53002 12.4338Z" fill="#202A35"/>
<path d="M4.5996 15.3188C4.5996 15.3188 4.02078 16.9569 3.6258 17.5467C3.46016 17.7924 2.96324 17.7778 2.7794 17.2864C2.64471 16.9224 2.76484 16.1014 3.14344 15.1258L4.5996 15.3188Z" fill="#F9B74B"/>
<path d="M2.72506 16.9315C2.70919 17.2619 2.6635 17.5903 2.58854 17.9125C2.49571 18.1619 2.07343 18.0345 1.75671 18.4914C1.44 18.9482 1.09598 20.2369 0.651855 21.4164L0.833875 21.5384C0.833875 21.5384 2.45021 19.6144 3.20013 18.2893L3.7025 17.4138L2.72506 16.9315Z" fill="#F9B74B"/>
<path d="M3.43668 17.8907C3.39228 18.1443 3.2641 18.3757 3.07264 18.5478C3.07264 18.5478 3.03624 18.2384 3.43668 17.8907Z" fill="#F9B74B"/>
<path d="M5.28435 13.3693C5.28435 13.3693 4.80746 15.4644 4.17949 16.7312C4.17949 16.7312 3.29851 17.1517 2.30469 15.9777C2.30469 15.9777 2.48671 15.8393 2.75246 15.1149C3.09465 14.1684 3.01274 13.0326 3.27121 12.4228C3.33492 12.2718 3.59703 11.6784 3.59703 11.6784L5.28435 13.3693Z" fill="#202A35"/>
<path d="M4.02814 16.7713C3.94623 16.9533 3.86432 17.1353 3.78423 17.2809C3.40013 17.2897 3.0256 17.1605 2.72852 16.9169C2.72863 16.7509 2.74325 16.5853 2.7722 16.4218C3.32372 16.8405 3.79515 16.8277 4.02814 16.7713Z" fill="#F4A422"/>
<path d="M6.65105 5.90652C6.67644 6.03951 6.66159 6.17703 6.60842 6.30154C6.55525 6.42604 6.46616 6.53187 6.35254 6.60548L6.99507 7.51558C6.99507 7.51558 6.99507 6.59274 7.6376 6.50173L6.65105 5.90652Z" fill="#F4A422"/>
<path d="M8.18207 6.35432C7.85808 6.59276 7.10088 6.52541 6.79872 6.2178C6.79872 6.2178 5.14781 4.03356 6.89702 3.70592C7.30656 3.60581 7.62509 3.80422 7.8417 4.13003C8.06922 4.57416 7.99459 4.91272 8.08378 5.04013C8.31859 5.72452 8.34953 6.22872 8.18207 6.35432Z" fill="#F9B74B"/>
<path d="M6.88217 5.79733C6.88217 5.79733 6.88217 6.09948 6.51813 5.95751L6.40527 5.76456L6.88217 5.79733Z" fill="#F4A422"/>
<path d="M7.8506 4.14095C7.87063 4.11911 8.42397 3.38011 7.41194 2.99423C7.41194 2.99423 7.46108 3.35827 7.2918 3.35827C7.12253 3.35827 5.67729 3.37101 5.70823 4.06086C5.70823 4.06086 4.90735 4.29203 6.61833 6.08857L6.71116 6.0649C6.71116 6.0649 6.4709 5.66082 6.56919 5.54068C6.67151 5.44546 6.80449 5.38995 6.94415 5.38415C6.94415 5.38415 6.43631 4.47405 6.69296 4.36666C6.94961 4.25926 7.55391 4.46131 7.8506 4.14095Z" fill="#774419"/>
<path d="M6.41624 5.72451C6.46001 5.80108 6.53009 5.85916 6.61345 5.88795C6.69681 5.91674 6.78778 5.91428 6.86947 5.88105C6.99143 5.81188 6.95684 5.64624 6.85855 5.47333C6.76026 5.30041 6.58188 5.21668 6.45993 5.29131C6.3994 5.34473 6.36128 5.41902 6.35318 5.49934C6.34508 5.57967 6.3676 5.66009 6.41624 5.72451Z" fill="#F9B74B"/>
<path d="M6.49815 5.67355C6.52339 5.7223 6.56479 5.76077 6.61526 5.78236C6.66573 5.80394 6.72214 5.8073 6.77482 5.79187C6.85127 5.74818 6.83671 5.62441 6.77482 5.51702C6.71294 5.40963 6.5928 5.35503 6.52546 5.39871C6.45811 5.4424 6.43809 5.56434 6.49815 5.67355Z" fill="#F4A422"/>
<path d="M8.05273 4.96912C8.12843 5.07243 8.21854 5.16438 8.3203 5.24215C8.3203 5.24215 8.44408 5.20029 8.48048 5.21667C8.55329 5.24943 8.35125 5.5534 8.22383 5.53884C8.09642 5.52428 8.05273 4.96912 8.05273 4.96912Z" fill="#F9B74B"/>
<path d="M9.48893 13.0399C9.47452 14.5158 9.5878 15.9902 9.82749 17.4466C9.75316 17.4561 9.67793 17.4561 9.6036 17.4466C9.15583 16.3017 8.52423 15.7101 8.43322 14.7636C8.34221 13.8171 8.97927 13.4476 8.26758 13.6606L9.48893 13.0399Z" fill="#F4A422"/>
<path d="M3.06689 12.512C3.06689 12.512 3.62569 9.96374 4.52305 8.26914C5.43315 6.52721 6.42516 6.24326 6.94027 6.92765C7.45539 7.61205 7.16598 9.43406 6.54347 10.386C5.92096 11.338 5.51324 12.0697 5.53872 12.4246C5.52962 12.4337 3.66392 13.4931 3.06689 12.512Z" fill="#4CABC1"/>
<path d="M3.36182 11.2197C3.36182 11.2197 7.46454 10.7374 7.12234 7.75041C7.12234 7.75041 6.66911 5.55343 4.84164 7.64666C4.84164 7.64666 4.61411 8.05802 4.46304 8.37474C4.46304 8.37474 5.82454 6.75113 6.3524 6.94589C6.88026 7.14065 7.13873 8.26917 6.65091 9.13012C6.1631 9.99108 5.14015 10.65 3.45647 10.9139L3.36182 11.2197Z" fill="#202A35"/>
<path d="M7.37184 10.295C7.37184 10.295 7.14796 12.4793 6.02307 8.9936C6.02307 8.9936 5.36962 7.137 6.11773 6.94405C6.94045 6.73473 7.17526 8.46937 7.37184 10.295Z" fill="#F9B74B"/>
<path d="M7.06055 10.974C7.06055 10.974 7.76132 11.0267 10.306 9.05729L10.2568 8.84433C9.12283 9.60335 7.79955 9.30848 7.06055 10.1075V10.974Z" fill="#F9B74B"/>
<path d="M10.2568 8.84432C10.2568 8.84432 10.8793 8.32192 11.0468 8.29826L11.4218 8.22909C11.4218 8.22909 11.7348 8.1672 11.1433 8.60405C10.9321 8.76787 10.7519 9.05364 10.306 9.06274L10.2568 8.84432Z" fill="#F9B74B"/>
<path d="M11.3291 8.24003C11.3291 8.24003 12.0044 8.09442 12.0408 8.15084C12.0772 8.20727 11.3291 8.40384 11.3291 8.40384V8.24003Z" fill="#F9B74B"/>
<path d="M11.3292 8.40384C11.4651 8.38084 11.6028 8.37048 11.7406 8.3729C11.8298 8.38928 12.0555 8.56584 12.0227 8.60225C11.9899 8.63865 11.8625 8.62773 11.6587 8.52216C11.6587 8.52216 11.2528 8.57495 11.1436 8.58223L11.3292 8.40384Z" fill="#F9B74B"/>
<path d="M11.1054 8.58587C11.1999 8.57965 11.2948 8.57965 11.3893 8.58587C11.4676 8.61681 11.6259 8.73876 11.5841 8.78245C11.5422 8.82613 11.2965 8.71328 11.2965 8.71328C11.1696 8.72568 11.0445 8.75193 10.9233 8.79155L11.1054 8.58587Z" fill="#F9B74B"/>
<g style="mix-blend-mode:multiply" opacity="0.3">
<path d="M11.7004 2.27887C11.6712 2.30981 11.684 2.29707 11.7149 2.26613L11.7386 2.24246C11.8241 2.15873 11.9807 2.00765 11.9789 2.01129C11.9789 1.98217 11.8806 1.96216 11.7277 2.08957C11.6932 2.12112 11.6522 2.14472 11.6075 2.15873L11.5639 2.146C11.5543 2.06714 11.5723 1.98738 11.6148 1.92029L11.7805 1.72553C11.9334 1.67093 12.0298 1.51985 11.9952 1.49437C11.9607 1.46888 11.9097 1.5162 11.8369 1.55807L11.4019 1.87842L11.5111 2.40446C11.575 2.36745 11.6358 2.32546 11.6931 2.27887H11.7004Z" fill="#A0896E"/>
</g>
<path d="M10.7939 2.38082C10.9249 2.18966 11.0769 2.01382 11.2471 1.8566C11.3928 1.76742 11.5056 1.70371 11.5566 1.78561C11.6075 1.86752 11.4619 1.98402 11.5002 2.11144C11.5002 2.11144 11.6931 2.16421 11.6822 2.19334C11.472 2.38581 11.21 2.51238 10.9286 2.55738C10.9286 2.55738 10.7193 2.50278 10.7939 2.38082Z" fill="#E79715"/>
<path d="M11.4019 2.12597C11.4019 2.12597 11.5111 2.18423 11.664 2.05499C11.8169 1.92576 11.9206 1.94759 11.9152 1.97672C11.9152 1.97672 11.5347 2.34076 11.6367 2.24429L11.4019 2.12597Z" fill="#E79715"/>
<path d="M11.3711 1.80016C11.4579 1.71986 11.5531 1.64908 11.655 1.58903C11.7679 1.53442 11.8971 1.43613 11.9317 1.45979C11.9663 1.48345 11.8698 1.64181 11.7169 1.69096L11.5149 1.92576L11.3711 1.80016Z" fill="#E79715"/>
<path d="M5.61011 12.2099H3.09277C3.10557 12.0413 3.15264 11.8772 3.23111 11.7275H5.77938C5.68333 11.8715 5.62511 12.0374 5.61011 12.2099Z" fill="#202A35"/>
<path d="M3.30013 7.51195C3.30013 7.51195 3.08353 7.43368 3.05987 7.24984C3.0362 7.066 3.5495 5.74454 4.334 5.80643C5.11851 5.86831 5.42612 6.76748 4.68348 7.94879C4.69622 7.94879 3.54586 7.77406 3.30013 7.51195Z" fill="#202A35"/>
<path d="M2.8853 9.91096C3.81177 7.5447 3.03819 7.51376 2.97994 7.51376C2.26279 7.83412 1.44006 10.8374 1.49102 11.4363C2.08259 12.4338 2.8853 9.91096 2.8853 9.91096Z" fill="#3B4956"/>
<path d="M3.56603 7.16793C3.79901 6.90218 4.33597 6.10312 4.2577 5.80643C3.58605 5.83919 3.13282 6.85849 3.07275 7.17703C3.10032 7.21748 3.13753 7.25043 3.18102 7.2729C3.22451 7.29538 3.27291 7.30668 3.32185 7.30578C3.37079 7.30488 3.41874 7.2918 3.46137 7.26774C3.504 7.24367 3.53997 7.20937 3.56603 7.16793Z" fill="#3B4956"/>
<path d="M4.91846 6.28877C4.91846 6.28877 5.00219 5.48971 5.2825 5.63897C5.56281 5.78823 5.21333 6.35066 5.10048 6.4981L5.05133 6.42711C5.05133 6.42711 5.36623 5.91018 5.23335 5.80643C5.10048 5.70267 5.00765 6.35248 5.00765 6.35248L4.91846 6.28877Z" fill="#202A35"/>
<path d="M1.98937 9.9783L3.08148 10.2441C3.08148 10.2441 2.85032 11.3362 2.17139 11.3362C1.49245 11.3362 1.98937 9.9783 1.98937 9.9783Z" fill="#202A35"/>
<path d="M1.98071 9.9783L3.01458 10.2295C3.01458 10.2295 2.79433 11.2706 2.1518 11.2634C1.50927 11.2561 1.98071 9.9783 1.98071 9.9783Z" fill="#4D5F6D"/>
<path d="M1.98069 9.9783L1.95703 10.0475L2.70513 10.2295C2.70513 10.2295 2.52311 11.0777 2.01892 11.2379C2.06139 11.254 2.10636 11.2626 2.15179 11.2634C2.79432 11.2634 3.01456 10.2295 3.01456 10.2295L1.98069 9.9783Z" fill="#3B4956"/>
<path d="M3.78043 9.4996L1.92383 9.13374L2.02758 8.84433L3.88418 9.20837L3.78043 9.4996Z" fill="#202A35"/>
<path d="M2.53947 9.47958L2.48486 9.65432L2.80522 9.73623L2.87439 9.54147L2.53947 9.47958Z" fill="#EDE6C3"/>
<path d="M2.12988 10.0111L2.23363 9.73624L2.48482 9.65433L2.80518 9.73624L2.94169 9.94192L2.87434 10.1967L2.12988 10.0111Z" fill="#4CABC1"/>
<g style="mix-blend-mode:multiply" opacity="0.5">
<path d="M2.48482 9.65433L2.76877 9.77264L2.88708 9.96558L2.8252 10.133L2.12988 10.0111L2.87434 10.1967L2.94169 9.94192L2.80518 9.73624L2.48482 9.65433Z" fill="#4CABC1"/>
</g>
<g style="mix-blend-mode:multiply">
<path d="M2.53947 9.47958L2.76153 9.54875L2.72513 9.67798L2.48486 9.65432L2.80522 9.73623L2.87439 9.54147L2.53947 9.47958Z" fill="#EDE6C3"/>
</g>
<path d="M4.02829 11.4836H4.01373C3.94258 11.485 3.8748 11.5142 3.82482 11.5648C3.77484 11.6155 3.74662 11.6837 3.74616 11.7548L3.70794 12.1407C3.69416 12.2096 3.70748 12.2811 3.74511 12.3405C3.78274 12.3998 3.84179 12.4423 3.90998 12.4592H3.92272C3.99418 12.4578 4.06223 12.4284 4.11226 12.3774C4.16229 12.3263 4.1903 12.2577 4.19029 12.1862L4.23033 11.8003C4.24359 11.7317 4.23003 11.6606 4.19244 11.6017C4.15485 11.5428 4.0961 11.5005 4.02829 11.4836ZM4.08836 12.1225C4.07744 12.2408 4.01191 12.33 3.94092 12.3227C3.86993 12.3227 3.82443 12.2135 3.83535 12.097L3.86265 11.8185C3.87539 11.702 3.94092 11.6128 4.01191 11.6183C4.08108 11.6183 4.1284 11.7257 4.11748 11.844L4.08836 12.1225Z" fill="#4D5F6D"/>
<path d="M4.24135 11.4836H4.22679C4.15564 11.485 4.08786 11.5142 4.03788 11.5648C3.9879 11.6155 3.95968 11.6837 3.95922 11.7548L3.92099 12.1407C3.90746 12.2106 3.92177 12.283 3.96087 12.3425C3.99998 12.402 4.06078 12.4439 4.13032 12.4592H4.14306C4.21452 12.4578 4.28257 12.4284 4.3326 12.3774C4.38263 12.3263 4.41064 12.2577 4.41063 12.1862L4.45067 11.8003C4.46368 11.7307 4.44912 11.6587 4.41006 11.5996C4.37101 11.5405 4.31051 11.4989 4.24135 11.4836ZM4.30141 12.1225C4.29049 12.2408 4.22497 12.33 4.15398 12.3227C4.08299 12.3227 4.03749 12.2135 4.04841 12.097L4.07571 11.8185C4.08845 11.702 4.15398 11.6128 4.22315 11.6183C4.29231 11.6183 4.33964 11.7257 4.32872 11.844L4.30141 12.1225Z" fill="#4D5F6D"/>
<path d="M4.57995 12.2099H4.23047L4.27597 11.7257H4.62181L4.57995 12.2099Z" fill="#202A35"/>
<path d="M4.39409 12.2099H4.05371L4.09558 11.7257H4.43777L4.39409 12.2099Z" fill="#202A35"/>
<path d="M9.50151 17.4357L9.9602 17.361C9.9602 17.361 10.0294 17.9672 10.306 17.9581C10.5827 17.949 11.3253 17.8743 11.4164 18.0345C11.5074 18.1947 11.2343 18.4495 9.5816 18.5806C9.5816 18.5806 9.40868 18.5005 9.50151 17.4357Z" fill="#697A86"/>
<path d="M11.0632 18.3039C11.1975 18.2526 11.3209 18.1766 11.4273 18.08C11.426 18.0639 11.4211 18.0483 11.4127 18.0345C11.3781 17.9744 11.2471 17.9471 11.0851 17.938C11.0458 18.0559 11.0383 18.1821 11.0632 18.3039Z" fill="#2E3C49"/>
<path d="M10.2698 17.9835C10.3567 17.9846 10.4432 17.9724 10.5264 17.9471C10.439 17.9471 10.3626 17.9581 10.3062 17.9581C10.115 17.9581 10.024 17.6777 9.9858 17.5012L9.91846 17.5121C9.91846 17.5121 10.0349 17.9835 10.2698 17.9835Z" fill="#879AA5"/>
<path d="M9.97653 17.4593C9.96561 17.4011 9.96015 17.361 9.96015 17.361L9.50146 17.4357C9.50146 17.4702 9.50146 17.503 9.50146 17.5339L9.97653 17.4593Z" fill="#405260"/>
<path d="M9.92561 17.7214C9.95275 17.7214 9.97476 17.6994 9.97476 17.6723C9.97476 17.6451 9.95275 17.6231 9.92561 17.6231C9.89847 17.6231 9.87646 17.6451 9.87646 17.6723C9.87646 17.6994 9.89847 17.7214 9.92561 17.7214Z" fill="#405260"/>
<path d="M10.0257 17.969C10.0529 17.969 10.0749 17.947 10.0749 17.9198C10.0749 17.8927 10.0529 17.8707 10.0257 17.8707C9.99857 17.8707 9.97656 17.8927 9.97656 17.9198C9.97656 17.947 9.99857 17.969 10.0257 17.969Z" fill="#405260"/>
<path d="M9.92551 17.7178C9.91713 17.7176 9.90896 17.7152 9.9019 17.7107C9.89483 17.7062 9.88915 17.6998 9.88546 17.6923C9.88026 17.6814 9.87943 17.6689 9.88316 17.6574C9.88688 17.6459 9.89487 17.6362 9.90549 17.6304L10.0202 17.574C10.0255 17.5712 10.0314 17.5695 10.0374 17.569C10.0435 17.5684 10.0495 17.5691 10.0553 17.571C10.0611 17.5729 10.0664 17.5759 10.071 17.5798C10.0756 17.5838 10.0793 17.5886 10.082 17.594C10.0872 17.6047 10.0879 17.6169 10.0842 17.6281C10.0805 17.6393 10.0725 17.6486 10.062 17.6541L9.94735 17.7123L9.92551 17.7178Z" fill="#2E3C49"/>
<path d="M10.035 17.9653C10.0254 17.9648 10.0162 17.9612 10.0088 17.9551C10.0014 17.949 9.99608 17.9407 9.99366 17.9314C9.99124 17.9221 9.99182 17.9123 9.99531 17.9033C9.99881 17.8944 10.005 17.8868 10.0131 17.8816L10.1442 17.8052C10.1544 17.8005 10.1661 17.7999 10.1768 17.8033C10.1875 17.8067 10.1966 17.814 10.2023 17.8237C10.2079 17.8335 10.2098 17.845 10.2075 17.856C10.2051 17.867 10.1988 17.8768 10.1897 17.8834L10.0586 17.9599C10.0513 17.9636 10.0432 17.9654 10.035 17.9653Z" fill="#2E3C49"/>
<path d="M9.67079 18.1018C9.61211 18.0816 9.5508 18.0699 9.48877 18.0673C9.49969 18.5332 9.59616 18.5787 9.59616 18.5787C9.77818 18.5642 9.92926 18.5496 10.0749 18.5332C10.056 18.4301 10.0079 18.3346 9.93624 18.2581C9.86459 18.1816 9.77244 18.1274 9.67079 18.1018Z" fill="#2E3C49"/>
<path d="M11.4163 18.0345C11.3726 18.1929 10.923 18.3986 9.5415 18.515C9.56517 18.5751 9.58701 18.586 9.58701 18.586C11.2288 18.4495 11.5073 18.1965 11.4163 18.0345Z" fill="#405260"/>
<path d="M9.52686 18.4914L9.53596 18.5096C10.9175 18.3986 11.3671 18.1874 11.4108 18.0291C11.3416 18.1801 10.8611 18.3804 9.52686 18.4914Z" fill="#879AA5"/>
<path d="M10.3188 18.0436C10.328 18.0528 10.3331 18.0652 10.3331 18.0782C10.3331 18.0911 10.328 18.1036 10.3188 18.1128C10.3143 18.1176 10.3088 18.1214 10.3027 18.124C10.2966 18.1266 10.29 18.1279 10.2834 18.1279C10.2767 18.1279 10.2702 18.1266 10.2641 18.124C10.258 18.1214 10.2524 18.1176 10.2479 18.1128C10.2437 18.1077 10.2405 18.1019 10.2386 18.0957C10.2366 18.0895 10.2359 18.0829 10.2365 18.0764C10.2371 18.0699 10.239 18.0636 10.242 18.0578C10.2451 18.052 10.2492 18.0469 10.2542 18.0427C10.2593 18.0385 10.265 18.0354 10.2713 18.0334C10.2775 18.0315 10.2841 18.0308 10.2906 18.0314C10.2971 18.032 10.3034 18.0338 10.3092 18.0369C10.315 18.0399 10.3201 18.044 10.3243 18.0491L10.3188 18.0436Z" fill="#405260"/>
<path d="M10.2804 18.1201H10.2659C10.2545 18.116 10.2453 18.1075 10.2401 18.0966C10.235 18.0857 10.2344 18.0732 10.2385 18.0618L10.2786 17.9453C10.2827 17.934 10.2911 17.9247 10.3021 17.9196C10.313 17.9145 10.3255 17.9139 10.3368 17.918C10.3425 17.9196 10.3478 17.9224 10.3524 17.9262C10.3569 17.93 10.3606 17.9347 10.3632 17.9401C10.3658 17.9454 10.3672 17.9512 10.3674 17.9572C10.3675 17.9631 10.3664 17.969 10.3641 17.9744L10.3241 18.0928C10.3202 18.101 10.314 18.108 10.3063 18.1129C10.2985 18.1177 10.2896 18.1202 10.2804 18.1201Z" fill="#2E3C49"/>
<path d="M0.62443 21.2945L1.02305 21.5092C1.02305 21.5092 0.717259 22.0189 0.933862 22.1773C1.15047 22.3356 1.77297 22.7233 1.74931 22.9053C1.72565 23.0874 1.35615 23.1147 0.00374192 22.2337C0.00374192 22.2264 -0.0818067 22.0626 0.62443 21.2945Z" fill="#768793"/>
<path d="M1.31445 22.8963C1.44992 22.9375 1.59193 22.953 1.7331 22.9418C1.7415 22.9285 1.74707 22.9136 1.74948 22.8981C1.74948 22.8307 1.67303 22.7324 1.5529 22.6287C1.45151 22.6956 1.36933 22.7879 1.31445 22.8963Z" fill="#3B4956"/>
<path d="M0.891838 22.1754C0.95853 22.2281 1.03278 22.2705 1.11208 22.301C1.04109 22.2537 0.979208 22.21 0.930063 22.1773C0.780807 22.0681 0.879097 21.7932 0.955546 21.6312L0.897299 21.6021C0.897299 21.6021 0.707998 22.0335 0.891838 22.1754Z" fill="#94A7B2"/>
<path d="M0.977726 21.5948C1.00321 21.5438 1.02323 21.5092 1.02323 21.5092L0.624609 21.2945C0.601553 21.3175 0.579711 21.3412 0.559082 21.3655L0.977726 21.5948Z" fill="#4D5F6D"/>
<path d="M0.849974 21.7604C0.840859 21.769 0.828816 21.7738 0.816301 21.7738C0.803786 21.7738 0.791742 21.769 0.782626 21.7604C0.778169 21.756 0.77463 21.7508 0.772214 21.745C0.769798 21.7392 0.768555 21.733 0.768555 21.7268C0.768555 21.7205 0.769798 21.7143 0.772214 21.7085C0.77463 21.7027 0.778169 21.6975 0.782626 21.6931C0.791829 21.684 0.804258 21.6789 0.817211 21.6789C0.830163 21.6789 0.842592 21.684 0.851795 21.6931C0.859738 21.7026 0.863934 21.7147 0.863599 21.7271C0.863264 21.7395 0.85842 21.7513 0.849974 21.7604Z" fill="#4D5F6D"/>
<path d="M0.779329 22.0116C0.774927 22.0161 0.769684 22.0196 0.763903 22.022C0.758123 22.0245 0.751919 22.0257 0.745654 22.0257C0.739389 22.0257 0.733187 22.0245 0.727407 22.022C0.721626 22.0196 0.716383 22.0161 0.711981 22.0116C0.702866 22.0024 0.697754 21.99 0.697754 21.977C0.697754 21.9641 0.702866 21.9517 0.711981 21.9425C0.715482 21.9363 0.720265 21.931 0.726003 21.9269C0.731741 21.9228 0.738301 21.9199 0.745234 21.9186C0.752167 21.9172 0.75931 21.9174 0.766178 21.919C0.773046 21.9207 0.779476 21.9238 0.785031 21.9282C0.790586 21.9325 0.795136 21.938 0.798368 21.9443C0.8016 21.9506 0.803441 21.9575 0.803763 21.9646C0.804086 21.9716 0.802882 21.9787 0.800236 21.9852C0.79759 21.9918 0.793563 21.9977 0.788429 22.0025L0.779329 22.0116Z" fill="#4D5F6D"/>
<path d="M0.933921 21.7987L0.810147 21.775C0.804278 21.7737 0.798722 21.7713 0.793801 21.7678C0.78888 21.7644 0.784692 21.76 0.781476 21.7549C0.778261 21.7498 0.776082 21.7442 0.775068 21.7382C0.774053 21.7323 0.774221 21.7263 0.775563 21.7204C0.776381 21.7145 0.778458 21.7088 0.781654 21.7038C0.78485 21.6987 0.789091 21.6944 0.794093 21.6911C0.799094 21.6878 0.804738 21.6857 0.810647 21.6848C0.816556 21.6838 0.822593 21.6842 0.828349 21.6858L0.952123 21.7095C0.962409 21.7116 0.971658 21.7172 0.978301 21.7253C0.984944 21.7334 0.988572 21.7436 0.988572 21.7541C0.988572 21.7646 0.984944 21.7747 0.978301 21.7829C0.971658 21.791 0.962409 21.7966 0.952123 21.7987H0.933921Z" fill="#3B4956"/>
<path d="M0.88849 22.0462L0.741055 22.028C0.735079 22.0273 0.729302 22.0254 0.724056 22.0225C0.718809 22.0195 0.714195 22.0156 0.710477 22.0108C0.706759 22.0061 0.704008 22.0007 0.702384 21.9949C0.700759 21.9891 0.700293 21.983 0.70101 21.977C0.701727 21.9711 0.703614 21.9653 0.706564 21.96C0.709513 21.9548 0.713467 21.9502 0.7182 21.9465C0.722932 21.9427 0.728351 21.94 0.734146 21.9384C0.739941 21.9368 0.746 21.9363 0.751975 21.937L0.899411 21.9552C0.905404 21.9559 0.911203 21.9577 0.916471 21.9607C0.921739 21.9636 0.926371 21.9676 0.930097 21.9723C0.933823 21.9771 0.936568 21.9825 0.938175 21.9883C0.939782 21.9941 0.940217 22.0002 0.939455 22.0062C0.93765 22.0181 0.931373 22.0288 0.921904 22.0363C0.912435 22.0437 0.900486 22.0473 0.88849 22.0462Z" fill="#3B4956"/>
<path d="M0.351314 21.9061C0.315857 21.8551 0.27429 21.8086 0.22754 21.7677C-0.0436689 22.1318 0.0036556 22.2264 0.0036556 22.2264C0.147451 22.3211 0.278505 22.4084 0.400458 22.4776C0.448691 22.3879 0.46973 22.286 0.461002 22.1845C0.452274 22.083 0.414157 21.9863 0.351314 21.9061Z" fill="#3B4956"/>
<path d="M1.74944 22.8981C1.62203 22.9945 1.14878 22.8981 0.0129726 22.1536C-0.00522939 22.2137 0.0129726 22.2337 0.0129726 22.2337C1.35628 23.1074 1.72396 23.0783 1.74944 22.8981Z" fill="#4D5F6D"/>
<path d="M0.0238444 22.1263C0.0226508 22.1329 0.0226508 22.1397 0.0238444 22.1463C1.15965 22.8744 1.6329 22.9873 1.76031 22.8908C1.60378 22.9654 1.11596 22.8344 0.0238444 22.1263Z" fill="#94A7B2"/>
<path d="M0.893662 22.2501C0.894157 22.2564 0.89336 22.2628 0.891318 22.2689C0.889276 22.2749 0.886033 22.2805 0.881782 22.2853C0.877531 22.29 0.872359 22.2939 0.866581 22.2966C0.860802 22.2993 0.854536 22.3008 0.848157 22.301C0.838393 22.3018 0.828637 22.2995 0.82014 22.2947C0.811643 22.2898 0.804793 22.2825 0.800468 22.2737C0.796142 22.265 0.794538 22.2551 0.795861 22.2454C0.797185 22.2357 0.801375 22.2266 0.807896 22.2193C0.814416 22.212 0.82297 22.2068 0.832459 22.2044C0.841948 22.202 0.851942 22.2025 0.861157 22.2058C0.870372 22.2091 0.878388 22.2151 0.88418 22.2229C0.889971 22.2308 0.893273 22.2403 0.893662 22.2501Z" fill="#4D5F6D"/>
<path d="M0.8466 22.2992C0.836709 22.2994 0.82703 22.2964 0.81903 22.2905C0.81103 22.2847 0.805145 22.2764 0.802264 22.267C0.799384 22.2575 0.799666 22.2474 0.803069 22.2381C0.806471 22.2288 0.812806 22.2209 0.821117 22.2155L0.923049 22.1482C0.933224 22.142 0.945394 22.1401 0.956957 22.1428C0.968521 22.1456 0.978562 22.1527 0.984935 22.1627C0.988296 22.1676 0.990638 22.1731 0.991818 22.1788C0.992998 22.1846 0.992992 22.1906 0.991801 22.1964C0.99061 22.2022 0.988258 22.2077 0.984888 22.2125C0.981518 22.2174 0.9772 22.2215 0.972194 22.2246L0.870264 22.292C0.862967 22.296 0.854908 22.2985 0.8466 22.2992Z" fill="#3B4956"/>
<g style="mix-blend-mode:multiply" opacity="0.3">
<path d="M12.6739 6.58365L13.3983 4.96914L12.8978 4.47404L12.8177 4.03902L11.8457 4.02628L12.1479 4.0918L12.6739 6.58365Z" fill="#A0896E"/>
</g>
<g style="mix-blend-mode:multiply" opacity="0.3">
<path d="M7.54297 21.9334L9.03917 22.6269V20.7757L8.5823 22.0298L7.54297 21.9334Z" fill="#A0896E"/>
</g>
<g style="mix-blend-mode:multiply" opacity="0.3">
<path d="M14.3196 0L14.0356 0.624327L14.6618 0.657091L14.3196 0Z" fill="#A0896E"/>
</g>
<g style="mix-blend-mode:multiply" opacity="0.3">
<path d="M12.0027 12.7559L13.3988 13.3074L11.5913 13.7497L12.1082 13.3074L12.0027 12.7559Z" fill="#A0896E"/>
</g>
</g>
<defs>
<clipPath id="clip0_1232_2941">
<rect width="16.4509" height="23" fill="white"/>
</clipPath>
</defs>
</svg>
