<svg width="24" height="19" viewBox="0 0 24 19" fill="none" xmlns="http://www.w3.org/2000/svg">
<g clip-path="url(#clip0_1232_5465)">
<path d="M21.0832 14.085C21.0832 16.3769 16.4058 18.2347 10.6363 18.2347C4.86684 18.2347 0.189453 16.3769 0.189453 14.085C0.189453 13.1666 0.941054 12.3175 2.21294 11.6305C2.5211 11.4651 2.8381 11.3167 3.16253 11.1861C5.05933 10.4143 7.70735 9.93532 10.6363 9.93532C11.6123 9.93425 12.5876 9.98926 13.5573 10.1001C16.9442 10.4906 19.621 11.5448 20.6387 12.8838C20.9276 13.2643 21.0832 13.6675 21.0832 14.085Z" fill="#FBEAD0"/>
<path d="M10.6364 18.2585C7.84327 18.2585 5.21655 17.8263 3.24069 17.0415C1.25791 16.2539 0.166016 15.2039 0.166016 14.0851C0.166016 13.1851 0.86999 12.3291 2.20172 11.6098C2.51069 11.4441 2.82848 11.2953 3.15367 11.1642C5.13881 10.3566 7.79631 9.91176 10.6363 9.91176C11.6133 9.91072 12.5894 9.96579 13.56 10.0767C16.9743 10.4704 19.6276 11.5146 20.6576 12.8699C20.9558 13.262 21.1069 13.6708 21.1069 14.0851C21.1069 15.2039 20.0149 16.2534 18.0321 17.0415C16.0563 17.8263 13.4298 18.2585 10.6364 18.2585ZM10.6364 9.9591C7.80237 9.9591 5.15131 10.4027 3.17157 11.2081C2.8481 11.3385 2.53201 11.4865 2.22473 11.6515C0.908621 12.3616 0.213737 13.2035 0.213737 14.0849C0.213737 16.36 4.88951 18.2109 10.6368 18.2109C16.3841 18.2109 21.0596 16.3603 21.0596 14.0851C21.0596 13.6814 20.9117 13.2822 20.62 12.8985C20.123 12.2445 19.2092 11.6429 17.9783 11.1585C16.7437 10.6728 15.2142 10.315 13.5552 10.1237C12.5862 10.013 11.6117 9.95806 10.6364 9.9591Z" fill="#650000"/>
<g opacity="0.6">
<path d="M16.5809 10.6726C15.8123 10.4876 14.9781 10.3412 14.0963 10.2393C13.1266 10.1281 12.1512 10.0729 11.175 10.074C8.246 10.074 5.59816 10.5535 3.70126 11.3248C3.37684 11.4555 3.05984 11.6038 2.75168 11.7692C1.47979 12.4562 0.728189 13.3052 0.728189 14.2242C0.728189 15.6384 2.50967 16.8874 5.23041 17.6367C2.20838 16.9094 0.188965 15.5908 0.188965 14.085C0.188965 13.1666 0.940565 12.3175 2.21245 11.6305C2.52061 11.4651 2.83761 11.3167 3.16204 11.1861C5.05884 10.4143 7.70687 9.93532 10.6358 9.93532C11.6118 9.93425 12.5871 9.98926 13.5568 10.1001C14.6499 10.2262 15.6682 10.421 16.5809 10.6726Z" fill="white"/>
</g>
<path d="M10.6364 18.4242C7.82259 18.4242 5.17429 17.9878 3.1793 17.1955C1.12911 16.3812 0 15.2765 0 14.0852C0 12.8939 1.12911 11.7893 3.1793 10.975C5.17429 10.1826 7.82259 9.74622 10.6364 9.74622C13.4502 9.74622 16.0986 10.1826 18.0935 10.975C20.1437 11.7893 21.2728 12.8939 21.2728 14.0852C21.2728 15.2765 20.1437 16.3811 18.0935 17.1955C16.0988 17.9878 13.4503 18.4242 10.6364 18.4242ZM10.6364 10.125C7.86927 10.125 5.27067 10.5519 3.31914 11.327C1.45046 12.0692 0.378736 13.0745 0.378736 14.0852C0.378736 15.0959 1.45046 16.1012 3.31914 16.8434C5.27067 17.6186 7.86927 18.0459 10.6364 18.0459C13.4035 18.0459 16.0022 17.6191 17.9538 16.8434C19.8224 16.1012 20.8941 15.0959 20.8941 14.0852C20.8941 13.0745 19.8224 12.0692 17.9538 11.327C16.0022 10.5519 13.4035 10.125 10.6364 10.125Z" fill="#650000"/>
<path d="M10.6064 17.4121C8.56974 17.4121 6.65277 17.1101 5.20884 16.5617C3.72146 15.9969 2.90234 15.2284 2.90234 14.3981C2.90234 13.5678 3.72146 12.7995 5.20884 12.2346C6.65277 11.6862 8.57012 11.3842 10.6064 11.3842C12.6427 11.3842 14.56 11.6858 16.004 12.235C17.4913 12.7999 18.3104 13.5682 18.3104 14.3985C18.3104 15.2288 17.4913 15.9969 16.004 16.562C14.56 17.1101 12.6428 17.4121 10.6064 17.4121ZM10.6064 11.6682C8.60336 11.6682 6.72227 11.9636 5.30968 12.5001C3.96025 13.0126 3.1864 13.7044 3.1864 14.3981C3.1864 15.0919 3.96025 15.7836 5.30968 16.2962C6.72227 16.8326 8.60336 17.1281 10.6064 17.1281C12.6094 17.1281 14.4906 16.8326 15.9032 16.2962C17.2525 15.7836 18.0264 15.0919 18.0264 14.3981C18.0264 13.7044 17.2525 13.0126 15.9032 12.5001C14.4906 11.9636 12.6095 11.6682 10.6064 11.6682Z" fill="#650000"/>
<g opacity="0.3">
<path d="M20.6389 12.8842L18.1686 14.2243C15.3101 15.9766 12.2173 16.1445 10.0291 15.6655C10.19 16.0399 9.50602 16.6056 8.23366 16.7828L9.42516 15.5111C8.40115 15.2075 7.64188 14.7586 7.29932 14.2896L13.5579 10.1008C16.9444 10.4907 19.6211 11.5449 20.6389 12.8842Z" fill="#650000"/>
</g>
<path d="M22.8482 9.2335C22.7866 9.32098 22.7237 9.40582 22.6596 9.48801C22.4238 9.79368 22.1598 10.0766 21.8712 10.333C21.7018 10.4826 21.5233 10.6217 21.3369 10.7496C21.3253 10.7577 21.3136 10.7658 21.3019 10.7734C20.2751 11.4635 19.1038 11.7239 17.9041 11.6017C17.8663 11.5986 17.8284 11.5941 17.7905 11.5896L17.8888 11.4437L18.9049 9.93567C19.4086 9.94239 19.8827 9.79365 20.3051 9.54368C20.4799 9.44007 20.6451 9.32126 20.799 9.18862C20.9031 9.09861 21.0025 9.0033 21.0967 8.90305C22.3276 7.59385 22.6986 5.4487 21.1905 4.97461C21.1725 4.96922 21.1546 4.96382 21.1362 4.9589C20.9225 4.89877 20.6733 4.87094 20.3855 4.88211L20.4677 3.28195C20.8798 3.22884 21.2984 3.2636 21.696 3.38393C22.0782 3.49957 22.4323 3.69302 22.7362 3.95212C23.9171 4.95681 24.3557 6.94839 22.8482 9.2335Z" fill="#FFAA22"/>
<g opacity="0.6">
<path d="M21.5003 8.86643C21.406 8.96668 21.3065 9.06196 21.2023 9.1519C21.0485 9.28462 20.8832 9.40347 20.7085 9.50706C20.2999 9.74907 19.8433 9.89526 19.3584 9.89858C19.6938 9.8411 20.0117 9.71678 20.3044 9.54342C20.4791 9.43981 20.6444 9.32099 20.7983 9.18835C20.9023 9.09835 21.0017 9.00303 21.0959 8.90279C22.3268 7.59359 22.6978 5.44843 21.1898 4.97435C21.1718 4.96895 21.1538 4.96356 21.1354 4.95863C21.1048 4.95011 21.0739 4.94206 21.0416 4.93487C21.2257 4.90968 21.3886 4.87967 21.5394 4.92228C21.5584 4.9272 21.5758 4.9326 21.5938 4.93799C23.1022 5.41207 22.7314 7.55761 21.5003 8.86643Z" fill="white"/>
</g>
<g opacity="0.6">
<path d="M19.3591 9.89856C19.3407 9.90216 19.3218 9.90531 19.3022 9.90803L19.3085 9.89913C19.3254 9.89941 19.3425 9.89941 19.3591 9.89856Z" fill="white"/>
<path d="M19.252 9.93901L19.2967 9.875H19.3094C19.3254 9.875 19.3418 9.875 19.3578 9.875L19.3636 9.92234C19.3446 9.926 19.3254 9.92916 19.3058 9.93181L19.252 9.93901Z" fill="#650000"/>
</g>
<path d="M20.4682 3.14887C20.4682 18.9536 0.804688 18.9536 0.804688 3.14887C0.804688 1.51415 5.20673 0.189331 10.6364 0.189331C16.066 0.189331 20.4682 1.51415 20.4682 3.14887Z" fill="#FFAA22"/>
<path d="M20.3208 4.97163L20.2292 5.57183C20.2292 10.7226 0.983612 10.7226 0.983612 5.57183L0.90332 4.77649C1.83312 9.3376 18.9309 9.40237 20.3208 4.97163Z" fill="#FBEAD0"/>
<g opacity="0.3">
<path d="M2.58676 3.72291C5.27152 1.35411 16.6694 1.71325 18.7417 3.84221C19.6185 2.79473 17.7903 2.09691 17.7903 2.09691C12.9509 0.817821 8.17472 0.817348 3.46818 2.20702C3.46818 2.20702 1.7562 3.00975 2.58676 3.72291Z" fill="#650000"/>
</g>
<g opacity="0.6">
<path d="M1.29847 3.37336C1.29847 9.05222 3.83741 12.6903 7.09056 14.2889C3.60392 12.8258 0.804688 9.11234 0.804688 3.14887C0.804688 1.51415 5.20673 0.189331 10.6364 0.189331C14.2231 0.189331 17.3618 0.767565 19.0791 1.63137C17.2909 0.892832 14.3965 0.413732 11.1302 0.413732C5.70051 0.413732 1.29847 1.73864 1.29847 3.37336Z" fill="white"/>
</g>
<path d="M0.864258 4.38354L0.903835 4.77686C0.877428 4.64742 0.864169 4.51565 0.864258 4.38354Z" fill="#F5B945"/>
<path d="M0.880383 4.78151C0.85371 4.65063 0.840292 4.5174 0.840332 4.38384L0.887674 4.38147L0.927251 4.77479L0.880383 4.78151Z" fill="#650000"/>
<path d="M10.6363 15.1917C8.00759 15.1917 5.55792 14.118 3.73857 12.1682C1.6952 9.97845 0.615234 6.85966 0.615234 3.1489C0.615234 2.26749 1.68583 1.45993 3.62969 0.874785C5.50386 0.310658 7.99215 0 10.6363 0C13.2804 0 15.7687 0.310658 17.6429 0.874785C19.5869 1.45993 20.6574 2.26749 20.6574 3.1489C20.6574 6.85966 19.5774 9.97845 17.5341 12.1682C15.7148 14.118 13.2651 15.1917 10.6363 15.1917ZM10.6363 0.378736C4.86853 0.378736 0.99397 1.81111 0.99397 3.1489C0.99397 11.1629 5.99224 14.813 10.6363 14.813C15.2803 14.813 20.2787 11.1629 20.2787 3.1489C20.2787 1.81111 16.4042 0.378736 10.6363 0.378736Z" fill="#650000"/>
<path d="M18.7416 3.8421C18.6442 3.94758 18.5203 4.05041 18.3716 4.14963C17.1226 4.98418 14.1298 5.57141 10.6365 5.57141C10.4022 5.57141 10.1696 5.56876 9.94021 5.56336C6.74936 5.49149 4.06649 4.92812 2.90141 4.14963C2.90094 4.14963 2.90094 4.14963 2.90056 4.14963C2.8035 4.08556 2.71151 4.01412 2.62541 3.93593C2.56434 3.87354 2.52391 3.83178 2.50819 3.81559C2.50696 3.81414 2.50563 3.81278 2.50421 3.81152C2.50241 3.80934 2.50146 3.80839 2.50146 3.80839C3.18707 3.06039 5.21549 2.45886 7.84325 2.207C8.70837 2.12387 9.63817 2.07861 10.6066 2.07861C14.5609 2.07861 17.8738 2.83107 18.7416 3.8421Z" fill="#AD6F44"/>
<path d="M18.7417 3.98425C18.7199 3.98428 18.6984 3.97928 18.6788 3.96966C18.6593 3.96004 18.6422 3.94605 18.6289 3.92877C17.7685 2.93856 14.3982 2.22058 10.6065 2.22058C6.91072 2.22058 3.58249 2.91177 2.63981 3.86883C2.63276 3.88618 2.62237 3.90198 2.60923 3.91532C2.58276 3.94211 2.54673 3.95729 2.50907 3.95752C2.47141 3.95775 2.4352 3.94302 2.40841 3.91655C2.40754 3.91578 2.40672 3.91496 2.40594 3.91409C2.402 3.91032 2.39827 3.90634 2.39477 3.90216C2.37162 3.87585 2.35902 3.8419 2.35938 3.80686C2.35975 3.77181 2.37306 3.73814 2.39676 3.71232C3.35543 2.66673 6.73139 1.93652 10.6065 1.93652C14.5435 1.93652 17.9332 2.68206 18.8494 3.74953C18.8715 3.77528 18.8837 3.8081 18.8837 3.84204C18.8837 3.8607 18.8801 3.87919 18.8729 3.89645C18.8658 3.9137 18.8553 3.92938 18.8422 3.94259C18.829 3.95579 18.8133 3.96627 18.7961 3.97342C18.7788 3.98057 18.7603 3.98425 18.7417 3.98425Z" fill="#650000"/>
<g opacity="0.25">
<path d="M5.9603 6.65925C5.01156 6.49479 4.31744 6.3076 3.82697 6.14285C3.38953 5.9959 2.96317 6.39016 3.07528 6.83792C3.28548 7.67777 3.62236 8.81767 4.06662 9.65543C4.16678 9.84379 4.31063 10.0054 4.48611 10.1267C4.66159 10.2481 4.86359 10.3256 5.07519 10.3528L6.42557 10.5277C6.79342 10.575 7.09783 10.2436 7.01725 9.88153C6.86425 9.19034 6.78357 8.39604 6.81226 7.71715C6.82292 7.46744 6.74235 7.22237 6.58558 7.0277C6.4288 6.83303 6.20655 6.70207 5.9603 6.65925Z" fill="white"/>
</g>
<g opacity="0.25">
<path d="M7.33384 13.2308C6.39647 12.8615 5.69656 12.08 5.31953 11.5752C5.18546 11.3953 5.33089 11.1425 5.55368 11.1665L6.73221 11.2931C6.88009 11.309 7.01969 11.3692 7.13262 11.466C7.24554 11.5628 7.32649 11.6915 7.3648 11.8353L7.65832 12.9372C7.71002 13.1308 7.52065 13.3043 7.33384 13.2308Z" fill="white"/>
</g>
<path d="M18.4731 11.8203C18.2372 11.8202 18.0014 11.8058 17.7672 11.7771C17.7425 11.7741 17.7186 11.7663 17.697 11.754C17.6753 11.7418 17.6563 11.7255 17.6409 11.7059C17.6256 11.6863 17.6142 11.6639 17.6076 11.64C17.6009 11.616 17.599 11.591 17.602 11.5663C17.608 11.5165 17.6336 11.4711 17.6732 11.4401C17.7127 11.4091 17.7629 11.3951 17.8127 11.4012C19.7552 11.6366 21.4879 10.8288 22.6916 9.12639C23.7398 7.53637 23.9142 5.93867 23.1698 4.74253C22.5959 3.8204 21.5692 3.3325 20.491 3.46903C20.4411 3.47533 20.3909 3.46158 20.3512 3.43081C20.3115 3.40004 20.2856 3.35476 20.2793 3.30494C20.273 3.25512 20.2868 3.20484 20.3176 3.16516C20.3483 3.12547 20.3936 3.09963 20.4434 3.09333C21.6703 2.93776 22.8384 3.49318 23.4914 4.54199C23.8719 5.15336 24.0443 5.88963 23.9901 6.67134C23.9297 7.54243 23.5986 8.43871 23.0061 9.33669L23.0027 9.34171C21.8619 10.9574 20.2725 11.8202 18.4731 11.8203Z" fill="#650000"/>
<path d="M11.7729 5.0863C11.1858 5.14917 10.7546 5.38929 10.6375 5.66387C10.5208 5.38929 10.0893 5.14945 9.50205 5.0863C7.84357 4.83217 6.41365 4.58523 6.55284 3.576C6.99596 2.3328 10.1445 2.29644 10.6375 3.45338C11.1304 2.29644 14.2794 2.3328 14.7221 3.576C14.8613 4.58552 13.4313 4.83245 11.7729 5.0863Z" fill="#BE9577"/>
<path d="M18.9382 10.1249H18.9022C18.852 10.1243 18.8041 10.1037 18.769 10.0677C18.734 10.0317 18.7147 9.98332 18.7153 9.93312C18.7155 9.90818 18.7206 9.88353 18.7303 9.86058C18.7401 9.83763 18.7543 9.81686 18.7721 9.79947C18.79 9.78208 18.8112 9.76842 18.8344 9.7593C18.8576 9.75017 18.8823 9.74575 18.9073 9.7463C20.0946 9.76221 21.0357 8.86044 21.5215 8.01132C22.0233 7.13369 22.1308 6.20787 21.7943 5.65265C21.5447 5.24068 21.0735 5.04525 20.393 5.07129C20.3428 5.07308 20.294 5.05495 20.2571 5.02085C20.2203 4.98675 20.1985 4.93945 20.1964 4.8893C20.1945 4.83912 20.2126 4.79023 20.2467 4.75338C20.2808 4.71654 20.3282 4.69476 20.3784 4.69283C21.4098 4.65326 21.8942 5.08615 22.1185 5.45637C22.5314 6.13809 22.4288 7.18908 21.8505 8.19936C21.3161 9.13342 20.2719 10.1249 18.9382 10.1249Z" fill="#650000"/>
<path d="M10.6376 5.50029C10.9252 4.84783 12.8751 4.72019 13.9276 4.18769C14.2071 4.04567 14.3663 3.81019 14.305 3.57423C14.0903 2.74973 11.4611 2.58403 10.6376 3.4537C9.81385 2.58403 7.18476 2.74973 6.97011 3.57423C6.90876 3.81019 7.06801 4.04614 7.34752 4.18769C8.40003 4.72019 10.3499 4.84783 10.6376 5.50029Z" fill="#FDFFFE"/>
<path d="M10.6064 3.78644C10.3902 3.63885 10.1499 3.53033 9.89624 3.46584C9.64656 3.39909 9.38836 3.37116 9.13186 3.37031C8.87546 3.3722 8.61848 3.39985 8.37505 3.46442C8.25424 3.49718 8.13503 3.53875 8.03419 3.59698C7.98467 3.62539 7.93865 3.65957 7.9129 3.6929C7.90271 3.70473 7.89533 3.71871 7.89131 3.7338C7.88936 3.74326 7.89076 3.7531 7.89529 3.76164C7.90381 3.77812 7.91523 3.79294 7.929 3.80538C7.94952 3.82378 7.97111 3.84095 7.99367 3.85679C8.04276 3.89137 8.09471 3.92172 8.14895 3.9475C8.26001 4.00355 8.38073 4.05014 8.5024 4.09521C8.74631 4.18525 8.99798 4.26469 9.24738 4.35398C9.49753 4.44109 9.74702 4.5353 9.98894 4.64949C10.109 4.70848 10.228 4.77078 10.3393 4.84596C10.4505 4.92114 10.556 5.00758 10.6357 5.11401C10.5374 5.02472 10.4249 4.95749 10.3081 4.89983C10.1906 4.84315 10.0698 4.79351 9.94643 4.75118C9.70025 4.66331 9.44763 4.59334 9.19454 4.521C8.94069 4.45094 8.68609 4.3804 8.43158 4.29603C8.30195 4.25398 8.175 4.20409 8.05142 4.14662C7.98621 4.1162 7.92374 4.08022 7.86471 4.03906C7.83305 4.01722 7.80291 3.99328 7.77447 3.96738C7.73941 3.93528 7.71089 3.8967 7.69049 3.85376C7.66697 3.80204 7.66054 3.74417 7.67212 3.68854C7.68338 3.63915 7.70608 3.5931 7.7384 3.55409C7.76484 3.52144 7.79529 3.49223 7.82901 3.46717C7.8593 3.44386 7.89137 3.42297 7.92492 3.40468C8.05493 3.33376 8.18834 3.29049 8.32307 3.25849C8.58999 3.19802 8.86433 3.17696 9.13735 3.19599C9.4083 3.21141 9.67541 3.26723 9.92986 3.3616C10.1817 3.45836 10.4194 3.59745 10.6064 3.78644Z" fill="#FCC59C"/>
<path d="M10.6366 3.78641C10.8237 3.59704 11.0614 3.45833 11.313 3.36147C11.5674 3.26711 11.8345 3.21129 12.1054 3.19587C12.3784 3.17685 12.6527 3.1979 12.9197 3.25836C13.0543 3.29036 13.1877 3.33363 13.3173 3.40455C13.3509 3.42288 13.3829 3.44378 13.4133 3.46704C13.4469 3.49211 13.4774 3.52131 13.5038 3.55396C13.5361 3.59297 13.5588 3.63902 13.5701 3.68841C13.5817 3.74404 13.5752 3.80192 13.5517 3.85363C13.5313 3.89659 13.5029 3.93518 13.4678 3.96726C13.4393 3.99315 13.4092 4.0171 13.3775 4.03893C13.3185 4.08007 13.256 4.11605 13.1908 4.14649C13.0672 4.20394 12.9402 4.25384 12.8106 4.2959C12.5562 4.38027 12.3015 4.45081 12.0476 4.52087C11.7946 4.59321 11.5417 4.6629 11.2957 4.75105C11.1723 4.79338 11.0516 4.84302 10.9341 4.8997C10.8174 4.95737 10.7047 5.02459 10.6064 5.11388C10.6863 5.00745 10.792 4.92091 10.9029 4.84583C11.0138 4.77074 11.1334 4.70835 11.2532 4.64936C11.4951 4.53517 11.7447 4.44105 11.9948 4.35385C12.2442 4.26456 12.496 4.18512 12.7399 4.09508C12.8615 4.05001 12.9823 4.00342 13.0932 3.94737C13.1475 3.92159 13.1994 3.89124 13.2485 3.85666C13.2711 3.84084 13.2927 3.82367 13.3132 3.80525C13.327 3.79283 13.3384 3.77801 13.347 3.76151C13.3515 3.75298 13.3529 3.74312 13.3509 3.73367C13.3468 3.71858 13.3395 3.7046 13.3293 3.69277C13.3035 3.65944 13.2575 3.62535 13.2081 3.59685C13.1074 3.53862 12.9883 3.49706 12.8672 3.46429C12.6238 3.39972 12.3667 3.37207 12.1103 3.37018C11.8538 3.37113 11.5957 3.39858 11.3459 3.46572C11.0926 3.53034 10.8525 3.63889 10.6366 3.78641Z" fill="#FCC59C"/>
<path d="M10.6214 4.00943C10.4915 3.93396 10.3529 3.8746 10.2087 3.83266C10.1375 3.81088 10.065 3.79361 9.99169 3.78096C9.91884 3.76708 9.84519 3.75785 9.77117 3.75331C9.62441 3.74384 9.47358 3.74782 9.33714 3.78806C9.3042 3.79743 9.27244 3.81052 9.24246 3.82707C9.215 3.84354 9.19218 3.86494 9.18442 3.8853C9.16605 3.92317 9.20884 3.98197 9.26158 4.02543L9.25817 4.02288C9.36564 4.09521 9.48542 4.15373 9.60443 4.21291C9.72345 4.27208 9.84607 4.32653 9.96698 4.38457C10.0879 4.44261 10.2091 4.50131 10.3268 4.56816C10.3856 4.60173 10.4423 4.63891 10.4965 4.67951C10.5237 4.69986 10.549 4.72261 10.5722 4.74749C10.5948 4.77258 10.6151 4.80212 10.6215 4.83536C10.6109 4.80326 10.588 4.77798 10.5632 4.75658C10.5383 4.7349 10.5116 4.71533 10.4834 4.69807C10.4267 4.66343 10.3679 4.63238 10.3074 4.60509C10.1868 4.54828 10.0631 4.49819 9.93971 4.4463C9.81634 4.39441 9.69221 4.34357 9.5694 4.2878C9.4466 4.23203 9.32511 4.17219 9.20894 4.09673L9.20676 4.09531L9.20543 4.09408C9.17476 4.06671 9.14294 4.03982 9.11946 3.99939C9.11275 3.98962 9.10746 3.97894 9.10374 3.96767C9.09852 3.95615 9.0951 3.94388 9.09361 3.93132C9.09094 3.91822 9.09059 3.90476 9.09257 3.89155C9.09324 3.8781 9.09645 3.86489 9.10204 3.85263C9.12297 3.80283 9.16207 3.77357 9.19843 3.75161C9.23463 3.73172 9.27306 3.71618 9.3129 3.70531C9.46799 3.66402 9.62451 3.66544 9.77742 3.68135C9.93009 3.6981 10.08 3.73431 10.2235 3.7891C10.3659 3.84337 10.4999 3.91755 10.6214 4.00943Z" fill="#FCC59C"/>
<path d="M10.6213 4.00953C10.7428 3.91777 10.8767 3.84365 11.0189 3.78939C11.1623 3.73449 11.3122 3.69819 11.4648 3.68135C11.6177 3.66544 11.7742 3.66402 11.9293 3.70531C11.9692 3.71618 12.0076 3.73172 12.0438 3.75161C12.0802 3.77357 12.1195 3.80283 12.1402 3.85263C12.1458 3.86489 12.149 3.8781 12.1497 3.89155C12.1516 3.90476 12.1513 3.91822 12.1486 3.93132C12.1471 3.94388 12.1437 3.95615 12.1385 3.96767C12.1348 3.97894 12.1295 3.98962 12.1228 3.99939C12.0993 4.03992 12.0675 4.06681 12.0368 4.09408L12.0355 4.09531L12.0333 4.09673C11.9171 4.17248 11.7957 4.23241 11.6728 4.2878C11.5499 4.34319 11.4266 4.39536 11.3025 4.4463C11.1784 4.49724 11.0554 4.54837 10.9349 4.60509C10.8743 4.63238 10.8155 4.66343 10.7588 4.69807C10.7307 4.71533 10.704 4.7349 10.679 4.75658C10.6528 4.77709 10.6326 4.80431 10.6206 4.83536C10.6271 4.80212 10.6474 4.77258 10.67 4.74749C10.6932 4.72261 10.7185 4.69986 10.7458 4.67951C10.8 4.63889 10.8566 4.6017 10.9155 4.56816C11.0328 4.50131 11.1536 4.44185 11.2752 4.38457C11.3969 4.32728 11.5181 4.27095 11.6378 4.21291C11.7575 4.15486 11.8766 4.09521 11.9841 4.02288L11.9806 4.02543C12.0333 3.98197 12.0762 3.92346 12.0578 3.8853C12.05 3.86456 12.0272 3.84354 11.9998 3.82707C11.9698 3.81052 11.938 3.79743 11.9051 3.78806C11.7686 3.74782 11.6178 3.74432 11.4711 3.75331C11.397 3.75785 11.3234 3.76708 11.2505 3.78096C11.1772 3.79361 11.1047 3.81088 11.0335 3.83266C10.8894 3.87469 10.751 3.93408 10.6213 4.00953Z" fill="#FCC59C"/>
<path d="M8.77339 3.57632C8.72027 3.60965 8.66791 3.64184 8.63203 3.67971C8.59633 3.72109 8.59652 3.74732 8.6254 3.78822C8.65437 3.82761 8.69887 3.86615 8.74451 3.90288C8.79015 3.93962 8.83919 3.97617 8.88568 4.01963C8.82347 4.00964 8.76316 3.99019 8.70683 3.96197C8.65077 3.93356 8.595 3.89843 8.55173 3.83954C8.53166 3.81019 8.51339 3.76862 8.52068 3.72317C8.52467 3.70342 8.53259 3.68467 8.54398 3.66805C8.55537 3.65143 8.56998 3.63726 8.58696 3.62641C8.64231 3.59056 8.70753 3.57303 8.77339 3.57632Z" fill="#FCC59C"/>
<path d="M17.5747 1.98067C17.7919 2.03717 18.0033 2.11395 18.2061 2.20999C18.2567 2.23518 18.3077 2.26017 18.3576 2.28697C18.4064 2.31642 18.457 2.34293 18.5048 2.37522C18.604 2.43704 18.6971 2.50801 18.783 2.58721C18.8688 2.66959 18.9514 2.7603 19.0159 2.86956C19.0832 2.98294 19.123 3.11051 19.1321 3.24205C19.1435 3.3765 19.1117 3.51275 19.0587 3.63025C19.0055 3.74413 18.935 3.84911 18.8497 3.94148L18.8886 3.84177C18.8889 3.87822 18.8754 3.91344 18.8507 3.94025L18.8494 3.94176C18.7247 4.07579 18.5835 4.1935 18.4293 4.29209L18.2014 4.43166C18.1234 4.47341 18.0445 4.51204 17.9661 4.55228C17.6516 4.70308 17.3263 4.82994 16.9928 4.93178C16.3313 5.13828 15.6568 5.28457 14.9782 5.3945C14.2996 5.50442 13.6166 5.57733 12.933 5.6295C12.5912 5.65724 12.2488 5.67296 11.9064 5.68944L11.3924 5.70449C11.2212 5.71027 11.0498 5.70837 10.8785 5.71102C9.50814 5.72201 8.13598 5.64607 6.77603 5.45538C6.0963 5.35889 5.41912 5.23599 4.75065 5.06234L4.50059 4.99493L4.25271 4.91757C4.08673 4.86919 3.92406 4.80604 3.76121 4.74591C3.67997 4.71514 3.60024 4.67755 3.52023 4.64375L3.40037 4.59101C3.36069 4.57207 3.32206 4.55105 3.28286 4.53117L3.16593 4.47085C3.12711 4.45012 3.08743 4.43175 3.05022 4.40694L2.82497 4.26492L2.90129 4.28811H2.90043L2.82412 4.26492C2.7494 4.21305 2.67749 4.15723 2.60871 4.09771C2.57335 4.06773 2.5398 4.03567 2.50825 4.0017L2.41272 3.89925L2.43251 3.91818C2.41971 3.9082 2.40848 3.89636 2.39918 3.88306L2.40552 3.89167C2.40762 3.89426 2.4099 3.8967 2.41234 3.89896L2.40581 3.89196C2.33404 3.80548 2.2754 3.70891 2.23178 3.60535C2.18634 3.49747 2.16588 3.38072 2.17194 3.26382C2.17829 3.14867 2.21045 3.03641 2.26605 2.93537C2.31811 2.83959 2.38335 2.75159 2.45987 2.67394C2.61013 2.5233 2.78179 2.40637 2.96084 2.30827C3.13903 2.21098 3.32439 2.12745 3.51531 2.0584C3.51803 2.05736 3.52093 2.05688 3.52384 2.05697C3.52675 2.05707 3.52962 2.05775 3.53226 2.05896C3.53491 2.06018 3.53728 2.06191 3.53925 2.06406C3.54122 2.06621 3.54274 2.06873 3.54372 2.07147C3.54545 2.07642 3.54537 2.08183 3.54347 2.08672C3.54158 2.09161 3.53801 2.09567 3.5334 2.09817C3.35719 2.19285 3.18306 2.29057 3.0221 2.40372C2.86114 2.51686 2.70908 2.64194 2.58845 2.78719C2.47038 2.93177 2.3828 3.09964 2.38962 3.26771C2.38838 3.43501 2.47587 3.59342 2.59792 3.72635L2.59148 3.71944C2.59574 3.7237 2.59981 3.72825 2.60369 3.73298L2.60994 3.7416C2.60337 3.73104 2.59482 3.72184 2.58476 3.71452L2.60455 3.73346L2.68976 3.81612C2.71795 3.84422 2.7479 3.87051 2.77943 3.8948C2.84317 3.94531 2.90954 3.9924 2.97826 4.03588L2.90195 4.01268L2.9028 4.01315L2.97912 4.03626C3.5386 4.37551 4.18368 4.59148 4.83104 4.77034C5.48066 4.95024 6.14714 5.07872 6.8177 5.17464C8.16022 5.36334 9.52016 5.43881 10.8779 5.42782C11.0476 5.42489 11.2175 5.42574 11.387 5.41921L11.896 5.40198C12.2349 5.38408 12.5739 5.36685 12.9119 5.33787C13.5882 5.28324 14.262 5.20219 14.9295 5.08924C15.5969 4.97628 16.2588 4.83359 16.8989 4.63096C17.0598 4.58362 17.2164 4.52388 17.3739 4.46792C17.4536 4.44169 17.5282 4.40562 17.6056 4.37466C17.6819 4.34199 17.7603 4.31254 17.8328 4.27382C17.9064 4.23689 17.9811 4.20129 18.0539 4.16332L18.264 4.03853C18.3995 3.95606 18.5238 3.85673 18.6342 3.74292L18.5951 3.84301V3.83922C18.5955 3.80336 18.6093 3.76895 18.6339 3.74283C18.7694 3.599 18.8619 3.42876 18.8516 3.25672C18.8475 3.16719 18.8237 3.07967 18.7819 3.00041C18.7345 2.91422 18.677 2.83404 18.6105 2.76162C18.5745 2.72526 18.5398 2.68758 18.5 2.65359C18.4628 2.61723 18.4221 2.5838 18.3811 2.55029C18.2988 2.48401 18.2106 2.42218 18.122 2.36092C17.9421 2.24143 17.7519 2.1315 17.5593 2.02176C17.5542 2.0189 17.5505 2.01414 17.5489 2.00853C17.5474 2.00292 17.5481 1.99691 17.551 1.99184C17.5532 1.98767 17.5567 1.98433 17.561 1.98231C17.5653 1.9803 17.5701 1.97972 17.5747 1.98067Z" fill="#650000"/>
<path d="M14.949 3.18945C15.0403 3.21218 15.1246 3.25497 15.2053 3.30582C15.2882 3.35931 15.3607 3.42742 15.4192 3.50683C15.483 3.59405 15.5213 3.69727 15.5299 3.80499C15.5369 3.91719 15.5044 4.02845 15.4542 4.12076C15.3488 4.30549 15.189 4.42602 15.0265 4.51919C14.8636 4.61034 14.6872 4.67472 14.5039 4.70989C14.6473 4.59049 14.793 4.48605 14.9264 4.37376C15.0598 4.26146 15.1835 4.14396 15.2578 4.01245C15.2935 3.95083 15.3142 3.88162 15.318 3.81049C15.3197 3.74146 15.3018 3.66941 15.2689 3.59745C15.2001 3.45315 15.0808 3.31851 14.949 3.18945Z" fill="#BE9577"/>
<path d="M6.23571 3.18945C6.10391 3.31851 5.9846 3.45315 5.91634 3.59745C5.88339 3.66941 5.86549 3.74146 5.8672 3.81049C5.87102 3.88162 5.89166 3.95083 5.92741 4.01245C6.00146 4.14396 6.12578 4.2627 6.25881 4.37376C6.39184 4.48482 6.53794 4.59049 6.68129 4.70989C6.49801 4.67472 6.32158 4.61034 6.15873 4.51919C5.99625 4.42602 5.8368 4.30549 5.73104 4.12076C5.68057 4.02845 5.6481 3.91719 5.65529 3.80499C5.66384 3.69725 5.7022 3.59402 5.76607 3.50683C5.82444 3.42761 5.89672 3.35966 5.9794 3.30629C6.06016 3.25497 6.14443 3.21218 6.23571 3.18945Z" fill="#BE9577"/>
<path d="M17.267 3.82974C17.4657 3.82974 17.6268 3.76798 17.6268 3.69179C17.6268 3.6156 17.4657 3.55383 17.267 3.55383C17.0683 3.55383 16.9072 3.6156 16.9072 3.69179C16.9072 3.76798 17.0683 3.82974 17.267 3.82974Z" fill="#BE9577"/>
<path d="M3.82708 3.92435C4.0258 3.92435 4.18688 3.86258 4.18688 3.78639C4.18688 3.7102 4.0258 3.64844 3.82708 3.64844C3.62837 3.64844 3.46729 3.7102 3.46729 3.78639C3.46729 3.86258 3.62837 3.92435 3.82708 3.92435Z" fill="#BE9577"/>
<path d="M16.9604 4.2311C17.089 4.2311 17.1932 4.19295 17.1932 4.14588C17.1932 4.09882 17.089 4.06067 16.9604 4.06067C16.8318 4.06067 16.7275 4.09882 16.7275 4.14588C16.7275 4.19295 16.8318 4.2311 16.9604 4.2311Z" fill="#BE9577"/>
<path d="M4.52433 3.49868C4.65292 3.49868 4.75716 3.46053 4.75716 3.41346C4.75716 3.3664 4.65292 3.32825 4.52433 3.32825C4.39574 3.32825 4.2915 3.3664 4.2915 3.41346C4.2915 3.46053 4.39574 3.49868 4.52433 3.49868Z" fill="#BE9577"/>
<path d="M16.542 3.88473C16.6121 3.88473 16.669 3.86514 16.669 3.84099C16.669 3.81683 16.6121 3.79724 16.542 3.79724C16.4719 3.79724 16.415 3.81683 16.415 3.84099C16.415 3.86514 16.4719 3.88473 16.542 3.88473Z" fill="#BE9577"/>
<path d="M4.91418 3.93529C4.91418 3.96512 4.84392 3.98926 4.75738 3.98926C4.67084 3.98926 4.60059 3.96512 4.60059 3.93529C4.60059 3.90546 4.67074 3.88123 4.75738 3.88123C4.84402 3.88123 4.91418 3.90537 4.91418 3.93529Z" fill="#BE9577"/>
<g opacity="0.3">
<path d="M8.68359 14.643L8.68852 14.6423C8.84531 14.6707 9.01991 14.7013 9.20928 14.7344C14.1518 15.2415 19.4116 11.7208 19.9333 4.17456C19.4685 4.8292 18.4366 5.56641 16.323 6.24691C16.1713 6.29562 16.0396 6.39222 15.9475 6.5222C15.8555 6.65218 15.8081 6.80852 15.8124 6.96773C15.9391 11.5159 13.3627 13.9932 8.68359 14.643Z" fill="#650000"/>
</g>
<g opacity="0.3">
<path d="M9.94021 5.56386C6.74936 5.49199 4.06649 4.92862 2.90141 4.15013C2.90094 4.15013 2.90094 4.15013 2.90056 4.15013C2.80348 4.08591 2.71149 4.01431 2.62541 3.93596C2.56434 3.87356 2.52391 3.83181 2.50819 3.81562C2.50696 3.81417 2.50563 3.81281 2.50421 3.81154C2.50241 3.80937 2.50146 3.80842 2.50146 3.80842C3.18707 3.06042 5.21549 2.45889 7.84325 2.20703L7.86786 2.22455C3.05319 3.71819 4.73231 4.76246 9.94021 5.56386Z" fill="#792937"/>
</g>
<g opacity="0.3">
<path d="M22.7361 3.95216C22.0524 3.89336 21.5119 4.30997 21.1359 4.95865C20.9222 4.89853 20.673 4.87069 20.3853 4.88186L20.4674 3.28171C20.8795 3.2286 21.2981 3.26335 21.6958 3.38368C22.078 3.49938 22.4322 3.69294 22.7361 3.95216Z" fill="#650000"/>
</g>
<g opacity="0.3">
<path d="M21.8712 10.3327C21.7018 10.4823 21.5233 10.6215 21.3369 10.7493C21.3253 10.7575 21.3136 10.7655 21.3019 10.7732C20.2751 11.4632 19.1038 11.7236 17.9041 11.6015C17.8663 11.5983 17.8284 11.5938 17.7905 11.5893L17.8888 11.4434L18.9049 9.93541C19.4086 9.94213 19.8827 9.79338 20.3051 9.54342C20.4799 9.43981 20.6451 9.32099 20.799 9.18835C21.0186 9.74992 21.3727 10.1751 21.8712 10.3327Z" fill="#650000"/>
</g>
<g opacity="0.3">
<path d="M11.1753 17.2619C11.0995 17.2583 11.0244 17.2543 10.9503 17.2503C-0.996075 16.5867 2.21267 11.6306 2.21267 11.6306C2.52082 11.4652 2.83783 11.3168 3.16225 11.1862C3.76192 12.0239 4.46362 12.7173 5.26736 13.2662C2.71459 15.243 5.24397 16.4951 11.1753 17.2619Z" fill="#650000"/>
</g>
<path d="M3.30919 16.2752C2.53022 15.9255 2.35638 14.621 2.92098 13.361C3.45869 12.1618 4.47124 11.4349 5.24007 11.6691C5.27929 11.681 5.31772 11.6953 5.35512 11.7121C5.37036 11.7181 5.3857 11.7243 5.40104 11.731C8.433 12.9684 6.52437 17.7165 3.30919 16.2752Z" fill="#AD6F44"/>
<g opacity="0.3">
<path d="M3.30925 16.2752C3.04139 16.1551 2.8453 15.9224 2.72656 15.6174C5.23569 16.4986 6.84531 13.5988 5.69841 11.8716C8.29918 13.2895 6.41355 17.6665 3.30925 16.2752Z" fill="#650000"/>
</g>
<g opacity="0.6">
<path d="M6.62808 12.7645C6.37906 12.4731 6.0382 12.2262 5.59451 12.0529L5.59262 12.0521C5.49083 12.0064 5.37105 12.0545 5.32343 12.1555L3.44765 16.1258L3.21094 15.9781L5.09912 11.9691L5.24115 11.6691C5.24219 11.6691 5.24314 11.6691 5.24418 11.6701C5.25753 11.6742 5.27031 11.6783 5.28309 11.6834C5.30762 11.6916 5.33214 11.7013 5.35619 11.7118C5.37143 11.7178 5.38677 11.724 5.40211 11.7307C5.98423 11.9689 6.38502 12.3362 6.62808 12.7645Z" fill="white"/>
</g>
<g opacity="0.6">
<path d="M5.2405 11.6691L5.09847 11.9691C4.40179 12.0177 3.61193 12.6924 3.15972 13.7019C2.76461 14.5836 2.7308 15.4873 3.01353 16.0701C2.49523 15.5548 2.43596 14.4415 2.92102 13.3609C3.45911 12.1618 4.47157 11.4349 5.2405 11.6691Z" fill="white"/>
</g>
<path d="M4.48966 16.7026C4.08782 16.7026 3.66818 16.6079 3.24494 16.4186C2.81659 16.2263 2.53633 15.7865 2.45557 15.1803C2.37849 14.6013 2.49297 13.9324 2.77749 13.2967C3.06202 12.661 3.48573 12.1305 3.96928 11.8028C4.47441 11.4605 4.98789 11.3767 5.41567 11.5671C6.34906 11.9325 6.93222 12.6419 7.05767 13.5649C7.19213 14.5541 6.74844 15.6182 5.95357 16.2128C5.51859 16.5385 5.0196 16.7026 4.48966 16.7026ZM3.37315 16.1318C4.24575 16.523 5.09535 16.4624 5.76533 15.9613C6.47158 15.433 6.86575 14.487 6.74626 13.6074C6.63671 12.8013 6.12229 12.1802 5.2976 11.8586L5.2904 11.8556C4.96497 11.7096 4.55831 11.7833 4.14529 12.0631C3.70975 12.3584 3.32543 12.8423 3.064 13.4254C2.53557 14.6041 2.67419 15.8182 3.37286 16.1319L3.37315 16.1318Z" fill="#650000"/>
<path d="M3.7259 16.4901C3.56442 16.4909 3.40461 16.4573 3.25712 16.3915C3.2262 16.3777 3.20206 16.3521 3.19 16.3204C3.17794 16.2887 3.17896 16.2535 3.19283 16.2226C3.19968 16.2073 3.20949 16.1935 3.22169 16.182C3.23388 16.1705 3.24823 16.1614 3.26391 16.1555C3.27959 16.1495 3.2963 16.1467 3.31307 16.1472C3.32984 16.1477 3.34635 16.1515 3.36165 16.1583C3.69664 16.3085 4.11325 16.2341 4.53497 15.9482C4.97525 15.6499 5.36289 15.1618 5.62659 14.5737C5.89028 13.9856 5.9968 13.3712 5.92664 12.8443C5.85941 12.3394 5.63795 11.9787 5.30296 11.8285C5.27204 11.8147 5.24789 11.7891 5.23584 11.7574C5.22378 11.7257 5.2248 11.6905 5.23867 11.6596C5.24553 11.6443 5.25534 11.6305 5.26755 11.619C5.27975 11.6074 5.29411 11.5984 5.3098 11.5925C5.32549 11.5865 5.3422 11.5837 5.35898 11.5842C5.37575 11.5847 5.39227 11.5884 5.40758 11.5953C5.82628 11.7831 6.10057 12.2147 6.17992 12.8106C6.25633 13.3842 6.14261 14.0475 5.85979 14.6783C5.57697 15.3091 5.15743 15.8353 4.67833 16.1598C4.35536 16.3787 4.02936 16.4901 3.7259 16.4901Z" fill="#650000"/>
<path d="M3.12298 16.2922C3.10418 16.2922 3.08561 16.2881 3.06863 16.28C3.05339 16.2729 3.03972 16.2628 3.02839 16.2503C3.01706 16.2379 3.00831 16.2233 3.00263 16.2075C2.99694 16.1917 2.99444 16.1749 2.99527 16.1581C2.9961 16.1412 3.00025 16.1248 3.00746 16.1096L5.12592 11.6152C5.13306 11.6 5.14314 11.5863 5.15559 11.575C5.16803 11.5637 5.18259 11.5549 5.19843 11.5492C5.21427 11.5436 5.23108 11.5411 5.24788 11.5419C5.26468 11.5428 5.28116 11.5469 5.29635 11.5541C5.31158 11.5613 5.32524 11.5714 5.33656 11.5838C5.34787 11.5963 5.35662 11.6108 5.3623 11.6267C5.36797 11.6425 5.37046 11.6593 5.36962 11.6761C5.36879 11.6929 5.36464 11.7094 5.35742 11.7246L3.23906 16.2189C3.22868 16.2409 3.21225 16.2595 3.19169 16.2725C3.17113 16.2855 3.14729 16.2923 3.12298 16.2922Z" fill="#650000"/>
<path d="M4.95908 14.8604C4.85976 14.1052 5.76873 13.3623 6.99015 13.2007C8.15249 13.0473 9.17858 13.4753 9.36094 14.169C9.3703 14.2043 9.37738 14.2402 9.38215 14.2764C9.3847 14.291 9.38726 14.3054 9.38934 14.3202C9.86939 17.2018 5.37105 17.9765 4.95908 14.8604Z" fill="#AD6F44"/>
<g opacity="0.3">
<path d="M4.95914 14.8605C4.92486 14.6008 5.00979 14.3433 5.18572 14.11C5.6919 16.4278 8.64708 16.2913 9.4214 14.6118C9.56295 17.2506 5.35672 17.8687 4.95914 14.8605Z" fill="#650000"/>
</g>
<g opacity="0.6">
<path d="M9.17869 15.7356C9.28285 15.4101 9.31125 15.0357 9.23475 14.6176V14.6158C9.22168 14.5172 9.12908 14.4488 9.03023 14.4598L5.13721 14.8953L5.13853 14.6464L9.06659 14.2024L9.36077 14.1693C9.36077 14.1704 9.36134 14.1711 9.36143 14.1721C9.36456 14.1841 9.3674 14.1957 9.36948 14.2078C9.37481 14.2306 9.37898 14.2535 9.38198 14.2767C9.38454 14.2913 9.38709 14.3058 9.38918 14.3205C9.48111 14.8742 9.39003 15.3505 9.17869 15.7356Z" fill="white"/>
</g>
<g opacity="0.6">
<path d="M9.3608 14.1694L9.06662 14.2024C8.70351 13.6961 7.82134 13.4126 6.84297 13.542C5.98854 13.6549 5.28656 14.0526 4.97656 14.5401C5.12503 13.9058 5.94234 13.3393 6.99001 13.201C8.15235 13.0476 9.17844 13.476 9.3608 14.1694Z" fill="white"/>
</g>
<path d="M7.14166 17.022C6.83279 17.0234 6.5264 16.9667 6.23847 16.8549C5.43925 16.5396 4.92947 15.8386 4.80297 14.881C4.69049 14.027 5.64187 13.2207 6.96886 13.0453C7.5881 12.9635 8.19237 13.0368 8.67043 13.2518C9.17225 13.4774 9.47979 13.8326 9.53669 14.2523C9.69765 15.1383 9.42979 15.9188 8.78291 16.4504C8.3289 16.8237 7.73268 17.022 7.14166 17.022ZM5.11448 14.8399C5.22535 15.6792 5.66554 16.291 6.3538 16.5631C7.08012 16.8496 7.97611 16.7069 8.58341 16.2079C9.13911 15.7514 9.36759 15.0757 9.22726 14.3055C9.22726 14.3029 9.22641 14.3003 9.22603 14.2977C9.18522 13.9884 8.94198 13.7188 8.54194 13.5388C8.11643 13.3475 7.57257 13.2832 7.01043 13.3573C5.89647 13.5044 5.02841 14.1836 5.11486 14.8404L5.11448 14.8399Z" fill="#650000"/>
<path d="M6.88147 16.0813C6.44517 16.0813 6.03291 16.0011 5.68788 15.8459C5.19875 15.6259 4.89983 15.2813 4.84624 14.8755C4.84423 14.8606 4.84518 14.8455 4.84903 14.831C4.85288 14.8166 4.85955 14.803 4.86867 14.7911C4.87779 14.7792 4.88917 14.7692 4.90215 14.7618C4.91514 14.7543 4.92947 14.7495 4.94433 14.7475C4.95918 14.7455 4.97428 14.7465 4.98876 14.7503C5.00323 14.7542 5.01681 14.7609 5.0287 14.77C5.04059 14.7791 5.05056 14.7905 5.05803 14.8035C5.0655 14.8164 5.07034 14.8308 5.07225 14.8456C5.11514 15.1702 5.36691 15.4516 5.78134 15.6379C6.21404 15.8325 6.76605 15.8981 7.33614 15.823C8.49318 15.6702 9.36011 14.9832 9.26883 14.2915C9.26682 14.2767 9.26777 14.2616 9.27162 14.2471C9.27547 14.2326 9.28215 14.2191 9.29126 14.2072C9.30038 14.1953 9.31176 14.1853 9.32474 14.1778C9.33773 14.1704 9.35206 14.1655 9.36692 14.1636C9.38177 14.1616 9.39687 14.1626 9.41135 14.1664C9.42582 14.1703 9.4394 14.1769 9.45129 14.1861C9.46318 14.1952 9.47315 14.2066 9.48062 14.2195C9.48809 14.2325 9.49293 14.2469 9.49484 14.2617C9.60259 15.078 8.64761 15.8798 7.36597 16.049C7.20535 16.0703 7.0435 16.0811 6.88147 16.0813Z" fill="#650000"/>
<path d="M4.9557 14.7811C4.92766 14.7811 4.9006 14.7708 4.87971 14.7521C4.85882 14.7334 4.84559 14.7076 4.84255 14.6798C4.84083 14.6649 4.84206 14.6498 4.84618 14.6354C4.85031 14.621 4.85724 14.6076 4.86657 14.5959C4.87591 14.5842 4.88747 14.5744 4.90059 14.5672C4.9137 14.5599 4.92812 14.5554 4.94301 14.5538L9.34733 14.057C9.36222 14.0553 9.37731 14.0565 9.39173 14.0607C9.40614 14.0648 9.4196 14.0717 9.43133 14.0811C9.44305 14.0904 9.45281 14.102 9.46004 14.1151C9.46727 14.1283 9.47182 14.1427 9.47345 14.1576C9.47517 14.1725 9.47393 14.1876 9.46981 14.202C9.46568 14.2164 9.45874 14.2298 9.4494 14.2415C9.44005 14.2532 9.42848 14.263 9.41535 14.2702C9.40222 14.2774 9.38779 14.282 9.37289 14.2836L4.96858 14.7803C4.9643 14.7808 4.96 14.7811 4.9557 14.7811Z" fill="#650000"/>
</g>
<defs>
<clipPath id="clip0_1232_5465">
<rect width="24" height="18.4242" fill="white"/>
</clipPath>
</defs>
</svg>
