<svg width="46" height="45" viewBox="0 0 46 45" fill="none" xmlns="http://www.w3.org/2000/svg">
<g clip-path="url(#clip0_239_1287)">
<path d="M22.3447 11.9733C22.0111 12.5722 21.7464 13.171 21.54 13.7524C22.5029 13.7768 23.4382 13.8325 24.3357 13.9126C24.4595 13.3242 24.7037 12.7254 25.1129 12.1579C24.2154 12.0708 23.2904 12.0081 22.3413 11.9698L22.3447 11.9733Z" fill="#3797F0"/>
<path d="M42.4099 17.2793C40.6734 16.7884 39.2154 17.046 38.0462 17.5996C37.3997 15.2425 33.0566 13.265 27.0904 12.4015C27.001 12.5269 26.9047 12.6557 26.7946 12.7845C26.4301 13.2128 26.1447 13.6514 25.9143 14.0901C31.0312 14.769 34.6246 16.3601 34.6246 18.2089C34.6246 20.6808 28.2355 22.6828 20.3539 22.6828C17.7886 22.6828 15.3815 22.4704 13.301 22.0979C12.7577 22.0004 12.2625 22.4112 12.2419 22.9683C12.125 25.959 12.9468 30.0812 17.149 33.7195C17.4585 33.9876 17.149 34.4855 16.7741 34.3253C9.6422 31.3416 8.65872 25.2313 8.80315 21.4503C8.8169 21.0917 8.61746 20.7574 8.29765 20.6008C6.89465 19.9079 6.08311 19.0897 6.08311 18.2089C6.08311 15.8275 12.0115 13.8847 19.4942 13.7454C19.4942 13.157 19.5458 12.5512 19.6764 11.9385C10.1718 12.0638 2.57559 14.8213 2.57559 18.2089C2.57559 18.2089 2.57559 38.8166 20.3539 38.8166C22.338 38.8166 24.0952 38.559 25.6633 38.1029C23.4659 39.2762 20.7596 40.0004 17.4309 40.0004C12.1284 40.0004 8.41113 38.1621 5.80113 35.5892C5.27844 35.0739 4.50816 34.9242 3.83417 35.2097C1.42362 36.2263 0.00341797 37.4692 0.00341797 38.8166C0.00341797 42.2321 9.11608 45 20.3573 45C31.5985 45 40.7112 42.2321 40.7112 38.8166C40.7112 37.1071 38.4176 35.5578 34.7175 34.4402C46.7599 30.8472 48.8954 19.1106 42.4168 17.2793H42.4099ZM38.3591 30.0011C36.5056 31.5574 34.831 32.3269 33.4864 32.7029C36.0827 29.3048 37.2278 25.1756 37.7298 22.1953C41.4402 21.6383 42.9051 26.1783 38.3557 30.0011H38.3591Z" fill="#3797F0"/>
<path d="M19.7108 19.1663C19.7108 19.1663 16.3924 13.4426 19.8243 8.95126C23.7445 3.81934 21.0622 0 21.0622 0C21.0622 0 26.9356 4.83598 22.4102 10.1246C18.8718 14.2573 19.7108 19.1698 19.7108 19.1698V19.1663Z" fill="#434443"/>
<path d="M23.8959 18.4004C23.8959 18.4004 21.8361 14.8456 23.9647 12.0569C26.3993 8.86769 24.7315 6.4967 24.7315 6.4967C24.7315 6.4967 28.38 9.50135 25.5671 12.7845C23.3698 15.3505 23.8925 18.4004 23.8925 18.4004H23.8959Z" fill="#434443"/>
</g>
<defs>
<clipPath id="clip0_239_1287">
<rect width="46" height="45" fill="white"/>
</clipPath>
</defs>
</svg>
