<svg width="50" height="51" viewBox="0 0 50 51" fill="none" xmlns="http://www.w3.org/2000/svg">
<path d="M37.5961 38.1207C44.3533 31.2758 44.3533 20.1781 37.5961 13.3332C30.8389 6.48839 19.8833 6.48839 13.1261 13.3332C6.36891 20.1781 6.36891 31.2758 13.1261 38.1207C19.8833 44.9656 30.8389 44.9656 37.5961 38.1207Z" stroke="black" stroke-width="0.8" stroke-miterlimit="10"/>
<path d="M27.8405 12.1638C27.8405 12.1638 27.7744 11.5127 27.1068 11.095C26.438 10.6773 24.7472 10.335 24.5865 11.241C24.4258 12.1471 23.7488 11.5678 23.7488 11.5678C23.7488 11.5678 24.1564 11.3703 24.2273 10.8688C24.2982 10.3661 22.9701 10.1411 22.9382 10.5851C22.9063 11.0292 23.2253 11.2362 22.8673 11.3116C22.5093 11.387 22.1761 11.4995 21.7294 11.5307C21.2828 11.5618 21.2344 11.01 21.2344 11.01C21.2344 11.01 21.5758 11.0591 22.0674 10.9394C22.5589 10.8185 22.8472 10.3481 22.3025 10.1722C21.7578 9.99624 22.338 10.5935 21.1292 10.4175C21.1292 10.4175 20.9792 10.3637 20.8456 9.95914C20.7133 9.55578 19.6014 9.36188 19.2033 9.71976C18.8039 10.0788 19.0166 10.3661 19.3486 10.4786C19.6806 10.5911 19.2068 10.8101 19.729 10.919C20.2513 11.028 20.464 11.0902 20.3175 11.229C20.171 11.3679 17.5585 10.6031 17.6129 10.0022C17.6129 10.0022 12.3667 12.4116 10.2729 17.3619C10.2729 17.3619 10.3261 17.6576 10.6629 17.739C10.9996 17.8204 11.2158 17.8515 11.0918 18.5062C10.9677 19.1609 10.7716 20.5421 11.6341 20.7001C12.4978 20.8581 12.0642 20.122 11.861 19.7713C11.6577 19.4206 11.5254 18.3446 12.0264 18.6091C12.5262 18.8736 11.7913 18.9275 12.5392 20.3506C13.286 21.7737 12.1304 21.6696 13.0284 22.6977C13.9264 23.7259 14.4273 22.6451 14.7239 23.0089C15.0205 23.3728 14.7369 23.5882 15.3253 23.6732C15.9138 23.7594 15.6668 23.4984 15.9315 24.0825C16.1962 24.6666 16.3817 25.8144 18.1186 25.3943C18.1186 25.3943 18.4057 26.0454 18.1221 26.4847C17.8385 26.924 16.9878 26.8964 16.8897 27.8121C16.7917 28.7277 16.9949 29.0772 17.4061 29.7463C17.8173 30.4153 17.5065 30.8187 17.9673 31.1418C18.4281 31.465 19.5081 31.6541 19.2954 32.4883C19.0827 33.3226 18.7046 34.8702 18.9031 35.252C19.1016 35.6338 18.85 35.629 18.7826 36.0994C18.7153 36.571 19.3758 37.0509 19.3214 37.6518C19.2682 38.2526 18.6786 38.8403 19.0626 39.4734C19.4478 40.1066 19.5447 39.8636 19.7172 40.4345C19.8897 41.0043 20.0138 41.2472 20.3187 41.3238C20.6247 41.4004 21.1198 41.4723 21.3017 41.7559C21.4825 42.0384 21.935 41.5273 21.6302 41.2269C21.3254 40.9265 20.9307 41.0294 21.0465 40.4369C21.1623 39.8445 21.5038 39.6697 21.0382 39.3777C20.5727 39.0856 20.653 38.7445 20.8445 38.7409C21.0347 38.7362 21.473 38.5446 21.1056 38.2347C20.7381 37.9247 20.6235 37.8445 20.9071 37.8528C21.1907 37.8624 22.0674 38.1497 22.8389 37.3968C23.6105 36.644 24.3065 35.7511 24.3065 35.7511C24.3065 35.7511 24.5369 35.24 24.453 34.7146C24.3691 34.1891 24.7684 34.0551 25.4538 34.1233C26.1402 34.1915 26.0611 33.8588 26.0611 33.8588C26.0611 33.8588 26.6672 34.492 26.8728 31.9258C26.8728 31.9258 26.8374 31.5045 27.6172 31.137C28.397 30.7696 27.7377 29.8408 27.2946 29.8408C27.2946 29.8408 27.1221 29.2711 26.7547 29.1849C26.3872 29.0999 25.5495 29.2017 25.2092 28.9276C24.8689 28.6535 24.3951 28.4249 24.3951 28.4249C24.3951 28.4249 24.8133 26.5948 23.041 26.5936C23.041 26.5936 22.7858 25.2746 21.8949 25.3046C21.0051 25.3357 20.8988 25.4159 20.77 25.2052C20.6412 24.9946 20.4746 24.1687 19.8496 24.3339C19.2245 24.4991 19.078 25.3117 18.4719 25.1262C17.8657 24.9419 17.0989 24.991 17.2808 24.3758C17.4628 23.7618 17.5656 23.0388 16.618 23.0293C16.618 23.0293 16.3793 22.9299 16.7728 22.6032C17.1674 22.2764 16.9866 21.7689 16.7598 21.8C16.5341 21.8312 15.8653 22.3111 15.5463 22.3279C15.2273 22.3458 14.2088 22.1651 14.7676 20.9012C15.3265 19.6361 18.0016 19.5128 18.1966 20.1507C18.3903 20.7875 18.1647 21.0436 18.7897 21.1023C19.4136 21.1609 19.2245 20.0442 19.2245 20.0442L20.926 18.9778C20.926 18.9778 21.1032 18.8437 21.2273 18.6366C21.3513 18.4308 23.425 17.4182 23.8728 16.7144C24.3206 16.0107 24.4719 15.6157 25.0603 15.9257C25.6487 16.2357 25.8921 16.3027 26.0434 15.9089C26.1946 15.5139 26.9685 16.5241 27.2828 16.0896C27.5971 15.6552 27.4518 15.1214 26.8007 15.0256C26.1497 14.9299 27.0004 14.2859 26.7393 14.1196C26.4782 13.9532 25.9866 14.5229 25.7338 14.2931C25.4821 14.0645 26.0138 13.2123 25.1631 13.1848C24.3124 13.1572 24.206 13.2374 23.9449 14.1926C23.6826 15.1477 23.3116 14.1962 22.6428 14.8999C21.974 15.6037 22.1288 15.1776 22.0626 14.7515C21.9965 14.3254 21.5357 14.0023 21.0666 13.9652C20.5975 13.9292 20.7842 13.0591 21.4754 12.8712C22.1666 12.6833 23.0032 12.3565 23.0032 12.3565C23.0032 12.3565 23.0776 12.9442 23.5739 12.7922C24.0701 12.6402 24.2391 12.1195 24.2391 12.1195L24.7354 12.1914C24.7354 12.1914 25.0721 11.8239 25.1702 11.8059C25.2671 11.788 26.2856 11.9687 26.2856 11.9687C26.2856 11.9687 26.861 11.9244 26.3163 12.1973C25.7716 12.4702 25.4396 12.1339 25.5589 12.6318C25.6783 13.1297 25.7184 12.8473 26.0812 13.1884C26.4439 13.5295 27.0241 13.4541 27.1529 12.9921C27.1529 12.9921 27.9008 13.2937 28.065 12.8042C28.2293 12.3158 27.8393 12.1626 27.8393 12.1626L27.8405 12.1638Z" fill="black"/>
<path d="M23.8636 17.4494C24.0798 17.7055 24.6694 17.5667 24.1165 17.0053C24.1165 17.0053 23.6474 17.1932 23.8636 17.4494Z" fill="black"/>
<path d="M25.1172 16.6378C25.2767 16.4044 24.8076 16.1435 24.8076 16.1435C24.8076 16.1435 24.5335 16.0717 24.4886 16.3853C24.4437 16.6989 24.9577 16.87 25.1172 16.6366V16.6378Z" fill="black"/>
<path d="M25.285 17.4638C25.285 17.4638 26.2019 17.2447 25.578 16.7372C25.578 16.7372 25.3476 17.0245 25.09 17.0508C24.8336 17.0772 24.4969 16.997 24.6824 17.4721C24.8679 17.9473 25.285 17.4638 25.285 17.4638Z" fill="black"/>
<path d="M26.5609 16.2716C26.5609 16.2716 25.7504 16.1854 26.1048 16.8138C26.1048 16.8138 26.34 16.9443 26.5609 17.1681C26.7819 17.3931 27.3396 17.4733 27.3892 17.1286C27.4376 16.7827 27.3053 16.3793 26.5621 16.2716H26.5609Z" fill="black"/>
<path d="M42.5428 23.3728C42.5428 23.3728 40.9701 23.5284 40.8153 23.0568C40.6605 22.5852 40.1466 22.4152 39.1103 22.584C38.0741 22.754 38.4817 22.3327 38.1225 22.1842C37.7645 22.0358 37.3746 22.1076 37.3746 22.1076C37.3746 22.1076 38.4345 20.2106 34.7799 20.9933C34.7799 20.9933 33.3277 20.5253 32.848 21.4494C32.3695 22.3734 32.5727 22.499 31.221 22.8796C29.8704 23.2603 30.8925 24.0813 30.8925 24.0813C30.8925 24.0813 31.3261 24.3686 30.8074 24.6774C30.2887 24.9862 30.0666 25.8839 30.3053 26.4308C30.5439 26.9778 31.2564 28.2034 31.761 28.4368C32.2655 28.6702 33.7271 28.851 34.0331 28.4787C34.3391 28.1065 34.6003 28.049 34.9902 28.4261C35.3801 28.8031 36.6775 28.5757 36.531 28.9383C36.3844 29.301 35.7015 30.0993 36.2285 31.0736C36.7543 32.0479 37.1217 32.8055 36.5097 33.3262C35.8976 33.8456 35.9283 34.5231 36.4778 35.1155C36.4778 35.1155 36.0477 36.3663 36.4459 36.9049C36.8441 37.4435 36.772 38.17 36.6267 38.5339C36.4801 38.8977 36.6349 38.6955 36.6349 38.6955C36.6349 38.6955 36.5239 39.2556 36.8204 38.9468C37.117 38.638 43.6369 32.8247 42.5416 23.3716L42.5428 23.3728Z" fill="black"/>
<path d="M35.1533 20.5996C36.004 20.4033 36.4341 19.3764 36.4341 19.3764C36.4341 19.3764 37.2884 19.8216 37.6216 19.2603C37.6216 19.2603 37.9796 20.3064 38.4971 20.4452C38.4971 20.4452 38.0103 20.535 38.0978 21.0281C38.1864 21.5212 39.6125 21.2807 39.303 20.3387C38.9934 19.3967 37.5495 19.5392 38.4144 19.0233C39.2781 18.5086 39.6716 19.9748 39.6799 20.3614C39.6881 20.7468 39.3691 21.6625 40.1135 21.3214C40.8579 20.9814 40.6996 19.8683 40.9335 20.4476C41.1675 21.0269 40.7291 21.6673 41.4156 21.7355C42.1021 21.8037 42.2841 21.8624 42.2841 21.8624C42.2841 21.8624 41.1049 17.2363 38.5751 14.3363C38.5751 14.3363 38.5574 14.6858 37.9193 14.7217C37.2813 14.7576 36.8866 15.5332 37.325 16.0131C37.7634 16.4931 38.4321 16.2381 38.4144 16.5888C38.3967 16.9383 38.2762 17.1131 37.7716 16.8797C37.2671 16.6463 36.9434 16.6953 36.8146 17.1573C36.6858 17.6193 36.4778 17.9736 36.1234 17.7941C35.7689 17.6146 34.9359 17.9102 35.3341 18.6726C35.3341 18.6726 35.5243 19.3417 35.0729 19.1789C34.6216 19.0173 33.4483 18.59 33.3857 19.702C33.323 20.8151 34.3061 20.7971 35.1568 20.6008L35.1533 20.5996Z" fill="black"/>
<path d="M35.1179 16.3961C35.4192 16.5038 35.405 16.8222 35.2018 16.9215C34.9986 17.0197 34.5992 17.3788 34.9927 17.4996C35.3861 17.6205 36.3385 17.824 36.3255 17.2447C36.3125 16.6654 35.8788 16.6032 35.8788 16.6032C35.8788 16.6032 35.4452 16.0909 35.7595 15.6564C35.7595 15.6564 35.7867 15.2435 35.3129 15.2387C34.8391 15.2339 34.8521 16.037 34.754 16.055C34.6571 16.0729 34.2176 16.0406 34.2176 16.0406C34.2176 16.0406 33.5003 16.4164 34.0793 17.0137C34.6595 17.611 34.8154 16.2872 35.1167 16.3949L35.1179 16.3961Z" fill="black"/>
<path d="M29.2645 27.373C29.1519 27.5101 28.9666 27.459 28.8902 27.2789C28.7898 27.0414 28.7029 26.7984 28.6105 26.5578C28.1186 25.273 27.6272 23.9881 27.1352 22.7034C27.1131 22.6447 27.0867 22.5877 27.0551 22.513C26.6926 22.93 26.3441 23.3327 25.9941 23.7338C25.797 23.9602 25.6011 24.188 25.3969 24.4082C25.3084 24.5037 25.2931 24.5865 25.3419 24.7125C25.5352 25.214 25.7095 25.7229 25.9034 26.2242C25.9671 26.3891 25.9564 26.5143 25.8503 26.66C25.5589 27.0589 25.4994 27.2364 25.0681 26.6962C24.7656 26.3177 24.4229 25.972 24.1197 25.5936C23.9757 25.4137 23.79 25.3303 23.5963 25.2441C23.1097 25.0284 22.6223 24.8148 22.136 24.5987C21.9193 24.502 21.9016 24.3846 22.0181 24.1734C22.1963 23.8511 22.4277 23.7153 22.8096 23.7674C23.2572 23.8285 23.7149 23.8127 24.1673 23.8431C24.2992 23.8519 24.372 23.8138 24.4381 23.6996C24.8543 22.98 25.2775 22.2645 25.7048 21.5361C25.6283 21.4885 25.5479 21.5049 25.4727 21.5001C23.9238 21.4027 22.3751 21.3071 20.8266 21.2121C20.6926 21.2039 20.545 21.2214 20.4708 21.074C20.389 20.9117 20.5143 20.806 20.5939 20.6906C20.6468 20.6142 20.7049 20.5411 20.7565 20.4637C20.9642 20.1537 21.2535 19.9875 21.6178 19.9308C23.4773 19.6402 25.3354 19.3427 27.1951 19.0538C27.3607 19.0283 27.4749 18.9694 27.5735 18.8262C27.8734 18.3892 28.1946 17.9673 28.4986 17.5327C28.7392 17.1882 29.053 16.9433 29.4313 16.775C29.9268 16.5549 30.4451 16.9364 30.3907 17.4835C30.3505 17.8918 30.2207 18.2649 29.9757 18.5972C29.6482 19.0411 29.333 19.4941 29.0039 19.9364C28.9195 20.0498 28.9002 20.1549 28.9218 20.2923C29.2119 22.1606 29.4809 24.0324 29.7933 25.8968C29.8975 26.5196 29.6133 26.948 29.2645 27.373Z" fill="black"/>
<path d="M37.5961 38.1207C44.3533 31.2758 44.3533 20.1781 37.5961 13.3332C30.8389 6.48839 19.8833 6.48839 13.1261 13.3332C6.36891 20.1781 6.36891 31.2758 13.1261 38.1207C19.8833 44.9656 30.8389 44.9656 37.5961 38.1207Z" fill="#002290" stroke="black" stroke-width="0.8" stroke-miterlimit="10"/>
<path d="M27.8405 12.1637C27.8405 12.1637 27.7744 11.5126 27.1068 11.0949C26.438 10.6772 24.7472 10.3348 24.5865 11.2409C24.4258 12.1469 23.7488 11.5676 23.7488 11.5676C23.7488 11.5676 24.1564 11.3702 24.2273 10.8687C24.2982 10.366 22.9701 10.1409 22.9382 10.585C22.9063 11.029 23.2253 11.2361 22.8673 11.3115C22.5093 11.3869 22.1761 11.4994 21.7294 11.5305C21.2828 11.5617 21.2344 11.0099 21.2344 11.0099C21.2344 11.0099 21.5758 11.059 22.0674 10.9393C22.5589 10.8184 22.8472 10.348 22.3025 10.1721C21.7578 9.99612 22.338 10.5934 21.1292 10.4174C21.1292 10.4174 20.9792 10.3636 20.8456 9.95901C20.7133 9.55566 19.6014 9.36176 19.2033 9.71963C18.8039 10.0787 19.0166 10.366 19.3486 10.4785C19.6806 10.591 19.2068 10.81 19.729 10.9189C20.2513 11.0278 20.464 11.0901 20.3175 11.2289C20.171 11.3678 17.5585 10.6029 17.6129 10.0021C17.6129 10.0021 12.3667 12.4115 10.2729 17.3618C10.2729 17.3618 10.3261 17.6575 10.6629 17.7389C10.9996 17.8202 11.2158 17.8514 11.0918 18.5061C10.9677 19.1608 10.7716 20.542 11.6341 20.7C12.4978 20.858 12.0642 20.1219 11.861 19.7712C11.6577 19.4205 11.5254 18.3445 12.0264 18.609C12.5262 18.8735 11.7913 18.9274 12.5392 20.3505C13.286 21.7736 12.1304 21.6695 13.0284 22.6976C13.9264 23.7257 14.4273 22.6449 14.7239 23.0088C15.0205 23.3726 14.7369 23.5881 15.3253 23.6731C15.9138 23.7592 15.6668 23.4983 15.9315 24.0824C16.1962 24.6665 16.3817 25.8143 18.1186 25.3942C18.1186 25.3942 18.4057 26.0453 18.1221 26.4846C17.8385 26.9238 16.9878 26.8963 16.8897 27.8119C16.7917 28.7276 16.9949 29.0771 17.4061 29.7461C17.8173 30.4152 17.5065 30.8186 17.9673 31.1417C18.4281 31.4649 19.5081 31.654 19.2954 32.4882C19.0827 33.3225 18.7046 34.8701 18.9031 35.2519C19.1016 35.6337 18.85 35.6289 18.7826 36.0993C18.7153 36.5708 19.3758 37.0508 19.3214 37.6516C19.2682 38.2525 18.6786 38.8402 19.0626 39.4733C19.4478 40.1065 19.5447 39.8635 19.7172 40.4344C19.8897 41.0042 20.0138 41.2471 20.3187 41.3237C20.6247 41.4003 21.1198 41.4721 21.3017 41.7558C21.4825 42.0383 21.935 41.5272 21.6302 41.2268C21.3254 40.9264 20.9307 41.0293 21.0465 40.4368C21.1623 39.8444 21.5038 39.6696 21.0382 39.3776C20.5727 39.0855 20.653 38.7444 20.8445 38.7408C21.0347 38.736 21.473 38.5445 21.1056 38.2345C20.7381 37.9245 20.6235 37.8443 20.9071 37.8527C21.1907 37.8623 22.0674 38.1496 22.8389 37.3967C23.6105 36.6439 24.3065 35.751 24.3065 35.751C24.3065 35.751 24.5369 35.2399 24.453 34.7145C24.3691 34.189 24.7684 34.055 25.4538 34.1232C26.1402 34.1914 26.0611 33.8587 26.0611 33.8587C26.0611 33.8587 26.6672 34.4918 26.8728 31.9257C26.8728 31.9257 26.8374 31.5044 27.6172 31.1369C28.397 30.7695 27.7377 29.8407 27.2946 29.8407C27.2946 29.8407 27.1221 29.271 26.7547 29.1848C26.3872 29.0998 25.5495 29.2015 25.2092 28.9275C24.8689 28.6534 24.3951 28.4248 24.3951 28.4248C24.3951 28.4248 24.8133 26.5947 23.041 26.5935C23.041 26.5935 22.7858 25.2745 21.8949 25.3044C21.0051 25.3356 20.8988 25.4158 20.77 25.2051C20.6412 24.9944 20.4746 24.1686 19.8496 24.3338C19.2245 24.4989 19.078 25.3116 18.4719 25.1261C17.8657 24.9418 17.0989 24.9909 17.2808 24.3757C17.4628 23.7616 17.5656 23.0387 16.618 23.0291C16.618 23.0291 16.3793 22.9298 16.7728 22.603C17.1674 22.2763 16.9866 21.7688 16.7598 21.7999C16.5341 21.831 15.8653 22.311 15.5463 22.3278C15.2273 22.3457 14.2088 22.165 14.7676 20.9011C15.3265 19.6359 18.0016 19.5127 18.1966 20.1506C18.3903 20.7873 18.1647 21.0435 18.7897 21.1021C19.4136 21.1608 19.2245 20.0441 19.2245 20.0441L20.926 18.9776C20.926 18.9776 21.1032 18.8436 21.2273 18.6365C21.3513 18.4307 23.425 17.4181 23.8728 16.7143C24.3206 16.0105 24.4719 15.6156 25.0603 15.9256C25.6487 16.2355 25.8921 16.3026 26.0434 15.9088C26.1946 15.5138 26.9685 16.524 27.2828 16.0895C27.5971 15.6551 27.4518 15.1212 26.8007 15.0255C26.1497 14.9297 27.0004 14.2858 26.7393 14.1194C26.4782 13.9531 25.9866 14.5228 25.7338 14.293C25.4821 14.0644 26.0138 13.2122 25.1631 13.1847C24.3124 13.1571 24.206 13.2373 23.9449 14.1924C23.6826 15.1476 23.3116 14.196 22.6428 14.8998C21.974 15.6036 22.1288 15.1775 22.0626 14.7514C21.9965 14.3253 21.5357 14.0021 21.0666 13.965C20.5975 13.9291 20.7842 13.059 21.4754 12.8711C22.1666 12.6832 23.0032 12.3564 23.0032 12.3564C23.0032 12.3564 23.0776 12.9441 23.5739 12.7921C24.0701 12.6401 24.2391 12.1194 24.2391 12.1194L24.7354 12.1912C24.7354 12.1912 25.0721 11.8238 25.1702 11.8058C25.2671 11.7879 26.2856 11.9686 26.2856 11.9686C26.2856 11.9686 26.861 11.9243 26.3163 12.1972C25.7716 12.4701 25.4396 12.1338 25.5589 12.6317C25.6783 13.1296 25.7184 12.8471 26.0812 13.1882C26.4439 13.5294 27.0241 13.454 27.1529 12.992C27.1529 12.992 27.9008 13.2936 28.065 12.804C28.2293 12.3157 27.8393 12.1625 27.8393 12.1625L27.8405 12.1637Z" fill="#008C43"/>
<path d="M23.8636 17.4493C24.0798 17.7054 24.6694 17.5665 24.1165 17.0052C24.1165 17.0052 23.6474 17.1931 23.8636 17.4493Z" fill="#008C43"/>
<path d="M25.1172 16.6377C25.2767 16.4043 24.8076 16.1434 24.8076 16.1434C24.8076 16.1434 24.5335 16.0716 24.4886 16.3852C24.4437 16.6987 24.9577 16.8699 25.1172 16.6365V16.6377Z" fill="#008C43"/>
<path d="M25.285 17.4636C25.285 17.4636 26.2019 17.2446 25.578 16.7371C25.578 16.7371 25.3476 17.0244 25.09 17.0507C24.8336 17.077 24.4969 16.9968 24.6824 17.472C24.8679 17.9472 25.285 17.4636 25.285 17.4636Z" fill="#008C43"/>
<path d="M26.5609 16.2715C26.5609 16.2715 25.7504 16.1853 26.1048 16.8137C26.1048 16.8137 26.34 16.9441 26.5609 17.168C26.7819 17.393 27.3396 17.4732 27.3892 17.1285C27.4376 16.7826 27.3053 16.3792 26.5621 16.2715H26.5609Z" fill="#008C43"/>
<path d="M42.5428 23.3726C42.5428 23.3726 40.9701 23.5282 40.8153 23.0567C40.6605 22.5851 40.1466 22.4151 39.1103 22.5839C38.0741 22.7538 38.4817 22.3325 38.1225 22.1841C37.7645 22.0357 37.3746 22.1075 37.3746 22.1075C37.3746 22.1075 38.4345 20.2104 34.7799 20.9932C34.7799 20.9932 33.3277 20.5252 32.848 21.4492C32.3695 22.3732 32.5727 22.4989 31.221 22.8795C29.8704 23.2601 30.8925 24.0812 30.8925 24.0812C30.8925 24.0812 31.3261 24.3685 30.8074 24.6773C30.2887 24.9861 30.0666 25.8837 30.3053 26.4307C30.5439 26.9777 31.2564 28.2033 31.761 28.4367C32.2655 28.6701 33.7271 28.8508 34.0331 28.4786C34.3391 28.1064 34.6003 28.0489 34.9902 28.4259C35.3801 28.803 36.6775 28.5756 36.531 28.9382C36.3844 29.3009 35.7015 30.0992 36.2285 31.0735C36.7543 32.0478 37.1217 32.8054 36.5097 33.326C35.8976 33.8455 35.9283 34.5229 36.4778 35.1154C36.4778 35.1154 36.0477 36.3662 36.4459 36.9048C36.8441 37.4434 36.772 38.1699 36.6267 38.5338C36.4801 38.8976 36.6349 38.6953 36.6349 38.6953C36.6349 38.6953 36.5239 39.2555 36.8204 38.9467C37.117 38.6379 43.6369 32.8245 42.5416 23.3714L42.5428 23.3726Z" fill="#008C43"/>
<path d="M35.1533 20.5995C36.004 20.4032 36.4341 19.3763 36.4341 19.3763C36.4341 19.3763 37.2884 19.8215 37.6216 19.2602C37.6216 19.2602 37.9796 20.3063 38.4971 20.4451C38.4971 20.4451 38.0103 20.5349 38.0978 21.028C38.1864 21.5211 39.6125 21.2805 39.303 20.3386C38.9934 19.3966 37.5495 19.5391 38.4144 19.0232C39.2781 18.5085 39.6716 19.9747 39.6799 20.3613C39.6881 20.7467 39.3691 21.6623 40.1135 21.3212C40.8579 20.9813 40.6996 19.8682 40.9335 20.4475C41.1675 21.0268 40.7291 21.6671 41.4156 21.7354C42.1021 21.8036 42.2841 21.8622 42.2841 21.8622C42.2841 21.8622 41.1049 17.2362 38.5751 14.3361C38.5751 14.3361 38.5574 14.6856 37.9193 14.7215C37.2813 14.7574 36.8866 15.533 37.325 16.013C37.7634 16.4929 38.4321 16.238 38.4144 16.5887C38.3967 16.9382 38.2762 17.1129 37.7716 16.8795C37.2671 16.6461 36.9434 16.6952 36.8146 17.1572C36.6858 17.6192 36.4778 17.9735 36.1234 17.794C35.7689 17.6144 34.9359 17.9101 35.3341 18.6725C35.3341 18.6725 35.5243 19.3416 35.0729 19.1788C34.6216 19.0172 33.4483 18.5899 33.3857 19.7018C33.323 20.8149 34.3061 20.797 35.1568 20.6007L35.1533 20.5995Z" fill="#008C43"/>
<path d="M35.1179 16.396C35.4192 16.5037 35.405 16.8221 35.2018 16.9214C34.9986 17.0196 34.5992 17.3786 34.9927 17.4995C35.3861 17.6204 36.3385 17.8239 36.3255 17.2446C36.3125 16.6653 35.8788 16.603 35.8788 16.603C35.8788 16.603 35.4452 16.0908 35.7595 15.6563C35.7595 15.6563 35.7867 15.2434 35.3129 15.2386C34.8391 15.2338 34.8521 16.0369 34.754 16.0549C34.6571 16.0728 34.2176 16.0405 34.2176 16.0405C34.2176 16.0405 33.5003 16.4163 34.0793 17.0136C34.6595 17.6108 34.8154 16.2871 35.1167 16.3948L35.1179 16.396Z" fill="#008C43"/>
<path d="M29.2645 27.3729C29.1519 27.5099 28.9666 27.4589 28.8902 27.2788C28.7898 27.0413 28.7029 26.7983 28.6105 26.5577C28.1186 25.2729 27.6272 23.988 27.1352 22.7032C27.1131 22.6446 27.0867 22.5876 27.0551 22.5129C26.6926 22.9299 26.3441 23.3326 25.9941 23.7337C25.797 23.9601 25.6011 24.1879 25.3969 24.408C25.3084 24.5036 25.2931 24.5864 25.3419 24.7124C25.5352 25.2139 25.7095 25.7227 25.9034 26.2241C25.9671 26.3889 25.9564 26.5142 25.8503 26.6598C25.5589 27.0588 25.4994 27.2363 25.0681 26.6961C24.7656 26.3175 24.4229 25.9719 24.1197 25.5935C23.9757 25.4135 23.79 25.3301 23.5963 25.244C23.1097 25.0283 22.6223 24.8146 22.136 24.5986C21.9193 24.5019 21.9016 24.3845 22.0181 24.1733C22.1963 23.8509 22.4277 23.7152 22.8096 23.7673C23.2572 23.8284 23.7149 23.8126 24.1673 23.843C24.2992 23.8518 24.372 23.8137 24.4381 23.6995C24.8543 22.9799 25.2775 22.2644 25.7048 21.5359C25.6283 21.4884 25.5479 21.5048 25.4727 21.5C23.9238 21.4026 22.3751 21.307 20.8266 21.212C20.6926 21.2038 20.545 21.2213 20.4708 21.0739C20.389 20.9116 20.5143 20.8059 20.5939 20.6904C20.6468 20.6141 20.7049 20.541 20.7565 20.4636C20.9642 20.1536 21.2535 19.9873 21.6178 19.9307C23.4773 19.64 25.3354 19.3425 27.1951 19.0537C27.3607 19.0282 27.4749 18.9693 27.5735 18.8261C27.8734 18.3891 28.1946 17.9672 28.4986 17.5326C28.7392 17.1881 29.053 16.9432 29.4313 16.7749C29.9268 16.5547 30.4451 16.9362 30.3907 17.4834C30.3505 17.8917 30.2207 18.2648 29.9757 18.5971C29.6482 19.0409 29.333 19.494 29.0039 19.9363C28.9195 20.0497 28.9002 20.1547 28.9218 20.2922C29.2119 22.1604 29.4809 24.0323 29.7933 25.8967C29.8975 26.5195 29.6133 26.9479 29.2645 27.3729Z" fill="white"/>
</svg>
