<svg width="204" height="204" viewBox="0 0 204 204" fill="none" xmlns="http://www.w3.org/2000/svg">
<path d="M18.7999 101.9C18.7999 103.8 17.7999 105.2 15.6999 105.3C13.4999 105.4 11.1999 105.3 8.99994 105.3C7.09994 105.3 5.29994 105.3 3.39994 105.3C1.39994 105.2 0.0999386 104.1 -6.13756e-05 102.1C-0.100061 100.1 1.09994 98.8 3.09994 98.7C7.29994 98.6 11.5999 98.6 15.7999 98.7C17.6999 98.8 18.6999 100.2 18.7999 101.9Z" fill="#F7F9FA"/>
<path d="M25.8006 30.5C24.7006 29.4 24.3006 28 25.0006 26.5C25.6006 25.2 26.7006 24.5 28.2006 24.6C29.4006 24.6 30.2006 25.3 30.9006 26C33.4006 28.5 36.0006 31 38.5006 33.6C40.1006 35.2 40.7006 37.1 38.9006 38.8C37.1006 40.6 35.3006 39.9 33.7006 38.3C31.0006 35.8 28.4006 33.2 25.8006 30.5Z" fill="#F7F9FA"/>
<path d="M39.6001 168.7C36.7001 172.6 33.1001 176 29.3001 179.1C29.0001 179.3 28.5001 179.3 28.4001 179.3C26.9001 179.4 25.9001 178.8 25.2001 177.7C24.4001 176.5 24.4001 175.1 25.4001 174C28.4001 170.8 31.5001 167.7 34.7001 164.7C35.9001 163.6 37.4001 163.7 38.7001 164.7C39.9001 165.9 40.5001 167.5 39.6001 168.7Z" fill="#F7F9FA"/>
<path d="M105.3 194.7C105.3 196.7 105.3 198.7 105.3 200.7C105.3 202.7 104.1 204 102.1 204.1C100.1 204.2 98.8 203 98.7 201C98.6 196.8 98.6 192.5 98.7 188.3C98.7 186.4 100.1 185.4 101.8 185.3C103.7 185.3 105.1 186.3 105.2 188.4C105.4 190.4 105.3 192.6 105.3 194.7Z" fill="#F7F9FA"/>
<path d="M98.7 15.6C98.6 11.5 98.6 7.4 98.7 3.3C98.7 1.3 99.9 0 101.9 0C104.1 0 105.3 1.3 105.3 3.5C105.3 5.5 105.3 7.5 105.3 9.5C105.3 11.5 105.3 13.5 105.3 15.5C105.3 17.6 104 18.7 102.1 18.8C100.2 18.8 98.7 17.7 98.7 15.6Z" fill="#F7F9FA"/>
<path d="M179.101 29.2C176.201 33.1 172.601 36.5 168.801 39.6C168.501 39.8 168.001 39.8 167.901 39.8C166.301 40 165.301 39.3 164.601 38.3C163.801 37.1 163.801 35.7 164.801 34.6C167.801 31.4 170.901 28.3 174.101 25.3C175.301 24.2 176.801 24.3 178.101 25.3C179.401 26.4 180.001 28 179.101 29.2Z" fill="#F7F9FA"/>
<path d="M204 101.8C204.1 103.8 203 105.2 201 105.2C196.8 105.3 192.5 105.3 188.3 105.2C186.2 105.1 185.2 103.6 185.3 101.7C185.4 100 186.4 98.7 188.3 98.6C190.5 98.5 192.8 98.6 195.1 98.6C197.1 98.6 199.1 98.5 201.1 98.6C202.8 98.8 203.9 100 204 101.8Z" fill="#F7F9FA"/>
<path d="M97.1002 172.9C64.9002 171 36.6002 145.3 31.9002 113.6C26.8002 79.6 45.5002 47.2 76.9002 35.6C79.3002 34.7 81.5002 34.1 83.2002 36.8C84.6002 39.7 84.1002 41 80.4002 42.6C75.3002 44.8 70.2002 47.2 65.7002 50.5C49.9002 62.2 40.6002 77.5 39.2002 97.4C38.5002 108.1 40.0002 118.3 44.5002 128C44.5002 128 44.5002 128.1 44.6002 128.1C44.6002 128.2 44.7002 128.3 44.8002 128.4C54.8002 148.3 70.5002 161.1 92.7002 164.2C130.4 169.6 160 142.9 164.4 111.2C169.7 73.2 142.8 44.1 110.9 39.3C110.6 39.3 110.3 39.2 110 39.2C109.8 39.2 109.7 39.2 109.5 39.2C109.2 39.2 108.8 39.2 108.5 39.2C106 39.2 103.5 39.2 101.1 38.3C99.1002 37.6 97.5002 36.6 98.5002 34C99.1002 30.9 101.4 30.7 104 30.8C135.5 31.1 164.6 55.1 171.3 86.3C181.3 133.2 144.8 175.7 97.1002 172.9Z" fill="black"/>
<path d="M38.8006 38.9C37.0006 40.7 35.2006 40 33.6006 38.4C31.0006 35.8 28.4006 33.2 25.8006 30.5C24.7006 29.4 24.3006 28 25.0006 26.5C25.6006 25.2 26.7006 24.5 28.2006 24.6C29.4006 24.6 30.2006 25.3 30.9006 26C33.4006 28.5 36.0006 31 38.5006 33.6C40.0006 35.3 40.6006 37.1 38.8006 38.9Z" fill="#040404"/>
<path d="M179.101 29.2C176.201 33.1 172.601 36.5 168.801 39.6C168.501 39.8 168.001 39.8 167.901 39.8C166.301 40 165.301 39.3 164.601 38.3C163.801 37.1 163.801 35.7 164.801 34.6C167.801 31.4 170.901 28.3 174.101 25.3C175.301 24.2 176.801 24.3 178.101 25.3C179.401 26.4 180.001 28 179.101 29.2Z" fill="#040404"/>
<path d="M39.6001 168.7C36.7001 172.6 33.1001 176 29.3001 179.1C29.0001 179.3 28.5001 179.3 28.4001 179.3C26.9001 179.4 25.9001 178.8 25.2001 177.7C24.4001 176.5 24.4001 175.1 25.4001 174C28.4001 170.8 31.5001 167.7 34.7001 164.7C35.9001 163.6 37.4001 163.7 38.7001 164.7C39.9001 165.9 40.5001 167.5 39.6001 168.7Z" fill="#040404"/>
<path d="M178.2 178.5C176.5 180.1 174.8 179.6 173.3 178.1C170.6 175.4 167.9 172.7 165.2 169.9C164.1 168.7 163.8 167.3 164.6 165.9C165.2 164.8 166.1 164.1 167.5 164.2C168.7 164.1 169.5 164.7 170.3 165.5C172.9 168.1 175.6 170.7 178.2 173.4C179.7 175 180 176.8 178.2 178.5Z" fill="#040404"/>
<path d="M105.3 9.50001C105.3 11.5 105.3 13.5 105.3 15.5C105.3 17.6 104 18.7 102.1 18.8C100.2 18.8 98.8 17.8 98.7 15.7C98.6 11.6 98.6 7.50001 98.7 3.40001C98.7 1.40001 99.9 0.100006 101.9 0.100006C104.1 0.100006 105.3 1.40001 105.3 3.60001C105.3 5.50001 105.3 7.50001 105.3 9.50001Z" fill="#010101"/>
<path d="M18.7999 101.9C18.7999 103.8 17.7999 105.2 15.6999 105.3C13.4999 105.4 11.1999 105.3 8.99994 105.3C7.09994 105.3 5.29994 105.3 3.39994 105.3C1.39994 105.2 0.0999386 104.1 -6.13756e-05 102.1C-0.100061 100.1 1.09994 98.8 3.09994 98.7C7.29994 98.6 11.5999 98.6 15.7999 98.7C17.6999 98.8 18.6999 100.2 18.7999 101.9Z" fill="#010101"/>
<path d="M204 101.8C204.1 103.8 203 105.2 201 105.2C196.8 105.3 192.5 105.3 188.3 105.2C186.2 105.1 185.2 103.6 185.3 101.7C185.4 100 186.4 98.7 188.3 98.6C190.5 98.5 192.8 98.6 195.1 98.6C197.1 98.6 199.1 98.5 201.1 98.6C202.8 98.8 203.9 100 204 101.8Z" fill="#010101"/>
<path d="M105.3 200.6C105.3 202.6 104.1 203.9 102.1 204C100.1 204.1 98.8 202.9 98.7 200.9C98.6 196.7 98.6 192.4 98.7 188.2C98.7 186.3 100.1 185.3 101.8 185.2C103.7 185.2 105.1 186.2 105.2 188.3C105.3 190.4 105.2 192.5 105.2 194.7C105.3 196.7 105.3 198.7 105.3 200.6Z" fill="#010101"/>
</svg>
