<svg width="24" height="19" viewBox="0 0 24 19" fill="none" xmlns="http://www.w3.org/2000/svg">
<g clip-path="url(#clip0_1232_6193)">
<path d="M23.3576 6.71206C23.4215 6.1135 22.9488 6.24154 22.9488 6.24154C23.0471 6.12389 23.1207 5.98754 23.1652 5.84069C23.2096 5.69383 23.224 5.53949 23.2075 5.38692L23.6004 5.10845C23.4051 4.67645 23.1479 4.27532 22.837 3.91775C21.9361 2.9575 21.2653 3.01192 21.2653 3.01192L20.9458 3.15275C19.7799 3.42482 18.6235 4.22822 18.4957 5.61738C18.2689 8.10121 19.7096 9.45835 20.3037 9.2567C20.6054 9.19111 20.8733 9.01828 21.0576 8.77018C21.1841 8.84926 21.3279 8.89614 21.4766 8.90674C21.6252 8.91734 21.7742 8.89133 21.9106 8.83099C22.041 8.76385 22.15 8.66133 22.2251 8.53513C22.3002 8.40893 22.3385 8.26412 22.3354 8.11721C22.837 8.25485 22.9392 7.54427 22.9392 7.54427C23.0623 7.44187 23.1631 7.31511 23.2351 7.17191C23.3071 7.02871 23.3488 6.87216 23.3576 6.71206Z" fill="#F2C5A7"/>
<path d="M23.422 6.70249C23.422 6.38241 23.3134 6.17115 22.9684 6.21276C23.0929 6.21276 23.16 6.01431 23.2239 5.81906C23.2239 5.79346 23.3038 5.36135 23.2974 5.36775L23.6488 5.12129C23.6488 5.12129 23.6679 5.12129 23.6648 5.09888C23.2143 4.19945 22.5339 3.22961 21.4861 3.00235C21.0708 2.91273 20.499 3.22641 20.1444 3.40245C19.655 3.61245 19.2344 3.95609 18.9305 4.39414C18.6266 4.8322 18.4517 5.34703 18.4258 5.87988C18.3768 6.41151 18.4332 6.94761 18.5916 7.45737C18.75 7.96712 19.0074 8.44047 19.349 8.85023C19.5726 9.0967 19.9879 9.41037 20.3489 9.27594C20.647 9.18979 20.9141 9.01983 21.1188 8.78622C21.0229 8.91425 21.5308 8.95266 21.7065 8.92705C21.8428 8.90664 21.9721 8.85347 22.0833 8.77209C22.1946 8.69071 22.2845 8.58353 22.3454 8.45973C22.5115 8.15886 22.3454 8.20687 22.6649 8.13965C22.8661 8.08524 22.962 7.81957 23.0131 7.64673C23.1089 7.32665 23.3677 7.10899 23.4379 6.7249C23.4379 6.68328 23.3197 6.69609 23.3134 6.7249C23.2686 6.97456 22.7831 8.14605 22.3934 8.10444C22.3742 8.10444 22.3039 8.10444 22.3039 8.13965C22.2936 8.27115 22.2504 8.39792 22.1782 8.50823C22.106 8.61854 22.0072 8.70883 21.891 8.77074C21.7747 8.83265 21.6448 8.86417 21.5132 8.8624C21.3815 8.86063 21.2525 8.82562 21.1379 8.76061C21.1183 8.75334 21.0971 8.75189 21.0767 8.75643C21.0563 8.76098 21.0376 8.77132 21.0229 8.78622C20.1572 10.201 19.0296 8.28689 18.7868 7.59231C18.33 6.31199 18.4929 4.766 19.5758 3.85377C20.0486 3.45366 20.6268 3.35764 21.1731 3.11118C21.649 2.89672 22.2752 3.45367 22.5978 3.75134C22.8222 3.95976 23.0187 4.19646 23.1824 4.45552C23.3144 4.66535 23.4216 4.88985 23.5018 5.12449L23.1824 5.34534C22.9588 5.50538 23.1089 5.98551 22.8629 6.23517C22.8278 6.27358 22.9268 6.26718 22.9396 6.26398C23.2047 6.3408 23.3134 6.49123 23.259 6.71849C23.2942 6.7537 23.4188 6.7409 23.422 6.70249Z" fill="#B2806B"/>
<path d="M20.8855 4.57715C20.8855 4.57715 20.9079 4.67958 20.943 4.85562C20.9622 4.94204 20.9749 5.05087 20.9941 5.1757C21.0133 5.30053 21.0324 5.43817 21.0516 5.59181C21.0516 5.66863 21.0612 5.74865 21.0804 5.83187C21.0804 5.87348 21.0804 5.91829 21.0804 5.9599C21.0804 6.00151 21.0804 6.04952 21.0804 6.09433C21.0658 6.28152 21.0392 6.46756 21.0005 6.65128C20.9599 6.84231 20.9321 7.03586 20.9174 7.23062C20.9046 7.32622 20.9046 7.4231 20.9174 7.5187C20.9355 7.60731 20.9775 7.68925 21.0388 7.75555C21.0536 7.77206 21.0708 7.78611 21.0899 7.79717C21.1057 7.81066 21.1228 7.82246 21.1411 7.83238L21.2113 7.86438H21.272C21.3599 7.86996 21.4476 7.84995 21.5244 7.80677C21.6848 7.71155 21.8162 7.57433 21.9045 7.40987C21.9894 7.25186 22.0518 7.0827 22.0898 6.90734C22.1198 6.74591 22.1326 6.58175 22.1281 6.41762C22.1316 6.40261 22.1387 6.38867 22.1487 6.37697C22.1587 6.36527 22.1714 6.35616 22.1856 6.3504C22.2045 6.33965 22.225 6.33208 22.2463 6.32799C22.2825 6.32512 22.3188 6.32512 22.355 6.32799L22.553 6.31199C22.6613 6.30485 22.7685 6.28552 22.8725 6.25438C22.9387 6.23297 22.9975 6.19298 23.0418 6.13915C23.0519 6.12517 23.0604 6.11015 23.0673 6.09433C23.0667 6.08795 23.0667 6.08152 23.0673 6.07513C23.0686 6.08146 23.0686 6.088 23.0673 6.09433C23.0622 6.11235 23.0547 6.12958 23.045 6.14555C23.0069 6.20636 22.9495 6.25258 22.882 6.27678C22.7796 6.31768 22.6722 6.3446 22.5626 6.3568L22.3677 6.38881C22.3333 6.39335 22.2992 6.39976 22.2655 6.40801C22.2336 6.40801 22.1984 6.44002 22.2048 6.44002C22.216 6.60678 22.2085 6.77426 22.1824 6.93935C22.154 7.12855 22.0935 7.31149 22.0036 7.48028C21.9068 7.66293 21.7621 7.81566 21.5851 7.922C21.4881 7.97743 21.377 8.00303 21.2656 7.99562H21.1762L21.1059 7.96681C21.0792 7.95161 21.0535 7.93449 21.0293 7.9156C21.0036 7.90193 20.9808 7.88346 20.9622 7.86118C20.8799 7.77248 20.8265 7.66088 20.8088 7.5411C20.7961 7.43479 20.7961 7.32733 20.8088 7.22102C20.8302 7.02206 20.8621 6.82439 20.9047 6.62887C20.943 6.44002 20.9813 6.26078 21.0005 6.08793C21.0005 6.04632 21.0005 6.00471 21.0005 5.9631V5.83827C21.0005 5.75505 20.9845 5.67503 20.9781 5.60141C20.9781 5.44777 20.9558 5.30693 20.9462 5.1821C20.9366 5.05727 20.9462 4.94844 20.9174 4.86202C20.8983 4.67957 20.8855 4.57715 20.8855 4.57715Z" fill="#B2806B"/>
<path d="M22.0225 7.3138C22.0327 7.28837 22.0467 7.26463 22.064 7.24339C22.0832 7.21604 22.107 7.19222 22.1343 7.17297C22.1529 7.16325 22.1721 7.1547 22.1918 7.14736C22.216 7.14245 22.241 7.14245 22.2652 7.14736C22.2932 7.1488 22.3205 7.15645 22.3451 7.16977C22.3451 7.16977 22.3739 7.16977 22.3866 7.19857L22.4154 7.23378C22.4436 7.28488 22.464 7.3399 22.4761 7.39703C22.4991 7.51396 22.5077 7.63328 22.5016 7.75232C22.4934 7.97274 22.4446 8.18975 22.3579 8.39248C22.329 8.46051 22.2891 8.52324 22.2397 8.57812L22.195 8.61653H22.1758C22.1939 8.59643 22.2089 8.57378 22.2205 8.54932C22.2498 8.48795 22.2723 8.42355 22.2876 8.35727C22.3362 8.15354 22.3651 7.94559 22.3739 7.73631C22.383 7.62981 22.383 7.52273 22.3739 7.41623C22.3663 7.37042 22.3546 7.32541 22.3387 7.2818C22.3393 7.27434 22.3393 7.26685 22.3387 7.25939C22.3387 7.25939 22.3387 7.25939 22.3227 7.25939C22.3068 7.25939 22.2908 7.24339 22.2748 7.23698C22.2589 7.23058 22.2397 7.23698 22.2237 7.23698C22.2078 7.23548 22.1917 7.23548 22.1758 7.23698C22.1496 7.24754 22.1249 7.26153 22.1023 7.27859C22.0746 7.28764 22.0478 7.29943 22.0225 7.3138Z" fill="#B2806B"/>
<path d="M22.2237 7.18582C22.2204 7.15497 22.2204 7.12385 22.2237 7.093C22.2211 7.05784 22.2211 7.02254 22.2237 6.98738C22.234 6.9408 22.2524 6.89638 22.278 6.85614C22.2911 6.83099 22.3084 6.80826 22.3291 6.78892L22.3674 6.76652C22.4275 6.73492 22.4944 6.71844 22.5623 6.71851C22.6349 6.71909 22.7063 6.73779 22.7699 6.77292C22.8356 6.81105 22.8897 6.86637 22.9265 6.93296C22.9621 6.99615 22.9849 7.06576 22.9935 7.13781C22.9935 7.17302 22.9935 7.20823 22.9935 7.24024C22.9935 7.27225 22.9935 7.30746 22.9935 7.33946C22.9881 7.40003 22.9774 7.46 22.9616 7.51871C22.9524 7.57143 22.9374 7.62296 22.9169 7.67235C22.8914 7.74813 22.8604 7.82195 22.8242 7.8932C22.8019 7.94442 22.7859 7.97322 22.7859 7.97322C22.7895 7.94413 22.7948 7.91527 22.8019 7.8868C22.8019 7.858 22.8019 7.82279 22.8242 7.78438C22.8466 7.74597 22.8242 7.70116 22.8466 7.65634C22.869 7.61153 22.8658 7.55712 22.8689 7.5027C22.8722 7.4462 22.8722 7.38956 22.8689 7.33306V7.24664V7.15702C22.8611 7.10072 22.8426 7.04642 22.8146 6.99698C22.7898 6.94836 22.7523 6.90742 22.706 6.87855C22.6622 6.85225 22.6131 6.83603 22.5623 6.83104C22.5115 6.82606 22.4602 6.83245 22.4121 6.84974C22.4006 6.84732 22.3886 6.84732 22.377 6.84974C22.3585 6.86406 22.3414 6.88014 22.3259 6.89775C22.3003 6.92967 22.2778 6.96396 22.2588 7.00018C22.2472 7.03153 22.2376 7.06361 22.2301 7.0962C22.2237 7.15062 22.2237 7.18582 22.2237 7.18582Z" fill="#B2806B"/>
<path d="M22.5595 6.74091C22.5531 6.69525 22.5531 6.64893 22.5595 6.60327C22.5696 6.55804 22.5846 6.51403 22.6042 6.47204C22.6275 6.42224 22.6576 6.37592 22.6936 6.33441C22.7318 6.29238 22.7773 6.25767 22.8278 6.23198C22.8523 6.2206 22.878 6.21201 22.9045 6.20637C22.9267 6.20334 22.9493 6.20334 22.9716 6.20637C23.007 6.20512 23.0421 6.21282 23.0738 6.22878H23.1057H23.0706H23.0323L22.9843 6.24798C22.9678 6.25411 22.9518 6.26161 22.9364 6.27039C22.9173 6.27039 22.9013 6.296 22.8853 6.3056C22.8504 6.3321 22.8183 6.36213 22.7895 6.39522C22.7572 6.42937 22.7273 6.46574 22.7 6.50405L22.6266 6.60648C22.5946 6.6961 22.5595 6.74091 22.5595 6.74091Z" fill="#B2806B"/>
<path d="M19.6235 8.22286C19.6572 8.14772 19.6978 8.07592 19.7449 8.00841C19.7935 7.93947 19.8457 7.87322 19.9015 7.80996C19.9662 7.73614 20.0367 7.66763 20.1123 7.60511C20.1506 7.5763 20.189 7.54429 20.2337 7.51548C20.2745 7.4889 20.3172 7.46537 20.3615 7.44507L20.4222 7.41306L20.4892 7.39385C20.5295 7.3805 20.5714 7.37296 20.6138 7.37145C20.6488 7.36658 20.6843 7.36658 20.7192 7.37145H20.7608L20.7959 7.38745C20.817 7.39503 20.8374 7.40468 20.8566 7.41626H20.7895H20.7576H20.716C20.6853 7.41676 20.6549 7.42329 20.6266 7.43546C20.59 7.44397 20.5547 7.45687 20.5212 7.47387C20.4834 7.49112 20.447 7.51146 20.4126 7.53469C20.3753 7.56545 20.3401 7.59859 20.3072 7.63391C20.2688 7.65952 20.2369 7.69153 20.1985 7.72033C20.1602 7.74914 20.0548 7.84196 19.9877 7.90278C19.9206 7.96359 19.8599 8.02441 19.8088 8.07242L19.6235 8.22286Z" fill="#B2806B"/>
<path d="M21.2399 7.93164C21.2673 7.99447 21.2835 8.06164 21.2878 8.13009C21.2974 8.20125 21.2974 8.27338 21.2878 8.34455C21.2834 8.3856 21.276 8.42626 21.2654 8.46618C21.2556 8.50654 21.2427 8.54612 21.2271 8.58461C21.2116 8.62418 21.1934 8.66267 21.1728 8.69984C21.1531 8.7364 21.1295 8.77074 21.1025 8.80226C21.0795 8.83222 21.0538 8.86007 21.0258 8.88548C21.0035 8.91129 20.9777 8.93391 20.9492 8.9527C20.9085 8.98317 20.8646 9.00893 20.8182 9.02952L20.7671 9.05192L20.8054 9.00711L20.847 8.9623L20.8981 8.89828L20.9556 8.82467C20.9755 8.79707 20.9937 8.7682 21.0099 8.73824C21.0498 8.67581 21.083 8.60928 21.1089 8.5398C21.1381 8.47032 21.1616 8.39861 21.1792 8.32534C21.1792 8.25492 21.2079 8.18771 21.2175 8.13009C21.2335 8.01486 21.2399 7.93164 21.2399 7.93164Z" fill="#B2806B"/>
<g style="mix-blend-mode:multiply" opacity="0.5">
<path d="M22.9488 6.24154C23.0471 6.12389 23.1207 5.98754 23.1652 5.84069C23.2096 5.69383 23.224 5.53949 23.2075 5.38692L23.6004 5.10845C23.4051 4.67645 23.1479 4.27532 22.837 3.91775C21.9361 2.9575 21.2653 3.01192 21.2653 3.01192L20.9458 3.15275C19.7799 3.42482 18.6235 4.22822 18.4957 5.61738C18.2689 8.10121 19.7096 9.45835 20.3037 9.2567C20.6054 9.19111 20.8733 9.01828 21.0576 8.77018C21.1841 8.84926 21.3279 8.89614 21.4766 8.90674C21.6252 8.91734 21.7742 8.89133 21.9106 8.83099C22.041 8.76385 22.15 8.66133 22.2251 8.53513C22.3002 8.40893 22.3385 8.26412 22.3354 8.11721C22.837 8.25485 22.9392 7.54427 22.9392 7.54427C23.0606 7.441 23.1595 7.31385 23.2298 7.17069C23.3002 7.02754 23.3404 6.87143 23.3481 6.71206C23.4215 6.1135 22.9488 6.24154 22.9488 6.24154ZM20.259 9.06145C19.7319 9.10946 19.3678 8.67095 19.5818 8.31246C19.9715 7.6723 20.6487 7.43864 20.8021 7.80994C20.9554 8.18123 20.7829 9.01024 20.259 9.06145ZM21.8019 8.74137C21.2653 9.01664 21.4026 8.38608 21.5783 8.12041C21.754 7.85474 22.0639 7.48025 22.2172 7.55387C22.3706 7.62749 22.3354 8.4725 21.8019 8.74137ZM21.8243 6.39198C21.7828 7.03214 21.7029 7.83554 21.2525 7.80994C20.8021 7.78433 20.9969 6.94571 21.0928 6.32796C21.1355 5.6684 21.074 5.00623 20.9107 4.36586C20.8372 4.08739 20.9107 4.48109 19.7192 5.22688C18.5276 5.97267 18.633 5.49895 18.7608 5.10845C19.0228 4.22823 19.8629 3.60727 20.9746 3.26798C21.6135 3.06953 22.8146 3.94975 22.591 4.99322C22.3674 6.03668 21.869 5.76142 21.8243 6.39198ZM22.6549 7.90596C22.5111 7.90596 22.6325 7.41623 22.3993 7.03214C22.2971 6.85929 22.7635 6.77287 22.837 7.15057C22.9104 7.52826 22.7986 7.89956 22.6549 7.90596ZM23.2778 6.68965C23.2203 7.07375 23.0606 7.32981 23.0446 7.05774C23.0286 6.78567 22.9392 6.56802 22.9552 6.43999C22.9871 6.21593 23.3321 6.30555 23.2778 6.68965Z" fill="#E0B496"/>
</g>
<g style="mix-blend-mode:screen" opacity="0.6">
<path d="M18.8091 5.03805C19.0339 4.59611 19.3566 4.21151 19.7525 3.91361C20.1483 3.61571 20.6069 3.41241 21.0931 3.31921C20.1886 3.67088 19.3983 4.26561 18.8091 5.03805Z" fill="white"/>
</g>
<path d="M23.6867 5.28771L19.0994 7.84836C18.8598 7.9828 18.55 7.84836 18.2625 7.33623C17.975 6.82411 18.0932 6.44961 18.2625 6.35359L22.8625 3.79294C23.1819 3.61049 23.6004 3.74812 23.8624 4.21224C24.1243 4.67636 24.0093 5.10847 23.6867 5.28771Z" fill="#232322"/>
<path d="M23.6643 5.28128L21.1087 6.70884L19.5115 7.59546L19.1122 7.81632C18.5436 8.1364 17.7002 6.68643 18.288 6.35675L20.9746 4.85877L22.5079 4.00095L22.8529 3.8089C23.6739 3.35119 24.3064 4.76915 23.6515 5.28448C23.6356 5.28448 23.6962 5.28448 23.709 5.28448C24.2744 4.84917 23.9231 3.59765 23.1404 3.68407C22.7326 3.79181 22.3481 3.97411 22.0064 4.22181L18.2433 6.35355C17.6268 6.69603 18.4094 7.89954 18.9652 7.91234C19.2591 7.91234 19.7096 7.53465 19.9396 7.40341L23.7122 5.30048C23.741 5.27807 23.6771 5.27167 23.6643 5.28128Z" fill="#16100B"/>
<g style="mix-blend-mode:multiply" opacity="0.6">
<path d="M23.8562 4.21224C23.5943 3.74812 23.1822 3.61049 22.8627 3.79294L18.2723 6.35359C18.0998 6.44961 17.9848 6.8177 18.2723 7.33623C18.5598 7.85477 18.8696 7.9764 19.1092 7.84836L23.6965 5.28771C24.0095 5.10847 24.115 4.67956 23.8562 4.21224ZM22.9554 5.2365L19.6331 7.08977C19.4606 7.1858 19.237 7.08977 19.0294 6.71848C18.8217 6.34718 18.9048 6.07832 19.0294 6.0079L22.3516 4.15463C22.5848 4.02339 22.8883 4.12262 23.0736 4.47471C23.1163 4.5323 23.1471 4.59783 23.1643 4.66748C23.1815 4.73713 23.1847 4.80951 23.1737 4.8804C23.1627 4.9513 23.1377 5.01929 23.1002 5.08043C23.0627 5.14156 23.0135 5.19462 22.9554 5.2365Z" fill="#282726"/>
</g>
<path d="M18.9813 6.93611C19.2113 7.34901 19.2369 7.77152 19.0388 7.89635C18.8408 8.02118 18.4926 7.76192 18.2626 7.34901C18.0326 6.93611 18.007 6.5104 18.2051 6.38877C18.4031 6.26714 18.7513 6.5232 18.9813 6.93611Z" fill="#282726"/>
<path d="M18.9493 6.93614C19.089 7.16414 19.1507 7.43161 19.125 7.69793C19.0355 8.26768 18.3902 7.49948 18.2944 7.33624C18.1503 7.11006 18.0882 6.84106 18.1187 6.57445C18.2081 6.0047 18.8534 6.7697 18.9493 6.93614C18.9493 6.95214 19.0195 6.93614 19.0132 6.93614C18.8822 6.71528 18.6011 6.29598 18.2848 6.34719C17.8344 6.42081 18.1123 7.10258 18.2337 7.33624C18.3551 7.5699 18.6522 7.9764 18.9588 7.92199C19.4093 7.84837 19.1314 7.1698 19.0132 6.93614C19.0036 6.91693 18.9429 6.92013 18.9493 6.93614Z" fill="#020202"/>
<g style="mix-blend-mode:multiply" opacity="0.5">
<path d="M18.8596 7.08333C19.0098 7.3522 19.0034 7.64027 18.8596 7.72349C18.7159 7.80672 18.4571 7.66268 18.307 7.40341C18.1569 7.14415 18.1632 6.84647 18.307 6.76325C18.4508 6.68003 18.7095 6.81446 18.8596 7.08333Z" fill="#282726"/>
</g>
<path d="M18.6462 7.63394L16.2599 8.96548C16.1385 9.03589 15.9756 8.96548 15.8287 8.69981C15.6817 8.43414 15.7392 8.23889 15.8287 8.18768L18.215 6.85614C18.3811 6.76332 18.5983 6.83374 18.7325 7.077C18.7657 7.11829 18.79 7.1661 18.8037 7.21734C18.8175 7.26859 18.8204 7.32214 18.8122 7.37458C18.8041 7.42701 18.7852 7.47717 18.7566 7.52183C18.728 7.5665 18.6904 7.60468 18.6462 7.63394Z" fill="#C6C6C6"/>
<path d="M18.5918 7.63395L17.4003 8.27412L16.5793 8.73183C16.2055 8.93989 15.8637 9.05191 15.803 8.35734C15.7743 8.05966 16.9786 7.58594 17.1735 7.47391L17.9689 7.0322L18.2212 6.89137C18.6525 6.65131 18.8601 7.36509 18.5854 7.61155C18.563 7.63395 18.6781 7.66276 18.7068 7.63716C18.9783 7.39389 18.8442 6.80174 18.4321 6.78894C18.2252 6.80029 18.0262 6.87268 17.8603 6.99699L15.7743 8.16209C15.4868 8.32213 15.8158 8.95589 16.0937 8.9943C16.2639 9.00352 16.4314 8.94873 16.5633 8.84066L18.71 7.65636C18.7419 7.63395 18.6237 7.60515 18.5918 7.63395Z" fill="#707070"/>
<g style="mix-blend-mode:multiply">
<path d="M18.7323 7.08016C18.5981 6.83689 18.3809 6.76008 18.2148 6.8593L15.8349 8.19084C15.7454 8.24205 15.6848 8.4341 15.8349 8.70297C15.985 8.97184 16.1543 9.02305 16.2661 8.96864L18.646 7.6339C18.6897 7.60463 18.7269 7.56659 18.7552 7.5222C18.7834 7.47781 18.8022 7.42802 18.8103 7.37598C18.8184 7.32394 18.8157 7.27078 18.8023 7.21987C18.7888 7.16895 18.765 7.12138 18.7323 7.08016ZM18.5023 7.40024L16.9689 8.25805C16.8891 8.30287 16.7837 8.25806 16.6878 8.08521C16.592 7.91237 16.6303 7.79074 16.6878 7.76513L18.2212 6.91051C18.3298 6.8497 18.4703 6.91051 18.5406 7.05135C18.5773 7.10146 18.5937 7.1636 18.5866 7.22532C18.5795 7.28705 18.5494 7.34381 18.5023 7.38423V7.40024Z" fill="#C6C6C6"/>
</g>
<path d="M17.4833 8.0564C18.6716 11.9166 15.7455 16.2409 10.9506 17.7228C6.1557 19.2048 1.3065 17.2747 0.118164 13.4178L17.4833 8.0564Z" fill="#C6C6C6"/>
<path d="M17.4322 8.04688C18.4417 11.523 16.263 14.8038 13.388 16.5866C9.84217 18.7856 4.55853 18.9328 1.53657 15.7544C0.966931 15.1385 0.53174 14.4103 0.258785 13.6163C0.16934 13.3762 0.226839 13.4338 0.447257 13.3634L2.22019 12.8161L8.72092 10.8124L17.5504 8.08529C17.5951 8.08529 17.4833 8.02127 17.4514 8.03087L0.0703125 13.3954C0.0703125 13.3954 0.0703125 13.3954 0.0703125 13.4146C1.47588 17.7325 6.58383 18.8848 10.5386 17.8958C14.7425 16.8395 18.9081 12.7233 17.5664 8.07889C17.5344 8.03088 17.4131 8.01167 17.4322 8.04688Z" fill="#707070"/>
<g style="mix-blend-mode:multiply">
<path d="M17.4831 8.0564L16.5247 8.35727C16.7611 11.8238 13.9436 15.015 9.70134 16.3241C6.62508 17.2843 3.57118 17.1691 1.43408 15.7063C3.48493 17.9693 7.23203 18.8687 10.9536 17.7228C15.7453 16.2409 18.6714 11.9166 17.4831 8.0564Z" fill="#C6C6C6"/>
</g>
<path d="M17.483 8.05641C17.8887 9.37514 14.3301 11.6413 9.53519 13.1233C4.74031 14.6053 0.523611 14.7237 0.117914 13.4178C-0.287782 12.1118 3.27405 9.83286 8.06894 8.35408C12.8638 6.87531 17.0805 6.74088 17.483 8.05641Z" fill="#919191"/>
<path d="M17.4321 8.06605C17.6781 9.06471 16.2566 9.96094 15.5857 10.4123C13.9455 11.447 12.178 12.2636 10.3276 12.8417C8.23093 13.5781 6.05204 14.0543 3.83969 14.2596C2.9133 14.3332 0.626058 14.5797 0.191611 13.4082C-0.156586 12.4736 1.45023 11.4589 2.03801 11.0652C3.67822 10.0305 5.44573 9.21385 7.29609 8.6358C9.39195 7.89632 11.5712 7.42003 13.784 7.21784C14.7104 7.14102 16.9977 6.89776 17.4321 8.06605C17.4321 8.10446 17.5695 8.06605 17.5567 8.06605C17.2373 7.23064 15.9595 7.18263 15.2375 7.14742C13.4934 7.061 11.7236 7.40669 10.0306 7.78759C7.95909 8.27371 5.94332 8.97307 4.01538 9.87451C2.7376 10.4827 1.28412 11.2285 0.373698 12.3647C-1.36409 14.5285 3.33816 14.3524 4.25817 14.2628C8.1618 13.8947 12.3593 12.5696 15.6592 10.4219C16.3492 9.97694 17.7899 9.05191 17.5375 8.03725C17.5375 8.01164 17.413 8.03405 17.4321 8.06605Z" fill="#707070"/>
<g opacity="0.7">
<path d="M8.25439 8.53979C4.45298 9.71449 2.39894 11.1581 1.33838 12.2271C2.68005 11.094 5.23563 9.82652 8.29912 8.87908C11.8514 7.7844 15.0842 7.42911 16.6878 7.85162C15.4867 7.45472 12.8832 7.10583 8.25439 8.53979Z" fill="white"/>
</g>
<g style="mix-blend-mode:multiply">
<path d="M9.53552 13.1233C12.73 12.1374 15.3718 10.8027 16.6624 9.63117C15.3367 9.14465 12.3051 9.43912 8.95093 10.473C5.43703 11.5581 2.66742 13.1201 1.99658 14.2916C3.75354 14.4484 6.52953 14.0515 9.53552 13.1233Z" fill="#C6C6C6"/>
</g>
<g style="mix-blend-mode:multiply">
<path d="M10.7714 17.2556C7.45878 18.2798 4.12057 17.7613 1.85889 16.1353C3.97362 18.0782 7.47475 18.7952 10.9503 17.7357C14.5952 16.609 17.1604 13.8371 17.6587 10.8763C16.8249 13.661 14.2726 16.1769 10.7714 17.2556Z" fill="#C6C6C6"/>
</g>
<path d="M0.913574 14.4549C0.913574 14.4549 2.12108 15.3767 7.77209 14.0772C13.3368 12.7969 15.6081 10.9564 15.6081 10.9564C15.6081 10.9564 12.1868 13.9652 6.09818 14.7974C2.09871 15.3703 0.913574 14.4549 0.913574 14.4549Z" fill="white"/>
<path d="M1.7793 4.17383C1.7793 4.17383 1.86235 4.30186 1.99972 4.52592C2.07319 4.63795 2.15305 4.77558 2.24569 4.93882L2.54916 5.47656L2.91014 6.11672C3.04111 6.34398 3.1625 6.58724 3.29028 6.8433C3.54584 7.35223 3.81737 7.88997 4.0889 8.44371C4.21668 8.71578 4.36043 8.98465 4.47862 9.25672L4.8332 10.0601C5.0632 10.5787 5.26765 11.0684 5.44973 11.4845C5.63182 11.9006 5.76918 12.2527 5.87779 12.4959C5.9864 12.7392 6.03751 12.88 6.03751 12.88L5.85543 12.5055C5.74043 12.2655 5.57432 11.9262 5.38265 11.5133C5.19098 11.1004 4.96737 10.6235 4.74376 10.1049C4.62876 9.84887 4.50737 9.58 4.38278 9.31113C4.2582 9.04226 4.11765 8.77019 3.98667 8.49812C3.72153 7.95398 3.45319 7.41305 3.20402 6.89772C3.07625 6.64485 2.96444 6.39519 2.83986 6.16793L2.50125 5.52777L2.21694 4.97723C2.13388 4.81079 2.05722 4.65715 1.99333 4.55472L1.7793 4.17383Z" fill="#CCC9C6"/>
<path d="M5.43359 5.98547C5.43359 5.98547 5.59012 6.20633 5.79457 6.55842C5.8936 6.73446 6.02138 6.93612 6.13638 7.16657C6.25138 7.39703 6.37596 7.63389 6.49735 7.87715C6.55485 7.99879 6.61874 8.11721 6.66985 8.23885L6.82637 8.60054C6.9254 8.8342 7.01485 9.05505 7.09152 9.2407C7.16819 9.42635 7.22888 9.58639 7.27041 9.69841C7.31194 9.81044 7.33749 9.87126 7.33749 9.87126C7.33749 9.87126 7.30235 9.81365 7.24805 9.70802C7.19374 9.60239 7.11388 9.45195 7.02763 9.26951C6.94138 9.08706 6.83277 8.87581 6.72416 8.62934C6.67092 8.51412 6.61661 8.39569 6.56124 8.27405C6.50693 8.15242 6.43985 8.03399 6.38235 7.91236C6.26415 7.6691 6.14276 7.42584 6.03734 7.19858C5.97984 7.08335 5.93192 6.97132 5.87762 6.8785C5.82331 6.78568 5.77859 6.67365 5.73068 6.58403C5.63804 6.40478 5.57415 6.26394 5.51665 6.14231C5.45915 6.02068 5.43359 5.98547 5.43359 5.98547Z" fill="#CCC9C6"/>
<path d="M9.51953 2.08374L9.58981 2.16696L9.7687 2.41982C9.84856 2.52865 9.92842 2.66949 10.0274 2.82633C10.0754 2.90635 10.1297 2.98957 10.1808 3.07919L10.3373 3.37047C10.4395 3.57532 10.5641 3.78977 10.6759 4.01063C10.7877 4.23148 10.9027 4.50355 11.0209 4.76282C11.0784 4.89405 11.1455 5.02528 11.1966 5.16292C11.2477 5.30055 11.3052 5.43819 11.3627 5.57582C11.4713 5.8575 11.5863 6.13917 11.6981 6.42404L11.7812 6.63849L11.8547 6.85615L12.0016 7.31387C12.0975 7.59874 12.1933 7.88041 12.2859 8.14928C12.3786 8.41815 12.4648 8.68381 12.5319 8.93668C12.599 9.18954 12.6725 9.4296 12.7363 9.65046C12.8609 10.089 12.9568 10.4571 13.0302 10.7163C13.1037 10.9756 13.1389 11.1196 13.1389 11.1196L13.0047 10.7227C12.9248 10.4699 12.8034 10.105 12.6661 9.66966C12.5958 9.45201 12.5223 9.21515 12.4457 8.96548C12.369 8.71582 12.27 8.45655 12.1773 8.18449L11.8898 7.35228L11.7429 6.92657L11.6662 6.71211L11.5832 6.49766C11.4713 6.21599 11.3627 5.93112 11.2637 5.64944C11.2094 5.50861 11.1583 5.37097 11.104 5.23334C11.0497 5.0957 10.989 4.96767 10.9315 4.83644C10.8197 4.57397 10.7079 4.32111 10.612 4.08105C10.5162 3.84099 10.3884 3.62333 10.2926 3.41528L10.1456 3.1208C10.1009 3.02798 10.0498 2.94476 10.0051 2.86154C9.91245 2.70149 9.84217 2.54146 9.7687 2.44543C9.69523 2.34941 9.64091 2.24378 9.60258 2.18296L9.51953 2.08374Z" fill="#CCC9C6"/>
<path d="M3.59375 1.72525L4.01861 2.17336L4.54889 1.9141L4.13361 1.44678L3.59375 1.72525Z" fill="#FF2424"/>
<path d="M3.56516 1.72518L3.99002 2.19249C3.99828 2.19727 4.00764 2.19978 4.01718 2.19978C4.02671 2.19978 4.03607 2.19727 4.04433 2.19249L4.57781 1.93323C4.43725 1.77639 4.29989 1.61315 4.15933 1.46591C4.15108 1.46113 4.1417 1.45862 4.13217 1.45862C4.12264 1.45862 4.11328 1.46113 4.10502 1.46591L3.56516 1.74438C3.54279 1.74438 3.6003 1.77319 3.61627 1.76359L4.15613 1.48832C4.12099 1.50752 4.08904 1.46271 4.12099 1.48832L4.16572 1.53953L4.29989 1.68997C4.37336 1.77319 4.44364 1.85641 4.51711 1.93643C4.50114 1.91722 4.29349 2.03885 4.25516 2.05486L4.07307 2.14448L4.01238 2.17649C3.96766 2.19569 4.01238 2.17649 4.04113 2.19249L3.61947 1.74118C3.61947 1.74118 3.54918 1.70597 3.56516 1.72518Z" fill="#AD0202"/>
<path d="M3.59375 1.72522V2.31097L4.01861 2.62785V2.17333L3.59375 1.72522Z" fill="#E20A0A"/>
<path d="M3.56152 1.7156V2.30135C3.56152 2.33656 3.71487 2.41978 3.74042 2.43898L3.99598 2.63103C3.99598 2.63103 4.05028 2.65024 4.05028 2.63103V2.35256C4.05028 2.30775 4.07264 2.19892 4.05028 2.16371L3.6318 1.7188C3.6318 1.7188 3.55833 1.7188 3.5743 1.7188L3.97361 2.14131C4.01833 2.18932 3.99598 2.26934 3.99598 2.33656V2.61503H4.05347L3.85222 2.46779C3.77673 2.41878 3.70419 2.36534 3.635 2.30775V1.7284C3.62542 1.7092 3.56152 1.6996 3.56152 1.7156Z" fill="#AD0202"/>
<path d="M4.54884 1.91406L4.01855 2.17333V2.62784L4.54884 2.36218V1.91406Z" fill="#CC0202"/>
<path d="M4.52345 1.90761L3.99316 2.16688V2.61819C3.99316 2.6406 4.04108 2.6342 4.05386 2.61819L4.58414 2.35252V1.90441C4.58414 1.90441 4.52025 1.8852 4.52025 1.90441C4.52025 1.99083 4.56178 2.32692 4.49789 2.35892L3.99316 2.60859H4.05066C4.05066 2.51897 4.00914 2.17968 4.07303 2.15087L4.57776 1.90121C4.59692 1.91081 4.53942 1.89801 4.52345 1.90761Z" fill="#AD0202"/>
<path d="M7.11084 9.2407L7.48779 9.6408L7.95737 9.41034L7.59001 8.99744L7.11084 9.2407Z" fill="#FCFCF0"/>
<path d="M7.08186 9.23434L7.45881 9.63445C7.46736 9.63824 7.4766 9.6402 7.48596 9.6402C7.49531 9.6402 7.50456 9.63824 7.51312 9.63445L7.98589 9.40399C7.8645 9.26635 7.73992 9.12872 7.61853 8.98788C7.61003 8.98389 7.60077 8.98181 7.59138 8.98181C7.58199 8.98181 7.57272 8.98389 7.56422 8.98788L7.08505 9.23434C7.06269 9.23434 7.12019 9.25995 7.13616 9.25355L7.61533 9.01029C7.58019 9.01029 7.54825 8.98468 7.577 9.01029L7.61533 9.0551L7.73672 9.18953L7.92839 9.40719C7.91242 9.40719 7.73353 9.49361 7.69519 9.51282L7.53547 9.58963L7.48117 9.61844C7.43964 9.63765 7.48117 9.61844 7.51312 9.63445L7.13936 9.23434C7.13936 9.23434 7.06589 9.23434 7.08186 9.23434Z" fill="#B2B1AB"/>
<path d="M7.11084 9.24072V9.76245L7.48779 10.0441V9.64082L7.11084 9.24072Z" fill="#EAE8DF"/>
<path d="M7.0791 9.23437V9.7561C7.0791 9.78811 7.21646 9.86172 7.23882 9.88093L7.46244 10.0474C7.46244 10.0474 7.51994 10.0698 7.51994 10.0474V9.79771C7.51994 9.7593 7.53911 9.66327 7.51994 9.63127L7.1398 9.23437C7.1398 9.23437 7.06633 9.21516 7.0823 9.23437L7.43369 9.60886C7.50078 9.67928 7.45605 9.92894 7.45605 10.0282H7.51036L7.33466 9.89693C7.30272 9.87133 7.14299 9.7625 7.14299 9.7561V9.23437H7.0791Z" fill="#B2B1AB"/>
<path d="M7.95738 9.4104L7.48779 9.64086V10.0442L7.95738 9.8073V9.4104Z" fill="#D1CFC9"/>
<path d="M7.93177 9.40396L7.45898 9.63442V10.0345C7.45898 10.0537 7.5069 10.0345 7.51648 10.0345L7.98927 9.79766V9.40076C7.98927 9.38155 7.92537 9.38155 7.92537 9.40076C7.92537 9.47117 7.96051 9.77525 7.92537 9.79766L7.47176 10.0249H7.53246C7.53246 9.9545 7.49732 9.64402 7.53246 9.62161L7.98607 9.39756C8.00524 9.40716 7.94455 9.39436 7.93177 9.40396Z" fill="#B2B1AB"/>
<path d="M9.08496 11.1901L9.45871 11.5902L9.93149 11.3597L9.56413 10.9436L9.08496 11.1901Z" fill="#FF2424"/>
<path d="M9.05611 11.19L9.43306 11.5933C9.44155 11.5973 9.45083 11.5994 9.46022 11.5994C9.4696 11.5994 9.47887 11.5973 9.48737 11.5933L9.96014 11.3628C9.83875 11.2252 9.71417 11.0876 9.59278 10.9467C9.58428 10.9427 9.57502 10.9407 9.56563 10.9407C9.55624 10.9407 9.54698 10.9427 9.53848 10.9467L9.05611 11.19C9.03695 11.19 9.09445 11.2156 9.11042 11.2092L9.58959 10.9659C9.55126 10.9852 9.5225 10.9435 9.55125 10.9659L9.58959 11.0108L9.71097 11.1452L9.90264 11.3628C9.88667 11.3436 9.70459 11.4493 9.66945 11.4685L9.50653 11.5453L9.45542 11.5709C9.41389 11.5933 9.45542 11.5709 9.48737 11.5709L9.12639 11.1836C9.12639 11.1836 9.04014 11.174 9.05611 11.19Z" fill="#AD0202"/>
<path d="M9.08496 11.1901V11.7086L9.45871 11.9903V11.5902L9.08496 11.1901Z" fill="#E20A0A"/>
<path d="M9.05322 11.1772V11.6989C9.05322 11.7309 9.18739 11.8045 9.21295 11.8237L9.43656 11.9902C9.43656 11.9902 9.49087 12.0158 9.49087 11.9902V11.7405C9.49087 11.7021 9.51323 11.6061 9.49087 11.5741L9.1267 11.19C9.1267 11.19 9.05323 11.1708 9.0692 11.19L9.42059 11.5645C9.48768 11.6349 9.44295 11.8846 9.44295 11.9838H9.49726L9.32156 11.8525C9.28961 11.8269 9.1267 11.7181 9.1267 11.7117V11.1932C9.1267 11.1772 9.05322 11.1548 9.05322 11.1772Z" fill="#AD0202"/>
<path d="M9.93176 11.3596L9.45898 11.5901V11.9902L9.93176 11.7565V11.3596Z" fill="#CC0202"/>
<path d="M9.91566 11.3501L9.44287 11.5806V11.9807C9.44287 11.9807 9.48441 11.9807 9.4908 11.9807L9.96357 11.747C9.96357 11.747 9.96357 11.747 9.96357 11.731V11.3373C9.96357 11.3213 9.89969 11.3373 9.89969 11.3373V11.6926C9.89969 11.7342 9.91566 11.7182 9.89969 11.7278C9.74955 11.8046 9.5994 11.8815 9.44607 11.9551H9.49718V11.5966C9.49718 11.5518 9.49718 11.5678 9.49718 11.5582L9.95079 11.3373C9.98593 11.3469 9.93163 11.3405 9.91566 11.3501Z" fill="#AD0202"/>
<path d="M4.69577 4.01062L4.54883 4.61237L5.05994 4.91645L5.22286 4.3115L4.69577 4.01062Z" fill="#F78B08"/>
<path d="M4.65427 3.9978C4.60316 4.19945 4.55524 4.4011 4.50732 4.60275L5.01524 4.92283C5.01524 4.92283 5.05996 4.94524 5.06316 4.92283C5.12066 4.72118 5.17496 4.51953 5.22927 4.31788C5.22927 4.31788 5.22927 4.31788 5.22927 4.30187L4.70218 3.9978C4.68621 3.9978 4.62871 3.9978 4.66385 3.9978L5.19093 4.29867C5.14918 4.39084 5.1181 4.48749 5.0983 4.58675C5.07275 4.68597 5.04399 4.7884 5.01524 4.88762H5.06636L4.82677 4.74679L4.65427 4.64116C4.61913 4.62195 4.57121 4.58355 4.56802 4.59635L4.71176 3.99459C4.71176 3.99459 4.67024 3.98179 4.65427 3.9978Z" fill="#C95D14"/>
<path d="M4.69577 4.01062L4.28368 4.27949L4.17188 4.86204L4.54882 4.61237L4.69577 4.01062Z" fill="#FF9A2C"/>
<path d="M4.65404 3.99775L4.42084 4.15139C4.3825 4.17379 4.24834 4.2314 4.23876 4.27942C4.20043 4.47147 4.16529 4.66351 4.12695 4.85236C4.12695 4.87477 4.17807 4.87477 4.18765 4.85236L4.43362 4.69232C4.47515 4.66672 4.5614 4.63471 4.57418 4.5835C4.62209 4.38825 4.66682 4.193 4.71473 3.99775C4.71473 3.99775 4.65723 3.96574 4.65084 3.99775C4.60612 4.18339 4.56459 4.36584 4.51987 4.55149C4.5007 4.62511 4.44001 4.64431 4.37612 4.68592L4.13014 4.84596H4.19084C4.22598 4.66031 4.26432 4.47147 4.29946 4.28262C4.29946 4.23141 4.43682 4.18019 4.47835 4.15139L4.71154 3.99775C4.71154 3.99775 4.68279 3.98814 4.65404 3.99775Z" fill="#C95D14"/>
<path d="M5.05994 4.91638L4.54882 4.6123L4.17188 4.86197L4.68299 5.16284L5.05994 4.91638Z" fill="#D66B00"/>
<path d="M5.08539 4.90677L4.57747 4.58669C4.56953 4.58274 4.56078 4.58069 4.55191 4.58069C4.54304 4.58069 4.5343 4.58274 4.52636 4.58669L4.14941 4.83315L4.66052 5.13403C4.66817 5.13887 4.67704 5.14143 4.68608 5.14143C4.69513 5.14143 4.70398 5.13887 4.71163 5.13403L5.08539 4.89077C5.11414 4.87156 5.05345 4.86836 5.03747 4.89077L4.80747 5.04121L4.68927 5.11803C4.64774 5.14683 4.74038 5.14683 4.68927 5.11803C4.63816 5.08922 4.25802 4.81715 4.20691 4.85236L4.44968 4.69232L4.56149 4.6219C4.59983 4.59309 4.50719 4.59309 4.56149 4.6219L5.04066 4.90677C5.04066 4.90677 5.10775 4.91958 5.08539 4.90677Z" fill="#C95D14"/>
<path d="M4.58393 7.96043L4.55518 7.33947L5.11101 7.13782L5.15893 7.76198L4.58393 7.96043Z" fill="#D1CFC9"/>
<path d="M4.61586 7.954L4.58711 7.34264C4.76494 7.25817 4.94987 7.18962 5.13975 7.13779H5.08225L5.13016 7.76195C5.13016 7.76195 5.07586 7.77796 5.0503 7.78756L4.85225 7.85478L4.56155 7.954C4.5296 7.954 4.5903 7.98281 4.60628 7.97961L5.18128 7.78116L5.13336 7.14099C5.13336 7.11859 5.08864 7.12179 5.07586 7.14099L4.52002 7.34584L4.54878 7.9668C4.55197 7.97641 4.61586 7.97961 4.61586 7.954Z" fill="#B2B1AB"/>
<path d="M4.58408 7.96039L4.22949 7.61791V7.02576L4.55533 7.33944L4.58408 7.96039Z" fill="#EAE8DF"/>
<path d="M4.61277 7.95397L4.43708 7.78112C4.40194 7.74911 4.26138 7.64669 4.26138 7.60508V7.03213H4.20388C4.26138 7.08975 4.31889 7.14736 4.37958 7.20178C4.44028 7.25619 4.52333 7.3106 4.52653 7.36502C4.52653 7.56347 4.54569 7.76192 4.55208 7.96037C4.55208 7.98277 4.61597 7.98917 4.61597 7.97637L4.58722 7.36502C4.58722 7.32341 4.51375 7.2786 4.485 7.24979C4.40833 7.17937 4.33485 7.10575 4.26138 7.03213C4.26138 7.03213 4.20068 7.00653 4.20068 7.03213V7.62108C4.20068 7.65949 4.30291 7.72991 4.32847 7.75232L4.55527 7.97637C4.55527 7.97637 4.62874 7.97637 4.61277 7.95397Z" fill="#B2B1AB"/>
<path d="M5.11116 7.13775L4.55533 7.3394L4.22949 7.02572L4.79172 6.82727L5.11116 7.13775Z" fill="#FCFCF0"/>
<path d="M5.08861 7.12822L4.56792 7.31707C4.50723 7.33948 4.56792 7.31707 4.56792 7.31707L4.4625 7.21464L4.25486 7.01299C4.27403 7.0322 4.41458 6.96818 4.4625 6.95218L4.78195 6.84015C4.84583 6.82094 4.78195 6.84015 4.78195 6.84015L4.88737 6.93937L5.09501 7.14103C5.09501 7.14103 5.16847 7.14103 5.14931 7.14103L4.82986 6.82094C4.82192 6.817 4.81318 6.81494 4.80431 6.81494C4.79544 6.81494 4.7867 6.817 4.77876 6.82094L4.21973 7.0194L4.53917 7.33948C4.53917 7.33948 4.57431 7.33948 4.58709 7.33948L5.14292 7.13782C5.16528 7.13462 5.10458 7.12182 5.08861 7.12822Z" fill="#B2B1AB"/>
<path d="M6.38232 1.27067L6.81038 1.65797L7.34066 1.43712L6.92538 1.03381L6.38232 1.27067Z" fill="#FF9A2C"/>
<path d="M6.35689 1.27393L6.78176 1.66123C6.79002 1.66601 6.79938 1.66852 6.80891 1.66852C6.81845 1.66852 6.82781 1.66601 6.83606 1.66123L7.36954 1.43718L6.95427 1.03707C6.94601 1.0323 6.93664 1.02979 6.92711 1.02979C6.91757 1.02979 6.90821 1.0323 6.89996 1.03707L6.35689 1.27393C6.33773 1.27393 6.39523 1.29954 6.4112 1.29314L6.94149 1.05948C6.94149 1.05948 6.88079 1.03067 6.94149 1.08189L7.07565 1.20992L7.32163 1.44678C7.13833 1.49641 6.96144 1.56731 6.79454 1.65803C6.84246 1.63883 6.85524 1.65803 6.79454 1.61962L6.64759 1.48839L6.42079 1.28034C6.42079 1.28034 6.33773 1.25793 6.35689 1.27393Z" fill="#C95D14"/>
<path d="M6.38232 1.27075V1.77328L6.81038 2.04535V1.65805L6.38232 1.27075Z" fill="#F78B08"/>
<path d="M6.35382 1.26436V1.53003C6.34105 1.60954 6.34105 1.69058 6.35382 1.77009C6.36979 1.8117 6.49757 1.86292 6.5359 1.88852L6.78507 2.04856C6.78507 2.04856 6.83937 2.07097 6.83937 2.04856V1.7797C6.83937 1.73808 6.85854 1.67407 6.83937 1.64206L6.42728 1.26757C6.42728 1.26757 6.35701 1.25156 6.37298 1.26757L6.76271 1.62286C6.83937 1.69327 6.79465 1.92053 6.79465 2.03576H6.84895L6.42728 1.76369C6.42728 1.76369 6.42728 1.57164 6.42728 1.53643V1.27077C6.41451 1.25796 6.35382 1.24836 6.35382 1.26436Z" fill="#C95D14"/>
<path d="M7.34083 1.43713L6.81055 1.65799V2.04529L7.34083 1.81803V1.43713Z" fill="#D66B00"/>
<path d="M7.31837 1.42433L6.78809 1.64839V2.03569C6.78809 2.03569 6.83281 2.03569 6.8424 2.03569L7.37268 1.80843V1.43714C7.37268 1.41793 7.30878 1.41473 7.30878 1.43714V1.674C7.30878 1.75402 7.33434 1.80523 7.27684 1.82764L6.78809 2.03889H6.8424V1.80843C6.8424 1.72521 6.81684 1.674 6.87434 1.65159L7.3631 1.44354C7.39504 1.43074 7.33434 1.41793 7.31837 1.42433Z" fill="#C95D14"/>
<path d="M7.85204 4.67639L7.4751 4.83643L7.5326 5.4958L7.90635 5.36777L7.85204 4.67639Z" fill="#FF2424"/>
<path d="M7.82958 4.66674L7.45264 4.82678C7.4718 5.04764 7.49097 5.26849 7.51333 5.48615C7.51333 5.50215 7.55166 5.48615 7.56125 5.48615L7.93181 5.35811C7.93181 5.12765 7.89666 4.8972 7.8775 4.66674C7.8775 4.64753 7.81361 4.66674 7.81361 4.66674L7.86153 5.27489C7.86153 5.37092 7.89027 5.34531 7.79444 5.37732L7.51013 5.47654H7.56125C7.54208 5.28449 7.5261 5.09565 7.50694 4.9036C7.50694 4.80757 7.48777 4.82678 7.58041 4.78837L7.87111 4.66674C7.90625 4.66994 7.84875 4.66034 7.82958 4.66674Z" fill="#AD0202"/>
<path d="M7.53271 5.49583L7.89049 5.85752L8.2355 5.69748L7.90647 5.3678L7.53271 5.49583Z" fill="#CC0202"/>
<path d="M7.5068 5.49896L7.84861 5.86065C7.85686 5.86542 7.86622 5.86794 7.87576 5.86794C7.88529 5.86794 7.89466 5.86542 7.90292 5.86065L8.25111 5.70061L7.93166 5.38053C7.9163 5.3743 7.89911 5.3743 7.88374 5.38053L7.50999 5.50856C7.47805 5.50856 7.53555 5.53737 7.55152 5.53417L7.87097 5.42534H7.91888C7.93805 5.42534 7.86139 5.39333 7.89333 5.42534L8.03388 5.56617L8.16805 5.70061C8.20958 5.74222 8.21916 5.72621 8.16805 5.74862L7.84861 5.88946H7.90292L7.54513 5.52776C7.54513 5.52776 7.48763 5.47975 7.5068 5.49896Z" fill="#AD0202"/>
<path d="M7.85205 4.67639L7.90636 5.36777L8.23539 5.69745L8.27372 5.15971L7.85205 4.67639Z" fill="#E20A0A"/>
<path d="M7.82321 4.66991C7.83918 4.89077 7.85515 5.11483 7.87431 5.33568C7.87431 5.3901 7.92862 5.41891 7.96376 5.45412L8.20974 5.70058C8.20974 5.70058 8.26724 5.72298 8.26724 5.70058C8.26724 5.59495 8.28321 5.49252 8.2896 5.3805C8.2896 5.33568 8.33113 5.17884 8.2896 5.14043L7.87112 4.66031C7.87112 4.66031 7.80084 4.66031 7.81681 4.66031L8.21932 5.12443C8.25765 5.16924 8.21932 5.30688 8.21932 5.36769C8.21932 5.42851 8.21932 5.57254 8.19696 5.68777H8.25765C8.16821 5.59815 7.93821 5.44451 7.93821 5.31968C7.93821 5.10522 7.90626 4.88757 7.88709 4.67952C7.8839 4.65711 7.82002 4.65391 7.82321 4.66991Z" fill="#AD0202"/>
<path d="M9.93172 4.69237L9.52602 4.62195L9.27686 5.10207L9.657 5.19809L9.93172 4.69237Z" fill="#FF9A2C"/>
<path d="M9.94741 4.67957L9.54171 4.60596C9.54171 4.60596 9.50338 4.60596 9.49699 4.60596L9.24463 5.08608L9.62797 5.1821C9.62797 5.1821 9.67269 5.1821 9.67908 5.1821C9.77172 5.01246 9.86116 4.84282 9.9538 4.67638C9.9538 4.67638 9.89949 4.65717 9.8931 4.67638C9.80047 4.84602 9.70783 4.99645 9.61839 5.1821H9.6695L9.45227 5.12769L9.31171 5.09248C9.28615 5.09248 9.29574 5.09248 9.31171 5.07007C9.39157 4.91964 9.47144 4.7692 9.54811 4.61876H9.50338L9.90589 4.68918C9.93464 4.70518 9.98894 4.68598 9.94741 4.67957Z" fill="#C95D14"/>
<path d="M9.27686 5.10205L9.36311 5.49575L9.74005 5.55016L9.657 5.19808L9.27686 5.10205Z" fill="#D66B00"/>
<path d="M9.24475 5.09249C9.2767 5.22372 9.30545 5.35496 9.3342 5.48939C9.3342 5.48939 9.36295 5.5086 9.37573 5.5118L9.75267 5.56621H9.77184C9.74309 5.44778 9.71434 5.32935 9.68879 5.21092C9.68879 5.21092 9.66323 5.19172 9.65364 5.19172L9.2735 5.09569C9.22878 5.09569 9.25433 5.1181 9.2735 5.1245L9.54823 5.19172L9.61531 5.21092C9.676 5.21092 9.61531 5.21092 9.61531 5.21092C9.61531 5.25893 9.63768 5.30694 9.65045 5.35496C9.66323 5.40297 9.6792 5.47659 9.69197 5.5374C9.70475 5.59822 9.69198 5.5374 9.71434 5.5374H9.65045L9.33101 5.49259L9.37253 5.515C9.34378 5.38376 9.31183 5.24933 9.28308 5.1181C9.30225 5.08929 9.24156 5.07328 9.24475 5.09249Z" fill="#C95D14"/>
<path d="M9.93146 4.69238L9.65674 5.19811L9.73979 5.5502L10.0049 5.22692L9.93146 4.69238Z" fill="#F78B08"/>
<path d="M9.9027 4.68594L9.65353 5.14045C9.59284 5.25568 9.68229 5.42853 9.70784 5.54696C9.70784 5.56616 9.75895 5.56936 9.77173 5.54696L9.93465 5.34531C9.9602 5.3165 10.0433 5.24608 10.0369 5.20767C10.0145 5.03163 9.98895 4.85878 9.9634 4.68274C9.9634 4.66353 9.89951 4.66353 9.89951 4.68274C9.92507 4.85238 9.94742 5.02203 9.97298 5.19167C9.97298 5.24288 9.9027 5.3005 9.87395 5.33891L9.71103 5.53735H9.77173C9.74617 5.42213 9.65673 5.24288 9.71423 5.13725L9.9634 4.67954C9.9634 4.67954 9.90909 4.66994 9.9027 4.68594Z" fill="#C95D14"/>
<path d="M11.2477 8.55578L10.7493 8.46936L10.4395 9.06151L10.909 9.17994L11.2477 8.55578Z" fill="#FF9A2C"/>
<path d="M11.2445 8.53979L10.7429 8.45337C10.7429 8.45337 10.7238 8.45337 10.7174 8.45337L10.3979 9.04552C10.3979 9.04552 10.4203 9.06473 10.4267 9.06473L10.8963 9.18315C10.8963 9.18315 10.925 9.18315 10.9314 9.18315L11.27 8.559C11.27 8.559 11.2189 8.52699 11.2093 8.54299C11.1039 8.73184 11.0017 8.92389 10.8899 9.11274C10.8643 9.15755 10.8516 9.15115 10.8899 9.16075L10.7621 9.12874L10.4267 9.04552C10.4682 9.04552 10.4554 9.04552 10.481 9.00711L10.5673 8.84067L10.7461 8.50138C10.7685 8.46297 10.727 8.47898 10.7461 8.48218L10.9123 8.51098L11.2317 8.5654C11.2956 8.59421 11.27 8.54619 11.2445 8.53979Z" fill="#C95D14"/>
<path d="M10.4395 9.06152L10.5481 9.55125L11.0528 9.68888L10.909 9.17995L10.4395 9.06152Z" fill="#D66B00"/>
<path d="M10.4045 9.06474C10.4397 9.22798 10.478 9.38482 10.5131 9.55447L11.0211 9.6921C11.0211 9.6921 11.0786 9.6921 11.0754 9.6921C11.0274 9.52246 10.9763 9.35281 10.9284 9.18317C10.9284 9.15756 10.7655 9.13836 10.7399 9.13196L10.4461 9.05834C10.4301 9.05834 10.3726 9.05834 10.4045 9.08074L10.6409 9.14156C10.6761 9.14156 10.8645 9.18957 10.8645 9.19277C10.9156 9.36242 10.9636 9.53206 11.0115 9.7017L11.0626 9.6825L10.5579 9.54807C10.5154 9.38904 10.4824 9.22765 10.4588 9.06474C10.4652 9.03593 10.4045 9.04874 10.4045 9.06474Z" fill="#C95D14"/>
<path d="M11.2478 8.55579L10.9092 9.17994L11.0529 9.68887L11.3404 9.21515L11.2478 8.55579Z" fill="#F78B08"/>
<path d="M11.2188 8.54618L10.8994 9.14473C10.8674 9.20235 10.9154 9.28557 10.9345 9.34638L11.0303 9.68247C11.0303 9.68247 11.0847 9.70807 11.0942 9.68247C11.1422 9.59605 11.1965 9.50962 11.2476 9.4264C11.2987 9.34318 11.3849 9.25356 11.3754 9.20235C11.3466 8.98149 11.3147 8.76383 11.2859 8.56218C11.2859 8.56218 11.222 8.53338 11.2252 8.56218L11.3115 9.20235C11.3115 9.26956 11.2412 9.35278 11.206 9.4104L11.0303 9.70167H11.091C11.0623 9.60565 11.0367 9.50642 11.008 9.4072C10.9792 9.30797 10.9281 9.23115 10.9601 9.17034L11.2795 8.57499C11.2795 8.57499 11.2284 8.53017 11.2188 8.54618Z" fill="#C95D14"/>
<path d="M7.22253 11.4685L6.721 11.3789L6.41113 11.9743L6.88391 12.0895L7.22253 11.4685Z" fill="#FF9A2C"/>
<path d="M7.23874 11.4557L6.73721 11.3661C6.73721 11.3661 6.69888 11.3661 6.69249 11.3661C6.58708 11.5613 6.48485 11.7598 6.37305 11.9582L6.84263 12.0767C6.84263 12.0767 6.88736 12.0767 6.89375 12.0767C7.00875 11.8686 7.12055 11.6606 7.23236 11.4365C7.23236 11.4365 7.18125 11.4173 7.17166 11.4365L6.83305 12.0767H6.88735L6.60624 12.0063L6.45291 11.9678C6.41138 11.9678 6.42096 11.9678 6.45291 11.9422C6.54874 11.7534 6.64777 11.5645 6.74679 11.3789H6.70208L7.20999 11.4749C7.22597 11.4749 7.27708 11.4749 7.23874 11.4557Z" fill="#C95D14"/>
<path d="M6.41113 11.9742L6.51974 12.4608L7.02766 12.5984L6.88391 12.0895L6.41113 11.9742Z" fill="#D66B00"/>
<path d="M6.38229 11.971L6.4909 12.4608C6.4909 12.4608 6.49089 12.4608 6.51006 12.4608L7.01798 12.5984C7.01798 12.5984 7.0627 12.5984 7.05951 12.5984C7.01159 12.4287 6.96368 12.2591 6.91257 12.0895C6.91257 12.0895 6.91257 12.0895 6.8934 12.0895L6.42381 11.971C6.39506 11.971 6.35992 11.971 6.40145 11.9934L6.63784 12.051L6.80076 12.0927H6.85187C6.88382 12.0927 6.85187 12.0927 6.85187 12.0927L6.99562 12.6016H7.03715L6.53243 12.4672C6.56437 12.4672 6.53243 12.4383 6.53243 12.4063C6.53243 12.3743 6.51006 12.3007 6.49728 12.2463L6.43978 11.9902C6.43978 11.955 6.3759 11.9518 6.38229 11.971Z" fill="#C95D14"/>
<path d="M7.2224 11.4685L6.88379 12.0895L7.02754 12.5984L7.31185 12.1279L7.2224 11.4685Z" fill="#F78B08"/>
<path d="M7.19076 11.4749L6.87131 12.0863C6.84576 12.1311 6.89687 12.2303 6.90965 12.2751L7.00548 12.6144C7.00548 12.6144 7.05979 12.6336 7.06937 12.6144L7.22271 12.3615C7.24826 12.3199 7.36327 12.1855 7.35368 12.1375C7.32493 11.9166 7.29299 11.699 7.26424 11.4813C7.26424 11.4621 7.19715 11.4589 7.20034 11.4813L7.28659 12.1215C7.28659 12.1919 7.21951 12.2751 7.18438 12.3295C7.14924 12.384 7.06617 12.5248 7.00867 12.6208H7.06937L6.98312 12.3263C6.96715 12.2655 6.90645 12.1503 6.9384 12.0927L7.25784 11.4973C7.25784 11.4973 7.20993 11.4461 7.19076 11.4749Z" fill="#C95D14"/>
<path d="M9.3883 7.25947C9.39475 7.32442 9.38123 7.3898 9.34954 7.44683C9.31786 7.50386 9.26953 7.54982 9.21103 7.57856C9.15254 7.60729 9.08668 7.61741 9.02228 7.60757C8.95788 7.59774 8.89802 7.56841 8.85073 7.52352C8.80344 7.47862 8.77097 7.42032 8.75769 7.35641C8.7444 7.29251 8.75094 7.22607 8.77641 7.16599C8.80189 7.10592 8.84508 7.05508 8.9002 7.0203C8.95533 6.98551 9.01975 6.96845 9.08482 6.97139C9.16308 6.96967 9.23886 6.99896 9.29569 7.0529C9.35252 7.10684 9.3858 7.18108 9.3883 7.25947Z" fill="#3A7A09"/>
<path d="M9.35661 7.26264C9.3564 7.30216 9.34749 7.34116 9.33052 7.37684C9.31355 7.41252 9.28893 7.44401 9.25842 7.46907C9.22792 7.49413 9.19228 7.51215 9.15404 7.52183C9.11579 7.53152 9.07589 7.53264 9.03717 7.52511C8.97746 7.50967 8.92447 7.47498 8.88637 7.4264C8.84828 7.37781 8.82718 7.31802 8.82633 7.25624C8.82655 7.21672 8.83546 7.17773 8.85243 7.14205C8.8694 7.10637 8.89402 7.07487 8.92452 7.04981C8.95502 7.02475 8.99067 7.00673 9.02891 6.99705C9.06715 6.98736 9.10705 6.98624 9.14578 6.99377C9.20582 7.0091 9.25922 7.04366 9.29786 7.09219C9.33649 7.14073 9.35825 7.20058 9.35981 7.26264C9.35981 7.28185 9.42369 7.26264 9.42369 7.26264C9.41249 7.18148 9.37236 7.10713 9.31071 7.05331C9.24905 6.9995 9.17005 6.96985 9.08828 6.96985C9.00651 6.96985 8.92751 6.9995 8.86585 7.05331C8.8042 7.10713 8.76406 7.18148 8.75286 7.26264C8.72411 7.66274 9.39175 7.64674 9.42369 7.26264C9.4205 7.24023 9.35661 7.24344 9.35661 7.26264Z" fill="#264900"/>
<path d="M3.59357 3.33843C3.59613 3.38637 3.58428 3.43398 3.55956 3.47511C3.53483 3.51623 3.49837 3.54898 3.45488 3.56913C3.41138 3.58928 3.36286 3.5959 3.31558 3.58813C3.26829 3.58037 3.22442 3.55857 3.18962 3.52557C3.15483 3.49256 3.13071 3.44986 3.12038 3.40298C3.11005 3.35609 3.11399 3.30719 3.13169 3.26257C3.14938 3.21796 3.18002 3.17968 3.21965 3.15269C3.25928 3.12571 3.30607 3.11124 3.35399 3.11117C3.38461 3.11032 3.4151 3.11552 3.44372 3.12649C3.47234 3.13745 3.49853 3.15395 3.52078 3.17506C3.54303 3.19616 3.56091 3.22145 3.5734 3.24949C3.58589 3.27752 3.59274 3.30774 3.59357 3.33843Z" fill="#3A7A09"/>
<path d="M3.56179 3.33839C3.55676 3.39038 3.53802 3.44009 3.50749 3.48243C3.35735 3.57205 3.24555 3.55925 3.18805 3.45042C3.16884 3.41624 3.15893 3.37761 3.1593 3.33839C3.15767 3.28507 3.17719 3.23328 3.2136 3.19436C3.36374 3.10473 3.47235 3.11754 3.53304 3.22637C3.55464 3.25967 3.56577 3.29869 3.56499 3.33839C3.56499 3.3576 3.62888 3.33839 3.62888 3.33839C3.6189 3.27341 3.58604 3.21414 3.53623 3.17133C3.48643 3.12852 3.42297 3.10498 3.35735 3.10498C3.29173 3.10498 3.22828 3.12852 3.17847 3.17133C3.12867 3.21414 3.0958 3.27341 3.08582 3.33839C3.05388 3.65848 3.60013 3.65848 3.62888 3.33839C3.62569 3.32239 3.56179 3.31919 3.56179 3.33839Z" fill="#264900"/>
<path d="M9.51286 3.40888C9.51286 3.47255 9.48762 3.53361 9.44269 3.57863C9.39776 3.62365 9.33682 3.64895 9.27328 3.64895C9.20973 3.64895 9.14879 3.62365 9.10386 3.57863C9.05893 3.53361 9.03369 3.47255 9.03369 3.40888C9.03369 3.34522 9.05893 3.28415 9.10386 3.23913C9.14879 3.19411 9.20973 3.16882 9.27328 3.16882C9.33682 3.16882 9.39776 3.19411 9.44269 3.23913C9.48762 3.28415 9.51286 3.34522 9.51286 3.40888Z" fill="#3A7A09"/>
<path d="M9.48125 3.40245C9.48196 3.45423 9.46366 3.50446 9.42984 3.54361C9.39602 3.58275 9.34902 3.60809 9.29778 3.6148C9.24654 3.62152 9.19463 3.60914 9.15189 3.58003C9.10916 3.55091 9.07858 3.50708 9.06598 3.45687C8.98931 3.1816 9.4557 3.11118 9.48125 3.40565C9.48125 3.40565 9.54515 3.43446 9.54515 3.40565C9.53517 3.34067 9.5023 3.2814 9.4525 3.23859C9.40269 3.19578 9.33924 3.17224 9.27362 3.17224C9.20799 3.17224 9.14454 3.19578 9.09474 3.23859C9.04493 3.2814 9.01206 3.34067 9.00208 3.40565C8.97333 3.72574 9.5132 3.72574 9.54515 3.40565C9.54515 3.39925 9.48445 3.38645 9.48125 3.40245Z" fill="#264900"/>
<path d="M4.26472 10.5147C4.23173 10.5709 4.18239 10.6157 4.1233 10.643C4.06422 10.6704 3.99821 10.679 3.93411 10.6677C3.87001 10.6564 3.81088 10.6258 3.76463 10.5799C3.71838 10.534 3.68722 10.4751 3.67531 10.411C3.66341 10.3469 3.67133 10.2806 3.69802 10.2212C3.72471 10.1617 3.76889 10.1118 3.82465 10.0782C3.88041 10.0446 3.94509 10.0288 4.01003 10.033C4.07498 10.0372 4.1371 10.0612 4.18806 10.1018C4.25272 10.1465 4.29708 10.215 4.31145 10.2924C4.32581 10.3698 4.30902 10.4497 4.26472 10.5147Z" fill="#3A7A09"/>
<path d="M4.23276 10.5146C4.00276 10.7867 3.62901 10.4506 3.8047 10.1722C3.91331 9.99611 4.17207 10.0697 4.25832 10.233C4.28024 10.2778 4.28944 10.3277 4.28494 10.3774C4.28043 10.4271 4.26238 10.4745 4.23276 10.5146C4.23276 10.5306 4.28387 10.5466 4.29346 10.5306C4.51387 10.1818 3.99318 9.85847 3.74401 10.1561C3.49484 10.4538 4.04429 10.8251 4.29346 10.5306C4.30623 10.5146 4.24554 10.489 4.23276 10.5146Z" fill="#264900"/>
<path d="M13.9851 10.8892C13.9692 10.9098 13.9494 10.927 13.9268 10.9399C13.9042 10.9529 13.8793 10.9612 13.8535 10.9645C13.8277 10.9677 13.8015 10.9659 13.7764 10.959C13.7513 10.9521 13.7278 10.9404 13.7072 10.9244C13.6646 10.8935 13.6355 10.8473 13.6259 10.7954C13.6164 10.7436 13.6272 10.69 13.6561 10.6459C13.6915 10.6144 13.7368 10.5961 13.7841 10.5943C13.8315 10.5924 13.878 10.6071 13.9157 10.6359C13.9534 10.6646 13.98 10.7056 13.991 10.7518C14.0019 10.798 13.9964 10.8466 13.9756 10.8892H13.9851Z" fill="#3A7A09"/>
<path d="M13.9568 10.8859C13.7811 11.0812 13.6214 10.8283 13.6693 10.6779C13.7427 10.4506 13.9376 10.6299 13.9887 10.7099C14.0007 10.739 14.0052 10.7706 14.0019 10.8019C13.9985 10.8333 13.9874 10.8632 13.9695 10.8891C13.9695 10.8891 14.0207 10.8891 14.0302 10.8891C14.1804 10.6331 13.8162 10.457 13.6437 10.6491C13.5351 10.7675 13.6437 10.9275 13.7683 10.9692C13.8145 10.9822 13.8636 10.9816 13.9095 10.9674C13.9554 10.9532 13.9962 10.926 14.027 10.8891C14.0302 10.8731 13.9695 10.8731 13.9568 10.8859Z" fill="#264900"/>
<path d="M11.1552 11.8526C11.1217 11.9033 11.0739 11.9428 11.0178 11.9659C10.9617 11.9891 10.9 11.9949 10.8406 11.9826C10.7812 11.9703 10.7269 11.9404 10.6846 11.8968C10.6423 11.8533 10.614 11.798 10.6033 11.7382C10.5927 11.6784 10.6002 11.6167 10.6248 11.5612C10.6495 11.5057 10.6902 11.4588 10.7417 11.4267C10.7932 11.3946 10.8531 11.3786 10.9137 11.381C10.9743 11.3833 11.0328 11.4037 11.0817 11.4397C11.1459 11.4849 11.1896 11.5537 11.2033 11.631C11.2171 11.7083 11.1998 11.788 11.1552 11.8526Z" fill="#3A7A09"/>
<path d="M11.1261 11.8398C11.0975 11.8757 11.0603 11.9039 11.0178 11.9215C10.9754 11.9391 10.9293 11.9457 10.8836 11.9406C10.838 11.9354 10.7944 11.9188 10.7569 11.8922C10.7194 11.8657 10.6893 11.83 10.6693 11.7886C10.6504 11.7491 10.6405 11.7059 10.6405 11.6621C10.6405 11.6183 10.6504 11.5751 10.6693 11.5357C10.6947 11.494 10.7308 11.4599 10.7738 11.437C10.8169 11.4141 10.8653 11.4032 10.914 11.4055C10.9626 11.4078 11.0098 11.4232 11.0505 11.45C11.0912 11.4769 11.124 11.5142 11.1453 11.5581C11.1659 11.6038 11.1743 11.654 11.1698 11.7039C11.1653 11.7538 11.1481 11.8017 11.1197 11.843C11.1197 11.843 11.1677 11.8814 11.1773 11.8622C11.3945 11.5197 10.8802 11.1868 10.631 11.4813C10.3818 11.7758 10.9281 12.1631 11.1773 11.8654C11.1964 11.8494 11.1389 11.827 11.1261 11.8398Z" fill="#264900"/>
<path d="M8.52267 2.51265C8.46886 2.40923 8.43762 2.29554 8.43101 2.1791C8.4244 2.06266 8.44258 1.94614 8.48434 1.83728C8.54597 1.9379 8.58173 2.05226 8.58842 2.17013C8.59511 2.28799 8.57252 2.40568 8.52267 2.51265Z" fill="#EAE8DF"/>
<path d="M8.55467 2.5126C8.50047 2.40932 8.469 2.29559 8.46239 2.17908C8.45577 2.06258 8.47417 1.94601 8.51633 1.83723H8.45245C8.51468 1.9377 8.55053 2.0523 8.55668 2.17039C8.56282 2.28847 8.53905 2.40619 8.48759 2.5126C8.48759 2.53181 8.54189 2.54141 8.54828 2.5126C8.59897 2.40417 8.622 2.28482 8.61531 2.16527C8.60862 2.04572 8.57242 1.9297 8.50995 1.82763C8.50995 1.82763 8.45245 1.80842 8.44606 1.82763C8.40336 1.93807 8.38497 2.05644 8.39214 2.17466C8.3993 2.29288 8.43186 2.40815 8.48759 2.5126C8.48759 2.5126 8.56425 2.5126 8.55467 2.5126Z" fill="#B2B1AB"/>
<path d="M8.52915 11.9198C8.45625 11.782 8.41369 11.6301 8.40432 11.4744C8.39495 11.3187 8.419 11.1628 8.47484 11.0172C8.55717 11.1516 8.6052 11.3043 8.61468 11.4617C8.62415 11.6191 8.59477 11.7765 8.52915 11.9198Z" fill="#EAE8DF"/>
<path d="M8.56128 11.9166C8.48885 11.7792 8.44653 11.6279 8.43717 11.4728C8.4278 11.3177 8.4516 11.1624 8.50697 11.0172H8.44627C8.52701 11.1511 8.57387 11.3028 8.58278 11.459C8.59169 11.6152 8.56237 11.7712 8.49738 11.9134C8.49738 11.9326 8.55169 11.939 8.56128 11.9134C8.62801 11.7692 8.65799 11.6107 8.64851 11.452C8.63903 11.2934 8.59039 11.1396 8.50697 11.0044C8.50697 11.0044 8.44946 11.0044 8.44307 11.0044C8.38757 11.1506 8.36371 11.307 8.37308 11.4632C8.38244 11.6193 8.42481 11.7717 8.49738 11.9102C8.49738 11.9102 8.56767 11.9326 8.56128 11.9166Z" fill="#B2B1AB"/>
<path d="M6.01524 9.46159C5.88959 9.4171 5.77716 9.34156 5.68838 9.24197C5.59959 9.14238 5.53733 9.02195 5.50732 8.89185C5.63716 8.92884 5.75383 9.00203 5.84375 9.1029C5.93368 9.20377 5.99315 9.32816 6.01524 9.46159Z" fill="#EAE8DF"/>
<path d="M6.02446 9.45196C5.90323 9.4062 5.79516 9.33111 5.70989 9.23338C5.62462 9.13565 5.56478 9.01832 5.53571 8.89182H5.49738C5.62323 8.92855 5.73603 9.00044 5.82259 9.09907C5.90914 9.1977 5.96587 9.319 5.98613 9.44876C5.98613 9.46796 6.04363 9.46796 6.04363 9.44876C6.02196 9.31077 5.96053 9.18212 5.86689 9.07863C5.77326 8.97514 5.65149 8.90131 5.51654 8.86621C5.51654 8.86621 5.47501 8.86621 5.4782 8.86621C5.50999 8.99993 5.57498 9.12344 5.66712 9.22528C5.75927 9.32712 5.87559 9.40399 6.0053 9.44876C6.02766 9.48077 6.0596 9.46476 6.02446 9.45196Z" fill="#B2B1AB"/>
<path d="M12.7682 10.7676C12.5541 10.4547 12.4579 10.0758 12.4967 9.69849C12.6109 9.84947 12.6938 10.0219 12.7405 10.2055C12.7871 10.3891 12.7965 10.5802 12.7682 10.7676Z" fill="#EAE8DF"/>
<path d="M12.797 10.7612C12.584 10.4479 12.4889 10.069 12.5286 9.6921H12.4679C12.5835 9.84166 12.667 10.0135 12.7132 10.197C12.7594 10.3804 12.7672 10.5714 12.7363 10.758C12.7363 10.758 12.7938 10.758 12.8002 10.758C12.8308 10.5694 12.8222 10.3765 12.775 10.1915C12.7277 10.0064 12.6427 9.83311 12.5255 9.6825C12.5255 9.6825 12.468 9.6825 12.4648 9.6825C12.4252 10.0609 12.5214 10.441 12.7363 10.7548C12.7363 10.7548 12.8098 10.774 12.797 10.7612Z" fill="#B2B1AB"/>
<path d="M13.8861 8.81819C13.8477 8.64478 13.8466 8.46513 13.8829 8.29125C13.9193 8.11738 13.9923 7.95329 14.097 7.80994C14.1454 7.98259 14.1516 8.16441 14.1149 8.33995C14.0782 8.51549 13.9997 8.67955 13.8861 8.81819Z" fill="#EAE8DF"/>
<path d="M13.9182 8.82146C13.879 8.64984 13.8772 8.47176 13.9131 8.2994C13.9489 8.12704 14.0215 7.96447 14.1258 7.82281H14.0651C14.1157 7.99348 14.1232 8.17407 14.087 8.34837C14.0507 8.52267 13.9719 8.68523 13.8575 8.82146C13.8575 8.82146 13.9054 8.85667 13.915 8.84387C14.0315 8.70627 14.1119 8.54165 14.1487 8.36499C14.1855 8.18833 14.1776 8.00525 14.1258 7.83241C14.1258 7.83241 14.0779 7.8004 14.0683 7.8132C13.9627 7.95733 13.8892 8.12252 13.8528 8.29757C13.8164 8.47263 13.818 8.65347 13.8575 8.82786C13.8607 8.83106 13.9182 8.84066 13.9182 8.82146Z" fill="#B2B1AB"/>
<path d="M4.58398 13.3602C4.58398 13.3602 4.69899 12.3583 4.85871 12.3807C5.01844 12.4031 4.97371 12.9121 4.58398 13.3602Z" fill="#EAE8DF"/>
<path d="M4.61599 13.3697C4.64056 13.1101 4.68759 12.853 4.75655 12.6015C4.7729 12.5352 4.80102 12.4723 4.8396 12.4159C4.90349 12.3359 4.90988 12.5855 4.90988 12.5983C4.86718 12.8783 4.74397 13.1397 4.5553 13.3505C4.5553 13.3505 4.60321 13.3857 4.6128 13.3729C4.82758 13.1461 4.95446 12.8498 4.97057 12.5375C4.97057 12.4543 4.91627 12.3327 4.81085 12.3711C4.70543 12.4095 4.65433 12.7328 4.63516 12.8352C4.60002 13.0048 4.57446 13.1777 4.5553 13.3537C4.5521 13.3729 4.6128 13.3953 4.61599 13.3697Z" fill="#B2B1AB"/>
<path d="M8.70177 1.18431C8.70177 1.18431 8.67302 0.0128174 8.86149 0.0128174C9.04996 0.0128174 9.06274 0.608167 8.70177 1.18431Z" fill="#EAE8DF"/>
<path d="M8.73355 1.17788C8.72231 0.87966 8.73514 0.581014 8.77189 0.284857C8.7797 0.209762 8.7991 0.136336 8.82939 0.0672018C8.88689 -0.0640315 8.95717 0.220841 8.96036 0.252849C8.95888 0.585033 8.85879 0.909265 8.67285 1.18428C8.67285 1.18428 8.72396 1.20029 8.73355 1.18428C8.95319 0.87648 9.049 0.497046 9.00188 0.121615C8.97633 0.0255907 8.8741 -0.0416253 8.79424 0.0351942C8.71438 0.112014 8.68883 0.464103 8.67925 0.604938C8.67925 0.799121 8.67925 0.994371 8.67925 1.19069C8.67925 1.19069 8.73355 1.19709 8.73355 1.17788Z" fill="#B2B1AB"/>
<path d="M14.1387 9.87454C14.1387 9.87454 14.2505 9.23438 14.4134 9.23438C14.5763 9.23438 14.5124 9.58326 14.1387 9.87454Z" fill="#EAE8DF"/>
<path d="M14.1703 9.87447C14.1971 9.69634 14.2487 9.52286 14.3237 9.35914C14.346 9.31753 14.3876 9.23431 14.4419 9.28552C14.4962 9.33673 14.461 9.40395 14.4419 9.44876C14.3771 9.62133 14.2612 9.76989 14.1096 9.87447C14.0937 9.87447 14.1544 9.89367 14.1671 9.87447C14.349 9.75545 14.4782 9.57095 14.5281 9.35914C14.5314 9.33941 14.5293 9.31917 14.5221 9.30052C14.5149 9.28187 14.5028 9.26549 14.4872 9.25307C14.4716 9.24066 14.4529 9.23267 14.4331 9.22994C14.4133 9.2272 14.3932 9.22981 14.3748 9.23751C14.263 9.26631 14.2183 9.44556 14.1895 9.53838C14.1536 9.64929 14.1258 9.76269 14.1064 9.87767C14.1064 9.87767 14.1671 9.87447 14.1703 9.87447Z" fill="#B2B1AB"/>
<path d="M8.93824 9.12232C8.93824 9.12232 8.57407 8.34452 8.81685 8.29011C8.94783 8.2741 9.03727 8.70301 8.93824 9.12232Z" fill="#EAE8DF"/>
<path d="M8.96994 9.11593C8.87884 8.929 8.81227 8.73104 8.77189 8.52698C8.7607 8.47207 8.7607 8.41545 8.77189 8.36054C8.80383 8.23891 8.89008 8.39575 8.90605 8.43736C8.96508 8.66186 8.96508 8.89784 8.90605 9.12233C8.90605 9.12233 8.96675 9.12233 8.96994 9.12233C9.05503 8.85743 9.03559 8.56992 8.91563 8.31893C8.90457 8.30494 8.89049 8.29363 8.87445 8.28586C8.8584 8.27809 8.84081 8.27405 8.82299 8.27405C8.80517 8.27405 8.78759 8.27809 8.77155 8.28586C8.75551 8.29363 8.74143 8.30494 8.73036 8.31893C8.64091 8.42456 8.73036 8.66142 8.76869 8.76704C8.8075 8.88851 8.85446 9.00721 8.90925 9.12233C8.90925 9.12233 8.97953 9.13514 8.96994 9.11593Z" fill="#B2B1AB"/>
<path d="M6.07278 10.7451C6.07278 10.7451 5.8843 10.345 6.00889 10.3194C6.07597 10.3034 6.1207 10.5307 6.07278 10.7451Z" fill="#EAE8DF"/>
<path d="M6.10128 10.7419C6.05852 10.652 6.02636 10.5575 6.00545 10.4602C6.00545 10.4154 6.00545 10.2778 6.04378 10.4058C6.06935 10.5174 6.06935 10.6334 6.04378 10.7451C6.04378 10.7451 6.10128 10.7643 6.10767 10.7451C6.15078 10.606 6.13818 10.4557 6.07253 10.3258C6.05772 10.3149 6.03981 10.309 6.02142 10.309C6.00303 10.309 5.98512 10.3149 5.97031 10.3258C5.87128 10.4154 5.99906 10.6619 6.04378 10.7579C6.05017 10.7643 6.11086 10.7611 6.10128 10.7419Z" fill="#B2B1AB"/>
<path d="M9.50977 12.3744C9.50977 12.3744 9.8931 11.8942 10.0049 12.0319C10.0656 12.1151 9.80685 12.3039 9.50977 12.3744Z" fill="#EAE8DF"/>
<path d="M9.53878 12.3807C9.61784 12.2833 9.7055 12.1933 9.80072 12.1118C9.83193 12.0844 9.86624 12.0608 9.90294 12.0414C10.002 11.987 9.97641 12.0894 9.94128 12.131C9.81509 12.2496 9.65771 12.3296 9.48767 12.3615C9.45572 12.3615 9.51641 12.3903 9.53238 12.3839C9.7174 12.3507 9.8873 12.26 10.0179 12.1246C10.0723 12.0638 10.0179 12.003 9.96044 11.9966C9.77197 11.9966 9.58349 12.2366 9.48127 12.3647C9.46849 12.3807 9.5292 12.3967 9.53878 12.3807Z" fill="#B2B1AB"/>
<path d="M11.6214 11.5581C11.6214 11.5581 11.1199 10.4954 11.4521 10.4218C11.631 10.3802 11.7524 10.9884 11.6214 11.5581Z" fill="#EAE8DF"/>
<path d="M11.6499 11.5613C11.5299 11.3162 11.4408 11.057 11.3848 10.7899C11.3704 10.7105 11.3704 10.6292 11.3848 10.5498C11.4103 10.3898 11.5317 10.457 11.5796 10.569C11.674 10.8897 11.674 11.2309 11.5796 11.5517C11.5796 11.5709 11.6371 11.5837 11.6403 11.5517C11.7106 11.2316 11.7745 10.7451 11.5669 10.4538C11.5539 10.4353 11.5367 10.4202 11.5167 10.4098C11.4966 10.3994 11.4744 10.3939 11.4519 10.3939C11.4293 10.3939 11.4071 10.3994 11.3871 10.4098C11.367 10.4202 11.3498 10.4353 11.3369 10.4538C11.225 10.5882 11.3368 10.8859 11.3784 11.0267C11.4326 11.2043 11.4999 11.3776 11.5796 11.5453C11.5956 11.5741 11.6563 11.5773 11.6499 11.5613Z" fill="#B2B1AB"/>
<path d="M12.2573 5.71338C12.2573 5.71338 13.0368 6.5904 12.7397 6.75684C12.58 6.83046 12.2925 6.28312 12.2573 5.71338Z" fill="#EAE8DF"/>
<path d="M12.2283 5.71342C12.4245 5.92496 12.5901 6.16308 12.7202 6.4208C12.7573 6.48957 12.776 6.56674 12.7745 6.64486C12.7745 6.78249 12.6404 6.72808 12.5797 6.64486C12.3957 6.36873 12.2948 6.04541 12.289 5.71342C12.289 5.69422 12.2251 5.68782 12.2251 5.71342C12.2283 6.07856 12.3506 6.43264 12.5733 6.72168C12.5867 6.74352 12.6055 6.76155 12.6279 6.77406C12.6503 6.78656 12.6755 6.79313 12.7011 6.79313C12.7267 6.79313 12.7519 6.78656 12.7742 6.77406C12.7966 6.76155 12.8154 6.74352 12.8288 6.72168C12.9119 6.55524 12.6915 6.27356 12.6084 6.14873C12.51 6.00499 12.4034 5.86712 12.289 5.73583C12.289 5.73583 12.2123 5.68141 12.2283 5.71342Z" fill="#B2B1AB"/>
<path d="M3.41778 16.8683C3.51042 16.8203 3.60306 16.7723 3.6989 16.7275L4.05028 16.5578C3.28266 16.2095 2.61638 15.6708 2.11444 14.9926C1.74656 15.022 1.37661 14.9741 1.02832 14.8518C1.63057 15.7259 2.4557 16.4223 3.41778 16.8683Z" fill="white"/>
<path d="M5.08857 16.993L4.49121 17.2811C5.93786 17.6787 7.45178 17.7671 8.93471 17.5404C7.63093 17.5784 6.33023 17.3933 5.08857 16.993Z" fill="white"/>
</g>
<defs>
<clipPath id="clip0_1232_6193">
<rect width="24" height="18.2222" fill="white"/>
</clipPath>
</defs>
</svg>
