<svg width="43" height="72" viewBox="0 0 43 72" fill="none" xmlns="http://www.w3.org/2000/svg">
<g opacity="0.1" clip-path="url(#clip0_1129_24600)">
<path d="M40.4639 53.0169C41.1191 55.3386 40.5257 57.3803 38.6106 58.884C37.9047 59.4395 37.8001 59.8671 38.051 60.6716C38.6924 62.7328 38.6132 62.8064 36.5015 63.405C35.6627 63.6428 34.8126 63.8411 33.9932 64.1274C32.8483 64.5258 32.0573 64.2668 31.8949 63.0079C31.7193 61.6221 31.1474 61.4402 29.8333 61.8468C25.8102 63.0952 21.7458 64.2075 17.6783 65.3093C16.818 65.5418 16.6338 65.83 16.8996 66.6871C17.5316 68.7453 17.4593 68.8027 15.3264 69.4073C14.4902 69.6444 13.6402 69.8427 12.8181 70.1297C11.6599 70.5319 10.9409 70.224 10.7217 68.987C10.5285 67.8818 10.1284 67.3073 8.77435 67.1396C6.50417 66.8563 5.09962 65.29 4.47232 63.077C2.81349 57.2048 1.14408 51.3356 -0.52003 45.4649L-5.32664 28.508C-6.4988 24.3628 -5.02008 21.7632 -0.808035 20.5664C0.73207 20.1298 2.26885 19.6715 3.8213 19.2684C4.37999 19.1214 4.56423 18.9242 4.373 18.3302C3.95845 17.0291 3.58814 15.7127 3.25563 14.3883C3.12009 13.8496 2.81309 13.7348 2.32148 13.6041C0.753834 13.1871 -0.164276 11.8241 -0.163382 10.0925C-0.159486 8.68419 0.693544 7.64924 2.2745 7.19541C5.84202 6.17563 9.41178 5.16374 12.9811 4.1605C14.5704 3.7157 15.8336 4.14794 16.5767 5.34736C17.4846 6.81562 17.434 8.49302 16.3027 9.6353C15.8713 10.0703 15.7969 10.3927 15.9631 10.9284C16.3424 12.1456 16.7146 13.3678 16.9979 14.6094C17.1679 15.3401 17.4758 15.4178 18.1355 15.2137C19.841 14.6848 21.5655 14.213 23.2866 13.7393C26.6132 12.8276 29.5133 14.3851 30.4438 17.6578C33.8006 29.4394 37.1415 41.2256 40.4639 53.0169Z" fill="#F7F9FA"/>
<path d="M40.4639 53.0169C41.1191 55.3386 40.5257 57.3803 38.6106 58.884C37.9047 59.4395 37.8001 59.8671 38.051 60.6716C38.6924 62.7328 38.6132 62.8064 36.5015 63.405C35.6627 63.6428 34.8126 63.8411 33.9932 64.1274C32.8483 64.5258 32.0573 64.2668 31.8949 63.0079C31.7193 61.6221 31.1474 61.4402 29.8333 61.8468C25.8102 63.0952 21.7458 64.2075 17.6783 65.3093C16.818 65.5418 16.6338 65.83 16.8996 66.6871C17.5316 68.7453 17.4593 68.8027 15.3264 69.4073C14.4902 69.6444 13.6402 69.8427 12.8181 70.1297C11.6599 70.5319 10.9409 70.224 10.7217 68.987C10.5285 67.8818 10.1284 67.3073 8.77435 67.1396C6.50417 66.8563 5.09962 65.29 4.47232 63.077C2.81349 57.2048 1.14408 51.3356 -0.52003 45.4649L-5.32664 28.508C-6.4988 24.3628 -5.02008 21.7632 -0.808035 20.5664C0.73207 20.1298 2.26885 19.6715 3.8213 19.2684C4.37999 19.1214 4.56423 18.9242 4.373 18.3302C3.95845 17.0291 3.58814 15.7127 3.25563 14.3883C3.12009 13.8496 2.81309 13.7348 2.32148 13.6041C0.753834 13.1871 -0.164276 11.8241 -0.163382 10.0925C-0.159486 8.68419 0.693544 7.64924 2.2745 7.19541C5.84202 6.17563 9.41178 5.16374 12.9811 4.1605C14.5704 3.7157 15.8336 4.14794 16.5767 5.34736C17.4846 6.81562 17.434 8.49302 16.3027 9.6353C15.8713 10.0703 15.7969 10.3927 15.9631 10.9284C16.3424 12.1456 16.7146 13.3678 16.9979 14.6094C17.1679 15.3401 17.4758 15.4178 18.1355 15.2137C19.841 14.6848 21.5655 14.213 23.2866 13.7393C26.6132 12.8276 29.5133 14.3851 30.4438 17.6578C33.8006 29.4394 37.1415 41.2256 40.4639 53.0169Z" fill="black"/>
<path d="M4.92575 44.5152C3.9322 41.0102 2.93336 37.5066 1.94511 34.0001C1.30627 31.7363 2.15522 29.9406 4.10277 29.4084C6.00005 28.8905 7.64846 29.9556 8.26797 32.131C10.273 39.1844 12.2728 46.2392 14.2673 53.2955C14.8842 55.4717 14.0406 57.246 12.1571 57.8026C10.2208 58.3742 8.55125 57.2953 7.90713 55.033C6.90829 51.5295 5.92004 48.0229 4.92649 44.5178L4.92575 44.5152Z" fill="#F7F9FA"/>
<path d="M20.8149 40.0965C21.8084 43.6016 22.8073 47.1051 23.7955 50.6117C24.4041 52.7789 23.548 54.5595 21.6616 55.1056C19.7672 55.6539 18.0769 54.5923 17.4641 52.4405C15.4445 45.3458 13.432 38.2463 11.4282 31.1471C10.8226 29.0103 11.7387 27.2098 13.6469 26.7002C15.5022 26.2056 17.1673 27.2488 17.7589 29.3156C18.7903 32.9037 19.7986 36.5013 20.8168 40.0932L20.8149 40.0965Z" fill="#F7F9FA"/>
<path d="M30.3097 37.3142C31.3032 40.8193 32.302 44.3228 33.2903 47.8294C33.9265 50.0939 33.0749 51.8903 31.13 52.4217C29.2407 52.9374 27.584 51.8633 26.9659 49.6932C24.9609 42.6398 22.9618 35.5876 20.9674 28.5313C20.352 26.3604 21.1994 24.5793 23.0809 24.0261C25.0233 23.4556 26.6834 24.5315 27.329 26.7991C28.3279 30.3026 29.3161 33.8092 30.3097 37.3142Z" fill="#F7F9FA"/>
<path d="M10.8833 17.2522C9.78244 17.5643 8.6749 17.8526 7.58376 18.1989C6.97241 18.3921 6.60033 18.4208 6.42601 17.6344C6.15401 16.3924 5.78905 15.1654 5.38853 13.9542C5.16922 13.2914 5.40367 13.0999 6.00395 12.9382C8.30114 12.3183 10.595 11.6766 12.8728 10.9883C13.5412 10.7846 13.7403 10.9926 13.8918 11.5978C14.1997 12.8353 14.5375 14.0672 14.9372 15.2758C15.1565 15.9386 14.9285 16.1425 14.3218 16.2917C13.1674 16.5763 12.0298 16.93 10.884 17.2548L10.8833 17.2522Z" fill="#F7F9FA"/>
<path d="M7.02372 43.858C6.04285 40.3977 5.06728 36.9358 4.07583 33.4785C3.85205 32.6891 3.6443 31.8553 4.66541 31.5545C5.68652 31.2537 5.96803 32.0552 6.19403 32.8525C8.15976 39.8175 10.1342 46.7829 12.1165 53.746C12.341 54.5381 12.5428 55.3707 11.5269 55.67C10.5085 55.9701 10.2217 55.1701 9.99832 54.372C9.01535 50.864 8.01726 47.363 7.02372 43.858Z" fill="black"/>
<path d="M16.5447 41.1591C15.5638 37.6988 14.5883 34.237 13.5968 30.7797C13.3731 29.9903 13.1653 29.1565 14.1864 28.8557C15.2075 28.5549 15.4883 29.3537 15.715 30.1537C17.6815 37.1213 19.6552 44.084 21.6375 51.0471C21.862 51.8392 22.0664 52.6711 21.0479 52.9712C20.0295 53.2712 19.7427 52.4712 19.5193 51.6732C18.5363 48.1651 17.5383 44.6642 16.5447 41.1591Z" fill="black"/>
<path d="M26.0402 38.3794C25.072 34.9638 24.1084 31.5441 23.1322 28.1308C22.9122 27.3545 22.6505 26.5019 23.6581 26.1737C24.7682 25.8135 25.0244 26.7075 25.2568 27.5371C27.2132 34.4592 29.1749 41.3799 31.1419 48.299C31.362 49.0753 31.621 49.9286 30.6161 50.2561C29.5086 50.6155 29.2497 49.7224 29.0174 48.8927C28.0318 45.3854 27.0337 41.8845 26.0402 38.3794Z" fill="black"/>
</g>
<defs>
<clipPath id="clip0_1129_24600">
<rect width="37.3846" height="63.4406" fill="white" transform="translate(-10.3555 10.7668) rotate(-15.826)"/>
</clipPath>
</defs>
</svg>
