<svg width="16" height="23" viewBox="0 0 16 23" fill="none" xmlns="http://www.w3.org/2000/svg">
<g clip-path="url(#clip0_1232_5406)">
<path d="M3.63591 6.58338C5.47515 6.58338 6.96616 5.10964 6.96616 3.29169C6.96616 1.47374 5.47515 0 3.63591 0C1.79667 0 0.305664 1.47374 0.305664 3.29169C0.305664 5.10964 1.79667 6.58338 3.63591 6.58338Z" fill="#D0A756"/>
<g style="mix-blend-mode:multiply" opacity="0.3">
<path d="M5.13063 0.873743C6.25204 1.11031 7.57734 3.49363 6.08213 5.3071C4.58691 7.12057 1.66511 6.24814 1.12139 5.10582C0.646297 4.10858 2.8205 4.2994 4.11116 3.35901C5.40183 2.41862 4.62482 0.766569 5.13063 0.873743Z" fill="#D0A756"/>
</g>
<path d="M7.27152 2.68719H0V4.09811H7.27152V2.68719Z" fill="#D0A756"/>
<path d="M6.08288 19.2803H1.18945V21.9002H6.08288V19.2803Z" fill="#09343A"/>
<path d="M5.60696 19.0117H1.66504V19.2802H5.60696V19.0117Z" fill="#D0A756"/>
<path d="M4.92737 19.8848H2.34473V21.0937H4.92737V19.8848Z" fill="#D0A756"/>
<g style="mix-blend-mode:screen" opacity="0.3">
<path d="M4.72368 20.0082H2.54883V21.0264H4.72368V20.0082Z" fill="#D0A756"/>
</g>
<path d="M2.85449 2.88849H4.41767L4.11183 19.1457H3.2283L2.85449 2.88849Z" fill="#D0A756"/>
<path d="M0 3.00677L2.1559 19.0117H2.71857L1.56318 3.02311L0 3.00677Z" fill="#D0A756"/>
<path d="M7.27163 3.00677L5.11638 19.0117H4.55371L5.7091 3.02311L7.27163 3.00677Z" fill="#D0A756"/>
<g style="mix-blend-mode:screen" opacity="0.3">
<path d="M7.27152 2.68719H0V2.82182H7.27152V2.68719Z" fill="#D0A756"/>
</g>
<g style="mix-blend-mode:multiply" opacity="0.3">
<path d="M7.27152 3.9635H0V4.09812H7.27152V3.9635Z" fill="#D0A756"/>
</g>
<g style="mix-blend-mode:screen" opacity="0.3">
<path d="M1.12158 2.21734C1.12158 2.21734 1.59733 0.605155 3.22782 0.403223C4.8583 0.201291 1.59733 2.55259 1.12158 2.21734Z" fill="#D0A756"/>
</g>
<g style="mix-blend-mode:screen" opacity="0.3">
<path d="M0.781627 4.29938L2.14091 16.8616L0.465332 4.29938H0.781627Z" fill="#D0A756"/>
</g>
<g style="mix-blend-mode:screen" opacity="0.3">
<path d="M3.22852 4.29938L3.43241 18.877L3.6363 4.29938H3.22852Z" fill="#D0A756"/>
</g>
<g style="mix-blend-mode:multiply" opacity="0.3">
<path d="M6.62962 4.29938H6.96552L4.92725 18.877L6.62962 4.29938Z" fill="#D0A756"/>
</g>
<path d="M8.53428 22.8569L5.82617 22.5203C5.73655 22.5097 5.6499 22.4815 5.5712 22.4374C5.4925 22.3932 5.4233 22.3339 5.36756 22.2629C5.31183 22.192 5.27065 22.1107 5.2464 22.0238C5.22215 21.9368 5.21531 21.846 5.22626 21.7564L6.94954 8.22367C6.97362 8.0427 7.06843 7.87865 7.2132 7.76744C7.35798 7.65623 7.54092 7.60691 7.72198 7.63029L10.4301 7.96684C10.5197 7.97744 10.6064 8.00564 10.6851 8.04981C10.7638 8.09398 10.833 8.15325 10.8887 8.22423C10.9444 8.2952 10.9856 8.37649 11.0099 8.46342C11.0341 8.55034 11.041 8.6412 11.03 8.73078L9.30933 22.2635C9.29742 22.3534 9.26792 22.44 9.22252 22.5184C9.17712 22.5969 9.11671 22.6656 9.04473 22.7207C8.97276 22.7759 8.89063 22.8162 8.80305 22.8396C8.71547 22.863 8.62414 22.8688 8.53428 22.8569Z" fill="#C1976D"/>
<path d="M9.06455 8.49946L8.90575 8.47985C8.7952 8.46645 8.69449 8.40971 8.62575 8.32209C8.55701 8.23448 8.52585 8.12317 8.53913 8.0126L9.37431 1.44621C9.38896 1.33563 9.44684 1.23536 9.53528 1.16737C9.62372 1.09939 9.7355 1.06924 9.84614 1.08352L10.0049 1.10312C10.0597 1.1096 10.1127 1.12684 10.1609 1.15385C10.209 1.18087 10.2513 1.21713 10.2854 1.26055C10.3194 1.30397 10.3446 1.35369 10.3594 1.40686C10.3742 1.46003 10.3783 1.5156 10.3716 1.57038L9.53703 8.13611C9.52238 8.24687 9.46443 8.3473 9.37587 8.41541C9.2873 8.48352 9.17535 8.51374 9.06455 8.49946Z" fill="#C1976D"/>
<path d="M9.5726 7.86032L8.57471 7.73615L9.18312 2.95383L10.1804 3.07734L9.5726 7.86032Z" fill="#534741"/>
<path d="M10.2053 2.88064L9.20801 2.75647L9.23938 2.5101L10.2366 2.63361L10.2053 2.88064Z" fill="#534741"/>
<path d="M10.2621 2.43624L9.26416 2.31273L9.29553 2.0657L10.2934 2.18987L10.2621 2.43624Z" fill="#534741"/>
<path d="M8.39697 7.71393L8.64465 11.201L9.74972 7.88188L8.39697 7.71393Z" fill="#A17C52"/>
<path d="M14.6988 20.5239C14.6988 20.5239 13.8492 22.9418 13.7675 22.9961C13.6858 23.0503 12.7343 21.8459 12.637 21.4682C12.2743 20.0632 11.5469 19.7436 11.7345 19.5077C11.922 19.2718 14.6988 20.5239 14.6988 20.5239Z" fill="#736357"/>
<path d="M14.3993 21.7962L14.8717 20.5278L11.4585 19.0117C11.4585 19.0117 12.4753 19.7651 12.987 20.6206C13.4987 21.476 14.3993 21.7962 14.3993 21.7962Z" fill="#534741"/>
<path d="M9.91569 20.9212L10.6594 21.478C10.7139 21.5187 10.7807 21.5397 10.8488 21.5374C10.9168 21.5352 10.9821 21.5098 11.0338 21.4656C11.5717 20.9996 12.1043 20.2272 12.1709 19.4953C12.1779 19.4224 12.1576 19.3496 12.114 19.2908C12.0705 19.2321 12.0067 19.1915 11.935 19.177L10.9162 18.9685C10.876 18.9603 10.8345 18.9604 10.7943 18.969C10.7541 18.9776 10.7161 18.9943 10.6828 19.0183C10.6494 19.0422 10.6213 19.0728 10.6003 19.1081C10.5793 19.1434 10.5658 19.1826 10.5607 19.2234C10.4784 19.8919 10.217 20.2174 9.91242 20.4585C9.87722 20.4861 9.84881 20.5213 9.82937 20.5615C9.80993 20.6018 9.79998 20.646 9.8003 20.6907C9.80062 20.7354 9.81118 20.7794 9.83119 20.8193C9.85119 20.8593 9.8801 20.8942 9.91569 20.9212Z" fill="#11424B"/>
<path d="M7.15039 18.2712C8.31559 18.68 9.5059 19.0133 10.7139 19.2691C12.5071 19.6351 14.2723 20.5265 14.98 20.912C15.0179 20.7892 15.0493 20.6631 15.0761 20.5356C15.5636 18.2033 14.8362 16.0833 11.919 15.4873C9.14749 14.9214 7.74769 16.2676 7.15039 18.2712Z" fill="#226990"/>
<path d="M9.95564 19.0999C9.95564 19.0999 6.59468 18.4464 6.4117 18.3895C5.69677 18.1752 5.88367 17.9406 6.01633 17.9674C6.32587 18.0357 6.64071 18.0772 6.95737 18.0915C7.63898 18.0955 8.37286 16.6055 8.37286 16.6055L9.95564 19.0999Z" fill="#226990"/>
<path d="M9.46013 22.4602C9.33597 22.5158 5.95344 19.3188 5.95344 19.3188C5.95344 19.3188 4.97319 20.3978 4.95554 20.5233C4.9379 20.6487 5.04704 21.9342 5.04704 21.9342" stroke="#534741" stroke-width="2" stroke-linecap="round" stroke-linejoin="round"/>
<path d="M6.40975 18.3895C5.69482 18.1752 5.88172 17.9406 6.01438 17.9674C6.32391 18.0357 6.63876 18.0772 6.95542 18.0915C7.0464 18.09 7.13583 18.0677 7.21682 18.0262L7.22532 18.0438C7.39784 18.4542 9.94911 18.9757 9.94911 18.9757C12.2958 19.2182 14.4955 20.4069 15.0366 20.7173C15.0196 20.7827 15.002 20.848 14.9824 20.9134C14.2746 20.5278 12.5095 19.6364 10.7163 19.2705C10.4595 19.2175 10.2053 19.1607 9.95565 19.1005C9.95565 19.1005 6.59273 18.4444 6.40975 18.3895Z" fill="#395B70"/>
<path d="M14.3017 20.2749C14.3017 20.2749 14.9767 16.3852 12.3412 15.7788C9.7056 15.1723 8.08034 18.4934 8.08034 18.4934L7.27588 18.2248C7.27588 18.2248 8.40056 14.4953 12.3732 15.6474C15.8185 16.6473 14.8447 20.6088 14.8447 20.6088L14.3017 20.2749Z" fill="#395B70"/>
<g style="mix-blend-mode:multiply" opacity="0.3">
<path d="M12.1909 16.4989C12.1738 16.5856 12.1917 16.6755 12.2407 16.749C12.2896 16.8225 12.3658 16.8735 12.4523 16.891C12.54 16.9092 12.6313 16.8919 12.7063 16.843C12.7812 16.794 12.8337 16.7173 12.8523 16.6296C12.8698 16.5426 12.8522 16.4521 12.8032 16.378C12.7542 16.3039 12.6779 16.2522 12.5909 16.2343C12.5472 16.2253 12.5022 16.2251 12.4585 16.2335C12.4147 16.242 12.3731 16.259 12.3359 16.2836C12.2988 16.3082 12.2668 16.3398 12.242 16.3768C12.2171 16.4138 12.1997 16.4553 12.1909 16.4989Z" fill="#5D7F3E"/>
</g>
<g style="mix-blend-mode:multiply" opacity="0.3">
<path d="M12.2569 16.512C12.2498 16.5466 12.2497 16.5822 12.2564 16.6169C12.2632 16.6515 12.2768 16.6845 12.2963 16.7139C12.3159 16.7433 12.341 16.7685 12.3704 16.7882C12.3997 16.8078 12.4327 16.8214 12.4673 16.8283C12.5372 16.8428 12.61 16.8292 12.6699 16.7902C12.7297 16.7513 12.7718 16.6903 12.7868 16.6205C12.794 16.586 12.7942 16.5504 12.7875 16.5158C12.7808 16.4812 12.7673 16.4483 12.7478 16.4189C12.7283 16.3895 12.7032 16.3644 12.6739 16.3448C12.6446 16.3252 12.6117 16.3116 12.5771 16.3048C12.5072 16.2901 12.4342 16.3036 12.3743 16.3424C12.3143 16.3812 12.2721 16.4422 12.2569 16.512Z" fill="#5D7F3E"/>
</g>
<path d="M12.1069 17.2322C11.3227 17.0597 10.7052 16.8022 10.2686 16.448L9.72949 17.7034C10.2026 18.0589 10.8241 18.2954 11.5822 18.4222L12.1069 17.2322Z" fill="#B4CFD9"/>
<path d="M10.0511 16.8865C10.5229 17.2374 11.1404 17.4746 11.8926 17.5981L11.7443 17.9772C10.9862 17.8504 10.3647 17.6138 9.8916 17.2583L10.0511 16.8865Z" fill="#09343A"/>
<path d="M10.399 18.7947L9.16846 20.3867L9.45992 22.4596" stroke="#534741" stroke-width="2" stroke-linecap="round" stroke-linejoin="round"/>
<path d="M12.2786 19.3835C12.2786 19.3835 10.9415 23.1379 7.81386 22.738C5.57497 22.4517 4.4516 21.642 4.4516 21.642C4.4516 21.642 4.39409 20.2651 4.43526 20.0684C4.47643 19.8717 5.1979 19.064 5.1979 19.064L11.299 21.095" stroke="#534741" stroke-width="2" stroke-linecap="round" stroke-linejoin="round"/>
<path d="M11.4176 19.2077C11.4176 19.2077 11.3594 22.1315 7.1332 21.3701C5.07075 20.999 4.43555 20.0684 4.43555 20.0684" stroke="#534741" stroke-width="2" stroke-linecap="round" stroke-linejoin="round"/>
<path d="M10.2114 19.0293L12.3314 19.4626L12.4817 18.7424L10.3624 18.3091L10.2114 19.0293Z" fill="#534741"/>
<path d="M11.744 18.9672C11.7353 19.0106 11.7442 19.0556 11.7687 19.0923C11.7932 19.1291 11.8313 19.1546 11.8747 19.1633C11.8964 19.1679 11.9188 19.1681 11.9406 19.1641C11.9624 19.16 11.9832 19.1516 12.0018 19.1395C12.0204 19.1273 12.0364 19.1116 12.0489 19.0933C12.0614 19.075 12.0701 19.0543 12.0746 19.0326C12.0831 18.9893 12.0741 18.9444 12.0496 18.9077C12.0252 18.8709 11.9872 18.8454 11.9439 18.8365C11.9001 18.8276 11.8545 18.8363 11.8171 18.8608C11.7797 18.8853 11.7534 18.9235 11.744 18.9672Z" fill="#736357"/>
<path d="M10.5533 18.7169C10.548 18.7383 10.5469 18.7605 10.5502 18.7823C10.5535 18.8041 10.5611 18.825 10.5725 18.8439C10.5839 18.8627 10.599 18.8791 10.6168 18.8921C10.6346 18.9051 10.6548 18.9144 10.6762 18.9195C10.7194 18.9307 10.7653 18.9242 10.8038 18.9015C10.8423 18.8788 10.8702 18.8418 10.8814 18.7986C10.8868 18.7772 10.8878 18.755 10.8846 18.7331C10.8813 18.7113 10.8737 18.6903 10.8623 18.6714C10.8509 18.6525 10.8358 18.6361 10.818 18.623C10.8002 18.61 10.78 18.6006 10.7585 18.5954C10.7152 18.5846 10.6694 18.5914 10.631 18.6141C10.5926 18.6369 10.5647 18.6738 10.5533 18.7169Z" fill="#736357"/>
<path d="M1.86912 22.9079C2.84505 22.9079 3.63619 22.1258 3.63619 21.1611C3.63619 20.1963 2.84505 19.4142 1.86912 19.4142C0.893195 19.4142 0.102051 20.1963 0.102051 21.1611C0.102051 22.1258 0.893195 22.9079 1.86912 22.9079Z" fill="#BB3030"/>
<path d="M2.95717 22.604C2.94729 22.6041 2.93752 22.602 2.92858 22.5978C2.91964 22.5937 2.91176 22.5875 2.90554 22.5798L0.638541 19.9005C0.632627 19.8938 0.628139 19.886 0.625351 19.8775C0.622563 19.8691 0.621536 19.8601 0.622331 19.8513C0.623127 19.8424 0.625729 19.8338 0.629978 19.8259C0.634227 19.8181 0.640032 19.8112 0.647037 19.8057C0.660909 19.7944 0.678647 19.789 0.696471 19.7906C0.714294 19.7921 0.730792 19.8006 0.742448 19.8142L3.00945 22.4936C3.01536 22.5002 3.01985 22.508 3.02264 22.5165C3.02543 22.525 3.02645 22.5339 3.02566 22.5428C3.02486 22.5517 3.02226 22.5603 3.01801 22.5681C3.01376 22.5759 3.00796 22.5828 3.00095 22.5883C2.98877 22.5987 2.97319 22.6043 2.95717 22.604Z" fill="#C2AD94"/>
<path d="M3.32479 22.1844C3.31978 22.1845 3.31481 22.1834 3.31027 22.1813C3.30574 22.1791 3.30176 22.1759 3.29865 22.172L1.12903 19.5848C1.12614 19.5814 1.12396 19.5775 1.12263 19.5733C1.12129 19.5691 1.12082 19.5647 1.12125 19.5603C1.12167 19.5559 1.12299 19.5516 1.12511 19.5477C1.12724 19.5439 1.13013 19.5405 1.1336 19.5377C1.14054 19.532 1.14946 19.5293 1.1584 19.5302C1.16734 19.531 1.17557 19.5354 1.18131 19.5423L3.35093 22.1295C3.35373 22.1329 3.35584 22.1368 3.35713 22.141C3.35841 22.1452 3.35886 22.1496 3.35843 22.154C3.35801 22.1584 3.35672 22.1626 3.35465 22.1665C3.35258 22.1704 3.34976 22.1738 3.34636 22.1766C3.34024 22.1815 3.33266 22.1843 3.32479 22.1844Z" fill="#C2AD94"/>
<path d="M2.4361 22.8491C2.43109 22.8491 2.42612 22.8481 2.42158 22.8459C2.41705 22.8438 2.41307 22.8406 2.40996 22.8367L0.301112 20.3279C0.29831 20.3245 0.296206 20.3206 0.29492 20.3164C0.293633 20.3122 0.293188 20.3078 0.293613 20.3034C0.294038 20.299 0.295325 20.2948 0.297397 20.2909C0.299469 20.287 0.302286 20.2836 0.305687 20.2808C0.312548 20.275 0.321411 20.2722 0.330347 20.2729C0.339283 20.2737 0.347567 20.2779 0.353393 20.2847L2.46224 22.7929C2.46504 22.7962 2.46715 22.8002 2.46844 22.8044C2.46972 22.8086 2.47017 22.813 2.46974 22.8173C2.46932 22.8217 2.46803 22.826 2.46596 22.8298C2.46389 22.8337 2.46107 22.8371 2.45767 22.8399C2.45179 22.8454 2.44415 22.8487 2.4361 22.8491Z" fill="#C2AD94"/>
<g style="mix-blend-mode:multiply" opacity="0.2">
<path d="M2.68462 19.9521C2.22717 19.8462 2.82055 21.4976 2.07294 21.6989C1.32534 21.9002 0.509766 21.4976 0.509766 21.7642C0.509766 22.0309 1.59719 23.2418 2.68462 22.57C3.77205 21.8982 3.83936 20.2207 2.68462 19.9521Z" fill="#BB3030"/>
</g>
</g>
<defs>
<clipPath id="clip0_1232_5406">
<rect width="15.2161" height="23" fill="white"/>
</clipPath>
</defs>
</svg>
