<svg width="22" height="22" viewBox="0 0 22 22" fill="none" xmlns="http://www.w3.org/2000/svg">
<g clip-path="url(#clip0_1232_6005)">
<path d="M5.44816 11.491C5.44816 11.491 3.61799 11.8808 1.23058 9.27414C-1.02939 6.80645 0.157558 3.4998 2.10917 1.93579C4.06078 0.371778 6.49268 -0.56101 8.29636 0.372278C9.68473 1.09081 10.9177 1.51882 11.345 6.14662L14.8034 9.91691C14.8034 9.91691 19.0245 11.074 20.8507 12.9897C23.0157 15.2612 21.9357 19.3592 19.1714 21.0095C16.8655 22.3863 13.0582 22.2137 11.5124 20.2307C9.59927 17.7756 9.13248 15.1774 9.13248 15.1774L5.44816 11.491Z" fill="#F97B67"/>
<path d="M7.72123 10.8016C7.70447 10.8251 7.6817 10.8437 7.65532 10.8553C7.62894 10.867 7.59991 10.8713 7.5713 10.8678C7.50896 10.8595 7.4472 10.8473 7.38639 10.8312L7.31292 10.8141C7.28122 10.8073 7.25231 10.791 7.22996 10.7674C7.0681 10.7567 6.90577 10.7547 6.74369 10.7614C6.618 10.7681 6.49204 10.7681 6.36636 10.7614L6.19492 10.7474C5.79511 10.7147 5.3793 10.6811 4.99148 10.5572C4.11588 10.2782 3.21829 9.78146 2.39266 9.12063C1.59852 8.48289 1.08026 7.83009 0.809385 7.1251C0.701434 6.84461 0.184159 5.40103 0.612465 4.5701C0.622309 4.55132 0.635744 4.53467 0.651998 4.5211C0.668251 4.50754 0.68701 4.49732 0.707197 4.49103C0.727385 4.48474 0.748608 4.4825 0.769657 4.48444C0.790705 4.48639 0.811166 4.49248 0.829871 4.50236C0.848576 4.51224 0.865151 4.52573 0.878665 4.54205C0.892178 4.55837 0.902366 4.5772 0.908631 4.59747C0.914897 4.61774 0.917121 4.63904 0.915184 4.66018C0.913246 4.68131 0.907178 4.70185 0.897333 4.72063C0.613962 5.27007 0.833872 6.29819 1.10825 7.0117C1.35514 7.65296 1.85441 8.27917 2.59307 8.87176C3.38571 9.508 4.24781 9.98568 5.08593 10.2531C5.43877 10.3655 5.8356 10.3976 6.21843 10.4292L6.39134 10.4433C6.4783 10.4508 6.60224 10.4478 6.73318 10.4433C7.05653 10.4353 7.42288 10.4257 7.64278 10.5557L7.65027 10.5602L7.67576 10.5773C7.70563 10.5973 7.72792 10.6269 7.73907 10.6612C7.75022 10.6955 7.74957 10.7325 7.73723 10.7664C7.73327 10.7787 7.7279 10.7905 7.72123 10.8016Z" fill="#9B513D"/>
<path d="M5.5856 11.3274C5.57137 11.347 5.55295 11.3632 5.53167 11.3748C5.5104 11.3863 5.48682 11.3929 5.46266 11.3941C4.55607 11.4363 3.67048 11.1613 2.75539 10.5527C2.37107 10.2968 0.825766 8.64294 0.613362 8.00068C0.602763 7.96092 0.607736 7.91859 0.627248 7.88239C0.646759 7.84618 0.679331 7.81886 0.718283 7.80602C0.757234 7.79317 0.799608 7.79579 0.836698 7.81333C0.873789 7.83086 0.902783 7.862 0.917728 7.90033C1.09165 8.42568 2.56698 10.0414 2.93232 10.2852C3.73195 10.8166 4.5006 11.0765 5.28125 11.0775C5.29902 11.0657 5.31898 11.0577 5.33995 11.0539C5.36091 11.0501 5.38244 11.0506 5.40319 11.0554C5.43279 11.054 5.46237 11.0586 5.49019 11.0688C5.518 11.0791 5.54348 11.0948 5.56512 11.1152C5.58857 11.1366 5.60517 11.1645 5.61282 11.1954C5.62047 11.2263 5.61882 11.2588 5.60809 11.2888C5.60247 11.3027 5.5949 11.3157 5.5856 11.3274Z" fill="#9B513D"/>
<path d="M8.44962 10.3144C8.42699 10.3459 8.3938 10.3681 8.35615 10.3771C8.29305 10.3921 8.22709 10.3897 8.16525 10.3701C8.13832 10.3615 8.11404 10.3461 8.09477 10.3254C7.92426 10.3184 7.75347 10.327 7.58451 10.351C7.46451 10.3669 7.34369 10.3758 7.22267 10.3776C6.75039 10.3716 6.2816 10.2908 5.88578 10.212C5.22308 10.081 4.48892 9.77898 3.6423 9.29026C2.42736 8.58779 1.53376 7.47587 1.25189 6.31478C1.002 5.28615 0.907542 3.74171 1.46179 2.77581C1.47182 2.75661 1.48561 2.73964 1.50234 2.72592C1.51906 2.7122 1.53837 2.70202 1.55911 2.69597C1.57985 2.68992 1.60158 2.68814 1.62302 2.69073C1.64446 2.69332 1.66516 2.70023 1.68388 2.71105C1.7026 2.72186 1.71894 2.73636 1.73194 2.75367C1.74494 2.77098 1.75433 2.79075 1.75954 2.81179C1.76475 2.83283 1.76568 2.85471 1.76226 2.87612C1.75885 2.89753 1.75116 2.91802 1.73967 2.93638C1.2324 3.81999 1.32785 5.26759 1.56325 6.23851C1.82513 7.3158 2.66275 8.35246 3.80223 9.01128C4.61836 9.48244 5.32004 9.77196 5.94775 9.89639C6.32958 9.97216 6.78038 10.0504 7.22667 10.056C7.33483 10.0535 7.44277 10.0451 7.55003 10.0309C7.84289 9.99926 8.17474 9.96313 8.39364 10.0775C8.41402 10.0882 8.43187 10.1032 8.44599 10.1214C8.46011 10.1396 8.47018 10.1607 8.47548 10.1831C8.48079 10.2056 8.48123 10.2289 8.47676 10.2516C8.4723 10.2742 8.46304 10.2956 8.44962 10.3144Z" fill="#9B513D"/>
<path d="M9.38186 9.83521C9.36649 9.85663 9.34605 9.87387 9.32239 9.88538C9.27658 9.90779 9.22641 9.91978 9.17546 9.92051C9.15366 9.92061 9.13207 9.91621 9.11204 9.90757C9.092 9.89894 9.07395 9.88627 9.05901 9.87033C8.8526 9.83972 8.6417 9.82015 8.4208 9.80008C8.16291 9.777 7.89654 9.74991 7.63666 9.70826C5.84797 9.40369 4.14275 9.02184 2.94229 7.71674C1.85629 6.53558 1.402 4.85115 1.75683 3.32025C1.76731 3.27952 1.79324 3.24452 1.82909 3.22274C1.86494 3.20095 1.90785 3.19412 1.94865 3.20369C1.98946 3.21326 2.02491 3.23847 2.04744 3.27395C2.06996 3.30942 2.07777 3.35233 2.06919 3.39351C1.73784 4.82154 2.16265 6.39458 3.17818 7.49847C4.30967 8.72931 5.95842 9.0961 7.69014 9.39064C7.94002 9.43329 8.1979 9.45687 8.44979 9.47995C8.72466 9.50504 9.00853 9.53013 9.2809 9.58031C9.30721 9.5854 9.33183 9.59704 9.35249 9.61417C9.37315 9.6313 9.38919 9.65336 9.39914 9.67834C9.40909 9.70332 9.41263 9.7304 9.40943 9.75711C9.40624 9.78382 9.39641 9.80929 9.38086 9.83119L9.38186 9.83521Z" fill="#9B513D"/>
<path d="M6.61938 9.02583C6.59554 9.05935 6.55974 9.08236 6.51943 9.09006C6.47756 9.09752 6.43445 9.08804 6.39953 9.06368C6.3646 9.03933 6.34068 9.00209 6.33301 8.9601C6.11761 7.75586 5.47741 6.68609 4.37591 5.69861C4.02107 5.37948 3.58277 5.02222 3.02652 4.79543C2.98004 4.77636 2.92657 4.75177 2.86209 4.72267C2.69767 4.64791 2.31235 4.47179 2.2014 4.51393C2.16288 4.52376 2.1221 4.51888 2.08696 4.50025C2.05182 4.48161 2.02481 4.45053 2.01119 4.41305C1.99756 4.37557 1.99828 4.33434 2.0132 4.29736C2.02812 4.26038 2.05618 4.23027 2.09195 4.21287C2.30935 4.13359 2.62921 4.26305 2.99454 4.43114C3.05451 4.45824 3.10698 4.48132 3.14746 4.49888C3.75019 4.74425 4.21548 5.12258 4.59131 5.46027C5.74779 6.49943 6.42148 7.6269 6.65038 8.90691C6.65324 8.9278 6.65198 8.94906 6.64667 8.96947C6.64135 8.98987 6.63207 9.00902 6.61938 9.02583Z" fill="#9B513D"/>
<path d="M5.75081 8.75089C5.73236 8.7768 5.7066 8.79655 5.67684 8.80759C5.63701 8.82254 5.5929 8.82101 5.55419 8.80332C5.51549 8.78563 5.48536 8.75324 5.47043 8.71326C5.27302 8.1864 4.84722 7.20795 4.21451 6.59329C3.63227 6.02629 3.03404 5.63993 2.48429 5.47133C2.44544 5.45751 2.41338 5.42921 2.39475 5.39229C2.37613 5.35537 2.37237 5.31267 2.38426 5.27305C2.39615 5.23342 2.42278 5.19992 2.45862 5.17947C2.49446 5.15903 2.53676 5.15322 2.57675 5.16325C3.33291 5.39256 4.0061 5.94199 4.43791 6.36247C5.1156 7.0223 5.56389 8.04791 5.7708 8.60036C5.78001 8.62517 5.78301 8.65188 5.77952 8.67813C5.77603 8.70438 5.76617 8.72936 5.75081 8.75089Z" fill="#9B513D"/>
<path d="M4.46875 8.22293C4.45329 8.24445 4.43277 8.2618 4.40903 8.27344C4.38528 8.28508 4.35904 8.29065 4.33263 8.28966C4.30623 8.28867 4.28047 8.28114 4.25766 8.26775C4.23484 8.25436 4.21568 8.23551 4.20187 8.21289C4.16439 8.15168 4.12741 8.08996 4.08992 8.02774C3.77706 7.5064 3.45321 6.96701 2.90945 6.69605C2.87254 6.67639 2.84474 6.64305 2.83194 6.60312C2.81913 6.56319 2.82235 6.51982 2.84091 6.48224C2.85946 6.44465 2.89189 6.41582 2.93129 6.40187C2.9707 6.38792 3.01396 6.38995 3.05189 6.40753C3.67911 6.72064 4.02795 7.30068 4.3648 7.86266C4.40128 7.92388 4.43826 7.98509 4.47525 8.0458C4.49147 8.07275 4.4995 8.10387 4.49834 8.13534C4.49719 8.16681 4.48691 8.19725 4.46875 8.22293Z" fill="#9B513D"/>
<path d="M7.37095 9.07592C7.35115 9.10338 7.32324 9.12386 7.29116 9.13446C7.25909 9.14506 7.2245 9.14523 7.19233 9.13494C7.16016 9.12466 7.13204 9.10445 7.11197 9.07718C7.09191 9.04992 7.08093 9.01699 7.08059 8.98309C7.07559 8.42864 6.78722 7.44618 5.43933 5.91227C4.97404 5.38241 4.38031 4.88666 3.62515 4.39693C3.25682 4.15759 2.68059 3.86807 2.54165 3.87359C2.50397 3.89045 2.46126 3.89209 2.42241 3.87816C2.38355 3.86423 2.35153 3.83581 2.333 3.7988C2.31448 3.76179 2.31086 3.71904 2.32291 3.67943C2.33496 3.63981 2.36175 3.60638 2.39771 3.58608C2.49367 3.53089 2.6501 3.51332 3.14338 3.75668C3.36905 3.86908 3.58874 3.99319 3.80158 4.12849C4.58172 4.63427 5.19694 5.14908 5.68221 5.70103C6.8172 6.99258 7.39594 8.09647 7.40344 8.98259C7.40256 9.01634 7.39119 9.04897 7.37095 9.07592Z" fill="#9B513D"/>
<path d="M8.78371 8.48584C8.77152 8.50301 8.75606 8.51757 8.73821 8.52868C8.72036 8.53979 8.7005 8.54724 8.67976 8.55057C8.65902 8.55409 8.63778 8.55347 8.61728 8.54874C8.59678 8.54401 8.57741 8.53526 8.56028 8.52301C8.54314 8.51075 8.52859 8.49521 8.51745 8.4773C8.50631 8.45938 8.49879 8.43944 8.49534 8.41861C8.17399 6.4878 6.72415 4.85003 5.56468 3.81539C4.82751 3.15807 3.70802 2.36026 2.56304 2.29001C2.52214 2.28543 2.48456 2.26524 2.45807 2.23363C2.43158 2.20201 2.4182 2.16138 2.42071 2.12014C2.42321 2.0789 2.44141 2.04021 2.47153 2.01206C2.50164 1.9839 2.54139 1.96845 2.58254 1.96888C3.81897 2.04364 5.00243 2.8836 5.77758 3.57454C6.97704 4.6433 8.47635 6.34179 8.8117 8.36492C8.81518 8.38593 8.8145 8.40743 8.8097 8.42818C8.8049 8.44893 8.79606 8.46852 8.78371 8.48584Z" fill="#9B513D"/>
<path d="M10.9405 6.24597C10.9304 6.26011 10.9181 6.27249 10.904 6.28261C10.8607 6.31418 10.8072 6.32816 10.7541 6.32174C10.7241 6.32662 10.6933 6.32286 10.6654 6.31088C10.6374 6.2989 10.6135 6.2792 10.5962 6.25407C10.579 6.22895 10.5692 6.19943 10.5681 6.16895C10.5669 6.13847 10.5744 6.10828 10.5896 6.0819C10.0199 5.1446 8.4466 4.16414 7.3541 4.62025C7.31539 4.634 7.27291 4.63234 7.23539 4.61559C7.19787 4.59884 7.16818 4.56829 7.15242 4.53022C7.13667 4.49215 7.13604 4.44947 7.15069 4.41096C7.16534 4.37245 7.19414 4.34104 7.23116 4.3232C7.84088 4.06831 8.61002 4.16063 9.39666 4.58312C10.0804 4.94991 10.6771 5.52343 10.955 6.07989C10.9679 6.10625 10.9734 6.13568 10.9709 6.16497C10.9683 6.19426 10.9578 6.22228 10.9405 6.24597Z" fill="#9B513D"/>
<path d="M10.442 6.7177C10.4348 6.72768 10.4264 6.73677 10.4171 6.7448C10.4012 6.75871 10.3827 6.76934 10.3628 6.77608C10.3428 6.78283 10.3217 6.78556 10.3006 6.78411C10.2796 6.78267 10.2591 6.77708 10.2402 6.76766C10.2213 6.75825 10.2045 6.74519 10.1907 6.72924C10.1662 6.70064 10.1407 6.66201 10.1007 6.60932C9.95077 6.39708 9.63242 5.95703 9.07967 5.64593C8.51392 5.32931 8.21405 5.30573 7.99515 5.28867C7.91192 5.28496 7.82924 5.2732 7.74826 5.25355C7.72734 5.24854 7.70763 5.23937 7.69031 5.22656C7.67299 5.21376 7.65842 5.19759 7.64744 5.17901C7.63647 5.16044 7.62933 5.13984 7.62645 5.11844C7.62356 5.09703 7.625 5.07527 7.63067 5.05444C7.63633 5.0336 7.64611 5.01413 7.65943 4.99717C7.67274 4.9802 7.68932 4.9661 7.70817 4.9557C7.72702 4.9453 7.74775 4.93881 7.76915 4.93662C7.79055 4.93443 7.81217 4.93658 7.83272 4.94295C7.89434 4.95674 7.95706 4.96497 8.02014 4.96754C8.25453 4.9861 8.60887 5.0137 9.23559 5.36494C9.85081 5.70915 10.1957 6.18985 10.3611 6.42116C10.3916 6.46381 10.4175 6.50044 10.433 6.518C10.4566 6.54545 10.4704 6.58007 10.472 6.61629C10.4736 6.65251 10.4631 6.68823 10.442 6.7177Z" fill="#9B513D"/>
<path d="M10.3127 7.7674C10.293 7.79528 10.2649 7.81613 10.2326 7.8269C10.2003 7.83767 10.1654 7.8378 10.133 7.82727C10.1006 7.81675 10.0724 7.79611 10.0525 7.76838C10.0326 7.74064 10.022 7.70725 10.0223 7.67306C10.0223 6.77992 8.44552 5.91086 8.03371 5.82455C7.99347 5.81448 7.95869 5.78915 7.93665 5.75388C7.91461 5.71861 7.90702 5.67614 7.91549 5.63538C7.92396 5.59462 7.94781 5.55874 7.98206 5.53526C8.01631 5.51178 8.05829 5.50252 8.09918 5.50944C8.54398 5.60277 10.3447 6.52552 10.3432 7.67407C10.3429 7.70759 10.3322 7.7402 10.3127 7.7674Z" fill="#9B513D"/>
<path d="M9.76365 7.87171C9.7454 7.89712 9.72018 7.91663 9.69106 7.92787C9.66194 7.9391 9.63019 7.94157 9.59969 7.93497C9.5692 7.92836 9.54128 7.91298 9.51936 7.89069C9.49744 7.86841 9.48247 7.84019 9.47628 7.80949C9.4158 7.51094 8.81407 6.93039 8.54569 6.85864C8.52468 6.85384 8.50484 6.84483 8.48737 6.83215C8.4699 6.81948 8.45515 6.8034 8.44401 6.78487C8.43286 6.76635 8.42555 6.74576 8.42251 6.72433C8.41946 6.70291 8.42075 6.68109 8.42629 6.66017C8.43183 6.63926 8.44152 6.61968 8.45477 6.60261C8.46802 6.58554 8.48455 6.57132 8.50339 6.56081C8.52223 6.55029 8.543 6.5437 8.56443 6.54142C8.58587 6.53914 8.60755 6.54123 8.62816 6.54754C9.00299 6.6479 9.70417 7.31976 9.79064 7.74526C9.79496 7.76707 9.7948 7.78954 9.79016 7.81129C9.78552 7.83303 9.77649 7.8536 9.76365 7.87171Z" fill="#9B513D"/>
<path d="M10.9515 5.18877C10.9346 5.21219 10.9117 5.23061 10.8852 5.24208C10.8588 5.25355 10.8297 5.25766 10.8011 5.25396C10.7725 5.25026 10.7455 5.2389 10.7228 5.22107C10.7001 5.20325 10.6826 5.1796 10.6721 5.15264C10.3358 4.28157 9.33473 3.88919 8.79598 3.79486L8.62606 3.76375C8.28671 3.70052 7.90239 3.62877 7.60102 3.6925L7.47158 3.71808C7.23968 3.76274 6.92184 3.82396 6.7784 3.9489C6.746 3.97521 6.70466 3.98783 6.66316 3.98408C6.62165 3.98034 6.58322 3.96053 6.556 3.92884C6.52879 3.89715 6.51494 3.85607 6.51736 3.8143C6.51979 3.77253 6.53831 3.73334 6.569 3.70504C6.7779 3.5244 7.12924 3.45416 7.41111 3.40398C7.45559 3.39545 7.49757 3.38742 7.53505 3.37939C7.89889 3.30262 8.3162 3.37939 8.68453 3.44914L8.85146 3.47974C9.45618 3.58612 10.5827 4.03169 10.971 5.03824C10.9804 5.06299 10.9836 5.0897 10.9802 5.11597C10.9768 5.14224 10.9669 5.16726 10.9515 5.18877Z" fill="#9B513D"/>
<path d="M10.6616 3.77527C10.6577 3.78096 10.6534 3.78633 10.6487 3.79133C10.6196 3.82241 10.5794 3.84065 10.537 3.84207C10.4946 3.84348 10.4533 3.82794 10.4223 3.79886C10.0264 3.42855 8.9889 3.04621 8.63307 2.96793C8.14229 2.85704 7.53357 2.71705 6.96283 2.78328C6.53602 2.83346 5.97078 2.96893 5.78236 3.19624C5.75481 3.22799 5.71597 3.24764 5.67416 3.25099C5.63235 3.25434 5.59089 3.24112 5.55867 3.21415C5.52645 3.18718 5.50604 3.14862 5.5018 3.10673C5.49756 3.06483 5.50982 3.02293 5.53598 2.99001C5.84883 2.61268 6.67946 2.49175 6.92685 2.46365C7.55006 2.3929 8.18928 2.53741 8.70354 2.65382C9.06588 2.73611 10.1749 3.12699 10.6412 3.56353C10.6695 3.59035 10.6872 3.62659 10.691 3.66554C10.6948 3.70448 10.6843 3.74347 10.6616 3.77527Z" fill="#9B513D"/>
<path d="M10.1917 2.48973C10.1695 2.52156 10.1364 2.54407 10.0987 2.55295C10.0354 2.56819 9.96924 2.56576 9.90727 2.54593C9.88132 2.53776 9.85786 2.52312 9.83907 2.50338C9.82028 2.48363 9.80677 2.45943 9.79983 2.43303C9.2091 2.12846 8.33749 1.94933 7.14603 1.8861C6.57729 1.856 4.95253 2.31863 4.67315 2.54994C4.65704 2.56441 4.63819 2.57546 4.61772 2.58243C4.59725 2.5894 4.57559 2.59215 4.55404 2.59051C4.53249 2.58886 4.51149 2.58286 4.4923 2.57287C4.47312 2.56287 4.45615 2.54909 4.4424 2.53234C4.42865 2.5156 4.41842 2.49624 4.41231 2.47542C4.4062 2.45461 4.40434 2.43277 4.40684 2.41121C4.40935 2.38966 4.41618 2.36884 4.4269 2.34999C4.43763 2.33115 4.45203 2.31468 4.46925 2.30157C4.83309 2.00051 6.54531 1.53236 7.16302 1.56497C8.03813 1.61113 9.29955 1.73357 10.1462 2.25942C10.1731 2.27621 10.1944 2.30058 10.2076 2.3295C10.2207 2.35842 10.2251 2.39059 10.2201 2.42199C10.2161 2.44653 10.2064 2.46975 10.1917 2.48973Z" fill="#9B513D"/>
<path d="M8.59228 1.26495C8.56612 1.30041 8.52754 1.32462 8.48432 1.33269C8.46465 1.34371 8.44289 1.35045 8.42045 1.35247C8.39801 1.35449 8.37541 1.35174 8.3541 1.34441C8.33279 1.33707 8.31325 1.32531 8.29676 1.30989C8.28028 1.29447 8.26722 1.27574 8.25843 1.25491C7.59752 1.05262 6.90193 0.990589 6.21586 1.07277C5.61613 1.14553 4.20827 1.31613 3.66702 2.07279L3.66002 2.08233C3.63465 2.11535 3.59752 2.1372 3.55644 2.14329C3.51535 2.14939 3.47351 2.13925 3.43972 2.11501C3.40593 2.09076 3.38281 2.05431 3.37525 2.01331C3.36768 1.97231 3.37624 1.92996 3.39914 1.89517C3.94889 1.12094 5.11086 0.882602 6.17888 0.753146C6.95935 0.659717 7.75075 0.741639 8.49582 0.99299C8.51391 0.998822 8.53083 1.00783 8.54579 1.01958C8.57614 1.03935 8.59972 1.068 8.61331 1.10165C8.62689 1.13531 8.62984 1.17235 8.62176 1.20775C8.61574 1.22856 8.60574 1.248 8.59228 1.26495Z" fill="#9B513D"/>
<path d="M8.19409 9.43524C8.17584 9.46088 8.15048 9.48056 8.12116 9.49182C8.09185 9.50309 8.05989 9.50544 8.02925 9.4986C7.99861 9.49175 7.97065 9.476 7.94886 9.45331C7.92708 9.43063 7.91242 9.40201 7.90672 9.37102C7.60686 7.76135 6.89669 6.3559 5.79369 5.1933C4.81414 4.16066 3.85606 3.68398 3.67415 3.59868C3.5567 3.54399 3.43675 3.48428 3.30931 3.42106C2.87951 3.20781 2.39273 2.96646 1.97392 2.90474C1.95264 2.90219 1.9321 2.89538 1.91349 2.88473C1.89487 2.87407 1.87858 2.85978 1.86556 2.8427C1.85254 2.82562 1.84305 2.80609 1.83767 2.78527C1.83228 2.76444 1.83111 2.74275 1.83421 2.72147C1.83732 2.70018 1.84464 2.67974 1.85575 2.66134C1.86685 2.64295 1.88151 2.62697 1.89887 2.61435C1.91622 2.60174 1.93591 2.59274 1.95679 2.58789C1.97766 2.58304 1.9993 2.58243 2.02041 2.58611C2.48919 2.65536 3.00046 2.90875 3.45125 3.13254C3.57669 3.19476 3.69514 3.25397 3.80908 3.30716C4.17892 3.47977 7.44193 5.11352 8.22158 9.31181C8.22571 9.33318 8.22541 9.35517 8.22068 9.37641C8.21595 9.39765 8.20689 9.41768 8.19409 9.43524Z" fill="#9B513D"/>
<path d="M13.2056 21.0456C13.1821 21.0785 13.1472 21.1012 13.1077 21.1093C13.0682 21.1174 13.0272 21.1103 12.9927 21.0893C12.6399 20.8745 12.2401 20.6312 11.8722 20.1941C11.4886 19.7528 11.1402 19.2819 10.8302 18.7857C10.4405 18.1517 10.1195 17.4776 9.87263 16.7751C9.59376 15.9823 9.43283 15.4007 9.38185 14.5979C9.38127 14.5565 9.39658 14.5165 9.42458 14.4862C9.45258 14.4558 9.49113 14.4375 9.53226 14.4349C9.57338 14.4323 9.61392 14.4457 9.64546 14.4723C9.67701 14.4989 9.69716 14.5367 9.70171 14.5778C9.75169 15.3425 9.90562 15.9025 10.175 16.6677C10.4145 17.3492 10.726 18.0031 11.1041 18.6181C11.4056 19.1001 11.7443 19.5576 12.1171 19.9864C12.451 20.3828 12.8268 20.6121 13.1586 20.8138C13.1767 20.8248 13.1923 20.8392 13.2048 20.8562C13.2173 20.8733 13.2263 20.8927 13.2313 20.9132C13.2363 20.9338 13.2372 20.9551 13.234 20.976C13.2308 20.9969 13.2235 21.017 13.2126 21.0351C13.2106 21.0386 13.2081 21.0421 13.2056 21.0456Z" fill="#9B513D"/>
<path d="M15.7085 21.4696C15.6936 21.4903 15.6741 21.5072 15.6515 21.5189C15.629 21.5306 15.6039 21.5367 15.5785 21.5368C15.0203 21.5368 14.2826 21.1324 13.7764 20.8278C13.0949 20.421 12.4754 19.9176 11.9372 19.3331C11.1905 18.5086 10.8802 17.5402 10.5518 16.5151C10.5298 16.4454 10.5073 16.3756 10.4849 16.3059C10.0531 14.9677 10.0026 13.9942 10.3309 13.3289C10.3399 13.3094 10.3527 13.2918 10.3686 13.2773C10.3844 13.2628 10.403 13.2517 10.4232 13.2445C10.4434 13.2374 10.4649 13.2343 10.4863 13.2356C10.5077 13.2369 10.5286 13.2425 10.5478 13.2521C10.567 13.2617 10.5841 13.275 10.5981 13.2913C10.6121 13.3076 10.6227 13.3266 10.6293 13.3471C10.6359 13.3676 10.6383 13.3892 10.6364 13.4106C10.6345 13.432 10.6283 13.4529 10.6183 13.4719C10.3329 14.0499 10.3904 14.9697 10.7897 16.2065L10.8572 16.4168C11.1745 17.4078 11.4744 18.3436 12.1741 19.1163C12.6911 19.6777 13.2864 20.1611 13.9413 20.5513C14.2142 20.7154 15.0443 21.2152 15.578 21.2147C15.6075 21.2147 15.6365 21.2228 15.6617 21.2383C15.6868 21.2537 15.7073 21.2758 15.7208 21.3021C15.7343 21.3285 15.7403 21.3581 15.7381 21.3876C15.7359 21.4171 15.7257 21.4455 15.7085 21.4696Z" fill="#9B513D"/>
<path d="M17.4672 21.5489C17.451 21.5716 17.4291 21.5897 17.4038 21.6013C17.3784 21.6129 17.3505 21.6177 17.3227 21.6151C16.5771 21.5494 15.6675 21.0285 15.0653 20.6838C14.9283 20.605 14.7859 20.5278 14.6485 20.453C14.0552 20.1299 13.442 19.7962 12.9797 19.2407C12.2945 18.4217 11.7479 17.4951 11.362 16.4981C10.9342 15.3706 10.8032 14.3069 10.9726 13.3369C10.9779 13.3045 10.9816 13.2719 10.9836 13.2391C10.9901 13.1553 11.0006 13.0148 11.1336 12.9681C11.1672 12.9566 11.2037 12.9566 11.2374 12.9681C11.271 12.9797 11.2999 13.0021 11.3194 13.0319C11.339 13.0617 11.3481 13.0972 11.3454 13.1328C11.3427 13.1684 11.3283 13.2021 11.3045 13.2286C11.3045 13.2396 11.3045 13.2526 11.3015 13.2637C11.2989 13.3069 11.2941 13.3499 11.287 13.3926C10.9342 15.4112 12.0566 17.6306 13.2241 19.0345C13.6469 19.5428 14.2072 19.8474 14.7994 20.17C14.9388 20.2458 15.0828 20.3241 15.2227 20.4043C15.8004 20.735 16.672 21.2348 17.3497 21.2945C17.3708 21.2963 17.3913 21.3023 17.41 21.3121C17.4288 21.3219 17.4454 21.3353 17.4589 21.3516C17.4725 21.3679 17.4827 21.3867 17.489 21.4069C17.4953 21.4272 17.4976 21.4485 17.4957 21.4696C17.4936 21.4981 17.4838 21.5256 17.4672 21.5489Z" fill="#9B513D"/>
<path d="M11.8706 15.6375C11.8511 15.6643 11.8238 15.6843 11.7926 15.695C11.7613 15.7057 11.7276 15.7064 11.6959 15.6972C11.6642 15.6879 11.6361 15.6691 11.6154 15.6432C11.5947 15.6174 11.5824 15.5858 11.5802 15.5527C11.5727 15.4183 11.6332 15.2933 11.6917 15.1729C11.7173 15.123 11.7402 15.0718 11.7601 15.0194C11.8691 14.7083 11.9181 14.3856 11.9626 14.0545L11.9776 13.9406C12.0975 13.0554 12.2329 12.0519 11.8776 11.2511C11.869 11.2318 11.8643 11.211 11.8637 11.1899C11.8631 11.1688 11.8666 11.1478 11.8741 11.128C11.8816 11.1083 11.8929 11.0903 11.9073 11.0749C11.9218 11.0596 11.9391 11.0472 11.9583 11.0386C11.9775 11.0299 11.9982 11.0252 12.0192 11.0246C12.0403 11.024 12.0612 11.0276 12.0808 11.0351C12.1005 11.0426 12.1185 11.054 12.1338 11.0685C12.1491 11.083 12.1614 11.1003 12.17 11.1196C12.5643 12.0042 12.4223 13.0559 12.2969 13.9837L12.2814 14.0976C12.2349 14.4458 12.1815 14.786 12.064 15.1262C12.0399 15.1902 12.0123 15.2529 11.9815 15.3139C11.9431 15.3937 11.8991 15.484 11.9021 15.5342C11.9035 15.5712 11.8924 15.6076 11.8706 15.6375Z" fill="#9B513D"/>
<path d="M12.1249 16.7695C12.1131 16.7879 12.0977 16.8037 12.0796 16.8159C12.0616 16.8281 12.0412 16.8365 12.0198 16.8406C11.9984 16.8447 11.9764 16.8443 11.9552 16.8396C11.9339 16.8348 11.9138 16.8258 11.8962 16.813C11.8785 16.8002 11.8636 16.7839 11.8524 16.7652C11.8412 16.7464 11.8339 16.7256 11.831 16.7039C11.8281 16.6822 11.8296 16.6602 11.8355 16.6391C11.8413 16.6181 11.8514 16.5984 11.865 16.5814C12.2393 16.059 12.5387 15.3124 12.6457 14.632L12.6671 14.4935C12.7806 13.7755 12.8975 13.0329 12.944 12.3239C12.944 12.2938 12.948 12.2622 12.9505 12.2295C12.982 11.7734 13.0355 11.0108 12.6956 10.7197C12.6656 10.6914 12.6476 10.6526 12.6453 10.6113C12.643 10.5699 12.6567 10.5293 12.6834 10.4979C12.7101 10.4664 12.7479 10.4464 12.7889 10.4421C12.8299 10.4379 12.8709 10.4496 12.9035 10.4749C13.3663 10.8713 13.3084 11.7022 13.2704 12.2521C13.2679 12.2842 13.2659 12.3154 13.2639 12.345C13.2164 13.069 13.0979 13.8186 12.984 14.5437L12.962 14.6822C12.8476 15.4092 12.5272 16.2086 12.1249 16.7695Z" fill="#9B513D"/>
<path d="M12.5254 17.6978C12.5022 17.7335 12.4658 17.7585 12.4243 17.7672C12.3828 17.776 12.3395 17.7678 12.304 17.7445C12.2684 17.7212 12.2436 17.6847 12.2349 17.643C12.2261 17.6013 12.2343 17.5579 12.2575 17.5222C12.3504 17.3632 12.4574 17.2161 12.5573 17.0741C12.6756 16.9172 12.784 16.753 12.8817 16.5824C13.2775 15.8634 13.5404 15.0736 13.7103 14.0962C13.8927 13.045 13.9167 12.1834 13.7838 11.4629C13.7788 11.4363 13.7733 11.4027 13.7663 11.3625C13.6253 10.5502 13.5199 10.3555 13.4664 10.3138C13.425 10.3045 13.389 10.2791 13.3662 10.2431C13.3435 10.2071 13.336 10.1635 13.3452 10.1219C13.3545 10.0803 13.3799 10.0441 13.4157 10.0213C13.4516 9.9985 13.495 9.99091 13.5364 10.0002C13.8108 10.0504 13.9437 10.5185 14.0806 11.3073C14.0871 11.3455 14.0926 11.3781 14.0976 11.4037C14.2376 12.1623 14.2141 13.0595 14.0247 14.1508C13.8512 15.1504 13.5684 15.9969 13.1611 16.7375C13.0567 16.9193 12.9414 17.0946 12.8157 17.2623C12.7158 17.4043 12.6158 17.5388 12.5313 17.6848C12.5296 17.6893 12.5276 17.6936 12.5254 17.6978Z" fill="#9B513D"/>
<path d="M13.5648 18.5428C13.4826 18.6607 13.3826 18.765 13.2684 18.8519C13.234 18.876 13.1916 18.8856 13.1502 18.8787C13.1089 18.8718 13.0718 18.8489 13.0471 18.8149C13.0223 18.781 13.0118 18.7386 13.0177 18.6969C13.0237 18.6552 13.0457 18.6176 13.079 18.592C13.3289 18.4088 13.5468 18.0054 13.7117 17.4254C14.0575 16.2111 14.2849 15.1253 14.4074 14.1062C14.5073 13.2532 14.4279 12.4328 14.3194 11.5241C14.3164 11.5025 14.3134 11.4739 14.3099 11.4428C14.197 10.4418 14.0855 10.221 14.0381 10.1733C13.9987 10.1617 13.9652 10.1354 13.9445 10.0998C13.9238 10.0642 13.9176 10.0219 13.927 9.9818C13.9364 9.94167 13.9608 9.9067 13.9951 9.88408C14.0295 9.86146 14.0711 9.85291 14.1115 9.86021C14.3694 9.90537 14.5043 10.3118 14.6283 11.4067C14.6323 11.4378 14.6353 11.4649 14.6378 11.4859C14.7487 12.4157 14.8322 13.2572 14.7257 14.1453C14.6013 15.182 14.3704 16.2838 14.0201 17.5147C13.8971 17.9492 13.7437 18.2934 13.5648 18.5428Z" fill="#9B513D"/>
<path d="M21.3387 18.4651C21.3237 18.4863 21.3037 18.5035 21.2806 18.5153C21.2575 18.527 21.2319 18.5329 21.2059 18.5325C21.18 18.5322 21.1546 18.5254 21.1318 18.513C21.1091 18.5005 21.0897 18.4827 21.0753 18.4611C20.2053 17.1491 18.9483 16.1433 17.4804 15.5844C16.3245 15.1439 15.3129 15.0927 14.9931 15.1966C14.973 15.2035 14.9517 15.2063 14.9305 15.2049C14.9093 15.2034 14.8886 15.1978 14.8696 15.1883C14.8506 15.1788 14.8337 15.1656 14.8198 15.1495C14.8059 15.1333 14.7954 15.1146 14.7888 15.0943C14.7821 15.0741 14.7796 15.0527 14.7813 15.0314C14.7829 15.0102 14.7888 14.9895 14.7985 14.9705C14.8082 14.9516 14.8216 14.9347 14.8378 14.921C14.8541 14.9072 14.8729 14.8969 14.8931 14.8905C15.243 14.7771 16.282 14.7836 17.5919 15.2834C19.1222 15.8658 20.4327 16.9141 21.3402 18.2814C21.3587 18.3085 21.3684 18.3407 21.3682 18.3735C21.3679 18.4063 21.3576 18.4383 21.3387 18.4651Z" fill="#9B513D"/>
<path d="M21.7367 17.1399C21.7225 17.1598 21.7039 17.1761 21.6823 17.1876C21.6637 17.1976 21.6434 17.2038 21.6225 17.2059C21.6015 17.2081 21.5804 17.206 21.5602 17.1999C21.5401 17.1938 21.5213 17.1838 21.505 17.1704C21.4887 17.157 21.4753 17.1405 21.4653 17.1218C20.9556 16.165 18.8725 15.0024 17.3222 14.5568C16.6885 14.3752 15.7295 14.4499 15.0293 14.5066L14.9793 14.5101C14.9583 14.5118 14.9372 14.5093 14.9172 14.5027C14.8972 14.4962 14.8787 14.4858 14.8627 14.472C14.8467 14.4583 14.8336 14.4416 14.8241 14.4228C14.8145 14.4039 14.8088 14.3834 14.8071 14.3624C14.8055 14.3413 14.808 14.3201 14.8145 14.3001C14.821 14.28 14.8314 14.2614 14.8451 14.2453C14.8587 14.2293 14.8754 14.2161 14.8942 14.2065C14.9129 14.1969 14.9333 14.1911 14.9543 14.1895L15.0043 14.1855C15.729 14.1288 16.721 14.0515 17.4102 14.2497C19.0564 14.7224 21.192 15.9291 21.7482 16.9718C21.7618 16.9982 21.768 17.0278 21.7659 17.0575C21.7639 17.0871 21.7538 17.1156 21.7367 17.1399Z" fill="#9B513D"/>
<path d="M21.9296 15.8202L21.9221 15.8297C21.8947 15.8624 21.8556 15.8829 21.8133 15.8867C21.7709 15.8905 21.7288 15.8772 21.6962 15.8498C20.9415 15.213 19.8695 14.7233 19.2973 14.488C18.4305 14.1376 17.5366 13.8592 16.6245 13.6556C16.1012 13.5356 15.3945 13.5 14.9812 13.7559C14.9452 13.7785 14.9017 13.7857 14.8603 13.7761C14.8189 13.7664 14.783 13.7407 14.7606 13.7045C14.7381 13.6683 14.7309 13.6246 14.7405 13.5831C14.7501 13.5415 14.7757 13.5055 14.8118 13.4829C15.436 13.0931 16.4111 13.2747 16.6954 13.3399C17.6248 13.5472 18.5356 13.8308 19.4187 14.1879C20.0079 14.4308 21.1139 14.9366 21.9021 15.6009C21.9335 15.6271 21.9539 15.6644 21.959 15.7051C21.9641 15.7458 21.9536 15.787 21.9296 15.8202Z" fill="#9B513D"/>
<path d="M21.3436 14.1599C21.3313 14.1771 21.3159 14.1917 21.298 14.2029C21.2801 14.214 21.2602 14.2215 21.2395 14.225C21.2187 14.2284 21.1975 14.2276 21.177 14.2227C21.1565 14.2179 21.1372 14.209 21.1202 14.1966C20.1096 13.466 18.6493 12.915 17.2134 12.7229C17 12.6943 16.5692 12.7018 16.1139 12.7093C15.7471 12.7153 15.3313 12.7224 14.949 12.7128C14.9279 12.7123 14.9071 12.7076 14.8879 12.699C14.8686 12.6904 14.8512 12.6781 14.8367 12.6628C14.8074 12.6319 14.7915 12.5905 14.7925 12.5477C14.7936 12.505 14.8115 12.4645 14.8423 12.435C14.8732 12.4056 14.9144 12.3896 14.957 12.3907C15.3328 12.4002 15.7451 12.3932 16.1089 12.3872C16.5977 12.3792 17.02 12.3721 17.2584 12.4037C18.7662 12.6044 20.2431 13.1639 21.3101 13.9351C21.3441 13.9605 21.3668 13.9985 21.373 14.0406C21.3793 14.0827 21.3687 14.1256 21.3436 14.1599Z" fill="#9B513D"/>
<path d="M19.5445 12.3787C19.5297 12.3995 19.5101 12.4165 19.4874 12.4282C19.4647 12.4399 19.4396 12.4459 19.414 12.4459C19.3892 12.4464 19.3647 12.4407 19.3426 12.4293C19.2351 12.3932 18.455 12.1634 17.8677 12.0249C17.339 11.9 16.8227 11.7891 16.321 11.7966C16.221 11.7966 16.1026 11.7931 15.9766 11.7881C15.6338 11.774 15.164 11.755 14.9476 11.8764C14.9292 11.8877 14.9087 11.8951 14.8873 11.8983C14.866 11.9014 14.8442 11.9002 14.8233 11.8947C14.8024 11.8892 14.7829 11.8795 14.7658 11.8662C14.7488 11.853 14.7345 11.8364 14.724 11.8175C14.7135 11.7986 14.7069 11.7777 14.7045 11.7562C14.7022 11.7346 14.7043 11.7128 14.7105 11.6921C14.7168 11.6714 14.7272 11.6521 14.741 11.6355C14.7549 11.6189 14.7719 11.6052 14.7911 11.5954C15.0865 11.4293 15.5873 11.4499 15.9906 11.4664C16.112 11.4715 16.2265 11.476 16.3175 11.475C16.8552 11.4664 17.393 11.5819 17.9417 11.7113C18.306 11.7971 18.7239 11.912 18.9413 11.9747C19.0802 12.0139 19.2126 12.0525 19.3151 12.0836C19.3626 12.0977 19.4001 12.1097 19.426 12.1177C19.4665 12.1308 19.59 12.1709 19.576 12.3034C19.5723 12.3308 19.5614 12.3568 19.5445 12.3787Z" fill="#9B513D"/>
<path d="M17.2188 11.1754C17.1975 11.2049 17.1668 11.2264 17.1317 11.2361C17.0967 11.2459 17.0594 11.2434 17.0259 11.229C16.4497 10.9832 15.3382 10.8352 14.8364 11.1528C14.8186 11.164 14.7988 11.1717 14.7781 11.1753C14.7574 11.1788 14.7361 11.1783 14.7156 11.1736C14.6742 11.1642 14.6382 11.1387 14.6155 11.1026C14.5929 11.0665 14.5854 11.0229 14.5948 10.9813C14.6041 10.9397 14.6296 10.9036 14.6655 10.8808C15.2862 10.4874 16.5082 10.658 17.1514 10.931C17.1708 10.9393 17.1884 10.9513 17.2031 10.9664C17.2179 10.9815 17.2295 10.9993 17.2374 11.019C17.2453 11.0386 17.2493 11.0596 17.2491 11.0807C17.2489 11.1019 17.2446 11.1228 17.2363 11.1422C17.2317 11.1539 17.2259 11.165 17.2188 11.1754Z" fill="#9B513D"/>
<path d="M14.8648 19.9448C14.8484 19.9677 14.8262 19.9859 14.8006 19.9975C14.7749 20.0092 14.7467 20.0138 14.7187 20.011C14.6907 20.0082 14.6639 19.9981 14.6411 19.9816C14.6182 19.9651 14.6001 19.9429 14.5884 19.9172C14.551 19.8339 14.502 19.7466 14.45 19.6543C14.3696 19.5192 14.2996 19.3781 14.2406 19.2323C14.1401 18.9432 14.0657 18.6456 14.0182 18.3431C13.9977 18.2318 13.9762 18.1163 13.9517 18.0039C13.9444 17.9629 13.9532 17.9206 13.9763 17.8859C13.9994 17.8513 14.035 17.827 14.0756 17.8181C14.1162 17.8093 14.1587 17.8166 14.194 17.8385C14.2293 17.8605 14.2548 17.8953 14.2651 17.9357C14.2906 18.0526 14.3121 18.17 14.3336 18.2839C14.3875 18.5745 14.4385 18.8484 14.5405 19.1179C14.594 19.2485 14.6571 19.375 14.7294 19.4962C14.7824 19.5905 14.8373 19.6884 14.8793 19.7842C14.8911 19.8099 14.8959 19.8383 14.8934 19.8664C14.8908 19.8946 14.881 19.9216 14.8648 19.9448Z" fill="#9B513D"/>
<path d="M15.564 20.2915C15.5442 20.3197 15.5159 20.3406 15.4833 20.3513C15.4506 20.3621 15.4154 20.3619 15.3829 20.351C15.3503 20.3401 15.3221 20.319 15.3025 20.2907C15.2828 20.2625 15.2727 20.2286 15.2737 20.1942C15.2857 19.6147 15.0973 19.0401 14.9153 18.4857L14.8804 18.3803C14.8514 18.291 14.8214 18.1796 14.7894 18.0602C14.7059 17.7476 14.5895 17.3196 14.4486 17.1826C14.4197 17.1527 14.4035 17.1127 14.4033 17.0711C14.4032 17.0295 14.4191 16.9894 14.4477 16.9593C14.4763 16.9292 14.5155 16.9113 14.5569 16.9096C14.5984 16.9078 14.6389 16.9222 14.6699 16.9498C14.8779 17.1505 14.9953 17.589 15.0993 17.9769C15.1297 18.0908 15.1587 18.1992 15.1852 18.2779L15.2197 18.3828C15.4101 18.9639 15.6075 19.5645 15.594 20.1992C15.594 20.2324 15.5835 20.2647 15.564 20.2915Z" fill="#9B513D"/>
<path d="M16.5868 20.7933C16.5664 20.8218 16.5373 20.8428 16.504 20.8532C16.4706 20.8636 16.4348 20.8628 16.4019 20.8509C16.369 20.8389 16.341 20.8166 16.3219 20.7872C16.3029 20.7578 16.2939 20.7229 16.2964 20.6879C16.3519 19.9318 16.1675 18.7777 15.8031 17.6005C15.4533 16.466 15.0715 15.744 14.8916 15.6396C14.8724 15.6296 14.8555 15.6157 14.8419 15.5989C14.8282 15.5821 14.8181 15.5628 14.812 15.5419C14.806 15.5211 14.8042 15.4993 14.8068 15.4778C14.8094 15.4562 14.8163 15.4355 14.8271 15.4167C14.8378 15.3979 14.8523 15.3815 14.8695 15.3684C14.8867 15.3553 14.9064 15.3459 14.9274 15.3407C14.9483 15.3355 14.9701 15.3345 14.9915 15.338C15.0128 15.3414 15.0332 15.3491 15.0515 15.3606C15.4058 15.5649 15.8301 16.6025 16.1095 17.5047C16.2899 18.0878 16.7002 19.567 16.6163 20.7115C16.6143 20.741 16.604 20.7693 16.5868 20.7933Z" fill="#9B513D"/>
<path d="M17.312 21.1595C17.2902 21.1897 17.2587 21.2115 17.2227 21.2209C17.1867 21.2304 17.1486 21.227 17.1148 21.2113C17.081 21.1957 17.0537 21.1688 17.0376 21.1351C17.0214 21.1015 17.0174 21.0633 17.0262 21.027C17.5989 18.6607 16.1066 15.8232 16.0316 15.6847C16.0281 15.6792 16.0246 15.6727 16.0216 15.6666C16.0065 15.6355 16.0018 15.6003 16.0081 15.5662C16.0145 15.5322 16.0316 15.5011 16.057 15.4776C16.0824 15.4541 16.1146 15.4395 16.1489 15.4358C16.1832 15.4322 16.2178 15.4398 16.2475 15.4574C16.2605 15.4654 16.276 15.4745 16.3095 15.5286C16.3095 15.5322 16.3095 15.5352 16.3135 15.5382C16.4034 15.7 16.4847 15.8664 16.5569 16.0369C16.7481 16.465 16.9141 16.904 17.0541 17.3516C17.3595 18.3335 17.6564 19.7811 17.336 21.1043C17.3314 21.124 17.3233 21.1427 17.312 21.1595Z" fill="#9B513D"/>
<path d="M18.0719 21.312C18.0501 21.3424 18.0184 21.3642 17.9824 21.3737C17.9463 21.3832 17.9081 21.3798 17.8743 21.364C17.8404 21.3483 17.8131 21.3212 17.797 21.2875C17.7809 21.2537 17.777 21.2154 17.786 21.1791C18.4857 18.3802 17.6331 16.3511 17.4062 16.1172C17.3718 16.111 17.3404 16.0936 17.3167 16.0678C17.2931 16.0419 17.2785 16.0091 17.2751 15.9741C17.2718 15.9392 17.2799 15.9042 17.2982 15.8743C17.3166 15.8444 17.3441 15.8214 17.3767 15.8087C17.4161 15.7948 17.4587 15.7926 17.4993 15.8025C17.54 15.8124 17.5769 15.8339 17.6056 15.8643C17.9679 16.186 18.805 18.4204 18.0974 21.2568C18.0923 21.2766 18.0836 21.2953 18.0719 21.312Z" fill="#9B513D"/>
<path d="M18.9592 21.121C18.9374 21.152 18.9054 21.1743 18.8688 21.1838C18.8322 21.1934 18.7934 21.1896 18.7594 21.1732C18.7253 21.1568 18.6981 21.1288 18.6826 21.0941C18.6671 21.0595 18.6644 21.0205 18.6749 20.984C19.2686 18.8384 18.6409 17.1098 18.4345 16.5418C18.415 16.4917 18.3995 16.446 18.3885 16.4134C18.3805 16.393 18.3768 16.3712 18.3775 16.3493C18.3783 16.3274 18.3834 16.3059 18.3927 16.286C18.402 16.2662 18.4153 16.2485 18.4316 16.234C18.448 16.2195 18.4671 16.2085 18.4878 16.2016C18.5086 16.1948 18.5304 16.1923 18.5522 16.1942C18.5739 16.1962 18.595 16.2026 18.6142 16.213C18.6334 16.2234 18.6503 16.2377 18.6638 16.2549C18.6773 16.2721 18.6872 16.2919 18.6928 16.313C18.7028 16.3436 18.7178 16.3838 18.7353 16.4335C18.9507 17.025 19.6049 18.8269 18.9852 21.0718C18.9792 21.0895 18.9704 21.1061 18.9592 21.121Z" fill="#9B513D"/>
<path d="M20.0025 20.3281C19.982 20.3572 19.9524 20.3786 19.9185 20.3889C19.8845 20.3992 19.8481 20.398 19.815 20.3853C19.7819 20.3726 19.7539 20.3492 19.7354 20.3187C19.717 20.2883 19.7091 20.2526 19.7131 20.2172C19.7596 19.7722 19.8046 19.017 19.7576 18.7315C19.7466 18.6643 19.7356 18.581 19.7231 18.4887C19.6851 18.2026 19.6147 17.6698 19.4982 17.5393C19.4716 17.5073 19.4583 17.4661 19.4614 17.4244C19.4644 17.3828 19.4834 17.3439 19.5144 17.3161C19.5453 17.2882 19.5859 17.2736 19.6274 17.2751C19.669 17.2767 19.7083 17.2944 19.7371 17.3246C19.9055 17.5137 19.9745 17.9442 20.041 18.446C20.0529 18.5378 20.0635 18.6171 20.0739 18.6793C20.1289 19.0145 20.0789 19.8028 20.0315 20.2509C20.0286 20.2787 20.0186 20.3053 20.0025 20.3281Z" fill="#9B513D"/>
<path d="M15.2594 9.85275L9.10725 15.6527L5.37744 11.5994L11.4672 5.9209L15.2594 9.85275Z" fill="#753C2F"/>
<path opacity="0.1" d="M6.01465 11.0048L9.87539 14.9281L11.4387 13.4544L7.2111 9.88782L6.01465 11.0048Z" fill="white"/>
<path d="M5.92529 12.1944L12.096 6.57312L12.2539 6.7367L6.08772 12.3715L5.92529 12.1944Z" fill="#59AAB5"/>
<path d="M8.81138 15.3311L14.9306 9.51206L14.7562 9.33142L8.56299 15.0616L8.81138 15.3311Z" fill="#59AAB5"/>
</g>
<defs>
<clipPath id="clip0_1232_6005">
<rect width="22" height="21.9052" fill="white"/>
</clipPath>
</defs>
</svg>
