<svg width="12" height="24" viewBox="0 0 12 24" fill="none" xmlns="http://www.w3.org/2000/svg">
<g clip-path="url(#clip0_1232_2477)">
<path d="M4.05604 4.2193C3.95195 4.40354 3.78254 4.54203 3.58128 4.60742C3.25867 4.70181 3.27205 5.05823 3.27205 5.05823C3.27205 5.05823 3.35588 4.77647 3.58621 4.77647C3.87642 4.77647 4.03209 4.69406 4.08774 4.57924C4.14338 4.46443 4.05604 4.2193 4.05604 4.2193Z" fill="url(#paint0_linear_1232_2477)"/>
<path d="M3.1228 5.30265C2.977 5.74007 3.94201 5.75205 4.25969 5.66118C4.57737 5.57032 5.61353 5.60694 6.21297 5.46818C6.8124 5.32941 7.46749 4.9575 7.46749 4.9575V4.13406L4.0519 4.69265C4.0519 4.69265 3.19324 5.09063 3.1228 5.30265Z" fill="#590800"/>
<path d="M3.93261 3.51843C3.93261 3.51843 4.14393 4.08758 4.01643 4.43414C3.88894 4.7807 3.41277 4.89904 3.27189 5.05682C3.13101 5.21461 3.12256 5.30125 3.12256 5.30125C3.12256 5.30125 3.30429 5.16037 3.63324 5.19488C3.96219 5.2294 4.40173 4.99131 4.47851 4.72646C4.55529 4.46161 4.40807 3.6896 4.21014 3.62691C4.11446 3.59944 4.02155 3.56312 3.93261 3.51843Z" fill="url(#paint1_linear_1232_2477)"/>
<path d="M8.31842 17.6006C8.28602 17.6006 8.25362 17.6055 8.22051 17.6069C6.5335 17.6894 5.80234 17.6295 5.57905 17.2076C5.53185 17.1188 5.48959 17.0392 5.45155 16.9688C5.31067 16.706 5.24023 16.5743 5.24023 16.5743C5.24023 16.5743 6.51518 16.6673 7.15195 16.363C7.78872 16.0587 9.35247 15.5107 9.63845 15.7995C10.116 16.2897 9.91528 17.4759 8.31842 17.6006Z" fill="#FF704D"/>
<path d="M9.31476 15.8298C9.31476 15.8298 8.97101 16.4877 8.66601 16.8237C8.47893 17.0416 8.36444 17.3124 8.33847 17.5985H8.31804C8.28564 17.5985 8.25324 17.6034 8.22013 17.6048C6.53312 17.6873 5.80196 17.6274 5.57867 17.2054C5.53147 17.1167 5.48921 17.0371 5.45117 16.9667L9.31476 15.8298Z" fill="#CC3E3C"/>
<path d="M6.96427 21.9876C6.96427 21.9876 6.84734 22.2982 6.84734 22.4257C6.8215 22.6767 6.76763 22.9241 6.68674 23.1632C6.60362 23.4125 6.57615 23.5858 6.63109 23.7337C6.68603 23.8817 7.11571 24 7.33901 24C7.59047 24 7.92295 23.7288 8.0117 23.4738C8.10045 23.2188 7.64894 22.4172 7.5947 22.2151C7.56871 22.11 7.53213 22.0078 7.48552 21.9101L6.96427 21.9876Z" fill="#590800"/>
<path d="M7.7464 22.9554C7.76824 23.1885 7.52945 23.2625 7.3942 23.3294C7.25896 23.3963 6.78491 23.3294 6.80674 23.1181C6.82858 22.9068 6.99552 21.9319 6.99552 21.5544C6.99552 21.5544 6.99552 21.548 6.99552 21.536C6.9758 21.1176 6.32071 19.2116 6.34748 18.8255C6.37424 18.4395 6.58274 17.4351 6.58274 17.4351L7.59707 17.0533C7.73151 17.3819 7.83549 17.7221 7.9077 18.0697C7.93549 18.2089 7.94965 18.3505 7.94997 18.4924C7.9387 19.0693 7.41745 21.386 7.43928 21.5861C7.46112 21.7861 7.72386 22.7229 7.7464 22.9554Z" fill="url(#paint2_linear_1232_2477)"/>
<path d="M6.09934 17.4752C6.09934 17.4752 5.94367 17.8408 5.74715 17.9852C5.68584 18.0269 5.61728 18.0568 5.54499 18.0733C5.28225 18.1381 4.85821 18.1064 4.33907 17.7964C4.08751 17.6362 3.84615 17.4604 3.61637 17.2702C3.11484 16.8687 2.55062 16.3722 2.20758 16.0791C2.05684 15.9488 1.94907 15.8586 1.90963 15.834C1.73212 15.7234 1.11155 16.2003 0.923479 16.3778C0.735407 16.5553 0.557901 16.9652 0.435337 17.0315C0.312773 17.0977 0.180348 16.9209 0.0922992 16.5884C0.00425037 16.2559 0.0479231 15.8009 0.202889 15.6678C0.357855 15.5346 0.712868 15.4797 0.977719 15.3466C1.24257 15.2134 1.44332 14.7697 1.64266 14.8028C1.84201 14.8359 1.87582 14.9697 2.01951 15.2578C2.08734 15.3967 2.20176 15.5074 2.34283 15.5706L2.35058 15.5748C2.52597 15.6572 2.77673 15.7157 3.15076 15.7678C3.53605 15.8224 3.91406 15.9197 4.27779 16.058C4.38924 16.0989 4.49835 16.1459 4.60463 16.1989C4.80819 16.3024 5.2104 16.6483 5.5464 16.954L5.55062 16.9575C5.85069 17.2343 6.09934 17.4752 6.09934 17.4752Z" fill="url(#paint3_linear_1232_2477)"/>
<path d="M0.863742 16.4546C0.863742 16.4546 0.502389 15.9812 0.646085 15.8298C0.789781 15.6783 1.67309 15.2486 1.78297 15.2064C1.89286 15.1641 1.99077 15.1359 1.99077 15.1359C1.93261 15.014 1.866 14.8964 1.79143 14.7837C1.72944 14.7133 1.22791 14.5668 1.22791 14.5668L0.834863 14.9035L0.890509 15.0831C0.730247 15.2398 0.546545 15.3705 0.346016 15.4705C0.0318578 15.622 -0.00195312 15.953 -0.00195312 16.2679C-0.00195312 16.5828 0.205842 17.1096 0.385462 17.1096C0.565081 17.1096 0.863742 16.4546 0.863742 16.4546Z" fill="#590800"/>
<path d="M0.695801 16.4024C0.824974 16.2591 0.970077 16.1311 1.1283 16.0207C1.37554 15.8523 1.84748 15.7121 1.84748 15.7121V15.8136C1.84748 15.8136 1.46006 15.9087 1.23536 16.0573C1.0766 16.1708 0.933125 16.3043 0.808502 16.4546L0.695801 16.4024Z" fill="#590800"/>
<path d="M2.13241 15.4114C2.03236 15.4821 1.93814 15.5608 1.85066 15.6466C1.83866 15.6572 1.82906 15.6702 1.82248 15.6848C1.8159 15.6994 1.8125 15.7152 1.8125 15.7312C1.8125 15.7471 1.8159 15.763 1.82248 15.7775C1.82906 15.7921 1.83866 15.8051 1.85066 15.8157L1.93448 15.8319C1.96676 15.7677 2.00622 15.7075 2.05211 15.6523C2.131 15.5565 2.2106 15.4783 2.2106 15.4783L2.13241 15.4114Z" fill="#590800"/>
<path d="M6.94189 21.5607V21.6776H7.48568V21.5219L6.94189 21.5607Z" fill="#590800"/>
<path d="M7.14985 21.5994C7.14985 21.5994 7.16324 22.0988 7.14985 22.4975C7.13647 22.8962 7.11182 23.3428 7.11182 23.3428L7.33934 23.452C7.35323 23.1265 7.34664 22.8004 7.31961 22.4757C7.27453 22.1101 7.2696 21.6783 7.2696 21.6783L7.14985 21.5994Z" fill="#590800"/>
<path d="M6.09919 17.4752C6.09919 17.4752 5.94352 17.8408 5.747 17.9852C5.68569 18.0269 5.61713 18.0568 5.54484 18.0733C5.54484 18.0733 4.84397 17.3999 4.50938 16.8758C4.1748 16.3517 3.84585 16.1601 3.27388 15.9671C2.95667 15.8614 2.64855 15.7302 2.35254 15.5748C2.52793 15.6572 2.77869 15.7157 3.15273 15.7678C3.53801 15.8224 3.91602 15.9197 4.27975 16.058C4.78903 16.37 5.48849 16.9089 5.54765 16.9554L5.55188 16.9589C5.85054 17.2343 6.09919 17.4752 6.09919 17.4752Z" fill="#E1784E"/>
<path opacity="0.28" d="M4.8887 17.8584C4.45265 17.6851 4.02613 17.4888 3.61093 17.2702C3.1094 16.8687 2.54519 16.3722 2.20215 16.0791C2.62478 16.2383 3.39961 16.5518 3.75181 16.8237C4.15196 17.1446 4.53166 17.4901 4.8887 17.8584Z" fill="white"/>
<path d="M6.94204 19.7786L6.98782 20.2364C6.98782 20.2364 6.80821 19.7701 6.72931 19.5053C6.65887 19.2749 6.6152 19.0974 6.60463 19.0566C6.61943 19.1397 6.73847 19.7807 6.86174 20.2984C6.94638 20.7069 6.99166 21.1225 6.99698 21.5396C6.97726 21.1212 6.32218 19.2151 6.34894 18.8291C6.37571 18.4431 6.58421 17.4386 6.58421 17.4386L7.59853 17.0568C7.73298 17.3854 7.83696 17.7256 7.90917 18.0733C7.90917 18.0733 7.16674 18.1817 6.94204 18.3113C6.71734 18.4409 6.89696 19.3207 6.94204 19.7786Z" fill="#E1784E"/>
<path opacity="0.28" d="M7.78141 18.4283C7.78141 18.4283 7.60742 18.6713 7.48556 19.2954C7.3637 19.9195 7.31299 21.1874 7.31299 21.1874C7.31299 21.1874 7.69336 20.0265 7.78141 19.5905C7.86946 19.1545 7.78141 18.4283 7.78141 18.4283Z" fill="white"/>
<path d="M5.24087 5.90209C5.14437 5.87743 4.64496 7.98567 4.7006 8.12092C4.75625 8.25616 5.16973 7.89974 5.16973 7.89974C5.16973 7.89974 5.41345 5.94364 5.24087 5.90209Z" fill="#CC3E3C"/>
<path d="M11.094 10.6039C11.1102 10.6624 11.1912 10.6398 11.3687 10.5039C11.5463 10.3679 11.6167 10.363 11.6505 10.406C11.6843 10.4489 11.6111 10.537 11.4441 10.6173C11.2948 10.6877 11.2596 10.792 11.0588 10.8342C10.8397 10.88 10.5833 10.8237 10.4784 10.8342C10.4368 10.8385 9.99518 10.7715 9.45914 10.6666H9.4521C8.63641 10.506 7.60378 10.2573 7.42768 10.0326C7.31427 9.89176 7.20298 9.3536 7.14592 8.72035C7.05999 7.79126 7.08605 6.65085 7.3833 6.21977C7.40796 6.18314 7.24242 6.14933 7.27201 6.12608C7.27201 6.12608 7.67703 6.18173 7.89539 6.88189C7.93695 7.01502 7.97851 7.1721 8.01937 7.35595C8.27295 8.50692 8.23069 9.09861 8.23069 9.09861L9.25557 9.8995C9.65708 10.2158 10.2769 10.5278 10.4037 10.5173C10.5305 10.5067 10.5383 10.0897 10.6496 9.9629C10.7609 9.83611 11.006 9.66987 11.0637 9.68114C11.1215 9.69241 10.9109 9.86569 10.8369 9.95022C10.793 9.99988 10.762 10.0597 10.7468 10.1242C10.7468 10.1242 10.9743 9.83893 11.1588 9.7389C11.3434 9.63888 11.4173 9.61775 11.4547 9.62831C11.492 9.63888 11.4547 9.72129 11.4547 9.72763C11.4659 9.72411 11.5836 9.68255 11.6442 9.71284C11.7047 9.74313 11.5913 9.82907 11.4166 9.92909C11.3071 9.99493 11.2139 10.0848 11.144 10.1918C11.2434 10.11 11.3528 10.0411 11.4695 9.98685C11.6653 9.89739 11.7808 9.86006 11.8217 9.88683C11.8625 9.91359 11.5209 10.1031 11.4258 10.177C11.3307 10.251 11.0785 10.5461 11.094 10.6039Z" fill="url(#paint4_linear_1232_2477)"/>
<path d="M9.46263 10.6638H9.45559C8.63991 10.5032 7.60727 10.2545 7.43117 10.0298C7.31776 9.88894 7.20647 9.35079 7.14941 8.71754L7.25014 6.29091C7.2748 6.25429 7.19872 6.15003 7.2276 6.12327C7.2276 6.12327 7.68052 6.17891 7.89888 6.87908C7.89888 6.87908 7.9489 8.53651 7.89888 8.93238C7.84887 9.32825 7.82211 9.87485 7.99821 10.0594C8.1743 10.244 9.46263 10.6638 9.46263 10.6638Z" fill="#E1784E"/>
<path d="M4.7376 8.09204L4.65237 7.81451C4.64097 7.74638 4.64953 7.6764 4.67703 7.61303C4.70453 7.54966 4.74979 7.4956 4.80733 7.45738C4.91969 7.38619 5.0465 7.34095 5.17855 7.32496C5.17855 7.32496 5.14544 7.83494 5.0905 7.92862C5.03555 8.02231 4.7376 8.09204 4.7376 8.09204Z" fill="#C4552D"/>
<path d="M6.44605 5.19769C6.44605 5.19769 6.4052 5.93026 6.44605 5.98872C6.48691 6.04719 6.77852 6.04578 6.77852 6.04578C6.77852 6.04578 6.54044 6.67973 6.28122 6.81075C6.02201 6.94176 5.80224 6.1768 5.76068 6.00422C5.71912 5.83164 5.78956 5.80417 5.78956 5.80417L6.44605 5.19769Z" fill="#E1784E"/>
<path d="M5.76077 6.00282C5.81518 6.03875 5.87648 6.06294 5.94076 6.07386C6.00504 6.08477 6.07088 6.08217 6.1341 6.06621C6.34542 6.01127 6.42008 5.76685 6.42008 5.76685L6.44614 5.19629L5.8446 5.65907L5.7002 5.80559L5.76077 6.00282Z" fill="#C4552D"/>
<path d="M4.3794 5.39915C4.57382 5.64217 5.1641 5.89716 5.68957 5.92463C5.74733 5.92463 5.80439 5.92463 5.86004 5.92463C6.24111 5.9042 6.82857 5.26109 6.99622 4.81521C7.16386 4.36933 7.11244 3.52336 7.11244 3.52336C7.11244 3.52336 6.40805 1.9737 5.64731 2.12021C4.88657 2.26673 4.02721 3.06973 4.04975 3.50293C4.07229 3.93613 4.18358 4.14393 4.25402 4.54261C4.32446 4.9413 4.16386 5.12726 4.3794 5.39915Z" fill="url(#paint5_linear_1232_2477)"/>
<path d="M4.95905 4.72082C4.95905 4.72082 4.72378 4.05447 4.47091 3.95445C4.21803 3.85442 4.20817 4.11716 4.23775 4.25592C4.25943 4.39796 4.2719 4.54125 4.27509 4.6849C4.27509 4.6849 4.31735 4.90678 4.50472 4.96665C4.69209 5.02653 4.95905 4.72082 4.95905 4.72082Z" fill="#E1784E"/>
<path d="M6.54524 3.36628C6.54524 3.36628 6.10429 3.2719 5.79506 3.53463C5.5598 3.73468 5.74083 4.50528 5.74083 4.50528C5.9622 4.53371 6.18702 4.51791 6.40225 4.45879C6.48885 4.42957 6.56645 4.37849 6.62753 4.3105C6.68861 4.24251 6.73111 4.1599 6.75092 4.07068L6.71148 3.55154L6.54524 3.36628Z" fill="#E1784E"/>
<path d="M5.69211 5.92533C5.74987 5.92533 5.80692 5.92533 5.86257 5.92533C6.24365 5.9049 6.83111 5.26179 6.99875 4.81591C7.1664 4.37004 7.11498 3.52406 7.11498 3.52406C7.11498 3.52406 6.41059 1.9744 5.64984 2.12092C4.8891 2.26743 4.11357 3.2409 4.1347 3.6741C4.1347 3.6741 4.62214 2.94928 5.47304 2.82883C6.32395 2.70838 6.6367 3.37544 6.6846 3.89316C6.73249 4.41089 6.70009 4.79901 6.42961 5.23151C6.15912 5.664 5.95766 5.82672 5.86609 5.87814C5.81258 5.90723 5.75299 5.92339 5.69211 5.92533Z" fill="#E1784E"/>
<path d="M5.74072 4.5081C5.74072 4.5081 5.74072 3.90232 6.00487 3.78539C6.0894 3.75261 6.17982 3.73774 6.2704 3.74174C6.36098 3.74574 6.44974 3.76852 6.53105 3.80864C6.53105 3.80864 6.5881 4.0904 6.44159 4.27424C6.29508 4.45809 5.75974 4.52712 5.74072 4.5081Z" fill="white"/>
<path d="M5.87451 4.10801C5.90873 4.16643 5.94588 4.22309 5.9858 4.27777C6.01089 4.31442 6.04539 4.34365 6.08567 4.36236C6.12596 4.38108 6.17054 4.3886 6.21473 4.38413C6.35561 4.36441 6.44789 4.20733 6.42253 4.03193C6.41601 3.98257 6.39876 3.93523 6.37199 3.89324C6.34522 3.85126 6.30957 3.81565 6.26756 3.78892C6.22528 3.76339 6.17577 3.75249 6.12668 3.75792C6.119 3.75905 6.11145 3.76094 6.10414 3.76356C6.06246 3.80664 6.02946 3.85734 6.00694 3.91289C6.0013 3.92627 5.99637 3.93895 5.99215 3.95234C5.96045 4.03193 5.87874 4.02559 5.87451 4.10801Z" fill="url(#paint6_linear_1232_2477)"/>
<path d="M5.98337 4.05799C5.9878 4.09043 5.99831 4.12174 6.01436 4.15027C6.0301 4.18429 6.05589 4.21266 6.08827 4.23156C6.12064 4.25045 6.15803 4.25896 6.19539 4.25593C6.29541 4.24184 6.36092 4.12984 6.34331 4.00657C6.33916 3.96511 6.32388 3.92555 6.29908 3.89207C6.27428 3.85859 6.24088 3.83244 6.20243 3.81639C6.18 3.80784 6.15575 3.80518 6.132 3.80864C6.10414 3.81354 6.07796 3.82532 6.05582 3.84291C6.03367 3.8605 6.01628 3.88335 6.00521 3.90937C5.99957 3.92275 5.99464 3.93543 5.99041 3.94881C5.98096 3.9844 5.97856 4.02149 5.98337 4.05799Z" fill="#590800"/>
<path d="M5.73882 4.53416C5.74471 4.46085 5.75482 4.38794 5.76911 4.3158C5.77686 4.27565 5.78602 4.23198 5.79799 4.1883C5.83532 4.04742 5.88815 3.94036 5.98113 3.88401C6.00156 3.87133 6.03044 3.83118 6.05157 3.82343C6.23964 3.75299 6.42278 3.83681 6.53196 3.80934C6.65382 3.77976 6.71229 3.55013 6.71229 3.55013C6.66956 3.58202 6.62379 3.60963 6.57564 3.63254C6.4897 3.6741 6.25866 3.54379 5.94943 3.74524C5.92637 3.76013 5.9051 3.77762 5.88604 3.79737C5.84435 3.84071 5.81135 3.89164 5.78883 3.9474C5.78287 3.96014 5.77792 3.97333 5.77404 3.98685C5.74619 4.06915 5.7303 4.15502 5.72685 4.24184C5.7208 4.33943 5.72482 4.43739 5.73882 4.53416Z" fill="#E1784E"/>
<path d="M6.69239 3.68678C6.55285 3.63238 6.41005 3.58674 6.26482 3.55013C6.12988 3.51659 5.98972 3.50941 5.85205 3.52899C5.95026 3.52948 6.04768 3.54662 6.14015 3.57971C6.26201 3.63113 6.52756 3.78328 6.52756 3.78328L6.69239 3.68678Z" fill="#590800"/>
<path d="M6.54332 3.8833C6.54427 3.99964 6.51122 4.11373 6.44823 4.21155C6.38427 4.31137 6.29243 4.39023 6.18408 4.43836C6.18408 4.43836 6.40526 4.37215 6.4926 4.26226C6.57995 4.15238 6.54332 3.8833 6.54332 3.8833Z" fill="#590800"/>
<path d="M4.95885 4.72083C4.95885 4.72083 4.55312 4.0742 4.40168 4.14957C4.25024 4.22494 4.30588 4.49824 4.30588 4.49824C4.30588 4.49824 4.38407 4.81592 4.5172 4.85748C4.65033 4.89904 4.93772 4.80395 4.95885 4.72083Z" fill="white"/>
<path d="M4.43544 4.56374C4.44202 4.58394 4.44906 4.60366 4.45658 4.62291C4.51715 4.76379 4.63126 4.8455 4.72988 4.81592C4.76532 4.80155 4.7959 4.77733 4.81799 4.74612C4.84009 4.71491 4.85278 4.67802 4.85456 4.63982C4.85708 4.62515 4.85849 4.61032 4.85878 4.59544L4.87569 4.55388C4.85174 4.51162 4.82356 4.47147 4.79187 4.42216C4.74414 4.36255 4.69236 4.3063 4.6369 4.25381C4.61929 4.22986 4.59957 4.20873 4.58055 4.1876C4.56888 4.18781 4.55729 4.18946 4.54603 4.19253C4.51568 4.20231 4.4891 4.22126 4.46996 4.24677C4.44024 4.2934 4.42168 4.34625 4.41569 4.40123C4.4097 4.4562 4.41646 4.51181 4.43544 4.56374Z" fill="url(#paint7_linear_1232_2477)"/>
<path d="M4.48328 4.51021C4.5192 4.63207 4.61288 4.71167 4.69459 4.68842C4.72202 4.6767 4.74529 4.65699 4.76137 4.63187C4.77745 4.60674 4.7856 4.57736 4.78476 4.54754C4.7877 4.51598 4.78581 4.48415 4.77912 4.45315C4.73581 4.38375 4.68878 4.31673 4.63824 4.2524C4.61854 4.24232 4.59611 4.23886 4.57428 4.24254C4.55245 4.24622 4.53239 4.25684 4.51709 4.27283C4.49196 4.30637 4.47569 4.3457 4.46978 4.38719C4.46387 4.42868 4.46851 4.47099 4.48328 4.51021Z" fill="#590800"/>
<path d="M4.32482 4.50881C4.3861 4.48627 4.24382 4.12562 4.49529 4.22705H4.50233C4.51866 4.2343 4.53403 4.24353 4.54811 4.25452C4.64682 4.33563 4.73612 4.42754 4.81437 4.52853C4.84114 4.56163 4.86579 4.59192 4.88481 4.6208C4.93201 4.68138 4.96511 4.72646 4.97216 4.73632C4.96582 4.72364 4.93482 4.66025 4.88833 4.57572C4.86439 4.53275 4.83691 4.48486 4.80592 4.43484C4.76295 4.36522 4.71591 4.29818 4.66504 4.23409C4.64673 4.21085 4.62771 4.18901 4.60869 4.16858C4.52064 4.07349 4.42907 4.01221 4.34948 4.03898C4.21212 4.08476 4.25438 4.30171 4.26002 4.36441C4.26424 4.40174 4.26354 4.52853 4.32482 4.50881Z" fill="#E1784E"/>
<path d="M4.31306 4.45879C4.28199 4.33543 4.25847 4.21028 4.24263 4.08405C4.2341 4.0236 4.23601 3.96213 4.24826 3.90232C4.22235 3.99412 4.20768 4.08874 4.20459 4.18408C4.21204 4.28424 4.23584 4.38251 4.27503 4.47499L4.31306 4.45879Z" fill="#590800"/>
<path d="M4.38567 4.65602C4.38811 4.6726 4.39542 4.68808 4.40667 4.70049C4.41793 4.7129 4.43262 4.72169 4.44888 4.72574C4.46514 4.72979 4.48223 4.72891 4.49799 4.72322C4.51375 4.71753 4.52747 4.70729 4.53739 4.69379C4.54732 4.68029 4.55301 4.66414 4.55374 4.6474C4.55447 4.63067 4.55021 4.61409 4.5415 4.59977C4.53279 4.58546 4.52002 4.57406 4.50482 4.56702C4.48961 4.55997 4.47266 4.55761 4.45611 4.56022C4.43411 4.5637 4.41438 4.57571 4.4012 4.59364C4.38801 4.61158 4.38243 4.63399 4.38567 4.65602Z" fill="white"/>
<path d="M5.93294 4.31228C5.93527 4.32907 5.94256 4.34479 5.95387 4.35742C5.96518 4.37005 5.98 4.37902 5.99644 4.38318C6.01287 4.38734 6.03018 4.38651 6.04614 4.38078C6.0621 4.37506 6.07599 4.36471 6.08603 4.35105C6.09607 4.33739 6.10181 4.32104 6.10252 4.3041C6.10322 4.28716 6.09886 4.2704 6.08999 4.25595C6.08112 4.2415 6.06813 4.23003 6.05271 4.223C6.03728 4.21597 6.0201 4.2137 6.00338 4.21648C5.98147 4.22012 5.96185 4.23217 5.9487 4.25007C5.93554 4.26796 5.92988 4.29028 5.93294 4.31228Z" fill="white"/>
<path d="M5.39355 3.06621C5.39355 3.06621 5.56965 3.05846 5.82253 3.03944C6.0754 3.02042 6.11485 2.969 6.33532 3.00141C6.47111 3.02575 6.59676 3.08943 6.69668 3.18455C6.69668 3.18455 6.40083 3.04367 6.14866 3.11411C5.89649 3.18455 5.72955 3.27541 5.58867 3.28246C5.44779 3.2895 5.39355 3.06621 5.39355 3.06621Z" fill="#590800"/>
<path d="M4.45826 3.38248C4.38777 3.4749 4.30534 3.55756 4.21313 3.62832C4.05746 3.74947 4.02153 3.81146 4.0166 3.94529C4.01762 4.00945 4.0283 4.0731 4.0483 4.13407C4.03849 4.08682 4.03974 4.03795 4.05196 3.99127C4.06418 3.94459 4.08704 3.90137 4.11874 3.86499C4.22722 3.75511 4.34203 3.81568 4.45896 3.68326C4.57589 3.55083 4.45826 3.38248 4.45826 3.38248Z" fill="#590800"/>
<path d="M4.9591 4.72083C4.9591 4.72083 4.50899 4.35806 4.42165 4.45527C4.35896 4.52571 4.38713 4.57431 4.28077 4.55177C4.20047 4.53416 4.03564 4.37497 4.03564 4.37497C4.03564 4.37497 4.21174 4.48697 4.27936 4.42498C4.3329 4.37567 4.24274 4.19535 4.41179 4.18971C4.62733 4.18338 4.9591 4.72083 4.9591 4.72083Z" fill="#590800"/>
<path d="M5.74089 4.5081C5.74089 4.5081 5.79654 4.08053 6.10224 3.94458C6.29666 3.85865 6.3523 3.92486 6.56714 3.83681C6.62638 3.81527 6.67669 3.77449 6.71002 3.72098C6.74335 3.66748 6.75778 3.60434 6.75099 3.54167C6.75099 3.54167 6.77423 3.76074 6.45444 3.74031C6.23819 3.72693 6.05223 3.70791 5.89093 3.88119C5.72962 4.05447 5.74089 4.5081 5.74089 4.5081Z" fill="#590800"/>
<path d="M6.69889 4.41653C6.70187 4.50431 6.67714 4.59081 6.62821 4.66375C6.57929 4.7367 6.50864 4.7924 6.42629 4.82296C6.3054 4.86814 6.17582 4.88528 6.04733 4.87308C5.91884 4.86088 5.7948 4.81966 5.68457 4.75252C5.79308 4.847 5.91453 4.92551 6.04522 4.98567C6.17483 5.02371 6.21145 4.98567 6.25231 5.21037C6.29316 5.43508 6.13116 5.64076 6.13116 5.64076L6.60873 5.21249L6.85034 4.71941L6.69889 4.41653Z" fill="#E1784E"/>
<path opacity="0.2" d="M5.03489 4.87579C5.05756 4.70483 5.06087 4.53187 5.04475 4.36017C5.0282 4.21952 4.998 4.0808 4.95459 3.94599C5.05648 4.12093 5.12346 4.31398 5.15182 4.51443C5.17647 4.79478 5.08208 4.8455 5.03489 4.87579Z" fill="white"/>
<path d="M7.0468 4.13055C7.0468 4.13055 7.30742 3.55083 7.79627 3.58957C8.23721 3.62409 7.47506 4.77225 7.26515 4.80253C7.05525 4.83282 6.9834 4.73703 6.9834 4.73703L7.0468 4.13055Z" fill="#E1784E"/>
<path d="M7.10303 4.46442C7.21456 4.30836 7.341 4.16351 7.48058 4.03193C7.7088 3.82061 7.83278 3.78187 7.83278 3.78187C7.66397 3.83079 7.50696 3.91373 7.3714 4.02559C7.24185 4.14322 7.14872 4.29551 7.10303 4.46442Z" fill="#C4552D"/>
<path d="M7.28328 4.18689C7.25809 4.29225 7.25189 4.40126 7.26496 4.5088C7.29102 4.64968 7.48825 4.54402 7.48825 4.54402C7.48825 4.54402 7.35865 4.55388 7.33047 4.46442C7.3023 4.37497 7.36287 4.108 7.36287 4.108L7.28328 4.18689Z" fill="#C4552D"/>
<path opacity="0.2" d="M4.98082 4.85184C4.98082 4.85184 4.84558 5.16036 4.61243 5.2794C4.37927 5.39844 4.32715 5.01244 4.32715 5.01244C4.32715 5.01244 4.55396 5.054 4.65821 5.01244C4.76246 4.97088 4.98082 4.85184 4.98082 4.85184Z" fill="white"/>
<path opacity="0.2" d="M6.59576 4.42287C6.44298 4.50633 6.27559 4.55966 6.10268 4.57995C5.98586 4.59479 5.86825 4.60255 5.75049 4.60319C5.75049 4.60319 6.02379 4.86593 6.314 4.7807C6.39392 4.76061 6.46493 4.71459 6.51591 4.64984C6.56689 4.58509 6.59497 4.50527 6.59576 4.42287Z" fill="white"/>
<path d="M5.72607 4.24113C5.72607 4.24113 5.73946 3.73679 5.81412 3.6424C5.88879 3.54801 6.13955 3.63677 6.13955 3.63677C6.02838 3.71288 5.93176 3.80831 5.85427 3.91852C5.79678 4.01959 5.75363 4.12817 5.72607 4.24113Z" fill="url(#paint8_linear_1232_2477)"/>
<path d="M4.80625 4.43554C4.80625 4.43554 4.59493 4.03545 4.43504 4.00657C4.27514 3.97769 4.29416 4.18548 4.29416 4.18548C4.32271 4.16326 4.35648 4.14875 4.39225 4.14332C4.42802 4.13789 4.46458 4.14174 4.49843 4.15449C4.61536 4.19675 4.80625 4.43554 4.80625 4.43554Z" fill="url(#paint9_linear_1232_2477)"/>
<path d="M6.13383 5.38225C6.13383 5.38225 6.05001 5.61258 5.88096 5.68443C5.75487 5.73726 5.49072 5.66682 5.49072 5.66682C5.59715 5.66181 5.70185 5.63796 5.79995 5.59638C5.92006 5.53978 6.03229 5.4678 6.13383 5.38225Z" fill="#E1784E"/>
<path d="M5.16586 5.4224C5.16586 5.4224 5.07288 5.38436 5.03766 5.36464C5.00244 5.34492 5.03766 5.40902 5.05104 5.4541C5.06443 5.49918 5.16586 5.4224 5.16586 5.4224Z" fill="#E1784E"/>
<path d="M6.21767 4.86734C6.09728 4.98013 5.95012 5.06037 5.7901 5.10049C5.54427 5.166 5.36184 5.22165 5.28013 5.29068C5.23433 5.32722 5.19565 5.37187 5.16602 5.4224C5.16602 5.4224 5.23998 5.45762 5.55977 5.37239C5.87956 5.28716 6.21767 4.86734 6.21767 4.86734Z" fill="url(#paint10_linear_1232_2477)"/>
<path d="M6.18386 4.91594C6.18386 4.91594 5.9021 5.25264 5.70487 5.34491C5.57521 5.40129 5.43383 5.42546 5.29281 5.41535L5.16602 5.45409C5.16602 5.45409 5.62669 5.79079 5.85491 5.69077C6.08313 5.59075 6.18386 4.91594 6.18386 4.91594Z" fill="url(#paint11_linear_1232_2477)"/>
<path d="M6.21775 4.86734C6.21775 4.86734 5.89373 5.22869 5.5838 5.3428C5.41736 5.41116 5.23531 5.43236 5.05762 5.40409L5.06959 5.43367C5.06959 5.43367 5.40136 5.59145 5.7134 5.49354C5.91909 5.43015 6.20648 4.89481 6.20648 4.89481L6.21775 4.86734Z" fill="#590800"/>
<path d="M5.06738 4.97159C5.06738 4.97159 5.37591 4.93496 5.44353 4.87791C5.51115 4.82085 5.4717 4.69829 5.4717 4.69829C5.4717 4.69829 5.53087 4.79408 5.57173 4.80817C5.61258 4.82226 5.67668 4.77788 5.67668 4.77788C5.65416 4.82455 5.61418 4.86048 5.56539 4.87791C5.49495 4.892 5.31181 4.96666 5.22587 4.98497C5.13994 5.00329 5.07584 4.98991 5.06738 4.97159Z" fill="#E1784E"/>
<path d="M5.67678 4.77506C5.58795 4.82875 5.49345 4.87245 5.39502 4.90537C5.28619 4.94377 5.17272 4.96746 5.05762 4.97581C5.05762 4.97581 5.20765 5.08359 5.33937 5.04625C5.40507 5.02791 5.46188 4.98637 5.49927 4.92932C5.51712 4.94008 5.53722 4.94657 5.55799 4.94828C5.57876 4.94999 5.59965 4.94688 5.61902 4.93919C5.70425 4.92228 5.67678 4.77506 5.67678 4.77506Z" fill="#E1784E"/>
<path d="M5.59314 4.93989C5.59314 4.93989 5.59314 4.91594 5.50298 4.93425C5.41281 4.95257 5.41211 4.98778 5.41211 4.98778C5.4431 4.98476 5.4739 4.98006 5.50438 4.9737C5.53536 4.96649 5.56522 4.95511 5.59314 4.93989Z" fill="#590800"/>
<path d="M5.31104 5.41465C5.41147 5.44283 5.51772 5.44283 5.61815 5.41465C5.81397 5.37098 6.00697 5.11317 6.03726 5.07724C6.05458 5.05669 6.06731 5.03267 6.07459 5.00681C6.07459 5.00681 5.8513 5.24137 5.63083 5.32519C5.52909 5.37025 5.42138 5.40038 5.31104 5.41465Z" fill="white"/>
<path d="M8.58162 4.21578C8.29422 4.49331 8.11812 4.45386 8.11812 4.45386C8.11812 4.45386 7.96527 4.77224 7.73635 4.86734C7.50742 4.96243 7.5518 5.02442 7.25666 5.05823C6.96152 5.09204 6.91432 4.73703 6.91432 4.73703C6.91432 4.73703 7.17284 4.73703 7.18481 4.60742C7.19678 4.47781 6.846 4.58417 6.79106 4.12561C6.73611 3.66706 6.54734 2.9845 5.9324 2.87884C5.64639 2.82433 5.35764 2.78529 5.06741 2.76191C5.06741 2.76191 4.94907 3.00986 4.51306 3.38319C4.07704 3.75651 4.05168 4.15802 4.05168 4.15802C3.98317 3.90273 3.92768 3.64411 3.88544 3.38319C3.87065 3.29514 3.85093 3.20991 3.83191 3.12538C3.78827 2.96041 3.75951 2.79185 3.74597 2.62174C3.73066 2.36833 3.81168 2.11849 3.97279 1.92228C4.09887 1.75957 4.43416 1.76661 4.72719 1.81028C4.8937 1.83585 5.0584 1.87208 5.22026 1.91876H5.23153C5.23153 1.91876 5.59782 1.56656 6.47549 1.48063L6.59664 1.47077C7.56518 1.40878 7.56518 1.85043 7.4884 2.05611C7.41574 2.21472 7.31692 2.35997 7.19608 2.48579C7.4513 2.79516 7.78337 3.032 8.15898 3.17257C8.74574 3.37192 8.72813 3.32895 8.7873 3.38389C8.84647 3.43883 8.86901 3.93825 8.58162 4.21578Z" fill="url(#paint12_linear_1232_2477)"/>
<path opacity="0.77" d="M5.87481 2.86898C6.09844 2.86454 6.32205 2.87892 6.54328 2.91195C6.91519 2.96689 7.31458 3.26415 7.31458 3.26415L7.01874 2.86828C7.01874 2.86828 7.26175 2.95914 7.60198 3.06621C7.9422 3.17328 8.09505 3.14863 8.09505 3.14863C8.09505 3.14863 7.84217 2.98802 7.49068 2.78093C7.13919 2.57384 5.49726 2.40972 5.16619 2.48016C4.83513 2.5506 5.06758 2.76191 5.06758 2.76191L5.87481 2.86898Z" fill="#590800"/>
<path opacity="0.77" d="M7.48852 2.05612C7.41586 2.21472 7.31704 2.35997 7.1962 2.48579C7.1962 2.48579 5.57047 2.38014 5.0943 2.46325C4.61813 2.54637 3.83203 3.12538 3.83203 3.12538C3.78839 2.96041 3.75963 2.79185 3.74609 2.62174C3.77145 2.60061 4.18352 2.26955 4.47021 2.01737C4.55196 1.94343 4.6383 1.87474 4.72872 1.81169C4.89523 1.83726 5.05993 1.87349 5.22179 1.92017H5.23306C5.23306 1.92017 5.15065 2.13149 5.59512 2.03146C6.02762 1.93496 6.45588 1.50387 6.47702 1.48204L6.59817 1.47218C7.5653 1.40878 7.5653 1.85043 7.48852 2.05612Z" fill="#590800"/>
<path style="mix-blend-mode:color-dodge" opacity="0.29" d="M7.01807 3.64803C7.37716 3.69368 7.74161 3.67242 8.09297 3.58534C8.65648 3.43954 8.72269 3.41629 8.72269 3.41629C8.72269 3.41629 8.73467 3.49941 8.63464 3.80371C8.56362 3.9955 8.42616 4.15546 8.24723 4.25452C8.26429 4.17111 8.26833 4.08557 8.2592 4.00093C8.25901 3.9256 8.24713 3.85075 8.22398 3.77905C8.15776 4.02613 8.07323 4.26793 7.97111 4.50246C7.83023 4.8131 7.31391 4.87297 7.31391 4.87297C7.39228 4.80096 7.45186 4.71088 7.48747 4.61058C7.52307 4.51028 7.53361 4.40279 7.51818 4.29748C7.46676 3.93543 7.01807 3.64803 7.01807 3.64803Z" fill="url(#paint13_linear_1232_2477)"/>
<path d="M5.18718 7.37708L5.0463 7.4771C4.90542 7.57713 4.71453 7.8293 4.50673 8.25193C4.29894 8.67457 3.73543 9.63536 3.62061 9.67832C3.58257 9.69241 3.53045 9.60788 3.47973 9.48884C3.37548 9.24442 3.26842 8.83235 3.2825 8.66611C3.29609 8.5493 3.32133 8.43415 3.35787 8.32237C3.43813 8.05912 3.53627 7.80165 3.6516 7.55177C3.76994 7.30664 4.29612 6.19863 4.58703 5.96196C4.60664 5.94469 4.62935 5.93131 4.65395 5.92251C4.92092 5.83939 5.32594 6.00352 5.32594 6.00352C5.46048 6.52336 5.18718 7.37708 5.18718 7.37708Z" fill="url(#paint14_linear_1232_2477)"/>
<path d="M3.62051 9.67832C3.49724 9.86146 2.78722 9.63606 2.63788 9.38671C2.50671 9.12745 2.38916 8.86154 2.28569 8.59004C2.13495 8.21953 1.98844 7.84127 1.93349 7.71519C1.83417 7.47217 1.50241 7.34538 1.28475 7.18548C1.09879 7.04813 0.910719 6.71988 0.73603 6.58253C0.561341 6.44517 0.470475 6.38741 0.507808 6.34937C0.545141 6.31134 0.698699 6.42897 0.814923 6.49518C0.875486 6.52874 0.933834 6.56615 0.989611 6.60718C0.929904 6.49829 0.854422 6.39884 0.765615 6.31204C0.64446 6.2085 0.569795 6.16694 0.561342 6.1127C0.559563 6.10608 0.559143 6.09917 0.560108 6.09238C0.561074 6.0856 0.563404 6.07908 0.566959 6.07322C0.570514 6.06736 0.57522 6.06228 0.580792 6.05829C0.586364 6.0543 0.592686 6.05148 0.599378 6.05001C0.599378 6.05001 0.55782 5.91617 0.607127 5.90208C0.656435 5.888 0.919173 6.09579 1.01497 6.15003C1.08954 6.19686 1.15916 6.25114 1.22276 6.31204C1.1811 6.21256 1.12613 6.1192 1.05935 6.03451C0.976229 5.94576 0.785339 5.88377 0.7952 5.85207C0.81915 5.7767 1.03962 5.85207 1.16853 5.93801C1.29743 6.02394 1.45944 6.30007 1.52636 6.38318C1.57209 6.43553 1.61091 6.49353 1.64188 6.55576C1.61166 6.45385 1.58697 6.35039 1.56791 6.24583C1.54678 6.1127 1.48902 6.06691 1.50523 5.96407C1.52143 5.86123 1.58412 5.85912 1.60948 5.89927C1.63483 5.93942 1.63836 6.09297 1.68414 6.18102C1.72993 6.26907 1.87996 6.47616 1.90884 6.55153C1.93772 6.6269 1.99548 7.09884 2.04197 7.24818C2.08846 7.39751 2.721 7.87508 3.17533 8.16388C3.24356 8.20781 3.30462 8.26198 3.35636 8.32448C3.55017 8.57023 3.66903 8.86664 3.6987 9.17821C3.72194 9.38107 3.69799 9.56492 3.62051 9.67832Z" fill="url(#paint15_linear_1232_2477)"/>
<path d="M1.57775 6.28739C1.58647 6.36086 1.58647 6.4351 1.57775 6.50857L1.56084 6.58746C1.51246 6.63741 1.47056 6.69326 1.43617 6.7537C1.36995 6.8657 1.43617 7.02841 1.43617 7.02841C1.43617 7.02841 1.38052 6.84527 1.49604 6.77413C1.61156 6.70298 1.67566 6.66424 1.65241 6.58324C1.62917 6.50223 1.57775 6.28739 1.57775 6.28739Z" fill="#E1784E"/>
<path d="M0.996094 6.6579C1.03369 6.56579 1.08843 6.48165 1.1574 6.40996C1.21346 6.35142 1.28428 6.30908 1.36238 6.28739C1.29574 6.36613 1.22035 6.43702 1.13768 6.49871C1.07828 6.53951 1.02968 6.59414 0.996094 6.6579Z" fill="#E1784E"/>
<path d="M5.18703 7.37708L5.04615 7.47711C4.90527 7.57713 4.71438 7.8293 4.50659 8.25194C4.29879 8.67457 3.73528 9.63536 3.62047 9.67833C3.4972 9.86147 2.78717 9.63607 2.63784 9.38671C2.50667 9.12746 2.38911 8.86154 2.28564 8.59005C2.35913 8.77652 2.45366 8.95401 2.5674 9.11904C2.88719 9.58958 3.13655 9.61775 3.28236 9.60507C3.32142 9.59982 3.35904 9.58684 3.39303 9.56689C3.42701 9.54693 3.45668 9.5204 3.48029 9.48885C3.5619 9.39056 3.63562 9.28599 3.70077 9.1761L3.74373 9.10566C3.9635 8.75346 4.69466 7.40667 4.65381 6.74172C4.61295 6.07678 4.54885 6.00916 4.54885 6.00916L4.58759 5.96055C4.6072 5.94329 4.62991 5.9299 4.65451 5.92111C4.92147 5.83799 5.3265 6.00211 5.3265 6.00211C5.46033 6.52336 5.18703 7.37708 5.18703 7.37708Z" fill="#E1784E"/>
<path d="M2.46143 7.65461C2.46143 7.65461 2.95873 8.09133 3.28275 8.35266C3.60677 8.61399 3.63494 8.84573 3.63494 8.84573C3.63494 8.84573 3.53985 8.45409 3.3081 8.21671C3.07636 7.97933 2.46143 7.65461 2.46143 7.65461Z" fill="#E1784E"/>
<path opacity="0.2" d="M8.21742 9.23949C8.12926 9.32595 8.07587 9.44174 8.06738 9.56492C8.06738 9.74947 8.70133 9.98756 9.12397 10.1813C9.5466 10.375 9.92557 10.5595 9.92557 10.5595C9.92557 10.5595 8.56046 9.31557 8.21742 9.23949Z" fill="white"/>
<path opacity="0.2" d="M3.4715 9.05987C3.26483 8.67932 3.01372 8.32465 2.72344 8.00328C2.23671 7.46372 1.93945 7.32143 1.93945 7.32143C2.16659 7.69072 2.36103 8.07915 2.52058 8.48227C2.74105 9.07185 3.4715 9.05987 3.4715 9.05987Z" fill="white"/>
<path opacity="0.2" d="M3.90596 8.25123C3.90596 8.25123 3.74958 7.98216 3.81298 7.70815C3.87637 7.43414 4.31662 6.5769 4.4103 6.41277L4.50469 6.24865C4.5007 6.58338 4.47718 6.9176 4.43425 7.24959C4.36945 7.65743 3.90596 8.25123 3.90596 8.25123Z" fill="white"/>
<path d="M9.63481 15.8002C9.61086 15.7924 9.28966 15.7002 8.66063 16.2228C8.00626 16.7666 7.34131 17.4759 6.09947 17.4759C4.85763 17.4759 4.6287 16.5046 4.31666 16.2277C4.05744 15.9974 3.97996 15.9382 3.96446 15.946C3.97297 15.9203 3.9861 15.8965 4.0032 15.8756C4.02211 15.8479 4.04599 15.824 4.07364 15.8051C4.07774 15.8031 4.08135 15.8002 4.08421 15.7967C4.12154 15.7551 4.07012 15.6361 3.88557 15.1838C3.68553 14.6964 3.07623 12.5008 3.06496 12.2789C3.05369 12.0571 3.23119 11.1519 3.69257 10.9406C4.15394 10.7293 5.1408 9.96783 5.18236 9.8347C5.22391 9.70157 5.21617 9.51843 4.97104 8.98943C4.84106 8.71793 4.74955 8.42965 4.69914 8.13289V8.11598L4.85693 8.01596C5.01471 7.91664 5.04711 7.47569 5.16404 7.02981C5.28097 6.58393 5.24082 5.90208 5.24082 5.90208L5.76418 6.00633C5.76418 6.00633 5.84589 6.3064 6.07552 6.42897C6.13425 6.4599 6.19935 6.47677 6.26571 6.47828C6.64185 6.48814 6.78132 6.05001 6.78132 6.05001L7.25608 6.06621C7.3552 6.35893 7.48111 6.64189 7.63223 6.91148C7.83157 7.23338 8.27534 7.61023 8.29717 7.89199C8.29738 7.9616 8.28373 8.03056 8.25702 8.09485C8.13305 8.44705 7.76395 8.97957 7.76395 8.97957C7.75009 9.10395 7.71977 9.22593 7.67379 9.34233C7.65124 9.40572 7.62236 9.47616 7.58644 9.55365C7.43006 9.89105 6.67073 10.3489 6.5855 10.6321C6.58063 10.6483 6.57802 10.6651 6.57775 10.6821C6.57775 10.9596 7.39766 12.922 7.60898 13.4292C7.8203 13.9364 7.91891 15.1472 7.91891 15.1472C7.91891 15.1472 8.09642 15.0479 8.55287 15.2029C8.92126 15.3289 9.40518 15.6431 9.57634 15.7586L9.63481 15.8002Z" fill="url(#paint16_linear_1232_2477)"/>
<path opacity="0.5" d="M8.25404 8.09203C8.13006 8.44423 7.76096 8.97675 7.76096 8.97675C7.76096 8.97675 6.70437 8.84644 6.26131 8.97675C5.81825 9.10706 5.65624 9.76144 5.36321 10.1228C5.16517 10.3588 4.93957 10.5702 4.69123 10.7525L4.99482 10.3454C4.8793 10.4863 4.21083 11.0441 3.9016 11.2378C3.54941 11.4583 3.72551 13.0784 4.12983 13.8885C4.53415 14.6985 4.72011 14.9451 4.95819 15.1824C5.19627 15.4198 5.36251 15.3987 5.36251 15.3987C5.36251 15.3987 5.20473 15.579 4.85253 15.455C4.66581 15.3946 4.48829 15.3088 4.32494 15.2C4.32494 15.2 4.37918 15.6572 4.53626 15.8382C4.69334 16.0192 5.04624 16.0185 5.56608 16.5208C5.70499 16.6611 5.88551 16.7527 6.08074 16.782C6.27597 16.8113 6.47544 16.7768 6.64943 16.6835C6.57899 16.7293 6.07254 17.0498 5.78585 16.9343C5.47803 16.8117 5.32799 16.4412 4.94058 16.2038C4.66443 16.0435 4.37243 15.9123 4.06925 15.8122C4.1249 15.7791 4.08052 15.679 3.88118 15.1909C3.68183 14.7027 3.07183 12.5079 3.06056 12.286C3.04929 12.0641 3.2268 11.159 3.68817 10.9476C4.14955 10.7363 5.1364 9.97487 5.17796 9.84174C5.21952 9.70861 5.21177 9.52547 4.96664 8.99647C4.83666 8.72497 4.74515 8.43669 4.69475 8.13993V8.12303L4.85253 8.023C5.01031 7.92369 5.04272 7.48274 5.15965 7.03686C5.27657 6.59098 5.24065 5.90208 5.24065 5.90208L5.76401 6.00633C5.76401 6.00633 5.88939 6.4663 6.26624 6.47616C6.64309 6.48602 6.78186 6.04789 6.78186 6.04789L7.25662 6.06409C7.35573 6.35682 7.48165 6.63978 7.63276 6.90936C7.63276 6.90936 7.18759 7.09462 6.44939 6.87767L5.71118 6.66001C5.71118 6.66001 5.51536 7.18055 5.64074 7.65531C5.76613 8.13007 6.27117 8.24982 6.85441 8.25193C7.43765 8.25405 8.25404 8.09203 8.25404 8.09203Z" fill="#FFA24D"/>
<path opacity="0.5" d="M8.98232 15.3987C8.98232 15.3987 8.37232 15.2578 7.84403 15.3987C7.44534 15.505 7.02271 15.7784 6.61134 15.8298L6.20068 15.8812C6.51548 15.7805 6.81866 15.6466 7.10512 15.4818C7.63271 15.1881 8.06168 15.0704 8.30258 15.1359C8.53412 15.2101 8.76109 15.2979 8.98232 15.3987Z" fill="#FFA24D"/>
<path opacity="0.5" d="M4.50488 11.2322C4.50488 11.2322 5.1325 11.7366 5.59317 12.1007C5.8816 12.3237 6.22012 12.4729 6.57931 12.5353C6.57931 12.5353 5.90451 12.5938 5.36776 12.2648C4.83102 11.9359 4.50488 11.2322 4.50488 11.2322Z" fill="#FFA24D"/>
<path opacity="0.5" d="M6.57892 11.1322C6.57892 11.1322 6.62189 11.6344 6.50285 11.8859C6.41973 12.0606 6.10205 12.2501 6.10205 12.2501C6.10205 12.2501 6.512 12.1627 6.67049 11.9683C6.82898 11.7739 6.57892 11.1322 6.57892 11.1322Z" fill="#FFA24D"/>
<path opacity="0.5" d="M5.93115 7.24959C6.12364 7.50498 6.38918 7.69584 6.6926 7.7969C7.17158 7.93778 7.46743 7.85677 7.46743 7.85677C7.46743 7.85677 6.9173 7.69828 6.59398 7.51655C6.38452 7.40136 6.16198 7.31174 5.93115 7.24959Z" fill="#FFA24D"/>
<path opacity="0.5" d="M6.69873 7.29326C6.69873 7.29326 6.81143 7.32284 7.20448 7.37567C7.41256 7.40949 7.62472 7.40949 7.8328 7.37567C7.8328 7.37567 7.38128 7.56304 7.12277 7.51021C6.96476 7.47657 6.81847 7.40172 6.69873 7.29326Z" fill="#FFA24D"/>
<path style="mix-blend-mode:color-dodge" opacity="0.47" d="M4.15094 11.6915C4.15094 11.6915 5.01522 12.641 5.83654 12.9227C6.65786 13.2045 7.28055 13.3806 7.28055 13.3806C7.28055 13.3806 7.56582 13.9927 7.71516 14.3224C7.86449 14.652 7.71516 15.0268 7.71516 15.0268C7.71516 15.0268 5.57028 15.2472 4.8504 14.5696C4.13051 13.892 4.15094 11.6915 4.15094 11.6915Z" fill="url(#paint17_linear_1232_2477)"/>
<path style="mix-blend-mode:color-dodge" opacity="0.47" d="M7.67223 9.33952C7.64969 9.40291 7.62081 9.47335 7.58489 9.55083C7.42851 9.88824 6.66918 10.3461 6.58395 10.6293C6.46016 10.68 6.33186 10.7189 6.20076 10.7455C5.82532 10.8117 5.54004 10.4377 5.54004 10.4377C5.54004 10.4377 6.00705 9.56563 6.40996 9.46842C6.81287 9.37121 7.67223 9.33952 7.67223 9.33952Z" fill="url(#paint18_linear_1232_2477)"/>
<path opacity="0.5" d="M5.41748 17.1096C5.60534 17.2128 5.81208 17.2771 6.02534 17.2985C6.2386 17.3199 6.45399 17.2981 6.65862 17.2343C7.05956 17.109 7.43841 16.9218 7.78142 16.6793C7.78142 16.6793 6.92981 17.0653 6.41208 17.1723C6.08044 17.2336 5.73881 17.212 5.41748 17.1096Z" fill="#FFA24D"/>
<path d="M9.6347 15.8002C9.61075 15.7924 9.28955 15.7002 8.66053 16.2228C8.00615 16.7666 7.3412 17.4759 6.09936 17.4759C4.85752 17.4759 4.6286 16.5046 4.31655 16.2277C4.05734 15.9974 3.97985 15.9382 3.96436 15.946L4.00098 15.8805C4.00098 15.8805 4.41094 16.0608 4.58704 16.4503C4.76313 16.8399 5.10969 17.471 6.15431 17.4301C7.19892 17.3893 7.79201 16.9131 8.49077 16.2735C9.16487 15.6565 9.54736 15.7502 9.57342 15.7572L9.6347 15.8002Z" fill="url(#paint19_linear_1232_2477)"/>
<path d="M6.0721 6.42333C6.04956 6.42333 5.58889 6.37755 5.49098 6.37755C5.39307 6.37755 5.32193 7.10307 5.3008 7.56515C5.27966 8.02723 5.17894 8.25123 5.17894 8.25123L5.16626 8.09203C5.16626 8.09203 5.05637 8.37379 5.08596 8.55552C5.11554 8.73726 5.27473 9.29513 5.3008 9.58253C5.32686 9.86992 5.08948 10.177 4.95635 10.2517C4.82322 10.3264 4.23012 11.0082 3.79763 11.1322C3.36513 11.2562 3.33061 12.841 3.51235 13.375C3.69408 13.9089 4.06741 14.7344 4.15123 15.0585C4.23505 15.3825 4.15123 15.8298 4.15123 15.8298L4.08079 15.8037C4.11812 15.7621 4.0667 15.6431 3.88215 15.1909C3.68211 14.7034 3.07281 12.5079 3.06154 12.286C3.05027 12.0641 3.22777 11.159 3.68915 10.9476C4.15053 10.7363 5.13738 9.97487 5.17894 9.84174C5.22049 9.70861 5.21275 9.52547 4.96762 8.99647C4.83764 8.72497 4.74613 8.43669 4.69572 8.13993V8.12303L4.85351 8.023C5.01129 7.92369 5.04369 7.48274 5.16062 7.03686C5.27755 6.59098 5.24092 5.90208 5.24092 5.90208L5.76428 6.00633C5.76428 6.00633 5.84247 6.30288 6.0721 6.42333Z" fill="#FFA24D"/>
<path d="M5.74769 5.96337L5.67725 5.98591C5.67725 5.98591 5.93294 6.91007 6.59859 6.9629C7.26424 7.01573 6.77609 6.0972 6.65705 6.01056C6.58878 5.96117 6.51219 5.92443 6.43094 5.90208V5.96266C6.43094 5.96266 6.58168 5.98872 6.72608 6.22892C6.87048 6.46912 7.02263 6.93331 6.49997 6.82765C5.97732 6.722 5.74769 5.96337 5.74769 5.96337Z" fill="url(#paint20_linear_1232_2477)"/>
<path d="M5.6748 5.98591C6.19615 6.41334 6.68843 6.87503 7.14839 7.36792C7.86335 8.14275 9.15379 7.13759 9.9258 6.79103C10.7267 6.43179 11.648 7.40596 10.6302 7.88072C9.61235 8.35548 7.74219 7.4123 7.39422 6.96501C7.04625 6.51772 6.77718 6.11059 6.68983 6.04156C6.62777 5.99797 6.55432 5.97349 6.47851 5.97112C6.47851 5.97112 6.69688 6.12397 7.02371 6.58182C7.35055 7.03968 7.66823 7.42709 8.67199 7.78774C9.67575 8.14839 10.5034 8.13994 10.9613 7.7497C11.4191 7.35947 11.0373 6.65226 10.3569 6.60507C9.67645 6.55787 8.62409 7.69687 7.87603 7.60319C7.12796 7.50951 6.74407 6.75017 6.35384 6.43038C5.9784 6.12327 5.7537 5.96196 5.7537 5.96196L5.6748 5.98591Z" fill="url(#paint21_linear_1232_2477)"/>
<path opacity="0.5" d="M5.14404 15.7185C5.14404 15.7185 5.6984 15.8875 6.0992 15.5776C6.33466 15.3906 6.61063 15.2613 6.90502 15.2C6.90502 15.2 6.31263 15.4564 6.07172 15.7636C5.83082 16.0707 5.14404 15.7185 5.14404 15.7185Z" fill="#FFA24D"/>
<path style="mix-blend-mode:color-dodge" opacity="0.66" d="M5.54102 16.0791C5.54102 16.0791 6.48631 16.3066 7.14984 15.8298C8.02681 15.2 9.07213 15.448 9.07213 15.448L9.45813 15.6819C9.45813 15.6819 8.95731 15.5051 8.03245 16.0834C7.10758 16.6617 6.52434 16.6264 6.07212 16.4546C5.61991 16.2827 5.54102 16.0791 5.54102 16.0791Z" fill="url(#paint22_linear_1232_2477)"/>
<path d="M7.48869 2.78023C7.48869 2.78023 7.7951 2.97675 8.2924 2.91195C8.7897 2.84714 8.72348 3.23245 8.72348 3.23245C8.72348 3.23245 8.66643 2.90631 8.31846 3.00634C7.97049 3.10636 7.71832 3.20991 7.46755 3.12538C7.21679 3.04085 7.23722 2.74149 7.23722 2.74149L7.48869 2.78023Z" fill="url(#paint23_linear_1232_2477)"/>
<path d="M7.00923 2.35126C7.00923 2.35126 6.75424 2.0857 6.6683 1.91735C6.6199 1.83498 6.59324 1.74166 6.59082 1.64616L6.65492 1.56375C6.65492 1.56375 6.60984 1.60178 6.67746 1.75393C6.7195 1.84467 6.7931 1.91702 6.88455 1.9575C6.81919 1.86631 6.76392 1.7683 6.71972 1.66518C6.6676 1.5243 6.75283 1.23127 6.75283 1.23127C6.81236 1.16804 6.84906 1.08672 6.85708 1.00023C6.87506 0.91553 6.88287 0.828982 6.88032 0.742427C6.88032 0.742427 7.03599 0.986146 7.11418 1.11928L7.19026 1.25311C7.19026 1.25311 7.04304 0.950927 6.99937 0.812162C6.95569 0.673397 6.92118 0.498003 6.92118 0.498003L6.99162 0.409955C6.99059 0.490794 7.00297 0.571245 7.02825 0.648039C7.07138 0.746399 7.12961 0.837422 7.20082 0.91782C7.20082 0.91782 7.09164 0.462784 7.13038 0.326132C7.15658 0.24107 7.20133 0.162882 7.2614 0.0972051C7.25563 0.165929 7.25918 0.235117 7.27196 0.302887C7.27665 0.353758 7.289 0.403628 7.30859 0.450809C7.29686 0.341086 7.29122 0.230797 7.29169 0.12045C7.30014 0.0500108 7.30507 0.00845203 7.30507 0.00845203C7.3594 -0.0028581 7.41564 -0.00116863 7.4692 0.0133827C7.5347 0.0394452 7.53963 0.376848 7.53963 0.376848C7.58777 0.29425 7.62945 0.208058 7.66431 0.119041C7.67796 0.082504 7.68534 0.0439247 7.68615 0.00492986L7.7263 0.0366275C7.71779 0.107846 7.69806 0.177267 7.66783 0.24231C7.64516 0.300519 7.6161 0.356035 7.58119 0.407841C7.64775 0.355709 7.70594 0.293711 7.75377 0.223995C7.78431 0.177108 7.80802 0.126116 7.82421 0.0725516L7.85168 0.119746C7.8189 0.19447 7.77364 0.263071 7.71785 0.32261C7.6625 0.381473 7.61405 0.446463 7.57344 0.516318C7.57344 0.516318 7.64952 0.543084 7.75095 0.421225C7.81018 0.354754 7.8578 0.278794 7.89183 0.196524C7.89183 0.196524 7.90169 0.355716 7.90873 0.55999C7.91578 0.764263 7.78406 0.74454 7.69108 0.841746C7.5981 0.938952 7.52625 1.21014 7.52625 1.21014C7.52625 1.21014 7.59669 1.1397 7.73757 1.02982C7.81518 0.970182 7.87988 0.895417 7.92775 0.810048C7.92775 0.810048 7.92141 0.910072 7.80026 1.1545C7.6791 1.39892 7.47553 1.51162 7.42904 1.59474L7.38255 1.67715C7.38255 1.67715 7.51287 1.54473 7.63473 1.44611C7.69002 1.40637 7.73936 1.35893 7.78124 1.30524L7.79251 1.35525C7.79251 1.35525 7.69178 1.45386 7.59176 1.53487C7.49174 1.61587 7.35367 1.76168 7.35367 1.76168C7.35367 1.76168 7.51428 1.63912 7.63543 1.55459C7.75659 1.47006 7.77631 1.42357 7.77631 1.42357C7.72751 1.55215 7.6852 1.6831 7.64952 1.81592C7.61007 1.98145 7.4382 2.1343 7.36776 2.1984C7.26974 2.26386 7.16487 2.31842 7.05501 2.36112L7.00923 2.35126Z" fill="url(#paint24_linear_1232_2477)"/>
<path d="M6.93604 2.54073C7.05346 2.24613 7.15412 1.9451 7.23751 1.63911C7.36712 1.1559 7.53758 0.44165 7.53758 0.44165C7.53758 0.44165 7.36571 1.24606 7.31007 1.54966C7.25442 1.85325 7.01211 2.48931 7.01211 2.48931L6.93604 2.54073Z" fill="url(#paint25_linear_1232_2477)"/>
<path d="M3.81287 3.27894C3.81287 3.27894 3.74243 2.67809 4.8758 2.34351C6.00916 2.00892 7.19606 2.48438 7.19606 2.48438L7.48838 2.77882C7.48838 2.77882 5.99155 2.50763 5.06739 2.7598C4.14323 3.01197 3.93262 3.59803 3.93262 3.59803L3.81287 3.27894Z" fill="url(#paint26_linear_1232_2477)"/>
<path style="mix-blend-mode:color-dodge" opacity="0.57" d="M3.88695 3.47617C4.00685 3.26094 4.16949 3.0725 4.36488 2.92242C4.56026 2.77234 4.78427 2.66378 5.02313 2.60343C5.83107 2.40338 6.24666 2.46255 6.24666 2.46255L6.07549 2.29561C6.07549 2.29561 5.23022 2.23151 4.54908 2.54003C3.86793 2.84855 3.81299 3.23174 3.81299 3.23174L3.88695 3.47617Z" fill="url(#paint27_linear_1232_2477)"/>
<path d="M3.81292 3.23245C3.81292 3.23245 3.76502 2.55623 4.6927 2.18643C5.62039 1.81662 7.23696 2.44071 7.23696 2.44071L7.19611 2.4858C7.19611 2.4858 5.7831 1.94482 4.80611 2.22447C3.82912 2.50411 3.81292 3.23245 3.81292 3.23245Z" fill="url(#paint28_linear_1232_2477)"/>
</g>
<defs>
<linearGradient id="paint0_linear_1232_2477" x1="3.27205" y1="4.63841" x2="4.10605" y2="4.63841" gradientUnits="userSpaceOnUse">
<stop stop-color="#CC1613"/>
<stop offset="1" stop-color="#6F160D"/>
</linearGradient>
<linearGradient id="paint1_linear_1232_2477" x1="3.12256" y1="4.41019" x2="4.50316" y2="4.41019" gradientUnits="userSpaceOnUse">
<stop stop-color="#CC1613"/>
<stop offset="1" stop-color="#6F160D"/>
</linearGradient>
<linearGradient id="paint2_linear_1232_2477" x1="7.72809" y1="23.2942" x2="6.88775" y2="17.1512" gradientUnits="userSpaceOnUse">
<stop stop-color="#FDC38B"/>
<stop offset="1" stop-color="#FD835D"/>
</linearGradient>
<linearGradient id="paint3_linear_1232_2477" x1="3.27544" y1="18.3881" x2="2.76335" y2="14.6436" gradientUnits="userSpaceOnUse">
<stop stop-color="#FDC38B"/>
<stop offset="1" stop-color="#FD835D"/>
</linearGradient>
<linearGradient id="paint4_linear_1232_2477" x1="9.71413" y1="11.0174" x2="9.01185" y2="5.88448" gradientUnits="userSpaceOnUse">
<stop stop-color="#FDC38B"/>
<stop offset="1" stop-color="#FD835D"/>
</linearGradient>
<linearGradient id="paint5_linear_1232_2477" x1="5.58108" y1="5.88611" x2="5.56366" y2="2.07107" gradientUnits="userSpaceOnUse">
<stop stop-color="#FDC38B"/>
<stop offset="1" stop-color="#FD835D"/>
</linearGradient>
<linearGradient id="paint6_linear_1232_2477" x1="6.38581" y1="4.02758" x2="5.83909" y2="4.11042" gradientUnits="userSpaceOnUse">
<stop stop-color="#A43113"/>
<stop offset="1" stop-color="#6F160D"/>
</linearGradient>
<linearGradient id="paint7_linear_1232_2477" x1="4.82507" y1="4.46593" x2="4.38783" y2="4.53218" gradientUnits="userSpaceOnUse">
<stop stop-color="#A43113"/>
<stop offset="1" stop-color="#6F160D"/>
</linearGradient>
<linearGradient id="paint8_linear_1232_2477" x1="6.13912" y1="3.86239" x2="5.64401" y2="3.93741" gradientUnits="userSpaceOnUse">
<stop stop-color="#FDC38B"/>
<stop offset="1" stop-color="#FD835D"/>
</linearGradient>
<linearGradient id="paint9_linear_1232_2477" x1="4.73205" y1="4.18902" x2="4.26692" y2="4.25949" gradientUnits="userSpaceOnUse">
<stop stop-color="#FDC38B"/>
<stop offset="1" stop-color="#FD835D"/>
</linearGradient>
<linearGradient id="paint10_linear_1232_2477" x1="6.21202" y1="5.06904" x2="5.09975" y2="5.23756" gradientUnits="userSpaceOnUse">
<stop stop-color="#870000"/>
<stop offset="1" stop-color="#A80009"/>
</linearGradient>
<linearGradient id="paint11_linear_1232_2477" x1="6.20158" y1="5.27321" x2="5.12488" y2="5.43634" gradientUnits="userSpaceOnUse">
<stop stop-color="#870000"/>
<stop offset="1" stop-color="#A80009"/>
</linearGradient>
<linearGradient id="paint12_linear_1232_2477" x1="3.74386" y1="3.26344" x2="8.82393" y2="3.26344" gradientUnits="userSpaceOnUse">
<stop stop-color="#CC1613"/>
<stop offset="1" stop-color="#6F160D"/>
</linearGradient>
<linearGradient id="paint13_linear_1232_2477" x1="7.87038" y1="4.87579" x2="7.87038" y2="3.41911" gradientUnits="userSpaceOnUse">
<stop/>
<stop offset="1" stop-color="#FFA49D"/>
</linearGradient>
<linearGradient id="paint14_linear_1232_2477" x1="4.60535" y1="9.54449" x2="4.11932" y2="5.98873" gradientUnits="userSpaceOnUse">
<stop stop-color="#FDC38B"/>
<stop offset="1" stop-color="#FD835D"/>
</linearGradient>
<linearGradient id="paint15_linear_1232_2477" x1="2.39205" y1="9.89246" x2="1.81657" y2="5.68584" gradientUnits="userSpaceOnUse">
<stop stop-color="#FDC38B"/>
<stop offset="1" stop-color="#FD835D"/>
</linearGradient>
<linearGradient id="paint16_linear_1232_2477" x1="6.34812" y1="17.4752" x2="6.34812" y2="5.89856" gradientUnits="userSpaceOnUse">
<stop stop-color="#FFF79D"/>
<stop offset="1" stop-color="#FFC768"/>
</linearGradient>
<linearGradient id="paint17_linear_1232_2477" x1="5.96615" y1="15.0585" x2="5.96615" y2="11.6915" gradientUnits="userSpaceOnUse">
<stop/>
<stop offset="1" stop-color="#FFA49D"/>
</linearGradient>
<linearGradient id="paint18_linear_1232_2477" x1="6.60649" y1="10.7525" x2="6.60649" y2="9.33952" gradientUnits="userSpaceOnUse">
<stop/>
<stop offset="1" stop-color="#FFA49D"/>
</linearGradient>
<linearGradient id="paint19_linear_1232_2477" x1="6.79953" y1="17.4752" x2="6.79953" y2="15.7488" gradientUnits="userSpaceOnUse">
<stop stop-color="#FFBA7F"/>
<stop offset="1" stop-color="#FFC768"/>
</linearGradient>
<linearGradient id="paint20_linear_1232_2477" x1="6.30627" y1="6.96501" x2="6.30627" y2="5.89856" gradientUnits="userSpaceOnUse">
<stop stop-color="#130007"/>
<stop offset="1" stop-color="#3E0A34"/>
</linearGradient>
<linearGradient id="paint21_linear_1232_2477" x1="8.41489" y1="8.0533" x2="8.41489" y2="5.96337" gradientUnits="userSpaceOnUse">
<stop stop-color="#130007"/>
<stop offset="1" stop-color="#3E0A34"/>
</linearGradient>
<linearGradient id="paint22_linear_1232_2477" x1="7.49922" y1="16.5652" x2="7.49922" y2="15.4001" gradientUnits="userSpaceOnUse">
<stop/>
<stop offset="1" stop-color="#FFA49D"/>
</linearGradient>
<linearGradient id="paint23_linear_1232_2477" x1="7.23722" y1="2.98732" x2="8.7263" y2="2.98732" gradientUnits="userSpaceOnUse">
<stop stop-color="#6F160D"/>
<stop offset="1" stop-color="#CC1613"/>
</linearGradient>
<linearGradient id="paint24_linear_1232_2477" x1="6.61662" y1="2.04305" x2="8.03392" y2="0.2381" gradientUnits="userSpaceOnUse">
<stop stop-color="#310048"/>
<stop offset="1" stop-color="#890A34"/>
</linearGradient>
<linearGradient id="paint25_linear_1232_2477" x1="6.62238" y1="2.29471" x2="7.87263" y2="0.702496" gradientUnits="userSpaceOnUse">
<stop stop-color="#FFF79D"/>
<stop offset="1" stop-color="#FFC768"/>
</linearGradient>
<linearGradient id="paint26_linear_1232_2477" x1="5.65063" y1="3.59943" x2="5.65063" y2="2.22446" gradientUnits="userSpaceOnUse">
<stop stop-color="#FFF79D"/>
<stop offset="1" stop-color="#FFC768"/>
</linearGradient>
<linearGradient id="paint27_linear_1232_2477" x1="5.02947" y1="3.47617" x2="5.02947" y2="2.29068" gradientUnits="userSpaceOnUse">
<stop/>
<stop offset="1" stop-color="#FFA49D"/>
</linearGradient>
<linearGradient id="paint28_linear_1232_2477" x1="5.52459" y1="3.23245" x2="5.52459" y2="2.0695" gradientUnits="userSpaceOnUse">
<stop stop-color="#FFF79D"/>
<stop offset="1" stop-color="#FFC768"/>
</linearGradient>
<clipPath id="clip0_1232_2477">
<rect width="11.8204" height="24" fill="white"/>
</clipPath>
</defs>
</svg>
