<svg width="22" height="22" viewBox="0 0 22 22" fill="none" xmlns="http://www.w3.org/2000/svg">
<path d="M3.73869 11.6728C3.5906 12.4857 3.99613 13.2574 4.72452 13.5693C5.43828 13.8744 6.301 13.6415 6.76249 13.0185C7.23861 12.3757 7.19815 11.4889 6.66519 10.8866C6.13138 10.2842 5.29019 10.1458 4.55577 10.5411C4.51789 10.5617 4.48172 10.5849 4.4447 10.6073C4.25615 10.7242 4.06501 10.7706 3.9238 10.5497C3.77744 10.3203 3.93155 10.1837 4.10719 10.0599C5.11025 9.357 6.58082 9.62854 7.31007 10.6554C7.59851 11.0627 7.75348 11.5147 7.74487 12.0217C7.70527 12.9695 7.28252 13.6879 6.42153 14.1098C5.57518 14.524 4.74777 14.4355 3.99613 13.8787C3.22296 13.3055 2.95777 12.5081 3.09725 11.5714C3.13169 11.3368 3.20574 11.0919 3.52258 11.1598C3.80929 11.2217 3.78088 11.4443 3.73869 11.6728Z" fill="#F7F9FA"/>
<path d="M5.70002 6.63127C1.93234 6.48003 -0.779781 9.90523 0.202608 13.565C0.685623 15.3644 1.69729 16.8536 2.90267 18.2345C3.04904 18.4029 3.19971 18.5671 3.36072 18.7475C3.07917 18.8558 2.84498 18.9263 2.63146 19.0345C2.41621 19.1437 2.20096 19.2691 2.0193 19.4255C1.44157 19.9222 1.44674 20.5847 2.01499 21.0874C2.26468 21.3083 2.55569 21.4578 2.86737 21.5721C3.89367 21.9493 4.95871 22.0584 6.03925 21.9716C6.88302 21.9038 7.71818 21.7577 8.4638 21.316C9.46169 20.7231 9.46685 19.8148 8.48016 19.1995C8.17537 19.0096 7.84044 18.8867 7.43836 18.7613C7.57784 18.6006 7.68202 18.4854 7.78104 18.3668C8.10993 17.9698 8.43883 17.5737 8.76256 17.1724C8.89602 17.0074 8.92185 16.8278 8.74018 16.6817C8.55162 16.5305 8.39234 16.6216 8.25975 16.7806C8.1857 16.8682 8.11768 16.961 8.04708 17.0512C7.31782 17.9759 6.49902 18.8154 5.61651 19.5948C5.49597 19.7013 5.41159 19.801 5.23079 19.6412C3.5906 18.1829 2.13983 16.576 1.22805 14.5524C0.711452 13.4061 0.4919 12.2082 0.766556 10.957C1.28573 8.59565 3.49245 7.06093 6.00137 7.30927C8.26233 7.53354 10.1014 9.57096 10.147 11.8945C10.1729 13.2265 9.71396 14.4132 9.06994 15.5457C8.95629 15.746 8.86244 15.9539 9.1104 16.1051C9.35923 16.2572 9.50387 16.0897 9.62097 15.8852C10.2366 14.8067 10.6731 13.6742 10.7833 12.4221C11.0425 9.47128 8.66269 6.75072 5.70002 6.63127ZM4.45417 19.7795C5.52955 20.7987 5.24026 20.736 6.37762 19.7924C6.58512 19.6206 6.70652 19.2691 7.05264 19.3422C7.57095 19.4513 8.08324 19.6034 8.4595 20.0141C8.66872 20.2427 8.54215 20.4378 8.35532 20.601C8.0247 20.8915 7.614 21.0221 7.19987 21.1355C6.61612 21.2954 6.01687 21.3383 5.38146 21.3452C4.53597 21.3349 3.66981 21.2498 2.86479 20.8648C2.59702 20.7368 2.25951 20.601 2.24832 20.2711C2.23713 19.9102 2.59874 19.7873 2.86823 19.6317C2.91731 19.6034 2.97499 19.5922 3.02579 19.5647C3.55616 19.2803 3.96685 19.3181 4.45417 19.7795Z" fill="#F7F9FA"/>
<path d="M11.1243 20.2453C11.1174 20.5907 10.8246 20.5624 10.5715 20.5615C10.3347 20.5735 10.0713 20.5495 10.079 20.2427C10.0868 19.9067 10.3778 19.9291 10.6266 19.9265C10.8694 19.9239 11.1303 19.9316 11.1243 20.2453Z" fill="#F7F9FA"/>
<path d="M11.4196 13.3605C11.0235 13.376 11.064 13.0314 11.0295 12.7788C10.9977 12.5442 11.0743 12.3173 11.3412 12.3199C11.7003 12.3233 11.683 12.6275 11.6968 12.9016C11.7235 13.1122 11.7011 13.3502 11.4196 13.3605Z" fill="#F7F9FA"/>
<path d="M11.4308 11.4554C11.4135 11.2492 11.7717 10.8333 11.9852 10.8135C12.1945 10.7938 12.303 10.9063 12.3426 11.0928C12.3555 11.3033 11.9344 11.7717 11.7381 11.7545C11.5659 11.7399 11.4463 11.6419 11.4308 11.4554Z" fill="#F7F9FA"/>
<path d="M11.6848 14.164C11.6822 13.9809 11.8277 13.8357 12.0085 13.8417C12.2082 13.8477 12.6405 14.2353 12.6405 14.4132C12.6405 14.6271 12.5148 14.7234 12.315 14.726C12.086 14.7294 11.6873 14.3659 11.6848 14.164Z" fill="#F7F9FA"/>
<path d="M12.8264 20.2401C12.8187 20.5993 12.5225 20.5452 12.2849 20.5538C12.0447 20.5607 11.7803 20.5521 11.7881 20.2367C11.7967 19.8913 12.0894 19.9239 12.3331 19.9222C12.5699 19.9205 12.8325 19.9136 12.8264 20.2401Z" fill="#F7F9FA"/>
<path d="M12.8574 10.5841C12.8729 10.2292 13.176 10.2507 13.4326 10.2369C13.6668 10.224 13.9035 10.2773 13.9035 10.542C13.9044 10.9347 13.566 10.8823 13.3043 10.9063C13.0632 10.9235 12.8454 10.8539 12.8574 10.5841Z" fill="#F7F9FA"/>
<path d="M13.2432 14.7277C13.2612 14.3711 13.56 14.4346 13.7615 14.4252C14.0344 14.4226 14.2936 14.4243 14.2772 14.7535C14.26 15.1135 13.9612 15.0491 13.7262 15.0559C13.4868 15.0619 13.2268 15.0525 13.2432 14.7277Z" fill="#F7F9FA"/>
<path d="M14.5329 20.2126C14.5441 20.5727 14.2583 20.5452 14.0129 20.5478C13.7813 20.5486 13.5109 20.5727 13.4997 20.2487C13.4868 19.8887 13.777 19.9145 14.0206 19.9153C14.2479 19.9153 14.5234 19.8809 14.5329 20.2126Z" fill="#F7F9FA"/>
<path d="M15.4662 15.0568C15.2398 15.0508 14.966 15.0903 14.9539 14.7595C14.9402 14.396 15.2277 14.4269 15.4714 14.4252C15.7021 14.4243 15.9751 14.4003 15.9871 14.7217C16.0009 15.0774 15.7133 15.0551 15.4662 15.0568Z" fill="#F7F9FA"/>
<path d="M16.2446 20.2264C16.2334 20.5701 15.9449 20.5443 15.6996 20.5417C15.4593 20.5486 15.2028 20.5435 15.2088 20.2195C15.2157 19.8577 15.5162 19.9136 15.7512 19.9059C15.988 19.8981 16.2549 19.9059 16.2446 20.2264Z" fill="#F7F9FA"/>
<path d="M16.6578 14.7449C16.6587 14.39 16.9506 14.4295 17.1934 14.4243C17.4327 14.4192 17.6996 14.4278 17.6988 14.7363C17.697 15.0757 17.4086 15.0619 17.1615 15.0551C16.923 15.0611 16.6578 15.0671 16.6578 14.7449Z" fill="#F7F9FA"/>
<path d="M17.9536 20.2229C17.9502 20.5228 17.6945 20.5564 17.4913 20.5375C17.1994 20.54 16.9144 20.5641 16.9153 20.2109C16.9161 19.8895 17.1839 19.8938 17.4181 19.8921C17.6669 19.8904 17.9588 19.8809 17.9536 20.2229Z" fill="#F7F9FA"/>
<path d="M18.3574 14.7371C18.3669 14.3994 18.6579 14.4175 18.9102 14.4269C19.1547 14.4106 19.4139 14.4441 19.4061 14.7466C19.3975 15.0851 19.1039 15.0551 18.8559 15.0585C18.6114 15.0611 18.3488 15.043 18.3574 14.7371Z" fill="#F7F9FA"/>
<path d="M17.7763 2.35106C16.75 2.35621 15.8993 3.21982 15.9071 4.24669C15.9148 5.27356 16.7827 6.11998 17.809 6.10452C18.8198 6.08819 19.6575 5.24263 19.6618 4.2338C19.6653 3.2138 18.7965 2.34504 17.7763 2.35106ZM17.7737 5.45144C17.0918 5.44715 16.5476 4.89805 16.5537 4.22091C16.5597 3.53862 17.1047 3.00585 17.7909 3.00929C18.4719 3.01273 19.0126 3.55839 19.0092 4.23724C19.0049 4.91523 18.4564 5.45488 17.7737 5.45144Z" fill="#F7F9FA"/>
<path d="M19.6618 20.1628C19.6541 20.5452 19.3252 20.51 19.1702 20.5246C18.8172 20.5512 18.5968 20.4739 18.6131 20.2092C18.6364 19.8268 18.9756 19.8861 19.2348 19.8603C19.4647 19.8371 19.6661 19.9299 19.6618 20.1628Z" fill="#F7F9FA"/>
<path d="M20.6726 15.6411C20.4737 15.6574 20.0174 15.3068 20.0071 15.1281C19.9959 14.9339 20.082 14.8016 20.2895 14.7809C20.5108 14.7577 20.9723 15.1135 20.9852 15.3395C20.974 15.5088 20.8689 15.6248 20.6726 15.6411Z" fill="#F7F9FA"/>
<path d="M21.1703 19.4436C21.1754 19.636 20.7828 20.0201 20.5624 20.0287C20.3601 20.0373 20.2344 19.9351 20.2154 19.7331C20.1982 19.5518 20.6115 19.166 20.8285 19.1488C21.0239 19.1333 21.1643 19.2545 21.1703 19.4436Z" fill="#F7F9FA"/>
<path d="M21.9125 16.6645C21.9693 16.845 21.8487 17.0126 21.6481 17.0194C21.2194 17.0349 21.2478 16.6491 21.16 16.393C21.0885 16.1833 21.2288 16.0519 21.4484 15.9943C21.8221 16.0562 21.8307 16.4007 21.9125 16.6645Z" fill="#F7F9FA"/>
<path d="M21.9452 3.55667C21.6628 1.72634 20.2223 0.335981 18.2868 0.0403795C16.5872 -0.219131 14.7275 0.79743 13.9802 2.39145C13.8786 2.60799 13.7649 2.84258 14.043 2.98523C14.3203 3.12787 14.4528 2.91133 14.5579 2.68963C14.7817 2.21787 15.0986 1.81571 15.5015 1.48402C16.7009 0.496672 18.4108 0.390977 19.7057 1.22021C21.0704 2.09327 21.6697 3.71478 21.1987 5.34918C20.6468 7.26716 19.3484 8.66869 17.9269 9.97999C17.759 10.1347 17.6764 10.0109 17.5731 9.91984C16.9919 9.40855 16.4478 8.8586 15.9656 8.25278C15.028 7.07381 14.2565 5.81751 14.1963 4.25099C14.1877 4.04132 14.0714 3.91672 13.8794 3.9193C13.659 3.92273 13.5643 4.07397 13.566 4.29653C13.5712 5.11287 13.7976 5.87336 14.1386 6.60549C14.613 7.62463 15.294 8.50284 16.0784 9.3716C15.9329 9.42488 15.8511 9.44808 15.7762 9.48417C15.294 9.71791 14.7697 9.94476 14.7921 10.591C14.8136 11.2251 15.3397 11.44 15.827 11.6617C15.8528 11.6728 15.8821 11.678 15.9088 11.6874C16.8386 12.0028 17.7918 12.0286 18.7535 11.9023C19.2374 11.8387 19.7092 11.7175 20.1371 11.4692C21.0136 10.9605 21.0067 10.1493 20.1207 9.6483C19.9287 9.54003 19.7221 9.45753 19.5043 9.35528C19.9864 8.81305 20.4316 8.28888 20.8018 7.7097C21.6102 6.44394 22.1854 5.11459 21.9452 3.55667ZM19.9477 10.3082C20.2163 10.5145 20.1603 10.676 19.9193 10.8393C19.4035 11.189 18.806 11.2569 18.2093 11.3214C18.0673 11.336 17.9235 11.3231 17.7806 11.3231C17.0789 11.3102 16.3789 11.2595 15.7486 10.908C15.3224 10.67 15.3328 10.4612 15.7615 10.218C16.4099 9.85196 16.5657 9.86742 17.0952 10.3529C17.2106 10.4586 17.3346 10.5566 17.4474 10.6657C17.6747 10.8831 17.8916 10.8883 18.1181 10.6614C18.2386 10.5403 18.3781 10.4389 18.5047 10.3237C18.9954 9.87859 19.3906 9.88031 19.9477 10.3082Z" fill="#F7F9FA"/>
<path d="M21.977 18.0566C21.8797 18.311 21.9348 18.6856 21.5414 18.7071C21.3356 18.7183 21.1918 18.543 21.2495 18.323C21.3167 18.0678 21.2684 17.7 21.674 17.6811C21.9021 17.6708 21.9891 17.8401 21.977 18.0566Z" fill="#F7F9FA"/>
<path d="M5.70002 6.63127C1.93234 6.48003 -0.779781 9.90523 0.202608 13.565C0.685623 15.3644 1.69729 16.8536 2.90267 18.2345C3.04904 18.4029 3.19971 18.5671 3.36072 18.7475C3.07917 18.8558 2.84498 18.9263 2.63146 19.0345C2.41621 19.1437 2.20096 19.2691 2.0193 19.4255C1.44157 19.9222 1.44674 20.5847 2.01499 21.0874C2.26468 21.3083 2.55569 21.4578 2.86737 21.5721C3.89367 21.9493 4.95871 22.0584 6.03925 21.9716C6.88302 21.9038 7.71818 21.7577 8.4638 21.316C9.46169 20.7231 9.46685 19.8148 8.48016 19.1995C8.17537 19.0096 7.84044 18.8867 7.43836 18.7613C7.57784 18.6006 7.68202 18.4854 7.78104 18.3668C8.10993 17.9698 8.43883 17.5737 8.76256 17.1724C8.89602 17.0074 8.92185 16.8278 8.74018 16.6817C8.55162 16.5305 8.39234 16.6216 8.25975 16.7806C8.1857 16.8682 8.11768 16.961 8.04708 17.0512C7.31782 17.9759 6.49902 18.8154 5.61651 19.5948C5.49597 19.7013 5.41159 19.801 5.23079 19.6412C3.5906 18.1829 2.13983 16.576 1.22805 14.5524C0.711452 13.4061 0.4919 12.2082 0.766556 10.957C1.28573 8.59565 3.49245 7.06093 6.00137 7.30927C8.26233 7.53354 10.1014 9.57096 10.147 11.8945C10.1729 13.2265 9.71396 14.4132 9.06994 15.5457C8.95629 15.746 8.86244 15.9539 9.1104 16.1051C9.35923 16.2572 9.50387 16.0897 9.62097 15.8852C10.2366 14.8067 10.6731 13.6742 10.7833 12.4221C11.0425 9.47128 8.66269 6.75072 5.70002 6.63127ZM4.45417 19.7795C5.52955 20.7987 5.24026 20.736 6.37762 19.7924C6.58512 19.6206 6.70652 19.2691 7.05264 19.3422C7.57095 19.4513 8.08324 19.6034 8.4595 20.0141C8.66872 20.2427 8.54215 20.4378 8.35532 20.601C8.0247 20.8915 7.614 21.0221 7.19987 21.1355C6.61612 21.2954 6.01687 21.3383 5.38146 21.3452C4.53597 21.3349 3.66981 21.2498 2.86479 20.8648C2.59702 20.7368 2.25951 20.601 2.24832 20.2711C2.23713 19.9102 2.59874 19.7873 2.86823 19.6317C2.91731 19.6034 2.97499 19.5922 3.02579 19.5647C3.55616 19.2803 3.96685 19.3181 4.45417 19.7795Z" fill="black"/>
<path d="M21.9452 3.55667C21.6628 1.72634 20.2223 0.335981 18.2868 0.0403795C16.5872 -0.219131 14.7275 0.79743 13.9802 2.39145C13.8786 2.60799 13.7649 2.84258 14.043 2.98523C14.3203 3.12787 14.4528 2.91133 14.5579 2.68963C14.7817 2.21787 15.0986 1.81571 15.5015 1.48402C16.7009 0.496672 18.4108 0.390977 19.7057 1.22021C21.0704 2.09327 21.6697 3.71478 21.1987 5.34918C20.6468 7.26716 19.3484 8.66869 17.9269 9.97999C17.759 10.1347 17.6764 10.0109 17.5731 9.91984C16.9919 9.40855 16.4478 8.8586 15.9656 8.25278C15.028 7.07381 14.2565 5.81751 14.1963 4.25099C14.1877 4.04132 14.0714 3.91672 13.8794 3.9193C13.659 3.92273 13.5643 4.07397 13.566 4.29653C13.5712 5.11287 13.7976 5.87336 14.1386 6.60549C14.613 7.62463 15.294 8.50284 16.0784 9.3716C15.9329 9.42488 15.8511 9.44808 15.7762 9.48417C15.294 9.71791 14.7697 9.94476 14.7921 10.591C14.8136 11.2251 15.3397 11.44 15.827 11.6617C15.8528 11.6728 15.8821 11.678 15.9088 11.6874C16.8386 12.0028 17.7918 12.0286 18.7535 11.9023C19.2374 11.8387 19.7092 11.7175 20.1371 11.4692C21.0136 10.9605 21.0067 10.1493 20.1207 9.6483C19.9287 9.54003 19.7221 9.45753 19.5043 9.35528C19.9864 8.81305 20.4316 8.28888 20.8018 7.7097C21.6102 6.44394 22.1854 5.11459 21.9452 3.55667ZM19.9477 10.3082C20.2163 10.5145 20.1603 10.676 19.9193 10.8393C19.4035 11.189 18.806 11.2569 18.2093 11.3214C18.0673 11.336 17.9235 11.3231 17.7806 11.3231C17.0789 11.3102 16.3789 11.2595 15.7486 10.908C15.3224 10.67 15.3328 10.4612 15.7615 10.218C16.4099 9.85196 16.5657 9.86742 17.0952 10.3529C17.2106 10.4586 17.3346 10.5566 17.4474 10.6657C17.6747 10.8831 17.8916 10.8883 18.1181 10.6614C18.2386 10.5403 18.3781 10.4389 18.5047 10.3237C18.9954 9.87859 19.3906 9.88031 19.9477 10.3082Z" fill="black"/>
<path d="M7.74487 12.0217C7.70527 12.9695 7.28252 13.6879 6.42153 14.1098C5.57518 14.524 4.74777 14.4355 3.99613 13.8787C3.22296 13.3055 2.95777 12.5081 3.09725 11.5714C3.13169 11.3368 3.20574 11.0919 3.52258 11.1598C3.80929 11.2217 3.78088 11.4443 3.73869 11.6728C3.5906 12.4857 3.99613 13.2574 4.72452 13.5693C5.43828 13.8744 6.301 13.6415 6.76249 13.0185C7.23861 12.3757 7.19815 11.4889 6.66519 10.8866C6.13138 10.2842 5.29019 10.1458 4.55577 10.5411C4.51789 10.5617 4.48172 10.5849 4.4447 10.6073C4.25615 10.7242 4.06501 10.7706 3.9238 10.5497C3.77744 10.3203 3.93155 10.1837 4.10719 10.0599C5.11025 9.357 6.58082 9.62854 7.31007 10.6554C7.59851 11.0627 7.75348 11.5147 7.74487 12.0217Z" fill="black"/>
<path d="M17.7763 2.35106C16.75 2.35621 15.8993 3.21982 15.9071 4.24669C15.9148 5.27356 16.7827 6.11998 17.809 6.10452C18.8198 6.08819 19.6575 5.24263 19.6618 4.2338C19.6653 3.2138 18.7965 2.34504 17.7763 2.35106ZM17.7737 5.45144C17.0918 5.44715 16.5476 4.89805 16.5537 4.22091C16.5597 3.53862 17.1047 3.00585 17.7909 3.00929C18.4719 3.01273 19.0126 3.55839 19.0092 4.23724C19.0049 4.91523 18.4564 5.45488 17.7737 5.45144Z" fill="#010101"/>
<path d="M13.9035 10.542C13.9044 10.9347 13.566 10.8823 13.3043 10.9063C13.0632 10.9235 12.8454 10.8539 12.8574 10.5841C12.8729 10.2292 13.176 10.2507 13.4326 10.2369C13.6668 10.224 13.9035 10.2773 13.9035 10.542Z" fill="#0A0A0A"/>
<path d="M19.6618 20.1628C19.6541 20.5452 19.3252 20.51 19.1702 20.5246C18.8172 20.5512 18.5968 20.4739 18.6131 20.2092C18.6364 19.8268 18.9756 19.8861 19.2348 19.8603C19.4647 19.8371 19.6661 19.9299 19.6618 20.1628Z" fill="#0C0C0C"/>
<path d="M17.9536 20.2229C17.9502 20.5228 17.6945 20.5564 17.4913 20.5375C17.1994 20.54 16.9144 20.5641 16.9153 20.2109C16.9161 19.8895 17.1839 19.8938 17.4181 19.8921C17.6669 19.8904 17.9588 19.8809 17.9536 20.2229Z" fill="#040404"/>
<path d="M12.3426 11.0928C12.3555 11.3033 11.9344 11.7717 11.7381 11.7545C11.5659 11.7399 11.4463 11.6419 11.4308 11.4554C11.4135 11.2492 11.7717 10.8333 11.9852 10.8135C12.1945 10.7938 12.303 10.9063 12.3426 11.0928Z" fill="#060606"/>
<path d="M11.4196 13.3605C11.0235 13.376 11.064 13.0314 11.0295 12.7788C10.9977 12.5442 11.0743 12.3173 11.3412 12.3199C11.7003 12.3233 11.683 12.6275 11.6968 12.9016C11.7235 13.1122 11.7011 13.3502 11.4196 13.3605Z" fill="#090A0A"/>
<path d="M20.9852 15.3395C20.974 15.5088 20.8689 15.6248 20.6726 15.6411C20.4737 15.6574 20.0174 15.3068 20.0071 15.1281C19.9959 14.9339 20.082 14.8016 20.2895 14.7809C20.5108 14.7577 20.9723 15.1135 20.9852 15.3395Z" fill="#050505"/>
<path d="M14.2772 14.7535C14.26 15.1135 13.9612 15.0491 13.7262 15.0559C13.4868 15.0619 13.2268 15.0525 13.2432 14.7277C13.2612 14.3711 13.56 14.4346 13.7615 14.4252C14.0344 14.4226 14.2936 14.4243 14.2772 14.7535Z" fill="#050505"/>
<path d="M21.977 18.0566C21.8797 18.311 21.9348 18.6856 21.5414 18.7071C21.3356 18.7183 21.1918 18.543 21.2495 18.323C21.3167 18.0678 21.2684 17.7 21.674 17.6811C21.9021 17.6708 21.9891 17.8401 21.977 18.0566Z" fill="#060606"/>
<path d="M14.5329 20.2126C14.5441 20.5727 14.2583 20.5452 14.0129 20.5478C13.7813 20.5486 13.5109 20.5727 13.4997 20.2487C13.4868 19.8887 13.777 19.9145 14.0206 19.9153C14.2479 19.9153 14.5234 19.8809 14.5329 20.2126Z" fill="#050505"/>
<path d="M12.6405 14.4132C12.6405 14.6271 12.5148 14.7234 12.315 14.726C12.086 14.7294 11.6873 14.3659 11.6848 14.164C11.6822 13.9809 11.8277 13.8357 12.0085 13.8417C12.2082 13.8477 12.6405 14.2353 12.6405 14.4132Z" fill="#040404"/>
<path d="M21.6481 17.0194C21.2194 17.0349 21.2478 16.6491 21.16 16.393C21.0885 16.1833 21.2288 16.0519 21.4484 15.9943C21.8221 16.0562 21.8307 16.4007 21.9125 16.6645C21.9693 16.845 21.8487 17.0126 21.6481 17.0194Z" fill="#040404"/>
<path d="M15.9871 14.7217C16.0009 15.0774 15.7133 15.0551 15.4662 15.0568C15.2398 15.0508 14.966 15.0903 14.9539 14.7595C14.9402 14.396 15.2277 14.4269 15.4714 14.4252C15.7021 14.4243 15.9751 14.4003 15.9871 14.7217Z" fill="#030303"/>
<path d="M21.1703 19.4436C21.1754 19.636 20.7828 20.0201 20.5624 20.0287C20.3601 20.0373 20.2344 19.9351 20.2154 19.7331C20.1982 19.5518 20.6115 19.166 20.8285 19.1488C21.0239 19.1333 21.1643 19.2545 21.1703 19.4436Z" fill="#040404"/>
<path d="M16.2446 20.2264C16.2334 20.5701 15.9449 20.5443 15.6996 20.5417C15.4593 20.5486 15.2028 20.5435 15.2088 20.2195C15.2157 19.8577 15.5162 19.9136 15.7512 19.9059C15.988 19.8981 16.2549 19.9059 16.2446 20.2264Z" fill="#030404"/>
<path d="M19.4061 14.7466C19.3975 15.0851 19.1039 15.0551 18.8559 15.0585C18.6114 15.0611 18.3488 15.043 18.3574 14.7371C18.3669 14.3994 18.6579 14.4175 18.9102 14.4269C19.1547 14.4106 19.4139 14.4441 19.4061 14.7466Z" fill="#030303"/>
<path d="M11.1243 20.2453C11.1174 20.5907 10.8246 20.5624 10.5715 20.5615C10.3347 20.5735 10.0713 20.5495 10.079 20.2427C10.0868 19.9067 10.3778 19.9291 10.6266 19.9265C10.8694 19.9239 11.1303 19.9316 11.1243 20.2453Z" fill="#030303"/>
<path d="M17.6988 14.7363C17.697 15.0757 17.4086 15.0619 17.1615 15.0551C16.923 15.0611 16.6578 15.0671 16.6578 14.7449C16.6587 14.39 16.9506 14.4295 17.1934 14.4243C17.4327 14.4192 17.6996 14.4278 17.6988 14.7363Z" fill="#020202"/>
<path d="M12.8264 20.2401C12.8187 20.5993 12.5225 20.5452 12.2849 20.5538C12.0447 20.5607 11.7803 20.5521 11.7881 20.2367C11.7967 19.8913 12.0894 19.9239 12.3331 19.9222C12.5699 19.9205 12.8325 19.9136 12.8264 20.2401Z" fill="#020202"/>
</svg>
