<svg width="17" height="16" viewBox="0 0 17 16" fill="none" xmlns="http://www.w3.org/2000/svg">
<path d="M3.64454 11.8892C3.63856 12.019 3.55015 12.1032 3.40724 12.1077C3.26499 12.1122 3.12142 12.109 2.97851 12.109C2.84624 12.109 2.71463 12.1135 2.58235 12.1084C2.42482 12.1019 2.33309 12.0081 2.33974 11.8634C2.34505 11.7368 2.43213 11.6468 2.57703 11.6455C2.85155 11.6417 3.12674 11.6397 3.40192 11.6455C3.55813 11.6487 3.65185 11.7407 3.64454 11.8892Z" fill="#F7F9FA"/>
<path d="M3.6452 13.8061C3.6565 13.9585 3.55613 14.0472 3.40325 14.0517C3.12807 14.0594 2.85222 14.0581 2.57703 14.0517C2.43745 14.0478 2.34306 13.9662 2.33907 13.8325C2.33375 13.6853 2.42681 13.5933 2.58102 13.5843C2.72393 13.5753 2.86751 13.5824 3.01108 13.5824V13.5805C3.13272 13.5805 3.2537 13.5792 3.37533 13.5811C3.52888 13.583 3.63324 13.6595 3.6452 13.8061Z" fill="#F7F9FA"/>
<path d="M3.64587 9.92077C3.64853 10.0879 3.53686 10.1683 3.36935 10.1734C3.24771 10.1766 3.12607 10.1741 3.00443 10.1741C2.88279 10.1747 2.76115 10.1728 2.63951 10.1747C2.47268 10.1779 2.34904 10.1072 2.33774 9.9452C2.32578 9.77549 2.45207 9.69642 2.61492 9.69192C2.86883 9.68549 3.12341 9.68614 3.37733 9.69321C3.52423 9.69771 3.64321 9.76521 3.64587 9.92077Z" fill="#F7F9FA"/>
<path d="M5.92246 7.99996C5.91714 8.16067 5.80215 8.22046 5.6599 8.23139C5.52829 8.24167 5.39602 8.23331 5.26374 8.23396C5.14277 8.23396 5.02113 8.24103 4.90082 8.23267C4.73996 8.2211 4.62231 8.14846 4.62895 7.97553C4.63494 7.82061 4.74594 7.74926 4.89284 7.74476C5.14542 7.73704 5.39934 7.73576 5.65193 7.74476C5.81212 7.7499 5.92844 7.82382 5.92246 7.99996Z" fill="#F7F9FA"/>
<path d="M5.92246 11.8776C5.92179 12.0299 5.82674 12.1071 5.66987 12.1096C5.54956 12.1122 5.42859 12.1103 5.30761 12.1103V12.1077C5.15407 12.1077 5.00052 12.1129 4.84698 12.1064C4.70074 12.1 4.62696 12.0049 4.62763 11.875C4.62829 11.7452 4.70274 11.65 4.84963 11.6468C5.12349 11.641 5.39801 11.6417 5.67253 11.6436C5.82873 11.6442 5.92379 11.7239 5.92246 11.8776Z" fill="#F7F9FA"/>
<path d="M5.92246 13.81C5.93043 13.9662 5.83339 14.0485 5.68117 14.0523C5.40732 14.0594 5.13279 14.0587 4.85894 14.0504C4.72068 14.0465 4.63161 13.9675 4.62895 13.8286C4.6263 13.6769 4.71669 13.5914 4.8709 13.5837C5.01315 13.576 5.15606 13.5818 5.29897 13.5811C5.41995 13.5811 5.54025 13.5779 5.66123 13.5818C5.81212 13.5863 5.91448 13.6557 5.92246 13.81Z" fill="#F7F9FA"/>
<path d="M5.92379 9.93813C5.92046 10.0783 5.83272 10.1631 5.69912 10.1676C5.4133 10.1786 5.12681 10.1786 4.84166 10.1657C4.70539 10.1593 4.62497 10.0648 4.62763 9.92784C4.63028 9.78963 4.71669 9.70928 4.85429 9.69899C4.99587 9.68871 5.13944 9.69706 5.28235 9.69706V9.69899C5.42526 9.69899 5.56884 9.68935 5.71042 9.70156C5.84868 9.71378 5.92777 9.79863 5.92379 9.93813Z" fill="#F7F9FA"/>
<path d="M8.21101 13.8048C8.22165 13.952 8.1246 14.0478 7.96973 14.0523C7.69454 14.0594 7.41936 14.0587 7.14484 14.051C7.00924 14.0472 6.91419 13.9752 6.90953 13.8331C6.90488 13.6788 6.99927 13.5959 7.15015 13.585C7.2924 13.574 7.43597 13.5824 7.57888 13.5824V13.5805C7.69986 13.5805 7.8215 13.5811 7.94247 13.5805C8.09934 13.5805 8.20104 13.6615 8.21101 13.8048Z" fill="#F7F9FA"/>
<path d="M8.21168 11.8615C8.21899 11.9888 8.14853 12.0981 8.00496 12.1026C7.7085 12.1129 7.41071 12.1154 7.11426 12.1026C6.97667 12.0968 6.90156 11.9965 6.90953 11.8596C6.91684 11.7381 6.99129 11.6584 7.11559 11.6494C7.26913 11.6384 7.42334 11.6468 7.57755 11.6474C7.72046 11.6474 7.86404 11.6417 8.00628 11.6494C8.13723 11.6564 8.20503 11.7516 8.21168 11.8615Z" fill="#F7F9FA"/>
<path d="M8.21234 7.99161C8.21234 8.14139 8.10134 8.22624 7.95311 8.23139C7.68856 8.23974 7.42268 8.24103 7.15813 8.22882C7.01323 8.22174 6.90488 8.14332 6.90887 7.98325C6.91219 7.82575 7.0212 7.75697 7.16677 7.7454C7.29905 7.73511 7.43198 7.74347 7.56492 7.74347V7.74218C7.6859 7.74218 7.8082 7.73833 7.92918 7.74283C8.09336 7.74925 8.21301 7.82511 8.21234 7.99161Z" fill="#F7F9FA"/>
<path d="M8.21234 9.9227C8.215 10.086 8.10665 10.1715 7.93649 10.1734C7.81485 10.1753 7.69388 10.1741 7.57224 10.1741C7.45126 10.1747 7.32962 10.1747 7.20798 10.1741C7.0458 10.1734 6.92017 10.1149 6.90953 9.94392C6.89823 9.76713 7.0232 9.69706 7.18405 9.69256C7.4373 9.68485 7.69188 9.68614 7.94513 9.69256C8.09402 9.69642 8.20902 9.77228 8.21234 9.9227Z" fill="#F7F9FA"/>
<path d="M10.4942 11.8814C10.4929 12.0158 10.4072 12.1026 10.2663 12.1058C9.98044 12.1122 9.69462 12.1129 9.4088 12.1045C9.26456 12.1006 9.18612 11.9965 9.18945 11.8718C9.19343 11.7477 9.2732 11.6507 9.41943 11.6462C9.56234 11.6417 9.70525 11.6449 9.84816 11.6449V11.6429C9.98044 11.6429 10.1127 11.6391 10.2443 11.6429C10.3999 11.6481 10.4962 11.7291 10.4942 11.8814Z" fill="#F7F9FA"/>
<path d="M10.4949 13.8177C10.4976 13.9546 10.4151 14.0388 10.2749 14.0485C10.1327 14.0581 9.98908 14.0504 9.84617 14.051C9.70326 14.051 9.55968 14.0575 9.41744 14.0497C9.27453 14.0414 9.19144 13.9495 9.18945 13.8202C9.18812 13.6917 9.27187 13.592 9.41146 13.5869C9.69728 13.5773 9.98442 13.576 10.2702 13.5869C10.4052 13.592 10.4929 13.6808 10.4949 13.8177Z" fill="#F7F9FA"/>
<path d="M10.4956 7.99803C10.4923 8.13882 10.3939 8.22046 10.2636 8.22624C9.98775 8.23974 9.71057 8.23974 9.43472 8.22817C9.28583 8.22174 9.18147 8.12789 9.18812 7.97746C9.19543 7.82897 9.30577 7.75183 9.45533 7.74411C9.5989 7.7364 9.74247 7.74218 9.88671 7.74218V7.74476C10.0084 7.74476 10.1313 7.73447 10.2516 7.74733C10.3985 7.76275 10.5002 7.84054 10.4956 7.99803Z" fill="#F7F9FA"/>
<path d="M10.4962 9.93749C10.4923 10.0757 10.4025 10.1561 10.2683 10.1683C10.126 10.1811 9.9811 10.1708 9.83753 10.1708V10.1728C9.70525 10.1728 9.57231 10.1779 9.44004 10.1715C9.28516 10.1638 9.18945 10.0751 9.18878 9.92913C9.18878 9.79735 9.27918 9.70414 9.4181 9.69964C9.70459 9.69128 9.9924 9.68935 10.2782 9.70156C10.4145 9.70735 10.5002 9.79799 10.4962 9.93749Z" fill="#F7F9FA"/>
<path d="M12.7742 11.8712C12.7768 12.0036 12.705 12.1013 12.5601 12.1051C12.275 12.1129 11.9898 12.1116 11.7047 12.1064C11.5604 12.1039 11.482 12.0158 11.4807 11.8814C11.4787 11.7291 11.5684 11.6474 11.7266 11.6436C11.8688 11.6404 12.0118 11.6436 12.1547 11.6436V11.6455C12.2863 11.6455 12.4179 11.6417 12.5495 11.6468C12.6944 11.6519 12.7715 11.7374 12.7742 11.8712Z" fill="#F7F9FA"/>
<path d="M12.7748 7.97425C12.7808 8.1131 12.7024 8.20439 12.5681 8.21981C12.4172 8.23781 12.2617 8.22431 12.1081 8.22431C12.1081 8.2301 12.1081 8.23588 12.1081 8.24167C11.9659 8.23524 11.8216 8.24039 11.6814 8.21981C11.5644 8.20246 11.4853 8.12789 11.48 8.00125C11.474 7.86047 11.5544 7.76275 11.6854 7.75568C11.9812 7.74025 12.2783 7.74283 12.5741 7.75633C12.6911 7.76211 12.7695 7.84954 12.7748 7.97425Z" fill="#F7F9FA"/>
<path d="M12.7748 9.94199C12.7702 10.0796 12.6824 10.1593 12.5462 10.1696C12.4039 10.1798 12.2603 10.1715 12.1174 10.1721C11.9858 10.1721 11.8529 10.1798 11.7219 10.1702C11.5711 10.1593 11.478 10.0796 11.48 9.92399C11.482 9.78128 11.5737 9.70285 11.708 9.69899C11.9931 9.68999 12.279 9.69128 12.5641 9.70349C12.705 9.70928 12.7795 9.8057 12.7748 9.94199Z" fill="#F7F9FA"/>
<path d="M16.9724 14.3312C16.5789 11.8691 16.1954 9.40576 15.8065 6.94239C15.5672 5.43107 15.3352 3.91847 15.08 2.40972C14.977 1.80416 14.4532 1.39403 13.8224 1.37346C13.4907 1.36253 13.1577 1.36896 12.826 1.36896C12.3882 1.36896 12.1673 1.16239 12.1633 0.749257C12.1633 0.695259 12.1646 0.641903 12.16 0.588547C12.1294 0.225984 11.8688 0.00548989 11.4667 0.000347158C11.0579 -0.00479557 10.7874 0.200914 10.7528 0.560905C10.7349 0.752472 10.7322 0.94661 10.7455 1.13818C10.7575 1.32139 10.691 1.37603 10.5022 1.37217C9.9266 1.36124 9.35097 1.36831 8.77467 1.36831C8.29609 1.36831 8.05148 1.14289 8.04085 0.692045C8.03021 0.251698 7.78893 0.00998978 7.35023 0.000347158C6.89092 -0.00865262 6.63501 0.225342 6.61441 0.67983C6.60776 0.818684 6.59779 0.960109 6.61574 1.09703C6.64698 1.3336 6.53863 1.3786 6.31662 1.37281C5.75229 1.35867 5.1873 1.36831 4.62231 1.36831C4.16455 1.36831 3.92991 1.14418 3.91839 0.695902C3.91773 0.674688 3.91839 0.653474 3.91706 0.631617C3.8918 0.241413 3.64055 0.0112755 3.2291 0.000347158C2.80702 -0.00929546 2.53848 0.193842 2.49528 0.579547C2.47268 0.780757 2.47799 0.985823 2.4853 1.18896C2.48996 1.32846 2.43878 1.37603 2.29454 1.37088C2.05126 1.36124 1.80731 1.36831 1.56403 1.36831C0.512482 1.3696 0 1.86587 0 2.88478V14.4495C0 15.4922 0.503841 15.9801 1.58198 15.9807C3.88516 15.9814 6.18834 15.9807 8.49151 15.9807C10.7947 15.9807 13.1863 15.9833 15.534 15.9795C16.5882 15.9782 17.1326 15.3385 16.9724 14.3312ZM11.2321 1.69359C11.2321 1.37281 11.2341 1.05139 11.2307 0.730615C11.2294 0.583404 11.2633 0.477978 11.4454 0.474764C11.6229 0.47155 11.6748 0.568619 11.6748 0.718401C11.6741 1.37153 11.6741 2.02465 11.6748 2.67714C11.6748 2.82949 11.6183 2.92078 11.4408 2.91563C11.2553 2.91049 11.2294 2.80056 11.2307 2.65721C11.2341 2.33579 11.2321 2.01501 11.2321 1.69359ZM11.8469 3.30969C11.8742 3.29684 11.9566 3.32448 11.9572 3.33477C11.9592 3.38491 11.9559 3.44533 11.928 3.48455C11.8017 3.66583 11.6222 3.77125 11.3936 3.73911C11.1357 3.70311 10.9609 3.56362 10.8984 3.25955C11.2321 3.38234 11.5365 3.46141 11.8469 3.30969ZM7.33162 0.474121C7.51707 0.47605 7.54631 0.58919 7.54631 0.731258C7.54631 1.37281 7.54631 2.01501 7.54631 2.65657C7.54631 2.79606 7.52571 2.91242 7.33627 2.91628C7.13154 2.91949 7.10628 2.80249 7.10828 2.64435C7.1136 2.32358 7.10961 2.0028 7.10961 1.68138C7.10961 1.35996 7.11293 1.06104 7.10828 0.751186C7.10628 0.595618 7.12622 0.472836 7.33162 0.474121ZM7.84676 3.23834C7.83546 3.53019 7.65134 3.72304 7.36485 3.74426C7.07637 3.76611 6.86633 3.5919 6.76995 3.22163C7.20133 3.44662 7.45259 3.44662 7.84676 3.23834ZM2.98649 0.69783C2.98582 0.554476 3.04166 0.478621 3.1972 0.475407C3.35539 0.472193 3.41322 0.553834 3.41322 0.69333C3.41322 1.03468 3.41322 1.37603 3.41389 1.71738C3.41389 2.03751 3.41322 2.35765 3.41455 2.67778C3.41522 2.82821 3.36669 2.92399 3.18523 2.91499C3.02371 2.90728 2.98582 2.81921 2.98649 2.68228C2.98915 2.0208 2.98915 1.35931 2.98649 0.69783ZM3.21182 3.39262C3.39926 3.38941 3.56943 3.33605 3.78612 3.18434C3.64587 3.60669 3.44048 3.77768 3.15798 3.74104C2.87216 3.7044 2.69136 3.54883 2.63951 3.18948C2.83826 3.34055 3.01507 3.39584 3.21182 3.39262ZM0.49387 4.81137C0.512482 4.13767 0.4952 3.46269 0.501847 2.78835C0.507829 2.15001 0.820902 1.8543 1.4856 1.8453C1.65111 1.84273 1.81861 1.8318 1.98279 1.84852C2.14764 1.86523 2.39956 1.74695 2.45805 1.92951C2.52386 2.13394 2.5325 2.37565 2.35237 2.59293C2.05923 2.94585 2.06056 3.34698 2.30118 3.73076C2.54446 4.11967 2.91935 4.27139 3.37799 4.20067C3.81204 4.13446 4.09387 3.87797 4.21884 3.47619C4.3212 3.14963 4.26537 2.82821 4.03538 2.57107C3.85325 2.36729 3.93634 2.14744 3.92504 1.93273C3.91972 1.82409 4.0294 1.84594 4.10185 1.8453C4.87622 1.84402 5.65126 1.8408 6.42563 1.84723C6.63701 1.84916 6.71145 2.28565 6.52733 2.52286C6.31596 2.79414 6.21227 3.08149 6.29535 3.42026C6.39439 3.82397 6.72342 4.14089 7.12357 4.19939C7.56492 4.26431 7.9345 4.13832 8.19705 3.77833C8.44299 3.44148 8.44366 2.98056 8.21301 2.63085C8.14454 2.52736 8.04085 2.45343 8.03487 2.30236C8.01692 1.84402 8.00628 1.84466 8.47357 1.84466C9.06049 1.84466 9.64676 1.83823 10.233 1.84916C10.3985 1.85173 10.6524 1.7508 10.7129 1.92309C10.7841 2.12494 10.812 2.37886 10.6092 2.58328C10.4431 2.75107 10.3906 2.98056 10.3886 3.20813C10.3852 3.6414 10.7003 4.04189 11.1297 4.17367C11.5511 4.30288 12.0237 4.16017 12.2909 3.82332C12.5648 3.47748 12.5794 2.98892 12.3328 2.62185C12.2743 2.53507 12.1806 2.47722 12.1613 2.357C12.0902 1.90509 12.138 1.84466 12.6093 1.84466C12.9636 1.84466 13.3179 1.83887 13.6715 1.84594C14.2903 1.85816 14.614 2.17187 14.6167 2.76135C14.62 3.45691 14.6074 4.15246 14.6234 4.84801C14.628 5.07172 14.5668 5.12958 14.3335 5.12829C12.0762 5.11929 9.81891 5.12251 7.56094 5.12251C5.30296 5.12251 3.06758 5.11865 0.821566 5.12894C0.559675 5.13022 0.486559 5.06401 0.49387 4.81137ZM15.6829 15.5025C15.4177 15.5128 15.1525 15.5038 14.8374 15.5038C15.187 15.0184 15.1179 14.49 15.1199 13.9725C15.1225 13.2017 15.1219 12.4303 15.1199 11.6596C15.1192 11.4764 15.1318 11.2591 14.856 11.2681C14.6094 11.2764 14.618 11.4757 14.618 11.6518C14.6187 12.6258 14.62 13.6003 14.618 14.5748C14.6167 15.1843 14.2877 15.5038 13.6556 15.5038C9.59159 15.5057 5.52763 15.5057 1.46433 15.5038C0.843502 15.5038 0.505835 15.1971 0.504506 14.6044C0.497859 11.981 0.50517 9.35755 0.4952 6.73411C0.494535 6.50076 0.60554 6.50912 0.773043 6.50912C2.66677 6.51233 4.56049 6.51104 6.45355 6.51104C6.54262 6.51104 6.63102 6.51426 6.71943 6.50912C6.86899 6.50012 6.97534 6.43583 6.98398 6.27834C6.99262 6.11763 6.88826 6.04691 6.73937 6.03084C6.64099 6.02056 6.54063 6.02441 6.44092 6.02441C4.5585 6.02377 2.67607 6.02377 0.793649 6.02377C0.641433 6.02377 0.474594 6.06298 0.495864 5.81099C0.507829 5.66892 0.526441 5.58407 0.696603 5.60978C0.740473 5.61621 0.785673 5.61042 0.829543 5.61042C5.32556 5.61042 9.82091 5.60978 14.3169 5.61492C14.4279 5.61492 14.6207 5.51078 14.6234 5.76921C14.6253 5.94727 14.6061 6.03341 14.3794 6.02956C13.4163 6.01606 12.4531 6.02377 11.4893 6.02377C10.3826 6.02377 9.27519 6.02313 8.16781 6.02506C8.05813 6.02506 7.94646 6.03213 7.83878 6.05077C7.72445 6.06941 7.67194 6.16005 7.66662 6.26034C7.66064 6.37798 7.72977 6.4699 7.84941 6.49562C7.94513 6.51619 8.0475 6.5104 8.14654 6.5104C10.1951 6.51104 12.2437 6.51812 14.2923 6.50333C14.5801 6.5014 14.6293 6.58304 14.6253 6.83954C14.6101 7.93108 14.6187 9.02391 14.6187 10.1161C14.6187 10.2016 14.6174 10.2877 14.6234 10.3726C14.6327 10.5108 14.7237 10.5957 14.8547 10.6034C14.9889 10.6117 15.0866 10.532 15.1066 10.3964C15.1205 10.3012 15.1212 10.2042 15.1212 10.1084C15.1219 8.94098 15.1219 7.77423 15.1219 6.60683V6.25969C15.1431 6.25969 15.1651 6.25777 15.1863 6.25648C15.3067 7.0131 15.4276 7.76908 15.5479 8.52571C15.8464 10.4073 16.1448 12.2883 16.442 14.1699C16.4652 14.3177 16.4878 14.4668 16.4978 14.616C16.533 15.1303 16.2133 15.4813 15.6842 15.5025H15.6829Z" fill="#F7F9FA"/>
<path d="M3.64454 11.8892C3.63856 12.019 3.55015 12.1032 3.40724 12.1077C3.26499 12.1122 3.12142 12.109 2.97851 12.109C2.84624 12.109 2.71463 12.1135 2.58235 12.1084C2.42482 12.1019 2.33309 12.0081 2.33974 11.8634C2.34505 11.7368 2.43213 11.6468 2.57703 11.6455C2.85155 11.6417 3.12674 11.6397 3.40192 11.6455C3.55813 11.6487 3.65185 11.7407 3.64454 11.8892Z" fill="black"/>
<path d="M3.6452 13.8061C3.6565 13.9585 3.55613 14.0472 3.40325 14.0517C3.12807 14.0594 2.85222 14.0581 2.57703 14.0517C2.43745 14.0478 2.34306 13.9662 2.33907 13.8325C2.33375 13.6853 2.42681 13.5933 2.58102 13.5843C2.72393 13.5753 2.86751 13.5824 3.01108 13.5824V13.5805C3.13272 13.5805 3.2537 13.5792 3.37533 13.5811C3.52888 13.583 3.63324 13.6595 3.6452 13.8061Z" fill="black"/>
<path d="M3.64587 9.92077C3.64853 10.0879 3.53686 10.1683 3.36935 10.1734C3.24771 10.1766 3.12607 10.1741 3.00443 10.1741C2.88279 10.1747 2.76115 10.1728 2.63951 10.1747C2.47268 10.1779 2.34904 10.1072 2.33774 9.9452C2.32578 9.77549 2.45207 9.69642 2.61492 9.69192C2.86883 9.68549 3.12341 9.68614 3.37733 9.69321C3.52423 9.69771 3.64321 9.76521 3.64587 9.92077Z" fill="black"/>
<path d="M5.92246 7.99996C5.91714 8.16067 5.80215 8.22046 5.6599 8.23139C5.52829 8.24167 5.39602 8.23331 5.26374 8.23396C5.14277 8.23396 5.02113 8.24103 4.90082 8.23267C4.73996 8.2211 4.62231 8.14846 4.62895 7.97553C4.63494 7.82061 4.74594 7.74926 4.89284 7.74476C5.14542 7.73704 5.39934 7.73576 5.65193 7.74476C5.81212 7.7499 5.92844 7.82382 5.92246 7.99996Z" fill="black"/>
<path d="M5.92246 11.8776C5.92179 12.0299 5.82674 12.1071 5.66987 12.1096C5.54956 12.1122 5.42859 12.1103 5.30761 12.1103V12.1077C5.15407 12.1077 5.00052 12.1129 4.84698 12.1064C4.70074 12.1 4.62696 12.0049 4.62763 11.875C4.62829 11.7452 4.70274 11.65 4.84963 11.6468C5.12349 11.641 5.39801 11.6417 5.67253 11.6436C5.82873 11.6442 5.92379 11.7239 5.92246 11.8776Z" fill="black"/>
<path d="M5.92246 13.81C5.93043 13.9662 5.83339 14.0485 5.68117 14.0523C5.40732 14.0594 5.13279 14.0587 4.85894 14.0504C4.72068 14.0465 4.63161 13.9675 4.62895 13.8286C4.6263 13.6769 4.71669 13.5914 4.8709 13.5837C5.01315 13.576 5.15606 13.5818 5.29897 13.5811C5.41995 13.5811 5.54025 13.5779 5.66123 13.5818C5.81212 13.5863 5.91448 13.6557 5.92246 13.81Z" fill="black"/>
<path d="M5.92379 9.93813C5.92046 10.0783 5.83272 10.1631 5.69912 10.1676C5.4133 10.1786 5.12681 10.1786 4.84166 10.1657C4.70539 10.1593 4.62497 10.0648 4.62763 9.92784C4.63028 9.78963 4.71669 9.70928 4.85429 9.69899C4.99587 9.68871 5.13944 9.69706 5.28235 9.69706V9.69899C5.42526 9.69899 5.56884 9.68935 5.71042 9.70156C5.84868 9.71378 5.92777 9.79863 5.92379 9.93813Z" fill="black"/>
<path d="M8.21101 13.8048C8.22165 13.952 8.1246 14.0478 7.96973 14.0523C7.69454 14.0594 7.41936 14.0587 7.14484 14.051C7.00924 14.0472 6.91419 13.9752 6.90953 13.8331C6.90488 13.6788 6.99927 13.5959 7.15015 13.585C7.2924 13.574 7.43597 13.5824 7.57888 13.5824V13.5805C7.69986 13.5805 7.8215 13.5811 7.94247 13.5805C8.09934 13.5805 8.20104 13.6615 8.21101 13.8048Z" fill="black"/>
<path d="M8.21168 11.8615C8.21899 11.9888 8.14853 12.0981 8.00496 12.1026C7.7085 12.1129 7.41071 12.1154 7.11426 12.1026C6.97667 12.0968 6.90156 11.9965 6.90953 11.8596C6.91684 11.7381 6.99129 11.6584 7.11559 11.6494C7.26913 11.6384 7.42334 11.6468 7.57755 11.6474C7.72046 11.6474 7.86404 11.6417 8.00628 11.6494C8.13723 11.6564 8.20503 11.7516 8.21168 11.8615Z" fill="black"/>
<path d="M8.21234 7.99161C8.21234 8.14139 8.10134 8.22624 7.95311 8.23139C7.68856 8.23974 7.42268 8.24103 7.15813 8.22882C7.01323 8.22174 6.90488 8.14332 6.90887 7.98325C6.91219 7.82575 7.0212 7.75697 7.16677 7.7454C7.29905 7.73511 7.43198 7.74347 7.56492 7.74347V7.74218C7.6859 7.74218 7.8082 7.73833 7.92918 7.74283C8.09336 7.74925 8.21301 7.82511 8.21234 7.99161Z" fill="black"/>
<path d="M8.21234 9.9227C8.215 10.086 8.10665 10.1715 7.93649 10.1734C7.81485 10.1753 7.69388 10.1741 7.57224 10.1741C7.45126 10.1747 7.32962 10.1747 7.20798 10.1741C7.0458 10.1734 6.92017 10.1149 6.90953 9.94392C6.89823 9.76713 7.0232 9.69706 7.18405 9.69256C7.4373 9.68485 7.69188 9.68614 7.94513 9.69256C8.09402 9.69642 8.20902 9.77228 8.21234 9.9227Z" fill="black"/>
<path d="M10.4942 11.8814C10.4929 12.0158 10.4072 12.1026 10.2663 12.1058C9.98044 12.1122 9.69462 12.1129 9.4088 12.1045C9.26456 12.1006 9.18612 11.9965 9.18945 11.8718C9.19343 11.7477 9.2732 11.6507 9.41943 11.6462C9.56234 11.6417 9.70525 11.6449 9.84816 11.6449V11.6429C9.98044 11.6429 10.1127 11.6391 10.2443 11.6429C10.3999 11.6481 10.4962 11.7291 10.4942 11.8814Z" fill="black"/>
<path d="M10.4949 13.8177C10.4976 13.9546 10.4151 14.0388 10.2749 14.0485C10.1327 14.0581 9.98908 14.0504 9.84617 14.051C9.70326 14.051 9.55968 14.0575 9.41744 14.0497C9.27453 14.0414 9.19144 13.9495 9.18945 13.8202C9.18812 13.6917 9.27187 13.592 9.41146 13.5869C9.69728 13.5773 9.98442 13.576 10.2702 13.5869C10.4052 13.592 10.4929 13.6808 10.4949 13.8177Z" fill="black"/>
<path d="M10.4956 7.99803C10.4923 8.13882 10.3939 8.22046 10.2636 8.22624C9.98775 8.23974 9.71057 8.23974 9.43472 8.22817C9.28583 8.22174 9.18147 8.12789 9.18812 7.97746C9.19543 7.82897 9.30577 7.75183 9.45533 7.74411C9.5989 7.7364 9.74247 7.74218 9.88671 7.74218V7.74476C10.0084 7.74476 10.1313 7.73447 10.2516 7.74733C10.3985 7.76275 10.5002 7.84054 10.4956 7.99803Z" fill="black"/>
<path d="M10.4962 9.93749C10.4923 10.0757 10.4025 10.1561 10.2683 10.1683C10.126 10.1811 9.9811 10.1708 9.83753 10.1708V10.1728C9.70525 10.1728 9.57231 10.1779 9.44004 10.1715C9.28516 10.1638 9.18945 10.0751 9.18878 9.92913C9.18878 9.79735 9.27918 9.70414 9.4181 9.69964C9.70459 9.69128 9.9924 9.68935 10.2782 9.70156C10.4145 9.70735 10.5002 9.79799 10.4962 9.93749Z" fill="black"/>
<path d="M12.7742 11.8712C12.7768 12.0036 12.705 12.1013 12.5601 12.1051C12.275 12.1129 11.9898 12.1116 11.7047 12.1064C11.5604 12.1039 11.482 12.0158 11.4807 11.8814C11.4787 11.7291 11.5684 11.6474 11.7266 11.6436C11.8688 11.6404 12.0118 11.6436 12.1547 11.6436V11.6455C12.2863 11.6455 12.4179 11.6417 12.5495 11.6468C12.6944 11.6519 12.7715 11.7374 12.7742 11.8712Z" fill="black"/>
<path d="M12.7748 7.97425C12.7808 8.1131 12.7024 8.20439 12.5681 8.21981C12.4172 8.23781 12.2617 8.22431 12.1081 8.22431C12.1081 8.2301 12.1081 8.23588 12.1081 8.24167C11.9659 8.23524 11.8216 8.24039 11.6814 8.21981C11.5644 8.20246 11.4853 8.12789 11.48 8.00125C11.474 7.86047 11.5544 7.76275 11.6854 7.75568C11.9812 7.74025 12.2783 7.74283 12.5741 7.75633C12.6911 7.76211 12.7695 7.84954 12.7748 7.97425Z" fill="black"/>
<path d="M12.7748 9.94199C12.7702 10.0796 12.6824 10.1593 12.5462 10.1696C12.4039 10.1798 12.2603 10.1715 12.1174 10.1721C11.9858 10.1721 11.8529 10.1798 11.7219 10.1702C11.5711 10.1593 11.478 10.0796 11.48 9.92399C11.482 9.78128 11.5737 9.70285 11.708 9.69899C11.9931 9.68999 12.279 9.69128 12.5641 9.70349C12.705 9.70928 12.7795 9.8057 12.7748 9.94199Z" fill="black"/>
<path d="M16.9724 14.3312C16.5789 11.8691 16.1954 9.40576 15.8065 6.94239C15.5672 5.43107 15.3352 3.91847 15.08 2.40972C14.977 1.80416 14.4532 1.39403 13.8224 1.37346C13.4907 1.36253 13.1577 1.36896 12.826 1.36896C12.3882 1.36896 12.1673 1.16239 12.1633 0.749257C12.1633 0.695259 12.1646 0.641903 12.16 0.588547C12.1294 0.225984 11.8688 0.00548989 11.4667 0.000347158C11.0579 -0.00479557 10.7874 0.200914 10.7528 0.560905C10.7349 0.752472 10.7322 0.94661 10.7455 1.13818C10.7575 1.32139 10.691 1.37603 10.5022 1.37217C9.9266 1.36124 9.35097 1.36831 8.77467 1.36831C8.29609 1.36831 8.05148 1.14289 8.04085 0.692045C8.03021 0.251698 7.78893 0.00998978 7.35023 0.000347158C6.89092 -0.00865262 6.63501 0.225342 6.61441 0.67983C6.60776 0.818684 6.59779 0.960109 6.61574 1.09703C6.64698 1.3336 6.53863 1.3786 6.31662 1.37281C5.75229 1.35867 5.1873 1.36831 4.62231 1.36831C4.16455 1.36831 3.92991 1.14418 3.91839 0.695902C3.91773 0.674688 3.91839 0.653474 3.91706 0.631617C3.8918 0.241413 3.64055 0.0112755 3.2291 0.000347158C2.80702 -0.00929546 2.53848 0.193842 2.49528 0.579547C2.47268 0.780757 2.47799 0.985823 2.4853 1.18896C2.48996 1.32846 2.43878 1.37603 2.29454 1.37088C2.05126 1.36124 1.80731 1.36831 1.56403 1.36831C0.512482 1.3696 0 1.86587 0 2.88478V14.4495C0 15.4922 0.503841 15.9801 1.58198 15.9807C3.88516 15.9814 6.18834 15.9807 8.49151 15.9807C10.7947 15.9807 13.1863 15.9833 15.534 15.9795C16.5882 15.9782 17.1326 15.3385 16.9724 14.3312ZM11.2321 1.69359C11.2321 1.37281 11.2341 1.05139 11.2307 0.730615C11.2294 0.583404 11.2633 0.477978 11.4454 0.474764C11.6229 0.47155 11.6748 0.568619 11.6748 0.718401C11.6741 1.37153 11.6741 2.02465 11.6748 2.67714C11.6748 2.82949 11.6183 2.92078 11.4408 2.91563C11.2553 2.91049 11.2294 2.80056 11.2307 2.65721C11.2341 2.33579 11.2321 2.01501 11.2321 1.69359ZM11.8469 3.30969C11.8742 3.29684 11.9566 3.32448 11.9572 3.33477C11.9592 3.38491 11.9559 3.44533 11.928 3.48455C11.8017 3.66583 11.6222 3.77125 11.3936 3.73911C11.1357 3.70311 10.9609 3.56362 10.8984 3.25955C11.2321 3.38234 11.5365 3.46141 11.8469 3.30969ZM7.33162 0.474121C7.51707 0.47605 7.54631 0.58919 7.54631 0.731258C7.54631 1.37281 7.54631 2.01501 7.54631 2.65657C7.54631 2.79606 7.52571 2.91242 7.33627 2.91628C7.13154 2.91949 7.10628 2.80249 7.10828 2.64435C7.1136 2.32358 7.10961 2.0028 7.10961 1.68138C7.10961 1.35996 7.11293 1.06104 7.10828 0.751186C7.10628 0.595618 7.12622 0.472836 7.33162 0.474121ZM7.84676 3.23834C7.83546 3.53019 7.65134 3.72304 7.36485 3.74426C7.07637 3.76611 6.86633 3.5919 6.76995 3.22163C7.20133 3.44662 7.45259 3.44662 7.84676 3.23834ZM2.98649 0.69783C2.98582 0.554476 3.04166 0.478621 3.1972 0.475407C3.35539 0.472193 3.41322 0.553834 3.41322 0.69333C3.41322 1.03468 3.41322 1.37603 3.41389 1.71738C3.41389 2.03751 3.41322 2.35765 3.41455 2.67778C3.41522 2.82821 3.36669 2.92399 3.18523 2.91499C3.02371 2.90728 2.98582 2.81921 2.98649 2.68228C2.98915 2.0208 2.98915 1.35931 2.98649 0.69783ZM3.21182 3.39262C3.39926 3.38941 3.56943 3.33605 3.78612 3.18434C3.64587 3.60669 3.44048 3.77768 3.15798 3.74104C2.87216 3.7044 2.69136 3.54883 2.63951 3.18948C2.83826 3.34055 3.01507 3.39584 3.21182 3.39262ZM0.49387 4.81137C0.512482 4.13767 0.4952 3.46269 0.501847 2.78835C0.507829 2.15001 0.820902 1.8543 1.4856 1.8453C1.65111 1.84273 1.81861 1.8318 1.98279 1.84852C2.14764 1.86523 2.39956 1.74695 2.45805 1.92951C2.52386 2.13394 2.5325 2.37565 2.35237 2.59293C2.05923 2.94585 2.06056 3.34698 2.30118 3.73076C2.54446 4.11967 2.91935 4.27139 3.37799 4.20067C3.81204 4.13446 4.09387 3.87797 4.21884 3.47619C4.3212 3.14963 4.26537 2.82821 4.03538 2.57107C3.85325 2.36729 3.93634 2.14744 3.92504 1.93273C3.91972 1.82409 4.0294 1.84594 4.10185 1.8453C4.87622 1.84402 5.65126 1.8408 6.42563 1.84723C6.63701 1.84916 6.71145 2.28565 6.52733 2.52286C6.31596 2.79414 6.21227 3.08149 6.29535 3.42026C6.39439 3.82397 6.72342 4.14089 7.12357 4.19939C7.56492 4.26431 7.9345 4.13832 8.19705 3.77833C8.44299 3.44148 8.44366 2.98056 8.21301 2.63085C8.14454 2.52736 8.04085 2.45343 8.03487 2.30236C8.01692 1.84402 8.00628 1.84466 8.47357 1.84466C9.06049 1.84466 9.64676 1.83823 10.233 1.84916C10.3985 1.85173 10.6524 1.7508 10.7129 1.92309C10.7841 2.12494 10.812 2.37886 10.6092 2.58328C10.4431 2.75107 10.3906 2.98056 10.3886 3.20813C10.3852 3.6414 10.7003 4.04189 11.1297 4.17367C11.5511 4.30288 12.0237 4.16017 12.2909 3.82332C12.5648 3.47748 12.5794 2.98892 12.3328 2.62185C12.2743 2.53507 12.1806 2.47722 12.1613 2.357C12.0902 1.90509 12.138 1.84466 12.6093 1.84466C12.9636 1.84466 13.3179 1.83887 13.6715 1.84594C14.2903 1.85816 14.614 2.17187 14.6167 2.76135C14.62 3.45691 14.6074 4.15246 14.6234 4.84801C14.628 5.07172 14.5668 5.12958 14.3335 5.12829C12.0762 5.11929 9.81891 5.12251 7.56094 5.12251C5.30296 5.12251 3.06758 5.11865 0.821566 5.12894C0.559675 5.13022 0.486559 5.06401 0.49387 4.81137ZM15.6829 15.5025C15.4177 15.5128 15.1525 15.5038 14.8374 15.5038C15.187 15.0184 15.1179 14.49 15.1199 13.9725C15.1225 13.2017 15.1219 12.4303 15.1199 11.6596C15.1192 11.4764 15.1318 11.2591 14.856 11.2681C14.6094 11.2764 14.618 11.4757 14.618 11.6518C14.6187 12.6258 14.62 13.6003 14.618 14.5748C14.6167 15.1843 14.2877 15.5038 13.6556 15.5038C9.59159 15.5057 5.52763 15.5057 1.46433 15.5038C0.843502 15.5038 0.505835 15.1971 0.504506 14.6044C0.497859 11.981 0.50517 9.35755 0.4952 6.73411C0.494535 6.50076 0.60554 6.50912 0.773043 6.50912C2.66677 6.51233 4.56049 6.51104 6.45355 6.51104C6.54262 6.51104 6.63102 6.51426 6.71943 6.50912C6.86899 6.50012 6.97534 6.43583 6.98398 6.27834C6.99262 6.11763 6.88826 6.04691 6.73937 6.03084C6.64099 6.02056 6.54063 6.02441 6.44092 6.02441C4.5585 6.02377 2.67607 6.02377 0.793649 6.02377C0.641433 6.02377 0.474594 6.06298 0.495864 5.81099C0.507829 5.66892 0.526441 5.58407 0.696603 5.60978C0.740473 5.61621 0.785673 5.61042 0.829543 5.61042C5.32556 5.61042 9.82091 5.60978 14.3169 5.61492C14.4279 5.61492 14.6207 5.51078 14.6234 5.76921C14.6253 5.94727 14.6061 6.03341 14.3794 6.02956C13.4163 6.01606 12.4531 6.02377 11.4893 6.02377C10.3826 6.02377 9.27519 6.02313 8.16781 6.02506C8.05813 6.02506 7.94646 6.03213 7.83878 6.05077C7.72445 6.06941 7.67194 6.16005 7.66662 6.26034C7.66064 6.37798 7.72977 6.4699 7.84941 6.49562C7.94513 6.51619 8.0475 6.5104 8.14654 6.5104C10.1951 6.51104 12.2437 6.51812 14.2923 6.50333C14.5801 6.5014 14.6293 6.58304 14.6253 6.83954C14.6101 7.93108 14.6187 9.02391 14.6187 10.1161C14.6187 10.2016 14.6174 10.2877 14.6234 10.3726C14.6327 10.5108 14.7237 10.5957 14.8547 10.6034C14.9889 10.6117 15.0866 10.532 15.1066 10.3964C15.1205 10.3012 15.1212 10.2042 15.1212 10.1084C15.1219 8.94098 15.1219 7.77423 15.1219 6.60683V6.25969C15.1431 6.25969 15.1651 6.25777 15.1863 6.25648C15.3067 7.0131 15.4276 7.76908 15.5479 8.52571C15.8464 10.4073 16.1448 12.2883 16.442 14.1699C16.4652 14.3177 16.4878 14.4668 16.4978 14.616C16.533 15.1303 16.2133 15.4813 15.6842 15.5025H15.6829Z" fill="black"/>
<path d="M3.64454 11.8892C3.63856 12.019 3.55015 12.1032 3.40724 12.1077C3.26499 12.1122 3.12142 12.109 2.97851 12.109C2.84624 12.109 2.71463 12.1135 2.58235 12.1084C2.42482 12.1019 2.33309 12.0081 2.33974 11.8634C2.34505 11.7368 2.43213 11.6468 2.57703 11.6455C2.85155 11.6417 3.12674 11.6397 3.40192 11.6455C3.55813 11.6487 3.65185 11.7407 3.64454 11.8892Z" fill="#F7F9FA"/>
<path d="M3.6452 13.8061C3.6565 13.9585 3.55613 14.0472 3.40325 14.0517C3.12807 14.0594 2.85222 14.0581 2.57703 14.0517C2.43745 14.0478 2.34306 13.9662 2.33907 13.8325C2.33375 13.6853 2.42681 13.5933 2.58102 13.5843C2.72393 13.5753 2.86751 13.5824 3.01108 13.5824V13.5805C3.13272 13.5805 3.2537 13.5792 3.37533 13.5811C3.52888 13.583 3.63324 13.6595 3.6452 13.8061Z" fill="#F7F9FA"/>
<path d="M3.64587 9.92077C3.64853 10.0879 3.53686 10.1683 3.36935 10.1734C3.24771 10.1766 3.12607 10.1741 3.00443 10.1741C2.88279 10.1747 2.76115 10.1728 2.63951 10.1747C2.47268 10.1779 2.34904 10.1072 2.33774 9.9452C2.32578 9.77549 2.45207 9.69642 2.61492 9.69192C2.86883 9.68549 3.12341 9.68614 3.37733 9.69321C3.52423 9.69771 3.64321 9.76521 3.64587 9.92077Z" fill="#F7F9FA"/>
<path d="M5.92246 7.99996C5.91714 8.16067 5.80215 8.22046 5.6599 8.23139C5.52829 8.24167 5.39602 8.23331 5.26374 8.23396C5.14277 8.23396 5.02113 8.24103 4.90082 8.23267C4.73996 8.2211 4.62231 8.14846 4.62895 7.97553C4.63494 7.82061 4.74594 7.74926 4.89284 7.74476C5.14542 7.73704 5.39934 7.73576 5.65193 7.74476C5.81212 7.7499 5.92844 7.82382 5.92246 7.99996Z" fill="#F7F9FA"/>
<path d="M5.92246 11.8776C5.92179 12.0299 5.82674 12.1071 5.66987 12.1096C5.54956 12.1122 5.42859 12.1103 5.30761 12.1103V12.1077C5.15407 12.1077 5.00052 12.1129 4.84698 12.1064C4.70074 12.1 4.62696 12.0049 4.62763 11.875C4.62829 11.7452 4.70274 11.65 4.84963 11.6468C5.12349 11.641 5.39801 11.6417 5.67253 11.6436C5.82873 11.6442 5.92379 11.7239 5.92246 11.8776Z" fill="#F7F9FA"/>
<path d="M5.92246 13.81C5.93043 13.9662 5.83339 14.0485 5.68117 14.0523C5.40732 14.0594 5.13279 14.0587 4.85894 14.0504C4.72068 14.0465 4.63161 13.9675 4.62895 13.8286C4.6263 13.6769 4.71669 13.5914 4.8709 13.5837C5.01315 13.576 5.15606 13.5818 5.29897 13.5811C5.41995 13.5811 5.54025 13.5779 5.66123 13.5818C5.81212 13.5863 5.91448 13.6557 5.92246 13.81Z" fill="#F7F9FA"/>
<path d="M5.92379 9.93813C5.92046 10.0783 5.83272 10.1631 5.69912 10.1676C5.4133 10.1786 5.12681 10.1786 4.84166 10.1657C4.70539 10.1593 4.62497 10.0648 4.62763 9.92784C4.63028 9.78963 4.71669 9.70928 4.85429 9.69899C4.99587 9.68871 5.13944 9.69706 5.28235 9.69706V9.69899C5.42526 9.69899 5.56884 9.68935 5.71042 9.70156C5.84868 9.71378 5.92777 9.79863 5.92379 9.93813Z" fill="#F7F9FA"/>
<path d="M8.21101 13.8048C8.22165 13.952 8.1246 14.0478 7.96973 14.0523C7.69454 14.0594 7.41936 14.0587 7.14484 14.051C7.00924 14.0472 6.91419 13.9752 6.90953 13.8331C6.90488 13.6788 6.99927 13.5959 7.15015 13.585C7.2924 13.574 7.43597 13.5824 7.57888 13.5824V13.5805C7.69986 13.5805 7.8215 13.5811 7.94247 13.5805C8.09934 13.5805 8.20104 13.6615 8.21101 13.8048Z" fill="#F7F9FA"/>
<path d="M8.21168 11.8615C8.21899 11.9888 8.14853 12.0981 8.00496 12.1026C7.7085 12.1129 7.41071 12.1154 7.11426 12.1026C6.97667 12.0968 6.90156 11.9965 6.90953 11.8596C6.91684 11.7381 6.99129 11.6584 7.11559 11.6494C7.26913 11.6384 7.42334 11.6468 7.57755 11.6474C7.72046 11.6474 7.86404 11.6417 8.00628 11.6494C8.13723 11.6564 8.20503 11.7516 8.21168 11.8615Z" fill="#F7F9FA"/>
<path d="M8.21234 7.99161C8.21234 8.14139 8.10134 8.22624 7.95311 8.23139C7.68856 8.23974 7.42268 8.24103 7.15813 8.22882C7.01323 8.22174 6.90488 8.14332 6.90887 7.98325C6.91219 7.82575 7.0212 7.75697 7.16677 7.7454C7.29905 7.73511 7.43198 7.74347 7.56492 7.74347V7.74218C7.6859 7.74218 7.8082 7.73833 7.92918 7.74283C8.09336 7.74925 8.21301 7.82511 8.21234 7.99161Z" fill="#F7F9FA"/>
<path d="M8.21234 9.9227C8.215 10.086 8.10665 10.1715 7.93649 10.1734C7.81485 10.1753 7.69388 10.1741 7.57224 10.1741C7.45126 10.1747 7.32962 10.1747 7.20798 10.1741C7.0458 10.1734 6.92017 10.1149 6.90953 9.94392C6.89823 9.76713 7.0232 9.69706 7.18405 9.69256C7.4373 9.68485 7.69188 9.68614 7.94513 9.69256C8.09402 9.69642 8.20902 9.77228 8.21234 9.9227Z" fill="#F7F9FA"/>
<path d="M10.4942 11.8814C10.4929 12.0158 10.4072 12.1026 10.2663 12.1058C9.98044 12.1122 9.69462 12.1129 9.4088 12.1045C9.26456 12.1006 9.18612 11.9965 9.18945 11.8718C9.19343 11.7477 9.2732 11.6507 9.41943 11.6462C9.56234 11.6417 9.70525 11.6449 9.84816 11.6449V11.6429C9.98044 11.6429 10.1127 11.6391 10.2443 11.6429C10.3999 11.6481 10.4962 11.7291 10.4942 11.8814Z" fill="#F7F9FA"/>
<path d="M10.4949 13.8177C10.4976 13.9546 10.4151 14.0388 10.2749 14.0485C10.1327 14.0581 9.98908 14.0504 9.84617 14.051C9.70326 14.051 9.55968 14.0575 9.41744 14.0497C9.27453 14.0414 9.19144 13.9495 9.18945 13.8202C9.18812 13.6917 9.27187 13.592 9.41146 13.5869C9.69728 13.5773 9.98442 13.576 10.2702 13.5869C10.4052 13.592 10.4929 13.6808 10.4949 13.8177Z" fill="#F7F9FA"/>
<path d="M10.4956 7.99803C10.4923 8.13882 10.3939 8.22046 10.2636 8.22624C9.98775 8.23974 9.71057 8.23974 9.43472 8.22817C9.28583 8.22174 9.18147 8.12789 9.18812 7.97746C9.19543 7.82897 9.30577 7.75183 9.45533 7.74411C9.5989 7.7364 9.74247 7.74218 9.88671 7.74218V7.74476C10.0084 7.74476 10.1313 7.73447 10.2516 7.74733C10.3985 7.76275 10.5002 7.84054 10.4956 7.99803Z" fill="#F7F9FA"/>
<path d="M10.4962 9.93749C10.4923 10.0757 10.4025 10.1561 10.2683 10.1683C10.126 10.1811 9.9811 10.1708 9.83753 10.1708V10.1728C9.70525 10.1728 9.57231 10.1779 9.44004 10.1715C9.28516 10.1638 9.18945 10.0751 9.18878 9.92913C9.18878 9.79735 9.27918 9.70414 9.4181 9.69964C9.70459 9.69128 9.9924 9.68935 10.2782 9.70156C10.4145 9.70735 10.5002 9.79799 10.4962 9.93749Z" fill="#F7F9FA"/>
<path d="M12.7742 11.8712C12.7768 12.0036 12.705 12.1013 12.5601 12.1051C12.275 12.1129 11.9898 12.1116 11.7047 12.1064C11.5604 12.1039 11.482 12.0158 11.4807 11.8814C11.4787 11.7291 11.5684 11.6474 11.7266 11.6436C11.8688 11.6404 12.0118 11.6436 12.1547 11.6436V11.6455C12.2863 11.6455 12.4179 11.6417 12.5495 11.6468C12.6944 11.6519 12.7715 11.7374 12.7742 11.8712Z" fill="#F7F9FA"/>
<path d="M12.7748 7.97425C12.7808 8.1131 12.7024 8.20439 12.5681 8.21981C12.4172 8.23781 12.2617 8.22431 12.1081 8.22431C12.1081 8.2301 12.1081 8.23588 12.1081 8.24167C11.9659 8.23524 11.8216 8.24039 11.6814 8.21981C11.5644 8.20246 11.4853 8.12789 11.48 8.00125C11.474 7.86047 11.5544 7.76275 11.6854 7.75568C11.9812 7.74025 12.2783 7.74283 12.5741 7.75633C12.6911 7.76211 12.7695 7.84954 12.7748 7.97425Z" fill="#F7F9FA"/>
<path d="M12.7748 9.94199C12.7702 10.0796 12.6824 10.1593 12.5462 10.1696C12.4039 10.1798 12.2603 10.1715 12.1174 10.1721C11.9858 10.1721 11.8529 10.1798 11.7219 10.1702C11.5711 10.1593 11.478 10.0796 11.48 9.92399C11.482 9.78128 11.5737 9.70285 11.708 9.69899C11.9931 9.68999 12.279 9.69128 12.5641 9.70349C12.705 9.70928 12.7795 9.8057 12.7748 9.94199Z" fill="#F7F9FA"/>
<path d="M8.21234 7.99161C8.21234 8.14139 8.10134 8.22624 7.95311 8.23139C7.68856 8.23974 7.42268 8.24103 7.15813 8.22882C7.01323 8.22174 6.90488 8.14332 6.90887 7.98325C6.91219 7.82575 7.0212 7.75697 7.16677 7.7454C7.29905 7.73511 7.43198 7.74347 7.56492 7.74347V7.74218C7.6859 7.74218 7.8082 7.73833 7.92918 7.74283C8.09336 7.74925 8.21301 7.82511 8.21234 7.99161Z" fill="#070707"/>
<path d="M10.4962 9.93749C10.4923 10.0757 10.4025 10.1561 10.2683 10.1683C10.126 10.1811 9.9811 10.1708 9.83753 10.1708V10.1728C9.70525 10.1728 9.57231 10.1779 9.44004 10.1715C9.28516 10.1638 9.18945 10.0751 9.18878 9.92913C9.18878 9.79735 9.27918 9.70414 9.4181 9.69964C9.70459 9.69128 9.9924 9.68935 10.2782 9.70156C10.4145 9.70735 10.5002 9.79799 10.4962 9.93749Z" fill="#070707"/>
<path d="M10.4956 7.99803C10.4923 8.13882 10.3939 8.22046 10.2636 8.22624C9.98775 8.23974 9.71057 8.23974 9.43472 8.22817C9.28583 8.22174 9.18147 8.12789 9.18812 7.97746C9.19543 7.82897 9.30577 7.75183 9.45533 7.74411C9.5989 7.7364 9.74247 7.74218 9.88671 7.74218V7.74476C10.0084 7.74476 10.1313 7.73447 10.2516 7.74733C10.3985 7.76275 10.5002 7.84054 10.4956 7.99803Z" fill="#080809"/>
<path d="M3.64587 9.92077C3.64853 10.0879 3.53686 10.1683 3.36935 10.1734C3.24771 10.1766 3.12607 10.1741 3.00443 10.1741C2.88279 10.1747 2.76115 10.1728 2.63951 10.1747C2.47268 10.1779 2.34904 10.1072 2.33774 9.9452C2.32578 9.77549 2.45207 9.69642 2.61492 9.69192C2.86883 9.68549 3.12341 9.68614 3.37733 9.69321C3.52423 9.69771 3.64321 9.76521 3.64587 9.92077Z" fill="#070707"/>
<path d="M8.21234 9.9227C8.215 10.086 8.10665 10.1715 7.93649 10.1734C7.81485 10.1753 7.69388 10.1741 7.57224 10.1741C7.45126 10.1747 7.32962 10.1747 7.20798 10.1741C7.0458 10.1734 6.92017 10.1149 6.90953 9.94392C6.89823 9.76713 7.0232 9.69706 7.18405 9.69256C7.4373 9.68485 7.69188 9.68614 7.94513 9.69256C8.09402 9.69642 8.20902 9.77228 8.21234 9.9227Z" fill="#070707"/>
<path d="M5.92246 7.99996C5.91714 8.16067 5.80215 8.22046 5.6599 8.23139C5.52829 8.24167 5.39602 8.23331 5.26374 8.23396C5.14277 8.23396 5.02113 8.24103 4.90082 8.23267C4.73996 8.2211 4.62231 8.14846 4.62895 7.97553C4.63494 7.82061 4.74594 7.74926 4.89284 7.74476C5.14542 7.73704 5.39934 7.73576 5.65193 7.74476C5.81212 7.7499 5.92844 7.82382 5.92246 7.99996Z" fill="#060606"/>
<path d="M12.7748 7.97425C12.7808 8.1131 12.7024 8.20439 12.5681 8.21981C12.4172 8.23781 12.2617 8.22431 12.1081 8.22431C12.1081 8.2301 12.1081 8.23588 12.1081 8.24167C11.9659 8.23524 11.8216 8.24039 11.6814 8.21981C11.5644 8.20246 11.4853 8.12789 11.48 8.00125C11.474 7.86047 11.5544 7.76275 11.6854 7.75568C11.9812 7.74025 12.2783 7.74283 12.5741 7.75633C12.6911 7.76211 12.7695 7.84954 12.7748 7.97425Z" fill="#060606"/>
<path d="M5.92379 9.93813C5.92046 10.0783 5.83272 10.1631 5.69912 10.1676C5.4133 10.1786 5.12681 10.1786 4.84166 10.1657C4.70539 10.1593 4.62497 10.0648 4.62763 9.92784C4.63028 9.78963 4.71669 9.70928 4.85429 9.69899C4.99587 9.68871 5.13944 9.69706 5.28235 9.69706V9.69899C5.42526 9.69899 5.56884 9.68935 5.71042 9.70156C5.84868 9.71378 5.92777 9.79863 5.92379 9.93813Z" fill="#060606"/>
<path d="M12.7748 9.94199C12.7702 10.0796 12.6824 10.1593 12.5462 10.1696C12.4039 10.1798 12.2603 10.1715 12.1174 10.1721C11.9858 10.1721 11.8529 10.1798 11.7219 10.1702C11.5711 10.1593 11.478 10.0796 11.48 9.92399C11.482 9.78128 11.5737 9.70285 11.708 9.69899C11.9931 9.68999 12.279 9.69128 12.5641 9.70349C12.705 9.70928 12.7795 9.8057 12.7748 9.94199Z" fill="#060606"/>
<path d="M8.21168 11.8615C8.21899 11.9888 8.14853 12.0981 8.00496 12.1026C7.7085 12.1129 7.41071 12.1154 7.11426 12.1026C6.97667 12.0968 6.90156 11.9965 6.90953 11.8596C6.91684 11.7381 6.99129 11.6584 7.11559 11.6494C7.26913 11.6384 7.42334 11.6468 7.57755 11.6474C7.72046 11.6474 7.86404 11.6417 8.00628 11.6494C8.13723 11.6564 8.20503 11.7516 8.21168 11.8615Z" fill="#020202"/>
<path d="M3.6452 13.8061C3.6565 13.9585 3.55613 14.0472 3.40325 14.0517C3.12807 14.0594 2.85222 14.0581 2.57703 14.0517C2.43745 14.0478 2.34306 13.9662 2.33907 13.8325C2.33375 13.6853 2.42681 13.5933 2.58102 13.5843C2.72393 13.5753 2.86751 13.5824 3.01108 13.5824V13.5805C3.13272 13.5805 3.2537 13.5792 3.37533 13.5811C3.52888 13.583 3.63324 13.6595 3.6452 13.8061Z" fill="#020202"/>
<path d="M10.4949 13.8177C10.4976 13.9546 10.4151 14.0388 10.2749 14.0485C10.1327 14.0581 9.98908 14.0504 9.84617 14.051C9.70326 14.051 9.55968 14.0575 9.41744 14.0497C9.27453 14.0414 9.19144 13.9495 9.18945 13.8202C9.18812 13.6917 9.27187 13.592 9.41146 13.5869C9.69728 13.5773 9.98442 13.576 10.2702 13.5869C10.4052 13.592 10.4929 13.6808 10.4949 13.8177Z" fill="#020202"/>
<path d="M5.92246 11.8776C5.92179 12.0299 5.82674 12.1071 5.66987 12.1096C5.54956 12.1122 5.42859 12.1103 5.30761 12.1103V12.1077C5.15407 12.1077 5.00052 12.1129 4.84698 12.1064C4.70074 12.1 4.62696 12.0049 4.62763 11.875C4.62829 11.7452 4.70274 11.65 4.84963 11.6468C5.12349 11.641 5.39801 11.6417 5.67253 11.6436C5.82873 11.6442 5.92379 11.7239 5.92246 11.8776Z" fill="#010101"/>
<path d="M10.4942 11.8814C10.4929 12.0158 10.4072 12.1026 10.2663 12.1058C9.98044 12.1122 9.69462 12.1129 9.4088 12.1045C9.26456 12.1006 9.18612 11.9965 9.18945 11.8718C9.19343 11.7477 9.2732 11.6507 9.41943 11.6462C9.56234 11.6417 9.70525 11.6449 9.84816 11.6449V11.6429C9.98044 11.6429 10.1127 11.6391 10.2443 11.6429C10.3999 11.6481 10.4962 11.7291 10.4942 11.8814Z" fill="#010101"/>
<path d="M12.7742 11.8712C12.7768 12.0036 12.705 12.1013 12.5601 12.1051C12.275 12.1129 11.9898 12.1116 11.7047 12.1064C11.5604 12.1039 11.482 12.0158 11.4807 11.8814C11.4787 11.7291 11.5684 11.6474 11.7266 11.6436C11.8688 11.6404 12.0118 11.6436 12.1547 11.6436V11.6455C12.2863 11.6455 12.4179 11.6417 12.5495 11.6468C12.6944 11.6519 12.7715 11.7374 12.7742 11.8712Z" fill="#010101"/>
<path d="M8.21101 13.8048C8.22165 13.952 8.1246 14.0478 7.96973 14.0523C7.69454 14.0594 7.41936 14.0587 7.14484 14.051C7.00924 14.0472 6.91419 13.9752 6.90953 13.8331C6.90488 13.6788 6.99927 13.5959 7.15015 13.585C7.2924 13.574 7.43597 13.5824 7.57888 13.5824V13.5805C7.69986 13.5805 7.8215 13.5811 7.94247 13.5805C8.09934 13.5805 8.20104 13.6615 8.21101 13.8048Z" fill="#010101"/>
<path d="M3.64454 11.8892C3.63856 12.019 3.55015 12.1032 3.40724 12.1077C3.26499 12.1122 3.12142 12.109 2.97851 12.109C2.84624 12.109 2.71463 12.1135 2.58235 12.1084C2.42482 12.1019 2.33309 12.0081 2.33974 11.8634C2.34505 11.7368 2.43213 11.6468 2.57703 11.6455C2.85155 11.6417 3.12674 11.6397 3.40192 11.6455C3.55813 11.6487 3.65185 11.7407 3.64454 11.8892Z" fill="#010101"/>
<path d="M5.92246 13.81C5.93043 13.9662 5.83339 14.0485 5.68117 14.0523C5.40732 14.0594 5.13279 14.0587 4.85894 14.0504C4.72068 14.0465 4.63161 13.9675 4.62895 13.8286C4.6263 13.6769 4.71669 13.5914 4.8709 13.5837C5.01315 13.576 5.15606 13.5818 5.29897 13.5811C5.41995 13.5811 5.54025 13.5779 5.66123 13.5818C5.81212 13.5863 5.91448 13.6557 5.92246 13.81Z" fill="#010101"/>
</svg>
