<svg width="21" height="22" viewBox="0 0 21 22" fill="none" xmlns="http://www.w3.org/2000/svg">
<g clip-path="url(#clip0_1232_2666)">
<path d="M12.6377 12.0893C12.6377 12.2553 13.1288 12.4107 13.7603 12.4344C14.3917 12.4581 14.8829 12.3449 14.9025 12.171C14.9222 11.9971 14.4086 11.847 13.7799 11.8233C13.1513 11.7995 12.6433 11.9207 12.6377 12.0893Z" fill="#0C9B14"/>
<path d="M14.302 6.80549e-07C14.2347 -0.0021419 14.1693 0.0207342 14.1199 0.0636542C14.0705 0.106574 14.0411 0.166067 14.0382 0.229195L13.9961 1.18285L14.5069 1.20393L14.549 0.247636C14.5505 0.216063 14.5452 0.184527 14.5336 0.154881C14.5219 0.125235 14.504 0.0980783 14.481 0.0750066C14.458 0.0519349 14.4303 0.0334141 14.3996 0.0205333C14.3688 0.00765247 14.3357 0.000671448 14.302 6.80549e-07Z" fill="#32B839"/>
<path d="M14.5121 0.972099L13.9985 0.945755L13.019 3.36678C13.6365 4.03066 14.2763 4.59705 15.2642 3.45635L14.5121 0.972099Z" fill="#FFCB86"/>
<path d="M13.5639 3.69345C13.9793 3.29302 14.3526 3.34571 14.6865 3.7356L14.3189 12.1657L13.1963 12.1209L13.5639 3.69345Z" fill="#32B839"/>
<path d="M15.2759 3.46162C15.1624 3.44469 15.046 3.46088 14.9427 3.50799C14.8393 3.5551 14.7538 3.63087 14.6977 3.72506L14.3301 12.1552L14.8914 12.1763L15.2759 3.46162Z" fill="#3FBF46"/>
<path d="M13.0195 3.37468C13.1369 3.36585 13.2542 3.39187 13.3549 3.44908C13.4557 3.50628 13.5347 3.59177 13.5808 3.69345L13.2132 12.1104L12.6519 12.0893L13.0195 3.37468Z" fill="#0C9B14"/>
<path d="M10.6056 21.6417C10.7403 21.7524 11.1837 21.4837 11.5934 21.0437C12.0032 20.6038 12.2305 20.1585 12.0958 20.0479C11.9611 19.9373 11.5177 20.2033 11.1079 20.6433C10.6982 21.0832 10.4765 21.5311 10.6056 21.6417Z" fill="#CC7A0A"/>
<path d="M0.0671752 11.5466C0.0449022 11.5698 0.027788 11.597 0.0168405 11.6265C0.005893 11.656 0.00133248 11.6872 0.00342389 11.7184C0.00551529 11.7495 0.0142165 11.78 0.0290195 11.808C0.0438225 11.8359 0.0644277 11.8608 0.0896254 11.8812L0.855796 12.5108L1.19257 12.1499L0.426404 11.5203C0.401103 11.4996 0.371669 11.4839 0.33982 11.474C0.307971 11.4641 0.274346 11.4603 0.240906 11.4628C0.207465 11.4652 0.174878 11.4739 0.14505 11.4883C0.115222 11.5027 0.0887496 11.5225 0.0671752 11.5466Z" fill="#F89F26"/>
<path d="M1.00462 12.0103L0.653809 12.3633L2.05705 14.5999C2.99722 14.5657 3.86442 14.4524 3.54729 13.0193L1.00462 12.0103Z" fill="#FFCB86"/>
<path d="M2.66912 14.3997C2.59615 13.8439 2.8768 13.6094 3.41284 13.6094L11.7228 20.4589L10.9791 21.2492L2.66912 14.3997Z" fill="#F89F26"/>
<path d="M3.54727 13.0087C3.46254 13.0825 3.40414 13.179 3.38003 13.2851C3.35592 13.3912 3.36728 13.5017 3.41256 13.6015L11.7225 20.451L12.0958 20.0532L3.54727 13.0087Z" fill="#FFAF42"/>
<path d="M2.05713 14.5999C2.12437 14.5118 2.21893 14.4453 2.32792 14.4095C2.43691 14.3736 2.55501 14.3702 2.66613 14.3997L10.9761 21.2492L10.6029 21.6496L2.05713 14.5999Z" fill="#DB8816"/>
<path d="M9.16869 17.2185C9.26131 17.3634 9.76928 17.2185 10.2913 16.9208C10.8133 16.6232 11.1753 16.2491 11.0799 16.1068C10.9845 15.9646 10.4821 16.1068 9.95731 16.4045C9.4325 16.7022 9.07327 17.0763 9.16869 17.2185Z" fill="#CC2E0A"/>
<path d="M2.23965 4.67082C2.21122 4.68703 2.18647 4.70835 2.16684 4.73356C2.1472 4.75877 2.13307 4.78738 2.12525 4.81773C2.11742 4.84808 2.11607 4.87959 2.12125 4.91044C2.12644 4.94129 2.13806 4.97087 2.15546 4.99749L2.6915 5.81152L3.1265 5.54808L2.59327 4.73405C2.5547 4.68237 2.49617 4.64686 2.43014 4.63505C2.3641 4.62324 2.29577 4.63608 2.23965 4.67082Z" fill="#F84D26"/>
<path d="M2.99458 5.36367L2.55957 5.62711L3.1798 8.13771C4.0891 8.36163 4.95631 8.49336 5.10225 7.02335L2.99458 5.36367Z" fill="#FFCB86"/>
<path d="M3.83936 8.114C3.9432 7.5634 4.28559 7.41324 4.79917 7.5555L10.6086 16.3834L9.64877 16.9419L3.83936 8.114Z" fill="#F84D26"/>
<path d="M5.1135 7.02599C5.00989 7.07297 4.92417 7.14872 4.86795 7.24296C4.81172 7.33721 4.78772 7.44539 4.79918 7.55287L10.6086 16.3808L11.0885 16.1173L5.1135 7.02599Z" fill="#FF6542"/>
<path d="M3.17969 8.13771C3.27184 8.07124 3.3837 8.03327 3.49982 8.02902C3.61594 8.02477 3.7306 8.05447 3.82798 8.114L9.6374 16.9419L9.15749 17.2054L3.17969 8.13771Z" fill="#DB3B16"/>
<path d="M13.3057 21.8867C13.359 22.0474 13.8838 22.0369 14.4816 21.8683C15.0794 21.6997 15.52 21.4283 15.4667 21.2676C15.4133 21.1069 14.8885 21.1148 14.2936 21.2861C13.6986 21.4573 13.2552 21.726 13.3057 21.8867Z" fill="#0A5BCC"/>
<path d="M9.21941 5.63238C9.18743 5.64141 9.15768 5.65629 9.13187 5.67618C9.10606 5.69607 9.08471 5.72056 9.06905 5.74825C9.05339 5.77593 9.04373 5.80626 9.04064 5.83746C9.03754 5.86867 9.04107 5.90015 9.05102 5.93007L9.35412 6.84421L9.84245 6.70459L9.54496 5.79045C9.53579 5.75931 9.51987 5.73029 9.49819 5.7052C9.4765 5.68011 9.44953 5.6595 9.41897 5.64466C9.3884 5.62982 9.35489 5.62107 9.32055 5.61896C9.28621 5.61684 9.25178 5.62141 9.21941 5.63238Z" fill="#267EF8"/>
<path d="M9.75807 6.47803L9.26974 6.61765L9.19678 9.20728C10.0135 9.64196 10.8161 9.97653 11.3578 8.58819L9.75807 6.47803Z" fill="#FFCB86"/>
<path d="M9.83105 9.34163C10.0808 8.83583 10.4513 8.7726 10.9087 9.03341L14.9276 21.4152L13.8443 21.7313L9.83105 9.34163Z" fill="#267EF8"/>
<path d="M11.3577 8.58556C11.244 8.60604 11.1397 8.65907 11.0593 8.73737C10.9789 8.81566 10.9263 8.91539 10.9087 9.02287L14.9276 21.4046L15.4664 21.2492L11.3577 8.58556Z" fill="#4291FF"/>
<path d="M9.19678 9.21255C9.30372 9.16976 9.42218 9.1592 9.5358 9.18232C9.64941 9.20544 9.75258 9.26111 9.83104 9.34164L13.8471 21.7234L13.3055 21.8788L9.19678 9.21255Z" fill="#005BDB"/>
<path d="M13.982 15.9962C13.9231 16.1542 14.3497 16.4414 14.9362 16.6416C15.5228 16.8418 16.0588 16.8734 16.1093 16.7154C16.1598 16.5573 15.7417 16.2675 15.1551 16.0699C14.5686 15.8723 14.0437 15.8381 13.982 15.9962Z" fill="#9D4108"/>
<path d="M20.1395 3.09807C20.0766 3.07688 20.0073 3.07996 19.9468 3.10662C19.8863 3.13328 19.8396 3.18136 19.8167 3.24033L19.4575 4.13867L19.9374 4.302L20.2995 3.40103C20.3108 3.37132 20.3157 3.33975 20.3138 3.30822C20.3119 3.2767 20.3032 3.24586 20.2882 3.21757C20.2733 3.18928 20.2524 3.16411 20.2268 3.14358C20.2013 3.12304 20.1716 3.10756 20.1395 3.09807Z" fill="#C9601F"/>
<path d="M20.0185 4.08334L19.5358 3.92001L17.8379 5.95114C18.2168 6.75727 18.6462 7.47647 19.9652 6.67034L20.0185 4.08334Z" fill="#FFCB86"/>
<path d="M18.2618 6.41217C18.7866 6.14872 19.1234 6.30415 19.3254 6.77308L15.576 16.5362L14.5151 16.1753L18.2618 6.41217Z" fill="#C9601F"/>
<path d="M19.9627 6.67297C19.8585 6.62604 19.7413 6.61047 19.6273 6.62839C19.5133 6.6463 19.4079 6.69684 19.3256 6.77308L15.5762 16.5362L16.1094 16.7154L19.9627 6.67297Z" fill="#D07136"/>
<path d="M17.838 5.95114C17.9508 5.97736 18.0522 6.03579 18.1281 6.11837C18.204 6.20094 18.2507 6.3036 18.2618 6.41216L14.5152 16.1753L13.9819 15.9962L17.838 5.95114Z" fill="#AC4D11"/>
</g>
<defs>
<clipPath id="clip0_1232_2666">
<rect width="20.3077" height="22" fill="white"/>
</clipPath>
</defs>
</svg>
