<svg width="22" height="24" viewBox="0 0 22 24" fill="none" xmlns="http://www.w3.org/2000/svg">
<g clip-path="url(#clip0_1232_5547)">
<path fill-rule="evenodd" clip-rule="evenodd" d="M8.38763 2.58142C13.0144 2.58142 16.7735 3.44006 16.7735 4.49741C16.7735 5.55476 13.0144 6.40975 8.38763 6.40975C3.76082 6.40975 0.0126953 5.55293 0.0126953 4.49376C0.0126953 3.43459 3.76264 2.58142 8.38763 2.58142Z" fill="#C2C7D8"/>
<path fill-rule="evenodd" clip-rule="evenodd" d="M15.6908 5.43258C14.2561 6.01595 11.5234 6.40972 8.38777 6.40972C5.25218 6.40972 2.5213 6.01595 1.0957 5.43258C2.53042 4.84922 5.26312 4.45544 8.39688 4.45544C11.5306 4.45544 14.2561 4.84922 15.6908 5.43258Z" fill="#B8BDCA"/>
<path fill-rule="evenodd" clip-rule="evenodd" d="M11.2336 2.11474C11.0479 2.33255 10.8774 2.56278 10.7231 2.80384L19.8182 10.6027C20.0343 10.4139 20.2366 10.2098 20.4234 9.99199C21.4668 8.77323 21.9834 7.18999 21.8596 5.5904C21.7359 3.99082 20.9819 2.50587 19.7635 1.4621C18.5456 0.417874 16.963 -0.0999775 15.3634 0.0224074C13.7639 0.144792 12.2784 0.897395 11.2336 2.11474Z" fill="#829E32"/>
<path fill-rule="evenodd" clip-rule="evenodd" d="M10.8978 2.51399C10.8273 2.59785 10.758 2.68354 10.6899 2.77104L19.8652 10.6301C19.9399 10.5498 20.0147 10.4678 20.0858 10.384C20.603 9.78041 20.9962 9.08077 21.2427 8.3251C21.4893 7.56943 21.5843 6.77256 21.5225 5.98009C21.4607 5.18763 21.2432 4.41513 20.8825 3.70682C20.5218 2.99851 20.0249 2.36829 19.4204 1.85224C18.202 0.810904 16.6201 0.295701 15.0221 0.419777C13.4242 0.543854 11.9408 1.29707 10.8978 2.51399Z" fill="#97B636"/>
<path fill-rule="evenodd" clip-rule="evenodd" d="M11.1531 2.73812C12.1375 1.5895 13.5378 0.87879 15.046 0.762219C16.5543 0.645648 18.0471 1.13276 19.1963 2.11648C20.3449 3.10089 21.0556 4.50112 21.1722 6.00936C21.2888 7.5176 20.8016 9.01041 19.8179 10.1596C19.745 10.2435 19.6721 10.3255 19.5955 10.4039L10.9453 2.99517C11.0128 2.90949 11.0802 2.82198 11.1531 2.73812Z" fill="#CAD77C"/>
<path fill-rule="evenodd" clip-rule="evenodd" d="M14.9596 1.41471L15.3078 5.93397C15.3109 5.96706 15.3038 6.00029 15.2875 6.02927C15.2712 6.05824 15.2465 6.08158 15.2167 6.09622C15.1875 6.11092 15.1547 6.11669 15.1222 6.1128C15.0898 6.10891 15.0592 6.09553 15.0344 6.07434L11.6326 3.15752C11.5991 3.1267 11.5782 3.08442 11.5743 3.03902C11.573 2.9937 11.5886 2.94949 11.6181 2.91505C12.4427 2.00995 13.5588 1.42287 14.7719 1.25611C14.7948 1.25293 14.8181 1.25452 14.8404 1.2608C14.8627 1.26707 14.8834 1.27789 14.9013 1.29257C14.9191 1.30768 14.9334 1.32637 14.9435 1.34742C14.9535 1.36847 14.959 1.3914 14.9596 1.41471Z" fill="#A0BD3D"/>
<path fill-rule="evenodd" clip-rule="evenodd" d="M18.8244 2.63429L15.9385 6.00322C15.917 6.0293 15.888 6.04817 15.8554 6.0573C15.8228 6.06642 15.7882 6.06536 15.7562 6.05426C15.7245 6.04405 15.6965 6.02451 15.676 5.99816C15.6555 5.97182 15.6435 5.93991 15.6414 5.9066L15.2932 1.39281C15.291 1.36965 15.2938 1.3463 15.3013 1.3243C15.3089 1.3023 15.321 1.28215 15.3369 1.2652C15.3521 1.24773 15.3709 1.23379 15.392 1.22434C15.4131 1.21489 15.436 1.21017 15.4591 1.21051C16.6781 1.2047 17.8607 1.62515 18.8025 2.39912C18.82 2.41315 18.8345 2.43054 18.8451 2.45027C18.8558 2.46999 18.8624 2.49165 18.8645 2.51397C18.8663 2.53569 18.8637 2.55757 18.8568 2.57826C18.8499 2.59894 18.8389 2.61801 18.8244 2.63429Z" fill="#A0BD3D"/>
<path fill-rule="evenodd" clip-rule="evenodd" d="M20.5491 6.17458L16.3343 6.49907C16.3012 6.5021 16.268 6.49501 16.239 6.47873C16.21 6.46245 16.1867 6.43776 16.1721 6.40792C16.1574 6.37876 16.1516 6.3459 16.1555 6.31347C16.1594 6.28104 16.1727 6.25048 16.1939 6.22562L19.0597 2.88039C19.0749 2.86207 19.0938 2.84721 19.1152 2.83683C19.1365 2.82645 19.1599 2.82079 19.1837 2.82023C19.2076 2.81971 19.2314 2.82432 19.2534 2.83375C19.2754 2.84318 19.2952 2.85722 19.3113 2.87492C20.1119 3.72994 20.6024 4.82898 20.7041 5.99593C20.7063 6.01796 20.7039 6.0402 20.697 6.06124C20.69 6.08228 20.6788 6.10163 20.664 6.11807C20.6499 6.13503 20.6324 6.14884 20.6126 6.15858C20.5928 6.16832 20.5712 6.17377 20.5491 6.17458Z" fill="#A0BD3D"/>
<path fill-rule="evenodd" clip-rule="evenodd" d="M19.3275 9.75314L16.2648 7.13894C16.2387 7.11738 16.2199 7.08837 16.2107 7.05578C16.2016 7.0232 16.2027 6.9886 16.2138 6.95664C16.2239 6.92513 16.2431 6.89737 16.2691 6.8769C16.2951 6.85644 16.3266 6.84421 16.3596 6.84178L20.538 6.51911C20.5617 6.51715 20.5855 6.52037 20.6079 6.52856C20.6302 6.53674 20.6506 6.54969 20.6674 6.56651C20.6847 6.58275 20.6983 6.60259 20.7071 6.62464C20.7159 6.64669 20.7198 6.67041 20.7184 6.69412C20.6692 7.80557 20.2661 8.87222 19.5681 9.73856C19.5543 9.75628 19.537 9.77093 19.5172 9.7816C19.4974 9.79227 19.4757 9.79872 19.4533 9.80054C19.4301 9.80221 19.4069 9.79883 19.3852 9.79065C19.3635 9.78247 19.3438 9.76967 19.3275 9.75314Z" fill="#A0BD3D"/>
<path fill-rule="evenodd" clip-rule="evenodd" d="M16.2429 4.95135C16.1372 5.28314 15.9148 5.76077 15.8364 5.72978C15.758 5.69878 15.8564 5.17011 15.9622 4.83832C16.1226 4.32241 16.4034 4.43544 16.2429 4.95135Z" fill="#D8DF8F"/>
<path fill-rule="evenodd" clip-rule="evenodd" d="M14.7992 4.92399C14.945 5.2412 15.1018 5.74253 15.0234 5.77169C14.945 5.80086 14.6588 5.34511 14.5148 5.02972C14.2924 4.54663 14.5768 4.44089 14.7992 4.92399Z" fill="#D8DF8F"/>
<path fill-rule="evenodd" clip-rule="evenodd" d="M17.3131 5.81721C17.0232 6.00863 16.5492 6.23833 16.5091 6.16541C16.469 6.09249 16.8737 5.74246 17.1672 5.55287C17.612 5.26119 17.7579 5.52553 17.3131 5.81721Z" fill="#D8DF8F"/>
<path fill-rule="evenodd" clip-rule="evenodd" d="M15.2187 22.8169C13.9244 23.3838 11.4706 23.9927 8.38789 23.9927C4.85489 23.9927 2.17141 23.1851 1.09583 22.5653C0.472356 22.2007 0.576267 22.0603 0.548922 21.3311L-0.0107422 4.48645H0.00201748C0.00201748 5.54562 3.75196 6.40244 8.37695 6.40244C12.8324 6.40244 16.4748 5.6076 16.7373 4.60312L16.2323 21.0595C16.2123 22.0877 16.4547 22.2827 15.2187 22.8169Z" fill="#C2C7D8"/>
<path fill-rule="evenodd" clip-rule="evenodd" d="M0.559664 21.3366L0 4.49377H0.0127597C0.0127597 5.55295 3.7627 6.40977 8.3877 6.40977C11.8314 6.40977 14.7883 5.93578 16.0772 5.2558L15.6378 20.1571C15.6068 21.1725 15.8438 21.3731 14.6461 21.9145C13.3919 22.4815 11.0147 23.0885 8.02856 23.0885C4.60494 23.0885 2.01261 22.2809 0.969843 21.6629C0.812757 21.5826 0.673304 21.4716 0.559664 21.3366Z" fill="#E3E5EF"/>
<path fill-rule="evenodd" clip-rule="evenodd" d="M15.6633 19.2365C15.6633 19.2675 15.6743 18.8482 15.6743 19.3276C15.6743 19.8071 12.6882 21.0121 8.38222 21.0121C4.07625 21.0121 1.13755 19.7961 1.13755 19.3276V19.3131H1.12661L0.772949 10.3584H0.791178C0.844045 11.2553 4.22392 11.9791 8.38222 11.9791C12.5405 11.9791 15.9222 11.2499 15.9751 10.3584H15.9842L15.6633 19.2365Z" fill="white"/>
<path fill-rule="evenodd" clip-rule="evenodd" d="M8.38778 7.64575C12.5807 7.64575 15.9825 8.42236 15.9825 9.38309C15.9825 10.3438 12.5825 11.1186 8.38778 11.1186C4.19302 11.1186 0.794922 10.342 0.794922 9.38309C0.794922 8.42418 4.19485 7.64575 8.38778 7.64575Z" fill="#B2CEE6"/>
<path fill-rule="evenodd" clip-rule="evenodd" d="M15.6633 18.8062C15.6633 18.8372 15.6743 18.3942 15.6743 18.901C15.6743 19.4078 12.6882 20.6839 8.38222 20.6839C4.07625 20.6839 1.13755 19.3969 1.13755 18.901V18.8846H1.12661L0.772949 9.41406H0.791178C0.844045 10.3639 4.22392 11.1277 8.38222 11.1277C12.5405 11.1277 15.9222 10.3639 15.9751 9.41406H15.9842L15.6633 18.8062Z" fill="#97B9D1"/>
<path fill-rule="evenodd" clip-rule="evenodd" d="M7.87714 20.6675C3.85557 20.5727 1.14292 19.3677 1.14292 18.8919V18.8755H1.13198L0.77832 9.40491H0.796549C0.849416 10.3547 4.22929 11.1185 8.38759 11.1185C11.1768 11.1185 13.6142 10.7758 14.9359 10.2617L14.6387 18.8062C14.6387 18.8372 14.6515 18.3942 14.6515 18.901C14.6515 19.4078 11.9005 20.5727 7.87714 20.6675Z" fill="#A7CBE3"/>
<path fill-rule="evenodd" clip-rule="evenodd" d="M15.6634 18.8062C15.6634 18.8372 15.6743 18.3942 15.6743 18.901C15.6743 19.4078 12.6882 20.6839 8.38224 20.6839C4.07627 20.6839 1.13757 19.3969 1.13757 18.901V18.8846H1.12663L0.999023 15.4755C1.79021 14.3599 2.40275 14.5732 3.53119 15.1602C4.84559 15.8438 5.55109 15.0745 6.14904 14.7044C6.74699 14.3343 7.71319 14.8466 8.22546 15.388C8.73772 15.9295 9.53438 15.388 10.2727 14.8174C11.011 14.2468 11.866 15.2167 12.5205 15.4719C12.5734 15.492 13.432 14.925 14.3435 14.9542C14.8667 14.9669 15.4373 15.5339 15.7709 15.5904L15.6634 18.8062Z" fill="#97B9D1"/>
<path fill-rule="evenodd" clip-rule="evenodd" d="M15.1399 13.7456C15.3331 13.5469 15.3404 13.474 15.366 13.1805C15.366 12.4239 15.5264 10.5425 15.1837 9.87533C14.748 9.01486 13.862 8.89454 13.0726 8.59921L11.8147 8.13252C11.6201 8.04837 11.4002 8.04379 11.2022 8.11976C11.1773 8.11976 11.1529 8.12603 11.1311 8.13799C11.0527 8.18174 8.71742 9.69302 8.29631 10.1707C8.114 10.2891 8.00827 10.517 8.00098 10.8999C8.00098 11.3374 8.01374 13.5523 8.16505 13.9698C8.23433 14.1851 8.35275 14.3814 8.51095 14.5431C8.66915 14.7048 8.86279 14.8274 9.07656 14.9014C8.88363 14.8033 8.71229 14.6677 8.57265 14.5024C8.43301 14.337 8.32789 14.1454 8.26349 13.9388C8.13953 13.5523 8.16505 11.3027 8.18145 10.8962C8.17248 10.7054 8.23782 10.5185 8.36376 10.3748C8.79399 9.93731 10.0902 10.6957 10.2597 10.7577C11.1037 11.0694 12.0225 11.1751 12.3489 12.1031C12.4801 12.4677 12.5002 14.7245 12.4929 15.1238C12.4856 15.523 12.3106 15.853 11.8676 15.8111C11.7637 15.8001 9.27526 14.9634 9.07838 14.8996C9.56512 15.0946 11.5868 15.9934 12.039 15.9551C12.168 15.9457 12.2907 15.8953 12.389 15.8111C12.6934 15.5905 15.056 13.8805 15.1436 13.7419C13.3424 14.9305 14.0497 14.4529 12.6096 15.441C12.64 15.3365 12.6577 15.2288 12.6624 15.1201C12.6734 14.8394 12.6624 12.5223 12.6205 12.2598C12.4054 11.0384 11.328 10.8962 10.3363 10.5462C9.97166 10.4186 9.38829 10.1269 8.89608 10.0631C10.1977 9.14065 9.58335 9.57999 11.266 8.36951C12.1173 8.32211 11.5285 8.2656 13.0416 8.79792C15.2657 9.57817 15.1873 9.48155 15.2639 11.8442C15.2839 12.4786 15.4462 13.2042 15.1508 13.7328L15.1399 13.7456Z" fill="#CADDEA"/>
<path fill-rule="evenodd" clip-rule="evenodd" d="M8.16353 9.39765L8.79247 12.0866C8.91461 12.6098 8.54819 12.9762 7.97758 12.8997L5.37614 12.5515C5.08513 12.5046 4.813 12.3773 4.59043 12.1841C4.36786 11.9908 4.20369 11.7392 4.11643 11.4577L3.48749 8.77964C3.36353 8.25461 3.72995 7.89001 4.30056 7.96658L6.902 8.31478C7.19212 8.36026 7.46382 8.48567 7.68665 8.67694C7.90947 8.86821 8.07461 9.11778 8.16353 9.39765Z" fill="#B2CEE6"/>
<path fill-rule="evenodd" clip-rule="evenodd" d="M15.9823 9.38306C16.1646 10.6245 11.5797 11.1587 10.6609 11.2407C8.16152 11.4613 4.42799 11.3483 2.05807 10.4568C1.66976 10.3092 0.71086 9.93725 0.794719 9.38306L0.829357 9.46691C1.69529 11.4376 15.0434 11.6965 15.9823 9.38306Z" fill="white"/>
<path fill-rule="evenodd" clip-rule="evenodd" d="M9.8514 12.7574L11.8184 14.6953C12.2013 15.0727 12.0882 15.5776 11.565 15.8183L9.18053 16.9121C8.91062 17.0258 8.61451 17.0627 8.32494 17.0186C8.03538 16.9746 7.76365 16.8512 7.53981 16.6623L5.57096 14.7263C5.18812 14.3489 5.30297 13.844 5.82618 13.6033L8.21068 12.5095C8.48043 12.3955 8.77645 12.3583 9.066 12.4021C9.35556 12.4459 9.62738 12.5688 9.8514 12.7574Z" fill="#B2CEE6"/>
<path fill-rule="evenodd" clip-rule="evenodd" d="M12.1232 15.3315C12.0466 16.285 11.7841 18.4161 11.5654 18.7953L11.5927 18.7825C11.5481 18.8979 11.4805 19.0029 11.394 19.0913C11.3075 19.1797 11.2039 19.2495 11.0896 19.2966C10.3604 19.6484 8.76157 20.6019 7.95762 20.5855C6.93855 20.5654 6.42993 19.7724 5.8174 19.1489L4.88219 18.1937C4.73881 18.0258 4.66626 17.8088 4.67983 17.5884C4.71447 17.1126 5.00798 15.1529 5.22674 14.2377C5.21762 13.5085 6.57577 13.1549 6.98413 12.9726C7.91569 12.5606 8.96757 11.8605 9.86085 12.7502C10.2564 13.1148 11.9354 14.5258 12.1032 14.9615C12.1513 15.0768 12.1616 15.2045 12.1323 15.3261L12.1232 15.3315ZM5.31424 14.5841C5.16293 16.1592 5.23221 15.5813 5.01163 17.1363C4.87854 18.077 5.42545 18.2301 6.13825 18.9101C6.67239 19.4187 7.10991 20.1097 7.96126 20.1498C8.55557 20.1789 10.3312 19.262 10.9091 19.0049C11.064 18.9324 11.1917 18.8123 11.2737 18.6622C11.6583 16.7608 11.6729 16.4582 11.8206 15.7672C11.3922 16.1318 10.6557 16.3561 10.415 16.4691C9.47254 16.9157 8.40973 17.6431 7.43077 16.7663C7.27946 16.6314 5.44185 14.7992 5.34523 14.6443L5.3106 14.5859L5.31424 14.5841ZM9.85173 12.7611C8.76886 12.0629 8.13263 12.6189 7.04611 13.1366C6.96407 13.1767 5.64056 13.6179 5.47467 14.081C5.27232 14.6479 6.52837 15.5011 6.63958 15.6086C7.27946 16.2266 7.77167 17.0087 8.74151 16.9048C9.13164 16.8611 11.1679 15.9094 11.5234 15.7326C11.8789 15.5558 12.0977 15.2586 11.8698 14.8904C11.8242 14.812 9.98663 12.8996 9.85173 12.7575V12.7611Z" fill="#CADDEA"/>
<path fill-rule="evenodd" clip-rule="evenodd" d="M2.20052 16.3415C2.16074 16.3655 2.13161 16.4037 2.11907 16.4485C2.10653 16.4932 2.11154 16.541 2.13307 16.5822C2.15701 16.6215 2.19493 16.6503 2.23923 16.6628C2.28353 16.6753 2.33091 16.6706 2.37188 16.6496C2.4112 16.6257 2.44 16.5877 2.45252 16.5434C2.46503 16.4991 2.46032 16.4518 2.43934 16.4108C2.41569 16.3712 2.37789 16.342 2.33357 16.3291C2.28925 16.3163 2.2417 16.3207 2.20052 16.3415Z" fill="#CADDEA"/>
<path fill-rule="evenodd" clip-rule="evenodd" d="M2.45369 15.5941C2.42041 15.6125 2.39111 15.6374 2.36748 15.6672C2.34385 15.697 2.32636 15.7312 2.31602 15.7678C2.30568 15.8044 2.30269 15.8427 2.30724 15.8805C2.31178 15.9182 2.32376 15.9547 2.34249 15.9879C2.36074 16.0211 2.3854 16.0503 2.41506 16.074C2.44471 16.0976 2.47875 16.115 2.51522 16.1254C2.55168 16.1357 2.58983 16.1387 2.62747 16.1342C2.6651 16.1297 2.70146 16.1177 2.73444 16.0991C2.76748 16.0806 2.79657 16.0559 2.82004 16.0262C2.84351 15.9965 2.86091 15.9625 2.87124 15.9261C2.88156 15.8897 2.88462 15.8517 2.88023 15.8141C2.87583 15.7765 2.86408 15.7401 2.84564 15.7071C2.82737 15.6739 2.80272 15.6447 2.77312 15.621C2.74351 15.5973 2.70953 15.5798 2.67312 15.5693C2.63671 15.5588 2.59859 15.5555 2.56093 15.5598C2.52328 15.5641 2.48684 15.5757 2.45369 15.5941Z" fill="#CADDEA"/>
<path fill-rule="evenodd" clip-rule="evenodd" d="M2.78914 17.0835C2.75836 17.1006 2.73126 17.1236 2.70939 17.1512C2.68751 17.1788 2.67128 17.2104 2.66163 17.2443C2.65198 17.2782 2.6491 17.3136 2.65314 17.3486C2.65719 17.3835 2.66809 17.4174 2.68522 17.4481C2.70218 17.4791 2.72507 17.5063 2.75259 17.5284C2.7801 17.5505 2.8117 17.5669 2.84557 17.5767C2.87945 17.5865 2.91493 17.5896 2.94998 17.5856C2.98503 17.5817 3.01896 17.5709 3.04983 17.5539C3.11161 17.519 3.15716 17.4611 3.17661 17.3929C3.19606 17.3246 3.18785 17.2515 3.15374 17.1893C3.13697 17.1582 3.11417 17.1307 3.08668 17.1085C3.05918 17.0863 3.02754 17.0698 2.9936 17.06C2.95966 17.0501 2.9241 17.0471 2.889 17.0512C2.85389 17.0552 2.81995 17.0662 2.78914 17.0835Z" fill="#CADDEA"/>
<path fill-rule="evenodd" clip-rule="evenodd" d="M3.10807 16.1483C3.08204 16.1629 3.06284 16.1872 3.05464 16.2159C3.04645 16.2445 3.04992 16.2753 3.06432 16.3014C3.07136 16.3145 3.08094 16.326 3.09251 16.3353C3.10408 16.3446 3.11739 16.3515 3.13166 16.3556C3.14593 16.3597 3.16087 16.3609 3.17561 16.3591C3.19034 16.3573 3.20457 16.3526 3.21745 16.3452C3.23052 16.3381 3.24204 16.3286 3.25134 16.317C3.26064 16.3054 3.26754 16.2921 3.27161 16.2778C3.27569 16.2636 3.27687 16.2486 3.27508 16.2339C3.2733 16.2192 3.26858 16.2049 3.2612 16.1921C3.24662 16.166 3.22234 16.1468 3.19365 16.1386C3.16497 16.1304 3.1342 16.1339 3.10807 16.1483Z" fill="#CADDEA"/>
<path fill-rule="evenodd" clip-rule="evenodd" d="M6.6065 9.11689C6.60314 9.09134 6.59475 9.06672 6.58182 9.04443C6.56889 9.02215 6.55168 9.00264 6.53117 8.98705C6.51066 8.97146 6.48726 8.96008 6.46233 8.95358C6.4374 8.94708 6.41143 8.94558 6.38592 8.94917C6.36045 8.95231 6.33586 8.96049 6.31359 8.97323C6.29132 8.98597 6.2718 9.00302 6.25619 9.02338C6.24058 9.04375 6.22918 9.06702 6.22266 9.09184C6.21613 9.11665 6.21462 9.14252 6.2182 9.16793C6.22112 9.19356 6.22913 9.21835 6.24178 9.24083C6.25442 9.26331 6.27144 9.28303 6.29183 9.29883C6.31222 9.31464 6.33556 9.3262 6.36049 9.33283C6.38541 9.33947 6.41142 9.34104 6.43696 9.33747C6.48847 9.33021 6.53508 9.30304 6.56678 9.2618C6.59848 9.22056 6.61274 9.16853 6.6065 9.11689Z" fill="white"/>
<path fill-rule="evenodd" clip-rule="evenodd" d="M7.27559 9.6911C7.27023 9.6488 7.25648 9.608 7.23517 9.57108C7.21385 9.53415 7.18539 9.50185 7.15144 9.47605C7.11749 9.45025 7.07874 9.43147 7.03746 9.42082C6.99618 9.41017 6.95318 9.40785 6.91099 9.414C6.86886 9.41959 6.82825 9.43349 6.79153 9.45491C6.75482 9.47632 6.72272 9.50482 6.69711 9.53874C6.6715 9.57266 6.65288 9.61134 6.64234 9.65251C6.6318 9.69369 6.62955 9.73655 6.63572 9.77861C6.64107 9.82084 6.65482 9.86158 6.67616 9.89842C6.69751 9.93526 6.726 9.96746 6.75998 9.99311C6.79396 10.0188 6.83273 10.0374 6.87401 10.0478C6.91528 10.0582 6.95823 10.0603 7.00032 10.0539C7.04238 10.0485 7.08295 10.0348 7.11965 10.0136C7.15636 9.99237 7.18846 9.96404 7.21409 9.93026C7.23972 9.89648 7.25836 9.85794 7.26892 9.81687C7.27948 9.77581 7.28175 9.73305 7.27559 9.6911Z" fill="white"/>
<path fill-rule="evenodd" clip-rule="evenodd" d="M6.07991 9.67294C6.06947 9.59439 6.02828 9.5232 5.96539 9.475C5.90249 9.4268 5.82303 9.40554 5.74447 9.41589C5.66592 9.42633 5.59473 9.46752 5.54653 9.53042C5.49833 9.59331 5.47707 9.67277 5.48743 9.75133C5.49786 9.82988 5.53905 9.90108 5.60195 9.94927C5.66484 9.99747 5.7443 10.0187 5.82286 10.0084C5.90141 9.99794 5.97261 9.95675 6.0208 9.89386C6.069 9.83096 6.09026 9.7515 6.07991 9.67294Z" fill="white"/>
<path fill-rule="evenodd" clip-rule="evenodd" d="M6.43529 10.136C6.43075 10.1032 6.41347 10.0735 6.38719 10.0534C6.36091 10.0333 6.32776 10.0243 6.29491 10.0285C6.27851 10.0305 6.26267 10.0357 6.2483 10.0439C6.23392 10.052 6.22129 10.0629 6.21114 10.076C6.20098 10.089 6.19349 10.1039 6.1891 10.1199C6.1847 10.1358 6.18349 10.1524 6.18553 10.1688C6.19007 10.2016 6.20735 10.2313 6.23363 10.2514C6.25991 10.2716 6.29306 10.2805 6.32591 10.2764C6.34231 10.2744 6.35815 10.2691 6.37252 10.261C6.3869 10.2528 6.39953 10.2419 6.40968 10.2289C6.41984 10.2158 6.42733 10.2009 6.43172 10.185C6.43612 10.1691 6.43733 10.1524 6.43529 10.136Z" fill="white"/>
<path fill-rule="evenodd" clip-rule="evenodd" d="M11.8587 9.53438C11.8366 9.54656 11.8172 9.56297 11.8015 9.58267C11.7858 9.60238 11.7741 9.62499 11.7672 9.64921C11.7602 9.67343 11.7581 9.69878 11.761 9.72381C11.7639 9.74884 11.7717 9.77306 11.7839 9.79507C11.8092 9.83895 11.8506 9.87117 11.8994 9.88481C11.9481 9.89844 12.0003 9.89241 12.0446 9.86799C12.0672 9.85661 12.0872 9.84065 12.1033 9.82113C12.1194 9.80161 12.1312 9.77896 12.1381 9.75461C12.1449 9.73026 12.1467 9.70476 12.1431 9.67971C12.1396 9.65466 12.1309 9.63062 12.1175 9.60912C12.1063 9.58638 12.0905 9.56623 12.0711 9.54995C12.0516 9.53367 12.029 9.52163 12.0046 9.5146C11.9803 9.50757 11.9547 9.50569 11.9296 9.5091C11.9044 9.5125 11.8803 9.52112 11.8587 9.53438Z" fill="white"/>
<path fill-rule="evenodd" clip-rule="evenodd" d="M8.42613 14.2487C8.32943 14.2487 8.23669 14.2871 8.16831 14.3554C8.09994 14.4238 8.06152 14.5166 8.06152 14.6133C8.06152 14.71 8.09994 14.8027 8.16831 14.8711C8.23669 14.9395 8.32943 14.9779 8.42613 14.9779C8.52283 14.9779 8.61556 14.9395 8.68394 14.8711C8.75232 14.8027 8.79073 14.71 8.79073 14.6133C8.79073 14.5166 8.75232 14.4238 8.68394 14.3554C8.61556 14.2871 8.52283 14.2487 8.42613 14.2487Z" fill="white"/>
<path fill-rule="evenodd" clip-rule="evenodd" d="M9.14976 13.5979C9.11618 13.5977 9.08288 13.6041 9.0518 13.6168C9.02073 13.6296 8.9925 13.6484 8.96875 13.6721C8.945 13.6959 8.92621 13.7241 8.91347 13.7552C8.90073 13.7862 8.8943 13.8195 8.89454 13.8531C8.89454 13.9208 8.92143 13.9857 8.96929 14.0336C9.01715 14.0815 9.08207 14.1084 9.14976 14.1084C9.21745 14.1084 9.28237 14.0815 9.33023 14.0336C9.37809 13.9857 9.40498 13.9208 9.40498 13.8531C9.40498 13.7854 9.37809 13.7205 9.33023 13.6727C9.28237 13.6248 9.21745 13.5979 9.14976 13.5979Z" fill="white"/>
<path fill-rule="evenodd" clip-rule="evenodd" d="M6.2983 15.2897C6.08683 15.472 6.0048 15.472 5.70947 15.472C4.76697 15.3699 2.97494 15.4173 2.23298 14.7719C1.60404 14.225 1.56028 13.3591 1.3871 12.6536L1.06807 11.3501C1.01885 11.0366 1.0152 10.96 1.12458 10.7194C1.12936 10.6885 1.14122 10.6592 1.15922 10.6337C1.27407 10.4714 3.41976 7.96843 3.61118 7.97207C3.62978 7.97953 3.64702 7.99 3.66222 8.00306C4.18178 7.69497 5.23184 8.014 5.61102 8.06869C6.62827 8.21818 7.86609 8.18172 8.16325 9.40679C7.64004 8.23276 6.77411 8.35673 5.59279 8.21453C5.39044 8.18901 3.72785 7.6968 3.58748 8.44606C3.52732 8.73956 4.15261 11.1204 4.24376 11.4413C4.56461 12.5624 5.78056 12.5077 6.69936 12.639C7.03662 12.6864 8.74661 13.2515 8.75208 12.2853C8.75208 12.1796 8.20518 9.61096 8.17236 9.40679C8.31091 9.91541 8.96537 12.0265 8.87605 12.4713C8.69374 13.37 7.07855 12.8815 6.67202 12.8359C5.64566 12.7083 4.3659 12.7575 4.00677 11.5033C3.95937 11.3319 3.50179 9.33751 3.39788 8.7505C2.38064 9.87895 2.85098 9.35574 1.48189 10.847C1.33788 11.6655 1.3397 11.0293 1.69519 12.6317C2.20199 14.9196 2.10172 14.8084 4.42059 15.173C5.08782 15.2769 5.72405 15.5194 6.30924 15.3042C7.57077 13.7638 7.20434 14.194 8.02834 13.2442C8.13772 13.2442 8.23981 13.2442 8.33096 13.2442C7.63092 14.0099 6.32565 15.4173 6.30377 15.3097L6.2983 15.2897Z" fill="#CADDEA"/>
<path fill-rule="evenodd" clip-rule="evenodd" d="M0.822173 6.26208C0.966192 7.02593 0.989893 8.84165 1.02635 9.67477C1.15032 12.4603 1.2597 15.2678 1.43471 18.0497C1.50945 19.2529 1.46935 19.3459 2.76369 19.7761C4.77812 20.4451 7.37774 20.4834 9.48514 20.6566C7.94105 20.921 3.65149 20.5345 2.15844 19.9274C1.07922 19.4935 1.12297 19.1836 1.02817 18.0734C0.805767 15.4319 0.807591 12.351 0.783892 9.67295C0.776599 8.85259 0.712792 7.0314 0.822173 6.26208Z" fill="white"/>
<path fill-rule="evenodd" clip-rule="evenodd" d="M15.9369 6.26208C15.7929 7.02593 15.7692 8.84165 15.7309 9.67477C15.6069 12.4603 15.4994 15.2678 15.3244 18.0497C15.2496 19.2529 15.2879 19.3459 13.9954 19.7761C11.9901 20.4451 9.38133 20.4834 7.27393 20.6566C8.8162 20.921 13.1076 20.5345 14.5988 19.9274C15.6799 19.4935 15.6361 19.1836 15.7291 18.0734C15.9533 15.4319 15.9515 12.351 15.9752 9.67295C15.9825 8.85259 16.0463 7.0314 15.9369 6.26208Z" fill="white"/>
<path fill-rule="evenodd" clip-rule="evenodd" d="M2.37711 20.436C2.45186 21.0777 2.30784 21.1961 2.94407 21.548C5.73876 23.0957 10.8104 22.5853 13.9223 22.2079C12.6152 22.9645 9.66553 23.1067 8.1579 23.1194C6.72865 23.1285 2.12189 22.9663 1.3781 21.4787C1.18669 21.0922 1.25596 19.6794 1.1958 19.0322C2.32972 19.9109 2.27138 19.5463 2.37711 20.436Z" fill="white"/>
<path fill-rule="evenodd" clip-rule="evenodd" d="M16.564 4.76907C16.7663 6.01236 11.8442 6.54651 10.8543 6.62855C8.16715 6.84913 4.15105 6.7361 1.60247 5.84283C1.185 5.69699 0.00368787 5.27587 0.0948387 4.71985C0.895142 5.90299 4.92218 6.38426 8.79609 6.38244C10.1397 6.38426 15.9915 6.08164 16.564 4.76907Z" fill="white"/>
<path fill-rule="evenodd" clip-rule="evenodd" d="M3.05925 19.1288C3.07282 19.1733 3.10283 19.2108 3.14314 19.2338C3.18345 19.2569 3.23104 19.2637 3.27619 19.2528C3.3202 19.2393 3.35745 19.2095 3.38045 19.1696C3.40344 19.1297 3.41048 19.0826 3.40015 19.0377C3.38695 18.993 3.3571 18.955 3.31675 18.9316C3.27639 18.9082 3.2286 18.9011 3.18321 18.9119C3.13881 18.9255 3.10126 18.9555 3.07822 18.9958C3.05518 19.0361 3.0484 19.0837 3.05925 19.1288Z" fill="#CADDEA"/>
<path fill-rule="evenodd" clip-rule="evenodd" d="M2.39721 18.7023C2.41771 18.7758 2.46623 18.8384 2.53235 18.8766C2.59848 18.9148 2.67693 18.9255 2.75088 18.9065C2.78763 18.8965 2.82206 18.8795 2.85221 18.8562C2.88236 18.833 2.90764 18.804 2.9266 18.771C2.94556 18.738 2.95783 18.7016 2.96271 18.6638C2.9676 18.6261 2.96499 18.5877 2.95505 18.551C2.94513 18.5145 2.92811 18.4803 2.90496 18.4503C2.88181 18.4204 2.85299 18.3953 2.82015 18.3765C2.78731 18.3577 2.75108 18.3456 2.71355 18.3408C2.67601 18.336 2.6379 18.3387 2.60139 18.3486C2.56471 18.3584 2.53032 18.3752 2.50018 18.3983C2.47005 18.4214 2.44477 18.4502 2.42579 18.483C2.40682 18.5159 2.39453 18.5522 2.38962 18.5898C2.38472 18.6274 2.3873 18.6657 2.39721 18.7023Z" fill="#CADDEA"/>
<path fill-rule="evenodd" clip-rule="evenodd" d="M3.9232 18.7369C3.94311 18.8046 3.98893 18.8618 4.05071 18.8959C4.11249 18.93 4.18524 18.9384 4.25317 18.9192C4.32021 18.8989 4.37672 18.8533 4.41074 18.7921C4.44476 18.7308 4.45363 18.6587 4.43547 18.5911C4.41556 18.5234 4.36974 18.4662 4.30796 18.4321C4.24618 18.398 4.17343 18.3896 4.1055 18.4088C4.03819 18.4287 3.98139 18.4742 3.9473 18.5356C3.91321 18.597 3.90456 18.6692 3.9232 18.7369Z" fill="#CADDEA"/>
<path fill-rule="evenodd" clip-rule="evenodd" d="M3.09371 18.201C3.10179 18.2297 3.12089 18.2541 3.14684 18.2688C3.17279 18.2835 3.20349 18.2873 3.23225 18.2794C3.2464 18.2756 3.25965 18.2691 3.27125 18.2601C3.28285 18.2512 3.29257 18.2401 3.29985 18.2274C3.30714 18.2147 3.31184 18.2006 3.31369 18.1861C3.31554 18.1716 3.31451 18.1568 3.31065 18.1427C3.30293 18.1141 3.28428 18.0896 3.2587 18.0746C3.23312 18.0596 3.20268 18.0553 3.17392 18.0625C3.15954 18.0663 3.14606 18.0729 3.13424 18.082C3.12242 18.091 3.11251 18.1023 3.10506 18.1151C3.0976 18.128 3.09276 18.1422 3.09082 18.157C3.08887 18.1717 3.08985 18.1867 3.09371 18.201Z" fill="#CADDEA"/>
<path fill-rule="evenodd" clip-rule="evenodd" d="M14.7266 16.3415C14.7663 16.3655 14.7955 16.4037 14.808 16.4484C14.8205 16.4932 14.8155 16.541 14.794 16.5821C14.7701 16.6214 14.7322 16.6503 14.6879 16.6628C14.6436 16.6753 14.5962 16.6706 14.5552 16.6496C14.5156 16.6259 14.4864 16.5881 14.4735 16.5438C14.4607 16.4995 14.4651 16.452 14.4859 16.4108C14.5096 16.3707 14.5477 16.3412 14.5925 16.3283C14.6372 16.3154 14.6852 16.3201 14.7266 16.3415Z" fill="#CADDEA"/>
<path fill-rule="evenodd" clip-rule="evenodd" d="M14.4638 15.5941C14.5307 15.6317 14.5799 15.6942 14.6008 15.768C14.6216 15.8418 14.6123 15.9209 14.575 15.9879C14.5566 16.0209 14.5318 16.05 14.5022 16.0735C14.4725 16.0969 14.4385 16.1143 14.4021 16.1247C14.3657 16.135 14.3276 16.138 14.29 16.1336C14.2524 16.1293 14.2161 16.1175 14.1831 16.0991C14.1498 16.0808 14.1206 16.0561 14.097 16.0265C14.0734 15.9968 14.0559 15.9628 14.0455 15.9263C14.0352 15.8899 14.0322 15.8517 14.0367 15.8141C14.0412 15.7764 14.0532 15.7401 14.0719 15.7071C14.0901 15.6739 14.1148 15.6447 14.1444 15.621C14.174 15.5973 14.208 15.5798 14.2444 15.5693C14.2808 15.5588 14.3189 15.5555 14.3566 15.5598C14.3942 15.5641 14.4307 15.5757 14.4638 15.5941Z" fill="#CADDEA"/>
<path fill-rule="evenodd" clip-rule="evenodd" d="M14.1283 17.0835C14.1591 17.1006 14.1862 17.1236 14.208 17.1512C14.2299 17.1788 14.2461 17.2104 14.2558 17.2443C14.2654 17.2782 14.2683 17.3136 14.2643 17.3486C14.2602 17.3835 14.2493 17.4174 14.2322 17.4481C14.2152 17.4791 14.1923 17.5063 14.1648 17.5284C14.1373 17.5505 14.1057 17.5669 14.0718 17.5767C14.038 17.5865 14.0025 17.5896 13.9674 17.5856C13.9324 17.5817 13.8985 17.5709 13.8676 17.5539C13.8058 17.519 13.7603 17.4611 13.7408 17.3929C13.7214 17.3246 13.7296 17.2515 13.7637 17.1893C13.7804 17.1582 13.8032 17.1307 13.8307 17.1085C13.8582 17.0863 13.8899 17.0698 13.9238 17.06C13.9578 17.0501 13.9933 17.0471 14.0284 17.0512C14.0635 17.0552 14.0975 17.0662 14.1283 17.0835Z" fill="#CADDEA"/>
<path fill-rule="evenodd" clip-rule="evenodd" d="M13.815 16.1483C13.828 16.1553 13.8396 16.1649 13.8489 16.1765C13.8582 16.1881 13.8651 16.2014 13.8691 16.2156C13.8732 16.2299 13.8744 16.2449 13.8726 16.2596C13.8708 16.2743 13.8661 16.2886 13.8587 16.3014C13.8517 16.3145 13.8421 16.326 13.8305 16.3353C13.819 16.3446 13.8056 16.3515 13.7914 16.3556C13.7771 16.3597 13.7622 16.3609 13.7474 16.3591C13.7327 16.3573 13.7185 16.3526 13.7056 16.3452C13.6799 16.3303 13.661 16.306 13.6529 16.2774C13.6447 16.2489 13.6479 16.2183 13.6618 16.1921C13.6764 16.166 13.7007 16.1468 13.7294 16.1386C13.7581 16.1304 13.7888 16.1339 13.815 16.1483Z" fill="#CADDEA"/>
<path fill-rule="evenodd" clip-rule="evenodd" d="M13.855 19.1289C13.8414 19.173 13.8117 19.2102 13.7718 19.2332C13.7319 19.2562 13.6847 19.2632 13.6398 19.2529C13.5958 19.2393 13.5586 19.2096 13.5356 19.1697C13.5126 19.1298 13.5055 19.0827 13.5159 19.0378C13.5291 18.9934 13.5586 18.9558 13.5986 18.9324C13.6385 18.909 13.6859 18.9017 13.731 18.912C13.7754 18.9256 13.8129 18.9556 13.836 18.9959C13.859 19.0362 13.8658 19.0838 13.855 19.1289Z" fill="#CADDEA"/>
<path fill-rule="evenodd" clip-rule="evenodd" d="M14.5205 18.7023C14.5104 18.7399 14.4929 18.7751 14.469 18.8059C14.4451 18.8366 14.4152 18.8623 14.3813 18.8813C14.3473 18.9003 14.3098 18.9124 14.2711 18.9167C14.2324 18.921 14.1932 18.9175 14.1559 18.9065C14.082 18.886 14.0192 18.8371 13.9813 18.7705C13.9434 18.7039 13.9334 18.625 13.9535 18.551C13.9635 18.5145 13.9805 18.4803 14.0036 18.4503C14.0268 18.4204 14.0556 18.3953 14.0884 18.3765C14.1213 18.3577 14.1575 18.3456 14.195 18.3408C14.2326 18.336 14.2707 18.3387 14.3072 18.3486C14.3446 18.3576 14.3798 18.3739 14.4108 18.3966C14.4418 18.4193 14.468 18.4479 14.4879 18.4808C14.5077 18.5137 14.5208 18.5503 14.5264 18.5883C14.532 18.6263 14.53 18.6651 14.5205 18.7023Z" fill="#CADDEA"/>
<path fill-rule="evenodd" clip-rule="evenodd" d="M12.9946 18.7369C12.9747 18.8046 12.9289 18.8618 12.8671 18.8959C12.8053 18.93 12.7326 18.9384 12.6647 18.9192C12.5976 18.8989 12.5411 18.8533 12.5071 18.7921C12.4731 18.7308 12.4642 18.6587 12.4824 18.5911C12.5023 18.5234 12.5481 18.4662 12.6099 18.4321C12.6717 18.398 12.7444 18.3896 12.8123 18.4088C12.8794 18.4291 12.9359 18.4747 12.9699 18.5359C13.0039 18.5972 13.0128 18.6693 12.9946 18.7369Z" fill="#CADDEA"/>
<path fill-rule="evenodd" clip-rule="evenodd" d="M13.8239 18.201C13.8158 18.2297 13.7967 18.254 13.7708 18.2687C13.7448 18.2834 13.7141 18.2872 13.6854 18.2793C13.6712 18.2755 13.658 18.269 13.6464 18.2601C13.6348 18.2511 13.625 18.24 13.6178 18.2273C13.6105 18.2146 13.6058 18.2005 13.6039 18.186C13.6021 18.1715 13.6031 18.1567 13.607 18.1426C13.6106 18.1283 13.617 18.1149 13.6258 18.1031C13.6347 18.0913 13.6458 18.0813 13.6585 18.0739C13.6713 18.0664 13.6853 18.0616 13.7 18.0596C13.7146 18.0576 13.7294 18.0586 13.7437 18.0624C13.7581 18.0662 13.7716 18.0728 13.7834 18.0819C13.7952 18.0909 13.8051 18.1022 13.8126 18.115C13.82 18.1279 13.8248 18.1421 13.8268 18.1569C13.8287 18.1716 13.8278 18.1866 13.8239 18.201Z" fill="#CADDEA"/>
<path fill-rule="evenodd" clip-rule="evenodd" d="M4.75608 6.86732V19.4042C3.80264 19.4042 3.29767 19.3404 2.53564 18.963V6.51001C3.26886 6.66878 4.01007 6.78806 4.75608 6.86732Z" fill="white"/>
<path fill-rule="evenodd" clip-rule="evenodd" d="M13.3755 11.0202V19.4061C13.5285 19.4208 13.683 19.4045 13.8296 19.3581C13.9762 19.3117 14.1119 19.2363 14.2287 19.1362V10.8342C13.5815 10.9801 14.1995 10.929 13.3755 11.0202Z" fill="white"/>
</g>
<defs>
<clipPath id="clip0_1232_5547">
<rect width="21.8762" height="24" fill="white"/>
</clipPath>
</defs>
</svg>
