<svg width="16" height="13" viewBox="0 0 16 13" fill="none" xmlns="http://www.w3.org/2000/svg">
<path d="M15.9968 2.50843C15.9968 2.25308 15.9951 1.9987 15.9257 1.74528C15.615 0.607811 14.8739 0.0139261 13.7033 0.0100571C11.5364 0.00328647 9.36866 0.00812266 7.2018 0.00812266C5.56862 0.00812266 3.93632 0.0313364 2.30401 0.000384756C0.9789 -0.0237962 -0.0485587 1.01018 0.00177288 2.54325C0.0564434 4.21561 0.0139219 5.89183 0.0139219 7.56612C0.0139219 7.67929 0.0121863 7.79246 0.0225998 7.90369C0.0408233 8.0952 0.158842 8.18999 0.315044 8.19193C0.45389 8.19386 0.570173 8.10197 0.59881 7.94238C0.623976 7.80213 0.619637 7.65511 0.620505 7.51002C0.621372 5.85218 0.619637 4.19336 0.623108 2.53455C0.623976 2.31112 0.63786 2.08478 0.671704 1.86425C0.709887 1.60987 0.807079 1.55861 1.01622 1.73464C2.38819 2.88662 3.76449 4.03183 5.15035 5.16254C5.37771 5.34825 5.32391 5.45077 5.16857 5.63552C4.70517 6.18781 4.25566 6.75558 3.80007 7.31658C2.80299 8.54303 1.8059 9.76949 0.781913 11.0288C0.629182 10.8112 0.629182 10.6158 0.625711 10.4243C0.621372 10.167 0.618769 9.90878 0.62224 9.65149C0.624843 9.40388 0.573644 9.16981 0.32025 9.1553C0.0495011 9.14079 0.0121863 9.38453 0.0139219 9.62828C0.0147897 9.80528 0.0234675 9.98325 0.0121863 10.1593C-0.0850058 11.6546 0.967619 12.677 2.23979 12.6731C6.08322 12.6606 9.92664 12.678 13.7701 12.6635C15.1585 12.6577 15.9942 11.6904 15.9977 10.1409C16.002 7.59707 15.9994 5.05227 15.9968 2.50843ZM1.50565 1.29068C1.4154 1.21524 1.33122 1.13109 1.21147 1.02082C1.51693 0.781913 1.80503 0.715174 2.11483 0.716141C6.03028 0.718076 9.94574 0.717108 13.8612 0.718076C13.9471 0.718076 14.0347 0.720977 14.1207 0.728715C14.3524 0.749995 14.6353 0.796422 14.7116 1.02276C14.7646 1.18042 14.4808 1.30616 14.3393 1.43286C12.5395 3.04815 10.7363 4.6586 8.93476 6.27196C8.38285 6.76525 8.08954 6.77202 7.50986 6.28937C5.50788 4.62378 3.50676 2.9582 1.50565 1.29068ZM13.9844 11.9555H2.02372C1.9378 11.9555 1.84669 11.9603 1.76511 11.9342C1.55771 11.8703 1.28002 11.8345 1.20626 11.6227C1.14465 11.4496 1.39804 11.3026 1.51866 11.1526C2.88109 9.46578 4.25393 7.78956 5.61028 6.09689C5.81247 5.84347 5.9409 5.77673 6.19169 6.02725C6.51364 6.3474 6.87811 6.61436 7.22783 6.89873C7.95156 7.48874 8.58418 7.46843 9.27841 6.84843C9.58213 6.57664 9.90408 6.09689 10.1983 6.11527C10.482 6.13268 10.7467 6.66272 11.0096 6.97804C12.1786 8.38247 13.3431 9.79077 14.5094 11.1991C14.6162 11.3277 14.7177 11.4622 14.8288 11.6034C14.5754 11.8539 14.2977 11.9555 13.9844 11.9555ZM15.228 11.0143C15.1629 10.9534 15.1169 10.9186 15.0804 10.8741C13.6911 9.19785 12.3035 7.51873 10.9107 5.84637C10.7649 5.67227 10.6851 5.57845 10.9124 5.3792C12.2705 4.18563 13.6182 2.97561 14.9598 1.75882C15.1776 1.56151 15.2549 1.5973 15.3251 1.88263C15.372 2.07414 15.3755 2.26372 15.3763 2.45524C15.3781 5.0426 15.3772 7.63093 15.3772 10.2193C15.3772 10.4765 15.3789 10.7329 15.228 11.0143Z" fill="black"/>
</svg>
