<svg id="svg" version="1.1" xmlns="http://www.w3.org/2000/svg" xmlns:xlink="http://www.w3.org/1999/xlink" width="400" height="200.66445182724252" viewBox="0, 0, 400,200.66445182724252"><g id="svgg"><path id="path0" d="M1.004 40.743 L 1.004 80.482 90.467 80.432 L 179.930 80.381 179.980 40.692 L 180.031 1.004 90.517 1.004 L 1.004 1.004 1.004 40.743 M219.417 40.692 L 219.468 80.381 309.282 80.381 L 399.097 80.381 399.148 40.692 L 399.198 1.004 309.282 1.004 L 219.367 1.004 219.417 40.692 M1.004 159.759 L 1.004 199.900 90.517 199.900 L 180.031 199.900 179.980 159.809 L 179.930 119.719 90.467 119.669 L 1.004 119.618 1.004 159.759 M219.502 119.752 C 219.428 119.826,219.368 137.889,219.368 159.893 L 219.368 199.900 309.232 199.850 L 399.097 199.799 399.097 159.759 L 399.097 119.719 309.366 119.669 C 260.015 119.641,219.576 119.679,219.502 119.752 " stroke="none" fill="#fcfcfc" fill-rule="evenodd"></path><path id="path1" d="M179.980 40.592 L 179.930 80.381 90.366 80.432 L 0.803 80.482 0.803 100.050 L 0.803 119.618 90.366 119.669 L 179.930 119.719 179.980 159.910 L 180.031 200.100 199.699 200.100 L 219.367 200.100 219.417 159.910 L 219.468 119.719 309.434 119.669 L 399.400 119.618 399.349 100.049 L 399.298 80.480 309.383 80.431 L 219.468 80.381 219.417 40.592 L 219.367 0.803 199.699 0.803 L 180.031 0.803 179.980 40.592 " stroke="none" fill="#fc0404" fill-rule="evenodd"></path><path id="path2" d="M0.000 100.351 L 0.000 200.702 200.000 200.702 L 400.000 200.702 400.000 100.351 L 400.000 0.000 200.000 0.000 L 0.000 0.000 0.000 100.351 M399.298 100.351 L 399.298 200.000 200.000 200.000 L 0.702 200.000 0.671 100.552 C 0.651 35.350,0.708 1.021,0.838 0.863 C 0.992 0.676,45.437 0.631,200.167 0.662 L 399.298 0.702 399.298 100.351 " stroke="none" fill="#040404" fill-rule="evenodd"></path><path id="path3" d="" stroke="none" fill="#bcbc100" fill-rule="evenodd"></path><path id="path4" d="" stroke="none" fill="#bcbc100" fill-rule="evenodd"></path></g></svg>