<svg width="26" height="16" viewBox="0 0 26 16" fill="none" xmlns="http://www.w3.org/2000/svg">
<g clip-path="url(#clip0_1232_4698)">
<path d="M18.3223 6.24551C18.3223 6.24551 18.6552 5.11718 20.6776 4.89074C22.7737 4.64495 22.4195 7.56738 23.9349 6.29777C25.4503 5.02815 26 5.71715 26 5.71715C25.6401 5.72153 25.2953 5.8625 25.0355 6.11153C24.7757 6.36056 24.6203 6.69902 24.6007 7.05837C24.4729 8.3996 22.3556 7.67189 22.3556 7.67189C22.3556 7.67189 22.5975 8.32025 23.033 8.5912C22.6285 8.75184 21.804 8.52346 21.6434 7.53641C21.4828 6.54937 20.1609 5.9881 19.708 5.96101C19.2551 5.93391 18.4171 6.73516 18.4171 6.73516L18.3223 6.24551Z" fill="#876D6C"/>
<path d="M16.0946 7.44931C16.0946 7.44931 14.9044 8.18282 14.9547 9.19116C15.005 10.1995 15.5469 10.7666 15.8837 10.962C16.2877 11.1441 16.7067 11.291 17.1359 11.4014C17.1359 11.4014 15.4443 12.6439 15.2837 13.3368C15.2223 13.6852 15.281 14.0441 15.4501 14.3548L16.2243 13.9309L16.0869 13.2458C16.2297 13.225 16.3584 13.1484 16.4449 13.0329C16.5591 12.8819 16.3849 12.8007 17.4378 12.2704C18.4906 11.7401 18.8971 11.4769 18.9861 11.3259C19.0751 11.1749 19.1796 10.755 19.0616 10.6098C18.8332 10.3021 18.121 10.2227 18.0068 9.89757C17.8423 9.42921 18.3939 8.36475 18.3939 8.36475L16.0946 7.44931Z" fill="#876D6C"/>
<path d="M6.60917 8.95117C7.33107 10.9272 7.34849 12.1446 7.35816 12.8045C7.36784 13.4645 7.87491 13.5651 8.13232 13.5787C8.24835 13.5852 8.36466 13.5852 8.48069 13.5787C8.64807 13.2803 8.85947 13.0089 9.10775 12.7736L8.6181 12.7581C8.6181 12.7581 9.22194 9.67113 9.05163 9.25696C8.88131 8.84278 8.3336 7.77832 8.3336 7.77832C8.3336 7.77832 6.42918 8.47119 6.60917 8.95117Z" fill="#876D6C"/>
<path d="M8.48291 13.5826C9.00405 13.5355 9.52764 13.5213 10.0506 13.54C10.59 13.5965 11.1319 13.4593 11.5795 13.1529L10.6505 12.522C10.4738 12.6721 10.2598 12.7717 10.0312 12.8103C9.72379 12.82 9.41606 12.8097 9.10998 12.7794C8.86184 13.0141 8.65045 13.2849 8.48291 13.5826Z" fill="#876D6C"/>
<path d="M9.76425 3.77207C9.76425 3.77207 9.31137 3.74885 9.20493 3.9211C9.17629 3.97797 9.16436 4.04179 9.17053 4.10516C9.17669 4.16854 9.2007 4.22886 9.23976 4.27914L9.93457 4.41656C9.93457 4.41656 9.91328 3.8611 9.76425 3.77207Z" fill="#EDAA98"/>
<path d="M3.77783 3.57854C3.77783 3.57854 3.9346 3.24178 4.16491 2.66504C4.6912 2.54081 5.23918 2.54081 5.76548 2.66504C6.83697 2.96748 7.86917 3.39492 8.84081 3.93852C9.34432 4.20663 9.80169 4.55358 10.1956 4.96621C10.1956 4.96621 7.27701 4.643 6.4777 4.4572C4.51715 4.00045 3.77783 3.57854 3.77783 3.57854Z" fill="#967E7C"/>
<path d="M2.70166 1.93344C2.70166 1.93344 2.77908 2.86436 2.94939 3.23208C3.1197 3.59981 3.51259 3.23208 3.51259 3.23208C3.51259 3.23208 3.26292 2.27794 2.70166 1.93344Z" fill="#705959"/>
<path d="M19.5028 7.1261C18.6222 5.57779 17.7164 5.40167 15.9339 5.64166C11.6606 6.22228 10.7219 5.02621 9.57813 4.67397C8.87365 4.45527 6.61505 3.34823 5.82928 3.16049C4.83959 2.93975 3.80902 2.98583 2.84298 3.29404C2.84298 3.29404 1.30628 5.12104 1.01597 5.41135C0.725666 5.70166 0.226336 6.15067 0.100536 6.23582C-0.0252645 6.32098 -0.0465537 6.57258 0.100536 6.78935C0.217359 6.9267 0.379285 7.01796 0.557287 7.04675C0.557287 7.04675 0.539869 7.31771 0.706312 7.34867C0.762747 7.35707 0.820306 7.35383 0.875442 7.33915C0.930578 7.32447 0.982124 7.29866 1.02691 7.2633C1.07169 7.22795 1.10876 7.1838 1.13584 7.13358C1.16292 7.08335 1.17943 7.02812 1.18435 6.97127C1.51337 6.98676 2.66686 6.67129 3.08297 6.44485C3.22693 6.37828 3.35609 6.28352 3.4628 6.16618C3.5695 6.04883 3.6516 5.91128 3.70423 5.76165L3.93067 5.25265C3.93067 5.25265 5.20415 5.44619 5.85638 6.47388C6.5086 7.50157 7.39308 9.08859 7.39308 9.08859L6.69634 9.36922C6.79117 9.54534 6.87052 9.69049 6.92858 9.77952C7.26616 10.1457 7.66338 10.4519 8.10336 10.6853L8.85429 10.0853C9.68571 10.2245 10.5273 10.2937 11.3703 10.2924C13.8321 10.2556 14.5908 9.71178 15.3011 9.77372C15.8733 9.85124 16.4061 10.1088 16.8223 10.5092C17.1431 10.552 17.4664 10.5734 17.79 10.573C18.0261 10.573 18.628 10.4646 19.2802 9.90919C19.9325 9.35373 20.0912 7.85575 19.5028 7.1261Z" fill="#BCA49F"/>
<path d="M11.3665 10.2924C10.5236 10.2937 9.68195 10.2245 8.85054 10.0853L8.09961 10.6853C8.29719 10.7933 8.50222 10.887 8.71313 10.9659C9.58037 11.1729 10.4717 11.2614 11.3627 11.2291C13.3348 11.2291 14.6528 10.6853 15.4096 10.4975C15.7773 10.4046 16.2224 10.4569 16.8147 10.5091C16.3985 10.1088 15.8657 9.85122 15.2934 9.7737C14.587 9.7079 13.8284 10.2556 11.3665 10.2924Z" fill="#AF9894"/>
<path d="M5.85625 6.46613C5.20403 5.43651 3.93054 5.2449 3.93054 5.2449L3.7041 5.76165C3.7041 5.76165 4.62922 5.99003 5.12661 6.51065C5.41886 6.81644 6.23559 8.50603 6.69621 9.37696L7.39295 9.08858C7.39295 9.08858 6.50267 7.5035 5.85625 6.46613Z" fill="#AF9894"/>
<path d="M3.75489 3.01339C3.75489 3.01339 2.71946 2.95339 2.48528 3.47014C2.2511 3.98689 0.985352 5.4423 0.985352 5.4423L1.56597 6.92868C1.56597 6.92868 3.11428 6.94029 3.93488 5.8197C4.0674 4.89234 4.09855 3.9533 4.02778 3.0192L3.75489 3.01339ZM2.81236 4.79395C2.75117 4.90527 2.65344 4.99207 2.53567 5.03967C2.41789 5.08728 2.28729 5.09277 2.16594 5.05523C2.07765 5.01496 2.00668 4.94444 1.96586 4.85641C1.92504 4.76838 1.91706 4.66865 1.94337 4.57525C1.98788 4.38171 2.31303 4.10495 2.57431 4.20559C2.63383 4.22138 2.68885 4.2508 2.73503 4.29153C2.78122 4.33227 2.81728 4.38319 2.84038 4.44027C2.86347 4.49736 2.87296 4.55903 2.8681 4.62042C2.86324 4.6818 2.84415 4.74121 2.81236 4.79395ZM3.63103 3.58046C3.6152 3.62206 3.591 3.65997 3.55993 3.69184C3.52886 3.72371 3.49158 3.74886 3.45039 3.76573C3.40921 3.7826 3.365 3.79084 3.3205 3.78993C3.276 3.78903 3.23216 3.77899 3.19169 3.76045C3.13248 3.71765 3.08888 3.65665 3.06757 3.58677C3.04625 3.51688 3.04838 3.44194 3.07363 3.37337C3.08462 3.33581 3.10309 3.30086 3.12792 3.27061C3.15276 3.24037 3.18346 3.21546 3.21817 3.19738C3.25288 3.1793 3.29089 3.16843 3.32991 3.16541C3.36893 3.1624 3.40815 3.1673 3.44523 3.17984C3.4688 3.18611 3.48896 3.2014 3.50136 3.22241C3.52807 3.22786 3.55345 3.23853 3.57604 3.2538C3.59862 3.26908 3.61797 3.28867 3.63296 3.31144C3.65422 3.3535 3.66514 3.40003 3.6648 3.44715C3.66447 3.49428 3.65289 3.54065 3.63103 3.5824V3.58046Z" fill="#6A97D8"/>
<path d="M3.17201 3.57079C3.19699 3.59516 3.22681 3.61403 3.25953 3.62616C3.29226 3.6383 3.32716 3.64343 3.362 3.64125C3.39683 3.63906 3.43082 3.62959 3.46176 3.61345C3.49271 3.59732 3.51993 3.57487 3.54167 3.54757C3.54722 3.53908 3.55447 3.53183 3.56296 3.52628C3.7166 3.2135 3.7438 2.85354 3.63892 2.52121C3.53403 2.18889 3.30512 1.90977 2.99976 1.74185C2.99976 1.74185 2.9417 2.91663 3.17007 3.56305L3.17201 3.57079Z" fill="#876D6C"/>
<path d="M10.5945 4.883C10.5945 4.883 9.70806 7.30997 10.7435 7.89059C11.6202 8.39185 13.8091 8.72667 14.4207 8.51959C15.2994 8.2196 15.0884 6.11971 15.0884 5.6765C13.9582 5.56812 11.328 5.15008 10.5945 4.883Z" fill="#6A97D8"/>
<path d="M13.6985 8.03574C13.1021 8.01914 12.5099 7.92944 11.9353 7.76866C11.0528 7.51899 10.9347 7.399 10.7741 6.95773C10.567 6.40421 10.9676 5.10556 10.987 5.04944L11.0799 5.07847C11.0799 5.09202 10.6715 6.40034 10.8651 6.92289C11.0141 7.31965 11.0818 7.42416 11.9663 7.67382C12.8508 7.92349 14.1126 8.04542 14.312 7.8093C14.5113 7.57318 14.6217 6.16809 14.6584 5.63586H14.7552C14.7417 5.8294 14.6197 7.59254 14.3875 7.86736C14.2849 7.98929 14.0256 8.03574 13.6985 8.03574Z" fill="white"/>
<path d="M12.0809 6.46613C12.0809 6.46613 11.8022 8.14798 11.7054 8.86794C11.6086 9.5879 11.3667 11.2291 11.3667 11.2291C11.9862 11.2233 12.6042 11.1683 13.215 11.0646C13.215 10.9465 13.3389 10.6098 13.0118 10.4569C12.6847 10.304 12.2376 10.1027 12.3015 9.56662C12.3654 9.03052 12.7002 6.47 12.7002 6.47L12.0809 6.46613Z" fill="#3F2B2B"/>
<path d="M14.703 4.88299C14.5289 4.6701 14.2811 5.14233 13.6328 5.07653C13.4721 5.05911 13.2883 5.03975 13.1025 5.01653C13.0093 5.38005 12.8975 5.73857 12.7677 6.09067C12.6148 6.47775 11.1981 6.30356 11.1981 5.81004C11.2453 5.26796 11.3458 4.73185 11.498 4.20947C11.4763 4.17833 11.4473 4.1529 11.4136 4.13534C11.3799 4.11778 11.3425 4.10861 11.3045 4.10861C11.2665 4.10861 11.2291 4.11778 11.1954 4.13534C11.1617 4.1529 11.1327 4.17833 11.111 4.20947C11.0293 4.4333 10.9646 4.66297 10.9174 4.89653C10.8342 5.27394 10.5439 6.15841 11.3335 6.4913C12.007 6.77773 12.7309 6.87837 12.9747 6.57839C13.2186 6.2784 13.3483 5.54489 13.3483 5.54489L14.6837 5.65327C14.6837 5.65327 14.825 5.02814 14.703 4.88299Z" fill="#633F3F"/>
<path d="M12.7678 6.08292C12.8977 5.73082 13.0094 5.3723 13.1026 5.00878C12.7718 4.97769 12.4465 4.90352 12.135 4.78814C11.8871 4.66967 11.6788 4.48217 11.535 4.24817C11.5236 4.23145 11.5107 4.2159 11.4963 4.20172C11.344 4.7241 11.2435 5.26021 11.1963 5.80229C11.1982 6.29581 12.6149 6.46032 12.7678 6.08292Z" fill="#4F3333"/>
<path d="M2.02032 4.49979C2.02032 4.49979 2.00677 4.82493 2.1616 4.88686C2.39385 4.99137 2.60287 4.64688 2.60287 4.64688L2.02032 4.49979Z" fill="#876D6C"/>
<path d="M0.772461 5.64553C0.772461 5.64553 0.809233 5.71133 0.985354 6.12357C1.06664 6.31711 1.26405 6.95772 1.26405 6.95772L1.55823 6.92869C1.47842 6.62235 1.3782 6.32169 1.25824 6.02874C1.19438 5.8681 0.985354 5.44812 0.985354 5.44812L0.772461 5.64553Z" fill="#3F2B2B"/>
<path d="M1.32786 6.80871C1.25987 6.80986 1.19308 6.79075 1.13599 6.75382C1.0789 6.71688 1.03409 6.66379 1.00727 6.60131C0.980445 6.53882 0.972827 6.46977 0.985382 6.40294C0.997937 6.33611 1.0301 6.27453 1.07777 6.22604C1.12543 6.17755 1.18646 6.14434 1.25306 6.13065C1.31967 6.11695 1.38884 6.12339 1.45177 6.14914C1.51471 6.17489 1.56855 6.21878 1.60646 6.27523C1.64436 6.33169 1.66461 6.39814 1.66462 6.46614C1.66463 6.556 1.62934 6.64226 1.56635 6.70634C1.50335 6.77042 1.41771 6.80718 1.32786 6.80871ZM1.32786 6.24357C1.28338 6.24357 1.2399 6.25679 1.20294 6.28155C1.16597 6.3063 1.1372 6.34148 1.12027 6.38262C1.10333 6.42375 1.099 6.46899 1.10782 6.51259C1.11664 6.55619 1.13822 6.59619 1.16981 6.62751C1.2014 6.65883 1.24159 6.68006 1.28526 6.6885C1.32894 6.69694 1.37414 6.69222 1.41513 6.67493C1.45611 6.65764 1.49104 6.62857 1.51548 6.59139C1.53991 6.55422 1.55275 6.51062 1.55237 6.46614C1.55237 6.43675 1.54655 6.40765 1.53524 6.38052C1.52394 6.35339 1.50737 6.32877 1.4865 6.30807C1.46562 6.28738 1.44086 6.27102 1.41363 6.25995C1.3864 6.24888 1.35725 6.24332 1.32786 6.24357Z" fill="#F4B79F"/>
<path d="M1.45752 6.2842C1.45752 6.2842 2.5665 5.71907 3.06583 5.00878C3.44323 4.47268 3.75482 3.0134 3.75482 3.0134H4.01997C4.01997 3.0134 3.84966 4.2985 3.18195 5.25458C2.68456 5.96486 1.54848 6.49516 1.54848 6.49516L1.45752 6.2842Z" fill="#3F2B2B"/>
<path d="M1.50977 6.59775C1.50977 6.59775 8.07847 5.92036 10.0003 4.70687C10.0003 4.70687 10.0719 4.51333 9.97322 4.49979C7.8888 5.71715 1.5446 6.41002 1.5446 6.41002L1.50977 6.59775Z" fill="#3F2B2B"/>
<path d="M6.64014 9.08083L6.69626 9.3692C6.8584 9.72025 7.08116 10.04 7.3543 10.3137C7.68045 10.5724 8.0465 10.7763 8.43811 10.9175L8.21941 9.9982C7.90456 9.73318 7.6295 9.42422 7.40268 9.08083C7.14914 8.64923 6.64014 9.08083 6.64014 9.08083Z" fill="#AF9894"/>
<path d="M3.2226 2.18311C3.18296 2.3707 3.18296 2.56451 3.2226 2.75211C3.28454 3.10629 3.34453 3.47014 3.34453 3.47014C3.45822 3.26548 3.51628 3.03459 3.51291 2.80049C3.50113 2.56452 3.39682 2.3427 3.2226 2.18311Z" fill="#705959"/>
<path d="M8.98796 1.84055C9.26482 1.9459 9.51616 2.10884 9.72534 2.31859L10.1589 1.50379L9.5589 1.23477C9.5589 1.23477 8.94538 1.62766 8.98796 1.84055Z" fill="#EDAA98"/>
<path d="M9.55873 1.24059C9.48712 1.69154 9.12714 2.08636 8.92779 2.14248C8.81167 2.17538 8.58523 1.94894 8.49814 1.76895C8.36212 1.50825 8.33363 1.20464 8.41879 0.923187C8.55233 0.485789 8.69361 0.414181 9.01876 0.464501C9.10641 0.47738 9.1905 0.508086 9.26582 0.554726C9.34115 0.601367 9.40612 0.66295 9.45672 0.735676C9.50732 0.808401 9.54247 0.890725 9.56002 0.977567C9.57757 1.06441 9.57713 1.15393 9.55873 1.24059Z" fill="#FFBFA9"/>
<path d="M9.40604 1.17673C9.38863 1.09544 9.32282 1.00448 9.26089 1.01416C9.19896 1.02383 9.10219 1.16318 9.10219 1.16318C9.00135 1.10722 8.90829 1.03824 8.82543 0.958028C8.68415 0.824486 8.42674 0.95803 8.419 0.851584C8.40545 0.677399 8.22546 0.392896 8.94155 0.251613C9.2725 0.187745 9.62087 0.299998 9.71571 0.536115C9.89376 0.994802 9.76022 1.16124 9.80473 1.34511C9.76785 1.36288 9.72761 1.3726 9.68668 1.37361C9.64575 1.37462 9.60507 1.36691 9.56736 1.35098C9.52964 1.33505 9.49575 1.31127 9.46793 1.28123C9.44012 1.25118 9.41902 1.21556 9.40604 1.17673Z" fill="#6B3D3D"/>
<path d="M11.1147 5.71326C11.1147 5.71326 11.2754 7.59639 11.5018 7.9796C11.765 8.42861 11.6412 7.9796 11.6412 7.9796C11.4388 7.27462 11.3333 6.54538 11.3276 5.81196C11.2909 5.74616 11.1147 5.71326 11.1147 5.71326Z" fill="#8E5151"/>
<path d="M12.5973 7.62738C12.5025 7.34674 12.3574 6.34228 12.309 5.94165C12.309 5.89714 12.2935 5.85456 12.2857 5.81198C11.9418 5.88703 11.6026 5.98202 11.2697 6.09648C11.2948 6.16035 11.32 6.22422 11.3432 6.29002C11.4903 6.6771 11.8445 7.67382 11.8638 7.75318C11.9141 7.94671 11.7516 8.14993 11.5697 8.28734C11.3877 8.42476 11.2077 8.52346 11.1032 8.62603C11.0727 8.66369 11.052 8.70832 11.0428 8.75593C11.0337 8.80353 11.0365 8.85265 11.051 8.89892C11.3062 8.91703 11.5622 8.87734 11.8 8.7828C12.0845 8.63377 12.3167 8.45185 12.3554 8.48669C12.3941 8.52152 12.7831 8.33186 12.7831 8.33186C12.7831 8.33186 12.696 7.90607 12.5973 7.62738Z" fill="#5B3939"/>
<path d="M11.6374 7.78027L11.3877 7.87704C11.3877 7.87704 11.5116 8.15574 11.5909 8.35896C11.6456 8.52283 11.6915 8.68951 11.7283 8.85829L12.1038 8.70539C12.1038 8.70539 12.0612 8.03962 11.6374 7.78027Z" fill="#FFD8CC"/>
<path d="M10.2052 3.21082C10.2052 3.21082 9.6904 3.59789 9.6246 3.68305C9.5588 3.7682 9.74653 3.75466 9.81814 3.97916C9.88975 4.20367 10.9794 3.96174 10.9794 3.96174V3.57467L10.2052 3.21082Z" fill="#3479BF"/>
<path d="M16.2882 7.668C16.2882 7.668 14.9779 8.14991 14.8231 9.15824C14.6682 10.1666 15.0921 10.8188 15.3843 11.0762C15.7435 11.3354 16.1242 11.5634 16.5223 11.7575C16.5223 11.7575 14.6179 12.6381 14.3237 13.2845C14.1946 13.6141 14.1809 13.9777 14.285 14.3161L15.1192 14.0548V13.3542C15.2612 13.3605 15.4 13.3112 15.5063 13.2168C15.6475 13.0929 15.4946 12.9768 16.6307 12.6652C17.7668 12.3536 18.2177 12.1794 18.3397 12.0497C18.4616 11.92 18.6338 11.5252 18.5564 11.3627C18.3939 11.0162 17.7107 10.7936 17.6642 10.455C17.5965 9.96337 18.3532 9.03051 18.3532 9.03051L16.2882 7.668Z" fill="#BCA49F"/>
<path d="M8.17528 0.872858C8.17528 0.872858 8.07658 0.139346 8.7288 0.0232231C9.28233 -0.0754817 9.87843 0.119992 9.86488 0.797378C9.85133 1.47476 9.55909 1.24639 9.28426 1.19994C9.0675 1.16316 7.88885 1.12446 7.88885 1.12446C7.85788 0.880597 8.17528 0.872858 8.17528 0.872858Z" fill="#518ACE"/>
<path d="M8.80811 1.17286L9.08487 2.05346C9.08487 2.05346 9.26292 2.09991 9.18357 1.78057C9.10422 1.46123 9.00164 1.16705 9.00164 1.16705L8.80811 1.17286Z" fill="#4F3333"/>
<path d="M9.66355 0.234192L8.80811 1.17285L8.98616 1.18253C8.98616 1.18253 9.44291 0.708362 9.76032 0.363863C9.76612 0.323219 9.66355 0.234192 9.66355 0.234192Z" fill="#4F3333"/>
<path d="M9.34795 1.2038L9.00732 1.55991L9.04797 1.6741L9.47569 1.2425L9.34795 1.2038Z" fill="#4F3333"/>
<path d="M9.90723 3.92303C9.73882 3.93398 9.57172 3.95989 9.4079 4.00044C9.28597 4.05076 9.39241 4.11463 9.4079 4.19398C9.41646 4.28961 9.45055 4.38118 9.5066 4.45913C9.56202 4.53857 9.64135 4.59823 9.73304 4.62945L10.1801 4.39333C10.1801 4.39333 10.2266 3.88432 9.90723 3.92303Z" fill="#FFBFA9"/>
<path d="M13.395 2.82565C13.7051 3.0508 13.9388 3.36556 14.0646 3.72754C14.2349 4.29461 13.8711 4.5017 13.664 4.75717C13.4569 5.01264 12.0228 5.33779 12.0228 5.33779C12.0228 5.33779 12.0228 5.40746 12.1699 5.51584C12.2175 5.55741 12.2542 5.61002 12.2768 5.66906C12.2994 5.7281 12.3072 5.79178 12.2995 5.85453C12.2968 5.9359 12.3128 6.01681 12.3464 6.09098C12.38 6.16515 12.4301 6.2306 12.4931 6.28226C12.6053 6.36935 12.5221 6.59966 12.5473 6.73514C12.5724 6.87061 12.7253 7.29834 12.7253 7.29834C12.5308 7.41826 12.323 7.51504 12.106 7.58671C11.9381 7.6259 11.7672 7.65051 11.5951 7.66025C11.5951 7.66025 11.0667 6.2029 10.999 6.04614C10.9583 5.9513 10.8054 5.58358 10.7048 5.23714C10.6708 5.10756 10.6769 4.97075 10.7221 4.84467C10.7674 4.71859 10.8497 4.60915 10.9583 4.53073C11.3028 4.30622 12.106 3.91915 12.106 3.91915L13.395 2.82565Z" fill="#FFD8CC"/>
<path d="M9.84149 1.29477C9.80519 1.4629 9.74865 1.62602 9.67311 1.78055C9.61601 1.94285 9.59391 2.1154 9.60825 2.28685C9.62259 2.45831 9.67306 2.62479 9.75633 2.77534C9.84342 2.95533 9.99438 3.37531 10.9369 3.66755C11.8795 3.9598 11.9046 4.13979 12.0691 4.23656C12.2336 4.33333 12.4949 3.99463 12.6884 3.84948C12.882 3.70433 13.4026 3.48756 13.5826 3.21855C13.7626 2.94953 13.8187 2.7347 13.5826 2.76953C13.3465 2.80437 12.733 1.99538 12.0614 1.6683C11.3898 1.34122 9.84149 1.29477 9.84149 1.29477Z" fill="#6A97D8"/>
<path d="M11.9048 3.29595C11.7674 2.81598 11.3029 1.97602 10.9545 1.71668C10.672 1.50766 10.4629 1.43798 10.2404 1.6741C10.0178 1.91022 10.1339 2.38052 10.2404 2.57405C10.4428 2.85863 10.6599 3.13253 10.8907 3.39466C10.8907 3.39466 10.0855 3.71593 9.93457 3.89592C10.1281 4.01011 10.1281 4.283 10.0584 4.49976C10.4131 4.48466 10.7662 4.44457 11.1152 4.37977C11.4171 4.33913 11.8216 4.25397 11.9048 3.88625C11.9427 3.6913 11.9427 3.4909 11.9048 3.29595Z" fill="#518ACE"/>
<path d="M10.817 1.74185L10.2422 2.14635L10.7125 2.86438L11.3047 2.46569L10.817 1.74185Z" fill="white"/>
<path d="M7.604 8.56991C6.70598 10.4724 5.85054 11.3414 5.38991 11.8117C4.92929 12.282 5.20992 12.7136 5.37637 12.9129C5.45479 12.9996 5.53815 13.0817 5.62603 13.1587C5.95616 13.0681 6.29802 13.0277 6.64018 13.0387L6.30922 12.6787C6.30922 12.6787 8.92974 10.9369 9.10586 10.5266C9.28198 10.1163 9.65164 8.97828 9.65164 8.97828C9.65164 8.97828 7.82657 8.09768 7.604 8.56991Z" fill="#BCA49F"/>
<path d="M5.62598 13.1587C6.02473 13.497 6.40281 13.8589 6.75818 14.2425C7.09802 14.6671 7.57857 14.9562 8.11295 15.0573L7.91941 13.9542C7.68841 13.9336 7.46716 13.8514 7.2788 13.7161C7.0557 13.5044 6.84686 13.2781 6.65367 13.0387C6.307 13.0263 5.96046 13.0668 5.62598 13.1587Z" fill="#BCA49F"/>
<path d="M10.5169 2.22569L10.4395 2.11924C10.5122 2.058 10.5964 2.01194 10.6872 1.98376C10.8807 1.98376 10.8633 2.10182 10.8672 2.23924C10.8672 2.32052 10.8517 2.4889 10.8517 2.4889L11.0665 2.31859L11.1614 2.45019L10.7878 2.70179L10.7027 2.57406L10.7394 2.33601C10.7511 2.24698 10.7685 2.17343 10.7394 2.13086C10.7104 2.08828 10.5169 2.22569 10.5169 2.22569Z" fill="#4F3333"/>
<path d="M13.6639 6.48548V6.26485C13.6639 6.26485 14.0335 6.24549 14.1303 6.33646C14.3548 6.54354 14.2483 6.67128 14.1148 6.85708C14.0184 6.96882 13.9128 7.0724 13.7993 7.16674L14.2948 7.24609L14.2445 7.48027L13.5342 7.35641L13.5458 7.13577C13.5458 7.13577 13.7006 6.98868 13.8361 6.85514C13.9425 6.75063 14.0413 6.6616 14.0296 6.57257C14.018 6.48355 13.6639 6.48548 13.6639 6.48548Z" fill="#4F3333"/>
</g>
<defs>
<clipPath id="clip0_1232_4698">
<rect width="26" height="15.0573" fill="white"/>
</clipPath>
</defs>
</svg>
