<svg width="15" height="12" viewBox="0 0 15 12" fill="none" xmlns="http://www.w3.org/2000/svg">
<g clip-path="url(#clip0_2135_1042)">
<path d="M5.97739 4.1306C5.34745 4.73205 5.17785 5.4919 5.41057 6.33065C5.46731 6.53639 5.16764 6.86078 4.94959 6.81975C4.86734 6.80461 4.8769 6.72572 4.8565 6.6746C4.72069 6.33885 4.6614 5.98922 4.67734 5.62759C4.74875 3.68315 6.6526 2.44933 8.42638 3.05835C8.52839 3.09369 8.79554 3.06845 8.67823 3.29754C8.59343 3.46289 8.62849 3.79675 8.21597 3.65222C7.38838 3.36381 6.60669 3.53042 5.97739 4.1306Z" fill="#F3F3F5"/>
<path d="M3.27311 8.6506C2.06487 7.87307 1.01667 6.93335 0.0857803 5.85984C-0.0136842 5.74498 -0.0379127 5.66483 0.073666 5.53987C1.5108 3.93559 3.10733 2.53832 5.17313 1.77594C6.78943 1.18017 8.40828 1.18964 10.0067 1.8542C9.77145 2.30607 9.45903 2.31554 9.00634 2.18111C7.35497 1.69263 5.80052 2.04984 4.32067 2.83683C3.01616 3.53105 1.92013 4.48402 0.912738 5.54681C0.791595 5.67492 0.8222 5.74056 0.926765 5.851C1.65298 6.62096 2.42064 7.34673 3.3171 7.91978C3.60465 8.10343 3.59955 8.24795 3.407 8.46821C3.35918 8.52311 3.32029 8.5856 3.27311 8.6506Z" fill="#F3F3F5"/>
<path d="M9.45638 5.06527C9.37796 4.62981 9.73564 4.79895 9.89058 4.72006C10.1074 4.60961 10.0513 4.85259 10.0678 4.94095C10.2572 5.95892 9.96645 6.84247 9.2007 7.53227C8.35271 8.29592 7.35743 8.45054 6.27734 8.07124C6.28053 8.05041 6.28053 8.03969 6.28372 8.03022C6.39339 7.70499 6.61251 7.56951 6.94108 7.62379C8.43496 7.87118 9.72799 6.56857 9.45638 5.06527Z" fill="#F3F3F5"/>
<path d="M13.4271 0.343324C9.60088 4.1306 5.79382 7.89832 1.98611 11.6667C1.68134 11.394 1.67284 11.1155 1.96061 10.8311C5.5273 7.30066 9.09463 3.77024 12.662 0.239822C12.8762 0.0277696 13.0875 0.0250348 13.2957 0.231618C13.3333 0.268222 13.3761 0.300408 13.4271 0.343324Z" fill="#F3F3F5"/>
<path d="M14.9237 5.85163C13.5108 7.43382 11.9379 8.81027 9.91291 9.57896C8.36483 10.1665 6.79954 10.217 5.22852 9.62314C5.59194 9.12393 5.60151 9.11888 6.14792 9.25583C7.77379 9.66353 9.27659 9.30001 10.7112 8.53511C12.0055 7.84467 13.0837 6.88602 14.0936 5.8428C14.2377 5.69386 14.1657 5.62507 14.0617 5.51588C13.3419 4.75792 12.5634 4.06623 11.7109 3.45847C12.0654 2.93907 12.0616 2.94412 12.55 3.30069C13.4343 3.94695 14.2077 4.7068 14.918 5.53356C15.02 5.65283 15.0328 5.72983 14.9237 5.85163Z" fill="#F3F3F5"/>
<path d="M13.4271 0.343324C9.60088 4.1306 5.79382 7.89832 1.98611 11.6667C1.68134 11.394 1.67284 11.1155 1.96061 10.8311C5.5273 7.30066 9.09463 3.77024 12.662 0.239822C12.8762 0.0277696 13.0875 0.0250348 13.2957 0.231618C13.3333 0.268222 13.3761 0.300408 13.4271 0.343324Z" fill="black"/>
<path d="M10.0067 1.8542C9.77145 2.30607 9.45903 2.31554 9.00634 2.18111C7.35497 1.69263 5.80052 2.04984 4.32067 2.83683C3.01616 3.53105 1.92013 4.48402 0.912738 5.54681C0.791595 5.67492 0.8222 5.74056 0.926765 5.851C1.65298 6.62096 2.42064 7.34673 3.3171 7.91978C3.60465 8.10343 3.59955 8.24795 3.407 8.46821C3.35918 8.52311 3.32029 8.5856 3.27311 8.6506C2.06487 7.87307 1.01667 6.93335 0.0857803 5.85984C-0.0136842 5.74498 -0.0379127 5.66483 0.073666 5.53987C1.5108 3.93559 3.10733 2.53832 5.17313 1.77594C6.78943 1.18017 8.40828 1.18964 10.0067 1.8542Z" fill="black"/>
<path d="M14.9237 5.85163C13.5108 7.43382 11.9379 8.81027 9.91291 9.57896C8.36483 10.1665 6.79954 10.217 5.22852 9.62314C5.59194 9.12393 5.60151 9.11888 6.14792 9.25583C7.77379 9.66353 9.27659 9.30001 10.7112 8.53511C12.0055 7.84467 13.0837 6.88602 14.0936 5.8428C14.2377 5.69386 14.1657 5.62507 14.0617 5.51588C13.3419 4.75792 12.5634 4.06623 11.7109 3.45847C12.0654 2.93907 12.0616 2.94412 12.55 3.30069C13.4343 3.94695 14.2077 4.7068 14.918 5.53356C15.02 5.65283 15.0328 5.72983 14.9237 5.85163Z" fill="black"/>
<path d="M8.67823 3.29754C8.59343 3.46289 8.62849 3.79675 8.21597 3.65222C7.38838 3.36381 6.60669 3.53042 5.97739 4.1306C5.34745 4.73205 5.17785 5.4919 5.41057 6.33065C5.46731 6.53639 5.16764 6.86078 4.94959 6.81975C4.86734 6.80461 4.8769 6.72572 4.8565 6.6746C4.72069 6.33885 4.6614 5.98922 4.67734 5.62759C4.74875 3.68315 6.6526 2.44933 8.42638 3.05835C8.52839 3.09369 8.79554 3.06845 8.67823 3.29754Z" fill="black"/>
<path d="M9.2007 7.53227C8.35271 8.29592 7.35743 8.45054 6.27734 8.07124C6.28053 8.05041 6.28053 8.03969 6.28372 8.03022C6.39339 7.70499 6.61251 7.56951 6.94108 7.62379C8.43496 7.87118 9.72799 6.56857 9.45638 5.06527C9.37796 4.62981 9.73564 4.79895 9.89058 4.72006C10.1074 4.60961 10.0513 4.85259 10.0678 4.94095C10.2572 5.95892 9.96645 6.84247 9.2007 7.53227Z" fill="black"/>
</g>
<defs>
<clipPath id="clip0_2135_1042">
<rect width="15" height="11.6667" fill="white"/>
</clipPath>
</defs>
</svg>
