<svg width="15" height="9" viewBox="0 0 15 9" fill="none" xmlns="http://www.w3.org/2000/svg">
<g clip-path="url(#clip0_3_81)">
<path d="M7.52897 1.30338C5.97402 1.28351 4.64002 2.60179 4.62513 4.17246C4.61106 5.73899 5.90368 7.04651 7.49918 7.07878C9.04502 7.11023 10.3741 5.79609 10.4014 4.20722C10.4278 2.65227 9.11371 1.32324 7.52897 1.30338V1.30338ZM7.43877 6.67742C6.08657 6.65756 4.99173 5.49073 5.0298 4.11122C5.06786 2.75654 6.19911 1.67494 7.54883 1.70473C8.9573 1.73618 10.0248 2.85253 9.99752 4.2668C9.97104 5.63224 8.83979 6.69811 7.43877 6.67742Z" fill="#F3F3F5"/>
<path d="M14.7948 3.77524C13.9217 2.79295 12.9469 1.92983 11.814 1.262C9.85187 0.105099 7.77061 -0.336808 5.52549 0.277228C3.30768 0.883815 1.59053 2.22609 0.114201 3.92999C-0.0513067 4.12033 -0.027308 4.28004 0.127442 4.47369C0.800233 5.3186 1.58143 6.04684 2.45862 6.67163C4.04667 7.80371 5.80271 8.42105 7.80123 8.38216C10.7142 8.21748 12.9485 6.75025 14.8146 4.58458C15.0828 4.27259 15.0463 4.05826 14.7948 3.77524V3.77524ZM14.4381 4.42983C12.7963 6.31248 10.84 7.64234 8.29858 7.95101C8.03956 7.98246 7.7764 7.98577 7.55214 7.99984C5.22923 7.95929 3.31761 7.02748 1.65591 5.5197C1.27028 5.17047 0.930984 4.76995 0.567694 4.3959C0.442735 4.26846 0.412944 4.16584 0.55197 4.01357C1.91493 2.5149 3.47733 1.30503 5.44025 0.704238C7.77888 -0.0115841 9.92056 0.5288 11.9257 1.80569C12.8575 2.39904 13.6668 3.14052 14.4174 3.94903C14.578 4.12198 14.602 4.24197 14.4381 4.42983V4.42983Z" fill="#F3F3F5"/>
<path d="M7.52897 1.30338C5.97402 1.28351 4.64002 2.60179 4.62513 4.17246C4.61106 5.73899 5.90368 7.04651 7.49918 7.07878C9.04502 7.11023 10.3741 5.79609 10.4014 4.20722C10.4278 2.65227 9.11371 1.32324 7.52897 1.30338V1.30338ZM7.43877 6.67742C6.08657 6.65756 4.99173 5.49073 5.0298 4.11122C5.06786 2.75654 6.19911 1.67494 7.54883 1.70473C8.9573 1.73618 10.0248 2.85253 9.99752 4.2668C9.97104 5.63224 8.83979 6.69811 7.43877 6.67742Z" fill="black"/>
<path d="M14.7948 3.77524C13.9217 2.79295 12.9469 1.92983 11.814 1.262C9.85187 0.105099 7.77061 -0.336808 5.52549 0.277228C3.30768 0.883815 1.59053 2.22609 0.114201 3.92999C-0.0513067 4.12033 -0.027308 4.28004 0.127442 4.47369C0.800233 5.3186 1.58143 6.04684 2.45862 6.67163C4.04667 7.80371 5.80271 8.42105 7.80123 8.38216C10.7142 8.21748 12.9485 6.75025 14.8146 4.58458C15.0828 4.27259 15.0463 4.05826 14.7948 3.77524V3.77524ZM14.4381 4.42983C12.7963 6.31248 10.84 7.64234 8.29858 7.95101C8.03956 7.98246 7.7764 7.98577 7.55214 7.99984C5.22923 7.95929 3.31761 7.02748 1.65591 5.5197C1.27028 5.17047 0.930984 4.76995 0.567694 4.3959C0.442735 4.26846 0.412944 4.16584 0.55197 4.01357C1.91493 2.5149 3.47733 1.30503 5.44025 0.704238C7.77888 -0.0115841 9.92056 0.5288 11.9257 1.80569C12.8575 2.39904 13.6668 3.14052 14.4174 3.94903C14.578 4.12198 14.602 4.24197 14.4381 4.42983V4.42983Z" fill="black"/>
<path d="M7.52897 1.30338C5.97402 1.28351 4.64002 2.60179 4.62513 4.17246C4.61106 5.73899 5.90368 7.04651 7.49918 7.07878C9.04502 7.11023 10.3741 5.79609 10.4014 4.20722C10.4278 2.65227 9.11371 1.32324 7.52897 1.30338V1.30338ZM7.43877 6.67742C6.08657 6.65756 4.99173 5.49073 5.0298 4.11122C5.06786 2.75654 6.19911 1.67494 7.54883 1.70473C8.9573 1.73618 10.0248 2.85253 9.99752 4.2668C9.97104 5.63224 8.83979 6.69811 7.43877 6.67742Z" fill="#F3F3F5"/>
<path d="M7.52897 1.30338C5.97402 1.28351 4.64002 2.60179 4.62513 4.17246C4.61106 5.73899 5.90368 7.04651 7.49918 7.07878C9.04502 7.11023 10.3741 5.79609 10.4014 4.20722C10.4278 2.65227 9.11371 1.32324 7.52897 1.30338V1.30338ZM7.43877 6.67742C6.08657 6.65756 4.99173 5.49073 5.0298 4.11122C5.06786 2.75654 6.19911 1.67494 7.54883 1.70473C8.9573 1.73618 10.0248 2.85253 9.99752 4.2668C9.97104 5.63224 8.83979 6.69811 7.43877 6.67742Z" fill="#010101"/>
</g>
<defs>
<clipPath id="clip0_3_81">
<rect width="15" height="8.38381" fill="white"/>
</clipPath>
</defs>
</svg>
