<svg width="20" height="23" viewBox="0 0 20 23" fill="none" xmlns="http://www.w3.org/2000/svg">
<g clip-path="url(#clip0_1232_2443)">
<path d="M4.25596 21.2454C4.25596 21.2454 3.52647 21.9177 3.54528 22.2539C3.5829 22.9508 3.91943 23.1886 4.40646 22.8401C4.54859 22.7376 4.91021 21.5201 4.91021 21.5201L4.25596 21.2454Z" fill="#2A1B16"/>
<path d="M4.79288 20.6264C4.79288 20.6264 3.76657 21.8009 3.81882 21.9444C3.87108 22.0879 4.08847 22.4937 4.32048 22.4507C4.5525 22.4076 4.44799 22.2949 4.58385 22.0551C4.71972 21.8153 5.09805 21.27 5.16494 20.9154C5.23183 20.5608 4.79288 20.6264 4.79288 20.6264Z" fill="#E6B185"/>
<path d="M11.5737 20.3497C11.5632 20.5547 11.6803 20.9277 11.1263 20.8273C11.1723 20.897 11.095 20.5178 11.0804 20.319L10.6769 15.5759C10.6726 15.4762 10.6892 15.3767 10.7258 15.2836C10.7623 15.1905 10.818 15.1057 10.8893 15.0346C10.9607 14.9635 11.0462 14.9075 11.1406 14.8701C11.2349 14.8328 11.3361 14.8149 11.4378 14.8175C11.5394 14.8132 11.6407 14.8295 11.7356 14.8654C11.8304 14.9012 11.9167 14.9559 11.9891 15.0259C12.0615 15.0959 12.1184 15.1797 12.1562 15.2723C12.1941 15.3648 12.2121 15.4639 12.2091 15.5636L11.5737 20.3497Z" fill="#E6B185"/>
<path d="M11.1182 20.3825C11.137 20.4378 11.3 21.6636 12.3828 21.4074C11.9893 21.1468 11.701 20.7596 11.5676 20.3128L11.1182 20.3825Z" fill="#E6B185"/>
<path d="M11.0634 20.4563C11.0634 20.4563 10.6328 20.8785 10.9882 21.2454C11.125 21.4183 11.1987 21.6313 11.1972 21.8501L11.2913 21.8686C11.2913 21.8686 11.1805 21.1962 11.308 21.2639C11.795 21.5201 11.4209 21.8788 12.6374 21.8788C12.7858 21.8419 12.8757 21.6738 12.6562 21.5857C12.5506 21.513 12.4501 21.4336 12.3552 21.3479C12.3552 21.3479 11.7344 21.7025 11.0634 20.4563Z" fill="#2A1B16"/>
<path d="M0.704479 18.6505C0.512177 19.6753 1.0849 21.7374 3.37371 20.6141C4.0405 21.3623 4.61322 21.3623 5.75659 20.6141C7.18631 20.8949 7.28246 21.3623 8.99854 20.0545C10.2381 21.27 10.3342 18.1831 11.4776 18.464C11.6699 19.6794 16.3416 19.4888 14.4332 17.9023C13.7664 17.3428 13.6702 17.1542 15.5786 17.3428C17.487 17.5313 21.4898 14.4444 18.4381 14.0632C17.0083 13.7824 17.7713 13.9689 18.5342 13.2228C19.2971 12.4767 18.6304 11.6322 15.4825 11.8187C12.3346 12.0053 0.704479 18.6505 0.704479 18.6505Z" fill="#2A1B16"/>
<path d="M15.7687 13.0424C15.7687 13.0424 16.8138 14.633 15.8648 15.5677C14.9159 16.5024 13.1935 15.2869 13.1935 16.5926C13.1935 17.8982 12.8131 19.9582 11.954 18.5562C11.0949 17.1542 11.2872 16.8734 10.7145 18.1811C10.1418 19.4888 7.56868 20.4358 7.66484 19.0235C7.76099 17.6113 7.28232 18.9292 6.51938 19.8639C5.75645 20.7986 4.51693 19.9582 4.51693 19.1158C4.51693 18.2733 3.18336 20.9052 1.65749 20.3354C0.131616 19.7655 0.894554 17.0558 2.32428 17.437C3.754 17.8183 15.7687 13.0424 15.7687 13.0424Z" fill="#B10101"/>
<path d="M18.0576 8.89787C17.2319 9.20943 14.4331 8.95936 14.3077 8.89787L1.72029 16.5024L1.59069 16.6192C1.04723 17.1214 0.127524 18.1421 0.00419952 18.3717C-0.119125 18.6013 2.49367 20.4952 5.21098 17.9987C5.5287 18.6136 5.83806 19.745 7.30122 18.3717C8.44667 18.6853 9.78025 18.3717 10.4178 16.9369C11.8161 17.3735 12.7045 16.8119 13.2145 15.7522C14.9306 15.9387 16.2642 13.8193 16.329 12.5115C17.9301 11.1423 18.438 9.27092 18.0576 8.89787Z" fill="#2A1B16"/>
<path d="M14.7508 7.89965C16.2766 6.65342 16.6633 6.15738 16.7866 5.96881C17.2967 6.82969 17.7398 8.01854 16.7218 8.6478C16.9769 10.0191 17.3489 11.5174 15.8314 12.0135C15.5785 13.7598 15.3883 14.3215 13.7412 14.4465C12.8507 16.3158 10.6894 16.5659 9.92648 16.0658C9.10084 17.5621 4.96844 18.3205 4.96844 16.939C2.74442 18.5603 -0.229985 16.6233 0.227777 15.7091L1.41294 15.2069L14.7508 7.89965Z" fill="#B10101"/>
<path d="M8.29201 2.76098C7.70047 2.38178 7.28242 0.301312 9.57123 0.184478C10.2547 0.0840409 11.4984 1.45736 10.4073 2.76098C9.52107 2.84502 8.73723 3.0459 8.29201 2.76098Z" fill="#2A1B16"/>
<path d="M9.8586 2.47455L8.80713 2.53834L8.96613 5.05878L10.0176 4.995L9.8586 2.47455Z" fill="#E6B185"/>
<path d="M10.4723 2.25265C10.4848 3.05409 9.98944 3.71206 9.36446 3.72231C8.73948 3.73255 8.2211 3.09099 8.20856 2.2875C8.19601 1.484 10.1441 2.46992 9.67172 0.82399C10.1169 1.58854 10.4577 1.45121 10.4723 2.25265Z" fill="#F4C490"/>
<path d="M11.7493 5.20016C11.7639 5.74949 11.7054 6.29881 10.3405 5.94831C9.00061 6.41565 7.5897 6.11229 7.62314 5.17966C7.65868 4.30853 9.02151 4.08921 10.2652 4.22244C11.4441 4.34952 11.6907 4.67338 11.7493 5.20016Z" fill="#E6B185"/>
<path d="M6.9458 5.15916C6.9458 5.15916 9.69446 7.8853 7.9094 9.4308C9.81779 9.68702 11.2538 10.017 11.2538 10.017C11.2538 10.017 10.7605 7.1351 11.5464 4.85786C9.42273 5.41128 6.9458 5.15916 6.9458 5.15916Z" fill="#E6B185"/>
<path d="M5.05632 6.00775C4.90164 6.0262 4.74905 5.86222 4.70934 5.64495C4.66962 5.42768 4.75532 5.22271 4.91836 5.18581L8.3798 4.37617C8.68706 4.30238 8.6787 4.72872 8.73932 5.06488C8.79994 5.39898 8.33381 5.58756 8.01818 5.6224L5.05632 6.00775Z" fill="#E6B185"/>
<path d="M7.56053 7.07771C7.64205 7.15765 7.84062 7.1802 7.72774 7.30523C7.61696 7.43026 7.45392 7.47741 7.35986 7.40567L4.77006 5.92986C4.72448 5.89326 4.68706 5.84788 4.66009 5.79652C4.63312 5.74516 4.61718 5.68892 4.61326 5.63129C4.60934 5.57365 4.61752 5.51583 4.6373 5.46142C4.65708 5.40701 4.68804 5.35716 4.72825 5.31494C4.7654 5.26999 4.81161 5.23305 4.86399 5.20643C4.91637 5.17981 4.9738 5.16408 5.03266 5.16023C5.09153 5.15638 5.15058 5.16449 5.2061 5.18406C5.26162 5.20363 5.31242 5.23423 5.35533 5.27395L7.56053 7.07771Z" fill="#E6B185"/>
<path d="M7.85519 7.9304L7.84265 7.90785C7.68379 7.9304 7.52702 7.94885 7.36816 7.95705C7.75486 8.44898 7.84474 9.12129 7.94925 9.07825C8.01614 9.04955 7.94925 8.74209 7.86773 8.46333C7.97851 8.6683 8.04749 8.81998 8.09557 8.79128C8.14364 8.76259 8.09557 8.62935 8.03913 8.46128C8.08511 8.51867 8.11856 8.54942 8.13946 8.53302C8.19799 8.48588 7.98896 8.15382 7.85728 7.9345L7.85519 7.9304Z" fill="#D39C72"/>
<path d="M8.03719 7.71108C8.12916 8.14767 8.36535 8.3137 8.3131 8.38749C8.26084 8.46128 8.14588 8.37724 7.97866 8.15587C7.85325 7.99189 7.6923 7.99804 7.69021 8.19686C7.68812 8.39569 7.79054 9.18483 7.67557 9.20943C7.56061 9.23403 7.53762 8.6437 7.36622 8.02878C7.25962 7.64958 7.51672 7.08386 7.51672 7.08386C7.51672 7.08386 7.92849 7.14945 8.03719 7.71108Z" fill="#E6B185"/>
<path d="M8.22078 4.41101C8.69735 4.73692 8.84785 6.31931 7.72121 6.27422C9.18438 8.50227 8.0452 9.11514 7.6167 9.58248C9.04642 10.7529 11.145 10.2855 11.3791 10.097C11.6132 9.90839 10.9026 8.3219 11.1868 7.66598C11.4711 7.01007 11.9707 5.85197 11.446 5.13047C11.4836 5.2637 11.655 5.60601 11.4147 5.71464C9.63796 6.54478 9.46029 4.73282 8.90638 4.23269C8.67204 4.26813 8.44222 4.32791 8.22078 4.41101Z" fill="#2A1B16"/>
<path d="M7.61673 9.58248C7.61673 9.58248 3.18334 14.5018 0.894531 14.881C0.894531 16.3773 4.07169 16.3773 5.08964 16.0043C7.63137 17.2505 9.53975 16.1293 10.1752 15.1311C12.5894 15.1311 14.1153 13.5098 14.3703 12.1385C15.7687 10.8923 16.2766 7.27653 15.5785 7.1515C15.0768 7.06336 13.8143 9.4431 7.61673 9.58248Z" fill="#2A1B16"/>
<path d="M7.56865 10.0519C7.37844 11.2674 7.6648 14.2108 9.5711 14.6802C10.6685 14.8667 11.908 14.4916 12.4305 13.9771C10.7145 13.6512 7.80694 12.7165 7.85501 10.3778C8.80816 11.3125 12.002 12.7616 14.1006 12.0606C14.9117 10.9394 15.2921 10.1441 15.3402 9.62963C14.6169 10.798 9.71324 11.0788 7.56865 10.0519Z" fill="#44332F"/>
<path d="M7.33059 10.3306C7.33059 10.3306 5.08985 15.1003 7.33059 15.9879C6.23321 16.035 1.89597 15.7071 7.33059 10.3306Z" fill="#44332F"/>
<path d="M9.67338 0.901882C9.07139 0.735854 9.03376 -0.186526 9.80506 0.256216C10.1813 -0.223421 10.7666 0.0163973 10.313 0.569824C10.7666 0.846537 10.2189 1.62339 10.0684 1.21549C9.88031 1.38152 9.16545 1.10481 9.67338 0.901882Z" fill="#B10101"/>
<path d="M9.87631 0.766599C9.85959 0.766599 9.3433 0.614921 9.59204 0.422246C9.84077 0.229572 9.95992 0.289014 9.985 0.405848C10.1564 0.358704 10.888 0.586223 10.2275 0.744052C10.3592 0.899831 10.3592 1.17449 10.0561 1.05151C9.75298 0.928528 9.87631 0.766599 9.87631 0.766599Z" fill="#DB1414"/>
</g>
<defs>
<clipPath id="clip0_1232_2443">
<rect width="19.55" height="23" fill="white"/>
</clipPath>
</defs>
</svg>
