<svg width="15" height="25" viewBox="0 0 15 25" fill="none" xmlns="http://www.w3.org/2000/svg">
<g clip-path="url(#clip0_1232_6504)">
<path d="M7.67587 15.7747C7.55641 16.5922 7.5383 17.4214 7.62195 18.2434C7.71337 18.7264 7.67918 19.2247 7.52264 19.6907C7.39495 20.0738 7.43467 21.2968 7.5879 22.0658C7.74114 22.8348 7.84046 23.1753 7.46305 23.5357C7.46305 23.5357 7.52831 24.5715 7.74681 24.387C7.89524 24.2193 8.07821 24.0857 8.28314 23.9954C8.33428 23.9723 8.37993 23.9385 8.41707 23.8964C8.45422 23.8543 8.48202 23.8048 8.49864 23.7512C8.51527 23.6976 8.52033 23.641 8.51351 23.5853C8.50669 23.5296 8.48814 23.4759 8.45908 23.4279C8.33608 23.1499 8.30141 22.8409 8.35975 22.5425C8.41935 22.2134 8.87054 20.8683 8.86486 20.3689C8.85919 19.8694 8.70595 19.9773 8.86486 19.4154C9.23913 18.2938 9.47173 17.1299 9.55726 15.9506L7.67587 15.7747Z" fill="#FED4AC"/>
<path d="M8.42235 23.357C8.32174 23.0968 8.29617 22.8137 8.34857 22.5397C8.40816 22.2105 8.85935 20.8655 8.85368 20.366C8.848 19.8666 8.69477 19.9744 8.85368 19.4126C9.06472 18.7621 9.23345 18.0985 9.35879 17.4262L8.85652 17.5C8.70328 18.4308 8.40816 19.5488 8.50181 19.8978C8.59545 20.2469 8.13574 22.8717 8.13574 22.8717L8.42235 23.357Z" fill="#FBBCA1"/>
<path d="M11.6826 15.7747C11.8035 16.5921 11.8216 17.4215 11.7365 18.2434C11.6446 18.7266 11.6798 19.2253 11.8387 19.6907C11.9664 20.0738 11.9238 21.2968 11.7706 22.0658C11.6585 22.5672 11.683 23.0896 11.8415 23.5783C11.9323 24.0266 11.8415 24.5715 11.6259 24.3757C11.476 24.2084 11.2922 24.0749 11.0867 23.9841C11.0355 23.961 10.9898 23.9272 10.9527 23.8851C10.9156 23.8429 10.8879 23.7933 10.8715 23.7395C10.8551 23.6858 10.8504 23.6292 10.8577 23.5735C10.8649 23.5178 10.884 23.4643 10.9136 23.4165C11.0342 23.1379 11.0679 22.8293 11.0101 22.5312C10.9505 22.202 10.4993 20.8569 10.505 20.3575C10.5107 19.8581 10.6639 19.9659 10.505 19.4041C10.1314 18.2854 9.89971 17.1242 9.81543 15.9478L11.6826 15.7747Z" fill="#FED4AC"/>
<path d="M11.7369 18.2435C11.7821 17.9563 11.8011 17.6657 11.7936 17.3751L11.3992 17.6078C11.3937 18.3576 11.4718 19.1057 11.6319 19.8382C11.7454 20.3831 11.5127 23.1725 11.5127 23.1725C11.5127 23.1725 11.6177 23.1583 11.7454 23.1328C11.6765 22.7795 11.6852 22.4154 11.7709 22.0658C11.9242 21.2968 11.9667 20.0794 11.839 19.6907C11.6802 19.2253 11.645 18.7266 11.7369 18.2435Z" fill="#FBBCA1"/>
<path d="M8.28616 23.4392C8.43372 23.059 8.51602 22.7213 7.91159 22.7213C7.40649 22.7213 7.48878 23.0789 7.65336 23.4392H8.28616Z" fill="#5E6679"/>
<path d="M8.36819 23.1754C8.36819 23.1754 8.49305 23.13 8.4817 23.4592C8.47035 23.7883 8.55264 24.0976 8.41643 24.2736C8.28023 24.4495 7.84889 25.1249 7.31257 24.9802C6.77625 24.8354 6.98057 24.4126 7.08556 24.2452C7.2388 23.9955 7.44878 23.8848 7.43459 23.6323C7.4204 23.3797 7.34663 23.1754 7.63607 23.1782L8.36819 23.1754Z" fill="#5E6679"/>
<path d="M11.0726 23.4392C10.9278 23.059 10.8427 22.7213 11.4471 22.7213C11.9551 22.7213 11.8699 23.0789 11.7054 23.4392H11.0726Z" fill="#5E6679"/>
<path d="M10.9904 23.1754C10.9904 23.1754 10.8656 23.13 10.8798 23.4592C10.8939 23.7883 10.806 24.0976 10.9422 24.2736C11.0784 24.4495 11.5097 25.1249 12.046 24.9802C12.5824 24.8354 12.378 24.4126 12.2731 24.2452C12.1198 23.9955 11.9127 23.8848 11.924 23.6323C11.9354 23.3797 12.012 23.1754 11.7225 23.1782L10.9904 23.1754Z" fill="#5E6679"/>
<path d="M7.7354 12.6135L7.22461 17.9853C7.56243 18.0967 7.91362 18.1626 8.26888 18.1811C8.63521 18.2299 9.00641 18.2299 9.37274 18.1811L9.74447 15.2355L9.77853 12.937L7.7354 12.6135Z" fill="#CAD07E"/>
<path d="M11.8017 12.8859L12.0032 18.181C11.6795 18.2569 11.3482 18.295 11.0157 18.2946C10.1275 18.2946 10.0367 18.2123 10.0367 18.2123L9.75293 15.2355L9.78698 12.937L11.8017 12.8859Z" fill="#CAD07E"/>
<path d="M9.75024 13.6408L9.54593 13.2094C9.54593 13.2094 8.12709 13.0761 7.68158 13.1726L7.66455 13.3627C8.09171 13.6055 8.56573 13.7545 9.05501 13.7997L8.72584 18.2094C8.9419 18.2229 9.15878 18.2134 9.37283 18.1811L9.74457 15.2355V15.2185C9.74741 15.088 9.76159 14.0749 9.75024 13.6408Z" fill="#ADB557"/>
<path d="M9.05518 13.7996C9.05518 13.7996 10.474 14.0834 11.4842 13.8848C12.4944 13.6861 9.18571 13.2974 9.18571 13.2974L9.05518 13.7996Z" fill="#ADB557"/>
<path d="M11.4105 18.2775C11.6102 18.2598 11.8084 18.2275 12.0035 18.181L11.8021 12.8859L10.9678 13.6408C11.1863 15.6073 11.3934 18.0533 11.4105 18.2775Z" fill="#ADB557"/>
<path d="M4.285 2.57379H3.87354V5.28946H4.285V2.57379Z" fill="#8B6751"/>
<path d="M9.05529 6.57208C8.58707 6.41523 8.08995 6.36387 7.59955 6.42169C7.3924 6.45006 5.57061 6.34507 5.53372 6.27129C5.29176 5.96566 5.08074 5.63676 4.90375 5.28945C4.73318 4.91414 4.63038 4.5116 4.60012 4.10046C4.60012 3.76561 4.60012 3.22078 4.52066 3.13848C4.35324 2.95687 3.9361 2.87742 4.01272 3.03633C4.08822 3.15788 4.18423 3.26542 4.29648 3.35415V5.28945H4.01272C4.01272 5.28945 4.06948 5.60443 4.11772 5.82861C4.16596 6.05278 4.46675 7.08003 4.60863 7.17651C4.75052 7.27299 6.52691 7.80931 6.87878 7.96822C7.23065 8.12713 7.55983 8.53576 7.52861 8.81952L8.98718 7.59932L9.05529 6.57208Z" fill="#FED4AC"/>
<path d="M4.10913 5.82859C4.15737 6.04993 4.45816 7.08001 4.60005 7.1765C4.74193 7.27298 6.51832 7.80929 6.87019 7.9682C7.22207 8.12711 7.55124 8.53574 7.52003 8.81951L8.97859 7.59931L9.05805 6.58342C8.58983 6.42656 8.09272 6.3752 7.60232 6.43302C7.39517 6.4614 5.57338 6.3564 5.53649 6.28262C5.29453 5.97699 5.08351 5.6481 4.90652 5.30078L4.08643 5.71792L4.10913 5.82859Z" fill="#EB7A27"/>
<path d="M4.20814 3.19237C4.11166 3.09589 3.91019 2.9086 3.7683 2.95684C3.62642 3.00508 3.50724 3.29736 3.459 3.41654C3.41076 3.53573 3.459 4.23948 3.63777 4.33312C3.75834 4.41908 3.84316 4.54631 3.87614 4.69067V4.12313C3.95276 4.14602 4.0228 4.18688 4.08045 4.24231C4.18544 4.33595 4.28476 4.15718 4.28476 4.0153C4.28476 3.87341 4.36705 3.74572 4.32733 3.54992C4.29972 3.42703 4.25979 3.30724 4.20814 3.19237Z" fill="#FED4AC"/>
<path d="M4.3102 5.28943H3.84766V5.42848H4.3102V5.28943Z" fill="#7F5C4A"/>
<path d="M4.3102 2.50568H3.84766V2.64472H4.3102V2.50568Z" fill="#7F5C4A"/>
<path d="M7.31562 7.74688C7.13401 7.61634 5.00291 6.90976 4.83832 6.8445C4.67374 6.77923 4.33889 5.57605 4.33889 5.57605L4.0835 5.70659L4.10904 5.8286C4.15728 6.04994 4.45807 7.08003 4.59996 7.17651C4.74184 7.27299 6.51823 7.80931 6.8701 7.96822C7.02366 8.03669 7.16082 8.13718 7.2724 8.26295C7.38398 8.38872 7.46741 8.53688 7.5171 8.6975C7.50007 8.44779 7.45751 7.85187 7.31562 7.74688Z" fill="#D65E1F"/>
<path d="M7.51709 8.79683C7.51709 8.79683 7.51709 8.75426 7.51709 8.68616C7.52274 8.72283 7.52274 8.76016 7.51709 8.79683Z" fill="#D65E1F"/>
<path d="M4.08075 6.14077C3.94738 6.14077 3.84521 5.96483 3.84521 5.73214C3.84521 5.49945 3.94738 5.32635 4.08075 5.32635C4.21412 5.32635 4.31627 5.49945 4.31627 5.73214C4.31627 5.96483 4.21412 6.14077 4.08075 6.14077ZM4.08075 5.46824C4.05237 5.46824 3.9871 5.55904 3.9871 5.73214C3.9871 5.90524 4.05237 5.99888 4.08075 5.99888C4.10912 5.99888 4.17439 5.90524 4.17439 5.73214C4.17439 5.55904 4.10912 5.46824 4.08075 5.46824Z" fill="#7F5C4A"/>
<path d="M3.65771 14.2792C3.68893 14.9063 4.1004 15.6328 4.07202 16.3252C4.04365 17.0176 4.21958 17.2134 4.39551 16.3252C4.57145 15.437 4.36714 13.1725 4.13161 13.2321C3.89608 13.2917 3.65771 14.2792 3.65771 14.2792Z" fill="#6BA0B2"/>
<path d="M3.85663 6.89556C3.57286 6.35072 3.28909 4.68501 3.00532 4.94891C2.72156 5.21282 2.00362 7.45458 1.91566 8.60952C1.82769 9.76446 1.91566 10.6527 1.63189 10.8513C1.34812 11.0499 0.0371094 12.2701 0.0371094 12.7298C0.0371094 13.1895 0.184668 12.6646 1.27718 12.7298C2.36968 12.7951 2.63359 16.6856 2.48603 17.71C2.33847 18.7344 -0.0196443 20.1476 0.39182 21.9949C0.39182 21.9949 1.60067 20.1816 2.3782 20.0823C3.15572 19.983 4.38444 21.1719 4.76752 21.1719C4.77598 20.8594 4.71407 20.549 4.58636 20.2636C4.45865 19.9782 4.26841 19.7252 4.02972 19.5233C3.20396 18.7968 3.02518 18.5329 3.17842 17.8746C3.33165 17.2162 4.63132 13.0278 4.77604 11.311C4.92076 9.59419 4.39011 6.3337 4.2085 6.10385C4.02689 5.87399 3.85663 6.89556 3.85663 6.89556Z" fill="#88B7C7"/>
<path d="M4.08638 5.95916C3.93882 5.97335 3.74018 6.63453 3.74018 6.63453C3.63581 6.12124 3.47102 5.62212 3.24925 5.14758C3.13291 6.12658 3.07333 7.11694 3.55857 7.6561C3.87435 7.94791 4.22286 8.20215 4.59715 8.41376C4.45527 7.24463 4.26515 5.95916 4.08638 5.95916Z" fill="#C1E5F2"/>
<path d="M4.72464 11.311C4.73883 11.1379 4.74735 10.9478 4.74735 10.7435H4.70761C4.33871 12.2418 3.78253 13.0959 3.36539 14.2877C2.94825 15.4796 2.76664 18.1158 3.16391 18.6266C3.05866 18.3886 3.04255 18.1206 3.11851 17.8717C3.28877 17.2134 4.57992 13.0278 4.72464 11.311Z" fill="#C1E5F2"/>
<path d="M3.93324 10.2469C3.85357 10.4142 3.82534 10.6014 3.85211 10.7848C3.87888 10.9681 3.95946 11.1394 4.08363 11.277C4.27092 11.5352 4.90656 12.3014 5.04277 13.0335C5.17898 13.7656 5.24425 12.256 5.21871 11.9921C5.19317 11.7282 4.8413 9.38992 4.58307 9.47505C4.32484 9.56018 4.16309 9.64814 3.93324 10.2469Z" fill="#6BA0B2"/>
<path d="M1.24007 12.7299C1.47276 12.7441 1.66855 12.9342 1.8303 13.2321C2.66742 11.2458 1.69693 10.7804 1.59478 10.8513C1.31101 11.0471 0 12.2702 0 12.7299C0 13.1896 0.147558 12.6646 1.24007 12.7299Z" fill="#6BA0B2"/>
<path d="M3.98433 19.5233C3.65914 19.278 3.38288 18.9738 3.16991 18.6266C3.08257 18.7127 2.9747 18.775 2.85652 18.8078C2.73834 18.8406 2.61375 18.8427 2.49455 18.8138C2.00646 18.7514 2.06889 18.462 2.06889 18.462C1.37934 19.3927 0.0342741 20.5647 0.366283 21.9949C0.366283 21.9949 1.57514 20.1816 2.35266 20.0823C3.13019 19.983 4.3589 21.172 4.74199 21.172C4.74803 20.8578 4.68303 20.5464 4.55183 20.2609C4.42064 19.9754 4.22664 19.7233 3.98433 19.5233Z" fill="#6BA0B2"/>
<path d="M13.2378 10.4455L12.0034 10.9222C12.0942 11.1691 12.1822 11.4103 12.2475 11.6118C12.3581 11.9438 12.2248 12.063 12.2815 12.0857C12.4631 12.1595 13.4819 12.3269 13.3769 11.0868C13.3493 10.8694 13.3028 10.6548 13.2378 10.4455Z" fill="#FED4AC"/>
<path d="M12.0856 7.31842C12.5481 8.31161 13.3313 10.4399 13.3853 11.0869C13.4903 12.3269 12.6304 12.2219 12.446 12.1368C12.3921 12.1141 12.3665 11.9438 12.2559 11.6118C12.0033 10.8485 11.4613 9.50627 11.4613 9.50627L11.1265 7.50287L12.0856 7.31842Z" fill="#EB7A27"/>
<path d="M7.51699 8.7968C7.46307 7.94549 7.37226 7.74118 7.42618 7.37796C7.4801 7.01473 8.723 6.67705 9.0238 6.57489L9.75876 7.04878L10.4937 6.57489C10.7945 6.67705 12.0204 6.94379 12.0771 7.2985C12.1339 7.65321 11.7423 9.2338 11.6884 10.0936C11.6915 11.1091 11.7693 12.123 11.9211 13.1271C11.9863 13.6265 11.1691 13.6209 9.75024 13.6209C8.22924 13.6209 7.38078 13.4705 7.50847 12.9739C7.80359 11.8728 7.5709 9.6708 7.51699 8.7968Z" fill="#EB7A27"/>
<path d="M10.2894 5.84564C10.2894 5.84564 10.3036 6.41318 10.4938 6.59479C10.4938 6.59479 10.3178 7.22759 9.75879 7.22759V5.91374L10.2894 5.84564Z" fill="#FED4AC"/>
<path d="M9.22824 5.84564C9.22824 5.84564 9.21405 6.41318 9.02393 6.59479C9.02393 6.59479 9.19986 7.22759 9.75889 7.22759V5.91374L9.22824 5.84564Z" fill="#FED4AC"/>
<path d="M9.86656 6.52668C9.73254 6.51547 9.60282 6.47386 9.48728 6.40503C9.37173 6.33619 9.27338 6.24193 9.19971 6.12941C9.21479 6.03547 9.22426 5.94071 9.22809 5.84564L9.75873 5.91374L10.2894 5.84564C10.2963 6.01538 10.322 6.18384 10.366 6.34791C10.2272 6.46688 10.0494 6.53053 9.86656 6.52668Z" fill="#FBBCA1"/>
<path d="M9.77598 6.35075C9.32195 6.35075 8.86792 5.81159 8.74874 5.16744C8.71781 5.17263 8.68606 5.16959 8.65667 5.15864C8.62729 5.14768 8.60129 5.12918 8.58132 5.10501C8.52564 5.04049 8.48689 4.96313 8.46856 4.87991C8.45023 4.79668 8.4529 4.71021 8.47632 4.62827C8.48685 4.59909 8.50457 4.57304 8.52784 4.55252C8.55111 4.53201 8.57918 4.5177 8.60945 4.51091C8.63972 4.50412 8.67122 4.50507 8.70102 4.51368C8.73083 4.5223 8.75797 4.53828 8.77996 4.56017C8.77996 4.56017 8.74874 3.53577 9.77598 3.53577V6.35075Z" fill="#FED4AC"/>
<path d="M9.77588 6.35075C10.2299 6.35075 10.6839 5.81159 10.806 5.16744C10.8369 5.17263 10.8686 5.16959 10.898 5.15864C10.9274 5.14768 10.9534 5.12918 10.9734 5.10501C11.0284 5.04011 11.0667 4.96275 11.085 4.87967C11.1033 4.79658 11.101 4.71028 11.0784 4.62827C11.0679 4.59909 11.0501 4.57304 11.0269 4.55252C11.0036 4.53201 10.9755 4.5177 10.9453 4.51091C10.915 4.50412 10.8835 4.50507 10.8537 4.51368C10.8239 4.5223 10.7967 4.53828 10.7747 4.56017C10.7747 4.56017 10.806 3.53577 9.77588 3.53577V6.35075Z" fill="#FED4AC"/>
<path d="M8.445 3.65212C8.4904 3.14985 8.777 2.58799 9.77587 2.5738C10.7747 2.55961 11.0642 3.14134 11.1067 3.65212C11.1345 3.95166 11.1017 4.25372 11.0103 4.54032C10.8059 4.50059 10.7265 4.73044 10.7265 4.73044C10.7861 4.28209 10.4427 3.59536 10.3321 3.69185C10.1727 3.80434 9.98233 3.86473 9.78722 3.86473C9.59212 3.86473 9.4018 3.80434 9.24239 3.69185C9.12321 3.60104 8.78836 4.28209 8.85079 4.73044C8.85079 4.73044 8.75998 4.50059 8.56702 4.54032C8.46611 4.25569 8.42458 3.95341 8.445 3.65212Z" fill="#2A2B33"/>
<path d="M10.8257 19.7105C10.9177 19.7378 11.0136 19.7493 11.1095 19.7446C11.1758 19.7377 11.2403 19.7185 11.2996 19.6878C11.3288 19.6734 11.3573 19.6572 11.3847 19.6396C11.3675 19.6687 11.3465 19.6954 11.3223 19.719C11.2666 19.7723 11.1946 19.8053 11.118 19.8127C11.0417 19.8195 10.965 19.8048 10.8966 19.7701C10.8702 19.7538 10.8463 19.7337 10.8257 19.7105Z" fill="#FBBCA1"/>
<path d="M7.73535 19.6538C7.8235 19.7014 7.91972 19.7322 8.01912 19.7446C8.08581 19.7523 8.15334 19.7465 8.21775 19.7276C8.2488 19.7196 8.27916 19.7092 8.30856 19.6964C8.28737 19.7235 8.26141 19.7466 8.23195 19.7645C8.16618 19.8038 8.08981 19.8216 8.01344 19.8156C7.93711 19.8064 7.86461 19.777 7.80345 19.7304C7.77737 19.7081 7.75446 19.6823 7.73535 19.6538Z" fill="#FBBCA1"/>
<path d="M8.41639 24.2678C8.48354 24.1583 8.51155 24.0293 8.49584 23.9018C8.29991 24.2268 8.03909 24.5079 7.72967 24.7276C7.48563 24.9234 6.972 24.6963 6.97484 24.5062C6.93795 24.6822 6.97484 24.8808 7.31537 24.9744C7.84318 25.1277 8.28018 24.4438 8.41639 24.2678Z" fill="#545869"/>
<path d="M12.0458 24.9716C12.3295 24.8893 12.409 24.7304 12.3948 24.5743C12.2501 24.773 12.1706 24.8297 11.8443 24.7985C11.4442 24.7588 10.9419 24.0891 10.8653 23.9018C10.8505 24.028 10.8774 24.1556 10.9419 24.265C11.081 24.4438 11.518 25.1277 12.0458 24.9716Z" fill="#545869"/>
<path d="M11.5325 22.9625H11.3793C11.2774 22.9625 11.1948 23.0451 11.1948 23.147V23.2009C11.1948 23.3028 11.2774 23.3853 11.3793 23.3853H11.5325C11.6344 23.3853 11.717 23.3028 11.717 23.2009V23.147C11.717 23.0451 11.6344 22.9625 11.5325 22.9625Z" fill="#545869"/>
<path d="M8.03642 22.9625H7.88318C7.78131 22.9625 7.69873 23.0451 7.69873 23.147V23.2009C7.69873 23.3028 7.78131 23.3853 7.88318 23.3853H8.03642C8.13828 23.3853 8.22086 23.3028 8.22086 23.2009V23.147C8.22086 23.0451 8.13828 22.9625 8.03642 22.9625Z" fill="#545869"/>
<path d="M9.02393 6.5976L9.78159 9.23097L10.4938 6.5976H9.02393Z" fill="#FED4AC"/>
<path d="M4.28467 4.01248C4.28467 3.8706 4.36696 3.7429 4.32723 3.5471C4.29945 3.42518 4.25951 3.30635 4.20805 3.19239C4.153 3.13644 4.09422 3.0843 4.03211 3.03632H4.01224C4.12859 3.11577 4.15697 3.38819 4.16548 3.53575C4.17399 3.68331 4.21656 4.18274 4.04062 4.10329C3.93534 4.04702 3.81262 4.03282 3.69727 4.06356L3.87604 4.12031C3.95266 4.14321 4.02271 4.18407 4.08035 4.2395C4.18535 4.33314 4.28467 4.15436 4.28467 4.01248Z" fill="#FBBCA1"/>
<path d="M11.674 9.22813L11.3732 8.54993C11.3672 8.87056 11.3938 9.19098 11.4527 9.50623C11.5293 9.98863 11.2881 10.6555 11.1859 11.2911C11.0838 11.9268 11.3278 12.2701 11.2626 12.7582C11.1973 13.2463 8.50148 13.1385 8.50148 13.1385C9.17401 13.3484 10.6297 13.2974 10.6297 13.2974C10.1502 13.7117 8.07583 13.5159 8.05029 13.513C8.6116 13.6166 9.18243 13.6594 9.7529 13.6407C11.1717 13.6407 11.989 13.6407 11.9237 13.147C11.7719 12.1429 11.6941 11.129 11.691 10.1135C11.867 10.5675 12.1053 11.1861 12.2586 11.6203C12.3692 11.9523 12.3948 12.1226 12.4487 12.1453L12.7041 11.4642L11.674 9.22813Z" fill="#D65E1F"/>
<path d="M13.6663 18.2576L12.7866 11.6089L14.5687 0.0652466L14.5971 0.0709219L12.815 11.6089L13.6947 18.2548L13.6663 18.2576Z" fill="#545869"/>
<path d="M12.3744 18.0823L11.7646 17.9782L11.7393 18.1265L12.3491 18.2306L12.3744 18.0823Z" fill="#545869"/>
<path d="M13.0222 17.3865C12.8523 17.3575 12.6776 17.3795 12.5203 17.4498C12.3629 17.5201 12.23 17.6355 12.1382 17.7813C12.0464 17.9272 12 18.097 12.0047 18.2693C12.0095 18.4416 12.0652 18.6086 12.1649 18.7491C12.2646 18.8897 12.4037 18.9976 12.5647 19.0591C12.7257 19.1206 12.9013 19.1329 13.0693 19.0946C13.2374 19.0563 13.3902 18.969 13.5086 18.8437C13.627 18.7185 13.7056 18.561 13.7344 18.3911C13.7731 18.1634 13.7198 17.9297 13.5862 17.7414C13.4527 17.553 13.2498 17.4254 13.0222 17.3865ZM12.7554 18.9501C12.6154 18.9261 12.4857 18.8611 12.3826 18.7633C12.2795 18.6655 12.2078 18.5393 12.1765 18.4008C12.1451 18.2622 12.1556 18.1174 12.2066 17.9848C12.2576 17.8522 12.3468 17.7377 12.4629 17.6558C12.579 17.5739 12.7167 17.5283 12.8588 17.5248C13.0008 17.5212 13.1407 17.5599 13.2607 17.6358C13.3808 17.7118 13.4756 17.8217 13.5331 17.9516C13.5907 18.0815 13.6084 18.2255 13.584 18.3655C13.5515 18.5528 13.4459 18.7195 13.2906 18.8291C13.1353 18.9387 12.9428 18.9822 12.7554 18.9501Z" fill="#5E6679"/>
<path d="M13.0051 17.5C12.858 17.4746 12.7066 17.4935 12.5701 17.5541C12.4337 17.6148 12.3183 17.7146 12.2386 17.8409C12.1589 17.9672 12.1184 18.1143 12.1223 18.2635C12.1262 18.4128 12.1743 18.5576 12.2605 18.6795C12.3467 18.8015 12.4671 18.8951 12.6065 18.9486C12.746 19.0021 12.8981 19.013 13.0438 18.98C13.1894 18.947 13.322 18.8715 13.4247 18.7631C13.5274 18.6548 13.5957 18.5183 13.6209 18.3712C13.6546 18.174 13.6087 17.9715 13.4933 17.8082C13.3778 17.6448 13.2022 17.534 13.0051 17.5ZM13.3598 17.9682C13.3824 17.96 13.4073 17.961 13.4292 17.9711C13.451 17.9812 13.4679 17.9996 13.4762 18.0221C13.4845 18.0443 13.4836 18.0689 13.4737 18.0905C13.4639 18.112 13.4459 18.1288 13.4237 18.137C13.4015 18.1453 13.3769 18.1444 13.3553 18.1346C13.3338 18.1248 13.317 18.1068 13.3088 18.0846C13.3004 18.0623 13.301 18.0377 13.3106 18.016C13.3201 17.9942 13.3378 17.9771 13.3598 17.9682ZM12.2446 18.1356C12.2463 18.1235 12.2503 18.1119 12.2566 18.1014C12.2628 18.0909 12.2711 18.0817 12.281 18.0745C12.2908 18.0673 12.3021 18.0622 12.314 18.0594C12.3259 18.0566 12.3382 18.0563 12.3502 18.0584C12.3623 18.0605 12.3738 18.065 12.384 18.0716C12.3943 18.0783 12.4031 18.0869 12.4099 18.097C12.4167 18.1072 12.4214 18.1186 12.4238 18.1306C12.4261 18.1426 12.426 18.1549 12.4234 18.1668C12.4192 18.1905 12.4058 18.2116 12.3862 18.2255C12.3665 18.2393 12.3421 18.2447 12.3184 18.2406C12.2951 18.2358 12.2744 18.2223 12.2607 18.2027C12.247 18.1832 12.2412 18.1592 12.2446 18.1356ZM12.3922 18.5187C12.3759 18.5241 12.3584 18.5246 12.3418 18.5202C12.3252 18.5158 12.3103 18.5066 12.2989 18.4938C12.2874 18.481 12.28 18.4651 12.2775 18.4481C12.275 18.4311 12.2775 18.4138 12.2847 18.3982C12.2919 18.3827 12.3035 18.3695 12.3181 18.3605C12.3327 18.3514 12.3496 18.3468 12.3667 18.3473C12.3839 18.3477 12.4006 18.3532 12.4147 18.363C12.4288 18.3727 12.4397 18.3864 12.4461 18.4024C12.4506 18.4135 12.4527 18.4255 12.4524 18.4375C12.4521 18.4495 12.4494 18.4613 12.4443 18.4722C12.4393 18.4831 12.432 18.4929 12.4231 18.5009C12.4141 18.5088 12.4036 18.5149 12.3922 18.5187ZM12.5227 17.9512C12.5101 17.964 12.4939 17.9727 12.4762 17.9763C12.4586 17.9799 12.4403 17.9782 12.4236 17.9713C12.407 17.9645 12.3927 17.9528 12.3827 17.9379C12.3727 17.9229 12.3673 17.9053 12.3673 17.8873C12.3673 17.8693 12.3727 17.8517 12.3827 17.8368C12.3927 17.8218 12.407 17.8102 12.4236 17.8033C12.4403 17.7965 12.4586 17.7948 12.4762 17.7983C12.4939 17.8019 12.5101 17.8107 12.5227 17.8235C12.5389 17.8408 12.5479 17.8636 12.5479 17.8873C12.5479 17.911 12.5389 17.9338 12.5227 17.9512ZM12.5937 18.7259C12.5768 18.7418 12.5545 18.7507 12.5312 18.7507C12.508 18.7507 12.4857 18.7418 12.4688 18.7259C12.4601 18.7176 12.4532 18.7077 12.4485 18.6968C12.4438 18.6858 12.4413 18.674 12.4413 18.662C12.4413 18.6501 12.4438 18.6382 12.4485 18.6273C12.4532 18.6163 12.4601 18.6064 12.4688 18.5982C12.4756 18.5869 12.4848 18.5772 12.4957 18.5698C12.5066 18.5624 12.519 18.5575 12.532 18.5553C12.5451 18.5532 12.5584 18.554 12.5711 18.5575C12.5838 18.5611 12.5956 18.5674 12.6056 18.5759C12.6156 18.5845 12.6237 18.5951 12.6292 18.6071C12.6347 18.6191 12.6375 18.6322 12.6374 18.6454C12.6374 18.6585 12.6344 18.6716 12.6288 18.6835C12.6232 18.6954 12.6151 18.706 12.605 18.7145L12.5937 18.7259ZM12.7185 17.8121C12.7072 17.8186 12.6946 17.8225 12.6816 17.8237C12.6686 17.8248 12.6555 17.8231 12.6433 17.8188C12.631 17.8144 12.6198 17.8075 12.6104 17.7984C12.6011 17.7893 12.5938 17.7783 12.589 17.7662C12.5843 17.754 12.5822 17.741 12.583 17.728C12.5837 17.715 12.5873 17.7023 12.5933 17.6907C12.5994 17.6792 12.6079 17.6691 12.6183 17.6612C12.6286 17.6533 12.6405 17.6476 12.6533 17.6447C12.6644 17.6402 12.6763 17.6381 12.6884 17.6384C12.7004 17.6387 12.7122 17.6414 12.7231 17.6465C12.734 17.6515 12.7437 17.6588 12.7517 17.6677C12.7597 17.6767 12.7658 17.6872 12.7696 17.6986C12.7737 17.7094 12.7756 17.7209 12.7753 17.7325C12.7749 17.744 12.7723 17.7554 12.7676 17.766C12.7628 17.7765 12.7561 17.786 12.7476 17.7939C12.7392 17.8019 12.7293 17.808 12.7185 17.8121ZM12.7696 18.8734C12.7578 18.8721 12.7464 18.8683 12.7362 18.8623C12.7259 18.8563 12.717 18.8483 12.7101 18.8387C12.7032 18.8291 12.6983 18.8181 12.6958 18.8065C12.6934 18.7949 12.6934 18.7829 12.6958 18.7713C12.6977 18.7597 12.7018 18.7486 12.7079 18.7387C12.7141 18.7287 12.7221 18.7201 12.7316 18.7132C12.7411 18.7064 12.7518 18.7015 12.7632 18.6988C12.7746 18.6961 12.7864 18.6956 12.798 18.6975C12.8095 18.6994 12.8206 18.7035 12.8306 18.7096C12.8405 18.7158 12.8492 18.7238 12.856 18.7333C12.8629 18.7428 12.8678 18.7535 12.8705 18.7649C12.8732 18.7763 12.8736 18.7881 12.8717 18.7996C12.8704 18.8114 12.8666 18.8228 12.8607 18.8331C12.8547 18.8433 12.8466 18.8522 12.837 18.8591C12.8274 18.8661 12.8164 18.8709 12.8048 18.8734C12.7932 18.8759 12.7812 18.8759 12.7696 18.8734ZM12.954 17.7923C12.9303 17.7881 12.9093 17.7747 12.8954 17.755C12.8816 17.7353 12.8761 17.711 12.8803 17.6873C12.8819 17.6752 12.886 17.6635 12.8922 17.653C12.8985 17.6425 12.9068 17.6334 12.9166 17.6262C12.9265 17.619 12.9377 17.6138 12.9496 17.611C12.9615 17.6082 12.9738 17.6079 12.9859 17.61C12.9979 17.6121 13.0094 17.6166 13.0196 17.6233C13.0299 17.6299 13.0387 17.6385 13.0455 17.6487C13.0524 17.6588 13.0571 17.6702 13.0594 17.6822C13.0617 17.6942 13.0616 17.7065 13.059 17.7185C13.0549 17.7422 13.0415 17.7633 13.0218 17.7771C13.0021 17.7909 12.9777 17.7964 12.954 17.7923ZM13.0988 18.845C13.0762 18.8525 13.0515 18.8511 13.0299 18.8411C13.0083 18.8311 12.9913 18.8132 12.9824 18.7911C12.9779 18.78 12.9758 18.768 12.9761 18.756C12.9764 18.744 12.9792 18.7322 12.9842 18.7213C12.9893 18.7104 12.9965 18.7006 13.0055 18.6926C13.0144 18.6846 13.0249 18.6786 13.0363 18.6748C13.0589 18.6665 13.0838 18.6676 13.1057 18.6777C13.1275 18.6878 13.1444 18.7061 13.1527 18.7287C13.1602 18.7513 13.1588 18.7759 13.1488 18.7975C13.1387 18.8192 13.1209 18.8362 13.0988 18.845ZM13.2974 17.8774C13.29 17.8867 13.2807 17.8945 13.2703 17.9002C13.2598 17.906 13.2484 17.9096 13.2365 17.911C13.2246 17.9123 13.2126 17.9112 13.2012 17.9079C13.1897 17.9046 13.179 17.899 13.1697 17.8916C13.1536 17.8742 13.1446 17.8514 13.1446 17.8277C13.1446 17.804 13.1536 17.7812 13.1697 17.7639C13.1858 17.7494 13.2066 17.7411 13.2283 17.7406C13.25 17.7401 13.2711 17.7473 13.2879 17.761C13.3047 17.7747 13.3161 17.794 13.3199 17.8153C13.3237 17.8367 13.3198 17.8587 13.3088 17.8774H13.2974ZM13.3683 18.6521C13.3601 18.6608 13.3502 18.6677 13.3392 18.6724C13.3283 18.6771 13.3165 18.6795 13.3045 18.6795C13.2926 18.6795 13.2807 18.6771 13.2698 18.6724C13.2588 18.6677 13.2489 18.6608 13.2407 18.6521C13.2247 18.6352 13.2158 18.6129 13.2158 18.5897C13.2158 18.5664 13.2247 18.5441 13.2407 18.5272C13.2489 18.5186 13.2588 18.5116 13.2698 18.5069C13.2807 18.5022 13.2926 18.4998 13.3045 18.4998C13.3165 18.4998 13.3283 18.5022 13.3392 18.5069C13.3502 18.5116 13.3601 18.5186 13.3683 18.5272C13.3766 18.5354 13.3831 18.5451 13.3876 18.5558C13.392 18.5666 13.3943 18.5781 13.3943 18.5897C13.3943 18.6013 13.392 18.6128 13.3876 18.6235C13.3831 18.6342 13.3766 18.6439 13.3683 18.6521ZM13.4024 18.4251C13.3909 18.423 13.3798 18.4187 13.3699 18.4124C13.36 18.4061 13.3515 18.3979 13.3448 18.3883C13.3381 18.3787 13.3333 18.3678 13.3308 18.3563C13.3282 18.3449 13.328 18.333 13.33 18.3215C13.3321 18.3099 13.3364 18.2989 13.3427 18.289C13.349 18.2791 13.3572 18.2706 13.3668 18.2639C13.3765 18.2571 13.3873 18.2524 13.3988 18.2499C13.4102 18.2473 13.4221 18.2471 13.4336 18.2491C13.4452 18.2509 13.4564 18.2549 13.4664 18.261C13.4765 18.2671 13.4852 18.2751 13.4921 18.2846C13.4989 18.2942 13.5038 18.305 13.5065 18.3164C13.5091 18.3279 13.5094 18.3397 13.5074 18.3513C13.5032 18.375 13.4898 18.3961 13.4702 18.4099C13.4505 18.4237 13.4261 18.4292 13.4024 18.4251Z" fill="#545869"/>
<path d="M13.0366 18.2719C13.029 18.314 13.005 18.3513 12.9699 18.3758C12.9348 18.4003 12.8914 18.4098 12.8493 18.4024C12.8284 18.3993 12.8083 18.392 12.7903 18.381C12.7723 18.3699 12.7567 18.3554 12.7445 18.3381C12.7323 18.3209 12.7237 18.3013 12.7193 18.2807C12.7149 18.26 12.7147 18.2387 12.7187 18.2179C12.7257 18.1759 12.749 18.1383 12.7835 18.1133C12.8181 18.0883 12.8611 18.078 12.9032 18.0846C12.9455 18.0922 12.9831 18.1161 13.008 18.1511C13.0329 18.1861 13.0432 18.2294 13.0366 18.2719Z" fill="#5E6679"/>
<path d="M12.9654 18.2605C12.9624 18.2782 12.9541 18.2946 12.9417 18.3076C12.9293 18.3206 12.9133 18.3296 12.8958 18.3335C12.8783 18.3375 12.86 18.3361 12.8432 18.3296C12.8265 18.3231 12.812 18.3118 12.8017 18.2971C12.7913 18.2824 12.7856 18.265 12.7852 18.247C12.7848 18.2291 12.7897 18.2114 12.7993 18.1962C12.8089 18.1811 12.8229 18.1691 12.8393 18.1618C12.8557 18.1546 12.874 18.1524 12.8916 18.1555C12.9153 18.1596 12.9364 18.173 12.9503 18.1927C12.9641 18.2124 12.9695 18.2368 12.9654 18.2605Z" fill="#545869"/>
<path d="M12.103 15.5053L11.7002 15.4363L10.8732 20.2696L11.2759 20.3385L12.103 15.5053Z" fill="#D65E1F"/>
<path d="M12.1188 15.4923L11.9175 15.4577L11.0879 20.2905L11.2893 20.3251L12.1188 15.4923Z" fill="#C24218"/>
<path d="M11.7768 20.8253L11.1138 20.7115L11.0453 21.1104L11.7083 21.2243L11.7768 20.8253Z" fill="#5E6679"/>
<path d="M11.4248 20.2688L11.0947 20.2125L11.0269 20.6097L11.357 20.666L11.4248 20.2688Z" fill="#545869"/>
<path d="M11.8423 17.8428L11.1821 17.73L11.1143 18.1272L11.7744 18.24L11.8423 17.8428Z" fill="#5E6679"/>
<path d="M11.8374 17.8476L11.5073 17.7912L11.4395 18.1884L11.7696 18.2448L11.8374 17.8476Z" fill="#545869"/>
<path d="M12.2549 15.4267L11.5947 15.314L11.5269 15.7112L12.187 15.8239L12.2549 15.4267Z" fill="#5E6679"/>
<path d="M12.2583 15.4201L11.9282 15.3638L11.8604 15.761L12.1905 15.8173L12.2583 15.4201Z" fill="#545869"/>
<path d="M12.7205 11.5489L12.4492 11.5023L11.7901 15.3423L12.0614 15.3889L12.7205 11.5489Z" fill="#5E6679"/>
<path d="M13.3353 7.68844L13.1562 7.65784L12.4998 11.4983L12.6788 11.5289L13.3353 7.68844Z" fill="#5E6679"/>
<path d="M13.952 3.8537L13.8457 3.83551L13.1886 7.67584L13.2949 7.69403L13.952 3.8537Z" fill="#5E6679"/>
<path d="M14.5572 0.00283768L14.5459 0L13.8677 3.83655L13.9216 3.8479L14.5572 0.00283768Z" fill="#5E6679"/>
<path d="M12.7017 11.6402L12.4321 11.5948L12.4463 11.5012L12.7187 11.5494L12.7017 11.6402Z" fill="#545869"/>
<path d="M13.3145 7.77809L13.1357 7.74687L13.1499 7.66742L13.3287 7.69863L13.3145 7.77809Z" fill="#545869"/>
<path d="M13.3166 7.76884L13.4956 7.79932L13.5047 7.74616L13.3256 7.71569L13.3166 7.76884Z" fill="#545869"/>
<path d="M13.9399 3.91199L14.0713 3.93469L14.0805 3.88156L13.949 3.85886L13.9399 3.91199Z" fill="#545869"/>
<path d="M14.5376 0.0765937L14.6199 0.0907821L14.6256 0.0567299L14.5433 0.0425415L14.5376 0.0765937Z" fill="#545869"/>
<path d="M12.7062 11.6226L12.8853 11.6531L12.8943 11.6L12.7153 11.5695L12.7062 11.6226Z" fill="#545869"/>
<path d="M13.9388 3.9359L13.8281 3.91603L13.8423 3.83374L13.953 3.85077L13.9388 3.9359Z" fill="#545869"/>
<path d="M12.69 11.067C12.4828 11.0953 12.2501 11.1351 12.2501 11.3961C12.2501 11.6572 12.2076 12.3326 12.4686 12.4007C12.7297 12.4688 12.9652 12.3184 13.144 11.9608C13.3228 11.6033 13.2802 11.1918 13.144 11.067C13.0078 10.9421 12.69 11.067 12.69 11.067Z" fill="#FED4AC"/>
<path d="M8.9045 12.1368C7.95955 12.1368 7.64456 11.9098 7.64456 11.9098C7.64456 12.0432 7.64456 12.0346 7.63037 12.1623C8.0484 12.2789 8.49148 12.27 8.9045 12.1368Z" fill="#D65E1F"/>
<path d="M12.3242 12.2333C12.3348 12.2683 12.3534 12.3004 12.3785 12.327C12.4036 12.3536 12.4346 12.374 12.4689 12.3865C12.73 12.4546 12.9655 12.3042 13.1443 11.9467C13.3231 11.5891 13.2805 11.1777 13.1443 11.0528C13.255 11.3508 13.1017 12.2418 12.3242 12.2333Z" fill="#FBBCA1"/>
<path d="M14.5688 7.72131C14.5206 6.78772 14.5688 0.13335 14.5688 0.0595703H14.5972C14.5972 0.127675 14.5461 6.78204 14.5972 7.72131H14.5688Z" fill="#545869"/>
<path d="M14.4268 8.89332C14.4045 8.89462 14.3821 8.89126 14.3611 8.88344C14.3401 8.87563 14.3209 8.86353 14.3048 8.84792C14.2621 8.79838 14.2398 8.73449 14.2424 8.66914H14.3133C14.3114 8.71502 14.3254 8.76015 14.3531 8.79684C14.3734 8.81452 14.3999 8.82367 14.4268 8.82238C14.5347 8.82238 14.5375 8.67766 14.5375 8.66914V8.38538H14.6085V8.66914C14.6085 8.7486 14.5687 8.89332 14.4268 8.89332Z" fill="#545869"/>
<path d="M14.1772 8.7486L14.2539 8.62374L14.2794 8.58118L14.3049 8.62374L14.3787 8.7486L14.2539 8.67198H14.3049L14.1772 8.7486Z" fill="#545869"/>
<path d="M14.5713 7.56244C14.6451 7.56244 15.0055 8.46199 14.5713 8.46199V7.56244Z" fill="#D65E1F"/>
<path d="M14.5715 7.56244C14.5006 7.56244 14.1374 8.46199 14.5715 8.46199V7.56244Z" fill="#D65E1F"/>
</g>
<defs>
<clipPath id="clip0_1232_6504">
<rect width="14.7815" height="25" fill="white"/>
</clipPath>
</defs>
</svg>
