<svg width="49" height="38" viewBox="0 0 49 38" fill="none" xmlns="http://www.w3.org/2000/svg">
<path d="M32.6653 0.640562C38.1075 -0.428354 43.5537 -0.428354 48.9959 2.7824V34.9099C43.5496 31.6992 38.1075 31.6992 32.6653 32.7681V0.640562Z" fill="#ED2939"/>
<path d="M16.3306 4.92422C21.7727 3.8553 27.219 1.71347 32.6653 0.640549V32.7681C27.219 33.841 21.7768 35.9828 16.3306 37.0518V4.92422Z" fill="white"/>
<path d="M0 2.78239C5.44218 5.99715 10.8884 5.99715 16.3306 4.92423V37.0518C10.8844 38.1207 5.44218 38.1207 0 34.9099V2.78239Z" fill="#002395"/>
<path style="mix-blend-mode:multiply" opacity="0.7" d="M49 34.91C32.6694 25.2737 16.3347 44.5503 0 34.91V2.78245C16.3306 12.4227 32.6653 -6.85381 49 2.78245V34.91Z" fill="url(#paint0_linear_1129_94631)"/>
<defs>
<linearGradient id="paint0_linear_1129_94631" x1="0" y1="18.8482" x2="49" y2="18.8482" gradientUnits="userSpaceOnUse">
<stop stop-opacity="0.3"/>
<stop offset="0.25" stop-opacity="0"/>
<stop offset="0.5" stop-opacity="0.15"/>
<stop offset="1" stop-opacity="0"/>
</linearGradient>
</defs>
</svg>
