<svg width="24" height="24" viewBox="0 0 24 24" fill="none" xmlns="http://www.w3.org/2000/svg">
<path d="M19.7118 20.4089C18.1952 21.9778 16.2628 23.0461 14.1591 23.479C12.0554 23.9118 9.87492 23.6896 7.89331 22.8405C5.91171 21.9914 4.218 20.5535 3.02638 18.7087C1.83476 16.8638 1.19873 14.6949 1.19873 12.4762C1.19873 10.2574 1.83476 8.08847 3.02638 6.24363C4.218 4.39879 5.91171 2.96091 7.89331 2.11181C9.87492 1.2627 12.0554 1.04052 14.1591 1.47334C16.2628 1.90616 18.1952 2.97456 19.7118 4.54342C20.7191 5.58506 21.5181 6.82175 22.0632 8.18287C22.6084 9.54398 22.8889 11.0029 22.8889 12.4762C22.8889 13.9495 22.6084 15.4083 22.0632 16.7694C21.5181 18.1306 20.7191 19.3673 19.7118 20.4089Z" fill="#E6E6E6"/>
<path d="M17.1436 18.1254C16.0969 19.2074 14.7636 19.9442 13.3121 20.2425C11.8607 20.5408 10.3564 20.3872 8.98935 19.8012C7.6223 19.2152 6.4539 18.2231 5.63187 16.9502C4.80985 15.6774 4.37109 14.181 4.37109 12.6503C4.37109 11.1195 4.80985 9.62315 5.63187 8.35031C6.4539 7.07748 7.6223 6.08534 8.98935 5.49934C10.3564 4.91333 11.8607 4.75977 13.3121 5.05806C14.7636 5.35635 16.0969 6.09311 17.1436 7.17518C17.8389 7.89402 18.3905 8.74755 18.7668 9.68699C19.1432 10.6264 19.3369 11.6334 19.3369 12.6503C19.3369 13.6672 19.1432 14.6741 18.7668 15.6136C18.3905 16.553 17.8389 17.4065 17.1436 18.1254Z" fill="#EDF0E8"/>
<path opacity="0.6" d="M3.75342 4.60703C3.75342 4.60703 7.85297 2.08581 12.2786 1.96555C15.9278 1.86603 18.9183 4.4536 20.2959 6.78269C23.4641 12.1458 21.0162 17.3597 21.0162 17.3597C21.0162 17.3597 23.0806 9.86096 14.967 4.84616C12.3681 3.2386 8.60125 1.67804 3.75342 4.60703Z" fill="white"/>
<path opacity="0.3" d="M2.43457 4.9028C2.43457 4.9028 7.80086 0.790607 13.258 1.20528C17.7531 1.55084 20.7596 5.03964 21.854 8.01839C24.3661 14.8702 20.0394 20.8332 20.0394 20.8332C20.0394 20.8332 24.4823 12.0739 15.8142 5.00923C13.0389 2.74649 9.11571 1.99455 2.43457 4.9028Z" fill="white"/>
<path opacity="0.3" d="M0 7.42541C0 7.42541 7.94521 -0.393977 13.3984 0.0234624C17.8934 0.367643 22.4393 5.41424 23.5323 8.38884C26.0498 15.242 17.6075 23.3531 17.6075 23.3531C17.6075 23.3531 22.0451 14.5965 13.3823 7.53184C10.6056 5.26219 6.68649 4.51163 0 7.42541Z" fill="white"/>
<path d="M6.91753 16.475C4.74749 13.0415 4.92655 11.0441 5.751 8.16211C4.9159 9.37539 4.43692 10.8121 4.3715 12.3C4.30608 13.7879 4.65701 15.2637 5.38219 16.5504C6.10737 17.837 7.17601 18.88 8.45991 19.5541C9.74382 20.2282 11.1885 20.5048 12.6205 20.3508C13.6508 20.0467 14.7505 19.6597 15.6939 19.2989C15.9298 19.1537 16.1573 18.9945 16.3754 18.822C13.9782 19.5657 8.97131 19.7274 6.91753 16.475Z" fill="#E5E8E0"/>
<path d="M19.521 3.87991C14.8361 -0.552959 7.33722 0.183778 3.35259 5.19996C-0.388855 9.92034 0.252533 16.9933 4.56187 21.0723C8.91931 25.1956 15.7862 24.8818 19.9445 20.6577C24.3995 15.9649 24.2151 8.31832 19.521 3.87991ZM10.5856 23.2466C7.30649 22.7891 4.43894 20.6687 2.82745 17.701C1.24803 14.7886 1.14247 11.1671 2.41188 8.11927C3.72406 4.97189 6.48337 2.67459 9.68364 1.8798C14.2375 0.74912 19.0038 3.0713 21.2701 7.25122C23.5363 11.4311 22.6958 16.7791 19.4809 20.1642C18.3241 21.3464 16.9209 22.2389 15.379 22.7732C13.8371 23.3075 12.1974 23.4694 10.5856 23.2466Z" fill="white"/>
<g style="mix-blend-mode:multiply" opacity="0.5">
<path d="M12.7113 20.3288C12.6713 19.9141 12.1087 19.5934 11.7506 19.4814C11.6958 19.4648 11.64 19.4519 11.5836 19.4427C11.8187 19.0281 11.9844 18.6134 12.0045 18.366C12.0285 17.9845 11.7372 17.6112 11.3163 17.3154C11.7787 16.5082 11.5836 15.6194 11.0491 14.8191C10.7818 14.4307 10.5453 14.1059 10.1431 13.9248C10.3614 13.8288 10.5388 13.6546 10.6429 13.4341C10.7083 13.3137 10.7382 13.1761 10.7289 13.0383C10.7197 12.9005 10.6716 12.7685 10.5907 12.6587C10.733 12.468 10.8058 12.2317 10.7965 11.991C10.7484 11.4741 10.0549 11.0843 9.61397 10.9474C9.53127 10.9224 9.44685 10.9039 9.36143 10.8921C9.48228 10.6638 9.56367 10.4154 9.60195 10.1582C9.63134 9.7034 9.20108 9.25832 8.65857 8.94455C8.8443 8.39165 8.7187 7.80143 8.40468 7.23609C8.15748 6.79377 7.92899 6.43991 7.38915 6.29616C7.03247 6.20894 6.66334 6.1902 6.30012 6.24087L6.13711 5.68797L5.60261 4.50476L5.80438 5.7944L5.95537 6.30445C5.48368 6.42332 5.05743 6.65692 4.81691 7.01355C4.31583 7.75443 4.54966 8.8699 5.24851 9.48501C5.38067 9.60039 5.52554 9.69921 5.68011 9.77943C5.64537 9.83195 5.6133 9.88309 5.58257 9.93286C5.27791 10.4194 5.09484 10.6475 5.57054 11.0691C5.7683 11.2446 6.03555 11.4837 6.33085 11.7104C5.95671 11.9675 5.52912 12.4942 5.50774 12.9627C5.47166 13.6331 6.05159 13.6857 6.56069 13.7064C6.56069 13.7202 6.56069 13.7354 6.56069 13.7506C6.49521 14.3118 6.69431 14.5205 7.00832 14.562C6.90475 14.6664 6.8149 14.7845 6.74108 14.9131C6.20658 15.8434 6.60746 17.1468 7.49605 17.8089C7.65948 17.9281 7.83514 18.0282 8.01985 18.1075C8.01183 18.1185 8.00515 18.1296 7.99847 18.1407C7.69381 18.6272 7.51074 18.8553 7.98644 19.2769C8.31835 19.5876 8.66868 19.8766 9.03539 20.1422C8.74542 20.3619 8.43676 20.7628 8.41805 21.1222C8.39533 21.552 8.68529 21.6682 9.014 21.7069C9.014 21.7165 9.014 21.7262 9.014 21.7373C8.9365 22.8127 9.99479 22.257 10.544 22.0759C10.5707 22.0665 10.5979 22.0586 10.6255 22.0524L11.0651 23.5798L11.3978 23.4748L10.9689 21.9833C11.4927 21.9004 12.1034 21.8451 12.3172 21.3254C12.3508 21.2463 12.3699 21.1615 12.3733 21.0752C12.4793 20.9842 12.5646 20.8701 12.623 20.7411C12.6814 20.612 12.7116 20.4712 12.7113 20.3288Z" fill="#A6A6A6"/>
</g>
<g style="mix-blend-mode:multiply" opacity="0.5">
<path d="M17.0304 17.5919C16.6215 17.3721 16.1431 17.5269 15.7302 17.6389L15.6848 17.6514C15.8035 17.489 15.8853 17.301 15.9241 17.1014C15.963 16.9019 15.9579 16.6958 15.9093 16.4986C15.8363 16.2243 15.6838 15.9798 15.4724 15.7979C15.2609 15.616 15.0007 15.5055 14.7267 15.4812C14.9672 15.3582 15.2011 15.2255 15.4429 15.1135C15.6848 15.0016 15.9935 14.8827 16.111 14.674C16.2447 14.4307 15.9868 14.4114 15.9347 14.2192C15.8826 14.0271 16.0376 13.8557 16.0376 13.6746C16.0205 13.4741 15.9713 13.2779 15.8919 13.0941C15.7409 12.6794 15.4242 12.5647 14.9338 12.3573C14.6212 12.2191 14.3713 12.0367 13.9985 12.0132C14.7053 11.774 15.3694 11.4077 15.0875 10.9074C14.918 10.8641 14.7456 10.8341 14.5717 10.8175C14.8804 10.5203 14.9726 10.0808 14.4809 9.83334C14.1521 9.67024 13.7686 9.76976 13.4266 9.86375C13.6151 9.70213 13.7558 9.48877 13.8323 9.24817C13.9089 9.00757 13.9183 8.7495 13.8595 8.50362C13.7811 8.21564 13.6136 7.96221 13.3826 7.78219C13.1516 7.60217 12.8699 7.50551 12.5807 7.50702L12.5353 7.31903C13.4613 7.04258 14.7481 6.73572 14.3125 5.91467C14.2216 5.74327 14.1548 5.4447 13.9864 5.31615C13.7593 5.14475 13.6003 5.22078 13.5148 4.99685C13.4292 4.77293 13.6083 4.58218 13.3638 4.38866C13.178 4.24214 12.7999 4.16336 12.5086 4.1675C12.2669 4.1747 12.0261 4.20104 11.7884 4.24629L11.4129 2.70232L10.8891 1.36707L11.0401 2.79908L11.4129 4.32784C10.2798 4.60429 8.9796 5.18207 9.63301 5.86214C9.73541 5.96112 9.83055 6.06785 9.91763 6.18144C9.96173 6.24502 10.0018 6.39569 10.0379 6.45789C10.086 6.54635 10.2584 6.53806 10.2904 6.61961C10.3586 6.79101 10.1341 7.05641 10.229 7.27895C10.2753 7.39573 10.348 7.49934 10.441 7.58111C10.534 7.66287 10.6446 7.72041 10.7635 7.74891C11.179 7.83599 11.7202 7.59963 12.1665 7.43652L12.1946 7.55263C11.8461 7.635 11.5434 7.85717 11.3533 8.17029C11.1631 8.48341 11.1009 8.86185 11.1804 9.22239C11.2435 9.46318 11.3699 9.68113 11.5457 9.85196C11.7215 10.0228 11.9396 10.1398 12.1759 10.19L12.0583 10.2328C11.7389 10.3586 11.1804 10.4305 10.9332 10.689C10.6659 10.9654 10.9091 11.3663 11.2004 11.4962C11.5839 11.669 11.93 11.3732 12.2801 11.2778L12.3242 11.2681C12.0048 11.481 11.6561 11.8058 11.608 12.0781C11.4864 12.7278 12.2413 12.4596 12.6502 12.3615C12.4443 12.4506 12.2454 12.5565 12.0556 12.678L11.5959 13.0609C11.0975 13.4756 11.5104 13.4852 11.5572 13.846C11.5746 13.9759 11.4463 14.11 11.4169 14.2441C11.3741 14.4404 11.4543 14.5067 11.5291 14.6795C11.8391 15.408 12.3589 15.983 13.6016 15.8434C13.408 16.0092 13.2636 16.2282 13.1849 16.4751C13.1061 16.7221 13.0964 16.987 13.1566 17.2394C13.2087 17.4406 13.3046 17.6267 13.4371 17.7834C13.5696 17.9402 13.7352 18.0633 13.921 18.1434C13.5896 18.236 13.2141 18.3369 13.0177 18.5581C12.713 18.8926 13.0016 19.3667 13.3357 19.5257C13.6417 19.6736 13.9236 19.5492 14.2002 19.4234C13.9504 19.6487 13.7072 19.9763 13.6845 20.2597C13.6203 21.0572 14.3526 20.7296 14.7013 20.6647C14.8189 20.6439 15.0661 20.6011 15.3521 20.5264L15.9226 22.926L16.2954 22.8293L15.7222 20.4186C16.381 20.1975 17.0384 19.8118 16.7297 19.1594C16.691 19.1428 16.6509 19.1304 16.6108 19.1165C16.8115 19.0436 16.994 18.9256 17.1453 18.771C17.4954 18.4185 17.6009 17.896 17.0304 17.5919Z" fill="#A6A6A6"/>
</g>
<path d="M12.9694 23.3876L12.6461 23.5189L5.80458 5.43907L5.50928 4.17017L6.12795 5.30776L12.9694 23.3876Z" fill="#8C3C23"/>
<path d="M5.51984 9.16426C4.78224 8.60445 4.46422 7.50556 4.90918 6.73427C5.34212 5.97818 6.56343 5.65888 7.42129 5.81646C7.97048 5.91736 8.22302 6.25186 8.5023 6.67345C8.99536 7.42263 9.133 8.26027 8.56109 8.9901C7.88897 9.84986 6.37904 9.8153 5.51984 9.16426Z" fill="#8E3A02"/>
<path opacity="0.3" d="M5.65912 8.69568C5.57494 7.94236 4.69169 7.4406 5.49076 6.7163C5.91835 6.32789 7.06751 5.84272 7.62872 6.2104C7.92537 6.4053 8.11244 6.79233 8.2327 7.09366C8.28882 7.23188 8.4171 7.52492 8.40507 7.6742C8.38236 7.97553 8.33158 7.86495 8.12981 7.81243C7.79976 7.71982 7.49109 7.32726 7.16104 7.57468C6.93923 7.73917 6.91652 8.10823 6.68 8.2658C6.215 7.72258 5.93973 8.2036 5.89296 8.69292L5.65912 8.69568Z" fill="white"/>
<path d="M9.90932 9.49881C9.90932 10.0835 9.14366 11.6676 8.57309 11.8597C7.78071 12.1251 6.56875 11.1852 5.95943 10.7235C5.45433 10.3392 5.62002 10.0973 5.8886 9.58866C6.13981 9.10902 6.53267 8.43171 7.00436 8.14835C7.71256 7.71709 9.9013 8.49668 9.90932 9.49881Z" fill="#F4CC8C"/>
<path opacity="0.3" d="M6.4431 10.3502C6.87337 10.2563 7.15798 9.78076 7.66976 10.1553C7.88356 10.3102 7.82076 10.6571 8.084 10.3599C8.25904 10.1609 8.06662 9.80702 8.32452 9.65359C8.54232 9.52366 8.78952 9.84849 8.99263 9.69921C9.19574 9.54992 9.07146 9.1781 8.95655 9.04402C8.704 8.7496 7.63636 8.47315 7.27958 8.62935C6.82927 8.82286 6.38832 9.8706 6.4431 10.3502Z" fill="white"/>
<path d="M10.5481 12.4319C9.62343 12.87 8.35001 13.2308 7.34116 13.2612C6.79998 13.2778 6.04903 13.3718 6.03433 12.6102C6.02498 12.114 6.45791 11.5154 6.82805 11.2487C7.57901 10.7082 9.0355 10.0613 9.98154 10.2811C10.4319 10.3834 11.1521 10.7179 11.2376 11.2293C11.3124 11.6841 10.9369 12.2467 10.5481 12.4319Z" fill="#FFE000"/>
<path opacity="0.3" d="M6.32178 11.9412C6.426 11.9522 6.98989 11.3703 7.18765 11.239C7.5531 10.9743 7.95611 10.7701 8.38224 10.6336C8.77108 10.5257 9.19199 10.3765 9.5942 10.487C9.83071 10.5534 10.4507 10.7455 10.0686 11.0026C9.86946 11.1408 9.1666 11.0026 8.89936 11.0538C8.49849 11.1298 8.05487 11.2321 7.74085 11.5044C7.49766 11.7145 7.32662 12.02 7.12218 12.2757C6.98855 12.4457 6.18681 12.9986 6.39794 12.3724L6.32178 11.9412Z" fill="white"/>
<path d="M7.13264 13.3151C7.07652 14.6435 8.36063 13.9164 9.02875 13.6731C9.69686 13.4299 10.8701 13.5211 11.1868 12.6793C11.454 11.9508 10.7779 11.5541 10.1766 11.5113C9.23052 11.4449 7.18475 12.0835 7.13264 13.3151Z" fill="#FF7006"/>
<path opacity="0.3" d="M7.4082 13.1438C7.54183 12.5301 9.74126 11.1686 10.0994 11.9703C9.23884 12.3933 8.31684 12.5882 7.69416 13.3415L7.4082 13.1438Z" fill="white"/>
<path d="M8.35541 17.2905C7.42005 16.6989 6.93232 15.43 7.39199 14.4611C7.83829 13.5184 9.2734 13.0166 10.3157 13.1175C10.9838 13.1811 11.3205 13.5529 11.6933 14.0284C12.3614 14.8688 12.6006 15.8516 11.9833 16.7777C11.2537 17.8669 9.44577 17.9775 8.35541 17.2905Z" fill="#8E3A02"/>
<path opacity="0.3" d="M8.37133 16.6533C8.54103 16.6215 8.04262 16.1211 7.95577 15.9622C7.77555 15.6442 7.70401 15.2727 7.75266 14.9075C7.85555 14.1666 8.39405 13.8017 9.10358 13.5709C9.81312 13.34 10.3316 13.1299 10.9128 13.6524C11.3925 14.0837 11.8014 14.714 11.7801 15.3498C11.3792 15.6525 10.9663 14.9849 10.5774 14.8854C10.043 14.7472 9.93606 15.1093 9.86657 15.5254C9.74364 16.2704 9.58864 15.6166 9.12497 15.7037C8.63591 15.7949 8.90583 16.5109 8.73345 16.8095L8.37133 16.6533Z" fill="white"/>
<path d="M12.9039 17.4909C12.9039 18.077 12.1383 19.6596 11.5677 19.8518C10.7753 20.1172 9.56337 19.1772 8.95405 18.7156C8.44896 18.3313 8.61466 18.0908 8.88324 17.5807C9.13578 17.1025 9.5273 16.4238 9.99898 16.1404C10.7072 15.7188 12.8959 16.4929 12.9039 17.4909Z" fill="#F4CC8C"/>
<path opacity="0.3" d="M9.43487 18.3452C9.86514 18.2512 10.1498 17.7757 10.6615 18.1503C10.8753 18.3065 10.8139 18.6521 11.0758 18.3549C11.2508 18.1572 11.0584 17.802 11.3163 17.6485C11.5354 17.52 11.7813 17.8434 11.9844 17.6955C12.1875 17.5476 12.0632 17.1744 11.9483 17.039C11.6958 16.7446 10.6281 16.4695 10.2714 16.6243C9.82371 16.8247 9.38276 17.8669 9.43487 18.3452Z" fill="white"/>
<path d="M13.1952 20.3688C12.3725 20.7573 11.488 20.9864 10.5855 21.0448C10.1446 21.0572 9.53658 21.1346 9.52455 20.5154C9.51653 20.1131 9.86662 19.628 10.1673 19.4096C10.7779 18.9714 11.9592 18.442 12.7275 18.6217C13.0936 18.706 13.6775 18.9769 13.747 19.3916C13.8152 19.7634 13.5105 20.2196 13.1952 20.3688Z" fill="#FFE000"/>
<path opacity="0.3" d="M9.96973 20.0536C9.99111 19.8186 10.3706 19.5671 10.5283 19.4095C10.766 19.2071 11.0324 19.0434 11.318 18.9243C11.6186 18.7861 12.6115 18.67 12.7424 19.0626C12.3295 19.2962 11.791 19.2547 11.3287 19.4772C11.1496 19.5615 10.9118 19.6721 10.714 19.7716C10.4802 19.8891 10.3586 20.1062 10.1528 20.2306L9.96973 20.0536Z" fill="white"/>
<path d="M10.166 21.0834C10.166 22.1616 11.1816 21.5244 11.716 21.3005C12.2505 21.0765 13.2033 21.1097 13.4304 20.4186C13.6255 19.8173 13.0589 19.5215 12.5699 19.5104C11.8016 19.4869 10.1647 20.0827 10.166 21.0834Z" fill="#FF7006"/>
<path opacity="0.3" d="M11.6358 19.9237C11.9271 19.7758 12.9961 19.3901 13.0629 20.0011C12.6367 20.2278 12.1623 20.395 11.716 20.5858C11.4287 20.7088 10.659 21.5105 10.5468 20.9327C10.4519 20.4337 11.3138 20.0868 11.6358 19.9237Z" fill="white"/>
<g style="mix-blend-mode:multiply" opacity="0.5">
<path d="M15.4133 11.3676C15.5242 11.3994 15.5108 11.4671 15.599 11.5197C16.3246 11.9578 15.7914 10.7194 16.4008 10.6627C16.5037 10.8921 16.4649 11.2156 16.525 11.4782C16.6199 11.8929 16.6333 11.868 17.0221 11.7671C17.1116 11.9606 17.6087 12.2771 17.7089 11.9053C17.7677 11.6925 17.3375 11.369 17.3201 11.1437C17.5205 11.1174 17.6876 11.1009 17.7544 10.8673C17.5905 10.7477 17.3984 10.6761 17.1985 10.6599C16.9647 10.6433 16.7976 10.7041 16.7642 10.3835C17.0528 10.183 17.3361 10.501 17.5833 10.2231C17.57 10.1844 17.57 10.1347 17.5579 10.096L17.7704 9.89968C17.737 9.64258 17.4056 9.62323 17.2212 9.69096C17.1103 9.54444 17.2813 9.41451 17.2052 9.25279C17.1531 9.14774 16.8698 9.03163 16.7535 9.01919C16.6472 9.01177 16.5414 9.03951 16.4513 9.09839C16.3612 9.15728 16.2916 9.24426 16.2524 9.34678C16.2526 9.31467 16.2443 9.28311 16.2284 9.25555C16.1736 9.16156 16.0467 9.23344 15.9905 9.17123C15.9117 9.08553 15.9571 9.03301 15.9077 8.94178C15.5068 8.17878 15.3425 9.52371 14.7933 9.24726C14.82 8.9943 15.0151 8.73721 15.0939 8.48149C15.2195 8.07926 15.1968 8.09031 14.8133 7.97006C14.8334 7.75443 14.5661 7.2195 14.2962 7.47936C14.1385 7.63141 14.3456 8.13869 14.2481 8.3405C14.0637 8.25618 13.9114 8.18154 13.7363 8.34741C13.8173 8.53712 13.9461 8.70086 14.1091 8.82153C14.3002 8.95975 14.4779 8.99983 14.339 9.29564C13.9915 9.31222 13.9087 8.88926 13.5586 8.99431C13.5506 9.03439 13.5252 9.07724 13.5172 9.11733L13.2366 9.17123C13.1364 9.41036 13.413 9.59835 13.6014 9.64396C13.6241 9.8278 13.4089 9.85407 13.3969 10.0268C13.3969 10.1443 13.5746 10.3945 13.6642 10.4678C13.9929 10.7221 14.379 10.4166 14.5995 10.1471C14.82 9.87756 14.7866 9.97847 15.0859 10.107C15.1667 10.1416 15.2498 10.1702 15.3345 10.1927C15.1921 10.2514 15.0728 10.3574 14.9951 10.494C14.9042 10.6599 14.82 10.9626 15.1086 10.9295C15.1086 11.0566 14.9977 11.3275 15.1701 11.4229C15.2623 11.4741 15.3345 11.3441 15.4133 11.3676ZM16.1763 9.51956C16.1509 9.5995 16.1312 9.68128 16.1175 9.76422C16.0929 9.73862 16.0639 9.718 16.032 9.7034C16.064 9.65364 16.1242 9.59005 16.1763 9.51956Z" fill="#A6A6A6"/>
<path d="M18.3358 14.8799C18.1381 14.7914 17.772 15.1909 17.5541 15.1798C17.5606 15.0817 17.5511 14.9831 17.5261 14.8882C17.6872 14.9208 17.8543 14.8949 17.9991 14.8149C18.1595 14.7209 18.3839 14.5067 18.1207 14.3809C18.1835 14.2717 18.4147 14.1044 18.3145 13.9247C18.261 13.8307 18.1341 13.904 18.0766 13.8418C17.9991 13.7547 18.0432 13.7036 17.9951 13.611C17.5942 12.8493 17.4299 14.1943 16.8807 13.9164C16.9061 13.6649 17.1025 13.4078 17.1813 13.1507C17.3056 12.7484 17.2842 12.7609 16.9007 12.6392C16.9208 12.425 16.6535 11.8887 16.3836 12.1499C16.2259 12.302 16.433 12.8093 16.3342 13.0111C16.1498 12.9268 15.9988 12.8507 15.8237 13.0111C15.9046 13.2008 16.0328 13.3649 16.1952 13.4866C16.3876 13.6248 16.564 13.6649 16.4264 13.9607C16.0789 13.9773 15.9948 13.5543 15.646 13.6593C15.638 13.6994 15.6126 13.7409 15.6046 13.781L15.324 13.8363C15.2238 14.074 15.5004 14.262 15.6888 14.3076C15.7115 14.4928 15.4963 14.5191 15.4843 14.6919C15.5134 14.8343 15.5833 14.9643 15.6848 15.0651C15.5675 15.178 15.4813 15.3211 15.4349 15.4798C15.3413 15.8944 15.7676 16.135 16.0936 16.2359C16.4197 16.3368 16.3181 16.3437 16.3248 16.6796C16.3248 16.9823 16.3849 17.2905 16.6255 17.4757C16.7725 17.5905 17.0517 17.7162 17.0584 17.4163C17.18 17.4315 17.4245 17.5822 17.5394 17.4163C17.6009 17.3278 17.486 17.2366 17.5181 17.1578C17.5635 17.0486 17.6263 17.0707 17.6878 16.9878C18.2022 16.2967 16.9462 16.6851 16.9702 16.0534C17.2041 15.9774 17.5047 16.0534 17.772 16.0313C18.1728 15.9884 18.1581 15.9718 18.1127 15.5599C18.3078 15.4991 18.6752 15.0278 18.3358 14.8799ZM17.1747 14.779C17.2017 14.7915 17.2294 14.8025 17.2575 14.8121C17.1652 14.9387 17.1018 15.0852 17.0718 15.2406C17.025 15.4784 17.0624 15.6553 16.7444 15.6553C16.5934 15.336 16.9221 15.09 16.7056 14.8038C16.9007 14.5647 16.8834 14.6546 17.1747 14.779Z" fill="#A6A6A6"/>
</g>
<path d="M17.6678 8.69433C17.744 8.84914 17.5729 8.98599 17.6838 9.1325C17.8682 9.0703 18.1996 9.08413 18.233 9.34122L18.0206 9.5375C18.0326 9.57621 18.0326 9.62597 18.046 9.66467C17.7988 9.94112 17.5115 9.62458 17.2268 9.82501C17.2562 10.1512 17.4273 10.0904 17.6611 10.1015C17.8611 10.1176 18.0531 10.1893 18.217 10.3088C18.1502 10.5452 17.9831 10.5618 17.7827 10.5852C17.8001 10.8106 18.2304 11.1381 18.1716 11.3469C18.0713 11.7159 17.5743 11.3994 17.4847 11.2086C17.0959 11.3095 17.0839 11.3317 16.9877 10.9198C16.9275 10.6585 16.9663 10.3337 16.8634 10.1042C16.2541 10.1609 16.7872 11.3994 16.0616 10.9612C15.9735 10.9087 15.9868 10.841 15.8759 10.8092C15.7971 10.7857 15.7236 10.9156 15.6314 10.8645C15.459 10.7691 15.5699 10.4982 15.5699 10.371C15.2813 10.4042 15.3655 10.1015 15.4563 9.93559C15.6033 9.65914 15.892 9.5693 16.1806 9.52092C16.5013 9.46977 16.524 9.56377 16.5814 9.22512C16.6389 8.88646 16.8126 8.4082 17.2202 8.45105C17.3364 8.46349 17.621 8.5796 17.6718 8.68466L17.6678 8.69433Z" fill="#6FA800"/>
<path d="M17.2158 8.65417C17.2893 8.86013 17.1156 9.09235 17.2051 9.30798C17.3508 9.25269 17.6367 9.18772 17.6648 9.39644C17.4269 9.50702 17.0047 9.75583 16.7695 9.77241C16.7949 9.77518 16.9018 8.73158 17.2158 8.65417Z" fill="#9EC624"/>
<path d="M17.1235 10.1111C17.2745 10.2189 17.5672 10.3115 17.5605 10.5119C17.4268 10.5202 17.3681 10.4083 17.2411 10.4331C17.2414 10.5751 17.2672 10.7157 17.3173 10.8478C17.3091 10.8594 17.2976 10.8682 17.2845 10.8729C17.2714 10.8776 17.2572 10.878 17.2438 10.8741C17.1235 10.5976 17.0407 10.3018 16.9458 10.0171L17.1235 10.1111Z" fill="#9EC624"/>
<path d="M16.4408 9.84717C16.2818 9.89555 15.8515 9.89278 15.8408 10.107C16.3419 9.83887 15.941 10.4194 16.0586 10.5922C16.2016 10.5715 16.3593 10.0282 16.5009 9.87758L16.4408 9.84717Z" fill="#9EC624"/>
<path d="M13.8632 9.46704C13.8753 9.29425 14.0904 9.26799 14.0677 9.08415C13.8793 9.03854 13.6027 8.85055 13.7029 8.61142L13.9835 8.55752C13.9915 8.51743 14.0169 8.47458 14.0249 8.43449C14.375 8.32944 14.4579 8.75241 14.8053 8.73582C14.9389 8.44002 14.7665 8.40132 14.5754 8.26171C14.4124 8.14105 14.2836 7.97731 14.2026 7.7876C14.3777 7.62173 14.53 7.69637 14.7144 7.78069C14.812 7.57888 14.6048 7.0716 14.7625 6.91955C15.0298 6.65969 15.297 7.196 15.2796 7.41025C15.6631 7.5305 15.6805 7.51944 15.5602 7.92168C15.4814 8.1774 15.2863 8.4345 15.2596 8.68745C15.8088 8.9639 15.9718 7.61897 16.374 8.38197C16.4234 8.47458 16.374 8.52019 16.4569 8.61142C16.513 8.67362 16.6399 8.60175 16.6947 8.69574C16.7936 8.8699 16.5611 9.0413 16.4996 9.1505C16.7669 9.27628 16.5397 9.49053 16.3793 9.58453C16.1121 9.73796 15.8235 9.6647 15.5536 9.54997C15.2542 9.42142 15.2863 9.32881 15.0672 9.59006C14.848 9.8513 14.4619 10.1651 14.1318 9.91074C14.0396 9.83748 13.8552 9.58729 13.8646 9.4698L13.8632 9.46704Z" fill="#6FA800"/>
<path d="M14.2347 9.74618C14.2734 9.53055 14.5393 9.42411 14.5701 9.19328C14.4177 9.16287 14.1411 9.06473 14.2213 8.87122C14.4792 8.90439 14.9656 8.91683 15.1754 9.02879C15.1527 9.01635 14.542 9.84846 14.2347 9.74618Z" fill="#9EC624"/>
<path d="M15.0417 8.54782C14.9669 8.37504 14.7625 8.13314 14.868 7.9728C14.9856 8.03639 14.9803 8.16355 15.1019 8.21055C15.1737 8.08774 15.223 7.95233 15.2475 7.81108C15.26 7.80468 15.2742 7.80284 15.2877 7.80585C15.3013 7.80887 15.3135 7.81656 15.3224 7.82767C15.2903 8.12347 15.2101 8.4248 15.15 8.71922L15.0417 8.54782Z" fill="#9EC624"/>
<path d="M15.4936 9.13935C15.6539 9.18358 16.0214 9.4158 16.1377 9.23749C15.5751 9.20017 16.2085 8.91819 16.1938 8.70671C16.0602 8.64727 15.6593 9.02877 15.4575 9.08268L15.4936 9.13935Z" fill="#9EC624"/>
<path d="M16.1871 14.4984C16.3448 14.4403 16.4544 14.6366 16.608 14.5385C16.5733 14.3408 16.6281 14.0035 16.8753 14.0035C16.9314 14.0851 16.9822 14.1639 17.037 14.2468C17.0757 14.2385 17.1238 14.2468 17.1612 14.2371C17.3951 14.526 17.0543 14.7748 17.208 15.0983C17.526 15.1093 17.4886 14.9255 17.5354 14.6836C17.5769 14.4814 17.6691 14.2941 17.8026 14.1404C18.0204 14.2399 18.0138 14.4168 18.0138 14.6228C18.2316 14.6338 18.5977 14.2344 18.7954 14.3228C19.1349 14.4749 18.7674 14.9421 18.5696 15.014C18.6151 15.4286 18.6351 15.4425 18.2289 15.4853C17.9697 15.513 17.6637 15.4314 17.4272 15.5074C17.4031 16.1391 18.6592 15.7535 18.1447 16.4418C18.0832 16.5248 18.0204 16.5026 17.975 16.6118C17.9429 16.6906 18.0579 16.7819 17.9964 16.8703C17.8815 17.0348 17.6369 16.8841 17.5153 16.8703C17.5087 17.1703 17.2294 17.0445 17.0824 16.9298C16.8419 16.7445 16.7884 16.4363 16.7818 16.1336C16.7751 15.7977 16.8686 15.788 16.5506 15.6899C16.2326 15.5917 15.7983 15.3471 15.8918 14.9338C15.9186 14.8163 16.0669 14.5412 16.1738 14.4998L16.1871 14.4984Z" fill="#6FA800"/>
<path d="M16.0884 14.9614C16.2955 14.913 16.4959 15.1218 16.7137 15.0582C16.679 14.9006 16.6549 14.5993 16.8594 14.5979C16.9329 14.8564 17.1173 15.3208 17.1026 15.5655C17.1039 15.5378 16.1218 15.2946 16.0884 14.9614Z" fill="#9EC624"/>
<path d="M17.474 15.2462C17.5969 15.108 17.7238 14.8164 17.9136 14.8495C17.9042 14.9878 17.7893 15.0334 17.7973 15.1675C17.9347 15.1857 18.0742 15.1778 18.2089 15.144C18.2195 15.1534 18.2269 15.1663 18.2298 15.1805C18.2327 15.1948 18.231 15.2096 18.2249 15.2227C17.9497 15.3112 17.6503 15.361 17.3657 15.4176L17.474 15.2462Z" fill="#9EC624"/>
<path d="M17.1333 15.9111C17.1574 16.0811 17.0986 16.5234 17.3043 16.5607C17.1119 16.0078 17.6157 16.4999 17.7974 16.4018C17.7974 16.2511 17.295 16.0189 17.1694 15.8489L17.1333 15.9111Z" fill="#9EC624"/>
<path d="M15.9521 14.1445C15.9641 13.9717 16.1793 13.9455 16.1565 13.7603C15.9681 13.7146 15.6915 13.5267 15.7918 13.2889L16.0724 13.2336C16.0804 13.1935 16.1058 13.1521 16.1138 13.112C16.4625 13.0069 16.5467 13.4299 16.8941 13.4133C17.0278 13.1175 16.8554 13.0788 16.663 12.9392C16.5006 12.8176 16.3724 12.6535 16.2915 12.4637C16.4665 12.2978 16.6175 12.3739 16.8019 12.4637C16.9008 12.2619 16.6937 11.7546 16.8514 11.6026C17.1186 11.3413 17.3859 11.879 17.3685 12.0919C17.752 12.2135 17.7694 12.2011 17.6491 12.6033C17.5703 12.8604 17.3738 13.1175 17.3485 13.3691C17.8976 13.6455 18.0607 12.302 18.4629 13.0636C18.511 13.1562 18.4629 13.2018 18.5444 13.2944C18.6018 13.3566 18.7288 13.2834 18.7822 13.3774C18.8825 13.5515 18.6486 13.7243 18.5885 13.8335C18.8557 13.9593 18.6272 14.1736 18.4669 14.2675C18.1996 14.4196 17.9123 14.3477 17.6424 14.2316C17.3418 14.1031 17.3752 14.0104 17.156 14.2731C16.9369 14.5357 16.5494 14.8481 16.2207 14.5924C16.1271 14.5205 15.9427 14.2703 15.9534 14.1514L15.9521 14.1445Z" fill="#6FA800"/>
<path d="M16.3222 14.4223C16.3623 14.2081 16.6269 14.1016 16.6589 13.8694C16.5066 13.839 16.23 13.7409 16.3102 13.5474C16.5681 13.5805 17.0531 13.593 17.2642 13.7049C17.2415 13.6925 16.6295 14.526 16.3222 14.4223Z" fill="#9EC624"/>
<path d="M17.1332 13.2309C17.057 13.0581 16.8526 12.8162 16.9595 12.6545C17.0757 12.7181 17.0717 12.8466 17.1933 12.8923C17.2651 12.7696 17.3141 12.6341 17.3376 12.4928C17.3504 12.487 17.3646 12.4854 17.3783 12.4884C17.392 12.4914 17.4044 12.4987 17.4138 12.5094C17.3817 12.8066 17.3002 13.1079 17.2414 13.4023L17.1332 13.2309Z" fill="#9EC624"/>
<path d="M17.582 13.817C17.7423 13.8612 18.1098 14.0934 18.226 13.9151C17.6635 13.8764 18.2955 13.5958 18.2822 13.3843C18.1485 13.3249 17.7477 13.7064 17.5459 13.7589L17.582 13.817Z" fill="#9EC624"/>
<g style="mix-blend-mode:multiply" opacity="0.5">
<path d="M1.59947 11.5224C1.59947 11.6427 1.52999 11.6468 1.50327 11.7505C1.27745 12.6006 2.31168 11.738 2.52414 12.3407C2.33306 12.5052 2.01504 12.5494 1.78254 12.678C1.41775 12.8812 1.4418 12.8894 1.63956 13.2571C1.47788 13.3953 1.30818 13.9842 1.68366 13.9911C1.90146 13.9911 2.09522 13.4741 2.30501 13.3981C2.38117 13.5944 2.43862 13.7603 2.68182 13.7672C2.75173 13.5696 2.76972 13.3564 2.73393 13.1493C2.6885 12.9074 2.58561 12.7498 2.88894 12.6337C3.15618 12.8756 2.92635 13.2447 3.25239 13.4244C3.28579 13.4009 3.33256 13.3871 3.36596 13.3649L3.60783 13.5294C3.84301 13.4285 3.76951 13.0899 3.66395 12.9185C3.77352 12.7678 3.94723 12.9047 4.07417 12.7885C4.15969 12.707 4.19576 12.3905 4.17706 12.2702C4.15682 12.1603 4.10332 12.06 4.02428 11.9837C3.94524 11.9074 3.84478 11.8591 3.73744 11.8458C3.76774 11.8371 3.79535 11.8205 3.81761 11.7975C3.89244 11.7187 3.79089 11.6081 3.83498 11.5348C3.89645 11.4326 3.95658 11.4643 4.03141 11.3966C4.65008 10.7912 3.33256 10.975 3.45282 10.3461C3.69869 10.3074 3.98731 10.4387 4.25456 10.4525C4.66879 10.4747 4.65543 10.4525 4.66746 10.0379C4.87591 10.0033 5.31419 9.59416 4.99616 9.38682C4.81176 9.26657 4.38551 9.60798 4.1677 9.56099C4.20111 9.35227 4.23184 9.17811 4.03408 9.04403C3.87505 9.17519 3.7528 9.34795 3.67998 9.5444C3.59714 9.77662 3.60782 9.96599 3.29114 9.9024C3.18557 9.55408 3.55839 9.36056 3.37399 9.03297C3.3339 9.03297 3.28713 9.02053 3.24705 9.02191C3.20562 8.93068 3.16554 8.8436 3.12278 8.75237C2.87023 8.71229 2.76333 9.04126 2.77001 9.24445C2.60031 9.31495 2.52014 9.10623 2.35311 9.13664C2.23819 9.15875 2.04845 9.41309 2.00435 9.52367C1.84802 9.92314 2.23819 10.2355 2.55087 10.389C2.86355 10.5424 2.75932 10.5272 2.71522 10.8714C2.70406 10.9631 2.69826 11.0554 2.69785 11.1478C2.60511 11.0173 2.47225 10.9232 2.32104 10.881C2.14065 10.8327 1.83064 10.8244 1.93754 11.1091C1.81728 11.1423 1.53667 11.0994 1.4859 11.2999C1.45784 11.3952 1.60081 11.4339 1.59947 11.5224ZM3.54903 11.8154C3.46675 11.8092 3.38412 11.8092 3.30183 11.8154C3.31963 11.784 3.33143 11.7492 3.33657 11.7132C3.39136 11.7339 3.46752 11.7809 3.54903 11.8154Z" fill="#A6A6A6"/>
</g>
<path d="M4.71967 13.1189C4.58605 13.2364 4.41903 13.0982 4.30946 13.2488C4.41502 13.4202 4.4885 13.7589 4.25333 13.8598L4.01147 13.6953C3.97807 13.7188 3.9313 13.7312 3.8979 13.7547C3.57186 13.575 3.79901 13.2018 3.53444 12.9655C3.23111 13.0802 3.33534 13.2419 3.37944 13.4797C3.41523 13.6868 3.39724 13.9 3.32732 14.0975C3.0868 14.0975 3.02667 13.9248 2.95051 13.7299C2.74072 13.8059 2.54964 14.3256 2.32916 14.3215C1.95368 14.3146 2.12338 13.7299 2.28507 13.5875C2.0873 13.2198 2.06325 13.2115 2.42804 13.0097C2.66055 12.8798 2.97857 12.8355 3.16965 12.6711C2.95719 12.0684 1.92295 12.9309 2.14877 12.0808C2.17549 11.9785 2.24231 11.973 2.24498 11.8528C2.24498 11.7671 2.10334 11.727 2.12873 11.6192C2.17416 11.4187 2.46012 11.4616 2.58038 11.4284C2.47348 11.1437 2.78348 11.152 2.96387 11.2003C3.25918 11.2777 3.42487 11.5459 3.54245 11.8265C3.67608 12.1389 3.59056 12.1859 3.92462 12.1513C4.25868 12.1168 4.75843 12.1734 4.8239 12.5992C4.84261 12.7194 4.80653 13.036 4.72101 13.1175L4.71967 13.1189Z" fill="#6FA800"/>
<path d="M4.63792 12.6448C4.46287 12.7733 4.19697 12.6572 4.01658 12.8038C4.10744 12.942 4.2424 13.2101 4.05131 13.2931C3.88562 13.0802 3.53954 12.7181 3.46338 12.4831C3.4714 12.508 4.48425 12.3462 4.63792 12.6448Z" fill="#9EC624"/>
<path d="M3.23616 12.9309C3.17336 13.1106 3.16133 13.4326 2.96892 13.4769C2.92749 13.3456 3.01836 13.2557 2.9609 13.1327C2.825 13.1701 2.69685 13.2329 2.58274 13.3179C2.56938 13.3134 2.55783 13.3044 2.54986 13.2925C2.54189 13.2805 2.53795 13.2661 2.53865 13.2516C2.76448 13.0581 3.02905 12.8977 3.27224 12.7263L3.23616 12.9309Z" fill="#9EC624"/>
<path d="M3.30711 12.1693C3.22025 12.0201 3.11068 11.5819 2.90624 11.6289C3.28974 12.067 2.63899 11.8099 2.50537 11.9744C2.56283 12.1127 3.1187 12.1334 3.29775 12.2384L3.30711 12.1693Z" fill="#9EC624"/>
<path d="M2.99704 9.45597C3.16407 9.42418 3.24424 9.63428 3.41394 9.56517C3.40726 9.3606 3.51415 9.03162 3.7667 9.07171C3.80946 9.16294 3.84955 9.25002 3.89097 9.34816C3.93106 9.34816 3.97783 9.3606 4.0246 9.35922C4.21434 9.68681 3.83619 9.88171 3.94175 10.2287C4.25844 10.2922 4.24908 10.1029 4.33059 9.87203C4.40271 9.67518 4.52509 9.50225 4.68469 9.37166C4.8878 9.50988 4.85573 9.67852 4.81832 9.88723C5.03479 9.93423 5.46238 9.59282 5.64544 9.71307C5.96347 9.92041 5.52518 10.3296 5.31673 10.3655C5.30069 10.7802 5.31673 10.805 4.90517 10.7802C4.63792 10.7663 4.34662 10.635 4.10343 10.6737C3.98317 11.3027 5.30604 11.1188 4.68202 11.7242C4.60719 11.7989 4.54839 11.7657 4.48559 11.8625C4.44149 11.9357 4.54305 12.0463 4.46822 12.1251C4.3346 12.2716 4.1061 12.0822 3.98584 12.0463C3.93506 12.3463 3.6745 12.1749 3.54355 12.0366C3.33109 11.8127 3.32307 11.4948 3.36183 11.1907C3.40592 10.8534 3.49545 10.8576 3.19747 10.7083C2.89949 10.559 2.49461 10.2425 2.65095 9.84439C2.69638 9.73104 2.88479 9.47947 2.9997 9.45597H2.99704Z" fill="#6FA800"/>
<path d="M2.83541 9.90522C3.04921 9.88863 3.21891 10.1305 3.44607 10.1015C3.43538 9.93978 3.45676 9.6343 3.6612 9.66471C3.69594 9.94116 3.81086 10.4305 3.76008 10.6738C3.76008 10.6461 2.81136 10.2439 2.83541 9.90522Z" fill="#9EC624"/>
<path d="M4.17168 10.4124C4.31599 10.2922 4.48703 10.0226 4.67277 10.0862C4.64203 10.2245 4.52044 10.2507 4.50841 10.3862C4.64317 10.427 4.78408 10.4415 4.92398 10.429C4.93234 10.4409 4.93685 10.4551 4.93685 10.4698C4.93685 10.4845 4.93234 10.4987 4.92398 10.5106C4.63535 10.5548 4.32802 10.5507 4.03271 10.5673L4.17168 10.4124Z" fill="#9EC624"/>
<path d="M3.73196 11.0193C3.73196 11.1934 3.60635 11.6261 3.80545 11.698C3.69588 11.1174 4.12615 11.6869 4.32257 11.6178C4.34529 11.4671 3.8776 11.1534 3.77605 10.9681L3.73196 11.0193Z" fill="#9EC624"/>
<path d="M18.3024 22.7421L17.9389 22.8734L11.1014 2.64423L10.8262 1.23157L11.4649 2.51291L18.3024 22.7421Z" fill="#8C3C23"/>
<path d="M10.6845 6.51307C10.6444 6.43566 10.4747 6.45916 10.4173 6.37484C10.3759 6.31402 10.3224 6.16751 10.2743 6.10807C10.1777 6.00601 10.0741 5.91131 9.96431 5.82471C8.98218 4.97601 11.7201 3.96973 12.6835 3.86468C12.9722 3.83289 13.3517 3.87574 13.5534 4.0029C13.814 4.17292 13.659 4.3927 13.7565 4.59589C13.8541 4.79908 14.0131 4.72029 14.2536 4.87234C14.4327 4.9843 14.5209 5.27595 14.6304 5.43768C15.1649 6.26703 13.7164 6.69138 12.8185 7.06873C12.3575 7.26225 11.7415 7.65066 11.2564 7.59537C11.1354 7.57896 11.0199 7.53274 10.9197 7.46058C10.8195 7.38842 10.7374 7.29244 10.6805 7.18069C10.567 6.9623 10.7674 6.67755 10.6845 6.51307Z" fill="#8E3A02"/>
<path d="M12.9656 12.3905C13.4456 12.0187 13.9898 11.7452 14.569 11.5846C15.1035 11.4464 15.4109 11.6758 15.8091 11.8016C16.3155 11.9606 16.6402 12.0463 16.8273 12.4458C16.9223 12.6211 16.9883 12.8118 17.0224 13.0097C17.0384 13.1908 16.9061 13.3954 16.9676 13.5626C17.029 13.7299 17.2909 13.7437 17.1814 13.9994C17.0878 14.2178 16.7925 14.3602 16.5587 14.497C16.0322 14.8053 15.5512 15.2158 14.9191 15.3706C13.5976 15.694 13.0043 15.1536 12.6168 14.432C12.5286 14.2662 12.4431 14.2081 12.4685 14.0091C12.4872 13.8709 12.6021 13.7326 12.5741 13.5944C12.4952 13.2392 12.0837 13.2737 12.5447 12.8079L12.9656 12.3905Z" fill="#8E3A02"/>
<path d="M15.8329 10.3392C15.0194 10.2212 14.1903 10.357 13.4517 10.729C13.1217 10.8921 12.5164 11.4395 12.4723 11.8251C12.4041 12.5163 13.2179 12.1016 13.5987 11.991C14.0597 11.8486 16.3995 11.1686 15.8329 10.3392Z" fill="#FFE000"/>
<path d="M11.6798 10.505C11.9029 10.2286 12.4535 10.1014 12.7595 9.95214C13.1496 9.75448 13.5933 9.6439 14.0008 9.49185C14.3563 9.35363 14.7651 9.18499 15.138 9.33013C15.6551 9.53056 15.5949 9.97702 15.313 10.2977C14.701 11.004 13.8231 10.6916 13.0735 10.9695C12.7327 11.0966 12.4147 11.4229 12.0165 11.2874C11.7132 11.181 11.4313 10.8133 11.6798 10.505Z" fill="#512266"/>
<path d="M18.1876 18.4059C17.4735 18.1809 16.7026 18.2543 16.0402 18.6105C15.7529 18.7653 15.2385 19.3376 15.2492 19.784C15.2492 20.5844 15.9601 20.189 16.2968 20.0937C16.7097 19.9776 18.7862 19.4288 18.1876 18.4059Z" fill="#FFE000"/>
<path d="M14.4381 18.1476C14.6867 17.82 15.3107 17.6845 15.6568 17.5076C16.0964 17.2809 16.5921 17.1593 17.0598 16.9865C17.4607 16.8372 17.9243 16.6395 18.3506 16.8192C18.9452 17.0694 18.8851 17.6002 18.5711 17.9803C17.8883 18.8097 16.8821 18.4157 16.0322 18.7295C15.6474 18.8677 15.2906 19.2547 14.8296 19.0847C14.4916 18.9548 14.1629 18.5097 14.4381 18.1476Z" fill="#512266"/>
<path d="M14.4033 8.05853C14.4584 8.23233 14.4799 8.41567 14.4664 8.59805C14.453 8.78043 14.405 8.95828 14.3251 9.12144C14.2451 9.28461 14.1349 9.42987 14.0007 9.54894C13.8665 9.66801 13.7109 9.75854 13.5428 9.81537C12.8239 10.0821 12.0422 9.72829 11.8057 9.02473C11.5692 8.32116 11.9473 7.53328 12.6662 7.2665C12.9982 7.13493 13.367 7.14433 13.6924 7.29267C14.0177 7.441 14.2732 7.71626 14.4033 8.05853Z" fill="#ED1C24"/>
<path d="M17.1398 15.8336C17.3911 16.5565 16.9942 17.3651 16.2553 17.6402C15.5163 17.9153 14.7133 17.5504 14.4607 16.8247C14.2082 16.099 14.6064 15.2931 15.3453 15.0195C15.6876 14.8813 16.069 14.8894 16.4056 15.0421C16.7421 15.1948 17.0062 15.4795 17.1398 15.8336Z" fill="#ED1C24"/>
<path opacity="0.3" d="M10.5695 5.00513C10.2047 5.09497 9.82922 5.49168 10.2301 5.69625C10.7338 5.94506 11.0078 5.54697 11.0171 6.26712C11.5837 6.17313 10.9917 6.68179 11.1294 6.88498C11.247 7.055 11.8269 6.84766 12.0046 6.7979C12.4576 6.67074 13.3261 6.30306 13.5733 5.89391C14.0517 5.10326 12.6714 5.79163 12.4108 5.61746C11.7788 5.17791 13.1511 4.75079 13.1912 4.36238C12.7556 4.25733 11.3979 4.52687 11.1 4.90146L10.5695 5.00513Z" fill="white"/>
<path opacity="0.3" d="M13.4987 9.18085C13.4399 8.94863 13.4987 8.686 13.1887 8.60445C12.8787 8.5229 12.4791 8.87399 12.6542 9.17394C12.6929 9.2389 12.1932 9.12003 12.0943 8.98595C12.0223 8.86894 11.9734 8.73834 11.9505 8.60168C11.9276 8.46503 11.931 8.32504 11.9607 8.18977C12.0943 7.75298 12.6194 7.5415 13.0363 7.58159C13.977 7.67143 14.5369 8.66942 13.4987 9.18085Z" fill="white"/>
<path opacity="0.3" d="M12.062 10.6847C12.4268 10.5465 15.1073 10.1318 14.6904 9.48218C13.9247 9.73375 13.1363 10.0351 12.3827 10.3253L12.062 10.6847Z" fill="white"/>
<path opacity="0.3" d="M12.8825 11.879C13.3074 12.0352 14.6904 11.3261 14.8254 10.9556C14.8334 10.9363 13.6963 11.1201 13.5894 11.1533C13.2313 11.2611 12.8638 11.4049 12.8825 11.879Z" fill="white"/>
<path opacity="0.3" d="M13.5122 15.2019C13.9839 15.4134 14.5665 15.2779 15.0261 15.0236C15.2934 14.8785 15.8613 14.4375 15.9615 14.1334C16.2167 13.3331 15.2092 14.2067 14.8818 13.9786C14.3086 13.575 15.5045 13.3317 15.6582 13.0732C16.0991 12.3393 14.99 12.0379 14.501 12.096C14.0119 12.154 12.8975 12.6765 13.1287 13.3497C13.1688 13.4616 13.4253 13.5639 13.4387 13.6068C13.5028 13.8169 13.3572 13.8597 13.2503 14.0837C13.0218 14.5536 12.991 14.9655 13.5122 15.2019Z" fill="white"/>
<path opacity="0.3" d="M16.0479 17.4384C16.7614 17.003 15.5134 15.8253 15.6189 17.0237C15.3383 17.1993 14.8867 16.844 14.7744 16.609C14.2988 15.6415 15.8875 15.0112 16.5677 15.5585C17.3534 16.1971 16.8937 17.1011 16.0479 17.4384Z" fill="white"/>
<path opacity="0.3" d="M16.6817 17.9167C16.9837 17.8559 18.1369 17.867 18.0807 17.3044C18.0313 16.8082 16.9984 17.6168 16.7004 17.7523C16.353 17.9126 16.1659 18.0716 15.7744 18.0881C15.5326 18.0978 15.137 17.9029 14.9406 18.1752C14.6293 18.6079 15.2078 18.4655 15.4297 18.3812C15.8479 18.225 16.2421 18.008 16.6817 17.9167Z" fill="white"/>
<path opacity="0.3" d="M15.9655 19.8656C16.2098 19.8349 16.4495 19.7727 16.679 19.6804C17.0197 19.5518 17.3471 19.3763 17.4286 19.2229C16.9743 19.1925 16.4011 18.7888 15.9441 19.0487C15.6047 19.2436 15.4163 19.8891 15.9655 19.8656Z" fill="white"/>
<g style="mix-blend-mode:multiply" opacity="0.5">
<path d="M8.36763 19.1635C8.37213 19.5655 8.261 19.9598 8.04837 20.2964C7.83573 20.6329 7.53118 20.8965 7.17341 21.0535C6.81564 21.2106 6.4208 21.2542 6.03907 21.1786C5.65733 21.103 5.30593 20.9118 5.0295 20.6291C4.75308 20.3465 4.56413 19.9853 4.48663 19.5913C4.40913 19.1973 4.4466 18.7884 4.59428 18.4165C4.74195 18.0446 4.99316 17.7265 5.316 17.5026C5.63883 17.2788 6.01871 17.1592 6.40738 17.1592C6.9242 17.1563 7.42101 17.3657 7.78859 17.7416C8.15617 18.1174 8.36445 18.6288 8.36763 19.1635Z" fill="#A6A6A6"/>
</g>
<g style="mix-blend-mode:multiply" opacity="0.5">
<path d="M6.22967 15.9608C6.23311 16.2565 6.15149 16.5466 5.99517 16.7942C5.83885 17.0419 5.6149 17.2358 5.35177 17.3515C5.08864 17.4671 4.79821 17.4992 4.5174 17.4437C4.23658 17.3882 3.97806 17.2476 3.77468 17.0398C3.5713 16.8319 3.43225 16.5662 3.37519 16.2764C3.31814 15.9866 3.34566 15.6858 3.45426 15.4123C3.56285 15.1387 3.74762 14.9047 3.98509 14.74C4.22255 14.5753 4.50198 14.4873 4.78787 14.4873C5.16791 14.4851 5.53324 14.6391 5.80359 14.9154C6.07394 15.1917 6.2272 15.5677 6.22967 15.9608Z" fill="#A6A6A6"/>
</g>
<path d="M8.70408 19.9527C8.48367 20.2819 8.17385 20.5362 7.81379 20.6832C7.45372 20.8303 7.05959 20.8637 6.6812 20.7791C6.30282 20.6945 5.95719 20.4957 5.688 20.2079C5.4188 19.9201 5.23813 19.5563 5.16883 19.1623C5.09953 18.7683 5.14471 18.3619 5.29866 17.9945C5.45261 17.6271 5.70842 17.3151 6.03374 17.098C6.35906 16.881 6.73929 16.7686 7.12636 16.775C7.51343 16.7815 7.88996 16.9065 8.20834 17.1343C8.63523 17.4402 8.92723 17.9089 9.02019 18.4374C9.11315 18.9659 8.99945 19.5109 8.70408 19.9527Z" fill="#E80011"/>
<path opacity="0.3" d="M8.63729 19.4385C8.50312 19.6266 8.31831 19.7696 8.10599 19.8496C7.89366 19.9296 7.66324 19.9431 7.44354 19.8884C7.22385 19.8336 7.02463 19.7131 6.87081 19.5419C6.71699 19.3706 6.61539 19.1563 6.57871 18.9256C6.54204 18.6949 6.57192 18.4582 6.66462 18.245C6.75732 18.0318 6.90873 17.8517 7.0999 17.727C7.29108 17.6024 7.51352 17.5388 7.73944 17.5443C7.96535 17.5497 8.1847 17.624 8.37005 17.7577C8.49434 17.8499 8.59986 17.9664 8.68057 18.1008C8.76127 18.2352 8.81558 18.3847 8.8404 18.5408C8.86522 18.6969 8.86006 18.8565 8.82521 19.0106C8.79036 19.1646 8.7265 19.31 8.63729 19.4385Z" fill="white"/>
<path opacity="0.3" d="M8.56787 19.1745C8.50538 19.2635 8.41894 19.3314 8.31935 19.3699C8.21975 19.4084 8.11142 19.4156 8.00785 19.3908C7.90428 19.366 7.81008 19.3101 7.737 19.2303C7.66392 19.1504 7.6152 19.05 7.59692 18.9417C7.57865 18.8334 7.59162 18.7219 7.63423 18.6211C7.67684 18.5203 7.74719 18.4348 7.8365 18.3752C7.92581 18.3155 8.03013 18.2844 8.13643 18.2857C8.24274 18.287 8.34632 18.3206 8.43425 18.3825C8.49333 18.4254 8.54367 18.4799 8.58237 18.5429C8.62107 18.6059 8.64738 18.6763 8.65979 18.7498C8.6722 18.8234 8.67047 18.8988 8.65469 18.9716C8.63892 19.0445 8.60942 19.1134 8.56787 19.1745Z" fill="white"/>
<path d="M7.08068 18.4516C7.23434 18.2125 7.61517 17.8586 7.88241 17.8434C7.75814 18.0812 7.58176 18.2982 7.45081 18.5346C7.65258 18.706 7.89043 18.8456 8.08953 19.0183C7.88508 19.2423 7.63521 18.8262 7.4134 18.9617C7.24236 19.0667 7.26106 19.5616 7.10873 19.7385C7.02989 19.5146 7.05127 19.169 6.89093 19.0087C6.73459 19.1552 6.48338 19.2063 6.31501 19.2561C6.44864 19.0916 6.62368 18.9796 6.74394 18.8179C6.54886 18.6037 6.18941 18.5138 5.95557 18.3106C6.08117 18.1627 6.45933 18.2747 6.63571 18.3715C6.62073 18.1174 6.58134 17.8655 6.51812 17.6195C6.768 17.7577 6.91899 18.1061 7.00985 18.3106L7.08068 18.4516Z" fill="#117500"/>
<path d="M6.92681 14.8896C7.0487 15.1969 7.07974 15.5347 7.01603 15.8603C6.95231 16.1858 6.7967 16.4846 6.56886 16.7186C6.34102 16.9527 6.05118 17.1116 5.73602 17.1753C5.42086 17.239 5.09452 17.2046 4.79828 17.0764C4.50204 16.9482 4.2492 16.732 4.07173 16.4552C3.89427 16.1783 3.80014 15.8533 3.80128 15.5211C3.80242 15.1889 3.89876 14.8646 4.07811 14.589C4.25746 14.3135 4.51178 14.0992 4.80889 13.9731C5.20726 13.8046 5.65401 13.8064 6.05108 13.9782C6.44816 14.15 6.76311 14.4778 6.92681 14.8896Z" fill="#E80011"/>
<path opacity="0.3" d="M6.55172 14.7029C6.61778 14.8842 6.63076 15.0815 6.58901 15.2704C6.54726 15.4592 6.45264 15.6311 6.31698 15.7646C6.18132 15.8981 6.01064 15.9874 5.82625 16.0211C5.64187 16.0549 5.45195 16.0317 5.28024 15.9544C5.10853 15.8771 4.96263 15.7492 4.86078 15.5867C4.75893 15.4242 4.70564 15.2342 4.70757 15.0405C4.7095 14.8468 4.76657 14.658 4.87164 14.4976C4.97671 14.3373 5.12512 14.2126 5.29834 14.139C5.41643 14.0908 5.54254 14.0672 5.66945 14.0695C5.79637 14.0718 5.9216 14.0999 6.038 14.1523C6.1544 14.2046 6.25969 14.2802 6.34783 14.3747C6.43598 14.4692 6.50526 14.5807 6.55172 14.7029Z" fill="white"/>
<path opacity="0.3" d="M6.34302 14.6352C6.37398 14.7206 6.37992 14.8136 6.36009 14.9026C6.34026 14.9915 6.29555 15.0724 6.23154 15.1352C6.16752 15.198 6.08704 15.2399 6.00014 15.2556C5.91325 15.2714 5.82379 15.2603 5.74294 15.2238C5.66209 15.1873 5.59344 15.1269 5.54555 15.0503C5.49766 14.9737 5.47265 14.8841 5.47366 14.7929C5.47467 14.7016 5.50165 14.6127 5.55122 14.5372C5.6008 14.4617 5.67077 14.403 5.75241 14.3684C5.8081 14.3456 5.8676 14.3344 5.92749 14.3355C5.98737 14.3366 6.04647 14.3499 6.10136 14.3747C6.15625 14.3995 6.20585 14.4353 6.24733 14.48C6.2888 14.5247 6.32132 14.5774 6.34302 14.6352Z" fill="white"/>
<path d="M5.18473 15.3761C5.09387 15.1591 5.02973 14.7223 5.13796 14.526C5.24085 14.7237 5.30633 14.949 5.40521 15.148C5.61099 15.0803 5.80608 14.9725 6.01854 14.9075C6.076 15.1549 5.68314 15.1466 5.67513 15.3678C5.67513 15.5378 6.00918 15.7493 6.05862 15.9373C5.87289 15.893 5.65775 15.723 5.47068 15.7645C5.47649 15.945 5.44459 16.1246 5.37715 16.2911C5.3237 16.1239 5.33439 15.947 5.2756 15.7852C5.04309 15.8281 4.82128 16.0451 4.57942 16.1225C4.53666 15.9649 4.78253 15.7438 4.92684 15.6608C4.74966 15.5573 4.56301 15.4721 4.36963 15.4065C4.57541 15.289 4.87606 15.3388 5.05913 15.3664L5.18473 15.3761Z" fill="#117500"/>
<g style="mix-blend-mode:multiply" opacity="0.5">
<path d="M20.0192 9.90107C19.8455 9.80708 19.6704 9.60527 19.8321 9.41314C19.9938 9.221 20.3479 9.31776 20.5604 9.1906C20.8089 9.04131 20.8022 8.69437 20.694 8.46353C20.551 8.15805 20.0873 8.18708 19.8041 8.16773C19.4513 8.15114 19.144 8.30596 18.8006 8.3336C18.5894 8.35157 18.3062 8.25896 18.4077 7.98113C18.4865 7.76964 18.7832 7.58166 18.9529 7.45034C19.1934 7.26236 19.2616 7.07022 19.3123 6.75922C19.3511 6.53115 19.3043 6.20632 19.0451 6.11785C18.7458 6.02248 18.3596 6.43439 18.2006 6.64864C18.0255 6.885 17.8986 7.41855 17.4911 7.24439C17.2973 7.16145 17.2452 6.89606 17.2879 6.70116C17.3935 6.21461 17.9253 5.88563 17.8224 5.35762C17.8065 5.2522 17.752 5.15718 17.6701 5.09231C17.5882 5.02744 17.4853 4.9977 17.3828 5.00929C17.1806 5.01109 16.9848 5.08314 16.827 5.21386C16.7535 5.28021 16.7468 5.39632 16.6719 5.45714C16.5971 5.51796 16.4809 5.47787 16.4047 5.54837C16.2577 5.68659 16.3072 6.06809 16.5022 6.13859C16.6973 6.20908 16.7695 5.98239 16.9165 5.9506C17.1543 5.90084 17.1036 6.14965 17.0782 6.30308C17.028 6.47623 16.9914 6.65326 16.9686 6.83248C16.9715 6.93262 16.9972 7.03064 17.0436 7.11856C17.09 7.20648 17.1559 7.2818 17.2358 7.33838C17.5485 7.5941 17.8826 7.30106 18.1298 7.07852C18.2634 6.95964 18.9315 6.34592 18.9729 6.75369C19.013 7.11169 18.6549 7.47384 18.4531 7.72126C18.3391 7.82964 18.2586 7.97058 18.222 8.12626C18.2211 8.21086 18.2486 8.29316 18.2998 8.35918C18.3509 8.42519 18.4226 8.47086 18.5026 8.48841C18.6589 8.53403 18.8553 8.48841 19.0144 8.50085C19.1855 8.51085 19.3572 8.50576 19.5275 8.48565C19.7773 8.45524 20.547 8.50915 20.2236 8.95976C20.0459 9.2058 19.3003 9.30808 19.5796 9.69926C19.8021 10.0044 20.0776 10.2641 20.392 10.465C20.5083 10.5411 20.6873 10.6033 20.7207 10.765C20.7595 10.964 20.5871 11.0414 20.4334 11.0857C20.2798 11.1299 20.0967 11.0857 19.947 11.1644C19.8701 11.2028 19.8041 11.2612 19.7556 11.3339C19.7071 11.4066 19.6778 11.4911 19.6704 11.5791C19.6437 12.0145 20.0579 12.1099 20.2891 12.3781C20.392 12.4969 20.4949 12.6946 20.4227 12.8618C20.3506 13.0291 20.1555 13.018 19.9965 13.0485C19.9255 13.053 19.8562 13.0725 19.7927 13.1057C19.7293 13.139 19.6731 13.1854 19.6277 13.242C19.5261 13.4023 19.617 13.5599 19.7105 13.7036C19.784 13.8197 19.9658 13.9718 19.9577 14.1183C19.9577 14.1819 19.8655 14.2358 19.8575 14.2952C19.8468 14.3851 19.9257 14.4694 19.9711 14.5413C20.2303 14.4404 20.2905 14.2842 20.213 14.005C20.1818 13.8774 20.1132 13.7629 20.0165 13.6774C19.927 13.5917 19.8829 13.5488 19.9096 13.4203C19.9564 13.2199 20.1769 13.3097 20.3439 13.2821C20.547 13.2447 20.8209 13.0872 20.8343 12.848C20.8371 12.7307 20.8146 12.6143 20.7684 12.5071C20.7221 12.4 20.6534 12.3049 20.5671 12.2288C20.461 12.1176 20.3475 12.0141 20.2276 11.9192C20.1515 11.8556 20.0205 11.7809 19.9751 11.6814C19.8749 11.4644 20.078 11.2861 20.2731 11.2971C20.5671 11.3123 20.8771 11.398 21.1082 11.1285C21.6427 10.5341 20.3399 10.0725 20.0192 9.90107Z" fill="#A6A6A6"/>
</g>
<path d="M17.586 4.83644C17.6885 4.82485 17.7914 4.85459 17.8733 4.91946C17.9551 4.98433 18.0097 5.07935 18.0256 5.18476C18.1271 5.71278 17.5966 6.04176 17.4911 6.52969C17.4483 6.72459 17.5004 6.9886 17.6955 7.07154C18.0964 7.2457 18.23 6.71215 18.4037 6.47579C18.5627 6.26154 18.9489 5.84963 19.2482 5.94638C19.5021 6.02794 19.5489 6.36106 19.5155 6.58636C19.466 6.89184 19.3965 7.08397 19.156 7.27749C18.9863 7.41571 18.6897 7.59679 18.6122 7.80828C18.5093 8.08473 18.7926 8.17872 19.0037 8.16213C19.3471 8.13449 19.6558 7.97967 20.0072 7.99488C20.2918 8.00732 20.7542 7.9852 20.8971 8.29068C21.004 8.52151 21.0107 8.86846 20.7635 9.01774C20.551 9.14491 20.205 9.04124 20.0366 9.24029C19.8682 9.43933 20.0486 9.63423 20.2223 9.72822C20.539 9.89962 21.8459 10.3613 21.3394 10.9529C21.1096 11.2293 20.8049 11.1367 20.5043 11.1215C20.3092 11.1105 20.1034 11.2888 20.2063 11.5058C20.2517 11.6026 20.3827 11.68 20.4589 11.7435C20.5788 11.839 20.6922 11.9429 20.7982 12.0545C20.8846 12.1303 20.9534 12.2252 20.9997 12.3321C21.0459 12.439 21.0684 12.5553 21.0655 12.6724C21.0521 12.9115 20.7782 13.0691 20.5751 13.1064C20.4041 13.1382 20.1876 13.047 20.1408 13.2447C20.1114 13.3732 20.1582 13.4161 20.2477 13.5018C20.3444 13.5873 20.413 13.7018 20.4442 13.8294C20.5217 14.1058 20.4615 14.2648 20.2023 14.3657C20.1569 14.2938 20.078 14.2109 20.0887 14.1196C20.0967 14.0602 20.1863 14.0063 20.1903 13.9427C20.1969 13.8045 20.0152 13.6497 19.9417 13.528C19.8495 13.3898 19.7573 13.2267 19.8589 13.0664C19.9043 13.0098 19.9605 12.9634 20.0239 12.9301C20.0874 12.8969 20.1567 12.8774 20.2277 12.8728C20.3813 12.8424 20.5804 12.8728 20.6539 12.6862C20.7274 12.4996 20.6179 12.3213 20.5203 12.2024C20.2891 11.9357 19.8762 11.8403 19.9016 11.4035C19.9092 11.3156 19.9387 11.2312 19.9872 11.1585C20.0356 11.0858 20.1015 11.0274 20.1782 10.9888C20.3279 10.9156 20.507 10.9612 20.6646 10.91C20.8223 10.8589 20.9907 10.7884 20.9519 10.5894C20.9185 10.4276 20.7395 10.3668 20.6232 10.2894C20.3085 10.0889 20.0329 9.82918 19.8108 9.52364C19.5315 9.13247 20.2771 9.03018 20.4548 8.78414C20.7782 8.33353 20.0085 8.281 19.7587 8.31003C19.5884 8.33015 19.4167 8.33523 19.2456 8.32524C19.0865 8.31556 18.8901 8.35841 18.7338 8.3128C18.6539 8.295 18.5824 8.24927 18.5313 8.18331C18.4801 8.11735 18.4526 8.03518 18.4532 7.95065C18.4895 7.79524 18.57 7.65466 18.6843 7.54703C18.8861 7.29684 19.2442 6.93469 19.2041 6.57946C19.16 6.17169 18.4933 6.78679 18.361 6.90428C18.1138 7.12683 17.7797 7.41986 17.467 7.16415C17.387 7.10772 17.321 7.03244 17.2745 6.94449C17.228 6.85654 17.2024 6.75843 17.1998 6.65824C17.2224 6.47946 17.2591 6.30287 17.3094 6.13022C17.3347 5.97541 17.3855 5.72661 17.1477 5.77637C16.9953 5.80816 16.9098 6.02794 16.7334 5.96435C16.5571 5.90077 16.4889 5.51789 16.6359 5.37413C16.7081 5.30364 16.8216 5.34511 16.9031 5.2829C16.9847 5.2207 16.9847 5.10598 17.0581 5.03963C17.2089 4.91587 17.3937 4.84473 17.586 4.83644Z" fill="#DB0000"/>
<path opacity="0.6" d="M16.7777 5.70176C16.9327 5.73217 16.9434 5.59118 17.1011 5.56353C17.4833 5.48474 17.6209 5.75428 17.5273 6.10952C17.6463 6.08464 17.824 5.69485 17.8494 5.58288C17.8895 5.3949 17.9042 5.15162 17.7064 5.05487C17.6203 5.01136 17.5237 4.99498 17.4287 5.00776C17.3337 5.02054 17.2444 5.06191 17.1719 5.12674C17.1227 5.19577 17.0647 5.25761 16.9995 5.31058C16.906 5.36725 16.7203 5.36449 16.6601 5.47783C16.6501 5.5003 16.6453 5.52489 16.6461 5.54962C16.6469 5.57435 16.6532 5.59856 16.6646 5.6203C16.6761 5.64205 16.6922 5.66074 16.7119 5.67488C16.7315 5.68902 16.754 5.69822 16.7777 5.70176Z" fill="white"/>
<path opacity="0.6" d="M18.4468 6.48968C18.6258 6.38048 18.7394 6.19112 18.9425 6.11509C19.1456 6.03907 19.4196 6.169 19.3233 6.40675C19.0908 6.08054 18.7621 6.33072 18.5123 6.5035L18.4468 6.48968Z" fill="white"/>
<path opacity="0.6" d="M20.5818 8.17041C20.9827 8.18838 20.9921 8.90991 20.5364 8.90438C20.5284 8.8021 20.7008 8.76616 20.7462 8.68461C20.7721 8.6259 20.7781 8.5599 20.7633 8.49722C20.7485 8.43454 20.7138 8.37883 20.6647 8.33904L20.5818 8.17041Z" fill="white"/>
<path opacity="0.6" d="M20.9322 10.1899C21.0497 10.3572 21.333 10.4291 21.3638 10.6558C21.4052 10.917 21.0056 10.9654 20.8293 11.0055C20.8254 11.0106 20.8232 11.0169 20.8232 11.0234C20.8232 11.03 20.8254 11.0363 20.8293 11.0414C20.8987 11.0248 21.0404 10.8672 21.1072 10.8175C21.2408 10.7207 21.2034 10.6101 21.0872 10.483L20.9322 10.1899Z" fill="white"/>
<path opacity="0.6" d="M20.6928 12.132C20.757 12.3117 20.9066 12.4195 20.8986 12.6406C20.8906 12.8618 20.785 12.9171 20.5859 12.9171C20.6207 12.8286 20.7516 12.8079 20.8051 12.7236C20.8314 12.6713 20.8452 12.6132 20.8452 12.5542C20.8452 12.4953 20.8314 12.4372 20.8051 12.3849L20.6928 12.132Z" fill="white"/>
<path opacity="0.6" d="M20.3133 13.9731C20.3353 14.0091 20.3469 14.0508 20.3469 14.0934C20.3469 14.136 20.3353 14.1777 20.3133 14.2137C20.282 14.2268 20.2479 14.2311 20.2145 14.2261C20.2082 14.214 20.2044 14.2006 20.2034 14.1869C20.2024 14.1732 20.2041 14.1594 20.2085 14.1464C20.2129 14.1334 20.2199 14.1215 20.2289 14.1114C20.238 14.1013 20.249 14.0933 20.2612 14.0879L20.3133 13.9731Z" fill="white"/>
</svg>
