<svg width="120" height="120" viewBox="0 0 120 120" fill="none" xmlns="http://www.w3.org/2000/svg">
<circle cx="60" cy="60" r="59" fill="white" stroke="black" stroke-width="2"/>
<path d="M83.0704 63.347C83.0666 59.8779 80.8338 57.355 77.3839 56.9432C76.9337 56.8895 76.8414 56.7463 76.844 56.3256C76.8606 52.8322 76.8516 49.3387 76.8542 45.844C76.8542 44.5205 76.7837 43.2034 76.4913 41.9094C74.3585 32.4635 65.2105 26.8193 55.7945 29.1338C48.7909 30.8562 43.4711 37.2319 43.2082 44.4259C43.0646 48.3631 43.1543 52.3079 43.1556 56.2489C43.1556 56.69 43.103 56.8895 42.5682 56.9534C39.1658 57.3524 36.9356 59.8945 36.9304 63.3317C36.9227 69.1051 36.9189 74.8784 36.9317 80.6518C36.9432 86.2347 41.246 90.4992 46.8505 90.5031C51.2314 90.5056 55.6124 90.5031 59.9921 90.5031C64.3718 90.5031 68.754 90.5056 73.135 90.5031C78.7741 90.5005 83.0602 86.2373 83.0704 80.6032C83.0807 74.8503 83.0781 69.0987 83.0704 63.347ZM44.9126 45.5703C44.9537 38.306 49.6732 32.383 56.7115 30.7334C65.0759 28.7744 73.6711 34.6028 74.892 43.0551C75.0267 43.986 75.0895 44.9182 75.0908 45.8568C75.0934 49.3285 75.0818 52.8015 75.1036 56.2745C75.1062 56.7706 74.9856 56.9113 74.4739 56.9087C69.6441 56.8882 64.8155 56.8972 59.9857 56.8972C55.1558 56.8972 50.3696 56.8882 45.5616 56.91C45.0293 56.9112 44.8921 56.777 44.8959 56.2438C44.9216 52.6864 44.8934 49.1277 44.9126 45.5703ZM81.2878 80.5866C81.2839 84.6951 78.6163 87.9009 74.5804 88.631C74.0597 88.7256 73.5185 88.732 72.9862 88.732C64.332 88.7384 55.6778 88.7397 47.0249 88.7346C42.1476 88.732 38.7144 85.3127 38.7118 80.4677C38.7105 74.8017 38.7105 69.1345 38.7118 63.4685C38.7131 60.4929 40.5522 58.6695 43.5532 58.6682C49.0448 58.6669 54.5364 58.6682 60.028 58.6682C65.5196 58.6682 70.9676 58.6669 76.4374 58.6682C79.4718 58.6695 81.2891 60.4878 81.2891 63.5235C81.2903 69.2112 81.2942 74.8989 81.2878 80.5866ZM59.9049 63.1105C56.9988 63.1411 54.5723 65.1359 53.9272 68.0258C53.6463 69.2854 53.6476 69.2547 54.907 69.2981C55.4316 69.316 55.5714 69.1536 55.6355 68.6511C55.9997 65.7638 59.1405 64.0337 61.8094 65.2574C63.4946 66.031 64.4026 67.4005 64.4218 69.2432C64.4397 71.0551 63.5818 72.4323 61.9402 73.243C60.9552 73.7302 60.1332 74.3516 59.6086 75.3349C59.1174 76.2569 59.0674 77.2453 59.1085 78.0688V78.5727C59.1085 80.0035 59.1085 79.992 60.5487 79.9025C60.8411 79.8846 60.9039 79.79 60.8975 79.5253C60.8821 78.9294 60.9155 78.3323 60.8885 77.7364C60.8257 76.3656 61.4233 75.459 62.6738 74.8631C65.3631 73.5857 66.7046 70.7162 66.0326 67.8404C65.3747 65.0349 62.8431 63.0798 59.9049 63.1105ZM60.1986 81.6467C59.1161 81.749 59.1085 81.671 59.1085 82.3717C59.1076 83.0903 59.3701 83.4497 59.8959 83.4497C60.5611 83.4497 60.8937 83.1598 60.8937 82.5801C60.8757 82.116 61.1078 81.5623 60.1986 81.6467Z" fill="#F7F9FA"/>
<path d="M83.0704 63.347C83.0666 59.8779 80.8338 57.355 77.3839 56.9432C76.9337 56.8895 76.8414 56.7463 76.844 56.3256C76.8606 52.8322 76.8516 49.3387 76.8542 45.844C76.8542 44.5205 76.7837 43.2034 76.4913 41.9094C74.3585 32.4635 65.2105 26.8193 55.7945 29.1338C48.7909 30.8562 43.4711 37.2319 43.2082 44.4259C43.0646 48.3631 43.1543 52.3079 43.1556 56.2489C43.1556 56.69 43.103 56.8895 42.5682 56.9534C39.1658 57.3524 36.9356 59.8945 36.9304 63.3317C36.9227 69.1051 36.9189 74.8784 36.9317 80.6518C36.9432 86.2347 41.246 90.4992 46.8505 90.5031C51.2314 90.5056 55.6124 90.5031 59.9921 90.5031C64.3718 90.5031 68.754 90.5056 73.135 90.5031C78.7741 90.5005 83.0602 86.2373 83.0704 80.6032C83.0807 74.8503 83.0781 69.0987 83.0704 63.347ZM44.9126 45.5703C44.9537 38.306 49.6732 32.383 56.7115 30.7334C65.0759 28.7744 73.6711 34.6028 74.892 43.0551C75.0267 43.986 75.0895 44.9182 75.0908 45.8568C75.0934 49.3285 75.0818 52.8015 75.1036 56.2745C75.1062 56.7706 74.9856 56.9113 74.4739 56.9087C69.6441 56.8882 64.8155 56.8972 59.9857 56.8972C55.1558 56.8972 50.3696 56.8882 45.5616 56.91C45.0293 56.9112 44.8921 56.777 44.8959 56.2438C44.9216 52.6864 44.8934 49.1277 44.9126 45.5703ZM81.2878 80.5866C81.2839 84.6951 78.6163 87.9009 74.5804 88.631C74.0597 88.7256 73.5185 88.732 72.9862 88.732C64.332 88.7384 55.6778 88.7397 47.0249 88.7346C42.1476 88.732 38.7144 85.3127 38.7118 80.4677C38.7105 74.8017 38.7105 69.1345 38.7118 63.4685C38.7131 60.4929 40.5522 58.6695 43.5532 58.6682C49.0448 58.6669 54.5364 58.6682 60.028 58.6682C65.5196 58.6682 70.9676 58.6669 76.4374 58.6682C79.4718 58.6695 81.2891 60.4878 81.2891 63.5235C81.2903 69.2112 81.2942 74.8989 81.2878 80.5866ZM59.9049 63.1105C56.9988 63.1411 54.5723 65.1359 53.9272 68.0258C53.6463 69.2854 53.6476 69.2547 54.907 69.2981C55.4316 69.316 55.5714 69.1536 55.6355 68.6511C55.9997 65.7638 59.1405 64.0337 61.8094 65.2574C63.4946 66.031 64.4026 67.4005 64.4218 69.2432C64.4397 71.0551 63.5818 72.4323 61.9402 73.243C60.9552 73.7302 60.1332 74.3516 59.6086 75.3349C59.1174 76.2569 59.0674 77.2453 59.1085 78.0688V78.5727C59.1085 80.0035 59.1085 79.992 60.5487 79.9025C60.8411 79.8846 60.9039 79.79 60.8975 79.5253C60.8821 78.9294 60.9155 78.3323 60.8885 77.7364C60.8257 76.3656 61.4233 75.459 62.6738 74.8631C65.3631 73.5857 66.7046 70.7162 66.0326 67.8404C65.3747 65.0349 62.8431 63.0798 59.9049 63.1105ZM60.1986 81.6467C59.1161 81.749 59.1085 81.671 59.1085 82.3717C59.1076 83.0903 59.3701 83.4497 59.8959 83.4497C60.5611 83.4497 60.8937 83.1598 60.8937 82.5801C60.8757 82.116 61.1078 81.5623 60.1986 81.6467Z" fill="black"/>
<path d="M60.8937 82.5801C60.8937 83.1598 60.5611 83.4497 59.8959 83.4497C59.3701 83.4497 59.1076 83.0903 59.1085 82.3717C59.1085 81.671 59.1161 81.749 60.1986 81.6467C61.1078 81.5623 60.8757 82.116 60.8937 82.5801Z" fill="#F7F9FA"/>
<path d="M62.6738 74.8631C61.4233 75.459 60.8257 76.3656 60.8885 77.7364C60.9155 78.3323 60.8821 78.9294 60.8975 79.5253C60.9039 79.79 60.8411 79.8846 60.5487 79.9025C59.1085 79.992 59.1085 80.0035 59.1085 78.5727V78.0688C59.0674 77.2453 59.1174 76.2569 59.6086 75.3349C60.1332 74.3516 60.9552 73.7302 61.9402 73.243C63.5818 72.4323 64.4397 71.0551 64.4218 69.2432C64.4026 67.4005 63.4946 66.031 61.8094 65.2574C59.1405 64.0337 55.9997 65.7638 55.6355 68.6511C55.5714 69.1536 55.4316 69.316 54.907 69.2981C53.6476 69.2547 53.6463 69.2854 53.9272 68.0258C54.5723 65.1359 56.9988 63.1411 59.9049 63.1105C62.8431 63.0798 65.3747 65.0349 66.0326 67.8404C66.7046 70.7162 65.3631 73.5857 62.6738 74.8631Z" fill="#F7F9FA"/>
<path d="M62.6738 74.8631C61.4233 75.459 60.8257 76.3656 60.8885 77.7364C60.9155 78.3323 60.8821 78.9294 60.8975 79.5253C60.9039 79.79 60.8411 79.8846 60.5487 79.9025C59.1085 79.992 59.1085 80.0035 59.1085 78.5727V78.0688C59.0674 77.2453 59.1174 76.2569 59.6086 75.3349C60.1332 74.3516 60.9552 73.7302 61.9402 73.243C63.5818 72.4323 64.4397 71.0551 64.4218 69.2432C64.4026 67.4005 63.4946 66.031 61.8094 65.2574C59.1405 64.0337 55.9997 65.7638 55.6355 68.6511C55.5714 69.1536 55.4316 69.316 54.907 69.2981C53.6476 69.2547 53.6463 69.2854 53.9272 68.0258C54.5723 65.1359 56.9988 63.1411 59.9049 63.1105C62.8431 63.0798 65.3747 65.0349 66.0326 67.8404C66.7046 70.7162 65.3631 73.5857 62.6738 74.8631Z" fill="black"/>
<path d="M60.8937 82.5801C60.8937 83.1598 60.5611 83.4497 59.8959 83.4497C59.3701 83.4497 59.1076 83.0903 59.1085 82.3717C59.1085 81.671 59.1161 81.749 60.1986 81.6467C61.1078 81.5623 60.8757 82.116 60.8937 82.5801Z" fill="#020202"/>
</svg>
