<svg width="73" height="104" viewBox="0 0 73 104" fill="none" xmlns="http://www.w3.org/2000/svg">
<g opacity="0.1" clip-path="url(#clip0_1129_12960)">
<path d="M73.7804 76.0648C74.7222 79.4015 73.8693 82.3358 71.1169 84.497C70.1023 85.2953 69.9519 85.9099 70.3125 87.0661C71.2344 90.0285 71.1206 90.1343 68.0857 90.9946C66.8801 91.3363 65.6584 91.6213 64.4807 92.0328C62.8352 92.6054 61.6984 92.2331 61.4649 90.4239C61.2126 88.4321 60.3907 88.1707 58.502 88.7551C52.7201 90.5493 46.8786 92.148 41.0328 93.7315C39.7963 94.0656 39.5316 94.4798 39.9136 95.7116C40.822 98.6697 40.718 98.7522 37.6526 99.6211C36.4508 99.9618 35.2292 100.247 34.0477 100.659C32.3832 101.237 31.3497 100.795 31.0347 99.017C30.7571 97.4287 30.182 96.603 28.236 96.3619C24.9733 95.9548 22.9546 93.7038 22.0531 90.5232C19.669 82.0836 17.2697 73.6484 14.878 65.211L7.96992 40.8404C6.28529 34.8828 8.41052 31.1466 14.4641 29.4266C16.6776 28.7992 18.8862 28.1404 21.1174 27.5611C21.9204 27.3498 22.1852 27.0664 21.9103 26.2127C21.3145 24.3428 20.7823 22.4508 20.3044 20.5474C20.1096 19.7733 19.6684 19.6082 18.9619 19.4204C16.7088 18.821 15.3893 16.8621 15.3906 14.3735C15.3962 12.3494 16.6222 10.862 18.8943 10.2097C24.0216 8.7441 29.1521 7.28981 34.282 5.84794C36.566 5.20867 38.3815 5.8299 39.4495 7.55371C40.7544 9.6639 40.6817 12.0747 39.0557 13.7164C38.4358 14.3415 38.3289 14.8049 38.5677 15.5748C39.1128 17.3243 39.6477 19.0807 40.0549 20.8652C40.2992 21.9154 40.7417 22.027 41.6899 21.7337C44.141 20.9735 46.6195 20.2955 49.0931 19.6147C53.8741 18.3044 58.0421 20.5428 59.3795 25.2464C64.2039 42.179 69.0055 59.1181 73.7804 76.0648Z" fill="#F7F9FA"/>
<path d="M73.7804 76.0648C74.7222 79.4015 73.8693 82.3358 71.1169 84.497C70.1023 85.2953 69.9519 85.9099 70.3125 87.0661C71.2344 90.0285 71.1206 90.1343 68.0857 90.9946C66.8801 91.3363 65.6584 91.6213 64.4807 92.0328C62.8352 92.6054 61.6984 92.2331 61.4649 90.4239C61.2126 88.4321 60.3907 88.1707 58.502 88.7551C52.7201 90.5493 46.8786 92.148 41.0328 93.7315C39.7963 94.0656 39.5316 94.4798 39.9136 95.7116C40.822 98.6697 40.718 98.7522 37.6526 99.6211C36.4508 99.9618 35.2292 100.247 34.0477 100.659C32.3832 101.237 31.3497 100.795 31.0347 99.017C30.7571 97.4287 30.182 96.603 28.236 96.3619C24.9733 95.9548 22.9546 93.7038 22.0531 90.5232C19.669 82.0836 17.2697 73.6484 14.878 65.211L7.96992 40.8404C6.28529 34.8828 8.41052 31.1466 14.4641 29.4266C16.6776 28.7992 18.8862 28.1404 21.1174 27.5611C21.9204 27.3498 22.1852 27.0664 21.9103 26.2127C21.3145 24.3428 20.7823 22.4508 20.3044 20.5474C20.1096 19.7733 19.6684 19.6082 18.9619 19.4204C16.7088 18.821 15.3893 16.8621 15.3906 14.3735C15.3962 12.3494 16.6222 10.862 18.8943 10.2097C24.0216 8.7441 29.1521 7.28981 34.282 5.84794C36.566 5.20867 38.3815 5.8299 39.4495 7.55371C40.7544 9.6639 40.6817 12.0747 39.0557 13.7164C38.4358 14.3415 38.3289 14.8049 38.5677 15.5748C39.1128 17.3243 39.6477 19.0807 40.0549 20.8652C40.2992 21.9154 40.7417 22.027 41.6899 21.7337C44.141 20.9735 46.6195 20.2955 49.0931 19.6147C53.8741 18.3044 58.0421 20.5428 59.3795 25.2464C64.2039 42.179 69.0055 59.1181 73.7804 76.0648Z" fill="black"/>
<path d="M22.7046 63.8463C21.2766 58.8088 19.8411 53.7735 18.4208 48.7339C17.5027 45.4803 18.7228 42.8996 21.5218 42.1348C24.2486 41.3904 26.6177 42.9211 27.5081 46.0477C30.3898 56.1848 33.2638 66.324 36.1303 76.4655C37.0169 79.5931 35.8045 82.1431 33.0976 82.9431C30.3146 83.7646 27.9152 82.2139 26.9894 78.9626C25.5539 73.9272 24.1336 68.8876 22.7057 63.8501L22.7046 63.8463Z" fill="#F7F9FA"/>
<path d="M45.5406 57.4958C46.9685 62.5333 48.404 67.5686 49.8244 72.6082C50.699 75.7229 49.4687 78.2821 46.7575 79.0669C44.0349 79.855 41.6055 78.3291 40.7248 75.2366C37.8222 65.0401 34.9298 54.8365 32.05 44.6335C31.1795 41.5626 32.4963 38.9749 35.2388 38.2424C37.9052 37.5316 40.2983 39.0309 41.1485 42.0013C42.6308 47.1582 44.08 52.3286 45.5433 57.4909L45.5406 57.4958Z" fill="#F7F9FA"/>
<path d="M59.1863 53.497C60.6142 58.5345 62.0498 63.5698 63.4701 68.6094C64.3844 71.864 63.1605 74.4459 60.3653 75.2096C57.6499 75.9507 55.2689 74.4071 54.3807 71.2881C51.499 61.151 48.626 51.0155 45.7595 40.8741C44.8751 37.754 46.0929 35.1943 48.7971 34.3992C51.5887 33.5793 53.9746 35.1256 54.9025 38.3845C56.338 43.4199 57.7584 48.4595 59.1863 53.497Z" fill="#F7F9FA"/>
<path d="M31.2664 24.6637C29.6843 25.1122 28.0925 25.5266 26.5243 26.0243C25.6457 26.3019 25.1109 26.3432 24.8604 25.213C24.4695 23.428 23.945 21.6646 23.3693 19.9237C23.0541 18.9712 23.3911 18.6959 24.2538 18.4636C27.5554 17.5727 30.8521 16.6505 34.1258 15.6612C35.0864 15.3685 35.3725 15.6674 35.5903 16.5372C36.0328 18.3157 36.5182 20.0862 37.0928 21.8232C37.408 22.7757 37.0802 23.0689 36.2083 23.2833C34.5492 23.6923 32.9143 24.2007 31.2675 24.6675L31.2664 24.6637Z" fill="#F7F9FA"/>
<path d="M25.7197 62.9018C24.31 57.9286 22.9079 52.9532 21.483 47.9843C21.1614 46.8498 20.8628 45.6515 22.3303 45.2191C23.7979 44.7868 24.2025 45.9387 24.5273 47.0846C27.3524 57.0947 30.1901 67.1054 33.0391 77.1129C33.3618 78.2512 33.6517 79.4479 32.1918 79.8781C30.728 80.3093 30.3158 79.1596 29.9948 78.0126C28.5821 72.9708 27.1476 67.9392 25.7197 62.9018Z" fill="black"/>
<path d="M39.4033 59.0229C37.9936 54.0497 36.5915 49.0744 35.1666 44.1055C34.845 42.9709 34.5464 41.7726 36.0139 41.3403C37.4815 40.9079 37.885 42.0561 38.2109 43.2058C41.0371 53.2197 43.8737 63.2266 46.7227 73.234C47.0454 74.3724 47.3391 75.568 45.8754 75.9992C44.4116 76.4305 43.9994 75.2807 43.6784 74.1337C42.2657 69.0919 40.8312 64.0604 39.4033 59.0229Z" fill="black"/>
<path d="M53.05 55.0279C51.6585 50.119 50.2736 45.2042 48.8707 40.2985C48.5544 39.1829 48.1783 37.9575 49.6265 37.4857C51.2219 36.9681 51.5902 38.2529 51.924 39.4453C54.7359 49.3938 57.5553 59.3402 60.3823 69.2844C60.6985 70.4001 61.0708 71.6265 59.6265 72.0972C58.0349 72.6138 57.6628 71.3301 57.3289 70.1377C55.9124 65.097 54.4779 60.0654 53.05 55.0279Z" fill="black"/>
</g>
<defs>
<clipPath id="clip0_1129_12960">
<rect width="53.7294" height="91.1772" fill="white" transform="translate(0.742188 15.3428) rotate(-15.826)"/>
</clipPath>
</defs>
</svg>
