<svg width="24" height="12" viewBox="0 0 24 12" fill="none" xmlns="http://www.w3.org/2000/svg">
<g clip-path="url(#clip0_1232_9411)">
<path d="M18.3643 1.66309H5.6351C3.44115 1.66309 1.6626 3.44164 1.6626 5.63559V5.94083C1.6626 8.13479 3.44115 9.91334 5.6351 9.91334H18.3643C20.5583 9.91334 22.3368 8.13479 22.3368 5.94083V5.63559C22.3368 3.44164 20.5583 1.66309 18.3643 1.66309Z" fill="#00BC29"/>
<path d="M18.3643 0.000854492H5.63505C2.5277 0.000854492 -0.000488281 2.52875 -0.000488281 5.63639V5.94164C-0.000488281 9.049 2.52885 11.5772 5.63505 11.5772H18.3643C21.4716 11.5772 23.9995 9.04785 23.9995 5.94164V5.63439C23.9995 2.5279 21.4716 0.000854492 18.3643 0.000854492ZM22.3368 5.94164C22.3368 8.13211 20.5547 9.91414 18.3643 9.91414H5.63505C3.44458 9.91414 1.66255 8.13211 1.66255 5.94164V5.63439C1.66255 3.44392 3.44458 1.66189 5.63505 1.66189H18.3643C20.5547 1.66189 22.3368 3.44392 22.3368 5.63439V5.94164Z" fill="#F9B40C"/>
<path d="M5.53414 3.01624H4.61035V4.65053H5.53414V3.01624Z" fill="#FF5122"/>
<path d="M6.7773 3.01624H5.85352V4.65053H6.7773V3.01624Z" fill="#FF5122"/>
<path d="M8.02095 3.01624H7.09717V4.65053H8.02095V3.01624Z" fill="#FF5122"/>
<path d="M9.2646 3.01624H8.34082V4.65053H9.2646V3.01624Z" fill="#FF5122"/>
<path d="M10.5078 3.01624H9.58398V4.65053H10.5078V3.01624Z" fill="#2D2D2D"/>
<path d="M11.7514 3.01624H10.8276V4.65053H11.7514V3.01624Z" fill="#2D2D2D"/>
<path d="M5.53414 4.97107H4.61035V6.60537H5.53414V4.97107Z" fill="#2D2D2D"/>
<path d="M6.7773 4.97107H5.85352V6.60537H6.7773V4.97107Z" fill="#FF5122"/>
<path d="M8.02095 4.97107H7.09717V6.60537H8.02095V4.97107Z" fill="#2D2D2D"/>
<path d="M9.2646 4.97107H8.34082V6.60537H9.2646V4.97107Z" fill="#FF5122"/>
<path d="M10.5078 4.97107H9.58398V6.60537H10.5078V4.97107Z" fill="#FF5122"/>
<path d="M11.7514 4.97107H10.8276V6.60537H11.7514V4.97107Z" fill="#FF5122"/>
<path d="M5.53414 6.92578H4.61035V8.56008H5.53414V6.92578Z" fill="#FF5122"/>
<path d="M6.7773 6.92578H5.85352V8.56008H6.7773V6.92578Z" fill="#FF5122"/>
<path d="M8.02095 6.92578H7.09717V8.56008H8.02095V6.92578Z" fill="#FF5122"/>
<path d="M9.2646 6.92578H8.34082V8.56008H9.2646V6.92578Z" fill="#2D2D2D"/>
<path d="M10.5078 6.92578H9.58398V8.56008H10.5078V6.92578Z" fill="#FF5122"/>
<path d="M11.7514 6.92578H10.8276V8.56008H11.7514V6.92578Z" fill="#FF5122"/>
<path d="M23.6374 4.65028C23.6377 5.41778 23.4104 6.16813 22.9842 6.80642C22.558 7.44471 21.9521 7.94228 21.2431 8.23619C20.5341 8.53009 19.7539 8.60714 19.0011 8.45758C18.2483 8.30802 17.5568 7.93858 17.014 7.39597C16.4712 6.85337 16.1015 6.16198 15.9516 5.40925C15.8018 4.65651 15.8785 3.87625 16.1722 3.16715C16.4658 2.45804 16.9632 1.85195 17.6013 1.42552C18.2394 0.999087 18.9897 0.771484 19.7572 0.771484C20.786 0.771484 21.7728 1.1801 22.5004 1.90747C23.2281 2.63485 23.6371 3.62142 23.6374 4.65028Z" fill="#F9B40C"/>
<path d="M19.5985 1.96106C19.0665 1.961 18.5463 2.11871 18.1039 2.41426C17.6615 2.70981 17.3167 3.12991 17.1131 3.62145C16.9094 4.11298 16.8561 4.65386 16.9599 5.17569C17.0636 5.69752 17.3198 6.17685 17.696 6.55308C18.0722 6.92932 18.5515 7.18555 19.0733 7.28937C19.5951 7.39319 20.136 7.33993 20.6276 7.13634C21.1191 6.93275 21.5393 6.58796 21.8349 6.14558C22.1305 5.7032 22.2882 5.18311 22.2882 4.65107C22.2883 4.29782 22.2187 3.94804 22.0836 3.62167C21.9484 3.2953 21.7503 2.99875 21.5005 2.74895C21.2508 2.49916 20.9542 2.30101 20.6279 2.16582C20.3015 2.03063 19.9517 1.96106 19.5985 1.96106ZM19.5985 5.92753V3.37548C19.9336 3.38051 20.2533 3.51716 20.4885 3.75591C20.7237 3.99466 20.8555 4.31636 20.8555 4.6515C20.8555 4.98665 20.7237 5.30833 20.4885 5.54708C20.2533 5.78584 19.9336 5.9225 19.5985 5.92753Z" fill="#FF5122"/>
<path d="M19.5986 3.375V5.92705C19.9337 5.92202 20.2534 5.78536 20.4886 5.5466C20.7238 5.30785 20.8556 4.98617 20.8556 4.65102C20.8556 4.31588 20.7238 3.99419 20.4886 3.75543C20.2534 3.51668 19.9337 3.38003 19.5986 3.375Z" fill="#662D20"/>
<path d="M19.5988 2.78894C19.2305 2.78888 18.8705 2.89805 18.5642 3.10264C18.2579 3.30723 18.0192 3.59805 17.8782 3.93832C17.7372 4.27859 17.7003 4.65304 17.7721 5.0143C17.8439 5.37555 18.0212 5.7074 18.2817 5.96787C18.5421 6.22833 18.8739 6.40572 19.2352 6.4776C19.5964 6.54947 19.9708 6.5126 20.3111 6.37166C20.6514 6.23072 20.9423 5.99205 21.1469 5.6858C21.3516 5.37955 21.4608 5.0195 21.4608 4.65117C21.4608 4.15733 21.2646 3.6837 20.9155 3.33447C20.5663 2.98525 20.0927 2.78902 19.5988 2.78894Z" fill="#61B42B"/>
<path d="M19.7105 2.72449H19.4883V3.47036H19.7105V2.72449Z" fill="white"/>
<path d="M19.881 1.74011H19.3174V2.70701H19.881V1.74011Z" fill="#474646"/>
<path d="M20.81 1.98799L20.3267 2.82544L20.8151 3.10732L21.2984 2.26987L20.81 1.98799Z" fill="#474646"/>
<path d="M21.9839 2.93979L21.1465 3.4231L21.4282 3.91128L22.2657 3.42798L21.9839 2.93979Z" fill="#474646"/>
<path d="M21.5435 4.93282V4.3689H22.5104L22.5101 4.93282H21.5435Z" fill="#474646"/>
<path d="M21.4243 5.3828L21.1426 5.87097L21.98 6.35428L22.2618 5.8661L21.4243 5.3828Z" fill="#474646"/>
<path d="M20.8179 6.18792L20.3296 6.46997L20.8132 7.30725L21.3015 7.0252L20.8179 6.18792Z" fill="#474646"/>
<path d="M19.881 6.59497H19.3174V7.56187H19.881V6.59497Z" fill="#474646"/>
<path d="M18.3835 6.19458L17.8999 7.03186L18.3882 7.31391L18.8718 6.47663L18.3835 6.19458Z" fill="#474646"/>
<path d="M17.7711 5.38867L16.9336 5.87183L17.2152 6.36005L18.0528 5.87689L17.7711 5.38867Z" fill="#474646"/>
<path d="M17.6556 4.3689H16.689V4.93254H17.6556V4.3689Z" fill="#474646"/>
<path d="M17.2195 2.94998L16.9375 3.43835L17.7748 3.9218L18.0568 3.43343L17.2195 2.94998Z" fill="#474646"/>
<path d="M18.3861 1.99475L17.8979 2.27649L18.3813 3.11394L18.8694 2.8322L18.3861 1.99475Z" fill="#474646"/>
<path d="M19.5985 3.375C19.3461 3.37489 19.0993 3.44963 18.8894 3.58978C18.6794 3.72994 18.5158 3.92922 18.4191 4.1624C18.3224 4.39558 18.2971 4.65219 18.3462 4.89978C18.3954 5.14737 18.5169 5.37481 18.6954 5.55334C18.8738 5.73187 19.1012 5.85348 19.3488 5.90277C19.5963 5.95206 19.853 5.92681 20.0862 5.83024C20.3194 5.73367 20.5187 5.5701 20.659 5.36023C20.7992 5.15035 20.8741 4.90359 20.8741 4.65116C20.8742 4.4836 20.8413 4.31767 20.7772 4.16284C20.7131 4.00801 20.6192 3.86732 20.5007 3.74881C20.3822 3.6303 20.2416 3.53629 20.0868 3.47215C19.932 3.40801 19.7661 3.375 19.5985 3.375Z" fill="#662D20"/>
<path d="M19.9393 4.65113C19.9396 4.71841 19.9198 4.78423 19.8826 4.84029C19.8454 4.89634 19.7924 4.94011 19.7304 4.96604C19.6683 4.99196 19.5999 4.99889 19.5339 4.98595C19.4679 4.97301 19.4072 4.94077 19.3595 4.89332C19.3118 4.84587 19.2792 4.78535 19.266 4.7194C19.2527 4.65344 19.2593 4.58504 19.2849 4.52283C19.3105 4.46062 19.354 4.40741 19.4099 4.36992C19.4657 4.33244 19.5314 4.31237 19.5987 4.31226C19.6888 4.3121 19.7753 4.34771 19.8391 4.41124C19.903 4.47478 19.939 4.56105 19.9393 4.65113Z" fill="#FCD626"/>
<path d="M19.7421 3.67793C19.7404 3.63849 19.7236 3.60122 19.695 3.57391C19.6665 3.5466 19.6286 3.53137 19.5891 3.53137C19.5496 3.53137 19.5116 3.5466 19.4831 3.57391C19.4546 3.60122 19.4377 3.63849 19.436 3.67793C19.4363 3.70356 19.4431 3.72868 19.4558 3.75095C19.4685 3.77323 19.4866 3.79191 19.5085 3.80525V4.41373H19.6694V3.80525C19.6914 3.79196 19.7096 3.7733 19.7223 3.75102C19.735 3.72875 19.7418 3.70359 19.7421 3.67793Z" fill="#FCD626"/>
<path d="M19.7421 5.62862C19.7404 5.66806 19.7236 5.70534 19.695 5.73264C19.6665 5.75995 19.6286 5.7752 19.5891 5.7752C19.5496 5.7752 19.5116 5.75995 19.4831 5.73264C19.4546 5.70534 19.4377 5.66806 19.436 5.62862C19.4363 5.603 19.4431 5.57787 19.4558 5.5556C19.4685 5.53333 19.4866 5.51465 19.5085 5.5013V4.89282H19.6694V5.5013C19.6914 5.51459 19.7096 5.53325 19.7223 5.55553C19.735 5.57781 19.7418 5.60296 19.7421 5.62862Z" fill="#FCD626"/>
<path d="M20.5653 4.80637C20.5859 4.80727 20.6066 4.80398 20.6259 4.79669C20.6453 4.7894 20.6629 4.77827 20.6779 4.76397C20.6928 4.74967 20.7047 4.73249 20.7128 4.71348C20.7209 4.69446 20.7251 4.674 20.7251 4.65333C20.7251 4.63265 20.7209 4.61218 20.7128 4.59316C20.7047 4.57414 20.6928 4.55696 20.6779 4.54266C20.6629 4.52836 20.6453 4.51724 20.6259 4.50995C20.6066 4.50266 20.5859 4.49937 20.5653 4.50027C20.5397 4.50056 20.5146 4.50738 20.4923 4.52011C20.4701 4.53284 20.4515 4.55104 20.4382 4.57298H19.8286V4.73394H20.4374C20.4507 4.75597 20.4695 4.77421 20.4919 4.78689C20.5143 4.79958 20.5395 4.80628 20.5653 4.80637Z" fill="#FCD626"/>
<path d="M18.6149 4.80637C18.5943 4.80727 18.5736 4.80398 18.5543 4.79669C18.5349 4.7894 18.5173 4.77827 18.5023 4.76397C18.4874 4.74967 18.4755 4.73249 18.4674 4.71348C18.4593 4.69446 18.4551 4.674 18.4551 4.65333C18.4551 4.63265 18.4593 4.61218 18.4674 4.59316C18.4755 4.57414 18.4874 4.55696 18.5023 4.54266C18.5173 4.52836 18.5349 4.51724 18.5543 4.50995C18.5736 4.50266 18.5943 4.49937 18.6149 4.50027C18.6405 4.50058 18.6656 4.50743 18.6879 4.52015C18.7101 4.53288 18.7287 4.55105 18.7419 4.57298H19.3504V4.73394H18.7419C18.7287 4.75583 18.7101 4.77398 18.6878 4.78665C18.6656 4.79933 18.6405 4.80611 18.6149 4.80637Z" fill="#FCD626"/>
<path d="M19.5988 2.50146C19.1738 2.50141 18.7583 2.62738 18.4049 2.86344C18.0515 3.09951 17.7761 3.43506 17.6134 3.82768C17.4507 4.22029 17.4081 4.65234 17.4909 5.06918C17.5738 5.48601 17.7784 5.86892 18.0789 6.16948C18.3793 6.47003 18.7622 6.67473 19.179 6.7577C19.5958 6.84067 20.0279 6.79817 20.4205 6.63559C20.8132 6.473 21.1488 6.19763 21.385 5.8443C21.6211 5.49096 21.7472 5.07553 21.7473 4.65054C21.7466 4.08088 21.52 3.53474 21.1173 3.13188C20.7145 2.72901 20.1684 2.5023 19.5988 2.50146ZM19.5988 6.51248C19.2304 6.51253 18.8704 6.40337 18.5641 6.19877C18.2578 5.99416 18.0191 5.70332 17.8781 5.36303C17.7371 5.02274 17.7002 4.64829 17.772 4.28702C17.8439 3.92576 18.0212 3.59392 18.2817 3.33347C18.5422 3.07301 18.874 2.89564 19.2353 2.82379C19.5965 2.75195 19.971 2.78885 20.3113 2.92984C20.6516 3.07082 20.9424 3.30956 21.147 3.61584C21.3516 3.92213 21.4608 4.28221 21.4607 4.65054C21.4608 4.89511 21.4127 5.13729 21.3192 5.36325C21.2256 5.58922 21.0885 5.79455 20.9156 5.96751C20.7427 6.14046 20.5374 6.27767 20.3115 6.37128C20.0855 6.46488 19.8433 6.51305 19.5988 6.51305V6.51248Z" fill="white"/>
<path d="M19.5987 1.47852C18.9712 1.47846 18.3578 1.66447 17.836 2.01305C17.3142 2.36162 16.9075 2.8571 16.6674 3.43681C16.4272 4.01652 16.3643 4.65443 16.4867 5.26988C16.6091 5.88532 16.9112 6.45065 17.3549 6.89437C17.7986 7.3381 18.3639 7.64029 18.9793 7.76273C19.5948 7.88517 20.2327 7.82235 20.8124 7.58223C21.3921 7.34211 21.8877 6.93547 22.2363 6.41374C22.5849 5.892 22.771 5.2786 22.771 4.65111C22.7711 4.23447 22.6891 3.82189 22.5297 3.43694C22.3704 3.05199 22.1367 2.70222 21.8421 2.40759C21.5475 2.11297 21.1977 1.87928 20.8128 1.71987C20.4279 1.56045 20.0153 1.47844 19.5987 1.47852ZM19.5987 7.34199C19.0666 7.34205 18.5465 7.18432 18.1041 6.88876C17.6617 6.5932 17.3168 6.17308 17.1132 5.68153C16.9096 5.18999 16.8563 4.64909 16.96 4.12725C17.0638 3.60541 17.32 3.12607 17.6963 2.74985C18.0725 2.37363 18.5518 2.11742 19.0737 2.01363C19.5955 1.90985 20.1364 1.96314 20.6279 2.16678C21.1195 2.37041 21.5396 2.71525 21.8352 3.15767C22.1307 3.60008 22.2885 4.1202 22.2884 4.65226C22.2881 5.36542 22.0046 6.04926 21.5002 6.55344C20.9958 7.05761 20.3118 7.34084 19.5987 7.34084V7.34199Z" fill="#D17D30"/>
</g>
<defs>
<clipPath id="clip0_1232_9411">
<rect width="24" height="11.576" fill="white"/>
</clipPath>
</defs>
</svg>
