<svg width="26" height="23" viewBox="0 0 26 23" fill="none" xmlns="http://www.w3.org/2000/svg">
<g clip-path="url(#clip0_1232_5891)">
<path d="M14.4985 20.8354C12.6636 21.3068 10.7615 21.4596 8.87494 21.2872C8.33472 21.2374 7.75393 21.1397 7.37227 20.723C6.90027 20.2076 6.89473 19.3778 7.04408 18.6707C7.32617 17.3311 8.03971 16.1325 8.90721 15.1285C9.79582 14.1051 10.8593 13.2478 12.0481 12.5968L15.4674 13.4044C15.6877 13.4561 15.9283 13.5188 16.0694 13.705C16.2537 13.9447 16.2252 14.2987 16.1791 14.6085C15.849 16.7395 15.2854 18.8278 14.4985 20.8354Z" fill="#30344A"/>
<path d="M20.0282 19.0883C20.0264 19.112 20.0221 19.1355 20.0153 19.1584C19.9406 19.4174 19.5903 19.5207 19.3045 19.5594L15.7811 20.0398C15.4879 19.2911 15.2114 18.5379 15.0556 17.7865C15.0021 17.5302 14.9486 17.2674 14.9919 17.0102C15.0353 16.753 15.1975 16.4976 15.4529 16.4229C15.7995 16.3196 16.1379 16.5824 16.4172 16.812L16.4458 16.835C17.3248 17.5497 18.3202 18.108 19.3884 18.4853C19.6871 18.5904 20.0559 18.7721 20.0282 19.0883Z" fill="#734943"/>
<path d="M20.0281 19.0882C20.0263 19.112 20.022 19.1355 20.0152 19.1583C18.6355 18.4476 17.1608 17.9393 15.6362 17.6491C15.7911 17.2839 16.0806 16.9923 16.4447 16.835C17.3238 17.5497 18.3192 18.1079 19.3874 18.4853C19.687 18.5904 20.0558 18.772 20.0281 19.0882Z" fill="#996A59"/>
<path d="M8.40594 12.5092C8.12937 12.8522 7.86203 13.2044 7.61404 13.5639C7.15099 14.2223 6.75768 14.9271 6.44047 15.6669C5.77303 15.6199 5.10466 15.5747 4.51465 15.4014C4.75717 14.2734 5.1229 13.1756 5.60524 12.1275C5.70757 11.9072 5.81544 11.6887 5.93067 11.4701C6.39913 11.3947 6.87934 11.4521 7.31685 11.6357C7.75436 11.8194 8.13165 12.122 8.40594 12.5092Z" fill="#FFD4C4"/>
<path d="M7.60916 13.5639C7.61285 13.4668 7.61101 13.3695 7.60364 13.2726C7.58867 12.9397 7.46532 12.6208 7.25239 12.3645C7.12251 12.228 6.9646 12.1213 6.78954 12.0518C6.61447 11.9822 6.42642 11.9514 6.23832 11.9616C6.01809 11.973 5.80254 12.0295 5.60498 12.1275C5.70731 11.9072 5.81517 11.6887 5.93041 11.4701C6.39886 11.3947 6.87907 11.4521 7.31658 11.6357C7.75409 11.8194 8.13139 12.122 8.40568 12.5092C8.12358 12.854 7.85715 13.2044 7.60916 13.5639Z" fill="#EDAB9F"/>
<path d="M7.28281 5.58887C6.39688 6.01481 6.43283 7.34705 6.3305 8.32064C6.22817 9.29423 6.13967 10.3241 5.72021 11.0782C6.65105 11.1811 7.53315 11.5477 8.26278 12.1348C8.68698 11.6668 9.00609 11.1134 9.19865 10.5118C9.39122 9.91022 9.45278 9.27437 9.37919 8.64701C9.3009 8.00641 9.06952 7.39407 8.70462 6.86178C8.33973 6.32948 7.85205 5.89287 7.28281 5.58887Z" fill="#8ADBD5"/>
<path d="M8.21592 12.8687C7.92159 12.4558 7.51674 12.1343 7.0479 11.9412C6.8193 11.8497 6.57414 11.807 6.32809 11.8157C6.08203 11.8245 5.84051 11.8845 5.61897 11.9919C5.53657 11.94 5.47067 11.8657 5.42903 11.7777C5.38739 11.6897 5.37173 11.5916 5.38389 11.495C5.4097 11.2949 5.78583 10.8902 5.71946 10.7021C6.23927 10.465 6.82369 10.4094 7.37885 10.5444C8.02418 10.6827 8.73403 11.0976 8.88614 11.8167C8.70176 11.9808 8.63078 11.944 8.60036 12.1975C8.59741 12.3369 8.5798 12.4757 8.54781 12.6115C8.52339 12.6819 8.47901 12.7437 8.42009 12.7894C8.36116 12.8351 8.29023 12.8626 8.21592 12.8687Z" fill="#AEEBE1"/>
<path d="M4.84526 15.1865C4.40732 15.3803 4.02414 15.6795 3.72993 16.0574C3.43572 16.4352 3.23962 16.8801 3.15913 17.3522C3.14162 17.4268 3.14162 17.5044 3.15913 17.579C3.16888 17.616 3.18943 17.6493 3.21816 17.6746C3.2469 17.6999 3.28251 17.716 3.32046 17.721C3.41265 17.721 3.48548 17.6399 3.54079 17.5633C3.74176 17.2821 3.94273 17.0019 4.16306 16.7068C3.99808 17.1372 3.92979 17.5987 3.96302 18.0584C3.96407 18.148 3.98617 18.2362 4.02755 18.3157C4.049 18.355 4.08191 18.387 4.12192 18.4072C4.16192 18.4275 4.20713 18.4351 4.25157 18.4291C4.37971 18.4005 4.42396 18.2447 4.47927 18.0603C4.49407 18.1265 4.52686 18.1874 4.57403 18.2362C4.6212 18.285 4.68092 18.3198 4.74662 18.3369C4.88029 18.3599 5.03056 18.2327 5.05914 18.0723C5.08616 18.1269 5.13359 18.1688 5.1912 18.1888C5.2488 18.2088 5.31196 18.2054 5.36705 18.1792C5.42091 18.1504 5.4676 18.1098 5.50367 18.0605C5.53973 18.0112 5.56424 17.9544 5.5754 17.8943C5.59603 17.7741 5.60467 17.6521 5.60121 17.5301C5.60419 17.3967 5.6237 17.2642 5.65929 17.1355C5.96544 16.9968 6.21448 16.7569 6.36453 16.4561C6.44046 16.3145 6.48623 16.1588 6.49892 15.9987C6.51162 15.8385 6.49096 15.6775 6.43828 15.5258C5.9377 15.4548 5.44357 15.3294 4.84526 15.1865Z" fill="#FFD4C4"/>
<path d="M25.9851 21.4706C25.9629 21.5383 25.9239 21.5992 25.8716 21.6476C25.8193 21.696 25.7556 21.7303 25.6865 21.7472C25.5234 21.7927 25.3536 21.809 25.185 21.7952L22.1418 21.6228L21.6421 21.5942C21.4983 20.8022 21.3711 20.0112 21.3656 19.2432C21.3656 19.1842 21.3656 19.1261 21.3656 19.0671C21.3593 18.8641 21.3887 18.6616 21.4522 18.4687C21.4905 18.3669 21.5474 18.2731 21.62 18.1922C21.7192 18.0739 21.8596 17.9978 22.0127 17.9792C22.3732 17.9442 22.6581 18.2668 22.8848 18.5453C23.616 19.4275 24.4947 20.1762 25.4818 20.758C25.7455 20.9175 26.0727 21.1664 25.9851 21.4706Z" fill="#835F53"/>
<path d="M25.9851 21.4706C25.9629 21.5383 25.9238 21.5992 25.8716 21.6476C25.8193 21.6959 25.7556 21.7302 25.6864 21.7472C25.5887 21.5285 25.4398 21.3365 25.2522 21.1876C24.8899 20.8981 24.4428 20.734 24.0704 20.4583C23.5385 20.0674 23.1928 19.4801 22.7567 18.9831C22.4479 18.6328 22.0487 18.3129 21.6099 18.1912C21.709 18.073 21.8494 17.9968 22.0026 17.9782C22.363 17.9432 22.6479 18.2659 22.8747 18.5443C23.6059 19.4265 24.4845 20.1752 25.4717 20.757C25.7455 20.9174 26.0727 21.1663 25.9851 21.4706Z" fill="#A37F6D"/>
<path d="M22.142 21.6227L21.6423 21.5941C21.4985 20.8021 21.3713 20.0111 21.3657 19.2431C21.3657 19.1841 21.3657 19.126 21.3657 19.067C21.7268 19.3658 21.9792 19.7755 22.0839 20.2324C22.1816 20.6892 22.2012 21.1593 22.142 21.6227Z" fill="#735046"/>
<path d="M21.8397 21.9334C20.1277 22.0929 14.9255 22.3879 13.7649 22.3879H13.7529C13.0366 22.3142 12.253 21.8191 12.2244 21.0972C12.1645 19.5796 12.6853 18.0676 13.4182 16.6847C13.5448 16.448 13.6764 16.2154 13.8128 15.9868C13.0421 15.6843 12.3839 15.3027 11.9284 14.7191C11.8602 14.6316 11.7985 14.5391 11.7441 14.4425C11.4223 13.8893 11.3154 13.1987 11.6159 12.6437C14.0128 13.1453 16.6531 12.5377 18.6914 11.4304C18.909 12.6188 18.9578 13.6625 18.7901 14.6785C18.6186 15.7194 17.8958 17.697 17.2127 18.807C18.8555 18.4576 19.5008 18.5194 21.3612 18.346C21.9254 19.1555 22.142 21.0455 21.8397 21.9334Z" fill="#40455A"/>
<path d="M18.7891 14.6823C17.0974 15.1949 15.238 15.0925 13.4726 14.8243C12.8869 14.7448 12.3085 14.6183 11.7431 14.4462C11.4213 13.8931 11.3144 13.2025 11.615 12.6475C14.0119 13.1491 16.6521 12.5415 18.6904 11.4342C18.908 12.6226 18.9569 13.6663 18.7891 14.6823Z" fill="#30344A"/>
<path d="M16.5044 20.6906C16.8343 20.1735 17.0752 19.6048 17.217 19.0081C17.2485 19.3257 17.1998 19.6463 17.0753 19.9402C16.9508 20.2342 16.7545 20.4922 16.5044 20.6906Z" fill="#30344A"/>
<path d="M17.3193 19.0135C17.5351 19.5783 17.5479 20.2005 17.3553 20.7736C17.5109 20.505 17.5898 20.1989 17.5835 19.8885C17.5771 19.5782 17.4858 19.2756 17.3193 19.0135Z" fill="#30344A"/>
<path d="M19.9116 19.3906C20.2595 19.5017 20.5627 19.721 20.7772 20.0165C20.9916 20.3121 21.106 20.6684 21.1036 21.0336C20.9121 20.5546 20.636 20.114 20.2887 19.7327C20.178 19.6031 20.0513 19.4881 19.9116 19.3906Z" fill="#30344A"/>
<path d="M20.7842 19.1749C21.0471 19.4479 21.2287 19.7888 21.3085 20.1594C21.3883 20.5299 21.3631 20.9154 21.2359 21.2724C21.27 20.5745 21.0856 19.8664 20.7842 19.1749Z" fill="#30344A"/>
<path d="M13.7649 22.3879H13.7529C13.0366 22.3142 12.253 21.8191 12.2244 21.0972C12.1645 19.5797 12.6854 18.0676 13.4183 16.6847C13.1195 17.7598 12.8938 18.8539 12.7425 19.9595C12.6706 20.4841 12.6199 21.0437 12.8458 21.5268C13.0444 21.9107 13.3689 22.2147 13.7649 22.3879Z" fill="#515970"/>
<path d="M19.1723 13.6938C17.2484 14.6112 12.9035 14.8924 10.3333 13.5509C10.5831 13.1416 10.9343 12.7322 11.08 12.3847C11.1154 12.3052 11.1375 12.2205 11.1455 12.1339C11.1777 11.6729 10.0549 10.2144 9.35884 9.6999C8.83059 9.30991 8.23229 9.02134 7.71604 8.6166C7.19978 8.21186 6.75451 7.64485 6.71395 6.99026C6.67154 6.30893 7.0827 5.66264 7.62293 5.24499C8.16315 4.82734 8.82138 4.59962 9.49067 4.32303C11.1869 3.77446 13.984 3.86758 15.9439 5.20627C16.6021 5.65526 17.3986 6.8658 18.0578 8.70234C18.6177 10.3184 18.9917 11.9931 19.1723 13.6938Z" fill="#6CC5C3"/>
<path d="M19.1726 13.6939C17.2486 14.6113 12.9037 14.8925 10.3335 13.551C10.5833 13.1417 10.9346 12.7323 11.0802 12.3847C12.0195 12.9172 13.0915 13.1697 14.1696 13.1125C15.2477 13.0553 16.287 12.6908 17.1647 12.0621C16.2103 12.3963 15.1661 12.3668 14.2322 11.9791C14.8904 11.8573 15.5179 11.6059 16.0781 11.2395C16.6383 10.8731 17.1202 10.399 17.4956 9.84474C17.7319 9.49089 17.9213 9.10784 18.0589 8.7052C18.6184 10.3204 18.992 11.9941 19.1726 13.6939Z" fill="#5AB4B8"/>
<path d="M12.3919 4.03813C12.6853 4.63504 12.8041 5.30263 12.7349 5.96411C12.6372 6.74593 12.1937 7.50009 11.5005 7.87533C10.8072 8.25057 9.87427 8.18511 9.3027 7.643C9.01876 7.37471 8.84176 7.01606 8.67121 6.66203C8.58548 6.47764 8.50067 6.27481 8.55967 6.08212C8.61867 5.88943 8.78552 5.77879 8.94501 5.67369C9.79591 5.11222 10.6653 4.57748 11.6627 4.01416" fill="#3C99A3"/>
<path d="M11.9846 4.11926C12.1201 4.63095 12.2612 5.14909 12.2612 5.67922C12.2612 6.20935 12.1257 6.75884 11.768 7.14975C11.3476 7.61073 10.6617 7.78406 10.056 7.63101C9.75529 7.54738 9.47633 7.39934 9.23851 7.19716C9.00068 6.99498 8.80967 6.74348 8.67871 6.46012C9.82946 5.75113 10.9337 4.96925 11.9846 4.11926Z" fill="#EDAB9F"/>
<path d="M6.36824 4.54896C6.39128 4.22535 6.78769 3.98933 7.25325 4.02252C7.7188 4.05571 8.07741 4.34429 8.05528 4.66789C8.03316 4.9915 7.63583 5.2266 7.17027 5.19433C6.70472 5.16206 6.34519 4.87257 6.36824 4.54896Z" fill="#EDAB9F"/>
<path d="M11.6783 3.12545C11.2828 1.53599 9.911 0.508932 8.61391 0.831618C7.31681 1.1543 6.67794 2.68384 6.98032 4.29358C7.27717 5.8729 8.03865 7.21158 9.79024 6.80684C11.0929 6.50536 12.0728 4.71491 11.6783 3.12545Z" fill="#FFD4C4"/>
<path d="M11.07 3.23978C10.5977 3.05242 10.2084 2.70169 9.97293 2.25144C9.62154 2.5412 9.20479 2.74088 8.7588 2.83319C8.64547 2.86119 8.52791 2.86776 8.41217 2.85255C8.35199 2.84547 8.29475 2.82265 8.24619 2.78639C8.19764 2.75014 8.15949 2.70173 8.1356 2.64603C7.78864 2.89563 7.3624 3.00974 6.93715 2.96688L6.89844 2.25236C8.05929 1.87092 9.19804 1.42523 10.3094 0.917358C10.6395 1.52862 10.9704 2.13896 11.07 3.23978Z" fill="#EDAB9F"/>
<path d="M12.1737 3.42046C11.9347 3.46862 11.7162 3.58897 11.5477 3.76528C10.8701 3.34302 10.3714 2.64233 10.1326 1.81257C9.92176 2.0051 9.69371 2.17792 9.45134 2.32886C9.20761 2.48038 8.92944 2.56761 8.64284 2.5824C8.54638 2.59071 8.44973 2.5688 8.36628 2.51971C8.28792 2.46531 8.23998 2.35652 8.28515 2.28737C7.74216 2.61006 7.15307 2.94381 6.52343 2.89679C6.40197 2.89272 6.28333 2.85919 6.17772 2.79906C6.14706 2.77989 6.11914 2.75663 6.09475 2.72992C6.03443 2.66947 5.99919 2.58845 5.99611 2.50311C6.00016 2.43803 6.02395 2.37572 6.0643 2.3245C6.10465 2.27327 6.15965 2.23556 6.22197 2.21638C6.08539 2.16641 5.97364 2.06522 5.91037 1.93426C5.84868 1.80399 5.81418 1.66251 5.80897 1.51846C5.77463 1.36151 5.80384 1.19734 5.89022 1.06188C5.97661 0.926422 6.11313 0.830694 6.26991 0.795643C6.52708 0.706707 6.79963 0.670949 7.07103 0.69054C7.02033 0.484943 7.16322 0.271048 7.35497 0.17332C7.55108 0.0897909 7.76335 0.0510493 7.97632 0.0599179L9.68643 0.00275685C9.91967 -0.00461883 10.1649 -0.0101506 10.376 0.0949529C10.4489 0.131223 10.5143 0.180962 10.5687 0.241544C10.6875 0.376125 10.7635 0.543014 10.7872 0.720963C11.0388 0.544869 11.4094 0.673023 11.6003 0.913654C11.7911 1.15429 11.8464 1.47144 11.8962 1.77384L12.1737 3.42046Z" fill="#73323B"/>
<path d="M12.0898 4.28782C12.4698 4.0592 12.6336 3.63405 12.4556 3.33823C12.2777 3.0424 11.8254 2.98793 11.4454 3.21654C11.0654 3.44516 10.9016 3.87031 11.0795 4.16613C11.2575 4.46195 11.7098 4.51644 12.0898 4.28782Z" fill="#FFD4C4"/>
<path d="M10.5722 0.237857C9.68234 0.132958 8.78035 0.217477 7.92546 0.485865C7.80846 0.515535 7.69828 0.567498 7.60096 0.638909C7.50368 0.722494 7.44065 0.839034 7.42395 0.966205C7.09117 0.903912 6.74721 0.972975 6.46427 1.15889C6.37188 1.21341 6.29155 1.28615 6.22816 1.37269C6.16476 1.45923 6.11963 1.55776 6.09551 1.66229C6.08056 1.77902 6.10645 1.89734 6.16879 1.99715C6.23113 2.09697 6.32608 2.17215 6.43753 2.20993C6.3458 2.26652 6.2674 2.34229 6.20773 2.43205C6.14805 2.52181 6.10851 2.62343 6.09183 2.72992C6.0315 2.66947 5.99627 2.58845 5.99318 2.50311C5.99723 2.43803 6.02102 2.37572 6.06137 2.3245C6.10172 2.27327 6.15672 2.23556 6.21905 2.21638C6.08247 2.16641 5.97071 2.06522 5.90745 1.93426C5.84576 1.80399 5.81125 1.66251 5.80604 1.51846C5.77169 1.36151 5.80091 1.19734 5.8873 1.06188C5.97368 0.926422 6.1102 0.830694 6.26698 0.795644C6.52415 0.706707 6.7967 0.670949 7.0681 0.69054C7.0174 0.484943 7.16029 0.271048 7.35204 0.17332C7.54815 0.0897909 7.76043 0.0510493 7.9734 0.059918L9.6835 0.00275685C9.91673 -0.00461883 10.162 -0.0101506 10.3731 0.0949529C10.448 0.129429 10.5156 0.177938 10.5722 0.237857Z" fill="#944B50"/>
<path d="M11.5733 6.39469C11.4482 6.72907 11.2362 7.02408 10.9593 7.24935C10.5463 7.59324 9.93137 7.85508 9.086 7.80252C8.78913 7.78365 8.50158 7.69139 8.24913 7.53402C7.99669 7.37665 7.78723 7.15909 7.63955 6.90085C7.49895 6.64823 7.38289 6.38272 7.29294 6.10796C7.14746 5.6534 7.03893 5.18783 6.96843 4.7158C6.87624 4.17276 6.84766 2.84145 6.84766 2.84145C6.84766 2.84145 6.93985 2.91337 7.03203 2.77231C6.95091 4.85409 7.42015 5.50869 7.95392 6.03881C7.82578 5.38606 8.23049 5.24685 8.73937 5.18231C9.77096 5.05324 10.3241 5.04125 10.5398 5.74471C11.2884 5.16479 11.387 4.0944 11.0008 3.13464C11.1907 3.12542 11.4276 2.13062 11.624 2.88386C11.6701 3.07379 12.1522 4.70566 11.5733 6.39469Z" fill="#73323B"/>
<path d="M10.9593 7.24942C10.5463 7.59331 9.93141 7.85515 9.08604 7.8026C8.78916 7.78372 8.50161 7.69146 8.24917 7.53409C7.99672 7.37672 7.78727 7.15916 7.63959 6.90092C7.49899 6.6483 7.38292 6.38279 7.29297 6.10803C7.36441 6.24837 7.44446 6.38416 7.53266 6.51462C7.75828 6.86575 8.0776 7.14678 8.45455 7.32594C8.80616 7.46437 9.18349 7.52538 9.56081 7.5048C10.0384 7.50267 10.5118 7.41622 10.9593 7.24942Z" fill="#944B50"/>
<path d="M9.45557 3.50164C9.60122 3.36344 9.79156 3.282 9.9921 3.27207C10.2027 3.26597 10.4084 3.33565 10.572 3.46845C10.4783 3.34313 10.362 3.23649 10.229 3.15406C10.1625 3.11309 10.0883 3.08593 10.011 3.07421C9.93374 3.06249 9.85488 3.06645 9.77915 3.08584C9.62888 3.13009 9.5035 3.26562 9.45557 3.50164Z" fill="#73323B"/>
<path d="M7.17152 3.74868C7.23777 3.67703 7.31843 3.62019 7.4082 3.58189C7.49796 3.5436 7.59481 3.52472 7.69238 3.52649C7.8754 3.53245 8.04907 3.60873 8.1773 3.73946C8.09642 3.59454 7.98354 3.46999 7.84726 3.37529C7.78043 3.32984 7.70356 3.3013 7.62327 3.29215C7.54297 3.283 7.46165 3.29349 7.38631 3.32274C7.3081 3.35957 7.24447 3.42151 7.20555 3.4987C7.16662 3.57589 7.15463 3.66389 7.17152 3.74868Z" fill="#73323B"/>
<path d="M9.66162 4.1876C9.73998 4.1627 9.83494 4.24107 9.87366 4.36185C9.91238 4.48262 9.88011 4.60248 9.80175 4.62737C9.72339 4.65227 9.62751 4.5739 9.58971 4.45312C9.55191 4.33235 9.58326 4.20972 9.66162 4.1876Z" fill="#2C3C4D"/>
<path d="M7.95769 4.32578C8.03605 4.30089 8.13099 4.37925 8.16971 4.50003C8.20843 4.62081 8.17618 4.74066 8.09782 4.76556C8.01945 4.79045 7.92357 4.71208 7.88485 4.59131C7.84613 4.47053 7.87933 4.35067 7.95769 4.32578Z" fill="#2C3C4D"/>
<path d="M8.48486 5.741C8.96982 5.70116 9.43899 5.5497 9.85571 5.29846C9.89575 5.42109 9.90268 5.55212 9.87579 5.67829C9.8489 5.80446 9.78915 5.92128 9.70259 6.01692C9.61604 6.11256 9.50574 6.18363 9.38288 6.22293C9.26002 6.26223 9.12896 6.26836 9.00296 6.24071C8.87848 6.2143 8.76391 6.15345 8.67231 6.0651C8.58071 5.97676 8.51576 5.86446 8.48486 5.741Z" fill="white"/>
<path d="M8.48438 4.35718C8.55378 4.51043 8.58115 4.67941 8.56366 4.84674C8.54812 4.90499 8.55538 4.96698 8.58395 5.02007C8.59787 5.03621 8.61566 5.04857 8.63564 5.05598C8.65563 5.0634 8.67717 5.06563 8.69826 5.06248C8.74029 5.05574 8.78046 5.04036 8.81625 5.0173" fill="#FFD4C4"/>
<path d="M8.48438 4.35718C8.55378 4.51043 8.58115 4.67941 8.56366 4.84674C8.54812 4.90499 8.55538 4.96698 8.58395 5.02007C8.59787 5.03621 8.61566 5.04857 8.63564 5.05598C8.65563 5.0634 8.67717 5.06563 8.69826 5.06248C8.74029 5.05574 8.78046 5.04036 8.81625 5.0173" stroke="#BA6168" stroke-miterlimit="10" stroke-linecap="round"/>
<path d="M13.8374 14.2885C13.5052 14.6387 13.1505 14.9667 12.7754 15.2704C11.8072 16.0586 10.7256 16.6961 9.56718 17.1614C9.43955 16.6372 9.10981 16.1848 8.6499 15.9029C9.4501 15.11 10.2724 14.2784 10.9998 13.3435C11.1227 13.1874 11.241 13.0288 11.3547 12.8678C11.8719 12.9231 12.4001 12.9803 12.8731 13.1969C13.346 13.4136 13.7636 13.8211 13.8374 14.2885Z" fill="#FFD4C4"/>
<path d="M13.8376 14.2885C13.5054 14.6387 13.1507 14.9667 12.7756 15.2704C12.8435 15.0178 12.8463 14.7522 12.7839 14.4982C12.7215 14.2442 12.5958 14.0101 12.4186 13.8178C12.2414 13.6254 12.0183 13.4811 11.7703 13.3981C11.5223 13.3152 11.2573 13.2964 11 13.3435C11.1229 13.1874 11.2412 13.0288 11.3549 12.8678C11.8721 12.9231 12.4003 12.9803 12.8733 13.1969C13.3462 13.4136 13.7638 13.8211 13.8376 14.2885Z" fill="#EDAB9F"/>
<path d="M14.6099 13.0263C15.752 11.3694 16.3606 9.4029 16.3541 7.39038C16.3541 6.54125 16.1522 5.56582 15.4064 5.15923C14.8532 4.85867 14.1342 4.9859 13.6363 5.37036C13.1385 5.75482 12.8426 6.35409 12.7052 6.9672C12.5679 7.5803 12.6001 8.2183 12.5393 8.77055C12.3872 10.1433 11.9262 11.471 11.3657 12.735C12.2231 13.3591 13.3837 13.5408 14.6099 13.0263Z" fill="#8ADBD5"/>
<path d="M13.747 14.6259C13.4232 14.1663 12.9839 13.8003 12.4733 13.5649C11.9628 13.3295 11.3991 13.2331 10.8394 13.2854C10.7297 13.0392 10.9251 12.8106 11.1076 12.6354C11.2031 12.55 11.2763 12.4427 11.3211 12.3228C11.3659 12.2028 11.3809 12.0738 11.3648 11.9467C12.645 11.9335 13.8903 12.3638 14.8892 13.1646C14.9003 13.2383 14.8956 13.3134 14.8754 13.3851C14.8552 13.4568 14.82 13.5234 14.7721 13.5804C14.68 13.7003 14.5721 13.8008 14.4873 13.9225C14.3886 14.0626 14.3287 14.2276 14.2282 14.3669C14.1746 14.4454 14.1029 14.51 14.0192 14.5551C13.9354 14.6001 13.8421 14.6244 13.747 14.6259Z" fill="#AEEBE1"/>
<path d="M12.04 11.6914C13.1518 11.2385 14.065 10.4031 14.6149 9.33582C14.3494 10.4837 13.3233 11.4158 12.04 11.6914Z" fill="#6BBBBF"/>
<path d="M13.0151 11.9025C13.7156 11.9042 14.403 11.7128 15.0018 11.3494C14.5768 11.8509 13.8679 12.0925 13.0151 11.9025Z" fill="#6BBBBF"/>
<path d="M4.11084 11.613C4.61485 13.5104 4.86898 15.4655 4.86679 17.4288" stroke="#3E704F" stroke-miterlimit="10"/>
<path d="M6.0687 13.4468C5.73746 14.8141 5.54626 16.2116 5.49805 17.6177" stroke="#3E704F" stroke-miterlimit="10"/>
<path d="M6.29811 8.83887C5.60793 11.8964 5.26344 15.0218 5.27112 18.1562" stroke="#3E704F" stroke-miterlimit="10"/>
<path d="M4.34961 6.08496C5.15122 9.76887 5.40563 13.5508 5.10464 17.3089" stroke="#3E704F" stroke-miterlimit="10"/>
<path d="M5.38948 21.6854H4.18457V22.2174H5.38948V21.6854Z" fill="#D96662"/>
<path d="M7.02376 21.6854H5.81885V22.2174H7.02376V21.6854Z" fill="#D96662"/>
<path d="M8.44282 17.6528L8.36447 18.052L8.32113 18.2742L8.17178 19.0404L8.09343 19.4405L7.94408 20.2067L7.77261 21.0825C7.73389 21.2779 7.64415 21.4595 7.51251 21.609C7.38087 21.7585 7.21202 21.8704 7.02312 21.9335C6.90433 21.9737 6.77977 21.9943 6.65436 21.9943H4.54969C4.42426 21.9945 4.29967 21.9739 4.18093 21.9335C3.99203 21.8704 3.82318 21.7585 3.69154 21.609C3.5599 21.4595 3.47016 21.2779 3.43144 21.0825L3.25997 20.2067L3.11062 19.4405L3.03227 19.0404L2.88292 18.2742L2.83959 18.052L2.76123 17.6528H8.44282Z" fill="#FA987D"/>
<path d="M8.32168 18.2751L8.17234 19.0413H3.03558L2.88623 18.2751H8.32168Z" fill="#F7C7B2"/>
<path d="M8.0943 19.4404L7.94495 20.2066H3.2636L3.11426 19.4404H8.0943Z" fill="#F7C7B2"/>
<path d="M8.44348 17.6537L8.36512 18.0529H2.84301L2.76465 17.6537H8.44348Z" fill="#ED806B"/>
<path d="M8.82968 16.8608V17.5421C8.82944 17.5901 8.81969 17.6376 8.80098 17.6818C8.78228 17.7261 8.75498 17.7661 8.72069 17.7997C8.6864 17.8334 8.64579 17.8598 8.6012 17.8776C8.55661 17.8954 8.50893 17.9042 8.46092 17.9035H2.74153C2.64774 17.9037 2.55741 17.8681 2.48894 17.8039C2.45334 17.7703 2.425 17.7297 2.40566 17.6846C2.38632 17.6396 2.37638 17.5911 2.37647 17.5421V16.8608C2.37682 16.8128 2.38667 16.7654 2.40543 16.7213C2.42419 16.6772 2.4515 16.6372 2.48578 16.6037C2.52006 16.5702 2.56064 16.5438 2.60516 16.5261C2.64969 16.5083 2.69729 16.4996 2.74522 16.5003H8.46831C8.55434 16.4999 8.6377 16.5302 8.70354 16.5855C8.76938 16.6409 8.81342 16.7179 8.82783 16.8027C8.82989 16.822 8.83051 16.8414 8.82968 16.8608Z" fill="#FAB693"/>
<path d="M8.82967 16.8608V17.5421C8.82943 17.5901 8.81968 17.6376 8.80098 17.6818C8.78227 17.7261 8.75497 17.7661 8.72068 17.7997C8.68639 17.8333 8.64578 17.8598 8.60119 17.8776C8.5566 17.8954 8.50892 17.9042 8.46092 17.9035H2.74153C2.64773 17.9037 2.5574 17.868 2.48893 17.8039C2.48518 17.7845 2.48333 17.7647 2.4834 17.7449V17.0636C2.48364 17.0156 2.4934 16.9681 2.5121 16.9239C2.53081 16.8796 2.5581 16.8396 2.59239 16.806C2.62668 16.7724 2.66729 16.7459 2.71188 16.7281C2.75647 16.7103 2.80415 16.7015 2.85216 16.7022H8.57523C8.66871 16.7023 8.75866 16.7379 8.8269 16.8018C8.82969 16.8213 8.83062 16.8411 8.82967 16.8608Z" fill="#FA987D"/>
<path d="M8.98948 15.6798C8.808 15.6077 8.61407 15.5722 8.41884 15.5754C8.2236 15.5785 8.03091 15.6203 7.85185 15.6981C7.67279 15.776 7.51091 15.8885 7.37548 16.0292C7.24005 16.1699 7.13377 16.336 7.06274 16.5179C7.02587 16.61 7.00558 16.7336 7.08118 16.8009C7.10596 16.8197 7.13511 16.8319 7.16589 16.8365C7.19668 16.841 7.22812 16.8376 7.25726 16.8267C7.31494 16.8051 7.36855 16.774 7.41582 16.7345C7.58302 16.5977 7.76408 16.4787 7.95605 16.3796C7.74903 16.8608 7.47868 17.3123 7.15217 17.7219C7.0707 17.8066 7.00789 17.9074 6.96779 18.0179C6.94966 18.0732 6.95022 18.133 6.96937 18.1879C6.98853 18.2429 7.02523 18.2901 7.07381 18.3221C7.19273 18.383 7.3347 18.3074 7.44256 18.2299C7.68542 18.0411 7.91151 17.8317 8.1183 17.6039L7.65736 18.6245C7.62822 18.6827 7.60772 18.7448 7.59651 18.8089C7.5886 18.8429 7.59011 18.8784 7.60089 18.9116C7.61166 18.9448 7.6313 18.9744 7.65767 18.9973C7.68404 19.0202 7.71614 19.0354 7.75053 19.0413C7.78491 19.0473 7.82027 19.0438 7.8528 19.0311C7.92385 19.0088 7.99013 18.9735 8.04824 18.9269C8.13111 18.9837 8.23249 19.0069 8.3318 18.9916C8.43111 18.9764 8.52091 18.9239 8.58294 18.8449C8.65565 18.852 8.72901 18.842 8.79719 18.8158C8.86537 18.7895 8.92649 18.7477 8.97566 18.6937C9.07308 18.5842 9.15214 18.4596 9.20981 18.3249C9.40618 17.9275 9.6007 17.52 9.65509 17.0812C9.70948 16.6423 9.71408 15.9674 8.98948 15.6798Z" fill="#FFD4C4"/>
<path d="M8.11377 18.8467C8.37117 18.4938 8.53513 18.0815 8.59039 17.6482" stroke="#BA6168" stroke-miterlimit="10" stroke-linecap="round"/>
<path d="M8.66504 18.6568C8.78906 18.5247 8.87754 18.3632 8.92224 18.1876C8.96817 18.0129 8.99901 17.8346 9.01443 17.6547" stroke="#BA6168" stroke-miterlimit="10" stroke-linecap="round"/>
<path d="M3.65137 10.9741C3.82966 10.8263 4.0489 10.7367 4.27963 10.7173C4.51036 10.6978 4.74151 10.7495 4.94201 10.8653C5.15792 10.9863 5.33502 11.1661 5.4527 11.3838C5.57037 11.6016 5.62378 11.8483 5.6067 12.0952C5.56613 12.5967 5.23794 13.0264 4.88854 13.3859C4.34497 13.9319 3.71203 14.3809 3.01711 14.7136C2.49942 14.9442 1.96802 15.1428 1.42593 15.3082C1.19613 14.8142 1.04675 14.2867 0.983426 13.7455C0.891237 13.0411 0.830394 12.3248 0.967755 11.625C1.0664 11.1244 1.24432 10.6228 1.59741 10.2559C1.95049 9.88894 2.49717 9.68611 2.97102 9.85483C3.44487 10.0236 3.83943 10.597 3.65137 10.9741Z" fill="#3E704F"/>
<path d="M3.90863 10.6099C2.77165 12.1673 1.88773 13.8945 1.28955 15.7277" stroke="#7EBF7E" stroke-miterlimit="10"/>
<path d="M3.50781 11.1945C4.26477 10.9122 5.07483 10.8011 5.87983 10.869" stroke="#7EBF7E" stroke-miterlimit="10"/>
<path d="M3.0874 11.8545C4.02229 11.7871 4.95247 12.038 5.72677 12.5662" stroke="#7EBF7E" stroke-miterlimit="10"/>
<path d="M2.64648 12.5884C3.52987 12.9414 4.31373 13.5047 4.93 14.2295" stroke="#7EBF7E" stroke-miterlimit="10"/>
<path d="M2.19678 13.4993C2.84346 13.9445 3.33878 14.5765 3.61648 15.3109" stroke="#7EBF7E" stroke-miterlimit="10"/>
<path d="M1.79492 14.4213C1.99264 14.7794 2.0796 15.1882 2.04476 15.5958" stroke="#7EBF7E" stroke-miterlimit="10"/>
<path d="M3.48536 11.2138C3.36553 10.8681 3.20916 10.5361 3.01889 10.2236C2.82651 9.90942 2.54055 9.66341 2.20117 9.52014" stroke="#7EBF7E" stroke-miterlimit="10"/>
<path d="M3.07514 11.8601C2.55744 11.1216 1.79635 10.589 0.925293 10.3555" stroke="#7EBF7E" stroke-miterlimit="10"/>
<path d="M2.67697 12.629C1.94793 12.1041 1.07591 11.8146 0.177734 11.7992" stroke="#7EBF7E" stroke-miterlimit="10"/>
<path d="M2.19578 13.5076C1.4981 13.2328 0.726379 13.2099 0.0136719 13.4431" stroke="#7EBF7E" stroke-miterlimit="10"/>
<path d="M1.78732 14.3734C1.34976 14.3541 0.921266 14.5021 0.588867 14.7873" stroke="#7EBF7E" stroke-miterlimit="10"/>
<path d="M4.17068 5.80558C4.34564 5.70868 4.54625 5.66819 4.74509 5.68965C4.94393 5.7111 5.13129 5.79345 5.28155 5.92543C5.44394 6.06393 5.5638 6.24558 5.62727 6.44936C5.69073 6.65315 5.6952 6.87074 5.64017 7.07696C5.52309 7.49553 5.17922 7.80715 4.82245 8.05147C4.27382 8.42486 3.66558 8.70203 3.02385 8.8711C2.54932 8.98179 2.06841 9.06308 1.58386 9.11449C1.4715 8.65736 1.43229 8.18529 1.4677 7.71588C1.5055 7.1037 1.5728 6.48598 1.80327 5.91621C1.96829 5.50778 2.20337 5.11134 2.56014 4.8578C2.91691 4.60426 3.41381 4.52221 3.78625 4.74348C4.1587 4.96475 4.39101 5.51516 4.17068 5.80558Z" fill="#468554"/>
<path d="M4.44733 5.53821C3.23021 6.67313 2.19977 7.99301 1.39404 9.44917" stroke="#7EBF7E" stroke-miterlimit="10"/>
<path d="M4.01221 5.96975C4.69771 5.8545 5.40026 5.89323 6.06894 6.08316" stroke="#7EBF7E" stroke-miterlimit="10"/>
<path d="M3.54932 6.45935C4.35028 6.55564 5.09472 6.92138 5.66044 7.49656" stroke="#7EBF7E" stroke-miterlimit="10"/>
<path d="M3.05908 7.00964C3.74787 7.45446 4.31752 8.06088 4.71848 8.77612" stroke="#7EBF7E" stroke-miterlimit="10"/>
<path d="M2.52686 7.70764C3.00055 8.19167 3.31485 8.80905 3.42754 9.47688" stroke="#7EBF7E" stroke-miterlimit="10"/>
<path d="M2.03564 8.42029C2.14264 8.75805 2.14712 9.11995 2.04855 9.46026" stroke="#7EBF7E" stroke-miterlimit="10"/>
<path d="M3.99084 5.98079C3.94632 5.66809 3.86907 5.36093 3.76037 5.06437C3.65024 4.76651 3.44934 4.51077 3.18604 4.33325" stroke="#7EBF7E" stroke-miterlimit="10"/>
<path d="M3.5384 6.46211C3.2237 5.75174 2.66882 5.17494 1.97119 4.83301" stroke="#7EBF7E" stroke-miterlimit="10"/>
<path d="M3.07532 7.04568C2.54692 6.48094 1.85801 6.09189 1.10156 5.93103" stroke="#7EBF7E" stroke-miterlimit="10"/>
<path d="M2.52417 7.71498C1.98073 7.36714 1.3325 7.22098 0.692383 7.30195" stroke="#7EBF7E" stroke-miterlimit="10"/>
<path d="M2.03743 8.38248C1.67055 8.29352 1.28353 8.34863 0.956055 8.53645" stroke="#7EBF7E" stroke-miterlimit="10"/>
<path d="M6.16385 13.138C5.99215 12.9806 5.77611 12.8799 5.54517 12.8497C5.31423 12.8196 5.07959 12.8613 4.87321 12.9692C4.65191 13.0802 4.46672 13.2518 4.33924 13.464C4.21176 13.6762 4.14724 13.9203 4.15321 14.1678C4.17073 14.6703 4.4768 15.1146 4.81052 15.4862C5.32862 16.0562 5.93996 16.5338 6.61834 16.8986C7.12469 17.1527 7.64625 17.3754 8.18002 17.5652C8.43195 17.0822 8.60529 16.5622 8.69351 16.0246C8.81889 15.3258 8.91107 14.6131 8.80598 13.9096C8.73038 13.4053 8.57366 12.8955 8.23994 12.5129C7.90621 12.1302 7.36691 11.9025 6.88661 12.0519C6.40631 12.2012 5.9933 12.7516 6.16385 13.138Z" fill="#468554"/>
<path d="M5.92383 12.7618C6.98773 14.3694 7.79107 16.1348 8.30414 17.993" stroke="#7EBF7E" stroke-miterlimit="10"/>
<path d="M6.29737 13.3666C5.55428 13.0496 4.7501 12.9016 3.94287 12.9333" stroke="#7EBF7E" stroke-miterlimit="10"/>
<path d="M6.6865 14.0424C5.75607 13.9321 4.81573 14.1401 4.01855 14.6324" stroke="#7EBF7E" stroke-miterlimit="10"/>
<path d="M7.09273 14.7957C6.19446 15.1073 5.3859 15.6336 4.7373 16.3289" stroke="#7EBF7E" stroke-miterlimit="10"/>
<path d="M7.50035 15.725C6.83411 16.14 6.31048 16.7486 5.99951 17.4693" stroke="#7EBF7E" stroke-miterlimit="10"/>
<path d="M7.85993 16.6608C7.64649 17.0111 7.54249 17.4172 7.56124 17.827" stroke="#7EBF7E" stroke-miterlimit="10"/>
<path d="M6.31836 13.3841C6.45438 13.0445 6.62555 12.7201 6.82909 12.4161C7.03517 12.1107 7.33227 11.8781 7.67814 11.7513" stroke="#7EBF7E" stroke-miterlimit="10"/>
<path d="M6.69824 14.0526C7.24808 13.3393 8.03132 12.8422 8.91077 12.6484" stroke="#7EBF7E" stroke-miterlimit="10"/>
<path d="M7.06055 14.8353C7.81272 14.3443 8.69691 14.0947 9.59482 14.1199" stroke="#7EBF7E" stroke-miterlimit="10"/>
<path d="M7.50146 15.7342C8.21085 15.4919 8.98257 15.5046 9.68358 15.7702" stroke="#7EBF7E" stroke-miterlimit="10"/>
<path d="M7.86914 16.6184C8.30775 16.6186 8.72976 16.7861 9.04915 17.0868" stroke="#7EBF7E" stroke-miterlimit="10"/>
<path d="M6.60699 8.36866C6.47591 8.24587 6.30972 8.16715 6.13169 8.14351C5.95365 8.11987 5.77268 8.15249 5.61411 8.23682C5.44282 8.32545 5.30004 8.46064 5.20218 8.62684C5.10433 8.79305 5.05538 8.9835 5.06098 9.17629C5.07481 9.57089 5.30989 9.91939 5.56802 10.2107C5.96614 10.6563 6.43757 11.0305 6.96191 11.3171C7.35195 11.5163 7.75407 11.6909 8.1659 11.8398C8.36035 11.4602 8.49381 11.0523 8.56138 10.6311C8.65357 10.078 8.72917 9.5248 8.64805 8.97162C8.58997 8.5761 8.4692 8.17597 8.212 7.87541C7.95479 7.57485 7.53901 7.39599 7.16841 7.50662C6.79781 7.61726 6.47516 8.06625 6.60699 8.36866Z" fill="#468554"/>
<path d="M6.42188 8.07458C7.24327 9.33907 7.86254 10.7239 8.25736 12.1792" stroke="#7EBF7E" stroke-miterlimit="10"/>
<path d="M6.70973 8.54847C6.13791 8.30011 5.51747 8.18383 4.89453 8.20827" stroke="#7EBF7E" stroke-miterlimit="10"/>
<path d="M7.01034 9.07945C6.2922 8.99289 5.56613 9.15563 4.95361 9.54043" stroke="#7EBF7E" stroke-miterlimit="10"/>
<path d="M7.32296 9.67053C6.62864 9.91541 6.00503 10.327 5.50684 10.8691" stroke="#7EBF7E" stroke-miterlimit="10"/>
<path d="M7.63793 10.3988C7.1223 10.7268 6.71875 11.204 6.48096 11.767" stroke="#7EBF7E" stroke-miterlimit="10"/>
<path d="M7.91476 11.1337C7.74993 11.4097 7.66979 11.728 7.68429 12.0492" stroke="#7EBF7E" stroke-miterlimit="10"/>
<path d="M6.72656 8.56229C6.83086 8.29599 6.9628 8.04136 7.12021 7.80259C7.27781 7.56389 7.50694 7.38121 7.77475 7.28076" stroke="#7EBF7E" stroke-miterlimit="10"/>
<path d="M7.02295 9.08413C7.44312 8.52438 8.04859 8.13224 8.73121 7.97778" stroke="#7EBF7E" stroke-miterlimit="10"/>
<path d="M7.2998 9.70094C7.87732 9.31643 8.55975 9.12028 9.25328 9.13947" stroke="#7EBF7E" stroke-miterlimit="10"/>
<path d="M7.63818 10.4062C8.18453 10.2156 8.78085 10.2254 9.32063 10.4339" stroke="#7EBF7E" stroke-miterlimit="10"/>
<path d="M7.9209 11.1023C8.26029 11.1039 8.58608 11.2359 8.8308 11.4711" stroke="#7EBF7E" stroke-miterlimit="10"/>
</g>
<defs>
<clipPath id="clip0_1232_5891">
<rect width="26" height="22.3889" fill="white"/>
</clipPath>
</defs>
</svg>
