<svg width="31" height="32" viewBox="0 0 31 32" fill="none" xmlns="http://www.w3.org/2000/svg">
<path d="M23.2275 23.9232C27.5036 19.519 27.5036 12.3785 23.2275 7.97443C18.9514 3.57031 12.0186 3.57032 7.7425 7.97443C3.46644 12.3785 3.46644 19.519 7.7425 23.9232C12.0186 28.3273 18.9514 28.3273 23.2275 23.9232Z" stroke="black" stroke-width="0.8" stroke-miterlimit="10"/>
<path d="M17.054 7.2218C17.054 7.2218 17.0122 6.80286 16.5897 6.5341C16.1665 6.26533 15.0965 6.04508 14.9948 6.62805C14.8931 7.21102 14.4647 6.83829 14.4647 6.83829C14.4647 6.83829 14.7227 6.71122 14.7675 6.38855C14.8124 6.0651 13.972 5.92032 13.9518 6.20603C13.9316 6.49174 14.1335 6.62497 13.9069 6.67349C13.6803 6.722 13.4695 6.79439 13.1869 6.81441C12.9042 6.83444 12.8736 6.47942 12.8736 6.47942C12.8736 6.47942 13.0897 6.51099 13.4007 6.43398C13.7118 6.3562 13.8942 6.05355 13.5495 5.94034C13.2048 5.82714 13.5719 6.21142 12.807 6.09822C12.807 6.09822 12.7121 6.06356 12.6276 5.80327C12.5438 5.54374 11.8402 5.41898 11.5882 5.64924C11.3355 5.88028 11.4701 6.0651 11.6802 6.13749C11.8903 6.20988 11.5905 6.35081 11.921 6.42089C12.2515 6.49097 12.3861 6.53102 12.2933 6.62035C12.2006 6.70968 10.5474 6.21758 10.5818 5.83099C10.5818 5.83099 7.26196 7.38121 5.93701 10.5664C5.93701 10.5664 5.97066 10.7566 6.18376 10.809C6.39686 10.8613 6.53369 10.8813 6.45518 11.3026C6.37667 11.7238 6.25255 12.6125 6.79838 12.7142C7.34496 12.8158 7.07055 12.3422 6.94194 12.1166C6.81333 11.891 6.72959 11.1986 7.04662 11.3688C7.3629 11.539 6.89783 11.5737 7.37113 12.4893C7.84368 13.405 7.11242 13.338 7.68068 13.9995C8.24895 14.661 8.56598 13.9656 8.75365 14.1997C8.94133 14.4338 8.76188 14.5725 9.13424 14.6271C9.5066 14.6826 9.35033 14.5147 9.51782 14.8905C9.68531 15.2663 9.8027 16.0049 10.9018 15.7346C10.9018 15.7346 11.0835 16.1535 10.9041 16.4361C10.7246 16.7187 10.1863 16.701 10.1242 17.2902C10.0622 17.8793 10.1908 18.1042 10.451 18.5347C10.7112 18.9651 10.5145 19.2247 10.8061 19.4326C11.0977 19.6405 11.7812 19.7622 11.6466 20.299C11.512 20.8357 11.2727 21.8315 11.3983 22.0771C11.5239 22.3228 11.3647 22.3197 11.3221 22.6224C11.2794 22.9258 11.6974 23.2346 11.663 23.6212C11.6294 24.0078 11.2563 24.3859 11.4993 24.7933C11.743 25.2007 11.8043 25.0444 11.9135 25.4117C12.0227 25.7783 12.1012 25.9346 12.2941 25.9839C12.4877 26.0332 12.801 26.0794 12.9162 26.2619C13.0306 26.4436 13.317 26.1148 13.124 25.9215C12.9311 25.7282 12.6814 25.7944 12.7547 25.4132C12.828 25.032 13.044 24.9196 12.7494 24.7317C12.4548 24.5438 12.5057 24.3243 12.6268 24.322C12.7472 24.3189 13.0246 24.1957 12.7921 23.9962C12.5595 23.7968 12.487 23.7452 12.6664 23.7506C12.8459 23.7567 13.4007 23.9416 13.889 23.4572C14.3772 22.9728 14.8176 22.3983 14.8176 22.3983C14.8176 22.3983 14.9634 22.0694 14.9103 21.7314C14.8572 21.3933 15.11 21.307 15.5437 21.3509C15.9781 21.3948 15.928 21.1807 15.928 21.1807C15.928 21.1807 16.3116 21.5881 16.4417 19.937C16.4417 19.937 16.4192 19.6659 16.9127 19.4295C17.4062 19.1931 16.989 18.5955 16.7086 18.5955C16.7086 18.5955 16.5994 18.2289 16.3669 18.1735C16.1343 18.1188 15.6042 18.1843 15.3889 18.0079C15.1735 17.8315 14.8737 17.6845 14.8737 17.6845C14.8737 17.6845 15.1384 16.507 14.0168 16.5062C14.0168 16.5062 13.8553 15.6575 13.2915 15.6768C12.7285 15.6968 12.6612 15.7484 12.5797 15.6129C12.4982 15.4773 12.3928 14.946 11.9972 15.0522C11.6017 15.1585 11.509 15.6814 11.1254 15.562C10.7418 15.4435 10.2566 15.475 10.3717 15.0792C10.4869 14.6841 10.5519 14.219 9.95224 14.2128C9.95224 14.2128 9.8012 14.1489 10.0502 13.9387C10.2999 13.7284 10.1855 13.4019 10.042 13.4219C9.89915 13.4419 9.47595 13.7508 9.27406 13.7615C9.07218 13.7731 8.42765 13.6568 8.78132 12.8436C9.13499 12.0296 10.8278 11.9503 10.9512 12.3607C11.0738 12.7704 10.931 12.9352 11.3265 12.973C11.7213 13.0107 11.6017 12.2922 11.6017 12.2922L12.6784 11.606C12.6784 11.606 12.7906 11.5198 12.8691 11.3865C12.9476 11.2541 14.2598 10.6026 14.5432 10.1497C14.8266 9.69692 14.9223 9.44279 15.2947 9.64224C15.667 9.8417 15.8211 9.88483 15.9168 9.63146C16.0125 9.37733 16.5022 10.0273 16.7011 9.74775C16.9 9.4682 16.808 9.12473 16.396 9.06312C15.9841 9.00152 16.5224 8.5872 16.3572 8.48015C16.1919 8.37311 15.8809 8.73968 15.7209 8.59182C15.5616 8.44473 15.8981 7.89641 15.3597 7.8787C14.8214 7.86099 14.7541 7.91259 14.5888 8.52713C14.4228 9.14168 14.188 8.52944 13.7648 8.98226C13.3416 9.43509 13.4396 9.16093 13.3977 8.88677C13.3558 8.61261 13.0642 8.40468 12.7674 8.38081C12.4705 8.35771 12.5887 7.79784 13.0261 7.67693C13.4635 7.55603 13.9929 7.34579 13.9929 7.34579C13.9929 7.34579 14.04 7.72391 14.354 7.62611C14.6681 7.5283 14.775 7.19331 14.775 7.19331L15.089 7.23951C15.089 7.23951 15.3021 7.00309 15.3642 6.99154C15.4255 6.97999 16.07 7.09627 16.07 7.09627C16.07 7.09627 16.4342 7.06778 16.0895 7.24336C15.7448 7.41895 15.5347 7.20255 15.6102 7.52291C15.6857 7.84328 15.7111 7.66153 15.9407 7.88101C16.1702 8.10049 16.5374 8.05198 16.6189 7.75471C16.6189 7.75471 17.0922 7.94878 17.1961 7.63381C17.3 7.3196 17.0533 7.22103 17.0533 7.22103L17.054 7.2218Z" fill="black"/>
<path d="M14.5375 10.6226C14.6743 10.7874 15.0475 10.6981 14.6975 10.3369C14.6975 10.3369 14.4007 10.4578 14.5375 10.6226Z" fill="black"/>
<path d="M15.3312 10.1006C15.4321 9.95043 15.1353 9.78254 15.1353 9.78254C15.1353 9.78254 14.9618 9.73634 14.9334 9.93811C14.905 10.1399 15.2302 10.25 15.3312 10.0998V10.1006Z" fill="black"/>
<path d="M15.4376 10.632C15.4376 10.632 16.0179 10.4911 15.6231 10.1646C15.6231 10.1646 15.4773 10.3494 15.3142 10.3663C15.152 10.3833 14.9389 10.3317 15.0563 10.6374C15.1737 10.9431 15.4376 10.632 15.4376 10.632Z" fill="black"/>
<path d="M16.2448 9.8649C16.2448 9.8649 15.7319 9.80946 15.9562 10.2138C15.9562 10.2138 16.105 10.2977 16.2448 10.4417C16.3846 10.5865 16.7375 10.6381 16.7689 10.4163C16.7996 10.1937 16.7159 9.93421 16.2455 9.8649H16.2448Z" fill="black"/>
<path d="M26.3579 14.4339C26.3579 14.4339 25.3627 14.534 25.2648 14.2306C25.1668 13.9272 24.8416 13.8178 24.1858 13.9264C23.5301 14.0358 23.788 13.7647 23.5607 13.6692C23.3342 13.5737 23.0874 13.6199 23.0874 13.6199C23.0874 13.6199 23.7581 12.3993 21.4454 12.9029C21.4454 12.9029 20.5265 12.6018 20.2229 13.1963C19.9201 13.7909 20.0487 13.8717 19.1933 14.1166C18.3387 14.3615 18.9855 14.8898 18.9855 14.8898C18.9855 14.8898 19.2599 15.0746 18.9316 15.2733C18.6034 15.472 18.4628 16.0496 18.6138 16.4015C18.7649 16.7535 19.2158 17.5421 19.535 17.6922C19.8543 17.8424 20.7792 17.9587 20.9729 17.7192C21.1665 17.4797 21.3318 17.4427 21.5785 17.6853C21.8253 17.9279 22.6463 17.7816 22.5536 18.0149C22.4608 18.2482 22.0287 18.7619 22.3621 19.3888C22.6949 20.0156 22.9274 20.5031 22.5401 20.8381C22.1528 21.1723 22.1722 21.6082 22.5199 21.9894C22.5199 21.9894 22.2477 22.7942 22.4997 23.1407C22.7517 23.4873 22.7061 23.9547 22.6141 24.1889C22.5214 24.423 22.6194 24.2928 22.6194 24.2928C22.6194 24.2928 22.5491 24.6532 22.7367 24.4545C22.9244 24.2559 27.0503 20.5154 26.3572 14.4331L26.3579 14.4339Z" fill="black"/>
<path d="M21.6814 12.6496C22.2198 12.5233 22.4919 11.8625 22.4919 11.8625C22.4919 11.8625 23.0325 12.149 23.2434 11.7878C23.2434 11.7878 23.47 12.4609 23.7975 12.5502C23.7975 12.5502 23.4894 12.608 23.5447 12.9253C23.6008 13.2425 24.5033 13.0878 24.3074 12.4817C24.1115 11.8756 23.1978 11.9673 23.7451 11.6353C24.2917 11.3042 24.5407 12.2476 24.5459 12.4963C24.5512 12.7443 24.3493 13.3334 24.8203 13.1139C25.2914 12.8952 25.1912 12.179 25.3392 12.5518C25.4873 12.9245 25.2099 13.3365 25.6443 13.3804C26.0787 13.4243 26.1939 13.462 26.1939 13.462C26.1939 13.462 25.4477 10.4856 23.8468 8.6196C23.8468 8.6196 23.8356 8.84447 23.4318 8.86757C23.0281 8.89068 22.7783 9.38971 23.0557 9.69852C23.3331 10.0073 23.7563 9.8433 23.7451 10.0689C23.7339 10.2938 23.6576 10.4062 23.3384 10.2561C23.0191 10.1059 22.8142 10.1375 22.7327 10.4347C22.6512 10.732 22.5196 10.96 22.2953 10.8444C22.071 10.7289 21.5438 10.9191 21.7958 11.4097C21.7958 11.4097 21.9162 11.8402 21.6306 11.7354C21.3449 11.6315 20.6025 11.3566 20.5628 12.072C20.5232 12.7882 21.1453 12.7766 21.6837 12.6503L21.6814 12.6496Z" fill="black"/>
<path d="M21.6595 9.94487C21.8502 10.0142 21.8412 10.219 21.7126 10.2829C21.584 10.3461 21.3313 10.5771 21.5802 10.6549C21.8292 10.7327 22.4319 10.8636 22.4237 10.4909C22.4154 10.1181 22.141 10.0781 22.141 10.0781C22.141 10.0781 21.8666 9.74849 22.0655 9.46895C22.0655 9.46895 22.0827 9.20326 21.7829 9.20018C21.483 9.1971 21.4913 9.71384 21.4292 9.72539C21.3679 9.73694 21.0897 9.71615 21.0897 9.71615C21.0897 9.71615 20.6359 9.95796 21.0023 10.3422C21.3694 10.7265 21.4681 9.87479 21.6588 9.9441L21.6595 9.94487Z" fill="black"/>
<path d="M17.9555 17.0077C17.8843 17.0959 17.767 17.063 17.7187 16.9472C17.6551 16.7944 17.6001 16.638 17.5417 16.4832C17.2303 15.6565 16.9194 14.8298 16.608 14.0031C16.5941 13.9654 16.5773 13.9288 16.5574 13.8807C16.328 14.149 16.1074 14.4081 15.886 14.6661C15.7612 14.8118 15.6372 14.9584 15.508 15.1C15.452 15.1615 15.4423 15.2148 15.4732 15.2959C15.5956 15.6186 15.7059 15.9459 15.8286 16.2686C15.8689 16.3746 15.8621 16.4552 15.7949 16.5489C15.6105 16.8056 15.5729 16.9198 15.3 16.5722C15.1085 16.3287 14.8917 16.1063 14.6998 15.8628C14.6086 15.747 14.4911 15.6933 14.3685 15.6379C14.0607 15.4991 13.7522 15.3617 13.4445 15.2227C13.3073 15.1604 13.2962 15.0849 13.3699 14.949C13.4826 14.7416 13.629 14.6542 13.8707 14.6878C14.154 14.7271 14.4436 14.7169 14.7299 14.7365C14.8134 14.7422 14.8595 14.7177 14.9013 14.6441C15.1646 14.1811 15.4325 13.7208 15.7029 13.2521C15.6545 13.2215 15.6036 13.2321 15.556 13.229C14.5758 13.1663 13.5958 13.1048 12.6158 13.0436C12.5311 13.0384 12.4376 13.0496 12.3907 12.9548C12.3389 12.8504 12.4182 12.7824 12.4686 12.7081C12.5021 12.659 12.5388 12.6119 12.5715 12.5621C12.703 12.3627 12.886 12.2557 13.1166 12.2192C14.2932 12.0322 15.4691 11.8408 16.6459 11.655C16.7508 11.6385 16.823 11.6007 16.8854 11.5085C17.0752 11.2273 17.2784 10.9559 17.4708 10.6763C17.6231 10.4546 17.8217 10.297 18.0611 10.1887C18.3746 10.0471 18.7026 10.2926 18.6682 10.6446C18.6427 10.9073 18.5606 11.1474 18.4056 11.3612C18.1983 11.6468 17.9988 11.9383 17.7906 12.2228C17.7371 12.2958 17.7249 12.3634 17.7386 12.4518C17.9222 13.6539 18.0924 14.8583 18.2901 16.0579C18.3561 16.4586 18.1762 16.7342 17.9555 17.0077Z" fill="black"/>
</svg>
