<svg width="83" height="84" viewBox="0 0 83 84" fill="none" xmlns="http://www.w3.org/2000/svg">
<path d="M70.2037 71.2888C86.193 55.0647 86.193 28.7603 70.2037 12.5363C54.2145 -3.68777 28.2908 -3.68777 12.3015 12.5363C-3.68771 28.7603 -3.68771 55.0647 12.3015 71.2888C28.2908 87.5128 54.2145 87.5128 70.2037 71.2888Z" fill="#E2E2E2"/>
<path d="M22.282 6.14592L22.5471 6.00163C22.564 5.96494 22.5832 5.92826 22.6001 5.89402C22.4868 5.94293 22.3736 5.99429 22.2627 6.04565C22.1614 6.09212 22.0578 6.13859 21.9566 6.18505L21.73 6.36359C21.7131 6.39293 21.6963 6.42473 21.6794 6.45408L22.0578 6.2731L22.2771 6.14837L22.282 6.14592Z" fill="#EFEFEF"/>
<path d="M22.3567 5.48071L22.5278 5.45625L22.7399 5.3462L22.9641 5.21902L23.2388 5.09185L23.3087 5.12853C23.1087 5.24592 23.0701 5.26549 23.034 5.28261C22.952 5.31929 22.8701 5.35598 22.7881 5.39266L22.576 5.52962L22.7688 5.50761L22.8194 5.59076L23.2244 5.45869L23.5739 5.28505L23.8583 5.20435L23.9981 5.08206C24.0439 5.0625 24.0896 5.04293 24.1354 5.02581C24.1354 5.02581 24.1853 4.95244 24.2849 4.80571L24.4849 4.76902C24.6231 4.66304 24.7171 4.60272 24.7669 4.58804C24.8272 4.57092 25.008 4.51956 25.0827 4.40951C25.0995 4.36793 25.1164 4.32636 25.1357 4.28478L24.8682 4.35326C24.8079 4.37527 24.7669 4.38261 24.697 4.39484L24.6537 4.34837C24.6657 4.32636 24.6778 4.30435 24.6898 4.28478L24.5548 4.29946C24.3958 4.42418 24.3548 4.43152 24.3283 4.40462C24.3283 4.39239 24.3355 4.37527 24.3403 4.36304C24.309 4.33614 24.1981 4.37283 24.1451 4.39239C24.0246 4.43478 23.9217 4.44212 23.8366 4.4144C23.7402 4.40462 23.7112 4.40217 23.557 4.47799C23.3135 4.60027 23.275 4.63206 23.2509 4.65408C23.3135 4.62473 23.3786 4.59783 23.4413 4.56848C23.4533 4.56359 23.4678 4.5587 23.4799 4.5538C23.4678 4.60027 23.4365 4.62473 23.287 4.68587C23.2003 4.725 23.1183 4.76168 23.0364 4.79837L22.911 4.86929C22.9689 4.86929 22.993 4.86685 23.0195 4.85951L23.0243 4.87663C22.9954 4.90761 22.9086 4.95489 22.764 5.01848L22.6025 5.10408L22.5447 5.2019L22.3663 5.31929C22.335 5.35598 22.3061 5.39511 22.2747 5.43179L22.4459 5.35842C22.4145 5.4 22.3832 5.44158 22.3519 5.48315L22.3567 5.48071Z" fill="#EFEFEF"/>
<path d="M23.5618 5.63967C23.463 5.57119 23.422 5.56875 23.4196 5.56875C23.2943 5.5981 23.1545 5.70571 23.0412 5.76685L22.8315 5.97962L23.2774 5.8231L23.5618 5.63967Z" fill="#EFEFEF"/>
<path d="M21.448 5.86467L21.6505 5.7375L21.7011 5.63234L21.5637 5.67636C21.5059 5.70326 21.4504 5.73261 21.3926 5.75951C21.3564 5.79864 21.3203 5.83777 21.2865 5.87935C21.354 5.84755 21.4191 5.81331 21.4866 5.78152L21.448 5.86467Z" fill="#EFEFEF"/>
<path d="M19.756 7.31494L19.9826 7.20734L20.2091 7.0606L20.091 7.04837L19.8066 7.2L19.756 7.31494Z" fill="#EFEFEF"/>
<path d="M19.7464 7.14864L19.9488 7.00679L20.0814 6.94565L20.4092 6.79647L20.5514 6.84293L20.79 6.75978L20.9322 6.61793L20.978 6.50299L20.8816 6.49076L20.9081 6.39049L20.7466 6.42717L20.6382 6.43451L20.455 6.53967L20.3754 6.52745L20.2477 6.54212L20.0669 6.64728L19.6066 6.92609L19.5993 6.99212L19.7584 6.90163L19.8596 6.88206L19.7873 7.0019C19.7078 7.04348 19.6307 7.08261 19.5511 7.12418L19.5294 7.21223L19.6933 7.11929L19.744 7.1462L19.7464 7.14864Z" fill="#EFEFEF"/>
<path d="M16.8565 8.89239L16.9866 8.72609L16.8709 8.75788L16.736 8.84837L16.6612 8.95842L16.6757 8.99755L16.8565 8.89239Z" fill="#EFEFEF"/>
<path d="M21.3926 6.15571L21.4263 6.21929L21.3829 6.37826L21.6336 6.28533L21.9011 6.14592L22.1639 6.00163L22.2723 5.88668L22.0964 5.8769L21.7589 6.01875L21.5733 6.0212L21.3926 6.15571Z" fill="#EFEFEF"/>
<path d="M18.9438 7.91657L19.151 7.76739L19.1149 7.64755L18.9703 7.65489L18.9654 7.65978C18.8377 7.80407 18.8208 7.85299 18.9438 7.91657Z" fill="#EFEFEF"/>
<path d="M17.9001 8.1C18.0254 8.02663 18.1556 7.95326 18.2833 7.87989L18.2882 7.875C18.3629 7.7894 18.3629 7.77717 18.3629 7.76739C18.2858 7.78206 18.1403 7.8538 17.9266 7.98261L17.676 8.1538L17.3578 8.41793C17.4325 8.37147 17.5097 8.32745 17.5868 8.28098C17.6904 8.21984 17.7941 8.15869 17.9001 8.09755V8.1Z" fill="#EFEFEF"/>
<path d="M17.3048 8.72853L17.6181 8.54022L17.7724 8.39103L17.7338 8.34701L17.8808 8.25652L18.0737 8.08288C18.0206 8.11223 17.9652 8.14402 17.9122 8.17337C17.7989 8.23696 17.688 8.30299 17.5795 8.36658L17.3385 8.53533L17.0638 8.75299L17.0011 8.92174L17.112 8.87038L17.3048 8.72609V8.72853Z" fill="#EFEFEF"/>
<path d="M24.1764 4.20163L24.0896 4.29456L24.2801 4.22853L24.3042 4.26522C24.8272 4.12826 24.9525 4.04022 25.1429 3.90815L25.2538 3.82745L25.5286 3.70761L25.3189 3.83723L25.1453 3.97174L25.1212 4.04755L25.5262 3.88125C25.7937 3.80543 26.0154 3.6269 26.2782 3.53641C26.3939 3.49239 26.5071 3.45081 26.6228 3.40679L26.8518 3.26739L27.0061 3.16467L27.047 3.11331C27.2688 3.03994 27.4736 2.92744 27.6954 2.85897L27.5339 2.92011L27.3218 3.03505C27.2471 3.07908 27.17 3.12554 27.0952 3.16956C27.1796 3.14022 27.2929 3.09864 27.3772 3.06685L27.5122 3.03016L27.6351 2.99348L27.546 3.06929C27.4447 3.10598 27.3411 3.14022 27.2399 3.1769L26.9868 3.27228L26.8277 3.35299L26.6855 3.41168C26.6276 3.44348 26.5674 3.47527 26.3866 3.55598C26.295 3.59266 26.2396 3.61467 26.1842 3.63424L26.0106 3.7125C26.001 3.73696 25.9913 3.75897 25.9817 3.78342L26.1625 3.72717L26.2782 3.72228L26.3264 3.76875L26.7144 3.65136L26.5336 3.73206L26.2999 3.81277C26.0074 3.81766 25.5856 3.91793 25.0345 4.11359L24.9598 4.20897L25.0803 4.2163L25.2538 4.22609L25.5864 4.20652L25.8226 4.16739L26.2275 4.02799C26.2115 4.04592 26.1255 4.0981 25.9697 4.18451C25.9383 4.2481 25.9287 4.28234 25.9214 4.31902H25.5744L25.3261 4.39484L25.0007 4.53913L24.7645 4.65652L24.5114 4.81304C24.497 4.84728 24.4849 4.87908 24.4705 4.91331L24.456 4.98424L24.6802 4.91821C24.7959 4.87174 24.9115 4.82527 25.0248 4.78125L25.3117 4.65163L25.02 4.83995L25.0682 4.91331L25.3044 4.8375C25.5021 4.73967 25.5334 4.71766 25.8419 4.49022C25.8082 4.53424 25.7648 4.59293 25.7334 4.63696L25.4514 4.84239L25.1574 4.96712L24.7308 5.05761C24.5878 5.05272 24.3652 5.11793 24.0631 5.25326L24.1017 5.33152C24.1194 5.38043 24.1226 5.42446 24.1113 5.46359C23.8655 5.60054 23.6952 5.7163 23.6004 5.81087L23.7787 5.87935L24.0583 5.83288L24.3958 5.63723C24.5934 5.41712 24.9067 5.4856 25.1333 5.33397C25.3526 5.18723 25.6178 5.16033 25.854 5.05761C25.9455 5.02337 26.0371 4.98913 26.1263 4.95489C26.1191 4.98913 26.1046 5.03071 26.0853 5.06005C26.1697 5.10408 26.4469 4.94755 26.4493 4.94511C26.5312 4.91087 26.6011 4.88641 26.6686 4.86196L26.9458 4.70299C27.0302 4.5856 27.1844 4.55625 27.2736 4.4462C27.2567 4.41685 27.235 4.37527 27.2206 4.34592L26.9482 4.50978L26.8711 4.39728L27.1531 4.26766L27.2374 4.11359L27.1459 4.03533C27.2109 4.01331 27.2736 3.98886 27.3387 3.96685L27.6954 3.84946C27.8448 3.81277 27.893 3.75163 27.84 3.67092C27.7661 3.67092 27.7074 3.66603 27.6641 3.65625L27.7074 3.6269C27.7966 3.59511 27.8858 3.56576 27.9726 3.53397C28.0706 3.50299 28.1268 3.48342 28.1413 3.47527L28.122 3.43614C28.122 3.43614 27.7894 3.36277 27.3073 3.65136L27.1507 3.75408L27.0977 3.69783L27.3459 3.58043V3.53397C27.4399 3.48261 27.4616 3.47038 27.5435 3.41902C27.6231 3.38967 27.6978 3.36277 27.7725 3.33831L27.8786 3.35788L28.1823 3.27473C28.2305 3.26005 28.3671 3.18424 28.592 3.04728C28.5125 3.04728 28.404 3.04728 28.3221 3.04728L28.6161 2.94212L28.7439 2.95924L28.9801 2.87609L29.2548 2.74647L29.115 2.70244L28.9222 2.73424C29.0331 2.69755 29.144 2.66331 29.2548 2.62663C29.3223 2.60462 29.3898 2.58505 29.4573 2.56304L29.5561 2.47744L29.7899 2.37473L30.0044 2.24755C30.137 2.18886 30.7444 1.91984 30.7444 1.91984L30.8576 1.85869L30.7154 1.8538C30.6801 1.87174 30.3957 1.9663 29.8622 2.1375V2.09837L30.1008 2.00788C30.1972 1.97853 30.2937 1.94918 30.3925 1.92228C30.4889 1.89293 30.5853 1.86603 30.6817 1.83913C30.9396 1.73152 31.4506 1.57255 31.4554 1.57255C31.465 1.55543 31.4747 1.53098 31.4819 1.51386C31.4321 1.50244 31.3293 1.52201 31.1734 1.57255L30.9782 1.61902L30.8914 1.60924L30.6118 1.65571L30.4431 1.71685C30.3587 1.7413 30.2744 1.76576 30.1876 1.79022L29.9201 1.88804L29.9128 1.86114L29.7055 1.91984C29.6959 1.9231 29.5529 1.9606 29.2765 2.03234C29.115 2.06658 29.0403 2.09348 29.0379 2.09592L29.0283 2.1375C28.6619 2.26956 28.2859 2.35761 27.9171 2.47989C27.7677 2.52147 27.7629 2.52636 27.7147 2.5606V2.60462C27.6858 2.62174 27.6496 2.63397 27.6134 2.64619L27.4809 2.67065C27.452 2.67554 27.411 2.68533 27.3821 2.69266C27.3098 2.71712 27.2399 2.74402 27.1675 2.77092L27.1362 2.80761C27.0711 2.83206 27.0085 2.85408 26.9434 2.87853C26.565 2.99348 26.3191 3.15 26.2275 3.21114C26.3215 3.17446 26.4155 3.14022 26.5095 3.10353C26.6493 3.08152 26.7795 3.02038 26.9193 2.99348L26.9579 3.02038C26.8398 3.10109 26.6951 3.0913 26.5674 3.13043C26.4758 3.16467 26.3842 3.19891 26.2902 3.2356C26.1022 3.29918 25.7286 3.37744 25.7262 3.37744C25.6877 3.39212 25.6081 3.42636 25.4876 3.48016L25.4177 3.53886L25.3912 3.58288C25.3044 3.62446 25.2466 3.64891 25.1887 3.67092L25.0055 3.72717C24.9694 3.74185 24.9332 3.75652 24.8971 3.77364L24.738 3.87147C24.6609 3.91549 24.6585 3.91793 24.603 3.94239C24.5621 3.95951 24.5211 3.97663 24.4801 3.99375C24.4343 4.01331 24.3885 4.03288 24.3451 4.05244L24.268 4.11848L24.0246 4.21875L23.9523 4.28723L24.1041 4.23098L24.1812 4.20652L24.1764 4.20163Z" fill="#EFEFEF"/>
<path d="M18.7533 8.69185C18.7606 8.67962 18.7823 8.64538 18.7027 8.66005C18.681 8.66494 18.6401 8.67473 18.5967 8.69918C18.5726 8.71386 18.5653 8.72364 18.5605 8.73342C18.5412 8.775 18.4738 8.81902 18.4183 8.84837L18.3942 8.97554L18.6111 8.85081C18.6111 8.85081 18.7172 8.7481 18.7533 8.69185Z" fill="#EFEFEF"/>
<path d="M16.7745 10.4698L16.9914 10.372L17.1505 10.169L16.9457 10.2937L16.7745 10.4698Z" fill="#EFEFEF"/>
<path d="M1.60678 31.0549C1.63329 30.9595 1.66463 30.8568 1.69355 30.7565L1.74899 30.5291L1.60678 31.0549Z" fill="#EFEFEF"/>
<path d="M1.59955 31.0795L1.60678 31.0549C1.60678 31.0549 1.60197 31.0721 1.59955 31.0795Z" fill="#EFEFEF"/>
<path d="M17.2879 10.1641C17.4132 10.2008 17.4663 10.191 17.4904 10.1861C17.4976 10.1861 17.5072 10.1812 17.5145 10.1861C17.5386 10.1959 17.5771 10.2082 17.6422 10.2913C17.7145 10.2228 17.823 10.1397 17.8857 10.0639L18.0568 9.79239L17.9724 9.75326L17.4904 9.95136L17.2903 10.1641H17.2879Z" fill="#EFEFEF"/>
<path d="M18.3966 11.4261L18.5147 11.2304L18.2544 11.2109L17.6904 11.338L17.4711 11.2084L17.6253 10.8929L17.4253 10.8489L17.5217 10.4992L17.4181 10.3671L17.112 10.4209C17.0059 10.4796 16.8999 10.5383 16.7938 10.597C16.7504 10.6899 16.707 10.7829 16.6637 10.8758L16.642 11.0372L16.6829 11.2231L16.5311 11.3992L16.3985 11.4603L16.3118 11.4187L16.3672 11.2329L16.3575 11.1106L16.2346 10.9834L15.9984 11.1057L15.9719 11.2549L15.9984 11.3527C15.9044 11.4065 15.8104 11.4603 15.7164 11.5141L15.6369 11.6584L15.3886 11.8296L15.514 11.6437L15.6706 11.4187L15.4874 11.5141L15.2922 11.5704L15.0488 11.7269L14.9186 11.9372L14.7499 12.0155L14.8608 11.8639L14.9451 11.6486L14.8535 11.6707C14.7644 11.7269 14.6728 11.7807 14.5836 11.837L14.3088 12.1231L14.0823 12.3236L13.8099 12.5437L13.5183 12.8372L13.4243 13.0647L13.0796 13.412L13.0145 13.5538C13.0724 13.5147 13.1326 13.478 13.1905 13.4389L13.2339 13.5098L13.5038 13.2726L13.8123 13.05L13.9184 13.1014L13.5785 13.3802L13.2821 13.6198L13.0892 13.8497L13.3471 13.8057C13.4628 13.7323 13.5785 13.6614 13.6942 13.588L14.0967 13.3117C14.21 13.2432 14.3257 13.1723 14.4438 13.1014C14.5932 13.0842 14.6294 13.0745 14.6752 13.0622C14.6607 13.1633 14.4318 13.3435 13.9883 13.6027C13.8123 13.7103 13.6388 13.8155 13.4701 13.9231L13.0218 14.3462L13.082 14.5957L13.4845 14.3609C13.6002 14.2899 13.7183 14.2166 13.8388 14.1457L13.8919 14.4L14.0823 14.4122C14.2413 14.3168 14.4004 14.2239 14.5643 14.1285L15.0271 13.8473L15.3959 13.4951L15.7598 13.2163L16.1551 12.8446L16.3744 12.6342L16.4877 12.6807L16.707 12.534L17.1722 12.5071L17.5338 12.3359L17.8736 12.1329L18.0664 11.8296L17.8447 11.7709L18.0616 11.6462L18.4014 11.431L18.3966 11.4261Z" fill="#EFEFEF"/>
<path d="M14.7644 10.7804L14.492 11.0592L14.7017 10.9467L15.0681 10.5408L14.7644 10.7804Z" fill="#EFEFEF"/>
<path d="M16.2443 9.55516L16.5166 9.40598L16.6154 9.26657C16.4347 9.39375 16.331 9.45734 16.3118 9.45978V9.45245L16.2491 9.55516H16.2443Z" fill="#EFEFEF"/>
<path d="M14.3498 11.0005L14.398 11.0323L14.6101 10.8416L14.7354 10.6948L14.909 10.5726L15.1066 10.35L15.3428 10.1348L15.2946 10.2668L15.473 10.1201L15.7622 9.89022L16.0539 9.5625L16.2877 9.32282L16.0755 9.42065L15.8152 9.65543C15.7212 9.71657 15.6272 9.77772 15.5357 9.83641L15.3693 9.93913C15.097 10.2057 14.827 10.4747 14.5547 10.7413C14.4824 10.7902 14.4125 10.8391 14.3426 10.888L14.0509 11.1424L13.9762 11.2842L14.1281 11.2353L14.3522 11.003L14.3498 11.0005Z" fill="#EFEFEF"/>
<path d="M15.2753 10.7584L15.5357 10.5774L15.8008 10.3671L16.1382 10.2033C16.2226 10.1543 16.3069 10.1054 16.3913 10.0541C16.3334 10.1103 16.2467 10.1935 16.0442 10.3182C15.9406 10.3793 15.849 10.4356 15.7574 10.4894L15.5067 10.6997L15.4441 10.8293L15.5694 10.8049C15.6923 10.7315 15.8177 10.6557 15.943 10.5823L16.4082 10.2155L16.7649 9.88777L17.0613 9.69946L17.1264 9.66277C17.2301 9.60407 17.3337 9.54782 17.4398 9.48913C17.5651 9.42065 17.6928 9.34973 17.8206 9.28125L18.0544 9.04402L18.3243 8.6894L18.2689 8.64293C18.2134 8.67228 18.1556 8.70408 18.1002 8.73342L17.9893 8.88016L17.8206 8.92418L17.6856 8.87772C17.7169 8.8288 17.7507 8.78234 17.782 8.73342L17.8085 8.61603L17.7965 8.62337C17.729 8.6625 17.6591 8.69918 17.5916 8.73831L17.4349 8.88505L17.2469 9.01956L17.1794 9.12717L17.2734 9.14429C17.2445 9.18587 17.1987 9.2519 17.0903 9.38152C17.1505 9.35462 17.2301 9.31793 17.2903 9.29103C17.2686 9.38641 17.2349 9.40598 17.0228 9.52826C16.9215 9.58451 16.8227 9.64321 16.7239 9.69946L16.6106 9.68967L16.5865 9.55761L16.425 9.60163C16.36 9.64076 16.2949 9.67989 16.2322 9.71902L16.1189 9.7288L16.0081 9.78016L15.6875 10.0272L15.3934 10.328L15.1452 10.5726L14.8728 10.844L14.762 11.025L15.0512 10.8489L15.2729 10.7486L15.2753 10.7584Z" fill="#EFEFEF"/>
<path d="M11.6455 14.8011L12.0215 14.3609C12.1179 14.2924 12.2167 14.2264 12.3155 14.1579L12.6 13.8399L12.8603 13.434C13.1857 13.1234 13.2339 13.0549 13.2507 13.0329C13.405 12.825 13.4966 12.7174 14.2293 12.0913L14.6198 11.7685L14.721 11.563L14.4872 11.541L14.2871 11.6486L13.9377 11.9568L13.7231 12.0302L13.5279 12.0864L13.2122 12.287L12.747 12.6489C12.706 12.7101 12.665 12.7687 12.6241 12.8299L12.4674 13.1136L12.0721 13.6736L11.3201 14.6079L11.6624 14.4709L11.6455 14.7986V14.8011Z" fill="#EFEFEF"/>
<path d="M18.4448 9.97092L18.6593 9.97826L18.8184 9.99049L19.1052 9.90244C19.1462 9.96359 19.1462 10.0394 19.1824 10.103C19.2378 10.1103 19.5222 10.0834 19.5873 10.0321C19.6933 9.94891 19.7536 9.81929 19.8669 9.73859C19.9874 9.65299 20.1923 9.61386 20.3055 9.51848L20.5369 9.19321L20.4429 9.06603L20.2573 8.99755H20.0452L20.4068 8.72609C20.4694 8.64538 20.4429 8.61603 20.4333 8.6038C20.3634 8.52799 20.2549 8.53288 20.173 8.47663L19.891 8.62581L19.7946 8.8019C19.7536 8.82147 19.7126 8.84103 19.6717 8.8606L19.4571 8.90462L19.1727 9.09293L19.1583 9.23234L19.3173 9.30081L19.1486 9.56005C18.9654 9.74348 18.951 9.73859 18.7678 9.66766C18.7003 9.70435 18.6111 9.75081 18.5461 9.7875L18.4448 9.97581V9.97092Z" fill="#EFEFEF"/>
<path d="M23.3039 6.84783L23.557 6.65217C23.8141 6.67174 24.0824 6.61549 24.362 6.48342C24.5693 6.40027 24.7693 6.31956 24.9718 6.2413L25.249 6.08723L25.384 5.95272L25.5575 5.97962L25.8708 5.85C26.2645 5.67065 26.4549 5.54592 26.4421 5.47581C26.4758 5.42935 26.4927 5.40489 26.6325 5.32908L26.5891 5.17011L26.1311 5.26549L25.6443 5.38533L25.2683 5.60299L24.7115 5.89402L24.3572 6.05788L23.8824 6.19973L23.4799 6.37826L23.2075 6.33668L23.2292 6.17527L23.1689 6.06522C23.0315 6.12391 22.8942 6.18261 22.7592 6.2413L22.4724 6.3856C22.4724 6.51277 22.5125 6.62853 22.5929 6.73288C22.5278 6.81359 22.4386 6.91875 22.3735 6.99946L22.5182 7.06793L22.8122 7.07772L23.2991 6.84783H23.3039Z" fill="#EFEFEF"/>
<path d="M21.3323 8.8019L21.6071 8.55978L21.6914 8.33967L22.0506 8.23451L22.3012 8.00951L22.5182 7.71114L22.7978 7.42011C22.6098 7.41522 22.5326 7.44212 22.4965 7.4519C22.388 7.49837 22.2795 7.54728 22.1711 7.59375L21.8722 7.65489L21.8553 7.66223C21.5243 7.81875 21.3556 7.9231 21.3492 7.97527C21.3371 8.07554 21.3299 8.12935 21.0575 8.31033C21.0214 8.43016 20.9852 8.55 20.9515 8.67228C20.9708 8.93641 20.966 8.96821 20.9611 9.00978C21.072 8.9462 21.219 8.86304 21.3299 8.8019H21.3323Z" fill="#EFEFEF"/>
<path d="M26.5746 6.36359L27.358 6.10679L27.6183 5.88424L28.0738 5.64946L27.5869 5.61766L26.8614 5.85245C26.6975 5.91114 26.5312 5.97228 26.3673 6.03342L26.4493 6.22663L26.5722 6.36114L26.5746 6.36359Z" fill="#EFEFEF"/>
<path d="M21.3058 6.87962L21.5348 6.86739L21.7613 6.85027L22.0674 6.72065L22.3037 6.51032L22.3326 6.4125L22.1639 6.3856C22.0626 6.43206 21.9614 6.47609 21.8602 6.52255L21.7155 6.54456L21.4143 6.71087L21.3034 6.88206L21.3058 6.87962Z" fill="#EFEFEF"/>
<path d="M21.4601 7.58641L21.677 7.55462L21.9084 7.39321L22.0433 7.16821L21.8409 7.1731L21.7565 7.09484L21.5275 7.21956L21.1516 7.47636L21.031 7.64022L21.2046 7.7038C21.2913 7.66467 21.3781 7.62554 21.4649 7.58641H21.4601Z" fill="#EFEFEF"/>
<path d="M20.3634 8.23206C20.4429 8.19293 20.5249 8.15625 20.6044 8.11712L20.5514 8.0413L20.3634 8.23206Z" fill="#EFEFEF"/>
<path d="M19.1052 8.33967C19.1944 8.31522 19.3149 8.28098 19.4065 8.25652L19.6283 8.10489L19.8042 7.99728L19.8741 8.05353V8.24429L20.0718 8.09266L20.361 7.94348L20.5731 7.82119L20.655 7.66467C20.6864 7.59375 20.7177 7.52527 20.7514 7.45679C20.8093 7.39321 20.8864 7.34674 20.937 7.27581C20.9467 7.26114 21.031 7.13886 20.7707 7.18777C20.7249 7.19755 20.6719 7.20734 20.5056 7.35897C20.4526 7.40788 20.3393 7.37364 20.2694 7.37364C20.185 7.41522 20.1031 7.45435 20.0211 7.49592L20.1344 7.53261C20.2091 7.59619 20.2429 7.64511 20.2308 7.67201C20.2116 7.71359 20.0428 7.76494 20.0332 7.76494C19.9729 7.75761 19.9054 7.70136 19.8524 7.67446C19.7753 7.71359 19.6958 7.75272 19.6186 7.79185L19.5439 7.94348L19.5126 8.08533L19.3101 8.08043L19.3294 7.88478L19.0088 7.97038L18.8473 8.20761L18.8739 8.28587C19.0787 8.30299 19.0956 8.32255 19.1101 8.33723L19.1052 8.33967Z" fill="#EFEFEF"/>
<path d="M81.9286 33.7891C81.8972 33.6522 81.8635 33.5079 81.8273 33.3636C81.931 33.909 82.0033 34.2929 82.0539 34.5717C82.0129 34.3003 81.9695 34.0361 81.9262 33.7916L81.9286 33.7891Z" fill="#EFEFEF"/>
<path d="M81.8225 33.3318L81.8105 33.2731C81.6369 32.4073 81.4441 31.6834 81.2826 31.0916C81.4754 31.862 81.661 32.6543 81.8298 33.3636L81.8249 33.3342L81.8225 33.3318Z" fill="#EFEFEF"/>
<path d="M80.4559 28.2546L80.4246 28.1592C80.4029 28.0834 80.4005 28.0761 80.3282 27.8707L80.5017 28.3965C80.48 28.3304 80.4632 28.2791 80.4559 28.2546Z" fill="#EFEFEF"/>
<path d="M15.4248 13.747L15.7839 13.6125L16.131 13.2921L16.4515 13.0745L16.5359 12.8226L15.9864 13.2285L15.4248 13.747Z" fill="#EFEFEF"/>
<path d="M80.6728 28.9688L80.6777 28.9957L80.6704 28.9761L80.6463 28.9394L80.6367 28.9174L80.6319 28.9125V28.9247L80.5957 28.8514C80.5836 28.8147 80.5668 28.7682 80.5523 28.7315C80.5379 28.6997 80.5354 28.6924 80.533 28.6875C80.4776 28.5774 80.4342 28.4772 80.4342 28.4772C80.4222 28.4527 80.4198 28.4478 80.4149 28.4405L80.4029 28.4209C80.4198 28.4845 80.4318 28.5285 80.5668 28.8196C80.5788 28.8587 80.5909 28.9003 80.6029 28.9394C80.6102 28.9663 80.6174 28.9908 80.627 29.0177C80.6487 29.0861 80.6728 29.1546 80.6945 29.2231C80.7114 29.2794 80.7283 29.338 80.7451 29.3967L80.762 29.4579C80.8536 29.8027 80.9693 30.1402 81.0681 30.4826C81.1139 30.6367 81.22 30.9962 81.22 30.9962C81.2417 31.0549 81.2465 31.0671 81.2537 31.0818C81.2537 31.0541 81.2433 30.9905 81.2224 30.891L81.2561 31.0011C81.2633 31.0304 81.273 31.0622 81.2802 31.094C81.1284 30.4826 80.9717 29.8883 80.8175 29.3674L80.4993 28.3965C80.5499 28.5554 80.627 28.8 80.6608 28.9272L80.6728 28.9712V28.9688Z" fill="#EFEFEF"/>
<path d="M82.225 35.5231C82.1889 35.2932 82.1768 35.2223 82.0563 34.5693C82.2612 35.9022 82.4492 37.4649 82.589 38.6902C82.4926 37.4087 82.3383 36.2592 82.225 35.5231Z" fill="#EFEFEF"/>
<path d="M66.3366 12.7761C66.1486 12.7492 65.9582 12.7247 65.7654 12.7003C65.804 12.7712 65.804 12.7736 65.7967 12.7859C65.7847 12.8054 65.7582 12.7908 65.7485 12.8128C65.7341 12.8454 65.7252 12.8625 65.722 12.8641C65.7027 12.8764 65.6786 12.8715 65.6593 12.8788C65.7003 12.8984 65.7268 12.9399 65.7726 12.9546C65.804 12.9644 65.8305 12.9448 65.8594 12.9448C65.869 12.9448 65.9679 12.9204 65.9679 12.9204C65.9871 12.913 66.0064 12.8935 66.0209 12.8812C66.0329 12.8446 65.9871 12.8299 65.9871 12.7981C65.9968 12.7981 66.0016 12.7957 66.0426 12.8128C66.0619 12.8201 66.0836 12.8226 66.1004 12.8323C66.1342 12.847 66.1631 12.8764 66.2017 12.8861C66.2788 12.8959 66.3535 12.9082 66.4282 12.9179C66.3993 12.8764 66.3704 12.8372 66.3439 12.7957L66.3342 12.7785L66.3366 12.7761Z" fill="#EFEFEF"/>
<path d="M1.8695 31.2505L1.82129 31.6859L1.9876 31.2139L2.18042 30.5755C2.21416 30.4092 2.25032 30.2429 2.28647 30.0791L1.8695 31.253V31.2505Z" fill="#EFEFEF"/>
<path d="M79.434 25.5206C79.434 25.5206 79.4243 25.496 79.4195 25.4837C79.4195 25.4886 79.4268 25.5009 79.434 25.5181V25.5206Z" fill="#EFEFEF"/>
<path d="M76.25 21.0375C76.291 21.0937 76.3175 21.1329 76.3344 21.1598C76.3103 21.1231 76.2838 21.084 76.25 21.0375Z" fill="#EFEFEF"/>
<path d="M28.4064 8.65027L28.7993 8.44484L28.956 8.1538L28.727 7.98261H28.7198C28.2972 8.14239 28.0738 8.23043 28.0497 8.24674C28.0232 8.26386 27.9195 8.38859 27.7798 8.61359L28.0184 8.75054L28.4088 8.64783L28.4064 8.65027Z" fill="#EFEFEF"/>
<path d="M27.3604 11.766L26.9964 12.062L27.2133 12.397C27.3772 12.3359 27.5411 12.2772 27.705 12.216L27.8858 12.0668C27.8762 12.0155 27.8665 11.9641 27.8545 11.9128C27.8255 11.8272 27.7846 11.7465 27.7556 11.6609C27.6351 11.6927 27.4761 11.7342 27.358 11.7636L27.3604 11.766Z" fill="#EFEFEF"/>
<path d="M26.0829 12.1231C26.0396 12.1598 25.9865 12.1769 25.9383 12.2038C25.8515 12.2552 25.7021 12.3946 25.637 12.4557C25.5864 12.5022 25.5358 12.5486 25.4852 12.5951C25.5575 12.6049 25.6274 12.6416 25.7045 12.6293C25.7045 12.6293 25.7792 12.6147 25.9118 12.534C26.0299 12.463 26.1721 12.3139 26.2276 12.2527C26.2685 12.2062 26.2854 12.1476 26.3143 12.0937C26.3191 12.0864 26.324 12.0766 26.3288 12.0693C26.3071 12.0302 26.2782 11.9764 26.2565 11.9348L26.2324 11.9568C26.1818 12.0106 26.1384 12.0742 26.0805 12.1231H26.0829Z" fill="#EFEFEF"/>
<path d="M76.3368 21.1598C76.3368 21.1598 76.3489 21.1795 76.3537 21.1868C76.3537 21.1868 76.3465 21.1745 76.3368 21.1598Z" fill="#EFEFEF"/>
<path d="M82.7023 41.2606C82.7023 41.3242 82.7023 41.3976 82.7023 41.4709C82.7023 41.5663 82.7023 41.6592 82.7023 41.7595C82.7023 41.8304 82.7023 41.8989 82.7023 41.9625V41.9234C82.7023 41.8207 82.7023 41.7179 82.7023 41.6152C82.7023 41.4978 82.7023 41.3804 82.6999 41.263L82.7023 41.2606Z" fill="#EFEFEF"/>
<path d="M68.7252 10.4478C68.7999 10.5139 68.8746 10.5799 68.9493 10.6459C68.877 10.5848 68.877 10.5848 68.8698 10.5823H68.8674C68.8963 10.6288 69.3302 10.9981 69.335 11.0005C69.2795 10.9418 69.2193 10.8905 69.159 10.8342C69.1711 10.844 69.1831 10.8562 69.1952 10.866C69.1205 10.7976 69.0313 10.7168 68.9638 10.6533C68.677 10.3965 68.6601 10.3842 68.636 10.3622C68.6408 10.3696 68.6457 10.3745 68.7252 10.4454V10.4478Z" fill="#EFEFEF"/>
<path d="M51.1978 4.74456C51.6236 4.68261 51.9691 4.74701 52.2342 4.93777C51.81 4.89375 51.5593 4.93777 51.422 4.97935C51.4943 5.03071 51.5883 5.10163 51.6582 5.15299C51.7015 5.14076 51.7449 5.1212 51.7907 5.11386C51.8992 5.10897 52.0076 5.10163 52.1161 5.09674C52.133 5.10163 52.1523 5.10897 52.1691 5.11386C52.28 5.2019 52.3692 5.28261 52.4584 5.36576L52.6753 5.4856C52.7307 5.48315 52.7837 5.48071 52.8392 5.47826C53.0063 5.44891 53.1589 5.43179 53.2971 5.4269C53.3502 5.4269 53.4056 5.42446 53.4586 5.42201C53.6539 5.40734 53.8153 5.52228 53.9937 5.5712C54.2082 5.62745 54.4324 5.61277 54.5818 5.59076C54.7095 5.5712 54.5673 5.40489 54.5963 5.3144C54.6324 5.20924 54.7553 5.29484 54.8084 5.22147C54.7626 5.02337 54.9168 5.02826 55.5628 5.05272C55.464 4.97201 55.3627 4.89375 55.2639 4.81793C55.0888 4.73315 54.9401 4.67364 54.818 4.6394C54.7698 4.63206 54.7192 4.6663 54.671 4.63696C54.5047 4.53424 54.3793 4.38261 54.2227 4.27255C54.1046 4.27255 53.9841 4.26766 53.8635 4.26766C53.743 4.27255 53.7093 4.42174 53.596 4.43886C53.5936 4.45353 53.5888 4.47554 53.584 4.49022C53.2064 4.45435 52.9918 4.43967 52.9404 4.4462C52.8006 4.46087 52.6994 4.57826 52.5596 4.59538C52.4584 4.59783 52.3571 4.60272 52.2559 4.60516C52.2101 4.56848 52.1643 4.52935 52.1185 4.49266C52.0727 4.45598 52.0269 4.41929 51.9811 4.38261C51.7763 4.26033 51.7281 4.275 51.6027 4.30924C51.6485 4.34592 51.6943 4.38261 51.7401 4.41929C51.1689 4.32391 50.8941 4.47554 50.9736 4.58804C51.0315 4.66875 51.1279 4.69076 51.2002 4.74701L51.1978 4.74456Z" fill="#EFEFEF"/>
<path d="M67.1127 9.07581C67.0838 9.05136 67.0525 9.0269 67.0236 9.00245C66.891 8.89728 66.7584 8.78967 66.6234 8.68451L66.6138 8.67717L67.655 9.51603C67.5972 9.46712 67.508 9.39619 67.1127 9.07581Z" fill="#EFEFEF"/>
<path d="M69.2146 10.8832C69.2146 10.8832 69.2024 10.8734 69.1976 10.8685L69.2243 10.8931L69.2146 10.8857V10.8832Z" fill="#EFEFEF"/>
<path d="M60.5858 4.78125C60.6219 4.81304 60.6677 4.82772 60.7063 4.85217C60.7014 4.85217 60.6942 4.84728 60.6894 4.84484C60.7328 4.87908 60.7858 4.90109 60.834 4.93043C60.8195 4.92554 60.8099 4.91821 60.7954 4.91331C60.8195 4.93288 60.8461 4.94511 60.8726 4.96223C60.8991 4.97446 60.9256 4.98668 60.9497 4.99891H60.9569C60.9328 4.9769 60.8967 4.96712 60.8702 4.94511C60.8798 4.94511 60.8846 4.95 60.8919 4.95489C60.9232 4.96956 60.9521 4.98668 60.9834 5.00136C60.9473 4.9769 60.9063 4.95734 60.8677 4.93533C60.8918 4.94755 60.916 4.95978 60.9401 4.97201C60.928 4.96467 60.916 4.95734 60.9039 4.95C60.9087 4.95245 60.916 4.95489 60.9208 4.95978C60.7713 4.87908 60.5761 4.77636 60.4291 4.69565C60.5255 4.7519 60.6267 4.80081 60.7255 4.85462C60.6773 4.83016 60.6315 4.80571 60.5833 4.78369L60.5858 4.78125Z" fill="#EFEFEF"/>
<path d="M61.8005 8.47663C61.7788 8.45951 61.7644 8.44484 61.7571 8.43505C61.7451 8.41304 61.7547 8.38859 61.7427 8.36658C61.7403 8.36168 61.7355 8.35435 61.7306 8.34701C61.7089 8.31522 61.6848 8.28342 61.6487 8.23696L61.6342 8.21739H61.627C61.5643 8.23859 61.5322 8.2663 61.5306 8.30054C61.5306 8.33234 61.5209 8.33967 61.5209 8.34212C61.5017 8.35435 61.48 8.34212 61.4607 8.3519V8.35679C61.4679 8.38614 61.5017 8.40571 61.4968 8.43994C61.4888 8.50027 61.492 8.54103 61.5065 8.56223L61.5788 8.63804C61.6101 8.65761 61.6583 8.66984 61.6921 8.68451C61.7041 8.67228 61.7234 8.66984 61.7306 8.65272C61.7355 8.64293 61.7306 8.62826 61.7234 8.61603C61.7234 8.61114 61.7186 8.6038 61.7162 8.59647C61.7162 8.58913 61.7162 8.58179 61.7162 8.57446C61.7113 8.55489 61.6921 8.54022 61.6945 8.51576C61.7017 8.51087 61.7017 8.51087 61.733 8.51576C61.7957 8.53043 61.8343 8.50842 61.8343 8.50842C61.8343 8.50109 61.8343 8.49864 61.8053 8.47418L61.8005 8.47663Z" fill="#EFEFEF"/>
<path d="M63.8926 11.7098C64.1216 11.7196 64.3482 11.7416 64.5723 11.766C64.541 11.7245 64.5097 11.6804 64.4783 11.6389C64.4181 11.5655 64.3241 11.5288 64.2783 11.4408C64.2927 11.4285 64.312 11.431 64.3289 11.4261C64.3048 11.2891 64.0228 10.9565 63.9023 10.822C63.8565 10.7658 63.8131 10.7095 63.7673 10.6533C63.8203 10.6557 63.9408 10.6655 63.8637 10.5383C63.8372 10.4967 63.7914 10.4552 63.7769 10.4429C63.7022 10.3769 63.6058 10.3402 63.5359 10.2693C63.4877 10.2204 63.4491 10.1641 63.3961 10.1201C63.3913 10.1152 63.3841 10.1128 63.3792 10.1079C63.2997 10.0516 63.0635 9.97337 63.0611 9.97337L63.0249 9.96848C62.9695 9.96603 62.8827 10.0101 62.8803 10.0101C62.8916 10.0736 62.8883 10.1087 62.8707 10.1152C62.8707 10.1152 62.7694 10.0859 62.7381 10.0614C62.624 9.97989 62.4995 9.94076 62.3645 9.94402C62.4778 10.0761 62.5718 10.2253 62.6899 10.3549H62.7309C62.7164 10.3598 62.7092 10.3598 62.6779 10.3549C62.6706 10.3549 62.6586 10.35 62.6513 10.3524C62.608 10.3598 62.567 10.3793 62.5236 10.3818C62.4754 10.3818 62.4513 10.4478 62.3983 10.4307C62.3549 10.416 62.326 10.3769 62.2826 10.3647C62.2609 10.3598 62.2295 10.3745 62.2079 10.3793C62.3645 10.5774 62.5212 10.778 62.6754 10.9834C62.7526 10.9948 62.8442 11.0014 62.9502 11.003C63.0177 11.091 63.0852 11.1815 63.1527 11.272C63.1125 11.2753 63.0506 11.2769 62.9671 11.2769C62.9526 11.3136 63.0056 11.4359 63.0056 11.4359C63.0394 11.5043 63.1045 11.5533 63.1382 11.6217L63.1334 11.6364C63.1093 11.6413 63.0932 11.6462 63.0852 11.6511C63.131 11.8467 63.4853 12.0326 63.5407 11.9348C63.5696 11.881 63.5841 11.8859 63.8131 11.9715C63.8709 11.9935 63.9288 11.8736 63.9215 11.8467C63.9095 11.8076 63.8661 11.788 63.8565 11.7465C63.8516 11.7245 63.8782 11.722 63.8902 11.7098H63.8926Z" fill="#EFEFEF"/>
<path d="M61.1955 5.10408C61.1955 5.10408 61.2124 5.11386 61.2221 5.11875L61.2437 5.13098L61.1955 5.10408Z" fill="#EFEFEF"/>
<path d="M65.6449 12.4973C65.6714 12.5658 65.7244 12.622 65.7606 12.6856C65.9606 12.7223 66.151 12.7492 66.339 12.7761C66.3222 12.7467 66.3029 12.7174 66.286 12.688C66.4692 12.6709 66.6379 12.7541 66.8139 12.7736C66.8524 12.7247 66.8476 12.7101 66.8235 12.6538C67.0139 12.5486 67.0934 12.8005 67.2429 12.8446L67.279 12.8519C67.3754 12.8299 67.4622 12.913 67.5586 12.8715C67.5618 12.8552 67.5546 12.812 67.5369 12.7418C67.5875 12.7516 67.6358 12.7614 67.6864 12.7712L67.7056 12.7492L67.6647 12.6538C67.4453 12.4704 67.4092 12.4264 67.3923 12.4092L67.3586 12.3652C67.3361 12.3342 67.3192 12.3073 67.308 12.2845C67.3385 12.2747 67.3779 12.2764 67.4261 12.2894C67.4212 12.2649 67.3883 12.2071 67.3272 12.1158C67.373 12.1255 67.4188 12.1353 67.4646 12.1451C67.4188 12.0864 67.373 12.0277 67.3272 11.969C67.12 11.8394 67.0115 11.563 66.7247 11.5508C66.7536 11.5851 66.7922 11.6095 66.8139 11.6511L66.7946 11.6755C66.797 11.6951 66.8018 11.722 66.8066 11.7416C66.7777 11.7579 66.5993 11.5924 66.2715 11.2451C66.2016 11.2304 66.1318 11.2182 66.0619 11.206C65.9486 11.0446 65.8642 10.9296 65.7871 10.8636L65.0327 10.3696C64.8471 10.2937 64.741 10.1128 64.5747 10.0101C64.4181 9.91467 64.2204 9.93913 64.0662 9.83397C63.9842 9.77772 63.8926 9.71658 63.9408 9.63098C63.9288 9.61386 63.9119 9.59429 63.8999 9.57717L63.9215 9.55516C63.9424 9.56168 63.9746 9.56168 64.018 9.55516C63.9939 9.52826 63.9698 9.50136 63.9457 9.47446C63.8396 9.36929 63.8444 9.36196 63.8878 9.27636C63.8782 9.26168 63.8661 9.23967 63.8541 9.22744C63.7552 9.12228 63.654 9.01712 63.5552 8.9144C63.3262 8.87772 63.0924 8.84348 62.8562 8.81168C62.8353 8.77092 62.8233 8.74239 62.8201 8.72609L62.8393 8.70407C62.7984 8.64049 62.7357 8.59647 62.6875 8.54266C62.6995 8.50109 62.6875 8.46196 62.6875 8.42038L62.7116 8.40571C62.5983 8.31766 62.5501 8.31032 62.5164 8.30299H62.485C62.4224 8.29565 62.3886 8.29076 62.3525 8.28587C62.2802 8.30054 62.2295 8.29565 61.9933 8.24429C62.0946 8.34456 62.1621 8.47418 62.2464 8.58668C62.3163 8.65761 62.3959 8.71875 62.4561 8.79701C62.2826 8.93397 62.1693 8.62826 61.9957 8.71386C62.0126 9.0538 62.4416 8.91685 62.5622 9.15408C62.5863 9.18098 62.6104 9.20788 62.6345 9.23234C62.6947 9.31549 62.8056 9.35462 62.8297 9.46712C62.7381 9.49484 62.6899 9.51359 62.6851 9.52337C62.6803 9.53315 62.7285 9.58696 62.8297 9.68478C62.8803 9.68967 62.9333 9.69456 62.984 9.7019C62.9968 9.68723 63.1029 9.73288 63.3021 9.83886C63.3696 9.85598 63.4202 9.86331 63.4708 9.86821C63.4178 9.80625 63.3825 9.75326 63.3648 9.70924C63.4033 9.73125 63.454 9.75815 63.4925 9.78016C63.5841 9.90978 63.7384 9.97581 63.8203 10.1152C63.7986 10.1372 63.7673 10.147 63.7432 10.1666C63.7697 10.2375 63.7986 10.2571 63.9095 10.3329C64.0517 10.3622 64.1794 10.3769 64.3024 10.394L64.2686 10.3158C64.6711 10.5139 65.1339 11.0641 65.1363 11.069C65.2874 11.2011 65.3524 11.2899 65.3316 11.3356C65.1749 11.3062 65.0375 11.2158 64.876 11.2035L64.8374 11.1986C64.8182 11.1937 64.7916 11.1889 64.7724 11.1864C64.7483 11.2427 64.7772 11.2842 64.8158 11.338C64.7965 11.3478 64.7467 11.3462 64.6663 11.3332L64.7121 11.4187C64.8881 11.5092 65.1387 11.4432 65.2448 11.6829C65.2255 11.6829 65.2014 11.6804 65.1845 11.6755C65.1572 11.6951 65.1524 11.7416 65.1701 11.8149C65.1484 11.8223 65.1194 11.8272 65.0978 11.8272H65.0712L65.064 11.8223H65.0375L65.0303 11.8174L65.0761 11.903C65.1387 11.9682 65.1845 12.0139 65.2134 12.0399C65.3388 12.15 65.4978 12.0277 65.628 12.0986C65.6859 12.1304 65.7148 12.1427 65.7292 12.1476C66.0217 12.2454 66.1591 12.3196 66.1414 12.3701C66.0305 12.3872 65.9076 12.287 65.8088 12.4068C65.816 12.4264 65.8281 12.4508 65.8377 12.4679L65.8136 12.4875C65.7911 12.4826 65.7373 12.4867 65.6521 12.4997L65.6449 12.4973Z" fill="#EFEFEF"/>
<path d="M70.14 11.766C70.0725 11.7 70.005 11.634 69.9375 11.5679C69.9713 11.6046 70.0099 11.6437 70.046 11.6804C70.0653 11.6976 70.0822 11.7147 70.1014 11.7318C70.1207 11.7489 70.14 11.7685 70.14 11.766Z" fill="#EFEFEF"/>
<path d="M69.9183 11.5484C69.9183 11.5484 69.9303 11.5606 69.9375 11.5679L69.9183 11.5484Z" fill="#EFEFEF"/>
<path d="M38.2041 16.5106C38.0571 16.4984 37.9438 16.4666 37.8619 16.4128C37.7486 16.337 37.7004 16.3418 37.6498 16.359C37.5421 16.3965 37.4248 16.4682 37.2979 16.5742C37.3822 16.5864 37.4714 16.5742 37.5558 16.6035C37.6449 16.6353 37.7052 16.716 37.7944 16.7503C37.7992 16.7503 38.356 16.9459 38.421 16.9435C38.5078 16.9386 38.6139 16.9337 38.7464 16.5033C38.7464 16.5033 38.7512 16.491 38.7512 16.4861C38.6741 16.4813 38.6018 16.4519 38.5247 16.4495C38.4789 16.4495 38.4307 16.4641 38.4018 16.4739C38.2837 16.5155 38.2692 16.5204 38.2017 16.513L38.2041 16.5106Z" fill="#EFEFEF"/>
<path d="M43.7622 16.9655C43.7654 16.9247 43.7212 16.8008 43.6296 16.5937C43.5838 16.4886 43.4826 16.4128 43.4585 16.2929C43.4416 16.2171 43.4729 16.1266 43.5091 16.0312C43.5139 16.0141 43.5235 15.9921 43.5284 15.975C43.5332 15.9579 43.5404 15.9334 43.5452 15.9139C43.5043 15.8601 43.4512 15.7867 43.4103 15.7329C43.2078 15.7606 43.0865 15.7712 43.0463 15.7647C43.0463 15.7647 42.6559 15.6815 42.5257 15.5935C42.4558 15.547 42.4076 15.5177 42.3401 15.5152C42.181 15.5079 42.0316 15.5715 41.8749 15.5739C41.7858 15.5739 41.7014 15.5421 41.6146 15.5323C41.6082 15.2486 41.658 15.0799 41.7641 15.0261C41.8484 14.9772 41.8195 14.8476 41.805 14.7937C41.7737 14.6935 41.6676 14.6788 41.6098 14.6079C41.552 14.6323 41.4869 14.6226 41.429 14.6372C41.4146 14.6421 41.4073 14.6446 41.3929 14.6568L41.3881 14.6617C41.364 14.6812 41.3591 14.6837 41.3109 14.713C41.2603 14.7424 41.2169 14.7668 41.2049 14.8109C41.1832 14.8916 41.2675 14.9307 41.2796 14.9992C41.2892 15.0457 41.2868 15.0946 41.2965 15.1435C41.3061 15.1973 41.2788 15.3179 41.2145 15.5054C41.094 15.8527 40.9277 16.1242 40.8265 16.2856C40.7397 16.425 40.6819 16.5277 40.6529 16.65C40.6336 16.7356 40.6409 16.8383 40.677 16.9484C40.706 17.034 40.7855 17.0878 40.8216 17.1685C41.3664 17.0291 41.9111 16.8921 42.4534 16.7601C42.5908 16.7405 42.6559 16.738 42.8872 16.8652C43.2705 17.078 43.4271 17.1049 43.6055 17.1342C43.6441 17.0609 43.767 17.0682 43.7718 16.963L43.7622 16.9655Z" fill="#EFEFEF"/>
<path d="M36.3386 36.5258C36.2614 36.5527 36.1819 36.5796 36.1048 36.6065C35.8372 36.6799 35.6107 36.8853 35.3142 36.8706C35.0635 36.8584 34.9985 36.7924 34.9527 36.7435C34.8948 36.6832 34.4899 36.6 33.7379 36.494C33.5957 36.45 33.5017 36.269 33.3209 36.3448C33.2607 36.3742 33.2028 36.4109 33.1426 36.4402C32.9883 36.5136 32.7955 36.4916 32.6774 36.6456C32.6276 36.7109 32.499 36.7736 32.2918 36.834C32.1279 36.8951 31.9664 36.9587 31.8025 37.0223C30.6769 37.4332 31.453 37.844 31.4602 37.8489C31.6892 37.9663 31.8121 38.0103 32.3375 37.7878C32.5424 37.6997 32.5641 37.4649 32.7039 37.3231C32.9064 37.1201 33.6728 37.0052 33.8873 37.3402C33.9283 37.4038 33.9548 37.4478 34.044 37.4429L34.69 37.3793C34.8322 37.3109 34.8924 37.3573 34.9937 37.4331C34.9961 37.4356 35.3576 37.7095 35.7336 37.5897C36.3265 37.3793 36.9219 37.1739 37.5172 36.9734C37.3268 36.812 36.717 36.4549 36.3434 36.5283L36.3386 36.5258Z" fill="#EFEFEF"/>
<path d="M36.5603 38.5043C36.476 38.5043 36.4012 38.453 36.3169 38.4505C36.2952 38.4505 36.2663 38.4579 36.2446 38.4628C36.018 38.541 35.7939 38.6217 35.5673 38.7024C35.6372 38.7587 35.695 38.8247 35.7625 38.8785C35.7842 38.8957 35.8204 38.9103 35.8469 38.9177C35.8838 38.9307 35.9473 38.912 36.0373 38.8614C36.1217 38.8149 36.3169 38.8614 36.3988 38.881C36.4326 38.8908 36.4543 38.9177 36.4735 38.9788C36.5025 39.0644 36.5073 39.0717 36.5362 39.106C36.6085 39.0693 36.7001 39.0889 36.7652 39.0253C36.7909 38.9992 36.8351 38.9054 36.8978 38.744C36.9026 38.7293 36.9098 38.7122 36.917 38.7C36.8592 38.6315 36.8833 38.5141 36.7797 38.4774C36.7025 38.4505 36.635 38.5019 36.5603 38.4995V38.5043Z" fill="#EFEFEF"/>
<path d="M42.774 36.4329C42.6824 36.3302 42.7209 36.1908 42.6703 36.0758C42.2895 36.2886 42.2509 36.3106 42.0027 36.3889C41.9255 36.4133 41.846 36.4353 41.7689 36.4598C41.6387 36.4745 41.5134 36.4158 41.3832 36.4427C41.3447 36.4549 41.3061 36.4671 41.2675 36.4769C41.1784 36.5405 41.1808 36.6701 41.0892 36.7313C41.0458 36.7606 40.6939 36.8609 40.6915 36.8633C40.5155 36.9122 40.3806 36.7508 40.2119 36.7704C40.0022 36.7924 39.8142 36.6261 39.5997 36.7043C39.3297 36.8022 39.0405 36.834 38.7705 36.9293C38.7175 36.9505 38.5946 37.0125 38.4018 37.1152C38.4789 37.3622 38.5584 37.6068 38.6355 37.8538C38.838 37.9712 39.1152 38.1326 39.2333 38.1326C39.3104 38.1082 39.3875 38.0837 39.4647 38.0568C39.6205 38.0095 39.7322 37.9027 39.7997 37.7364C39.8479 37.6166 40.1154 37.5016 40.1179 37.5016C40.1299 37.4967 40.1444 37.4943 40.154 37.4894C40.2914 37.4478 40.4432 37.4943 40.5782 37.4283C40.7984 37.319 40.9124 37.2636 40.9205 37.262C41.3206 37.1543 41.7303 36.9342 41.7785 36.8951C41.8653 36.8266 41.899 36.8168 42.0099 36.8266C42.1545 36.8389 42.6125 36.7484 42.6173 36.7459C42.6944 36.7239 42.774 36.6995 42.8511 36.6774C42.8511 36.6774 42.9073 36.622 43.0198 36.5111C43.0198 36.5111 43.0391 36.494 43.0463 36.4891C42.962 36.4451 42.8535 36.516 42.7788 36.4329H42.774Z" fill="#EFEFEF"/>
<path d="M67.937 19.6288C67.966 19.6606 68.0069 19.6997 68.0359 19.7315C68.0768 19.8073 68.0937 19.844 68.1082 19.8807C68.1226 19.9174 68.1395 19.9565 68.154 19.9932C68.125 20.1448 68.1347 20.1791 68.301 20.5166C68.4046 20.5606 68.4914 20.5679 68.5758 20.5753C68.8264 20.5312 69.0337 20.7587 69.2892 20.6927C69.4266 20.7929 69.576 20.8687 69.7182 20.9568C69.8628 21.0986 69.9544 21.287 70.1159 21.4141L70.1014 21.2747L70.005 21.2356L70.0557 21.1916C70.3955 21.2209 70.5136 20.7734 70.8559 20.8076C71.0005 20.6829 70.9089 20.4432 71.0824 20.3332C71.2632 20.2182 71.4512 20.3209 71.6344 20.316C71.6006 20.1938 71.5476 20.069 71.4922 19.9467C71.2495 19.575 71.1105 19.2571 71.0752 18.9929C71.068 18.9465 71.0559 18.8829 71.0487 18.8364C71.0856 18.8152 71.1499 18.8079 71.2415 18.8144C71.2608 18.7484 71.256 18.6774 71.2825 18.6114H71.35L71.3861 18.5429C71.4857 18.538 71.6175 18.5421 71.7814 18.5552C71.791 18.45 71.7356 18.3448 71.6826 18.2372C71.6633 18.2005 71.6464 18.1663 71.6272 18.1296C71.6247 18.1247 71.2994 17.5524 71.3476 17.4668C71.7067 17.4204 71.8995 17.753 72.1936 17.8508C72.2466 17.8655 72.2779 17.8753 72.3092 17.8851H72.3767C72.3623 17.7652 72.2996 17.6576 72.3044 17.5329C72.384 17.5158 72.4057 17.5231 72.4249 17.5304C72.4635 17.5451 72.5165 17.5598 72.5551 17.5647C72.5776 17.475 72.588 17.4065 72.5864 17.3592C72.7672 17.3592 72.9672 17.6209 73.5023 18.3228C73.5473 18.3832 73.6325 18.4688 73.7578 18.5796C73.7771 18.5967 75.7704 20.541 76.2211 21.688C76.1801 21.6783 76.1247 21.6685 76.0813 21.6587L76.0403 21.7198L76.0548 21.7883C75.8427 21.7932 75.7053 21.6269 75.5269 21.5511L75.5486 21.6685C75.7752 21.8935 75.9295 22.1796 76.1608 22.3997C76.3079 22.4829 76.4067 22.5342 76.5031 22.5832C76.4428 22.4389 76.3826 22.2946 76.3223 22.1527C76.3593 22.1201 76.3456 21.9098 76.2813 21.5217H76.3488C76.3569 21.463 76.3312 21.3774 76.2717 21.2649C76.2524 21.2234 76.2331 21.1818 76.2139 21.1402C76.1367 21.1035 76.1054 21.0864 76.0741 21.0693L76.021 21.0277C76.0018 20.9861 75.9825 20.947 75.9632 20.9054C75.9463 20.8639 75.9222 20.8101 75.9053 20.7685C75.956 20.7807 76.0162 20.8174 76.0741 20.8516C76.1488 20.9226 76.2042 20.9837 76.2452 21.0375C75.7969 20.4065 74.0205 17.978 73.6397 17.8337C73.5457 17.7285 73.4951 17.6405 73.4421 17.55L73.4348 17.4693C73.43 17.3984 73.4204 17.3813 73.4107 17.3641C73.336 17.2516 73.2348 17.1611 73.1794 17.0364L73.2444 17.012C73.9868 17.4864 74.3049 18.362 74.9702 18.9098L75.0015 18.9293H75.0063V18.9342C75.9439 19.6997 76.1753 20.9543 76.9586 21.825C77.0671 22.0182 77.1346 22.1674 77.2021 22.3166C77.1683 22.2921 77.137 22.2677 77.1032 22.2432C77.0575 22.1332 77.055 22.1332 76.9924 22.0745C77.0036 22.1266 77.145 22.3736 77.4166 22.8155C77.419 22.7739 77.4142 22.7201 77.3997 22.681C77.6335 22.9402 77.6938 23.2924 77.8866 23.5761C77.9276 23.6201 77.9541 23.6421 77.983 23.6641C77.9999 23.6764 78.0216 23.691 78.036 23.7033C78.0151 23.5826 77.991 23.4905 77.9637 23.4269C77.9468 23.3878 77.93 23.3511 77.9155 23.312C77.8705 23.2255 77.8416 23.1595 77.8287 23.1139C77.8705 23.1302 77.9139 23.1783 77.9589 23.2582C78.0119 23.312 78.024 23.3217 78.0336 23.3315C78.0208 23.2565 77.9693 23.1196 77.8794 22.9207L77.9251 22.9671C77.9139 22.9035 77.8472 22.7698 77.7251 22.566C77.7283 22.584 77.7661 22.6834 77.8384 22.8644C77.6793 22.7054 77.0743 21.6098 77.0695 21.6C77.0309 21.5193 77.0141 21.4826 76.9948 21.4459L76.9731 21.375C76.99 21.397 77.0117 21.4239 77.0309 21.4435C77.1322 21.5951 77.2013 21.688 77.2382 21.7223C77.2623 21.7418 77.272 21.7541 77.284 21.7639C77.2961 21.7736 77.3057 21.7834 77.3178 21.7957C77.2792 21.6562 77.1828 21.5462 77.1346 21.4117C77.137 21.4117 77.5106 21.7492 77.807 22.4144C77.848 22.7861 78.1324 23.0356 78.265 23.3609C78.3036 23.4408 78.3317 23.5027 78.3493 23.5467C78.3807 23.6201 78.3951 23.6519 78.4072 23.6837C78.4626 23.8035 78.5229 23.9185 78.5807 24.0359L78.6145 24.1068L78.641 24.1533L78.6747 24.2242C78.6964 24.2658 78.7253 24.322 78.747 24.3611C78.8169 24.5005 78.8314 24.5543 78.8603 24.6497C78.8917 24.7378 78.9591 24.909 79.029 25.063L79.0652 25.1389L79.0941 25.1976C79.0821 25.1511 79.0652 25.0899 79.0483 25.0459C79.0339 25.0068 79.0146 24.953 79.0001 24.9139C78.9519 24.7916 78.9495 24.7842 78.9037 24.6791C78.8868 24.6351 78.8627 24.5764 78.8459 24.5323C78.8459 24.5177 78.8507 24.5274 78.8579 24.5372L78.8772 24.5666L78.9085 24.6277L78.9423 24.6986L78.9712 24.7573C79.0098 24.8332 79.0459 24.9114 79.0821 24.9872L79.123 25.0753L79.1544 25.1462L79.1785 25.1927L79.1905 25.2098C79.217 25.2514 79.2508 25.3101 79.2725 25.3541C79.3062 25.4103 79.311 25.4177 79.3135 25.425V25.4128L79.2821 25.3272L79.2604 25.2709C79.201 25.1258 79.156 25.0125 79.1255 24.931L79.1182 24.9016C79.1496 24.9505 79.1833 25.019 79.2098 25.0728C79.2411 25.1437 79.2725 25.2122 79.3038 25.2832C79.3472 25.381 79.3906 25.4764 79.4316 25.5742L79.4581 25.6378L79.4725 25.6696C79.5376 25.8041 79.5762 25.8872 79.6123 25.9704C79.593 25.9264 79.5689 25.8652 79.5521 25.8212C79.5207 25.7429 79.5111 25.7185 79.5014 25.694C79.4918 25.6696 79.4532 25.5742 79.4291 25.5204L78.1421 22.7177C76.0452 18.9416 75.9632 18.7948 74.4785 16.7601L73.994 16.1168C73.9169 16.0166 73.8349 15.9212 73.7482 15.8234C73.6132 15.6717 73.4662 15.525 73.3047 15.3832C73.1287 15.2291 72.9407 15.0774 72.7359 14.9332C72.9407 15.0774 73.1287 15.2266 73.3047 15.3832C73.4638 15.525 73.6108 15.6717 73.7482 15.8234C72.637 14.5027 71.2102 12.8984 70.0436 11.6829C69.9689 11.6144 69.8797 11.5288 69.4989 11.1644C69.4772 11.1473 69.4555 11.1277 69.4338 11.1106C69.8604 11.5386 70.2557 11.9959 70.6871 12.4166L70.7474 12.4875C70.6221 12.3946 70.5136 12.2772 70.3786 12.1965C70.4847 12.3823 70.6703 12.4948 70.8053 12.6538L70.786 12.6489C70.2774 12.1842 70.181 12.0986 70.1786 12.0986C70.1689 12.1916 70.2268 12.309 70.2292 12.3139L70.1955 12.3236C70.1312 12.2861 70.083 12.2633 70.0508 12.2552L70.046 12.2918C69.8797 12.2429 69.764 12.1158 69.5134 11.8345C69.482 11.8198 69.4507 11.8052 69.4193 11.7905C69.4193 11.8125 69.429 11.8418 69.441 11.859C69.3977 11.8443 69.388 11.8394 69.3326 11.8052C69.282 11.7807 69.2482 11.766 69.2145 11.7514C69.1904 11.744 69.159 11.7342 69.1349 11.7269C69.1952 11.8223 69.2796 11.8981 69.3519 11.9837C69.3181 11.969 69.282 11.9543 69.2482 11.9397C69.1253 11.8908 69.094 11.8565 68.8457 11.5997L68.8312 11.6193C68.7951 11.6046 68.7614 11.5924 68.7252 11.5777C68.6818 11.5288 68.6384 11.4799 68.595 11.431C68.5275 11.3625 68.4874 11.3168 68.4745 11.294C68.5251 11.294 68.5926 11.3185 68.6601 11.3478C68.8096 11.4187 68.9132 11.5655 69.0795 11.6071C69.0313 11.475 68.436 10.8562 68.4287 10.8514C68.3974 10.8367 68.3661 10.8245 68.3347 10.8098C68.3139 10.8147 68.2793 10.8073 68.2311 10.7878L68.2239 10.8269C68.2431 10.8514 68.2664 10.8832 68.2938 10.9223C68.2817 10.937 68.2745 10.9321 68.2648 10.9296C68.2375 10.9133 68.1435 10.8098 67.9828 10.619C67.9226 10.5554 67.8816 10.5139 67.8406 10.4723C67.4237 10.3842 67.4116 9.79484 66.9633 9.74348C66.9802 9.86331 67.0959 9.90734 67.1489 9.99783L67.1296 10.0272C67.1079 10.0198 67.079 10.0125 67.0549 10.0101C67.0581 10.041 67.1063 10.0981 67.1995 10.1812C67.2308 10.213 67.2429 10.2253 67.2574 10.2399C67.2742 10.2595 67.2983 10.284 67.3152 10.3035C67.2959 10.3133 67.267 10.3207 67.2453 10.3255C67.2598 10.3793 67.5337 10.6492 68.0672 11.1351C68.1033 11.1742 68.1299 11.2035 68.154 11.2304C68.3203 11.431 68.5227 11.5973 68.6939 11.7905C68.7421 11.8467 68.7903 11.903 68.8361 11.9568C68.8071 11.947 68.7806 11.9372 68.7517 11.9274C68.6698 11.925 68.6288 11.9128 68.5758 11.8981C68.5517 11.8908 68.5275 11.8834 68.5034 11.8736C68.3749 11.8198 68.26 11.7791 68.1588 11.7514L68.1467 11.7856L68.1732 11.8223L68.1636 11.859C68.1347 11.859 68.0961 11.859 68.0672 11.8541C68.0672 11.9592 68.166 12.0253 68.1732 12.128L68.1347 12.1427C68.1186 12.1329 68.0841 12.1076 68.031 12.0668C67.9949 12.0546 67.9732 12.0473 67.9515 12.0424C67.9322 12.0375 67.9129 12.0326 67.8913 12.0277C67.8607 12.0326 67.823 12.0245 67.778 12.0033C67.8141 12.0571 67.8599 12.1133 67.9057 12.172L68.1034 12.2918C68.1781 12.3872 68.2552 12.4851 68.3299 12.5804C68.3299 12.5804 68.2713 12.5837 68.154 12.5902C68.125 12.7141 68.1082 12.8054 68.1034 12.8641C68.0696 12.8641 68.0479 12.8592 68.0238 12.8543C68.0045 12.8527 67.9306 12.8364 67.8021 12.8054C67.8696 12.8959 67.9346 12.9864 67.9997 13.0769C68.0672 13.1698 68.1347 13.2628 68.1998 13.3557C68.0431 13.3239 68.0045 13.3166 67.884 13.3337C67.9081 13.434 67.9732 13.5269 68.0359 13.6198C67.9467 13.6027 67.8599 13.5856 67.7683 13.5685C67.6141 13.478 67.1441 13.2408 67.1417 13.2408C67.1465 13.3386 67.2116 13.4315 67.2742 13.5269C67.3722 13.5742 67.4558 13.6639 67.5249 13.7959L67.6237 13.8962C67.6502 13.9353 67.6767 13.9745 67.7033 14.016C67.2043 13.9867 66.903 13.7348 66.9006 13.7323C66.6853 13.7992 66.5712 13.8489 66.5584 13.8815C66.6861 14.1677 67.2477 14.312 67.2525 14.312C67.3176 14.3193 67.3417 14.3242 67.3682 14.3266C67.6117 14.4807 67.8334 14.6641 68.0672 14.8329C68.207 15.0261 68.3106 15.1973 68.4119 15.3709C68.7951 15.7451 69.6965 16.6231 69.4627 17.0168C69.4917 17.0902 69.4676 17.237 69.282 17.2467C69.2555 17.2418 69.2289 17.2394 69.2024 17.2345C68.7734 17.0389 68.4794 16.897 68.3203 16.809C68.0214 16.7625 67.778 16.7356 67.5297 16.7111C67.3369 16.6736 67.1658 16.6158 67.0163 16.5375L66.9729 16.5326L66.9175 16.5766C66.9545 16.6484 66.9762 16.716 66.9826 16.7796C66.8404 16.7674 66.6982 16.7552 66.5536 16.7454L66.5656 16.8481C66.903 17.1758 66.9609 17.6918 67.3297 17.9976C67.4526 18.2421 67.549 18.4524 67.6478 18.6677C67.7659 18.9807 67.6912 19.3476 67.9202 19.6288H67.937ZM71.7187 14.3193C71.4705 14.1921 71.2054 14.0698 70.9282 13.9524C71.2078 14.0698 71.4705 14.1897 71.7187 14.3193Z" fill="#EFEFEF"/>
<path d="M49.231 2.83696C49.1901 2.82717 49.137 2.8125 49.0961 2.80027C49.0744 2.84185 49.043 2.8981 49.0189 2.93967C48.99 2.93967 48.9755 2.93967 48.9611 2.94212C48.79 2.93723 48.6333 2.84918 48.4646 2.83206C48.4115 2.83696 48.3874 2.8394 48.3633 2.84185C48.2091 2.85163 47.8861 2.87119 47.6186 2.75625C47.527 2.7 47.4812 2.67065 47.4354 2.63886C47.7921 2.56549 47.9881 2.50842 48.0235 2.46766C48.2886 2.53614 48.4814 2.8981 48.8141 2.69511L48.7586 2.63886C48.7924 2.61114 48.9169 2.58994 49.1322 2.57527C48.6429 2.01766 47.862 2.34293 47.3149 1.95897C47.3679 1.95081 47.5093 1.97772 47.7391 2.03967C47.8234 2.03234 47.8475 2.03234 47.8716 2.02989L47.9512 2.01766C47.903 1.97364 47.8307 1.92228 47.7728 1.89293C47.7102 1.86114 47.6861 1.84891 47.6644 1.83668C47.4788 1.7144 47.4474 1.68994 47.1389 1.70462C47.1245 1.72174 47.1052 1.74619 47.0907 1.76576C46.9847 1.7731 46.9075 1.77554 46.828 1.78043L46.8449 1.70462C46.8063 1.67527 46.6987 1.64837 46.5219 1.62391L46.505 1.59456C46.599 1.58967 46.693 1.58478 46.787 1.57989C46.8521 1.61168 46.9196 1.64103 46.9847 1.67283C47.0714 1.66793 47.1606 1.66304 47.2474 1.6606C47.2763 1.6288 47.3342 1.6019 47.3751 1.59946C47.4065 1.59946 47.4306 1.59946 47.4571 1.59701C47.5487 1.60679 47.6403 1.62147 47.7343 1.62147C47.7415 1.59946 47.7487 1.57011 47.7535 1.5481C47.4474 1.4038 47.11 1.4894 46.7967 1.4038C46.9485 1.32554 47.1245 1.39402 47.2787 1.33043L47.351 1.31087C47.3848 1.31087 47.4185 1.31087 47.4523 1.31087C47.4764 1.31087 47.5053 1.31087 47.5294 1.31087C47.2426 1.04185 46.8473 1.16168 46.5243 1.02228C46.5725 1.01494 46.64 1.01005 46.6882 1.01005C46.6617 0.980706 46.587 0.953803 46.5099 0.929347C46.0929 0.816847 45.6542 0.838858 45.2372 0.73614C45.177 0.719021 45.1649 0.71413 45.1529 0.711684C45.1939 0.687227 45.2613 0.667662 45.3095 0.662771C45.3843 0.655434 45.4228 0.652988 45.4614 0.652988C45.5554 0.648097 45.6277 0.645651 45.8446 0.692119L45.8832 0.704347C46.0591 0.789945 46.264 0.843749 46.4038 0.841304C46.1941 0.775271 45.9868 0.711684 45.7771 0.652988C45.7579 0.638314 45.7338 0.621195 45.7145 0.608967L45.6735 0.599184C45.5594 0.576358 45.3995 0.566575 45.1939 0.569836C45.1649 0.569836 45.136 0.569836 45.1071 0.569836C45.083 0.569836 45.0516 0.569836 45.0275 0.56739C44.907 0.550271 44.8251 0.52826 44.7455 0.508695H44.8275C44.8926 0.508695 44.9094 0.508695 44.9263 0.508695L45.001 0.503803C44.7841 0.408423 44.2177 0.445108 44.2129 0.445108C44.2587 0.457336 44.3213 0.476901 44.3671 0.494021C44.3591 0.494021 44.0988 0.43288 43.5862 0.310597C43.591 0.298369 43.6441 0.295923 43.6947 0.293477C43.6465 0.283695 43.5838 0.271467 43.538 0.261684C43.5886 0.237227 43.6055 0.237227 43.6224 0.234782C43.4946 0.200543 43.3621 0.188314 43.2343 0.156521C43.2777 0.141847 43.3404 0.132064 43.3862 0.132064C43.3404 0.119836 43.2801 0.107608 43.2343 0.102717C43.256 0.100271 43.2873 0.0953796 43.309 0.0904883C43.2777 0.085597 43.2343 0.07826 43.2006 0.0733687C43.0608 0.0733687 42.9186 0.0733687 42.7764 0.0733687H42.6125C42.6591 0.0619557 42.7627 0.0578796 42.9234 0.0611404C42.9571 0.0611404 42.974 0.0611404 42.9909 0.0611404H43.0656C43.0198 0.0513578 42.9595 0.0415752 42.9138 0.0366839C42.974 0.0366839 42.9885 0.0366839 43.0029 0.0366839C43.0511 0.0366839 43.1138 0.0366839 43.162 0.0391296C43.0993 0.0342383 43.0302 0.0301622 42.9547 0.0269013L42.4679 0.0122274C42.3401 0.0122274 42.2124 0.00733609 42.0846 0.00489044C42.0099 0.00489044 41.9352 0.00489044 41.8605 0.00489044C41.9039 0.00978175 41.9641 0.0146731 42.0075 0.0171187C41.8243 0.0317926 41.6411 0.02201 41.458 0.0269013L41.5303 0.0415752C41.4049 0.0546187 41.331 0.0635861 41.3085 0.0684774L41.376 0.102717C41.2844 0.119836 41.2724 0.122282 41.0747 0.0562491C41.0193 0.0538035 40.9639 0.0489122 40.906 0.0464665C40.8192 0.029347 40.7831 0.02201 40.5083 0.029347C40.4866 0.029347 40.4722 0.029347 40.4577 0.0317926C40.1829 0.0513578 40.1709 0.0513578 40.0721 0.0538035C40.1781 0.0562491 40.2842 0.0611404 40.3902 0.0660317C40.2938 0.0758144 39.954 0.100271 39.9347 0.100271C39.8913 0.0880426 39.9058 0.0880426 39.9202 0.085597C39.966 0.0831513 40.0287 0.07826 40.0745 0.0733687L40.0046 0.0635861C39.9387 0.0652165 39.8021 0.0749991 39.5948 0.0929339C39.4261 0.107608 39.3201 0.11739 39.214 0.127173C38.9585 0.144293 38.7151 0.256793 38.4524 0.217662C38.7512 0.15163 39.0115 0.127173 39.267 0.105162C39.5056 0.0758144 39.7153 0.0611404 39.9202 0.0464665C40.0214 0.0391296 40.1251 0.0244557 40.2263 0.0195644C40.2239 0.0195644 40.1661 0.0195644 40.1082 0.0195644L39.9636 0.0244557C39.9323 0.0244557 39.925 0.0269013 39.9178 0.0269013C39.6744 0.0366839 39.12 0.0635861 39.1176 0.0660317C39.0549 0.0709231 38.985 0.0758144 38.9175 0.0831513C38.7697 0.0913035 38.6605 0.0986404 38.5898 0.105162C38.5054 0.112499 38.421 0.119836 38.3343 0.127173L38.2716 0.132064C38.2186 0.136956 38.1655 0.141847 38.1125 0.146738C38.0836 0.149184 38.0547 0.15163 38.0282 0.154075C37.845 0.178532 37.7172 0.193206 37.5895 0.20788H37.5317C37.5606 0.20788 37.5871 0.202988 37.616 0.198097L37.698 0.19076C38.0667 0.141847 38.4861 0.102717 38.8934 0.0758144C38.7657 0.0831513 38.638 0.0929339 38.5102 0.100271H38.5006C38.4837 0.100271 38.4668 0.102717 38.45 0.105162C38.1101 0.132064 38.0306 0.139401 37.8378 0.156521C37.7968 0.161412 37.7799 0.161412 37.763 0.163858C37.3509 0.200543 36.8857 0.259238 36.7435 0.278803C36.7218 0.281249 36.6905 0.28614 36.6688 0.288586C36.5868 0.305706 36.57 0.308151 36.5555 0.310597C36.4687 0.32038 36.4519 0.322825 36.435 0.325271C36.3169 0.339945 36.3024 0.34239 36.2012 0.35951C36.2494 0.35951 36.3121 0.35951 36.3603 0.357064C36.3056 0.37663 36.2285 0.391303 36.1289 0.401086C36.0349 0.41576 35.9578 0.427988 35.8806 0.440217C35.7665 0.45489 35.5512 0.489945 35.2347 0.54538L35.1961 0.552717C34.9872 0.586956 34.8265 0.617119 34.7141 0.643206L34.69 0.648097L34.6176 0.667662C34.6562 0.667662 34.7092 0.667662 34.7502 0.665217C34.8177 0.655434 34.8876 0.647282 34.9599 0.64076H34.9985C35.0226 0.64076 35.0515 0.64076 35.0756 0.64076L35.0708 0.648097H35.0322L34.9912 0.652988L34.9671 0.65788C34.9454 0.660325 34.9141 0.665217 34.8924 0.670108C34.8442 0.674999 34.837 0.677445 34.8273 0.67989H34.7888L34.7261 0.692119C34.6827 0.699456 34.6273 0.711684 34.5863 0.723912L34.596 0.728804H34.7285C34.8056 0.719021 34.8828 0.709238 34.9599 0.699456L35.0322 0.689673C35.1069 0.674999 35.1238 0.672553 35.1431 0.667662L35.2202 0.660325H35.2612C35.2998 0.652988 35.3504 0.650543 35.3889 0.650543C35.4395 0.650543 35.507 0.648097 35.5552 0.648097H35.5769L35.6059 0.667662L35.5336 0.677445C35.495 0.682336 35.495 0.682336 35.495 0.682336H35.4805C35.4299 0.692119 35.36 0.699456 35.307 0.704347L35.2708 0.709238L35.2274 0.71413L35.1431 0.723912C35.0419 0.73614 35.0177 0.738586 34.8563 0.760597L34.7695 0.767934C34.7261 0.77038 34.6659 0.775271 34.6225 0.780162C34.6514 0.785053 34.6827 0.789945 34.7117 0.794836C34.6659 0.789945 34.6201 0.785053 34.5791 0.782608C34.555 0.785053 34.5453 0.787499 34.5333 0.789945H34.4995L34.4706 0.797282C34.3911 0.80951 34.3525 0.819293 34.314 0.82663C34.22 0.843749 34.126 0.853532 34.032 0.873097C33.9789 0.885325 33.9066 0.899999 33.8536 0.912227L33.8777 0.92201C33.9235 0.92201 33.9838 0.917119 34.0271 0.912227C34.0585 0.907336 34.0681 0.90489 34.0802 0.902445L34.1139 0.897554H34.1501C34.1862 0.895108 34.2344 0.890217 34.2706 0.887771H34.3115C34.3525 0.887771 34.408 0.887771 34.4489 0.887771H34.5212C34.5574 0.895108 34.5646 0.897554 34.5743 0.897554L34.5116 0.909782C34.4754 0.914673 34.4272 0.92201 34.3911 0.924456H34.3091L34.2754 0.931793C34.1814 0.93913 34.085 0.944021 33.991 0.953804H33.9524L33.9139 0.958695C33.8825 0.96114 33.8415 0.963586 33.8102 0.968477L33.7837 0.973369C33.75 0.97826 33.7042 0.985597 33.6704 0.988043H33.5981L33.5692 0.992934C33.5113 1.00027 33.5041 1.00272 33.4945 1.00516C33.4077 1.02228 33.3788 1.02962 33.3474 1.03696L33.374 1.04185C33.5073 1.04837 33.582 1.05734 33.5981 1.06875L33.6126 1.07364V1.08098L33.6535 1.12744C33.5668 1.14701 33.5571 1.14946 33.439 1.15435L33.4246 1.14946L33.4029 1.12744L33.4222 1.08831H33.3306C33.2751 1.08831 33.2679 1.08587 33.2631 1.08342L33.2559 1.07853L33.1522 1.08342L33.063 1.09321H33.0293C32.998 1.10054 32.957 1.11277 32.9256 1.12255L32.8654 1.14456C32.8413 1.15679 32.8075 1.17147 32.7834 1.18369L32.7642 1.19103L32.7376 1.19837L32.6894 1.21793C32.6581 1.23016 32.6147 1.24239 32.5834 1.24973C32.5328 1.26196 32.4846 1.27418 32.434 1.28641L32.3785 1.30598L32.3592 1.31576C32.3062 1.33288 32.3014 1.33533 32.2942 1.33533C32.2146 1.35489 32.1254 1.37446 32.0507 1.40136C32.0387 1.41359 32.0435 1.41603 32.0459 1.41848H32.07L32.1279 1.40869L32.1592 1.40136H32.1737L32.1785 1.39647H32.1857C32.2219 1.38913 32.2725 1.38179 32.3086 1.38179H32.4364C32.5111 1.36956 32.5183 1.36712 32.528 1.36467L32.6147 1.34755C32.6557 1.34511 32.7111 1.34022 32.7521 1.33533L32.781 1.33043H32.8509L32.8437 1.34022C32.8075 1.35 32.769 1.35978 32.7328 1.36712L32.6967 1.37201L32.6653 1.3769H32.634C32.5858 1.38913 32.5183 1.39647 32.4677 1.39891H32.434C32.393 1.40625 32.3351 1.41603 32.2942 1.42826C32.2628 1.4356 32.2556 1.43804 32.246 1.43804C32.1857 1.44538 32.1254 1.45516 32.0652 1.4625C32.029 1.46739 31.9784 1.47473 31.9423 1.47473H31.8483L31.8242 1.48451C31.7856 1.49674 31.7374 1.51386 31.7012 1.52853L31.6723 1.54076L31.6554 1.55299L31.6241 1.56277L31.6072 1.575L31.5253 1.60679L31.6217 1.63369L31.641 1.63859C31.6675 1.65571 31.694 1.67527 31.7205 1.69728C31.6627 1.71196 31.6048 1.72908 31.547 1.74375C31.506 1.75109 31.4482 1.75598 31.4048 1.75842L31.3734 1.76576C31.1662 1.82283 31.0561 1.85543 31.0432 1.86359C30.9613 1.93451 30.8577 1.96386 30.7685 2.02255L30.6962 2.07391L30.6696 2.08369C30.5588 2.11549 30.5033 2.13261 30.4334 2.17174L30.4093 2.18641L30.3828 2.19619V2.21087L30.3587 2.22554L30.3298 2.23533L30.3033 2.24755L30.2936 2.26223L30.2503 2.31603L30.2238 2.32826C30.2382 2.36005 30.2575 2.35516 30.2768 2.34783C30.3274 2.33804 30.3973 2.32581 30.4479 2.31848L30.4768 2.32337L30.5058 2.31359C30.6327 2.27609 30.7211 2.24592 30.7709 2.2231L30.8311 2.18397C30.8673 2.19375 30.9155 2.21576 30.9444 2.24022L30.9589 2.25L30.983 2.25734C30.995 2.27446 31.0071 2.29157 31.0191 2.30869C31.0071 2.34049 30.983 2.38206 30.9589 2.40652C30.9203 2.42609 30.8673 2.44565 30.8239 2.45543L30.7926 2.46522C30.7106 2.48478 30.6359 2.52636 30.5564 2.55571C30.4648 2.59484 30.419 2.60951 30.3708 2.62174C30.2856 2.64293 30.2205 2.65679 30.1755 2.66331C29.9803 2.72201 29.9755 2.72935 29.9345 2.77581C29.9176 2.80272 29.8935 2.8394 29.8646 2.85408C29.8068 2.87119 29.7465 2.89076 29.6887 2.90788C29.6573 2.92744 29.6164 2.9519 29.585 2.96658C29.4476 3.02283 29.2982 3.04484 29.1656 3.11576L29.0885 3.15244L29.0765 3.17201V3.2038L29.0644 3.22337L29.0331 3.24049C28.9752 3.26005 28.9174 3.27717 28.8595 3.29674L28.8306 3.31875L28.8186 3.38723C28.9921 3.43369 29.156 3.36277 29.3247 3.35054C29.4669 3.33587 29.5778 3.30163 29.6863 3.26739L29.8309 3.25761L29.8815 3.24538H29.9201C29.9634 3.24538 30.0189 3.23804 30.0599 3.22581C30.1394 3.20625 30.1587 3.19891 30.178 3.19402L30.2671 3.16223C30.2864 3.15 30.3153 3.13533 30.3346 3.1231C30.4359 3.08397 30.4985 3.0644 30.5612 3.04484C30.5998 3.02527 30.6552 3.00081 30.6962 2.98614C30.7179 2.9788 30.7275 2.97636 30.7395 2.97391C30.7685 2.96658 30.8046 2.95924 30.8311 2.94701C30.8408 2.96658 30.8528 2.98859 30.8625 3.00815L30.8143 3.06685L30.7757 3.08641L30.7154 3.1231C30.6793 3.15734 30.6696 3.15978 30.6576 3.16223L30.6239 3.17201C30.5636 3.18179 30.5491 3.18424 30.5347 3.18913H30.4961C30.4286 3.2038 30.4045 3.21114 30.3804 3.21848C30.3676 3.22337 30.2985 3.25353 30.1731 3.30897C30.1322 3.32119 30.1153 3.32609 30.1008 3.33098C30.059 3.34076 29.9892 3.35462 29.8911 3.37255C29.8405 3.38967 29.8237 3.39456 29.8068 3.39946L29.773 3.41413C29.7128 3.48016 29.6453 3.49973 29.5778 3.52174L29.5441 3.5413C29.5441 3.5413 29.5537 3.55109 30.2599 3.52418C30.2213 3.53641 30.1683 3.55842 30.1346 3.58288V3.60244L30.1659 3.61223L30.2021 3.60489C30.2334 3.6 30.2792 3.59755 30.3105 3.60489L30.3539 3.61223L30.3684 3.6269H30.4093L30.4575 3.61956H30.5347C30.5781 3.61223 30.6359 3.60734 30.6793 3.60244C30.7685 3.60978 30.7878 3.60978 30.8938 3.57799L30.9179 3.57065L30.9926 3.53397L30.9661 3.52174L30.8938 3.50706C30.8938 3.46304 30.9034 3.4606 30.9155 3.45571C31.0617 3.41168 31.1782 3.38723 31.265 3.38234L31.3011 3.37744H31.3445L31.3759 3.36033L31.359 3.32609C31.4072 3.31141 31.4578 3.29674 31.506 3.28206C31.6627 3.28696 31.776 3.24783 31.8049 3.20625L31.8362 3.18668L31.8651 3.16712L31.8989 3.15244H31.9109V3.14755H31.923L31.9832 3.10353L32.0146 3.08397C32.0531 3.06277 32.1415 3.04891 32.2797 3.04239C32.3134 3.03261 32.3496 3.02283 32.3833 3.01304L32.4557 2.99592C32.5111 2.98125 32.5231 2.9788 32.5352 2.97636H32.5762C32.6292 2.97147 32.7015 2.97147 32.7569 2.97636L32.8051 2.97147L32.8461 2.96658C32.9281 2.94456 33.0076 2.92255 33.0895 2.90054L33.1305 2.89321L33.1667 2.88831C33.2197 2.88831 33.2896 2.88831 33.3426 2.89321L33.4149 2.88098C33.4655 2.8663 33.4752 2.86386 33.4872 2.86141L33.5234 2.85163L33.5644 2.86141C33.6077 2.86875 33.6656 2.87609 33.709 2.88098L33.7837 2.8663L33.8199 2.85652C33.856 2.85163 33.9066 2.84674 33.9452 2.85163L34.0199 2.86386C34.0585 2.90788 34.0898 2.94701 34.1235 2.98859C34.1573 3.00081 34.2055 3.01549 34.2392 3.02527L34.3308 3.03016C34.379 3.02038 34.4465 3.01549 34.4971 3.01549L34.5887 3.03016C34.6176 3.04239 34.6538 3.05706 34.6803 3.07418H34.7261C34.7719 3.08886 34.8322 3.10109 34.878 3.11087L34.972 3.14266L35.0226 3.14755C35.0708 3.17201 35.1359 3.20136 35.1865 3.22092C35.2347 3.24293 35.3046 3.2625 35.3552 3.27473L35.4516 3.27962C35.5094 3.30897 35.5119 3.31386 35.5167 3.3163L35.5263 3.38723C35.5673 3.40435 35.6251 3.42147 35.6709 3.43125C35.7384 3.48994 35.7673 3.52418 35.7939 3.56087L35.7649 3.62935C35.871 3.66848 35.9336 3.65136 35.9987 3.63668C36.0228 3.66603 36.0445 3.69538 36.0686 3.72473C36.0252 3.73206 35.9698 3.75163 35.9312 3.77119L35.9144 3.82011C35.9553 3.84456 36.006 3.88369 36.0397 3.91793C35.9963 3.97663 35.9457 3.98886 35.8951 4.00109C35.9168 4.03043 35.9385 4.06223 35.9626 4.09158C36.0268 4.12255 36.1056 4.13397 36.1988 4.12581C36.2735 4.11114 36.3 4.1038 36.3289 4.09891C36.3747 4.09647 36.4326 4.09158 36.4784 4.08668C36.6519 4.05 36.7869 4.01821 36.9194 3.98641L36.8736 3.93016C37.0496 3.71984 38.2451 3.93016 38.3053 4.1038C38.2523 4.11603 38.1969 4.12826 38.1439 4.14049L38.0691 4.14538C37.9679 4.1625 37.9125 4.17473 37.857 4.18696C37.5678 4.26033 37.5003 4.23342 37.4304 4.18451C37.2255 4.24076 37.0086 4.23342 36.8134 4.32636L36.8254 4.39973C36.9194 4.45109 37.0279 4.45109 37.1267 4.48533L37.0978 4.55136C36.9291 4.60027 36.917 4.60272 36.8616 4.73723C36.8978 4.7788 36.9845 4.87908 37.7582 4.83994C37.8482 4.71603 37.9751 4.63696 38.139 4.60272C38.1439 4.53179 38.0981 4.47554 38.0547 4.41685C38.0177 4.425 37.8233 4.44049 37.4714 4.46331C37.4714 4.44619 37.4666 4.42418 37.4642 4.40462C37.5196 4.39239 37.5726 4.38016 37.6281 4.36793C37.7944 4.34592 37.9607 4.36793 38.127 4.35571C38.1993 4.34103 38.2547 4.3288 38.3102 4.31658C38.4861 4.27744 38.5174 4.28478 38.6211 4.33614C38.6404 4.35571 38.6452 4.36549 38.6524 4.37283L38.5994 4.42908L38.6283 4.49511C38.5994 4.55625 38.6066 4.56359 38.6139 4.57337C38.7127 4.61005 38.8163 4.62962 38.9127 4.67364C38.9682 4.73967 39.0091 4.79103 39.0477 4.84239C38.9706 4.85951 38.8934 4.87663 38.8139 4.89375C38.7054 4.89375 38.6596 4.99158 38.5825 5.04049C38.4982 5.05761 38.4644 5.06494 38.4331 5.07228C38.3873 5.06739 38.3246 5.07228 38.2788 5.08696C38.3029 5.19456 38.3656 5.28261 38.4259 5.3731C38.3222 5.38533 38.3005 5.38777 38.18 5.38288C38.1149 5.49538 37.9703 5.5125 37.9028 5.62011C37.951 5.68125 37.9583 5.69348 37.9655 5.70571C38.18 5.85734 38.4716 5.72038 38.6789 5.89891C38.65 5.97473 38.5729 6.00408 38.5271 6.06277C38.6717 6.40027 39.1971 6.43696 39.2935 6.31956C39.308 6.30244 39.308 6.27065 39.3152 6.25109C39.3369 6.24619 39.3659 6.23886 39.3875 6.23641C39.4358 6.22663 39.4671 6.21929 39.4984 6.21196C39.6262 6.22418 39.6358 6.24619 39.6695 6.33179C39.6286 6.35136 39.5755 6.37581 39.5346 6.39049C39.5346 6.49484 39.5209 6.56902 39.4936 6.61304C39.5924 6.90897 39.9805 6.97744 40.0913 6.77935C40.113 6.74022 40.1179 6.68152 40.1227 6.6375C40.1805 6.60978 40.2512 6.59348 40.3348 6.58859C40.4095 6.66929 40.4649 6.75244 40.518 6.83804L40.4963 6.90897C40.3565 6.975 40.3107 7.04592 40.2745 7.10462C40.3372 7.27826 42.1618 8.28098 42.6318 8.25897C42.8077 8.27364 42.9571 8.41304 43.1451 8.36413C43.1789 8.35679 43.2126 8.3519 43.244 8.34456C43.3283 8.27853 43.3331 8.27609 43.4561 8.24185C43.4729 8.2394 43.4898 8.23451 43.5067 8.23206C44.1116 8.22717 44.8323 8.98043 45.3216 8.26875C45.3071 8.24918 45.2879 8.22473 45.2734 8.20516C45.2565 8.18071 45.2421 8.15625 45.2252 8.13179C45.083 7.91658 45.3288 7.63532 45.1095 7.43234C44.9311 7.26848 44.7383 7.12663 44.5527 6.97255L44.5841 6.89185L44.6901 6.85761C44.76 6.84293 44.7913 6.83804 44.8227 6.83315C44.8789 6.80869 44.952 6.78994 45.042 6.7769C45.0243 6.55842 45.0549 6.44185 45.1336 6.42717C45.095 6.26331 45.0107 6.15815 44.9263 6.05543C44.9384 6.03587 44.9528 6.00897 44.9625 5.9894C44.9625 5.9894 44.7672 5.7644 44.5792 5.75706L44.531 5.69592C44.6323 5.59565 44.7865 5.60788 44.8926 5.51984C44.8894 5.51005 44.8516 5.44239 44.7793 5.31685C44.9552 5.28016 45.1384 5.25081 45.3168 5.22391C45.2429 5.1538 45.1858 5.09674 45.1456 5.05272C45.218 4.99402 45.3192 4.97935 45.4204 4.96467C45.5072 5.06902 45.5795 5.14647 45.6373 5.19701C45.8671 5.17908 46.0278 5.07473 46.1194 4.88397C46.2062 4.83994 46.2351 4.83505 46.264 4.83261C46.3347 4.82446 46.4319 4.79837 46.5556 4.75435C46.5315 4.72011 46.5026 4.66875 46.493 4.62962C46.5765 4.52853 46.6199 4.44049 46.6231 4.36549L46.693 4.34103C46.6906 4.29212 46.6786 4.22364 46.6617 4.17717L46.7316 4.14049C46.734 4.09402 46.7364 4.03288 46.7316 3.98641C46.7533 3.97907 46.7822 3.96929 46.8015 3.9644L46.7967 3.88859C46.7412 3.83967 46.681 3.7981 46.6304 3.74674H46.6617C46.693 3.74185 46.734 3.74185 46.7653 3.74674H46.7919L46.816 3.75163L46.8786 3.7663L46.9075 3.77119C46.9413 3.78098 46.9847 3.79565 47.0184 3.80054C47.9367 3.84701 48.0789 3.85435 48.0621 3.55353C48.5152 3.31549 48.7329 3.16793 48.7152 3.11087L48.761 3.04484C48.9129 3.03505 49.0406 3.02772 49.1684 3.02038L49.2383 2.98369C49.2479 2.94212 49.2455 2.87853 49.231 2.8394V2.83696Z" fill="#EFEFEF"/>
<path d="M36.8616 44.2956L36.3289 44.4571L35.5384 44.687L35.0828 44.5524L34.3766 44.1758L34.2368 43.716C34.1621 43.5179 34.0898 43.3174 34.0151 43.1168L33.9066 42.2976C33.844 42.1264 33.7837 41.9576 33.721 41.7864L33.3282 41.4905L32.7232 41.4147L31.9905 41.7742L31.4168 41.8671L30.9275 42.3465L30.4383 42.2389L30.6841 41.7864C30.6166 41.6054 30.5491 41.4269 30.4841 41.2459L30.5033 40.8571V40.231C30.4286 40.028 30.3563 39.8274 30.284 39.6245L30.5323 39.2478L30.4286 38.7734L30.1105 38.6927L29.2862 39.1035L28.7896 39.419L28.7173 39.935L28.7294 40.6639L28.6932 41.3413L28.2763 41.5932L27.7171 42.0505L27.0977 42.4345L26.6373 42.1484L25.9817 42.097L25.6057 41.7057L24.9887 41.2533L24.3692 40.2725L24.0029 39.5266L24.0583 38.7954L23.9523 38.0323L23.4341 37.4331L23.6944 36.5038L24.0945 36.2837L24.3885 35.7285L24.6681 35.1122L25.2803 34.941L25.7479 34.9092L26.0347 34.6084L26.4445 34.8848C26.6132 34.8114 26.7819 34.7405 26.9506 34.6671L27.3363 34.4666L27.1531 34.1976L27.1434 33.6522L27.7581 33.3611L28.1678 33.1239L28.9993 32.8916L29.4477 33.1899C29.5344 33.1557 29.6188 33.1215 29.7055 33.0872L29.8044 32.7766L30.0165 32.6274L30.5058 32.8451L30.9999 33.1679C31.0553 33.3416 31.1107 33.5152 31.1662 33.6889L31.465 33.9163L31.6579 34.222L32.0001 34.3663L32.2628 34.6793L32.6437 34.7405L32.8003 35.1318L33.1233 35.1147L33.2076 34.7747L33.2173 34.2929L32.8774 33.8356L32.4484 33.1068L31.8483 32.5443C31.7519 32.2386 31.6579 31.9353 31.5639 31.6296C31.5446 31.297 31.5855 30.7965 31.6868 30.128L32.123 29.7318L32.5521 29.0103L32.9931 28.4283L33.4607 28.0345L33.4342 27.6212L33.7741 27.247L33.2293 26.7261L32.8799 26.5304L32.8967 26.144L32.5689 25.9117L32.9208 25.5717L33.4077 25.9043L33.48 25.381L33.5957 24.9041L33.7861 24.5617L33.8006 23.6421C34.0633 23.5541 34.326 23.4685 34.5887 23.3829L35.0033 22.9451L35.5697 22.703L35.3214 22.4217L35.0877 21.7565L35.3359 21.1207C35.4902 21.0717 35.6444 21.0228 35.8011 20.9764L35.8565 20.6437L36.4711 20.4823L36.9315 20.0299L37.1508 19.5383L37.7968 19.2962C38.1752 19.2546 38.2113 19.2497 38.4933 19.2228C38.503 19.2742 38.515 19.3402 38.5247 19.3916C38.2089 19.5457 37.9583 19.619 37.7076 19.6899C37.4634 19.9981 37.3927 20.2541 37.4955 20.4579L37.8932 20.5533L38.1559 20.1889L38.3632 19.9565L38.8139 19.6875L39.255 19.306L39.7394 19.0614L39.9901 18.516L40.2842 18.1052L40.2143 17.7383L39.7153 18.0098L39.5298 18.6408L38.9055 18.8413L38.3078 18.7557L37.6353 18.5307L37.1315 17.9658L37.5075 17.5035L37.3003 16.9997L36.5772 17.1562L35.8782 17.5769L35.1624 18.2519L34.555 19.213L34.0223 19.8269L34.1645 19.3647L34.4393 18.8315L34.6321 18.5527C34.6321 18.5527 34.4827 18.4378 34.7574 18.3522L34.8466 17.9462L35.1985 17.4889L35.7288 17.3005L35.8252 16.8481L36.2277 16.5693C36.4615 16.5008 36.6953 16.4323 36.9291 16.3639L38.1824 15.9872L38.8645 15.9041L39.3586 15.7451L39.4815 15.6057L39.7467 15.3073L40.0311 14.7766L40.8072 14.5052L41.1663 14.2679L41.3085 14.0307L40.9855 13.9109L41.0747 13.6908L40.9422 13.3092L40.342 13.3826L40.1395 13.1918C39.9299 13.2432 39.7226 13.297 39.5129 13.3508L39.1128 13.6957L38.8549 13.9598L38.5464 13.9427L38.5512 13.6492L39.0646 13.3459L39.6888 13.0402L39.8961 12.7492L39.455 12.8372L38.9513 12.7761L38.3343 12.7957L37.8835 12.6342L37.3822 12.4899L37.134 12.3041L37.3557 12.1965L37.3702 12.0106L36.8423 11.722L36.2325 11.4236L35.3287 10.8709L34.9961 10.6019L34.6948 11.1595C34.7406 11.2842 34.7864 11.409 34.8322 11.5337L34.3863 11.8174L34.1645 12.172L33.6873 12.2943L33.5017 12.084L33.1305 11.9984L32.6894 12.2258V11.7636C32.6268 11.5802 32.5689 11.3967 32.5135 11.2182L32.3954 10.9394L31.8362 11.0959L31.3469 11.025L30.8601 10.8538L30.0815 10.7658L29.8743 10.9981L29.2789 11.1791L29.0066 11.1522C28.7872 11.228 28.5679 11.3062 28.3486 11.3821L28.122 11.6853L28.4329 11.9054L28.4209 12.3505L28.5559 12.6024L28.8692 12.9057C28.7511 12.9473 28.633 12.9889 28.5125 13.0329L28.6185 13.3899L28.4353 13.681L28.78 13.7372L29.3079 13.8473L29.5585 14.2899C29.6043 14.4758 29.6501 14.6641 29.6983 14.8524L29.4525 15.3709L29.05 15.8527L28.3968 16.1609L28.8885 16.5277C28.9391 16.7405 28.9921 16.9582 29.0451 17.1758L29.3295 17.4815L29.2958 17.8312L29.0885 18.3204L28.4474 18.6334L27.9364 18.2226L27.3676 17.9193C27.3387 17.7848 27.3098 17.6527 27.2808 17.5207L27.0302 17.012L27.0133 16.5277L26.1818 16.7478L25.5768 16.963L25.2345 16.9264L24.456 17.0707L24.1306 16.9141L23.4509 16.8823L22.7544 16.8456L21.9228 17.3935L21.6939 17.188L21.2938 16.6696L20.8671 16.6769L20.5875 16.5351L20.6478 15.6889L21.0286 14.9209L21.4119 14.2312L21.918 13.8253L22.3061 13.3924L22.1349 13.187L21.5131 13.341L21.6264 13.1918L22.294 13.0402L22.5929 12.8543L22.6531 12.5364L23.2075 12.4581L23.5305 12.2649L23.5425 12.0277L23.7426 11.8516L23.839 11.5092L23.4533 11.6315L22.9544 11.8003L22.7712 11.7098L22.2145 11.7636L22.5929 11.6193L23.1979 11.4946L23.6076 11.4359L24.0077 11.162L24.2656 10.7853L23.9667 10.6899C24.1017 10.6361 24.2343 10.5823 24.3692 10.5285L24.6271 10.6239L24.4367 10.9174L24.2777 11.387C24.2873 11.5508 24.2993 11.7171 24.3138 11.8859L23.9041 12.1696L24.039 12.3481L24.4873 12.1867C24.4946 12.2576 24.4994 12.3285 24.5066 12.3995C24.8007 12.3114 25.0417 12.1109 25.2297 11.7978L25.8009 11.5973L26.1119 11.519L26.4372 11.5141C26.5891 11.4579 26.7409 11.4016 26.8928 11.3454V11.0495L26.4348 11.1448L26.1769 10.8783L25.637 11.047L25.1911 10.937L24.7934 11.0177C24.7886 10.9516 24.7838 10.8856 24.779 10.822L25.1478 10.7315L25.2948 10.5285L25.2345 10.3891C25.3767 10.3329 25.5213 10.2791 25.6635 10.2228L25.8009 9.93668L26.1818 9.56494L26.2974 9.33261L26.0564 9.21766L25.8299 8.97065L26.1962 8.78234L26.283 8.50598L25.9841 8.3788L25.5937 8.40081H25.1044C25.2851 8.33233 25.4659 8.26386 25.6491 8.19538L25.7045 8.05353L26.1046 7.93125L26.43 7.94837L26.8711 7.76984L27.2664 7.5644L26.9048 7.46902L27.129 7.34429L27.5194 7.45924L27.9268 7.34674L28.1389 7.52038L28.4474 7.45924L28.6547 7.57907L29.0018 7.55706L29.2307 7.72337L29.6284 7.68913L30.002 7.8163L30.1466 8.07554L29.7682 8.53043L29.4549 8.9731L29.7393 9.20543L29.05 9.51359L28.6595 9.57473C28.5269 9.62119 28.3968 9.66766 28.2642 9.71168L27.8231 10.1446C27.84 10.2375 27.8569 10.3329 27.8762 10.4283L28.4811 10.2913L28.956 10.1079L29.0403 9.90734L29.2331 9.74837L29.5537 9.69456L30.1563 9.62609L30.8167 9.83152L30.9974 10.0076L31.4192 10.1666C31.5831 10.1152 31.747 10.0614 31.9109 10.0101L32.5472 10.213L33.3233 9.99782L33.8825 10.0125L33.8512 9.77772L32.875 9.57228L32.4653 9.48179L32.2267 9.32282L32.8268 9.35217L33.8536 9.4182L34.3983 9.47935C34.3573 9.37174 34.314 9.26413 34.273 9.15897L34.4296 8.8019L33.9235 8.75543L33.6632 8.36168L33.01 8.38859L32.1158 8.07799L32.2966 7.86277L32.4822 7.66712L33.5981 7.87011L34.0536 8.08533L34.4779 8.01929L34.4441 7.63043L34.878 7.36875L34.8828 7.20978C34.9912 7.18043 35.0997 7.15109 35.2082 7.12174L35.2708 6.92853L35.1359 6.70842C34.9213 6.76467 34.7092 6.82337 34.4947 6.88451C34.4754 6.84538 34.4586 6.8038 34.4393 6.76467L33.9669 6.67907L33.6825 6.72554H33.2269C33.1209 6.75489 33.0172 6.78668 32.9112 6.81603L32.7569 6.68152L32.5882 6.56902C32.4099 6.62038 32.2339 6.67418 32.0555 6.72799L31.8266 6.77935C31.7976 6.69864 31.7687 6.61793 31.7398 6.53723C31.8651 6.50054 31.9881 6.46141 32.1134 6.42473L32.2652 6.25598L31.735 6.32201L31.7639 6.20462L31.9905 6.10679L31.6506 6.02853L31.2433 6.07744L31.3397 5.88668L30.9034 5.90625L30.4672 6.05543L30.3684 5.95761L30.0092 6.05788L29.8574 6.07744L30.1153 5.86712L29.7031 5.91603L29.2283 6.15571L28.8571 6.05543L28.7921 5.95516L28.4884 6.04565L28.4426 5.91359L27.9509 5.97717C27.746 6.0481 27.5435 6.11902 27.3387 6.19239L27.2712 6.33668L26.9579 6.47609L26.659 6.54456L26.5674 6.72554L26.2685 6.85027L26.242 6.67174L26.4131 6.43696L26.1191 6.31467L25.9865 6.16549C25.8106 6.23152 25.637 6.29755 25.4611 6.36603L25.208 6.61304L24.8465 6.76467L24.591 6.96766L24.5163 7.20489L24.7332 7.34429L24.5693 7.55951L24.8778 7.73071L24.6175 7.86277L24.2728 7.74782L24.1837 7.45924L24.1668 7.25625L24.4367 6.93098L24.8103 6.6106C24.6488 6.67418 24.4873 6.73777 24.3259 6.8038L23.8028 7.05326L23.2919 7.51304L22.9472 8.02418L22.8556 8.54266L23.3015 8.41304L23.6172 8.29565L23.7426 8.43261L23.3834 8.53777L22.9978 8.77011L23.2991 8.88016C23.4485 8.81902 23.5955 8.75788 23.745 8.69674L23.9715 8.54511L24.2728 8.57446L24.8513 8.48152L24.497 8.69918L24.4753 8.92663L24.7308 8.98288L24.3331 9.57962L24.1427 9.97337L23.8414 10.3524L23.557 10.3671L23.3449 10.0639L23.5618 9.74592L23.0484 9.60407L22.6146 10.059L22.0771 9.79728L21.8819 9.82174L21.9542 9.54538L21.9132 9.29592L21.6601 9.37663L21.6794 9.15163L21.3251 9.07092L20.8503 9.27147L20.7394 9.45978L20.5249 9.57228L20.2549 9.92446L20.3248 10.081L20.2332 10.2717L20.5779 10.3696L20.9298 10.3793L20.7731 10.6875L20.3586 10.8147L20.4357 11.0519L20.8093 10.866L21.2455 10.4772C21.2335 10.5774 21.2214 10.6802 21.2094 10.7853L20.4478 11.4285L20.4598 11.8663L20.0235 11.8272L20.1899 11.4457C20.0934 11.4897 19.997 11.5361 19.9006 11.5802L19.9247 11.2916C20.0139 11.25 20.1007 11.2084 20.1899 11.1693L20.1778 10.778L19.5897 10.822L19.3896 11.1962L19.0257 11.4995L19.5439 11.5557L19.2258 11.8883L19.0835 12.1891L17.9772 12.7663L17.4783 12.8348L17.0951 12.984L16.6612 12.9717L16.2587 13.363L15.6586 13.8864L15.7068 14.1432L15.5091 14.6959L15.3284 14.2679L14.8825 14.3217L14.292 14.7595L13.1591 15.3416L13.2049 15.1704L13.6557 14.7693L13.2146 14.7766L12.8603 15.0139L12.0673 15.2804L11.954 15.1728L11.5877 15.3832L11.349 15.5641L11.1466 15.8601L10.908 16.0728L10.9441 15.7084L10.5922 16.2636L10.3801 16.381L10.4548 15.9481L10.2572 16.041L9.98001 16.4959L9.69078 16.8774L9.4136 17.1391L9.00627 17.5916L8.56278 18.137L9.02073 17.4889L9.3437 17.144L9.6016 16.8579L9.79442 16.5766L9.70765 16.6231L9.28827 17.078L8.79898 17.6527L8.59652 17.841C8.53627 17.8924 8.47842 17.9462 8.42057 17.9976L7.86621 18.7215L7.58422 18.9562L7.56493 18.7655L7.17929 19.147L7.16724 19.0687L7.02745 19.1935L6.73098 19.5897L6.72616 19.5236C6.65627 19.6117 6.58637 19.6997 6.52129 19.7878L6.42247 19.8783C6.36222 19.9614 6.30678 20.0446 6.25134 20.1277C6.20796 20.1937 6.16457 20.2573 6.1236 20.3209L6.2875 20.0372L6.1935 20.1889L6.08745 20.3698C4.30627 23.6495 4.07729 24.0726 3.01919 26.731C2.60945 27.9318 2.07919 29.497 1.7056 30.7736L1.45734 31.7812C1.47181 31.7348 1.48868 31.6883 1.50314 31.6418L1.56822 31.412L1.65499 31.1698L1.65981 31.253L1.78755 30.7785L1.77309 30.9546L1.91047 30.5364C1.71042 31.2603 1.13678 33.5348 1.13437 33.5446L1.05724 33.7818L0.924677 34.3908L0.823447 34.8383L0.688472 35.6258L0.693293 35.6674L0.823447 34.9361L0.871652 34.7552L1.01386 34.1217L1.17775 33.4859L1.58027 32.1163L1.71765 31.5514L2.25996 30.0057L2.31299 29.5557L2.61909 28.778L2.92519 27.878L3.15175 27.4427L3.19273 27.5087L2.8794 28.1592L2.70827 28.6777L2.61186 29.1253L3.02642 28.191L3.28191 27.7557L3.32529 27.4745C3.36386 27.2764 3.52534 27.0465 3.64586 26.8851L3.73022 27.044L3.86037 27.1076L4.0556 26.9976L4.28939 26.6405L4.42196 26.6332C4.4774 26.5745 4.53524 26.5133 4.59309 26.4522L4.69432 26.6111L4.91606 26.638L4.99801 26.8557C5.11852 26.8043 5.26314 26.6821 5.33545 26.572L5.50175 26.6014L5.57165 26.8508L5.85847 26.731L5.75242 27.1223L6.02478 27.0954L5.92837 27.4622L6.11155 27.4255L6.30919 27.3082L6.28509 27.6652L6.41283 27.9293L6.42247 28.3476L6.48514 28.7046L6.76232 28.5285L6.81775 28.9785L7.1094 29.2255L7.18652 29.5141L7.50227 29.541L7.83006 29.4848L8.11206 29.4139L8.13375 29.5043L8.16991 29.6486L8.54109 29.744L8.83032 29.8492L9.01591 30.4019C9.02555 30.578 9.0376 30.7541 9.05206 30.9302L8.82068 30.7443L8.55314 30.4728L8.48565 30.238L8.18678 30.172L7.98673 30.2062L7.94093 29.7929C7.86622 29.8492 7.78909 29.9054 7.71437 29.9617L7.58904 29.9128L7.52155 29.8859L7.35283 29.9054L7.18652 29.9543L6.98888 30.1622L7.09011 30.3016L7.1576 30.3921L7.37934 30.4459L7.60832 30.5804L8.10242 30.7223L8.29283 31.1332L8.5218 31.6712L8.55073 32.219L8.58688 32.9821C8.6158 33.256 8.64955 33.5323 8.68329 33.8087L8.54109 34.1315C8.56519 34.3125 8.58929 34.4959 8.6158 34.6769L8.90986 35.1073L8.92432 35.7163L9.05688 36.1101L9.27863 36.3815L9.37022 36.9562L9.67873 37.2791L10.0547 37.4576L10.4187 38.1326L10.7585 38.2842L10.9248 38.6609L11.2984 38.9739C11.4213 38.8908 11.5443 38.8076 11.6696 38.7245L12.0311 38.8712L12.5349 38.8663L12.9591 39.0937L13.2001 39.5535L13.5134 39.9717L13.9834 40.6981L14.3715 40.8937L14.8535 41.109L15.0464 41.356L14.868 41.7986L15.1669 42.0163L15.6297 42.1361L16.2009 42.2315L16.6034 42.4687L16.6805 42.8283L16.8782 43.041L17.3048 43.0092L17.7796 43.1731L18.1387 43.3321L18.305 43.6745L18.4569 43.4446L18.3532 43.0288L18.0351 42.6644H17.6494L17.4542 42.3049L16.9698 42.1851L16.6395 41.7595L16.3262 41.3609L15.8924 41.1823L15.6321 40.7543L15.2753 40.7837L14.8897 40.2897L14.3787 39.9815L14.1257 39.3408L14.3908 39.1427L14.8511 39.1158L15.2006 39.3432L15.4079 39.9057L16.0876 40.412L16.7528 40.7495L17.3168 40.9378L17.7627 41.1921L18.011 41.6299L18.5702 41.6788L19.0667 41.9478L19.5029 42.2878L20.2887 42.6571L20.7177 43.1144L21.1058 43.2318L20.9105 43.5889L20.978 43.9851L21.7806 44.2076L22.4507 44.4008L23.1328 44.3054L23.9258 44.4081L24.8031 44.4008L25.8009 44.4546L26.5505 44.3494L26.9627 44.122L26.9988 43.8212L27.4592 43.5424L28.1148 43.5986L28.9102 43.8408L29.4019 44.1196C29.5633 44.0486 29.7272 43.9777 29.8911 43.9092C29.9538 43.8823 30.0189 43.8554 30.0815 43.8261H30.3997L30.8745 44.1489L31.5542 44.1098L31.465 43.7992L31.8651 43.8432L32.3857 44.2174C32.9088 44.5011 33.2438 45.0024 33.6849 45.3791L33.8849 45.1614L34.2802 45.2128L34.9213 45.5062C35.4227 45.675 35.9409 45.5552 36.4494 45.6065L36.9604 45.653L36.7628 45.1883L36.8712 44.8068L37.6618 44.5891L37.8498 44.8606L38.086 44.7432V44.3054L37.6835 44.0389C37.416 44.1342 37.1484 44.2296 36.8833 44.3274L36.8616 44.2956Z" fill="#EFEFEF"/>
<path d="M82.7023 41.4709C82.6926 40.8571 82.6348 40.1649 82.3913 37.2082C82.3745 37.0125 82.3672 36.9318 82.3576 36.8486C82.2805 36.1223 81.8201 32.3046 80.3884 28.4772C80.345 28.3793 80.3378 28.3696 80.3306 28.3573C80.2775 28.416 80.2703 28.4038 80.2607 28.3916L79.7328 27.4842C79.0483 27.1565 78.964 26.369 78.5229 25.8554C78.6121 26.3372 78.8169 26.7823 78.9374 27.2543C78.8338 27.313 78.8073 27.2959 78.7808 27.2788C78.5542 27.0832 78.4867 26.7848 78.3156 26.5524C78.0842 26.3959 77.93 26.3103 77.7685 26.2272C77.137 24.8332 75.4908 24.1043 75.3341 22.3997L75.4763 22.3606C75.4137 21.9742 74.9533 21.7565 74.9485 21.7565C74.452 21.7125 74.1547 21.6815 74.0567 21.6636C74.0398 21.7052 74.0157 21.7639 73.9988 21.8054C73.953 21.8103 73.8952 21.8201 73.8494 21.825C73.4091 21.3587 73.095 21.2185 72.907 21.4043C72.8588 21.3995 72.7961 21.3921 72.7479 21.3848L72.7166 21.5413C72.4683 21.5168 72.2201 21.4679 71.9646 21.4215C71.9766 21.5853 72.008 21.7467 72.0152 21.9106C71.9839 21.9424 71.9405 21.9815 71.9067 22.0133C71.6255 21.9481 71.4399 21.9505 71.35 22.0207C71.3234 22.0158 71.2969 22.0133 71.268 22.0084C70.4517 21.7019 69.989 21.5136 69.8797 21.4435C69.8339 21.5976 69.805 21.6978 70.0653 22.4046C69.8869 22.4715 69.6853 22.4845 69.4603 22.4438C69.5736 22.769 69.6845 23.0967 69.7929 23.4269C69.576 23.4073 69.3567 23.3902 69.1349 23.3755C69.2675 23.9332 69.3494 24.503 69.4772 25.063C69.5374 25.2758 69.576 25.4177 69.617 25.5595C69.441 25.5473 69.2627 25.5375 69.0819 25.5277C69.1831 26.0217 69.1952 26.2149 68.906 26.303C68.8706 26.4253 68.7163 26.55 68.4432 26.6772C68.4094 27.4573 68.1299 28.1935 68.0696 28.9688C68.0246 28.9606 67.8607 28.972 67.5779 29.003C67.8792 30.3334 67.8334 30.3603 67.3899 30.6196L67.3754 30.7932C67.3923 30.9717 67.4188 31.116 67.4429 31.2628C67.6647 31.297 67.9298 31.3223 68.2383 31.3386C68.3179 31.4658 68.3323 31.681 68.3395 31.8302C68.2946 31.9068 68.35 32.4962 68.5059 33.5984C68.5179 33.6815 68.5275 33.7671 68.5372 33.8503C68.5854 34.1046 68.5589 34.156 68.4745 34.3272L68.3275 34.3443C68.2793 34.4503 68.3412 34.7698 68.5131 35.303C68.5348 35.4571 68.542 35.5402 68.5517 35.6258C68.6722 36.6212 69.9713 37.6875 70.1665 37.6777C70.2461 38.497 70.3111 39.1451 71.2487 39.2429C71.3066 39.3424 71.3403 39.5992 71.35 40.0133C71.8007 40.3826 72.0465 41.0062 72.6973 41.1261C72.8226 40.9304 72.8371 40.9011 72.8612 40.6639C73.0516 40.5465 73.242 40.6688 73.4348 40.6639C73.5264 40.6541 73.5578 40.659 73.5891 40.6639C73.7 40.672 73.8614 40.6891 74.0735 40.7152C74.3363 41.1334 74.4254 41.2753 75.1076 41.0062C75.1558 40.8399 75.1823 40.747 75.4715 40.5171C75.6499 40.553 75.8033 40.6092 75.9319 40.6859C76.009 40.7054 76.0307 40.7103 76.0548 40.7152C76.1946 40.5342 76.3681 40.3068 76.7682 40.5514C76.8863 41.4 77.043 41.8255 77.043 41.828C77.4817 41.9918 77.807 42.1019 78.1155 42.2193C78.0939 42.4736 78.0698 42.728 78.0432 42.9823C77.8504 43.7723 77.7203 44.5769 77.554 45.3717C77.5082 45.3864 77.4479 45.406 77.3997 45.4207C77.3828 45.4671 77.3611 45.5283 77.3443 45.5747C77.5491 45.9709 77.3973 46.4478 77.6214 46.8416C77.6552 46.8563 77.6889 46.8709 77.7227 46.8856C77.6913 46.888 77.6648 46.8929 77.6528 46.8929C78.0336 47.6022 77.5082 50.3046 77.4672 50.3976C77.4238 50.5419 77.3997 50.6201 77.378 50.7008C76.9811 52.2073 76.5095 53.3902 75.9632 54.2495C75.2594 55.3524 75.2907 56.6682 74.9533 57.8764C74.8762 58.1503 74.7364 58.4022 74.6665 58.681C74.4785 59.0625 74.2857 59.4416 74.088 59.8182L72.2634 63.9856C72.2056 64.081 72.1815 64.1152 72.1598 64.1495C71.8561 64.4283 71.6986 64.6223 71.6874 64.7315C71.7091 64.7486 71.726 64.7584 71.7404 64.7682C71.5492 65.0291 71.4311 65.2459 71.3861 65.4187C71.4657 65.4872 71.5355 65.5386 71.603 65.5899C71.6994 65.5582 71.791 65.5117 71.8874 65.4799C72.0345 65.5484 72.1092 65.6193 72.1767 65.6927C72.2996 65.5753 72.4032 65.4408 72.5189 65.316C72.8925 65.4603 73.8422 64.3378 73.8518 64.328C74.5243 63.516 75.0955 62.6234 75.833 61.8677L75.9078 61.9239C76.1271 61.7552 76.5368 61.3321 76.5392 61.3296C77.0816 60.5323 77.3274 59.5712 77.9107 58.7984C78.8732 57.5201 79.3665 56.8557 79.3906 56.8052C79.4388 56.6951 79.487 56.5851 79.5328 56.475C79.6292 56.2516 79.6983 56.0755 79.7401 55.9467C79.9449 55.438 80.1185 54.9954 80.2824 54.5503C80.4559 53.7285 80.8078 52.9606 80.991 52.1437C81.0199 52.0386 81.0295 52.0019 81.0416 51.9628C81.1501 51.6033 81.3043 51.2633 81.4321 50.9111C81.4369 50.8916 81.4441 50.85 81.4513 50.7986C81.4513 50.8133 81.4562 50.8255 81.4586 50.8402C81.9438 49.2489 82.2098 48.2959 82.2564 47.9813L82.2853 47.7807C82.413 46.5285 82.601 44.863 82.6661 43.606V43.6011C82.6709 43.4495 82.6782 43.2489 82.683 43.0973C82.691 42.7826 82.6966 42.441 82.6999 42.0726C82.6999 41.9552 82.6999 41.8549 82.6999 41.7571V41.4685L82.7023 41.4709Z" fill="#EFEFEF"/>
<path d="M60.8388 47.2916C60.8123 47.2255 60.7497 47.1351 60.593 47.0788C60.4098 47.1008 60.258 47.1228 60.1037 47.1424C59.6458 47.0706 59.3581 46.831 59.2408 46.4234C59.2191 46.4136 59.1926 46.3989 59.1733 46.3891C59.0986 46.3989 58.9902 46.4185 58.8528 46.4454C58.9564 46.4185 59.0576 46.3965 59.1589 46.3818L58.8817 46.1812C58.7612 46.1682 58.6792 46.1674 58.6359 46.1788C58.5563 46.2008 58.5081 46.2815 58.4286 46.3035C58.2285 46.3353 58.0285 46.3696 57.8284 46.4038C57.6356 46.4283 57.5416 46.2375 57.3753 46.1984C57.2427 46.169 57.1053 46.2155 56.9294 46.2766C56.9511 46.4625 56.9535 46.509 56.9583 46.6484C56.4763 46.7462 56.4136 46.5872 56.3678 46.4723C56.3774 46.4511 56.4586 46.3516 56.6112 46.1739L56.5462 46.0614C56.3244 46.0908 56.0255 45.9758 55.934 45.8609C55.8906 45.8054 55.7058 45.7573 55.3796 45.7166C55.3338 45.7239 55.3001 45.7312 55.2663 45.7386C54.9369 45.6522 54.7545 45.613 54.7192 45.6212C54.6686 45.6359 54.6613 45.6383 54.5722 45.675C54.5673 45.8853 54.5963 46.0785 54.6252 46.2742C54.4854 46.3035 54.3456 46.3329 54.2034 46.3598C54.1913 46.2791 54.1793 46.1959 54.1648 46.1152C54.1648 45.9391 54.2685 45.741 54.4179 45.6212C54.4179 45.5649 54.4107 45.4891 54.401 45.4329C54.1865 45.3766 53.9624 45.362 53.7503 45.2861C53.678 45.2935 53.6394 45.3008 53.6032 45.3106C53.5719 45.3179 53.5382 45.3253 53.5068 45.3302C53.22 45.4598 53.4321 45.9929 53.0561 46.0003C53.0417 45.9196 53.0272 45.8364 53.0151 45.7557C53.02 45.6994 53.0127 45.6236 53.0007 45.5674C53.3237 45.1842 53.4144 44.7489 53.273 44.2614C53.1814 44.2394 53.0899 44.2687 52.9959 44.2565C52.8778 44.0658 52.8368 43.8408 52.7958 43.6182C52.6825 43.4666 52.6536 43.2611 52.4873 43.1462C52.468 43.0166 52.4656 43.0117 52.3596 42.9139C52.3354 42.9204 52.1499 42.8894 51.8028 42.8209C51.7546 42.7427 51.7184 42.6522 51.6606 42.5812C51.4436 42.5764 51.3858 42.503 51.3376 42.437C50.997 42.4207 50.768 42.3946 50.6507 42.3587C50.3614 42.2364 50.2482 42.5739 50.0192 42.6081C49.9155 42.6302 49.8577 42.6448 49.7974 42.6595C49.1226 42.6228 48.7827 42.6057 48.4115 42.2829C48.2693 42.1606 48.3392 41.9283 48.1753 41.8158L47.4788 41.6372C47.3366 41.3731 46.9461 41.3535 46.8786 41.016C46.8401 41.0258 46.8039 41.0356 46.7653 41.0454C46.5581 41.1603 46.4062 41.3731 46.1459 41.3927C46.0993 41.3454 46.0358 41.1937 45.9555 40.9378C45.9965 40.9158 46.0495 40.8889 46.0881 40.8668C46.2303 40.659 46.0784 40.5709 45.6325 40.6052C45.5626 40.6908 45.471 40.8081 45.4011 40.8937C45.3819 40.8986 45.3626 40.906 45.3409 40.9109C44.989 40.813 44.8805 40.9084 44.8612 40.928C44.6901 41.1163 44.8781 41.3731 44.7455 41.5687C44.4876 41.9478 44.1454 41.312 43.8104 41.3242C43.5573 41.3902 43.3669 41.4465 43.1741 41.5052C43.0616 41.4856 42.929 41.484 42.7764 41.5003C42.6968 41.3829 42.6607 41.2606 42.6245 41.1383C42.2461 41.2606 41.8773 41.0454 41.5013 41.0967C41.4459 41.2802 41.523 41.4709 41.4748 41.6568C41.2748 41.7497 40.8578 41.9405 41.082 42.3122C41.0844 42.3171 41.3712 43.019 41.3615 43.1168C41.1735 43.134 40.113 42.0603 40.8578 41.1187L40.812 40.972C40.7301 40.9989 40.6457 41.0258 40.5638 41.0527C40.3179 41.2011 40.248 41.4139 40.3541 41.691C40.1395 41.7595 39.9274 41.8304 39.7129 41.9014C39.349 42.1679 39.1321 42.6179 38.6669 42.7598C38.7247 42.9995 38.8019 43.2293 38.879 43.4617C38.8468 43.5399 38.6886 43.6834 38.4042 43.8921C38.609 44.3812 38.4042 44.6331 38.168 44.9242C38.1848 45.1027 38.1439 45.2812 38.1824 45.4598C38.2692 45.4549 38.3535 45.4353 38.4403 45.4231C38.9248 46.4087 39.5273 47.634 38.7561 48.0179L38.7657 48.2185C38.8886 48.2967 38.8934 48.3139 38.932 48.4239C38.8284 48.5437 38.8187 48.5584 38.691 48.7418C38.7103 48.8152 38.7344 48.913 38.7512 48.9864C38.4861 49.1796 38.3391 49.2872 38.5199 49.791C38.3993 49.9109 38.2523 49.9647 38.1053 50.0209C38.3078 50.3951 38.2861 50.8769 38.6452 51.1753C38.8091 50.9674 38.8187 50.9674 39.0332 50.9258C39.1248 50.9869 39.1538 51.0628 39.1827 51.1386C39.1923 51.4027 38.8886 51.4076 38.8115 51.5984C38.8235 51.6253 38.8404 51.662 38.8549 51.6889C38.891 51.6937 38.9296 51.6962 38.9658 51.7011C38.9344 51.7133 38.9007 51.7255 38.8693 51.7353C38.879 51.7818 38.891 51.8405 38.9031 51.887C38.703 52.1682 38.544 52.3908 38.9633 52.6818C39.0839 52.7894 39.0983 52.8285 39.1152 52.8652C39.2863 53.303 39.3176 53.3812 39.6165 53.2932C40.1878 53.1245 41.3085 54.6139 41.3158 54.631C41.3591 54.7459 41.3929 54.8291 41.4242 54.9147C42.2027 55.6288 42.7089 56.6095 43.6103 57.2062L46.3966 58.2016C46.5846 58.5562 46.7003 58.9329 46.816 59.3046C46.8352 59.4562 46.8859 59.6005 46.9124 59.7497L46.9437 59.8549C46.9678 59.9014 46.9991 59.96 47.0232 60.0065C47.0714 60.1215 47.0787 60.1435 47.0835 60.163C47.0859 60.3514 47.1438 60.5299 47.1654 60.7158C47.1799 60.7598 47.192 60.8038 47.2064 60.8478C47.2329 60.887 47.2667 60.9383 47.2908 60.9774C47.3293 61.1095 47.3342 61.1291 47.3414 61.1486L47.3727 61.2514C47.3462 61.4519 47.3462 61.4543 47.4667 61.6769C47.5366 61.7821 47.5487 61.8163 47.5583 61.8505C47.568 61.8848 47.58 61.919 47.5896 61.9533C47.621 62.8728 47.8379 63.7728 47.8355 64.6948C47.8548 64.7584 47.862 64.7804 47.8668 64.8C48.4003 65.9853 48.6044 66.7891 48.479 67.2114C48.4887 67.3288 48.5104 67.3899 48.5297 67.4511C48.9418 68.3682 48.5634 69.4859 49.2503 70.3321C49.2817 70.3712 49.325 70.425 49.3564 70.4641C49.2021 70.9019 49.3226 71.1685 49.4528 71.3128C49.6143 71.347 49.6649 71.3299 49.7179 71.3128L49.4817 70.5595C49.5468 70.5375 49.6119 70.5155 49.6769 70.4959C49.7059 70.5791 49.7348 70.6622 49.7637 70.7454L49.7227 70.8897C49.7637 71.1367 49.8143 71.2785 49.8673 71.4204C49.8593 71.4595 49.9324 71.7505 50.0867 72.2935C50.065 72.291 50.0385 72.2861 50.0192 72.2837L49.8963 72.203C49.8625 72.1076 49.8529 72.0832 49.8408 72.0563L49.7782 71.9242C49.7782 71.9242 49.7782 71.9291 49.783 71.9413C49.7444 72.044 49.7757 72.1223 49.8071 72.2005C49.9581 72.3065 50.0746 72.4639 50.1566 72.6726L50.1156 72.6652C50.0409 72.6212 49.9541 72.5356 49.9083 72.4622C49.8698 72.5747 49.9011 72.6505 49.9324 72.7264C49.8963 72.8095 49.889 72.944 49.9083 73.0321C49.9975 73.0418 50.1132 73.0712 50.1975 73.0981C50.2048 73.1837 50.2385 73.2986 50.2795 73.3745C50.3639 73.3891 50.4699 73.4454 50.5278 73.509C50.4458 73.6288 50.3373 73.7291 50.2771 73.866C50.2891 73.9052 50.294 73.9174 50.3012 73.9296C50.347 74.0054 50.4169 74.1008 50.4747 74.1693C50.5422 74.2671 50.547 74.2769 50.5519 74.2891C50.5784 74.5582 50.8146 74.7293 50.87 74.9861L50.923 75.0644C50.9688 75.0302 50.9905 75.0228 51.0122 75.0155C51.0942 75.2429 51.111 75.2649 51.2147 75.3823C51.4485 75.6196 51.7642 76.05 51.7666 76.05C51.8438 76.0793 51.9329 76.1576 51.9715 76.231C52.0125 76.2432 52.0679 76.2603 52.1089 76.2726C52.2342 76.3019 52.2439 76.2995 52.2511 76.297C52.3861 76.3239 52.4487 76.3043 52.5114 76.2872C52.5379 76.2016 52.5885 76.094 52.6319 76.0158L52.5066 75.9448C52.3716 75.8984 52.362 75.8495 52.3499 75.7981C52.1523 75.7003 52.1499 75.4777 52.0486 75.3163C52.0293 75.2405 52.0245 75.2185 52.0197 75.1965C51.9474 74.9976 51.8831 74.8565 51.8269 74.7734C51.81 74.656 51.8052 74.6315 51.798 74.6095C51.7401 74.4677 51.7208 74.3894 51.6991 74.3111L51.6678 74.1619C51.7208 74.1204 51.7811 74.1008 51.8389 74.0837C51.7931 73.9076 51.6823 73.4943 51.9908 72.7948C51.9811 72.7435 51.9691 72.6897 51.9594 72.6383L51.8172 72.6677C51.6871 72.5209 51.5135 72.4133 51.4171 72.2323C51.3882 72.1247 51.381 72.1003 51.3738 72.0734C51.3834 71.9804 51.4099 71.8606 51.4388 71.7726C51.5955 71.6796 51.6871 71.6527 51.7763 71.6258C51.7449 71.4742 51.7136 71.3201 51.6823 71.166C51.6983 71.0812 51.6999 70.8351 51.6871 70.4274C51.7714 70.4054 51.8775 70.3467 51.9402 70.2856V70.1315C51.9353 70.1022 51.9305 70.0728 51.9233 70.041C51.8365 70.0508 51.7208 70.0924 51.6461 70.1389C51.6172 70.0834 51.5634 69.9367 51.4846 69.6986C51.4653 69.6081 51.4485 69.5177 51.4292 69.4272C51.4581 69.4174 51.4894 69.41 51.5184 69.4003C51.6027 69.4272 51.7088 69.4834 51.7787 69.5372C51.8871 69.5054 51.998 69.4761 52.1065 69.4443L52.0848 69.2976C52.0607 69.2389 52.0559 69.2071 52.051 69.1777C52.0334 68.8223 52.0149 68.6226 51.9956 68.5785C51.9546 68.4269 51.945 68.356 51.9329 68.285C52.0221 68.2606 52.1113 68.2361 52.2005 68.2117C52.2945 68.1628 52.333 68.1505 52.3716 68.1408C52.4126 68.1163 52.468 68.0845 52.5114 68.0625C52.6849 67.9622 52.7789 67.9378 52.8729 67.9158L53.0175 67.9451C53.114 67.5514 53.3212 67.1967 53.4177 66.803C53.4321 66.6049 53.4249 66.5071 53.4177 66.4068L53.3574 66.4215C53.2875 66.3481 53.2803 66.2821 53.2754 66.2185C53.2642 66.137 53.1091 65.9486 52.8103 65.6535C52.8826 65.5312 52.9693 65.5117 53.0537 65.4897C53.4506 65.5223 53.9222 65.2622 54.4685 64.7095C54.9337 64.2399 54.2034 63.3302 54.9626 63.0269C54.9401 63.2503 54.9401 63.3946 54.9626 63.4598C56.0496 62.4473 55.5218 61.0068 55.9002 59.8084C56.1388 59.5247 56.2256 59.1432 56.4811 58.8717C56.6088 58.8473 56.7342 58.8228 56.8595 58.7984C56.882 58.7837 56.9864 58.6361 57.1728 58.3557C57.532 58.2505 57.8501 58.1943 58.1683 58.1405C58.1956 57.8812 58.2333 57.741 58.2816 57.7198C58.4213 57.6587 58.8817 56.6144 58.8841 56.6071C58.905 56.3674 58.9219 56.2141 58.9347 56.1473C58.9853 55.8905 59.2264 55.7095 59.2191 55.4283C59.2191 55.3696 59.2673 54.6897 59.2673 54.6872C59.2673 54.6334 59.2673 54.5943 59.2673 54.5552C59.3421 54.3424 59.4674 53.9829 59.4626 53.6552C59.4626 53.55 59.4626 53.4913 59.4626 53.4302C59.4529 53.3323 59.4264 53.237 59.4192 53.1391C59.4192 53.0486 59.4192 52.9581 59.4192 52.8677L59.4023 52.7894C59.3975 52.5179 59.3927 52.2758 59.3903 52.0337C59.8458 51.7965 59.8434 51.2731 60.082 50.9014C60.4411 50.8769 60.6773 50.3413 61.0702 49.1478C61.1393 48.9832 61.1747 48.7932 61.1763 48.578C61.1739 48.4019 60.8364 47.3014 60.834 47.294L60.8388 47.2916Z" fill="#EFEFEF"/>
</svg>
