<svg width="27" height="29" viewBox="0 0 27 29" fill="none" xmlns="http://www.w3.org/2000/svg">
<path d="M8.97052 25.6828L8.96971 25.6825C8.82127 25.628 8.65065 25.5891 8.46129 25.6084C8.26955 25.6279 8.10537 25.7022 7.96139 25.7986L7.96121 25.7987C7.41051 26.1678 6.85879 26.5257 6.30345 26.8858C5.96537 27.1051 5.62595 27.3252 5.2846 27.5493C5.22514 27.5883 5.18074 27.6166 5.14024 27.6387C5.10056 27.6604 5.07665 27.6694 5.06362 27.673C5.06286 27.6733 5.06216 27.6734 5.06152 27.6736C5.05898 27.6724 5.05552 27.6707 5.0511 27.6681L4.801 28.1011L5.05166 27.6684C5.03479 27.6587 5.03023 27.6526 5.02973 27.6519L5.0297 27.6519C5.0289 27.6508 5.02447 27.6451 5.0189 27.6278C5.00419 27.582 4.99628 27.5086 4.99627 27.3642C4.99706 26.9239 4.99696 26.4832 4.99686 26.0432C4.99683 25.8967 4.9968 25.7502 4.9968 25.6039C4.9968 25.4425 4.99648 25.2777 4.99617 25.111C4.99532 24.6675 4.99445 24.2106 4.99941 23.767L4.49944 23.7614L4.99939 23.7684C5.0012 23.639 4.98251 23.5018 4.92271 23.3652C4.86323 23.2293 4.77632 23.1242 4.68464 23.0401C2.50158 21.0335 1.1568 18.5352 0.668641 15.5451L0.668639 15.5451C0.186019 12.5893 0.753607 9.80758 2.1893 7.22152C4.03294 3.90105 6.76216 1.79213 10.3356 0.876711C11.9318 0.46813 13.5633 0.409302 15.2071 0.61768L15.2071 0.617682C19.155 1.11806 22.227 3.11251 24.4501 6.55678L24.8702 6.28563L24.4501 6.55679C25.6592 8.42992 26.3496 10.5119 26.4777 12.7663C26.6652 16.0651 25.6662 18.9833 23.6919 21.5556L24.0886 21.8601L23.6919 21.5557C21.8492 23.9568 19.4744 25.5005 16.6031 26.1728C14.0217 26.7767 11.4724 26.6068 8.97052 25.6828Z" stroke="black"/>
<path d="M14.17 12.548C14.4127 12.548 14.604 12.632 14.744 12.8C14.884 12.968 14.954 13.2013 14.954 13.5C14.954 13.5747 14.9493 13.654 14.94 13.738C14.9307 13.8127 14.9167 13.878 14.898 13.934C14.702 13.8873 14.4873 13.8593 14.254 13.85C14.198 14.2607 14.0487 14.6947 13.806 15.152C13.5633 15.6 13.2693 16.0247 12.924 16.426C12.5787 16.818 12.2007 17.1633 11.79 17.462C11.3793 17.7607 10.9733 17.9613 10.572 18.064C9.32133 18.036 8.40667 17.7093 7.828 17.084C7.25867 16.468 6.974 15.502 6.974 14.186C6.974 13.2247 7.15133 12.296 7.506 11.4C7.86067 10.4947 8.332 9.692 8.92 8.992C9.508 8.292 10.18 7.732 10.936 7.312C11.7013 6.88267 12.4947 6.668 13.316 6.668C13.96 6.668 14.4593 6.80333 14.814 7.074C15.178 7.34467 15.36 7.72733 15.36 8.222C15.36 8.54867 15.2807 8.852 15.122 9.132C14.9727 9.412 14.7207 9.71533 14.366 10.042C14.1513 9.97667 13.9647 9.86467 13.806 9.706C13.6473 9.538 13.5493 9.34667 13.512 9.132C13.8293 8.89867 14.0533 8.684 14.184 8.488C14.3147 8.292 14.38 8.05867 14.38 7.788C14.38 7.35867 14.1233 7.144 13.61 7.144C13.19 7.144 12.7373 7.30267 12.252 7.62C11.776 7.928 11.2953 8.376 10.81 8.964C10.1193 9.79467 9.61533 10.6533 9.298 11.54C8.98067 12.4173 8.822 13.4067 8.822 14.508C8.822 14.9187 8.864 15.292 8.948 15.628C9.032 15.964 9.144 16.258 9.284 16.51C9.424 16.762 9.58733 16.9627 9.774 17.112C9.97 17.2613 10.18 17.3453 10.404 17.364C10.7027 17.2987 11.0013 17.1493 11.3 16.916C11.5987 16.6733 11.8693 16.3933 12.112 16.076C12.364 15.7493 12.574 15.404 12.742 15.04C12.9193 14.6667 13.0267 14.312 13.064 13.976C12.8027 14.032 12.5507 14.088 12.308 14.144C12.0747 14.1907 11.8507 14.214 11.636 14.214C11.356 14.214 11.1087 14.144 10.894 14.004C10.6887 13.864 10.5487 13.6727 10.474 13.43C10.642 13.3367 10.8847 13.2387 11.202 13.136C11.5287 13.0333 11.874 12.94 12.238 12.856C12.602 12.7627 12.9567 12.688 13.302 12.632C13.6567 12.576 13.946 12.548 14.17 12.548ZM17.1155 17.49C16.5835 17.434 16.1588 17.2007 15.8415 16.79C15.5241 16.3793 15.3655 15.8567 15.3655 15.222C15.3655 14.8487 15.4215 14.4613 15.5335 14.06C15.6455 13.6587 15.8041 13.2713 16.0095 12.898C16.2148 12.5153 16.4575 12.156 16.7375 11.82C17.0175 11.484 17.3208 11.1947 17.6475 10.952C18.1608 10.5693 18.6415 10.378 19.0895 10.378C19.3881 10.5367 19.6821 10.868 19.9715 11.372C20.0181 11.372 20.0601 11.372 20.0975 11.372C20.1348 11.3627 20.1768 11.358 20.2235 11.358C20.7181 11.358 20.9655 11.7967 20.9655 12.674C20.9655 13.262 20.8675 13.822 20.6715 14.354C20.4848 14.8767 20.2188 15.3527 19.8735 15.782C19.5375 16.2113 19.1315 16.5753 18.6555 16.874C18.1888 17.1633 17.6755 17.3687 17.1155 17.49ZM17.8295 13.08C17.6708 13.2947 17.5215 13.528 17.3815 13.78C17.2415 14.032 17.1201 14.2887 17.0175 14.55C16.9148 14.802 16.8355 15.0493 16.7795 15.292C16.7235 15.5253 16.6955 15.7353 16.6955 15.922C16.6955 16.146 16.7328 16.3607 16.8075 16.566C16.8821 16.7713 16.9661 16.888 17.0595 16.916C17.4795 16.8227 17.8621 16.65 18.2075 16.398C18.5621 16.1367 18.8655 15.8147 19.1175 15.432C19.3788 15.0493 19.5795 14.6153 19.7195 14.13C19.8688 13.6447 19.9435 13.1267 19.9435 12.576C19.9435 12.3333 19.9295 12.142 19.9015 12.002C19.8735 11.862 19.8268 11.7407 19.7615 11.638C19.3508 11.7593 18.9821 11.9553 18.6555 12.226C18.3381 12.4967 18.0628 12.7813 17.8295 13.08Z" fill="black"/>
</svg>
