<svg width="20" height="21" viewBox="0 0 20 21" fill="none" xmlns="http://www.w3.org/2000/svg">
<g clip-path="url(#clip0_1232_5135)">
<path d="M18.7218 16.3178C18.7881 16.0461 18.7327 15.7667 18.563 15.5177C18.7363 15.706 18.889 15.9031 19.02 16.1074C19.0936 15.8858 19.0988 15.6558 19.0355 15.4327C19.0355 15.4327 19.3376 15.9603 19.3008 16.1492C19.465 15.9275 19.5272 15.6759 19.4789 15.4286C19.4789 15.4286 19.6474 15.9414 19.5467 16.164C19.6882 15.9903 19.7747 15.7976 19.8004 15.5987C19.8519 15.804 19.8319 16.015 19.7423 16.214C19.8862 16.0503 19.9731 15.8655 19.996 15.6742C20.0117 15.9109 19.9508 16.147 19.8178 16.3651L18.7218 16.3178Z" fill="#C3CE55"/>
<path d="M12.0467 16.4352C12.0057 16.1186 11.9041 15.8073 11.7446 15.5096C11.7446 15.5096 12.0661 15.9872 12.1494 16.1748C12.1205 15.8901 12.0517 15.6081 11.9441 15.3328C12.1104 15.6227 12.2432 15.9214 12.3411 16.2261C12.3716 15.8926 12.3225 15.5579 12.1958 15.2357C12.1958 15.2357 12.5115 15.9171 12.525 16.2503C12.5646 15.9652 12.5522 15.6778 12.4882 15.3949C12.6223 15.6991 12.6966 16.0145 12.709 16.3326C12.7633 16.0465 12.7548 15.7562 12.6838 15.4718C12.8117 15.8372 12.867 16.2131 12.8484 16.589L12.0467 16.4352Z" fill="#D5D848"/>
<path d="M11.3091 16.1883C11.2693 15.9876 11.1725 15.7945 11.0244 15.6202C11.1641 15.7547 11.2934 15.8944 11.4117 16.0385C11.3855 15.8617 11.3202 15.6887 11.2181 15.5258C11.3765 15.7 11.5065 15.886 11.6054 16.0804C11.6433 15.8771 11.6011 15.6704 11.4834 15.4826C11.4834 15.4826 11.7835 15.9049 11.7913 16.1046C11.837 15.9351 11.8304 15.7608 11.7719 15.5932C11.8921 15.7722 11.9581 15.9665 11.9655 16.164C12.0279 15.9954 12.0279 15.8185 11.9655 15.6499C12.0813 15.8652 12.1288 16.0953 12.105 16.3246L11.3091 16.1883Z" fill="#D5D848"/>
<path d="M1.18316 16.3178C1.14504 16.0844 1.21276 15.8484 1.37681 15.6432C1.21561 15.8126 1.0707 15.9893 0.943037 16.1721C0.878084 15.9677 0.878084 15.7558 0.943037 15.5514C0.943037 15.5514 0.66999 16.0588 0.710657 16.2112C0.538151 16.0119 0.462755 15.779 0.49571 15.5474C0.49571 15.5474 0.38533 16.052 0.49571 16.2315C0.340231 16.0826 0.233776 15.9117 0.183933 15.7309C0.165935 15.9191 0.215866 16.1074 0.329169 16.2787C0.166568 16.1442 0.05238 15.9846 -0.00390625 15.8132C0.0244911 16.0205 0.122686 16.2202 0.282695 16.3961L1.18316 16.3178Z" fill="#D5D848"/>
<path d="M2.17476 16.3219C2.14692 16.0762 2.19445 15.8292 2.31419 15.5973C2.18875 15.7629 2.07941 15.9342 1.98692 16.1101C1.95187 15.8899 1.96625 15.6673 2.02952 15.4503C2.02952 15.4503 1.75842 15.9374 1.76616 16.1452C1.6503 15.8923 1.62765 15.6231 1.70032 15.3625C1.70032 15.3625 1.48344 15.8915 1.54928 16.1573C1.43613 15.9412 1.38035 15.7126 1.38468 15.4826C1.29634 15.7235 1.28379 15.9748 1.34788 16.2194C1.21678 16.0032 1.15467 15.7698 1.16585 15.5353C1.10053 15.8297 1.12561 16.1305 1.23944 16.4177L2.17476 16.3219Z" fill="#D5D848"/>
<path d="M11.3806 16.2288C11.3517 15.9831 11.3992 15.7359 11.52 15.5042C11.3942 15.6697 11.2848 15.841 11.1927 16.0169C11.1577 15.7963 11.172 15.5733 11.2353 15.3558C11.2353 15.3558 10.9623 15.8442 10.972 16.0507C10.8561 15.7983 10.8328 15.5297 10.9042 15.2694C10.9042 15.2694 10.6892 15.7983 10.7531 16.0628C10.6398 15.8468 10.5847 15.6181 10.5905 15.3881C10.502 15.6295 10.4895 15.8812 10.5537 16.1262C10.4192 15.9106 10.3532 15.6772 10.36 15.4421C10.296 15.7367 10.3217 16.0374 10.4356 16.3246L11.3806 16.2288Z" fill="#D5D848"/>
<path d="M10.2926 16.411C10.3282 16.138 10.4421 15.8728 10.6276 15.6311C10.4551 15.7926 10.2985 15.9621 10.159 16.1384C10.1817 15.8895 10.2554 15.6442 10.3778 15.4098C10.3778 15.4098 9.97306 15.9009 9.92852 16.1344C9.87767 15.8354 9.92468 15.5323 10.066 15.2479C10.066 15.2479 9.70776 15.797 9.70389 16.1047C9.64621 15.8428 9.65079 15.5761 9.71744 15.3153C9.56157 15.5737 9.48251 15.8514 9.48506 16.1317C9.41141 15.8679 9.41141 15.5967 9.48506 15.3329C9.34021 15.6555 9.28629 15.9945 9.32628 16.3314L10.2926 16.411Z" fill="#D5D848"/>
<path d="M2.16875 16.7051C2.19513 16.3751 2.12936 16.0447 1.9751 15.7322C2.13519 15.9508 2.27553 16.1761 2.39532 16.4069C2.42366 16.1225 2.39367 15.8367 2.30624 15.5582C2.30624 15.5582 2.6703 16.1829 2.67804 16.4663C2.79381 16.1383 2.79381 15.7957 2.67804 15.4678C2.67804 15.4678 3.00144 16.1357 2.95303 16.496C3.06617 16.2098 3.10421 15.9118 3.06534 15.6162C3.21299 15.9305 3.26767 16.2623 3.22607 16.5918C3.35525 16.2998 3.39354 15.9921 3.33838 15.6891C3.47648 16.0835 3.49953 16.4932 3.40616 16.894L2.16875 16.7051Z" fill="#D5D848"/>
<path d="M8.14091 16.554C8.16749 16.224 8.10172 15.8936 7.94727 15.5811C8.10676 15.8025 8.24645 16.0305 8.36554 16.2639C8.39499 15.9795 8.36499 15.6936 8.27646 15.4152C8.27646 15.4152 8.64053 16.0399 8.64827 16.3233C8.76344 15.9948 8.76344 15.6519 8.64827 15.3234C8.64827 15.3234 8.96972 15.9913 8.92325 16.353C9.03631 16.0663 9.07371 15.7678 9.03363 15.4719C9.18197 15.786 9.23667 16.118 9.19436 16.4474C9.32461 16.1556 9.36292 15.8477 9.30667 15.5447C9.44474 15.9391 9.46844 16.3488 9.37639 16.7497L8.14091 16.554Z" fill="#D5D848"/>
<path d="M4.72494 16.7645C4.62635 16.4946 4.46686 16.2372 4.25244 16.0021C4.443 16.1581 4.61956 16.3221 4.7811 16.4933C4.69441 16.2285 4.5604 15.9724 4.38219 15.7309C4.38219 15.7309 4.91278 16.2234 5.02897 16.4933C5.02897 16.4933 5.0038 15.8713 4.62231 15.4503C4.62231 15.4503 5.21488 16.0629 5.30783 16.4636C5.30783 16.4636 5.32719 15.8213 5.05802 15.4003C5.37838 15.7302 5.58088 16.1086 5.64864 16.5041C5.70875 16.0992 5.63113 15.6901 5.42208 15.3099C5.79209 15.7666 5.99183 16.2806 6.00302 16.805L4.72494 16.7645Z" fill="#D5D848"/>
<path d="M7.10869 16.2261C7.11151 16.0376 7.04483 15.8518 6.91504 15.6864C7.04642 15.7935 7.16373 15.9087 7.26554 16.0305C7.27762 15.8468 7.23679 15.6632 7.14548 15.4907C7.14548 15.4907 7.49598 15.8348 7.51341 16.0305C7.51341 16.0305 7.70706 15.5946 7.48824 15.2991C7.48824 15.2991 7.85617 15.7282 7.80195 16.0089C7.80195 16.0089 8.05563 15.5595 7.94137 15.264C8.14432 15.4953 8.21354 15.7717 8.13502 16.0372C8.13502 16.0372 8.4894 15.5798 8.34416 15.2006C8.54747 15.5346 8.5565 15.9105 8.36934 16.249L7.10869 16.2261Z" fill="#D5D848"/>
<path d="M17.9995 16.272C18.0202 15.95 17.9805 15.6274 17.8813 15.3126C17.8813 15.3126 18.1079 15.8064 18.1525 16.0007C18.1811 15.71 18.1681 15.418 18.1137 15.1291C18.2231 15.433 18.297 15.7425 18.3345 16.0547C18.4302 15.7166 18.4479 15.3699 18.3868 15.0279C18.4791 15.3749 18.5219 15.7275 18.5146 16.0804C18.6099 15.7897 18.6541 15.492 18.6463 15.1939C18.7199 15.5152 18.731 15.842 18.6792 16.1654C18.7902 15.8746 18.8404 15.5742 18.8283 15.2735C18.8827 15.6595 18.8632 16.0488 18.7702 16.4312L17.9995 16.272Z" fill="#C3CE55"/>
<path d="M17.2368 16.2747C17.2402 16.0724 17.1822 15.8719 17.0664 15.6864C17.1811 15.8264 17.284 15.971 17.3743 16.1195C17.3859 15.9403 17.3571 15.7609 17.2891 15.5879C17.4102 15.7716 17.5005 15.9645 17.5583 16.1627C17.6365 15.9598 17.6365 15.7462 17.5583 15.5433C17.5583 15.5433 17.7752 15.9819 17.7519 16.1883C17.8303 16.0172 17.858 15.8368 17.8333 15.658C17.9224 15.8484 17.9521 16.0499 17.9204 16.249C18.0138 16.0794 18.0477 15.8967 18.0192 15.716C18.0908 15.9464 18.0908 16.1847 18.0192 16.415L17.2368 16.2747Z" fill="#C3CE55"/>
<path d="M17.2986 16.3165C17.3216 16.0558 17.4183 15.8008 17.5833 15.5662C17.4246 15.7367 17.281 15.9138 17.1533 16.0965C17.1634 15.8638 17.2221 15.6333 17.3276 15.4124C17.3276 15.4124 16.9578 15.9171 16.9268 16.1316C16.8606 15.8608 16.8905 15.5829 17.0139 15.322C17.0139 15.322 16.6925 15.8698 16.706 16.1451C16.6343 15.914 16.6244 15.6757 16.677 15.4421C16.5386 15.6849 16.4728 15.9447 16.4833 16.2058C16.3934 15.9745 16.3775 15.7322 16.4368 15.4961C16.3152 15.7932 16.281 16.1044 16.3362 16.4109L17.2986 16.3165Z" fill="#D5D848"/>
<path d="M16.1735 16.5054C16.266 16.2173 16.4319 15.9431 16.6635 15.6958C16.459 15.8638 16.2689 16.0399 16.0941 16.2234C16.1686 15.9615 16.2916 15.7075 16.4601 15.4678C16.4601 15.4678 15.9566 15.9765 15.8637 16.218C15.875 15.9001 15.9826 15.5874 16.1793 15.3005C16.1793 15.3005 15.7126 15.8685 15.6468 16.1883C15.6422 15.9112 15.6997 15.6354 15.8172 15.3706C15.6153 15.6334 15.484 15.9197 15.4299 16.2153C15.4083 15.9349 15.4608 15.6541 15.5848 15.3868C15.3788 15.7143 15.2582 16.0648 15.2285 16.4218L16.1735 16.5054Z" fill="#D5D848"/>
<path d="M14.0415 16.5013C14.1329 16.1684 14.1329 15.8264 14.0415 15.4934C14.1584 15.7244 14.2529 15.9606 14.3242 16.2004C14.4091 15.9112 14.4359 15.6151 14.4036 15.3207C14.4036 15.3207 14.6438 15.967 14.5973 16.2652C14.5973 16.2652 14.9149 15.7025 14.8045 15.2303C14.8045 15.2303 14.9981 15.9225 14.8742 16.2962C15.0425 16.0055 15.1394 15.6972 15.1608 15.3841C15.2478 15.7191 15.2366 16.0629 15.1279 16.3947C15.3132 16.0991 15.4126 15.7809 15.4203 15.4583C15.4797 15.8787 15.4212 16.303 15.2479 16.7078L14.0415 16.5013Z" fill="#D5D848"/>
<path d="M3.19694 17.0681C3.15459 16.7942 3.0459 16.5273 2.87549 16.2787C3.03571 16.4413 3.17998 16.6113 3.30732 16.7874C3.27442 16.518 3.19176 16.2527 3.06139 15.9981C3.06139 15.9981 3.49322 16.5068 3.55519 16.7874C3.55519 16.7874 3.65395 16.1438 3.36154 15.708C3.36154 15.708 3.83017 16.3422 3.84373 16.7578C3.84373 16.7578 3.9909 16.0925 3.80694 15.6567C4.06685 16.0098 4.1941 16.403 4.17681 16.7996C4.17681 16.7996 4.42274 16.1249 4.18842 15.5623C4.46858 16.0537 4.56261 16.5872 4.46147 17.1113L3.19694 17.0681Z" fill="#D5D848"/>
<path d="M12.7693 16.5176C12.7712 16.2389 12.7057 15.962 12.5757 15.6985C12.7084 15.8775 12.8242 16.0623 12.9223 16.2518C12.9329 15.9795 12.8932 15.7074 12.8042 15.4422C12.8042 15.4422 13.1508 15.9954 13.1682 16.2801C13.1682 16.2801 13.3619 15.6527 13.1431 15.1871C13.1431 15.1871 13.5091 15.8685 13.4548 16.2814C13.4548 16.2814 13.7066 15.6392 13.5923 15.1858C13.7959 15.5598 13.8624 15.9633 13.786 16.3597C13.9902 15.9685 14.0618 15.5496 13.9951 15.1359C14.1935 15.6478 14.2015 16.1864 14.0184 16.7011L12.7693 16.5176Z" fill="#D5D848"/>
<path d="M0.133789 16.3557H19.9847C19.9847 16.3557 11.6113 19.312 8.40451 19.2486C5.4688 19.1919 0.133789 16.3557 0.133789 16.3557Z" fill="#633F21"/>
<path d="M16.6052 16.3557C14.02 17.203 8.95419 18.7547 6.61686 18.7089C6.02033 18.6831 5.43278 18.5949 4.87402 18.4471C6.12306 18.8883 7.39145 19.2297 8.39068 19.2486C11.6072 19.312 19.9805 16.3557 19.9805 16.3557H16.6052Z" fill="#563319"/>
<path d="M0.133789 16.3557H19.9847C19.9847 16.3557 11.6113 18.2083 8.40451 18.1678C5.4688 18.1327 0.133789 16.3557 0.133789 16.3557Z" fill="#8E9332"/>
<path d="M0.133789 16.3557C6.23565 15.9913 12.3704 15.9671 19.9847 16.3557C19.9847 16.3557 11.6113 17.8251 8.39483 17.794C5.4688 17.7657 0.133789 16.3557 0.133789 16.3557Z" fill="#C3CE55"/>
<path d="M12.5137 16.6201C14.2289 16.4174 15.9612 16.2934 17.6996 16.249C11.1156 15.9792 5.61405 16.0291 0.135742 16.3556C0.135742 16.3556 3.62142 17.2745 6.49322 17.6429C8.45764 17.1904 10.4709 16.8484 12.5137 16.6201Z" fill="#D5D848"/>
<path d="M12.2774 16.4244C11.2147 16.2457 10.1062 16.2457 9.04346 16.4244C9.75996 16.7159 11.3382 16.7982 12.2774 16.4244Z" fill="#63352A"/>
<path d="M9.23877 16.4906C10.1526 16.7324 11.1619 16.7324 12.0757 16.4906C11.1396 16.3583 10.1749 16.3583 9.23877 16.4906Z" fill="#8E605A"/>
<path d="M11.1152 2.70731C11.5487 2.84498 12.0147 2.92637 12.4901 2.94748C13.0885 2.94748 14.4111 2.21885 16.0281 3.7085C13.6753 3.43863 13.958 4.54237 12.3856 4.58285C11.9441 4.57722 11.5103 4.50154 11.1172 4.36156V4.22663C11.3786 3.97566 11.3496 3.17957 11.1172 2.9097L11.1152 2.70731Z" fill="#E8513D"/>
<path d="M11.9499 2.90026C11.6647 2.85479 11.3865 2.79018 11.1191 2.70731V2.9151C11.3535 3.18496 11.3825 3.98106 11.1191 4.23203V4.36696C11.5123 4.50693 11.9461 4.58262 12.3875 4.58825C12.4779 4.58712 12.5679 4.5808 12.6567 4.56936C12.6102 4.01344 11.8686 3.68016 11.9499 2.90026Z" fill="#D3382D"/>
<path d="M15.2381 3.66938C14.8992 3.30506 14.3376 2.99471 13.9755 2.77208C13.6653 2.76587 13.3558 2.79551 13.0596 2.85979C13.3277 3.01267 13.5311 3.21345 13.6481 3.44066C13.7651 3.66787 13.7912 3.91296 13.7238 4.14973C14.0859 3.9244 14.4577 3.69231 15.2381 3.66938Z" fill="#D3382D"/>
<path d="M11.0068 2.66141H11.1308V16.6565L11.0068 16.6646V2.66141Z" fill="#603F3C"/>
<path d="M11.0068 4.92422V14.6582C11.0475 14.6015 11.0901 14.5421 11.1308 14.4801V5.0686C11.0901 5.02003 11.0475 4.9728 11.0068 4.92422Z" fill="#936461"/>
<path d="M11.1889 2.66953C11.1889 2.64524 11.1346 2.625 11.0688 2.625C11.003 2.625 10.9487 2.64524 10.9487 2.66953C10.9487 2.69382 11.003 2.71406 11.0688 2.71406C11.1346 2.71406 11.1889 2.69382 11.1889 2.66953Z" fill="#593A35"/>
<path d="M6.24116 16.5567C6.87216 16.5567 7.38368 16.515 7.38368 16.4636C7.38368 16.4122 6.87216 16.3705 6.24116 16.3705C5.61016 16.3705 5.09863 16.4122 5.09863 16.4636C5.09863 16.515 5.61016 16.5567 6.24116 16.5567Z" fill="#898927"/>
<g style="mix-blend-mode:multiply" opacity="0.3">
<path d="M10.2382 16.3934C10.239 16.3622 10.2469 16.3312 10.2615 16.3017C9.84889 16.3139 9.43932 16.3564 9.03955 16.4285C9.47852 16.5826 9.96174 16.6656 10.4532 16.6714C10.3904 16.6388 10.3386 16.597 10.3015 16.549C10.2644 16.501 10.2428 16.4479 10.2382 16.3934Z" fill="#4C241C"/>
</g>
<path d="M7.02728 15.6634C7.02728 15.2249 6.60513 14.8714 6.08615 14.8714C5.56717 14.8714 5.14502 15.2249 5.14502 15.6634C5.14502 16.102 5.56523 16.4555 6.08615 16.4555C6.60706 16.4555 7.02728 16.1006 7.02728 15.6634Z" fill="#E5D8A3"/>
<path d="M6.57633 14.9874C6.63294 15.0918 6.66181 15.2024 6.66153 15.314C6.66153 15.7511 6.23938 16.106 5.7204 16.106C5.54341 16.1051 5.37156 16.0644 5.23047 15.99C5.28884 16.118 5.40185 16.2307 5.55441 16.3129C5.70698 16.3951 5.89187 16.443 6.08446 16.4501C6.60344 16.4501 7.02559 16.0952 7.02559 15.658C7.02969 15.5297 6.99129 15.4025 6.91337 15.2862C6.83546 15.1699 6.72013 15.0676 6.57633 14.9874Z" fill="#E5D8A3"/>
<path d="M6.96347 15.6405C6.96347 15.2208 6.55875 14.8808 6.06107 14.8808C5.5634 14.8808 5.15674 15.2208 5.15674 15.6405C5.15674 16.0601 5.56146 16.4015 6.06107 16.4015C6.56069 16.4015 6.96347 16.0601 6.96347 15.6405Z" fill="#DDCF97"/>
<path d="M6.8747 15.5973C6.8747 15.2101 6.4874 14.8957 6.03233 14.8957C5.57725 14.8957 5.19189 15.2101 5.19189 15.5973C5.19189 15.9846 5.56757 16.3003 6.03233 16.3003C6.49708 16.3003 6.8747 15.9886 6.8747 15.5973Z" fill="#F2E9C2"/>
<g style="mix-blend-mode:overlay" opacity="0.5">
<path d="M6.08063 15.179C6.19682 15.0832 6.22199 14.9577 6.07095 14.9091C5.94978 14.8906 5.82304 14.9043 5.71558 14.9474C5.60811 14.9906 5.52766 15.0602 5.49 15.1426C5.44159 15.2573 5.55972 15.3207 5.7127 15.3126C5.85476 15.3011 5.98576 15.2536 6.08063 15.179Z" fill="#FFF7D7"/>
</g>
<path d="M5.23793 15.8996C5.2322 15.8693 5.21841 15.84 5.19727 15.8132C5.19727 15.8065 5.19727 15.8307 5.19727 15.8658C5.20457 15.8938 5.21693 15.921 5.23406 15.9468C5.24761 15.9589 5.24761 15.9387 5.23793 15.8996Z" fill="#D1C38B"/>
<path d="M5.20543 15.6823C5.20543 15.6378 5.19575 15.6041 5.18607 15.6068C5.17366 15.63 5.16903 15.6549 5.17251 15.6796C5.17039 15.7054 5.17634 15.7312 5.18994 15.7552C5.19962 15.7606 5.20543 15.7269 5.20543 15.6823Z" fill="#D1C38B"/>
<path d="M5.23056 15.4637C5.24025 15.4233 5.23056 15.4003 5.23056 15.4111C5.21429 15.437 5.20258 15.4642 5.19571 15.4921C5.19571 15.5285 5.18603 15.5541 5.19571 15.5487C5.21396 15.5219 5.22573 15.4932 5.23056 15.4637Z" fill="#D1C38B"/>
<path d="M5.56729 16.2922C5.53813 16.2685 5.50641 16.2464 5.4724 16.2261C5.44336 16.2099 5.43948 16.2126 5.46078 16.2261C5.48671 16.2476 5.51521 16.2674 5.54599 16.2855C5.57504 16.3084 5.58472 16.3098 5.56729 16.2922Z" fill="#D1C38B"/>
<path d="M5.47261 16.1654C5.4524 16.1302 5.41977 16.0991 5.37772 16.075C5.34674 16.0615 5.34093 16.075 5.36029 16.1087C5.37878 16.1402 5.40725 16.1683 5.44356 16.191C5.47648 16.2086 5.4881 16.1978 5.47261 16.1654Z" fill="#D1C38B"/>
<path d="M5.39519 15.9576C5.38164 15.9077 5.34485 15.8605 5.31193 15.8524C5.27901 15.8443 5.26739 15.8767 5.28094 15.9212C5.28878 15.9585 5.31476 15.9928 5.35453 16.0183C5.38745 16.0318 5.40681 16.0049 5.39519 15.9576Z" fill="#D1C38B"/>
<path d="M5.36035 15.6864C5.36035 15.6311 5.3313 15.5879 5.29838 15.5906C5.26546 15.5933 5.24609 15.6351 5.24609 15.6837C5.24609 15.7323 5.27127 15.7754 5.30225 15.7795C5.33324 15.7835 5.36228 15.743 5.36035 15.6864Z" fill="#D1C38B"/>
<path d="M5.38538 15.4125C5.39699 15.3625 5.38537 15.3328 5.34277 15.3463C5.30251 15.372 5.27704 15.407 5.27112 15.4448C5.26144 15.4894 5.27112 15.5231 5.30598 15.5177C5.34084 15.5123 5.37569 15.4637 5.38538 15.4125Z" fill="#D1C38B"/>
<path d="M5.45891 15.1925C5.4744 15.1574 5.45891 15.1453 5.42987 15.1615C5.39348 15.1852 5.36504 15.2142 5.34659 15.2465C5.32723 15.2802 5.33497 15.2991 5.36402 15.2856C5.40798 15.2617 5.44096 15.2293 5.45891 15.1925Z" fill="#D1C38B"/>
<path d="M5.55166 15.0535C5.57103 15.0346 5.55167 15.0346 5.53036 15.0535C5.49953 15.0725 5.47103 15.0933 5.44516 15.1156C5.42386 15.1372 5.42773 15.1412 5.45678 15.125C5.49296 15.1044 5.52488 15.0803 5.55166 15.0535Z" fill="#D1C38B"/>
<path d="M5.81514 16.3691C5.78589 16.3431 5.74608 16.3238 5.70089 16.3138C5.65248 16.3017 5.63117 16.307 5.6486 16.3259C5.6772 16.3482 5.71307 16.3653 5.75317 16.3759C5.79771 16.3934 5.82482 16.384 5.81514 16.3691Z" fill="#D1C38B"/>
<path d="M5.75729 16.2396C5.74799 16.2186 5.73149 16.1996 5.70922 16.1841C5.68695 16.1685 5.65958 16.157 5.62949 16.1506C5.57527 16.1398 5.54622 16.1614 5.56365 16.1964C5.57407 16.2147 5.58975 16.2314 5.60973 16.2453C5.62972 16.2592 5.65357 16.2701 5.67984 16.2774C5.73212 16.2895 5.76698 16.2733 5.75729 16.2396Z" fill="#D1C38B"/>
<path d="M5.70878 16.0062C5.70559 15.9802 5.69163 15.9554 5.6686 15.9348C5.64557 15.9142 5.61446 15.8987 5.57904 15.8901C5.51901 15.8901 5.48222 15.9252 5.49384 15.9778C5.49808 16.0015 5.51125 16.024 5.532 16.0429C5.55275 16.0619 5.58034 16.0767 5.61196 16.0858C5.67199 16.0952 5.71459 16.0602 5.70878 16.0062Z" fill="#D1C38B"/>
<path d="M5.69345 15.6904C5.69345 15.6243 5.63923 15.573 5.57339 15.5744C5.50755 15.5757 5.46688 15.6283 5.46882 15.6891C5.47075 15.7498 5.51723 15.8011 5.57726 15.8038C5.63729 15.8065 5.69345 15.7565 5.69345 15.6904Z" fill="#D1C38B"/>
<path d="M5.70274 15.3679C5.70274 15.3113 5.66402 15.2735 5.60399 15.2829C5.57184 15.2923 5.5439 15.3075 5.52311 15.327C5.50232 15.3464 5.48945 15.3694 5.48586 15.3936C5.47618 15.4489 5.51491 15.4907 5.573 15.4867C5.61002 15.4792 5.64261 15.4636 5.66596 15.4422C5.68932 15.4208 5.70221 15.3948 5.70274 15.3679Z" fill="#D1C38B"/>
<path d="M5.74926 15.121C5.74926 15.0832 5.72215 15.0643 5.66987 15.0765C5.64274 15.0841 5.61821 15.0956 5.59786 15.1102C5.57752 15.1249 5.5618 15.1423 5.55174 15.1615C5.53431 15.2006 5.5653 15.2249 5.61952 15.2141C5.65063 15.2074 5.67883 15.1954 5.70151 15.1791C5.72419 15.1629 5.74061 15.1429 5.74926 15.121Z" fill="#D1C38B"/>
<path d="M5.80568 14.9766C5.8173 14.9591 5.78826 14.955 5.74372 14.9672C5.70173 14.9773 5.66476 14.9955 5.63721 15.0198C5.61784 15.0414 5.63721 15.0495 5.69143 15.0374C5.73809 15.0265 5.77827 15.0051 5.80568 14.9766Z" fill="#D1C38B"/>
<path d="M6.12712 16.3934C6.12712 16.3759 6.08259 16.3597 6.02256 16.3583C5.96253 16.357 5.91992 16.3678 5.92767 16.3853C5.93541 16.4029 5.97995 16.415 6.03224 16.4177C6.08452 16.4204 6.12519 16.4083 6.12712 16.3934Z" fill="#D1C38B"/>
<path d="M6.13491 16.2585C6.1315 16.2372 6.11655 16.2177 6.09315 16.2039C6.06974 16.1901 6.03965 16.1831 6.00904 16.1843C5.93739 16.1843 5.8851 16.2126 5.89285 16.2504C5.9005 16.2695 5.91698 16.2863 5.93973 16.2983C5.96248 16.3102 5.99023 16.3166 6.01872 16.3165C6.03182 16.318 6.04523 16.3178 6.05818 16.3157C6.07113 16.3136 6.08335 16.3097 6.09415 16.3043C6.10495 16.299 6.11412 16.2921 6.12111 16.2843C6.12811 16.2764 6.1328 16.2676 6.13491 16.2585Z" fill="#D1C38B"/>
<path d="M6.1423 16.0237C6.14335 16.0097 6.14041 15.9957 6.13367 15.9825C6.12694 15.9692 6.11652 15.9571 6.10303 15.9467C6.08954 15.9363 6.07323 15.9278 6.05505 15.9218C6.03687 15.9158 6.01716 15.9124 5.99707 15.9117C5.97795 15.9116 5.95902 15.9143 5.94156 15.9197C5.9241 15.9252 5.90851 15.9331 5.89584 15.9431C5.88318 15.9531 5.87373 15.9648 5.86814 15.9776C5.86255 15.9903 5.86095 16.0037 5.86345 16.0169C5.86467 16.0434 5.87969 16.0687 5.9057 16.0881C5.9317 16.1075 5.96693 16.1196 6.00481 16.1222C6.02312 16.122 6.0412 16.1193 6.05802 16.1143C6.07484 16.1092 6.09007 16.1019 6.10284 16.0928C6.1156 16.0836 6.12566 16.0728 6.13243 16.061C6.1392 16.0491 6.14256 16.0364 6.1423 16.0237Z" fill="#D1C38B"/>
<path d="M6.14628 15.6918C6.14953 15.6613 6.13557 15.6311 6.10735 15.6077C6.07914 15.5842 6.03891 15.5694 5.99524 15.5663C5.95848 15.5619 5.92066 15.5654 5.8869 15.5765C5.85314 15.5875 5.82506 15.6055 5.80646 15.6281C5.78787 15.6506 5.77965 15.6765 5.78293 15.7024C5.78621 15.7283 5.80081 15.7529 5.82478 15.7728C5.84875 15.7927 5.88092 15.807 5.91694 15.8138C5.95295 15.8205 5.99108 15.8194 6.02616 15.8106C6.06123 15.8017 6.09156 15.7856 6.11305 15.7644C6.13453 15.7431 6.14613 15.7178 6.14628 15.6918Z" fill="#D1C38B"/>
<path d="M6.14247 15.3531C6.14324 15.3399 6.14024 15.3267 6.13363 15.3143C6.12701 15.3019 6.11693 15.2905 6.10395 15.2808C6.09098 15.2712 6.07538 15.2634 6.05805 15.258C6.04073 15.2525 6.02203 15.2496 6.00304 15.2492C5.96416 15.2522 5.92816 15.2649 5.90178 15.285C5.8754 15.3051 5.86045 15.3313 5.85974 15.3585C5.85759 15.3722 5.85952 15.386 5.86539 15.3991C5.87126 15.4122 5.88095 15.4243 5.89386 15.4347C5.90676 15.4451 5.9226 15.4535 5.94039 15.4594C5.95818 15.4654 5.97753 15.4687 5.99723 15.4691C6.01776 15.4683 6.03785 15.4646 6.05631 15.4583C6.07477 15.452 6.09124 15.4431 6.10476 15.4323C6.11828 15.4215 6.12858 15.409 6.13505 15.3954C6.14152 15.3818 6.14405 15.3674 6.14247 15.3531Z" fill="#D1C38B"/>
<path d="M6.13653 15.0967C6.13462 15.087 6.13001 15.0777 6.12294 15.0693C6.11588 15.0609 6.1065 15.0536 6.09535 15.0477C6.0842 15.0418 6.07149 15.0375 6.05796 15.035C6.04442 15.0325 6.03033 15.032 6.01647 15.0333C5.98637 15.0331 5.95707 15.0401 5.93346 15.0531C5.90986 15.0661 5.89336 15.0843 5.88672 15.1048C5.88672 15.1466 5.93319 15.179 6.00678 15.1763C6.03903 15.1774 6.07063 15.1697 6.09486 15.1549C6.1191 15.14 6.13404 15.1191 6.13653 15.0967Z" fill="#D1C38B"/>
<path d="M6.12898 14.951C6.12898 14.9348 6.0825 14.9213 6.03022 14.924C5.97793 14.9267 5.92952 14.9429 5.92177 14.9591C5.91403 14.9753 5.95857 14.9942 6.02054 14.9928C6.0825 14.9915 6.13092 14.9726 6.12898 14.951Z" fill="#D1C38B"/>
<path d="M6.43104 16.3556C6.44459 16.3367 6.41361 16.33 6.36133 16.3381C6.33846 16.3402 6.31648 16.3456 6.29679 16.3539C6.27711 16.3623 6.26017 16.3734 6.24707 16.3867C6.24707 16.4015 6.27612 16.4069 6.32453 16.3988C6.36559 16.3924 6.4028 16.3773 6.43104 16.3556Z" fill="#D1C38B"/>
<path d="M6.50055 16.2261C6.5141 16.1883 6.47537 16.164 6.4134 16.1721C6.38165 16.1756 6.35207 16.1855 6.32833 16.2007C6.30458 16.2158 6.28771 16.2354 6.27979 16.2571C6.27979 16.2908 6.31851 16.3111 6.37661 16.3016C6.40468 16.2972 6.43072 16.288 6.45237 16.2748C6.47401 16.2616 6.49058 16.2449 6.50055 16.2261Z" fill="#D1C38B"/>
<path d="M6.55889 15.9968C6.55889 15.9414 6.52016 15.8983 6.45045 15.9023C6.41127 15.9073 6.37578 15.9216 6.35001 15.9427C6.32424 15.9639 6.30978 15.9906 6.30908 16.0183C6.30908 16.0737 6.3575 16.1128 6.42527 16.106C6.46078 16.0994 6.49256 16.0854 6.51641 16.0658C6.54026 16.0463 6.55507 16.0222 6.55889 15.9968Z" fill="#D1C38B"/>
<path d="M6.58418 15.6904C6.58929 15.663 6.57908 15.6352 6.55565 15.6128C6.53223 15.5905 6.49738 15.5753 6.45831 15.5703C6.38472 15.5703 6.32275 15.6229 6.32275 15.6918C6.32275 15.7606 6.38279 15.8132 6.45637 15.8105C6.49516 15.805 6.52966 15.7896 6.55324 15.7675C6.57683 15.7453 6.58785 15.7179 6.58418 15.6904Z" fill="#D1C38B"/>
<path d="M6.56444 15.376C6.56244 15.35 6.54832 15.3251 6.52421 15.3051C6.5001 15.2852 6.46732 15.2712 6.43082 15.2654C6.36304 15.2573 6.30882 15.2991 6.3127 15.3585C6.31287 15.3866 6.32706 15.4139 6.35284 15.4355C6.37862 15.4572 6.4144 15.4719 6.45405 15.4772C6.52377 15.4799 6.57218 15.4354 6.56444 15.376Z" fill="#D1C38B"/>
<path d="M6.5103 15.1345C6.50077 15.1147 6.48424 15.0969 6.46224 15.0828C6.44024 15.0686 6.41348 15.0586 6.38443 15.0535C6.3244 15.0441 6.27986 15.067 6.28567 15.1034C6.29223 15.1262 6.30851 15.1469 6.33236 15.1631C6.35621 15.1792 6.38651 15.1899 6.41928 15.1938C6.48319 15.2019 6.52385 15.179 6.5103 15.1345Z" fill="#D1C38B"/>
<path d="M6.44086 14.9902C6.41294 14.9661 6.37397 14.9494 6.33049 14.9429C6.28208 14.9348 6.24528 14.9429 6.25109 14.9591C6.2638 14.9735 6.28103 14.9858 6.30148 14.9949C6.32194 15.004 6.3451 15.0098 6.36922 15.0118C6.42344 15.0212 6.45636 15.0118 6.44086 14.9902Z" fill="#D1C38B"/>
<path d="M6.66149 16.2706C6.68279 16.2517 6.66148 16.249 6.63437 16.2706C6.59521 16.2875 6.56049 16.309 6.53174 16.334C6.51431 16.3502 6.53174 16.3502 6.5666 16.334C6.60302 16.3167 6.63508 16.2953 6.66149 16.2706Z" fill="#D1C38B"/>
<path d="M6.75651 16.1451C6.77588 16.1114 6.75652 16.0938 6.72166 16.106C6.67084 16.1274 6.63194 16.1602 6.61128 16.1991C6.59579 16.2314 6.61128 16.2436 6.65776 16.2274C6.7014 16.2072 6.7357 16.1786 6.75651 16.1451Z" fill="#D1C38B"/>
<path d="M6.8356 15.9441C6.84722 15.8955 6.8356 15.8618 6.78526 15.8685C6.73491 15.8753 6.6923 15.9252 6.68068 15.9792C6.66907 16.0332 6.70005 16.0588 6.74265 16.0466C6.76789 16.0353 6.78928 16.0202 6.80533 16.0025C6.82138 15.9848 6.83171 15.9649 6.8356 15.9441Z" fill="#D1C38B"/>
<path d="M6.86884 15.6864C6.86884 15.6324 6.83786 15.5865 6.79719 15.5839C6.75652 15.5812 6.71392 15.6284 6.71198 15.6891C6.71005 15.7498 6.74878 15.7943 6.79525 15.7903C6.84173 15.7862 6.86884 15.739 6.86884 15.6864Z" fill="#D1C38B"/>
<path d="M6.84367 15.4233C6.84124 15.4022 6.83174 15.3818 6.81593 15.3638C6.80012 15.3457 6.77845 15.3305 6.75265 15.3194C6.71005 15.3072 6.68101 15.3396 6.68875 15.3922C6.6965 15.4449 6.74491 15.4988 6.78945 15.5042C6.83399 15.5096 6.85529 15.4732 6.84367 15.4233Z" fill="#D1C38B"/>
<path d="M6.7699 15.2128C6.75094 15.1775 6.71636 15.1472 6.67114 15.1264C6.63047 15.1103 6.60917 15.1264 6.62273 15.1602C6.64093 15.2006 6.68034 15.2349 6.73311 15.256C6.77184 15.2681 6.78733 15.2479 6.7699 15.2128Z" fill="#D1C38B"/>
<path d="M6.67106 15.0751C6.64507 15.0513 6.61288 15.0312 6.57617 15.0157C6.54132 14.9995 6.52389 15.0009 6.53938 15.0157C6.56752 15.0428 6.60306 15.0657 6.64395 15.0832C6.68074 15.1007 6.69236 15.0967 6.67106 15.0751Z" fill="#D1C38B"/>
<path d="M6.88625 16.0547C6.90368 16.025 6.90562 16.0115 6.88625 16.025C6.85696 16.0515 6.83286 16.0805 6.8146 16.1114C6.79717 16.1411 6.79911 16.1492 6.8146 16.1316C6.84235 16.1078 6.86637 16.082 6.88625 16.0547Z" fill="#D1C38B"/>
<path d="M6.9618 15.8861C6.97342 15.8483 6.9618 15.8213 6.9618 15.8281C6.93095 15.8548 6.9115 15.8871 6.90565 15.9212C6.89403 15.9643 6.90564 15.9873 6.9192 15.9738C6.94256 15.9471 6.95712 15.9172 6.9618 15.8861Z" fill="#D1C38B"/>
<path d="M6.99265 15.6824C6.99265 15.6392 6.98103 15.6041 6.96554 15.6014C6.95005 15.5987 6.93262 15.6351 6.93262 15.6851C6.93262 15.735 6.94424 15.7701 6.9636 15.7647C6.98297 15.7593 6.99071 15.7188 6.99265 15.6824Z" fill="#D1C38B"/>
<path d="M6.96935 15.4745C6.96368 15.4429 6.94706 15.4128 6.92094 15.3868C6.90351 15.3746 6.89576 15.3989 6.90738 15.4435C6.919 15.488 6.9403 15.5312 6.95967 15.5366C6.97903 15.542 6.97903 15.5136 6.96935 15.4745Z" fill="#D1C38B"/>
<path d="M6.89754 15.2992C6.8824 15.271 6.86223 15.2442 6.83751 15.2195C6.81621 15.202 6.81427 15.2128 6.83751 15.2452C6.85358 15.2769 6.87714 15.3066 6.90722 15.3329C6.9169 15.3464 6.91691 15.3302 6.89754 15.2992Z" fill="#D1C38B"/>
<path d="M5.25739 15.8807C5.25093 15.8515 5.23786 15.8233 5.21866 15.797C5.20898 15.7903 5.21866 15.8146 5.21866 15.8483C5.22672 15.8753 5.23906 15.9015 5.25545 15.9266C5.26707 15.9387 5.26707 15.9185 5.25739 15.8807Z" fill="#E5D8A3"/>
<path d="M5.22467 15.6688C5.22467 15.6257 5.22467 15.5933 5.20724 15.596C5.1945 15.6187 5.18985 15.6432 5.19369 15.6675C5.19061 15.6923 5.19591 15.7172 5.20918 15.7404C5.21886 15.7458 5.2266 15.7188 5.22467 15.6688Z" fill="#E5D8A3"/>
<path d="M5.24971 15.4556C5.2594 15.4165 5.24971 15.3935 5.24971 15.4043C5.23331 15.4296 5.22222 15.4564 5.2168 15.4839C5.2168 15.519 5.2168 15.5433 5.2168 15.5393C5.23437 15.5129 5.24549 15.4846 5.24971 15.4556Z" fill="#E5D8A3"/>
<path d="M5.57908 16.2653C5.5521 16.241 5.52087 16.2193 5.48612 16.2005C5.45901 16.1843 5.45514 16.187 5.47451 16.2005C5.49983 16.221 5.52769 16.24 5.55777 16.2572C5.58682 16.2801 5.59651 16.2814 5.57908 16.2653Z" fill="#E5D8A3"/>
<path d="M5.48591 16.1411C5.46634 16.1064 5.43434 16.0757 5.39296 16.052C5.36391 16.0386 5.3581 16.052 5.37552 16.0858C5.39404 16.1165 5.42256 16.1437 5.4588 16.1654C5.49946 16.1829 5.49946 16.1721 5.48591 16.1411Z" fill="#E5D8A3"/>
<path d="M5.41041 15.9373C5.40802 15.9172 5.39953 15.8977 5.38551 15.88C5.37149 15.8623 5.35226 15.8469 5.32908 15.8348C5.30003 15.828 5.28648 15.8591 5.29809 15.9023C5.3061 15.9384 5.33133 15.9717 5.36974 15.9967C5.40266 16.0102 5.4201 15.9886 5.41041 15.9373Z" fill="#E5D8A3"/>
<path d="M5.37745 15.6742C5.37745 15.6189 5.3484 15.5757 5.31548 15.5798C5.28256 15.5838 5.26514 15.623 5.26514 15.6715C5.26514 15.7201 5.29031 15.7606 5.31936 15.7646C5.34841 15.7687 5.37745 15.7282 5.37745 15.6742Z" fill="#E5D8A3"/>
<path d="M5.40283 15.4057C5.41252 15.3571 5.39315 15.3288 5.36023 15.3409C5.32034 15.3655 5.2954 15.3998 5.29052 15.4367C5.2789 15.4813 5.29052 15.5137 5.32344 15.5083C5.35636 15.5029 5.39122 15.4556 5.40283 15.4057Z" fill="#E5D8A3"/>
<path d="M5.47262 15.1911C5.48811 15.1574 5.47262 15.1439 5.44551 15.1614C5.40878 15.1839 5.38023 15.2121 5.36224 15.2438C5.34482 15.2775 5.35256 15.295 5.38161 15.2829C5.42346 15.2587 5.45494 15.227 5.47262 15.1911Z" fill="#E5D8A3"/>
<path d="M5.56536 15.0549C5.58278 15.0374 5.56536 15.0374 5.54212 15.0549C5.51199 15.0736 5.48473 15.0944 5.46078 15.117C5.43948 15.1359 5.44336 15.1413 5.4724 15.1251C5.50741 15.1044 5.53863 15.0809 5.56536 15.0549Z" fill="#E5D8A3"/>
<path d="M5.82105 16.3394C5.79238 16.3139 5.75319 16.2951 5.70874 16.2855C5.66226 16.2733 5.64096 16.2787 5.65839 16.2976C5.68689 16.319 5.72198 16.3356 5.76102 16.3462C5.80363 16.357 5.83074 16.3543 5.82105 16.3394Z" fill="#E5D8A3"/>
<path d="M5.76491 16.2126C5.75526 16.1923 5.73881 16.1739 5.71693 16.1589C5.69504 16.1438 5.66834 16.1327 5.63904 16.1263C5.58675 16.1155 5.55965 16.1371 5.57514 16.1721C5.58586 16.1898 5.60147 16.2058 5.62108 16.2192C5.64068 16.2326 5.6639 16.2432 5.68939 16.2504C5.73974 16.2585 5.77459 16.2464 5.76491 16.2126Z" fill="#E5D8A3"/>
<path d="M5.71653 15.9886C5.7148 15.9628 5.70156 15.938 5.67865 15.9177C5.65574 15.8974 5.6243 15.8826 5.58872 15.8753C5.53256 15.8753 5.49577 15.909 5.50545 15.9603C5.51033 15.9835 5.5238 16.0054 5.54451 16.0238C5.56522 16.0423 5.59247 16.0567 5.62358 16.0656C5.68167 16.0723 5.72427 16.0386 5.71653 15.9886Z" fill="#E5D8A3"/>
<path d="M5.69343 15.6769C5.69343 15.6122 5.64115 15.5622 5.57724 15.5649C5.51334 15.5676 5.47461 15.6162 5.47461 15.6756C5.47461 15.7349 5.52303 15.7849 5.58112 15.7876C5.63921 15.7903 5.69343 15.7417 5.69343 15.6769Z" fill="#E5D8A3"/>
<path d="M5.71061 15.3625C5.71061 15.3072 5.67381 15.2694 5.61378 15.2789C5.58216 15.2876 5.5547 15.3024 5.53451 15.3214C5.51431 15.3405 5.50219 15.3632 5.49953 15.3868C5.48985 15.4408 5.52858 15.4826 5.58474 15.4772C5.62073 15.4702 5.65247 15.4552 5.67517 15.4345C5.69788 15.4138 5.71031 15.3886 5.71061 15.3625Z" fill="#E5D8A3"/>
<path d="M5.75544 15.121C5.76705 15.0846 5.73026 15.0657 5.67798 15.0778C5.65163 15.0855 5.62786 15.0969 5.60819 15.1113C5.58852 15.1257 5.57337 15.1428 5.56372 15.1615C5.54823 15.1993 5.57728 15.2222 5.6315 15.2128C5.66131 15.2056 5.68819 15.1936 5.70978 15.1776C5.73138 15.1616 5.74705 15.1422 5.75544 15.121Z" fill="#E5D8A3"/>
<path d="M5.81127 14.9807C5.82289 14.9631 5.79385 14.9591 5.74931 14.9699C5.70931 14.9812 5.67402 14.9993 5.64667 15.0225C5.62924 15.0427 5.64667 15.0508 5.69896 15.0387C5.7447 15.0287 5.78427 15.0083 5.81127 14.9807Z" fill="#E5D8A3"/>
<path d="M6.12526 16.3637C6.12526 16.3462 6.08072 16.3313 6.02263 16.3286C5.96453 16.3259 5.92386 16.3381 5.93161 16.3556C5.93936 16.3732 5.98196 16.3839 6.03231 16.3866C6.08265 16.3893 6.12526 16.3772 6.12526 16.3637Z" fill="#E5D8A3"/>
<path d="M6.13303 16.2369C6.12962 16.216 6.11488 16.1968 6.09184 16.1833C6.0688 16.1697 6.0392 16.1628 6.0091 16.164C5.93939 16.164 5.88904 16.1923 5.89678 16.2288C5.90404 16.2474 5.91993 16.2639 5.94199 16.2756C5.96405 16.2873 5.99105 16.2936 6.01878 16.2935C6.08075 16.2949 6.13303 16.2706 6.13303 16.2369Z" fill="#E5D8A3"/>
<path d="M6.14064 16.0021C6.14224 15.9746 6.12834 15.9478 6.10192 15.9274C6.07551 15.907 6.03866 15.8946 5.99928 15.8928C5.98051 15.8929 5.96199 15.8958 5.94491 15.9012C5.92783 15.9066 5.91259 15.9145 5.90016 15.9243C5.88774 15.9341 5.87842 15.9456 5.87281 15.9581C5.8672 15.9706 5.86542 15.9837 5.8676 15.9967C5.86887 16.0224 5.88355 16.0468 5.90887 16.0654C5.93419 16.0841 5.9684 16.0956 6.00509 16.0979C6.02305 16.0979 6.04085 16.0954 6.05742 16.0906C6.07399 16.0858 6.08902 16.0787 6.10164 16.0698C6.11425 16.0609 6.12419 16.0503 6.13089 16.0387C6.13759 16.0271 6.1409 16.0146 6.14064 16.0021Z" fill="#E5D8A3"/>
<path d="M6.14241 15.6783C6.13727 15.6591 6.12442 15.6414 6.10538 15.6272C6.08633 15.613 6.06187 15.6028 6.03484 15.5979C6.00782 15.593 5.97935 15.5936 5.95276 15.5995C5.92618 15.6055 5.90257 15.6166 5.8847 15.6315C5.86682 15.6464 5.85542 15.6646 5.85182 15.6839C5.84821 15.7032 5.85256 15.7228 5.86436 15.7405C5.87615 15.7581 5.8949 15.773 5.91842 15.7835C5.94194 15.794 5.96925 15.7996 5.99718 15.7997C6.01824 15.7985 6.03874 15.7944 6.0575 15.7876C6.07626 15.7809 6.09289 15.7716 6.10642 15.7602C6.11994 15.7489 6.13009 15.7359 6.13627 15.7218C6.14245 15.7077 6.14454 15.6929 6.14241 15.6783Z" fill="#E5D8A3"/>
<path d="M6.14058 15.3477C6.14162 15.3348 6.13891 15.3219 6.13259 15.3097C6.12627 15.2975 6.11648 15.2864 6.10382 15.2769C6.09115 15.2675 6.07587 15.2599 6.05889 15.2547C6.04191 15.2495 6.02358 15.2467 6.00502 15.2465C5.96682 15.2492 5.93133 15.2615 5.90528 15.2811C5.87923 15.3008 5.86442 15.3264 5.86366 15.3531C5.8615 15.3665 5.86338 15.3801 5.86917 15.393C5.87496 15.4059 5.88454 15.4178 5.89729 15.4279C5.91005 15.4381 5.92569 15.4463 5.94324 15.452C5.96079 15.4577 5.97985 15.4608 5.99921 15.4611C6.01924 15.4602 6.03882 15.4566 6.05681 15.4504C6.07481 15.4442 6.09085 15.4356 6.10401 15.425C6.11717 15.4145 6.12718 15.4022 6.13346 15.3889C6.13974 15.3757 6.14216 15.3617 6.14058 15.3477Z" fill="#E5D8A3"/>
<path d="M6.13469 15.0967C6.1328 15.0873 6.12822 15.0782 6.12123 15.07C6.11424 15.0618 6.10497 15.0547 6.09396 15.0491C6.08296 15.0434 6.07044 15.0393 6.05715 15.0371C6.04386 15.0349 6.03006 15.0345 6.01656 15.036C5.98756 15.036 5.9594 15.0428 5.93659 15.0553C5.91377 15.0678 5.89761 15.0852 5.89069 15.1048C5.89016 15.1151 5.89295 15.1253 5.89884 15.1347C5.90472 15.1442 5.91357 15.1525 5.92471 15.1593C5.93585 15.166 5.94901 15.1709 5.96323 15.1736C5.97745 15.1764 5.99236 15.1768 6.00688 15.175C6.03861 15.1761 6.06973 15.1686 6.0936 15.154C6.11746 15.1393 6.1322 15.1188 6.13469 15.0967Z" fill="#E5D8A3"/>
<path d="M6.12723 14.955C6.12723 14.9388 6.0827 14.9267 6.03041 14.9294C5.97813 14.9321 5.93165 14.9469 5.92584 14.9631C5.92003 14.9793 5.9607 14.9982 6.02073 14.9955C6.08076 14.9928 6.12917 14.9753 6.12723 14.955Z" fill="#E5D8A3"/>
<path d="M6.12017 14.9093C6.12017 14.9093 6.08511 14.9023 6.04225 14.9093C6.01356 14.9089 5.98505 14.9127 5.9585 14.9206C5.9585 14.9206 5.98577 14.9276 6.03447 14.9206C6.08316 14.9135 6.12212 14.9093 6.12017 14.9093Z" fill="#E5D8A3"/>
<path d="M6.42131 16.326C6.4368 16.3084 6.40582 16.3003 6.35353 16.3098C6.33113 16.3118 6.30957 16.317 6.29024 16.3251C6.2709 16.3333 6.2542 16.3441 6.24121 16.357C6.24121 16.3705 6.27026 16.3759 6.31674 16.3678C6.35709 16.362 6.39373 16.3473 6.42131 16.326Z" fill="#E5D8A3"/>
<path d="M6.48936 16.1991C6.50292 16.164 6.46613 16.1397 6.40416 16.1465C6.37326 16.1502 6.34457 16.1601 6.32156 16.1749C6.29854 16.1898 6.28216 16.2089 6.27441 16.2301C6.27441 16.2625 6.31121 16.2827 6.3693 16.2733C6.39659 16.2688 6.42186 16.2597 6.44283 16.2468C6.46379 16.2338 6.47979 16.2174 6.48936 16.1991Z" fill="#E5D8A3"/>
<path d="M6.54722 15.9765C6.54722 15.9212 6.50849 15.8793 6.44071 15.8834C6.40257 15.8884 6.36805 15.9024 6.343 15.923C6.31795 15.9437 6.3039 15.9697 6.30322 15.9967C6.30322 16.0507 6.3497 16.0885 6.41747 16.0817C6.45168 16.0752 6.48231 16.0617 6.50542 16.0429C6.52854 16.0242 6.54309 16.001 6.54722 15.9765Z" fill="#E5D8A3"/>
<path d="M6.57254 15.677C6.57713 15.6501 6.56688 15.623 6.54386 15.6012C6.52085 15.5794 6.48679 15.5645 6.4486 15.5596C6.37695 15.5596 6.31692 15.6108 6.31499 15.6783C6.31305 15.7458 6.37502 15.797 6.44667 15.7943C6.48459 15.7888 6.51831 15.7739 6.54149 15.7523C6.56467 15.7306 6.57572 15.7039 6.57254 15.677Z" fill="#E5D8A3"/>
<path d="M6.5531 15.3707C6.55035 15.3453 6.5364 15.3212 6.51317 15.3016C6.48993 15.2821 6.45855 15.268 6.42335 15.2614C6.35557 15.2546 6.30329 15.2951 6.30523 15.3531C6.30619 15.3806 6.3205 15.407 6.34583 15.4281C6.37115 15.4492 6.406 15.4637 6.44465 15.4691C6.51243 15.4718 6.56084 15.4273 6.5531 15.3707Z" fill="#E5D8A3"/>
<path d="M6.49865 15.1331C6.4899 15.1138 6.47403 15.0964 6.45263 15.0827C6.43122 15.0689 6.40503 15.0593 6.37665 15.0549C6.31662 15.0454 6.27402 15.0684 6.27983 15.1048C6.28646 15.127 6.3026 15.1472 6.32611 15.1629C6.34962 15.1786 6.3794 15.1889 6.41151 15.1925C6.46766 15.1992 6.51221 15.179 6.49865 15.1331Z" fill="#E5D8A3"/>
<path d="M6.43118 14.9942C6.40514 14.9699 6.36726 14.9531 6.32468 14.947C6.27627 14.9389 6.24141 14.947 6.24721 14.9632C6.25302 14.9793 6.30531 15.0063 6.36147 15.0144C6.41763 15.0225 6.44667 15.0144 6.43118 14.9942Z" fill="#E5D8A3"/>
<path d="M6.3672 14.9348C6.33787 14.9236 6.30664 14.915 6.27425 14.9092C6.23552 14.9092 6.20841 14.8997 6.21228 14.9092C6.24173 14.9209 6.27381 14.9291 6.30717 14.9335C6.35559 14.9402 6.38076 14.9416 6.3672 14.9348Z" fill="#E5D8A3"/>
<path d="M6.64213 16.2436C6.66343 16.2261 6.65375 16.222 6.61695 16.2369C6.57885 16.2537 6.54485 16.2746 6.51626 16.299C6.50077 16.3151 6.51626 16.3138 6.55111 16.299C6.58513 16.2837 6.61579 16.265 6.64213 16.2436Z" fill="#E5D8A3"/>
<path d="M6.73913 16.1236C6.75849 16.0912 6.73913 16.0736 6.70621 16.0858C6.65608 16.1062 6.61774 16.1382 6.59777 16.1762C6.58421 16.2086 6.59777 16.2207 6.64424 16.2045C6.68617 16.1843 6.71906 16.1562 6.73913 16.1236Z" fill="#E5D8A3"/>
<path d="M6.8166 15.9238C6.83015 15.8779 6.80691 15.8442 6.76818 15.851C6.72946 15.8577 6.67717 15.9063 6.66749 15.9589C6.65781 16.0115 6.68492 16.0372 6.72752 16.025C6.75165 16.0134 6.77203 15.9984 6.78737 15.981C6.80271 15.9635 6.81266 15.9441 6.8166 15.9238Z" fill="#E5D8A3"/>
<path d="M6.85521 15.6729C6.85521 15.6203 6.82616 15.5757 6.78549 15.5731C6.74483 15.5704 6.70416 15.6162 6.70222 15.6756C6.70029 15.735 6.73708 15.7781 6.78356 15.7741C6.83003 15.77 6.85521 15.7188 6.85521 15.6729Z" fill="#E5D8A3"/>
<path d="M6.82625 15.4165C6.82346 15.396 6.81398 15.3762 6.79854 15.3587C6.7831 15.3412 6.76212 15.3263 6.73718 15.3153C6.69457 15.3032 6.66553 15.3355 6.67521 15.3868C6.68489 15.4381 6.72749 15.4894 6.77396 15.4948C6.82044 15.5002 6.83594 15.4651 6.82625 15.4165Z" fill="#E5D8A3"/>
<path d="M6.75235 15.2101C6.73406 15.176 6.70088 15.1467 6.65747 15.1264C6.6168 15.1103 6.5955 15.1264 6.60906 15.1602C6.62832 15.1988 6.66589 15.2316 6.71556 15.2533C6.75429 15.2654 6.76978 15.2452 6.75235 15.2101Z" fill="#E5D8A3"/>
<path d="M6.66131 15.0765C6.63504 15.0538 6.60364 15.0342 6.56836 15.0185C6.5335 15.0023 6.51608 15.0036 6.53157 15.0185C6.55906 15.0451 6.59397 15.0676 6.6342 15.0846C6.66131 15.1021 6.67681 15.0967 6.66131 15.0765Z" fill="#E5D8A3"/>
<path d="M6.86653 16.0331C6.88396 16.0048 6.8859 15.99 6.86653 16.0035C6.83899 16.0292 6.81622 16.0574 6.79876 16.0871C6.77939 16.1168 6.78326 16.1249 6.79876 16.1087C6.82473 16.0851 6.84743 16.0598 6.86653 16.0331Z" fill="#E5D8A3"/>
<path d="M6.94033 15.8686C6.95002 15.8308 6.94033 15.8051 6.94033 15.8105C6.91101 15.8373 6.89231 15.8689 6.88611 15.9023C6.87449 15.9441 6.88611 15.9671 6.89967 15.9536C6.92121 15.9274 6.93503 15.8985 6.94033 15.8686Z" fill="#E5D8A3"/>
<path d="M6.96922 15.6689C6.96922 15.627 6.95761 15.592 6.94405 15.5893C6.93049 15.5866 6.91113 15.623 6.91113 15.6716C6.91113 15.7201 6.92275 15.7539 6.94018 15.7498C6.95761 15.7458 6.96922 15.7093 6.96922 15.6689Z" fill="#E5D8A3"/>
<path d="M6.94598 15.4664C6.94131 15.4356 6.92603 15.4059 6.90144 15.3801C6.88207 15.3679 6.87627 15.3922 6.88595 15.4354C6.88869 15.4689 6.90628 15.5009 6.9363 15.5272C6.95179 15.5325 6.95566 15.5042 6.94598 15.4664Z" fill="#E5D8A3"/>
<path d="M6.87851 15.2951C6.86298 15.2674 6.84283 15.2412 6.81848 15.2168C6.79912 15.2006 6.79718 15.2168 6.81848 15.2425C6.8346 15.2732 6.85676 15.3023 6.88432 15.3288C6.89788 15.341 6.89594 15.3248 6.87851 15.2951Z" fill="#E5D8A3"/>
<g style="mix-blend-mode:overlay" opacity="0.5">
<path d="M6.37076 15.6405C6.60701 15.5056 6.7445 15.2708 6.56441 15.0873C6.26619 14.7837 5.53807 14.8808 5.31925 15.2735C5.28839 15.3228 5.27424 15.3765 5.27791 15.4303C5.28158 15.484 5.30297 15.5365 5.34042 15.5836C5.37787 15.6307 5.43037 15.6712 5.49386 15.7018C5.55735 15.7325 5.63012 15.7526 5.70655 15.7606C5.82315 15.7742 5.94259 15.7706 6.05704 15.7499C6.1715 15.7292 6.2784 15.6919 6.37076 15.6405Z" fill="#FFF7D7"/>
</g>
<path style="mix-blend-mode:overlay" opacity="0.6" d="M19.9962 15.6729C19.9733 15.8641 19.8864 16.049 19.7425 16.2126C19.8321 16.0137 19.8521 15.8027 19.8006 15.5973C19.7749 15.7962 19.6884 15.989 19.5469 16.1627C19.6476 15.94 19.4791 15.4273 19.4791 15.4273C19.5274 15.6745 19.4652 15.9261 19.301 16.1478C19.3378 15.9589 19.0357 15.4313 19.0357 15.4313C19.099 15.6545 19.0938 15.8844 19.0202 16.106C18.9744 16.0211 18.9187 15.939 18.8537 15.8604C18.8651 15.6641 18.8567 15.4676 18.8285 15.2721C18.8389 15.4426 18.8259 15.6134 18.7897 15.7822C18.7626 15.7498 18.7375 15.7174 18.7123 15.6891C18.7059 15.5227 18.6839 15.3568 18.6465 15.1925C18.6561 15.3253 18.6503 15.4584 18.629 15.5906L18.5632 15.5163C18.5864 15.5555 18.6058 15.5906 18.6232 15.6243C18.5981 15.777 18.5619 15.9288 18.5148 16.079C18.5221 15.7261 18.4793 15.3736 18.387 15.0265C18.4481 15.3686 18.4304 15.7152 18.3347 16.0534C18.2971 15.7412 18.2233 15.4316 18.1139 15.1277C18.1683 15.4167 18.1812 15.7087 18.1527 15.9994C18.1081 15.8051 17.8815 15.3112 17.8815 15.3112C17.9567 15.5356 17.9963 15.765 17.9997 15.9953C17.9821 16.0816 17.9509 16.1662 17.9067 16.2477C17.9384 16.0486 17.9087 15.8471 17.8196 15.6567C17.8443 15.8354 17.8166 16.0159 17.7382 16.187C17.7292 15.9801 17.673 15.7756 17.5717 15.5811L17.5833 15.5649C17.5786 15.5685 17.5747 15.5726 17.5717 15.5771C17.5601 15.5555 17.5543 15.542 17.5543 15.542C17.5543 15.542 17.5543 15.5676 17.5698 15.5798C17.5407 15.6108 17.4729 15.6864 17.3994 15.7741C17.3413 15.6688 17.289 15.5865 17.289 15.5865C17.3226 15.6631 17.3459 15.7417 17.3587 15.8213L17.2619 15.94L17.1844 15.8348C17.2086 15.6902 17.2567 15.548 17.3277 15.4111C17.3277 15.4111 17.2154 15.5649 17.1089 15.739C17.0837 15.7052 17.0663 15.685 17.0663 15.685L17.1031 15.7498C17.0215 15.8709 16.9623 15.9988 16.9269 16.1303C16.8606 15.8595 16.8905 15.5816 17.014 15.3207C17.014 15.3207 16.6925 15.8685 16.7061 16.1438C16.6648 16.0052 16.6428 15.8643 16.6403 15.7228C16.6403 15.7133 16.6557 15.7052 16.6635 15.6945L16.6403 15.716C16.6375 15.6254 16.6498 15.5348 16.677 15.4462C16.612 15.5656 16.5628 15.6889 16.5299 15.8145L16.4195 15.9117C16.4011 15.7765 16.4103 15.6403 16.4466 15.5069C16.38 15.6683 16.3397 15.8344 16.3265 16.0021C16.2471 16.0736 16.1736 16.1451 16.1329 16.2004H16.1155C16.1869 15.9499 16.3061 15.7071 16.4698 15.4786C16.2434 15.7028 16.0488 15.9418 15.8889 16.1924H15.8734C15.8895 15.8871 15.9963 15.5876 16.1871 15.3126C16.1871 15.3126 15.734 15.8645 15.6585 16.1856C15.6547 15.9134 15.7122 15.6425 15.8289 15.3828C15.6361 15.631 15.5052 15.9001 15.4416 16.1789H15.428V16.1235C15.4474 15.9954 15.4551 15.882 15.4571 15.7849C15.4791 15.651 15.5227 15.5193 15.5868 15.3922C15.5868 15.3922 15.5268 15.4826 15.4532 15.6324C15.4532 15.5244 15.4338 15.4597 15.4338 15.4597C15.4371 15.5458 15.4306 15.632 15.4145 15.7174C15.3528 15.8593 15.3056 16.004 15.2731 16.1505V16.1667H15.2111C15.2584 15.9072 15.2486 15.6442 15.1821 15.3868C15.1717 15.6504 15.0997 15.9111 14.9691 16.1586H14.9265C14.9415 15.8484 14.9077 15.538 14.8258 15.233C14.8716 15.5427 14.8208 15.8558 14.6767 16.1505H14.6011C14.5712 15.8732 14.5064 15.5982 14.4075 15.3288C14.4401 15.5994 14.4192 15.8718 14.3455 16.1384H14.3126C14.2739 16.0034 14.1848 15.797 14.119 15.6553C14.0998 15.4799 14.055 15.3063 13.9853 15.1372C14.0476 15.4688 14.0121 15.8059 13.8808 16.1276H13.8091C13.8288 15.8046 13.7557 15.4821 13.5942 15.179C13.6444 15.4908 13.6162 15.8063 13.5109 16.1114H13.4586C13.4095 15.7937 13.3041 15.4814 13.1449 15.1817C13.2625 15.4829 13.2849 15.7982 13.2107 16.106H13.1333C13.0495 15.8777 12.9401 15.6544 12.806 15.4381C12.8846 15.6551 12.9242 15.8781 12.9241 16.1019H12.8467C12.8467 16.0912 12.8351 16.0804 12.8273 16.0682C12.8017 15.8667 12.7538 15.6668 12.684 15.4705C12.7254 15.6244 12.7455 15.7807 12.744 15.9373C12.6956 15.8645 12.6492 15.8024 12.6162 15.7525C12.5823 15.6314 12.5397 15.5116 12.4884 15.3936C12.5448 15.6257 12.5624 15.8616 12.5407 16.0965H12.5039C12.4298 15.805 12.3269 15.5174 12.196 15.2357C12.3086 15.5152 12.3602 15.805 12.349 16.0952H12.3045C12.2031 15.8374 12.0828 15.5834 11.9443 15.3342C12.0422 15.5823 12.107 15.8361 12.1379 16.0925H12.1108C12.0928 15.9416 12.0452 15.7932 11.9695 15.6513C12.0069 15.7452 12.0232 15.8426 12.0179 15.94C11.8959 15.7376 11.7429 15.5109 11.7429 15.5109C11.7739 15.5717 11.8029 15.6283 11.8262 15.681C11.7971 15.6283 11.7739 15.5946 11.7739 15.5946C11.8308 15.7563 11.8387 15.9245 11.7971 16.0885C11.7415 15.8914 11.647 15.7007 11.5163 15.5217C11.5172 15.5164 11.5172 15.5109 11.5163 15.5056V15.519L11.4931 15.484C11.4931 15.4961 11.5086 15.5082 11.5144 15.5204C11.5202 15.5325 11.4389 15.6243 11.3827 15.7079C11.3033 15.6067 11.2355 15.5271 11.2355 15.5271C11.2842 15.6005 11.3231 15.6768 11.3517 15.7552C11.3246 15.793 11.2994 15.8321 11.2781 15.8685C11.2452 15.8348 11.2123 15.7997 11.1794 15.7673C11.1759 15.6311 11.1967 15.4951 11.2413 15.3625C11.2413 15.3625 11.1929 15.4516 11.1368 15.5676V4.3683C11.5275 4.50588 11.9578 4.58014 12.3955 4.58554C12.4421 4.5854 12.4887 4.58315 12.5349 4.5788L12.6588 4.568C13.1701 4.50728 13.4586 4.31973 13.7626 4.13082L13.813 4.09979L13.8498 4.0782L13.8788 4.06066L13.9292 4.03097C14.2887 3.8082 14.7514 3.68317 15.2324 3.6788C15.4983 3.67281 15.7644 3.68593 16.0264 3.71793C15.2615 3.01224 14.5605 2.80445 13.9718 2.78286C13.8904 2.78286 13.813 2.78286 13.7355 2.78286H13.7162C13.6428 2.78588 13.5698 2.79174 13.4973 2.8004H13.4818C13.4083 2.8085 13.3385 2.81929 13.2708 2.83009C13.0181 2.8868 12.759 2.92833 12.4962 2.95422C12.313 2.95139 12.1306 2.93556 11.952 2.90699C11.6745 2.86245 11.4036 2.80012 11.1426 2.72079C11.1774 2.71404 11.2007 2.70055 11.2007 2.68436C11.2007 2.66817 11.1465 2.63983 11.0806 2.63983C11.0148 2.63983 10.9605 2.66007 10.9605 2.68436C10.9605 2.70864 10.9838 2.7127 11.0186 2.72079V15.8672C10.9966 15.9272 10.9849 15.9888 10.9838 16.0507C10.8679 15.7983 10.8446 15.5297 10.916 15.2694C10.916 15.2694 10.7011 15.7983 10.765 16.0628C10.6984 15.9314 10.6498 15.7958 10.6197 15.658C10.6254 15.6488 10.6319 15.6398 10.6391 15.631L10.6178 15.6513C10.5979 15.562 10.5927 15.4715 10.6023 15.3814C10.5593 15.4985 10.5334 15.6183 10.5248 15.739L10.4338 15.8321C10.3882 15.7024 10.3705 15.5687 10.3815 15.4354C10.3461 15.5934 10.3376 15.7537 10.3564 15.913C10.3041 15.9684 10.2557 16.0237 10.2169 16.0723H10.1782C10.2037 15.8452 10.2748 15.6217 10.3893 15.4084C10.2139 15.6191 10.0693 15.8415 9.95745 16.0723H9.93034C9.89268 15.7928 9.9429 15.511 10.0775 15.2465C9.90324 15.5088 9.78202 15.7867 9.71732 16.0723C9.66335 15.8205 9.66989 15.5642 9.73669 15.3139C9.59259 15.5545 9.51379 15.8117 9.50431 16.0723H9.48882C9.42631 15.827 9.43025 15.5757 9.50044 15.3315C9.44912 15.4416 9.41027 15.5544 9.38425 15.6688C9.36101 15.5892 9.34164 15.5433 9.34164 15.5433C9.35802 15.6053 9.36773 15.6679 9.37069 15.7309C9.34703 15.844 9.33345 15.958 9.33003 16.0723H9.23901C9.21779 15.8676 9.16056 15.6654 9.0686 15.4705C9.10515 15.6712 9.09665 15.8747 9.04342 16.0736H8.94079C8.88495 15.8186 8.79881 15.5672 8.68324 15.322C8.7761 15.5677 8.79522 15.824 8.7394 16.075H8.59804C8.56899 15.9886 8.52832 15.8955 8.48766 15.8051C8.50939 15.5985 8.4575 15.3913 8.33661 15.202C8.37487 15.3138 8.38145 15.4297 8.35598 15.5433C8.31337 15.4637 8.28239 15.4084 8.28239 15.4084C8.30801 15.4723 8.32805 15.5372 8.34242 15.6027C8.31015 15.7171 8.26083 15.8288 8.19525 15.936L8.16039 15.8807C8.17767 15.6639 8.10074 15.4485 7.93963 15.2627C7.97311 15.3663 7.97836 15.4734 7.95512 15.5784C7.92678 15.7242 7.87481 15.8672 7.80021 16.0048C7.85443 15.7241 7.4865 15.2951 7.4865 15.2951C7.71306 15.5906 7.51167 16.0264 7.51167 16.0264C7.49424 15.8361 7.14373 15.4867 7.14373 15.4867C7.23505 15.6592 7.27587 15.8427 7.2638 16.0264C7.1931 15.9356 7.11009 15.8498 7.01593 15.77C7.02275 15.7315 7.02664 15.6928 7.02755 15.654C7.02755 15.6216 7.02755 15.5892 7.02755 15.5582V15.5298C7.02755 15.5069 7.01786 15.4853 7.01205 15.4637C7.00625 15.4421 7.01205 15.4448 7.01205 15.4354C7.01205 15.4259 6.99269 15.3855 6.98107 15.3612C6.98167 15.3567 6.98167 15.3522 6.98107 15.3477C6.96687 15.3207 6.95138 15.2937 6.9346 15.2667L6.9191 15.2451C6.90555 15.2262 6.89006 15.2073 6.87457 15.1898L6.8552 15.1669C6.83777 15.148 6.82034 15.1304 6.80098 15.1129L6.78355 15.0981C6.75863 15.0773 6.73212 15.0575 6.70415 15.0387L6.68673 15.0265L6.61701 14.9847C6.61701 14.9847 6.61702 14.9847 6.60346 14.978C6.46208 14.9027 6.28947 14.8616 6.11159 14.8606C5.65265 14.8606 5.26922 15.1304 5.18789 15.5042C5.12399 15.4313 5.08138 15.3895 5.08138 15.3895C5.119 15.448 5.15008 15.5085 5.17433 15.5703C5.17433 15.5973 5.17433 15.6243 5.17433 15.6526C5.17373 15.7661 5.20327 15.8786 5.26147 15.9846C5.26147 15.9846 5.26147 15.9846 5.26147 15.9927C5.27339 16.0147 5.28697 16.0363 5.30214 16.0574C5.30214 16.079 5.30214 16.1006 5.30214 16.1208H5.17433C5.02283 15.8822 4.84275 15.6529 4.63599 15.4354C4.81325 15.6484 4.93149 15.8828 4.98456 16.1262H4.79091C4.59726 15.9103 4.38812 15.7106 4.38812 15.7106C4.49484 15.844 4.58178 15.9846 4.64761 16.1303L4.43847 16.137C4.39266 15.9336 4.31204 15.7347 4.19835 15.5447C4.26053 15.698 4.29373 15.8563 4.29711 16.0156L4.26418 15.9873L4.29711 16.0277C4.29711 16.0682 4.29711 16.1073 4.29711 16.1465H4.24482H4.0899C4.02932 15.9674 3.93694 15.7942 3.81492 15.631C3.87824 15.8015 3.90884 15.9771 3.90593 16.1532L3.66387 16.1613C3.579 15.9979 3.48073 15.8379 3.36953 15.6823C3.4666 15.8357 3.52867 15.9986 3.5535 16.1654H3.47216C3.45761 15.9978 3.42066 15.8316 3.36178 15.6688C3.39651 15.8348 3.39651 16.0034 3.36178 16.1694H3.31144H3.24753C3.22436 15.9731 3.16847 15.7793 3.081 15.5919C3.10852 15.726 3.11177 15.862 3.09068 15.9967L3.0655 15.9657L3.08874 16.0075C3.08874 16.0669 3.07131 16.1235 3.05776 16.1775H2.95125C2.89374 15.9271 2.80762 15.6803 2.6937 15.4394C2.78674 15.6827 2.80717 15.9366 2.75373 16.1856H2.62979C2.54375 15.961 2.43834 15.7402 2.31414 15.5244C2.39 15.7453 2.42321 15.9722 2.41291 16.1991H2.31414C2.27541 16.1289 2.227 16.0534 2.18247 15.9832C2.19964 15.837 2.24524 15.6931 2.31802 15.5555C2.31802 15.5555 2.19989 15.7147 2.10307 15.8658C2.03529 15.7646 1.98301 15.6904 1.98301 15.6904C2.02367 15.7714 2.05079 15.8429 2.07596 15.9103C2.04245 15.9616 2.01398 16.0143 1.99075 16.0682C1.95571 15.8481 1.97008 15.6255 2.03336 15.4084C2.03336 15.4084 1.76225 15.8955 1.76999 16.1033C1.65413 15.8504 1.63148 15.5813 1.70415 15.3207C1.70415 15.3207 1.48727 15.8496 1.55311 16.1154C1.43996 15.8994 1.38418 15.6708 1.38851 15.4408C1.36096 15.5166 1.3409 15.5937 1.32847 15.6715C1.29362 15.7093 1.24715 15.7619 1.19873 15.8172C1.16831 15.7107 1.15854 15.6018 1.16969 15.4934C1.13823 15.624 1.12719 15.7565 1.13677 15.8888C1.06588 15.9674 1.00435 16.05 0.952797 16.1357C0.887843 15.9313 0.887843 15.7194 0.952797 15.515C0.952797 15.515 0.679756 16.0223 0.720422 16.1748C0.547917 15.9755 0.472515 15.7426 0.50547 15.5109C0.50547 15.5109 0.39509 16.0156 0.50547 16.195C0.349991 16.0462 0.243542 15.8753 0.193699 15.6945C0.175701 15.8826 0.225632 16.071 0.338935 16.2423C0.176334 16.1078 0.0621457 15.9482 0.00585938 15.7768C0.0302853 15.9668 0.113529 16.151 0.249858 16.3165L0.139477 16.3232C1.64831 17.124 3.24646 17.8396 4.91872 18.4632L5.11237 18.5334L5.26341 18.5833L5.41252 18.6333L5.55775 18.6805L5.81337 18.7601L5.93924 18.7965L6.1174 18.8492L6.23746 18.8815C6.32654 18.9072 6.41562 18.9315 6.5047 18.9531L6.59571 18.976L6.80485 19.0259L6.89974 19.0475C6.99076 19.0677 7.08177 19.088 7.17085 19.1055L7.22894 19.1163L7.45551 19.1568L7.53491 19.1689C7.62399 19.1824 7.71306 19.1959 7.80021 19.2067H7.82925C7.90865 19.2162 7.98804 19.2229 8.06356 19.2297H8.13134C8.21655 19.2297 8.29982 19.2391 8.38115 19.2405C11.5977 19.3039 19.971 16.3475 19.971 16.3475L19.8122 16.3394C19.9434 16.1294 20.0062 15.9018 19.9962 15.6729ZM11.131 4.21988V2.92993C11.3517 3.20924 11.3769 3.96351 11.131 4.21988ZM18.7433 15.9778C18.7104 16.0925 18.6794 16.1654 18.6794 16.1654C18.7004 16.0576 18.712 15.949 18.7142 15.8402C18.7278 15.8856 18.7375 15.9316 18.7433 15.9778ZM17.5698 15.5838C17.6326 15.7742 17.6286 15.9723 17.5581 16.1613C17.5359 16.0472 17.4923 15.9356 17.4284 15.8294C17.4695 15.7459 17.5166 15.6639 17.5698 15.5838ZM17.3761 15.9657C17.3761 16.0547 17.3761 16.1181 17.3761 16.1181C17.3689 16.1 17.3591 16.0824 17.3471 16.0655C17.3529 16.0358 17.3626 16.0021 17.3742 15.967L17.3761 15.9657ZM17.2076 16.0142C17.1863 16.0453 17.167 16.0723 17.1554 16.0952C17.1554 16.0952 17.1554 16.0156 17.1747 15.9022C17.1883 15.9454 17.198 15.9886 17.2057 16.0156L17.2076 16.0142ZM16.5163 15.8699C16.4926 15.9797 16.4854 16.0909 16.495 16.2018C16.4693 16.1297 16.4493 16.0568 16.435 15.9832C16.4543 15.9495 16.4834 15.9117 16.5144 15.8712L16.5163 15.8699ZM16.3227 16.1654V16.195H16.3072C16.311 16.187 16.3149 16.1775 16.3207 16.1667L16.3227 16.1654ZM12.6434 15.8334C12.6809 15.9218 12.7088 16.012 12.7266 16.1033H12.6956C12.6782 16.0075 12.6646 15.9171 12.6395 15.8348L12.6434 15.8334ZM11.5163 15.5217C11.6142 15.6991 11.6474 15.8905 11.6131 16.079C11.5671 15.9674 11.5021 15.86 11.4195 15.7592C11.4428 15.6791 11.4739 15.6003 11.5124 15.5231L11.5163 15.5217ZM11.3924 15.8915C11.4137 15.9765 11.4234 16.0372 11.4234 16.0372C11.4115 16.0199 11.3979 16.0032 11.3827 15.9873C11.3808 15.9589 11.3846 15.9265 11.3885 15.8928L11.3924 15.8915ZM11.2336 15.9373C11.2181 15.967 11.2045 15.994 11.1968 16.0156C11.1968 16.0156 11.1832 15.9387 11.1794 15.8294C11.1987 15.8712 11.2162 15.9063 11.2297 15.9387L11.2336 15.9373ZM10.5152 15.8024C10.5132 15.8928 10.523 15.9831 10.5442 16.0723H10.5345C10.5042 16.0176 10.4783 15.9617 10.4571 15.9049C10.4667 15.8753 10.488 15.8388 10.5113 15.7997L10.5152 15.8024ZM7.09532 16.0952H6.8765C6.94232 16.0111 6.98748 15.9199 7.01012 15.8253C7.05815 15.9107 7.08563 16.0009 7.09145 16.0925L7.09532 16.0952ZM1.32073 15.7538C1.29715 15.9087 1.30759 16.0653 1.35171 16.218C1.29909 16.1306 1.25699 16.0404 1.22584 15.9481C1.25088 15.8813 1.28127 15.8156 1.31686 15.7511L1.32073 15.7538ZM1.2026 16.2936H1.18518C1.18518 16.2706 1.18518 16.2477 1.18518 16.2234C1.18518 16.249 1.19099 16.272 1.19873 16.2962L1.2026 16.2936Z" fill="url(#paint0_linear_1232_5135)"/>
</g>
<defs>
<linearGradient id="paint0_linear_1232_5135" x1="7.74017" y1="9.29735" x2="10.2253" y2="20.2567" gradientUnits="userSpaceOnUse">
<stop stop-color="#FFD47A"/>
<stop offset="1" stop-color="#4B0025"/>
</linearGradient>
<clipPath id="clip0_1232_5135">
<rect width="20" height="21" fill="white"/>
</clipPath>
</defs>
</svg>
