<svg width="13" height="23" viewBox="0 0 13 23" fill="none" xmlns="http://www.w3.org/2000/svg">
<g clip-path="url(#clip0_1232_3125)">
<path fill-rule="evenodd" clip-rule="evenodd" d="M8.10106 17.4096C10.7894 17.59 12.6813 18.9839 12.3297 20.5216C11.9781 22.0593 9.51459 23.1608 6.82864 22.9805C4.1427 22.8002 2.24604 21.4111 2.59763 19.8685C2.94921 18.3259 5.41033 17.2293 8.10106 17.4096Z" fill="#EDEDED"/>
<path fill-rule="evenodd" clip-rule="evenodd" d="M6.51263 18.8694C6.51263 18.8694 6.32129 19.7418 6.69919 19.6004C6.85944 19.5346 6.81878 19.8685 6.79964 19.9879C6.62229 20.1678 6.4023 20.2979 6.16104 20.3656C6.0582 20.3656 6.00797 20.3096 5.92187 20.4046C5.83577 20.4997 5.85968 20.6069 5.71139 20.7288C5.53067 20.8483 5.32419 20.9214 5.10965 20.9417C4.89512 20.9621 4.67893 20.9292 4.47964 20.8457C4.24046 20.7361 4.16871 20.6459 4.25721 20.4071C4.50422 20.2164 4.7704 20.0531 5.05127 19.9197C5.36701 19.7381 5.60999 19.4491 5.7377 19.1033C5.78075 18.9936 5.91948 18.6598 5.91948 18.6598C5.91948 18.6598 6.11082 18.5989 6.51263 18.8694Z" fill="#DCCF71"/>
<path fill-rule="evenodd" clip-rule="evenodd" d="M6.44809 19.4201C6.56051 19.6175 6.86187 19.4591 6.78294 19.7759C6.61555 19.9708 6.39875 20.1149 6.1563 20.1926C5.91712 20.1804 5.84298 20.4363 5.67795 20.5777C5.47638 20.733 5.23171 20.8192 4.97905 20.824C4.72639 20.8288 4.47872 20.752 4.2716 20.6045C4.15918 20.5021 4.25724 20.3437 4.31943 20.2609C4.43184 20.1122 4.85757 20.0342 5.03696 19.9441C5.84298 19.5785 5.42442 18.7305 6.44809 19.4201Z" fill="#F4E58F"/>
<path fill-rule="evenodd" clip-rule="evenodd" d="M11.4639 18.4063C11.4639 18.4063 11.6457 19.2788 11.9255 18.9815C12.0451 18.8523 12.1456 19.174 12.1766 19.291C12.0872 19.5292 11.9389 19.7399 11.7461 19.9026C11.6505 19.9416 11.5835 19.9173 11.5357 20.044C11.4878 20.1707 11.5596 20.2536 11.4735 20.4266C11.358 20.612 11.1998 20.7657 11.0126 20.8745C10.8254 20.9832 10.6149 21.0436 10.3996 21.0504C10.1604 21.0504 10.0217 21.009 10.0073 20.7556C10.1622 20.4785 10.3441 20.218 10.5503 19.9782C10.7659 19.6813 10.8702 19.3157 10.8444 18.9473C10.8444 18.8279 10.8444 18.46 10.8444 18.46C10.8444 18.46 10.9903 18.3259 11.4639 18.4063Z" fill="#DCCF71"/>
<path fill-rule="evenodd" clip-rule="evenodd" d="M11.7485 19.0668C11.8609 19.0448 11.9876 18.8231 12.0713 19.1179C12.0203 19.3783 11.8752 19.6096 11.6647 19.7662C11.4471 19.8588 11.4997 20.1293 11.4064 20.3145C11.2853 20.5376 11.0986 20.7165 10.8724 20.8258C10.6463 20.9351 10.3922 20.9693 10.146 20.9237C9.97378 20.8725 10.0097 20.7166 10.0336 20.6142C10.0766 20.4315 10.4258 20.1707 10.5502 20.0147C12.0474 18.2431 9.76091 18.7305 11.7485 19.0668Z" fill="#F4E58F"/>
<path fill-rule="evenodd" clip-rule="evenodd" d="M11.4635 18.4063C11.7293 18.5645 11.933 18.8117 12.0399 19.1057C11.9717 19.3455 11.8421 19.5625 11.6644 19.7345C11.4468 19.8246 11.4755 20.0732 11.3822 20.2584C11.2693 20.4844 11.0883 20.6677 10.8658 20.7812C10.6433 20.8948 10.3909 20.9328 10.1457 20.8896C10.0022 20.8409 9.99019 20.6459 10.0141 20.5484C10.0572 20.3656 10.4255 20.1341 10.5499 19.9782C10.9278 19.5346 10.789 18.901 10.789 18.7841C10.7942 18.6765 10.8127 18.5701 10.8441 18.4673C10.8441 18.4673 10.9899 18.3259 11.4635 18.4063Z" fill="#5A556E"/>
<path d="M10.8825 20.1146C10.8866 20.1198 10.8888 20.1263 10.8888 20.1329C10.8888 20.1396 10.8866 20.146 10.8825 20.1512C10.8825 20.1512 10.8586 20.1658 10.8514 20.1512C10.7906 20.0897 10.7131 20.0482 10.629 20.0318C10.5609 20.0224 10.4917 20.037 10.4328 20.0732C10.431 20.0753 10.4288 20.077 10.4264 20.0781C10.4239 20.0792 10.4212 20.0798 10.4185 20.0798C10.4158 20.0798 10.4131 20.0792 10.4106 20.0781C10.4081 20.077 10.4059 20.0753 10.4041 20.0732C10.4004 20.0679 10.3984 20.0615 10.3984 20.0549C10.3984 20.0484 10.4004 20.042 10.4041 20.0367C10.4717 19.9955 10.551 19.9792 10.629 19.9904C10.7244 20.0029 10.8133 20.0465 10.8825 20.1146Z" fill="#FFCC00"/>
<path d="M10.9469 19.9782C10.949 19.9802 10.9506 19.9827 10.9518 19.9854C10.9529 19.9881 10.9535 19.991 10.9535 19.994C10.9535 19.997 10.9529 19.9999 10.9518 20.0026C10.9506 20.0053 10.949 20.0078 10.9469 20.0098C10.9451 20.0119 10.9429 20.0136 10.9404 20.0147C10.9379 20.0159 10.9352 20.0164 10.9325 20.0164C10.9298 20.0164 10.9271 20.0159 10.9246 20.0147C10.9222 20.0136 10.92 20.0119 10.9182 20.0098C10.8656 19.9588 10.8002 19.9233 10.7292 19.9075C10.6694 19.9001 10.6089 19.913 10.557 19.944C10.5557 19.9461 10.5539 19.9477 10.5518 19.9489C10.5497 19.95 10.5474 19.9506 10.545 19.9506C10.5427 19.9506 10.5403 19.95 10.5383 19.9489C10.5362 19.9477 10.5344 19.9461 10.5331 19.944C10.5294 19.9396 10.5273 19.934 10.5273 19.9282C10.5273 19.9224 10.5294 19.9168 10.5331 19.9124C10.5911 19.8764 10.6595 19.8617 10.7268 19.8709C10.8092 19.883 10.8859 19.9205 10.9469 19.9782Z" fill="#FFCC00"/>
<path d="M11.0092 19.8393C11.0092 19.8393 11.0092 19.8588 11.0092 19.8685C11.0074 19.8706 11.0052 19.8722 11.0027 19.8734C11.0002 19.8745 10.9976 19.8751 10.9948 19.8751C10.9921 19.8751 10.9894 19.8745 10.987 19.8734C10.9845 19.8722 10.9823 19.8706 10.9805 19.8685C10.9286 19.8164 10.8629 19.7809 10.7915 19.7662C10.7317 19.7576 10.6708 19.7706 10.6193 19.8027C10.6178 19.8043 10.6159 19.8056 10.6139 19.8065C10.6118 19.8074 10.6096 19.8078 10.6074 19.8078C10.6051 19.8078 10.6029 19.8074 10.6009 19.8065C10.5988 19.8056 10.597 19.8043 10.5954 19.8027C10.5921 19.7981 10.5903 19.7926 10.5903 19.7869C10.5903 19.7812 10.5921 19.7756 10.5954 19.771C10.6534 19.735 10.7218 19.7204 10.7891 19.7296C10.8716 19.7428 10.9483 19.781 11.0092 19.8393Z" fill="#FFCC00"/>
<path d="M11.0716 19.7052C11.0737 19.7073 11.0754 19.7097 11.0765 19.7125C11.0776 19.7152 11.0782 19.7181 11.0782 19.7211C11.0782 19.724 11.0776 19.727 11.0765 19.7297C11.0754 19.7324 11.0737 19.7349 11.0716 19.7369C11.0698 19.739 11.0676 19.7407 11.0651 19.7418C11.0626 19.7429 11.06 19.7435 11.0572 19.7435C11.0545 19.7435 11.0519 19.7429 11.0494 19.7418C11.0469 19.7407 11.0447 19.739 11.0429 19.7369C10.991 19.6848 10.9253 19.6493 10.8539 19.6346C10.7941 19.6261 10.7333 19.639 10.6817 19.6711C10.6804 19.6731 10.6787 19.6748 10.6766 19.6759C10.6745 19.6771 10.6722 19.6777 10.6698 19.6777C10.6674 19.6777 10.6651 19.6771 10.663 19.6759C10.6609 19.6748 10.6591 19.6731 10.6578 19.6711C10.6543 19.6671 10.6523 19.6619 10.6523 19.6565C10.6523 19.6511 10.6543 19.6459 10.6578 19.6419C10.7158 19.6059 10.7842 19.5912 10.8516 19.6004C10.9341 19.6101 11.0114 19.6469 11.0716 19.7052Z" fill="#FFCC00"/>
<path d="M11.1358 19.5566C11.1395 19.561 11.1415 19.5666 11.1415 19.5724C11.1415 19.5782 11.1395 19.5838 11.1358 19.5883C11.132 19.5912 11.1274 19.5928 11.1226 19.5928C11.1179 19.5928 11.1133 19.5912 11.1095 19.5883C11.0574 19.5352 10.9906 19.4995 10.9181 19.4859C10.8583 19.4754 10.7967 19.4884 10.7459 19.5225C10.7444 19.5241 10.7425 19.5254 10.7405 19.5263C10.7384 19.5271 10.7362 19.5276 10.734 19.5276C10.7318 19.5276 10.7296 19.5271 10.7275 19.5263C10.7254 19.5254 10.7236 19.5241 10.722 19.5225C10.7201 19.5166 10.7203 19.5102 10.7225 19.5045C10.7246 19.4987 10.7287 19.4938 10.734 19.4908C10.792 19.4548 10.8604 19.4402 10.9277 19.4494C11.0057 19.4642 11.0779 19.5014 11.1358 19.5566Z" fill="#FFCC00"/>
<path d="M11.1983 19.4177C11.202 19.4221 11.2041 19.4277 11.2041 19.4335C11.2041 19.4393 11.202 19.4449 11.1983 19.4493C11.1968 19.4514 11.1948 19.453 11.1925 19.4541C11.1902 19.4553 11.1877 19.4559 11.1852 19.4559C11.1827 19.4559 11.1802 19.4553 11.1779 19.4541C11.1756 19.453 11.1736 19.4514 11.172 19.4493C11.1192 19.3972 11.0528 19.3617 10.9807 19.347C10.9209 19.3385 10.86 19.3514 10.8085 19.3835C10.8069 19.3852 10.8051 19.3865 10.803 19.3873C10.801 19.3882 10.7988 19.3887 10.7965 19.3887C10.7943 19.3887 10.7921 19.3882 10.79 19.3873C10.788 19.3865 10.7861 19.3852 10.7846 19.3835C10.7815 19.3793 10.7798 19.3742 10.7798 19.3689C10.7798 19.3637 10.7815 19.3585 10.7846 19.3543C10.8421 19.3171 10.9109 19.3024 10.9783 19.3129C11.0606 19.3235 11.1375 19.3602 11.1983 19.4177Z" fill="#FFCC00"/>
<path d="M11.2602 19.2763C11.2639 19.2807 11.2659 19.2864 11.2659 19.2922C11.2659 19.298 11.2639 19.3036 11.2602 19.308C11.2586 19.31 11.2566 19.3117 11.2543 19.3128C11.252 19.3139 11.2495 19.3145 11.247 19.3145C11.2445 19.3145 11.242 19.3139 11.2397 19.3128C11.2374 19.3117 11.2354 19.31 11.2339 19.308C11.1804 19.2567 11.1143 19.2213 11.0425 19.2056C10.9835 19.1981 10.9237 19.211 10.8727 19.2422C10.8711 19.2442 10.8691 19.2459 10.8669 19.247C10.8646 19.2481 10.8621 19.2487 10.8595 19.2487C10.857 19.2487 10.8545 19.2481 10.8522 19.247C10.85 19.2459 10.848 19.2442 10.8464 19.2422C10.8431 19.2376 10.8413 19.2321 10.8413 19.2264C10.8413 19.2207 10.8431 19.2151 10.8464 19.2105C10.9044 19.1745 10.9728 19.1599 11.0401 19.1691C11.1223 19.1816 11.199 19.219 11.2602 19.2763Z" fill="#FFCC00"/>
<path fill-rule="evenodd" clip-rule="evenodd" d="M11.959 4.37677C11.959 2.92922 9.46198 1.52797 8.72292 1.93982L6.94824 2.97796L8.44309 8.61708V9.65035L9.67484 10.1719L10.0958 12.3651C10.6602 12.331 11.2917 11.8509 11.6385 11.5244C11.7279 11.4612 11.8029 11.3791 11.8582 11.2836C11.9136 11.1881 11.9479 11.0815 11.959 10.9712V4.37677Z" fill="#677D27"/>
<path fill-rule="evenodd" clip-rule="evenodd" d="M9.89014 11.3026L10.0958 12.3676C10.6603 12.3334 11.2917 11.8534 11.6385 11.5268C11.728 11.4637 11.803 11.3815 11.8583 11.286C11.9136 11.1905 11.948 11.0839 11.959 10.9736V10.2913C11.3539 10.7567 10.4857 11.3855 10.0025 11.3221L9.89014 11.3026Z" fill="#56321A"/>
<path fill-rule="evenodd" clip-rule="evenodd" d="M11.9446 4.18182C11.7389 2.80738 9.42849 1.54747 8.72292 1.9447L6.94824 2.98284C7.82602 6.30198 11.4471 5.14929 11.9446 4.18182Z" fill="#8CB020"/>
<path fill-rule="evenodd" clip-rule="evenodd" d="M10.2249 5.34912C10.2249 3.56527 6.70904 1.91545 6.70904 3.50922V10.3839C6.7079 10.4608 6.7257 10.5368 6.76079 10.6049C6.79588 10.673 6.84716 10.7311 6.90994 10.7738C7.85574 11.4563 8.89763 11.9887 10.0001 12.3529C10.0235 12.3649 10.0493 12.3712 10.0754 12.3712C10.1016 12.3712 10.1274 12.3649 10.1508 12.3529C10.1738 12.3394 10.1928 12.3198 10.2058 12.2963C10.2189 12.2727 10.2255 12.246 10.2249 12.2189V5.34912Z" fill="#A25E33"/>
<path fill-rule="evenodd" clip-rule="evenodd" d="M10.2249 5.34912C10.2249 3.56527 6.70898 1.91545 6.70898 3.50922V10.1061C6.7335 10.1339 6.75988 10.1599 6.78791 10.184C7.96466 11.2368 9.1414 11.9265 10.2249 11.7486V5.34912Z" fill="#789422"/>
<path fill-rule="evenodd" clip-rule="evenodd" d="M6.70898 9.71371V10.1061C6.7335 10.1339 6.75988 10.1599 6.78791 10.184C7.96466 11.2368 9.1414 11.9265 10.2249 11.7486V11.3099C10.1511 11.3205 10.0762 11.3205 10.0024 11.3099C9.12227 11.2076 7.69439 10.3303 6.70898 9.71371Z" fill="#A25E33"/>
<path d="M10.7774 7.71541C10.7609 7.71541 10.7451 7.70873 10.7334 7.69685C10.7217 7.68497 10.7152 7.66885 10.7152 7.65205L10.7008 4.99089C10.7008 4.47913 10.3325 3.88695 9.6939 3.36544C9.01464 2.81469 8.19426 2.4857 7.74222 2.58805C7.73421 2.58984 7.72593 2.59 7.71786 2.58851C7.70979 2.58703 7.70209 2.58393 7.6952 2.5794C7.68831 2.57487 7.68236 2.569 7.67771 2.56212C7.67305 2.55524 7.66978 2.54749 7.66808 2.53931C7.66514 2.52353 7.66821 2.5072 7.67664 2.49362C7.68508 2.48005 7.69826 2.47025 7.71352 2.4662C8.20862 2.3541 9.0553 2.68553 9.77043 3.26796C10.4377 3.8114 10.8228 4.44014 10.8252 4.99089L10.8395 7.65205C10.8395 7.66885 10.833 7.68497 10.8213 7.69685C10.8097 7.70873 10.7939 7.71541 10.7774 7.71541Z" fill="#677D27"/>
<path fill-rule="evenodd" clip-rule="evenodd" d="M10.2366 9.47002C10.8777 9.28542 11.468 8.95174 11.9611 8.49524C11.9611 8.71944 11.9611 8.94364 11.9611 9.16784C11.4484 9.60682 10.8605 9.94556 10.2271 10.167C10.2294 9.92573 10.2318 9.69666 10.2366 9.47002Z" fill="#706F6F"/>
<path fill-rule="evenodd" clip-rule="evenodd" d="M10.2366 10.5325C10.8777 10.3479 11.468 10.0142 11.9611 9.55774C11.9611 9.78194 11.9611 10.0037 11.9611 10.2279C11.4485 10.6676 10.8606 11.0072 10.2271 11.2295C10.2294 10.9931 10.2318 10.7616 10.2366 10.5325Z" fill="#706F6F"/>
<path fill-rule="evenodd" clip-rule="evenodd" d="M10.3826 8.9412L11.9779 8.08339L12.418 8.32708L12.0329 9.30187V10.4448L10.9112 11.0808L10.6457 11.595L10.2654 11.3806C10.248 11.3712 10.2335 11.3572 10.2233 11.34C10.2132 11.3228 10.2079 11.3032 10.208 11.2831V9.22632C10.209 9.16714 10.2258 9.10934 10.2565 9.05912C10.2873 9.0089 10.3309 8.96814 10.3826 8.9412Z" fill="#789422"/>
<path fill-rule="evenodd" clip-rule="evenodd" d="M10.8228 9.18733C11.361 8.9871 11.863 8.69722 12.3081 8.32952C12.324 8.31764 12.3433 8.31123 12.3631 8.31123C12.3829 8.31123 12.4021 8.31764 12.4181 8.32952C12.4349 8.33939 12.4488 8.35361 12.4585 8.37072C12.4681 8.38784 12.4732 8.40725 12.4731 8.427V10.4838C12.4688 10.5429 12.4513 10.6002 12.4218 10.6513C12.3924 10.7025 12.3518 10.746 12.3033 10.7787C11.851 11.1355 11.3508 11.4244 10.818 11.6365C10.801 11.6454 10.7821 11.6501 10.763 11.6501C10.7438 11.6501 10.725 11.6454 10.708 11.6365C10.6914 11.6264 10.6776 11.6122 10.6679 11.5951C10.6583 11.578 10.6531 11.5587 10.653 11.539V9.4822C10.6477 9.42117 10.6612 9.35997 10.6917 9.30713C10.7221 9.25429 10.7679 9.21241 10.8228 9.18733Z" fill="#677D27"/>
<path fill-rule="evenodd" clip-rule="evenodd" d="M10.0596 9.06304C10.0595 9.1273 10.0769 9.19033 10.11 9.24506C10.143 9.29978 10.1904 9.34405 10.2468 9.37289C10.3031 9.40173 10.3663 9.41401 10.4291 9.40835C10.4919 9.40269 10.552 9.37932 10.6025 9.34085C10.6408 9.19707 10.6575 9.10934 10.6934 8.96556L10.2557 8.9485L10.0596 9.06304Z" fill="#495C11"/>
<path fill-rule="evenodd" clip-rule="evenodd" d="M10.2054 8.79985C10.6838 8.41238 11.7888 7.93473 11.9059 7.9786C12.523 8.20524 12.6235 8.19549 12.5756 9.05086C12.2456 9.24582 11.7529 9.72102 11.0353 9.89161C10.7316 9.96472 10.8201 9.26044 10.0332 9.08741C10.0581 8.97493 10.1186 8.8739 10.2054 8.79985Z" fill="#8BAF20"/>
<path fill-rule="evenodd" clip-rule="evenodd" d="M11.6025 9.33842C11.6876 9.30981 11.7682 9.26877 11.8417 9.21657L11.868 9.22632C11.868 9.54556 11.8537 9.87455 11.8417 10.2011C11.8417 10.4448 11.6025 10.6203 11.6025 10.3229C11.6025 10.0256 11.6025 9.66497 11.6025 9.33842Z" fill="#56321A"/>
<path fill-rule="evenodd" clip-rule="evenodd" d="M11.6289 9.35305C11.714 9.32444 11.7946 9.2834 11.8681 9.2312C11.8681 9.55775 11.8681 9.88674 11.8681 10.206C11.8681 10.4497 11.6289 10.6227 11.6289 10.3254C11.6289 10.0281 11.6289 9.6796 11.6289 9.35305Z" fill="#A25E33"/>
<path fill-rule="evenodd" clip-rule="evenodd" d="M10.3826 5.93887L11.9779 5.0835L12.418 5.32719L12.033 6.30197V7.42297L10.9112 8.07608L10.6457 8.59028L10.2654 8.37826C10.2479 8.36851 10.2332 8.35405 10.2231 8.33644C10.213 8.31883 10.2078 8.29875 10.208 8.27835V6.2313C10.2072 6.17076 10.2231 6.11119 10.254 6.05946C10.2849 6.00773 10.3295 5.96593 10.3826 5.93887Z" fill="#789422"/>
<path fill-rule="evenodd" clip-rule="evenodd" d="M10.8226 6.18256C11.3616 5.985 11.8638 5.69578 12.3079 5.32718C12.3242 5.31597 12.3433 5.30998 12.3629 5.30998C12.3826 5.30998 12.4017 5.31597 12.418 5.32718C12.4346 5.33724 12.4484 5.3515 12.458 5.36857C12.4676 5.38565 12.4728 5.40497 12.473 5.42466V7.48389C12.4687 7.54267 12.4511 7.59964 12.4217 7.65037C12.3922 7.7011 12.3516 7.7442 12.3031 7.77633C11.8515 8.13409 11.3511 8.42305 10.8179 8.63414C10.8011 8.64374 10.7821 8.64879 10.7629 8.64879C10.7436 8.64879 10.7246 8.64374 10.7078 8.63414C10.6911 8.62426 10.6771 8.61005 10.6675 8.59293C10.6578 8.57581 10.6528 8.5564 10.6528 8.53666V6.47743C10.6479 6.41645 10.6616 6.35541 10.692 6.30263C10.7224 6.24986 10.768 6.20793 10.8226 6.18256Z" fill="#677D27"/>
<path fill-rule="evenodd" clip-rule="evenodd" d="M10.1265 6.13627C10.1256 6.20115 10.1426 6.26499 10.1756 6.32049C10.2086 6.376 10.2563 6.42092 10.3131 6.45015C10.37 6.47937 10.4338 6.49172 10.4972 6.48577C10.5606 6.47982 10.6211 6.45582 10.6718 6.41652C10.7077 6.27274 10.7244 6.17282 10.7627 6.03879L10.325 6.02173L10.1265 6.13627Z" fill="#495C11"/>
<path fill-rule="evenodd" clip-rule="evenodd" d="M10.2727 5.87551C10.7511 5.4856 11.8537 5.01039 11.9709 5.05182C12.5904 5.27845 12.6765 5.27114 12.643 6.12652C12.3105 6.31904 11.8202 6.79424 11.1027 6.96483C10.7989 7.03794 10.8874 6.33366 10.0981 6.16307C10.1237 6.05026 10.1851 5.94919 10.2727 5.87551Z" fill="#8BAF20"/>
<path fill-rule="evenodd" clip-rule="evenodd" d="M11.6694 6.41163C11.7544 6.38262 11.8349 6.3416 11.9086 6.28978L11.9373 6.30684C11.9373 6.62364 11.9206 6.95263 11.9086 7.28162C11.9086 7.52532 11.6694 7.69834 11.6694 7.40347C11.6694 7.1086 11.6694 6.73818 11.6694 6.41163Z" fill="#56321A"/>
<path fill-rule="evenodd" clip-rule="evenodd" d="M11.6958 6.42625C11.7804 6.39755 11.8609 6.35738 11.935 6.30684C11.935 6.63339 11.935 6.95994 11.935 7.28162C11.935 7.52532 11.6958 7.70078 11.6958 7.40347C11.6958 7.10616 11.6958 6.75524 11.6958 6.42625Z" fill="#A25E33"/>
<path fill-rule="evenodd" clip-rule="evenodd" d="M6.51262 18.8694C6.68874 19.1261 6.77315 19.4366 6.75179 19.7491C6.59273 19.939 6.3873 20.0827 6.15625 20.1658C5.91707 20.1658 5.84532 20.3949 5.6779 20.524C5.48335 20.6824 5.24413 20.773 4.99534 20.7826C4.74654 20.7923 4.50126 20.7204 4.29546 20.5777C4.18305 20.4753 4.25002 20.295 4.3122 20.2121C4.42701 20.0635 4.85513 20.0098 5.02973 19.9197C5.55352 19.676 5.6779 19.0351 5.72095 18.9278C5.76883 18.8314 5.82828 18.7413 5.89794 18.6598C5.89794 18.6598 6.1108 18.5989 6.51262 18.8694Z" fill="#5A556E"/>
<path d="M5.29039 20.1926C5.29224 20.1991 5.29182 20.2061 5.2892 20.2123C5.28659 20.2185 5.28193 20.2236 5.27604 20.2267C5.27403 20.2289 5.27161 20.2306 5.26894 20.2317C5.26627 20.2329 5.26339 20.2335 5.26049 20.2335C5.25758 20.2335 5.25471 20.2329 5.25204 20.2317C5.24937 20.2306 5.24695 20.2289 5.24494 20.2267C5.21437 20.1456 5.16116 20.0752 5.09187 20.0245C5.03319 19.9878 4.9641 19.9723 4.89575 19.9806C4.89266 19.9815 4.88941 19.9815 4.88629 19.9808C4.88318 19.98 4.8803 19.9785 4.87792 19.9763C4.87554 19.9741 4.87373 19.9713 4.87267 19.9683C4.8716 19.9652 4.87132 19.9619 4.87183 19.9587C4.87357 19.9519 4.87721 19.9457 4.8823 19.941C4.88739 19.9362 4.89372 19.933 4.90053 19.9319C4.97825 19.9223 5.05682 19.9404 5.12296 19.983C5.19704 20.0354 5.25508 20.1081 5.29039 20.1926Z" fill="#FFCC00"/>
<path d="M5.40993 20.0854C5.41271 20.0898 5.41419 20.0948 5.41419 20.1C5.41419 20.1052 5.41271 20.1103 5.40993 20.1146C5.40813 20.1167 5.40592 20.1184 5.40345 20.1195C5.40098 20.1207 5.39829 20.1212 5.39558 20.1212C5.39286 20.1212 5.39018 20.1207 5.38771 20.1195C5.38523 20.1184 5.38302 20.1167 5.38123 20.1146C5.35513 20.0443 5.3094 19.9833 5.24968 19.9392C5.19891 19.9074 5.13891 19.8945 5.07987 19.9026C5.07987 19.9026 5.05834 19.9026 5.06073 19.8831C5.06073 19.8773 5.063 19.8717 5.06704 19.8676C5.07107 19.8635 5.07655 19.8612 5.08226 19.8612C5.14958 19.8522 5.2179 19.8668 5.27599 19.9026C5.33551 19.9506 5.38168 20.0136 5.40993 20.0854Z" fill="#FFCC00"/>
<path d="M5.51761 19.9855C5.51877 19.9882 5.51938 19.9911 5.51941 19.9941C5.51944 19.997 5.51887 20 5.51775 20.0027C5.51664 20.0054 5.51499 20.0079 5.51291 20.01C5.51083 20.012 5.50836 20.0137 5.50565 20.0147C5.50565 20.0147 5.48173 20.0147 5.47934 20.0147C5.45183 19.9452 5.40535 19.8852 5.3454 19.8417C5.29561 19.8074 5.23499 19.7935 5.17559 19.8027C5.17298 19.8031 5.17031 19.8029 5.16781 19.8021C5.1653 19.8012 5.16302 19.7998 5.16115 19.7979C5.15929 19.796 5.15789 19.7937 5.15707 19.7911C5.15626 19.7886 5.15604 19.7859 5.15645 19.7832C5.15749 19.7774 5.16041 19.7721 5.16474 19.7681C5.16906 19.7641 5.17456 19.7617 5.18037 19.7613C5.24802 19.7517 5.31678 19.7673 5.3741 19.8051C5.43792 19.85 5.48774 19.9126 5.51761 19.9855Z" fill="#FFCC00"/>
<path d="M5.63016 19.8831C5.63327 19.8874 5.63494 19.8925 5.63494 19.8978C5.63494 19.903 5.63327 19.9082 5.63016 19.9124C5.62621 19.916 5.6211 19.918 5.61581 19.918C5.61052 19.918 5.60541 19.916 5.60146 19.9124C5.57472 19.8431 5.52907 19.7831 5.46991 19.7394C5.41936 19.7069 5.35942 19.6932 5.3001 19.7004C5.29749 19.7008 5.29483 19.7006 5.29232 19.6997C5.28981 19.6989 5.28753 19.6975 5.28567 19.6956C5.2838 19.6937 5.2824 19.6914 5.28159 19.6888C5.28077 19.6862 5.28056 19.6835 5.28096 19.6809C5.28149 19.6752 5.28393 19.67 5.28786 19.666C5.29179 19.662 5.29696 19.6595 5.30249 19.6589C5.37014 19.6494 5.4389 19.665 5.49622 19.7028C5.55717 19.7483 5.60373 19.811 5.63016 19.8831Z" fill="#FFCC00"/>
<path d="M5.74491 19.7808C5.74844 19.7848 5.75039 19.79 5.75039 19.7954C5.75039 19.8008 5.74844 19.806 5.74491 19.81C5.74334 19.812 5.74134 19.8137 5.73906 19.8148C5.73678 19.8159 5.73429 19.8165 5.73175 19.8165C5.72922 19.8165 5.72672 19.8159 5.72444 19.8148C5.72216 19.8137 5.72016 19.812 5.7186 19.81C5.69109 19.7405 5.64461 19.6804 5.58466 19.637C5.53389 19.6052 5.47389 19.5923 5.41484 19.6004C5.41224 19.6009 5.40957 19.6006 5.40706 19.5998C5.40456 19.599 5.40228 19.5976 5.40041 19.5957C5.39855 19.5938 5.39715 19.5914 5.39633 19.5889C5.39551 19.5863 5.3953 19.5836 5.39571 19.5809C5.39696 19.575 5.39989 19.5695 5.40413 19.5652C5.40838 19.5608 5.41376 19.5579 5.41963 19.5566C5.48722 19.5483 5.55557 19.5638 5.61336 19.6004C5.67277 19.647 5.71831 19.7094 5.74491 19.7808Z" fill="#FFCC00"/>
<path d="M5.85738 19.6784C5.86048 19.6826 5.86216 19.6878 5.86216 19.693C5.86216 19.6983 5.86048 19.7034 5.85738 19.7077C5.85558 19.7097 5.85337 19.7114 5.8509 19.7125C5.84843 19.7137 5.84574 19.7143 5.84303 19.7143C5.84031 19.7143 5.83763 19.7137 5.83515 19.7125C5.83268 19.7114 5.83047 19.7097 5.82868 19.7077C5.80258 19.6373 5.75685 19.5764 5.69713 19.5322C5.64636 19.5004 5.58636 19.4875 5.52732 19.4957C5.51536 19.4957 5.50579 19.4956 5.50818 19.4762C5.50818 19.4733 5.50874 19.4704 5.50982 19.4678C5.5109 19.4651 5.51249 19.4627 5.51449 19.4606C5.51648 19.4586 5.51886 19.457 5.52147 19.4559C5.52408 19.4548 5.52688 19.4542 5.52971 19.4542C5.59703 19.4452 5.66535 19.4598 5.72344 19.4957C5.78372 19.5429 5.83006 19.6061 5.85738 19.6784Z" fill="#FFCC00"/>
<path d="M5.9722 19.5785C5.97336 19.5812 5.97397 19.5842 5.974 19.5871C5.97402 19.5901 5.97346 19.593 5.97234 19.5957C5.97123 19.5985 5.96958 19.6009 5.9675 19.603C5.96542 19.6051 5.96295 19.6067 5.96024 19.6078C5.96024 19.6078 5.93632 19.6078 5.93393 19.6078C5.90642 19.5382 5.85994 19.4782 5.79999 19.4347C5.7502 19.4005 5.68958 19.3865 5.63018 19.3957C5.62757 19.3962 5.6249 19.3959 5.6224 19.3951C5.61989 19.3943 5.61761 19.3929 5.61574 19.391C5.61388 19.3891 5.61248 19.3867 5.61166 19.3842C5.61085 19.3816 5.61063 19.3789 5.61104 19.3762C5.61164 19.3702 5.61442 19.3646 5.61884 19.3606C5.62326 19.3565 5.62901 19.3543 5.63496 19.3543C5.70259 19.3452 5.77121 19.3608 5.82869 19.3982C5.89251 19.443 5.94232 19.5056 5.9722 19.5785Z" fill="#FFCC00"/>
<path fill-rule="evenodd" clip-rule="evenodd" d="M8.21343 11.0199C8.02926 11.595 8.39042 11.9216 8.24931 12.5089C8.02209 13.24 7.22324 14.6291 7.30695 15.5015C7.46003 17.0758 6.93623 17.9701 6.96972 19.3543C6.56312 19.6784 5.32897 19.4274 5.53466 18.9059C5.66382 17.239 5.55858 15.2797 5.60402 14.7631C5.60402 14.6948 5.65425 14.2757 5.64947 14.032C5.61837 12.5869 5.81211 9.64547 5.97235 9.11665C6.4763 9.44854 7.03821 9.67854 7.62745 9.79413C7.63223 9.99396 8.23974 10.9322 8.21343 11.0199Z" fill="#7C7187"/>
<path fill-rule="evenodd" clip-rule="evenodd" d="M9.92318 16.0937C10.4781 16.5591 11.2721 17.5558 11.9466 18.5306C12.1045 18.9522 11.3439 19.8344 10.7292 19.5054C10.4111 19.0546 9.08846 17.8458 8.45704 17.2147C8.30307 17.0479 8.16381 16.8677 8.04087 16.6761C7.58883 15.1384 7.10569 14.5998 6.93827 11.9557C6.09398 11.8241 6.52928 10.5666 6.48145 9.44321C7.89976 10.418 8.96409 10.0281 9.31329 9.75026C9.79164 10.5155 9.62661 11.9776 9.35394 12.1555C9.48788 13.4886 9.43527 14.746 9.55485 15.7257C9.78925 16.1205 9.73663 15.9353 9.92318 16.0937Z" fill="#A096AB"/>
<path fill-rule="evenodd" clip-rule="evenodd" d="M8.45702 15.8719C8.47745 15.1691 8.37375 14.4683 8.15088 13.8029C8.64038 13.729 9.0916 13.4906 9.43286 13.1255C9.59311 14.0028 9.85859 15.1481 9.55006 15.3748C9.23296 15.6322 8.85683 15.8033 8.45702 15.8719Z" fill="#7C7187"/>
<path fill-rule="evenodd" clip-rule="evenodd" d="M8.29688 13.8297C8.73348 13.7048 9.13661 13.4807 9.47601 13.1742C9.54776 13.3521 9.61952 13.5276 9.69366 13.703C9.37598 14.0444 8.96812 14.2847 8.51931 14.3951C8.4082 14.224 8.33252 14.0316 8.29688 13.8297Z" fill="#A096AB"/>
<path fill-rule="evenodd" clip-rule="evenodd" d="M7.28789 10.4156C7.25177 11.3695 7.34431 12.3239 7.56294 13.2522C8.12439 13.3109 8.6889 13.1753 9.16541 12.8671C9.11997 12.4382 9.08888 12.158 9.01234 11.695C8.73126 11.6051 8.48264 11.4323 8.29788 11.1985C8.11312 10.9648 8.00053 10.6804 7.97432 10.3814C7.74824 10.4258 7.51713 10.4373 7.28789 10.4156Z" fill="#7C7187"/>
<path fill-rule="evenodd" clip-rule="evenodd" d="M9.36629 13.8565C9.33759 13.8249 9.35194 13.7542 9.39977 13.6981C9.44761 13.6421 9.5074 13.625 9.5385 13.6567C9.56959 13.6884 9.55284 13.7615 9.5074 13.8151C9.46196 13.8687 9.39738 13.8785 9.36629 13.8565Z" fill="#7C7187"/>
<path fill-rule="evenodd" clip-rule="evenodd" d="M8.55065 14.2855C8.51956 14.2538 8.53391 14.1831 8.58174 14.127C8.62958 14.071 8.69176 14.0539 8.72046 14.0856C8.74917 14.1173 8.73721 14.1904 8.68937 14.244C8.64154 14.2976 8.57935 14.3196 8.55065 14.2855Z" fill="#7C7187"/>
<path fill-rule="evenodd" clip-rule="evenodd" d="M10.8585 11.1272C10.7867 11.0272 10.4184 10.9712 10.4256 11.1418C10.4327 11.3124 10.3203 11.8582 10.3203 11.8997C10.322 11.9602 10.3283 12.0205 10.3394 12.08C10.3454 12.1583 10.3815 12.231 10.4399 12.2823C10.4901 12.3456 10.6336 12.526 10.6791 12.5845C10.7796 12.685 10.8893 12.7756 11.0067 12.855C11.0207 12.8435 11.032 12.829 11.0399 12.8126C11.0477 12.7962 11.0519 12.7782 11.0522 12.7599C11.0928 12.7843 11.155 12.8428 11.1742 12.816C11.1904 12.792 11.1991 12.7635 11.1991 12.7343C11.1991 12.7052 11.1904 12.6767 11.1742 12.6527L11.2148 12.6868C11.2411 12.6622 11.2581 12.629 11.2629 12.5929C11.2677 12.5569 11.26 12.5203 11.2411 12.4894C11.2172 12.4407 11.112 12.3042 11.0881 12.2457C11.0259 12.1312 10.8848 11.8656 11.0474 12.1263C11.1192 12.2384 11.2435 12.3846 11.2674 12.3139C11.3105 12.1921 11.2053 12.1482 11.1455 12.0288C11.0729 11.8757 11.0275 11.7107 11.0115 11.5414C11.0199 11.465 11.0104 11.3876 10.9838 11.3156C10.9572 11.2436 10.9143 11.179 10.8585 11.1272Z" fill="#F2B387"/>
<path fill-rule="evenodd" clip-rule="evenodd" d="M9.99531 3.52871C10.2034 4.11358 9.75614 4.28173 9.67721 5.05181C9.48826 6.91852 5.0659 6.51399 7.14673 2.85855C7.30459 2.58074 9.0697 2.60755 9.99531 3.52871Z" fill="#7C7187"/>
<path fill-rule="evenodd" clip-rule="evenodd" d="M6.92881 3.35569C7.62721 3.82358 6.68964 5.10299 6.09409 5.48315C5.4932 6.17698 4.72231 6.69585 3.86019 6.98675C3.03025 7.20121 2.9298 5.90718 3.45359 5.41979C3.92416 4.93875 4.36131 4.42494 4.76188 3.88207C5.06085 3.46779 6.29021 2.72452 6.92881 3.35569Z" fill="#BF3523"/>
<path fill-rule="evenodd" clip-rule="evenodd" d="M2.72397 6.80155C1.9036 6.38726 1.40612 5.92424 1.07127 5.73416C0.954075 5.28819 1.34393 4.5961 1.58311 4.70576C2.19622 4.98127 2.82475 5.21969 3.46542 5.41979C4.03944 5.70248 4.10163 6.50667 3.94377 6.79423C3.8481 6.91121 3.69981 7.3523 2.72397 6.80155Z" fill="#EF7D00"/>
<path fill-rule="evenodd" clip-rule="evenodd" d="M8.15332 6.08751C8.15332 6.62608 8.50013 7.49851 9.05262 7.1549C9.45922 6.91121 9.90408 5.82676 9.71992 5.36861C9.64099 5.16878 9.43052 4.75206 9.21526 4.68383C8.34944 4.4182 8.15332 5.36617 8.15332 6.08751Z" fill="#DB9669"/>
<path fill-rule="evenodd" clip-rule="evenodd" d="M8.51931 3.4751C9.03611 3.69739 9.5044 4.02211 9.89696 4.43039C10.1744 4.74963 9.89696 5.46853 9.89696 5.56845C9.7702 7.76171 9.85391 8.66826 9.89696 10.7519C9.76781 11.4829 7.85679 12.0434 5.5631 10.7908C5.50091 9.20439 4.96755 5.6513 5.70182 3.58476C5.88838 3.13393 8.09118 3.9893 8.51931 3.4751Z" fill="#CC4D1C"/>
<path fill-rule="evenodd" clip-rule="evenodd" d="M9.03625 4.51081C9.85184 3.8772 10.5335 5.01038 10.8253 5.56113C11.2655 6.35013 11.5461 7.22103 11.6504 8.12238C11.6815 8.87052 10.5789 8.7901 10.2656 8.25397C9.87336 7.78364 9.12235 6.73575 8.95014 6.5481C8.66074 6.2118 8.34264 5.04937 9.03625 4.51081Z" fill="#EF7D00"/>
<path fill-rule="evenodd" clip-rule="evenodd" d="M11.6455 8.03952C11.8345 8.98262 11.3896 10.7055 11.3107 11.1198C11.093 11.3002 10.22 11.1783 10.2392 10.9224C10.2176 10.6592 10.3922 9.07279 10.2655 8.25397C10.3181 8.04927 10.7654 7.76658 11.0835 7.79095C11.227 7.83238 11.404 6.91608 11.6455 8.03952Z" fill="#EF7D00"/>
<path fill-rule="evenodd" clip-rule="evenodd" d="M11.1502 11.0687C11.153 11.1639 11.1425 11.2591 11.1191 11.3513C10.8915 11.2406 10.6376 11.1983 10.3872 11.2295C10.3872 11.132 10.3872 11.0345 10.4063 10.9371C10.6168 10.7445 10.8847 10.7933 11.1502 11.0687Z" fill="#7C7187"/>
<path fill-rule="evenodd" clip-rule="evenodd" d="M1.13391 5.57089C1.05257 5.53669 0.9774 5.48892 0.91148 5.42954C0.890833 5.27103 0.926495 5.11022 1.01202 4.97615C1.09755 4.84208 1.22731 4.74358 1.37787 4.69846L1.5716 4.84224C1.59139 4.99637 1.55874 5.15276 1.4791 5.28535C1.39946 5.41794 1.27763 5.51871 1.13391 5.57089Z" fill="#7C7187"/>
<path fill-rule="evenodd" clip-rule="evenodd" d="M1.27955 4.8398C1.28581 4.76073 1.27515 4.68121 1.24831 4.60674C1.22147 4.53227 1.17909 4.46462 1.12409 4.40846C0.884915 4.2988 0.253491 3.95275 0.217614 3.92107C0.181738 3.88939 0.217614 3.92107 0.150645 3.88939C0.0836758 3.85771 0.0238819 3.94057 0.0693252 4.08678C-0.00721098 4.24762 0.0693251 4.30124 0.164995 4.38897C0.0884592 4.45964 0.100418 4.53518 0.327635 4.71064C0.308501 4.80325 0.169779 4.76669 0.212831 4.813C0.36112 4.92997 0.691182 5.26627 0.884914 5.22484C0.96145 5.22484 0.951883 5.1956 1.06908 5.2614C1.22933 5.24677 1.39675 4.9982 1.27955 4.8398Z" fill="#DB9669"/>
<path d="M0.655399 3.10711C0.638657 3.01207 0.444924 2.95359 0.354038 2.97064C0.298398 2.99896 0.251525 3.04239 0.218602 3.09615C0.185678 3.14991 0.167986 3.2119 0.16748 3.27526C0.432965 4.68139 0.686492 6.76742 1.10505 8.25153C2.20047 12.1507 2.61425 16.2204 3.36765 20.2048C3.37139 20.2271 3.37946 20.2485 3.39139 20.2676C3.40332 20.2867 3.41887 20.3032 3.43712 20.3162C3.45538 20.3291 3.47598 20.3382 3.49773 20.3429C3.51947 20.3476 3.54193 20.3479 3.56377 20.3437C3.58579 20.3396 3.60679 20.3311 3.62557 20.3187C3.64435 20.3063 3.66055 20.2903 3.67322 20.2715C3.68588 20.2527 3.69478 20.2315 3.6994 20.2092C3.70401 20.1869 3.70425 20.1639 3.7001 20.1414C3.1787 17.2171 2.7745 14.2684 2.1359 11.3684C1.56905 8.80959 1.10505 5.60743 0.655399 3.10711Z" fill="#6F3927"/>
<path fill-rule="evenodd" clip-rule="evenodd" d="M9.16988 3.95519C8.69153 3.97225 7.67025 5.59282 7.52913 6.19475C6.94315 8.65608 9.41862 10.0183 9.8898 9.85019C9.8898 9.69422 9.86827 9.23364 9.86827 9.1849C5.96253 7.9518 8.8733 4.29392 9.93046 4.42065C9.95437 4.22325 9.57648 3.943 9.16988 3.95519Z" fill="#3C3C3B"/>
<path fill-rule="evenodd" clip-rule="evenodd" d="M6.6061 2.85855C5.38631 4.25493 6.05361 5.72441 5.36239 7.60818C5.36239 7.71297 5.30499 8.05414 5.31455 8.21498C5.31455 8.29053 5.40783 8.29296 5.40783 8.27834C6.04404 7.43028 6.5487 3.12418 6.5487 3.23872C6.56066 3.03645 6.88354 2.54906 6.6061 2.85855Z" fill="#3C3C3B"/>
<path fill-rule="evenodd" clip-rule="evenodd" d="M5.92176 5.70735C6.46221 6.0452 7.08391 6.22401 7.71797 6.22399L7.5625 6.91608C6.96155 6.92454 6.37184 6.74971 5.86914 6.41407C5.88827 6.17768 5.90502 5.9413 5.92176 5.70735Z" fill="#3C3C3B"/>
<path fill-rule="evenodd" clip-rule="evenodd" d="M0.669624 4.5961L0.655273 4.62534L0.669624 4.5961Z" fill="#221F1F"/>
<path fill-rule="evenodd" clip-rule="evenodd" d="M0.148442 3.89426L0.52634 4.07947C0.643536 4.13552 0.569391 4.27443 0.449803 4.22569L0.0647305 4.07216C-0.0620325 4.02586 0.0264625 3.83821 0.148442 3.89426Z" fill="#F2B387"/>
<path fill-rule="evenodd" clip-rule="evenodd" d="M0.179309 4.10871L0.597866 4.31585C0.727021 4.37921 0.64331 4.5303 0.511763 4.47669L0.0860302 4.30854C-0.0479082 4.25249 0.0501537 4.04535 0.179309 4.10871Z" fill="#F2B387"/>
<path fill-rule="evenodd" clip-rule="evenodd" d="M0.239195 4.38165L0.593175 4.55468C0.700804 4.60586 0.631443 4.73501 0.521422 4.69115L0.160267 4.54737C0.0502458 4.5035 0.131565 4.32804 0.239195 4.38165Z" fill="#F2B387"/>
<path fill-rule="evenodd" clip-rule="evenodd" d="M0.267729 4.67165L0.595399 4.72527C0.693461 4.73989 0.667152 4.86174 0.566698 4.85199L0.243811 4.82518C0.148141 4.81787 0.169667 4.65703 0.267729 4.67165Z" fill="#F2B387"/>
<path fill-rule="evenodd" clip-rule="evenodd" d="M1.03813 4.27442C0.921294 4.15822 0.795745 4.05149 0.662622 3.95518C0.547817 3.87476 0.464106 3.8577 0.351694 3.77728C0.296683 3.8772 0.320601 3.97711 0.543034 4.1014C0.839612 4.34509 0.748725 4.63997 1.06444 4.63022C1.21033 4.62534 1.28448 4.55467 1.03813 4.27442Z" fill="#F2B387"/>
<path fill-rule="evenodd" clip-rule="evenodd" d="M9.19642 3.83821C8.71807 3.7651 7.58438 5.59282 7.44088 6.19474C6.85729 8.65607 9.04574 9.9111 9.89242 9.88186C9.89242 9.72346 9.8709 9.28724 9.8709 9.2385C5.91015 7.99322 8.80178 4.22081 9.92113 4.36459C9.93548 4.15745 9.60302 3.90157 9.19642 3.83821Z" fill="#706F6F"/>
<path fill-rule="evenodd" clip-rule="evenodd" d="M6.52486 2.85855C5.30029 4.25493 5.96758 5.72441 5.27637 7.60818C5.28833 7.76171 5.31464 8.26372 5.31464 8.21498C5.95323 7.36692 6.46268 3.12418 6.46029 3.23872C6.47464 3.03645 6.79513 2.54906 6.52486 2.85855Z" fill="#706F6F"/>
<path fill-rule="evenodd" clip-rule="evenodd" d="M5.80223 5.76097C6.34223 6.09988 6.96422 6.27878 7.59844 6.27761C7.54821 6.5213 7.50038 6.74063 7.45015 6.97214C6.84817 6.98006 6.25762 6.80438 5.75439 6.46769C5.77114 6.23374 5.78788 5.99736 5.80223 5.76097Z" fill="#706F6F"/>
<path fill-rule="evenodd" clip-rule="evenodd" d="M8.87805 3.64326C8.10363 3.25279 7.24404 3.07074 6.38105 3.11444C6.36812 3.70187 6.43084 4.28849 6.56761 4.8593C6.62023 4.9251 6.63458 4.99333 6.76134 4.99577C7.36736 4.40043 8.08816 3.93986 8.87805 3.64326Z" fill="#EDEDED"/>
<path fill-rule="evenodd" clip-rule="evenodd" d="M8.86854 2.23713L8.53369 2.21764L8.54326 2.17865L9.20578 2.05923L8.86854 2.23713Z" fill="#56321A"/>
<path fill-rule="evenodd" clip-rule="evenodd" d="M10.3325 2.822L10.6721 3.21922L10.9807 3.04864L11.0118 2.99746L10.6387 2.65141L10.3325 2.822Z" fill="#56321A"/>
<path fill-rule="evenodd" clip-rule="evenodd" d="M10.3848 2.78788L10.7053 3.16804L11.0114 2.99746L10.6885 2.6246L10.3848 2.78788Z" fill="#A25E33"/>
<path fill-rule="evenodd" clip-rule="evenodd" d="M8.87591 2.19814L8.54346 2.17865L8.86395 2.00075L9.21554 2.02024L8.87591 2.19814Z" fill="#A25E33"/>
<path fill-rule="evenodd" clip-rule="evenodd" d="M9.16782 2.05192L8.82101 2.23469C8.82101 2.16402 8.80905 2.0836 8.96452 1.96662C9.06477 1.88511 9.19031 1.84276 9.3185 1.84721C9.25631 1.91545 9.18934 1.91545 9.16782 2.05192Z" fill="#56321A"/>
<path fill-rule="evenodd" clip-rule="evenodd" d="M9.2129 2.05435L8.86131 2.23956C8.86131 2.16889 8.82782 2.09822 8.98807 1.99586C9.11756 1.92571 9.25382 1.86936 9.39467 1.82771C9.33009 1.88864 9.23681 1.91544 9.2129 2.05435Z" fill="#3C3C3B"/>
<path fill-rule="evenodd" clip-rule="evenodd" d="M10.6384 2.65872L10.3323 2.822C10.3184 2.66102 10.2667 2.50579 10.1816 2.36939C10.0966 2.23299 9.9806 2.11941 9.84347 2.0382C9.70634 1.957 9.55207 1.91054 9.39364 1.90275C9.23522 1.89496 9.07727 1.92606 8.93311 1.99343L9.26556 1.8131C9.55496 1.60108 10.6097 1.86915 10.6384 2.65872Z" fill="#56321A"/>
<path fill-rule="evenodd" clip-rule="evenodd" d="M10.6885 2.6246L10.3848 2.78788C10.3011 1.91545 9.32045 1.67175 8.99756 1.96175C9.12661 1.86543 9.26938 1.78982 9.4209 1.73755C9.75814 1.60108 10.6718 1.83503 10.6885 2.6246Z" fill="#A25E33"/>
<path fill-rule="evenodd" clip-rule="evenodd" d="M6.58442 4.78375C6.60833 5.15661 6.06541 4.02342 6.16825 3.5409C6.64182 1.3452 6.55093 4.26712 6.58442 4.78375Z" fill="#EF7D00"/>
<path fill-rule="evenodd" clip-rule="evenodd" d="M8.04101 2.36629L8.28019 3.50191C8.44283 3.83577 6.8834 4.5693 6.60596 4.02829L6.92645 2.72696L8.04101 2.36629Z" fill="#D39064"/>
<path fill-rule="evenodd" clip-rule="evenodd" d="M6.14909 0.89193C6.131 1.08393 6.09004 1.27296 6.02711 1.45487C5.93861 1.66688 6.2041 1.74243 5.99602 2.03974C5.97055 2.30366 5.99079 2.57009 6.05581 2.82687C6.05662 2.93584 6.08182 3.04318 6.12948 3.14073C6.17714 3.23828 6.24602 3.32347 6.33086 3.38981C6.69202 3.65544 7.09862 3.30208 7.47651 3.18267C7.85441 3.06326 7.71569 2.59049 7.83528 2.281C8.07445 1.72293 8.07445 0.952855 7.46695 0.682353C7.15151 0.542358 6.80054 0.50822 6.4648 0.584874C6.36674 0.618992 6.1467 0.696974 6.14909 0.89193Z" fill="#F2B387"/>
<path fill-rule="evenodd" clip-rule="evenodd" d="M7.35454 1.79361C7.45739 1.84722 7.48131 1.85941 7.50762 2.00075C7.53392 2.14209 7.61285 2.12991 7.58176 2.36629C7.58176 2.42234 7.97401 2.24932 8.08403 2.68066C8.56238 2.281 8.70349 1.05765 8.36865 0.731094C7.68221 0.755464 7.44304 0.75059 7.17277 1.12832C7.14918 1.24595 7.15336 1.36762 7.18496 1.48328C7.21657 1.59895 7.27469 1.70531 7.35454 1.79361Z" fill="#4F2B0C"/>
<path fill-rule="evenodd" clip-rule="evenodd" d="M7.20419 0.20958C6.214 0.348487 5.83132 0.767643 6.07528 1.0942C6.1853 1.23798 6.53928 1.31596 7.15396 1.21117C7.37161 0.90655 7.61079 0.765207 8.36897 0.7384C8.20634 0.160841 7.46011 0.170589 7.20419 0.20958Z" fill="#4F2B0C"/>
<path fill-rule="evenodd" clip-rule="evenodd" d="M8.07912 2.28586C7.99302 2.48569 7.8543 2.61729 7.7682 2.5783C7.68209 2.53931 7.65818 2.3346 7.74428 2.1299C7.83038 1.92519 7.98345 1.81553 8.07912 1.85452C8.17479 1.89351 8.16523 2.08603 8.07912 2.28586Z" fill="#F2B387"/>
<path fill-rule="evenodd" clip-rule="evenodd" d="M6.3262 2.57099C6.51936 2.65434 6.68822 2.78694 6.81651 2.95603C6.9672 3.19972 7.2566 2.99258 7.42163 2.74645C7.51025 2.59769 7.56728 2.43166 7.58905 2.25906L7.71342 2.18108C7.778 2.54418 7.85932 2.80981 7.78278 2.97796C7.78668 3.15811 7.74761 3.33653 7.66893 3.49791C7.59026 3.65929 7.47433 3.79881 7.33109 3.90449C7.18785 4.01018 7.02158 4.07887 6.84656 4.10468C6.67153 4.13049 6.49297 4.11264 6.3262 4.05266V2.97065C6.37404 3.01695 6.43383 3.09006 6.44101 3.09737C6.54385 3.16561 6.60843 3.06813 6.51515 2.99746L6.3262 2.85124V2.57099ZM6.01049 2.62948C6.02552 2.58917 6.05558 2.55656 6.09411 2.53876C6.13265 2.52095 6.17653 2.5194 6.21618 2.53444C6.25387 2.5432 6.29069 2.55544 6.3262 2.57099V2.85124L6.24728 2.79032C6.0942 2.82443 6.03202 2.90729 6.154 2.9609C6.16686 2.96706 6.18057 2.97117 6.19466 2.97309C6.22097 2.97309 6.23053 2.97309 6.25445 2.9341C6.27837 2.8951 6.29272 2.9341 6.3262 2.97065V4.05997C6.27611 4.04157 6.22736 4.01958 6.18031 3.99417C6.07116 3.93476 5.9803 3.84569 5.91781 3.73686C5.85533 3.62803 5.82366 3.50368 5.82633 3.37762V3.29477C5.83728 3.06162 5.90027 2.83409 6.01049 2.62948Z" fill="#4F2B0C"/>
<path fill-rule="evenodd" clip-rule="evenodd" d="M6.75183 5.01038C7.05797 5.01038 7.65352 3.7919 9.49517 4.05997C10.0812 4.1477 10.4686 3.61888 9.97352 3.49947C8.20602 3.08762 6.50309 5.01769 6.75183 5.01038Z" fill="#EF7D00"/>
<path fill-rule="evenodd" clip-rule="evenodd" d="M6.02979 0.716473C6.38377 -0.116966 7.53659 -0.155958 8.15127 0.253451C8.76595 0.66286 8.62962 1.3647 8.56266 1.91058C7.75663 1.50361 6.84537 1.12101 6.02979 0.716473Z" fill="#6666CC"/>
<path fill-rule="evenodd" clip-rule="evenodd" d="M6.02726 1.45486C6.98396 1.57671 7.87131 2.03486 8.21572 2.53931C8.35444 2.71233 8.76821 2.13478 8.56252 1.91058C7.91897 1.2012 7.04066 0.759391 6.09662 0.670164C5.68046 0.616551 5.75221 1.46461 6.02726 1.45486Z" fill="#6699FF"/>
</g>
<defs>
<clipPath id="clip0_1232_3125">
<rect width="12.65" height="23" fill="white"/>
</clipPath>
</defs>
</svg>
