<svg width="28" height="28" viewBox="0 0 28 28" fill="none" xmlns="http://www.w3.org/2000/svg">
<path d="M4.66609 23.6144L5.06604 23.6202C5.06779 23.4999 5.0496 23.3757 4.99387 23.2536C4.93855 23.1325 4.85776 23.0388 4.77112 22.9627C2.48879 20.9522 1.0851 18.4503 0.575981 15.4618L0.575979 15.4618C0.0722858 12.5056 0.664822 9.72255 2.16315 7.13617C4.08762 3.81457 6.9428 1.69708 10.6852 0.778368C12.359 0.367784 14.0683 0.309147 15.7873 0.517979L15.7873 0.517981C19.9238 1.02041 23.1391 3.02498 25.4595 6.47018L25.7913 6.24673L25.4595 6.47019C26.7225 8.34527 27.443 10.4286 27.5767 12.6827C27.7724 15.981 26.7297 18.9011 24.6685 21.4747L24.6685 21.4748C22.7433 23.8788 20.2573 25.4293 17.2486 26.1044C14.5454 26.7104 11.8748 26.5396 9.25658 25.6129L9.25595 25.6127C9.11321 25.5625 8.95757 25.5296 8.78834 25.5461C8.61712 25.5628 8.46677 25.6266 8.32873 25.7152L8.32859 25.7152C7.75694 26.0824 7.18319 26.439 6.60656 26.7974C6.25608 27.0153 5.90453 27.2338 5.55174 27.4557C5.42181 27.5374 5.34841 27.5776 5.28713 27.594C5.26254 27.6005 5.2466 27.601 5.23477 27.5997C5.22352 27.5985 5.20387 27.5945 5.17298 27.5774C5.12093 27.5485 5.10366 27.5213 5.09038 27.4816C5.0706 27.4226 5.06281 27.3384 5.0628 27.1947C5.06362 26.7572 5.06352 26.3193 5.06342 25.882C5.06338 25.7364 5.06335 25.5909 5.06335 25.4454C5.06335 25.2853 5.06302 25.1218 5.06269 24.9563C5.06181 24.5153 5.06091 24.0604 5.06606 23.619L4.66609 23.6144ZM4.66609 23.6144C4.6609 24.0587 4.66182 24.5178 4.66269 24.9597C4.66302 25.1246 4.66335 25.287 4.66335 25.4454C4.66335 25.5911 4.66338 25.7368 4.66342 25.8825C4.66352 26.3198 4.66362 26.7573 4.6628 27.1945L0.181662 15.529C0.706342 18.6088 2.1566 21.1928 4.50726 23.2633C4.62063 23.3629 4.66828 23.464 4.66609 23.6144Z" stroke="black" stroke-width="0.8"/>
<path d="M14.3552 12.5356C14.5978 12.5356 14.7892 12.6196 14.9292 12.7876C15.0692 12.9556 15.1392 13.1889 15.1392 13.4876C15.1392 13.5623 15.1345 13.6416 15.1252 13.7256C15.1158 13.8003 15.1018 13.8656 15.0832 13.9216C14.8872 13.8749 14.6725 13.8469 14.4392 13.8376C14.3832 14.2483 14.2338 14.6823 13.9912 15.1396C13.7485 15.5876 13.4545 16.0123 13.1092 16.4136C12.7638 16.8056 12.3858 17.1509 11.9752 17.4496C11.5645 17.7483 11.1585 17.9489 10.7572 18.0516C9.50651 18.0236 8.59185 17.6969 8.01318 17.0716C7.44385 16.4556 7.15918 15.4896 7.15918 14.1736C7.15918 13.2123 7.33651 12.2836 7.69118 11.3876C8.04585 10.4823 8.51718 9.67961 9.10518 8.97961C9.69318 8.27961 10.3652 7.71961 11.1212 7.29961C11.8865 6.87028 12.6798 6.65561 13.5012 6.65561C14.1452 6.65561 14.6445 6.79094 14.9992 7.06161C15.3632 7.33228 15.5452 7.71494 15.5452 8.20961C15.5452 8.53628 15.4658 8.83961 15.3072 9.11961C15.1578 9.39961 14.9058 9.70294 14.5512 10.0296C14.3365 9.96428 14.1498 9.85228 13.9912 9.69361C13.8325 9.52561 13.7345 9.33428 13.6972 9.11961C14.0145 8.88628 14.2385 8.67161 14.3692 8.47561C14.4998 8.27961 14.5652 8.04628 14.5652 7.77561C14.5652 7.34628 14.3085 7.13161 13.7952 7.13161C13.3752 7.13161 12.9225 7.29028 12.4372 7.60761C11.9612 7.91561 11.4805 8.36361 10.9952 8.95161C10.3045 9.78228 9.80051 10.6409 9.48318 11.5276C9.16585 12.4049 9.00718 13.3943 9.00718 14.4956C9.00718 14.9063 9.04918 15.2796 9.13318 15.6156C9.21718 15.9516 9.32918 16.2456 9.46918 16.4976C9.60918 16.7496 9.77251 16.9503 9.95918 17.0996C10.1552 17.2489 10.3652 17.3329 10.5892 17.3516C10.8878 17.2863 11.1865 17.1369 11.4852 16.9036C11.7838 16.6609 12.0545 16.3809 12.2972 16.0636C12.5492 15.7369 12.7592 15.3916 12.9272 15.0276C13.1045 14.6543 13.2118 14.2996 13.2492 13.9636C12.9878 14.0196 12.7358 14.0756 12.4932 14.1316C12.2598 14.1783 12.0358 14.2016 11.8212 14.2016C11.5412 14.2016 11.2938 14.1316 11.0792 13.9916C10.8738 13.8516 10.7338 13.6603 10.6592 13.4176C10.8272 13.3243 11.0698 13.2263 11.3872 13.1236C11.7138 13.0209 12.0592 12.9276 12.4232 12.8436C12.7872 12.7503 13.1418 12.6756 13.4872 12.6196C13.8418 12.5636 14.1312 12.5356 14.3552 12.5356ZM17.3006 17.4776C16.7686 17.4216 16.344 17.1883 16.0266 16.7776C15.7093 16.3669 15.5506 15.8443 15.5506 15.2096C15.5506 14.8363 15.6066 14.4489 15.7186 14.0476C15.8306 13.6463 15.9893 13.2589 16.1946 12.8856C16.4 12.5029 16.6426 12.1436 16.9226 11.8076C17.2026 11.4716 17.506 11.1823 17.8326 10.9396C18.346 10.5569 18.8266 10.3656 19.2746 10.3656C19.5733 10.5243 19.8673 10.8556 20.1566 11.3596C20.2033 11.3596 20.2453 11.3596 20.2826 11.3596C20.32 11.3503 20.362 11.3456 20.4086 11.3456C20.9033 11.3456 21.1506 11.7843 21.1506 12.6616C21.1506 13.2496 21.0526 13.8096 20.8566 14.3416C20.67 14.8643 20.404 15.3403 20.0586 15.7696C19.7226 16.1989 19.3166 16.5629 18.8406 16.8616C18.374 17.1509 17.8606 17.3563 17.3006 17.4776ZM18.0146 13.0676C17.856 13.2823 17.7066 13.5156 17.5666 13.7676C17.4266 14.0196 17.3053 14.2763 17.2026 14.5376C17.1 14.7896 17.0206 15.0369 16.9646 15.2796C16.9086 15.5129 16.8806 15.7229 16.8806 15.9096C16.8806 16.1336 16.918 16.3483 16.9926 16.5536C17.0673 16.7589 17.1513 16.8756 17.2446 16.9036C17.6646 16.8103 18.0473 16.6376 18.3926 16.3856C18.7473 16.1243 19.0506 15.8023 19.3026 15.4196C19.564 15.0369 19.7646 14.6029 19.9046 14.1176C20.054 13.6323 20.1286 13.1143 20.1286 12.5636C20.1286 12.3209 20.1146 12.1296 20.0866 11.9896C20.0586 11.8496 20.012 11.7283 19.9466 11.6256C19.536 11.7469 19.1673 11.9429 18.8406 12.2136C18.5233 12.4843 18.248 12.7689 18.0146 13.0676Z" fill="black"/>
</svg>
