<svg width="50" height="50" viewBox="0 0 50 50" fill="none" xmlns="http://www.w3.org/2000/svg">
<path d="M37.5961 37.6005C44.3533 30.8433 44.3533 19.8877 37.5961 13.1305C30.8389 6.37327 19.8833 6.37327 13.1261 13.1305C6.36891 19.8877 6.36891 30.8433 13.1261 37.6005C19.8833 44.3577 30.8389 44.3577 37.5961 37.6005Z" stroke="black" stroke-width="0.8" stroke-miterlimit="10"/>
<path d="M27.8405 11.976C27.8405 11.976 27.7744 11.3333 27.1068 10.9209C26.438 10.5085 24.7472 10.1706 24.5865 11.065C24.4258 11.9595 23.7488 11.3876 23.7488 11.3876C23.7488 11.3876 24.1564 11.1927 24.2273 10.6976C24.2982 10.2013 22.9701 9.97918 22.9382 10.4175C22.9063 10.8559 23.2253 11.0603 22.8673 11.1348C22.5093 11.2092 22.1761 11.3203 21.7294 11.351C21.2828 11.3817 21.2344 10.837 21.2344 10.837C21.2344 10.837 21.5758 10.8854 22.0674 10.7673C22.5589 10.6479 22.8472 10.1836 22.3025 10.0099C21.7578 9.83621 22.338 10.4258 21.1292 10.2521C21.1292 10.2521 20.9792 10.199 20.8456 9.79958C20.7133 9.40139 19.6014 9.20998 19.2033 9.56327C18.8039 9.91774 19.0166 10.2013 19.3486 10.3124C19.6806 10.4234 19.2068 10.6397 19.729 10.7472C20.2513 10.8547 20.464 10.9162 20.3175 11.0532C20.171 11.1903 17.5585 10.4353 17.6129 9.84212C17.6129 9.84212 12.3667 12.2206 10.2729 17.1076C10.2729 17.1076 10.3261 17.3994 10.6629 17.4798C10.9996 17.5601 11.2158 17.5908 11.0918 18.2372C10.9677 18.8835 10.7716 20.247 11.6341 20.403C12.4978 20.559 12.0642 19.8323 11.861 19.4861C11.6577 19.1399 11.5254 18.0777 12.0264 18.3388C12.5262 18.5999 11.7913 18.6531 12.5392 20.058C13.286 21.4629 12.1304 21.3601 13.0284 22.375C13.9264 23.39 14.4273 22.323 14.7239 22.6822C15.0205 23.0414 14.7369 23.2541 15.3253 23.338C15.9138 23.4231 15.6668 23.1655 15.9315 23.7421C16.1962 24.3187 16.3817 25.4518 18.1186 25.0371C18.1186 25.0371 18.4057 25.6799 18.1221 26.1135C17.8385 26.5471 16.9878 26.52 16.8897 27.4239C16.7917 28.3278 16.9949 28.6728 17.4061 29.3333C17.8173 29.9938 17.5065 30.392 17.9673 30.711C18.4281 31.03 19.5081 31.2167 19.2954 32.0403C19.0827 32.8638 18.7046 34.3916 18.9031 34.7685C19.1016 35.1454 18.85 35.1407 18.7826 35.6051C18.7153 36.0706 19.3758 36.5444 19.3214 37.1376C19.2682 37.7307 18.6786 38.3109 19.0626 38.9359C19.4478 39.561 19.5447 39.3211 19.7172 39.8847C19.8897 40.4471 20.0138 40.687 20.3187 40.7626C20.6247 40.8382 21.1198 40.9091 21.3017 41.1892C21.4825 41.468 21.935 40.9635 21.6302 40.6669C21.3254 40.3703 20.9307 40.4719 21.0465 39.8871C21.1623 39.3022 21.5038 39.1297 21.0382 38.8414C20.5727 38.5531 20.653 38.2163 20.8445 38.2128C21.0347 38.2081 21.473 38.019 21.1056 37.713C20.7381 37.407 20.6235 37.3278 20.9071 37.3361C21.1907 37.3455 22.0674 37.6291 22.8389 36.8859C23.6105 36.1427 24.3065 35.2612 24.3065 35.2612C24.3065 35.2612 24.5369 34.7567 24.453 34.238C24.3691 33.7193 24.7684 33.5869 25.4538 33.6543C26.1402 33.7216 26.0611 33.3932 26.0611 33.3932C26.0611 33.3932 26.6672 34.0182 26.8728 31.4849C26.8728 31.4849 26.8374 31.069 27.6172 30.7063C28.397 30.3435 27.7377 29.4266 27.2946 29.4266C27.2946 29.4266 27.1221 28.8642 26.7547 28.7791C26.3872 28.6952 25.5495 28.7957 25.2092 28.5251C24.8689 28.2545 24.3951 28.0288 24.3951 28.0288C24.3951 28.0288 24.8133 26.2222 23.041 26.221C23.041 26.221 22.7858 24.9189 21.8949 24.9485C21.0051 24.9792 20.8988 25.0584 20.77 24.8504C20.6412 24.6425 20.4746 23.8272 19.8496 23.9902C19.2245 24.1533 19.078 24.9556 18.4719 24.7724C17.8657 24.5905 17.0989 24.6389 17.2808 24.0316C17.4628 23.4254 17.5656 22.7118 16.618 22.7023C16.618 22.7023 16.3793 22.6042 16.7728 22.2817C17.1674 21.9591 16.9866 21.4581 16.7598 21.4888C16.5341 21.5196 15.8653 21.9934 15.5463 22.0099C15.2273 22.0276 14.2088 21.8492 14.7676 20.6015C15.3265 19.3526 18.0016 19.2309 18.1966 19.8606C18.3903 20.4892 18.1647 20.7421 18.7897 20.8C19.4136 20.8579 19.2245 19.7555 19.2245 19.7555L20.926 18.7027C20.926 18.7027 21.1032 18.5704 21.2273 18.366C21.3513 18.1627 23.425 17.1631 23.8728 16.4684C24.3206 15.7736 24.4719 15.3837 25.0603 15.6897C25.6487 15.9957 25.8921 16.0619 26.0434 15.6732C26.1946 15.2832 26.9685 16.2805 27.2828 15.8516C27.5971 15.4227 27.4518 14.8957 26.8007 14.8012C26.1497 14.7066 27.0004 14.071 26.7393 13.9067C26.4782 13.7425 25.9866 14.3049 25.7338 14.078C25.4821 13.8524 26.0138 13.0111 25.1631 12.9839C24.3124 12.9567 24.206 13.0359 23.9449 13.9788C23.6826 14.9217 23.3116 13.9823 22.6428 14.6771C21.974 15.3719 22.1288 14.9512 22.0626 14.5306C21.9965 14.1099 21.5357 13.7909 21.0666 13.7543C20.5975 13.7188 20.7842 12.8598 21.4754 12.6743C22.1666 12.4888 23.0032 12.1663 23.0032 12.1663C23.0032 12.1663 23.0776 12.7464 23.5739 12.5964C24.0701 12.4463 24.2391 11.9323 24.2391 11.9323L24.7354 12.0032C24.7354 12.0032 25.0721 11.6405 25.1702 11.6227C25.2671 11.605 26.2856 11.7834 26.2856 11.7834C26.2856 11.7834 26.861 11.7397 26.3163 12.0091C25.7716 12.2785 25.4396 11.9465 25.5589 12.438C25.6783 12.9296 25.7184 12.6507 26.0812 12.9875C26.4439 13.3242 27.0241 13.2498 27.1529 12.7937C27.1529 12.7937 27.9008 13.0914 28.065 12.6082C28.2293 12.1261 27.8393 11.9748 27.8393 11.9748L27.8405 11.976Z" fill="black"/>
<path d="M23.8636 17.1939C24.0798 17.4467 24.6694 17.3096 24.1165 16.7555C24.1165 16.7555 23.6474 16.941 23.8636 17.1939Z" fill="black"/>
<path d="M25.1172 16.3927C25.2767 16.1623 24.8076 15.9047 24.8076 15.9047C24.8076 15.9047 24.5335 15.8338 24.4886 16.1434C24.4437 16.4529 24.9577 16.6219 25.1172 16.3915V16.3927Z" fill="black"/>
<path d="M25.285 17.2081C25.285 17.2081 26.2019 16.9918 25.578 16.4908C25.578 16.4908 25.3476 16.7744 25.09 16.8004C24.8336 16.8264 24.4969 16.7472 24.6824 17.2163C24.8679 17.6854 25.285 17.2081 25.285 17.2081Z" fill="black"/>
<path d="M26.5609 16.0312C26.5609 16.0312 25.7504 15.9461 26.1048 16.5664C26.1048 16.5664 26.34 16.6952 26.5609 16.9162C26.7819 17.1383 27.3396 17.2175 27.3892 16.8772C27.4376 16.5357 27.3053 16.1375 26.5621 16.0312H26.5609Z" fill="black"/>
<path d="M42.5428 23.0414C42.5428 23.0414 40.9701 23.195 40.8153 22.7295C40.6605 22.2639 40.1466 22.0961 39.1103 22.2627C38.0741 22.4305 38.4817 22.0146 38.1225 21.8681C37.7645 21.7216 37.3746 21.7925 37.3746 21.7925C37.3746 21.7925 38.4345 19.9197 34.7799 20.6924C34.7799 20.6924 33.3277 20.2304 32.848 21.1426C32.3695 22.0548 32.5727 22.1788 31.221 22.5546C29.8704 22.9303 30.8925 23.7409 30.8925 23.7409C30.8925 23.7409 31.3261 24.0245 30.8074 24.3293C30.2887 24.6341 30.0666 25.5203 30.3053 26.0603C30.5439 26.6003 31.2564 27.8102 31.761 28.0406C32.2655 28.271 33.7271 28.4494 34.0331 28.082C34.3391 27.7145 34.6003 27.6578 34.9902 28.03C35.3801 28.4022 36.6775 28.1777 36.531 28.5357C36.3844 28.8937 35.7015 29.6818 36.2285 30.6436C36.7543 31.6054 37.1217 32.3533 36.5097 32.8673C35.8976 33.3801 35.9283 34.0489 36.4778 34.6338C36.4778 34.6338 36.0477 35.8685 36.4459 36.4002C36.8441 36.9319 36.772 37.6491 36.6267 38.0083C36.4801 38.3675 36.6349 38.1678 36.6349 38.1678C36.6349 38.1678 36.5239 38.7208 36.8204 38.416C37.117 38.1111 43.6369 32.3722 42.5416 23.0402L42.5428 23.0414Z" fill="black"/>
<path d="M35.1533 20.3038C36.004 20.11 36.4341 19.0962 36.4341 19.0962C36.4341 19.0962 37.2884 19.5357 37.6216 18.9816C37.6216 18.9816 37.9796 20.0143 38.4971 20.1513C38.4971 20.1513 38.0103 20.24 38.0978 20.7268C38.1864 21.2136 39.6125 20.9761 39.303 20.0462C38.9934 19.1163 37.5495 19.2569 38.4144 18.7476C39.2781 18.2396 39.6716 19.687 39.6799 20.0686C39.6881 20.4491 39.3691 21.353 40.1135 21.0162C40.8579 20.6807 40.6996 19.5818 40.9335 20.1537C41.1675 20.7256 40.7291 21.3577 41.4156 21.4251C42.1021 21.4924 42.2841 21.5503 42.2841 21.5503C42.2841 21.5503 41.1049 16.9835 38.5751 14.1206C38.5751 14.1206 38.5574 14.4656 37.9193 14.5011C37.2813 14.5365 36.8866 15.3022 37.325 15.776C37.7634 16.2498 38.4321 15.9981 38.4144 16.3443C38.3967 16.6893 38.2762 16.8618 37.7716 16.6314C37.2671 16.401 36.9434 16.4495 36.8146 16.9056C36.6858 17.3617 36.4778 17.7114 36.1234 17.5342C35.7689 17.3569 34.9359 17.6488 35.3341 18.4014C35.3341 18.4014 35.5243 19.0619 35.0729 18.9012C34.6216 18.7417 33.4483 18.3199 33.3857 19.4176C33.323 20.5164 34.3061 20.4987 35.1568 20.3049L35.1533 20.3038Z" fill="black"/>
<path d="M35.1179 16.1541C35.4192 16.2604 35.405 16.5747 35.2018 16.6728C34.9986 16.7697 34.5992 17.1241 34.9927 17.2435C35.3861 17.3628 36.3385 17.5637 36.3255 16.9918C36.3125 16.4199 35.8788 16.3585 35.8788 16.3585C35.8788 16.3585 35.4452 15.8528 35.7595 15.4239C35.7595 15.4239 35.7867 15.0162 35.3129 15.0115C34.8391 15.0068 34.8521 15.7996 34.754 15.8173C34.6571 15.835 34.2176 15.8031 34.2176 15.8031C34.2176 15.8031 33.5003 16.1742 34.0793 16.7638C34.6595 17.3534 34.8154 16.0466 35.1167 16.1529L35.1179 16.1541Z" fill="black"/>
<path d="M29.2645 26.9904C29.1519 27.1257 28.9666 27.0754 28.8902 26.8976C28.7898 26.6631 28.7029 26.4232 28.6106 26.1857C28.1186 24.9173 27.6272 23.6489 27.1352 22.3806C27.1131 22.3227 27.0867 22.2664 27.0551 22.1927C26.6926 22.6043 26.3441 23.0019 25.9941 23.3978C25.797 23.6213 25.6011 23.8462 25.3969 24.0636C25.3084 24.1579 25.2931 24.2396 25.3419 24.364C25.5352 24.8591 25.7095 25.3614 25.9034 25.8564C25.9671 26.0191 25.9564 26.1428 25.8503 26.2865C25.5589 26.6803 25.4994 26.8555 25.0681 26.3223C24.7656 25.9486 24.4229 25.6074 24.1197 25.2338C23.9757 25.0562 23.79 24.9738 23.5963 24.8888C23.1097 24.6759 22.6223 24.4649 22.136 24.2517C21.9193 24.1562 21.9016 24.0403 22.0181 23.8318C22.1963 23.5136 22.4277 23.3796 22.8096 23.431C23.2572 23.4913 23.7149 23.4757 24.1673 23.5057C24.2992 23.5144 24.372 23.4768 24.4381 23.364C24.8543 22.6537 25.2775 21.9474 25.7048 21.2282C25.6283 21.1813 25.5479 21.1975 25.4727 21.1928C23.9238 21.0966 22.3751 21.0022 20.8266 20.9084C20.6926 20.9003 20.545 20.9176 20.4708 20.7721C20.389 20.6119 20.5143 20.5076 20.5939 20.3936C20.6468 20.3182 20.7049 20.246 20.7565 20.1696C20.9643 19.8636 21.2535 19.6995 21.6178 19.6435C23.4773 19.3566 25.3354 19.0629 27.1951 18.7778C27.3607 18.7526 27.4749 18.6945 27.5735 18.5531C27.8734 18.1217 28.1946 17.7052 28.4986 17.2762C28.7392 16.936 29.053 16.6943 29.4313 16.5282C29.9268 16.3108 30.4451 16.6874 30.3907 17.2276C30.3505 17.6307 30.2207 17.999 29.9757 18.327C29.6482 18.7652 29.333 19.2124 29.0039 19.649C28.9195 19.761 28.9002 19.8647 28.9218 20.0004C29.2119 21.8447 29.4809 23.6926 29.7933 25.5332C29.8975 26.148 29.6133 26.5709 29.2645 26.9904Z" fill="black"/>
</svg>
