<svg width="26" height="28" viewBox="0 0 26 28" fill="none" xmlns="http://www.w3.org/2000/svg">
<path d="M25.6457 12.1123C21.6664 8.18737 17.6861 4.26241 13.7041 0.340166C13.2462 -0.110504 12.7554 -0.113755 12.3013 0.333666C8.3124 4.26187 4.32672 8.19332 0.339458 12.1232C0.0301327 12.4281 -0.0929606 12.7862 0.0762927 13.2011C0.244485 13.6133 0.574502 13.7845 1.00639 13.7769C1.41281 13.7698 1.82082 13.7942 2.22618 13.7688C2.48457 13.753 2.52436 13.8522 2.5233 14.0867C2.51534 16.1895 2.51853 18.2923 2.51853 20.3945C2.51853 22.4967 2.518 24.5453 2.51906 26.621C2.51906 27.382 2.86287 27.7325 3.6009 27.7325C5.60753 27.7331 7.61416 27.7331 9.6208 27.7325C10.3832 27.7325 10.7196 27.3907 10.7196 26.6145C10.7196 24.2859 10.7228 21.9577 10.7143 19.6296C10.7132 19.4021 10.7737 19.3501 10.9918 19.3518C12.3267 19.3631 13.6617 19.3642 14.996 19.3512C15.2311 19.3491 15.2852 19.4092 15.2841 19.647C15.2746 21.9837 15.2778 24.3211 15.2788 26.6584C15.2788 27.3761 15.6311 27.7314 16.3405 27.7325C16.9151 27.7336 17.4897 27.7331 18.0644 27.7331C19.5319 27.7331 20.999 27.7341 22.4665 27.732C23.0937 27.7314 23.4545 27.3745 23.4783 26.7391C23.4821 26.64 23.4794 26.5408 23.4794 26.4417C23.4794 22.3174 23.481 18.1937 23.4741 14.0699C23.4741 13.837 23.5197 13.7552 23.7622 13.7693C24.1676 13.7926 24.575 13.7688 24.982 13.7774C25.4133 13.7861 25.7391 13.6165 25.92 13.2108C26.0877 12.8344 25.9895 12.4514 25.6457 12.1123ZM25.0266 12.8457C24.5729 12.8457 24.1193 12.8452 23.6651 12.8457C22.9106 12.8463 22.5636 13.1989 22.5636 13.9708C22.5631 18.1487 22.561 22.3266 22.5689 26.504C22.5695 26.751 22.5095 26.8133 22.267 26.8122C20.3405 26.8014 18.4135 26.8019 16.4864 26.8111C16.2562 26.8122 16.1776 26.7683 16.1792 26.51C16.1904 24.1911 16.1856 21.8722 16.1856 19.5527C16.1856 18.7743 15.8481 18.4266 15.0921 18.426C13.6951 18.426 12.2986 18.426 10.9021 18.426C10.1577 18.4266 9.81286 18.7765 9.81233 19.53C9.8118 21.8673 9.80968 24.2041 9.81658 26.5414C9.81711 26.7456 9.77678 26.8128 9.56031 26.8117C7.60727 26.8019 5.65369 26.8019 3.70012 26.8117C3.47409 26.8128 3.42899 26.7461 3.42952 26.5273C3.43642 22.3494 3.4343 18.1715 3.43483 13.9935C3.43536 13.7292 3.4205 13.4692 3.2608 13.245C3.06396 12.9671 2.79018 12.8468 2.46122 12.8463C1.96832 12.8447 1.47595 12.8457 0.917253 12.8457C1.53696 12.2353 2.10839 11.6719 2.67982 11.1086C6.05693 7.78111 9.43456 4.45416 12.8085 1.12342C12.9438 0.989631 13.0197 0.951172 13.1799 1.10988C17.0801 4.96279 20.9862 8.80866 24.8918 12.6551C24.9411 12.7033 25.0016 12.739 25.0568 12.7807C25.0467 12.8024 25.0366 12.8241 25.0266 12.8457Z" fill="black"/>
</svg>
