<svg width="33" height="35" viewBox="0 0 33 35" fill="none" xmlns="http://www.w3.org/2000/svg">
<path d="M28.4569 34.596C28.0963 35.0293 27.5028 34.868 27.2581 34.2985C26.9365 33.5477 26.6581 32.7793 26.3623 32.0186C24.7866 27.9564 23.2128 23.8938 21.6371 19.8316C21.5664 19.6463 21.4817 19.4661 21.3806 19.2298C20.2196 20.5482 19.1034 21.8214 17.9825 23.0896C17.3512 23.8055 16.7235 24.5258 16.0696 25.2218C15.7864 25.5239 15.7371 25.7856 15.8937 26.1842C16.5128 27.7698 17.071 29.3786 17.692 30.9639C17.8959 31.485 17.8617 31.8811 17.5219 32.3415C16.5884 33.6028 16.3981 34.164 15.0167 32.4561C14.0476 31.2592 12.9502 30.1664 11.9792 28.9698C11.5178 28.401 10.9231 28.1373 10.3026 27.8648C8.74434 27.183 7.18317 26.5074 5.62574 25.8244C4.93167 25.5185 4.87506 25.1473 5.24812 24.4795C5.81869 23.4604 6.55988 23.0311 7.78294 23.1958C9.21656 23.3892 10.6827 23.3391 12.1315 23.4353C12.5539 23.4632 12.7873 23.3427 12.9988 22.9814C14.3318 20.7062 15.6873 18.4441 17.0559 16.1409C16.8108 15.9906 16.5532 16.0425 16.3125 16.0273C11.3516 15.7193 6.39156 15.417 1.43182 15.1166C1.00291 15.0907 0.52994 15.146 0.292565 14.6799C0.0303285 14.167 0.431698 13.8327 0.686645 13.4676C0.85627 13.2262 1.04212 12.995 1.20734 12.7504C1.87284 11.7702 2.79932 11.2446 3.96611 11.0654C9.92152 10.1465 15.8726 9.20586 21.8289 8.29272C22.3594 8.21185 22.7252 8.02581 23.0407 7.57308C24.0014 6.19124 25.0301 4.8574 26.0037 3.48331C26.7744 2.39392 27.7795 1.61962 28.9912 1.08758C30.5779 0.391504 32.238 1.59774 32.0638 3.32767C31.935 4.61874 31.5192 5.7983 30.7347 6.84882C29.6856 8.25228 28.6761 9.68473 27.6223 11.0831C27.3517 11.4418 27.2899 11.7738 27.3593 12.2085C28.2883 18.1154 29.1498 24.0339 30.1503 29.9287C30.4841 31.8978 29.5739 33.2522 28.4569 34.596Z" fill="black"/>
</svg>
