<svg width="24" height="21" viewBox="0 0 24 21" fill="none" xmlns="http://www.w3.org/2000/svg">
<g clip-path="url(#clip0_1232_4749)">
<path d="M7.39179 6.43423L6.74121 6.61836V6.81067C6.99566 6.75118 7.24637 6.67672 7.49204 6.58767C7.53837 6.5577 7.58863 6.53429 7.64139 6.51811L7.39179 6.43423Z" fill="#3F2B2B"/>
<path d="M1.38086 4.76073C1.38086 4.76073 3.08711 4.24927 4.43738 4.76073C6.12317 5.40109 6.85149 6.74113 7.26067 7.32011C7.66984 7.89909 4.42919 6.19693 4.42919 6.19693L1.73684 5.39291L1.38086 4.76073Z" fill="#967E7C"/>
<path d="M18.0281 9.73627C18.0281 9.73627 18.9815 9.01203 19.7917 9.58487C20.3256 9.96336 20.4668 10.8124 20.4177 12.6393C20.3686 14.4663 21.8662 15.8923 23.1694 15.1435C22.9183 14.9717 22.7386 14.7142 22.6641 14.4192C22.6641 14.4192 23.4354 14.54 23.8466 13.961C23.9491 13.8047 23.9995 13.62 23.9907 13.4334C23.9819 13.2467 23.9142 13.0676 23.7975 12.9217C23.7975 12.9217 23.3392 13.9446 22.6395 13.1856C22.4349 12.981 22.5434 11.3259 22.3019 9.92653C22.0605 8.52716 21.1092 7.83362 19.5503 8.19778C18.8295 8.36142 18.1825 8.75752 17.709 9.32505L18.0281 9.73627Z" fill="#876D6C"/>
<path d="M18.2308 18.2573C18.3834 18.4686 18.5785 18.6456 18.8037 18.7769C18.7192 17.8681 18.5639 16.9672 18.3393 16.0825C18.1817 15.5506 17.4902 14.7322 17.6028 14.3231C18.0119 12.8255 18.3393 11.5121 18.3393 11.5121L13.5479 12.2772C13.5479 12.2772 14.6097 14.7077 15.2521 15.2642C15.8945 15.8206 17.0545 16.3628 17.2488 16.6819C17.3553 16.9448 17.4295 17.2196 17.4698 17.5003C17.7549 17.7189 18.0107 17.9733 18.2308 18.2573Z" fill="#876D6C"/>
<path d="M17.6332 19.3538C17.0542 20.2274 17.0542 20.7491 17.0542 20.7491H18.1815C18.1815 20.7491 18.0812 20.1026 18.4065 19.986C18.7318 19.8694 18.9221 19.7282 18.8566 19.2638C18.8464 19.184 18.828 19.006 18.8034 18.7667C18.5783 18.6354 18.3831 18.4583 18.2306 18.247C18.011 17.9602 17.7552 17.703 17.4695 17.4819C17.6107 18.2388 17.7212 19.2331 17.6332 19.3538Z" fill="#E0C7C3"/>
<path d="M7.92358 13.1856L6.6265 12.2936C6.6265 12.2936 6.37077 14.3722 5.79588 14.9839C5.32124 15.4872 5.20668 16.5244 4.97754 17.3816C5.0556 17.6058 5.09368 17.8419 5.09006 18.0793C5.09504 18.3055 5.16616 18.5252 5.29465 18.7114C5.52174 18.024 5.90841 17.042 6.05366 16.6656C6.25007 16.1643 7.92358 13.1856 7.92358 13.1856Z" fill="#876D6C"/>
<path d="M4.97751 17.3919C4.93238 17.5675 4.87705 17.7403 4.8118 17.9095C4.5408 18.5906 4.10579 19.1943 3.54541 19.6669C3.13623 19.9819 2.81299 20.7696 2.81299 20.7696H4.02823C4.02823 20.7696 4.04869 20.1354 4.4374 20.0556C4.62062 20.0198 4.78764 19.9265 4.91421 19.7892C5.04077 19.652 5.12028 19.478 5.14118 19.2925C5.18249 19.0991 5.23579 18.9085 5.30076 18.7217C5.17227 18.5355 5.10115 18.3157 5.09617 18.0895C5.09782 17.8518 5.05766 17.6157 4.97751 17.3919Z" fill="#E0C7C3"/>
<path d="M0.932774 5.2456C0.865344 4.91481 0.922927 4.57077 1.0944 4.27996C1.38491 3.76235 1.53016 3.6662 1.53016 3.6662C1.53016 3.6662 1.81658 4.2104 1.60586 4.68913C1.50975 4.93417 1.38033 5.1648 1.22124 5.37449L0.932774 5.2456Z" fill="#705959"/>
<path d="M16.412 7.85405C14.9145 7.14414 13.1734 7.98294 11.8416 8.16502C10.7962 8.30823 8.58049 7.96044 7.54528 7.48171C6.6451 7.07253 5.72242 5.62202 4.38238 5.086C3.9016 4.89369 2.86435 4.83845 1.94985 5.00621C1.1315 5.15761 0.39295 5.50336 0.253831 6.13962L0.223145 6.19895C0.319776 6.19003 0.417025 6.19003 0.513656 6.19895C0.513656 6.19895 0.468646 6.8659 0.44205 7.25052C0.415454 7.63515 0.769387 8.76446 0.802121 9.38027C0.818487 9.7342 0.624132 9.78944 0.474785 9.95311C0.493197 10.1004 0.534115 10.4277 0.548436 10.5137C0.632316 11.019 1.30745 10.9576 1.46498 10.8308C1.54199 10.8857 1.63752 10.9081 1.73093 10.8932C1.82434 10.8783 1.90813 10.8272 1.96417 10.751C2.10003 10.535 2.16378 10.2814 2.14625 10.0268C2.14625 9.68919 2.42653 9.47847 2.59225 8.76242C2.68631 8.44545 2.74867 8.11992 2.77842 7.79063C3.11394 8.03818 3.51903 8.83198 3.57836 9.15522C3.68355 9.80416 3.82424 10.4468 3.9998 11.0804C4.37829 12.4081 5.05342 12.891 5.05342 12.891C6.14796 13.6172 8.50888 14.0694 10.2786 14.1348C12.0482 14.2003 13.2676 13.9057 14.0286 13.6172C14.7038 13.3595 16.3466 14.0694 17.0974 13.8607C17.8482 13.652 18.2022 12.9176 18.8548 11.2727C19.3867 9.95924 18.0794 8.6458 16.412 7.85405Z" fill="#BCA49F"/>
<path d="M0.44203 7.25871C0.468626 6.87408 0.513636 6.20713 0.513636 6.20713C0.417004 6.19821 0.319756 6.19821 0.223124 6.20713C0.117492 6.4214 0.0588958 6.65577 0.0512695 6.89454C0.0512695 7.28121 0.110599 7.26893 0.210846 7.79472C0.276314 8.13843 0.382701 9.24728 0.474764 9.96947C0.624112 9.8099 0.818467 9.75056 0.8021 9.39663C0.769367 8.77264 0.415434 7.64333 0.44203 7.25871Z" fill="#E0C7C3"/>
<path d="M2.78223 7.77633L2.84565 7.31601C3.3538 7.66453 3.73729 8.16629 3.94018 8.74811C4.25729 9.69739 4.65214 11.2604 5.02654 11.7883C5.17329 11.9969 5.36443 12.1704 5.58623 12.2963C5.80802 12.4222 6.05496 12.4975 6.30929 12.5166L6.27656 13.4147C5.87513 13.3142 5.49198 13.1513 5.1411 12.9319C4.5744 12.5739 4.28184 12.0215 3.89722 10.6815C3.5351 9.41302 3.51874 8.49852 2.78223 7.77633Z" fill="#AF9894"/>
<path d="M7.09717 13.6745L7.23833 12.9217C7.23833 12.9217 9.51128 13.4638 11.0805 13.2531C13.4189 12.938 14.3825 12.2936 14.3825 12.2936L13.9181 13.6582C13.9181 13.6582 13.3636 13.8341 12.7969 13.9528C12.3835 14.0367 11.9642 14.0894 11.5428 14.1103C10.0477 14.1794 8.55042 14.0326 7.09717 13.6745Z" fill="#AF9894"/>
<path d="M5.39502 11.954C3.86677 13.8096 2.67812 14.5277 2.03367 14.9246C1.38923 15.3215 1.58358 15.8738 1.71247 16.1521C1.77456 16.2695 1.84285 16.3836 1.91706 16.4937C2.30778 16.4858 2.69747 16.5368 3.07297 16.6451L2.80292 16.1521C2.80292 16.1521 6.19496 14.9593 6.50388 14.5522C6.81281 14.1451 7.54318 12.9871 7.54318 12.9871C7.54318 12.9871 5.77351 11.4937 5.39502 11.954Z" fill="#BCA49F"/>
<path d="M1.91895 16.4835C2.26617 16.97 2.58385 17.4769 2.87027 18.0015C3.12701 18.5659 3.57683 19.0201 4.13871 19.2822L4.22258 18.0015C3.97163 17.9155 3.74884 17.7627 3.57814 17.5596C3.39011 17.2628 3.22198 16.9539 3.07486 16.6349C2.69935 16.5266 2.30967 16.4756 1.91895 16.4835Z" fill="#EFD9D8"/>
<path d="M14.4215 11.2543C14.4215 11.2543 13.7832 14.4274 13.5541 15.2642C13.336 16.0602 12.9995 16.8188 12.5557 17.5146L12.4043 17.7315C12.5773 17.9489 12.7003 18.2017 12.7644 18.4721C12.791 18.5642 12.8176 18.6439 12.8462 18.7176C13.0365 18.288 13.2799 17.8502 13.5541 17.6701C14.2292 17.2262 14.487 16.9909 14.6793 16.5081C14.8716 16.0252 15.066 14.9757 15.7738 14.7936C16.397 14.6365 16.9696 14.3226 17.4372 13.8818C17.9049 13.441 18.2521 12.888 18.4457 12.2752C18.8181 11.0804 14.4215 11.2543 14.4215 11.2543Z" fill="#BCA49F"/>
<path d="M12.3977 17.7499C12.0827 18.2205 11.6755 18.9058 11.4546 19.1595C11.1968 19.4562 10.4316 20.7491 10.4316 20.7491H11.5896C11.5896 20.7491 11.7185 20.1968 11.9763 20.1763C12.0923 20.1768 12.2047 20.1359 12.2932 20.0609C12.3817 19.9858 12.4406 19.8817 12.4591 19.7671C12.4918 19.6751 12.635 19.2045 12.8458 18.7258C12.8171 18.6521 12.7905 18.5723 12.7639 18.4803C12.6966 18.213 12.5716 17.9637 12.3977 17.7499Z" fill="#EFD9D8"/>
<path d="M0.679454 7.75996C0.658109 7.70237 0.653506 7.63991 0.666178 7.57981C0.678849 7.51971 0.708277 7.46442 0.751058 7.42035C0.872548 7.32199 1.02247 7.26532 1.17864 7.25873C1.17864 7.25873 1.27275 7.53287 1.11318 7.6679C0.98619 7.75409 0.830504 7.78714 0.679454 7.75996Z" fill="#876D6C"/>
<path d="M0.128906 6.43423C0.128906 6.43423 0.167777 5.78774 0.441923 5.43994C0.599542 5.26189 0.79814 5.12488 1.02056 5.04076C1.24298 4.95664 1.48254 4.92793 1.71854 4.95712L1.9354 6.59381L0.128906 6.43423Z" fill="#967E7C"/>
<path d="M0.478603 10.0554C0.754791 9.98115 1.03797 9.9359 1.32354 9.92038C1.5977 9.9289 1.87103 9.95487 2.14189 9.99812L2.19713 9.73829C1.86612 9.67569 1.52934 9.64894 1.19261 9.65851C0.93376 9.67318 0.67826 9.72414 0.433594 9.8099L0.478603 10.0554Z" fill="#3F2B2B"/>
<path d="M0.051328 6.88639C0.051328 6.88639 0.22318 6.96004 1.05175 6.61429C1.33983 6.53245 1.64401 6.52541 1.93557 6.59383V6.10691C1.93557 6.10691 0.247733 5.87368 0.149532 6.02712C0.0720488 6.15475 0.0231467 6.29765 0.0061939 6.44598C-0.0107589 6.59432 0.00463814 6.74457 0.051328 6.88639Z" fill="#3F2B2B"/>
<path d="M1.74728 10.1188C1.67575 10.1184 1.60594 10.0968 1.54666 10.0568C1.48738 10.0168 1.44128 9.96007 1.41419 9.89387C1.38709 9.82767 1.38021 9.75492 1.39442 9.68481C1.40862 9.6147 1.44327 9.55037 1.49399 9.49993C1.54471 9.44949 1.60924 9.41521 1.67943 9.4014C1.74962 9.38759 1.82232 9.39489 1.88837 9.42235C1.95442 9.44982 2.01085 9.49623 2.05055 9.55574C2.09025 9.61524 2.11144 9.68517 2.11144 9.7567C2.11144 9.80443 2.10201 9.85169 2.08368 9.89575C2.06536 9.93982 2.0385 9.97983 2.00466 10.0135C1.97081 10.0471 1.93065 10.0738 1.88648 10.0918C1.84231 10.1099 1.79501 10.1191 1.74728 10.1188ZM1.74728 9.52143C1.70084 9.52183 1.65555 9.53598 1.61713 9.56207C1.57871 9.58817 1.54887 9.62505 1.53138 9.66808C1.51388 9.7111 1.50952 9.75834 1.51882 9.80385C1.52813 9.84935 1.5507 9.89108 1.58368 9.92378C1.61667 9.95648 1.65859 9.97868 1.70417 9.9876C1.74975 9.99651 1.79695 9.99173 1.83983 9.97387C1.8827 9.956 1.91932 9.92585 1.94508 9.8872C1.97085 9.84856 1.9846 9.80315 1.9846 9.7567C1.9846 9.72563 1.97845 9.69487 1.9665 9.66619C1.95455 9.63752 1.93703 9.61149 1.91497 9.58961C1.8929 9.56774 1.86673 9.55045 1.83794 9.53875C1.80916 9.52705 1.77835 9.52116 1.74728 9.52143Z" fill="white"/>
<path d="M1.73677 5.3929C1.75109 5.78162 1.82065 6.3115 1.81656 6.98458C1.81656 7.70677 1.59766 9.58897 1.59766 9.58897H1.87794C1.87794 9.58897 2.0457 7.95228 2.12344 7.11143C2.193 6.38719 1.99046 5.3213 1.73677 5.09216C1.72036 5.19174 1.72036 5.29333 1.73677 5.3929Z" fill="#3F2B2B"/>
<path d="M7.69021 6.5488C7.29577 6.8976 6.87888 7.22018 6.44223 7.51444C4.86487 8.55374 1.95361 9.65646 1.95361 9.65646L1.97407 9.79353C1.97407 9.79353 4.74417 8.89131 6.44223 7.82951C6.94465 7.51189 7.41897 7.15187 7.86001 6.75338C7.80905 6.6807 7.75227 6.61228 7.69021 6.5488Z" fill="#3F2B2B"/>
<path d="M1.20703 5.57088C1.20703 5.57088 1.23363 4.75253 1.58142 4.26971C1.92922 3.78689 2.1113 3.75006 2.1113 3.75006C2.1113 3.75006 2.15222 5.22922 1.80852 5.63839C1.38502 5.97391 1.20703 5.57088 1.20703 5.57088Z" fill="#876D6C"/>
<path d="M2.91341 16.3403C2.91341 16.3403 2.36308 16.4631 2.53084 16.8579C2.69911 17.2497 2.9276 17.6128 3.20802 17.934C3.48421 18.29 3.96294 17.8829 3.96294 17.8829C3.76812 17.6327 3.58845 17.371 3.42488 17.0993C3.269 16.8368 3.09823 16.5833 2.91341 16.3403Z" fill="#4F3333"/>
<path d="M2.72497 16.819L2.30762 17.0625L2.40582 17.2098L2.81499 16.952L2.72497 16.819Z" fill="#4F3333"/>
<path d="M3.22405 17.6865L2.82715 17.9156L2.90489 18.0772L3.31406 17.8194L3.22405 17.6865Z" fill="#4F3333"/>
<path d="M5.65277 17.7254C5.5163 17.6847 5.36937 17.699 5.24326 17.7651C5.11715 17.8312 5.02184 17.9439 4.97763 18.0793C4.76077 18.5867 4.47844 19.0122 4.56846 19.2823C4.64951 19.4646 4.7953 19.6104 4.97763 19.6914C4.97763 19.6914 5.29883 18.8935 5.65277 17.7254Z" fill="#4F3333"/>
<path d="M4.31689 18.8138L4.76085 19.0695L4.84063 18.8997L4.42123 18.6542L4.31689 18.8138Z" fill="#4F3333"/>
<path d="M4.73389 18.0793L5.10623 18.2552L5.19421 18.0772L4.81163 17.8992L4.73389 18.0793Z" fill="#4F3333"/>
<path d="M12.9444 18.511C12.9444 18.511 12.6825 18.3984 12.3981 18.8628C12.3176 18.9909 12.2822 19.1421 12.2974 19.2926C12.3126 19.443 12.3776 19.5841 12.482 19.6935L12.9444 18.511Z" fill="#4F3333"/>
<path d="M12.2238 18.0159C12.2238 18.0159 12.4796 18.3023 12.2238 18.8629C12.1969 18.9361 12.1547 19.0028 12.1 19.0584C12.0452 19.1141 11.9792 19.1574 11.9064 19.1855C11.8336 19.2135 11.7556 19.2257 11.6777 19.2213C11.5998 19.2168 11.5237 19.1957 11.4546 19.1595L12.2238 18.0159Z" fill="#4F3333"/>
<path d="M12.0356 18.8628L12.4694 19.0961L12.6187 18.8628L12.1318 18.6173L12.0356 18.8628Z" fill="#4F3333"/>
<path d="M17.5659 18.0793C17.5659 18.0793 18.1019 18.2225 18.1019 18.736C18.1019 19.3498 17.6334 19.3498 17.6334 19.3498L17.5659 18.0793Z" fill="#4F3333"/>
<path d="M18.6849 17.8133C18.6849 17.8133 18.2307 18.2389 18.2942 18.736C18.3141 18.8758 18.3804 19.0047 18.4824 19.1023C18.5845 19.1999 18.7163 19.2604 18.8568 19.2741L18.6849 17.8133Z" fill="#4F3333"/>
<path d="M8.50043 7.69244C8.50043 7.69244 8.29584 6.71657 8.80117 6.89251C9.3065 7.06846 10.3151 7.05618 11.1826 6.89251C12.05 6.72884 12.1912 6.76362 12.1809 7.4408C12.1774 7.75451 12.0758 8.05925 11.8904 8.31234L8.80117 8.07297L8.50043 7.69244Z" fill="#5B3939"/>
<path d="M17.9629 18.6174V18.8567L18.5726 18.7769L18.4887 18.5437L17.9629 18.6174Z" fill="#4F3333"/>
<path d="M9.601 11.4589C9.57142 12.0144 9.48922 12.5658 9.3555 13.1058C9.26041 13.4351 9.09887 13.7415 8.88086 14.006C8.88086 14.006 9.81991 14.1083 10.135 14.1226C10.4091 14.1369 11.2377 14.1226 11.2377 14.1226C11.2051 13.9749 11.1191 13.8445 10.9963 13.7564C10.851 13.65 10.4603 13.6111 10.3825 13.5006C10.137 13.1692 10.4275 11.5121 10.4275 11.5121L9.601 11.4589Z" fill="#4F3333"/>
<path d="M7.26081 7.3201C7.14795 8.23878 7.15965 9.1685 7.29559 10.0841C7.52268 11.6185 8.87295 12.0051 10.4196 12.0297C11.9663 12.0542 11.9765 12.0624 12.4389 12.0297C12.9012 11.9969 13.3063 11.8558 13.3145 10.8963C13.3145 10.1127 13.3145 8.35121 13.1713 7.84589C12.8747 7.47558 12.6537 7.45717 12.2854 7.50627C11.9172 7.55537 10.1782 7.75587 9.35577 7.63107L7.26081 7.3201Z" fill="#3F2B2B"/>
<path d="M8.45546 7.50217C8.25118 7.90886 8.10188 8.34091 8.01151 8.78697C7.90308 9.37004 8.05038 10.1188 8.45546 10.4543C8.8094 10.7469 9.70958 10.9188 10.1883 10.8472C10.667 10.7755 10.7161 10.2539 10.7407 9.65646C10.7652 9.05907 11.2378 7.62287 11.2378 7.62287C11.2378 7.62287 9.29018 7.64333 8.45546 7.50217Z" fill="#5B3939"/>
<path d="M12.3405 10.4543C12.1994 10.4543 11.8291 10.5648 11.8516 10.794C11.8787 10.9978 11.9639 11.1896 12.0971 11.3463C12.2832 11.598 12.4571 11.5387 12.584 11.3463C12.7125 11.1867 12.7971 10.9963 12.8295 10.794C12.852 10.5648 12.4796 10.4543 12.3405 10.4543Z" fill="#E5913B"/>
<path d="M12.3408 10.5873C12.2364 10.5873 11.9643 10.6692 11.9807 10.8369C11.9989 10.9881 12.0615 11.1306 12.1607 11.2461C12.2978 11.4323 12.4267 11.3893 12.5208 11.2461C12.6165 11.1284 12.6786 10.987 12.7008 10.8369C12.7172 10.6692 12.4431 10.5853 12.3408 10.5873Z" fill="#F9A75D"/>
<path d="M11.9501 11.868C11.8539 11.868 11.7557 11.868 11.6616 11.868C11.4979 11.868 11.3609 11.868 11.1706 11.868C10.6346 11.868 9.73849 11.8905 8.97538 11.6634C8.07111 11.3852 7.76014 10.9474 7.50032 10.2313C7.24049 9.51529 7.39189 7.44079 7.39802 7.35281H7.49622C7.49622 7.37327 7.33665 9.49688 7.59034 10.1904C7.84402 10.884 8.13249 11.287 9.00198 11.555C9.75486 11.7862 10.6387 11.7739 11.1685 11.7596C11.3609 11.7596 11.4979 11.7596 11.6636 11.7596C12.1035 11.7596 12.6027 11.7821 12.793 11.555C13.018 11.2891 13.0323 10.841 13.016 10.3971C13.0016 10.0124 12.9546 7.64537 12.9546 7.62082L13.0507 7.7047C13.0507 7.72925 13.0978 10.0104 13.1121 10.393C13.1305 10.8574 13.1121 11.3259 12.8687 11.6205C12.6927 11.8333 12.3245 11.868 11.9501 11.868Z" fill="#E5913B"/>
<path d="M8.60691 7.51445C8.60691 7.51445 8.59054 7.1953 8.75216 7.25872C9.36706 7.41243 10.0014 7.4738 10.6344 7.4408C11.2604 7.36715 11.6471 7.23621 11.776 7.25054C11.9048 7.26486 11.8905 7.56151 11.8905 7.56151C11.8905 7.56151 9.95718 7.91544 8.60691 7.51445Z" fill="#4F3333"/>
<path d="M8.21423 5.8389C8.21423 5.8389 7.76414 5.97802 7.62093 6.00666C7.48889 6.03996 7.36944 6.11106 7.27722 6.21124C7.26559 6.22233 7.25632 6.23566 7.24999 6.25043C7.24366 6.2652 7.2404 6.2811 7.2404 6.29717C7.2404 6.31324 7.24366 6.32914 7.24999 6.34391C7.25632 6.35868 7.26559 6.37201 7.27722 6.3831C7.258 6.39428 7.24347 6.41204 7.23633 6.4331C7.22918 6.45416 7.2299 6.47709 7.23835 6.49767C7.26069 6.56092 7.29392 6.61977 7.33655 6.67156L7.49204 6.59382C7.59773 6.63246 7.71368 6.63246 7.81938 6.59382C8.05017 6.46165 8.27351 6.31685 8.48837 6.1601L8.21423 5.8389Z" fill="#EFB4A8"/>
<path d="M9.52781 4.58478C9.52781 4.58478 8.59695 5.34175 8.40873 5.47064C8.25642 5.58317 8.11218 5.70622 7.97705 5.83889L8.16322 6.12122C8.44111 6.08613 8.7079 5.99045 8.94474 5.84094C9.27828 5.50099 9.58988 5.14019 9.87765 4.76072L9.52781 4.58478Z" fill="#1C3559"/>
<path d="M10.0635 0.421442C10.0635 0.421442 10.7591 -0.341664 11.1437 0.188214C11.5283 0.718092 11.4751 0.969733 11.9088 0.765147C12.5226 0.474635 12.8336 0.863348 12.8336 0.863348C12.8336 0.863348 12.3671 0.95132 12.2055 1.17432C12.1231 1.31866 11.9918 1.42875 11.8354 1.48466C11.6789 1.54058 11.5075 1.53862 11.3524 1.47915C10.8511 1.25615 10.9432 0.615799 10.665 0.515552C10.5885 0.485417 10.5063 0.472542 10.4242 0.477847C10.3422 0.483151 10.2623 0.506505 10.1903 0.54624L10.0635 0.421442Z" fill="#3F2B2B"/>
<path d="M9.69346 2.86626C9.67934 2.5943 9.63891 2.32436 9.57275 2.06019C9.60958 1.90266 9.99829 1.56714 9.99829 1.56714L10.0842 1.93335C10.15 2.16875 10.2659 2.38718 10.4238 2.5737C10.3154 2.76192 9.89395 2.77829 9.69346 2.86626Z" fill="#EDAA98"/>
<path d="M10.1046 1.43416C10.0723 1.60589 9.98999 1.76427 9.86808 1.88946C9.74616 2.01465 9.59002 2.10109 9.4192 2.13793C9.29645 2.17271 9.16552 2.05405 9.07345 1.8597C9.00034 1.72204 8.95512 1.5713 8.94037 1.41613C8.92563 1.26095 8.94165 1.10439 8.98753 0.955426C9.13074 0.495107 9.28008 0.417365 9.62174 0.472603C9.9634 0.527841 10.1803 0.957472 10.1046 1.43416Z" fill="#FFBFA9"/>
<path d="M10.0841 1.93334C9.89182 1.66738 10.0534 1.31958 10.033 1.23161C10.0125 1.14363 9.94501 1.05157 9.8775 1.0618C9.80999 1.07203 9.71179 1.21729 9.71179 1.21729C9.60102 1.16067 9.49903 1.08831 9.409 1.00247C9.25965 0.85926 8.98551 1.00247 8.97732 0.887902C8.96505 0.70582 8.77274 0.405078 9.53175 0.25573C9.66876 0.215315 9.81517 0.220383 9.94906 0.270175C10.0829 0.319967 10.1971 0.411803 10.2744 0.531922C10.3991 0.809166 10.4152 1.12312 10.3194 1.41164C10.2283 1.57952 10.1496 1.75389 10.0841 1.93334Z" fill="#4F3333"/>
<path d="M9.69107 5.44404C9.57604 5.71022 9.54811 6.00597 9.61129 6.28898L8.57608 8.14049C8.37149 8.52102 8.37149 8.68878 8.4697 8.95883C8.5679 9.22888 9.20825 9.12659 9.20825 9.12659C9.20825 9.12659 10.2312 8.26938 10.6404 7.84179C11.0495 7.41421 11.7758 7.02345 11.4587 5.98415C11.2071 5.219 10.0777 5.1167 9.69107 5.44404Z" fill="#FFD8CC"/>
<path d="M11.4976 6.07417C11.3646 5.1433 10.9554 5.30902 11.0209 3.89328C11.0475 3.30817 10.9738 2.83762 10.8163 2.69236C10.6643 2.54843 10.4993 2.41898 10.3232 2.30569C10.1477 2.38237 9.98594 2.48743 9.84452 2.61667C9.58816 2.89699 9.36693 3.20752 9.18575 3.54139C9.05481 3.81759 9.20211 4.05081 9.41079 4.42112C9.61947 4.79142 9.52127 6.27671 9.52127 6.27671C9.52127 6.27671 10.3294 6.98253 11.4976 6.07417Z" fill="#2E4A7C"/>
<path d="M9.60741 2.92148L9.19824 2.57164C9.36883 2.39028 9.59213 2.26717 9.83655 2.21975C10.168 2.19315 10.1721 2.32818 10.1721 2.32818L9.60741 2.92148Z" fill="#FFD8CC"/>
<path d="M10.3295 2.0213C10.0589 2.22468 9.80135 2.4447 9.55817 2.68007C9.33929 2.9168 9.20604 3.22004 9.17969 3.54138C9.31722 3.30239 9.49037 3.08577 9.6932 2.89898C9.92638 2.70426 10.1717 2.52454 10.4277 2.36091L10.3295 2.0213Z" fill="#25416B"/>
<path d="M9.63195 12.0522C9.46534 11.455 9.34294 10.8465 9.26574 10.2314C9.2146 10.2314 9.16345 10.2314 9.1123 10.2314C9.12712 10.8634 9.25747 11.4875 9.49692 12.0726C9.66673 12.3611 9.63195 12.0522 9.63195 12.0522Z" fill="#8E5151"/>
<path d="M9.1882 8.41463C9.08181 8.49851 8.99793 8.76242 8.87109 8.85244C8.74351 8.91639 8.60434 8.95396 8.46191 8.96292C8.63211 9.42325 8.83729 9.86987 9.07567 10.2989C9.30481 10.6794 9.6792 11.4957 9.71603 11.5755C9.80195 11.7596 9.67511 12.0092 9.51144 12.1892C9.34777 12.3693 9.18001 12.5043 9.09204 12.6311C9.06751 12.6764 9.05466 12.727 9.05466 12.7785C9.05466 12.8299 9.06751 12.8805 9.09204 12.9258C9.3607 12.8946 9.6188 12.803 9.84696 12.6577C10.1129 12.4532 10.3196 12.2138 10.3666 12.2486C10.4137 12.2834 10.7758 12.0051 10.7758 12.0051C10.7758 12.0051 10.5998 11.5837 10.4525 11.3095C10.3052 11.0354 10.1047 9.95925 9.96972 9.54804C9.8583 9.24511 9.72848 8.94928 9.581 8.66218C9.45416 8.3062 9.25775 8.35939 9.1882 8.41463Z" fill="#2E4A7C"/>
<path d="M9.38232 11.9335C9.44893 12.1319 9.53244 12.3242 9.63192 12.5084C9.7006 12.6093 9.75114 12.7215 9.78127 12.8398L10.125 12.5964L9.63806 11.778L9.38232 11.9335Z" fill="#FFD8CC"/>
<path d="M8.33262 5.98825C8.33262 5.98825 7.88253 6.12532 7.73932 6.15397C7.607 6.18658 7.48737 6.2578 7.39561 6.35855C7.38398 6.36963 7.37471 6.38297 7.36838 6.39774C7.36205 6.41251 7.35879 6.42841 7.35879 6.44448C7.35879 6.46055 7.36205 6.47645 7.36838 6.49122C7.37471 6.50599 7.38398 6.51932 7.39561 6.5304C7.37657 6.54121 7.36225 6.55874 7.35544 6.57954C7.34863 6.60035 7.34982 6.62295 7.35879 6.64293C7.36997 6.69073 7.39163 6.73545 7.42221 6.77386L7.58383 6.66952C7.63453 6.70635 7.69257 6.73181 7.75401 6.74417C7.81544 6.75653 7.87882 6.75549 7.93981 6.74113C8.16883 6.60969 8.39078 6.46628 8.60472 6.3115L8.33262 5.98825Z" fill="#FFD8CC"/>
<path d="M10.5567 2.66166C10.1721 2.52868 10.0269 3.10152 9.96958 3.24064C9.84683 3.53933 9.63201 4.53157 9.49085 4.76071C8.9446 5.25785 8.16309 5.98823 8.16309 5.98823L8.52316 6.5222C8.52316 6.5222 9.23102 6.06392 9.51745 5.90844C9.83515 5.73163 10.1119 5.48971 10.3297 5.19853C10.5977 4.76276 10.8227 3.90963 10.923 3.54138C11.0232 3.17312 10.8943 2.78032 10.5567 2.66166Z" fill="#25416B"/>
</g>
<defs>
<clipPath id="clip0_1232_4749">
<rect width="24" height="20.7594" fill="white"/>
</clipPath>
</defs>
</svg>
