<svg width="19" height="23" viewBox="0 0 19 23" fill="none" xmlns="http://www.w3.org/2000/svg">
<g clip-path="url(#clip0_1232_6883)">
<path d="M8.00104 18.3311L7.92725 18.3315L7.94574 21.3483L8.01954 21.3479L8.00104 18.3311Z" fill="#6F3D15"/>
<path d="M8.00503 18.3467L7.93213 18.3578L8.41755 21.3419L8.49045 21.3308L8.00503 18.3467Z" fill="#6F3D15"/>
<path d="M11.0679 18.3293L10.9941 18.3297L11.0126 21.3466L11.0864 21.3461L11.0679 18.3293Z" fill="#6F3D15"/>
<path d="M10.9858 18.3538L10.6191 21.2658L10.6924 21.2745L11.059 18.3625L10.9858 18.3538Z" fill="#6F3D15"/>
<path d="M7.84136 17.4936L7.76855 17.5053L7.92894 18.4372L8.00174 18.4255L7.84136 17.4936Z" fill="#3D1A00"/>
<path d="M11.1772 17.4922L10.9956 18.3152L11.0678 18.3301L11.2494 17.5071L11.1772 17.4922Z" fill="#3D1A00"/>
<path d="M8.08513 18.3953L8.01953 18.3675L8.40904 17.4664L8.80266 18.3437L8.73295 18.3714L8.40904 17.649L8.08513 18.3953Z" fill="#3D1A00"/>
<path d="M8.8031 18.3953L8.7334 18.3675L9.12291 17.4664L9.51652 18.3437L9.45092 18.3714L9.12701 17.649L8.8031 18.3953Z" fill="#3D1A00"/>
<path d="M9.51629 18.3953L9.45068 18.3675L9.8402 17.4664L10.2297 18.3437L10.1641 18.3714L9.8402 17.649L9.51629 18.3953Z" fill="#3D1A00"/>
<path d="M10.2504 18.3834L10.1807 18.3556L10.5989 17.4664L10.9679 18.3516L10.8982 18.3794L10.5948 17.649L10.2504 18.3834Z" fill="#3D1A00"/>
<path d="M9.33615 18.5143C8.87464 18.5206 8.41351 18.4861 7.9585 18.4111C7.94869 18.4093 7.93938 18.4055 7.93112 18.4C7.92286 18.3946 7.91584 18.3875 7.91047 18.3794C7.9051 18.3712 7.9015 18.3621 7.89989 18.3525C7.89828 18.343 7.89869 18.3332 7.9011 18.3238C7.90506 18.3055 7.9163 18.2893 7.93241 18.279C7.94851 18.2686 7.96819 18.2647 7.98721 18.2682C9.00823 18.4243 10.049 18.4136 11.0664 18.2365C11.0857 18.2349 11.1049 18.2401 11.1207 18.251C11.1365 18.2619 11.1477 18.2778 11.1525 18.296C11.1543 18.3054 11.1541 18.3151 11.1519 18.3244C11.1497 18.3337 11.1457 18.3425 11.1399 18.3503C11.1342 18.358 11.1269 18.3646 11.1185 18.3696C11.1101 18.3746 11.1008 18.3779 11.091 18.3794C10.5106 18.4685 9.92384 18.5137 9.33615 18.5143Z" fill="#3D1A00"/>
<path d="M7.99951 21.0588V22.7697C8.02253 22.8436 8.07388 22.9061 8.14301 22.9444L8.24142 22.9881H10.7015C10.7512 22.9771 10.7979 22.9562 10.8389 22.9268C10.8798 22.8975 10.914 22.8602 10.9393 22.8174V21.0588H7.99951Z" fill="#BC6815"/>
<g style="mix-blend-mode:multiply">
<path d="M10.9434 21.0588H7.99951V21.4439H10.9434V21.0588Z" fill="#965512"/>
</g>
<path d="M11.1152 21.0588H7.88428V21.3605H11.1152V21.0588Z" fill="#BC6815"/>
<g style="mix-blend-mode:screen" opacity="0.4">
<path d="M11.0867 21.0986H7.92139V21.178H11.0867V21.0986Z" fill="white"/>
</g>
<g style="mix-blend-mode:multiply" opacity="0.5">
<path d="M8.31921 21.5987C8.29948 21.5833 8.27488 21.5749 8.24951 21.5749C8.24951 21.5749 8.29051 21.694 8.35611 21.694C8.3658 21.6928 8.37502 21.6893 8.38291 21.6838C8.39081 21.6782 8.3971 21.6708 8.40121 21.6622C8.39711 21.6384 8.35611 21.6186 8.31921 21.5987Z" fill="#BC6815"/>
<path d="M8.26611 21.7098C8.27217 21.7319 8.28297 21.7525 8.29781 21.7703C8.31264 21.7881 8.33119 21.8027 8.35222 21.813C8.35222 21.813 8.40142 21.813 8.39322 21.7853C8.38502 21.7575 8.30301 21.7376 8.26611 21.7098Z" fill="#BC6815"/>
<path d="M8.5815 21.6821C8.5815 21.6821 8.45439 21.7456 8.47489 21.7892C8.49539 21.8329 8.47489 21.7892 8.47489 21.7892C8.47489 21.7892 8.5364 21.7615 8.5528 21.7337C8.5692 21.7059 8.5897 21.7019 8.5815 21.6821Z" fill="#BC6815"/>
<path d="M8.53648 21.8289C8.47908 21.8567 8.42578 21.8766 8.40938 21.9282C8.39298 21.9798 8.47498 21.9639 8.49958 21.9282C8.51665 21.9148 8.53033 21.8979 8.53957 21.8786C8.54881 21.8593 8.55336 21.8383 8.55288 21.817C8.55288 21.817 8.54058 21.8289 8.53648 21.8289Z" fill="#BC6815"/>
<path d="M8.31921 21.9401C8.29948 21.9246 8.27488 21.9162 8.24951 21.9163C8.24951 21.9163 8.29051 22.0393 8.35611 22.0353C8.36607 22.0351 8.37571 22.0319 8.38376 22.0263C8.39181 22.0206 8.3979 22.0127 8.40121 22.0036C8.39711 21.9758 8.35611 21.9758 8.31921 21.9401Z" fill="#BC6815"/>
<path d="M8.5815 22.0234C8.5815 22.0234 8.45439 22.087 8.47489 22.1346C8.52 22.1346 8.5364 22.1068 8.5528 22.079C8.5692 22.0512 8.5897 22.0433 8.5815 22.0234Z" fill="#BC6815"/>
<path d="M8.53648 22.1704C8.47908 22.1981 8.42578 22.218 8.40938 22.2736C8.39298 22.3291 8.47498 22.3053 8.49958 22.2736C8.51665 22.2602 8.53033 22.2433 8.53957 22.224C8.54881 22.2047 8.55336 22.1837 8.55288 22.1624C8.55288 22.1624 8.54058 22.1704 8.53648 22.1704Z" fill="#BC6815"/>
</g>
<g style="mix-blend-mode:multiply" opacity="0.5">
<path d="M8.31921 22.2656C8.29948 22.2502 8.27488 22.2418 8.24951 22.2418C8.24951 22.2418 8.29051 22.3649 8.35611 22.3609C8.36571 22.3615 8.37526 22.3592 8.38337 22.3542C8.39149 22.3492 8.39774 22.3418 8.40121 22.3331C8.39711 22.3014 8.35611 22.2855 8.31921 22.2656Z" fill="#BC6815"/>
<path d="M8.26611 22.3728C8.27968 22.4168 8.31061 22.4539 8.35222 22.476C8.35222 22.476 8.40142 22.476 8.39322 22.4482C8.38502 22.4204 8.30301 22.4046 8.26611 22.3728Z" fill="#BC6815"/>
<path d="M8.58166 22.349C8.54886 22.3768 8.45455 22.4125 8.47505 22.4562C8.49555 22.4998 8.47505 22.4562 8.47505 22.4562C8.47505 22.4562 8.53656 22.4244 8.55296 22.4006C8.56936 22.3768 8.58986 22.3728 8.58166 22.349Z" fill="#BC6815"/>
<path d="M8.53648 22.4959C8.47908 22.5197 8.42578 22.5435 8.40938 22.5951C8.39298 22.6467 8.47498 22.6308 8.49958 22.5951C8.51621 22.5814 8.52958 22.5643 8.53878 22.5452C8.54798 22.526 8.55278 22.5051 8.55288 22.4839C8.55288 22.4839 8.54058 22.4919 8.53648 22.4959Z" fill="#BC6815"/>
<path d="M8.31921 22.607C8.29948 22.5916 8.27488 22.5832 8.24951 22.5832C8.24951 22.5832 8.29051 22.7023 8.35611 22.7023C8.3658 22.7011 8.37502 22.6976 8.38291 22.6921C8.39081 22.6865 8.3971 22.6791 8.40121 22.6705C8.39711 22.6467 8.35611 22.6269 8.31921 22.607Z" fill="#BC6815"/>
<path d="M8.26611 22.7182C8.27217 22.7403 8.28297 22.7609 8.29781 22.7787C8.31264 22.7965 8.33119 22.811 8.35222 22.8214C8.35222 22.8214 8.40142 22.8214 8.39322 22.7936C8.38502 22.7658 8.30301 22.746 8.26611 22.7182Z" fill="#BC6815"/>
<path d="M8.58166 22.6904C8.54886 22.7221 8.45455 22.7539 8.47505 22.7975C8.49555 22.8412 8.47505 22.7975 8.47505 22.7975C8.47505 22.7975 8.53656 22.7658 8.55296 22.742C8.56936 22.7182 8.58986 22.7102 8.58166 22.6904Z" fill="#BC6815"/>
<path d="M8.53648 22.8373C8.47908 22.8611 8.42578 22.8849 8.40938 22.9365C8.39298 22.9881 8.47498 22.9723 8.49958 22.9365C8.51621 22.9228 8.52958 22.9058 8.53878 22.8866C8.54798 22.8674 8.55278 22.8465 8.55288 22.8254C8.55288 22.8254 8.54058 22.8373 8.53648 22.8373Z" fill="#BC6815"/>
</g>
<g style="mix-blend-mode:multiply" opacity="0.5">
<path d="M8.74567 21.4995C8.7218 21.4913 8.69575 21.4913 8.67188 21.4995C8.67188 21.5392 8.71287 21.6225 8.77848 21.6186C8.78925 21.6199 8.80016 21.6174 8.8092 21.6116C8.81824 21.6057 8.8248 21.5969 8.82768 21.5868C8.82358 21.5392 8.77848 21.5193 8.74567 21.4995Z" fill="#BC6815"/>
<path d="M8.68848 21.6146C8.68848 21.6146 8.72948 21.702 8.77458 21.7139C8.81968 21.7258 8.82378 21.7139 8.81968 21.6861C8.81558 21.6583 8.72948 21.6384 8.68848 21.6146Z" fill="#BC6815"/>
<path d="M9.00825 21.5789C9.00825 21.5789 8.88115 21.6384 8.90165 21.686C8.91851 21.6858 8.93482 21.6802 8.94812 21.6702C8.96143 21.6601 8.97102 21.6462 8.97545 21.6305C8.97545 21.6305 9.01645 21.6027 9.00825 21.5789Z" fill="#BC6815"/>
<path d="M8.96284 21.7337C8.90544 21.7575 8.85214 21.7774 8.83574 21.833C8.81934 21.8885 8.89724 21.8647 8.92594 21.833C8.94304 21.8198 8.95649 21.8028 8.96508 21.7834C8.97367 21.764 8.97713 21.7428 8.97514 21.7218C8.97514 21.7218 8.96694 21.7297 8.96284 21.7337Z" fill="#BC6815"/>
<path d="M8.74567 21.8448C8.72469 21.8288 8.69859 21.8204 8.67188 21.821C8.67188 21.8607 8.71287 21.9441 8.77848 21.9401C8.78864 21.941 8.79884 21.9388 8.80766 21.9338C8.81647 21.9288 8.82346 21.9213 8.82768 21.9123C8.82358 21.8806 8.77848 21.8647 8.74567 21.8448Z" fill="#BC6815"/>
<path d="M8.68848 21.9758C8.68848 21.9758 8.72948 22.0632 8.77458 22.0751C8.81968 22.087 8.82378 22.0751 8.81968 22.0473C8.81558 22.0195 8.72948 21.9758 8.68848 21.9758Z" fill="#BC6815"/>
<path d="M9.00792 21.9282C8.97512 21.956 8.88082 21.9878 8.90132 22.0354C8.91766 22.0354 8.93358 22.0304 8.94682 22.0211C8.96006 22.0119 8.96996 21.9988 8.97512 21.9838C8.97512 21.9838 9.01613 21.9481 9.00792 21.9282Z" fill="#BC6815"/>
<path d="M8.96284 22.0751C8.90544 22.0989 8.85214 22.1227 8.83574 22.1743C8.81934 22.2259 8.89724 22.2101 8.92594 22.1743C8.94309 22.1604 8.95652 22.1426 8.96508 22.1226C8.97365 22.1026 8.9771 22.0808 8.97514 22.0592C8.97514 22.0592 8.96694 22.0711 8.96284 22.0751Z" fill="#BC6815"/>
</g>
<g style="mix-blend-mode:multiply" opacity="0.5">
<path d="M8.74567 22.1664C8.72469 22.1504 8.69859 22.1419 8.67188 22.1425C8.67188 22.1783 8.71287 22.2616 8.77848 22.2616C8.78888 22.2612 8.79896 22.258 8.80762 22.2524C8.81629 22.2468 8.82322 22.239 8.82768 22.2299C8.82358 22.2061 8.77848 22.1862 8.74567 22.1664Z" fill="#BC6815"/>
<path d="M8.68848 22.2775C8.68848 22.2775 8.72948 22.3649 8.77458 22.3807C8.81968 22.3966 8.82378 22.3807 8.81968 22.3529C8.81558 22.3252 8.72948 22.3053 8.68848 22.2775Z" fill="#BC6815"/>
<path d="M8.96284 22.3966C8.90544 22.4244 8.85214 22.4442 8.83574 22.4959C8.81934 22.5475 8.89724 22.5316 8.92594 22.4959C8.94304 22.4827 8.95649 22.4657 8.96508 22.4463C8.97367 22.4269 8.97713 22.4057 8.97514 22.3847L8.96284 22.3966Z" fill="#BC6815"/>
<path d="M8.74567 22.5078C8.734 22.503 8.72146 22.5005 8.70877 22.5005C8.69609 22.5005 8.68354 22.503 8.67188 22.5078C8.67188 22.5078 8.67188 22.5078 8.67188 22.5078C8.67188 22.5435 8.71287 22.6308 8.77848 22.6269C8.78912 22.6274 8.79968 22.6247 8.80856 22.6189C8.81743 22.6132 8.82414 22.6048 8.82768 22.5951C8.82358 22.5475 8.77848 22.5276 8.74567 22.5078Z" fill="#BC6815"/>
<path d="M8.68848 22.6189C8.68848 22.6189 8.72948 22.7023 8.77458 22.7181C8.81968 22.734 8.82378 22.7181 8.81968 22.6903C8.81558 22.6626 8.72948 22.6467 8.68848 22.6189Z" fill="#BC6815"/>
<path d="M9.00825 22.5911C9.00825 22.5911 8.88115 22.6507 8.90165 22.6983C8.91851 22.698 8.93482 22.6924 8.94812 22.6824C8.96143 22.6724 8.97102 22.6585 8.97545 22.6427C8.97545 22.6427 9.01645 22.611 9.00825 22.5911Z" fill="#BC6815"/>
<path d="M8.96284 22.738C8.90544 22.7658 8.85214 22.7856 8.83574 22.8412C8.81934 22.8968 8.89724 22.8729 8.92594 22.8412C8.94304 22.8281 8.95649 22.8111 8.96508 22.7916C8.97367 22.7722 8.97713 22.7511 8.97514 22.73C8.97514 22.73 8.96694 22.738 8.96284 22.738Z" fill="#BC6815"/>
</g>
<g style="mix-blend-mode:multiply" opacity="0.5">
<path d="M9.18024 21.5987C9.15926 21.5827 9.13316 21.5743 9.10645 21.5749C9.10645 21.6106 9.14744 21.694 9.21305 21.694C9.22345 21.6935 9.23353 21.6903 9.24219 21.6847C9.25086 21.6791 9.2578 21.6714 9.26225 21.6623C9.27865 21.6384 9.21715 21.6186 9.18024 21.5987Z" fill="#BC6815"/>
<path d="M9.12305 21.7099C9.13003 21.7321 9.14163 21.7528 9.15714 21.7705C9.17265 21.7883 9.19175 21.8028 9.21325 21.8131C9.21325 21.8131 9.25835 21.8131 9.25425 21.7853C9.25015 21.7575 9.16405 21.7377 9.12305 21.7099Z" fill="#BC6815"/>
<path d="M9.44246 21.6821C9.44246 21.6821 9.31126 21.7456 9.33176 21.7893C9.34862 21.789 9.36492 21.7835 9.37823 21.7734C9.39154 21.7634 9.40113 21.7495 9.40556 21.7337C9.40556 21.7337 9.45066 21.702 9.44246 21.6821Z" fill="#BC6815"/>
<path d="M9.39732 21.829C9.33992 21.8568 9.28662 21.8766 9.27022 21.9282C9.25382 21.9798 9.33582 21.964 9.36042 21.9282C9.37752 21.9151 9.39097 21.8981 9.39956 21.8787C9.40815 21.8593 9.41161 21.8381 9.40963 21.8171C9.40963 21.8171 9.40142 21.829 9.39732 21.829Z" fill="#BC6815"/>
<path d="M9.18024 21.9401C9.15926 21.9241 9.13316 21.9157 9.10645 21.9163C9.10645 21.952 9.14744 22.0394 9.21305 22.0354C9.22369 22.036 9.23425 22.0332 9.24313 22.0275C9.252 22.0217 9.25871 22.0134 9.26225 22.0036C9.27865 21.9758 9.21715 21.9758 9.18024 21.9401Z" fill="#BC6815"/>
<path d="M9.12305 22.0513C9.12305 22.0513 9.16405 22.1346 9.21325 22.1505C9.26245 22.1664 9.25835 22.1505 9.25425 22.1227C9.25015 22.0949 9.16405 22.0791 9.12305 22.0513Z" fill="#BC6815"/>
<path d="M9.44246 22.0235C9.44246 22.0235 9.31126 22.087 9.33176 22.1346C9.34862 22.1344 9.36492 22.1288 9.37823 22.1188C9.39154 22.1088 9.40113 22.0948 9.40556 22.0791C9.40556 22.0791 9.45066 22.0433 9.44246 22.0235Z" fill="#BC6815"/>
<path d="M9.39732 22.1704C9.33992 22.1981 9.28662 22.218 9.27022 22.2736C9.25382 22.3291 9.33582 22.3053 9.36042 22.2736C9.37752 22.2605 9.39097 22.2434 9.39956 22.224C9.40815 22.2046 9.41161 22.1834 9.40963 22.1624C9.40963 22.1624 9.40142 22.1704 9.39732 22.1704Z" fill="#BC6815"/>
</g>
<g style="mix-blend-mode:multiply" opacity="0.5">
<path d="M9.18024 22.2656C9.15926 22.2496 9.13316 22.2412 9.10645 22.2418C9.10645 22.2815 9.14744 22.3649 9.21305 22.3609C9.22321 22.3618 9.23341 22.3596 9.24223 22.3546C9.25104 22.3496 9.25804 22.3421 9.26225 22.3331C9.27865 22.3013 9.21715 22.2855 9.18024 22.2656Z" fill="#BC6815"/>
<path d="M9.12305 22.3728C9.12305 22.3728 9.16405 22.4601 9.21325 22.476C9.26245 22.4919 9.25835 22.476 9.25425 22.4482C9.25015 22.4204 9.16405 22.4046 9.12305 22.3728Z" fill="#BC6815"/>
<path d="M9.39732 22.4959C9.33992 22.5197 9.28662 22.5435 9.27022 22.5951C9.25382 22.6467 9.33582 22.6308 9.36042 22.5951C9.37724 22.5818 9.39049 22.5647 9.39906 22.5453C9.40762 22.526 9.41125 22.5049 9.40963 22.4839C9.40963 22.4839 9.40142 22.4919 9.39732 22.4959Z" fill="#BC6815"/>
<path d="M9.18024 22.607C9.15926 22.591 9.13316 22.5825 9.10645 22.5832C9.10645 22.5832 9.14744 22.7023 9.21305 22.7023C9.22345 22.7018 9.23353 22.6986 9.24219 22.693C9.25086 22.6874 9.2578 22.6796 9.26225 22.6705C9.27865 22.6467 9.21715 22.6268 9.18024 22.607Z" fill="#BC6815"/>
<path d="M9.12305 22.7181C9.13003 22.7404 9.14163 22.761 9.15714 22.7788C9.17265 22.7965 9.19175 22.811 9.21325 22.8213C9.21325 22.8213 9.25835 22.8213 9.25425 22.7936C9.25015 22.7658 9.16405 22.7459 9.12305 22.7181Z" fill="#BC6815"/>
<path d="M9.44268 22.6904C9.40578 22.7221 9.31148 22.7539 9.33198 22.7975C9.34851 22.7962 9.36426 22.7902 9.37735 22.7803C9.39045 22.7704 9.40032 22.7571 9.40578 22.742C9.40578 22.742 9.45088 22.7102 9.44268 22.6904Z" fill="#BC6815"/>
<path d="M9.39732 22.8372C9.33992 22.861 9.28662 22.8849 9.27022 22.9365C9.25382 22.9881 9.33582 22.9722 9.36042 22.9365C9.37724 22.9231 9.39049 22.9061 9.39906 22.8867C9.40762 22.8674 9.41125 22.8463 9.40963 22.8253C9.40963 22.8253 9.40142 22.8372 9.39732 22.8372Z" fill="#BC6815"/>
</g>
<g style="mix-blend-mode:multiply" opacity="0.5">
<path d="M9.60242 21.4995C9.57984 21.4919 9.55529 21.4919 9.53271 21.4995C9.53271 21.5392 9.57372 21.6226 9.63932 21.6186C9.64535 21.6198 9.65157 21.6197 9.65753 21.6182C9.6635 21.6167 9.66905 21.614 9.67378 21.6102C9.6785 21.6064 9.68228 21.6016 9.68483 21.5962C9.68738 21.5908 9.68865 21.5849 9.68852 21.5789C9.68852 21.5392 9.63932 21.5194 9.60242 21.4995Z" fill="#BC6815"/>
<path d="M9.54932 21.6146C9.54932 21.6146 9.59031 21.702 9.63542 21.7139C9.68052 21.7258 9.68462 21.7139 9.68052 21.6861C9.67642 21.6583 9.58622 21.6384 9.54932 21.6146Z" fill="#BC6815"/>
<path d="M9.8647 21.5789C9.8647 21.5789 9.7376 21.6385 9.7581 21.6861C9.8032 21.6861 9.8196 21.6583 9.836 21.6305C9.8524 21.6027 9.877 21.6027 9.8647 21.5789Z" fill="#BC6815"/>
<path d="M9.82379 21.7337C9.76229 21.7575 9.70898 21.7774 9.69258 21.833C9.67618 21.8885 9.75818 21.8647 9.78278 21.833C9.80124 21.8208 9.81595 21.8041 9.82534 21.7845C9.83473 21.7649 9.83844 21.7433 9.83609 21.7218C9.83609 21.7218 9.82789 21.7297 9.82379 21.7337Z" fill="#BC6815"/>
<path d="M9.60242 21.8449C9.58269 21.8294 9.55808 21.821 9.53271 21.821C9.53271 21.8607 9.57372 21.9441 9.63932 21.9401C9.64903 21.9415 9.65892 21.9394 9.66719 21.9343C9.67547 21.9292 9.68158 21.9214 9.68442 21.9123C9.68852 21.8806 9.63932 21.8647 9.60242 21.8449Z" fill="#BC6815"/>
<path d="M9.54932 21.9759C9.54932 21.9759 9.59031 22.0632 9.63542 22.0751C9.68052 22.087 9.68462 22.0751 9.68052 22.0473C9.67642 22.0196 9.58622 21.9759 9.54932 21.9759Z" fill="#BC6815"/>
<path d="M9.86486 21.9282C9.83206 21.956 9.73776 21.9878 9.75826 22.0354C9.80336 22.0354 9.81976 22.0076 9.83616 21.9838C9.85256 21.96 9.87716 21.9481 9.86486 21.9282Z" fill="#BC6815"/>
<path d="M9.82379 22.0751C9.76229 22.0989 9.70898 22.1227 9.69258 22.1743C9.67618 22.2259 9.75818 22.2101 9.78278 22.1743C9.80125 22.1613 9.81589 22.1438 9.82524 22.1236C9.83459 22.1034 9.83833 22.0812 9.83609 22.0592C9.83609 22.0592 9.82789 22.0711 9.82379 22.0751Z" fill="#BC6815"/>
</g>
<g style="mix-blend-mode:multiply" opacity="0.5">
<path d="M9.60242 22.1664C9.58269 22.151 9.55808 22.1426 9.53271 22.1426C9.53271 22.1783 9.57372 22.2617 9.63932 22.2617C9.64928 22.2614 9.65892 22.2582 9.66697 22.2526C9.67502 22.2469 9.68111 22.239 9.68442 22.2299C9.68852 22.2061 9.63932 22.1862 9.60242 22.1664Z" fill="#BC6815"/>
<path d="M9.54932 22.2775C9.55538 22.2996 9.56618 22.3202 9.58101 22.338C9.59585 22.3558 9.61438 22.3704 9.63542 22.3807L9.68872 22.3728C9.68872 22.3728 9.58622 22.3053 9.54932 22.2775Z" fill="#BC6815"/>
<path d="M9.86486 22.2498C9.83206 22.2815 9.73776 22.3133 9.75826 22.3569C9.77876 22.4006 9.75826 22.3569 9.75826 22.3569C9.75826 22.3569 9.81976 22.3291 9.83616 22.3014C9.85256 22.2736 9.87716 22.2696 9.86486 22.2498Z" fill="#BC6815"/>
<path d="M9.82379 22.3966C9.76229 22.4244 9.70898 22.4442 9.69258 22.4959C9.67618 22.5475 9.75818 22.5316 9.78278 22.4959C9.80124 22.4837 9.81595 22.467 9.82534 22.4474C9.83473 22.4278 9.83844 22.4062 9.83609 22.3847L9.82379 22.3966Z" fill="#BC6815"/>
<path d="M9.60242 22.5078C9.60242 22.5078 9.55732 22.48 9.53271 22.5078C9.53271 22.5435 9.57372 22.6308 9.63932 22.6269C9.64943 22.6272 9.65937 22.6243 9.66755 22.6185C9.67573 22.6128 9.68167 22.6045 9.68442 22.5951C9.68852 22.5475 9.63932 22.5276 9.60242 22.5078Z" fill="#BC6815"/>
<path d="M9.86486 22.5911C9.83206 22.6189 9.73776 22.6507 9.75826 22.6983C9.77876 22.7459 9.75826 22.6983 9.75826 22.6983C9.75826 22.6983 9.81976 22.6705 9.83616 22.6427C9.85256 22.6149 9.87716 22.611 9.86486 22.5911Z" fill="#BC6815"/>
<path d="M9.82379 22.738C9.76229 22.7658 9.70898 22.7857 9.69258 22.8413C9.67618 22.8968 9.75818 22.873 9.78278 22.8413C9.80124 22.8291 9.81595 22.8124 9.82534 22.7928C9.83473 22.7732 9.83844 22.7516 9.83609 22.7301C9.83609 22.7301 9.82789 22.738 9.82379 22.738Z" fill="#BC6815"/>
</g>
<g style="mix-blend-mode:multiply" opacity="0.5">
<path d="M10.0616 21.5987C10.0406 21.5827 10.0145 21.5743 9.98779 21.5749C9.98779 21.6106 10.0288 21.694 10.0944 21.694C10.1048 21.6935 10.1149 21.6903 10.1235 21.6847C10.1322 21.6791 10.1391 21.6714 10.1436 21.6623C10.1395 21.6384 10.0985 21.6186 10.0616 21.5987Z" fill="#BC6815"/>
<path d="M10.0044 21.7099C10.0114 21.7321 10.023 21.7528 10.0385 21.7705C10.054 21.7883 10.0731 21.8028 10.0946 21.8131C10.0946 21.8131 10.1397 21.8131 10.1356 21.7853C10.1315 21.7575 10.0454 21.7377 10.0044 21.7099Z" fill="#BC6815"/>
<path d="M10.3242 21.6821C10.3242 21.6821 10.1971 21.7456 10.2176 21.7893C10.2344 21.789 10.2507 21.7835 10.264 21.7734C10.2773 21.7634 10.2869 21.7495 10.2914 21.7337C10.2914 21.7337 10.3324 21.702 10.3242 21.6821Z" fill="#BC6815"/>
<path d="M10.2787 21.829C10.2213 21.8568 10.168 21.8766 10.1516 21.9282C10.1352 21.9798 10.2172 21.964 10.2418 21.9282C10.2589 21.9151 10.2723 21.8981 10.2809 21.8787C10.2895 21.8593 10.293 21.8381 10.291 21.8171C10.291 21.8171 10.2828 21.829 10.2787 21.829Z" fill="#BC6815"/>
<path d="M10.0616 21.9401C10.0406 21.9241 10.0145 21.9157 9.98779 21.9163C9.98779 21.952 10.0288 22.0394 10.0944 22.0354C10.105 22.036 10.1156 22.0332 10.1245 22.0275C10.1333 22.0217 10.1401 22.0134 10.1436 22.0036C10.1395 21.9758 10.0985 21.9758 10.0616 21.9401Z" fill="#BC6815"/>
<path d="M10.0044 22.0513C10.0044 22.0513 10.0454 22.1346 10.0946 22.1505C10.1438 22.1664 10.1397 22.1505 10.1356 22.1227C10.1315 22.0949 10.0454 22.0791 10.0044 22.0513Z" fill="#BC6815"/>
<path d="M10.3242 22.0235C10.3242 22.0235 10.1971 22.087 10.2176 22.1346C10.2344 22.1344 10.2507 22.1288 10.264 22.1188C10.2773 22.1088 10.2869 22.0948 10.2914 22.0791C10.2914 22.0791 10.3324 22.0433 10.3242 22.0235Z" fill="#BC6815"/>
<path d="M10.2787 22.1704C10.2213 22.1981 10.168 22.218 10.1516 22.2736C10.1352 22.3291 10.2172 22.3053 10.2418 22.2736C10.2589 22.2605 10.2723 22.2434 10.2809 22.224C10.2895 22.2046 10.293 22.1834 10.291 22.1624C10.291 22.1624 10.2828 22.1704 10.2787 22.1704Z" fill="#BC6815"/>
</g>
<g style="mix-blend-mode:multiply" opacity="0.5">
<path d="M10.0616 22.2656C10.0406 22.2496 10.0145 22.2412 9.98779 22.2418C9.98779 22.2815 10.0288 22.3649 10.0944 22.3609C10.1046 22.3618 10.1148 22.3596 10.1236 22.3546C10.1324 22.3496 10.1394 22.3421 10.1436 22.3331C10.1395 22.3013 10.0985 22.2855 10.0616 22.2656Z" fill="#BC6815"/>
<path d="M10.0044 22.3728C10.0044 22.3728 10.0454 22.4601 10.0946 22.476C10.1438 22.4919 10.1397 22.476 10.1356 22.4482C10.1315 22.4204 10.0454 22.4046 10.0044 22.3728Z" fill="#BC6815"/>
<path d="M10.2787 22.4959C10.2213 22.5197 10.168 22.5435 10.1516 22.5951C10.1352 22.6467 10.2172 22.6308 10.2418 22.5951C10.2586 22.5818 10.2718 22.5647 10.2804 22.5453C10.289 22.526 10.2926 22.5049 10.291 22.4839C10.291 22.4839 10.2828 22.4919 10.2787 22.4959Z" fill="#BC6815"/>
<path d="M10.0616 22.607C10.0406 22.591 10.0145 22.5825 9.98779 22.5832C9.98779 22.5832 10.0288 22.7023 10.0944 22.7023C10.1048 22.7018 10.1149 22.6986 10.1235 22.693C10.1322 22.6874 10.1391 22.6796 10.1436 22.6705C10.1395 22.6467 10.0985 22.6268 10.0616 22.607Z" fill="#BC6815"/>
<path d="M10.0044 22.7181C10.0114 22.7404 10.023 22.761 10.0385 22.7788C10.054 22.7965 10.0731 22.811 10.0946 22.8213C10.0946 22.8213 10.1397 22.8213 10.1356 22.7936C10.1315 22.7658 10.0454 22.7459 10.0044 22.7181Z" fill="#BC6815"/>
<path d="M10.3238 22.6904C10.291 22.7221 10.1967 22.7539 10.2172 22.7975C10.2338 22.7962 10.2495 22.7902 10.2626 22.7803C10.2757 22.7704 10.2856 22.7571 10.291 22.742C10.291 22.742 10.332 22.7102 10.3238 22.6904Z" fill="#BC6815"/>
<path d="M10.2787 22.8372C10.2213 22.861 10.168 22.8849 10.1516 22.9365C10.1352 22.9881 10.2172 22.9722 10.2418 22.9365C10.2586 22.9231 10.2718 22.9061 10.2804 22.8867C10.289 22.8674 10.2926 22.8463 10.291 22.8253C10.291 22.8253 10.2828 22.8372 10.2787 22.8372Z" fill="#BC6815"/>
</g>
<g style="mix-blend-mode:multiply" opacity="0.5">
<path d="M10.4838 21.4995C10.4612 21.4919 10.4366 21.4919 10.4141 21.4995C10.4141 21.5392 10.4551 21.6226 10.5207 21.6186C10.5309 21.6198 10.5413 21.6172 10.5496 21.6113C10.558 21.6054 10.5638 21.5967 10.5658 21.5868C10.5617 21.5392 10.5084 21.5194 10.4838 21.4995Z" fill="#BC6815"/>
<path d="M10.4307 21.6146C10.4307 21.6146 10.4717 21.702 10.5168 21.7139C10.5619 21.7258 10.566 21.7139 10.5578 21.6861C10.5496 21.6583 10.4676 21.6384 10.4307 21.6146Z" fill="#BC6815"/>
<path d="M10.746 21.5789C10.746 21.5789 10.6189 21.6385 10.6394 21.6861C10.6845 21.6861 10.7009 21.6583 10.7173 21.6305C10.7337 21.6027 10.7542 21.6027 10.746 21.5789Z" fill="#BC6815"/>
<path d="M10.701 21.7337C10.6436 21.7575 10.5903 21.7774 10.5739 21.833C10.5575 21.8885 10.6395 21.8647 10.6641 21.833C10.6817 21.82 10.6957 21.8032 10.705 21.7838C10.7143 21.7644 10.7186 21.7431 10.7174 21.7218C10.7174 21.7218 10.7092 21.7297 10.701 21.7337Z" fill="#BC6815"/>
<path d="M10.4838 21.8449C10.464 21.8294 10.4394 21.821 10.4141 21.821C10.4141 21.8607 10.4551 21.9441 10.5207 21.9401C10.5304 21.9415 10.5403 21.9394 10.5485 21.9343C10.5568 21.9292 10.5629 21.9214 10.5658 21.9123C10.5617 21.8806 10.5084 21.8647 10.4838 21.8449Z" fill="#BC6815"/>
<path d="M10.4307 21.9759C10.4307 21.9759 10.4717 22.0632 10.5168 22.0751C10.5619 22.087 10.566 22.0751 10.5578 22.0473C10.5496 22.0196 10.4676 21.9759 10.4307 21.9759Z" fill="#BC6815"/>
<path d="M10.7462 21.9282C10.7134 21.956 10.6191 21.9878 10.6396 22.0354C10.6847 22.0354 10.7011 22.0076 10.7175 21.9838C10.7339 21.96 10.7544 21.9481 10.7462 21.9282Z" fill="#BC6815"/>
<path d="M10.701 22.0751C10.6436 22.0989 10.5903 22.1227 10.5739 22.1743C10.5575 22.2259 10.6395 22.2101 10.6641 22.1743C10.682 22.1608 10.6962 22.1432 10.7055 22.1232C10.7148 22.1031 10.7189 22.0811 10.7174 22.0592C10.7174 22.0592 10.7092 22.0711 10.701 22.0751Z" fill="#BC6815"/>
</g>
<g style="mix-blend-mode:multiply" opacity="0.5">
<path d="M10.4838 22.1664C10.464 22.151 10.4394 22.1426 10.4141 22.1426C10.4141 22.1783 10.4551 22.2617 10.5207 22.2617C10.5306 22.2614 10.5403 22.2582 10.5483 22.2526C10.5564 22.2469 10.5624 22.239 10.5658 22.2299C10.5617 22.2061 10.5084 22.1862 10.4838 22.1664Z" fill="#BC6815"/>
<path d="M10.4307 22.2775C10.443 22.3178 10.4709 22.352 10.5086 22.3728C10.5086 22.3728 10.5578 22.3728 10.5496 22.345C10.5414 22.3172 10.4676 22.3053 10.4307 22.2775Z" fill="#BC6815"/>
<path d="M10.7462 22.2498C10.7134 22.2815 10.6191 22.3133 10.6396 22.3569C10.6601 22.4006 10.6396 22.3569 10.6396 22.3569C10.6396 22.3569 10.7011 22.3291 10.7175 22.3014C10.7339 22.2736 10.7544 22.2696 10.7462 22.2498Z" fill="#BC6815"/>
<path d="M10.701 22.3966C10.6436 22.4244 10.5903 22.4442 10.5739 22.4959C10.5575 22.5475 10.6395 22.5316 10.6641 22.4959C10.6817 22.4829 10.6957 22.4661 10.705 22.4467C10.7143 22.4273 10.7186 22.406 10.7174 22.3847L10.701 22.3966Z" fill="#BC6815"/>
<path d="M10.4838 22.5078C10.4633 22.5078 10.4387 22.48 10.4141 22.5078C10.4141 22.5435 10.4551 22.6308 10.5207 22.6269C10.5308 22.6272 10.5407 22.6243 10.5489 22.6185C10.5571 22.6128 10.563 22.6045 10.5658 22.5951C10.5617 22.5475 10.5084 22.5276 10.4838 22.5078Z" fill="#BC6815"/>
<path d="M10.7462 22.5911C10.7134 22.6189 10.6191 22.6507 10.6396 22.6983C10.6601 22.7459 10.6396 22.6983 10.6396 22.6983C10.6396 22.6983 10.7011 22.6705 10.7175 22.6427C10.7339 22.6149 10.7544 22.611 10.7462 22.5911Z" fill="#BC6815"/>
<path d="M10.701 22.738C10.6436 22.7658 10.5903 22.7857 10.5739 22.8413C10.5575 22.8968 10.6395 22.873 10.6641 22.8413C10.6817 22.8283 10.6957 22.8115 10.705 22.7921C10.7143 22.7727 10.7186 22.7514 10.7174 22.7301C10.7174 22.7301 10.7092 22.738 10.701 22.738Z" fill="#BC6815"/>
</g>
<path d="M10.9188 21.3645L10.845 21.5947L10.7466 21.3645H10.7056L10.8327 21.6543L10.927 21.3685L10.9188 21.3645Z" fill="#5B593D"/>
<path d="M10.9185 21.5074H10.898C10.898 21.5074 10.8652 21.4796 10.8529 21.4836C10.8406 21.4876 10.8324 21.4836 10.816 21.5074C10.811 21.5102 10.8053 21.5117 10.7996 21.5117C10.7938 21.5117 10.7882 21.5102 10.7832 21.5074C10.7832 21.5074 10.7504 21.5074 10.7422 21.5074L10.7955 21.6503H10.8857L10.9472 21.5034L10.9185 21.5074Z" fill="#A99070"/>
<path d="M10.9185 21.5074H10.898C10.898 21.5074 10.8652 21.4796 10.8529 21.4836C10.8406 21.4876 10.8324 21.4836 10.816 21.5074C10.811 21.5102 10.8053 21.5117 10.7996 21.5117C10.7938 21.5117 10.7882 21.5102 10.7832 21.5074C10.7832 21.5074 10.7504 21.5074 10.7422 21.5074L10.7955 21.6503H10.8857L10.9472 21.5034L10.9185 21.5074Z" fill="#A99070"/>
<g style="mix-blend-mode:multiply" opacity="0.3">
<path d="M10.9185 21.5075H10.898C10.8998 21.5299 10.8998 21.5525 10.898 21.5749V21.6186C10.898 21.6186 10.8775 21.5789 10.8775 21.571C10.8756 21.5512 10.8756 21.5312 10.8775 21.5114C10.8775 21.5432 10.8775 21.5749 10.8775 21.6067C10.8775 21.6385 10.8775 21.6067 10.8775 21.6067C10.876 21.5948 10.876 21.5828 10.8775 21.571C10.8775 21.571 10.8775 21.5948 10.8775 21.6067C10.8775 21.6186 10.8775 21.6067 10.8775 21.6067C10.856 21.5814 10.838 21.5533 10.8242 21.5233L10.8693 21.6385H10.9595L11.021 21.4916L10.9185 21.5075Z" fill="#A99070"/>
</g>
<path d="M10.8204 21.6265C10.7723 21.6361 10.7301 21.6635 10.7025 21.7027C10.675 21.742 10.6643 21.7901 10.6728 21.8369C10.6728 22.0195 10.9967 22.0235 11.0008 21.8369C11.0049 21.6503 10.9188 21.6265 10.8204 21.6265Z" fill="#A99070"/>
<g style="mix-blend-mode:multiply" opacity="0.3">
<path d="M10.8201 21.6265C10.7943 21.6306 10.7701 21.6416 10.7504 21.6583C10.7504 21.6583 10.7504 21.6821 10.7504 21.694C10.7518 21.7032 10.7518 21.7126 10.7504 21.7218C10.7504 21.7218 10.7504 21.6781 10.7914 21.6781C10.8324 21.6781 10.8201 21.7258 10.8201 21.7416C10.8223 21.776 10.8223 21.8105 10.8201 21.8449C10.8289 21.8122 10.8358 21.779 10.8406 21.7456C10.8406 21.7456 10.8406 21.7019 10.8652 21.694C10.8898 21.6861 10.9062 21.7258 10.9103 21.7377C10.9204 21.7622 10.9286 21.7874 10.9349 21.8131C10.943 21.7698 10.943 21.7254 10.9349 21.6821C10.9571 21.7052 10.9728 21.7333 10.9807 21.7638C10.9886 21.7944 10.9884 21.8263 10.98 21.8568C10.97 21.8851 10.9513 21.9098 10.9264 21.9275C10.9015 21.9452 10.8716 21.9552 10.8406 21.956C10.8085 21.9589 10.7763 21.9516 10.7489 21.9351C10.7215 21.9186 10.7004 21.8939 10.6889 21.8647C10.687 21.8529 10.687 21.8408 10.6889 21.829C10.6889 22.0116 11.0129 22.0155 11.017 21.829C11.0211 21.6424 10.9185 21.6265 10.8201 21.6265Z" fill="#A99070"/>
</g>
<g style="mix-blend-mode:multiply">
<path d="M10.7628 21.7099C10.7628 21.6861 10.7915 21.6622 10.8038 21.6345C10.7662 21.67 10.7405 21.7156 10.73 21.7655L10.7628 21.7099Z" fill="#A99070"/>
<path d="M10.8365 21.6464C10.8345 21.6675 10.8345 21.6888 10.8365 21.7099C10.8345 21.7323 10.8345 21.7549 10.8365 21.7774C10.8383 21.7576 10.8383 21.7376 10.8365 21.7178C10.8421 21.6943 10.8421 21.6699 10.8365 21.6464Z" fill="#A99070"/>
<path d="M10.8897 21.6861C10.8884 21.6979 10.8884 21.7099 10.8897 21.7218C10.8915 21.706 10.8915 21.69 10.8897 21.6742C10.8839 21.6576 10.8723 21.6436 10.8569 21.6345C10.8662 21.6526 10.8772 21.6699 10.8897 21.6861Z" fill="#A99070"/>
</g>
<g style="mix-blend-mode:multiply">
<path d="M10.8076 21.6384C10.8092 21.6239 10.8092 21.6093 10.8076 21.5948C10.8087 21.5802 10.8087 21.5656 10.8076 21.5511C10.8076 21.5789 10.8281 21.6106 10.8404 21.6384C10.8527 21.6662 10.8076 21.6384 10.8076 21.6384Z" fill="#A99070"/>
</g>
<g style="mix-blend-mode:multiply">
<path d="M10.8447 21.5987C10.8447 21.5987 10.8447 21.5709 10.8447 21.559C10.8426 21.5722 10.8426 21.5856 10.8447 21.5987C10.8408 21.613 10.8408 21.6281 10.8447 21.6424C10.8447 21.6424 10.8447 21.6106 10.8447 21.5987Z" fill="#A99070"/>
</g>
<g style="mix-blend-mode:multiply">
<path d="M10.8774 21.6027C10.8794 21.5908 10.8794 21.5788 10.8774 21.567C10.8774 21.567 10.8774 21.567 10.8774 21.567C10.8774 21.567 10.8774 21.5908 10.8774 21.6027C10.8774 21.6146 10.8774 21.6027 10.8774 21.6305C10.8774 21.6583 10.8774 21.6305 10.8774 21.6305C10.8796 21.6213 10.8796 21.6118 10.8774 21.6027Z" fill="#A99070"/>
</g>
<path d="M10.9187 21.6226C10.88 21.6344 10.8385 21.6344 10.7998 21.6226C10.7998 21.6226 10.7998 21.6226 10.7998 21.6226C10.7998 21.6226 10.9105 21.6623 10.9351 21.6226C10.9597 21.5829 10.9187 21.6186 10.9187 21.6226Z" fill="#808462"/>
<path d="M10.0123 21.3645L9.94263 21.5947L9.84012 21.3645H9.80322L9.92623 21.6543L10.0164 21.3685L10.0123 21.3645Z" fill="#5B593D"/>
<path d="M10.0083 21.5074H9.98783C9.98783 21.5074 9.95913 21.4796 9.94683 21.4836C9.93453 21.4876 9.92223 21.4836 9.90993 21.5074C9.90421 21.5102 9.89789 21.5117 9.89148 21.5117C9.88507 21.5117 9.87875 21.5102 9.87303 21.5074C9.87303 21.5074 9.84433 21.5074 9.83203 21.5074L9.88943 21.6503H9.97553L10.037 21.5034C10.037 21.5034 10.0165 21.5074 10.0083 21.5074Z" fill="#A99070"/>
<path d="M10.0083 21.5074H9.98783C9.98783 21.5074 9.95913 21.4796 9.94683 21.4836C9.93453 21.4876 9.92223 21.4836 9.90993 21.5074C9.90421 21.5102 9.89789 21.5117 9.89148 21.5117C9.88507 21.5117 9.87875 21.5102 9.87303 21.5074C9.87303 21.5074 9.84433 21.5074 9.83203 21.5074L9.88943 21.6503H9.97553L10.037 21.5034C10.037 21.5034 10.0165 21.5074 10.0083 21.5074Z" fill="#A99070"/>
<g style="mix-blend-mode:multiply" opacity="0.3">
<path d="M10.0082 21.5075H9.98766C9.98766 21.5075 9.98766 21.5511 9.98766 21.5749C9.98766 21.5988 9.98766 21.6186 9.98766 21.6186C9.98766 21.6186 9.96716 21.5789 9.96716 21.571V21.5114C9.96716 21.5432 9.96716 21.5749 9.96716 21.6067C9.96716 21.6385 9.96716 21.6067 9.96716 21.6067C9.95881 21.5957 9.95192 21.5837 9.94667 21.571C9.94866 21.5828 9.94866 21.5949 9.94667 21.6067C9.92786 21.5803 9.9114 21.5524 9.89746 21.5233L9.94256 21.6385H10.0287L10.0902 21.4916C10.0902 21.4916 10.0164 21.5075 10.0082 21.5075Z" fill="#A99070"/>
</g>
<path d="M9.91412 21.6265C9.86609 21.6361 9.82382 21.6635 9.79626 21.7027C9.7687 21.742 9.75803 21.7901 9.76651 21.8369C9.76651 22.0195 10.0945 22.0235 10.0986 21.8369C10.1027 21.6503 10.0084 21.6265 9.91412 21.6265Z" fill="#A99070"/>
<g style="mix-blend-mode:multiply" opacity="0.3">
<path d="M9.91408 21.6265C9.88846 21.6313 9.8645 21.6422 9.84438 21.6583C9.84438 21.6583 9.84438 21.6821 9.84438 21.694V21.7218C9.84438 21.7218 9.86487 21.6781 9.88537 21.6781C9.90587 21.6781 9.91408 21.7258 9.91408 21.7416C9.91613 21.776 9.91613 21.8105 9.91408 21.8449C9.91214 21.8118 9.91214 21.7787 9.91408 21.7456C9.91408 21.7456 9.91408 21.7019 9.93458 21.694C9.95508 21.6861 9.97558 21.7258 9.98378 21.7377C9.98748 21.7627 9.98748 21.7881 9.98378 21.8131C9.99396 21.77 9.99396 21.7252 9.98378 21.6821C10.0066 21.7047 10.0228 21.7328 10.0307 21.7635C10.0386 21.7942 10.038 21.8264 10.0289 21.8568C10.0202 21.8851 10.0023 21.91 9.97801 21.9278C9.95368 21.9457 9.9241 21.9555 9.89358 21.956C9.861 21.9585 9.82842 21.9511 9.80046 21.9347C9.7725 21.9183 9.75057 21.8938 9.73777 21.8647C9.73585 21.8529 9.73585 21.8408 9.73777 21.829C9.73777 22.0116 10.0658 22.0155 10.0699 21.829C10.074 21.6424 10.0084 21.6265 9.91408 21.6265Z" fill="#A99070"/>
</g>
<g style="mix-blend-mode:multiply">
<path d="M9.85653 21.7099C9.87262 21.686 9.88634 21.6608 9.89753 21.6345C9.86278 21.672 9.83752 21.7168 9.82373 21.7655C9.83619 21.7478 9.84716 21.7292 9.85653 21.7099Z" fill="#A99070"/>
<path d="M9.93035 21.6464C9.92634 21.6674 9.92634 21.6889 9.93035 21.7099C9.92426 21.732 9.92426 21.7553 9.93035 21.7774C9.93227 21.7576 9.93227 21.7376 9.93035 21.7178C9.93419 21.6941 9.93419 21.67 9.93035 21.6464Z" fill="#A99070"/>
<path d="M9.98349 21.6861L10.0081 21.7218C10.0118 21.7061 10.0118 21.6898 10.0081 21.6742C9.99931 21.6582 9.98664 21.6446 9.97119 21.6345C9.97387 21.652 9.97798 21.6692 9.98349 21.6861Z" fill="#A99070"/>
</g>
<g style="mix-blend-mode:multiply">
<path d="M9.9058 21.6384C9.8973 21.6247 9.89042 21.61 9.8853 21.5948C9.88459 21.5802 9.88459 21.5656 9.8853 21.5511C9.8958 21.5809 9.90812 21.61 9.9222 21.6384H9.9058Z" fill="#A99070"/>
</g>
<g style="mix-blend-mode:multiply">
<path d="M9.93848 21.5987V21.5789V21.6186C9.93848 21.6186 9.93848 21.6503 9.93848 21.6622C9.9437 21.6413 9.9437 21.6196 9.93848 21.5987Z" fill="#A99070"/>
</g>
<g style="mix-blend-mode:multiply">
<path d="M9.97556 21.6027V21.5789V21.6146C9.97364 21.619 9.97266 21.6237 9.97266 21.6285C9.97266 21.6333 9.97364 21.638 9.97556 21.6424V21.6027Z" fill="#A99070"/>
</g>
<path d="M9.99585 21.6226C9.95717 21.6344 9.91564 21.6344 9.87695 21.6226C9.87695 21.6226 9.87695 21.6226 9.87695 21.6226C9.87695 21.6226 9.99175 21.6623 10.0123 21.6226C10.0328 21.5829 10.0041 21.6186 9.99585 21.6226Z" fill="#808462"/>
<path d="M9.11017 21.3645L9.03638 21.5947L8.93797 21.3645H8.89697L9.01997 21.6543L9.11017 21.3685V21.3645Z" fill="#5B593D"/>
<path d="M9.10619 21.5074H9.08569C9.08569 21.5074 9.05288 21.4796 9.04058 21.4836C9.02828 21.4876 9.01599 21.4836 9.00368 21.5074C8.9987 21.5102 8.99304 21.5117 8.98728 21.5117C8.98152 21.5117 8.97587 21.5102 8.97088 21.5074C8.97088 21.5074 8.93808 21.5074 8.92578 21.5074L8.98318 21.6503H9.07339L9.13489 21.5034C9.13489 21.5034 9.11439 21.5074 9.10619 21.5074Z" fill="#A99070"/>
<path d="M9.10619 21.5074H9.08569C9.08569 21.5074 9.05288 21.4796 9.04058 21.4836C9.02828 21.4876 9.01599 21.4836 9.00368 21.5074C8.9987 21.5102 8.99304 21.5117 8.98728 21.5117C8.98152 21.5117 8.97587 21.5102 8.97088 21.5074C8.97088 21.5074 8.93808 21.5074 8.92578 21.5074L8.98318 21.6503H9.07339L9.13489 21.5034C9.13489 21.5034 9.11439 21.5074 9.10619 21.5074Z" fill="#A99070"/>
<g style="mix-blend-mode:multiply" opacity="0.3">
<path d="M9.1065 21.5075H9.086C9.086 21.5075 9.086 21.5511 9.086 21.5749C9.086 21.5988 9.086 21.6186 9.0655 21.6186C9.045 21.6186 9.0655 21.5789 9.045 21.571C9.0245 21.563 9.045 21.5313 9.045 21.5114C9.04705 21.5432 9.04705 21.575 9.045 21.6067C9.04345 21.5948 9.04345 21.5828 9.045 21.571C9.04301 21.5828 9.04301 21.5949 9.045 21.6067C9.02344 21.5814 9.00552 21.5533 8.9917 21.5233L9.0368 21.6385H9.127L9.1885 21.4916C9.1885 21.4916 9.1147 21.5075 9.1065 21.5075Z" fill="#A99070"/>
</g>
<path d="M9.01224 21.6265C8.96395 21.6362 8.92132 21.6633 8.8931 21.7025C8.86488 21.7416 8.85322 21.7897 8.86053 21.8369C8.86053 22.0195 9.18854 22.0235 9.19264 21.8369C9.19674 21.6503 9.10244 21.6265 9.01224 21.6265Z" fill="#A99070"/>
<g style="mix-blend-mode:multiply" opacity="0.3">
<path d="M9.01225 21.6265C8.9853 21.631 8.95993 21.6419 8.93845 21.6583C8.93845 21.6583 8.93845 21.6821 8.93845 21.694C8.93792 21.7033 8.93792 21.7125 8.93845 21.7218C8.93845 21.7218 8.93845 21.6781 8.97945 21.6781C9.02045 21.6781 9.00815 21.7258 9.00815 21.7416C9.00815 21.7575 9.00815 21.8131 9.00815 21.8449C9.00815 21.8131 9.00815 21.7774 9.00815 21.7456C9.00815 21.7139 9.00815 21.7019 9.03275 21.694C9.05735 21.6861 9.07375 21.7258 9.07785 21.7377C9.0879 21.7622 9.09613 21.7874 9.10246 21.8131C9.1125 21.77 9.1125 21.7252 9.10246 21.6821C9.12599 21.7043 9.14295 21.7322 9.1516 21.7629C9.16025 21.7937 9.16027 21.826 9.15166 21.8568C9.14115 21.8848 9.1223 21.9092 9.09749 21.9268C9.07268 21.9445 9.04302 21.9547 9.01225 21.956C8.97967 21.9585 8.94709 21.9511 8.91913 21.9347C8.89117 21.9183 8.86924 21.8938 8.85645 21.8647C8.85645 21.8647 8.85645 21.8409 8.85645 21.829C8.85645 22.0116 9.18445 22.0155 9.18855 21.829C9.19265 21.6424 9.10246 21.6265 9.01225 21.6265Z" fill="#A99070"/>
</g>
<g style="mix-blend-mode:multiply">
<path d="M8.95439 21.7099C8.96912 21.6859 8.98148 21.6607 8.99129 21.6345C8.95654 21.672 8.93127 21.7168 8.91748 21.7655L8.95439 21.7099Z" fill="#A99070"/>
<path d="M9.02395 21.6464C9.02196 21.6675 9.02196 21.6888 9.02395 21.7099C9.02198 21.7323 9.02198 21.7549 9.02395 21.7774C9.02581 21.7576 9.02581 21.7376 9.02395 21.7178C9.03125 21.6945 9.03125 21.6697 9.02395 21.6464Z" fill="#A99070"/>
<path d="M9.07753 21.6861L9.10214 21.7218C9.1039 21.706 9.1039 21.69 9.10214 21.6742C9.09354 21.6593 9.08245 21.6459 9.06934 21.6345C9.07056 21.6519 9.0733 21.6691 9.07753 21.6861Z" fill="#A99070"/>
</g>
<g style="mix-blend-mode:multiply">
<path d="M8.99951 21.6384C9.00105 21.6239 9.00105 21.6093 8.99951 21.5948C9.0006 21.5802 9.0006 21.5656 8.99951 21.5511C9.01001 21.5809 9.02233 21.61 9.03641 21.6384H8.99951Z" fill="#A99070"/>
</g>
<g style="mix-blend-mode:multiply">
<path d="M9.03668 21.5987C9.03465 21.5856 9.03465 21.5722 9.03668 21.559C9.03465 21.5722 9.03465 21.5856 9.03668 21.5987C9.03465 21.6132 9.03465 21.6279 9.03668 21.6424C9.03912 21.6279 9.03912 21.6132 9.03668 21.5987Z" fill="#A99070"/>
</g>
<g style="mix-blend-mode:multiply">
<path d="M9.06936 21.6027C9.06737 21.5908 9.06737 21.5788 9.06936 21.567C9.06936 21.567 9.06936 21.5908 9.06936 21.6027C9.06936 21.6146 9.06936 21.6027 9.06936 21.6305C9.06936 21.6583 9.06936 21.6305 9.06936 21.6305V21.6027Z" fill="#A99070"/>
</g>
<path d="M9.094 21.6226C9.05532 21.6344 9.01378 21.6344 8.9751 21.6226C8.9751 21.6226 8.9751 21.6226 8.9751 21.6226C8.9751 21.6226 9.0899 21.6623 9.1104 21.6226C9.1309 21.5829 9.10221 21.6186 9.094 21.6226Z" fill="#808462"/>
<path d="M8.20442 21.3645L8.13061 21.5947L8.03221 21.3645H7.99121L8.11831 21.6543L8.21262 21.3685L8.20442 21.3645Z" fill="#5B593D"/>
<path d="M8.20023 21.5074H8.17973C8.17973 21.5074 8.14693 21.4796 8.13463 21.4836C8.12233 21.4876 8.11413 21.4836 8.10183 21.5074C8.09611 21.5102 8.08979 21.5117 8.08338 21.5117C8.07697 21.5117 8.07065 21.5102 8.06492 21.5074C8.06492 21.5074 8.03623 21.5074 8.02393 21.5074L8.07723 21.6503H8.16743L8.22893 21.5034C8.22893 21.5034 8.20843 21.5074 8.20023 21.5074Z" fill="#A99070"/>
<path d="M8.20023 21.5074H8.17973C8.17973 21.5074 8.14693 21.4796 8.13463 21.4836C8.12233 21.4876 8.11413 21.4836 8.10183 21.5074C8.09611 21.5102 8.08979 21.5117 8.08338 21.5117C8.07697 21.5117 8.07065 21.5102 8.06492 21.5074C8.06492 21.5074 8.03623 21.5074 8.02393 21.5074L8.07723 21.6503H8.16743L8.22893 21.5034C8.22893 21.5034 8.20843 21.5074 8.20023 21.5074Z" fill="#A99070"/>
<g style="mix-blend-mode:multiply" opacity="0.3">
<path d="M8.20025 21.5075H8.17976C8.18154 21.5299 8.18154 21.5525 8.17976 21.5749V21.6186C8.17976 21.6186 8.15925 21.5789 8.15925 21.571V21.5114C8.15925 21.5432 8.15925 21.5749 8.15925 21.6067C8.15925 21.6385 8.15925 21.6067 8.15925 21.6067C8.14932 21.5967 8.14225 21.5844 8.13875 21.571C8.13875 21.571 8.13875 21.5948 8.13875 21.6067C8.13875 21.6186 8.13875 21.6067 8.13875 21.6067C8.1172 21.5814 8.09927 21.5533 8.08545 21.5233L8.13055 21.6385H8.22075L8.28226 21.4916C8.28226 21.4916 8.20845 21.5075 8.20025 21.5075Z" fill="#A99070"/>
</g>
<path d="M8.10601 21.6265C8.05798 21.6361 8.01571 21.6635 7.98815 21.7027C7.9606 21.742 7.94993 21.7901 7.95841 21.8369C7.95841 22.0195 8.28232 22.0235 8.28642 21.8369C8.29052 21.6503 8.19621 21.6265 8.10601 21.6265Z" fill="#A99070"/>
<g style="mix-blend-mode:multiply" opacity="0.3">
<path d="M8.10578 21.6265C8.08017 21.6313 8.0562 21.6422 8.03608 21.6583C8.03608 21.6583 8.03608 21.6821 8.03608 21.694C8.03742 21.7032 8.03742 21.7126 8.03608 21.7218C8.03608 21.7218 8.05658 21.6781 8.07708 21.6781C8.09758 21.6781 8.10578 21.7258 8.10578 21.7416C8.10996 21.7759 8.10996 21.8106 8.10578 21.8449L8.13038 21.7456C8.13038 21.7456 8.13038 21.7019 8.15088 21.694C8.17138 21.6861 8.19188 21.7258 8.20008 21.7377C8.20194 21.7628 8.20194 21.788 8.20008 21.8131C8.20815 21.7698 8.20815 21.7254 8.20008 21.6821C8.22221 21.7052 8.23795 21.7333 8.24583 21.7638C8.25372 21.7944 8.25349 21.8263 8.24518 21.8568C8.23516 21.8851 8.21644 21.9098 8.19153 21.9275C8.16661 21.9452 8.13669 21.9552 8.10578 21.956C8.07366 21.9589 8.04144 21.9516 8.01404 21.9351C7.98665 21.9186 7.96558 21.8939 7.95408 21.8647C7.95216 21.8529 7.95216 21.8408 7.95408 21.829C7.95408 22.0116 8.27799 22.0155 8.28209 21.829C8.28619 21.6424 8.19598 21.6265 8.10578 21.6265Z" fill="#A99070"/>
</g>
<g style="mix-blend-mode:multiply">
<path d="M8.04843 21.7099C8.04843 21.6861 8.07713 21.6622 8.08943 21.6345C8.05184 21.67 8.02613 21.7156 8.01562 21.7655L8.04843 21.7099Z" fill="#A99070"/>
<path d="M8.12212 21.6464C8.12212 21.6464 8.12212 21.69 8.12212 21.7099C8.11815 21.7322 8.11815 21.755 8.12212 21.7774V21.7178C8.12773 21.6943 8.12773 21.6699 8.12212 21.6464Z" fill="#A99070"/>
<path d="M8.17568 21.6861C8.18097 21.6996 8.18938 21.7119 8.20028 21.7218C8.20204 21.706 8.20204 21.69 8.20028 21.6742C8.19442 21.6576 8.18283 21.6436 8.16748 21.6345C8.16882 21.6518 8.17156 21.6691 8.17568 21.6861Z" fill="#A99070"/>
</g>
<g style="mix-blend-mode:multiply">
<path d="M8.09379 21.6384C8.09379 21.6384 8.09379 21.6106 8.09379 21.5948C8.09308 21.5802 8.09308 21.5656 8.09379 21.5511C8.09379 21.5789 8.09379 21.6106 8.12659 21.6384C8.15939 21.6662 8.09789 21.6384 8.09379 21.6384Z" fill="#A99070"/>
</g>
<g style="mix-blend-mode:multiply">
<path d="M8.13031 21.5987V21.5789C8.13031 21.5789 8.13031 21.6066 8.13031 21.6186C8.12649 21.6329 8.12649 21.6479 8.13031 21.6622C8.13031 21.6622 8.13031 21.6106 8.13031 21.5987Z" fill="#A99070"/>
</g>
<g style="mix-blend-mode:multiply">
<path d="M8.16735 21.6027V21.5789C8.16735 21.5789 8.16735 21.6027 8.16735 21.6146V21.6424C8.16735 21.6424 8.16325 21.6106 8.16735 21.6027Z" fill="#A99070"/>
</g>
<path d="M8.18775 21.6226C8.14906 21.6344 8.10753 21.6344 8.06885 21.6226C8.06885 21.6226 8.06885 21.6226 8.06885 21.6226C8.06885 21.6226 8.17955 21.6623 8.20415 21.6226C8.22875 21.5829 8.19595 21.6186 8.18775 21.6226Z" fill="#808462"/>
<path d="M7.52783 16.6883L7.72054 17.6092C7.72054 17.6092 8.92188 17.9149 11.2344 17.6092L11.423 16.7002L7.52783 16.6883Z" fill="#5C275D"/>
<path d="M10.1643 16.6883C10.1643 16.9027 10.1151 17.117 10.0946 17.3274C10.0946 17.4544 10.0741 17.5815 10.0659 17.7244C10.4144 17.7244 10.8039 17.6688 11.2345 17.6132L11.4231 16.7042L10.1643 16.6883Z" fill="#330234"/>
<path d="M8.34361 16.6883H7.93359C7.9828 17.0098 8.01969 17.3353 8.05249 17.6569C8.155 17.6569 8.278 17.6847 8.42561 17.6966C8.40101 17.3631 8.37231 17.0257 8.34361 16.6883Z" fill="#733674"/>
<g style="mix-blend-mode:multiply">
<path d="M9.6435 17.0694C10.2249 17.0551 10.8045 17.0007 11.3779 16.9066L11.423 16.6883H7.52783L7.58934 16.9781C8.26928 17.074 8.95734 17.1045 9.6435 17.0694Z" fill="#2C6486"/>
</g>
<g style="mix-blend-mode:multiply" opacity="0.7">
<path d="M6.7693 15.4379L6.7201 15.3108L6.6709 15.2433C6.7037 15.3029 6.7324 15.3664 6.7652 15.4299L6.7693 15.4379Z" fill="#B1B2B2"/>
</g>
<path d="M8.09366 0.206442C7.62789 0.122606 7.1465 0.202865 6.73652 0.432711C5.64589 1.78635 5.42858 3.66795 5.50648 5.36695C5.64999 9.50727 7.23674 13.5682 8.59798 17.4029H9.09819C8.26177 12.0518 6.74472 5.62895 8.09366 0.206442Z" fill="#2CBFCA"/>
<path d="M6.73642 0.432678C5.98695 0.444602 5.25901 0.67722 4.64946 1.09958C0.983944 5.98618 5.66219 13.1593 8.10996 17.375L8.58148 17.4028C7.22024 13.5682 5.63349 9.50724 5.48998 5.36692C5.42848 3.66792 5.64579 1.78632 6.73642 0.432678Z" fill="#2273A0"/>
<path d="M4.64965 1.09961C3.58339 1.31688 2.64236 1.91859 2.01736 2.78273C-0.85273 7.68918 4.92845 13.8699 7.61814 17.2838L7.69604 17.3393L8.10605 17.3751C5.66238 13.1593 0.984133 5.98622 4.64965 1.09961Z" fill="#2CBFCA"/>
<path d="M2.01718 2.78271C1.20602 3.54395 0.608092 4.49236 0.279599 5.53883C-0.0488936 6.5853 -0.0971613 7.69545 0.139327 8.76494C0.87325 12.3098 4.90367 15.3307 7.61796 17.2838C4.92827 13.8699 -0.85701 7.6852 2.01718 2.78271Z" fill="#2273A0"/>
<path d="M12.3207 0.444595C11.8875 0.274959 11.4223 0.195172 10.9553 0.210387C12.2961 5.63686 10.779 12.0438 9.95898 17.4068L10.4633 17.383C11.8204 13.5602 13.4031 9.51122 13.5548 5.38678C13.6204 3.68381 13.4031 1.80221 12.3207 0.444595Z" fill="#2CBFCA"/>
<path d="M17.1259 2.92163C19.7992 7.82412 14.0508 13.9056 11.3857 17.2837C14.0959 15.3307 18.1305 12.3098 18.8603 8.76492C19.0903 7.72797 19.0523 6.65209 18.7498 5.63275C18.4472 4.61341 17.8894 3.68216 17.1259 2.92163Z" fill="#2273A0"/>
<path d="M17.1264 2.92165C16.4485 2.05675 15.4988 1.42845 14.4203 1.13135C18.0325 6.02192 13.387 13.1434 10.9434 17.3512L11.3534 17.3115L11.3944 17.2838C14.0513 13.9056 19.7996 7.82413 17.1264 2.92165Z" fill="#2CBFCA"/>
<path d="M10.9554 0.210537C10.02 -0.0656217 9.02075 -0.0656217 8.08532 0.210537C6.73637 5.63304 8.25342 12.0559 9.07345 17.4228H9.48346H9.94267C10.7791 12.0519 12.2961 5.63701 10.9554 0.210537Z" fill="#2273A0"/>
<path d="M14.4202 1.13132C13.8018 0.714491 13.0738 0.476331 12.3209 0.44458C13.4034 1.80219 13.6207 3.68379 13.551 5.38676C13.3993 9.5112 11.8166 13.5602 10.4595 17.383L10.9392 17.3512C13.3788 13.1434 18.0324 6.0219 14.4202 1.13132Z" fill="#2273A0"/>
<g style="mix-blend-mode:multiply">
<path d="M6.9126 12.4487L8.45835 17.121L6.9126 12.4487Z" fill="#B1B2B2"/>
</g>
</g>
<defs>
<clipPath id="clip0_1232_6883">
<rect width="19" height="23" fill="white"/>
</clipPath>
</defs>
</svg>
