<svg width="22" height="22" viewBox="0 0 22 22" fill="none" xmlns="http://www.w3.org/2000/svg">
<g clip-path="url(#clip0_1232_3489)">
<path d="M12.5697 12.9298L11.7126 12.2413C11.5928 12.1346 11.5192 11.9855 11.5075 11.8255C11.4958 11.6655 11.5468 11.5072 11.6498 11.3842L11.9098 11.0614L13.6952 12.4898L13.4381 12.8155C13.3888 12.8803 13.3271 12.9347 13.2567 12.9755C13.1863 13.0163 13.1084 13.0428 13.0277 13.0534C12.947 13.0641 12.8649 13.0586 12.7863 13.0374C12.7077 13.0162 12.6341 12.9796 12.5697 12.9298ZM11.9183 11.1986L11.7241 11.4385C11.6364 11.5412 11.5926 11.6743 11.6023 11.809C11.6119 11.9437 11.6741 12.0692 11.7755 12.1584L12.6325 12.8469C12.7418 12.9259 12.8779 12.9585 13.0111 12.9376C13.1443 12.9168 13.2639 12.8441 13.3439 12.7355L13.5353 12.4927L11.9183 11.1986Z" fill="#575756"/>
<path d="M21.0602 17.5834L16.9464 14.2981L15.9637 14.081C15.7525 14.0359 15.563 13.92 15.4266 13.7525L12.9184 10.6957L12.2642 11.5156C13.3312 12.2683 14.0597 13.4103 14.2925 14.6952C14.3189 14.8502 14.3816 14.9967 14.4754 15.1228C14.5693 15.2489 14.6916 15.351 14.8324 15.4208L15.1524 15.578C15.2783 15.6393 15.3925 15.7225 15.4895 15.8236L19.2033 19.7289C19.2153 19.7413 19.2301 19.7508 19.2465 19.7565C19.2629 19.7622 19.2804 19.7641 19.2976 19.7618C19.3148 19.7596 19.3312 19.7534 19.3456 19.7437C19.36 19.734 19.3719 19.7211 19.3804 19.706C19.8266 18.9649 20.3956 18.3051 21.063 17.7548C21.0754 17.7442 21.0853 17.7309 21.0921 17.716C21.0988 17.701 21.1021 17.6848 21.1018 17.6685C21.1015 17.6521 21.0977 17.636 21.0905 17.6213C21.0833 17.6066 21.0729 17.5937 21.0602 17.5834Z" fill="#7D4E24"/>
<path d="M15.2036 13.901L13.6667 12.0241C13.6036 12.1086 13.52 12.1754 13.4238 12.2184C14.0192 12.9084 14.4143 13.7481 14.5665 14.6467C14.5737 14.6887 14.5893 14.7289 14.6123 14.7649C14.6352 14.8009 14.6652 14.8319 14.7003 14.8561C14.7354 14.8803 14.7751 14.8973 14.8169 14.906C14.8586 14.9146 14.9018 14.9149 14.9436 14.9066C15.3636 14.8266 15.5721 14.3838 15.2036 13.901Z" fill="#CA9E67"/>
<path d="M12.164 12.3041L12.0269 12.1955C12.1759 12.2235 12.33 12.2061 12.4691 12.1455C12.6081 12.0849 12.7258 11.9839 12.8068 11.8556L13.0382 12.0384C12.9313 12.1593 12.793 12.2481 12.6387 12.295C12.4843 12.3419 12.32 12.3451 12.164 12.3041Z" fill="#575756"/>
<path d="M13.6468 11.7099L13.2183 11.3699L13.6239 10.8214L13.821 11.1528L14.4295 10.9814L14.4638 11.11C14.2913 11.1422 14.1283 11.2129 13.9869 11.3167C13.8454 11.4206 13.7292 11.555 13.6468 11.7099Z" fill="#575756"/>
<path d="M11.2727 10.5129L7.20468 7.26476C6.98215 7.08592 6.83949 6.82624 6.8079 6.5425C6.77632 6.25877 6.85837 5.97407 7.03613 5.75067L11.9526 9.66159L11.2727 10.5129Z" fill="#7D4E24"/>
<path d="M13.4897 11.3185L0 0.534217L0.428516 0L13.3725 10.3587C13.5146 10.4697 13.6067 10.6326 13.6287 10.8115C13.6506 10.9904 13.6006 11.1707 13.4897 11.3128V11.3185Z" fill="#3C3C3B"/>
<path d="M13.4894 11.3128L10.7127 9.09595L10.2441 9.6673L12.8838 12.0527C12.983 12.0957 13.0935 12.1051 13.1986 12.0796C13.3036 12.0541 13.3975 11.995 13.4659 11.9114C13.5344 11.8277 13.5738 11.7241 13.578 11.616C13.5822 11.508 13.5511 11.4016 13.4894 11.3128Z" fill="#878787"/>
<path d="M10.5244 9.65875L10.7387 9.39307L13.3269 11.4614C13.3604 11.5136 13.376 11.5752 13.3714 11.6371C13.3668 11.6989 13.3421 11.7576 13.3012 11.8042C13.2681 11.8509 13.2201 11.885 13.1652 11.9011C13.1102 11.9172 13.0515 11.9142 12.9984 11.8927L10.5244 9.65875Z" fill="#DADADA"/>
<path d="M17.7004 20.0831C18.1375 19.9545 18.3575 19.6289 18.5574 19.1832C18.583 19.1378 18.604 19.0899 18.6203 19.0404C18.6403 18.9775 18.4146 18.5862 18.3346 18.7547C18.3203 18.789 18.3061 18.8233 18.2889 18.8575C18.116 19.3209 17.8429 19.7404 17.489 20.086C16.6548 20.0345 16.0349 19.3518 15.1579 19.4232H15.1922L15.0636 19.446H15.0322H14.9893L14.7551 19.486H14.8122C14.2409 19.6317 13.7152 19.9545 13.1496 20.1602C11.8897 20.1431 10.8642 19.2575 10.13 18.289C9.24723 17.1463 9.3615 15.5351 9.23866 14.181C8.99869 11.5499 5.57342 10.0615 7.07894 7.21334C7.08641 7.19752 7.095 7.18224 7.10465 7.16764C7.13893 7.12764 6.95895 6.7734 6.8504 6.95338C6.83611 6.97909 6.63614 7.29619 6.62471 7.3219C5.68198 9.15024 6.7447 10.6386 7.95882 12.0099C9.25008 13.4697 8.68444 15.7465 9.23294 17.4863C9.68146 18.9147 11.4155 20.4288 12.9753 20.2202H12.961H13.0067H13.0267H13.061L13.3981 20.1631H13.3181C13.8895 20.0117 14.4151 19.706 14.9779 19.4975C15.8635 19.5546 16.5006 20.2374 17.4262 20.1459L17.489 20.1402H17.5204H17.5519L17.8204 20.0945C17.7802 20.0933 17.7401 20.0895 17.7004 20.0831Z" fill="#3C3C3B"/>
<path d="M1.00288 0.302832C1.00288 0.358899 0.980608 0.41267 0.940962 0.452315C0.901317 0.491961 0.847546 0.514233 0.791479 0.514233C0.735412 0.514233 0.681641 0.491961 0.641996 0.452315C0.602351 0.41267 0.580078 0.358899 0.580078 0.302832C0.580078 0.246765 0.602351 0.192994 0.641996 0.153349C0.681641 0.113703 0.735412 0.0914307 0.791479 0.0914307C0.847546 0.0914307 0.901317 0.113703 0.940962 0.153349C0.980608 0.192994 1.00288 0.246765 1.00288 0.302832Z" fill="#3C3C3B"/>
<path d="M8.22198 19.0947C7.9363 18.2062 7.16497 17.5663 6.94215 16.7293C6.75182 16.5701 6.57061 16.4003 6.39936 16.2208C6.24061 16.451 6.11196 16.7006 6.01655 16.9635C6.20795 17.652 6.73931 18.2719 7.14498 19.029C7.50207 19.6946 7.79918 20.9173 7.36495 21.6401C6.68504 21.3772 6.17367 20.4974 5.90228 19.926C5.87086 19.866 4.98526 20.2117 4.9624 20.1774C5.24808 20.7659 6.05083 22.2 6.90501 21.9857C7.28496 21.8886 7.67062 21.8 8.04772 21.6829C8.89332 21.4172 8.39053 19.606 8.22198 19.0947Z" fill="#634E42"/>
<path d="M4.9822 11.1071C4.85729 10.8115 4.7616 10.5044 4.69652 10.1901C4.47369 9.22164 4.59939 7.93324 3.67379 7.33332C3.2967 7.08192 2.69107 7.33332 2.29683 7.45045C2.24573 7.4651 2.19602 7.48421 2.14828 7.50758C1.50836 7.76755 1.42266 8.40461 1.43694 9.08452C1.43694 9.0131 2.37682 8.91883 2.37682 8.83312C2.37682 8.35319 2.37682 7.89325 2.6625 7.55329C3.43383 7.83897 3.54524 9.11023 3.65951 9.85585C3.73247 10.4427 3.89733 11.0143 4.14802 11.5499C4.14802 11.5499 5.07361 11.3157 4.9822 11.1071Z" fill="#634E42"/>
<path d="M2.30527 8.66174L1.50537 8.69031L1.54251 9.22738L2.34241 9.17882L2.30527 8.66174Z" fill="#634E42"/>
<path d="M1.3968 9.15025L1.37109 8.78173L2.49095 8.73602L2.51666 9.08741L1.3968 9.15025Z" fill="#E94E1B"/>
<path d="M2.37679 9.09598L2.35107 8.74174L2.49106 8.73602L2.51677 9.08741L2.37679 9.09598Z" fill="#CA9E67"/>
<path d="M2.4939 9.11026L2.46533 8.71602L2.50818 8.71317L2.53675 9.11026H2.4939Z" fill="#A88455"/>
<path d="M1.73992 9.17311L1.7085 8.72745L2.10273 8.71317L2.13416 9.15025L1.73992 9.17311Z" fill="#936037"/>
<path d="M2.34238 9.1788L1.54248 9.22737L1.58248 9.76158L2.37951 9.69588L2.34238 9.1788Z" fill="#634E42"/>
<path d="M1.43684 9.69016L1.41113 9.32163L2.52813 9.25021L2.55384 9.6016L1.43684 9.69016Z" fill="#E94E1B"/>
<path d="M2.41682 9.61302L2.39111 9.25878L2.52824 9.25021L2.55395 9.6016L2.41682 9.61302Z" fill="#CA9E67"/>
<path d="M2.53394 9.62448L2.50537 9.23024L2.54537 9.22739L2.57393 9.62162L2.53394 9.62448Z" fill="#A88455"/>
<path d="M1.77996 9.70446L1.74854 9.2588L2.14277 9.23309L2.17419 9.67304L1.77996 9.70446Z" fill="#936037"/>
<path d="M2.37956 9.69589L1.58252 9.7616L1.61966 10.2987L2.4167 10.213L2.37956 9.69589Z" fill="#634E42"/>
<path d="M1.47688 10.2272L1.45117 9.85871L2.56531 9.76443L2.59102 10.1158L1.47688 10.2272Z" fill="#E94E1B"/>
<path d="M2.45393 10.1301L2.42822 9.77586L2.56535 9.76443L2.59106 10.1158L2.45393 10.1301Z" fill="#CA9E67"/>
<path d="M2.57105 10.1387L2.54248 9.74445L2.58248 9.73874L2.61104 10.1358L2.57105 10.1387Z" fill="#A88455"/>
<path d="M1.81707 10.2358L1.78564 9.79017L2.17988 9.75589L2.2113 10.1958L1.81707 10.2358Z" fill="#936037"/>
<path d="M2.41674 10.213L1.62256 10.2958V10.3815L1.64827 10.5615C1.66827 10.6957 1.68541 10.8272 1.68541 10.8272L2.47959 10.7272L2.44531 10.4701C2.44531 10.4044 2.42531 10.3415 2.4196 10.2929L2.41674 10.213Z" fill="#634E42"/>
<path d="M1.54263 10.7643L1.49121 10.3987L2.60535 10.2758L2.65392 10.6243L1.54263 10.7643Z" fill="#E94E1B"/>
<path d="M2.51675 10.6415L2.46533 10.293L2.60531 10.2758L2.65388 10.6243L2.51675 10.6415Z" fill="#CA9E67"/>
<path d="M2.63673 10.6501L2.57959 10.2587L2.61958 10.253L2.67672 10.6443L2.63673 10.6501Z" fill="#A88455"/>
<path d="M1.88568 10.7615L1.82568 10.3215L2.21706 10.2787L2.27991 10.7129L1.88568 10.7615Z" fill="#936037"/>
<path d="M2.48803 10.7272L1.69385 10.83L1.77098 11.3614L2.55945 11.2414L2.48803 10.7272Z" fill="#634E42"/>
<path d="M1.61978 11.2985L1.56836 10.9329L2.67964 10.7872L2.72821 11.1357L1.61978 11.2985Z" fill="#E94E1B"/>
<path d="M2.59097 11.1557L2.53955 10.8043L2.67953 10.7872L2.7281 11.1357L2.59097 11.1557Z" fill="#CA9E67"/>
<path d="M2.70809 11.1585L2.65381 10.7672L2.6938 10.7614L2.75094 11.1528L2.70809 11.1585Z" fill="#A88455"/>
<path d="M1.96275 11.29L1.8999 10.8472L2.29128 10.7957L2.35413 11.23L1.96275 11.29Z" fill="#936037"/>
<path d="M2.56232 11.2414L1.771 11.3614L1.84527 11.8927L2.63374 11.7556L2.56232 11.2414Z" fill="#634E42"/>
<path d="M1.69979 11.8328L1.64551 11.4671L2.75108 11.2957L2.8025 11.6442L1.69979 11.8328Z" fill="#E94E1B"/>
<path d="M2.66519 11.6671L2.61377 11.3157L2.75089 11.2957L2.80232 11.6442L2.66519 11.6671Z" fill="#CA9E67"/>
<path d="M2.78231 11.6699L2.72803 11.2785L2.76802 11.27L2.8223 11.6642L2.78231 11.6699Z" fill="#A88455"/>
<path d="M2.0399 11.8156L1.97705 11.3728L2.36557 11.3128L2.42842 11.7499L2.0399 11.8156Z" fill="#936037"/>
<path d="M2.63417 11.7527L1.8457 11.8927L1.94855 12.4184L2.73416 12.2613C2.73416 12.2613 2.63417 11.7556 2.63417 11.7527Z" fill="#634E42"/>
<path d="M1.79693 12.3612L1.75979 12.1813C1.73694 12.0927 1.72266 12.0013 1.72266 12.0013L2.82537 11.8042C2.82537 11.8042 2.82537 11.8899 2.85965 11.9756L2.89679 12.1498L1.79693 12.3612Z" fill="#E94E1B"/>
<path d="M2.76226 12.1755L2.72227 12.0013C2.70227 11.9156 2.68799 11.8299 2.68799 11.8299L2.82511 11.8042C2.82511 11.8042 2.82511 11.8899 2.85939 11.9756L2.89653 12.1498L2.76226 12.1755Z" fill="#CA9E67"/>
<path d="M2.8794 12.1756C2.8794 12.1756 2.79084 11.787 2.79941 11.787H2.83941L2.9194 12.1756H2.8794Z" fill="#A88455"/>
<path d="M2.13988 12.3384C2.13988 12.3384 2.04275 11.9013 2.05132 11.9013L2.44269 11.8299L2.5284 12.2613L2.13988 12.3384Z" fill="#936037"/>
<path d="M2.73971 12.2613L1.9541 12.4184L2.06552 12.944L2.84827 12.7698L2.73971 12.2613Z" fill="#634E42"/>
<path d="M1.91397 12.8897L1.83398 12.5298L2.93384 12.3098L3.00812 12.6526L1.91397 12.8897Z" fill="#E94E1B"/>
<path d="M2.92136 12.3663L2.78418 12.3957L2.85857 12.7428L2.99575 12.7135L2.92136 12.3663Z" fill="#CA9E67"/>
<path d="M2.99098 12.6784L2.90527 12.2927L2.94527 12.2841L3.03097 12.6698L2.99098 12.6784Z" fill="#A88455"/>
<path d="M2.25394 12.8583L2.15967 12.4212L2.54533 12.3441L2.63961 12.7755L2.25394 12.8583Z" fill="#936037"/>
<path d="M2.84826 12.7698L2.06836 12.944L2.17977 13.4668L2.95682 13.2783L2.84826 12.7698Z" fill="#634E42"/>
<path d="M2.02823 13.4183L1.94824 13.0583L3.04239 12.8126L3.11666 13.1554L2.02823 13.4183Z" fill="#E94E1B"/>
<path d="M2.98248 13.1897L2.9082 12.8412L3.04247 12.8126L3.11675 13.1554L2.98248 13.1897Z" fill="#CA9E67"/>
<path d="M3.09938 13.184L3.01367 12.7955L3.05367 12.7869L3.13937 13.1726L3.09938 13.184Z" fill="#A88455"/>
<path d="M2.36813 13.3783L2.271 12.9412L2.65666 12.8555L2.75093 13.2868L2.36813 13.3783Z" fill="#936037"/>
<path d="M2.95966 13.284L2.18262 13.4754C2.18262 13.4754 2.20547 13.6068 2.24261 13.7354L2.31689 13.9953L3.09107 13.7868L3.01679 13.5382C2.98251 13.404 2.95966 13.284 2.95966 13.284Z" fill="#634E42"/>
<path d="M2.1597 13.941L2.10828 13.7639C2.08989 13.705 2.07558 13.6448 2.06543 13.5839L3.151 13.3154L3.24242 13.6554L2.1597 13.941Z" fill="#E94E1B"/>
<path d="M3.10826 13.6896C3.10826 13.6896 3.01113 13.3497 3.01684 13.3468L3.15111 13.3154L3.24253 13.6554L3.10826 13.6896Z" fill="#CA9E67"/>
<path d="M3.22548 13.6811L3.1712 13.4897C3.15264 13.4267 3.13738 13.3628 3.12549 13.2983H3.16548C3.17578 13.3632 3.19107 13.4271 3.21119 13.4897C3.23976 13.584 3.26547 13.6782 3.26547 13.6782L3.22548 13.6811Z" fill="#A88455"/>
<path d="M2.49953 13.8925L2.43668 13.6782C2.40525 13.5725 2.38525 13.4611 2.38525 13.4611L2.76806 13.3668C2.76806 13.3668 2.78806 13.4754 2.81948 13.5811L2.88233 13.7925L2.49953 13.8925Z" fill="#936037"/>
<path d="M3.09115 13.7782L2.31982 13.9867L2.46838 14.501L3.23399 14.2781L3.09115 13.7782Z" fill="#634E42"/>
<path d="M2.31134 14.461L2.2085 14.1067L3.28836 13.8125L3.38834 14.1496L2.31134 14.461Z" fill="#E94E1B"/>
<path d="M3.2538 14.1867L3.15381 13.8468L3.28808 13.8125L3.38806 14.1496L3.2538 14.1867Z" fill="#CA9E67"/>
<path d="M3.37118 14.1782L3.25977 13.7953L3.29976 13.7868L3.41117 14.1667L3.37118 14.1782Z" fill="#A88455"/>
<path d="M2.64823 14.4067L2.52539 13.9753L2.90534 13.8725L3.02818 14.2953L2.64823 14.4067Z" fill="#936037"/>
<path d="M3.23673 14.2781L2.46826 14.501L2.61681 15.018L3.37957 14.7752L3.23673 14.2781Z" fill="#634E42"/>
<path d="M2.46271 14.978L2.35986 14.6238L3.43401 14.3067L3.53114 14.6438L2.46271 14.978Z" fill="#E94E1B"/>
<path d="M3.39979 14.6867L3.2998 14.3438L3.43407 14.3067L3.5312 14.6438L3.39979 14.6867Z" fill="#CA9E67"/>
<path d="M3.51669 14.6724L3.40527 14.2896L3.44241 14.2781L3.55383 14.6581L3.51669 14.6724Z" fill="#A88455"/>
<path d="M2.79667 14.9181L2.67383 14.4867L3.05092 14.3753L3.17376 14.7981L2.79667 14.9181Z" fill="#936037"/>
<path d="M3.38226 14.7752L2.63379 15.0152L2.70807 15.2751L2.79948 15.5265L3.55653 15.2666L3.46797 15.0237C3.41654 14.898 3.38226 14.7752 3.38226 14.7752Z" fill="#634E42"/>
<path d="M2.6338 15.4923L2.57095 15.318L2.51953 15.1409L3.58511 14.7981L3.63367 14.9695L3.69652 15.1323L2.6338 15.4923Z" fill="#E94E1B"/>
<path d="M3.55665 15.178L3.49095 15.0123C3.46524 14.9266 3.44238 14.8409 3.44238 14.8409L3.57379 14.7981L3.62236 14.9695L3.68521 15.1323L3.55665 15.178Z" fill="#CA9E67"/>
<path d="M3.67404 15.1609L3.60547 14.9752L3.54834 14.7838H3.58833L3.64261 14.9752L3.71118 15.1609H3.67404Z" fill="#A88455"/>
<path d="M2.96225 15.4209C2.96225 15.4209 2.92225 15.318 2.88511 15.2123L2.82227 14.9981L3.20507 14.8781L3.26507 15.0895C3.30506 15.1923 3.3422 15.2952 3.3422 15.2952L2.96225 15.4209Z" fill="#936037"/>
<path d="M3.54513 15.2666L2.78809 15.5266L2.97092 16.0294L3.72225 15.7551L3.54513 15.2666Z" fill="#634E42"/>
<path d="M2.8141 16.0008L2.68555 15.6523L3.74541 15.2866L3.86539 15.618L2.8141 16.0008Z" fill="#E94E1B"/>
<path d="M3.73368 15.6637L3.61084 15.3323L3.74511 15.2866L3.86509 15.618L3.73368 15.6637Z" fill="#CA9E67"/>
<path d="M3.85099 15.6465L3.71387 15.2723L3.75386 15.2609L3.89099 15.6322L3.85099 15.6465Z" fill="#A88455"/>
<path d="M3.14548 15.9237L2.99121 15.5037L3.36545 15.3752L3.51686 15.7865L3.14548 15.9237Z" fill="#936037"/>
<path d="M3.72545 15.7551L2.97412 16.0293L3.15695 16.535L3.90257 16.2407L3.72545 15.7551Z" fill="#634E42"/>
<path d="M2.99965 16.5064L2.87109 16.1579L3.92239 15.7694L4.04237 16.1008L2.99965 16.5064Z" fill="#E94E1B"/>
<path d="M3.91386 16.1493L3.79102 15.8179L3.92243 15.7694L4.04241 16.1008L3.91386 16.1493Z" fill="#CA9E67"/>
<path d="M4.03068 16.1293L3.89355 15.758L3.93069 15.7437L4.06782 16.1151L4.03068 16.1293Z" fill="#A88455"/>
<path d="M3.33102 16.4207L3.17676 16.0036L3.54814 15.8665L3.69955 16.2779L3.33102 16.4207Z" fill="#936037"/>
<path d="M3.90529 16.2408L3.15967 16.5264L3.25108 16.7778C3.29679 16.9035 3.35679 17.0264 3.35679 17.0264L4.09383 16.7121C4.0564 16.6339 4.02302 16.5538 3.99385 16.4722L3.90529 16.2408Z" fill="#634E42"/>
<path d="M3.20507 16.9978C3.17716 16.9425 3.15329 16.8852 3.13365 16.8264L3.0708 16.6521L4.11067 16.2408L4.17351 16.4064C4.19155 16.4622 4.21351 16.5166 4.23922 16.5693L3.20507 16.9978Z" fill="#E94E1B"/>
<path d="M4.09926 16.6321C4.07269 16.5795 4.04978 16.5251 4.0307 16.4693L3.9707 16.3036L4.09926 16.2522L4.16211 16.4179C4.18014 16.4736 4.2021 16.528 4.22781 16.5807L4.09926 16.6321Z" fill="#CA9E67"/>
<path d="M4.21677 16.6093C4.18696 16.5501 4.16119 16.489 4.13963 16.4264L4.0625 16.2407L4.09964 16.2236L4.1682 16.4121C4.20248 16.5036 4.24533 16.5921 4.24533 16.5921L4.21677 16.6093Z" fill="#A88455"/>
<path d="M3.52507 16.9149C3.49147 16.8482 3.46189 16.7795 3.43651 16.7093L3.35938 16.5007L3.7279 16.355C3.7279 16.355 3.76504 16.4579 3.80503 16.5607C3.82842 16.6304 3.85707 16.6982 3.89073 16.7635L3.52507 16.9149Z" fill="#936037"/>
<path d="M4.09684 16.7235L3.35693 17.0321L3.57691 17.5206L4.30824 17.1978L4.09684 16.7235Z" fill="#634E42"/>
<path d="M3.41655 17.5006L3.26514 17.1635L4.29643 16.7292L4.43927 17.0492L3.41655 17.5006Z" fill="#E94E1B"/>
<path d="M4.31366 17.1063L4.16797 16.7835L4.29652 16.7292L4.43936 17.0492L4.31366 17.1063Z" fill="#CA9E67"/>
<path d="M4.42797 17.0806L4.26514 16.7178L4.30227 16.7007L4.46511 17.0635L4.42797 17.0806Z" fill="#A88455"/>
<path d="M3.74526 17.4035L3.55957 16.9949L3.92524 16.8407L4.10521 17.2435L3.74526 17.4035Z" fill="#936037"/>
<path d="M4.30807 17.1949L3.57959 17.5206L3.7967 18.012L4.52232 17.6691L4.30807 17.1949Z" fill="#634E42"/>
<path d="M3.63676 17.9948L3.48535 17.6577L4.50808 17.1978L4.65377 17.5206L3.63676 17.9948Z" fill="#E94E1B"/>
<path d="M4.50953 17.1961L4.38184 17.2535L4.52699 17.5766L4.65468 17.5193L4.50953 17.1961Z" fill="#CA9E67"/>
<path d="M4.63947 17.5492L4.47949 17.1863L4.51377 17.1721L4.67661 17.532L4.63947 17.5492Z" fill="#A88455"/>
<path d="M3.96213 17.8891L3.7793 17.4806L4.13925 17.3177L4.31923 17.7206L3.96213 17.8891Z" fill="#936037"/>
<path d="M4.52208 17.6691L3.79932 18.0091C3.79932 18.0091 4.01643 18.5004 4.025 18.4947L4.74205 18.1405L4.52208 17.6691Z" fill="#634E42"/>
<path d="M3.86227 18.4833C3.86227 18.4833 3.81942 18.4005 3.78228 18.3176L3.70801 18.1405L4.7193 17.6577L4.79072 17.8177C4.82501 17.9005 4.865 17.9777 4.865 17.9777L3.86227 18.4833Z" fill="#E94E1B"/>
<path d="M4.7423 18.0491C4.7423 18.0491 4.70231 17.9691 4.66517 17.8891L4.59375 17.7263L4.71945 17.6663L4.79087 17.8262C4.82515 17.9091 4.86514 17.9862 4.86514 17.9862L4.7423 18.0491Z" fill="#CA9E67"/>
<path d="M4.85661 18.0148L4.69092 17.6577L4.7252 17.6377C4.7252 17.6377 4.88518 18.0034 4.89375 17.9976L4.85661 18.0148Z" fill="#A88455"/>
<path d="M4.18799 18.369L3.99658 17.9634L4.34796 17.7948C4.34796 17.7948 4.52794 18.1976 4.53365 18.1948L4.18799 18.369Z" fill="#936037"/>
<path d="M4.74203 18.1376L4.02783 18.4976L4.27923 18.969L4.98771 18.5947L4.74203 18.1376Z" fill="#634E42"/>
<path d="M4.1195 18.9604L3.94238 18.6347L4.94511 18.1319L5.1108 18.4405L4.1195 18.9604Z" fill="#E94E1B"/>
<path d="M4.98788 18.5062L4.81934 18.1948L4.94503 18.1319L5.11073 18.4405L4.98788 18.5062Z" fill="#CA9E67"/>
<path d="M5.10212 18.4719L4.91357 18.1205L4.95071 18.1034L5.1364 18.4519L5.10212 18.4719Z" fill="#A88455"/>
<path d="M4.43943 18.8404L4.22803 18.4462L4.58227 18.269L4.78795 18.6547L4.43943 18.8404Z" fill="#936037"/>
<path d="M4.98785 18.5947L4.28223 18.969L4.53362 19.4432L5.23353 19.0518L4.98785 18.5947Z" fill="#634E42"/>
<path d="M4.37348 19.4346L4.19922 19.109L5.18766 18.5833L5.35335 18.8947L4.37348 19.4346Z" fill="#E94E1B"/>
<path d="M5.23349 18.9604L5.06494 18.649L5.18778 18.5833L5.35348 18.8947L5.23349 18.9604Z" fill="#CA9E67"/>
<path d="M5.3448 18.9261L5.15625 18.5747L5.19339 18.5547L5.37908 18.9061L5.3448 18.9261Z" fill="#A88455"/>
<path d="M4.69089 19.3089L4.47949 18.9147L4.82802 18.729L5.03656 19.1175L4.69089 19.3089Z" fill="#936037"/>
<path d="M5.23653 19.0518L4.53662 19.4403L4.66232 19.6775C4.69374 19.7374 4.72517 19.7974 4.75088 19.8403L4.79373 19.9117L5.49078 19.506L5.45079 19.4375L5.36509 19.2804L5.23653 19.0518Z" fill="#634E42"/>
<path d="M4.63081 19.9117L4.45654 19.586L5.4307 19.0375L5.59639 19.3489L4.63081 19.9117Z" fill="#E94E1B"/>
<path d="M5.4791 19.4175L5.31055 19.1061L5.43053 19.0375L5.59622 19.3489L5.4791 19.4175Z" fill="#CA9E67"/>
<path d="M5.59089 19.3775L5.40234 19.029L5.43663 19.009L5.62517 19.3575L5.59089 19.3775Z" fill="#A88455"/>
<path d="M4.94521 19.7746L4.83666 19.5689L4.73096 19.3718L5.07663 19.1775L5.17947 19.3718L5.28517 19.5632L4.94521 19.7746Z" fill="#936037"/>
<path d="M5.4848 19.506L4.79346 19.9117L5.07913 20.3659L5.7619 19.946L5.4848 19.506Z" fill="#634E42"/>
<path d="M4.91636 20.3688L4.71924 20.0574L5.68483 19.4861L5.87337 19.7832L4.91636 20.3688Z" fill="#E94E1B"/>
<path d="M5.75349 19.8546L5.56494 19.5575L5.68493 19.4861L5.87347 19.7832L5.75349 19.8546Z" fill="#CA9E67"/>
<path d="M5.86472 19.8146L5.65332 19.4775L5.6876 19.4575L5.899 19.7917L5.86472 19.8146Z" fill="#A88455"/>
<path d="M5.23069 20.226L4.99072 19.8489L5.33068 19.646L5.56493 20.0203L5.23069 20.226Z" fill="#936037"/>
<path d="M5.76194 19.946L5.08203 20.3659L5.36771 20.8202L6.03905 20.3831L5.76194 19.946Z" fill="#634E42"/>
<path d="M5.20786 20.8259L5.01074 20.5116L5.95919 19.9203L6.14774 20.2174L5.20786 20.8259Z" fill="#E94E1B"/>
<path d="M6.03083 20.2916L5.84229 19.9945L5.95941 19.9203L6.14796 20.2174L6.03083 20.2916Z" fill="#CA9E67"/>
<path d="M6.14199 20.2488L5.92773 19.9145L5.96487 19.8917L6.17342 20.2259L6.14199 20.2488Z" fill="#A88455"/>
<path d="M5.51348 20.6773L5.27637 20.2974L5.61061 20.0888L5.84486 20.4602L5.51348 20.6773Z" fill="#936037"/>
<path d="M6.03909 20.3831L5.37061 20.8201L5.65628 21.2744L6.3162 20.823L6.03909 20.3831Z" fill="#634E42"/>
<path d="M5.49643 21.2829L5.29932 20.9687L6.23634 20.3545L6.42203 20.6516L5.49643 21.2829Z" fill="#E94E1B"/>
<path d="M6.30769 20.7316L6.11914 20.4316L6.23627 20.3545L6.42196 20.6516L6.30769 20.7316Z" fill="#CA9E67"/>
<path d="M6.41648 20.683L6.20508 20.3488L6.23936 20.3259L6.45076 20.6602L6.41648 20.683Z" fill="#A88455"/>
<path d="M5.79905 21.1258L5.55908 20.7487L5.89047 20.5316L6.12758 20.903L5.79905 21.1258Z" fill="#936037"/>
<path d="M4.88775 12.087C4.87261 12.0847 4.85832 12.0784 4.84631 12.0689C4.83429 12.0594 4.82495 12.0469 4.81919 12.0327L4.53351 11.3728C4.52826 11.3612 4.52535 11.3486 4.52495 11.3359C4.52455 11.3231 4.52666 11.3104 4.53117 11.2985C4.53568 11.2866 4.5425 11.2756 4.55123 11.2663C4.55997 11.257 4.57045 11.2495 4.58208 11.2443C4.59371 11.239 4.60626 11.2361 4.61901 11.2357C4.63177 11.2353 4.64448 11.2374 4.65642 11.2419C4.66835 11.2464 4.67929 11.2533 4.68859 11.262C4.69789 11.2707 4.70538 11.2812 4.71063 11.2928L5.0106 11.9527C5.01585 11.9644 5.01877 11.9769 5.01917 11.9897C5.01958 12.0024 5.01746 12.0152 5.01295 12.0271C5.00844 12.039 5.00162 12.05 4.99289 12.0593C4.98415 12.0686 4.97366 12.0761 4.96203 12.0813C4.95081 12.0876 4.93835 12.0914 4.92552 12.0923C4.9127 12.0933 4.89981 12.0915 4.88775 12.087Z" fill="#9D9D9C"/>
<path d="M4.55958 12.587C4.4972 12.5776 4.43824 12.5524 4.38825 12.514C4.33827 12.4755 4.29892 12.4249 4.2739 12.367L4.0625 11.8328C4.04349 11.7875 4.03369 11.739 4.03369 11.6899C4.03369 11.6409 4.04349 11.5923 4.0625 11.5471C4.08053 11.5013 4.10749 11.4595 4.14182 11.4242C4.17616 11.3888 4.21717 11.3607 4.26247 11.3414L4.83383 11.09C4.92432 11.0547 5.02483 11.0552 5.11501 11.0913C5.20518 11.1273 5.27827 11.1963 5.31948 11.2843L5.55088 11.8185C5.56989 11.8637 5.57969 11.9123 5.57969 11.9613C5.57969 12.0104 5.56989 12.0589 5.55088 12.1042C5.5339 12.1501 5.50763 12.1921 5.47372 12.2275C5.43981 12.2629 5.39897 12.2909 5.35376 12.3098L4.78241 12.5612C4.71282 12.5935 4.63469 12.6025 4.55958 12.587ZM4.99381 11.3328C4.97501 11.3284 4.95546 11.3284 4.93667 11.3328L4.36532 11.5842C4.3534 11.5899 4.34272 11.5978 4.3339 11.6077C4.32507 11.6175 4.31827 11.6289 4.3139 11.6414C4.30827 11.6534 4.30536 11.6666 4.30536 11.6799C4.30536 11.6932 4.30827 11.7064 4.3139 11.7185L4.54529 12.2527C4.55656 12.2771 4.57672 12.2964 4.60167 12.3065C4.62662 12.3165 4.65448 12.3167 4.67956 12.307L5.25092 12.0556C5.2757 12.0443 5.29514 12.0238 5.30519 11.9985C5.3152 11.9737 5.3152 11.9461 5.30519 11.9213L5.0738 11.3871C5.06614 11.372 5.05479 11.3592 5.0408 11.3497C5.02681 11.3402 5.01064 11.3344 4.99381 11.3328Z" fill="#B2B2B2"/>
<path d="M6.78201 17.2578C6.7806 17.2694 6.77689 17.2807 6.77108 17.2909C6.76527 17.3011 6.75749 17.3101 6.74818 17.3173C6.73887 17.3245 6.72823 17.3297 6.71687 17.3327C6.70551 17.3358 6.69367 17.3365 6.68202 17.3349C6.67045 17.3335 6.65927 17.3298 6.64918 17.324C6.63909 17.3181 6.6303 17.3103 6.62335 17.3009C6.6164 17.2915 6.61143 17.2809 6.60874 17.2695C6.60606 17.2582 6.60572 17.2464 6.60775 17.2349C6.60915 17.2232 6.61287 17.212 6.61868 17.2017C6.62449 17.1915 6.63227 17.1826 6.64158 17.1754C6.65089 17.1682 6.66153 17.163 6.67289 17.1599C6.68424 17.1569 6.69609 17.1562 6.70773 17.1578C6.73079 17.1613 6.75152 17.1738 6.76542 17.1925C6.77933 17.2112 6.78529 17.2347 6.78201 17.2578Z" fill="white"/>
<path d="M7.2449 18.0462C7.24349 18.0579 7.23978 18.0692 7.23397 18.0794C7.22816 18.0896 7.22038 18.0986 7.21107 18.1057C7.20177 18.1129 7.19112 18.1182 7.17976 18.1212C7.16841 18.1242 7.15656 18.125 7.14492 18.1234C7.13334 18.122 7.12216 18.1182 7.11207 18.1124C7.10198 18.1066 7.09319 18.0987 7.08624 18.0894C7.07929 18.08 7.07432 18.0693 7.07164 18.058C7.06895 18.0466 7.06861 18.0348 7.07064 18.0234C7.07205 18.0117 7.07576 18.0004 7.08157 17.9902C7.08738 17.98 7.09516 17.971 7.10447 17.9638C7.11378 17.9567 7.12442 17.9514 7.13578 17.9484C7.14713 17.9454 7.15898 17.9446 7.17063 17.9462C7.19368 17.9498 7.21441 17.9622 7.22831 17.981C7.24222 17.9997 7.24818 18.0231 7.2449 18.0462Z" fill="white"/>
<path d="M7.7134 18.8118C7.71103 18.8291 7.70359 18.8453 7.69204 18.8584C7.68048 18.8715 7.66532 18.8809 7.64846 18.8854C7.63159 18.8898 7.61377 18.8892 7.59724 18.8836C7.58072 18.878 7.56621 18.8677 7.55555 18.8539C7.54489 18.84 7.53855 18.8234 7.53733 18.806C7.5361 18.7886 7.54005 18.7712 7.54868 18.756C7.5573 18.7408 7.57022 18.7286 7.5858 18.7207C7.60139 18.7128 7.61894 18.7098 7.63627 18.7118C7.64794 18.7133 7.65921 18.717 7.66943 18.7228C7.67965 18.7286 7.68861 18.7364 7.69579 18.7457C7.70297 18.755 7.70822 18.7656 7.71125 18.777C7.71427 18.7883 7.715 18.8002 7.7134 18.8118Z" fill="white"/>
<path d="M8.04202 19.7374C8.03964 19.7547 8.03221 19.7709 8.02065 19.784C8.0091 19.7971 7.99393 19.8065 7.97707 19.8109C7.9602 19.8154 7.94239 19.8148 7.92586 19.8092C7.90933 19.8036 7.89482 19.7933 7.88416 19.7795C7.8735 19.7656 7.86716 19.749 7.86594 19.7316C7.86472 19.7142 7.86867 19.6968 7.87729 19.6816C7.88591 19.6664 7.89883 19.6541 7.91441 19.6463C7.93 19.6384 7.94756 19.6354 7.96488 19.6374C7.97655 19.6389 7.98783 19.6426 7.99804 19.6484C8.00826 19.6542 8.01722 19.662 8.0244 19.6713C8.03158 19.6806 8.03684 19.6912 8.03986 19.7026C8.04289 19.7139 8.04362 19.7258 8.04202 19.7374Z" fill="white"/>
<path d="M8.14194 20.7116C8.14053 20.7233 8.13682 20.7345 8.13101 20.7448C8.1252 20.755 8.11742 20.7639 8.10811 20.7711C8.0988 20.7783 8.08816 20.7836 8.0768 20.7866C8.06544 20.7896 8.0536 20.7903 8.04195 20.7887C8.0189 20.7852 7.99817 20.7727 7.98427 20.754C7.97036 20.7353 7.9644 20.7118 7.96768 20.6887C7.96775 20.6762 7.9705 20.6638 7.97574 20.6524C7.98097 20.641 7.98857 20.6308 7.99803 20.6225C8.0075 20.6143 8.01861 20.6082 8.03063 20.6045C8.04265 20.6009 8.0553 20.5999 8.06775 20.6015C8.0802 20.6031 8.09216 20.6074 8.10284 20.614C8.11351 20.6206 8.12266 20.6294 8.12968 20.6398C8.1367 20.6502 8.14142 20.662 8.14353 20.6744C8.14565 20.6868 8.1451 20.6995 8.14194 20.7116Z" fill="white"/>
</g>
<defs>
<clipPath id="clip0_1232_3489">
<rect width="21.103" height="22" fill="white"/>
</clipPath>
</defs>
</svg>
