<svg width="14" height="16" viewBox="0 0 14 16" fill="none" xmlns="http://www.w3.org/2000/svg">
<path fill-rule="evenodd" clip-rule="evenodd" d="M9.25 2V1.25C9.25 0.836 9.586 0.5 10 0.5C10.414 0.5 10.75 0.836 10.75 1.25V2C12.4067 2 13.75 3.34325 13.75 5V12.5C13.75 14.1567 12.4067 15.5 10.75 15.5C8.605 15.5 5.39425 15.5 3.25 15.5C1.59325 15.5 0.25 14.1567 0.25 12.5V5C0.25 3.34325 1.59325 2 3.25 2V1.25C3.25 0.836 3.586 0.5 4 0.5C4.414 0.5 4.75 0.836 4.75 1.25V2H9.25ZM12.25 8H1.75V12.5C1.75 13.328 2.42125 14 3.25 14H10.75C11.578 14 12.25 13.328 12.25 12.5V8ZM10.75 3.5V4.25C10.75 4.664 10.414 5 10 5C9.586 5 9.25 4.664 9.25 4.25V3.5H4.75V4.25C4.75 4.664 4.414 5 4 5C3.586 5 3.25 4.664 3.25 4.25V3.5C2.42125 3.5 1.75 4.17125 1.75 5V6.5H12.25V5C12.25 4.17125 11.578 3.5 10.75 3.5Z" fill="black"/>
</svg>
