<svg width="18" height="15" viewBox="0 0 18 15" fill="none" xmlns="http://www.w3.org/2000/svg">
<path d="M3.37797 10.8414C3.31916 11.1665 3.28868 11.4962 3.28688 11.8266C3.28688 12.4935 3.63716 13.4178 5.30744 14.0328C6.4975 14.4284 7.74609 14.6192 9 14.5969C11.6355 14.5969 14.7131 13.8716 14.7131 11.828C14.7114 11.5448 14.6884 11.2621 14.6444 10.9823C16.3102 10.64 17.25 9.88475 17.25 8.85625C17.2486 7.99274 17.0056 7.14686 16.5483 6.41438C16.091 5.68189 15.4378 5.09206 14.6626 4.71165C14.9153 4.4375 15.11 4.11518 15.2352 3.76399C15.3603 3.4128 15.4133 3.03997 15.391 2.66781C15.3687 2.29565 15.2715 1.93183 15.1052 1.59813C14.9389 1.26442 14.7071 0.967702 14.4234 0.725727C14.1398 0.483752 13.8103 0.301502 13.4545 0.18989C13.0988 0.0782774 12.7242 0.0395981 12.3532 0.0761678C11.9822 0.112737 11.6223 0.223804 11.2952 0.402717C10.9681 0.58163 10.6805 0.82471 10.4496 1.1174C9.96086 0.879785 9.42126 0.7658 8.87818 0.785459C8.3351 0.805118 7.80515 0.957819 7.33488 1.23015C7.10806 0.949846 6.82738 0.717828 6.50941 0.547796C6.19144 0.377764 5.84263 0.273165 5.48357 0.240176C5.1245 0.207188 4.76247 0.246477 4.41884 0.355726C4.07521 0.464974 3.75695 0.641966 3.48286 0.876252C3.20877 1.11054 2.9844 1.39737 2.823 1.7198C2.6616 2.04224 2.56644 2.39375 2.54314 2.75357C2.51984 3.11339 2.56887 3.47424 2.68734 3.8148C2.80581 4.15535 2.99132 4.46872 3.23291 4.7364C2.48788 5.10876 1.8611 5.68098 1.42263 6.38911C0.984156 7.09723 0.751268 7.91336 0.75 8.74625C0.75 9.77818 1.69669 10.5221 3.37797 10.8414ZM9 13.2219C6.44353 13.2219 4.66187 12.4873 4.66187 11.828C4.66187 11.2583 4.77408 10.6942 4.9921 10.1678C5.21011 9.64151 5.52965 9.16328 5.93248 8.76045C6.33531 8.35761 6.81355 8.03807 7.33987 7.82006C7.8662 7.60205 8.43031 7.48984 9 7.48984C9.56969 7.48984 10.1338 7.60205 10.6601 7.82006C11.1865 8.03807 11.6647 8.35761 12.0675 8.76045C12.4703 9.16328 12.7899 9.64151 13.0079 10.1678C13.2259 10.6942 13.3381 11.2583 13.3381 11.828C13.3381 12.4859 11.5568 13.2219 9 13.2219ZM15.875 8.85625C15.875 9.07418 15.3635 9.44268 14.2803 9.65031C13.7115 8.28107 12.6352 7.18484 11.2767 6.59093C11.5586 6.3301 11.7938 6.02294 11.9721 5.68275C12.1868 5.63661 12.4056 5.61197 12.6252 5.60918C13.4864 5.60973 14.3123 5.95192 14.9216 6.56066C15.5308 7.16941 15.8737 7.99499 15.875 8.85625ZM12.6266 1.43468C12.8232 1.43282 13.018 1.47241 13.1982 1.55088C13.3785 1.62936 13.5402 1.74495 13.6728 1.89011C13.8054 2.03528 13.9059 2.20677 13.9678 2.39339C14.0297 2.58002 14.0515 2.77759 14.0319 2.97322C14.0123 3.16885 13.9517 3.35816 13.854 3.52879C13.7563 3.69942 13.6238 3.84754 13.465 3.9635C13.3062 4.07947 13.1248 4.16066 12.9325 4.20179C12.7403 4.24292 12.5415 4.24306 12.3492 4.20221C12.3492 4.17987 12.3526 4.15821 12.3526 4.13553C12.3527 3.33425 12.0642 2.55974 11.54 1.95375C11.6704 1.79109 11.8358 1.65994 12.024 1.57007C12.2121 1.48021 12.4181 1.43393 12.6266 1.43468ZM10.9766 4.13553C10.9766 4.52672 10.8607 4.90914 10.6434 5.23442C10.4261 5.5597 10.1172 5.81323 9.75576 5.96293C9.39435 6.11263 8.99666 6.15178 8.61299 6.07543C8.22932 5.99908 7.87692 5.81066 7.60036 5.534C7.32379 5.25734 7.13549 4.90487 7.05927 4.52117C6.98306 4.13748 7.02235 3.7398 7.17217 3.37844C7.322 3.01708 7.57563 2.70828 7.90099 2.49108C8.22635 2.27389 8.60881 2.15807 9 2.15828C9.52426 2.15882 10.0269 2.3673 10.3976 2.73798C10.7684 3.10866 10.977 3.61126 10.9776 4.13553H10.9766ZM3.90906 2.93C3.90806 2.64957 3.996 2.37605 4.16024 2.14874C4.32447 1.92144 4.55655 1.75207 4.82311 1.66498C5.08967 1.57788 5.37699 1.57755 5.64375 1.66402C5.91051 1.7505 6.14298 1.91933 6.30775 2.14625C5.87926 2.72098 5.64767 3.41864 5.64741 4.13553C5.64741 4.15409 5.64981 4.17196 5.65016 4.19018C5.51711 4.23434 5.37784 4.25686 5.23766 4.25687C4.8857 4.25651 4.54824 4.11665 4.29921 3.86794C4.05017 3.61923 3.90988 3.28195 3.90906 2.93ZM5.23937 5.63187C5.51596 5.63209 5.79129 5.66896 6.05819 5.74153C6.23292 6.0581 6.45752 6.34444 6.72334 6.58956C5.41155 7.16389 4.36163 8.20756 3.77947 9.5159C2.61794 9.31962 2.125 8.93531 2.125 8.74625C2.12591 7.92054 2.45432 7.12892 3.03818 6.54505C3.62205 5.96119 4.41367 5.63278 5.23937 5.63187Z" fill="black"/>
</svg>
