<svg width="29" height="29" viewBox="0 0 29 29" fill="none" xmlns="http://www.w3.org/2000/svg">
<g clip-path="url(#clip0_181_12)">
<path d="M9.5551 8.19211C6.2227 8.19211 3.52122 10.8936 3.52122 14.226C3.52122 17.5584 6.2227 20.2599 9.5551 20.2599C12.8875 20.2599 15.589 17.5584 15.589 14.226C15.589 10.8936 12.8875 8.19211 9.5551 8.19211ZM11.8898 11.9008C11.7056 11.0127 11.4361 10.273 11.1524 9.67685C12.2791 10.0732 13.2097 10.8683 13.7803 11.9008H11.8898ZM10.9386 14.226C10.9386 14.6292 10.9107 15.0027 10.8708 15.3622H8.23954C8.19952 15.0027 8.17157 14.6292 8.17157 14.226C8.17157 13.8226 8.19905 13.4492 8.23864 13.0898H10.8717C10.9111 13.4492 10.9386 13.8226 10.9386 14.226ZM8.43965 11.9008C8.70661 10.7658 9.12238 9.9305 9.46867 9.39081C9.47713 9.3897 9.48507 9.38854 9.49231 9.38749C9.49401 9.38724 9.49568 9.387 9.49731 9.38676C9.52136 9.38327 9.53856 9.38109 9.5551 9.38109C9.57181 9.38109 9.58911 9.38331 9.61337 9.38686C9.61497 9.3871 9.6166 9.38734 9.61827 9.38758C9.62579 9.38869 9.63407 9.38991 9.64291 9.39107C9.99061 9.93392 10.4049 10.7696 10.6707 11.9008H8.43965ZM7.22119 11.9008H5.32988C5.90061 10.8683 6.8312 10.0734 7.95801 9.67683C7.67506 10.2721 7.40552 11.0125 7.22119 11.9008ZM4.7102 14.226C4.7102 13.8344 4.77185 13.4582 4.86348 13.0898H7.04197C7.00653 13.4501 6.98265 13.8254 6.98265 14.226C6.98265 14.6269 7.00715 15.0018 7.0432 15.3622H4.86348C4.77185 14.9938 4.7102 14.6176 4.7102 14.226ZM7.22372 16.5512C7.40945 17.4403 7.67879 18.1847 7.95736 18.775C6.83088 18.3785 5.90049 17.5836 5.32987 16.5512H7.22372ZM10.6693 16.5512C10.3981 17.7012 9.97563 18.5382 9.64116 19.0612C9.63283 19.0623 9.62501 19.0635 9.61788 19.0645C9.61613 19.0648 9.61442 19.065 9.61276 19.0653C9.58882 19.0687 9.57166 19.0709 9.5551 19.0709C9.53857 19.0709 9.52144 19.0687 9.49742 19.0652L9.49251 19.0645C9.48526 19.0635 9.47729 19.0623 9.46879 19.0612C9.13539 18.5392 8.7126 17.7018 8.44104 16.5512H10.6693ZM11.8868 16.5512H13.7803C13.2097 17.5834 12.2796 18.3783 11.1534 18.7749C11.4323 18.1843 11.7014 17.4403 11.8868 16.5512ZM14.2467 15.3622H12.0672C12.1031 15.0018 12.1276 14.6269 12.1276 14.226C12.1276 13.8254 12.1039 13.4501 12.0685 13.0898H14.2467C14.3383 13.4582 14.4 13.8345 14.4 14.226C14.4 14.6176 14.3383 14.9938 14.2467 15.3622Z" fill="#838383" stroke="#838383" stroke-width="0.2"/>
<path d="M14.6 23.1268V23.0268H14.5H4.6102H4.5102V23.1268V24.1158V24.2158H4.6102H14.5H14.6V24.1158V23.1268Z" fill="#838383" stroke="#838383" stroke-width="0.2"/>
<path d="M21.4109 15.9063L21.3143 15.8804L21.2884 15.977L20.7763 17.8875L20.7504 17.9841L20.847 18.01L21.8023 18.266L21.8989 18.2919L21.9247 18.1953L22.4368 16.2848L22.4627 16.1882L22.3661 16.1623L21.4109 15.9063Z" fill="#838383" stroke="#838383" stroke-width="0.2"/>
<path d="M20.3867 19.7256L20.2901 19.6997L20.2642 19.7963L18.4726 26.4829L18.4467 26.5795L18.5433 26.6053L19.4986 26.8613L19.5952 26.8872L19.6211 26.7906L21.4126 20.104L21.4385 20.0074L21.3419 19.9815L20.3867 19.7256Z" fill="#838383" stroke="#838383" stroke-width="0.2"/>
<path d="M15.4417 -0.0287236L15.4417 -0.0287263C15.2618 -0.076931 15.0808 -0.1 14.9028 -0.1C13.9853 -0.0999351 13.1457 0.512187 12.8968 1.44064L12.8968 1.44065L11.8828 5.22517H1.64325C1.04186 5.22517 0.554266 5.71269 0.554266 6.31415V26.0938C0.554266 26.6952 1.04186 27.1827 1.64325 27.1827H13.0529L19.9422 29.0287L19.9681 28.9321L19.9423 29.0287C20.1222 29.0769 20.303 29.1 20.4812 29.1C21.3987 29.1 22.2383 28.4878 22.4872 27.5594L28.3744 5.58785C28.6715 4.47937 28.0135 3.33994 26.905 3.04293L15.4417 -0.0287236ZM20.2499 27.8802L17.173 27.0558C17.9777 26.7708 18.5559 26.0083 18.5559 25.1048V17.3948L18.9365 17.4968L19.0331 17.5227L19.059 17.4261L19.5711 15.5155L19.597 15.4189L19.5004 15.393L18.5559 15.14V7.74109L19.3857 7.96349L20.5391 11.7343L20.5553 11.7873L20.6088 11.8016L21.4276 12.021L21.5564 12.0556L21.5534 11.9223L21.4788 8.52433L22.7561 8.8666L23.3712 9.95125L23.3919 9.98768L23.4323 9.99851L23.9782 10.1448L24.1122 10.1807L24.1039 10.0422L24.012 8.51453L24.8554 7.23746L24.9319 7.12166L24.7979 7.08575L24.2519 6.93951L24.2115 6.92867L24.1754 6.94989L23.1006 7.58171L21.823 7.23943L23.5867 4.33418L23.6559 4.22021L23.5271 4.18569L22.7083 3.96626L22.6548 3.95192L22.6143 3.98971L19.7301 6.67866C19.5282 6.62458 19.3212 6.56911 19.1236 6.51615C18.7951 6.4281 18.4924 6.34698 18.2822 6.29071C17.9269 5.65841 17.2567 5.22523 16.4779 5.22523H13.1135L14.045 1.74854C14.045 1.74852 14.045 1.74851 14.045 1.7485C14.1493 1.36018 14.5022 1.0891 14.9027 1.08904C14.9797 1.08904 15.0575 1.09935 15.1339 1.11987L15.1339 1.11988L26.5973 4.19153L26.6232 4.09494L26.5973 4.19153C26.8269 4.25303 27.0182 4.39993 27.1371 4.60574L27.1371 4.60577C27.256 4.81151 27.2875 5.05068 27.2261 5.28014L21.3388 27.2516C21.2346 27.64 20.8818 27.9111 20.4812 27.9111C20.4042 27.9111 20.3264 27.9008 20.25 27.8803L20.2499 27.8802ZM1.74325 25.9938V6.41415H16.478C16.9681 6.41415 17.3669 6.81305 17.3669 7.30313V25.1048C17.3669 25.5949 16.9681 25.9938 16.478 25.9938H1.74325Z" fill="#838383" stroke="#838383" stroke-width="0.2"/>
<path d="M21.1531 13.292L21.0565 13.2664L21.0309 13.3631L20.7779 14.3191L20.7523 14.4158L20.849 14.4414L21.7888 14.6901L21.8855 14.7157L21.911 14.619L22.164 13.6629L22.1896 13.5663L22.0929 13.5407L21.1531 13.292Z" fill="#838383" stroke="#838383" stroke-width="0.2"/>
<path d="M23.0302 13.7907L22.9335 13.7651L22.9079 13.8618L22.6549 14.8178L22.6294 14.9145L22.726 14.9401L23.6658 15.1887L23.7625 15.2143L23.7881 15.1176L24.041 14.1617L24.0666 14.065L23.97 14.0394L23.0302 13.7907Z" fill="#838383" stroke="#838383" stroke-width="0.2"/>
<path d="M19.2762 12.7949L19.1796 12.7693L19.154 12.866L18.901 13.822L18.8754 13.9187L18.9721 13.9442L19.9119 14.1929L20.0086 14.2185L20.0341 14.1218L20.2871 13.1658L20.3127 13.0692L20.216 13.0436L19.2762 12.7949Z" fill="#838383" stroke="#838383" stroke-width="0.2"/>
</g>
<defs>
<clipPath id="clip0_181_12">
<rect width="29" height="29" fill="white"/>
</clipPath>
</defs>
</svg>
