<svg width="19" height="19" viewBox="0 0 19 19" fill="none" xmlns="http://www.w3.org/2000/svg">
<path d="M18.4236 17.4514L13.433 12.4607C14.5272 11.1488 15.1875 9.46303 15.1875 7.625C15.1875 3.45497 11.795 0.0625 7.625 0.0625C3.45497 0.0625 0.0625 3.45497 0.0625 7.625C0.0625 11.795 3.45497 15.1875 7.625 15.1875C9.46303 15.1875 11.1488 14.5272 12.4607 13.433L17.4514 18.4237C17.5857 18.558 17.7617 18.6252 17.9375 18.6252C18.1133 18.6252 18.2893 18.558 18.4236 18.4237C18.6922 18.1551 18.6922 17.7199 18.4236 17.4514ZM1.4375 7.625C1.4375 4.21328 4.21294 1.4375 7.625 1.4375C11.0371 1.4375 13.8125 4.21328 13.8125 7.625C13.8125 11.0367 11.0371 13.8125 7.625 13.8125C4.21294 13.8125 1.4375 11.0367 1.4375 7.625Z" fill="black"/>
</svg>
