<svg width="19" height="24" viewBox="0 0 19 24" fill="none" xmlns="http://www.w3.org/2000/svg">
<g clip-path="url(#clip0_1232_5004)">
<path d="M14.9711 21.3667C14.9059 21.3197 14.6139 21.3927 14.5409 21.3667C14.2149 21.1946 13.79 20.9808 13.464 20.8087C13.1381 20.6366 12.7731 20.4411 12.4211 20.2507C11.3365 19.665 10.2562 19.0705 9.18029 18.4674L8.36681 18.0111L7.75671 17.6435L6.5 16.9291C6.08805 16.6944 5.68393 16.4598 5.29283 16.2329C4.90174 16.0061 4.52629 15.7871 4.17431 15.5759C3.5616 15.2135 3.26959 15.031 2.6647 14.6607L2.0207 14.267L1.98941 14.2436L1.61657 14.0089L1.51228 13.9411L1.47578 13.9177C1.33776 13.8424 1.18398 13.8005 1.02683 13.7955C0.869686 13.7906 0.713565 13.8226 0.571052 13.889C0.490248 13.9193 0.417847 13.9685 0.359863 14.0324C0.359863 14.0558 0.359863 14.1784 0.359863 14.2018C0.370175 14.2459 0.389675 14.2872 0.417084 14.3231C0.444494 14.3591 0.479194 14.3888 0.518907 14.4104L0.571052 14.4417L0.61277 14.4626L0.730096 14.5225L0.836996 14.5799L1.17333 14.7546L1.32456 14.838L1.84601 15.1222L1.88512 15.1431L2.04938 15.2317C3.12358 15.8158 3.87447 16.2355 4.91739 16.8456C5.20158 17.0073 5.48577 17.1715 5.76736 17.3384C6.17583 17.5765 6.58778 17.8181 7.00321 18.0632L7.62113 18.4282C8.59104 19.0036 9.55747 19.5833 10.5204 20.1673L10.6612 20.2533C11.1331 20.5428 11.6051 20.8296 12.0744 21.1216L12.1578 21.1737C12.608 21.4518 13.0573 21.7351 13.5058 22.0237C13.671 22.1136 13.855 22.1632 14.043 22.1687C14.231 22.1741 14.4177 22.1351 14.5878 22.055C14.9163 21.8907 15.2109 21.5335 14.9711 21.3667Z" fill="#0D0D15"/>
<path d="M14.6034 21.9559C14.433 22.0357 14.2463 22.0742 14.0583 22.0683C13.8703 22.0624 13.6863 22.0123 13.5213 21.922C13.0729 21.6352 12.6218 21.3536 12.1734 21.072L12.0899 21.0225C11.6206 20.7305 11.1496 20.4411 10.6768 20.1543L10.536 20.0682C9.57131 19.4842 8.60488 18.9045 7.63671 18.3292L7.01878 17.9563L5.78293 17.2315L4.93296 16.7387C4.27071 16.3581 3.73101 16.0504 3.15741 15.7323L2.62031 15.4351L2.05453 15.1274L1.89027 15.0388L1.85116 15.0179L1.3297 14.7311L1.17848 14.6503L0.84214 14.473L0.735245 14.4183L0.615308 14.3557L0.576201 14.3348L0.524052 14.3061C0.289397 14.1523 0.312866 13.9203 0.576201 13.7847C0.718381 13.717 0.874668 13.6844 1.03204 13.6893C1.18941 13.6943 1.34331 13.7368 1.48092 13.8134L1.51743 13.8368L1.62172 13.9046L1.99456 14.1393C2.00487 14.1477 2.01627 14.1547 2.02845 14.1601C2.20314 14.2696 2.41433 14.4026 2.66202 14.5538L3.62672 15.1483L4.17164 15.4716L4.58619 15.7167L5.27973 16.1312L6.4869 16.8274L7.74361 17.5392L8.37718 17.8964L9.19065 18.3526C10.2666 18.9558 11.3469 19.5511 12.4315 20.1386C12.773 20.3263 13.1198 20.5115 13.4744 20.694C13.931 20.963 14.4164 21.1799 14.9214 21.3406C15.2004 21.4162 14.9162 21.7916 14.6034 21.9559Z" fill="#F1DA00"/>
<path d="M14.2983 21.3797L14.0767 21.0225L14.001 20.9834L13.4639 20.6966C13.0963 20.8087 12.4992 20.9782 12.1733 21.0746C12.2907 21.1477 12.4028 21.2154 12.5071 21.2832C13.0989 21.3797 13.6995 21.412 14.2983 21.3797Z" fill="#F2F2F2"/>
<path d="M2.90188 14.8015L2.81584 14.6607L2.65158 14.559L2.02062 14.1653L1.98933 14.1445C1.63996 14.2488 1.14718 14.3896 0.836914 14.4782L1.17325 14.6555L1.32447 14.7363C1.84712 14.8069 2.37519 14.8287 2.90188 14.8015Z" fill="#F2F2F2"/>
<path d="M4.62787 15.7845C4.14161 15.8114 3.65392 15.7957 3.1704 15.7375L2.6333 15.4403L3.62928 15.1535L4.1742 15.4768L4.58876 15.7219L4.62787 15.7845Z" fill="#F2F2F2"/>
<path d="M12.8799 20.5636L12.7183 20.3029L12.4315 20.1491L11.9856 19.9066C11.6362 20.0109 11.133 20.1673 10.8149 20.2455L11.0444 20.3863L11.2217 20.4932C11.7707 20.5719 12.3262 20.5955 12.8799 20.5636Z" fill="#F2F2F2"/>
<path d="M11.464 19.7449C11.464 19.7449 11.4145 19.6615 11.3441 19.5494L10.8226 19.2626L10.5176 19.0957L9.44336 19.4086L9.89963 19.6823C10.418 19.7518 10.9417 19.7727 11.464 19.7449Z" fill="#F2F2F2"/>
<path d="M9.22461 18.8324C9.12947 18.8799 9.02459 18.9046 8.91825 18.9046C8.81192 18.9046 8.70703 18.8799 8.6119 18.8324L8.40071 18.7046L8.15562 18.5586H8.13477C8.3056 18.6179 8.49292 18.6076 8.65622 18.5299C8.80484 18.4465 8.83091 18.3187 8.72922 18.2223H8.74226L9.00299 18.3631L9.22461 18.4856C9.40191 18.5768 9.39669 18.7385 9.22461 18.8324Z" fill="#070709"/>
<path d="M8.66408 18.5091C8.50078 18.5867 8.31347 18.597 8.14263 18.5377L7.8454 18.363C7.73068 18.2927 7.60553 18.217 7.46995 18.1388L5.46235 16.9473L5.14426 16.7596L5.08429 16.7205C5.02612 16.652 4.98502 16.5707 4.96436 16.4832C5.06343 16.4076 5.1573 16.3346 5.26419 16.2616L5.3007 16.2407L5.33198 16.259L5.75697 16.5041L6.21324 16.7648L6.68516 17.0255L7.15708 17.2862L7.61596 17.547L8.04616 17.7894L8.43204 18.0059L8.74491 18.1831C8.83877 18.2979 8.8127 18.4256 8.66408 18.5091Z" fill="#424145"/>
<path d="M5.16235 15.98L4.95898 16.4571V16.4936L5.19624 16.285L5.51173 15.7975L5.16235 15.98Z" fill="#070709"/>
<path d="M5.38379 16.392C5.35251 16.3737 5.35251 16.0634 5.32383 16.0452L4.96924 16.5093C4.97237 16.5252 4.97673 16.5409 4.98228 16.5562L5.19346 16.6788L5.53763 16.4806L5.38379 16.392Z" fill="#070709"/>
<path d="M7.1676 17.8312L7.12849 17.8077L6.67743 17.547L6.21334 17.2862L5.74663 17.0125L5.29297 16.7518L5.63713 16.551L6.0934 16.8117L6.56532 17.0725L7.03984 17.3332L7.49872 17.5939L7.53784 17.6148L7.1676 17.8312Z" fill="#070709"/>
<path d="M7.58973 18.1101L7.37593 17.9824L7.09956 17.8155L6.8623 17.6747L7.25079 17.4505L7.49848 17.5887L7.78267 17.7477L8.00168 17.8703C8.02474 17.8811 8.04444 17.8979 8.05867 17.9191C8.07291 17.9402 8.08114 17.9648 8.08251 17.9902C8.07887 18.0163 8.06856 18.0411 8.05258 18.0621C8.03659 18.0831 8.01547 18.0997 7.99125 18.1101C7.92865 18.1404 7.86002 18.1561 7.7905 18.1561C7.72097 18.1561 7.65234 18.1404 7.58973 18.1101Z" fill="#070709"/>
<path d="M12.7417 20.7435C12.3901 20.7809 12.0362 20.7905 11.6831 20.7722L12.0898 21.0329L12.7417 20.7435Z" fill="#039BE5"/>
<path d="M11.2765 19.8987C10.9544 19.932 10.6303 19.9424 10.3066 19.93L10.5361 20.0682L10.6769 20.1543L11.2765 19.8987Z" fill="#039BE5"/>
<path d="M2.80286 15.0101C2.4963 15.042 2.18795 15.0533 1.87988 15.044L2.04414 15.1326L2.25012 15.2448L2.80286 15.0101Z" fill="#039BE5"/>
<path d="M14.0688 21.51C13.6816 21.5498 13.2917 21.5567 12.9033 21.5309L12.9737 21.5752L13.3544 21.8151L14.0688 21.51Z" fill="#039BE5"/>
<path d="M6.49462 17.4766C5.91581 17.2341 5.31352 16.7622 5.3422 16.5093C5.3422 16.4597 5.28484 15.2839 5.28223 15.2526C5.27963 15.2213 5.91059 15.1326 6.40858 15.0648C6.47376 15.3256 6.40858 15.7923 6.52591 16.1834C6.57023 16.2407 6.62759 16.3111 6.69277 16.3893L6.8466 16.5745L6.97175 16.7179C7.01608 16.77 7.05779 16.8195 7.09951 16.8639C7.21162 16.9942 7.30027 17.0933 7.32373 17.1246C7.34065 17.1389 7.35635 17.1546 7.37067 17.1715C7.4373 17.2408 7.48489 17.3261 7.50885 17.4192C7.54535 17.6956 7.09169 17.7321 6.49462 17.4766Z" fill="#253137"/>
<path d="M5.85067 16.3476C5.8786 16.3749 5.90916 16.3994 5.94192 16.4206C6.16553 16.4288 6.38583 16.3648 6.57028 16.2381L6.52596 16.1808C6.51292 16.1364 6.5051 16.0921 6.49467 16.0478C6.27892 16.1734 6.02822 16.2256 5.78027 16.1964C5.78655 16.2532 5.81128 16.3063 5.85067 16.3476Z" fill="#CA0101"/>
<path d="M6.49472 17.4766C5.93155 17.2393 5.3397 16.7831 5.3397 16.5275C5.33862 16.5215 5.33862 16.5153 5.3397 16.5093C5.3397 16.5093 5.3397 16.4285 5.3397 16.332C5.3397 16.2355 5.3397 16.1364 5.32666 16.0217C5.39324 16.0688 5.46497 16.1082 5.54046 16.1391C5.54426 16.1729 5.55214 16.2062 5.56392 16.2381C5.58635 16.2988 5.61897 16.3553 5.6604 16.405C5.92159 16.6367 6.22289 16.8187 6.54947 16.9421C6.63812 16.9421 6.72677 17.2028 6.8102 17.2028C6.8971 17.2237 6.98747 17.2257 7.07519 17.2086C7.16292 17.1915 7.24594 17.1558 7.31862 17.1037C7.33554 17.1181 7.35124 17.1338 7.36555 17.1507L7.42031 17.2185C7.46015 17.2721 7.48855 17.3333 7.50374 17.3984C7.54546 17.6956 7.09179 17.7321 6.49472 17.4766Z" fill="#CA0101"/>
<path d="M10.0224 9.63909C10.0224 9.63909 7.66283 8.03562 7.66283 8.33545C7.66283 9.54784 7.37603 11.5607 6.50781 12.9086C6.50781 12.9086 5.20417 14.473 5.14941 15.6593C5.20417 16.2407 6.38526 16.4206 6.80243 15.9383C6.84936 15.2291 7.84534 14.4756 8.0461 13.5344C8.17386 13.3519 8.12432 13.1902 8.23643 13.0129C9.61047 10.9297 10.0224 9.63909 10.0224 9.63909Z" fill="#003366"/>
<path d="M6.49472 17.4766C5.93155 17.2393 5.3397 16.7831 5.3397 16.5275C5.33862 16.5215 5.33862 16.5153 5.3397 16.5093C5.3397 16.5093 5.3397 16.4285 5.3397 16.332C5.3397 16.2355 5.3397 16.1364 5.32666 16.0217C5.39324 16.0688 5.46497 16.1082 5.54046 16.1391C5.54426 16.1729 5.55214 16.2062 5.56392 16.2381C5.579 16.3671 5.61145 16.4934 5.6604 16.6136C5.72818 16.7648 5.88983 16.9864 6.06191 17.0047C6.08799 17.0047 6.18185 16.8717 6.26268 16.8769C6.35143 16.9118 6.4328 16.9631 6.50255 17.0281C6.67984 17.1898 6.67723 17.354 6.96664 17.3853C7.13351 17.4036 7.35773 17.3853 7.42813 17.2263C7.46797 17.2799 7.49637 17.3411 7.51156 17.4062C7.54546 17.6956 7.09179 17.7321 6.49472 17.4766Z" fill="#AA0000"/>
<path d="M6.84665 16.5719C6.80375 16.562 6.75918 16.562 6.71628 16.5719C6.42995 16.6366 6.16997 16.7866 5.9706 17.0021C5.96431 17.0176 5.95349 17.0309 5.93954 17.0402C5.92558 17.0495 5.90915 17.0544 5.89238 17.0542C5.87959 17.0578 5.86607 17.0578 5.85327 17.0542C5.83229 17.0441 5.81615 17.0261 5.80835 17.0041C5.80054 16.9821 5.80169 16.958 5.81156 16.9369C6.03849 16.6691 6.34888 16.4855 6.69282 16.4154C6.74757 16.3555 6.90401 16.5067 6.84665 16.5719Z" fill="#9E9E9E"/>
<path d="M6.16356 16.817C6.21266 16.7807 6.26404 16.7476 6.31739 16.7179C6.26646 16.6817 6.21771 16.6425 6.17138 16.6006C6.12445 16.6266 6.08273 16.6579 6.04102 16.6866C6.08012 16.7309 6.12184 16.7752 6.16356 16.817Z" fill="#BCBCBC"/>
<path d="M6.59628 16.4337C6.58935 16.4272 6.584 16.4191 6.58064 16.4102C6.4651 16.4451 6.35399 16.4932 6.24951 16.5536C6.29764 16.5956 6.34813 16.6348 6.40073 16.6709C6.49894 16.6169 6.60561 16.5798 6.71621 16.5614C6.68519 16.5113 6.64441 16.4678 6.59628 16.4337Z" fill="#E5E5E5"/>
<path d="M7.09976 16.8613C6.83795 16.9344 6.60208 17.0799 6.41926 17.281C6.41186 17.2961 6.40034 17.3087 6.38603 17.3175C6.37172 17.3263 6.35522 17.3308 6.33844 17.3306C6.32552 17.333 6.31225 17.333 6.29933 17.3306C6.28893 17.3256 6.27963 17.3186 6.272 17.3099C6.26437 17.3012 6.25855 17.2911 6.2549 17.2802C6.25125 17.2693 6.24985 17.2577 6.25076 17.2462C6.25167 17.2347 6.25489 17.2235 6.26022 17.2132C6.44433 16.9836 6.69184 16.8132 6.97201 16.7231C7.04241 16.7074 7.13887 16.8274 7.09976 16.8613Z" fill="#9E9E9E"/>
<path d="M6.88573 16.7491C6.79456 16.7877 6.70726 16.8349 6.625 16.8899L6.70322 16.9577L6.75797 17.0151C6.84056 16.9649 6.92789 16.923 7.0187 16.8899C6.97437 16.843 6.92744 16.7935 6.88573 16.7491Z" fill="#E5E5E5"/>
<path d="M6.60684 16.9995L6.53645 16.9395C6.48952 16.9734 6.4478 17.0073 6.40869 17.0412C6.45271 17.0824 6.50075 17.1191 6.55209 17.1507C6.59035 17.1189 6.63039 17.0893 6.67203 17.062L6.60684 16.9995Z" fill="#BCBCBC"/>
<path d="M7.53784 18.045L7.89764 17.8208C7.89764 17.8208 7.53784 16.9395 7.238 17.0699C6.86777 17.2315 7.53784 18.045 7.53784 18.045Z" fill="#070709"/>
<path d="M7.55348 17.3045C7.65674 17.4898 7.74817 17.6813 7.82725 17.8781L7.89764 17.8208C7.89764 17.8208 7.53784 16.9395 7.238 17.0699L7.19629 17.0933C7.35273 17.049 7.48048 17.1742 7.55348 17.3045Z" fill="#565559"/>
<path d="M7.18031 17.2002C7.16209 17.2047 7.1457 17.2147 7.13338 17.2289C7.11513 17.5209 7.54272 18.0398 7.54272 18.0398L7.57401 18.0215C7.36916 17.7896 7.23285 17.5052 7.18031 17.2002Z" fill="#424145"/>
<path d="M7.60787 18.0007L7.66262 17.9694C7.57271 17.6959 7.42612 17.4445 7.23242 17.2315C7.28704 17.5167 7.41663 17.7822 7.60787 18.0007Z" fill="#424145"/>
<path d="M7.53743 18.045L6.99512 17.7451L7.1307 17.56L7.18545 17.4844L7.53743 18.045Z" fill="#36353B"/>
<path d="M7.32885 17.8755L6.99512 17.7451L7.1307 17.56L7.32885 17.8755Z" fill="#070709"/>
<path d="M5.45439 16.9473L5.1363 16.7596L5.07634 16.7205C5.01817 16.652 4.97706 16.5707 4.9564 16.4832C4.95008 16.4452 4.95008 16.4065 4.9564 16.3685L5.17281 15.98L5.26928 15.9305C5.14934 15.9904 5.16759 16.1547 5.26928 16.2512C5.35668 16.4756 5.41877 16.7091 5.45439 16.9473Z" fill="#424145"/>
<path d="M5.32387 16.7492C5.32387 16.7492 5.00057 16.5719 4.97971 16.465C4.95886 16.3581 5.0449 16.2277 5.13876 16.2329C5.23262 16.2381 5.32387 16.7492 5.32387 16.7492Z" fill="#070709"/>
<path d="M6.21052 16.3607C6.19066 16.3607 6.17137 16.354 6.15577 16.3417C6.14017 16.3294 6.12915 16.3122 6.12448 16.2929C6.1204 16.2698 6.1251 16.2461 6.13764 16.2263C6.15018 16.2065 6.16967 16.1921 6.19227 16.186C6.28378 16.1694 6.37188 16.1376 6.45299 16.0921H6.47385C6.51818 16.0713 6.54164 16.0921 6.5625 16.1443C6.58336 16.1964 6.59379 16.2303 6.5625 16.2512H6.54686C6.44852 16.3034 6.34313 16.3412 6.23398 16.3633L6.21052 16.3607Z" fill="#9E9E9E"/>
<path d="M6.4767 16.0843H6.46106C6.38581 16.1253 6.30501 16.1551 6.22119 16.1729C6.2292 16.2316 6.24318 16.2892 6.26291 16.345C6.34744 16.3252 6.4296 16.2963 6.50799 16.259C6.50691 16.1995 6.49634 16.1405 6.4767 16.0843Z" fill="#BCBCBC"/>
<path d="M15.7321 23.1996C15.6643 23.1526 15.3749 23.2257 15.3019 23.1996C14.9734 23.0275 14.551 22.8137 14.2251 22.639C13.8992 22.4643 13.5342 22.2714 13.1822 22.0837C12.1011 21.4979 11.0217 20.9026 9.94398 20.2977C9.68325 20.1465 9.40167 19.9926 9.13051 19.844L8.49694 19.4868L7.24023 18.7724C6.82828 18.5378 6.42155 18.3031 6.03306 18.0763C5.64458 17.8494 5.26652 17.6304 4.91193 17.4192C4.30183 17.0568 4.00981 16.8743 3.40492 16.5015L2.76875 16.1078L2.73486 16.0869L2.36462 15.8523L2.26033 15.7845L2.22383 15.761C2.08622 15.6847 1.93248 15.6421 1.77522 15.6366C1.61796 15.6312 1.46165 15.6631 1.3191 15.7297C1.23791 15.7593 1.16534 15.8086 1.10791 15.8731C1.1027 15.9304 1.1027 15.988 1.10791 16.0452C1.11867 16.089 1.13835 16.1302 1.16571 16.1661C1.19308 16.2019 1.22754 16.2318 1.26696 16.2538L1.3191 16.2825L1.35821 16.3033L1.47554 16.3659L1.58504 16.4207L1.92138 16.598L2.0726 16.6788L2.59406 16.9656L2.63056 16.9864L2.79482 17.0751C3.87163 17.6565 4.61992 18.0763 5.67587 18.689C5.96006 18.8506 6.24164 19.0149 6.52323 19.1792L7.76169 19.9066L8.37961 20.2716C9.34604 20.8452 10.3125 21.4249 11.2789 22.0107L11.4197 22.0967C11.8916 22.3835 12.3609 22.6729 12.8328 22.9649L12.9137 23.0171C13.3656 23.2952 13.8158 23.5776 14.2642 23.8644C14.4288 23.9547 14.6123 24.0048 14.7999 24.0107C14.9875 24.0166 15.1738 23.9781 15.3437 23.8983C15.6774 23.7236 15.972 23.3664 15.7321 23.1996Z" fill="#0D0D15"/>
<path d="M15.3622 23.7862C15.1926 23.867 15.0064 23.9063 14.8187 23.9008C14.631 23.8954 14.4473 23.8454 14.2827 23.7549C13.8343 23.4681 13.3832 23.1865 12.9322 22.9049L12.8513 22.8528L11.4382 21.9872L11.2974 21.8985C10.3327 21.3145 9.36629 20.7348 8.39812 20.1595L7.77758 19.7945L6.54434 19.0696L5.69437 18.5769C5.03212 18.1962 4.49241 17.8885 3.91881 17.5705L3.38171 17.2732L2.8029 16.9656L2.63864 16.8743L2.60213 16.8534L2.08068 16.5693L1.92946 16.4884L1.59312 16.3111L1.48622 16.2538L1.36629 16.1938L1.32718 16.173C1.3089 16.1641 1.29146 16.1536 1.27503 16.1417C1.04038 15.9904 1.06384 15.7558 1.32718 15.6202C1.46969 15.5538 1.62581 15.5218 1.78296 15.5268C1.9401 15.5318 2.09388 15.5736 2.2319 15.6489L2.2658 15.675C2.30257 15.6957 2.33826 15.7183 2.3727 15.7428L2.74293 15.9774L2.77682 15.9983L3.413 16.392C3.8093 16.637 4.07003 16.7987 4.37769 16.9838L4.92 17.3097L5.33456 17.5522L6.04113 17.9668L7.24831 18.6629L8.50501 19.3747L9.13858 19.7319L9.95205 20.1882C11.0297 20.7913 12.1091 21.3866 13.1903 21.9741C13.5345 22.1619 13.8812 22.347 14.2332 22.5295C14.6882 22.7992 15.1729 23.0153 15.6776 23.1735C15.9618 23.2465 15.6776 23.6246 15.3622 23.7862Z" fill="#F1DA00"/>
<path d="M15.0572 23.2126C15.0572 23.2126 14.9529 23.0379 14.8356 22.8554L14.7626 22.8137L14.2255 22.5295C13.8579 22.639 13.2608 22.8111 12.9219 22.9049L13.2582 23.1135C13.8524 23.2124 14.4557 23.2456 15.0572 23.2126Z" fill="#F2F2F2"/>
<path d="M3.66344 16.6318L3.5774 16.4937L3.41314 16.392L2.77696 15.9983C2.76665 15.9898 2.75525 15.9828 2.74307 15.9774L1.59326 16.3111L1.9296 16.4884L2.08082 16.5693C2.6052 16.6401 3.13511 16.661 3.66344 16.6318Z" fill="#F2F2F2"/>
<path d="M5.3738 17.6148C4.88847 17.6418 4.40172 17.627 3.91893 17.5705L3.38184 17.2732L4.38042 16.9838L4.92274 17.3097L5.33729 17.5522L5.3738 17.6148Z" fill="#F2F2F2"/>
<path d="M13.6411 22.3887L13.4769 22.128L13.1901 21.9741L12.7442 21.7317L11.5762 22.0706L11.8056 22.2088C11.863 22.2479 11.9229 22.2818 11.9803 22.3183C12.5302 22.397 13.0866 22.4206 13.6411 22.3887Z" fill="#F2F2F2"/>
<path d="M12.2257 21.5752L12.1058 21.3823L11.5843 21.0955L11.2819 20.9286L10.2051 21.2389L10.6614 21.5153C11.1798 21.5844 11.7035 21.6045 12.2257 21.5752Z" fill="#F2F2F2"/>
<path d="M9.98323 20.6627C9.88879 20.711 9.78424 20.7361 9.67818 20.7361C9.57211 20.7361 9.46756 20.711 9.37313 20.6627L9.15933 20.5375L8.91685 20.3915H8.896C9.06717 20.45 9.2545 20.4388 9.41745 20.3602C9.56607 20.2794 9.58953 20.1517 9.49046 20.0526L9.75118 20.1934L9.9702 20.3159H9.98323C10.1605 20.4098 10.1553 20.5636 9.98323 20.6627Z" fill="#070709"/>
<path d="M9.42548 20.3394C9.26252 20.4179 9.0752 20.4292 8.90402 20.3707L8.60679 20.1934L8.23135 19.9718L6.22374 18.7776L5.90565 18.5899L5.84569 18.5534C5.78722 18.4847 5.7453 18.4036 5.72314 18.3161C5.82483 18.2405 5.91869 18.1649 6.02559 18.0945L6.06209 18.071L6.09338 18.0893L6.51576 18.3344L6.97464 18.5951L7.44656 18.8558L7.91847 19.1166L8.37736 19.3773L8.80756 19.6198L9.19343 19.8388L9.50631 20.0135C9.59756 20.1308 9.58192 20.2586 9.42548 20.3394Z" fill="#424145"/>
<path d="M5.93139 17.8129L5.72803 18.2874V18.3266L5.96529 18.1154L6.28077 17.6278L5.93139 17.8129Z" fill="#070709"/>
<path d="M6.14552 18.2171C6.11423 18.1988 6.11423 17.8886 6.08555 17.8703L5.73096 18.3344C5.73409 18.3504 5.73845 18.366 5.74399 18.3813L5.95518 18.5039L6.29935 18.3057L6.14552 18.2171Z" fill="#070709"/>
<path d="M7.92883 19.6641L7.88972 19.6406L7.43866 19.3799L6.97196 19.1192L6.50526 18.8584L6.0542 18.5977L6.39836 18.3996L6.85463 18.6603L7.32655 18.921L7.79847 19.1818L8.25995 19.4425L8.29646 19.4659L7.92883 19.6641Z" fill="#070709"/>
<path d="M8.35129 19.9431L8.1401 19.8153L7.86112 19.6485L7.62646 19.5077L8.01495 19.2834L8.26003 19.4216L8.54683 19.5807L8.76584 19.7032C8.78922 19.7139 8.8093 19.7307 8.82398 19.7518C8.83866 19.7729 8.8474 19.7975 8.84928 19.8232C8.84546 19.8489 8.83505 19.8732 8.81906 19.8938C8.80307 19.9144 8.78205 19.9304 8.75802 19.9405C8.69493 19.972 8.62546 19.9886 8.55496 19.989C8.48445 19.9895 8.41478 19.9738 8.35129 19.9431Z" fill="#070709"/>
<path d="M13.4926 22.5764C13.141 22.6122 12.7871 22.6209 12.4341 22.6025L12.8408 22.8632L13.4926 22.5764Z" fill="#039BE5"/>
<path d="M12.0378 21.7317C11.7156 21.7647 11.3914 21.7743 11.0679 21.7603L11.2973 21.8985L11.4381 21.9872L12.0378 21.7317Z" fill="#039BE5"/>
<path d="M3.58508 16.843C3.27854 16.875 2.97018 16.8864 2.66211 16.8769L2.82637 16.9656L3.03495 17.0777L3.58508 16.843Z" fill="#039BE5"/>
<path d="M14.83 23.343C14.4428 23.3827 14.0529 23.3897 13.6646 23.3638L13.7349 23.4081L14.113 23.648L14.83 23.343Z" fill="#039BE5"/>
<path d="M7.25585 19.3095C6.67704 19.0644 6.07215 18.5925 6.10344 18.3422C6.10344 18.2927 6.04607 17.1168 6.04347 17.0855C6.04086 17.0542 6.67182 16.9656 7.16981 16.8978C7.23239 17.1585 7.16981 17.6252 7.28714 18.0163L7.454 18.2223C7.50093 18.2822 7.55569 18.3448 7.60783 18.4074L7.73037 18.5508L7.85813 18.6968C7.97285 18.8272 8.0615 18.9236 8.08496 18.9419C8.10188 18.9552 8.11758 18.9701 8.1319 18.9862C8.19817 19.0608 8.24556 19.1502 8.27008 19.2469C8.30658 19.5207 7.85292 19.565 7.25585 19.3095Z" fill="#253137"/>
<path d="M7.33165 18.071C7.3134 18.0502 7.30036 18.0293 7.28733 18.0137C7.27443 17.97 7.26399 17.9256 7.25604 17.8807C7.02553 18.0151 6.75567 18.0658 6.49211 18.0241C6.48152 18.099 6.4905 18.1753 6.51818 18.2457C6.80153 18.2876 7.09047 18.2256 7.33165 18.071Z" fill="#CA0101"/>
<path d="M7.2562 19.3095C6.69042 19.0696 6.10118 18.616 6.10118 18.3605C6.09974 18.3545 6.09974 18.3482 6.10118 18.3422C6.10118 18.3422 6.10118 18.2614 6.10118 18.1623C6.10118 18.0632 6.10118 17.9694 6.10118 17.8546C6.16836 17.9008 6.23999 17.9401 6.31498 17.972C6.31752 18.006 6.32543 18.0395 6.33844 18.071C6.36024 18.1313 6.39294 18.1869 6.43491 18.2353C6.69501 18.4671 6.99549 18.6492 7.32139 18.7724C7.41003 18.7724 7.49868 19.0331 7.58211 19.0331C7.66872 19.0543 7.75893 19.0562 7.84635 19.0387C7.93377 19.0211 8.01624 18.9845 8.08793 18.9315C8.10484 18.9448 8.12054 18.9597 8.13486 18.9758C8.15369 18.9981 8.1711 19.0216 8.187 19.0462C8.22852 19.0991 8.25789 19.1605 8.27304 19.2261C8.30694 19.5207 7.85327 19.565 7.2562 19.3095Z" fill="#CA0101"/>
<path d="M7.2562 19.3095C6.69042 19.0696 6.10118 18.616 6.10118 18.3605C6.09974 18.3545 6.09974 18.3482 6.10118 18.3422C6.10118 18.3422 6.10118 18.2614 6.10118 18.1623C6.10118 18.0632 6.10118 17.9694 6.10118 17.8546C6.16836 17.9008 6.23999 17.9401 6.31498 17.972C6.31752 18.006 6.32543 18.0395 6.33844 18.071C6.35383 18.1999 6.38627 18.3262 6.43491 18.4465C6.5027 18.5977 6.66435 18.8193 6.83383 18.8376C6.86251 18.8376 6.95636 18.7046 7.03458 18.7072C7.12394 18.7436 7.20607 18.7957 7.27706 18.8611C7.45436 19.0227 7.45175 19.187 7.73855 19.2183C7.90802 19.2365 8.12964 19.2183 8.20004 19.0592C8.24156 19.1121 8.27093 19.1736 8.28608 19.2391C8.30694 19.5207 7.85327 19.565 7.2562 19.3095Z" fill="#AA0000"/>
<path d="M7.60787 18.4048C7.56498 18.395 7.52041 18.395 7.47751 18.4048C7.19051 18.4678 6.93004 18.6181 6.73183 18.835C6.72463 18.8497 6.71351 18.862 6.6997 18.8708C6.6859 18.8795 6.66995 18.8843 6.65361 18.8845C6.64069 18.887 6.62742 18.887 6.6145 18.8845C6.59352 18.8744 6.57738 18.8564 6.56957 18.8344C6.56177 18.8125 6.56292 18.7883 6.57279 18.7672C6.79782 18.4972 7.10906 18.313 7.45405 18.2457C7.5088 18.1884 7.66523 18.337 7.60787 18.4048Z" fill="#9E9E9E"/>
<path d="M6.64854 18.2379C6.43195 18.2366 6.22058 18.1713 6.04104 18.0502C6.03122 18.0439 6.02278 18.0356 6.01624 18.026C6.0097 18.0163 6.00519 18.0054 6.003 17.9939C6.0008 17.9825 6.00097 17.9707 6.00347 17.9593C6.00598 17.9479 6.01078 17.9371 6.01758 17.9276C6.03074 17.9091 6.05053 17.8963 6.07285 17.8919C6.09518 17.8876 6.11832 17.892 6.13751 17.9042C6.25047 17.9817 6.37936 18.0329 6.51471 18.0541C6.65006 18.0753 6.78843 18.066 6.91969 18.0267C6.93065 18.0235 6.94213 18.0226 6.95346 18.0239C6.96479 18.0252 6.97575 18.0288 6.98569 18.0343C6.99564 18.0399 7.00438 18.0474 7.0114 18.0564C7.01842 18.0654 7.02358 18.0757 7.02659 18.0867C7.03306 18.1092 7.03039 18.1333 7.01916 18.1538C7.00792 18.1743 6.98904 18.1895 6.96662 18.1962C6.86293 18.2242 6.75595 18.2382 6.64854 18.2379Z" fill="#9E9E9E"/>
<path d="M6.92479 18.6499C6.96911 18.616 7.02126 18.5821 7.07601 18.5482C7.02593 18.5119 6.97805 18.4728 6.93261 18.4308C6.88735 18.4577 6.84381 18.4873 6.80225 18.5195C6.84136 18.5638 6.88307 18.6081 6.92479 18.6499Z" fill="#BCBCBC"/>
<path d="M7.35751 18.2666C7.35058 18.2601 7.34523 18.252 7.34187 18.2431C7.22626 18.2766 7.11509 18.3239 7.01074 18.3839C7.05817 18.4275 7.10871 18.4676 7.16196 18.5039C7.26 18.4494 7.36674 18.4123 7.47744 18.3944C7.44659 18.344 7.40578 18.3006 7.35751 18.2666Z" fill="#E5E5E5"/>
<path d="M7.85813 18.6942C7.59699 18.7688 7.36151 18.9141 7.17763 19.114C7.17067 19.1288 7.15961 19.1414 7.14575 19.1502C7.13189 19.1589 7.11582 19.1636 7.09941 19.1635C7.08662 19.1671 7.0731 19.1671 7.0603 19.1635C7.03932 19.1534 7.02318 19.1354 7.01538 19.1134C7.00757 19.0914 7.00872 19.0673 7.01859 19.0462C7.20478 18.8194 7.45165 18.6503 7.73037 18.5586C7.80077 18.5404 7.89985 18.6577 7.85813 18.6942Z" fill="#9E9E9E"/>
<path d="M7.6473 18.5795C7.5527 18.6196 7.4612 18.6667 7.37354 18.7203L7.45436 18.7907C7.47308 18.8085 7.49051 18.8277 7.5065 18.848C7.5886 18.7969 7.67602 18.755 7.76723 18.7229C7.72812 18.6733 7.68902 18.6264 7.6473 18.5795Z" fill="#E5E5E5"/>
<path d="M7.36824 18.8324L7.29784 18.7724C7.25191 18.802 7.20833 18.8352 7.16748 18.8715C7.21185 18.9123 7.25985 18.9489 7.31088 18.981C7.34738 18.9549 7.38649 18.9236 7.43081 18.8949C7.41265 18.8716 7.39163 18.8505 7.36824 18.8324Z" fill="#BCBCBC"/>
<path d="M6.14258 18.1128C6.2134 18.1488 6.28764 18.1776 6.3642 18.1988C6.3642 18.1362 6.3642 18.0737 6.3642 18.0137C6.29573 17.9898 6.23014 17.9583 6.16865 17.9198C6.15452 17.9833 6.1458 18.0478 6.14258 18.1128Z" fill="#BCBCBC"/>
<path d="M6.68262 18.2379C6.77069 18.2365 6.85826 18.2242 6.94335 18.2014C6.93818 18.1625 6.93818 18.123 6.94335 18.0841C6.94076 18.0765 6.94076 18.0682 6.94335 18.0606V18.0241C6.85841 18.0474 6.77067 18.0588 6.68262 18.058C6.69195 18.1176 6.69195 18.1783 6.68262 18.2379Z" fill="#BCBCBC"/>
<path d="M8.29629 19.8779L8.65871 19.6511C8.65871 19.6511 8.29629 18.7724 7.99906 18.9028C7.62883 19.0644 8.29629 19.8779 8.29629 19.8779Z" fill="#070709"/>
<path d="M8.31472 19.1374C8.41796 19.3218 8.5094 19.5125 8.58848 19.7084L8.65888 19.6511C8.65888 19.6511 8.29646 18.7724 7.99923 18.9028C7.9845 18.909 7.97051 18.9169 7.95752 18.9262C8.11135 18.8819 8.2391 18.9993 8.31472 19.1374Z" fill="#565559"/>
<path d="M7.94189 19.0305C7.92402 19.0372 7.90795 19.0479 7.89495 19.0618C7.87931 19.3538 8.3043 19.8727 8.3043 19.8727L8.33558 19.8544C8.12995 19.622 7.99356 19.3365 7.94189 19.0305Z" fill="#424145"/>
<path d="M8.36959 19.831L8.42173 19.7997C8.33306 19.527 8.18729 19.2763 7.99414 19.0644C8.04774 19.3492 8.17748 19.6141 8.36959 19.831Z" fill="#424145"/>
<path d="M8.29915 19.8753L7.75684 19.5781L7.89241 19.3929L7.94717 19.3147L8.29915 19.8753Z" fill="#36353B"/>
<path d="M8.09057 19.7084L7.75684 19.5781L7.89241 19.3929L8.09057 19.7084Z" fill="#070709"/>
<path d="M6.2159 18.7776L5.89781 18.5899L5.83785 18.5534C5.77938 18.4847 5.73746 18.4036 5.7153 18.3161C5.71144 18.2771 5.71144 18.2378 5.7153 18.1988L5.93431 17.8129L6.03079 17.7634C5.91085 17.8234 5.9291 17.9876 6.03079 18.0841C6.11817 18.3076 6.18026 18.5403 6.2159 18.7776Z" fill="#424145"/>
<path d="M6.08559 18.5795C6.08559 18.5795 5.76229 18.4048 5.74143 18.2979C5.72057 18.191 5.80661 18.058 5.90048 18.0632C5.99434 18.0684 6.08559 18.5795 6.08559 18.5795Z" fill="#070709"/>
<path d="M8.93537 9.80076C8.93537 9.63129 8.43477 9.76947 8.41391 9.63129L8.70071 9.39663C8.63814 9.1359 8.57817 8.87517 8.52342 8.61445L8.02543 8.7396C7.93475 8.63256 7.81696 8.55188 7.68439 8.50601C7.55182 8.46014 7.40936 8.45077 7.27192 8.47887C6.90951 8.55448 6.47149 8.53101 6.36459 8.56752C5.47551 9.52699 7.70473 14.2018 7.70473 14.2045C7.70592 14.2148 7.70592 14.2253 7.70473 14.2357C7.444 14.2748 7.30321 14.3061 7.30321 14.3061C7.04811 14.5223 6.85922 14.8061 6.75829 15.1248C6.29159 15.748 5.76752 16.5171 5.67627 17.135C5.67627 17.2889 5.88746 17.5496 5.96307 17.6565C6.24987 18.0085 7.02423 18.2014 7.36318 17.9459C7.48317 17.8554 7.565 17.7234 7.59262 17.5757C7.67866 17.1611 9.59501 15.0622 9.67844 14.679C9.8427 13.8473 8.97969 10.888 8.93537 9.80076Z" fill="#075D99"/>
<path d="M14.6843 7.73319C14.8929 8.17643 15.6151 8.25464 15.7273 7.7019C15.7532 7.62432 15.7516 7.54015 15.7226 7.46364C15.6936 7.38714 15.6391 7.32301 15.5682 7.28213C15.2084 7.06312 14.4497 7.2352 14.6843 7.73319Z" fill="#1A2428"/>
<path d="M18.1858 19.0227C18.1752 19.0254 18.1641 19.0261 18.1532 19.0245C18.1424 19.023 18.1319 19.0194 18.1225 19.0138C18.1131 19.0082 18.1048 19.0008 18.0982 18.9921C18.0916 18.9833 18.0868 18.9734 18.0841 18.9627L17.7712 17.6878C17.7685 17.6772 17.7678 17.6661 17.7694 17.6553C17.7709 17.6444 17.7746 17.6339 17.7801 17.6245C17.7857 17.6151 17.7931 17.6068 17.8018 17.6002C17.8106 17.5936 17.8206 17.5888 17.8312 17.5861C17.8529 17.5813 17.8757 17.5852 17.8946 17.5969C17.9136 17.6085 17.9273 17.6271 17.9329 17.6487L18.2457 18.9236C18.2485 18.9341 18.249 18.945 18.2475 18.9556C18.2459 18.9663 18.2422 18.9766 18.2367 18.9858C18.2311 18.9951 18.2237 19.0031 18.2149 19.0094C18.2062 19.0157 18.1963 19.0203 18.1858 19.0227Z" fill="#141F23"/>
<path d="M18.3602 18.4126C18.548 18.4674 18.5845 18.6212 18.4437 18.7568C18.3626 18.8254 18.2667 18.8741 18.1635 18.899C18.0602 18.9239 17.9526 18.9243 17.8492 18.9002C17.8104 18.8971 17.7735 18.8818 17.7438 18.8566C17.7142 18.8313 17.6932 18.7974 17.684 18.7596C17.6748 18.7217 17.6777 18.6819 17.6924 18.6458C17.707 18.6098 17.7327 18.5792 17.7658 18.5586C17.8462 18.489 17.9421 18.4395 18.0454 18.4141C18.1488 18.3887 18.2567 18.3882 18.3602 18.4126Z" fill="#253137"/>
<path d="M18.2716 18.496C18.2977 18.4975 18.3226 18.5072 18.3428 18.5238C18.363 18.5404 18.3773 18.563 18.3837 18.5884C18.3901 18.6137 18.3882 18.6404 18.3784 18.6646C18.3685 18.6888 18.3512 18.7092 18.3289 18.7229C18.2758 18.7683 18.2126 18.8004 18.1447 18.8167C18.0767 18.833 18.0058 18.833 17.9378 18.8167C17.8127 18.7828 17.7892 18.6812 17.8805 18.5925C17.9335 18.5469 17.9966 18.5144 18.0645 18.4976C18.1325 18.4808 18.2034 18.4803 18.2716 18.496Z" fill="#070709"/>
<path d="M18.1048 18.6577C18.082 18.6625 18.0582 18.6584 18.0384 18.6463C18.0185 18.6342 18.004 18.615 17.9979 18.5925L15.0386 6.4426C15.0331 6.41978 15.0369 6.39571 15.0491 6.37567C15.0613 6.35563 15.081 6.34126 15.1038 6.3357C15.1149 6.33257 15.1266 6.33172 15.138 6.33319C15.1495 6.33466 15.1606 6.33843 15.1705 6.34427C15.1805 6.35012 15.1892 6.35791 15.1961 6.36719C15.203 6.37646 15.208 6.38703 15.2107 6.39827L18.1699 18.5508C18.1748 18.5736 18.1707 18.5973 18.1586 18.6172C18.1465 18.6371 18.1272 18.6516 18.1048 18.6577Z" fill="#253137"/>
<path d="M15.6046 8.37459C15.5905 8.37809 15.5759 8.37876 15.5616 8.37659C15.5473 8.37441 15.5336 8.36942 15.5212 8.3619C15.5089 8.35439 15.4981 8.3445 15.4896 8.3328C15.4811 8.32111 15.475 8.30784 15.4716 8.29376L15.0179 6.44781C15.0115 6.41916 15.0163 6.38913 15.0313 6.36391C15.0464 6.33869 15.0705 6.32019 15.0988 6.31223C15.1271 6.30588 15.1567 6.31075 15.1815 6.32582C15.2063 6.34089 15.2243 6.365 15.2317 6.39306L15.6854 8.24162C15.6893 8.25567 15.6902 8.27036 15.6882 8.2848C15.6862 8.29923 15.6813 8.3131 15.6737 8.32555C15.6661 8.33801 15.6561 8.34878 15.6442 8.35721C15.6323 8.36565 15.6188 8.37156 15.6046 8.37459Z" fill="#546E7A"/>
<path d="M15.2033 6.39565C15.206 6.40715 15.2053 6.41921 15.2012 6.43029C15.1971 6.44138 15.1898 6.45101 15.1802 6.45797C15.1706 6.46492 15.1592 6.46889 15.1474 6.46939C15.1356 6.46988 15.1239 6.46687 15.1138 6.46073C15.1037 6.45459 15.0956 6.44561 15.0906 6.4349C15.0856 6.42419 15.0839 6.41224 15.0856 6.40054C15.0874 6.38885 15.0926 6.37794 15.1005 6.36918C15.1085 6.36042 15.1188 6.35421 15.1303 6.35132C15.1458 6.34809 15.162 6.35087 15.1755 6.35909C15.1891 6.36732 15.199 6.38038 15.2033 6.39565Z" fill="#253137"/>
<path d="M15.4665 7.28475C15.3783 7.2346 15.2835 7.19687 15.1849 7.17264C15.0598 7.17264 14.8121 7.20653 14.8017 7.37079C14.7912 7.53505 14.992 7.56112 15.0859 7.4829C15.1418 7.51652 15.2057 7.53453 15.271 7.53505C15.3112 7.53521 15.3506 7.52404 15.3847 7.50283C15.4188 7.48162 15.4463 7.45122 15.4639 7.41511C15.503 7.35775 15.5213 7.32907 15.4665 7.28475Z" fill="#474246"/>
<path d="M15.7247 8.22336C15.7077 8.24529 15.6884 8.26539 15.6673 8.28333C15.6073 8.33547 15.5239 8.38501 15.4665 8.33286C15.4412 8.30662 15.427 8.27157 15.427 8.23509C15.427 8.19861 15.4412 8.16356 15.4665 8.13732H15.4405C15.2136 8.16339 15.331 7.91309 15.4587 7.80098C15.4515 7.7858 15.4454 7.77011 15.4405 7.75405C15.4305 7.59957 15.4789 7.44697 15.576 7.32646V7.27692C15.5928 7.2855 15.6086 7.296 15.623 7.3082C15.6971 7.37131 15.7477 7.45772 15.7664 7.55329C15.7756 7.64779 15.7756 7.74297 15.7664 7.83748C15.7664 7.87138 15.7664 7.90788 15.7664 7.94177C15.7808 7.98886 15.7845 8.03857 15.7773 8.08728C15.7701 8.13599 15.7521 8.18248 15.7247 8.22336Z" fill="#253137"/>
<path d="M15.7742 7.84269C15.7634 7.85778 15.7512 7.87175 15.7377 7.88441C15.6829 7.93395 15.4587 8.09038 15.4482 7.93655C15.4496 7.89812 15.4586 7.86034 15.4747 7.82542C15.4908 7.7905 15.5137 7.75915 15.5421 7.73319C15.5262 7.72019 15.5139 7.70323 15.5066 7.68401C15.4993 7.6648 15.4971 7.64399 15.5004 7.62368C15.5161 7.51246 15.5572 7.40632 15.6203 7.31342C15.6945 7.37653 15.745 7.46293 15.7637 7.5585C15.7764 7.65267 15.7799 7.74785 15.7742 7.84269Z" fill="#474246"/>
<path d="M15.7247 8.22337C15.7077 8.2453 15.6885 8.2654 15.6673 8.28334H15.6491C15.5787 8.28334 15.5865 8.21816 15.6074 8.15297C15.6402 8.06892 15.7022 7.9995 15.7821 7.95743C15.7919 8.00329 15.7918 8.05072 15.782 8.09656C15.7721 8.14241 15.7526 8.18563 15.7247 8.22337Z" fill="#474246"/>
<path d="M14.8877 7.23781C14.9008 7.23781 14.8304 7.09962 14.7834 7.09441C14.541 7.06051 13.7249 6.9484 13.2764 6.87279C13.1826 6.81543 13.0809 6.76068 13.0809 6.76068L12.9662 6.805C12.416 6.02282 11.7694 4.71918 11.2167 4.59924C10.9559 4.82347 10.3797 5.69169 10.5075 5.96806C10.75 6.48952 11.9024 7.7723 12.0979 7.90788C12.7237 8.33547 13.7483 8.3798 14.4653 8.29636C14.6166 8.27811 14.9373 8.14253 14.932 7.99913C14.8588 7.95079 14.8004 7.88297 14.7636 7.80328C14.7267 7.7236 14.7128 7.63522 14.7235 7.54808C14.7246 7.4871 14.74 7.42723 14.7685 7.37333C14.7971 7.31943 14.8379 7.273 14.8877 7.23781Z" fill="#E86934"/>
<path d="M11.6442 0.693545C11.7328 0.724832 11.7093 0.565788 11.6963 0.537107C11.6564 0.458392 11.6035 0.386988 11.5399 0.325919C11.2531 0.020867 10.5934 -0.161643 10.2805 0.208591C10.1987 0.308623 10.1439 0.42804 10.1215 0.555358C10.0883 0.731557 10.1238 0.913781 10.2208 1.06459C10.3178 1.21539 10.4689 1.32333 10.643 1.36622C11.2035 1.5383 11.5294 1.215 11.8006 0.745691L11.6442 0.693545Z" fill="#B50202"/>
<path d="M11.6442 0.693523C11.6497 0.69601 11.6556 0.697301 11.6615 0.697309C11.6675 0.697317 11.6734 0.696042 11.6789 0.69357C11.6843 0.691098 11.6891 0.687487 11.6931 0.682981C11.697 0.678475 11.6999 0.673178 11.7016 0.66745C11.5721 0.560544 11.4227 0.480381 11.2621 0.431599C11.1014 0.382817 10.9326 0.366386 10.7656 0.383257C10.529 0.413858 10.3039 0.503523 10.1111 0.643985C10.0979 0.807949 10.143 0.971321 10.2384 1.10534C10.3337 1.23936 10.4734 1.33542 10.6326 1.37663C11.188 1.5461 11.5113 1.23323 11.7798 0.771742C11.7812 0.76486 11.7812 0.757765 11.7798 0.750883L11.6442 0.693523Z" fill="#AA0000"/>
<path d="M10.7523 3.32167L10.6245 2.9749L9.20356 2.87582L8.72903 3.19391L8.4292 3.93959L10.5463 4.96947L11.6335 4.60184L10.7523 3.32167Z" fill="#E86934"/>
<path d="M10.0069 3.20434C10.2705 3.25032 10.5315 3.30949 10.7891 3.38163L11.4227 4.29418C11.4044 4.38022 11.3862 4.46104 11.3706 4.53666C11.3549 4.61227 11.3445 4.64877 11.3314 4.70352L10.5493 4.96425L10.3198 4.85214C10.2729 4.82433 10.226 4.79304 10.179 4.75827C9.80875 4.53083 9.48566 4.23429 9.22737 3.88484L9.14654 3.73101C8.94317 3.24084 9.69929 3.16262 10.0069 3.20434Z" fill="#DD5626"/>
<path d="M10.9349 6.86756C10.2727 8.10863 10.1163 8.91167 10.1189 9.95979C10.1189 10.3196 9.57133 10.4812 9.11766 10.5516L8.99252 10.5725H8.96123H8.87519H8.76568C8.737 10.5725 8.70571 10.5725 8.67703 10.5725C8.2332 10.5812 7.7953 10.4695 7.4099 10.2492C7.10602 10.0786 6.83355 9.85723 6.60425 9.59478C6.38888 9.37521 6.26653 9.08102 6.2627 8.77348C6.59621 7.55172 7.03231 6.36031 7.56633 5.21194C7.88703 4.50797 8.34852 3.71275 8.47627 3.66322C8.64314 3.40249 9.57394 3.73361 10.2336 3.87962C10.4216 3.9254 10.5988 4.0078 10.755 4.1221C11.0537 4.3003 11.325 4.52072 11.5607 4.77652C11.97 5.48049 11.1826 6.40086 10.9349 6.86756Z" fill="#F49E41"/>
<path d="M11.454 4.51319L10.5779 4.85735L10.5362 4.8756L10.4893 4.8391L10.9142 3.91873L11.454 4.51319Z" fill="#E86934"/>
<path d="M10.6248 2.85756L10.0747 4.02302C10.0468 4.07268 10.0294 4.12756 10.0236 4.18423C10.0178 4.24091 10.0238 4.29817 10.0412 4.35243C10.0585 4.40669 10.0869 4.4568 10.1245 4.49961C10.162 4.54243 10.208 4.57705 10.2596 4.60129C10.3111 4.62554 10.3671 4.63891 10.4241 4.64055C10.481 4.64219 10.5377 4.63208 10.5906 4.61085C10.6434 4.58961 10.6913 4.55771 10.7313 4.51713C10.7713 4.47656 10.8025 4.42817 10.823 4.375C10.8317 4.3575 10.8387 4.33916 10.8438 4.32025L11.2088 3.09483C11.2322 3.01732 11.2254 2.93385 11.1898 2.86116C11.1542 2.78847 11.0924 2.73193 11.0168 2.70289C10.9413 2.67385 10.8575 2.67447 10.7824 2.70461C10.7073 2.73474 10.6463 2.79218 10.6118 2.86538L10.6248 2.85756Z" fill="#F2B09E"/>
<path d="M10.5776 4.85736L10.5359 4.87562L10.489 4.83911L8.93506 3.67627L9.85543 3.43118L10.3169 3.48072L10.0327 4.11168L10.5203 4.77654L10.5776 4.85736Z" fill="#E86934"/>
<path d="M11.407 3.98132C11.407 3.99697 11.7251 4.37242 11.7251 4.37242L10.5283 4.77654L10.6248 4.47931L10.8855 4.16383L11.407 3.98132Z" fill="#E86934"/>
<path d="M10.5724 3.14959C10.6089 3.27213 10.4837 3.44421 10.5724 3.71015C10.6436 3.93538 10.7598 4.14382 10.9139 4.32286C10.9626 4.39335 11.0334 4.44552 11.1152 4.47104C11.1969 4.49656 11.2849 4.49396 11.365 4.46366C11.5727 4.32676 11.7604 4.16181 11.9229 3.97349C12.2433 3.5926 12.4796 3.14837 12.6165 2.66985C12.6504 2.01803 12.3557 1.73123 11.6674 1.51222C10.8852 1.26974 10.283 2.16925 10.5724 3.14959Z" fill="#FFCCBC"/>
<path d="M11.4279 2.66204C11.2488 2.74775 11.0747 2.8435 10.9064 2.94884C10.7474 2.94884 10.5831 2.97491 10.5831 2.97491C10.5218 2.87129 10.4841 2.75536 10.4728 2.63545C10.4615 2.51554 10.477 2.39463 10.5179 2.28138C10.5611 2.01582 10.6991 1.77494 10.9064 1.60349L11.4279 2.66204Z" fill="#263238"/>
<path d="M12.4003 3.06617C11.5294 3.04531 10.815 2.54471 10.8359 1.70517C11.1175 1.09767 12.2021 1.30365 12.5828 1.99458C12.8826 2.53689 12.6923 3.07399 12.4003 3.06617Z" fill="black"/>
<path d="M10.7993 2.77674C10.8176 2.35958 10.5047 2.44823 10.4317 2.58902C10.3918 2.69339 10.3847 2.80742 10.4113 2.91594C10.4378 3.02446 10.4968 3.12232 10.5803 3.19651C10.6012 3.21216 10.7107 3.05833 10.7367 2.99575C10.7711 2.9273 10.7923 2.85301 10.7993 2.77674Z" fill="#FFCCBC"/>
<path d="M10.5802 3.72318L10.5176 4.76609C10.3539 4.65596 10.2065 4.52344 10.0796 4.37239C9.81883 4.09081 10.1682 3.28516 10.1682 3.28516H10.4081L10.3168 3.48331L10.5802 3.72318Z" fill="#F49E41"/>
<path d="M10.1841 3.59283C10.1841 3.60848 10.3014 4.48974 10.4135 4.57839C10.4743 4.30009 10.4858 4.01328 10.4474 3.73102L10.1841 3.59283Z" fill="#F2AF41"/>
<path d="M8.06414 9.88941C7.67415 9.88027 7.28617 9.83046 6.90651 9.7408L6.60407 9.62608C6.34685 9.29387 6.18706 8.89667 6.14258 8.47888C6.30423 7.69669 6.36681 6.18969 6.89348 5.03466C7.50949 5.01817 8.12594 5.03907 8.73943 5.09724C8.73943 5.09724 8.07718 5.43097 7.76431 5.61869C8.34839 5.54917 8.93601 5.51348 9.52422 5.51179C9.45904 5.54047 7.46708 6.46606 7.4384 6.45563C7.01862 6.83368 6.71879 8.02 6.71879 8.02L8.95322 7.84792L7.11249 8.51277C7.45913 8.52716 7.8038 8.57253 8.14236 8.64835C7.7179 8.8648 7.2828 9.05973 6.83872 9.23238C7.2297 9.48256 7.63939 9.70222 8.06414 9.88941Z" fill="#E86934"/>
<path d="M10.2648 2.62031C10.1761 2.95404 10.3665 3.02965 10.4681 3.07136C10.549 2.84975 11.1877 2.64116 11.3911 2.61509C11.7857 2.81359 12.1696 3.03291 12.5409 3.27213C12.7391 3.38685 13.1484 2.22921 12.7808 1.95024C12.5201 1.75208 12.275 0.808247 11.6857 0.646596C11.5163 0.597058 10.6898 0.683098 10.4655 1.3297C10.3612 1.62954 10.064 2.00238 10.2361 2.41172C10.2551 2.44259 10.2675 2.47708 10.2724 2.51299C10.2774 2.54891 10.2748 2.58545 10.2648 2.62031Z" fill="#B50202"/>
<path d="M10.6978 4.99032C10.7186 4.91993 10.7369 4.85214 10.7499 4.78696C10.7187 4.80543 10.6855 4.8203 10.6509 4.83128C10.6509 4.8756 10.6274 4.91993 10.6117 4.96686C10.5089 5.20526 10.5015 5.47401 10.5909 5.71776C10.1216 6.19489 9.93907 7.06311 9.79306 7.76447C9.76698 7.8844 9.74352 7.99912 9.71745 8.10602C9.52016 8.2166 9.35002 8.3698 9.21946 8.55447L9.08649 8.71091L9.05781 8.73959L9.08649 8.77088C9.10987 8.79306 9.13517 8.81313 9.1621 8.83085L9.21164 8.86735C8.9544 9.40188 8.8386 9.99347 8.87529 10.5855H8.96134C8.92223 10.0641 9.00045 9.63649 9.3055 8.88299V8.85953L9.28985 8.83867C9.26508 8.81079 9.23604 8.78703 9.20381 8.76827L9.17252 8.74741C9.20642 8.7083 9.24292 8.66398 9.28203 8.62226C9.40528 8.44259 9.56979 8.29508 9.76177 8.19206H9.78524V8.1686C9.81392 8.05127 9.83738 7.92873 9.86346 7.80097C10.0121 7.09961 10.1972 6.2366 10.6665 5.77511L10.69 5.74904L10.6717 5.72036C10.6243 5.60373 10.6021 5.47838 10.6066 5.35255C10.6111 5.22672 10.6421 5.10327 10.6978 4.99032Z" fill="#F2F2F2"/>
<path d="M7.84008 8.45017C7.81095 8.35329 7.76978 8.26044 7.71754 8.1738C7.5849 8.06996 7.42604 8.00497 7.25865 7.98608C7.1309 7.97304 7.30819 8.3172 7.42813 8.32502C7.44635 8.38838 7.47942 8.44648 7.5246 8.4945C7.55332 8.52248 7.58925 8.54193 7.62839 8.55067C7.66752 8.55942 7.70831 8.55712 7.74622 8.54404C7.81401 8.52839 7.8479 8.52057 7.84008 8.45017Z" fill="#1A2428"/>
<path d="M0.169416 19.1348C0.151648 19.1222 0.139521 19.1031 0.135623 19.0817C0.131726 19.0603 0.136369 19.0381 0.148561 19.0201L0.889027 17.9355C0.901239 17.9173 0.920113 17.9046 0.941578 17.9002C0.963042 17.8958 0.985375 17.9001 1.00375 17.912C1.01283 17.918 1.02059 17.9258 1.02658 17.9349C1.03258 17.944 1.03667 17.9542 1.03862 17.9649C1.04057 17.9756 1.04033 17.9866 1.03792 17.9972C1.03551 18.0079 1.03098 18.0179 1.0246 18.0267L0.284137 19.114C0.271525 19.1317 0.252463 19.1438 0.231025 19.1477C0.209588 19.1516 0.187475 19.147 0.169416 19.1348Z" fill="#141F23"/>
<path d="M0.735284 18.8506C0.818717 19.0253 0.735283 19.1557 0.534522 19.14C0.429277 19.127 0.328686 19.0889 0.241148 19.029C0.15361 18.9692 0.0816623 18.8892 0.0313157 18.7959C-0.0547245 18.6212 0.0313182 18.4908 0.229471 18.5039C0.335102 18.5178 0.43595 18.5565 0.523833 18.6168C0.611715 18.677 0.684159 18.7571 0.735284 18.8506Z" fill="#253137"/>
<path d="M0.615562 18.8402C0.670314 18.9575 0.615563 19.0436 0.482592 19.0331C0.413509 19.0239 0.347564 18.9985 0.290058 18.9591C0.232552 18.9197 0.185085 18.8674 0.151466 18.8063C0.0967135 18.689 0.151466 18.6029 0.28183 18.6134C0.351188 18.6229 0.417406 18.6483 0.475303 18.6876C0.533201 18.727 0.581206 18.7792 0.615562 18.8402Z" fill="#070709"/>
<path d="M0.383327 18.8219C0.373504 18.8156 0.365066 18.8074 0.358526 18.7977C0.351986 18.7881 0.347481 18.7772 0.345286 18.7657C0.343091 18.7542 0.34325 18.7424 0.345755 18.731C0.348261 18.7196 0.353063 18.7089 0.359863 18.6994L7.81147 7.78793C7.81777 7.7781 7.826 7.76967 7.83567 7.76313C7.84534 7.75659 7.85623 7.75208 7.8677 7.74989C7.87916 7.74769 7.89095 7.74785 7.90235 7.75036C7.91375 7.75286 7.92452 7.75766 7.934 7.76446C7.95327 7.77767 7.96655 7.79796 7.97095 7.82091C7.97534 7.84385 7.9705 7.86761 7.95747 7.887L0.50587 18.7985C0.492659 18.8177 0.472372 18.831 0.449424 18.8354C0.426477 18.8398 0.402723 18.835 0.383327 18.8219Z" fill="#303E44"/>
<path d="M6.74755 9.50092C6.7237 9.48541 6.70682 9.46122 6.7005 9.43348C6.69417 9.40574 6.69889 9.37663 6.71365 9.35231L7.78785 7.78794C7.79607 7.77596 7.80656 7.76571 7.81874 7.75778C7.83092 7.74986 7.84454 7.74441 7.85882 7.74174C7.87311 7.73908 7.88778 7.73926 7.90199 7.74226C7.91621 7.74527 7.9297 7.75104 7.94168 7.75926C7.95367 7.76748 7.96391 7.77798 7.97184 7.79015C7.97977 7.80233 7.98522 7.81595 7.98788 7.83024C7.99054 7.84452 7.99037 7.85919 7.98736 7.87341C7.98436 7.88762 7.97858 7.90111 7.97036 7.91309L6.89616 9.47746C6.87948 9.50017 6.85451 9.51537 6.82668 9.51976C6.79885 9.52416 6.77041 9.51739 6.74755 9.50092Z" fill="#546E7A"/>
<path d="M7.95461 7.8818C7.94342 7.89263 7.92846 7.89869 7.91289 7.89869C7.89732 7.89869 7.88236 7.89263 7.87118 7.8818C7.86475 7.8776 7.85924 7.87215 7.85496 7.86577C7.85068 7.8594 7.84772 7.85223 7.84626 7.8447C7.8448 7.83716 7.84487 7.82941 7.84646 7.82189C7.84806 7.81438 7.85114 7.80727 7.85553 7.80097C7.85977 7.79425 7.86531 7.78844 7.87181 7.78388C7.87832 7.77932 7.88567 7.77609 7.89343 7.77439C7.90119 7.7727 7.90922 7.77256 7.91704 7.77399C7.92485 7.77542 7.93231 7.77839 7.93896 7.78272C7.9472 7.78762 7.95425 7.79426 7.95962 7.80219C7.96499 7.81012 7.96855 7.81913 7.97005 7.82859C7.97154 7.83805 7.97093 7.84772 7.96826 7.85692C7.96559 7.86611 7.96093 7.87461 7.95461 7.8818Z" fill="#253137"/>
<path d="M7.93395 8.57013C7.88027 8.50075 7.80921 8.44679 7.72797 8.41369C7.50896 8.05128 7.00055 7.79316 6.805 8.25204C6.60945 8.71092 7.06573 9.38621 7.58718 9.08376C7.68244 9.03584 7.75737 8.95536 7.79837 8.85693C7.91048 8.79435 8.00174 8.7031 7.93395 8.57013Z" fill="#474246"/>
<path d="M7.65242 8.80479C7.8245 8.42152 7.43862 8.18947 7.15443 8.02261C7.0772 8.01866 7.00087 8.04063 6.93757 8.08504C6.87427 8.12945 6.82762 8.19373 6.80505 8.26769C6.63036 8.67703 6.92759 9.19067 7.32651 9.17503C7.46318 9.07945 7.57495 8.95249 7.65242 8.80479Z" fill="#1A2428"/>
<path d="M7.298 7.8114C7.15982 7.60803 6.99816 6.82585 6.75569 6.44258C6.75569 6.41651 6.57578 6.39304 6.57057 6.36958C6.85737 6.25746 7.12592 6.18446 8.18969 5.40749C8.79458 4.96686 8.76329 3.82487 8.65118 3.67104C8.43477 3.41031 5.49637 5.05029 5.24868 5.58218C5.00099 6.11406 5.14439 6.72677 5.50941 7.3473C5.87443 7.96784 6.4402 8.72916 6.7244 8.5284C6.7244 8.41107 7.17546 8.0252 7.2615 7.98609C7.27454 7.97827 7.32407 7.85051 7.298 7.8114Z" fill="#F78034"/>
<path d="M12.6376 2.92276C12.5906 2.88365 12.6949 3.08701 11.506 2.58642C11.4371 2.57337 11.3663 2.57337 11.2974 2.58642C11.1862 2.60824 11.0833 2.66061 11.0002 2.73764C10.9497 2.78571 10.9066 2.84107 10.8724 2.9019C10.802 3.03226 10.7134 3.31645 10.9089 3.46507C10.9861 3.51997 11.0757 3.55491 11.1697 3.56675C11.2935 3.59285 11.4213 3.59285 11.5451 3.56675C11.6261 3.54085 11.7019 3.50116 11.7693 3.44943C11.8248 3.40078 11.8851 3.35797 11.9492 3.32167C11.9739 3.31387 12.0003 3.31387 12.0249 3.32167C12.1239 3.36339 11.9649 3.78316 12.0249 3.84312C12.6037 3.70233 12.6793 2.95926 12.6376 2.92276Z" fill="#1E1F23"/>
<path d="M11.0078 2.87582L10.9844 2.89929C11.0931 2.92754 11.1994 2.96415 11.3025 3.00879C11.2078 2.95705 11.1093 2.9126 11.0078 2.87582Z" fill="#E0F7FA"/>
<path d="M12.6298 2.91754C12.6012 2.91754 12.5907 3.03487 11.613 2.63335C11.5048 2.63031 11.397 2.6471 11.2949 2.68288C11.6965 2.84328 12.0644 3.07765 12.3795 3.37381C12.4108 3.39989 12.4395 3.42857 12.4682 3.45725C12.5844 3.30224 12.6417 3.11093 12.6298 2.91754Z" fill="#E0F7FA"/>
<path d="M12.3192 3.43639C11.9884 3.13036 11.6003 2.89288 11.1772 2.73764C11.1425 2.75873 11.1094 2.78225 11.0781 2.80804C11.3864 2.92966 11.67 3.10636 11.9151 3.32949L11.962 3.30342C11.9866 3.29562 12.013 3.29562 12.0376 3.30342C12.0767 3.31906 12.0741 3.39207 12.0637 3.48071C12.1263 3.54329 12.1836 3.61108 12.241 3.67887C12.2674 3.66235 12.2926 3.64406 12.3166 3.62411C12.3506 3.59578 12.3829 3.5653 12.4131 3.53286L12.3192 3.43639Z" fill="#E0F7FA"/>
<path d="M11.6155 3.53024C11.6757 3.50682 11.732 3.47428 11.7823 3.43377L11.8032 3.41813C11.5735 3.22796 11.3073 3.08687 11.021 3.00357C11.235 3.16042 11.434 3.33673 11.6155 3.53024Z" fill="#E0F7FA"/>
<path d="M11.0836 2.74023L10.8725 2.68027L10.6899 2.95925L10.8646 3.12872L11.0836 2.74023Z" fill="#1E1F23"/>
<path d="M10.2388 2.39868L10.9349 2.72981L10.7889 2.92796L10.2674 2.61769L10.2388 2.39868Z" fill="#1E1F23"/>
</g>
<defs>
<clipPath id="clip0_1232_5004">
<rect width="18.5299" height="24" fill="white"/>
</clipPath>
</defs>
</svg>
