<svg width="23" height="25" viewBox="0 0 23 25" fill="none" xmlns="http://www.w3.org/2000/svg">
<g clip-path="url(#clip0_1232_6681)">
<path d="M8.00488 13.2707L0.263672 2.84433L0.282291 2.83325L8.01552 13.2494L10.1931 13.39L11.5634 4.34053L9.48335 2.17448L10.0956 13.3283L10.084 13.3279L8.09842 13.2206L8.09487 13.2131L2.2351 0.942945L2.25594 0.935852L8.11261 13.1993L10.0712 13.3049L9.45719 2.11641L11.5878 4.33565L11.5869 4.34097L10.2135 13.4135L10.2037 13.4126L8.00488 13.2707Z" fill="#F68B49"/>
<path d="M10.8372 13.3288C10.8634 13.2921 10.8739 13.2465 10.8665 13.2021C10.8591 13.1576 10.8344 13.1179 10.7978 13.0916C10.7658 13.0689 10.7269 13.0581 10.6878 13.061L7.20779 13.0876C7.1706 13.0839 7.13321 13.0925 7.10142 13.1122C7.06964 13.1319 7.04523 13.1615 7.032 13.1964C7.01876 13.2314 7.01743 13.2698 7.02821 13.3056C7.039 13.3413 7.0613 13.3726 7.09164 13.3944C7.12358 13.4168 7.16222 13.4276 7.20114 13.425L10.6932 13.3997C10.7212 13.4007 10.749 13.3947 10.7741 13.3824C10.7992 13.37 10.8209 13.3516 10.8372 13.3288Z" fill="#231F20"/>
<path d="M18.9874 15.3405L18.5839 15.4261C18.5817 15.4354 18.5795 15.4447 18.5769 15.4531L18.9231 15.4913C18.942 15.4934 18.9593 15.5031 18.9712 15.518C18.983 15.5329 18.9884 15.5519 18.9863 15.5708C18.9841 15.5898 18.9745 15.6071 18.9596 15.6189C18.9446 15.6308 18.9256 15.6362 18.9067 15.634L18.5077 15.5897L18.5746 15.634C18.5892 15.6495 18.5981 15.6694 18.5999 15.6906C18.6017 15.7117 18.5963 15.7329 18.5846 15.7506C18.573 15.7683 18.5556 15.7816 18.5355 15.7883C18.5153 15.795 18.4935 15.7947 18.4736 15.7874L18.2962 15.6717L18.1114 15.5498C18.0865 15.5396 18.0617 15.5294 18.0378 15.5174C18.0063 15.5269 17.9742 15.5337 17.9416 15.5378L16.0468 15.8566C15.9967 15.8629 15.9457 15.8575 15.8979 15.841C15.8501 15.8245 15.8067 15.7972 15.7711 15.7613C15.7469 15.753 15.7243 15.7407 15.7042 15.7249L15.0152 15.1823L14.2895 14.6104C14.1565 14.5071 14.1619 14.2815 14.2988 14.1072C14.4358 13.933 14.6535 13.8763 14.7865 13.9804L16.1293 15.1331C16.1469 15.1476 16.1635 15.1633 16.179 15.1801L17.8511 15.055C17.8978 15.0279 17.9496 15.0107 18.0032 15.0045C18.0919 15.001 18.1743 15.0652 18.2608 15.0772C18.2896 15.0808 18.3166 15.0839 18.3423 15.0861L18.5498 14.8906C18.5639 14.879 18.5819 14.8732 18.6001 14.8744C18.6183 14.8756 18.6354 14.8837 18.6478 14.897C18.6603 14.9103 18.6672 14.9279 18.6672 14.9461C18.6672 14.9643 18.6603 14.9819 18.6478 14.9952L18.5206 15.1158C18.5303 15.1197 18.5395 15.1248 18.548 15.1309L18.8322 15.0098C18.8498 15.0024 18.8697 15.0023 18.8874 15.0096C18.9051 15.0168 18.9192 15.0308 18.9266 15.0484C18.934 15.066 18.9341 15.0859 18.9269 15.1036C18.9197 15.1213 18.9057 15.1354 18.8881 15.1428L18.6039 15.2643C18.6039 15.2687 18.6039 15.2727 18.6039 15.2771L18.9586 15.2018C18.9678 15.1999 18.9772 15.1998 18.9865 15.2015C18.9957 15.2033 19.0045 15.2068 19.0124 15.212C19.0202 15.2171 19.027 15.2237 19.0323 15.2315C19.0376 15.2393 19.0413 15.248 19.0432 15.2572C19.0451 15.2664 19.0452 15.2759 19.0435 15.2851C19.0417 15.2944 19.0382 15.3032 19.0331 15.311C19.0279 15.3189 19.0213 15.3257 19.0135 15.3309C19.0057 15.3362 18.997 15.34 18.9878 15.3419L18.9874 15.3405Z" fill="#E8B782"/>
<path d="M13.2496 13.464C13.1977 13.3075 13.0656 13.2056 12.9304 13.2056C12.9024 13.2054 12.8746 13.2098 12.8479 13.2184L11.17 13.8306L9.72389 13.2171C9.71335 13.2118 9.70255 13.2071 9.69153 13.2029C9.6918 13.2016 9.6918 13.2002 9.69153 13.1989C9.61306 13.1665 9.50666 12.9985 9.44948 12.9471C9.36835 12.8744 9.31648 12.7556 9.22339 12.7064C9.13029 12.6572 9.15068 12.698 9.07532 12.7228C9.02999 12.7396 8.98095 12.7437 8.93345 12.7347C8.87624 12.7317 8.81919 12.7432 8.76758 12.768C8.71597 12.7929 8.67147 12.8304 8.63821 12.8771C8.61209 12.9167 8.59179 12.9598 8.57792 13.0052C8.54999 13.0876 8.53358 13.1825 8.54644 13.2361C8.56772 13.319 8.72377 13.4401 8.81243 13.4826C8.99076 13.5668 9.19378 13.5826 9.38298 13.527C9.42124 13.5647 9.46639 13.5948 9.51597 13.6156L11.0906 14.4584C11.1607 14.4921 11.241 14.4975 11.315 14.4734C11.3314 14.4717 11.3476 14.4681 11.3633 14.4628L12.1719 14.1968L13.0732 13.8998C13.2327 13.8479 13.3112 13.6529 13.2496 13.464Z" fill="#E8B782"/>
<path opacity="0.4" d="M18.2992 15.6717L18.1144 15.5498C18.0895 15.5396 18.0647 15.5294 18.0408 15.5174C18.0093 15.5269 17.9772 15.5338 17.9446 15.5378L16.0467 15.8566C15.9965 15.8629 15.9456 15.8576 15.8978 15.841C15.85 15.8245 15.8066 15.7972 15.771 15.7613C15.7468 15.753 15.7242 15.7407 15.7041 15.7249L15.0151 15.1823C15.0893 15.1488 15.1701 15.1325 15.2514 15.1344L15.2168 15.0901C15.2337 15.1043 15.2505 15.1193 15.2674 15.1344C15.3175 15.1411 15.3485 15.1619 15.3379 15.2036C15.4997 15.3672 15.6717 15.5653 15.884 15.6207C16.1376 15.6863 16.4111 15.5631 16.6629 15.5476C16.8562 15.5361 17.0544 15.4873 17.2464 15.4589C17.4119 15.4403 17.5786 15.4345 17.7451 15.4416C17.9885 15.4416 18.1654 15.4483 18.2992 15.6717Z" fill="#D1A171"/>
<path d="M18.2594 22.6287C18.6686 23.0813 19.5295 22.509 19.8585 22.1668C20.1874 21.8245 20.2818 21.4087 19.9578 20.953C19.3708 20.1275 18.1251 21.1746 19.0711 21.6942C18.4975 22.0391 17.8742 21.1901 17.9096 20.6865C17.9606 19.9936 18.939 19.299 19.6022 19.4559C20.0145 19.5534 21.0501 20.0189 21.3312 20.3642C21.825 20.9725 21.5626 21.9114 21.1095 22.4261C22.103 21.7363 22.2377 21.4881 21.5612 20.511C22.1881 20.3146 22.7679 21.0744 22.9005 21.6366C23.0743 22.3725 22.7697 22.9279 22.0733 23.2219C20.9557 23.6936 19.8491 23.8997 18.6544 23.9183C17.9451 23.9294 17.1999 24.0784 16.6595 24.5642C16.1191 25.0501 16.1177 25.0386 15.3588 24.8599C14.7967 24.7269 14.1991 24.4742 13.6423 24.398C12.8984 24.296 12.416 24.4946 11.7045 24.1214C11.2732 23.8948 11.0666 23.5677 10.6884 23.2409C10.0075 22.6522 9.03663 22.9789 8.36102 22.4487C8.11542 22.2559 7.90041 21.9429 7.70269 21.7C7.29972 21.2039 6.79434 20.7393 7.29174 20.1953C7.75234 19.6917 8.33531 19.9781 8.81276 20.288C8.73341 20.0393 8.50244 19.4767 8.89256 19.3224C9.07831 19.2493 9.82795 19.6682 10.0576 19.7259C10.555 19.8509 11.0697 19.8482 11.5711 19.9639C12.1394 20.0947 12.7184 20.4516 13.2619 20.6954C14.2953 21.1587 15.2466 21.7088 16.354 21.95C16.7805 22.0431 17.0682 22.0967 17.434 22.2754C17.7088 22.4084 18.0067 22.5919 18.2966 22.6673" fill="#B4E1E7"/>
<path d="M16.6978 22.6562C17.107 23.1088 17.9679 22.5365 18.2973 22.1943C18.6267 21.852 18.7202 21.4366 18.3962 20.9809C17.8092 20.155 16.5639 21.2026 17.5095 21.7217C16.9359 22.067 16.3126 21.2181 16.348 20.7145C16.4012 20.0216 17.3765 19.3264 18.0415 19.4838C18.4538 19.5814 19.4894 20.0468 19.7704 20.3922C20.2638 21 20.0014 21.9389 19.5488 22.4541C20.5423 21.7638 20.677 21.516 20.0005 20.5389C20.6274 20.3425 21.2072 21.1024 21.3398 21.6645C21.5136 22.4004 21.2068 22.9559 20.513 23.2498C19.3918 23.7237 18.2853 23.9276 17.0906 23.9454C16.3813 23.9565 15.6365 24.1054 15.0957 24.5913C14.5548 25.0772 14.5544 25.0656 13.795 24.8865C13.2328 24.7535 12.6352 24.5008 12.0784 24.4246C11.3345 24.3231 10.8522 24.5217 10.1411 24.1484C9.70934 23.9219 9.50276 23.5947 9.12461 23.268C8.44367 22.6793 7.47281 23.006 6.79719 22.4758C6.55159 22.2829 6.33659 21.9695 6.13887 21.7266C5.73545 21.2318 5.22962 20.7668 5.72747 20.2215C6.18807 19.7175 6.77104 20.0038 7.24849 20.3142C7.16914 20.065 6.93817 19.5029 7.32829 19.3482C7.51404 19.2755 8.26413 19.6944 8.49333 19.752C8.99073 19.877 9.50586 19.8744 10.0068 19.9897C10.5756 20.1226 11.1541 20.4773 11.6981 20.7211C12.731 21.1848 13.6824 21.7345 14.7902 21.9762C15.2167 22.0693 15.5044 22.1229 15.8697 22.3015C16.145 22.4345 16.4424 22.6181 16.7324 22.693" fill="#7ED1E4"/>
<path d="M14.1038 14.2039C14.0817 14.2551 14.0498 14.3014 14.0098 14.3402C13.9698 14.3791 13.9226 14.4097 13.8708 14.4302C13.819 14.4508 13.7637 14.461 13.708 14.4602C13.6523 14.4594 13.5972 14.4476 13.5461 14.4255C13.4948 14.4035 13.4485 14.3716 13.4096 14.3317C13.3707 14.2917 13.3401 14.2445 13.3195 14.1927C13.2989 14.1409 13.2888 14.0855 13.2896 14.0298C13.2904 13.974 13.3023 13.919 13.3244 13.8678L13.6347 13.1545C13.6796 13.0515 13.7635 12.9705 13.8681 12.9293C13.9727 12.8882 14.0894 12.8903 14.1924 12.9351C14.2435 12.9572 14.2896 12.9892 14.3283 13.0292C14.367 13.0692 14.3974 13.1164 14.4178 13.1682C14.4382 13.22 14.4481 13.2752 14.4471 13.3309C14.4461 13.3865 14.4341 13.4414 14.4119 13.4924L14.1038 14.2039Z" fill="#E0AC77"/>
<path d="M13.7362 23.8952C13.7362 23.8952 7.78423 21.4273 7.31343 21.0363C6.84263 20.6453 5.80615 19.0923 5.80615 19.0923L8.09323 21.0527L9.96447 21.8063L12.0037 22.7236L13.4099 23.2223L13.6019 23.1243L13.7362 23.8952Z" fill="#B67198"/>
<path d="M15.1192 21.1671L13.6261 23.5127C13.6261 23.5127 8.83343 21.7164 7.70386 21.1308C6.41469 20.4631 5.80469 19.0915 5.80469 19.0915C5.80469 19.0915 8.48233 19.1358 9.81627 19.5468C9.81627 19.5477 12.8619 20.9246 15.1192 21.1671Z" fill="#E38CBB"/>
<path d="M15.1191 21.1675L15.0282 21.7088L13.736 23.8953L13.6265 23.5127L15.1191 21.1675Z" fill="#B67198"/>
<path d="M15.5908 14.8879L15.534 15.0422C15.4632 15.1482 15.3534 15.2219 15.2286 15.2475C15.1653 15.2558 15.1009 15.2512 15.0395 15.2338C14.978 15.2164 14.9208 15.1867 14.8713 15.1464L14.6877 14.9824L14.5583 14.8667L14.392 14.7177C14.158 14.5444 14.0431 14.3387 14.1784 14.0416C14.214 13.9894 14.262 13.9467 14.3181 13.9174C14.3741 13.888 14.4365 13.8728 14.4998 13.8732C14.5552 13.8736 14.6101 13.8832 14.6625 13.9015L14.6704 13.9047C14.7424 13.9304 14.8101 13.9669 14.8713 14.0128L15.3815 14.3883C15.6134 14.5612 15.7659 14.6508 15.5908 14.8879Z" fill="#FDDF9F"/>
<g style="mix-blend-mode:multiply" opacity="0.69">
<path d="M9.36909 20.7535C9.3753 20.8656 9.44268 20.9751 9.49278 21.0722C9.60316 21.2899 9.68873 21.2642 9.92945 21.2646C10.2952 21.2646 10.5909 21.1897 10.9429 21.1254C11.1362 21.0904 11.4886 20.9592 11.6522 21.0421C11.7925 21.1259 11.9216 21.2273 12.0361 21.344C12.1332 21.4451 12.0671 21.4717 12.1061 21.5962C12.1629 21.7789 12.5051 22.071 12.6793 22.1601C12.7371 22.1957 12.8035 22.2149 12.8713 22.2155L13.2016 22.0914C13.4596 21.9909 13.7188 21.8937 13.9792 21.7997C13.9951 21.7908 14.0159 21.7806 14.0315 21.7722C14.1946 21.6836 14.3045 21.6233 14.1764 21.4539C14.0049 21.2269 13.6405 21.0944 13.3873 20.9902C13.1859 20.9127 12.9782 20.8522 12.7667 20.8093C12.1279 20.663 11.4562 20.4875 10.8484 20.225C10.6857 20.1546 10.5217 20.0832 10.3608 20.0136C10.1617 19.9249 10.1653 19.9661 10.0252 20.1226C9.80354 20.3713 9.50829 20.5433 9.2627 20.7686" fill="#E38CBB"/>
</g>
<path opacity="0.4" d="M12.172 14.1977L11.3633 14.4637C11.3477 14.469 11.3315 14.4726 11.315 14.4743C11.2411 14.4984 11.1608 14.493 11.0907 14.4593L9.51427 13.6161C9.46469 13.5953 9.41954 13.5652 9.38128 13.5274C9.19208 13.583 8.98906 13.5672 8.81073 13.4831C8.72517 13.4387 8.5669 13.3195 8.54474 13.2366C8.53011 13.1843 8.54828 13.0881 8.57621 13.0056C8.61989 13.0786 8.67766 13.1421 8.74617 13.1925C8.81467 13.2429 8.89253 13.2791 8.97519 13.2991C9.07934 13.3188 9.18461 13.3322 9.29039 13.339C9.3081 13.341 9.32561 13.3446 9.34271 13.3496C9.41114 13.373 9.47406 13.4101 9.52757 13.4587C9.54796 13.4742 9.56924 13.491 9.59362 13.5079C9.71022 13.5886 9.82016 13.6737 9.94296 13.746C10.0658 13.8182 10.2089 13.8563 10.3335 13.9233C10.549 14.0408 10.76 14.1817 10.9856 14.2779C11.022 14.2943 11.0588 14.3094 11.0969 14.3223C11.2463 14.3772 11.374 14.344 11.5025 14.2948C11.5695 14.2695 11.6355 14.2394 11.7069 14.2154C11.855 14.1649 12.0359 14.0195 12.1857 14.0053C12.191 14.0698 12.1864 14.1346 12.172 14.1977Z" fill="#D1A171"/>
<path d="M12.9935 13.9946L12.7373 14.078L12.4713 14.1667C12.4219 14.1828 12.3703 14.1911 12.3183 14.1915C12.2231 14.1919 12.1301 14.1626 12.0523 14.1077C11.9824 14.0586 11.9303 13.9881 11.9038 13.9069C11.832 13.6852 11.9694 13.4423 12.2115 13.3634L12.7346 13.1936C12.7841 13.1778 12.8356 13.1696 12.8875 13.1692C12.9778 13.1666 13.0666 13.1927 13.1411 13.2437C13.2156 13.2948 13.2719 13.3682 13.302 13.4534C13.373 13.6732 13.2351 13.9166 12.9935 13.9946Z" fill="#FDDF9F"/>
<path opacity="0.4" d="M12.8329 14.0062C12.7987 14.0269 12.7667 14.051 12.7372 14.078L12.4712 14.1666C12.4218 14.1828 12.3702 14.1911 12.3182 14.1915C12.223 14.1919 12.13 14.1626 12.0522 14.1077C12.1559 14.1293 12.2615 14.1406 12.3674 14.1414C12.4699 14.1361 12.5492 14.097 12.6423 14.0682C12.7039 14.0452 12.7722 14.0332 12.8329 14.0062Z" fill="#28938E"/>
<path d="M13.7725 16.26C13.7725 16.26 13.9463 16.5224 13.6572 16.9786C13.1669 17.7513 11.7257 16.7569 12.036 16.0888C12.2098 15.7142 13.3868 15.536 13.7725 16.26Z" fill="#5E54A4"/>
<path d="M12.4309 18.6397C12.3865 18.8015 12.5195 18.9815 12.7337 19.0423C12.9465 19.103 13.1566 19.021 13.2027 18.8596L13.697 17.1276C13.9404 16.6882 13.2723 16.3074 13.2723 16.3074C13.0591 16.2467 12.9238 16.4958 12.8777 16.6577L12.4309 18.6397Z" fill="#E8B782"/>
<path d="M14.7554 14.8542C14.7358 14.8984 14.7133 14.9412 14.6881 14.9824C14.5817 15.1552 14.4429 15.2882 14.36 15.4026C14.3241 15.4526 14.2911 15.5045 14.2611 15.5582C14.0302 15.9665 13.8036 16.6541 13.7491 16.9808C13.6653 17.4849 11.8779 16.2609 12.0938 16.0179C12.3097 15.775 12.6603 14.0753 12.6333 13.8865C12.6062 13.6976 12.6484 13.2317 12.9706 13.1674C13.1679 13.128 13.4547 13.4485 13.4765 13.5221C13.4765 13.5221 13.3435 13.7517 13.6538 13.8421C13.8161 13.8896 14.0142 13.9627 14.1468 13.9503C14.171 13.9475 14.1938 13.9376 14.2123 13.9218C14.2309 13.906 14.2443 13.8851 14.2509 13.8616C14.3542 13.773 14.6154 13.8812 14.6628 13.902L14.6708 13.9051C14.8853 14.3152 14.8601 14.6188 14.7554 14.8542Z" fill="#FDDF9F"/>
<path d="M9.71539 13.2046C9.70729 13.2044 9.6993 13.2026 9.69189 13.1993C9.69233 13.1973 9.69233 13.1952 9.69189 13.1931L9.71539 13.2046Z" fill="#E8B782"/>
<path d="M13.5141 21.704C13.3949 21.731 13.1488 21.8769 12.8753 22.0121C12.8079 22.0453 12.7392 22.0777 12.6705 22.1078C12.6107 22.134 12.5513 22.1579 12.4932 22.1788L12.4431 22.196C12.3637 22.2226 12.1013 21.9646 12.2569 21.8347C12.2839 21.8128 12.3127 21.793 12.3429 21.7758C12.5034 21.68 12.7215 21.6104 12.7734 21.5009C12.8053 21.4322 12.8368 21.3462 12.8594 21.2793C12.882 21.2123 12.8948 21.1715 12.8948 21.1715C12.8948 21.1715 13.1205 21.0909 13.2982 21.121C13.3507 21.1282 13.3999 21.1504 13.4401 21.1848C13.4531 21.1969 13.4644 21.2106 13.4738 21.2256C13.4738 21.2256 13.6037 21.6845 13.5141 21.704Z" fill="#E8B782"/>
<path d="M12.2943 21.7979C12.2261 21.8223 12.1937 21.8121 12.1285 21.8423C12.0634 21.8724 11.98 21.8866 11.9955 21.9562C12.004 21.9965 12.1179 21.9748 12.1689 22.0005C12.1507 22.0214 12.0802 22.0329 12.0802 22.0599C12.0802 22.1087 12.1622 22.0989 12.2004 22.0954C12.1826 22.106 12.1361 22.149 12.1525 22.1743C12.1689 22.1996 12.2411 22.1894 12.2686 22.1743C12.2434 22.1996 12.2101 22.2284 12.2451 22.255C12.2801 22.2816 12.2784 22.2687 12.3063 22.2395C12.3133 22.2301 12.3187 22.2196 12.3223 22.2084C12.3302 22.2062 12.3364 22.2944 12.3715 22.294C12.4065 22.2935 12.4185 22.2138 12.4446 22.1947C12.4708 22.1756 12.5067 22.1676 12.5213 22.1504C12.61 22.0484 12.4876 21.7296 12.3413 21.7744L12.2943 21.7979Z" fill="#E8B782"/>
<path d="M15.2357 13.1896C15.2181 13.2332 15.188 13.2706 15.1492 13.2971C15.1103 13.3237 15.0645 13.3381 15.0175 13.3386C14.9705 13.3391 14.9243 13.3257 14.8849 13.3C14.8455 13.2743 14.8146 13.2376 14.7961 13.1943C14.7776 13.1511 14.7723 13.1034 14.7808 13.0571C14.7894 13.0109 14.8115 12.9682 14.8443 12.9345C14.8771 12.9008 14.9191 12.8776 14.9651 12.8678C15.0111 12.8579 15.059 12.8619 15.1027 12.8793C15.1318 12.8909 15.1584 12.9081 15.1808 12.93C15.2033 12.9519 15.2212 12.978 15.2336 13.0068C15.2459 13.0357 15.2525 13.0666 15.2528 13.098C15.2532 13.1294 15.2474 13.1605 15.2357 13.1896Z" fill="#DDAB78"/>
<path d="M13.7303 12.5335C13.7127 12.5771 13.6826 12.6145 13.6438 12.641C13.605 12.6675 13.5591 12.682 13.5121 12.6825C13.4651 12.683 13.419 12.6695 13.3796 12.6439C13.3402 12.6182 13.3093 12.5814 13.2907 12.5382C13.2722 12.495 13.2669 12.4472 13.2755 12.401C13.2841 12.3548 13.3061 12.3121 13.3389 12.2784C13.3717 12.2447 13.4138 12.2215 13.4598 12.2116C13.5058 12.2018 13.5536 12.2058 13.5973 12.2231C13.6265 12.2347 13.6531 12.2519 13.6756 12.2738C13.6981 12.2957 13.716 12.3218 13.7284 12.3506C13.7407 12.3795 13.7473 12.4105 13.7476 12.4419C13.7479 12.4732 13.7421 12.5044 13.7303 12.5335Z" fill="#DDAB78"/>
<path d="M15.0711 13.0987C14.8689 13.6081 14.341 13.8767 13.8914 13.699C13.4419 13.5212 13.2415 12.963 13.4432 12.4532C13.645 11.9434 14.1734 11.6752 14.6229 11.853C15.0724 12.0308 15.2741 12.5889 15.0711 13.0987Z" fill="#E8B782"/>
<path d="M13.4393 21.1852C13.4442 21.2947 13.3768 21.3945 13.3112 21.4641C13.2755 21.5023 13.2362 21.5369 13.1938 21.5674C13.0067 21.6002 12.9043 21.4721 12.8586 21.2797C12.8537 21.261 12.8502 21.2411 12.8466 21.2211L12.445 18.9008C12.4406 18.8756 12.4384 18.8501 12.4383 18.8246C12.4322 18.7328 12.4602 18.642 12.5169 18.5696C12.5736 18.4972 12.6551 18.4484 12.7457 18.4324C12.8363 18.4165 12.9295 18.4346 13.0076 18.4832C13.0856 18.5319 13.1429 18.6077 13.1685 18.696C13.1775 18.7208 13.1843 18.7463 13.1889 18.7723L13.4367 21.1529C13.4385 21.1636 13.4394 21.1744 13.4393 21.1852Z" fill="#E8B782"/>
<path opacity="0.4" d="M13.5143 21.7039C13.3951 21.731 13.149 21.8768 12.8755 22.012C13.0683 21.8861 13.2816 21.6831 13.3113 21.4641C13.3113 21.4641 13.3113 21.461 13.3113 21.4601C13.3195 21.347 13.3146 21.2334 13.2966 21.1214C13.2966 21.093 13.2927 21.0651 13.2913 21.0372C13.2842 20.8324 13.3037 20.624 13.2825 20.421C13.2643 20.2521 13.2257 20.0818 13.2106 19.9116C13.1991 19.783 13.2106 19.658 13.1907 19.533C13.1415 19.248 13.0705 18.9975 13.0705 18.7084L13.0909 18.6885C13.1168 18.6857 13.1429 18.6882 13.1676 18.696C13.1766 18.7208 13.1834 18.7463 13.188 18.7723L13.4358 21.1529C13.4376 21.1636 13.4385 21.1744 13.4385 21.1853C13.4515 21.1973 13.4628 21.211 13.4722 21.226C13.4722 21.226 13.6039 21.6844 13.5143 21.7039Z" fill="#D1A171"/>
<path d="M14.1255 13.1306C14.1174 13.1404 14.1067 13.1478 14.0946 13.1518C14.0825 13.1558 14.0696 13.1563 14.0572 13.1533C14.0448 13.1503 14.0335 13.1439 14.0247 13.1348C14.0158 13.1257 14.0096 13.1142 14.0069 13.1018C14.0042 13.0894 14.0051 13.0764 14.0094 13.0644C14.0137 13.0525 14.0213 13.0419 14.0313 13.0341C14.0413 13.0262 14.0533 13.0213 14.066 13.02C14.0787 13.0186 14.0914 13.0209 14.1029 13.0264C14.1193 13.0376 14.1309 13.0546 14.1351 13.074C14.1393 13.0934 14.1359 13.1137 14.1255 13.1306Z" fill="#CC996A"/>
<path d="M10.1176 16.7858C9.95582 16.8301 9.87203 17.0403 9.93099 17.2535C9.99039 17.4672 10.1695 17.6042 10.33 17.5594L12.0656 17.0797C12.2274 17.0354 12.3107 16.8257 12.2518 16.612C12.1928 16.3988 12.0137 16.2618 11.8528 16.3066L10.1176 16.7858Z" fill="#E8B782"/>
<path d="M9.92574 19.979C9.73999 20.0273 9.42789 20.1793 9.1455 20.268C9.0635 20.2944 8.97941 20.3139 8.89414 20.3261L8.8671 20.3296H8.86444C8.81357 20.3349 8.76221 20.3328 8.71193 20.3234C8.67183 20.3094 8.63876 20.2803 8.61972 20.2423C8.61867 20.2395 8.61733 20.2368 8.61574 20.2343C8.60104 20.2059 8.59286 20.1745 8.5918 20.1425V20.1394C8.5921 20.1102 8.59947 20.0815 8.61329 20.0557C8.62711 20.0299 8.64696 20.0078 8.67115 19.9914C8.70085 19.9688 8.74031 19.9435 8.7842 19.9156C8.97526 19.799 9.26076 19.6531 9.31618 19.5485C9.33673 19.508 9.35365 19.4657 9.36671 19.4222C9.38412 19.3671 9.39716 19.3108 9.40573 19.2537V19.251C9.40573 19.251 9.69566 19.3424 9.84904 19.5117C9.87042 19.5354 9.88928 19.5613 9.90534 19.5888C9.90534 19.5888 10.0148 19.9555 9.92574 19.979Z" fill="#E8B782"/>
<path d="M8.84466 20.3337C8.77417 20.3523 8.75334 20.378 8.68285 20.3909C8.61236 20.4037 8.53478 20.4352 8.50552 20.3722C8.48956 20.3346 8.5964 20.288 8.62212 20.2366C8.59596 20.229 8.53345 20.2592 8.51572 20.2366C8.48735 20.1971 8.56005 20.1581 8.59551 20.1399C8.57468 20.1399 8.51173 20.1315 8.51129 20.1014C8.51084 20.0712 8.57557 20.0397 8.60749 20.0362C8.57246 20.0296 8.52902 20.0247 8.54276 19.983C8.5565 19.9413 8.56271 19.9529 8.60217 19.9617C8.61319 19.9655 8.62352 19.971 8.63275 19.9781C8.64029 19.9755 8.5964 19.8988 8.62522 19.8797C8.65403 19.8606 8.70945 19.9196 8.74137 19.9205C8.77073 19.9162 8.80036 19.914 8.83003 19.9138C8.96303 19.9475 9.03839 20.2805 8.89209 20.3257L8.84466 20.3337Z" fill="#E8B782"/>
<path d="M10.6291 17.3071L9.90739 19.5867C9.89229 19.6428 9.86044 19.6931 9.81607 19.7307C9.72946 19.8 9.62768 19.8479 9.51905 19.8704C9.32266 19.8225 9.31689 19.6345 9.36654 19.4213C9.36654 19.4155 9.3692 19.4093 9.37053 19.4031L9.40556 19.2528V19.2502L9.89587 17.128C9.91455 17.0399 9.96211 16.9605 10.031 16.9024C10.0999 16.8444 10.1862 16.811 10.2762 16.8075C10.3045 16.8076 10.3326 16.811 10.36 16.8177C10.5626 16.8669 10.6823 17.0859 10.6291 17.3071Z" fill="#E8B782"/>
<path opacity="0.4" d="M9.90713 19.5884C9.90713 19.5884 10.0149 19.9564 9.92575 19.979C9.74 20.0273 9.4279 20.1794 9.14551 20.268C9.16546 20.2556 9.18452 20.245 9.20447 20.2348C9.41593 20.124 9.64779 20.0725 9.77147 19.8571C9.79307 19.8183 9.80806 19.7762 9.8158 19.7325C9.826 19.6798 9.83043 19.6257 9.84063 19.5698C9.84418 19.5503 9.84772 19.5313 9.85082 19.5113C9.87255 19.3894 9.89516 19.2635 9.91643 19.1367C9.96431 18.8707 10.1106 18.6269 10.1935 18.3622C10.2454 18.1982 10.303 18.0262 10.3575 17.863C10.3921 17.7624 10.4214 17.6613 10.4462 17.5607C10.4608 17.5035 10.5047 17.4091 10.4852 17.3515C10.5335 17.3417 10.577 17.3111 10.628 17.3071L9.90713 19.5884Z" fill="#D1A171"/>
<g style="mix-blend-mode:multiply">
<path d="M15.2285 15.2475C15.1652 15.2559 15.1009 15.2512 15.0394 15.2338C14.978 15.2165 14.9207 15.1867 14.8712 15.1464L14.6877 14.9824C14.5813 15.1553 14.4425 15.2883 14.3596 15.4026C14.3237 15.4526 14.2907 15.5045 14.2607 15.5582C14.2993 15.4536 14.3463 15.3512 14.3742 15.2626C14.4038 15.1768 14.4444 15.0952 14.4953 15.0201C14.5207 14.9709 14.5418 14.9196 14.5582 14.8667C14.5655 14.8472 14.5744 14.8283 14.5848 14.8104C14.6398 14.7177 14.681 14.7909 14.755 14.8547C14.7586 14.8569 14.7617 14.86 14.7648 14.8622C14.8322 14.9163 14.8978 14.9704 14.9687 15.0209C15.0543 15.0788 15.1336 15.1453 15.2055 15.2196C15.2134 15.228 15.221 15.2377 15.2285 15.2475Z" fill="#FDDF9F"/>
</g>
<path opacity="0.4" d="M12.4927 22.1787C12.5494 22.1496 12.6088 22.1258 12.67 22.1078C12.611 22.1339 12.5516 22.1579 12.4927 22.1787Z" fill="#D1A171"/>
<path opacity="0.4" d="M11.3152 18.0098C11.3156 18.0111 11.3156 18.0125 11.3152 18.0138C11.3049 18.0161 11.2943 18.0172 11.2837 18.0169L11.3152 18.0098Z" fill="#D1A171"/>
<path opacity="0.4" d="M8.44141 12.7254L8.47155 12.7556L8.45781 12.7644C8.45249 12.752 8.44673 12.7387 8.44141 12.7254Z" fill="#D1A171"/>
<path d="M12.1653 15.9709L10.6084 16.3726L10.9063 17.6059L12.442 17.1772L12.3351 18.5896L13.3991 18.9079L13.7497 17.0566C13.7497 17.0566 12.6809 16.7636 12.1653 15.9709Z" fill="#493258"/>
<path d="M14.5391 12.9954C14.5339 12.9928 14.5294 12.989 14.5259 12.9843C14.5224 12.9796 14.5201 12.9742 14.5192 12.9684C14.5183 12.9626 14.5188 12.9567 14.5207 12.9512C14.5226 12.9457 14.5257 12.9406 14.5299 12.9366C14.5341 12.9325 14.5392 12.9296 14.5448 12.9279C14.5504 12.9262 14.5564 12.926 14.5621 12.9271C14.5678 12.9282 14.5732 12.9307 14.5778 12.9343C14.5824 12.938 14.586 12.9426 14.5884 12.948C14.5905 12.9366 14.5894 12.9248 14.585 12.914C14.5807 12.9033 14.5734 12.894 14.564 12.8872C14.5325 12.8704 14.4824 12.9032 14.4523 12.9599C14.4221 13.0167 14.4239 13.077 14.4554 13.0929C14.4868 13.1089 14.5369 13.0765 14.5671 13.0198C14.572 13.0102 14.5761 13.0003 14.5795 12.9901C14.5741 12.9949 14.5673 12.998 14.5601 12.9989C14.5529 12.9999 14.5456 12.9986 14.5391 12.9954Z" fill="#333333"/>
<path d="M13.9054 12.7427C13.8968 12.7382 13.8905 12.7305 13.8876 12.7213C13.8848 12.712 13.8858 12.702 13.8903 12.6935C13.8948 12.685 13.9025 12.6786 13.9118 12.6758C13.921 12.673 13.931 12.6739 13.9395 12.6785C13.9461 12.6822 13.9514 12.6879 13.9546 12.6949C13.9567 12.6835 13.9556 12.6718 13.9514 12.661C13.9471 12.6503 13.9399 12.6409 13.9306 12.6341C13.8987 12.6173 13.8486 12.6501 13.8185 12.7073C13.7883 12.7645 13.7901 12.8239 13.8216 12.8403C13.853 12.8567 13.9031 12.8243 13.9333 12.7671C13.9384 12.7578 13.9425 12.748 13.9457 12.7379C13.9402 12.7425 13.9334 12.7455 13.9263 12.7464C13.9191 12.7472 13.9118 12.746 13.9054 12.7427Z" fill="#333333"/>
<path d="M13.7911 13.2215L14.2295 13.386C14.2295 13.386 14.0451 13.597 13.8704 13.5101C13.6958 13.4232 13.7911 13.2215 13.7911 13.2215Z" fill="#800E28"/>
<path d="M13.7661 13.3634C13.7688 13.3949 13.7799 13.4252 13.7982 13.451C13.8165 13.4768 13.8414 13.4972 13.8703 13.5101C13.8998 13.524 13.9321 13.5312 13.9647 13.5312C13.9974 13.5312 14.0296 13.524 14.0591 13.5101C13.9993 13.4467 13.8707 13.331 13.7661 13.3634Z" fill="#A01C36"/>
<path d="M14.5317 12.3344C14.5317 12.3344 13.974 12.5809 13.5834 12.3344C13.5834 12.3344 13.3658 12.5765 13.3662 12.6891C13.3662 12.6891 13.419 11.8818 13.7652 11.489V11.6544L13.9993 11.4061V11.6149L14.2285 11.4061V11.5613L14.3823 11.4478L14.4102 11.6149L14.6133 11.4992L14.6722 11.7674L14.8345 11.6145V11.8135C14.8345 11.8135 14.9418 11.685 14.9511 11.7249C14.9558 11.8076 14.9558 11.8904 14.9511 11.9731L15.1519 11.8401L15.0814 12.0702L15.1519 12.0476V12.2227L15.2534 12.0702V12.3362L15.3789 12.193C15.3789 12.193 15.1931 13.1807 14.8558 13.4463L15.0154 12.9586C15.0154 12.9586 14.6243 12.5707 14.5317 12.3344Z" fill="#231F20"/>
<path d="M8.62678 13.4644C8.7208 13.4644 8.79701 13.3882 8.79701 13.2942C8.79701 13.2002 8.7208 13.124 8.62678 13.124C8.53276 13.124 8.45654 13.2002 8.45654 13.2942C8.45654 13.3882 8.53276 13.4644 8.62678 13.4644Z" fill="#231F20"/>
<path d="M11.8351 4.39505C11.8284 4.37333 11.8222 4.35604 11.8174 4.34451C11.5412 3.74249 11.1213 3.15775 10.5934 2.63065C9.33832 1.37783 7.4591 0.309435 5.48634 0.0616209C2.69344 -0.289043 0.589008 0.942937 0.0126956 2.78448C-0.0546886 2.99993 0.180712 3.22779 0.406804 3.16484C1.8866 2.75477 6.36721 1.90627 11.4361 4.6739C11.6635 4.79758 11.9047 4.62646 11.8351 4.39505Z" fill="#6DB08A"/>
</g>
<defs>
<clipPath id="clip0_1232_6681">
<rect width="22.9466" height="25" fill="white"/>
</clipPath>
</defs>
</svg>
