<svg width="30" height="30" viewBox="0 0 30 30" fill="none" xmlns="http://www.w3.org/2000/svg">
<circle cx="15" cy="15" r="14" fill="#3797F0" stroke="white" stroke-width="2"/>
<g clip-path="url(#clip0_3479_5719)">
<path d="M12.2883 14.0135C12.2806 14.8641 12.2844 15.7151 12.2844 16.5656C12.2844 17.4161 12.2806 18.2383 12.2883 19.0747C12.2896 19.2268 12.247 19.2646 12.0983 19.2624C11.5403 19.2534 10.9823 19.2599 10.4239 19.2581C10.1122 19.2573 10.0009 19.1443 10.0004 18.829C10 17.3062 10 15.7834 10 14.2605C10.0004 13.9366 10.1092 13.8305 10.4428 13.8292C10.9939 13.8275 11.5446 13.834 12.0957 13.8254C12.2427 13.8232 12.2892 13.8602 12.2879 14.0135H12.2883Z" fill="#F7F9FA"/>
<path d="M20.4992 16.7039C20.7804 17.2971 20.6441 17.8113 20.1011 18.2009C20.0272 18.2538 20.0212 18.286 20.0543 18.3676C20.3978 19.2083 19.8759 19.9966 18.971 19.9901C17.8262 19.9824 16.6805 20.0369 15.5366 19.951C14.6923 19.8874 13.8703 19.7096 13.0656 19.4446C12.9297 19.3999 12.9358 19.3213 12.9358 19.219C12.937 18.3036 12.9366 17.3882 12.9366 16.4728C12.9366 15.5574 12.9392 14.6415 12.9336 13.7261C12.9327 13.5848 12.9706 13.4916 13.0862 13.4027C13.6601 12.9602 14.1975 12.4804 14.6097 11.8751C14.8668 11.4971 14.9786 11.0581 15.1497 10.644C15.283 10.3213 15.3926 9.98886 15.5297 9.66754C15.7829 9.07387 16.3327 8.84921 16.8753 9.10352C17.1358 9.22551 17.2776 9.43772 17.3451 9.7062C17.5132 10.3746 17.4225 11.0426 17.3262 11.708C17.2776 12.0469 17.2097 12.3837 17.1396 12.7188C17.1126 12.8485 17.1504 12.8751 17.2738 12.8743C17.9827 12.8691 18.6915 12.8885 19.3996 12.8674C20.3612 12.8386 20.9347 13.8142 20.4923 14.5603C20.4532 14.6261 20.4635 14.6604 20.5246 14.7137C21.1552 15.2653 21.1587 15.9792 20.5319 16.5312C20.4631 16.5914 20.4618 16.6253 20.4992 16.7039Z" fill="#F7F9FA"/>
<path d="M20.4992 16.7039C20.7804 17.2971 20.6441 17.8113 20.1011 18.2009C20.0272 18.2538 20.0212 18.286 20.0543 18.3676C20.3978 19.2083 19.8759 19.9966 18.971 19.9901C17.8262 19.9824 16.6805 20.0369 15.5366 19.951C14.6923 19.8874 13.8703 19.7096 13.0656 19.4446C12.9297 19.3999 12.9358 19.3213 12.9358 19.219C12.937 18.3036 12.9366 17.3882 12.9366 16.4728C12.9366 15.5574 12.9392 14.6415 12.9336 13.7261C12.9327 13.5848 12.9706 13.4916 13.0862 13.4027C13.6601 12.9602 14.1975 12.4804 14.6097 11.8751C14.8668 11.4971 14.9786 11.0581 15.1497 10.644C15.283 10.3213 15.3926 9.98886 15.5297 9.66754C15.7829 9.07387 16.3327 8.84921 16.8753 9.10352C17.1358 9.22551 17.2776 9.43772 17.3451 9.7062C17.5132 10.3746 17.4225 11.0426 17.3262 11.708C17.2776 12.0469 17.2097 12.3837 17.1396 12.7188C17.1126 12.8485 17.1504 12.8751 17.2738 12.8743C17.9827 12.8691 18.6915 12.8885 19.3996 12.8674C20.3612 12.8386 20.9347 13.8142 20.4923 14.5603C20.4532 14.6261 20.4635 14.6604 20.5246 14.7137C21.1552 15.2653 21.1587 15.9792 20.5319 16.5312C20.4631 16.5914 20.4618 16.6253 20.4992 16.7039Z" fill="white"/>
<path d="M12.2883 19.0747C12.2896 19.2268 12.247 19.2646 12.0983 19.2624C11.5403 19.2534 10.9823 19.2599 10.4239 19.2581C10.1122 19.2573 10.0009 19.1443 10.0004 18.829C10 17.3062 10 15.7834 10 14.2605C10.0004 13.9366 10.1092 13.8305 10.4428 13.8292C10.9939 13.8275 11.5446 13.834 12.0957 13.8254C12.2427 13.8232 12.2892 13.8602 12.2879 14.0135C12.2801 14.8641 12.284 15.7151 12.284 16.5656C12.284 17.4161 12.2801 18.2383 12.2879 19.0747H12.2883Z" fill="white"/>
</g>
<defs>
<clipPath id="clip0_3479_5719">
<rect width="11" height="11" fill="white" transform="translate(10 9)"/>
</clipPath>
</defs>
</svg>
