<svg width="99" height="113" viewBox="0 0 99 113" fill="none" xmlns="http://www.w3.org/2000/svg">
<g clip-path="url(#clip0_1129_24688)">
<path d="M51.1578 74.184C50.4024 68.669 45.3202 65.4602 39.6207 66.8659C36.2251 67.7008 33.5523 69.5769 32.5434 73.0901C31.5646 76.4976 32.3125 79.7895 35.0229 81.995C36.9152 83.534 37.244 85.1359 37.0458 87.2157C37.0257 87.4219 37.0432 87.6331 37.0432 87.8419C37.0458 89.0138 37.0106 90.1882 37.0508 91.3576C37.1411 93.8447 38.8151 95.4592 41.3022 95.4969C41.8016 95.507 42.3036 95.507 42.8055 95.4969C45.3554 95.4592 47.0143 93.7969 47.0343 91.2343C47.0519 88.8478 47.0569 86.4612 47.0243 84.0772C47.0143 83.3982 47.205 82.9632 47.7496 82.503C50.3095 80.3377 51.6171 77.5488 51.1578 74.184ZM45.5837 80.8356C44.7079 81.4291 44.3916 82.0981 44.4092 83.1166C44.4569 85.7093 44.4393 88.3046 44.4192 90.8974C44.4092 92.5546 43.96 92.884 41.8543 92.8664C40.09 92.8513 39.7261 92.5194 39.7211 90.8722C39.7136 88.3624 39.701 85.8527 39.7286 83.3429C39.7387 82.4527 39.4375 81.8642 38.6269 81.4316C35.816 79.9429 34.4457 77.3602 34.915 74.5637C35.3542 71.9257 37.5979 69.8787 40.6246 69.348C44.364 68.6942 47.4284 70.3917 48.367 73.6131C48.5351 74.189 48.5477 74.7649 48.5753 75.4414C48.5377 77.7047 47.4936 79.5481 45.5837 80.8356ZM51.1578 74.184C50.4024 68.669 45.3202 65.4602 39.6207 66.8659C36.2251 67.7008 33.5523 69.5769 32.5434 73.0901C31.5646 76.4976 32.3125 79.7895 35.0229 81.995C36.9152 83.534 37.244 85.1359 37.0458 87.2157C37.0257 87.4219 37.0432 87.6331 37.0432 87.8419C37.0458 89.0138 37.0106 90.1882 37.0508 91.3576C37.1411 93.8447 38.8151 95.4592 41.3022 95.4969C41.8016 95.507 42.3036 95.507 42.8055 95.4969C45.3554 95.4592 47.0143 93.7969 47.0343 91.2343C47.0519 88.8478 47.0569 86.4612 47.0243 84.0772C47.0143 83.3982 47.205 82.9632 47.7496 82.503C50.3095 80.3377 51.6171 77.5488 51.1578 74.184ZM45.5837 80.8356C44.7079 81.4291 44.3916 82.0981 44.4092 83.1166C44.4569 85.7093 44.4393 88.3046 44.4192 90.8974C44.4092 92.5546 43.96 92.884 41.8543 92.8664C40.09 92.8513 39.7261 92.5194 39.7211 90.8722C39.7136 88.3624 39.701 85.8527 39.7286 83.3429C39.7387 82.4527 39.4375 81.8642 38.6269 81.4316C35.816 79.9429 34.4457 77.3602 34.915 74.5637C35.3542 71.9257 37.5979 69.8787 40.6246 69.348C44.364 68.6942 47.4284 70.3917 48.367 73.6131C48.5351 74.189 48.5477 74.7649 48.5753 75.4414C48.5377 77.7047 47.4936 79.5481 45.5837 80.8356ZM79.8612 54.2844C79.6453 50.0796 77.5447 46.7601 73.7325 45.04C71.7197 44.1321 71.5691 43.0709 71.6846 41.2049C72.1213 34.166 72.0962 27.1346 70.0859 20.2768C68.0957 13.4893 64.6374 7.70527 58.4961 3.87271C53.148 0.535575 47.2602 -0.492978 41.0688 0.208651C33.7129 1.04105 27.1826 3.70171 22.0327 9.23678C17.5078 14.0979 14.8149 19.9222 13.1283 26.272C11.7932 31.3067 11.0955 36.4419 10.8571 41.6375C10.8044 42.7565 10.5634 43.506 9.3914 44.0215C7.56936 44.8262 6.19907 46.2798 5.02453 47.8893C2.3492 51.5609 1.57872 55.831 1.37543 60.2143C1.02157 67.7863 0.564803 75.3534 0.190858 82.9229C-0.0852087 88.4831 -0.203164 94.0559 0.848398 99.5784C1.85479 104.857 4.46738 108.868 9.56457 110.998C12.5787 112.258 15.7409 112.786 18.981 112.741C26.2917 112.638 33.6024 112.256 38.2454 112.703C50.1087 113.231 59.2917 113.02 68.4747 112.334C74.7941 111.863 79.1158 108.529 80.2728 103.011C80.5915 101.49 80.5413 99.9255 80.5664 98.3764C80.8073 83.6723 80.6091 68.9708 79.8612 54.2844ZM17.4149 30.0141C18.5016 24.2577 20.1931 18.7025 23.6841 13.9143C28.7964 6.90556 35.688 2.78884 44.3916 2.3412C52.1717 1.94135 58.2226 5.4847 62.8655 11.6057C66.4268 16.3009 68.1635 21.6951 68.8461 27.4817C69.1824 30.3158 69.2527 33.1626 69.0419 36.0119C69.0419 38.1897 69.0218 40.3675 69.0519 42.5428C69.062 43.3777 68.8235 43.7097 67.905 43.6594C65.6939 43.5387 63.4754 43.5009 61.2618 43.5135C60.4537 43.5135 60.2881 43.252 60.3433 42.5C60.6143 38.9014 60.6168 35.3027 60.3182 31.704C60.0321 28.2411 59.1888 24.9518 57.4847 21.9063C52.6736 13.3057 43.4254 11.4196 35.5525 17.3646C31.4692 20.4452 29.479 24.6827 28.4526 29.5262C27.5967 33.5599 27.2655 37.6414 27.3232 41.7557C27.3357 42.6031 27.1852 42.92 26.2566 42.8773C23.1671 42.7415 20.0752 42.5956 16.9832 42.7792C16.0948 42.8295 16.4211 42.236 16.4135 41.8839C16.3182 37.8929 16.6771 33.9346 17.4149 30.0141ZM30.9648 42.9326C30.4026 42.9326 29.9458 43.003 29.9383 42.1379C29.9057 36.882 30.257 31.6688 32.0013 26.6694C33.9237 21.1695 37.7911 17.767 43.5383 16.7359C47.6166 16.0041 50.9018 17.5985 53.4767 20.7319C56.4106 24.3055 57.56 28.5303 57.7834 33.057C57.939 36.1954 57.8311 39.3364 57.7809 42.4774C57.7658 43.3727 57.3969 43.4582 56.654 43.4531C52.3925 43.4205 48.1336 43.4381 43.8721 43.4381V42.9301C39.568 42.9301 35.2664 42.9276 30.9648 42.9326ZM78.0015 91.0533C77.9814 94.2798 77.9312 97.5062 77.871 100.73C77.7806 105.423 74.37 109.104 69.7421 109.552C59.9417 110.5 50.1213 110.462 38.8176 110.173C32.4003 109.866 24.5098 109.489 16.6168 109.112C12.265 108.906 7.40875 104.384 7.26067 99.2892C6.87167 85.9533 7.54176 72.65 8.02362 59.3366C8.09389 57.4153 7.99601 55.4814 8.3298 53.5702C9.11534 49.0762 12.8548 45.6033 17.3923 45.4474C20.9812 45.3242 24.5826 45.4373 28.1765 45.5002C41.5105 45.7341 54.8445 45.9855 68.1785 46.237C73.4564 46.3351 77.0754 49.8558 77.3063 55.2425C77.8183 67.1727 78.0768 79.1105 78.0015 91.0533ZM39.6207 66.8659C36.2251 67.7008 33.5523 69.5769 32.5434 73.0901C31.5646 76.4976 32.3125 79.7895 35.0229 81.995C36.9152 83.534 37.244 85.1359 37.0458 87.2157C37.0257 87.4219 37.0432 87.6331 37.0432 87.8419C37.0458 89.0138 37.0106 90.1882 37.0508 91.3576C37.1411 93.8447 38.8151 95.4592 41.3022 95.4969C41.8016 95.507 42.3036 95.507 42.8055 95.4969C45.3554 95.4592 47.0143 93.7969 47.0343 91.2343C47.0519 88.8478 47.0569 86.4612 47.0243 84.0772C47.0143 83.3982 47.205 82.9632 47.7496 82.503C50.3095 80.3377 51.6171 77.5488 51.1578 74.184C50.4024 68.669 45.3202 65.4602 39.6207 66.8659ZM45.5837 80.8356C44.7079 81.4291 44.3916 82.0981 44.4092 83.1166C44.4569 85.7093 44.4393 88.3046 44.4192 90.8974C44.4092 92.5546 43.96 92.884 41.8543 92.8664C40.09 92.8513 39.7261 92.5194 39.7211 90.8722C39.7136 88.3624 39.701 85.8527 39.7286 83.3429C39.7387 82.4527 39.4375 81.8642 38.6269 81.4316C35.816 79.9429 34.4457 77.3602 34.915 74.5637C35.3542 71.9257 37.5979 69.8787 40.6246 69.348C44.364 68.6942 47.4284 70.3917 48.367 73.6131C48.5351 74.189 48.5477 74.7649 48.5753 75.4414C48.5377 77.7047 47.4936 79.5481 45.5837 80.8356Z" fill="#F7F9FA"/>
<path d="M74.4577 15.9841C75.8456 12.6092 77.5798 9.42547 79.7055 6.45801C80.107 5.89721 80.6165 5.56777 81.3117 5.80667C81.8739 5.9978 82.1976 6.41777 82.1901 7.08671C82.2252 7.49913 81.9717 7.8336 81.7283 8.17561C79.7833 10.9117 78.1796 13.8364 76.9273 16.9497C76.5558 17.8677 75.9811 18.4058 75.0174 18.006C74.0888 17.6237 74.1189 16.8039 74.4577 15.9841Z" fill="#F7F9FA"/>
<path d="M94.9893 16.4745C90.9161 19.2332 86.8504 22.002 82.7596 24.7356C81.718 25.4322 80.6012 24.889 80.5887 23.6743C80.556 23.189 80.8823 22.8344 81.319 22.5401C85.3947 19.7839 89.4655 17.0227 93.5437 14.2715C94.264 13.7861 95.0019 13.7736 95.5063 14.5481C96.0032 15.3151 95.7121 15.9841 94.9893 16.4745Z" fill="#F7F9FA"/>
<path d="M98.9823 32.9388C98.8644 33.8014 98.242 34.1334 97.4439 34.0504C93.2903 33.6178 89.1418 33.1526 84.9883 32.7201C84.0521 32.6245 83.2917 32.3428 83.3946 31.2388C83.5025 30.1122 84.3483 30.0116 85.2568 30.1021C89.4103 30.5347 93.5639 30.9572 97.7149 31.4098C98.5808 31.5029 99.1078 32.0134 98.9823 32.9388Z" fill="#F7F9FA"/>
<path d="M51.1578 74.184C50.4024 68.669 45.3202 65.4602 39.6207 66.8659C36.2251 67.7008 33.5523 69.5769 32.5434 73.0901C31.5646 76.4976 32.3125 79.7895 35.0229 81.995C36.9152 83.534 37.244 85.1359 37.0458 87.2157C37.0257 87.4219 37.0432 87.6331 37.0432 87.8419C37.0458 89.0138 37.0106 90.1882 37.0508 91.3576C37.1411 93.8447 38.8151 95.4592 41.3022 95.4969C41.8016 95.507 42.3036 95.507 42.8055 95.4969C45.3554 95.4592 47.0143 93.7969 47.0343 91.2343C47.0519 88.8478 47.0569 86.4612 47.0243 84.0772C47.0143 83.3982 47.205 82.9632 47.7496 82.503C50.3095 80.3377 51.6171 77.5488 51.1578 74.184ZM45.5837 80.8356C44.7079 81.4291 44.3916 82.0981 44.4092 83.1166C44.4569 85.7093 44.4393 88.3046 44.4192 90.8974C44.4092 92.5546 43.96 92.884 41.8543 92.8664C40.09 92.8513 39.7261 92.5194 39.7211 90.8722C39.7136 88.3624 39.701 85.8527 39.7286 83.3429C39.7387 82.4527 39.4375 81.8642 38.6269 81.4316C35.816 79.9429 34.4457 77.3602 34.915 74.5637C35.3542 71.9257 37.5979 69.8787 40.6246 69.348C44.364 68.6942 47.4284 70.3917 48.367 73.6131C48.5351 74.189 48.5477 74.7649 48.5753 75.4414C48.5377 77.7047 47.4936 79.5481 45.5837 80.8356ZM51.1578 74.184C50.4024 68.669 45.3202 65.4602 39.6207 66.8659C36.2251 67.7008 33.5523 69.5769 32.5434 73.0901C31.5646 76.4976 32.3125 79.7895 35.0229 81.995C36.9152 83.534 37.244 85.1359 37.0458 87.2157C37.0257 87.4219 37.0432 87.6331 37.0432 87.8419C37.0458 89.0138 37.0106 90.1882 37.0508 91.3576C37.1411 93.8447 38.8151 95.4592 41.3022 95.4969C41.8016 95.507 42.3036 95.507 42.8055 95.4969C45.3554 95.4592 47.0143 93.7969 47.0343 91.2343C47.0519 88.8478 47.0569 86.4612 47.0243 84.0772C47.0143 83.3982 47.205 82.9632 47.7496 82.503C50.3095 80.3377 51.6171 77.5488 51.1578 74.184ZM45.5837 80.8356C44.7079 81.4291 44.3916 82.0981 44.4092 83.1166C44.4569 85.7093 44.4393 88.3046 44.4192 90.8974C44.4092 92.5546 43.96 92.884 41.8543 92.8664C40.09 92.8513 39.7261 92.5194 39.7211 90.8722C39.7136 88.3624 39.701 85.8527 39.7286 83.3429C39.7387 82.4527 39.4375 81.8642 38.6269 81.4316C35.816 79.9429 34.4457 77.3602 34.915 74.5637C35.3542 71.9257 37.5979 69.8787 40.6246 69.348C44.364 68.6942 47.4284 70.3917 48.367 73.6131C48.5351 74.189 48.5477 74.7649 48.5753 75.4414C48.5377 77.7047 47.4936 79.5481 45.5837 80.8356ZM79.8612 54.2844C79.6453 50.0796 77.5447 46.7601 73.7325 45.04C71.7197 44.1321 71.5691 43.0709 71.6846 41.2049C72.1213 34.166 72.0962 27.1346 70.0859 20.2768C68.0957 13.4893 64.6374 7.70527 58.4961 3.87271C53.148 0.535575 47.2602 -0.492978 41.0688 0.208651C33.7129 1.04105 27.1826 3.70171 22.0327 9.23678C17.5078 14.0979 14.8149 19.9222 13.1283 26.272C11.7932 31.3067 11.0955 36.4419 10.8571 41.6375C10.8044 42.7565 10.5634 43.506 9.3914 44.0215C7.56936 44.8262 6.19907 46.2798 5.02453 47.8893C2.3492 51.5609 1.57872 55.831 1.37543 60.2143C1.02157 67.7863 0.564803 75.3534 0.190858 82.9229C-0.0852087 88.4831 -0.203164 94.0559 0.848398 99.5784C1.85479 104.857 4.46738 108.868 9.56457 110.998C12.5787 112.258 15.7409 112.786 18.981 112.741C26.2917 112.638 33.6024 112.256 38.2454 112.703C50.1087 113.231 59.2917 113.02 68.4747 112.334C74.7941 111.863 79.1158 108.529 80.2728 103.011C80.5915 101.49 80.5413 99.9255 80.5664 98.3764C80.8073 83.6723 80.6091 68.9708 79.8612 54.2844ZM17.4149 30.0141C18.5016 24.2577 20.1931 18.7025 23.6841 13.9143C28.7964 6.90556 35.688 2.78884 44.3916 2.3412C52.1717 1.94135 58.2226 5.4847 62.8655 11.6057C66.4268 16.3009 68.1635 21.6951 68.8461 27.4817C69.1824 30.3158 69.2527 33.1626 69.0419 36.0119C69.0419 38.1897 69.0218 40.3675 69.0519 42.5428C69.062 43.3777 68.8235 43.7097 67.905 43.6594C65.6939 43.5387 63.4754 43.5009 61.2618 43.5135C60.4537 43.5135 60.2881 43.252 60.3433 42.5C60.6143 38.9014 60.6168 35.3027 60.3182 31.704C60.0321 28.2411 59.1888 24.9518 57.4847 21.9063C52.6736 13.3057 43.4254 11.4196 35.5525 17.3646C31.4692 20.4452 29.479 24.6827 28.4526 29.5262C27.5967 33.5599 27.2655 37.6414 27.3232 41.7557C27.3357 42.6031 27.1852 42.92 26.2566 42.8773C23.1671 42.7415 20.0752 42.5956 16.9832 42.7792C16.0948 42.8295 16.4211 42.236 16.4135 41.8839C16.3182 37.8929 16.6771 33.9346 17.4149 30.0141ZM30.9648 42.9326C30.4026 42.9326 29.9458 43.003 29.9383 42.1379C29.9057 36.882 30.257 31.6688 32.0013 26.6694C33.9237 21.1695 37.7911 17.767 43.5383 16.7359C47.6166 16.0041 50.9018 17.5985 53.4767 20.7319C56.4106 24.3055 57.56 28.5303 57.7834 33.057C57.939 36.1954 57.8311 39.3364 57.7809 42.4774C57.7658 43.3727 57.3969 43.4582 56.654 43.4531C52.3925 43.4205 48.1336 43.4381 43.8721 43.4381V42.9301C39.568 42.9301 35.2664 42.9276 30.9648 42.9326ZM78.0015 91.0533C77.9814 94.2798 77.9312 97.5062 77.871 100.73C77.7806 105.423 74.37 109.104 69.7421 109.552C59.9417 110.5 50.1213 110.462 38.8176 110.173C32.4003 109.866 24.5098 109.489 16.6168 109.112C12.265 108.906 7.40875 104.384 7.26067 99.2892C6.87167 85.9533 7.54176 72.65 8.02362 59.3366C8.09389 57.4153 7.99601 55.4814 8.3298 53.5702C9.11534 49.0762 12.8548 45.6033 17.3923 45.4474C20.9812 45.3242 24.5826 45.4373 28.1765 45.5002C41.5105 45.7341 54.8445 45.9855 68.1785 46.237C73.4564 46.3351 77.0754 49.8558 77.3063 55.2425C77.8183 67.1727 78.0768 79.1105 78.0015 91.0533ZM39.6207 66.8659C36.2251 67.7008 33.5523 69.5769 32.5434 73.0901C31.5646 76.4976 32.3125 79.7895 35.0229 81.995C36.9152 83.534 37.244 85.1359 37.0458 87.2157C37.0257 87.4219 37.0432 87.6331 37.0432 87.8419C37.0458 89.0138 37.0106 90.1882 37.0508 91.3576C37.1411 93.8447 38.8151 95.4592 41.3022 95.4969C41.8016 95.507 42.3036 95.507 42.8055 95.4969C45.3554 95.4592 47.0143 93.7969 47.0343 91.2343C47.0519 88.8478 47.0569 86.4612 47.0243 84.0772C47.0143 83.3982 47.205 82.9632 47.7496 82.503C50.3095 80.3377 51.6171 77.5488 51.1578 74.184C50.4024 68.669 45.3202 65.4602 39.6207 66.8659ZM45.5837 80.8356C44.7079 81.4291 44.3916 82.0981 44.4092 83.1166C44.4569 85.7093 44.4393 88.3046 44.4192 90.8974C44.4092 92.5546 43.96 92.884 41.8543 92.8664C40.09 92.8513 39.7261 92.5194 39.7211 90.8722C39.7136 88.3624 39.701 85.8527 39.7286 83.3429C39.7387 82.4527 39.4375 81.8642 38.6269 81.4316C35.816 79.9429 34.4457 77.3602 34.915 74.5637C35.3542 71.9257 37.5979 69.8787 40.6246 69.348C44.364 68.6942 47.4284 70.3917 48.367 73.6131C48.5351 74.189 48.5477 74.7649 48.5753 75.4414C48.5377 77.7047 47.4936 79.5481 45.5837 80.8356Z" fill="black"/>
<path d="M94.9893 16.4745C90.9161 19.2332 86.8504 22.002 82.7596 24.7356C81.718 25.4322 80.6012 24.889 80.5887 23.6743C80.556 23.189 80.8823 22.8344 81.319 22.5401C85.3947 19.7839 89.4655 17.0227 93.5437 14.2715C94.264 13.7861 95.0019 13.7736 95.5063 14.5481C96.0032 15.3151 95.7121 15.9841 94.9893 16.4745Z" fill="black"/>
<path d="M98.9823 32.9388C98.8644 33.8014 98.242 34.1334 97.4439 34.0504C93.2903 33.6178 89.1418 33.1526 84.9883 32.7201C84.0521 32.6245 83.2917 32.3428 83.3946 31.2388C83.5025 30.1122 84.3483 30.0116 85.2568 30.1021C89.4103 30.5347 93.5639 30.9572 97.7149 31.4098C98.5808 31.5029 99.1078 32.0134 98.9823 32.9388Z" fill="#010101"/>
<path d="M81.7283 8.17561C79.7833 10.9117 78.1796 13.8364 76.9273 16.9497C76.5558 17.8677 75.9811 18.4058 75.0174 18.006C74.0888 17.6237 74.1189 16.8039 74.4577 15.9841C75.8456 12.6092 77.5798 9.42547 79.7055 6.45801C80.107 5.89721 80.6165 5.56777 81.3117 5.80667C81.8739 5.9978 82.1976 6.41777 82.1901 7.08671C82.2252 7.49913 81.9717 7.8336 81.7283 8.17561Z" fill="#010101"/>
<path d="M51.1576 74.1841C50.4022 68.6691 45.3201 65.4602 39.6206 66.866C36.225 67.7009 33.5521 69.577 32.5432 73.0901C31.5644 76.4977 32.3123 79.7896 35.0228 81.995C36.9151 83.5341 37.2439 85.136 37.0456 87.2158C37.0255 87.422 37.0431 87.6332 37.0431 87.8419C37.0456 89.0138 37.0105 90.1883 37.0506 91.3576C37.141 93.8448 38.815 95.4593 41.3021 95.497C41.8015 95.5071 42.3034 95.5071 42.8054 95.497C45.3552 95.4593 47.0141 93.797 47.0342 91.2344C47.0518 88.8479 47.0568 86.4613 47.0242 84.0773C47.0141 83.3983 47.2049 82.9632 47.7495 82.503C50.3094 80.3378 51.6169 77.5489 51.1576 74.1841ZM45.5836 80.8357C44.7077 81.4292 44.3915 82.0981 44.4091 83.1166C44.4568 85.7094 44.4392 88.3047 44.4191 90.8974C44.4091 92.5547 43.9598 92.8841 41.8542 92.8665C40.0899 92.8514 39.726 92.5195 39.721 90.8723C39.7134 88.3625 39.7009 85.8527 39.7285 83.343C39.7385 82.4527 39.4374 81.8643 38.6267 81.4317C35.8159 79.943 34.4456 77.3603 34.9149 74.5638C35.3541 71.9258 37.5978 69.8787 40.6244 69.3481C44.3639 68.6943 47.4282 70.3918 48.3669 73.6132C48.535 74.1891 48.5476 74.765 48.5752 75.4415C48.5375 77.7048 47.4935 79.5481 45.5836 80.8357Z" fill="#F7F9FA"/>
<path d="M51.1576 74.1841C50.4022 68.6691 45.3201 65.4602 39.6206 66.866C36.225 67.7009 33.5521 69.577 32.5432 73.0901C31.5644 76.4977 32.3123 79.7896 35.0228 81.995C36.9151 83.5341 37.2439 85.136 37.0456 87.2158C37.0255 87.422 37.0431 87.6332 37.0431 87.8419C37.0456 89.0138 37.0105 90.1883 37.0506 91.3576C37.141 93.8448 38.815 95.4593 41.3021 95.497C41.8015 95.5071 42.3034 95.5071 42.8054 95.497C45.3552 95.4593 47.0141 93.797 47.0342 91.2344C47.0518 88.8479 47.0568 86.4613 47.0242 84.0773C47.0141 83.3983 47.2049 82.9632 47.7495 82.503C50.3094 80.3378 51.6169 77.5489 51.1576 74.1841ZM45.5836 80.8357C44.7077 81.4292 44.3915 82.0981 44.4091 83.1166C44.4568 85.7094 44.4392 88.3047 44.4191 90.8974C44.4091 92.5547 43.9598 92.8841 41.8542 92.8665C40.0899 92.8514 39.726 92.5195 39.721 90.8723C39.7134 88.3625 39.7009 85.8527 39.7285 83.343C39.7385 82.4527 39.4374 81.8643 38.6267 81.4317C35.8159 79.943 34.4456 77.3603 34.9149 74.5638C35.3541 71.9258 37.5978 69.8787 40.6244 69.3481C44.3639 68.6943 47.4282 70.3918 48.3669 73.6132C48.535 74.1891 48.5476 74.765 48.5752 75.4415C48.5375 77.7048 47.4935 79.5481 45.5836 80.8357Z" fill="black"/>
</g>
<defs>
<clipPath id="clip0_1129_24688">
<rect width="99" height="113" fill="white"/>
</clipPath>
</defs>
</svg>
