<svg width="82" height="73" viewBox="0 0 82 73" fill="none" xmlns="http://www.w3.org/2000/svg">
<path d="M70.9281 59.4272C86.9174 43.2031 86.1929 18.7603 70.2037 2.53627C54.2144 -13.6878 28.2907 -13.6878 12.3015 2.53627C-3.68774 18.7603 -3.68774 45.0647 12.3015 61.2888C28.2907 77.5128 54.9389 75.6512 70.9281 59.4272Z" fill="#E2E2E2"/>
<path d="M22.2819 -3.85408L22.5471 -3.99838C22.5639 -4.03506 22.5832 -4.07175 22.6001 -4.10599C22.4868 -4.05707 22.3735 -4.00571 22.2626 -3.95436C22.1614 -3.90789 22.0578 -3.86142 21.9565 -3.81495L21.73 -3.63642C21.7131 -3.60707 21.6962 -3.57528 21.6794 -3.54593L22.0578 -3.72691L22.2771 -3.85164L22.2819 -3.85408Z" fill="#EFEFEF"/>
<path d="M22.3566 -4.5193L22.5278 -4.54376L22.7399 -4.65381L22.964 -4.78099L23.2388 -4.90816L23.3087 -4.87148C23.1086 -4.75408 23.0701 -4.73452 23.0339 -4.7174C22.952 -4.68071 22.87 -4.64403 22.7881 -4.60735L22.576 -4.47039L22.7688 -4.4924L22.8194 -4.40925L23.2243 -4.54131L23.5738 -4.71495L23.8582 -4.79566L23.998 -4.91794C24.0438 -4.93751 24.0896 -4.95707 24.1354 -4.97419C24.1354 -4.97419 24.1852 -5.04756 24.2848 -5.1943L24.4849 -5.23099C24.6231 -5.33696 24.7171 -5.39729 24.7669 -5.41196C24.8272 -5.42908 25.0079 -5.48044 25.0826 -5.5905C25.0995 -5.63207 25.1164 -5.67365 25.1357 -5.71523L24.8681 -5.64675C24.8079 -5.62474 24.7669 -5.6174 24.697 -5.60517L24.6536 -5.65164C24.6657 -5.67365 24.6777 -5.69566 24.6898 -5.71523L24.5548 -5.70055C24.3957 -5.57582 24.3547 -5.56849 24.3282 -5.59539C24.3282 -5.60762 24.3355 -5.62474 24.3403 -5.63696C24.309 -5.66387 24.1981 -5.62718 24.1451 -5.60762C24.0245 -5.56523 23.9217 -5.55789 23.8365 -5.58561C23.7401 -5.59539 23.7112 -5.59783 23.557 -5.52202C23.3135 -5.39974 23.275 -5.36794 23.2509 -5.34593C23.3135 -5.37528 23.3786 -5.40218 23.4413 -5.43153C23.4533 -5.43642 23.4678 -5.44131 23.4798 -5.4462C23.4678 -5.39974 23.4364 -5.37528 23.287 -5.31414C23.2002 -5.27501 23.1183 -5.23832 23.0363 -5.20164L22.911 -5.13071C22.9688 -5.13071 22.993 -5.13316 23.0195 -5.1405L23.0243 -5.12338C22.9954 -5.0924 22.9086 -5.04512 22.764 -4.98153L22.6025 -4.89593L22.5446 -4.79811L22.3663 -4.68071C22.335 -4.64403 22.306 -4.6049 22.2747 -4.56821L22.4458 -4.64158C22.4145 -4.60001 22.3832 -4.55843 22.3518 -4.51686L22.3566 -4.5193Z" fill="#EFEFEF"/>
<path d="M23.5618 -4.36033C23.463 -4.42881 23.422 -4.43126 23.4196 -4.43126C23.2942 -4.40191 23.1544 -4.2943 23.0412 -4.23316L22.8315 -4.02039L23.2774 -4.17691L23.5618 -4.36033Z" fill="#EFEFEF"/>
<path d="M21.448 -4.13533L21.6504 -4.26251L21.7011 -4.36767L21.5637 -4.32365C21.5058 -4.29675 21.4504 -4.2674 21.3925 -4.2405C21.3564 -4.20137 21.3202 -4.16224 21.2865 -4.12066C21.354 -4.15245 21.4191 -4.18669 21.4865 -4.21849L21.448 -4.13533Z" fill="#EFEFEF"/>
<path d="M19.756 -2.68506L19.9825 -2.79267L20.2091 -2.93941L20.091 -2.95164L19.8066 -2.80001L19.756 -2.68506Z" fill="#EFEFEF"/>
<path d="M19.7463 -2.85137L19.9488 -2.99321L20.0814 -3.05436L20.4092 -3.20354L20.5514 -3.15707L20.79 -3.24023L20.9322 -3.38207L20.978 -3.49702L20.8816 -3.50925L20.9081 -3.60952L20.7466 -3.57283L20.6381 -3.5655L20.455 -3.46033L20.3754 -3.47256L20.2477 -3.45789L20.0669 -3.35273L19.6065 -3.07392L19.5993 -3.00789L19.7584 -3.09838L19.8596 -3.11794L19.7873 -2.99811C19.7078 -2.95653 19.6306 -2.9174 19.5511 -2.87582L19.5294 -2.78778L19.6933 -2.88071L19.7439 -2.85381L19.7463 -2.85137Z" fill="#EFEFEF"/>
<path d="M16.8564 -1.10762L16.9866 -1.27392L16.8709 -1.24213L16.7359 -1.15164L16.6612 -1.04158L16.6757 -1.00245L16.8564 -1.10762Z" fill="#EFEFEF"/>
<path d="M21.3925 -3.8443L21.4263 -3.78071L21.3829 -3.62175L21.6336 -3.71468L21.9011 -3.85408L22.1638 -3.99838L22.2723 -4.11332L22.0963 -4.12311L21.7589 -3.98126L21.5733 -3.97881L21.3925 -3.8443Z" fill="#EFEFEF"/>
<path d="M18.9437 -2.08343L19.151 -2.23262L19.1149 -2.35245L18.9702 -2.34512L18.9654 -2.34023C18.8377 -2.19593 18.8208 -2.14702 18.9437 -2.08343Z" fill="#EFEFEF"/>
<path d="M17.9001 -1.90001C18.0254 -1.97338 18.1556 -2.04675 18.2833 -2.12012L18.2881 -2.12501C18.3629 -2.21061 18.3629 -2.22283 18.3629 -2.23262C18.2857 -2.21794 18.1403 -2.1462 17.9266 -2.0174L17.6759 -1.8462L17.3578 -1.58207C17.4325 -1.62854 17.5096 -1.67256 17.5868 -1.71903C17.6904 -1.78017 17.794 -1.84131 17.9001 -1.90245V-1.90001Z" fill="#EFEFEF"/>
<path d="M17.3047 -1.27148L17.6181 -1.45979L17.7723 -1.60898L17.7338 -1.653L17.8808 -1.74349L18.0736 -1.91713C18.0206 -1.88778 17.9652 -1.85599 17.9121 -1.82664C17.7989 -1.76305 17.688 -1.69702 17.5795 -1.63343L17.3385 -1.46468L17.0637 -1.24702L17.0011 -1.07827L17.1119 -1.12963L17.3047 -1.27392V-1.27148Z" fill="#EFEFEF"/>
<path d="M24.1764 -5.79838L24.0896 -5.70544L24.28 -5.77148L24.3041 -5.73479C24.8272 -5.87175 24.9525 -5.95979 25.1429 -6.09186L25.2538 -6.17256L25.5285 -6.2924L25.3189 -6.16278L25.1453 -6.02827L25.1212 -5.95245L25.5261 -6.11876C25.7937 -6.19457 26.0154 -6.37311 26.2781 -6.4636C26.3938 -6.50762 26.5071 -6.54919 26.6228 -6.59321L26.8518 -6.73262L27.006 -6.83533L27.047 -6.88669C27.2687 -6.96006 27.4736 -7.07256 27.6954 -7.14104L27.5339 -7.0799L27.3218 -6.96495C27.2471 -6.92093 27.1699 -6.87446 27.0952 -6.83044C27.1796 -6.85979 27.2928 -6.90137 27.3772 -6.93316L27.5122 -6.96985L27.6351 -7.00653L27.5459 -6.93071C27.4447 -6.89403 27.3411 -6.85979 27.2398 -6.82311L26.9867 -6.72773L26.8277 -6.64702L26.6855 -6.58832C26.6276 -6.55653 26.5674 -6.52474 26.3866 -6.44403C26.295 -6.40735 26.2396 -6.38533 26.1841 -6.36577L26.0106 -6.28751C26.001 -6.26305 25.9913 -6.24104 25.9817 -6.21658L26.1624 -6.27283L26.2781 -6.27773L26.3263 -6.23126L26.7144 -6.34865L26.5336 -6.26794L26.2998 -6.18724C26.0074 -6.18235 25.5856 -6.08207 25.0344 -5.88642L24.9597 -5.79104L25.0802 -5.7837L25.2538 -5.77392L25.5864 -5.79349L25.8226 -5.83262L26.2275 -5.97202C26.2114 -5.95408 26.1255 -5.90191 25.9696 -5.8155C25.9383 -5.75191 25.9286 -5.71767 25.9214 -5.68099H25.5743L25.3261 -5.60517L25.0007 -5.46088L24.7645 -5.34349L24.5114 -5.18696C24.497 -5.15273 24.4849 -5.12093 24.4704 -5.08669L24.456 -5.01577L24.6801 -5.0818C24.7958 -5.12827 24.9115 -5.17474 25.0248 -5.21876L25.3116 -5.34838L25.02 -5.16006L25.0682 -5.08669L25.3044 -5.16251C25.502 -5.26033 25.5334 -5.28234 25.8419 -5.50979C25.8081 -5.46577 25.7647 -5.40707 25.7334 -5.36305L25.4514 -5.15762L25.1574 -5.03289L24.7307 -4.9424C24.5877 -4.94729 24.3652 -4.88207 24.0631 -4.74675L24.1017 -4.66849C24.1193 -4.61957 24.1226 -4.57555 24.1113 -4.53642C23.8655 -4.39946 23.6951 -4.2837 23.6003 -4.18914L23.7787 -4.12066L24.0583 -4.16713L24.3957 -4.36278C24.5934 -4.58289 24.9067 -4.51441 25.1333 -4.66604C25.3526 -4.81278 25.6177 -4.83968 25.8539 -4.9424C25.9455 -4.97664 26.0371 -5.01088 26.1263 -5.04512C26.1191 -5.01088 26.1046 -4.9693 26.0853 -4.93995C26.1697 -4.89593 26.4469 -5.05245 26.4493 -5.0549C26.5312 -5.08914 26.6011 -5.1136 26.6686 -5.13805L26.9458 -5.29702C27.0301 -5.41441 27.1844 -5.44376 27.2736 -5.55381C27.2567 -5.58316 27.235 -5.62474 27.2205 -5.65408L26.9482 -5.49023L26.8711 -5.60273L27.1531 -5.73235L27.2374 -5.88642L27.1458 -5.96468C27.2109 -5.98669 27.2736 -6.01115 27.3386 -6.03316L27.6954 -6.15055C27.8448 -6.18724 27.893 -6.24838 27.84 -6.32908C27.7661 -6.32908 27.7074 -6.33398 27.664 -6.34376L27.7074 -6.37311C27.7966 -6.4049 27.8858 -6.43425 27.9725 -6.46604C28.0706 -6.49702 28.1268 -6.51658 28.1413 -6.52474L28.122 -6.56387C28.122 -6.56387 27.7894 -6.63724 27.3073 -6.34865L27.1506 -6.24593L27.0976 -6.30218L27.3459 -6.41957V-6.46604C27.4399 -6.5174 27.4616 -6.52963 27.5435 -6.58099C27.6231 -6.61033 27.6978 -6.63724 27.7725 -6.66169L27.8785 -6.64213L28.1822 -6.72528C28.2304 -6.73995 28.367 -6.81577 28.592 -6.95273C28.5124 -6.95273 28.404 -6.95273 28.322 -6.95273L28.6161 -7.05789L28.7438 -7.04077L28.98 -7.12392L29.2548 -7.25354L29.115 -7.29756L28.9222 -7.26577C29.0331 -7.30245 29.1439 -7.33669 29.2548 -7.37338C29.3223 -7.39539 29.3898 -7.41495 29.4573 -7.43696L29.5561 -7.52256L29.7899 -7.62528L30.0044 -7.75245C30.137 -7.81115 30.7443 -8.08017 30.7443 -8.08017L30.8576 -8.14131L30.7154 -8.1462C30.6801 -8.12827 30.3957 -8.0337 29.8622 -7.86251V-7.90164L30.1008 -7.99213C30.1972 -8.02148 30.2936 -8.05082 30.3924 -8.07773C30.4889 -8.10707 30.5853 -8.13398 30.6817 -8.16088C30.9396 -8.26849 31.4505 -8.42745 31.4554 -8.42745C31.465 -8.44457 31.4746 -8.46903 31.4819 -8.48615C31.4321 -8.49756 31.3292 -8.478 31.1734 -8.42745L30.9781 -8.38099L30.8914 -8.39077L30.6118 -8.3443L30.4431 -8.28316C30.3587 -8.2587 30.2743 -8.23425 30.1876 -8.20979L29.92 -8.11197L29.9128 -8.13887L29.7055 -8.08017C29.6959 -8.07691 29.5529 -8.03941 29.2765 -7.96767C29.115 -7.93343 29.0403 -7.90653 29.0379 -7.90408L29.0282 -7.86251C28.6619 -7.73044 28.2859 -7.6424 27.9171 -7.52012C27.7677 -7.47854 27.7629 -7.47365 27.7146 -7.43941V-7.39539C27.6857 -7.37827 27.6496 -7.36604 27.6134 -7.35381L27.4809 -7.32936C27.4519 -7.32446 27.411 -7.31468 27.382 -7.30735C27.3097 -7.28289 27.2398 -7.25599 27.1675 -7.22908L27.1362 -7.1924C27.0711 -7.16794 27.0084 -7.14593 26.9434 -7.12148C26.565 -7.00653 26.3191 -6.85001 26.2275 -6.78887C26.3215 -6.82555 26.4155 -6.85979 26.5095 -6.89648C26.6493 -6.91849 26.7795 -6.97963 26.9193 -7.00653L26.9578 -6.97963C26.8397 -6.89892 26.6951 -6.9087 26.5674 -6.86957C26.4758 -6.83533 26.3842 -6.8011 26.2902 -6.76441C26.1022 -6.70082 25.7286 -6.62256 25.7262 -6.62256C25.6876 -6.60789 25.6081 -6.57365 25.4876 -6.51985L25.4177 -6.46115L25.3912 -6.41713C25.3044 -6.37555 25.2465 -6.3511 25.1887 -6.32908L25.0055 -6.27283C24.9694 -6.25816 24.9332 -6.24349 24.8971 -6.22637L24.738 -6.12854C24.6608 -6.08452 24.6584 -6.08207 24.603 -6.05762C24.562 -6.0405 24.5211 -6.02338 24.4801 -6.00626C24.4343 -5.98669 24.3885 -5.96713 24.3451 -5.94756L24.268 -5.88153L24.0245 -5.78126L23.9522 -5.71278L24.1041 -5.76903L24.1812 -5.79349L24.1764 -5.79838Z" fill="#EFEFEF"/>
<path d="M18.7533 -1.30816C18.7605 -1.32039 18.7822 -1.35463 18.7027 -1.33995C18.681 -1.33506 18.64 -1.32528 18.5966 -1.30082C18.5725 -1.28615 18.5653 -1.27637 18.5605 -1.26659C18.5412 -1.22501 18.4737 -1.18099 18.4183 -1.15164L18.3942 -1.02446L18.6111 -1.14919C18.6111 -1.14919 18.7172 -1.25191 18.7533 -1.30816Z" fill="#EFEFEF"/>
<path d="M16.7745 0.469829L16.9914 0.372002L17.1505 0.169013L16.9456 0.293741L16.7745 0.469829Z" fill="#EFEFEF"/>
<path d="M1.60675 21.0549C1.63326 20.9595 1.6646 20.8568 1.69352 20.7565L1.74896 20.5291L1.60675 21.0549Z" fill="#EFEFEF"/>
<path d="M1.59952 21.0795L1.60675 21.0549C1.60675 21.0549 1.60194 21.0721 1.59952 21.0795Z" fill="#EFEFEF"/>
<path d="M17.2879 0.164123C17.4132 0.200807 17.4662 0.191025 17.4903 0.186133C17.4976 0.186133 17.5072 0.181242 17.5144 0.186133C17.5385 0.195916 17.5771 0.208145 17.6422 0.291297C17.7145 0.222819 17.823 0.139667 17.8856 0.0638514L18.0567 -0.207617L17.9724 -0.246747L17.4903 -0.0486498L17.2903 0.164123H17.2879Z" fill="#EFEFEF"/>
<path d="M18.3966 1.42608L18.5147 1.23042L18.2544 1.21086L17.6904 1.33803L17.4711 1.20842L17.6253 0.892926L17.4253 0.848904L17.5217 0.499176L17.418 0.36711L17.1119 0.420915C17.0059 0.47961 16.8998 0.538306 16.7938 0.597002C16.7504 0.689937 16.707 0.782872 16.6636 0.875807L16.6419 1.03722L16.6829 1.22309L16.5311 1.39918L16.3985 1.46032L16.3117 1.41874L16.3672 1.23287L16.3575 1.11059L16.2346 0.983415L15.9984 1.1057L15.9719 1.25488L15.9984 1.35271C15.9044 1.40651 15.8104 1.46032 15.7164 1.51412L15.6369 1.65841L15.3886 1.82961L15.5139 1.64374L15.6706 1.41874L15.4874 1.51412L15.2922 1.57037L15.0487 1.72689L14.9186 1.93722L14.7499 2.01548L14.8608 1.86385L14.9451 1.64863L14.8535 1.67064C14.7643 1.72689 14.6727 1.7807 14.5836 1.83695L14.3088 2.12309L14.0822 2.32363L13.8099 2.54374L13.5182 2.83722L13.4242 3.06466L13.0796 3.41195L13.0145 3.55379C13.0723 3.51466 13.1326 3.47798 13.1904 3.43885L13.2338 3.50977L13.5038 3.27255L13.8123 3.04999L13.9183 3.10135L13.5785 3.38015L13.282 3.61983L13.0892 3.84972L13.3471 3.8057C13.4628 3.73233 13.5785 3.6614 13.6942 3.58803L14.0967 3.31168C14.21 3.2432 14.3257 3.17227 14.4438 3.10135C14.5932 3.08423 14.6294 3.07445 14.6752 3.06222C14.6607 3.16331 14.4317 3.34347 13.9882 3.60271C13.8123 3.71032 13.6387 3.81548 13.47 3.92309L13.0217 4.34619L13.082 4.59564L13.4845 4.36086C13.6002 4.28994 13.7183 4.21657 13.8388 4.14564L13.8918 4.39999L14.0822 4.41222C14.2413 4.31684 14.4004 4.2239 14.5643 4.12852L15.0271 3.84727L15.3958 3.4951L15.7598 3.2163L16.1551 2.84456L16.3744 2.63423L16.4877 2.6807L16.707 2.53396L17.1722 2.50706L17.5337 2.33586L17.8736 2.13287L18.0664 1.82961L17.8446 1.77092L18.0616 1.64619L18.4014 1.43097L18.3966 1.42608Z" fill="#EFEFEF"/>
<path d="M14.7643 0.780427L14.492 1.05923L14.7017 0.946731L15.068 0.540752L14.7643 0.780427Z" fill="#EFEFEF"/>
<path d="M16.2442 -0.444845L16.5166 -0.59403L16.6154 -0.733433C16.4346 -0.606259 16.331 -0.542672 16.3117 -0.540226V-0.547563L16.2491 -0.444845H16.2442Z" fill="#EFEFEF"/>
<path d="M14.3498 1.00053L14.398 1.03233L14.6101 0.841568L14.7354 0.694828L14.909 0.572545L15.1066 0.349991L15.3428 0.134773L15.2946 0.266839L15.473 0.1201L15.7622 -0.109792L16.0538 -0.43751L16.2876 -0.677183L16.0755 -0.579356L15.8152 -0.344574C15.7212 -0.283433 15.6272 -0.222291 15.5356 -0.163595L15.3693 -0.0608788C15.097 0.205697 14.827 0.474719 14.5546 0.741295C14.4823 0.790208 14.4124 0.839122 14.3425 0.888035L14.0509 1.14238L13.9762 1.28423L14.128 1.23532L14.3522 1.00298L14.3498 1.00053Z" fill="#EFEFEF"/>
<path d="M15.2753 0.758416L15.5356 0.577437L15.8007 0.367111L16.1382 0.203253C16.2225 0.15434 16.3069 0.105426 16.3913 0.0540676C16.3334 0.110318 16.2466 0.19347 16.0442 0.318198C15.9405 0.37934 15.849 0.435589 15.7574 0.489393L15.5067 0.699719L15.444 0.829339L15.5694 0.804883C15.6923 0.731513 15.8176 0.655698 15.943 0.582329L16.4081 0.215481L16.7649 -0.112237L17.0613 -0.300552L17.1264 -0.337237C17.23 -0.395933 17.3337 -0.452183 17.4397 -0.510879C17.5651 -0.579357 17.6928 -0.65028 17.8205 -0.718759L18.0543 -0.955987L18.3243 -1.31061L18.2689 -1.35707C18.2134 -1.32773 18.1556 -1.29593 18.1001 -1.26658L17.9893 -1.11985L17.8205 -1.07582L17.6856 -1.12229C17.7169 -1.1712 17.7506 -1.21767 17.782 -1.26658L17.8085 -1.38398L17.7964 -1.37664C17.729 -1.33751 17.6591 -1.30082 17.5916 -1.26169L17.4349 -1.11495L17.2469 -0.980443L17.1794 -0.872834L17.2734 -0.855715C17.2445 -0.814139 17.1987 -0.748106 17.0902 -0.618486C17.1505 -0.645389 17.23 -0.682074 17.2903 -0.708976C17.2686 -0.613595 17.2349 -0.59403 17.0227 -0.471747C16.9215 -0.415497 16.8227 -0.356802 16.7239 -0.300552L16.6106 -0.310335L16.5865 -0.442399L16.425 -0.398378C16.3599 -0.359248 16.2949 -0.320116 16.2322 -0.280986L16.1189 -0.271204L16.008 -0.219845L15.6875 0.0271654L15.3934 0.327981L15.1452 0.572546L14.8728 0.844013L14.7619 1.02499L15.0512 0.848905L15.2729 0.748633L15.2753 0.758416Z" fill="#EFEFEF"/>
<path d="M11.6455 4.80108L12.0215 4.36086C12.1179 4.29238 12.2167 4.22635 12.3155 4.15787L12.5999 3.83994L12.8602 3.43396C13.1856 3.12336 13.2338 3.05488 13.2507 3.03287C13.405 2.82499 13.4965 2.71738 14.2293 2.0913L14.6197 1.76847L14.721 1.56303L14.4872 1.54102L14.2871 1.64863L13.9376 1.95678L13.7231 2.03015L13.5279 2.0864L13.2121 2.28695L12.747 2.6489C12.706 2.71005 12.665 2.76874 12.624 2.82988L12.4674 3.11358L12.0721 3.67363L11.3201 4.60787L11.6623 4.47091L11.6455 4.79863V4.80108Z" fill="#EFEFEF"/>
<path d="M18.4448 -0.0290842L18.6593 -0.0217476L18.8184 -0.00951958L19.1052 -0.0975628C19.1462 -0.0364215 19.1462 0.0393937 19.1823 0.102981C19.2378 0.110318 19.5222 0.0834155 19.5873 0.0320568C19.6933 -0.0510954 19.7536 -0.180716 19.8669 -0.261422C19.9874 -0.34702 20.1922 -0.386151 20.3055 -0.481531L20.5369 -0.806802L20.4429 -0.933976L20.2573 -1.00245H20.0452L20.4067 -1.27392C20.4694 -1.35463 20.4429 -1.38398 20.4333 -1.3962C20.3634 -1.47202 20.2549 -1.46713 20.173 -1.52338L19.891 -1.37419L19.7945 -1.19811C19.7536 -1.17854 19.7126 -1.15898 19.6716 -1.13941L19.4571 -1.09539L19.1727 -0.907074L19.1582 -0.767672L19.3173 -0.699194L19.1486 -0.439955C18.9654 -0.256531 18.951 -0.261422 18.7678 -0.332346C18.7003 -0.295661 18.6111 -0.249193 18.546 -0.212508L18.4448 -0.0241928V-0.0290842Z" fill="#EFEFEF"/>
<path d="M23.3039 -3.15218L23.557 -3.34783C23.814 -3.32827 24.0824 -3.38452 24.362 -3.51658C24.5693 -3.59974 24.7693 -3.68044 24.9718 -3.7587L25.249 -3.91278L25.3839 -4.04729L25.5575 -4.02039L25.8708 -4.15001C26.2645 -4.32936 26.4549 -4.45408 26.442 -4.52419C26.4758 -4.57066 26.4926 -4.59512 26.6324 -4.67093L26.5891 -4.8299L26.1311 -4.73452L25.6442 -4.61468L25.2682 -4.39702L24.7115 -4.10599L24.3572 -3.94213L23.8823 -3.80028L23.4798 -3.62175L23.2075 -3.66332L23.2292 -3.82474L23.1689 -3.93479C23.0315 -3.8761 22.8941 -3.8174 22.7592 -3.7587L22.4723 -3.61441C22.4723 -3.48724 22.5125 -3.37148 22.5928 -3.26713C22.5278 -3.18642 22.4386 -3.08126 22.3735 -3.00055L22.5181 -2.93207L22.8122 -2.92229L23.2991 -3.15218H23.3039Z" fill="#EFEFEF"/>
<path d="M21.3323 -1.1981L21.6071 -1.44023L21.6914 -1.66033L22.0505 -1.7655L22.3012 -1.9905L22.5181 -2.28887L22.7977 -2.5799C22.6097 -2.58479 22.5326 -2.55789 22.4964 -2.54811C22.388 -2.50164 22.2795 -2.45273 22.1711 -2.40626L21.8722 -2.34512L21.8553 -2.33778C21.5243 -2.18126 21.3556 -2.07691 21.3492 -2.02474C21.3371 -1.92446 21.3299 -1.87066 21.0575 -1.68968C21.0214 -1.56985 20.9852 -1.45001 20.9515 -1.32773C20.9707 -1.06359 20.9659 -1.0318 20.9611 -0.990225C21.072 -1.05381 21.219 -1.13696 21.3299 -1.1981H21.3323Z" fill="#EFEFEF"/>
<path d="M26.5746 -3.63642L27.3579 -3.89322L27.6182 -4.11577L28.0738 -4.35055L27.5869 -4.38235L26.8614 -4.14756C26.6975 -4.08887 26.5312 -4.02773 26.3673 -3.96658L26.4493 -3.77338L26.5722 -3.63887L26.5746 -3.63642Z" fill="#EFEFEF"/>
<path d="M21.3058 -3.12039L21.5347 -3.13262L21.7613 -3.14974L22.0674 -3.27936L22.3036 -3.48968L22.3325 -3.58751L22.1638 -3.61441C22.0626 -3.56794 21.9614 -3.52392 21.8601 -3.47745L21.7155 -3.45544L21.4142 -3.28914L21.3034 -3.11794L21.3058 -3.12039Z" fill="#EFEFEF"/>
<path d="M21.46 -2.4136L21.677 -2.44539L21.9083 -2.6068L22.0433 -2.8318L21.8409 -2.82691L21.7565 -2.90517L21.5275 -2.78044L21.1515 -2.52365L21.031 -2.35979L21.2045 -2.2962C21.2913 -2.33533 21.3781 -2.37446 21.4649 -2.4136H21.46Z" fill="#EFEFEF"/>
<path d="M20.3634 -1.76794C20.4429 -1.80707 20.5249 -1.84376 20.6044 -1.88289L20.5514 -1.9587L20.3634 -1.76794Z" fill="#EFEFEF"/>
<path d="M19.1052 -1.66034C19.1944 -1.68479 19.3149 -1.71903 19.4065 -1.74349L19.6282 -1.89512L19.8042 -2.00273L19.8741 -1.94648V-1.75572L20.0717 -1.90735L20.361 -2.05653L20.5731 -2.17881L20.655 -2.33533C20.6863 -2.40626 20.7177 -2.47474 20.7514 -2.54322C20.8093 -2.6068 20.8864 -2.65327 20.937 -2.72419C20.9466 -2.73887 21.031 -2.86115 20.7707 -2.81224C20.7249 -2.80245 20.6719 -2.79267 20.5056 -2.64104C20.4525 -2.59213 20.3393 -2.62637 20.2694 -2.62637C20.185 -2.58479 20.1031 -2.54566 20.0211 -2.50408L20.1344 -2.4674C20.2091 -2.40381 20.2429 -2.3549 20.2308 -2.328C20.2115 -2.28642 20.0428 -2.23506 20.0332 -2.23506C19.9729 -2.2424 19.9054 -2.29865 19.8524 -2.32555C19.7753 -2.28642 19.6957 -2.24729 19.6186 -2.20816L19.5439 -2.05653L19.5125 -1.91468L19.3101 -1.91957L19.3294 -2.11523L19.0088 -2.02963L18.8473 -1.7924L18.8738 -1.71414C19.0787 -1.69702 19.0956 -1.67745 19.11 -1.66278L19.1052 -1.66034Z" fill="#EFEFEF"/>
<path d="M81.9285 23.7891C81.8972 23.6522 81.8635 23.5079 81.8273 23.3636C81.9309 23.909 82.0033 24.2929 82.0539 24.5717C82.0129 24.3003 81.9695 24.0361 81.9261 23.7916L81.9285 23.7891Z" fill="#EFEFEF"/>
<path d="M81.8225 23.3318L81.8104 23.2731C81.6369 22.4073 81.4441 21.6834 81.2826 21.0916C81.4754 21.862 81.661 22.6543 81.8297 23.3636L81.8249 23.3342L81.8225 23.3318Z" fill="#EFEFEF"/>
<path d="M80.4559 18.2546L80.4246 18.1592C80.4029 18.0834 80.4004 18.0761 80.3281 17.8706L80.5017 18.3965C80.48 18.3304 80.4631 18.2791 80.4559 18.2546Z" fill="#EFEFEF"/>
<path d="M15.4247 3.747L15.7839 3.61249L16.131 3.29211L16.4515 3.07445L16.5359 2.82254L15.9863 3.22852L15.4247 3.747Z" fill="#EFEFEF"/>
<path d="M80.6728 18.9687L80.6776 18.9956L80.6704 18.9761L80.6463 18.9394L80.6367 18.9174L80.6318 18.9125V18.9247L80.5957 18.8514C80.5836 18.8147 80.5668 18.7682 80.5523 18.7315C80.5378 18.6997 80.5354 18.6924 80.533 18.6875C80.4776 18.5774 80.4342 18.4772 80.4342 18.4772C80.4221 18.4527 80.4197 18.4478 80.4149 18.4405L80.4029 18.4209C80.4197 18.4845 80.4318 18.5285 80.5667 18.8196C80.5788 18.8587 80.5909 18.9003 80.6029 18.9394C80.6101 18.9663 80.6174 18.9908 80.627 19.0177C80.6487 19.0861 80.6728 19.1546 80.6945 19.2231C80.7114 19.2793 80.7282 19.338 80.7451 19.3967L80.762 19.4579C80.8536 19.8027 80.9693 20.1402 81.0681 20.4826C81.1139 20.6367 81.2199 20.9962 81.2199 20.9962C81.2416 21.0549 81.2464 21.0671 81.2537 21.0818C81.2537 21.0541 81.2432 20.9905 81.2223 20.891L81.2561 21.0011C81.2633 21.0304 81.273 21.0622 81.2802 21.094C81.1283 20.4826 80.9717 19.8883 80.8174 19.3674L80.4993 18.3965C80.5499 18.5554 80.627 18.8 80.6608 18.9272L80.6728 18.9712V18.9687Z" fill="#EFEFEF"/>
<path d="M82.225 25.5231C82.1889 25.2932 82.1768 25.2223 82.0563 24.5693C82.2612 25.9022 82.4492 27.4649 82.589 28.6902C82.4925 27.4087 82.3383 26.2592 82.225 25.5231Z" fill="#EFEFEF"/>
<path d="M66.3366 2.77608C66.1486 2.74918 65.9582 2.72472 65.7654 2.70026C65.8039 2.77119 65.8039 2.77363 65.7967 2.78586C65.7846 2.80543 65.7581 2.79075 65.7485 2.81276C65.734 2.84537 65.7252 2.86249 65.722 2.86412C65.7027 2.87635 65.6786 2.87146 65.6593 2.8788C65.7003 2.89836 65.7268 2.93994 65.7726 2.95461C65.8039 2.96439 65.8304 2.94483 65.8594 2.94483C65.869 2.94483 65.9678 2.92037 65.9678 2.92037C65.9871 2.91304 66.0064 2.89347 66.0209 2.88124C66.0329 2.84456 65.9871 2.82988 65.9871 2.79809C65.9968 2.79809 66.0016 2.79564 66.0425 2.81276C66.0618 2.8201 66.0835 2.82255 66.1004 2.83233C66.1341 2.847 66.1631 2.87635 66.2016 2.88613C66.2788 2.89591 66.3535 2.90814 66.4282 2.91793C66.3993 2.87635 66.3703 2.83722 66.3438 2.79564L66.3342 2.77852L66.3366 2.77608Z" fill="#EFEFEF"/>
<path d="M1.86947 21.2505L1.82126 21.6859L1.98757 21.2138L2.18039 20.5755C2.21413 20.4092 2.25029 20.2429 2.28644 20.0791L1.86947 21.253V21.2505Z" fill="#EFEFEF"/>
<path d="M79.434 15.5206C79.434 15.5206 79.4243 15.496 79.4195 15.4837C79.4195 15.4886 79.4267 15.5009 79.434 15.5181V15.5206Z" fill="#EFEFEF"/>
<path d="M76.25 11.0375C76.291 11.0937 76.3175 11.1329 76.3343 11.1598C76.3102 11.1231 76.2837 11.084 76.25 11.0375Z" fill="#EFEFEF"/>
<path d="M28.4064 -1.34974L28.7993 -1.55517L28.9559 -1.8462L28.727 -2.0174H28.7197C28.2971 -1.85762 28.0738 -1.76957 28.0497 -1.75327C28.0232 -1.73615 27.9195 -1.61142 27.7797 -1.38642L28.0183 -1.24946L28.4088 -1.35218L28.4064 -1.34974Z" fill="#EFEFEF"/>
<path d="M27.3603 1.76603L26.9964 2.06195L27.2133 2.397C27.3772 2.33586 27.5411 2.27717 27.705 2.21603L27.8858 2.06684C27.8761 2.01548 27.8665 1.96412 27.8544 1.91276C27.8255 1.82717 27.7845 1.74646 27.7556 1.66086C27.6351 1.69266 27.476 1.73423 27.3579 1.76358L27.3603 1.76603Z" fill="#EFEFEF"/>
<path d="M26.0829 2.12309C26.0395 2.15977 25.9865 2.17689 25.9383 2.2038C25.8515 2.25515 25.7021 2.39456 25.637 2.4557C25.5864 2.50217 25.5358 2.54863 25.4852 2.5951C25.5575 2.60488 25.6274 2.64157 25.7045 2.62934C25.7045 2.62934 25.7792 2.61466 25.9118 2.53396C26.0299 2.46303 26.1721 2.31385 26.2275 2.25271C26.2685 2.20624 26.2854 2.14755 26.3143 2.09374C26.3191 2.0864 26.3239 2.07662 26.3288 2.06928C26.3071 2.03015 26.2781 1.97635 26.2564 1.93477L26.2323 1.95678C26.1817 2.01059 26.1383 2.07418 26.0805 2.12309H26.0829Z" fill="#EFEFEF"/>
<path d="M76.3367 11.1598C76.3367 11.1598 76.3489 11.1795 76.3537 11.1868C76.3537 11.1868 76.3464 11.1745 76.3367 11.1598Z" fill="#EFEFEF"/>
<path d="M82.7022 31.2606C82.7022 31.3242 82.7022 31.3976 82.7022 31.4709C82.7022 31.5663 82.7022 31.6592 82.7022 31.7595C82.7022 31.8304 82.7022 31.8989 82.7022 31.9625V31.9234C82.7022 31.8206 82.7022 31.7179 82.7022 31.6152C82.7022 31.4978 82.7022 31.3804 82.6998 31.263L82.7022 31.2606Z" fill="#EFEFEF"/>
<path d="M68.7252 0.447819C68.7999 0.513851 68.8746 0.579883 68.9493 0.645916C68.877 0.584775 68.877 0.584774 68.8698 0.582329H68.8674C68.8963 0.628796 69.3301 0.998089 69.335 1.00054C69.2795 0.941839 69.2193 0.89048 69.159 0.83423C69.1711 0.844013 69.1831 0.856242 69.1952 0.866025C69.1204 0.797547 69.0313 0.716841 68.9638 0.653254C68.677 0.39646 68.6601 0.384231 68.636 0.36222C68.6408 0.369557 68.6456 0.374449 68.7252 0.445373V0.447819Z" fill="#EFEFEF"/>
<path d="M51.1978 -5.25544C51.6236 -5.3174 51.9691 -5.253 52.2342 -5.06224C51.81 -5.10626 51.5593 -5.06224 51.4219 -5.02066C51.4942 -4.9693 51.5882 -4.89838 51.6581 -4.84702C51.7015 -4.85925 51.7449 -4.87881 51.7907 -4.88615C51.8992 -4.89104 52.0076 -4.89838 52.1161 -4.90327C52.1329 -4.89838 52.1522 -4.89104 52.1691 -4.88615C52.28 -4.79811 52.3692 -4.7174 52.4583 -4.63425L52.6753 -4.51441C52.7307 -4.51686 52.7837 -4.5193 52.8392 -4.52175C53.0063 -4.5511 53.1589 -4.56821 53.2971 -4.57311C53.3501 -4.57311 53.4056 -4.57555 53.4586 -4.578C53.6538 -4.59267 53.8153 -4.47773 53.9937 -4.42881C54.2082 -4.37256 54.4323 -4.38724 54.5818 -4.40925C54.7095 -4.42881 54.5673 -4.59512 54.5962 -4.68561C54.6324 -4.79077 54.7553 -4.70517 54.8083 -4.77854C54.7625 -4.97664 54.9168 -4.97175 55.5627 -4.94729C55.4639 -5.028 55.3627 -5.10626 55.2639 -5.18207C55.0887 -5.26686 54.9401 -5.32637 54.818 -5.36061C54.7698 -5.36794 54.7192 -5.3337 54.671 -5.36305C54.5046 -5.46577 54.3793 -5.6174 54.2226 -5.72745C54.1045 -5.72745 53.984 -5.73235 53.8635 -5.73235C53.743 -5.72745 53.7093 -5.57827 53.596 -5.56115C53.5936 -5.54648 53.5887 -5.52446 53.5839 -5.50979C53.2063 -5.54566 52.9918 -5.56033 52.9404 -5.55381C52.8006 -5.53914 52.6994 -5.42175 52.5596 -5.40463C52.4583 -5.40218 52.3571 -5.39729 52.2559 -5.39485C52.2101 -5.43153 52.1643 -5.47066 52.1185 -5.50735C52.0727 -5.54403 52.0269 -5.58071 51.9811 -5.6174C51.7762 -5.73968 51.728 -5.72501 51.6027 -5.69077C51.6485 -5.65408 51.6943 -5.6174 51.7401 -5.58071C51.1688 -5.6761 50.8941 -5.52446 50.9736 -5.41196C51.0315 -5.33126 51.1279 -5.30925 51.2002 -5.253L51.1978 -5.25544Z" fill="#EFEFEF"/>
<path d="M67.1127 -0.924193C67.0838 -0.94865 67.0524 -0.973106 67.0235 -0.997562C66.891 -1.10273 66.7584 -1.21034 66.6234 -1.3155L66.6138 -1.32283L67.655 -0.483976C67.5972 -0.532889 67.508 -0.603813 67.1127 -0.924193Z" fill="#EFEFEF"/>
<path d="M69.2145 0.883232C69.2145 0.883232 69.2024 0.87339 69.1976 0.868469L69.2242 0.893074L69.2145 0.885692V0.883232Z" fill="#EFEFEF"/>
<path d="M60.5857 -5.21876C60.6219 -5.18697 60.6677 -5.17229 60.7062 -5.14783C60.7014 -5.14783 60.6942 -5.15273 60.6894 -5.15517C60.7327 -5.12093 60.7858 -5.09892 60.834 -5.06957C60.8195 -5.07446 60.8099 -5.0818 60.7954 -5.08669C60.8195 -5.06713 60.846 -5.0549 60.8725 -5.03778C60.8991 -5.02555 60.9256 -5.01332 60.9497 -5.0011H60.9569C60.9328 -5.02311 60.8966 -5.03289 60.8701 -5.0549C60.8798 -5.0549 60.8846 -5.05001 60.8918 -5.04512C60.9232 -5.03044 60.9521 -5.01332 60.9834 -4.99865C60.9473 -5.02311 60.9063 -5.04267 60.8677 -5.06468C60.8918 -5.05245 60.9159 -5.04023 60.94 -5.028C60.928 -5.03533 60.9159 -5.04267 60.9039 -5.05001C60.9087 -5.04756 60.9159 -5.04512 60.9207 -5.04023C60.7713 -5.12093 60.5761 -5.22365 60.4291 -5.30436C60.5255 -5.24811 60.6267 -5.19919 60.7255 -5.14539C60.6773 -5.16985 60.6315 -5.1943 60.5833 -5.21631L60.5857 -5.21876Z" fill="#EFEFEF"/>
<path d="M61.8005 -1.52338C61.7788 -1.5405 61.7643 -1.55517 61.7571 -1.56495C61.7451 -1.58696 61.7547 -1.61142 61.7426 -1.63343C61.7402 -1.63832 61.7354 -1.64566 61.7306 -1.653C61.7089 -1.68479 61.6848 -1.71658 61.6487 -1.76305L61.6342 -1.78262H61.6269C61.5643 -1.76142 61.5322 -1.7337 61.5305 -1.69946C61.5305 -1.66767 61.5209 -1.66033 61.5209 -1.65789C61.5016 -1.64566 61.4799 -1.65789 61.4607 -1.64811V-1.64322C61.4679 -1.61387 61.5016 -1.5943 61.4968 -1.56006C61.4888 -1.49974 61.492 -1.45898 61.5064 -1.43778L61.5788 -1.36197C61.6101 -1.3424 61.6583 -1.33017 61.692 -1.3155C61.7041 -1.32773 61.7234 -1.33017 61.7306 -1.34729C61.7354 -1.35707 61.7306 -1.37175 61.7234 -1.38398C61.7234 -1.38887 61.7185 -1.3962 61.7161 -1.40354C61.7161 -1.41088 61.7161 -1.41821 61.7161 -1.42555C61.7113 -1.44512 61.692 -1.45979 61.6944 -1.48425C61.7017 -1.48914 61.7017 -1.48914 61.733 -1.48425C61.7957 -1.46957 61.8342 -1.49158 61.8342 -1.49158C61.8342 -1.49892 61.8342 -1.50137 61.8053 -1.52582L61.8005 -1.52338Z" fill="#EFEFEF"/>
<path d="M63.8926 1.70977C64.1216 1.71956 64.3481 1.74157 64.5723 1.76602C64.5409 1.72445 64.5096 1.68043 64.4783 1.63885C64.418 1.56548 64.324 1.5288 64.2782 1.44075C64.2927 1.42852 64.312 1.43097 64.3288 1.42608C64.3047 1.28912 64.0227 0.956513 63.9022 0.822002C63.8564 0.765752 63.8131 0.709503 63.7673 0.653253C63.8203 0.655698 63.9408 0.66548 63.8637 0.538306C63.8372 0.49673 63.7914 0.455155 63.7769 0.442926C63.7022 0.376894 63.6058 0.340209 63.5359 0.269285C63.4877 0.220372 63.4491 0.164122 63.3961 0.1201C63.3913 0.115209 63.384 0.112763 63.3792 0.107872C63.2997 0.051622 63.0635 -0.026639 63.0611 -0.026639L63.0249 -0.0315313C62.9695 -0.033977 62.8827 0.010046 62.8803 0.010046C62.8915 0.073633 62.8883 0.108687 62.8706 0.115209C62.8706 0.115209 62.7694 0.0858607 62.7381 0.0614042C62.624 -0.0201175 62.4995 -0.0592482 62.3645 -0.0559874C62.4778 0.0760779 62.5718 0.225263 62.6899 0.354882H62.7309C62.7164 0.359774 62.7092 0.359774 62.6778 0.354882C62.6706 0.354882 62.6585 0.349991 62.6513 0.352437C62.6079 0.359774 62.5669 0.37934 62.5236 0.381785C62.4754 0.381785 62.4513 0.447818 62.3982 0.430698C62.3548 0.416024 62.3259 0.376893 62.2825 0.364665C62.2608 0.359774 62.2295 0.374448 62.2078 0.379339C62.3645 0.577437 62.5212 0.777981 62.6754 0.983416C62.7525 0.994829 62.8441 1.00135 62.9502 1.00298C63.0177 1.09102 63.0852 1.18151 63.1526 1.272C63.1125 1.27526 63.0506 1.27689 62.9671 1.27689C62.9526 1.31358 63.0056 1.43586 63.0056 1.43586C63.0394 1.50434 63.1044 1.55325 63.1382 1.62173L63.1334 1.6364C63.1093 1.6413 63.0932 1.64619 63.0852 1.65108C63.131 1.84673 63.4853 2.0326 63.5407 1.93477C63.5696 1.88097 63.5841 1.88586 63.8131 1.97146C63.8709 1.99347 63.9287 1.87363 63.9215 1.84673C63.9095 1.8076 63.8661 1.78803 63.8564 1.74646C63.8516 1.72445 63.8781 1.722 63.8902 1.70977H63.8926Z" fill="#EFEFEF"/>
<path d="M61.1955 -4.89593C61.1955 -4.89593 61.2124 -4.88615 61.222 -4.88126L61.2437 -4.86903L61.1955 -4.89593Z" fill="#EFEFEF"/>
<path d="M65.6449 2.49727C65.6714 2.56575 65.7244 2.622 65.7605 2.68559C65.9606 2.72227 66.151 2.74918 66.339 2.77608C66.3221 2.74673 66.3029 2.71738 66.286 2.68804C66.4692 2.67092 66.6379 2.75407 66.8138 2.77363C66.8524 2.72472 66.8476 2.71005 66.8235 2.6538C67.0139 2.54863 67.0934 2.80054 67.2429 2.84456L67.279 2.85189C67.3754 2.82988 67.4622 2.91304 67.5586 2.87146C67.5618 2.85515 67.5546 2.81195 67.5369 2.74184C67.5875 2.75162 67.6357 2.76141 67.6863 2.77119L67.7056 2.74918L67.6646 2.6538C67.4453 2.47037 67.4092 2.42635 67.3923 2.40923L67.3585 2.36521C67.336 2.33423 67.3192 2.30733 67.3079 2.2845C67.3385 2.27472 67.3778 2.27635 67.426 2.28939C67.4212 2.26494 67.3883 2.20706 67.3272 2.11575C67.373 2.12553 67.4188 2.13532 67.4646 2.1451C67.4188 2.0864 67.373 2.02771 67.3272 1.96901C67.1199 1.83939 67.0115 1.56304 66.7246 1.55081C66.7536 1.58505 66.7921 1.6095 66.8138 1.65108L66.7945 1.67554C66.797 1.6951 66.8018 1.722 66.8066 1.74157C66.7777 1.75787 66.5993 1.59238 66.2715 1.2451C66.2016 1.23043 66.1317 1.2182 66.0618 1.20597C65.9485 1.04456 65.8642 0.92961 65.7871 0.863578L65.0326 0.369557C64.847 0.293742 64.741 0.112763 64.5747 0.010046C64.418 -0.0853344 64.2204 -0.0608783 64.0661 -0.166041C63.9842 -0.222291 63.8926 -0.283432 63.9408 -0.36903C63.9287 -0.38615 63.9119 -0.405715 63.8998 -0.422834L63.9215 -0.444845C63.9424 -0.438323 63.9745 -0.438323 64.0179 -0.444845C63.9938 -0.471747 63.9697 -0.49865 63.9456 -0.525552C63.8396 -0.630715 63.8444 -0.638052 63.8878 -0.72365C63.8781 -0.738324 63.8661 -0.760335 63.854 -0.772563C63.7552 -0.877726 63.654 -0.982889 63.5552 -1.08561C63.3262 -1.12229 63.0924 -1.15653 62.8562 -1.18832C62.8353 -1.22908 62.8232 -1.25762 62.82 -1.27392L62.8393 -1.29593C62.7983 -1.35952 62.7357 -1.40354 62.6875 -1.45735C62.6995 -1.49892 62.6875 -1.53805 62.6875 -1.57963L62.7116 -1.5943C62.5983 -1.68235 62.5501 -1.68968 62.5163 -1.69702H62.485C62.4223 -1.70436 62.3886 -1.70925 62.3524 -1.71414C62.2801 -1.69947 62.2295 -1.70436 61.9933 -1.75572C62.0945 -1.65544 62.162 -1.52582 62.2464 -1.41332C62.3163 -1.3424 62.3958 -1.28126 62.4561 -1.203C62.2825 -1.06604 62.1693 -1.37175 61.9957 -1.28615C62.0126 -0.946204 62.4416 -1.08316 62.5621 -0.845932C62.5862 -0.81903 62.6103 -0.792128 62.6344 -0.767672C62.6947 -0.684519 62.8056 -0.645389 62.8297 -0.532889C62.7381 -0.505172 62.6899 -0.486422 62.6851 -0.47664C62.6802 -0.466857 62.7284 -0.413053 62.8297 -0.315227C62.8803 -0.310335 62.9333 -0.305444 62.9839 -0.298107C62.9968 -0.312781 63.1028 -0.267128 63.3021 -0.16115C63.3696 -0.14403 63.4202 -0.136694 63.4708 -0.131803C63.4178 -0.193759 63.3824 -0.246748 63.3647 -0.29077C63.4033 -0.268759 63.4539 -0.241856 63.4925 -0.219845C63.5841 -0.0902253 63.7383 -0.0241935 63.8203 0.115209C63.7986 0.137219 63.7673 0.147003 63.7432 0.166568C63.7697 0.237492 63.7986 0.257056 63.9095 0.332871C64.0517 0.362219 64.1794 0.376894 64.3023 0.394013L64.2686 0.315752C64.6711 0.51385 65.1339 1.06412 65.1363 1.06901C65.2873 1.20108 65.3524 1.28994 65.3315 1.33559C65.1749 1.30624 65.0375 1.21575 64.876 1.20352L64.8374 1.19863C64.8181 1.19374 64.7916 1.18885 64.7723 1.18641C64.7482 1.24266 64.7772 1.28423 64.8157 1.33804C64.7964 1.34782 64.7466 1.34619 64.6663 1.33314L64.7121 1.41874C64.888 1.50923 65.1387 1.4432 65.2447 1.68287C65.2255 1.68287 65.2014 1.68043 65.1845 1.67554C65.1572 1.6951 65.1524 1.74157 65.17 1.81494C65.1483 1.82227 65.1194 1.82717 65.0977 1.82717H65.0712L65.064 1.82227H65.0375L65.0302 1.81738L65.076 1.90298C65.1387 1.9682 65.1845 2.01385 65.2134 2.03994C65.3387 2.14999 65.4978 2.02771 65.628 2.09863C65.6858 2.13043 65.7147 2.14265 65.7292 2.14755C66.0217 2.24537 66.159 2.31956 66.1414 2.3701C66.0305 2.38722 65.9076 2.28695 65.8087 2.40679C65.816 2.42635 65.828 2.45081 65.8377 2.46793L65.8136 2.48749C65.7911 2.4826 65.7372 2.48668 65.6521 2.49972L65.6449 2.49727Z" fill="#EFEFEF"/>
<path d="M70.14 1.76602C70.0725 1.69999 70.005 1.63396 69.9375 1.56793C69.9713 1.60461 70.0098 1.64374 70.046 1.68043C70.0653 1.69755 70.0821 1.71467 70.1014 1.73178C70.1207 1.7489 70.14 1.76847 70.14 1.76602Z" fill="#EFEFEF"/>
<path d="M69.9182 1.54836C69.9182 1.54836 69.9302 1.56054 69.9375 1.56793L69.9182 1.54836Z" fill="#EFEFEF"/>
<path d="M38.2041 6.51059C38.0571 6.49836 37.9438 6.46657 37.8618 6.41276C37.7485 6.33695 37.7003 6.34184 37.6497 6.35896C37.5421 6.39646 37.4248 6.4682 37.2978 6.57417C37.3822 6.5864 37.4714 6.57418 37.5557 6.60352C37.6449 6.63532 37.7052 6.71602 37.7943 6.75026C37.7992 6.75026 38.3559 6.94592 38.421 6.94347C38.5078 6.93858 38.6138 6.93369 38.7464 6.50325C38.7464 6.50325 38.7512 6.49102 38.7512 6.48613C38.6741 6.48124 38.6018 6.45189 38.5246 6.44945C38.4789 6.44945 38.4306 6.46412 38.4017 6.47391C38.2836 6.51548 38.2692 6.52037 38.2017 6.51303L38.2041 6.51059Z" fill="#EFEFEF"/>
<path d="M43.7621 6.96548C43.7653 6.92472 43.7212 6.80081 43.6296 6.59374C43.5838 6.48858 43.4825 6.41276 43.4584 6.29293C43.4416 6.21711 43.4729 6.12662 43.5091 6.03124C43.5139 6.01412 43.5235 5.99211 43.5283 5.97499C43.5332 5.95787 43.5404 5.93342 43.5452 5.91385C43.5042 5.86005 43.4512 5.78668 43.4102 5.73287C43.2078 5.76059 43.0865 5.77119 43.0463 5.76466C43.0463 5.76466 42.6558 5.68151 42.5257 5.59347C42.4558 5.547 42.4076 5.51765 42.3401 5.51521C42.181 5.50787 42.0316 5.57146 41.8749 5.5739C41.7857 5.5739 41.7014 5.54211 41.6146 5.53233C41.6082 5.24863 41.658 5.07988 41.764 5.02608C41.8484 4.97716 41.8195 4.84755 41.805 4.79374C41.7737 4.69347 41.6676 4.67879 41.6098 4.60787C41.5519 4.63233 41.4869 4.62254 41.429 4.63722C41.4145 4.64211 41.4073 4.64456 41.3929 4.65678L41.388 4.66168C41.3639 4.68124 41.3591 4.68369 41.3109 4.71303C41.2603 4.74238 41.2169 4.76684 41.2049 4.81086C41.1832 4.89157 41.2675 4.9307 41.2796 4.99918C41.2892 5.04564 41.2868 5.09456 41.2964 5.14347C41.3061 5.19727 41.2788 5.31793 41.2145 5.50543C41.094 5.85271 40.9277 6.12417 40.8264 6.28559C40.7397 6.42499 40.6818 6.52771 40.6529 6.64999C40.6336 6.73559 40.6409 6.83831 40.677 6.94836C40.7059 7.03396 40.7855 7.08776 40.8216 7.16847C41.3663 7.02907 41.9111 6.89211 42.4534 6.76004C42.5907 6.74048 42.6558 6.73803 42.8872 6.86521C43.2704 7.07798 43.4271 7.10488 43.6055 7.13423C43.644 7.06086 43.767 7.0682 43.7718 6.96303L43.7621 6.96548Z" fill="#EFEFEF"/>
<path d="M36.3385 26.5258C36.2614 26.5527 36.1819 26.5796 36.1047 26.6065C35.8372 26.6799 35.6106 26.8853 35.3142 26.8706C35.0635 26.8584 34.9984 26.7924 34.9526 26.7435C34.8948 26.6831 34.4899 26.6 33.7379 26.494C33.5957 26.45 33.5017 26.269 33.3209 26.3448C33.2606 26.3742 33.2028 26.4109 33.1425 26.4402C32.9883 26.5136 32.7955 26.4916 32.6774 26.6456C32.6276 26.7109 32.499 26.7736 32.2917 26.834C32.1278 26.8951 31.9663 26.9587 31.8024 27.0223C30.6769 27.4331 31.453 27.844 31.4602 27.8489C31.6892 27.9663 31.8121 28.0103 32.3375 27.7878C32.5424 27.6997 32.5641 27.4649 32.7039 27.3231C32.9063 27.1201 33.6728 27.0052 33.8873 27.3402C33.9283 27.4038 33.9548 27.4478 34.044 27.4429L34.6899 27.3793C34.8321 27.3109 34.8924 27.3573 34.9936 27.4331C34.996 27.4356 35.3576 27.7095 35.7336 27.5897C36.3265 27.3793 36.9218 27.1739 37.5172 26.9734C37.3267 26.8119 36.717 26.4549 36.3434 26.5283L36.3385 26.5258Z" fill="#EFEFEF"/>
<path d="M36.5603 28.5043C36.4759 28.5043 36.4012 28.453 36.3169 28.4505C36.2952 28.4505 36.2662 28.4579 36.2445 28.4628C36.018 28.541 35.7938 28.6217 35.5673 28.7024C35.6372 28.7587 35.695 28.8247 35.7625 28.8785C35.7842 28.8956 35.8203 28.9103 35.8469 28.9177C35.8838 28.9307 35.9473 28.9119 36.0373 28.8614C36.1216 28.8149 36.3169 28.8614 36.3988 28.881C36.4325 28.8908 36.4542 28.9177 36.4735 28.9788C36.5024 29.0644 36.5073 29.0717 36.5362 29.106C36.6085 29.0693 36.7001 29.0889 36.7652 29.0253C36.7909 28.9992 36.8351 28.9054 36.8977 28.744C36.9025 28.7293 36.9098 28.7122 36.917 28.7C36.8592 28.6315 36.8833 28.5141 36.7796 28.4774C36.7025 28.4505 36.635 28.5019 36.5603 28.4994V28.5043Z" fill="#EFEFEF"/>
<path d="M42.7739 26.4329C42.6823 26.3302 42.7209 26.1908 42.6703 26.0758C42.2895 26.2886 42.2509 26.3106 42.0026 26.3888C41.9255 26.4133 41.846 26.4353 41.7689 26.4598C41.6387 26.4744 41.5134 26.4158 41.3832 26.4427C41.3446 26.4549 41.3061 26.4671 41.2675 26.4769C41.1783 26.5405 41.1807 26.6701 41.0892 26.7312C41.0458 26.7606 40.6939 26.8609 40.6915 26.8633C40.5155 26.9122 40.3805 26.7508 40.2118 26.7704C40.0021 26.7924 39.8141 26.6261 39.5996 26.7043C39.3297 26.8022 39.0404 26.834 38.7705 26.9293C38.7175 26.9505 38.5945 27.0125 38.4017 27.1152C38.4789 27.3622 38.5584 27.6068 38.6355 27.8538C38.838 27.9712 39.1152 28.1326 39.2333 28.1326C39.3104 28.1081 39.3875 28.0837 39.4646 28.0568C39.6205 28.0095 39.7322 27.9027 39.7997 27.7364C39.8479 27.6166 40.1154 27.5016 40.1178 27.5016C40.1299 27.4967 40.1443 27.4943 40.154 27.4894C40.2914 27.4478 40.4432 27.4943 40.5782 27.4282C40.7983 27.319 40.9124 27.2636 40.9204 27.2619C41.3205 27.1543 41.7303 26.9342 41.7785 26.8951C41.8653 26.8266 41.899 26.8168 42.0099 26.8266C42.1545 26.8389 42.6124 26.7484 42.6173 26.7459C42.6944 26.7239 42.7739 26.6994 42.8511 26.6774C42.8511 26.6774 42.9073 26.622 43.0198 26.5111C43.0198 26.5111 43.0391 26.494 43.0463 26.4891C42.9619 26.4451 42.8535 26.516 42.7788 26.4329H42.7739Z" fill="#EFEFEF"/>
<path d="M67.937 9.6288C67.9659 9.66059 68.0069 9.69972 68.0358 9.73151C68.0768 9.80733 68.0937 9.84401 68.1081 9.8807C68.1226 9.91738 68.1395 9.95651 68.1539 9.9932C68.125 10.1448 68.1346 10.1791 68.301 10.5166C68.4046 10.5606 68.4914 10.5679 68.5757 10.5753C68.8264 10.5312 69.0337 10.7587 69.2892 10.6927C69.4266 10.7929 69.576 10.8687 69.7182 10.9568C69.8628 11.0986 69.9544 11.2869 70.1159 11.4141L70.1014 11.2747L70.005 11.2356L70.0556 11.1916C70.3955 11.2209 70.5136 10.7734 70.8558 10.8076C71.0005 10.6829 70.9089 10.4432 71.0824 10.3331C71.2632 10.2182 71.4512 10.3209 71.6343 10.316C71.6006 10.1937 71.5476 10.069 71.4921 9.94673C71.2495 9.57499 71.1105 9.25706 71.0752 8.99293C71.0679 8.94646 71.0559 8.88287 71.0487 8.8364C71.0856 8.81521 71.1499 8.80787 71.2415 8.81439C71.2608 8.74836 71.2559 8.67744 71.2825 8.6114H71.3499L71.3861 8.54293C71.4857 8.53804 71.6175 8.54211 71.7814 8.55515C71.791 8.44999 71.7356 8.34483 71.6825 8.23722C71.6633 8.20054 71.6464 8.16629 71.6271 8.12961C71.6247 8.12472 71.2993 7.55244 71.3475 7.46684C71.7067 7.42037 71.8995 7.75298 72.1935 7.85081C72.2466 7.86548 72.2779 7.87526 72.3092 7.88505H72.3767C72.3622 7.76521 72.2996 7.6576 72.3044 7.53287C72.3839 7.51575 72.4056 7.52309 72.4249 7.53043C72.4635 7.5451 72.5165 7.55977 72.5551 7.56466C72.5776 7.47499 72.588 7.40651 72.5864 7.35923C72.7672 7.35923 72.9672 7.62091 73.5023 8.32282C73.5473 8.38314 73.6324 8.46874 73.7578 8.57961C73.7771 8.59673 75.7704 10.541 76.2211 11.688C76.1801 11.6783 76.1247 11.6685 76.0813 11.6587L76.0403 11.7198L76.0548 11.7883C75.8427 11.7932 75.7053 11.6269 75.5269 11.5511L75.5486 11.6685C75.7752 11.8935 75.9294 12.1796 76.1608 12.3997C76.3078 12.4829 76.4066 12.5342 76.5031 12.5831C76.4428 12.4388 76.3825 12.2946 76.3223 12.1527C76.3592 12.1201 76.3456 11.9098 76.2813 11.5217H76.3488C76.3568 11.463 76.3311 11.3774 76.2717 11.2649C76.2524 11.2234 76.2331 11.1818 76.2138 11.1402C76.1367 11.1035 76.1054 11.0864 76.074 11.0693L76.021 11.0277C76.0017 10.9861 75.9824 10.947 75.9632 10.9054C75.9463 10.8639 75.9222 10.81 75.9053 10.7685C75.9559 10.7807 76.0162 10.8174 76.074 10.8516C76.1488 10.9225 76.2042 10.9837 76.2452 11.0375C75.7969 10.4065 74.0205 7.97798 73.6397 7.83369C73.5457 7.72852 73.4951 7.64048 73.442 7.54999L73.4348 7.46929C73.43 7.39836 73.4203 7.38124 73.4107 7.36412C73.336 7.25162 73.2348 7.16113 73.1793 7.03641L73.2444 7.01195C73.9868 7.4864 74.3049 8.36195 74.9701 8.90977L75.0015 8.92934H75.0063V8.93423C75.9439 9.69972 76.1753 10.9543 76.9586 11.825C77.0671 12.0182 77.1346 12.1674 77.202 12.3166C77.1683 12.2921 77.137 12.2677 77.1032 12.2432C77.0574 12.1331 77.055 12.1331 76.9923 12.0744C77.0036 12.1266 77.145 12.3736 77.4165 12.8155C77.419 12.7739 77.4141 12.7201 77.3997 12.681C77.6335 12.9402 77.6937 13.2924 77.8866 13.5761C77.9275 13.6201 77.954 13.6421 77.983 13.6641C77.9998 13.6764 78.0215 13.691 78.036 13.7033C78.0151 13.5826 77.991 13.4905 77.9637 13.4269C77.9468 13.3878 77.9299 13.3511 77.9155 13.3119C77.8705 13.2255 77.8416 13.1595 77.8287 13.1139C77.8705 13.1302 77.9139 13.1783 77.9589 13.2581C78.0119 13.3119 78.0239 13.3217 78.0336 13.3315C78.0207 13.2565 77.9693 13.1196 77.8793 12.9206L77.9251 12.9671C77.9139 12.9035 77.8472 12.7698 77.7251 12.566C77.7283 12.584 77.766 12.6834 77.8383 12.8644C77.6793 12.7054 77.0743 11.6098 77.0695 11.6C77.0309 11.5193 77.014 11.4826 76.9948 11.4459L76.9731 11.375C76.9899 11.397 77.0116 11.4239 77.0309 11.4435C77.1321 11.5951 77.2012 11.688 77.2382 11.7223C77.2623 11.7418 77.2719 11.7541 77.284 11.7638C77.296 11.7736 77.3057 11.7834 77.3177 11.7956C77.2792 11.6562 77.1828 11.5462 77.1346 11.4117C77.137 11.4117 77.5106 11.7492 77.807 12.4144C77.848 12.7861 78.1324 13.0356 78.265 13.3609C78.3035 13.4408 78.3316 13.5027 78.3493 13.5467C78.3807 13.6201 78.3951 13.6519 78.4072 13.6837C78.4626 13.8035 78.5229 13.9185 78.5807 14.0359L78.6144 14.1068L78.641 14.1533L78.6747 14.2242C78.6964 14.2658 78.7253 14.322 78.747 14.3611C78.8169 14.5005 78.8314 14.5543 78.8603 14.6497C78.8916 14.7378 78.9591 14.909 79.029 15.063L79.0652 15.1389L79.0941 15.1975C79.082 15.1511 79.0652 15.0899 79.0483 15.0459C79.0338 15.0068 79.0146 14.953 79.0001 14.9139C78.9519 14.7916 78.9495 14.7842 78.9037 14.6791C78.8868 14.635 78.8627 14.5763 78.8458 14.5323C78.8458 14.5177 78.8507 14.5274 78.8579 14.5372L78.8772 14.5666L78.9085 14.6277L78.9422 14.6986L78.9712 14.7573C79.0097 14.8331 79.0459 14.9114 79.082 14.9872L79.123 15.0753L79.1543 15.1462L79.1784 15.1927L79.1905 15.2098C79.217 15.2514 79.2508 15.31 79.2725 15.3541C79.3062 15.4103 79.311 15.4177 79.3134 15.425V15.4128L79.2821 15.3272L79.2604 15.2709C79.2009 15.1258 79.1559 15.0125 79.1254 14.931L79.1182 14.9016C79.1495 14.9505 79.1833 15.019 79.2098 15.0728C79.2411 15.1437 79.2725 15.2122 79.3038 15.2831C79.3472 15.381 79.3906 15.4763 79.4315 15.5742L79.458 15.6378L79.4725 15.6696C79.5376 15.8041 79.5761 15.8872 79.6123 15.9704C79.593 15.9264 79.5689 15.8652 79.552 15.8212C79.5207 15.7429 79.5111 15.7185 79.5014 15.694C79.4918 15.6696 79.4532 15.5742 79.4291 15.5204L78.142 12.7177C76.0451 8.94157 75.9632 8.79483 74.4784 6.76005L73.994 6.11684C73.9169 6.01657 73.8349 5.92119 73.7481 5.82336C73.6132 5.67173 73.4661 5.52499 73.3047 5.38314C73.1287 5.22907 72.9407 5.07744 72.7358 4.93314C72.9407 5.07744 73.1287 5.22662 73.3047 5.38314C73.4637 5.52499 73.6108 5.67173 73.7481 5.82336C72.637 4.50271 71.2101 2.89836 70.0436 1.68287C69.9689 1.61439 69.8797 1.5288 69.4989 1.16439C69.4772 1.14727 69.4555 1.12771 69.4338 1.11059C69.8604 1.53858 70.2557 1.99592 70.6871 2.41657L70.7474 2.48749C70.622 2.39456 70.5136 2.27717 70.3786 2.19646C70.4847 2.38233 70.6702 2.49483 70.8052 2.6538L70.7859 2.6489C70.2774 2.18423 70.181 2.09863 70.1786 2.09863C70.1689 2.19157 70.2268 2.30896 70.2292 2.31385L70.1954 2.32363C70.1312 2.28613 70.0829 2.26331 70.0508 2.25516L70.046 2.29184C69.8797 2.24293 69.764 2.11575 69.5133 1.8345C69.482 1.81983 69.4507 1.80515 69.4193 1.79048C69.4193 1.81249 69.429 1.84184 69.441 1.85896C69.3976 1.84429 69.388 1.83939 69.3326 1.80515C69.2819 1.7807 69.2482 1.76602 69.2144 1.75135C69.1903 1.74401 69.159 1.73423 69.1349 1.72689C69.1952 1.82227 69.2795 1.89809 69.3518 1.98369C69.3181 1.96901 69.2819 1.95434 69.2482 1.93967C69.1253 1.89075 69.0939 1.85651 68.8457 1.59972L68.8312 1.61928C68.7951 1.60461 68.7613 1.59238 68.7252 1.57771C68.6818 1.5288 68.6384 1.47988 68.595 1.43097C68.5275 1.36249 68.4873 1.31684 68.4745 1.29401C68.5251 1.29401 68.5926 1.31847 68.6601 1.34782C68.8095 1.41874 68.9132 1.56548 69.0795 1.60706C69.0313 1.47499 68.4359 0.856242 68.4287 0.851351C68.3974 0.836677 68.366 0.824448 68.3347 0.809774C68.3138 0.814666 68.2793 0.807329 68.2311 0.787764L68.2238 0.826894C68.2431 0.85135 68.2664 0.883144 68.2937 0.922275C68.2817 0.936949 68.2744 0.932057 68.2648 0.929611C68.2375 0.913307 68.1435 0.809774 67.9828 0.619013C67.9226 0.555426 67.8816 0.513851 67.8406 0.472275C67.4236 0.384231 67.4116 -0.205171 66.9633 -0.25653C66.9801 -0.136693 67.0958 -0.0926711 67.1489 -0.00218201L67.1296 0.0271654C67.1079 0.0198285 67.079 0.0124917 67.0549 0.010046C67.0581 0.0410243 67.1063 0.0980898 67.1995 0.181242C67.2308 0.213035 67.2429 0.225263 67.2573 0.239937C67.2742 0.259502 67.2983 0.28396 67.3152 0.303525C67.2959 0.313308 67.267 0.320644 67.2453 0.325536C67.2597 0.37934 67.5337 0.649176 68.0672 1.13505C68.1033 1.17418 68.1298 1.20352 68.1539 1.23043C68.3202 1.43097 68.5227 1.59727 68.6938 1.79048C68.742 1.84673 68.7902 1.90298 68.836 1.95679C68.8071 1.947 68.7806 1.93722 68.7517 1.92744C68.6697 1.92499 68.6288 1.91276 68.5757 1.89809C68.5516 1.89075 68.5275 1.88342 68.5034 1.87363C68.3749 1.81983 68.26 1.77907 68.1588 1.75135L68.1467 1.78559L68.1732 1.82227L68.1636 1.85896C68.1347 1.85896 68.0961 1.85896 68.0672 1.85407C68.0672 1.95923 68.166 2.02526 68.1732 2.12798L68.1347 2.14266C68.1186 2.13287 68.084 2.1076 68.031 2.06684C67.9949 2.05461 67.9732 2.04727 67.9515 2.04238C67.9322 2.03749 67.9129 2.0326 67.8912 2.02771C67.8607 2.0326 67.8229 2.02445 67.7779 2.00325C67.8141 2.05706 67.8599 2.11331 67.9057 2.172L68.1033 2.29184C68.178 2.38722 68.2552 2.48505 68.3299 2.58043C68.3299 2.58043 68.2712 2.58369 68.1539 2.59021C68.125 2.71412 68.1081 2.80543 68.1033 2.86412C68.0696 2.86412 68.0479 2.85923 68.0238 2.85434C68.0045 2.85271 67.9306 2.8364 67.802 2.80543C67.8695 2.89592 67.9346 2.98641 67.9997 3.07689C68.0672 3.16983 68.1347 3.26276 68.1997 3.3557C68.0431 3.32391 68.0045 3.31657 67.884 3.33369C67.9081 3.43396 67.9732 3.52689 68.0358 3.61983C67.9467 3.60271 67.8599 3.58559 67.7683 3.56847C67.614 3.47798 67.144 3.24075 67.1416 3.24075C67.1464 3.33858 67.2115 3.43151 67.2742 3.52689C67.3722 3.57418 67.4558 3.66385 67.5249 3.79592L67.6237 3.89619C67.6502 3.93532 67.6767 3.97445 67.7032 4.01602C67.2043 3.98668 66.903 3.73478 66.9006 3.73233C66.6853 3.79918 66.5712 3.8489 66.5583 3.88151C66.6861 4.16765 67.2477 4.31195 67.2525 4.31195C67.3176 4.31929 67.3417 4.32418 67.3682 4.32662C67.6116 4.4807 67.8334 4.66412 68.0672 4.83287C68.207 5.02608 68.3106 5.19727 68.4118 5.37092C68.7951 5.7451 69.6965 6.62309 69.4627 7.01684C69.4916 7.09021 69.4675 7.23695 69.2819 7.24673C69.2554 7.24184 69.2289 7.23939 69.2024 7.2345C68.7734 7.03885 68.4793 6.897 68.3202 6.80896C68.0214 6.76249 67.7779 6.73559 67.5297 6.71113C67.3369 6.67363 67.1657 6.61575 67.0163 6.53749L66.9729 6.5326L66.9175 6.57662C66.9544 6.64836 66.9761 6.71602 66.9826 6.77961C66.8403 6.76738 66.6981 6.75516 66.5535 6.74537L66.5656 6.84809C66.903 7.17581 66.9609 7.69184 67.3296 7.99755C67.4526 8.24211 67.549 8.45244 67.6478 8.66766C67.7659 8.9807 67.6912 9.34755 67.9201 9.6288H67.937ZM71.7187 4.31929C71.4705 4.19211 71.2053 4.06983 70.9281 3.95244C71.2077 4.06983 71.4705 4.18967 71.7187 4.31929Z" fill="#EFEFEF"/>
<path d="M49.231 -7.16305C49.19 -7.17283 49.137 -7.18751 49.096 -7.19974C49.0743 -7.15816 49.043 -7.10191 49.0189 -7.06033C48.99 -7.06033 48.9755 -7.06033 48.9611 -7.05789C48.7899 -7.06278 48.6333 -7.15082 48.4645 -7.16794C48.4115 -7.16305 48.3874 -7.16061 48.3633 -7.15816C48.2091 -7.14838 47.8861 -7.12881 47.6185 -7.24376C47.527 -7.30001 47.4812 -7.32936 47.4354 -7.36115C47.7921 -7.43452 47.9881 -7.49158 48.0235 -7.53235C48.2886 -7.46387 48.4814 -7.10191 48.814 -7.3049L48.7586 -7.36115C48.7923 -7.38887 48.9169 -7.41006 49.1322 -7.42474C48.6429 -7.98235 47.862 -7.65707 47.3148 -8.04104C47.3679 -8.04919 47.5093 -8.02229 47.7391 -7.96033C47.8234 -7.96767 47.8475 -7.96767 47.8716 -7.97012L47.9512 -7.98235C47.903 -8.02637 47.8306 -8.07773 47.7728 -8.10707C47.7101 -8.13887 47.686 -8.1511 47.6643 -8.16332C47.4787 -8.28561 47.4474 -8.31006 47.1389 -8.29539C47.1244 -8.27827 47.1052 -8.25381 47.0907 -8.23425C46.9846 -8.22691 46.9075 -8.22446 46.828 -8.21957L46.8448 -8.29539C46.8063 -8.32474 46.6986 -8.35164 46.5219 -8.3761L46.505 -8.40544C46.599 -8.41033 46.693 -8.41523 46.787 -8.42012C46.8521 -8.38832 46.9196 -8.35898 46.9846 -8.32718C47.0714 -8.33207 47.1606 -8.33697 47.2474 -8.33941C47.2763 -8.3712 47.3341 -8.39811 47.3751 -8.40055C47.4064 -8.40055 47.4305 -8.40055 47.4571 -8.403C47.5486 -8.39322 47.6402 -8.37854 47.7342 -8.37854C47.7415 -8.40055 47.7487 -8.4299 47.7535 -8.45191C47.4474 -8.5962 47.11 -8.51061 46.7966 -8.5962C46.9485 -8.67447 47.1244 -8.60599 47.2787 -8.66957L47.351 -8.68914C47.3847 -8.68914 47.4185 -8.68914 47.4522 -8.68914C47.4763 -8.68914 47.5053 -8.68914 47.5294 -8.68914C47.2425 -8.95816 46.8473 -8.83832 46.5243 -8.97773C46.5725 -8.98506 46.64 -8.98995 46.6882 -8.98995C46.6617 -9.0193 46.587 -9.0462 46.5098 -9.07066C46.0928 -9.18316 45.6542 -9.16115 45.2372 -9.26387C45.177 -9.28099 45.1649 -9.28588 45.1528 -9.28832C45.1938 -9.31278 45.2613 -9.33235 45.3095 -9.33724C45.3842 -9.34457 45.4228 -9.34702 45.4614 -9.34702C45.5554 -9.35191 45.6277 -9.35436 45.8446 -9.30789L45.8832 -9.29566C46.0591 -9.21006 46.264 -9.15626 46.4038 -9.1587C46.1941 -9.22474 45.9868 -9.28832 45.7771 -9.34702C45.7578 -9.36169 45.7337 -9.37881 45.7144 -9.39104L45.6735 -9.40082C45.5594 -9.42365 45.3995 -9.43343 45.1938 -9.43017C45.1649 -9.43017 45.136 -9.43017 45.1071 -9.43017C45.0829 -9.43017 45.0516 -9.43017 45.0275 -9.43262C44.907 -9.44974 44.8251 -9.47175 44.7455 -9.49131H44.8275C44.8925 -9.49131 44.9094 -9.49131 44.9263 -9.49131L45.001 -9.4962C44.7841 -9.59158 44.2177 -9.5549 44.2128 -9.5549C44.2586 -9.54267 44.3213 -9.52311 44.3671 -9.50599C44.3591 -9.50599 44.0988 -9.56713 43.5862 -9.68941C43.591 -9.70164 43.644 -9.70408 43.6946 -9.70653C43.6464 -9.71631 43.5838 -9.72854 43.538 -9.73832C43.5886 -9.76278 43.6055 -9.76278 43.6223 -9.76523C43.4946 -9.79947 43.362 -9.81169 43.2343 -9.84349C43.2777 -9.85816 43.3403 -9.86794 43.3861 -9.86794C43.3403 -9.88017 43.2801 -9.8924 43.2343 -9.89729C43.256 -9.89974 43.2873 -9.90463 43.309 -9.90952C43.2777 -9.91441 43.2343 -9.92175 43.2005 -9.92664C43.0607 -9.92664 42.9185 -9.92664 42.7763 -9.92664H42.6124C42.659 -9.93805 42.7627 -9.94213 42.9234 -9.93887C42.9571 -9.93887 42.974 -9.93887 42.9908 -9.93887H43.0656C43.0198 -9.94865 42.9595 -9.95843 42.9137 -9.96332C42.974 -9.96332 42.9884 -9.96332 43.0029 -9.96332C43.0511 -9.96332 43.1138 -9.96332 43.162 -9.96088C43.0993 -9.96577 43.0302 -9.96985 42.9547 -9.97311L42.4678 -9.98778C42.3401 -9.98778 42.2123 -9.99267 42.0846 -9.99512C42.0099 -9.99512 41.9352 -9.99512 41.8604 -9.99512C41.9038 -9.99023 41.9641 -9.98533 42.0075 -9.98289C41.8243 -9.96822 41.6411 -9.978 41.4579 -9.97311L41.5302 -9.95843C41.4049 -9.94539 41.331 -9.93642 41.3085 -9.93153L41.376 -9.89729C41.2844 -9.88017 41.2723 -9.87773 41.0747 -9.94376C41.0193 -9.9462 40.9638 -9.9511 40.906 -9.95354C40.8192 -9.97066 40.7831 -9.978 40.5083 -9.97066C40.4866 -9.97066 40.4721 -9.97066 40.4577 -9.96822C40.1829 -9.94865 40.1708 -9.94865 40.072 -9.9462C40.1781 -9.94376 40.2841 -9.93887 40.3902 -9.93398C40.2938 -9.92419 39.9539 -9.89974 39.9346 -9.89974C39.8913 -9.91197 39.9057 -9.91197 39.9202 -9.91441C39.966 -9.91686 40.0286 -9.92175 40.0744 -9.92664L40.0045 -9.93642C39.9387 -9.93479 39.8021 -9.92501 39.5948 -9.90707C39.4261 -9.8924 39.32 -9.88262 39.214 -9.87283C38.9585 -9.85572 38.7151 -9.74322 38.4523 -9.78235C38.7512 -9.84838 39.0115 -9.87283 39.267 -9.89485C39.5056 -9.92419 39.7153 -9.93887 39.9202 -9.95354C40.0214 -9.96088 40.1251 -9.97555 40.2263 -9.98044C40.2239 -9.98044 40.166 -9.98044 40.1082 -9.98044L39.9636 -9.97555C39.9322 -9.97555 39.925 -9.97311 39.9178 -9.97311C39.6743 -9.96332 39.12 -9.93642 39.1176 -9.93398C39.0549 -9.92908 38.985 -9.92419 38.9175 -9.91686C38.7697 -9.9087 38.6604 -9.90137 38.5897 -9.89485C38.5054 -9.88751 38.421 -9.88017 38.3342 -9.87283L38.2716 -9.86794C38.2185 -9.86305 38.1655 -9.85816 38.1125 -9.85327C38.0836 -9.85082 38.0546 -9.84838 38.0281 -9.84593C37.845 -9.82148 37.7172 -9.8068 37.5895 -9.79213H37.5316C37.5605 -9.79213 37.5871 -9.79702 37.616 -9.80191L37.6979 -9.80925C38.0667 -9.85816 38.4861 -9.89729 38.8934 -9.92419C38.7657 -9.91686 38.6379 -9.90707 38.5102 -9.89974H38.5005C38.4837 -9.89974 38.4668 -9.89729 38.4499 -9.89485C38.1101 -9.86794 38.0305 -9.86061 37.8377 -9.84349C37.7967 -9.8386 37.7799 -9.8386 37.763 -9.83615C37.3509 -9.79946 36.8857 -9.74077 36.7435 -9.7212C36.7218 -9.71876 36.6904 -9.71387 36.6687 -9.71142C36.5868 -9.6943 36.5699 -9.69186 36.5555 -9.68941C36.4687 -9.67963 36.4518 -9.67718 36.435 -9.67474C36.3168 -9.66006 36.3024 -9.65762 36.2012 -9.6405C36.2494 -9.6405 36.312 -9.6405 36.3602 -9.64294C36.3056 -9.62338 36.2285 -9.6087 36.1288 -9.59892C36.0348 -9.58425 35.9577 -9.57202 35.8806 -9.55979C35.7665 -9.54512 35.5512 -9.51006 35.2346 -9.45463L35.1961 -9.44729C34.9872 -9.41305 34.8265 -9.38289 34.714 -9.3568L34.6899 -9.35191L34.6176 -9.33235C34.6562 -9.33235 34.7092 -9.33235 34.7502 -9.33479C34.8177 -9.34457 34.8876 -9.35273 34.9599 -9.35925H34.9984C35.0225 -9.35925 35.0515 -9.35925 35.0756 -9.35925L35.0707 -9.35191H35.0322L34.9912 -9.34702L34.9671 -9.34213C34.9454 -9.33968 34.9141 -9.33479 34.8924 -9.3299C34.8442 -9.32501 34.837 -9.32256 34.8273 -9.32012H34.7887L34.7261 -9.30789C34.6827 -9.30055 34.6273 -9.28832 34.5863 -9.2761L34.5959 -9.2712H34.7285C34.8056 -9.28099 34.8827 -9.29077 34.9599 -9.30055L35.0322 -9.31033C35.1069 -9.32501 35.1238 -9.32745 35.1431 -9.33235L35.2202 -9.33968H35.2612C35.2997 -9.34702 35.3503 -9.34947 35.3889 -9.34947C35.4395 -9.34947 35.507 -9.35191 35.5552 -9.35191H35.5769L35.6058 -9.33235L35.5335 -9.32256C35.495 -9.31767 35.495 -9.31767 35.495 -9.31767H35.4805C35.4299 -9.30789 35.36 -9.30055 35.307 -9.29566L35.2708 -9.29077L35.2274 -9.28588L35.1431 -9.2761C35.0418 -9.26387 35.0177 -9.26142 34.8562 -9.23941L34.7695 -9.23207C34.7261 -9.22963 34.6658 -9.22474 34.6224 -9.21985C34.6514 -9.21495 34.6827 -9.21006 34.7116 -9.20517C34.6658 -9.21006 34.62 -9.21495 34.5791 -9.2174C34.555 -9.21495 34.5453 -9.21251 34.5333 -9.21006H34.4995L34.4706 -9.20273C34.3911 -9.1905 34.3525 -9.18071 34.3139 -9.17338C34.2199 -9.15626 34.1259 -9.14648 34.0319 -9.12691C33.9789 -9.11468 33.9066 -9.10001 33.8536 -9.08778L33.8777 -9.078C33.9235 -9.078 33.9837 -9.08289 34.0271 -9.08778C34.0584 -9.09267 34.0681 -9.09512 34.0801 -9.09756L34.1139 -9.10245H34.15C34.1862 -9.1049 34.2344 -9.10979 34.2705 -9.11224H34.3115C34.3525 -9.11224 34.4079 -9.11224 34.4489 -9.11224H34.5212C34.5574 -9.1049 34.5646 -9.10245 34.5742 -9.10245L34.5116 -9.09023C34.4754 -9.08533 34.4272 -9.078 34.3911 -9.07555H34.3091L34.2754 -9.06822C34.1814 -9.06088 34.085 -9.05599 33.991 -9.0462H33.9524L33.9138 -9.04131C33.8825 -9.03887 33.8415 -9.03642 33.8102 -9.03153L33.7837 -9.02664C33.7499 -9.02175 33.7041 -9.01441 33.6704 -9.01197H33.5981L33.5692 -9.00707C33.5113 -8.99974 33.5041 -8.99729 33.4944 -8.99485C33.4077 -8.97773 33.3787 -8.97039 33.3474 -8.96305L33.3739 -8.95816C33.5073 -8.95164 33.582 -8.94267 33.5981 -8.93126L33.6125 -8.92637V-8.91903L33.6535 -8.87256C33.5667 -8.853 33.5571 -8.85055 33.439 -8.84566L33.4245 -8.85055L33.4028 -8.87256L33.4221 -8.91169H33.3305C33.2751 -8.91169 33.2679 -8.91414 33.2631 -8.91658L33.2558 -8.92148L33.1522 -8.91658L33.063 -8.9068H33.0293C32.9979 -8.89947 32.957 -8.88724 32.9256 -8.87745L32.8654 -8.85544C32.8413 -8.84322 32.8075 -8.82854 32.7834 -8.81631L32.7641 -8.80898L32.7376 -8.80164L32.6894 -8.78207C32.6581 -8.76985 32.6147 -8.75762 32.5834 -8.75028C32.5327 -8.73805 32.4845 -8.72582 32.4339 -8.7136L32.3785 -8.69403L32.3592 -8.68425C32.3062 -8.66713 32.3014 -8.66468 32.2941 -8.66468C32.2146 -8.64512 32.1254 -8.62555 32.0507 -8.59865C32.0386 -8.58642 32.0435 -8.58398 32.0459 -8.58153H32.07L32.1278 -8.59131L32.1592 -8.59865H32.1736L32.1784 -8.60354H32.1857C32.2218 -8.61088 32.2724 -8.61821 32.3086 -8.61821H32.4363C32.5111 -8.63044 32.5183 -8.63289 32.5279 -8.63533L32.6147 -8.65245C32.6557 -8.6549 32.7111 -8.65979 32.7521 -8.66468L32.781 -8.66957H32.8509L32.8437 -8.65979C32.8075 -8.65001 32.7689 -8.64023 32.7328 -8.63289L32.6966 -8.628L32.6653 -8.62311H32.634C32.5858 -8.61088 32.5183 -8.60354 32.4677 -8.6011H32.4339C32.393 -8.59376 32.3351 -8.58398 32.2941 -8.57175C32.2628 -8.56441 32.2556 -8.56196 32.2459 -8.56196C32.1857 -8.55463 32.1254 -8.54485 32.0652 -8.53751C32.029 -8.53262 31.9784 -8.52528 31.9422 -8.52528H31.8482L31.8241 -8.5155C31.7856 -8.50327 31.7374 -8.48615 31.7012 -8.47148L31.6723 -8.45925L31.6554 -8.44702L31.6241 -8.43724L31.6072 -8.42501L31.5253 -8.39321L31.6217 -8.36631L31.641 -8.36142C31.6675 -8.3443 31.694 -8.32474 31.7205 -8.30273C31.6626 -8.28805 31.6048 -8.27093 31.547 -8.25626C31.506 -8.24892 31.4481 -8.24403 31.4047 -8.24158L31.3734 -8.23425C31.1661 -8.17718 31.0561 -8.14457 31.0432 -8.13642C30.9613 -8.0655 30.8576 -8.03615 30.7684 -7.97745L30.6961 -7.9261L30.6696 -7.91631C30.5587 -7.88452 30.5033 -7.8674 30.4334 -7.82827L30.4093 -7.8136L30.3828 -7.80381V-7.78914L30.3587 -7.77447L30.3298 -7.76468L30.3033 -7.75245L30.2936 -7.73778L30.2502 -7.68398L30.2237 -7.67175C30.2382 -7.63995 30.2575 -7.64485 30.2767 -7.65218C30.3274 -7.66196 30.3973 -7.67419 30.4479 -7.68153L30.4768 -7.67664L30.5057 -7.68642C30.6327 -7.72392 30.721 -7.75408 30.7708 -7.77691L30.8311 -7.81604C30.8673 -7.80626 30.9155 -7.78425 30.9444 -7.75979L30.9588 -7.75001L30.983 -7.74267C30.995 -7.72555 31.0071 -7.70843 31.0191 -7.69131C31.0071 -7.65952 30.983 -7.61794 30.9588 -7.59349C30.9203 -7.57392 30.8673 -7.55436 30.8239 -7.54457L30.7925 -7.53479C30.7106 -7.51523 30.6359 -7.47365 30.5563 -7.4443C30.4647 -7.40517 30.419 -7.3905 30.3707 -7.37827C30.2856 -7.35707 30.2205 -7.34322 30.1755 -7.33669C29.9803 -7.278 29.9755 -7.27066 29.9345 -7.22419C29.9176 -7.19729 29.8935 -7.16061 29.8646 -7.14593C29.8067 -7.12881 29.7465 -7.10925 29.6886 -7.09213C29.6573 -7.07256 29.6163 -7.04811 29.585 -7.03343C29.4476 -6.97718 29.2982 -6.95517 29.1656 -6.88425L29.0885 -6.84756L29.0764 -6.828V-6.7962L29.0644 -6.77664L29.0331 -6.75952C28.9752 -6.73995 28.9174 -6.72283 28.8595 -6.70327L28.8306 -6.68126L28.8185 -6.61278C28.9921 -6.56631 29.156 -6.63724 29.3247 -6.64947C29.4669 -6.66414 29.5778 -6.69838 29.6862 -6.73262L29.8309 -6.7424L29.8815 -6.75463H29.92C29.9634 -6.75463 30.0188 -6.76197 30.0598 -6.77419C30.1394 -6.79376 30.1586 -6.8011 30.1779 -6.80599L30.2671 -6.83778C30.2864 -6.85001 30.3153 -6.86468 30.3346 -6.87691C30.4358 -6.91604 30.4985 -6.93561 30.5612 -6.95517C30.5997 -6.97474 30.6552 -6.99919 30.6961 -7.01387C30.7178 -7.0212 30.7275 -7.02365 30.7395 -7.0261C30.7684 -7.03343 30.8046 -7.04077 30.8311 -7.053C30.8407 -7.03343 30.8528 -7.01142 30.8624 -6.99186L30.8142 -6.93316L30.7757 -6.9136L30.7154 -6.87691C30.6793 -6.84267 30.6696 -6.84023 30.6576 -6.83778L30.6238 -6.828C30.5636 -6.81822 30.5491 -6.81577 30.5346 -6.81088H30.4961C30.4286 -6.7962 30.4045 -6.78887 30.3804 -6.78153C30.3675 -6.77664 30.2984 -6.74648 30.1731 -6.69104C30.1321 -6.67881 30.1153 -6.67392 30.1008 -6.66903C30.059 -6.65925 29.9891 -6.64539 29.8911 -6.62745C29.8405 -6.61033 29.8236 -6.60544 29.8067 -6.60055L29.773 -6.58588C29.7127 -6.51985 29.6453 -6.50028 29.5778 -6.47827L29.544 -6.4587C29.544 -6.4587 29.5537 -6.44892 30.2599 -6.47582C30.2213 -6.4636 30.1683 -6.44158 30.1345 -6.41713V-6.39756L30.1659 -6.38778L30.202 -6.39512C30.2334 -6.40001 30.2792 -6.40245 30.3105 -6.39512L30.3539 -6.38778L30.3683 -6.37311H30.4093L30.4575 -6.38044H30.5346C30.578 -6.38778 30.6359 -6.39267 30.6793 -6.39756C30.7684 -6.39023 30.7877 -6.39023 30.8938 -6.42202L30.9179 -6.42936L30.9926 -6.46604L30.9661 -6.47827L30.8938 -6.49294C30.8938 -6.53697 30.9034 -6.53941 30.9155 -6.5443C31.0617 -6.58832 31.1782 -6.61278 31.265 -6.61767L31.3011 -6.62256H31.3445L31.3758 -6.63968L31.359 -6.67392C31.4072 -6.6886 31.4578 -6.70327 31.506 -6.71794C31.6626 -6.71305 31.7759 -6.75218 31.8049 -6.79376L31.8362 -6.81332L31.8651 -6.83289L31.8989 -6.84756H31.9109V-6.85245H31.923L31.9832 -6.89648L32.0145 -6.91604C32.0531 -6.93724 32.1415 -6.9511 32.2797 -6.95762C32.3134 -6.9674 32.3496 -6.97718 32.3833 -6.98697L32.4556 -7.00408C32.5111 -7.01876 32.5231 -7.0212 32.5352 -7.02365H32.5761C32.6292 -7.02854 32.7015 -7.02854 32.7569 -7.02365L32.8051 -7.02854L32.8461 -7.03343C32.928 -7.05544 33.0076 -7.07745 33.0895 -7.09947L33.1305 -7.1068L33.1666 -7.11169C33.2197 -7.11169 33.2896 -7.11169 33.3426 -7.1068L33.4149 -7.11903C33.4655 -7.1337 33.4752 -7.13615 33.4872 -7.1386L33.5234 -7.14838L33.5643 -7.1386C33.6077 -7.13126 33.6656 -7.12392 33.709 -7.11903L33.7837 -7.1337L33.8198 -7.14349C33.856 -7.14838 33.9066 -7.15327 33.9452 -7.14838L34.0199 -7.13615C34.0584 -7.09213 34.0898 -7.053 34.1235 -7.01142C34.1573 -6.99919 34.2055 -6.98452 34.2392 -6.97474L34.3308 -6.96985C34.379 -6.97963 34.4465 -6.98452 34.4971 -6.98452L34.5887 -6.96985C34.6176 -6.95762 34.6538 -6.94294 34.6803 -6.92582H34.7261C34.7719 -6.91115 34.8321 -6.89892 34.8779 -6.88914L34.9719 -6.85735L35.0225 -6.85245C35.0707 -6.828 35.1358 -6.79865 35.1864 -6.77908C35.2346 -6.75707 35.3045 -6.73751 35.3552 -6.72528L35.4516 -6.72039C35.5094 -6.69104 35.5118 -6.68615 35.5166 -6.6837L35.5263 -6.61278C35.5673 -6.59566 35.6251 -6.57854 35.6709 -6.56876C35.7384 -6.51006 35.7673 -6.47582 35.7938 -6.43914L35.7649 -6.37066C35.871 -6.33153 35.9336 -6.34865 35.9987 -6.36332C36.0228 -6.33398 36.0445 -6.30463 36.0686 -6.27528C36.0252 -6.26794 35.9698 -6.24838 35.9312 -6.22881L35.9143 -6.1799C35.9553 -6.15544 36.0059 -6.11631 36.0397 -6.08207C35.9963 -6.02338 35.9457 -6.01115 35.8951 -5.99892C35.9167 -5.96957 35.9384 -5.93778 35.9625 -5.90843C36.0268 -5.87745 36.1055 -5.86604 36.1987 -5.87419C36.2735 -5.88887 36.3 -5.8962 36.3289 -5.9011C36.3747 -5.90354 36.4325 -5.90843 36.4783 -5.91332C36.6519 -5.95001 36.7869 -5.9818 36.9194 -6.0136L36.8736 -6.06985C37.0496 -6.28017 38.2451 -6.06985 38.3053 -5.8962C38.2523 -5.88398 38.1968 -5.87175 38.1438 -5.85952L38.0691 -5.85463C37.9679 -5.83751 37.9124 -5.82528 37.857 -5.81305C37.5678 -5.73968 37.5003 -5.76658 37.4304 -5.8155C37.2255 -5.75925 37.0086 -5.76658 36.8134 -5.67365L36.8254 -5.60028C36.9194 -5.54892 37.0279 -5.54892 37.1267 -5.51468L37.0978 -5.44865C36.9291 -5.39974 36.917 -5.39729 36.8616 -5.26278C36.8977 -5.2212 36.9845 -5.12093 37.7582 -5.16006C37.8482 -5.28398 37.9751 -5.36305 38.139 -5.39729C38.1438 -5.46822 38.098 -5.52447 38.0546 -5.58316C38.0177 -5.57501 37.8233 -5.55952 37.4714 -5.53669C37.4714 -5.55381 37.4665 -5.57582 37.4641 -5.59539C37.5196 -5.60762 37.5726 -5.61985 37.628 -5.63207C37.7943 -5.65408 37.9606 -5.63207 38.127 -5.6443C38.1993 -5.65898 38.2547 -5.6712 38.3101 -5.68343C38.4861 -5.72256 38.5174 -5.71523 38.6211 -5.66387C38.6403 -5.6443 38.6452 -5.63452 38.6524 -5.62718L38.5994 -5.57093L38.6283 -5.5049C38.5994 -5.44376 38.6066 -5.43642 38.6138 -5.42664C38.7126 -5.38995 38.8163 -5.37039 38.9127 -5.32637C38.9681 -5.26033 39.0091 -5.20898 39.0477 -5.15762C38.9705 -5.1405 38.8934 -5.12338 38.8139 -5.10626C38.7054 -5.10626 38.6596 -5.00843 38.5825 -4.95952C38.4981 -4.9424 38.4644 -4.93506 38.4331 -4.92773C38.3873 -4.93262 38.3246 -4.92773 38.2788 -4.91305C38.3029 -4.80544 38.3656 -4.7174 38.4258 -4.62691C38.3222 -4.61468 38.3005 -4.61224 38.18 -4.61713C38.1149 -4.50463 37.9703 -4.48751 37.9028 -4.3799C37.951 -4.31876 37.9582 -4.30653 37.9655 -4.2943C38.18 -4.14267 38.4716 -4.27963 38.6789 -4.1011C38.65 -4.02528 38.5728 -3.99593 38.5271 -3.93724C38.6717 -3.59974 39.1971 -3.56305 39.2935 -3.68044C39.308 -3.69756 39.308 -3.72936 39.3152 -3.74892C39.3369 -3.75381 39.3658 -3.76115 39.3875 -3.7636C39.4357 -3.77338 39.4671 -3.78072 39.4984 -3.78805C39.6261 -3.77582 39.6358 -3.75381 39.6695 -3.66822C39.6285 -3.64865 39.5755 -3.62419 39.5345 -3.60952C39.5345 -3.50517 39.5209 -3.43099 39.4936 -3.38696C39.5924 -3.09104 39.9804 -3.02256 40.0913 -3.22066C40.113 -3.25979 40.1178 -3.31849 40.1226 -3.36251C40.1805 -3.39023 40.2512 -3.40653 40.3347 -3.41142C40.4095 -3.33071 40.4649 -3.24756 40.5179 -3.16197L40.4962 -3.09104C40.3564 -3.02501 40.3106 -2.95408 40.2745 -2.89539C40.3372 -2.72175 42.1617 -1.71903 42.6317 -1.74104C42.8077 -1.72637 42.9571 -1.58696 43.1451 -1.63588C43.1788 -1.64321 43.2126 -1.64811 43.2439 -1.65544C43.3283 -1.72148 43.3331 -1.72392 43.456 -1.75816C43.4729 -1.76061 43.4898 -1.7655 43.5066 -1.76794C44.1116 -1.77283 44.8323 -1.01957 45.3216 -1.73126C45.3071 -1.75082 45.2878 -1.77528 45.2734 -1.79485C45.2565 -1.8193 45.242 -1.84376 45.2252 -1.86821C45.0829 -2.08343 45.3288 -2.36468 45.1095 -2.56767C44.9311 -2.73153 44.7383 -2.87338 44.5527 -3.02745L44.584 -3.10816L44.6901 -3.1424C44.76 -3.15707 44.7913 -3.16196 44.8226 -3.16686C44.8789 -3.19131 44.952 -3.21006 45.042 -3.22311C45.0243 -3.44158 45.0548 -3.55816 45.1336 -3.57283C45.095 -3.73669 45.0106 -3.84186 44.9263 -3.94457C44.9383 -3.96414 44.9528 -3.99104 44.9624 -4.01061C44.9624 -4.01061 44.7672 -4.23561 44.5792 -4.24294L44.531 -4.30408C44.6322 -4.40436 44.7865 -4.39213 44.8925 -4.48017C44.8893 -4.48995 44.8516 -4.55762 44.7793 -4.68316C44.9552 -4.71985 45.1384 -4.74919 45.3167 -4.7761C45.2428 -4.8462 45.1858 -4.90327 45.1456 -4.94729C45.2179 -5.00599 45.3192 -5.02066 45.4204 -5.03534C45.5072 -4.93099 45.5795 -4.85354 45.6373 -4.803C45.8671 -4.82093 46.0278 -4.92528 46.1194 -5.11604C46.2061 -5.16006 46.2351 -5.16495 46.264 -5.1674C46.3347 -5.17555 46.4319 -5.20164 46.5556 -5.24566C46.5315 -5.2799 46.5026 -5.33126 46.493 -5.37039C46.5765 -5.47148 46.6199 -5.55952 46.6231 -5.63452L46.693 -5.65898C46.6906 -5.70789 46.6785 -5.77637 46.6617 -5.82283L46.7316 -5.85952C46.734 -5.90599 46.7364 -5.96713 46.7316 -6.0136C46.7533 -6.02093 46.7822 -6.03072 46.8015 -6.03561L46.7966 -6.11142C46.7412 -6.16033 46.681 -6.20191 46.6303 -6.25327H46.6617C46.693 -6.25816 46.734 -6.25816 46.7653 -6.25327H46.7918L46.8159 -6.24838L46.8786 -6.2337L46.9075 -6.22881C46.9413 -6.21903 46.9846 -6.20436 47.0184 -6.19947C47.9367 -6.153 48.0789 -6.14566 48.062 -6.44648C48.5152 -6.68452 48.7329 -6.83207 48.7152 -6.88914L48.761 -6.95517C48.9128 -6.96495 49.0406 -6.97229 49.1683 -6.97963L49.2382 -7.01631C49.2479 -7.05789 49.2455 -7.12148 49.231 -7.16061V-7.16305Z" fill="#EFEFEF"/>
<path d="M36.8616 34.2956L36.3289 34.4571L35.5383 34.6869L35.0828 34.5524L34.3766 34.1758L34.2368 33.716C34.1621 33.5179 34.0898 33.3174 34.0151 33.1168L33.9066 32.2975C33.8439 32.1263 33.7837 31.9576 33.721 31.7864L33.3281 31.4905L32.7232 31.4147L31.9904 31.7742L31.4168 31.8671L30.9275 32.3465L30.4382 32.2388L30.6841 31.7864C30.6166 31.6054 30.5491 31.4269 30.484 31.2459L30.5033 30.8571V30.231C30.4286 30.028 30.3563 29.8274 30.284 29.6244L30.5322 29.2478L30.4286 28.7734L30.1104 28.6927L29.2861 29.1035L28.7896 29.419L28.7173 29.935L28.7294 30.6638L28.6932 31.3413L28.2762 31.5932L27.7171 32.0505L27.0976 32.4345L26.6373 32.1484L25.9817 32.097L25.6057 31.7057L24.9886 31.2532L24.3692 30.2725L24.0029 29.5266L24.0583 28.7954L23.9522 28.0323L23.434 27.4331L23.6943 26.5038L24.0944 26.2837L24.3885 25.7285L24.6681 25.1122L25.2803 24.941L25.7479 24.9092L26.0347 24.6084L26.4444 24.8848C26.6132 24.8114 26.7819 24.7405 26.9506 24.6671L27.3362 24.4666L27.1531 24.1975L27.1434 23.6522L27.758 23.3611L28.1678 23.1239L28.9993 22.8916L29.4476 23.1899C29.5344 23.1557 29.6187 23.1215 29.7055 23.0872L29.8043 22.7766L30.0164 22.6274L30.5057 22.8451L30.9998 23.1679C31.0553 23.3416 31.1107 23.5152 31.1661 23.6889L31.465 23.9163L31.6578 24.222L32.0001 24.3663L32.2628 24.6793L32.6436 24.7405L32.8003 25.1318L33.1233 25.1147L33.2076 24.7747L33.2173 24.2929L32.8774 23.8356L32.4484 23.1068L31.8482 22.5443C31.7518 22.2386 31.6578 21.9353 31.5638 21.6296C31.5445 21.297 31.5855 20.7965 31.6867 20.128L32.123 19.7318L32.552 19.0103L32.9931 18.4283L33.4607 18.0345L33.4342 17.6212L33.774 17.247L33.2293 16.7261L32.8798 16.5304L32.8967 16.144L32.5689 15.9117L32.9208 15.5717L33.4077 15.9043L33.48 15.381L33.5957 14.9041L33.7861 14.5617L33.8005 13.6421C34.0633 13.5541 34.326 13.4685 34.5887 13.3829L35.0033 12.9451L35.5697 12.703L35.3214 12.4217L35.0876 11.7565L35.3359 11.1206C35.4901 11.0717 35.6444 11.0228 35.8011 10.9763L35.8565 10.6437L36.4711 10.4823L36.9315 10.0299L37.1508 9.53831L37.7967 9.29619C38.1752 9.25461 38.2113 9.24972 38.4933 9.22282C38.503 9.27418 38.515 9.34021 38.5246 9.39157C38.2089 9.54564 37.9582 9.61901 37.7076 9.68994C37.4633 9.99809 37.3926 10.2541 37.4955 10.4579L37.8932 10.5533L38.1559 10.1889L38.3632 9.95651L38.8139 9.68749L39.255 9.30597L39.7394 9.06141L39.9901 8.51602L40.2841 8.10515L40.2142 7.73831L39.7153 8.00977L39.5297 8.64075L38.9055 8.8413L38.3077 8.7557L37.6353 8.5307L37.1315 7.96575L37.5075 7.50352L37.3002 6.99972L36.5772 7.15624L35.8782 7.57689L35.1623 8.25189L34.555 9.21303L34.0223 9.82689L34.1645 9.36466L34.4393 8.83151L34.6321 8.55271C34.6321 8.55271 34.4826 8.43776 34.7574 8.35217L34.8466 7.94619L35.1985 7.48885L35.7287 7.30053L35.8252 6.84809L36.2277 6.56928C36.4615 6.50081 36.6953 6.43233 36.9291 6.36385L38.1824 5.98722L38.8645 5.90407L39.3586 5.7451L39.4815 5.6057L39.7466 5.30733L40.0311 4.77662L40.8072 4.50515L41.1663 4.26793L41.3085 4.0307L40.9855 3.91086L41.0747 3.69075L40.9421 3.30923L40.342 3.3826L40.1395 3.19184C39.9298 3.2432 39.7225 3.297 39.5128 3.35081L39.1127 3.69564L38.8549 3.95977L38.5463 3.94265L38.5512 3.64918L39.0645 3.34591L39.6888 3.04021L39.8961 2.74918L39.455 2.83722L38.9513 2.77608L38.3342 2.79564L37.8835 2.63423L37.3822 2.48994L37.1339 2.30407L37.3557 2.19646L37.3701 2.01059L36.8423 1.722L36.2325 1.42363L35.3286 0.870915L34.996 0.601892L34.6947 1.1595C34.7405 1.28423 34.7863 1.40896 34.8321 1.53369L34.3862 1.81738L34.1645 2.172L33.6873 2.29428L33.5017 2.08396L33.1305 1.99836L32.6894 2.22581V1.76358C32.6267 1.58015 32.5689 1.39673 32.5135 1.2182L32.3954 0.939393L31.8362 1.09591L31.3469 1.02499L30.86 0.853796L30.0815 0.765752L29.8742 0.998089L29.2789 1.17907L29.0065 1.15216C28.7872 1.22798 28.5679 1.30624 28.3485 1.38206L28.122 1.68532L28.4329 1.90543L28.4208 2.35053L28.5558 2.60244L28.8692 2.9057C28.7511 2.94727 28.633 2.98885 28.5124 3.03287L28.6185 3.38994L28.4353 3.68097L28.78 3.73722L29.3078 3.84727L29.5585 4.28994C29.6043 4.47581 29.6501 4.66412 29.6983 4.85244L29.4524 5.37091L29.0499 5.85271L28.3967 6.16086L28.8884 6.52771C28.9391 6.74048 28.9921 6.95814 29.0451 7.17581L29.3295 7.48151L29.2958 7.83124L29.0885 8.32037L28.4474 8.63342L27.9364 8.22255L27.3676 7.91928C27.3386 7.78477 27.3097 7.65271 27.2808 7.52064L27.0301 7.01195L27.0133 6.52771L26.1817 6.74782L25.5767 6.96304L25.2345 6.92635L24.456 7.07064L24.1306 6.91412L23.4509 6.88233L22.7543 6.84564L21.9228 7.39347L21.6938 7.18803L21.2937 6.66956L20.8671 6.67689L20.5875 6.53505L20.6478 5.68885L21.0286 4.92091L21.4118 4.23124L21.918 3.82526L22.306 3.39238L22.1349 3.18695L21.5131 3.34102L21.6263 3.19184L22.294 3.04021L22.5928 2.85434L22.6531 2.5364L23.2075 2.45814L23.5304 2.26494L23.5425 2.02771L23.7425 1.85162L23.839 1.50923L23.4533 1.63151L22.9544 1.80026L22.7712 1.70977L22.2144 1.76358L22.5928 1.61928L23.1978 1.49456L23.6076 1.43586L24.0077 1.16195L24.2656 0.785316L23.9667 0.689937C24.1017 0.636132 24.2342 0.582328 24.3692 0.528523L24.6271 0.623903L24.4367 0.917382L24.2776 1.38695C24.2873 1.55081 24.2993 1.71711 24.3138 1.88586L23.904 2.16956L24.039 2.34809L24.4873 2.18668C24.4945 2.2576 24.4994 2.32852 24.5066 2.39945C24.8006 2.3114 25.0417 2.11086 25.2297 1.79782L25.8009 1.59727L26.1118 1.51901L26.4372 1.51412C26.5891 1.45787 26.7409 1.40162 26.8927 1.34537V1.04945L26.4348 1.14483L26.1769 0.878252L25.637 1.047L25.1911 0.936948L24.7934 1.01765C24.7886 0.951621 24.7838 0.885588 24.779 0.822001L25.1477 0.731513L25.2947 0.528523L25.2345 0.389121C25.3767 0.332871 25.5213 0.279066 25.6635 0.222816L25.8009 -0.063324L26.1817 -0.435063L26.2974 -0.6674L26.0564 -0.782347L25.8298 -1.02936L26.1962 -1.21767L26.283 -1.49403L25.9841 -1.62121L25.5936 -1.59919H25.1043C25.2851 -1.66767 25.4659 -1.73615 25.6491 -1.80463L25.7045 -1.94648L26.1046 -2.06876L26.43 -2.05164L26.8711 -2.23017L27.2663 -2.43561L26.9048 -2.53099L27.129 -2.65571L27.5194 -2.54077L27.9267 -2.65327L28.1388 -2.47963L28.4474 -2.54077L28.6546 -2.42093L29.0017 -2.44294L29.2307 -2.27664L29.6284 -2.31088L30.002 -2.1837L30.1466 -1.92447L29.7682 -1.46957L29.4549 -1.02691L29.7393 -0.794575L29.0499 -0.486422L28.6595 -0.425281C28.5269 -0.378813 28.3967 -0.332346 28.2642 -0.288324L27.8231 0.144556C27.84 0.237491 27.8569 0.332871 27.8761 0.428251L28.4811 0.291296L28.9559 0.107872L29.0403 -0.0926723L29.2331 -0.251639L29.5537 -0.305444L30.1562 -0.373922L30.8166 -0.168488L30.9974 0.00759888L31.4192 0.166567C31.5831 0.115208 31.747 0.0614037 31.9109 0.0100451L32.5472 0.213034L33.3233 -0.00218296L33.8825 0.0124903L33.8512 -0.222292L32.875 -0.427727L32.4653 -0.518215L32.2266 -0.677183L32.8268 -0.647835L33.8536 -0.581803L34.3983 -0.520661C34.3573 -0.62827 34.3139 -0.735879 34.273 -0.841042L34.4296 -1.19811L33.9235 -1.24457L33.6632 -1.63832L33.01 -1.61142L32.1158 -1.92202L32.2965 -2.13724L32.4821 -2.33289L33.5981 -2.1299L34.0536 -1.91468L34.4778 -1.98071L34.4441 -2.36957L34.8779 -2.63126L34.8827 -2.79023C34.9912 -2.81957 35.0997 -2.84892 35.2081 -2.87827L35.2708 -3.07148L35.1358 -3.29158C34.9213 -3.23533 34.7092 -3.17664 34.4947 -3.1155C34.4754 -3.15463 34.4585 -3.1962 34.4393 -3.23533L33.9669 -3.32093L33.6824 -3.27447H33.2269C33.1209 -3.24512 33.0172 -3.21332 32.9112 -3.18398L32.7569 -3.31849L32.5882 -3.43099C32.4098 -3.37963 32.2339 -3.32582 32.0555 -3.27202L31.8265 -3.22066C31.7976 -3.30137 31.7687 -3.38207 31.7398 -3.46278C31.8651 -3.49947 31.988 -3.5386 32.1134 -3.57528L32.2652 -3.74403L31.735 -3.678L31.7639 -3.79539L31.9904 -3.89322L31.6506 -3.97148L31.2433 -3.92256L31.3397 -4.11332L30.9034 -4.09376L30.4672 -3.94457L30.3683 -4.0424L30.0092 -3.94213L29.8574 -3.92256L30.1153 -4.13289L29.7031 -4.08398L29.2283 -3.8443L28.8571 -3.94457L28.792 -4.04485L28.4883 -3.95436L28.4425 -4.08642L27.9508 -4.02283C27.746 -3.95191 27.5435 -3.88099 27.3386 -3.80762L27.2712 -3.66332L26.9578 -3.52392L26.659 -3.45544L26.5674 -3.27447L26.2685 -3.14974L26.242 -3.32827L26.4131 -3.56305L26.1191 -3.68534L25.9865 -3.83452C25.8105 -3.76849 25.637 -3.70245 25.4611 -3.63398L25.208 -3.38697L24.8464 -3.23533L24.591 -3.03235L24.5162 -2.79512L24.7332 -2.65571L24.5693 -2.4405L24.8778 -2.2693L24.6175 -2.13724L24.2728 -2.25218L24.1836 -2.54077L24.1667 -2.74376L24.4367 -3.06903L24.8103 -3.38941C24.6488 -3.32582 24.4873 -3.26224 24.3258 -3.1962L23.8028 -2.94675L23.2918 -2.48697L22.9472 -1.97582L22.8556 -1.45735L23.3015 -1.58696L23.6172 -1.70436L23.7425 -1.5674L23.3834 -1.46224L22.9978 -1.2299L23.2991 -1.11985C23.4485 -1.18099 23.5955 -1.24213 23.745 -1.30327L23.9715 -1.4549L24.2728 -1.42555L24.8513 -1.51849L24.497 -1.30082L24.4753 -1.07338L24.7307 -1.01713L24.3331 -0.42039L24.1426 -0.0266399L23.8414 0.352437L23.557 0.36711L23.3449 0.0638504L23.5618 -0.254086L23.0484 -0.395933L22.6145 0.058959L22.0771 -0.202726L21.8818 -0.17827L21.9541 -0.454629L21.9132 -0.704085L21.6601 -0.623379L21.6794 -0.848379L21.3251 -0.929085L20.8502 -0.728541L20.7394 -0.540226L20.5249 -0.427727L20.2549 -0.075552L20.3248 0.0809698L20.2332 0.27173L20.5779 0.369556L20.9298 0.379338L20.7731 0.687491L20.3585 0.814665L20.4357 1.05189L20.8093 0.866024L21.2455 0.477165C21.2335 0.577437 21.2214 0.680153 21.2094 0.785316L20.4477 1.42852L20.4598 1.8663L20.0235 1.82716L20.1898 1.44564C20.0934 1.48966 19.997 1.53613 19.9006 1.58015L19.9247 1.29157C20.0139 1.24999 20.1006 1.20841 20.1898 1.16928L20.1778 0.77798L19.5897 0.822001L19.3896 1.19619L19.0257 1.49945L19.5439 1.5557L19.2257 1.88831L19.0835 2.18912L17.9772 2.7663L17.4783 2.83477L17.0951 2.98396L16.6612 2.97173L16.2587 3.36303L15.6585 3.8864L15.7067 4.1432L15.5091 4.69591L15.3283 4.26793L14.8824 4.32173L14.2919 4.7595L13.1591 5.34157L13.2049 5.17037L13.6556 4.76928L13.2145 4.77662L12.8602 5.01385L12.0673 5.28043L11.954 5.17282L11.5876 5.38314L11.349 5.56412L11.1465 5.86005L10.9079 6.07282L10.9441 5.70842L10.5922 6.26358L10.3801 6.38097L10.4548 5.94809L10.2572 6.04102L9.97998 6.49591L9.69075 6.87744L9.41357 7.13912L9.00624 7.59157L8.56275 8.13695L9.0207 7.48885L9.34367 7.14401L9.60157 6.85787L9.79439 6.57662L9.70762 6.62309L9.28824 7.07798L8.79895 7.65271L8.59649 7.84102C8.53624 7.89238 8.47839 7.94619 8.42054 7.99755L7.86618 8.72146L7.58418 8.95624L7.5649 8.76548L7.17926 9.147L7.16721 9.06874L7.02742 9.19347L6.73095 9.58966L6.72613 9.52363C6.65624 9.61168 6.58634 9.69972 6.52126 9.78776L6.42244 9.87825C6.36219 9.9614 6.30675 10.0446 6.25131 10.1277C6.20793 10.1937 6.16454 10.2573 6.12357 10.3209L6.28747 10.0372L6.19347 10.1889L6.08742 10.3698C4.30624 13.6494 4.07726 14.0725 3.01916 16.731C2.60942 17.9318 2.07916 19.497 1.70557 20.7736L1.45731 21.7812C1.47178 21.7348 1.48865 21.6883 1.50311 21.6418L1.56819 21.4119L1.65496 21.1698L1.65978 21.253L1.78752 20.7785L1.77306 20.9546L1.91044 20.5364C1.71039 21.2603 1.13675 23.5348 1.13434 23.5446L1.05721 23.7818L0.924647 24.3908L0.823417 24.8383L0.688442 25.6258L0.693263 25.6674L0.823417 24.9361L0.871622 24.7552L1.01383 24.1217L1.17772 23.4859L1.58024 22.1163L1.71762 21.5513L2.25993 20.0057L2.31296 19.5557L2.61906 18.778L2.92516 17.878L3.15172 17.4427L3.1927 17.5087L2.87937 18.1592L2.70824 18.6777L2.61183 19.1253L3.02639 18.191L3.28188 17.7557L3.32526 17.4744C3.36383 17.2763 3.52531 17.0465 3.64583 16.885L3.73019 17.044L3.86034 17.1076L4.05557 16.9975L4.28936 16.6405L4.42193 16.6331C4.47737 16.5744 4.53521 16.5133 4.59306 16.4522L4.69429 16.6111L4.91603 16.638L4.99798 16.8557C5.11849 16.8043 5.26311 16.6821 5.33542 16.572L5.50172 16.6013L5.57162 16.8508L5.85844 16.731L5.75239 17.1223L6.02475 17.0954L5.92834 17.4622L6.11152 17.4255L6.30916 17.3081L6.28506 17.6652L6.4128 17.9293L6.42244 18.3475L6.48511 18.7046L6.76229 18.5285L6.81772 18.9785L7.10936 19.2255L7.18649 19.5141L7.50224 19.541L7.83003 19.4848L8.11203 19.4138L8.13372 19.5043L8.16988 19.6486L8.54106 19.744L8.83029 19.8492L9.01588 20.4019C9.02552 20.578 9.03757 20.7541 9.05203 20.9302L8.82065 20.7443L8.55311 20.4728L8.48562 20.238L8.18675 20.172L7.9867 20.2062L7.9409 19.7929C7.86618 19.8492 7.78906 19.9054 7.71434 19.9617L7.58901 19.9128L7.52152 19.8859L7.3528 19.9054L7.18649 19.9543L6.98885 20.1622L7.09008 20.3016L7.15757 20.3921L7.37931 20.4459L7.60829 20.5804L8.10239 20.7223L8.2928 21.1331L8.52177 21.6712L8.5507 22.219L8.58685 22.9821C8.61577 23.256 8.64952 23.5323 8.68326 23.8087L8.54106 24.1315C8.56516 24.3125 8.58926 24.4959 8.61577 24.6769L8.90983 25.1073L8.92429 25.7163L9.05685 26.11L9.27859 26.3815L9.37018 26.9562L9.6787 27.2791L10.0547 27.4576L10.4186 28.1326L10.7585 28.2842L10.9248 28.6609L11.2984 28.9739C11.4213 28.8907 11.5442 28.8076 11.6696 28.7244L12.0311 28.8712L12.5349 28.8663L12.9591 29.0937L13.2001 29.5535L13.5134 29.9717L13.9834 30.6981L14.3715 30.8937L14.8535 31.109L15.0463 31.356L14.868 31.7986L15.1669 32.0163L15.6296 32.1361L16.2009 32.2315L16.6034 32.4687L16.6805 32.8282L16.8781 33.041L17.3047 33.0092L17.7796 33.1731L18.1387 33.3321L18.305 33.6744L18.4569 33.4446L18.3532 33.0288L18.0351 32.6644H17.6494L17.4542 32.3049L16.9697 32.185L16.6395 31.7595L16.3262 31.3609L15.8923 31.1823L15.632 30.7543L15.2753 30.7837L14.8897 30.2897L14.3787 29.9815L14.1256 29.3407L14.3907 29.1427L14.8511 29.1157L15.2006 29.3432L15.4079 29.9057L16.0876 30.4119L16.7528 30.7494L17.3168 30.9378L17.7627 31.1921L18.011 31.6299L18.5701 31.6788L19.0666 31.9478L19.5029 32.2878L20.2886 32.6571L20.7177 33.1144L21.1057 33.2318L20.9105 33.5888L20.978 33.985L21.7806 34.2076L22.4506 34.4008L23.1327 34.3054L23.9257 34.4081L24.8031 34.4008L25.8009 34.4546L26.5505 34.3494L26.9626 34.122L26.9988 33.8212L27.4592 33.5424L28.1147 33.5986L28.9101 33.8407L29.4018 34.1196C29.5633 34.0486 29.7272 33.9777 29.8911 33.9092C29.9538 33.8823 30.0188 33.8554 30.0815 33.8261H30.3997L30.8745 34.1489L31.5542 34.1098L31.465 33.7992L31.8651 33.8432L32.3857 34.2174C32.9087 34.5011 33.2438 35.0024 33.6848 35.3791L33.8849 35.1614L34.2802 35.2128L34.9213 35.5062C35.4226 35.675 35.9408 35.5552 36.4494 35.6065L36.9604 35.653L36.7627 35.1883L36.8712 34.8068L37.6618 34.5891L37.8498 34.8606L38.086 34.7432V34.3054L37.6835 34.0388C37.4159 34.1342 37.1484 34.2296 36.8833 34.3274L36.8616 34.2956Z" fill="#EFEFEF"/>
<path d="M82.7022 31.4709C82.6926 30.8571 82.6348 30.1649 82.3913 27.2081C82.3744 27.0125 82.3672 26.9318 82.3576 26.8486C82.2804 26.1223 81.8201 22.3046 80.3884 18.4772C80.345 18.3793 80.3378 18.3696 80.3305 18.3573C80.2775 18.416 80.2703 18.4038 80.2607 18.3916L79.7328 17.4842C79.0483 17.1565 78.9639 16.369 78.5229 15.8554C78.612 16.3372 78.8169 16.7823 78.9374 17.2543C78.8338 17.313 78.8073 17.2959 78.7808 17.2788C78.5542 17.0831 78.4867 16.7848 78.3156 16.5524C78.0842 16.3959 77.9299 16.3103 77.7684 16.2272C77.137 14.8331 75.4908 14.1043 75.3341 12.3997L75.4763 12.3606C75.4136 11.9742 74.9533 11.7565 74.9484 11.7565C74.4519 11.7125 74.1547 11.6815 74.0566 11.6636C74.0398 11.7052 74.0157 11.7639 73.9988 11.8054C73.953 11.8103 73.8952 11.8201 73.8494 11.825C73.4091 11.3587 73.095 11.2185 72.907 11.4043C72.8588 11.3994 72.7961 11.3921 72.7479 11.3848L72.7165 11.5413C72.4683 11.5168 72.22 11.4679 71.9645 11.4215C71.9766 11.5853 72.0079 11.7467 72.0152 11.9106C71.9838 11.9424 71.9404 11.9815 71.9067 12.0133C71.6255 11.9481 71.4399 11.9505 71.3499 12.0206C71.3234 12.0158 71.2969 12.0133 71.268 12.0084C70.4517 11.7019 69.9889 11.5136 69.8797 11.4435C69.8339 11.5975 69.805 11.6978 70.0653 12.4046C69.8869 12.4715 69.6852 12.4845 69.4603 12.4437C69.5736 12.769 69.6844 13.0967 69.7929 13.4269C69.576 13.4073 69.3566 13.3902 69.1349 13.3755C69.2675 13.9331 69.3494 14.503 69.4772 15.063C69.5374 15.2758 69.576 15.4177 69.617 15.5595C69.441 15.5473 69.2626 15.5375 69.0819 15.5277C69.1831 16.0217 69.1952 16.2149 68.9059 16.303C68.8706 16.4253 68.7163 16.55 68.4432 16.6772C68.4094 17.4573 68.1298 18.1935 68.0696 18.9687C68.0246 18.9606 67.8607 18.972 67.5779 19.003C67.8792 20.3334 67.8334 20.3603 67.3899 20.6196L67.3754 20.7932C67.3923 20.9717 67.4188 21.116 67.4429 21.2628C67.6646 21.297 67.9298 21.3223 68.2383 21.3386C68.3178 21.4658 68.3323 21.681 68.3395 21.8302C68.2945 21.9068 68.35 22.4962 68.5058 23.5984C68.5179 23.6815 68.5275 23.7671 68.5372 23.8503C68.5854 24.1046 68.5589 24.156 68.4745 24.3272L68.3275 24.3443C68.2793 24.4503 68.3411 24.7698 68.5131 25.303C68.5347 25.4571 68.542 25.5402 68.5516 25.6258C68.6721 26.6212 69.9713 27.6875 70.1665 27.6777C70.246 28.497 70.3111 29.1451 71.2487 29.2429C71.3065 29.3424 71.3403 29.5992 71.3499 30.0133C71.8006 30.3826 72.0465 31.0062 72.6973 31.1261C72.8226 30.9304 72.8371 30.9011 72.8612 30.6639C73.0516 30.5465 73.242 30.6687 73.4348 30.6639C73.5264 30.6541 73.5577 30.659 73.5891 30.6639C73.6999 30.672 73.8614 30.6891 74.0735 30.7152C74.3362 31.1334 74.4254 31.2753 75.1075 31.0062C75.1557 30.8399 75.1822 30.747 75.4715 30.5171C75.6498 30.553 75.8033 30.6092 75.9318 30.6859C76.009 30.7054 76.0306 30.7103 76.0547 30.7152C76.1945 30.5342 76.3681 30.3068 76.7682 30.5513C76.8863 31.4 77.043 31.8255 77.043 31.828C77.4816 31.9918 77.807 32.1019 78.1155 32.2193C78.0938 32.4736 78.0697 32.728 78.0432 32.9823C77.8504 33.7723 77.7202 34.5769 77.5539 35.3717C77.5081 35.3864 77.4479 35.406 77.3997 35.4206C77.3828 35.4671 77.3611 35.5283 77.3442 35.5747C77.5491 35.9709 77.3973 36.4478 77.6214 36.8416C77.6552 36.8562 77.6889 36.8709 77.7226 36.8856C77.6913 36.888 77.6648 36.8929 77.6528 36.8929C78.0336 37.6022 77.5081 40.3046 77.4672 40.3975C77.4238 40.5418 77.3997 40.6201 77.378 40.7008C76.9811 42.2073 76.5095 43.3902 75.9632 44.2494C75.2594 45.3524 75.2907 46.6682 74.9533 47.8763C74.8761 48.1503 74.7363 48.4022 74.6664 48.681C74.4784 49.0625 74.2856 49.4416 74.088 49.8182L72.2634 53.9856C72.2056 54.081 72.1815 54.1152 72.1598 54.1494C71.8561 54.4282 71.6986 54.6223 71.6874 54.7315C71.7091 54.7486 71.7259 54.7584 71.7404 54.7682C71.5492 55.0291 71.4311 55.2459 71.3861 55.4187C71.4656 55.4872 71.5355 55.5386 71.603 55.5899C71.6994 55.5581 71.791 55.5117 71.8874 55.4799C72.0344 55.5484 72.1092 55.6193 72.1767 55.6926C72.2996 55.5753 72.4032 55.4408 72.5189 55.316C72.8925 55.4603 73.8421 54.3378 73.8518 54.328C74.5242 53.516 75.0955 52.6234 75.833 51.8677L75.9077 51.9239C76.1271 51.7552 76.5368 51.3321 76.5392 51.3296C77.0815 50.5323 77.3274 49.5712 77.9107 48.7984C78.8731 47.5201 79.3664 46.8557 79.3905 46.8052C79.4387 46.6951 79.487 46.585 79.5327 46.475C79.6292 46.2516 79.6983 46.0755 79.74 45.9467C79.9449 45.438 80.1184 44.9954 80.2823 44.5503C80.4559 43.7285 80.8078 42.9606 80.991 42.1437C81.0199 42.0386 81.0295 42.0019 81.0416 41.9628C81.15 41.6033 81.3043 41.2633 81.432 40.9111C81.4369 40.8916 81.4441 40.85 81.4513 40.7986C81.4513 40.8133 81.4561 40.8255 81.4585 40.8402C81.9438 39.2489 82.2097 38.2959 82.2563 37.9812L82.2853 37.7807C82.413 36.5285 82.601 34.863 82.6661 33.606V33.6011C82.6709 33.4494 82.6781 33.2489 82.683 33.0973C82.691 32.7826 82.6966 32.441 82.6998 32.0725C82.6998 31.9552 82.6998 31.8549 82.6998 31.7571V31.4685L82.7022 31.4709Z" fill="#EFEFEF"/>
<path d="M60.8388 37.2916C60.8123 37.2255 60.7496 37.135 60.593 37.0788C60.4098 37.1008 60.2579 37.1228 60.1037 37.1424C59.6457 37.0706 59.3581 36.831 59.2408 36.4234C59.2191 36.4136 59.1926 36.3989 59.1733 36.3891C59.0986 36.3989 58.9901 36.4185 58.8527 36.4454C58.9564 36.4185 59.0576 36.3965 59.1588 36.3818L58.8817 36.1812C58.7612 36.1682 58.6792 36.1674 58.6358 36.1788C58.5563 36.2008 58.5081 36.2815 58.4285 36.3035C58.2285 36.3353 58.0284 36.3696 57.8284 36.4038C57.6356 36.4282 57.5416 36.2375 57.3753 36.1984C57.2427 36.169 57.1053 36.2155 56.9294 36.2766C56.9511 36.4625 56.9535 36.509 56.9583 36.6484C56.4762 36.7462 56.4136 36.5872 56.3678 36.4723C56.3774 36.4511 56.4586 36.3516 56.6112 36.1739L56.5461 36.0614C56.3244 36.0907 56.0255 35.9758 55.9339 35.8609C55.8905 35.8054 55.7058 35.7573 55.3796 35.7166C55.3338 35.7239 55.3 35.7312 55.2663 35.7386C54.9369 35.6522 54.7545 35.613 54.7192 35.6212C54.6685 35.6359 54.6613 35.6383 54.5721 35.675C54.5673 35.8853 54.5962 36.0785 54.6252 36.2742C54.4854 36.3035 54.3456 36.3329 54.2034 36.3598C54.1913 36.2791 54.1793 36.1959 54.1648 36.1152C54.1648 35.9391 54.2684 35.741 54.4179 35.6212C54.4179 35.5649 54.4106 35.4891 54.401 35.4329C54.1865 35.3766 53.9623 35.3619 53.7502 35.2861C53.6779 35.2935 53.6394 35.3008 53.6032 35.3106C53.5719 35.3179 53.5381 35.3253 53.5068 35.3302C53.22 35.4598 53.4321 35.9929 53.0561 36.0003C53.0416 35.9196 53.0272 35.8364 53.0151 35.7557C53.0199 35.6994 53.0127 35.6236 53.0006 35.5674C53.3236 35.1842 53.4144 34.7489 53.273 34.2614C53.1814 34.2394 53.0898 34.2687 52.9958 34.2565C52.8777 34.0658 52.8367 33.8407 52.7958 33.6182C52.6825 33.4666 52.6536 33.2611 52.4873 33.1462C52.468 33.0166 52.4656 33.0117 52.3595 32.9138C52.3354 32.9204 52.1498 32.8894 51.8027 32.8209C51.7545 32.7427 51.7184 32.6522 51.6605 32.5812C51.4436 32.5763 51.3858 32.503 51.3376 32.4369C50.9969 32.4206 50.7679 32.3946 50.6506 32.3587C50.3614 32.2364 50.2481 32.5739 50.0192 32.6081C49.9155 32.6301 49.8577 32.6448 49.7974 32.6595C49.1225 32.6228 48.7827 32.6057 48.4115 32.2829C48.2693 32.1606 48.3392 31.9282 48.1753 31.8157L47.4787 31.6372C47.3365 31.3731 46.9461 31.3535 46.8786 31.016C46.84 31.0258 46.8039 31.0356 46.7653 31.0454C46.558 31.1603 46.4062 31.3731 46.1459 31.3927C46.0993 31.3454 46.0358 31.1937 45.9555 30.9378C45.9964 30.9157 46.0495 30.8888 46.088 30.8668C46.2302 30.659 46.0784 30.5709 45.6325 30.6052C45.5626 30.6907 45.471 30.8081 45.4011 30.8937C45.3818 30.8986 45.3625 30.906 45.3409 30.9109C44.989 30.813 44.8805 30.9084 44.8612 30.928C44.6901 31.1163 44.8781 31.3731 44.7455 31.5687C44.4876 31.9478 44.1454 31.3119 43.8103 31.3242C43.5573 31.3902 43.3669 31.4465 43.174 31.5052C43.0616 31.4856 42.929 31.484 42.7763 31.5003C42.6968 31.3829 42.6606 31.2606 42.6245 31.1383C42.2461 31.2606 41.8773 31.0454 41.5013 31.0967C41.4459 31.2801 41.523 31.4709 41.4748 31.6568C41.2747 31.7497 40.8578 31.9405 41.0819 32.3122C41.0843 32.3171 41.3712 33.019 41.3615 33.1168C41.1735 33.134 40.113 32.0603 40.8578 31.1187L40.812 30.972C40.73 30.9989 40.6457 31.0258 40.5637 31.0527C40.3179 31.2011 40.248 31.4138 40.354 31.691C40.1395 31.7595 39.9274 31.8304 39.7129 31.9013C39.349 32.1679 39.132 32.6179 38.6669 32.7598C38.7247 32.9994 38.8018 33.2293 38.879 33.4617C38.8468 33.5399 38.6885 33.6834 38.4041 33.8921C38.609 34.3812 38.4041 34.6331 38.1679 34.9242C38.1848 35.1027 38.1438 35.2812 38.1824 35.4598C38.2692 35.4549 38.3535 35.4353 38.4403 35.4231C38.9248 36.4087 39.5273 37.634 38.756 38.0179L38.7657 38.2185C38.8886 38.2967 38.8934 38.3138 38.932 38.4239C38.8283 38.5437 38.8187 38.5584 38.691 38.7418C38.7102 38.8152 38.7343 38.913 38.7512 38.9864C38.4861 39.1796 38.3391 39.2872 38.5198 39.791C38.3993 39.9109 38.2523 39.9647 38.1053 40.0209C38.3077 40.3951 38.286 40.8769 38.6452 41.1753C38.8091 40.9674 38.8187 40.9674 39.0332 40.9258C39.1248 40.9869 39.1537 41.0628 39.1826 41.1386C39.1923 41.4027 38.8886 41.4076 38.8115 41.5984C38.8235 41.6253 38.8404 41.6619 38.8549 41.6888C38.891 41.6937 38.9296 41.6962 38.9657 41.7011C38.9344 41.7133 38.9006 41.7255 38.8693 41.7353C38.879 41.7818 38.891 41.8405 38.9031 41.8869C38.703 42.1682 38.5439 42.3907 38.9633 42.6818C39.0838 42.7894 39.0983 42.8285 39.1152 42.8652C39.2863 43.303 39.3176 43.3812 39.6165 43.2932C40.1877 43.1244 41.3085 44.6138 41.3157 44.631C41.3591 44.7459 41.3928 44.8291 41.4242 44.9147C42.2027 45.6288 42.7089 46.6095 43.6103 47.2062L46.3965 48.2016C46.5845 48.5562 46.7002 48.9329 46.8159 49.3046C46.8352 49.4562 46.8858 49.6005 46.9123 49.7497L46.9437 49.8549C46.9678 49.9013 46.9991 49.96 47.0232 50.0065C47.0714 50.1215 47.0786 50.1435 47.0835 50.163C47.0859 50.3513 47.1437 50.5299 47.1654 50.7157C47.1799 50.7598 47.1919 50.8038 47.2064 50.8478C47.2329 50.8869 47.2666 50.9383 47.2907 50.9774C47.3293 51.1095 47.3341 51.1291 47.3414 51.1486L47.3727 51.2513C47.3462 51.4519 47.3462 51.4543 47.4667 51.6769C47.5366 51.7821 47.5486 51.8163 47.5583 51.8505C47.5679 51.8848 47.58 51.919 47.5896 51.9533C47.621 52.8728 47.8379 53.7728 47.8355 54.6948C47.8547 54.7584 47.862 54.7804 47.8668 54.8C48.4003 55.9853 48.6043 56.7891 48.479 57.2114C48.4886 57.3288 48.5103 57.3899 48.5296 57.4511C48.9418 58.3682 48.5634 59.4859 49.2503 60.332C49.2816 60.3712 49.325 60.425 49.3563 60.4641C49.2021 60.9019 49.3226 61.1685 49.4528 61.3128C49.6142 61.347 49.6649 61.3299 49.7179 61.3128L49.4817 60.5595C49.5467 60.5375 49.6118 60.5155 49.6769 60.4959C49.7058 60.5791 49.7347 60.6622 49.7637 60.7454L49.7227 60.8897C49.7637 61.1367 49.8143 61.2785 49.8673 61.4204C49.8593 61.4595 49.9324 61.7505 50.0866 62.2935C50.065 62.291 50.0384 62.2861 50.0192 62.2837L49.8962 62.203C49.8625 62.1076 49.8528 62.0831 49.8408 62.0562L49.7781 61.9242C49.7781 61.9242 49.7781 61.9291 49.783 61.9413C49.7444 62.044 49.7757 62.1223 49.8071 62.2005C49.9581 62.3065 50.0746 62.4639 50.1565 62.6725L50.1156 62.6652C50.0409 62.6212 49.9541 62.5356 49.9083 62.4622C49.8697 62.5747 49.9011 62.6505 49.9324 62.7263C49.8962 62.8095 49.889 62.944 49.9083 63.0321C49.9975 63.0418 50.1132 63.0712 50.1975 63.0981C50.2047 63.1837 50.2385 63.2986 50.2795 63.3744C50.3638 63.3891 50.4699 63.4454 50.5277 63.509C50.4458 63.6288 50.3373 63.7291 50.2771 63.866C50.2891 63.9052 50.2939 63.9174 50.3012 63.9296C50.347 64.0054 50.4169 64.1008 50.4747 64.1693C50.5422 64.2671 50.547 64.2769 50.5518 64.2891C50.5783 64.5581 50.8145 64.7293 50.87 64.9861L50.923 65.0644C50.9688 65.0302 50.9905 65.0228 51.0122 65.0155C51.0941 65.2429 51.111 65.2649 51.2146 65.3823C51.4484 65.6196 51.7642 66.05 51.7666 66.05C51.8437 66.0793 51.9329 66.1576 51.9715 66.231C52.0124 66.2432 52.0679 66.2603 52.1088 66.2725C52.2342 66.3019 52.2438 66.2995 52.2511 66.297C52.386 66.3239 52.4487 66.3043 52.5114 66.2872C52.5379 66.2016 52.5885 66.094 52.6319 66.0158L52.5065 65.9448C52.3716 65.8984 52.3619 65.8494 52.3499 65.7981C52.1522 65.7003 52.1498 65.4777 52.0486 65.3163C52.0293 65.2405 52.0245 65.2185 52.0197 65.1965C51.9474 64.9975 51.8831 64.8565 51.8269 64.7734C51.81 64.656 51.8052 64.6315 51.7979 64.6095C51.7401 64.4677 51.7208 64.3894 51.6991 64.3111L51.6678 64.1619C51.7208 64.1204 51.7811 64.1008 51.8389 64.0837C51.7931 63.9076 51.6822 63.4943 51.9907 62.7948C51.9811 62.7435 51.9691 62.6897 51.9594 62.6383L51.8172 62.6677C51.6871 62.5209 51.5135 62.4133 51.4171 62.2323C51.3882 62.1247 51.381 62.1003 51.3737 62.0734C51.3834 61.9804 51.4099 61.8606 51.4388 61.7725C51.5955 61.6796 51.6871 61.6527 51.7762 61.6258C51.7449 61.4742 51.7136 61.3201 51.6822 61.166C51.6983 61.0812 51.6999 60.835 51.6871 60.4274C51.7714 60.4054 51.8775 60.3467 51.9401 60.2856V60.1315C51.9353 60.1022 51.9305 60.0728 51.9233 60.041C51.8365 60.0508 51.7208 60.0924 51.6461 60.1388C51.6172 60.0834 51.5633 59.9367 51.4846 59.6986C51.4653 59.6081 51.4484 59.5177 51.4292 59.4272C51.4581 59.4174 51.4894 59.41 51.5183 59.4003C51.6027 59.4272 51.7087 59.4834 51.7786 59.5372C51.8871 59.5054 51.998 59.4761 52.1064 59.4443L52.0848 59.2975C52.0606 59.2389 52.0558 59.2071 52.051 59.1777C52.0333 58.8223 52.0148 58.6225 51.9956 58.5785C51.9546 58.4269 51.945 58.356 51.9329 58.285C52.0221 58.2606 52.1113 58.2361 52.2004 58.2117C52.2944 58.1628 52.333 58.1505 52.3716 58.1407C52.4125 58.1163 52.468 58.0845 52.5114 58.0625C52.6849 57.9622 52.7789 57.9378 52.8729 57.9157L53.0175 57.9451C53.1139 57.5513 53.3212 57.1967 53.4176 56.803C53.4321 56.6049 53.4249 56.5071 53.4176 56.4068L53.3574 56.4215C53.2875 56.3481 53.2802 56.2821 53.2754 56.2185C53.2642 56.1369 53.1091 55.9486 52.8102 55.6535C52.8825 55.5312 52.9693 55.5117 53.0537 55.4897C53.4506 55.5223 53.9222 55.2622 54.4685 54.7095C54.9337 54.2399 54.2034 53.3302 54.9626 53.0269C54.9401 53.2503 54.9401 53.3946 54.9626 53.4598C56.0496 52.4473 55.5218 51.0068 55.9002 49.8084C56.1388 49.5247 56.2256 49.1432 56.4811 48.8717C56.6088 48.8473 56.7341 48.8228 56.8595 48.7984C56.882 48.7837 56.9864 48.6361 57.1728 48.3557C57.5319 48.2505 57.8501 48.1943 58.1682 48.1405C58.1956 47.8812 58.2333 47.741 58.2815 47.7198C58.4213 47.6587 58.8817 46.6144 58.8841 46.6071C58.905 46.3674 58.9218 46.2141 58.9347 46.1473C58.9853 45.8905 59.2263 45.7095 59.2191 45.4282C59.2191 45.3696 59.2673 44.6897 59.2673 44.6872C59.2673 44.6334 59.2673 44.5943 59.2673 44.5552C59.342 44.3424 59.4674 43.9829 59.4625 43.6552C59.4625 43.55 59.4625 43.4913 59.4625 43.4302C59.4529 43.3323 59.4264 43.2369 59.4192 43.1391C59.4192 43.0486 59.4192 42.9581 59.4192 42.8676L59.4023 42.7894C59.3975 42.5179 59.3926 42.2758 59.3902 42.0337C59.8458 41.7965 59.8434 41.2731 60.082 40.9013C60.4411 40.8769 60.6773 40.3413 61.0702 39.1478C61.1393 38.9831 61.1746 38.7932 61.1762 38.578C61.1738 38.4019 60.8364 37.3013 60.834 37.294L60.8388 37.2916Z" fill="#EFEFEF"/>
</svg>
