<svg width="17" height="16" viewBox="0 0 17 16" fill="none" xmlns="http://www.w3.org/2000/svg">
<g clip-path="url(#clip0_1129_135191)">
<path d="M5.26286 2.17718C6.06531 2.18559 6.7066 2.84379 6.70409 3.65498C6.70159 4.45608 6.03943 5.12437 5.247 5.12689C4.45958 5.12941 3.78907 4.45776 3.78322 3.65918C3.77654 2.83454 4.44121 2.16878 5.26286 2.17718ZM5.23865 4.54855C5.73131 4.55275 6.13044 4.15178 6.13211 3.65078C6.13378 3.14641 5.7455 2.75636 5.24115 2.75384C4.73347 2.75132 4.35437 3.13296 4.35354 3.64657C4.35354 4.15598 4.7343 4.54435 5.23865 4.54855Z" fill="#F3F3F5"/>
<path d="M0.707144 2.34998C2.00225 0.242568 4.54402 -0.567782 6.77183 0.416574C9.03054 1.41354 10.1712 3.84122 9.48979 6.24117C9.41548 6.50008 9.51902 6.62197 9.67183 6.77496C11.9372 9.04545 14.1934 11.3269 16.4697 13.5864C16.8437 13.9563 17.1201 14.311 16.9473 14.8247C16.9473 15.0172 16.9548 15.1718 16.9464 15.3248C16.9172 15.8704 16.8513 15.9275 16.321 15.9082C15.7382 15.8863 15.1528 15.8863 14.5708 15.8468C13.5012 15.7737 13.6916 15.9696 13.4093 14.8877C13.3183 14.538 13.1747 14.4052 12.8173 14.3388C11.7051 14.132 11.8712 14.3522 11.6658 13.2275C11.6099 12.9215 11.478 12.8257 11.2007 12.7584C10.0918 12.4886 10.2513 12.6466 10.187 11.6001C10.1812 11.516 10.1603 11.4328 10.162 11.3496C10.1645 11.1688 10.0701 11.1167 9.9048 11.1024C8.86437 11.0091 9.04557 11.0923 8.80258 10.0567C8.79006 10.0021 8.77837 9.94658 8.77336 9.8911C8.75331 9.68095 8.66397 9.58008 8.43184 9.57924C8.0519 9.57756 7.68534 9.47584 7.36553 9.26821C7.18349 9.15053 7.04405 9.17995 6.87036 9.26317C5.99444 9.68347 5.08177 9.81461 4.11483 9.67254C0.724678 9.1749 -1.09314 5.28035 0.707144 2.34998ZM6.61401 8.66969C7.00146 8.4814 7.30958 8.41667 7.68116 8.69576C7.98844 8.92608 8.37338 8.9782 8.75749 8.91515C9.07563 8.86304 9.2752 8.95887 9.30108 9.3094C9.30359 9.35059 9.32697 9.39094 9.32947 9.43129C9.36705 10.1458 9.63425 10.6023 10.4509 10.5106C10.6805 10.4846 10.7874 10.6628 10.7974 10.894C10.8074 11.1176 10.8584 11.3412 10.8459 11.5631C10.8266 11.9145 10.9444 12.1103 11.3151 12.1212C11.4237 12.1238 11.5306 12.1809 11.6399 12.191C12.0566 12.2288 12.2236 12.4684 12.2829 12.8719C12.3923 13.6226 12.4057 13.6654 13.1246 13.7428C13.6707 13.8025 13.8853 14.0656 13.9964 14.5666C14.0448 14.7868 13.9504 15.1769 14.3905 15.1853C14.9608 15.1954 15.5303 15.2206 16.0997 15.2382C16.1774 15.2399 16.301 15.2702 16.296 15.1542C16.2809 14.8112 16.4396 14.4699 16.1098 14.1421C13.735 11.7816 11.3853 9.39598 9.01718 7.02966C8.75832 6.77075 8.6815 6.54799 8.80592 6.18485C9.42299 4.39182 8.78004 2.49288 7.20938 1.37655C5.77316 0.35605 3.65891 0.416574 2.26778 1.56401C1.23905 2.41303 0.668732 3.51507 0.678751 5.22571C0.65871 7.92912 3.88102 9.99366 6.61401 8.66969Z" fill="#F3F3F5"/>
<path d="M5.26286 2.17718C6.06531 2.18559 6.7066 2.84379 6.70409 3.65498C6.70159 4.45608 6.03943 5.12437 5.247 5.12689C4.45958 5.12941 3.78907 4.45776 3.78322 3.65918C3.77654 2.83454 4.44121 2.16878 5.26286 2.17718ZM5.23865 4.54855C5.73131 4.55275 6.13044 4.15178 6.13211 3.65078C6.13378 3.14641 5.7455 2.75636 5.24115 2.75384C4.73347 2.75132 4.35437 3.13296 4.35354 3.64657C4.35354 4.15598 4.7343 4.54435 5.23865 4.54855Z" fill="black"/>
<path d="M0.707144 2.34998C2.00225 0.242568 4.54402 -0.567782 6.77183 0.416574C9.03054 1.41354 10.1712 3.84122 9.48979 6.24117C9.41548 6.50008 9.51902 6.62197 9.67183 6.77496C11.9372 9.04545 14.1934 11.3269 16.4697 13.5864C16.8437 13.9563 17.1201 14.311 16.9473 14.8247C16.9473 15.0172 16.9548 15.1718 16.9464 15.3248C16.9172 15.8704 16.8513 15.9275 16.321 15.9082C15.7382 15.8863 15.1528 15.8863 14.5708 15.8468C13.5012 15.7737 13.6916 15.9696 13.4093 14.8877C13.3183 14.538 13.1747 14.4052 12.8173 14.3388C11.7051 14.132 11.8712 14.3522 11.6658 13.2275C11.6099 12.9215 11.478 12.8257 11.2007 12.7584C10.0918 12.4886 10.2513 12.6466 10.187 11.6001C10.1812 11.516 10.1603 11.4328 10.162 11.3496C10.1645 11.1688 10.0701 11.1167 9.9048 11.1024C8.86437 11.0091 9.04557 11.0923 8.80258 10.0567C8.79006 10.0021 8.77837 9.94658 8.77336 9.8911C8.75331 9.68095 8.66397 9.58008 8.43184 9.57924C8.0519 9.57756 7.68534 9.47584 7.36553 9.26821C7.18349 9.15053 7.04405 9.17995 6.87036 9.26317C5.99444 9.68347 5.08177 9.81461 4.11483 9.67254C0.724678 9.1749 -1.09314 5.28035 0.707144 2.34998ZM6.61401 8.66969C7.00146 8.4814 7.30958 8.41667 7.68116 8.69576C7.98844 8.92608 8.37338 8.9782 8.75749 8.91515C9.07563 8.86304 9.2752 8.95887 9.30108 9.3094C9.30359 9.35059 9.32697 9.39094 9.32947 9.43129C9.36705 10.1458 9.63425 10.6023 10.4509 10.5106C10.6805 10.4846 10.7874 10.6628 10.7974 10.894C10.8074 11.1176 10.8584 11.3412 10.8459 11.5631C10.8266 11.9145 10.9444 12.1103 11.3151 12.1212C11.4237 12.1238 11.5306 12.1809 11.6399 12.191C12.0566 12.2288 12.2236 12.4684 12.2829 12.8719C12.3923 13.6226 12.4057 13.6654 13.1246 13.7428C13.6707 13.8025 13.8853 14.0656 13.9964 14.5666C14.0448 14.7868 13.9504 15.1769 14.3905 15.1853C14.9608 15.1954 15.5303 15.2206 16.0997 15.2382C16.1774 15.2399 16.301 15.2702 16.296 15.1542C16.2809 14.8112 16.4396 14.4699 16.1098 14.1421C13.735 11.7816 11.3853 9.39598 9.01718 7.02966C8.75832 6.77075 8.6815 6.54799 8.80592 6.18485C9.42299 4.39182 8.78004 2.49288 7.20938 1.37655C5.77316 0.35605 3.65891 0.416574 2.26778 1.56401C1.23905 2.41303 0.668732 3.51507 0.678751 5.22571C0.65871 7.92912 3.88102 9.99366 6.61401 8.66969Z" fill="black"/>
<path d="M5.26286 2.17718C6.06531 2.18559 6.7066 2.84379 6.70409 3.65498C6.70159 4.45608 6.03943 5.12437 5.247 5.12689C4.45958 5.12941 3.78907 4.45776 3.78322 3.65918C3.77654 2.83454 4.44121 2.16878 5.26286 2.17718ZM5.23865 4.54855C5.73131 4.55275 6.13044 4.15178 6.13211 3.65078C6.13378 3.14641 5.7455 2.75636 5.24115 2.75384C4.73347 2.75132 4.35437 3.13296 4.35354 3.64657C4.35354 4.15598 4.7343 4.54435 5.23865 4.54855Z" fill="#F3F3F5"/>
<path d="M5.26286 2.17718C6.06531 2.18559 6.7066 2.84379 6.70409 3.65498C6.70159 4.45608 6.03943 5.12437 5.247 5.12689C4.45958 5.12941 3.78907 4.45776 3.78322 3.65918C3.77654 2.83454 4.44121 2.16878 5.26286 2.17718ZM5.23865 4.54855C5.73131 4.55275 6.13044 4.15178 6.13211 3.65078C6.13378 3.14641 5.7455 2.75636 5.24115 2.75384C4.73347 2.75132 4.35437 3.13296 4.35354 3.64657C4.35354 4.15598 4.7343 4.54435 5.23865 4.54855Z" fill="#010101"/>
</g>
<defs>
<clipPath id="clip0_1129_135191">
<rect width="17" height="15.9103" fill="white" transform="matrix(-1 0 0 1 17 0)"/>
</clipPath>
</defs>
</svg>
