<svg width="19" height="14" viewBox="0 0 19 14" fill="none" xmlns="http://www.w3.org/2000/svg">
<path d="M18.3763 2.58531C18.3763 2.32214 18.3743 2.05996 18.2946 1.79878C17.9377 0.626462 17.0864 0.0143842 15.7416 0.0103967C13.2524 0.00341861 10.7622 0.00840295 8.27306 0.00840295C6.39695 0.00840295 4.52184 0.0323278 2.64673 0.000427996C1.12451 -0.0244937 -0.0557818 1.04116 0.0020366 2.6212C0.0648394 4.34479 0.0159928 6.07236 0.0159928 7.79794C0.0159928 7.91458 0.013999 8.03121 0.0259615 8.14585C0.0468957 8.34323 0.18247 8.44092 0.361906 8.44292C0.521406 8.44491 0.654986 8.35021 0.687883 8.18573C0.716792 8.04118 0.711808 7.88966 0.712805 7.74012C0.713801 6.03149 0.711808 4.32186 0.715795 2.61223C0.716792 2.38195 0.732742 2.14868 0.77162 1.9214C0.815482 1.65922 0.927132 1.60639 1.16738 1.78782C2.74343 2.97509 4.32446 4.15538 5.91646 5.32072C6.17764 5.51212 6.11584 5.61779 5.9374 5.80819C5.40507 6.3774 4.88869 6.96257 4.36533 7.54075C3.21993 8.80478 2.07453 10.0688 0.898222 11.3667C0.722773 11.1424 0.722773 10.9411 0.718786 10.7437C0.713801 10.4785 0.710811 10.2124 0.714798 9.94719C0.717789 9.692 0.658974 9.45075 0.367888 9.4358C0.0568644 9.42085 0.013999 9.67206 0.0159928 9.92327C0.0169896 10.1057 0.0269583 10.2891 0.013999 10.4706C-0.0976504 12.0117 1.11155 13.0654 2.57296 13.0614C6.9881 13.0485 11.4032 13.0664 15.8184 13.0514C17.4134 13.0455 18.3733 12.0486 18.3773 10.4516C18.3823 7.82984 18.3793 5.20708 18.3763 2.58531ZM1.72961 1.33025C1.62594 1.2525 1.52924 1.16577 1.39167 1.05213C1.74257 0.805899 2.07353 0.737115 2.42941 0.738112C6.92729 0.740105 11.4252 0.739109 15.923 0.740105C16.0217 0.740105 16.1224 0.743096 16.2211 0.751071C16.4873 0.773002 16.8122 0.820852 16.9 1.05412C16.9608 1.21661 16.6348 1.3462 16.4723 1.47679C14.4048 3.14156 12.3333 4.80135 10.2638 6.46413C9.6298 6.97253 9.29286 6.97951 8.62695 6.48207C6.32717 4.76547 4.02839 3.04886 1.72961 1.33025ZM16.0646 12.3217H2.32474C2.22605 12.3217 2.12138 12.3267 2.02768 12.2998C1.78942 12.234 1.47043 12.1971 1.38569 11.9788C1.31491 11.8004 1.606 11.6489 1.74456 11.4943C3.30965 9.7558 4.8867 8.02822 6.4448 6.2837C6.67707 6.02252 6.82461 5.95373 7.11271 6.21192C7.48254 6.54189 7.90123 6.81702 8.30297 7.1101C9.13436 7.71819 9.86108 7.69726 10.6586 7.05827C11.0075 6.77815 11.3773 6.2837 11.7153 6.30264C12.0412 6.32058 12.3453 6.86687 12.6473 7.19185C13.9901 8.6393 15.3279 10.0907 16.6677 11.5422C16.7903 11.6748 16.9069 11.8133 17.0345 11.9589C16.7435 12.2171 16.4245 12.3217 16.0646 12.3217ZM17.4931 11.3518C17.4183 11.289 17.3655 11.2531 17.3236 11.2072C15.7277 9.47966 14.1337 7.7491 12.5337 6.02551C12.3662 5.84607 12.2745 5.74938 12.5357 5.54402C14.0958 4.31388 15.6439 3.0668 17.1851 1.81274C17.4353 1.60938 17.524 1.64626 17.6048 1.94034C17.6586 2.13772 17.6626 2.3331 17.6636 2.53048C17.6656 5.19711 17.6646 7.86473 17.6646 10.5324C17.6646 10.7975 17.6666 11.0617 17.4931 11.3518Z" fill="black"/>
</svg>
