<svg width="49" height="38" viewBox="0 0 49 38" fill="none" xmlns="http://www.w3.org/2000/svg">
<path d="M49 34.9102C32.6653 25.2739 16.3347 44.5504 0 34.9102V2.78264C16.3306 12.4229 32.6653 -6.85362 49 2.78264V34.9102Z" fill="#012169"/>
<path d="M49 31.3028C42.4995 23.316 35.999 19.9091 29.4985 17.4349C35.999 11.606 42.4995 6.70976 49 6.39348V2.78239C47.8318 2.0938 46.6595 1.54933 45.4913 1.13698C38.4942 3.12268 31.4971 9.65628 24.5 16.1899C17.5029 13.7838 10.5058 11.3818 3.50872 4.4278C2.34051 4.01144 1.16822 3.47098 0 2.77839V6.38948C6.5005 14.3763 13.001 17.7873 19.5015 20.2614C13.001 26.0904 6.5005 30.9866 0 31.3028V34.9099C1.16822 35.5985 2.34051 36.143 3.50872 36.5593C10.5058 34.5736 17.5029 28.04 24.5 21.5064C31.4971 23.9085 38.4942 26.3146 45.4913 33.2685C46.6595 33.6849 47.8318 34.2253 49 34.9139V31.3068V31.3028Z" fill="white"/>
<path d="M49 14.5645C42.2838 10.6011 35.5716 11.5259 28.8554 13.3194V1.53732C25.9531 2.31399 23.0469 3.25079 20.1446 4.02746V15.8096C13.4284 17.6031 6.71623 18.5279 0 14.5645V23.1318C6.71623 27.0952 13.4284 26.1704 20.1446 24.3769V36.155C23.0469 35.3783 25.9531 34.4415 28.8554 33.6649V21.8868C35.5716 20.0932 42.2838 19.1684 49 23.1318V14.5645Z" fill="white"/>
<path d="M49 16.1699C41.7424 11.8862 34.4807 13.3154 27.2231 15.3772V1.98972C25.4077 2.50616 23.5923 3.05863 21.7769 3.57507V16.9625C14.5193 19.0243 7.2576 20.4535 0 16.1699V21.5225C7.2576 25.8061 14.5193 24.3769 21.7769 22.3151V35.7026C23.5923 35.1862 25.4077 34.6297 27.2231 34.1173V20.7298C34.4807 18.668 41.7424 17.2388 49 21.5225V16.1699Z" fill="#C8102E"/>
<path d="M0 3.19875V5.35259C4.80719 11.2577 9.61032 14.6606 14.4175 17.0346C15.541 16.8705 16.6685 16.6503 17.7919 16.3941C11.8613 13.96 5.93064 10.485 0 3.19875Z" fill="#C8102E"/>
<path d="M1.70145 35.8107C7.84781 34.7818 13.9983 29.9417 20.1446 24.3729C19.0212 24.6732 17.8937 24.9494 16.7702 25.1816C11.1815 29.9096 5.59279 33.5688 0 33.837V34.9059C0.565792 35.2422 1.13158 35.5385 1.70145 35.8067V35.8107Z" fill="#C8102E"/>
<path d="M31.2081 21.2983C37.1388 23.7283 43.0694 27.2033 49 34.4936V32.3397C44.1928 26.4347 39.3897 23.0317 34.5825 20.6617C33.4591 20.8259 32.3316 21.046 31.2081 21.3023V21.2983Z" fill="#C8102E"/>
<path d="M32.2297 12.5107C37.8185 7.78268 43.4072 4.12354 49 3.85531V2.78639C48.4342 2.45411 47.8684 2.15385 47.2985 1.88562C41.1522 2.9145 35.0017 7.75465 28.8553 13.3234C29.9788 13.0232 31.1063 12.7469 32.2297 12.5147V12.5107Z" fill="#C8102E"/>
<path style="mix-blend-mode:multiply" opacity="0.7" d="M49 34.9102C32.6653 25.2739 16.3347 44.5504 0 34.9102V2.78264C16.3306 12.4229 32.6653 -6.85362 49 2.78264V34.9102Z" fill="url(#paint0_linear_1129_97365)"/>
<defs>
<linearGradient id="paint0_linear_1129_97365" x1="0" y1="18.8484" x2="49" y2="18.8484" gradientUnits="userSpaceOnUse">
<stop stop-opacity="0.3"/>
<stop offset="0.25" stop-opacity="0"/>
<stop offset="0.5" stop-opacity="0.15"/>
<stop offset="1" stop-opacity="0"/>
</linearGradient>
</defs>
</svg>
