<svg id="svg" version="1.1" xmlns="http://www.w3.org/2000/svg" xmlns:xlink="http://www.w3.org/1999/xlink" width="400" height="266" viewBox="0, 0, 400,266"><g id="svgg"><path id="path0" d="M0.000 133.067 L 0.000 266.134 200.000 266.134 L 400.000 266.134 400.000 133.067 L 400.000 0.000 200.000 0.000 L 0.000 0.000 0.000 133.067 M178.447 67.536 C 179.822 68.233,180.738 69.160,181.532 70.660 C 181.883 71.321,182.409 71.937,182.701 72.029 C 182.994 72.120,183.577 72.483,183.998 72.834 C 184.418 73.185,185.157 73.638,185.639 73.840 C 186.942 74.384,187.141 74.963,186.494 76.333 C 185.773 77.861,186.275 78.617,187.484 77.825 C 187.934 77.530,188.744 77.345,189.643 77.333 C 191.291 77.309,191.254 77.345,190.552 76.453 C 189.517 75.137,191.318 73.145,194.141 72.485 C 195.069 72.269,195.254 72.093,195.628 71.083 C 195.862 70.448,196.294 69.733,196.588 69.495 C 196.881 69.257,197.382 68.625,197.701 68.090 C 198.311 67.069,198.909 66.681,199.425 66.973 C 201.691 68.254,202.320 68.847,203.105 70.442 C 203.813 71.880,204.035 72.122,204.644 72.122 C 205.088 72.122,205.644 72.423,206.121 72.921 C 206.542 73.360,207.030 73.719,207.206 73.719 C 208.289 73.719,208.776 74.684,208.411 76.107 C 207.945 77.923,208.197 78.182,209.873 77.610 C 210.570 77.373,211.403 77.179,211.725 77.179 C 212.259 77.179,212.298 77.077,212.178 76.012 C 212.034 74.730,212.196 74.495,214.050 73.303 C 214.684 72.896,215.451 72.655,216.109 72.655 C 217.131 72.655,217.166 72.623,217.461 71.453 C 217.648 70.708,218.054 70.007,218.529 69.608 C 218.950 69.253,219.295 68.840,219.295 68.689 C 219.295 68.538,219.663 67.995,220.114 67.482 L 220.933 66.549 221.743 67.140 C 224.294 69.004,224.717 69.593,224.835 71.445 C 224.955 73.328,224.988 73.387,225.587 72.788 C 226.042 72.333,227.164 72.254,227.415 72.660 C 227.507 72.809,228.150 73.219,228.845 73.570 C 230.759 74.541,230.844 74.726,230.173 76.479 C 229.858 77.303,229.486 77.977,229.346 77.977 C 229.207 77.977,228.780 78.223,228.399 78.523 C 227.781 79.009,227.479 79.049,225.641 78.889 C 223.006 78.659,222.425 78.839,223.380 79.590 C 223.759 79.888,224.223 80.455,224.412 80.851 C 225.009 82.101,230.847 81.941,230.332 80.688 C 229.729 79.222,229.859 78.050,230.641 77.904 C 232.841 77.494,234.371 76.884,234.945 76.190 C 236.590 74.203,237.089 73.803,238.220 73.563 L 239.388 73.317 239.300 71.835 C 239.214 70.396,239.246 70.318,240.391 69.139 C 242.394 67.078,243.665 66.864,245.372 68.301 L 246.182 68.983 245.407 69.866 C 244.020 71.445,244.052 73.156,245.495 74.599 C 245.944 75.047,245.929 75.163,244.988 78.501 C 244.762 79.301,244.578 80.299,244.578 80.718 C 244.578 81.253,244.261 81.792,243.513 82.533 C 242.927 83.112,242.448 83.687,242.448 83.810 C 242.448 84.661,235.451 85.165,233.672 84.443 C 233.231 84.264,232.702 84.263,232.075 84.441 C 229.070 85.295,221.978 84.626,221.525 83.445 C 221.324 82.921,220.625 82.907,220.625 83.427 C 220.625 84.588,216.532 85.248,213.174 84.630 C 211.172 84.261,211.331 84.262,208.383 84.602 C 207.139 84.746,205.882 84.875,205.589 84.888 L 205.057 84.913 205.589 85.238 C 205.988 85.481,208.624 85.547,216.101 85.500 C 221.590 85.466,226.560 85.446,227.146 85.455 C 227.731 85.465,230.905 85.494,234.198 85.519 C 243.417 85.590,244.550 85.904,243.766 88.171 C 243.433 89.133,243.223 89.338,242.249 89.646 C 240.738 90.124,240.716 90.886,242.181 91.965 C 242.765 92.396,243.214 92.916,243.179 93.121 C 242.985 94.230,237.618 94.561,235.427 93.599 L 234.394 93.145 235.427 92.324 C 235.995 91.872,236.624 91.411,236.823 91.299 C 239.433 89.838,230.522 89.290,224.152 90.520 C 222.529 90.833,222.296 91.405,223.685 91.666 C 226.601 92.213,226.430 93.730,223.402 94.180 C 217.230 95.098,213.757 93.584,217.544 91.625 L 218.322 91.223 217.701 90.754 C 216.235 89.649,203.534 89.566,203.378 90.661 C 203.313 91.119,203.471 91.274,204.160 91.425 C 205.024 91.615,205.963 92.464,205.979 93.071 C 206.018 94.494,194.638 94.660,194.094 93.244 C 193.912 92.770,195.000 91.550,195.604 91.550 C 196.316 91.550,196.987 90.918,196.798 90.426 C 196.654 90.052,196.173 89.974,193.789 89.940 C 183.557 89.796,180.884 90.327,183.081 92.067 C 185.030 93.611,183.614 94.466,179.108 94.466 C 173.992 94.466,172.361 92.650,176.482 91.541 C 177.048 91.388,177.512 91.205,177.512 91.134 C 177.512 90.632,171.976 89.843,168.729 89.882 C 162.428 89.957,162.130 89.985,161.991 90.515 C 161.894 90.885,162.070 91.139,162.615 91.421 C 165.398 92.860,164.159 94.212,160.057 94.212 C 156.125 94.212,154.607 92.477,157.564 91.361 C 158.427 91.035,158.404 89.953,157.533 89.953 C 155.432 89.953,154.610 87.382,156.307 86.121 C 157.024 85.588,157.333 85.565,163.093 85.619 C 166.788 85.654,169.851 85.554,170.991 85.361 L 172.854 85.047 170.193 84.719 C 168.179 84.471,166.885 84.462,164.870 84.683 C 160.364 85.178,158.846 84.876,157.145 83.148 C 155.747 81.727,155.613 81.426,155.291 78.982 C 155.200 78.290,155.020 77.658,154.890 77.578 C 154.173 77.135,154.301 75.089,155.111 74.070 C 156.090 72.838,155.964 71.253,154.790 70.027 C 153.893 69.091,153.911 68.828,154.923 68.107 C 157.291 66.421,160.745 68.610,160.745 71.797 L 160.745 73.406 161.870 73.596 C 162.973 73.783,163.196 73.959,165.450 76.414 C 165.912 76.918,166.470 77.164,167.449 77.294 C 169.141 77.518,169.392 77.281,168.743 76.071 L 168.232 75.116 168.946 74.440 C 169.625 73.796,172.380 72.389,172.960 72.389 C 173.109 72.389,173.380 71.896,173.560 71.294 C 173.748 70.665,174.206 69.965,174.635 69.647 C 175.046 69.343,175.383 68.942,175.383 68.755 C 175.383 68.260,177.033 66.458,177.220 66.748 C 177.307 66.884,177.859 67.238,178.447 67.536 M158.794 78.819 C 158.232 80.966,162.750 82.786,165.280 81.432 C 166.919 80.554,164.407 78.827,161.997 79.174 C 161.175 79.292,160.619 79.201,159.901 78.829 C 158.949 78.335,158.920 78.335,158.794 78.819 M184.330 78.680 C 183.762 78.988,183.196 79.049,182.138 78.916 C 179.854 78.631,179.566 78.816,180.174 80.176 C 180.762 81.488,181.113 81.660,183.260 81.685 C 185.483 81.710,186.658 81.286,186.439 80.538 C 186.348 80.228,186.202 79.584,186.116 79.108 C 185.938 78.133,185.523 78.034,184.330 78.680 M206.254 78.648 C 205.766 78.931,205.121 78.991,203.827 78.874 C 201.810 78.691,201.632 78.826,202.057 80.213 C 202.473 81.568,203.018 81.786,205.636 81.649 C 208.325 81.508,208.420 81.429,208.061 79.641 C 207.756 78.124,207.450 77.955,206.254 78.648 M240.186 78.754 C 239.747 78.986,239.351 79.255,239.307 79.352 C 239.262 79.449,238.843 79.415,238.375 79.277 C 236.168 78.623,233.689 80.049,234.769 81.350 C 235.687 82.457,240.833 81.498,241.220 80.147 C 241.610 78.787,241.192 78.224,240.186 78.754 M173.919 78.768 C 173.480 78.876,172.622 78.907,172.013 78.837 C 171.003 78.721,169.528 80.009,169.528 81.007 C 169.528 81.549,172.686 81.848,174.440 81.471 C 175.267 81.294,175.799 80.024,175.486 78.975 C 175.338 78.480,175.179 78.459,173.919 78.768 M194.584 78.767 C 192.723 78.938,192.585 78.998,191.748 79.992 L 190.867 81.038 191.841 81.391 C 192.939 81.790,196.531 81.686,196.974 81.243 C 197.771 80.446,197.656 78.432,196.820 78.549 C 196.666 78.570,195.660 78.668,194.584 78.767 M216.070 78.877 C 211.637 79.453,211.662 81.737,216.101 81.687 C 218.586 81.659,219.989 80.459,219.427 78.842 C 219.297 78.467,219.228 78.468,216.070 78.877 M198.910 83.403 C 198.450 84.602,195.039 85.166,191.484 84.633 C 188.975 84.256,189.490 84.254,186.076 84.661 C 183.902 84.920,183.431 85.048,183.814 85.273 C 184.541 85.702,203.818 85.668,204.524 85.238 C 205.018 84.936,204.998 84.912,204.248 84.905 C 202.890 84.891,200.307 84.105,199.677 83.513 C 199.139 83.007,199.066 82.997,198.910 83.403 M176.671 83.985 C 176.474 84.179,175.595 84.505,174.717 84.710 C 173.151 85.075,173.135 85.088,173.870 85.389 C 174.898 85.810,180.817 85.749,182.169 85.304 L 183.234 84.953 182.302 84.918 C 181.302 84.882,180.235 84.645,178.267 84.024 C 177.238 83.699,176.966 83.692,176.671 83.985 M191.239 91.952 C 192.391 93.039,192.240 93.464,190.502 94.019 C 188.001 94.819,186.852 93.167,188.581 91.256 C 189.128 90.652,190.142 90.918,191.239 91.952 M170.285 91.984 C 171.615 93.598,170.091 94.883,167.972 93.934 C 166.752 93.388,166.737 93.362,167.167 92.531 C 168.096 90.732,169.107 90.555,170.285 91.984 M211.940 92.166 C 212.894 94.121,211.025 95.007,208.569 93.763 C 207.146 93.042,208.651 90.918,210.477 91.070 C 211.300 91.139,211.518 91.302,211.940 92.166 M232.260 92.055 C 233.279 93.572,232.022 94.798,230.219 94.046 C 228.923 93.505,228.776 93.302,229.151 92.577 C 230.099 90.747,231.252 90.554,232.260 92.055 M243.720 95.957 C 244.449 96.467,244.488 97.495,243.803 98.180 C 242.970 99.013,241.828 99.032,198.076 98.949 L 156.231 98.869 155.377 98.015 C 154.448 97.086,154.677 96.371,156.088 95.794 C 157.204 95.337,243.063 95.496,243.720 95.957 M239.814 100.368 C 241.665 100.984,241.508 98.020,241.605 134.208 C 241.691 166.286,241.575 172.172,240.841 173.120 C 240.540 173.509,240.010 176.279,239.797 178.576 C 239.673 179.913,239.420 180.880,239.031 181.504 C 238.711 182.016,238.328 182.879,238.180 183.421 C 238.032 183.963,237.758 184.562,237.572 184.752 C 237.386 184.941,236.841 185.670,236.361 186.371 C 233.537 190.498,227.059 195.278,222.754 196.410 C 222.096 196.584,221.061 196.950,220.456 197.225 C 219.850 197.499,218.473 197.851,217.395 198.006 C 216.318 198.162,214.657 198.457,213.706 198.661 C 207.369 200.024,193.258 200.321,187.758 199.208 C 186.587 198.971,184.251 198.556,182.568 198.286 C 180.885 198.017,179.029 197.615,178.443 197.393 C 177.858 197.171,176.480 196.665,175.383 196.268 C 174.285 195.871,173.087 195.337,172.721 195.080 C 172.355 194.824,171.520 194.342,170.864 194.011 C 170.209 193.679,169.032 192.915,168.248 192.312 C 167.464 191.710,166.349 190.854,165.769 190.409 C 164.441 189.391,162.806 187.354,161.931 185.629 C 161.560 184.897,160.985 183.853,160.654 183.308 C 160.322 182.764,159.782 181.326,159.455 180.114 C 159.127 178.902,158.659 177.312,158.415 176.580 C 158.011 175.369,157.963 171.934,157.884 138.286 L 157.796 101.322 158.386 100.694 L 158.975 100.067 198.942 100.067 C 227.970 100.067,239.157 100.149,239.814 100.368 M202.706 148.680 C 202.280 149.106,202.515 155.347,202.971 155.723 C 203.372 156.054,203.384 156.032,203.095 155.490 C 202.633 154.622,202.796 148.875,203.280 148.975 C 203.474 149.016,203.557 148.926,203.464 148.776 C 203.270 148.462,202.962 148.424,202.706 148.680 " stroke="none" fill="#9c0423" fill-rule="evenodd"></path><path id="path1" d="M176.338 74.491 C 175.354 75.579,176.570 78.092,177.770 77.449 C 178.348 77.140,179.372 75.682,179.374 75.166 C 179.377 74.314,176.981 73.781,176.338 74.491 M198.422 74.404 C 197.325 75.501,198.408 78.155,199.676 77.476 C 201.058 76.736,201.323 75.000,200.146 74.391 C 199.162 73.882,198.942 73.884,198.422 74.404 M220.250 74.491 C 219.722 75.075,220.031 76.841,220.768 77.453 C 221.306 77.899,222.385 76.925,222.640 75.764 C 222.953 74.340,221.221 73.418,220.250 74.491 M242.349 74.539 C 241.754 75.007,241.719 75.145,241.965 76.050 C 242.539 78.165,243.437 78.327,244.220 76.456 C 244.922 74.775,243.674 73.496,242.349 74.539 M156.038 74.649 C 155.534 75.002,155.503 75.150,155.757 75.978 C 156.401 78.077,157.517 78.111,158.134 76.051 C 158.602 74.491,157.405 73.691,156.038 74.649 M166.184 78.528 C 165.631 79.140,165.965 80.139,166.923 80.738 C 167.399 81.036,168.995 79.837,168.995 79.183 C 168.995 78.238,166.890 77.748,166.184 78.528 M188.216 78.392 C 187.428 78.944,187.470 79.613,188.350 80.493 L 189.076 81.219 189.814 80.392 C 190.826 79.259,190.441 77.977,189.088 77.977 C 188.934 77.977,188.542 78.164,188.216 78.392 M209.914 78.445 C 209.003 79.010,209.001 79.223,209.897 80.158 C 210.778 81.078,211.385 81.105,211.945 80.249 C 213.001 78.638,211.603 77.398,209.914 78.445 M231.833 78.529 L 230.932 79.078 231.947 80.118 C 232.599 80.785,233.065 81.072,233.248 80.919 C 235.224 79.263,234.006 77.204,231.833 78.529 M233.771 104.114 L 232.412 105.141 232.239 107.192 C 232.062 109.281,232.445 110.151,233.553 110.174 C 233.711 110.177,234.122 110.480,234.467 110.848 L 235.095 111.516 235.778 110.896 C 236.153 110.556,236.978 110.054,237.610 109.780 C 238.579 109.362,238.729 109.198,238.569 108.734 C 238.464 108.431,238.327 107.446,238.263 106.544 C 238.155 105.011,238.094 104.882,237.335 104.567 C 236.888 104.382,236.209 103.974,235.826 103.659 L 235.130 103.087 233.771 104.114 M197.671 104.330 C 196.295 105.195,196.379 104.924,196.291 108.780 C 196.277 109.370,196.478 109.615,197.339 110.057 C 197.924 110.358,198.521 110.868,198.666 111.191 C 198.996 111.927,199.142 111.926,199.471 111.186 C 199.638 110.810,200.271 110.398,201.207 110.055 C 203.366 109.263,203.383 109.242,202.751 108.169 C 202.285 107.381,202.242 107.077,202.468 106.188 C 202.785 104.937,202.655 104.786,200.623 104.043 C 198.893 103.411,199.180 103.383,197.671 104.330 M161.876 104.311 L 160.745 104.831 160.698 106.574 C 160.672 107.532,160.642 108.586,160.631 108.916 C 160.618 109.340,160.875 109.646,161.516 109.965 C 162.012 110.213,162.531 110.528,162.667 110.665 C 162.971 110.969,166.840 110.032,167.355 109.530 C 167.651 109.241,167.618 109.002,167.157 108.098 C 166.721 107.244,166.659 106.865,166.868 106.317 C 167.291 105.205,167.192 104.963,166.134 104.512 C 164.450 103.794,163.137 103.732,161.876 104.311 M171.923 113.562 C 170.499 114.085,170.592 112.056,170.592 142.650 C 170.592 162.022,170.681 171.034,170.878 171.599 C 171.460 173.268,171.353 173.254,183.025 173.252 C 195.005 173.250,195.126 173.235,196.829 171.457 L 198.004 170.231 198.004 155.541 C 198.004 143.188,197.944 140.800,197.627 140.537 C 196.957 139.982,192.903 138.409,191.447 138.139 C 190.669 137.996,189.661 137.664,189.207 137.402 C 188.752 137.140,188.030 136.732,187.603 136.494 C 185.562 135.359,182.428 131.748,182.137 130.196 C 181.756 128.165,182.164 125.123,182.924 124.330 C 183.314 123.923,183.633 123.468,183.633 123.319 C 183.633 122.976,186.542 120.027,186.879 120.027 C 187.017 120.027,187.630 119.692,188.242 119.283 C 188.854 118.874,190.792 118.066,192.548 117.487 L 195.742 116.434 200.133 116.434 C 204.377 116.434,204.605 116.462,206.919 117.274 C 208.237 117.736,209.823 118.195,210.445 118.295 C 211.149 118.408,211.754 118.704,212.051 119.082 C 212.314 119.416,212.943 119.897,213.450 120.153 C 214.430 120.647,216.367 122.377,216.367 122.758 C 216.367 122.883,216.756 123.470,217.232 124.061 C 218.287 125.374,218.540 129.996,217.647 131.626 C 216.925 132.945,214.169 135.673,213.115 136.114 C 212.582 136.337,212.069 136.642,211.976 136.793 C 211.723 137.203,209.974 138.033,208.916 138.246 C 206.229 138.787,205.070 139.454,206.819 139.454 C 207.421 139.454,209.903 140.442,210.512 140.924 C 210.732 141.097,211.666 141.394,212.589 141.584 C 215.512 142.184,216.753 144.253,215.303 146.108 C 214.601 147.005,214.600 148.757,215.301 149.565 C 216.030 150.406,216.364 151.767,216.366 153.901 C 216.367 155.776,216.778 157.165,217.510 157.772 C 217.745 157.967,218.078 158.566,218.250 159.103 C 218.423 159.640,218.907 160.422,219.326 160.841 C 219.745 161.260,220.216 162.098,220.371 162.704 C 220.527 163.310,220.746 164.100,220.858 164.459 C 221.101 165.242,220.481 168.150,219.944 168.746 C 219.719 168.995,219.664 169.262,219.808 169.411 C 219.940 169.549,220.217 170.259,220.423 170.991 C 220.910 172.723,221.779 173.174,224.865 173.297 L 227.109 173.387 227.660 172.455 C 228.206 171.531,228.211 171.289,228.288 143.237 L 228.366 114.951 227.804 114.162 L 227.243 113.373 199.782 113.394 C 184.679 113.406,172.142 113.481,171.923 113.562 M234.569 136.828 C 234.292 137.135,233.552 137.741,232.926 138.173 C 230.770 139.660,233.388 145.462,235.665 144.243 C 238.118 142.930,239.344 139.715,237.834 138.553 C 237.433 138.244,236.647 137.603,236.089 137.129 L 235.073 136.268 234.569 136.828 M161.988 137.702 C 160.157 138.810,160.148 138.834,160.640 141.016 C 161.037 142.770,161.170 143.008,162.087 143.586 L 163.097 144.224 164.915 143.757 L 166.733 143.290 166.904 141.971 C 166.998 141.246,167.209 140.313,167.372 139.898 C 167.738 138.967,167.679 138.871,166.235 138.024 C 164.554 137.040,163.245 136.940,161.988 137.702 M202.587 140.667 C 201.568 141.381,201.714 144.865,202.810 145.960 C 203.258 146.407,203.959 147.184,204.369 147.687 L 205.114 148.600 205.600 147.858 C 206.045 147.179,206.056 146.964,205.736 145.348 C 205.543 144.375,205.331 142.831,205.265 141.916 L 205.144 140.253 204.162 140.253 C 203.621 140.253,202.913 140.439,202.587 140.667 M202.272 158.865 C 202.110 159.166,201.996 161.412,201.996 164.285 L 201.996 169.190 203.050 170.743 C 204.359 172.671,205.058 173.048,207.608 173.198 C 210.733 173.382,211.983 171.932,210.113 170.290 C 209.434 169.694,209.182 169.254,209.182 168.667 C 209.182 168.223,208.951 167.487,208.669 167.031 C 208.387 166.574,207.955 165.602,207.710 164.870 C 207.464 164.138,207.090 163.344,206.879 163.105 C 206.668 162.866,206.380 162.255,206.240 161.747 C 205.972 160.779,205.175 159.681,204.739 159.681 C 204.599 159.681,204.203 159.381,203.859 159.015 C 203.109 158.217,202.642 158.172,202.272 158.865 M233.888 171.276 C 233.253 171.796,232.514 172.402,232.245 172.623 C 231.740 173.036,231.742 173.092,232.361 175.451 C 233.411 179.458,237.403 178.973,238.292 174.730 L 238.664 172.957 237.691 172.343 C 237.156 172.005,236.551 171.527,236.345 171.279 C 235.520 170.284,235.098 170.284,233.888 171.276 M161.606 171.890 L 160.228 173.120 160.587 174.717 C 161.288 177.838,162.177 178.532,164.649 177.888 C 166.551 177.392,166.866 177.131,166.866 176.048 C 166.866 175.571,167.045 174.754,167.263 174.232 C 167.786 172.979,167.649 172.722,165.991 171.855 C 163.389 170.493,163.169 170.494,161.606 171.890 " stroke="none" fill="#dfe6e4" fill-rule="evenodd"></path><path id="path2" d="M158.534 89.858 C 157.309 90.215,158.209 90.884,160.020 90.964 C 161.712 91.038,162.585 90.640,162.004 90.059 C 161.798 89.853,159.090 89.697,158.534 89.858 M197.782 89.883 C 196.883 89.964,196.663 90.075,196.784 90.391 C 196.870 90.613,196.939 90.845,196.939 90.907 C 196.939 91.355,203.275 90.977,203.395 90.521 C 203.522 90.034,201.274 89.584,199.468 89.736 C 199.175 89.760,198.416 89.827,197.782 89.883 M237.968 89.903 C 237.065 89.968,236.849 90.074,236.970 90.391 C 237.056 90.613,237.126 90.845,237.126 90.907 C 237.126 90.968,238.024 91.018,239.122 91.018 C 240.903 91.018,241.118 90.964,241.118 90.514 C 241.118 89.954,240.075 89.752,237.968 89.903 M234.637 102.853 C 234.555 103.069,233.880 103.681,233.139 104.214 C 231.889 105.111,231.802 105.246,231.951 106.042 C 232.040 106.515,231.972 107.425,231.799 108.065 C 231.480 109.252,231.999 110.193,232.964 110.174 C 233.130 110.170,232.996 109.960,232.666 109.705 C 232.104 109.273,232.076 109.111,232.238 107.193 L 232.412 105.143 233.817 104.092 C 235.150 103.094,235.244 103.065,235.650 103.513 C 235.885 103.772,236.543 104.195,237.112 104.452 C 238.128 104.910,238.150 104.950,238.263 106.551 C 238.327 107.449,238.464 108.431,238.569 108.734 C 238.729 109.198,238.579 109.362,237.610 109.780 C 236.978 110.054,236.153 110.556,235.778 110.896 L 235.095 111.516 234.467 110.848 C 234.122 110.480,233.731 110.180,233.599 110.180 C 233.467 110.180,233.728 110.549,234.180 111.000 L 235.000 111.821 235.809 111.140 C 236.254 110.766,237.072 110.337,237.628 110.188 C 238.566 109.935,239.945 108.849,239.328 108.849 C 238.600 108.849,238.279 106.637,238.824 105.381 C 238.957 105.075,238.603 104.791,237.402 104.239 C 236.522 103.836,235.677 103.270,235.523 102.983 C 235.192 102.364,234.845 102.313,234.637 102.853 M197.706 103.870 L 196.210 104.908 196.024 107.201 C 195.861 109.216,195.895 109.536,196.307 109.837 C 197.011 110.352,197.347 110.249,196.710 109.714 C 196.205 109.290,196.170 109.062,196.322 107.161 L 196.488 105.074 197.712 104.298 C 198.385 103.871,199.115 103.575,199.335 103.639 C 200.930 104.111,201.079 104.116,200.272 103.668 C 199.836 103.427,199.417 103.139,199.341 103.030 C 199.264 102.920,198.529 103.298,197.706 103.870 M161.943 103.861 C 160.522 104.616,160.405 104.870,160.321 107.406 L 160.249 109.582 161.541 110.286 C 162.252 110.673,162.873 111.080,162.920 111.191 C 162.968 111.302,163.726 111.127,164.604 110.802 C 166.432 110.126,166.299 110.018,164.295 110.552 C 163.435 110.781,162.826 110.824,162.670 110.667 C 162.532 110.529,162.012 110.213,161.516 109.965 C 160.875 109.646,160.618 109.340,160.631 108.916 C 160.642 108.586,160.672 107.532,160.698 106.572 L 160.745 104.827 161.942 104.298 C 163.254 103.717,164.384 103.776,166.134 104.516 C 167.192 104.963,167.291 105.205,166.868 106.317 C 166.660 106.863,166.720 107.241,167.144 108.073 C 167.728 109.218,167.659 109.557,166.773 109.915 C 166.382 110.073,166.336 110.151,166.625 110.163 C 167.640 110.203,168.057 109.217,167.525 108.035 C 167.101 107.096,167.082 106.830,167.379 106.009 C 167.820 104.790,167.577 104.548,165.175 103.816 C 163.019 103.159,163.271 103.156,161.943 103.861 M201.906 104.574 C 202.719 105.070,202.738 105.122,202.474 106.162 C 202.241 107.081,202.281 107.374,202.751 108.169 C 203.383 109.242,203.366 109.263,201.207 110.055 C 200.271 110.398,199.638 110.810,199.471 111.186 C 199.180 111.841,198.802 111.973,198.802 111.418 C 198.802 111.037,197.977 110.180,197.610 110.180 C 197.489 110.180,197.624 110.389,197.909 110.645 C 198.492 111.169,198.442 112.007,197.798 112.508 C 197.471 112.763,194.426 112.847,184.846 112.868 C 177.958 112.882,172.023 112.975,171.657 113.075 C 169.974 113.532,170.042 112.177,170.131 143.313 C 170.213 172.253,170.223 172.550,171.234 173.931 C 171.828 174.742,210.662 174.747,211.558 173.936 C 212.235 173.323,212.102 171.231,211.349 170.659 C 210.010 169.643,209.714 169.183,209.714 168.117 C 209.714 167.318,209.537 166.843,209.047 166.333 C 208.676 165.946,208.199 164.938,207.971 164.064 C 207.745 163.198,207.401 162.307,207.205 162.084 C 207.009 161.860,206.607 161.198,206.311 160.612 C 206.016 160.027,205.451 159.248,205.056 158.882 C 204.661 158.516,204.053 157.657,203.705 156.972 C 203.356 156.287,202.949 155.651,202.799 155.559 C 202.440 155.336,202.437 148.857,202.797 148.634 C 202.945 148.543,203.380 148.716,203.764 149.018 C 204.197 149.358,204.855 149.568,205.492 149.568 L 206.520 149.568 206.501 148.037 C 206.490 147.196,206.379 145.908,206.255 145.176 C 206.130 144.444,205.942 143.330,205.838 142.700 C 205.441 140.308,206.434 139.653,208.683 140.824 C 209.562 141.281,211.076 141.822,212.047 142.026 C 214.685 142.579,215.658 144.057,214.653 145.984 C 214.032 147.174,214.137 148.765,214.933 150.260 C 215.448 151.226,215.683 152.183,215.844 153.959 C 216.067 156.430,216.503 158.084,216.930 158.084 C 217.064 158.084,217.379 158.533,217.628 159.082 C 217.878 159.631,218.420 160.588,218.832 161.208 C 220.627 163.908,220.806 166.720,219.295 168.463 C 218.768 169.071,218.768 169.074,219.297 169.930 C 219.599 170.420,219.827 171.254,219.827 171.873 C 219.827 173.827,220.566 174.343,223.699 174.580 C 225.155 174.689,226.540 174.861,226.775 174.962 C 227.085 175.094,227.280 174.938,227.484 174.398 C 227.639 173.988,227.925 173.234,228.119 172.721 C 228.404 171.972,228.488 166.186,228.550 143.145 L 228.628 114.500 227.929 113.671 L 227.231 112.841 214.680 112.840 C 201.690 112.838,200.305 112.737,199.998 111.771 C 199.753 110.999,200.010 110.763,201.588 110.304 C 203.546 109.735,203.834 109.338,203.177 108.119 C 202.662 107.163,202.627 106.277,203.084 105.802 C 203.526 105.342,203.337 104.876,202.541 104.465 C 201.411 103.880,200.909 103.966,201.906 104.574 M227.804 114.162 L 228.366 114.951 228.288 143.237 C 228.211 171.289,228.206 171.531,227.660 172.455 L 227.109 173.387 224.865 173.297 C 221.779 173.174,220.910 172.723,220.423 170.991 C 220.217 170.259,219.940 169.549,219.808 169.411 C 219.664 169.262,219.719 168.995,219.944 168.746 C 220.481 168.150,221.101 165.242,220.858 164.459 C 220.746 164.100,220.527 163.310,220.371 162.704 C 220.216 162.098,219.745 161.260,219.326 160.841 C 218.907 160.422,218.423 159.640,218.250 159.103 C 218.078 158.566,217.745 157.967,217.510 157.772 C 216.778 157.165,216.367 155.776,216.366 153.901 C 216.364 151.767,216.030 150.406,215.301 149.565 C 214.600 148.757,214.601 147.005,215.303 146.108 C 216.753 144.253,215.512 142.184,212.589 141.584 C 211.666 141.394,210.732 141.097,210.512 140.924 C 209.903 140.442,207.421 139.454,206.819 139.454 C 205.070 139.454,206.229 138.787,208.916 138.246 C 209.974 138.033,211.723 137.203,211.976 136.793 C 212.069 136.642,212.582 136.337,213.115 136.114 C 214.169 135.673,216.925 132.945,217.647 131.626 C 218.540 129.996,218.287 125.374,217.232 124.061 C 216.756 123.470,216.367 122.883,216.367 122.758 C 216.367 122.377,214.430 120.647,213.450 120.153 C 212.943 119.897,212.314 119.416,212.051 119.082 C 211.754 118.704,211.149 118.408,210.445 118.295 C 209.823 118.195,208.237 117.736,206.919 117.274 C 204.605 116.462,204.377 116.434,200.133 116.434 L 195.742 116.434 192.548 117.487 C 190.792 118.066,188.854 118.874,188.242 119.283 C 187.630 119.692,187.017 120.027,186.879 120.027 C 186.542 120.027,183.633 122.976,183.633 123.319 C 183.633 123.468,183.314 123.923,182.924 124.330 C 182.164 125.123,181.756 128.165,182.137 130.196 C 182.428 131.748,185.562 135.359,187.603 136.494 C 188.030 136.732,188.749 137.139,189.200 137.399 C 189.651 137.659,190.643 137.990,191.405 138.134 C 193.022 138.441,195.802 139.499,197.386 140.411 C 198.717 141.177,201.762 141.312,202.646 140.644 C 202.930 140.429,203.608 140.253,204.153 140.253 L 205.144 140.253 205.265 141.916 C 205.331 142.831,205.543 144.375,205.736 145.348 C 206.056 146.964,206.045 147.179,205.600 147.858 L 205.114 148.600 204.420 147.775 C 204.038 147.321,203.526 146.670,203.281 146.329 C 202.212 144.836,201.464 147.177,201.464 152.018 C 201.464 156.383,201.780 158.020,202.668 158.242 C 203.003 158.326,203.548 158.684,203.880 159.038 C 204.212 159.391,204.599 159.681,204.739 159.681 C 205.175 159.681,205.972 160.779,206.240 161.747 C 206.380 162.255,206.668 162.866,206.879 163.105 C 207.090 163.344,207.464 164.138,207.710 164.870 C 207.955 165.602,208.387 166.574,208.669 167.031 C 208.951 167.487,209.182 168.223,209.182 168.667 C 209.182 169.254,209.434 169.694,210.113 170.290 C 211.223 171.264,211.268 171.675,210.367 172.576 C 209.265 173.678,205.362 173.426,204.108 172.172 C 203.194 171.258,197.297 171.413,195.823 172.389 L 194.717 173.120 183.656 173.198 C 175.003 173.259,172.455 173.201,171.952 172.932 C 170.555 172.185,170.592 173.017,170.592 142.698 C 170.592 112.052,170.499 114.085,171.923 113.562 C 172.142 113.481,184.679 113.406,199.782 113.394 L 227.243 113.373 227.804 114.162 M203.419 117.755 C 204.905 118.115,207.077 118.524,208.244 118.663 C 210.038 118.877,210.461 119.025,210.971 119.618 C 211.303 120.004,211.954 120.452,212.419 120.614 C 213.372 120.946,215.835 123.294,215.835 123.870 C 215.835 124.077,216.135 124.482,216.502 124.770 C 217.271 125.376,217.635 127.588,217.316 129.715 C 217.089 131.232,216.751 131.104,216.563 129.430 C 216.377 127.785,215.879 127.435,213.867 127.534 C 211.696 127.641,211.075 128.389,211.691 130.157 C 212.362 132.085,211.899 132.548,210.246 131.603 C 208.675 130.705,207.176 131.531,207.245 133.258 C 207.314 134.982,208.037 136.443,209.004 136.812 C 209.810 137.119,209.723 137.154,207.028 137.597 C 205.477 137.852,203.940 138.204,203.612 138.380 C 202.773 138.829,202.661 138.600,202.661 136.439 L 202.661 134.531 204.165 134.397 C 206.134 134.221,206.786 133.648,206.786 132.094 L 206.786 130.938 208.376 130.938 C 209.877 130.938,209.990 130.893,210.383 130.133 C 211.239 128.476,209.873 126.037,208.300 126.415 C 206.779 126.780,206.489 127.001,205.900 128.246 C 205.365 129.376,205.233 129.480,204.256 129.545 C 201.904 129.702,201.614 130.000,201.603 132.262 C 201.596 133.707,200.796 134.171,200.528 132.885 C 200.096 130.805,199.947 130.516,198.994 129.896 C 198.078 129.300,198.004 129.157,198.004 127.972 C 198.004 126.457,197.392 125.897,195.503 125.684 C 194.224 125.540,193.214 126.200,193.214 127.179 C 193.214 127.594,192.958 127.700,191.705 127.804 C 190.490 127.904,190.077 128.067,189.588 128.636 L 188.980 129.343 188.811 128.442 C 188.443 126.482,187.805 125.881,186.098 125.886 C 183.944 125.891,183.834 126.011,183.691 128.489 L 183.568 130.613 185.663 130.719 C 187.592 130.817,187.829 130.893,188.654 131.683 C 190.264 133.224,193.162 133.295,193.601 131.804 C 194.082 130.171,195.841 130.285,195.657 131.937 C 195.497 133.374,195.249 133.582,194.017 133.305 C 192.014 132.855,190.808 134.104,191.367 136.052 C 191.711 137.251,191.693 137.325,191.060 137.325 C 190.724 137.325,190.446 137.111,190.362 136.787 C 190.259 136.396,189.779 136.122,188.611 135.789 C 187.415 135.447,186.895 135.145,186.585 134.611 C 186.355 134.216,185.890 133.767,185.551 133.613 C 185.213 133.458,184.769 132.943,184.564 132.468 C 184.360 131.992,183.893 131.262,183.526 130.844 C 182.451 129.621,182.337 125.615,183.377 125.615 C 183.518 125.615,183.633 125.436,183.633 125.216 C 183.633 124.997,183.748 124.817,183.888 124.817 C 184.029 124.817,184.280 124.362,184.447 123.806 C 184.652 123.120,184.985 122.691,185.481 122.471 C 185.883 122.293,186.347 121.853,186.510 121.493 C 186.683 121.115,187.120 120.771,187.549 120.678 C 188.949 120.372,189.736 119.969,189.892 119.479 C 190.086 118.867,190.386 118.776,193.347 118.430 C 194.664 118.276,196.520 117.922,197.472 117.643 C 199.757 116.974,200.240 116.983,203.419 117.755 M195.666 126.821 C 196.136 127.001,195.969 128.665,195.436 129.108 C 194.936 129.523,194.650 129.186,194.465 127.960 C 194.298 126.855,194.718 126.457,195.666 126.821 M187.399 128.127 C 187.839 129.091,187.520 129.607,186.486 129.607 C 184.672 129.607,184.368 128.744,185.895 127.927 C 186.958 127.358,187.055 127.371,187.399 128.127 M209.464 128.574 C 209.949 129.480,209.240 130.003,207.942 129.696 C 206.665 129.394,206.625 128.830,207.851 128.387 C 209.112 127.932,209.121 127.933,209.464 128.574 M215.303 128.806 C 215.970 129.231,215.268 129.994,214.120 130.091 C 212.995 130.186,212.184 129.494,212.696 128.876 C 213.021 128.485,214.727 128.439,215.303 128.806 M191.657 130.256 C 192.028 131.070,191.789 131.737,191.125 131.737 C 190.238 131.737,189.920 131.072,190.432 130.291 C 190.991 129.438,191.281 129.429,191.657 130.256 M205.151 130.908 C 205.829 131.338,205.036 132.269,203.992 132.269 C 203.067 132.269,202.310 131.507,202.665 130.933 C 202.863 130.613,204.656 130.595,205.151 130.908 M198.172 132.291 C 199.483 133.100,199.369 133.652,197.937 133.433 C 196.549 133.220,196.611 133.275,196.822 132.433 C 197.033 131.594,197.044 131.593,198.172 132.291 M215.408 132.629 C 215.646 133.028,215.602 133.180,215.175 133.427 C 214.886 133.595,214.287 134.107,213.845 134.564 C 212.782 135.664,212.269 135.435,212.153 133.811 C 212.103 133.122,212.144 132.428,212.243 132.267 C 212.550 131.771,215.069 132.059,215.408 132.629 M209.684 132.844 C 210.107 133.108,210.141 133.293,209.917 134.108 C 209.469 135.737,208.822 135.802,208.531 134.248 C 208.277 132.893,208.780 132.280,209.684 132.844 M194.138 134.812 C 194.653 135.201,194.648 135.224,193.880 135.883 C 193.146 136.514,193.073 136.527,192.755 136.092 C 191.819 134.812,192.862 133.847,194.138 134.812 M197.317 134.826 C 197.810 135.015,197.898 136.871,197.468 138.002 L 197.197 138.713 196.288 138.019 C 195.787 137.638,195.220 137.322,195.028 137.317 C 194.810 137.312,194.854 137.206,195.145 137.037 C 195.402 136.887,195.854 136.292,196.148 135.714 C 196.731 134.572,196.706 134.591,197.317 134.826 M201.320 136.162 C 201.548 137.377,201.305 137.619,200.060 137.417 C 198.881 137.225,198.828 136.940,199.784 135.943 C 200.735 134.949,201.102 135.002,201.320 136.162 M234.133 136.764 C 233.756 137.187,233.081 137.749,232.634 138.014 C 232.186 138.278,231.756 138.660,231.679 138.862 C 231.557 139.180,232.198 142.912,232.395 143.036 C 232.436 143.061,233.032 143.533,233.722 144.085 L 234.975 145.089 236.588 144.094 C 237.564 143.491,238.241 142.878,238.304 142.540 C 238.361 142.234,238.540 141.334,238.703 140.542 C 239.005 139.072,238.477 137.858,237.534 137.858 C 237.370 137.858,236.792 137.438,236.249 136.926 C 235.055 135.799,234.996 135.795,234.133 136.764 M237.834 138.553 C 239.344 139.715,238.118 142.930,235.665 144.243 C 233.388 145.462,230.770 139.660,232.926 138.173 C 233.552 137.741,234.292 137.135,234.569 136.828 L 235.073 136.268 236.089 137.129 C 236.647 137.603,237.433 138.244,237.834 138.553 M161.628 137.602 C 159.813 138.978,159.852 138.866,160.372 141.287 L 160.824 143.392 162.051 143.967 C 164.448 145.090,167.277 143.954,167.480 141.789 C 167.552 141.017,167.694 140.072,167.795 139.687 C 168.023 138.826,167.405 138.184,165.407 137.206 C 163.601 136.322,163.272 136.357,161.628 137.602 M166.235 138.024 C 167.679 138.871,167.738 138.967,167.372 139.898 C 167.209 140.313,166.998 141.246,166.904 141.971 L 166.733 143.290 164.915 143.757 L 163.097 144.224 162.087 143.586 C 160.857 142.810,159.827 139.460,160.586 138.701 C 162.278 137.009,164.124 136.788,166.235 138.024 M206.791 150.432 C 206.788 150.981,206.906 151.430,207.053 151.430 C 207.392 151.430,207.392 150.358,207.053 149.834 C 206.861 149.537,206.794 149.690,206.791 150.432 M233.865 170.925 C 233.328 171.401,232.574 172.031,232.190 172.326 C 230.864 173.343,231.896 176.861,233.912 178.195 L 234.943 178.877 236.562 178.060 C 238.218 177.224,238.239 177.193,238.570 175.116 C 238.652 174.604,238.793 173.858,238.884 173.458 C 239.025 172.834,238.925 172.664,238.177 172.260 C 237.698 172.002,236.881 171.401,236.362 170.925 C 235.843 170.449,235.288 170.060,235.130 170.060 C 234.971 170.060,234.402 170.449,233.865 170.925 M162.052 171.072 C 160.067 172.670,159.872 172.956,160.045 174.005 C 160.134 174.543,160.208 175.470,160.210 176.066 C 160.216 178.244,163.767 179.110,166.627 177.631 C 167.290 177.288,167.399 177.077,167.399 176.126 C 167.399 175.519,167.544 174.618,167.722 174.126 C 168.496 171.987,163.953 169.541,162.052 171.072 M236.345 171.279 C 236.551 171.527,237.156 172.005,237.691 172.343 L 238.664 172.957 238.292 174.730 C 237.403 178.973,233.411 179.458,232.361 175.451 C 231.742 173.092,231.740 173.036,232.245 172.623 C 232.514 172.402,233.253 171.796,233.888 171.276 C 235.098 170.284,235.520 170.284,236.345 171.279 M165.991 171.855 C 167.649 172.722,167.786 172.979,167.263 174.232 C 167.045 174.754,166.866 175.571,166.866 176.048 C 166.866 177.131,166.551 177.392,164.649 177.888 C 162.177 178.532,161.288 177.838,160.587 174.717 L 160.228 173.120 161.606 171.890 C 163.169 170.494,163.389 170.493,165.991 171.855 " stroke="none" fill="#9db62e" fill-rule="evenodd"></path><path id="path3" d="M188.581 91.256 C 186.852 93.167,188.001 94.819,190.502 94.019 C 192.240 93.464,192.391 93.039,191.239 91.952 C 190.142 90.918,189.128 90.652,188.581 91.256 M157.538 91.345 C 156.414 91.793,155.873 92.991,156.527 93.583 C 157.297 94.279,162.433 94.296,163.486 93.606 C 165.703 92.153,160.486 90.170,157.538 91.345 M167.873 91.484 C 167.442 91.978,166.866 93.003,166.866 93.276 C 166.866 94.372,170.537 94.368,170.958 93.271 C 171.407 92.100,168.702 90.533,167.873 91.484 M195.933 91.399 C 194.813 91.805,193.894 92.722,194.092 93.237 C 194.522 94.357,205.465 94.393,205.894 93.276 C 206.573 91.505,199.375 90.149,195.933 91.399 M208.835 91.603 C 207.772 92.568,207.680 93.313,208.569 93.763 C 211.025 95.007,212.894 94.121,211.940 92.166 C 211.305 90.866,209.923 90.615,208.835 91.603 M229.894 91.471 C 228.623 92.927,228.683 93.404,230.219 94.046 C 231.148 94.434,232.868 93.859,232.868 93.160 C 232.868 91.819,230.677 90.575,229.894 91.471 M235.822 92.062 C 234.195 93.276,234.282 93.407,237.067 93.955 C 239.360 94.406,243.259 93.846,243.239 93.068 C 243.186 91.008,238.151 90.325,235.822 92.062 M158.386 100.694 L 157.796 101.322 157.884 138.286 C 157.963 171.934,158.011 175.369,158.415 176.580 C 158.659 177.312,159.127 178.902,159.455 180.114 C 159.782 181.326,160.322 182.764,160.654 183.308 C 160.985 183.853,161.560 184.897,161.931 185.629 C 162.806 187.354,164.441 189.391,165.769 190.409 C 166.349 190.854,167.464 191.710,168.248 192.312 C 169.032 192.915,170.209 193.679,170.864 194.011 C 171.520 194.342,172.355 194.824,172.721 195.080 C 173.087 195.337,174.285 195.871,175.383 196.268 C 176.480 196.665,177.858 197.171,178.443 197.393 C 179.029 197.615,180.885 198.017,182.568 198.286 C 184.251 198.556,186.587 198.971,187.758 199.208 C 193.258 200.321,207.369 200.024,213.706 198.661 C 214.657 198.457,216.318 198.162,217.395 198.006 C 218.473 197.851,219.850 197.499,220.456 197.225 C 221.061 196.950,222.096 196.584,222.754 196.410 C 227.059 195.278,233.537 190.498,236.361 186.371 C 236.841 185.670,237.386 184.941,237.572 184.752 C 237.758 184.562,238.032 183.963,238.180 183.421 C 238.328 182.879,238.711 182.016,239.031 181.504 C 239.420 180.880,239.673 179.913,239.797 178.576 C 240.010 176.279,240.540 173.509,240.841 173.120 C 241.793 171.891,242.062 101.926,241.118 101.042 C 240.085 100.076,239.681 100.067,198.942 100.067 L 158.975 100.067 158.386 100.694 M235.523 102.983 C 235.677 103.270,236.522 103.836,237.402 104.239 C 238.603 104.791,238.957 105.075,238.824 105.381 C 238.279 106.637,238.600 108.849,239.328 108.849 C 239.945 108.849,238.566 109.935,237.628 110.188 C 237.072 110.337,236.238 110.779,235.774 111.169 C 234.951 111.862,234.923 111.867,234.558 111.362 C 234.352 111.078,233.619 110.540,232.927 110.168 C 231.893 109.610,231.683 109.374,231.746 108.837 C 231.788 108.478,231.852 107.484,231.889 106.629 C 231.955 105.108,231.983 105.056,233.223 104.156 C 233.920 103.650,234.557 103.062,234.639 102.849 C 234.845 102.312,235.192 102.365,235.523 102.983 M201.286 104.020 C 202.991 104.450,203.517 104.928,203.130 105.695 C 202.623 106.702,202.631 107.100,203.177 108.115 C 203.834 109.339,203.547 109.734,201.588 110.304 C 200.010 110.763,199.753 110.999,199.998 111.771 C 200.305 112.737,201.690 112.838,214.680 112.840 L 227.231 112.841 227.929 113.671 L 228.628 114.500 228.550 143.145 C 228.488 166.186,228.404 171.972,228.119 172.721 C 227.925 173.234,227.639 173.988,227.484 174.398 C 227.280 174.938,227.085 175.094,226.775 174.962 C 226.540 174.861,225.155 174.689,223.699 174.580 C 220.566 174.343,219.827 173.827,219.827 171.873 C 219.827 171.254,219.599 170.420,219.297 169.930 C 218.768 169.074,218.768 169.071,219.295 168.463 C 220.806 166.720,220.627 163.908,218.832 161.208 C 218.420 160.588,217.878 159.631,217.628 159.082 C 217.379 158.533,217.064 158.084,216.930 158.084 C 216.503 158.084,216.067 156.430,215.844 153.959 C 215.683 152.183,215.448 151.226,214.933 150.260 C 214.137 148.765,214.032 147.174,214.653 145.984 C 215.658 144.057,214.685 142.579,212.047 142.026 C 211.076 141.822,209.562 141.281,208.683 140.824 C 206.434 139.653,205.441 140.308,205.838 142.700 C 205.942 143.330,206.130 144.444,206.255 145.176 C 206.379 145.908,206.490 147.196,206.501 148.037 L 206.520 149.568 205.576 149.568 C 205.056 149.568,204.293 149.393,203.879 149.179 C 202.839 148.641,202.794 148.755,202.794 151.982 C 202.794 155.177,203.558 157.515,205.049 158.882 C 205.447 159.248,206.016 160.027,206.311 160.612 C 206.607 161.198,207.009 161.860,207.205 162.084 C 207.401 162.307,207.745 163.198,207.971 164.064 C 208.199 164.938,208.676 165.946,209.047 166.333 C 209.537 166.843,209.714 167.318,209.714 168.117 C 209.714 169.183,210.010 169.643,211.349 170.659 C 212.102 171.231,212.235 173.323,211.558 173.936 C 210.662 174.747,171.828 174.742,171.234 173.931 C 170.223 172.550,170.213 172.253,170.131 143.313 C 170.042 112.177,169.974 113.532,171.657 113.075 C 172.023 112.975,177.958 112.882,184.846 112.868 C 198.036 112.840,198.047 112.839,198.329 111.636 C 198.481 110.987,198.118 110.612,196.809 110.065 L 195.827 109.654 196.008 107.322 C 196.159 105.378,196.282 104.924,196.749 104.591 C 197.057 104.371,197.733 103.884,198.252 103.508 C 199.147 102.859,199.220 102.848,199.686 103.283 C 199.957 103.534,200.677 103.866,201.286 104.020 M165.175 103.816 C 167.577 104.548,167.820 104.790,167.379 106.009 C 167.081 106.831,167.101 107.096,167.530 108.046 C 167.973 109.030,167.981 109.179,167.611 109.549 C 167.143 110.017,162.874 111.515,162.874 111.211 C 162.874 111.101,162.284 110.690,161.562 110.297 L 160.249 109.582 160.321 107.406 C 160.405 104.870,160.522 104.616,161.943 103.861 C 163.271 103.156,163.019 103.159,165.175 103.816 M197.472 117.643 C 196.520 117.922,194.664 118.276,193.347 118.430 C 190.386 118.776,190.086 118.867,189.892 119.479 C 189.736 119.969,188.949 120.372,187.549 120.678 C 187.120 120.771,186.683 121.115,186.510 121.493 C 186.347 121.853,185.883 122.293,185.481 122.471 C 184.985 122.691,184.652 123.120,184.447 123.806 C 184.280 124.362,184.029 124.817,183.888 124.817 C 183.748 124.817,183.633 124.997,183.633 125.216 C 183.633 125.436,183.518 125.615,183.377 125.615 C 182.337 125.615,182.451 129.621,183.526 130.844 C 183.893 131.262,184.360 131.992,184.564 132.468 C 184.769 132.943,185.213 133.458,185.551 133.613 C 185.890 133.767,186.355 134.216,186.585 134.611 C 186.895 135.145,187.415 135.447,188.611 135.789 C 189.779 136.122,190.259 136.396,190.362 136.787 C 190.446 137.111,190.724 137.325,191.060 137.325 C 191.693 137.325,191.711 137.251,191.367 136.052 C 190.808 134.104,192.014 132.855,194.017 133.305 C 195.249 133.582,195.497 133.374,195.657 131.937 C 195.841 130.285,194.082 130.171,193.601 131.804 C 193.162 133.295,190.264 133.224,188.654 131.683 C 187.829 130.893,187.592 130.817,185.663 130.719 L 183.568 130.613 183.691 128.489 C 183.834 126.011,183.944 125.891,186.098 125.886 C 187.805 125.881,188.443 126.482,188.811 128.442 L 188.980 129.343 189.588 128.636 C 190.077 128.067,190.490 127.904,191.705 127.804 C 192.958 127.700,193.214 127.594,193.214 127.179 C 193.214 126.200,194.224 125.540,195.503 125.684 C 197.392 125.897,198.004 126.457,198.004 127.972 C 198.004 129.157,198.078 129.300,198.994 129.896 C 199.947 130.516,200.096 130.805,200.528 132.885 C 200.796 134.171,201.596 133.707,201.603 132.262 C 201.614 130.000,201.904 129.702,204.256 129.545 C 205.233 129.480,205.365 129.376,205.900 128.246 C 206.489 127.001,206.779 126.780,208.300 126.415 C 209.873 126.037,211.239 128.476,210.383 130.133 C 209.990 130.893,209.877 130.938,208.376 130.938 L 206.786 130.938 206.786 132.094 C 206.786 133.648,206.134 134.221,204.165 134.397 L 202.661 134.531 202.661 136.439 C 202.661 138.600,202.773 138.829,203.612 138.380 C 203.940 138.204,205.477 137.852,207.028 137.597 C 209.723 137.154,209.810 137.119,209.004 136.812 C 208.037 136.443,207.314 134.982,207.245 133.258 C 207.176 131.531,208.675 130.705,210.246 131.603 C 211.899 132.548,212.362 132.085,211.691 130.157 C 211.075 128.389,211.696 127.641,213.867 127.534 C 215.879 127.435,216.377 127.785,216.563 129.430 C 216.751 131.104,217.089 131.232,217.316 129.715 C 217.635 127.588,217.271 125.376,216.502 124.770 C 216.135 124.482,215.835 124.077,215.835 123.870 C 215.835 123.294,213.372 120.946,212.419 120.614 C 211.954 120.452,211.303 120.004,210.971 119.618 C 210.461 119.025,210.038 118.877,208.244 118.663 C 207.077 118.524,204.905 118.115,203.419 117.755 C 200.240 116.983,199.757 116.974,197.472 117.643 M212.243 132.267 C 212.144 132.428,212.103 133.122,212.153 133.811 C 212.269 135.435,212.782 135.664,213.845 134.564 C 214.287 134.107,214.886 133.595,215.175 133.427 C 215.602 133.180,215.646 133.028,215.408 132.629 C 215.069 132.059,212.550 131.771,212.243 132.267 M196.148 135.714 C 195.854 136.292,195.402 136.887,195.145 137.037 C 194.854 137.206,194.810 137.312,195.028 137.317 C 195.220 137.322,195.787 137.638,196.288 138.019 L 197.197 138.713 197.468 138.002 C 197.898 136.871,197.810 135.015,197.317 134.826 C 196.706 134.591,196.731 134.572,196.148 135.714 M236.249 136.926 C 236.792 137.438,237.370 137.858,237.534 137.858 C 238.477 137.858,239.005 139.072,238.703 140.542 C 238.540 141.334,238.361 142.234,238.304 142.540 C 238.241 142.878,237.564 143.491,236.588 144.094 L 234.975 145.089 233.722 144.085 C 233.032 143.533,232.436 143.061,232.395 143.036 C 232.198 142.912,231.557 139.180,231.679 138.862 C 231.756 138.660,232.186 138.278,232.634 138.014 C 233.081 137.749,233.756 137.187,234.133 136.764 C 234.996 135.795,235.055 135.799,236.249 136.926 M165.407 137.206 C 167.405 138.184,168.023 138.826,167.795 139.687 C 167.694 140.072,167.552 141.017,167.480 141.789 C 167.277 143.954,164.448 145.090,162.051 143.967 L 160.824 143.392 160.372 141.287 C 159.852 138.866,159.813 138.978,161.628 137.602 C 163.272 136.357,163.601 136.322,165.407 137.206 M207.315 150.832 C 207.317 151.161,207.199 151.430,207.053 151.430 C 206.906 151.430,206.788 150.981,206.791 150.432 C 206.794 149.690,206.861 149.537,207.053 149.834 C 207.194 150.053,207.312 150.502,207.315 150.832 M236.362 170.925 C 236.881 171.401,237.698 172.002,238.177 172.260 C 238.925 172.664,239.025 172.834,238.884 173.458 C 238.793 173.858,238.652 174.604,238.570 175.116 C 238.239 177.193,238.218 177.224,236.562 178.060 L 234.943 178.877 233.912 178.195 C 231.896 176.861,230.864 173.343,232.190 172.326 C 232.574 172.031,233.328 171.401,233.865 170.925 C 234.402 170.449,234.971 170.060,235.130 170.060 C 235.288 170.060,235.843 170.449,236.362 170.925 M166.041 171.488 C 167.882 172.557,168.142 172.965,167.722 174.126 C 167.544 174.618,167.399 175.519,167.399 176.126 C 167.399 177.077,167.290 177.288,166.627 177.631 C 163.767 179.110,160.216 178.244,160.210 176.066 C 160.208 175.470,160.134 174.543,160.045 174.005 C 159.872 172.956,160.067 172.670,162.052 171.072 C 163.142 170.194,163.960 170.279,166.041 171.488 " stroke="none" fill="#333a74" fill-rule="evenodd"></path><path id="path4" d="M176.222 67.459 C 175.760 67.985,175.383 68.568,175.383 68.755 C 175.383 68.942,175.046 69.343,174.635 69.647 C 174.206 69.965,173.748 70.665,173.560 71.294 C 173.380 71.896,173.109 72.389,172.960 72.389 C 172.380 72.389,169.625 73.796,168.946 74.440 L 168.232 75.116 168.743 76.071 C 169.392 77.281,169.141 77.518,167.449 77.294 C 166.470 77.164,165.912 76.918,165.450 76.414 C 163.196 73.959,162.973 73.783,161.870 73.596 L 160.745 73.406 160.745 71.797 C 160.745 68.610,157.291 66.421,154.923 68.107 C 153.911 68.828,153.893 69.091,154.790 70.027 C 155.964 71.253,156.090 72.838,155.111 74.070 C 154.301 75.089,154.173 77.135,154.890 77.578 C 155.020 77.658,155.200 78.290,155.291 78.982 C 155.613 81.426,155.747 81.727,157.145 83.148 C 158.846 84.876,160.364 85.178,164.870 84.683 C 166.885 84.462,168.179 84.471,170.193 84.719 L 172.854 85.047 170.991 85.361 C 169.851 85.554,166.788 85.654,163.093 85.619 C 156.374 85.556,155.669 85.722,155.468 87.417 C 155.232 89.410,156.068 89.975,159.148 89.901 C 160.246 89.874,162.582 89.863,164.338 89.876 C 166.094 89.889,168.071 89.893,168.729 89.884 C 171.951 89.840,177.512 90.632,177.512 91.134 C 177.512 91.205,177.048 91.388,176.482 91.541 C 172.361 92.650,173.992 94.466,179.108 94.466 C 183.614 94.466,185.030 93.611,183.081 92.067 C 181.260 90.625,183.468 89.893,189.621 89.901 C 190.353 89.902,192.688 89.892,194.810 89.879 C 196.933 89.867,199.268 89.853,200.000 89.849 C 200.732 89.845,202.888 89.862,204.790 89.886 C 206.693 89.910,208.969 89.922,209.847 89.913 C 213.358 89.876,217.063 90.273,217.701 90.754 L 218.322 91.223 217.544 91.625 C 213.757 93.584,217.230 95.098,223.402 94.180 C 226.430 93.730,226.601 92.213,223.685 91.666 C 223.173 91.570,222.754 91.337,222.754 91.148 C 222.754 90.317,227.722 89.841,235.795 89.897 C 242.618 89.945,243.196 89.820,243.766 88.171 C 244.550 85.904,243.417 85.590,234.198 85.519 C 230.905 85.494,227.731 85.465,227.146 85.455 C 226.560 85.446,221.590 85.466,216.101 85.500 C 208.624 85.547,205.988 85.481,205.589 85.238 L 205.057 84.913 205.589 84.888 C 205.882 84.875,207.139 84.746,208.383 84.602 C 211.331 84.262,211.172 84.261,213.174 84.630 C 216.532 85.248,220.625 84.588,220.625 83.427 C 220.625 82.907,221.324 82.921,221.525 83.445 C 221.978 84.626,229.070 85.295,232.075 84.441 C 232.702 84.263,233.231 84.264,233.672 84.443 C 235.451 85.165,242.448 84.661,242.448 83.810 C 242.448 83.687,242.927 83.112,243.513 82.533 C 244.261 81.792,244.578 81.253,244.578 80.718 C 244.578 80.299,244.762 79.301,244.988 78.501 C 245.929 75.163,245.944 75.047,245.495 74.599 C 244.052 73.156,244.020 71.445,245.407 69.866 L 246.182 68.983 245.372 68.301 C 243.665 66.864,242.394 67.078,240.391 69.139 C 239.246 70.318,239.214 70.396,239.300 71.835 L 239.388 73.317 238.220 73.563 C 237.089 73.803,236.590 74.203,234.945 76.190 C 234.371 76.884,232.841 77.494,230.641 77.904 C 229.859 78.050,229.729 79.222,230.332 80.688 C 230.847 81.941,225.009 82.101,224.412 80.851 C 224.223 80.455,223.759 79.888,223.380 79.590 C 222.425 78.839,223.006 78.659,225.641 78.889 C 227.479 79.049,227.781 79.009,228.399 78.523 C 228.780 78.223,229.207 77.977,229.346 77.977 C 229.486 77.977,229.858 77.303,230.173 76.479 C 230.844 74.726,230.759 74.541,228.845 73.570 C 228.150 73.219,227.507 72.809,227.415 72.660 C 227.164 72.254,226.042 72.333,225.587 72.788 C 224.988 73.387,224.955 73.328,224.835 71.445 C 224.717 69.593,224.294 69.004,221.743 67.140 L 220.933 66.549 220.114 67.482 C 219.663 67.995,219.295 68.538,219.295 68.689 C 219.295 68.840,218.950 69.253,218.529 69.608 C 218.054 70.007,217.648 70.708,217.461 71.453 C 217.166 72.623,217.131 72.655,216.109 72.655 C 215.451 72.655,214.684 72.896,214.050 73.303 C 212.196 74.495,212.034 74.730,212.178 76.012 C 212.298 77.077,212.259 77.179,211.725 77.179 C 211.403 77.179,210.570 77.373,209.873 77.610 C 208.197 78.182,207.945 77.923,208.411 76.107 C 208.776 74.684,208.289 73.719,207.206 73.719 C 207.030 73.719,206.542 73.360,206.121 72.921 C 205.644 72.423,205.088 72.122,204.644 72.122 C 204.035 72.122,203.813 71.880,203.105 70.442 C 202.320 68.847,201.691 68.254,199.425 66.973 C 198.909 66.681,198.311 67.069,197.701 68.090 C 197.382 68.625,196.881 69.257,196.588 69.495 C 196.294 69.733,195.862 70.448,195.628 71.083 C 195.254 72.093,195.069 72.269,194.141 72.485 C 191.318 73.145,189.517 75.137,190.552 76.453 C 191.254 77.345,191.291 77.309,189.643 77.333 C 188.744 77.345,187.934 77.530,187.484 77.825 C 186.275 78.617,185.773 77.861,186.494 76.333 C 187.141 74.963,186.942 74.384,185.639 73.840 C 185.157 73.638,184.418 73.185,183.998 72.834 C 183.577 72.483,182.994 72.120,182.701 72.029 C 182.409 71.937,181.883 71.321,181.532 70.660 C 180.738 69.160,179.822 68.233,178.447 67.536 C 177.859 67.238,177.307 66.884,177.220 66.748 C 177.133 66.613,176.684 66.933,176.222 67.459 M178.434 74.434 C 179.518 74.951,179.561 75.140,178.856 76.297 C 177.753 78.105,176.432 77.935,176.057 75.937 C 175.741 74.252,176.734 73.623,178.434 74.434 M200.146 74.391 C 201.323 75.000,201.058 76.736,199.676 77.476 C 198.408 78.155,197.325 75.501,198.422 74.404 C 198.942 73.884,199.162 73.882,200.146 74.391 M222.225 74.466 C 222.966 75.066,222.784 76.276,221.817 77.185 C 221.010 77.942,220.495 77.609,220.078 76.057 C 219.609 74.318,220.880 73.377,222.225 74.466 M244.576 75.258 C 244.583 76.669,243.267 78.207,242.648 77.511 C 241.151 75.826,242.034 73.472,243.789 74.470 C 244.221 74.716,244.575 75.070,244.576 75.258 M157.952 74.618 C 158.400 74.946,158.420 75.099,158.134 76.051 C 157.517 78.111,156.401 78.077,155.757 75.978 C 155.328 74.580,156.720 73.718,157.952 74.618 M168.222 78.434 C 169.197 79.010,169.192 79.287,168.187 80.249 C 167.541 80.868,167.288 80.966,166.923 80.738 C 164.887 79.466,166.157 77.214,168.222 78.434 M189.961 78.392 C 190.740 78.938,190.707 79.393,189.814 80.392 L 189.076 81.219 188.350 80.493 C 187.298 79.441,187.728 77.977,189.088 77.977 C 189.243 77.977,189.635 78.164,189.961 78.392 M211.889 78.418 C 212.682 79.136,212.096 80.905,211.064 80.905 C 210.589 80.905,209.182 79.596,209.182 79.156 C 209.182 78.311,211.172 77.769,211.889 78.418 M233.942 78.519 C 234.468 79.046,234.470 79.084,234.008 79.870 C 233.218 81.217,233.041 81.238,231.947 80.118 L 230.932 79.078 231.833 78.529 C 232.959 77.842,233.263 77.841,233.942 78.519 M161.997 79.174 C 164.407 78.827,166.919 80.554,165.280 81.432 C 163.554 82.355,159.220 81.419,158.857 80.044 C 158.474 78.595,158.775 78.245,159.901 78.829 C 160.619 79.201,161.175 79.292,161.997 79.174 M186.116 79.108 C 186.202 79.584,186.348 80.228,186.439 80.538 C 186.658 81.286,185.483 81.710,183.260 81.685 C 181.113 81.660,180.762 81.488,180.174 80.176 C 179.566 78.816,179.854 78.631,182.138 78.916 C 183.196 79.049,183.762 78.988,184.330 78.680 C 185.523 78.034,185.938 78.133,186.116 79.108 M208.061 79.641 C 208.420 81.429,208.325 81.508,205.636 81.649 C 203.018 81.786,202.473 81.568,202.057 80.213 C 201.632 78.826,201.810 78.691,203.827 78.874 C 205.121 78.991,205.766 78.931,206.254 78.648 C 207.450 77.955,207.756 78.124,208.061 79.641 M241.220 80.147 C 240.833 81.498,235.687 82.457,234.769 81.350 C 233.689 80.049,236.168 78.623,238.375 79.277 C 238.843 79.415,239.262 79.449,239.307 79.352 C 239.980 77.884,241.668 78.586,241.220 80.147 M175.486 78.975 C 175.799 80.024,175.267 81.294,174.440 81.471 C 172.686 81.848,169.528 81.549,169.528 81.007 C 169.528 80.009,171.003 78.721,172.013 78.837 C 172.622 78.907,173.480 78.876,173.919 78.768 C 175.179 78.459,175.338 78.480,175.486 78.975 M197.386 78.796 C 197.707 79.117,197.425 80.792,196.974 81.243 C 196.531 81.686,192.939 81.790,191.841 81.391 L 190.867 81.038 191.748 79.992 C 192.585 78.998,192.723 78.938,194.584 78.767 C 195.660 78.668,196.666 78.570,196.820 78.549 C 196.973 78.527,197.228 78.639,197.386 78.796 M219.427 78.842 C 219.989 80.459,218.586 81.659,216.101 81.687 C 211.662 81.737,211.637 79.453,216.070 78.877 C 219.228 78.468,219.297 78.467,219.427 78.842 M201.856 84.485 C 202.726 84.711,203.803 84.901,204.248 84.905 C 204.998 84.912,205.018 84.936,204.524 85.238 C 203.818 85.668,184.541 85.702,183.814 85.273 C 183.431 85.048,183.902 84.920,186.076 84.661 C 189.490 84.254,188.975 84.256,191.484 84.633 C 195.039 85.166,198.450 84.602,198.910 83.403 C 199.066 82.997,199.139 83.007,199.677 83.513 C 200.005 83.821,200.985 84.258,201.856 84.485 M180.439 84.650 C 180.951 84.779,181.790 84.900,182.302 84.918 L 183.234 84.953 182.169 85.304 C 180.817 85.749,174.898 85.810,173.870 85.389 C 173.135 85.088,173.151 85.075,174.717 84.710 C 175.595 84.505,176.474 84.179,176.671 83.985 C 176.966 83.692,177.238 83.699,178.267 84.024 C 178.950 84.239,179.927 84.521,180.439 84.650 M156.088 95.794 C 154.677 96.371,154.448 97.086,155.377 98.015 L 156.231 98.869 198.076 98.949 C 241.828 99.032,242.970 99.013,243.803 98.180 C 244.488 97.495,244.449 96.467,243.720 95.957 C 243.063 95.496,157.204 95.337,156.088 95.794 M194.630 126.850 C 194.291 126.988,194.445 128.757,194.834 129.184 C 195.201 129.587,195.811 128.857,195.926 127.876 C 196.049 126.821,195.590 126.458,194.630 126.850 M185.895 127.927 C 184.368 128.744,184.672 129.607,186.486 129.607 C 187.520 129.607,187.839 129.091,187.399 128.127 C 187.055 127.371,186.958 127.358,185.895 127.927 M207.851 128.387 C 206.625 128.830,206.665 129.394,207.942 129.696 C 209.240 130.003,209.949 129.480,209.464 128.574 C 209.121 127.933,209.112 127.932,207.851 128.387 M212.696 128.876 C 212.184 129.494,212.995 130.186,214.120 130.091 C 215.268 129.994,215.970 129.231,215.303 128.806 C 214.727 128.439,213.021 128.485,212.696 128.876 M190.432 130.291 C 189.920 131.072,190.238 131.737,191.125 131.737 C 191.789 131.737,192.028 131.070,191.657 130.256 C 191.281 129.429,190.991 129.438,190.432 130.291 M202.665 130.933 C 202.310 131.507,203.067 132.269,203.992 132.269 C 205.036 132.269,205.829 131.338,205.151 130.908 C 204.656 130.595,202.863 130.613,202.665 130.933 M196.822 132.433 C 196.611 133.275,196.549 133.220,197.937 133.433 C 199.369 133.652,199.483 133.100,198.172 132.291 C 197.044 131.593,197.033 131.594,196.822 132.433 M208.666 132.914 C 208.088 133.610,208.702 135.661,209.364 135.245 C 209.996 134.849,210.218 133.178,209.684 132.844 C 209.061 132.455,209.046 132.456,208.666 132.914 M192.593 134.575 C 191.699 135.469,192.919 136.709,193.880 135.883 C 194.648 135.224,194.653 135.201,194.138 134.812 C 193.579 134.389,192.885 134.283,192.593 134.575 M199.784 135.943 C 198.828 136.940,198.881 137.225,200.060 137.417 C 201.305 137.619,201.548 137.377,201.320 136.162 C 201.102 135.002,200.735 134.949,199.784 135.943 M198.003 155.538 L 198.004 170.159 197.426 170.774 C 196.611 171.642,196.755 171.682,200.352 171.599 L 203.570 171.524 202.783 170.353 L 201.996 169.181 201.996 164.280 C 201.996 161.216,202.106 159.174,202.290 158.831 C 202.489 158.458,202.495 158.228,202.309 158.113 C 201.329 157.507,201.138 148.465,202.067 146.657 C 202.385 146.039,202.449 145.656,202.266 145.473 C 202.118 145.325,201.996 144.278,201.996 143.148 L 201.996 141.093 199.999 141.006 L 198.003 140.918 198.003 155.538 " stroke="none" fill="#b4681f" fill-rule="evenodd"></path></g></svg>