<svg width="30" height="24" viewBox="0 0 30 24" fill="none" xmlns="http://www.w3.org/2000/svg">
<g clip-path="url(#clip0_4_165765)">
<path d="M29.9486 0.681265C29.7569 0.91861 29.1505 1.08382 28.4119 1.09791C28.2566 1.101 28.1004 1.09928 27.9441 1.09928H14.9877C10.5827 1.09928 6.17781 1.10031 1.77183 1.09825C0.504945 1.09791 -0.323325 0.722139 0.120502 0.352898C0.37263 0.143719 0.860214 0.0276228 1.5395 0.00289221C1.67702 -0.00225999 1.81663 0.000487854 1.9552 0.000487854C10.6619 0.000487854 19.3686 0.000831334 28.0754 -0.000199106C28.4817 -0.000542586 28.8703 0.0118227 29.2204 0.0860144C29.8267 0.215163 30.1268 0.460064 29.9486 0.681265Z" fill="black"/>
<path d="M29.9902 10.6037C29.9048 10.8651 29.237 11.0744 28.4275 11.0915C28.2545 11.0953 28.0805 11.0929 27.9065 11.0929H15.0033C10.5983 11.0929 6.19236 11.0939 1.78743 11.0922C0.513246 11.0919 -0.318148 10.7224 0.117344 10.3522C0.371555 10.1358 0.872684 10.0157 1.57697 9.9982C1.90411 9.98963 2.23542 9.9958 2.56464 9.9958C11.0463 9.9958 19.527 9.9958 28.0086 9.99615C28.2837 9.99615 28.5587 9.99169 28.8307 10.0222C29.5902 10.1066 30.0757 10.3461 29.9902 10.6037Z" fill="black"/>
<path d="M29.2459 21.0034C28.899 21.08 28.5145 21.0965 28.1061 21.0965C22.5218 21.0947 16.9375 21.0954 11.3522 21.0954C8.16102 21.0954 4.96984 21.0968 1.77866 21.0947C0.508647 21.0937 -0.312329 20.7217 0.116913 20.3505C0.376333 20.1262 0.976437 19.9977 1.79429 19.997C4.06656 19.996 6.33778 19.9967 8.61005 19.9967H15.0101C19.4151 19.9967 23.821 19.9963 28.226 19.9974C29.0917 19.9974 29.7168 20.1492 29.9388 20.4051C30.1325 20.6283 29.8523 20.8694 29.2459 21.0034Z" fill="black"/>
</g>
<defs>
<clipPath id="clip0_4_165765">
<rect width="30" height="23.3333" fill="white"/>
</clipPath>
</defs>
</svg>
