<svg width="218" height="147" viewBox="0 0 218 147" fill="none" xmlns="http://www.w3.org/2000/svg">
<g clip-path="url(#clip0_3811_5828)">
<path d="M151.613 104.255C136.22 105.822 120.41 105.409 104.954 105.174C99.483 105.088 93.8491 104.626 89.4412 101.009C85.6356 97.8827 83.5734 93.1619 82.475 88.4554C81.1923 82.9158 81.1214 77.1769 81.0434 71.5234C80.9371 63.8263 81.0434 56.1293 81.3836 48.4394C81.7309 40.5216 82.2907 32.6038 83.1198 24.7217C83.7151 19.0824 84.4947 13.1156 87.9175 8.40907C94.253 -0.306175 106.067 -0.605232 115.775 0.405846C130.246 1.90823 144.696 4.45018 159.011 7.04909C174.241 9.81176 189.47 12.8592 204.487 16.6401C209.575 17.9218 213.791 20.0935 215.591 25.3482C217.746 31.6283 217.285 39.1901 217.562 45.7408C217.923 54.3919 218.079 63.0502 217.973 71.7014C217.923 76.1444 217.852 80.5946 217.625 85.0306C217.484 87.8929 217.236 90.7838 215.351 93.0836C213.437 95.4262 210.397 96.6865 207.718 97.9041C204.295 99.4563 200.78 100.781 197.173 101.842C189.647 104.056 181.838 105.06 174.007 105.017C172.193 105.003 172.185 102.162 174.007 102.176C186.366 102.29 200.412 99.8479 211.07 93.1477C214.373 91.0757 214.769 87.9641 214.918 84.3328C215.06 80.8296 215.145 77.3193 215.202 73.809C215.308 67.0233 215.258 60.2377 215.067 53.4592C214.883 46.9085 214.55 40.365 214.068 33.8285C213.855 30.959 213.657 27.997 212.466 25.3411C210.893 21.8308 207.739 20.542 204.231 19.6378C191.539 16.3695 178.599 13.8276 165.729 11.3853C152.513 8.87188 139.232 6.67883 125.909 4.8062C116.151 3.4391 103.522 0.633698 94.5578 6.3157C89.2498 9.67648 87.4073 15.6148 86.5782 21.5389C85.6923 27.8973 85.26 34.3554 84.849 40.7637C84.0199 53.687 83.4742 66.8596 84.3033 79.7971C84.6506 85.1587 85.5081 90.9475 88.5199 95.5116C92.5877 101.678 99.5185 102.126 106.251 102.205C121.338 102.383 136.546 101.728 151.613 102.582C152.697 102.646 152.669 104.149 151.613 104.255Z" fill="black"/>
<path d="M152.151 103.55C154.837 106.883 155.772 112.152 157.14 116.168C158.869 121.259 160.605 126.343 162.335 131.434C161.583 131.334 160.825 131.234 160.074 131.134C164.319 121.323 168.62 111.539 172.922 101.756C173.595 100.232 175.821 101.55 175.154 103.066C170.86 112.85 166.565 122.633 162.207 132.388C161.739 133.434 160.244 133.014 159.946 132.089C158.366 127.197 156.793 122.312 155.212 117.421C153.873 113.263 151.322 108.221 151.499 103.814C151.513 103.515 151.924 103.273 152.144 103.543L152.151 103.55Z" fill="black"/>
<path d="M147.285 66.1974C156.733 65.4965 166.405 66.8361 175.848 67.5059C185.33 68.1757 194.953 68.347 204.387 69.9592C205.185 70.0916 205.224 72.0232 204.387 71.9998C194.885 71.735 185.34 70.224 175.848 69.4608C166.376 68.7053 156.708 68.8221 147.285 67.1398C146.915 67.0697 146.895 66.2208 147.285 66.1896V66.1974Z" fill="black"/>
<path d="M141.284 49.0085C151.502 49.8436 161.725 51.7457 171.914 53.1298C182.113 54.5216 192.39 55.4881 202.544 57.4907C203.135 57.6067 203.169 59.0526 202.544 58.9985C192.326 58.0939 182.103 56.1221 171.914 54.5912C161.72 53.0602 151.438 52.0241 141.284 49.9441C140.918 49.8668 140.893 48.9699 141.284 49.0008V49.0085Z" fill="black"/>
<path d="M152.306 37.0993C161.007 36.6096 169.899 38.0628 178.6 38.5919C182.904 38.8525 187.203 39.1131 191.507 39.3737C195.513 39.6185 199.787 39.5317 203.646 41.4586C204.272 41.7666 203.994 43.125 203.382 42.9907C194.838 41.1348 186.249 40.7715 177.641 40.124C169.253 39.4922 160.64 39.7133 152.301 38.1101C151.91 38.0312 151.89 37.123 152.301 37.0993H152.306Z" fill="black"/>
</g>
<g clip-path="url(#clip1_3811_5828)">
<path d="M57.6663 122.146C71.0362 123.5 84.7694 123.143 98.1947 122.94C102.947 122.866 107.841 122.466 111.669 119.338C114.975 116.635 116.766 112.554 117.72 108.484C118.834 103.694 118.896 98.7319 118.964 93.8435C119.056 87.1882 118.964 80.5328 118.668 73.8837C118.367 67.0375 117.88 60.1913 117.16 53.3759C116.643 48.4998 115.966 43.3405 112.993 39.271C107.49 31.7353 97.2283 31.4767 88.7951 32.3509C76.2254 33.65 63.6741 35.8479 51.2398 38.0951C38.0115 40.4839 24.7831 43.1189 11.7394 46.3881C7.31964 47.4963 3.65707 49.3741 2.09354 53.9177C0.222244 59.3478 0.622353 65.8862 0.382286 71.5503C0.0683517 79.0306 -0.06707 86.5171 0.0252609 93.9974C0.0683517 97.8392 0.129913 101.687 0.326889 105.523C0.450005 107.998 0.665443 110.497 2.30283 112.486C3.96484 114.511 6.6056 115.601 8.93241 116.654C11.9056 117.996 14.9587 119.141 18.0919 120.059C24.6292 121.973 31.4126 122.841 38.2146 122.804C39.7904 122.792 39.7966 120.336 38.2146 120.348C27.4792 120.446 15.2788 118.335 6.02081 112.541C3.15231 110.75 2.80759 108.059 2.67832 104.919C2.55521 101.89 2.48135 98.855 2.43211 95.8198C2.33977 89.9525 2.38286 84.0852 2.54906 78.2241C2.70911 72.56 2.99841 66.902 3.41699 61.2502C3.60166 58.7691 3.77402 56.2079 4.80817 53.9115C6.17471 50.8763 8.91394 49.7619 11.961 48.98C22.9856 46.1541 34.2258 43.9562 45.4043 41.8445C56.8845 39.6712 68.4201 37.7749 79.9926 36.1557C88.4689 34.9737 99.4382 32.5479 107.225 37.4609C111.836 40.3669 113.436 45.5015 114.156 50.6239C114.926 56.1217 115.301 61.7058 115.658 67.2468C116.378 78.4211 116.852 89.8109 116.132 100.998C115.831 105.633 115.086 110.639 112.47 114.585C108.936 119.917 102.916 120.305 97.0682 120.373C83.963 120.526 70.7531 119.96 57.6663 120.699C56.7245 120.754 56.7491 122.053 57.6663 122.146Z" fill="black"/>
<path d="M57.1976 121.536C54.8646 124.417 54.052 128.973 52.864 132.446C51.362 136.848 49.8539 141.244 48.352 145.646C49.0045 145.559 49.6631 145.473 50.3156 145.387C46.6284 136.903 42.8919 128.444 39.1555 119.985C38.5707 118.667 36.6379 119.806 37.2165 121.117C40.9468 129.577 44.6771 138.036 48.4628 146.471C48.869 147.376 50.1679 147.012 50.4264 146.212C51.7991 141.982 53.1656 137.759 54.5383 133.529C55.7017 129.934 57.9178 125.575 57.7639 121.764C57.7516 121.505 57.3945 121.296 57.2037 121.53L57.1976 121.536Z" fill="black"/>
<path d="M58.7692 89.1645C51.1131 88.5804 43.2755 89.6967 35.6233 90.2549C27.9395 90.8131 20.1414 90.9559 12.4971 92.2994C11.8502 92.4097 11.8186 94.0193 12.4971 93.9998C20.1966 93.7792 27.9316 92.52 35.6233 91.884C43.2991 91.2544 51.1328 91.3518 58.7692 89.9498C59.069 89.8914 59.0848 89.184 58.7692 89.158V89.1645Z" fill="black"/>
<path d="M63.7713 75.0068C55.5308 75.6749 47.2863 77.1966 39.0693 78.3038C30.8445 79.4173 22.5568 80.1905 14.3674 81.7926C13.8914 81.8854 13.8639 83.0421 14.3674 82.9988C22.6079 82.2751 30.8524 80.6977 39.0693 79.4729C47.2902 78.2482 55.5819 77.4193 63.7713 75.7553C64.0663 75.6934 64.086 74.9759 63.7713 75.0006V75.0068Z" fill="black"/>
<path d="M54.7531 64.0827C47.7253 63.6747 40.5434 64.8856 33.5157 65.3266C30.0393 65.5437 26.5669 65.7609 23.0905 65.9781C19.8551 66.1821 16.4025 66.1097 13.2856 67.7155C12.78 67.9722 13.0051 69.1041 13.4989 68.9922C20.4003 67.4457 27.3372 67.143 34.2899 66.6033C41.0649 66.0768 48.0216 66.2611 54.757 64.9251C55.073 64.8593 55.0888 64.1025 54.757 64.0827H54.7531Z" fill="black"/>
</g>
<defs>
<clipPath id="clip0_3811_5828">
<rect width="137" height="133" fill="white" transform="matrix(1 0 0 -1 81 133)"/>
</clipPath>
<clipPath id="clip1_3811_5828">
<rect width="119" height="115" fill="white" transform="translate(119 147) rotate(-180)"/>
</clipPath>
</defs>
</svg>
