<svg width="120" height="120" viewBox="0 0 120 120" fill="none" xmlns="http://www.w3.org/2000/svg">
<circle cx="60" cy="60" r="59" fill="white" stroke="black" stroke-width="2"/>
<path d="M89.7282 39H30.2718C29.2035 39 29 39.2018 29 40.2606V80.2525C29 81.3124 29.2023 81.5143 30.2718 81.5143H89.7282C90.7977 81.5143 91 81.3124 91 80.2537V40.2606C91 39.2018 90.7977 39 89.7282 39ZM88.0205 40.5809C88.0737 40.7779 87.8763 40.8335 87.7794 40.9278C79.4137 49.0656 71.0455 57.1999 62.6701 65.3292C61.0471 66.9041 59.0304 66.9682 57.4486 65.4368C48.9363 57.189 40.4422 48.923 31.8572 40.5809H88.0205ZM30.5721 79.1888V41.6216C30.7841 41.5648 30.8447 41.7593 30.9428 41.8548C37.4069 48.1289 43.865 54.4079 50.3256 60.6844C50.5569 60.9092 50.8028 61.0446 50.4007 61.4048C43.9123 67.2087 37.442 73.032 30.967 78.8504C30.8665 78.9399 30.7623 79.0257 30.5721 79.1888ZM32.0946 79.9261C32.6869 79.3895 33.2125 78.9096 33.7418 78.4346C39.6319 73.1408 45.528 67.8529 51.4047 62.5457C51.7863 62.2013 51.9607 62.246 52.2938 62.5796C53.6018 63.8934 54.9342 65.183 56.2737 66.4654C58.5193 68.6156 61.4783 68.6144 63.725 66.4642C64.9762 65.2652 66.2262 64.0638 67.4434 62.831C67.7971 62.472 67.9921 62.4478 68.3881 62.7923C74.386 68.0233 80.402 73.2362 86.4132 78.4528C86.9534 78.9217 87.4936 79.3919 88.1077 79.9261H32.0946ZM89.4158 79.0039C88.19 77.9427 87.0236 76.9359 85.8609 75.9267C80.3814 71.1707 74.9044 66.4146 69.4225 61.661C69.1778 61.4495 68.9877 61.3347 69.3401 60.9926C75.9872 54.5578 82.6185 48.1072 89.2535 41.6602C89.2801 41.6336 89.314 41.6143 89.4158 41.5394V79.0039Z" fill="black"/>
</svg>
