<svg width="19" height="24" viewBox="0 0 19 24" fill="none" xmlns="http://www.w3.org/2000/svg">
<g clip-path="url(#clip0_1232_3221)">
<path d="M10.4519 7.0639C11.002 7.42734 11.473 7.89827 11.8364 8.44837C12.1274 8.88626 12.2245 10.5854 12.4185 11.3615C12.4919 11.6552 14.3038 11.8859 14.5765 15.3786L14.0206 15.806L11.1075 11.7365C10.314 10.6586 9.46232 9.6248 8.55615 8.63978L10.4519 7.0639Z" fill="#141B54"/>
<path d="M15.1505 14.2956C15.515 14.2012 16.2623 15.7797 16.8208 17.8223C17.3793 19.8649 17.534 21.5955 17.1721 21.6899L17.3478 22.9511L17.416 22.9302H17.4868C17.6676 22.9039 17.8355 22.8213 17.9668 22.6943C18.0981 22.5672 18.1861 22.4021 18.2183 22.2222C18.4989 21.3753 18.4124 19.663 17.9378 17.7646C17.4134 15.7116 16.611 14.0544 15.9266 13.5431C15.8035 13.4525 15.6613 13.3913 15.5109 13.364C15.3605 13.3368 15.2058 13.3442 15.0587 13.3858L14.9932 13.4067H14.9224L15.1505 14.2956Z" fill="#302F2F"/>
<path d="M17.2118 18.0819C17.3508 18.6562 17.2118 19.1858 16.8893 19.2593C16.5667 19.3327 16.2075 18.9315 16.0712 18.3573C15.9348 17.783 16.0712 17.2534 16.3911 17.1773C16.711 17.1013 17.0728 17.5051 17.2118 18.0819Z" fill="#9E9898"/>
<path d="M18.1108 17.7253C17.5863 15.6277 16.784 13.9128 16.0996 13.3858C15.9781 13.2919 15.8361 13.2283 15.6852 13.2C15.5343 13.1718 15.3789 13.1797 15.2317 13.2232L15.1661 13.2442H15.0953C14.6784 13.3464 14.1697 13.724 14.0989 14.0072C13.8367 14.7283 14.099 16.8653 14.6758 18.9263C15.2972 21.0921 16.055 22.3586 16.7892 22.9066C16.889 22.9906 17.0081 23.0485 17.1358 23.075C17.2635 23.1016 17.3958 23.096 17.5208 23.0587L17.5916 23.0377H17.6598C17.8427 23.0083 18.0118 22.922 18.1431 22.7912C18.2744 22.6604 18.3612 22.4916 18.3913 22.3088C18.6719 21.4382 18.5853 19.6788 18.1108 17.7253ZM17.9639 21.5588C17.5994 21.6558 16.8521 20.0328 16.2936 17.9325C15.7351 15.8322 15.5778 14.0492 15.9423 13.9521C16.3068 13.8551 17.0567 15.4808 17.6126 17.5811C18.1684 19.6814 18.3284 21.4618 17.9639 21.5588Z" fill="black"/>
<path d="M12.8827 16.5821L7.13766 18.9053L4.71484 11.2304L8.83939 10.0505L12.8827 16.5821Z" fill="black"/>
<path d="M10.0141 21.1262L15.6988 19.4507L15.552 18.942L13.0033 19.3065L12.201 17.4841L8.99414 18.1396L10.0141 21.1262Z" fill="#9E9898"/>
<path d="M15.5885 19.178C15.5518 18.9394 15.0955 18.3573 14.7678 18.3573C14.3907 18.2955 14.0232 18.1854 13.6743 18.0295C13.6743 18.0295 13.4121 16.6083 13.0739 16.4562C12.7356 16.3042 9.74121 17.3294 9.74121 17.3294L10.9421 20.2268L15.5885 19.178Z" fill="#B5B1B1"/>
<path d="M4.19015 11.7994C3.87317 12.4829 3.79559 13.2532 3.9699 13.9862C4.11673 14.5683 7.46777 19.3038 7.46777 19.3038L6.95908 16.826L4.94532 11.6316L4.19015 11.7994Z" fill="black"/>
<path d="M6.87268 16.0682C6.89592 16.1547 6.88384 16.247 6.8391 16.3247C6.79436 16.4024 6.72062 16.4591 6.63407 16.4824C6.54922 16.5107 6.45662 16.5043 6.37652 16.4645C6.29643 16.4247 6.23535 16.3548 6.20667 16.2701L4.7147 11.3195C4.69145 11.233 4.70352 11.1407 4.74826 11.063C4.793 10.9853 4.86675 10.9286 4.95331 10.9053C5.03815 10.877 5.13075 10.8834 5.21085 10.9232C5.29095 10.963 5.35202 11.0329 5.38071 11.1176L6.87268 16.0682Z" fill="#B5B1B1"/>
<path d="M10.4834 17.9377C10.5515 18.2157 10.6459 18.6116 10.4598 18.6588C10.2736 18.706 10.0638 18.5198 9.99566 18.2419L8.01335 10.3232C7.94518 10.0479 8.03958 9.78303 8.22575 9.73845C8.41192 9.69126 8.62168 9.87742 8.68986 10.1554L10.4834 17.9377Z" fill="#B5B1B1"/>
<path d="M7.55453 14.9695C7.01438 15.2527 6.78889 15.4598 6.78889 15.625C6.78889 15.7902 8.32019 20.1612 8.04749 20.1612C7.77479 20.1612 7.59912 20.2819 7.46277 19.9593C6.95408 18.7584 6.02586 16.4982 6.0783 16.1154C6.11193 15.8854 6.18653 15.6634 6.29856 15.4598C6.30013 15.2508 6.36412 15.047 6.48232 14.8746C6.60052 14.7022 6.76754 14.5691 6.96195 14.4923C7.67516 14.1566 7.55453 14.9695 7.55453 14.9695Z" fill="#CC4400"/>
<path d="M7.67499 14.1567C7.50363 14.2047 7.34641 14.2934 7.21674 14.4153C7.08708 14.5372 6.98882 14.6887 6.93032 14.8568C6.77037 15.5542 7.14271 17.1144 7.71695 19.1806C8.32003 21.3517 9.02799 23.0429 9.40033 23.6381C9.42367 23.7071 9.46038 23.7707 9.50835 23.8254C9.55632 23.8801 9.61461 23.9248 9.67988 23.957C9.74516 23.9891 9.81614 24.0081 9.88875 24.0128C9.96136 24.0174 10.0342 24.0078 10.103 23.9843C10.2903 23.9516 10.457 23.846 10.5666 23.6907C10.6762 23.5354 10.7197 23.343 10.6878 23.1557L8.5901 14.6339C8.56205 14.542 8.516 14.4566 8.45461 14.3827C8.39323 14.3088 8.31774 14.2479 8.23256 14.2035C8.14739 14.1591 8.05422 14.132 7.95849 14.124C7.86276 14.116 7.76639 14.1271 7.67499 14.1567Z" fill="black"/>
<path d="M7.78249 14.1304C7.91859 14.0942 8.06246 14.0998 8.19531 14.1466C8.32817 14.1933 8.44382 14.2791 8.52716 14.3926C8.96768 14.9407 9.54716 16.6975 10.0611 18.7794C10.5567 20.7879 10.8477 22.508 10.7481 23.2369C10.756 23.3981 10.7077 23.5569 10.6116 23.6865C10.5155 23.8161 10.3775 23.9083 10.221 23.9475C10.0458 23.995 9.85891 23.9712 9.7012 23.8813C9.54349 23.7913 9.42777 23.6427 9.37934 23.4677L7.28167 14.9459C7.24203 14.7715 7.27224 14.5885 7.36584 14.4361C7.45945 14.2837 7.60901 14.1739 7.78249 14.1304Z" fill="black"/>
<path d="M9.72302 18.7217C10.2658 20.9164 10.5096 22.7493 10.4284 22.7702C10.3471 22.7912 9.8515 21.0239 9.30872 18.8371C8.76595 16.6503 8.38575 14.841 8.46441 14.8227C8.54307 14.8043 9.17238 16.527 9.72302 18.7217Z" fill="#302F2F"/>
<path style="mix-blend-mode:multiply" d="M9.54179 12.0302L7.61192 15.6119L5.96263 16.3461L4.69092 13.3858C4.69092 13.3858 7.09013 12.0223 7.16879 11.9961C7.24745 11.9699 8.47983 11.8728 8.47983 11.8728L9.54179 12.0302Z" fill="url(#paint0_linear_1232_3221)"/>
<path d="M9.35865 18.8318L9.93027 18.6693C10.1217 18.6247 10.2502 18.4752 10.2161 18.3336C10.1836 18.2581 10.1232 18.1979 10.0475 18.1657C9.97184 18.1335 9.88665 18.1316 9.80965 18.1606L9.27212 18.2865C9.23649 18.3257 9.21011 18.3724 9.19496 18.4232C9.1798 18.474 9.17624 18.5276 9.18455 18.5799C9.19285 18.6323 9.21281 18.6821 9.24295 18.7257C9.27308 18.7693 9.31262 18.8056 9.35865 18.8318Z" fill="black"/>
<path d="M6.96179 14.4923C7.56749 14.0963 8.51144 13.9023 8.91 14.1488C9.23109 14.3391 9.58827 14.4606 9.95884 14.5054C9.95884 14.5054 10.6327 18.0845 10.7061 19.0495C10.7376 19.4769 10.1817 19.2304 10.1817 19.2304C10.1817 19.2304 9.16172 15.2055 8.99915 15.0796C8.27021 14.5133 7.25284 15.1635 6.91721 15.3418C6.81232 15.4074 6.96179 14.4923 6.96179 14.4923Z" fill="#EA6A13"/>
<path d="M3.57148 3.68927C2.992 3.8466 2.61179 3.97246 2.40202 4.41297C1.63804 4.89881 0.920092 5.45351 0.257151 6.07013C-0.456058 6.8148 0.498386 8.1678 1.29288 8.6188C2.08737 9.0698 2.49641 8.6188 2.49117 8.31988C2.48593 8.02097 1.77534 6.69419 1.77534 6.69419C2.28141 6.61028 3.63703 6.45558 3.98839 5.79219C4.33975 5.1288 3.57148 3.68927 3.57148 3.68927Z" fill="#234099"/>
<path d="M1.56817 7.76399C1.382 7.90559 1.19321 8.04718 1.19583 8.23859C1.19845 8.43 2.26827 8.51653 2.43084 8.45885C2.59341 8.40116 2.39675 8.10224 2.5331 8.09962C2.67623 8.12051 2.81516 8.16387 2.94477 8.2281C2.94477 8.2281 3.20698 8.08651 2.99459 8.00785C2.7822 7.92918 2.49639 7.69057 2.24991 7.64075C2.01657 7.63397 1.78437 7.67594 1.56817 7.76399Z" fill="#B5B1B1"/>
<path d="M8.38578 1.99017C9.11735 2.03213 8.64799 3.51098 9.20388 3.82564C9.20388 3.82564 9.53688 6.25369 10.6434 6.88562C11.0079 7.52541 10.3156 7.90561 9.98788 8.12586C9.65487 8.38807 7.46018 9.43691 7.14553 9.54704C6.34579 9.41331 4.03049 7.10325 5.04786 3.8099C5.07408 3.72075 6.68929 3.00754 6.30908 2.04786C6.28811 2.03475 7.68831 1.95084 8.38578 1.99017Z" fill="#234099"/>
<path d="M3.62932 6.41887C3.62932 6.24844 2.69324 3.91478 2.69324 3.91478C2.53592 3.68666 3.83909 2.99442 4.46053 2.5408C4.62572 3.12291 5.57754 3.79154 5.57754 3.79154C5.29698 4.14814 5.57754 8.77351 8.1367 9.58636L5.80304 10.3153C5.43857 9.92986 5.44119 9.23762 5.2996 8.5585C5.12392 7.70108 3.77878 6.70468 3.62932 6.41887Z" fill="#141B54"/>
<path d="M8.23877 1.99016C8.93625 1.7699 11.3092 1.57325 11.9543 1.81186C12.5993 2.05047 12.185 3.71025 11.7891 4.31333C11.3931 4.91641 11.2647 4.98459 10.6694 4.99507C10.3784 4.99507 9.79629 4.64109 9.79629 4.64109C9.79629 4.64109 10.7455 3.03375 10.3758 3.40871C10.0478 3.69055 9.62527 3.83765 9.19321 3.82038C8.42756 3.41133 8.23877 1.99016 8.23877 1.99016Z" fill="#141B54"/>
<path d="M9.84864 4.69092C9.69656 4.87971 9.5471 5.43035 9.46319 5.50901C9.37929 5.58767 8.87061 6.15667 8.87061 6.15667C8.87061 6.15667 8.93616 6.19075 9.13281 6.09898C9.3429 6.01222 9.5343 5.8858 9.69656 5.72664L9.80931 5.94428C9.80931 5.94428 10.6274 6.18289 10.8581 5.87873C11.0889 5.57456 10.9158 5.13143 10.9237 4.88758C10.9316 4.64372 10.0558 4.43658 9.84864 4.69092Z" fill="#B5B1B1"/>
<path d="M7.75635 11.4349C8.19161 11.4349 9.11983 11.2907 9.52101 11.7443C9.92219 12.198 11.4719 15.5883 12.1274 15.9528C12.737 16.2481 13.3703 16.492 14.0205 16.6817L13.4384 15.5149C13.4384 15.5149 11.0077 11.178 10.3496 10.449C9.69145 9.72008 9.72292 9.11438 9.14081 9.11438C8.55871 9.11438 7.75635 11.4349 7.75635 11.4349Z" fill="#CC4400"/>
<path d="M15.9898 17.5575L13.2392 15.0797L12.1274 15.9528L15.9164 18.4307L15.9898 17.5575Z" fill="#EA6A13"/>
<path d="M15.6699 17.2927C15.6699 17.2927 16.8997 18.1921 16.9259 18.3835C16.9521 18.5749 16.9259 18.9315 16.682 18.8502C16.2539 18.631 15.8381 18.3885 15.4365 18.1239L15.6699 17.2927Z" fill="#B5B1B1"/>
<path d="M3.04443 8.24122L4.54689 8.02097L4.66751 8.87052L3.13096 8.74466L3.04443 8.24122Z" fill="black"/>
<path d="M3.35899 8.58996C3.41406 8.85217 3.22789 9.00687 2.97355 9.06456L1.88014 9.43689C1.74553 9.46666 1.60464 9.44459 1.48558 9.37509C1.36651 9.3056 1.27801 9.19378 1.23772 9.06193L1.13808 8.56636C1.08564 8.30415 1.47634 7.97639 1.73068 7.9187C1.73068 7.9187 3.23838 7.97639 3.30393 8.24908L3.35899 8.58996Z" fill="black"/>
<path d="M1.73076 7.9082C1.46855 7.96589 1.08573 8.28316 1.13817 8.55586L1.15128 8.62141L3.33287 8.44573L3.29353 8.23859C3.23846 7.96589 1.73076 7.9082 1.73076 7.9082Z" fill="#302F2F"/>
<path d="M4.47607 13.1288L5.20502 13.5483L9.21157 12.4549L9.69666 11.7811C9.69666 11.7811 8.41183 10.6352 6.28794 11.4349C5.8893 11.5841 5.52403 11.8105 5.21311 12.1012C4.90218 12.3919 4.65171 12.7411 4.47607 13.1288Z" fill="#302F2F"/>
<path d="M8.71322 6.47919L7.28418 7.2763L7.69585 8.03147L8.94396 6.93805L8.71322 6.47919Z" fill="black"/>
<path d="M8.64797 6.95377C8.76596 7.21598 9.01506 7.20025 9.26678 7.08225L10.4336 6.66796C10.5625 6.60936 10.6662 6.50654 10.7258 6.37812C10.7854 6.24969 10.7971 6.10416 10.7588 5.96787L10.5437 5.509C10.4231 5.24679 9.89347 5.24679 9.64174 5.3779C9.64174 5.3779 8.37528 6.40051 8.49589 6.65223L8.64797 6.95377Z" fill="black"/>
<path d="M9.64146 5.36478C9.90367 5.24416 10.4281 5.24416 10.5435 5.49589L10.5723 5.55882L8.58476 6.83053L8.49561 6.63912C8.38548 6.3874 9.64146 5.36478 9.64146 5.36478Z" fill="#302F2F"/>
<path d="M4.47614 13.1288C4.64657 12.6568 5.83701 12.0013 6.55284 11.844C6.19099 10.8974 5.2785 5.97049 5.2785 5.97049L3.41943 6.84627C3.41943 6.84627 3.54792 7.99212 3.71049 9.60471C3.7506 10.1604 3.69201 10.7188 3.53743 11.254C3.4037 11.629 4.47614 13.1288 4.47614 13.1288Z" fill="#CC4400"/>
<path d="M9.6968 11.781C8.88919 11.039 6.79677 11.7522 6.49523 11.844C5.65616 8.34872 5.28906 5.97048 5.28906 5.97048L7.23727 5.66107C7.23727 5.66107 7.61486 6.42934 8.14714 7.71941C8.67943 9.00948 9.22482 8.94917 9.56045 9.1773C9.89608 9.40542 9.6968 11.781 9.6968 11.781Z" fill="#EA6A13"/>
<path d="M6.71269 10.0085C6.72487 10.0974 6.7194 10.1878 6.69659 10.2745C6.67377 10.3612 6.63408 10.4426 6.57976 10.514C6.52544 10.5854 6.45757 10.6453 6.38004 10.6904C6.30252 10.7355 6.21686 10.7648 6.12796 10.7768C5.94726 10.7861 5.77023 10.7234 5.63559 10.6026C5.50096 10.4817 5.41967 10.3124 5.40951 10.1317C5.39695 10.0427 5.40214 9.95203 5.42478 9.86499C5.44742 9.77795 5.48706 9.69624 5.54141 9.62459C5.59576 9.55293 5.66375 9.49274 5.74147 9.44747C5.81919 9.40221 5.90509 9.37277 5.99424 9.36085C6.17537 9.35157 6.35277 9.41457 6.48749 9.53601C6.6222 9.65744 6.70319 9.82739 6.71269 10.0085Z" fill="black"/>
<path d="M6.45318 10.0321C6.46667 10.1397 6.43742 10.2483 6.37173 10.3346C6.30604 10.4209 6.20914 10.478 6.10182 10.4936C5.99304 10.4993 5.88641 10.4617 5.80532 10.389C5.72422 10.3162 5.67527 10.2143 5.66918 10.1055C5.66145 10.0514 5.66457 9.99628 5.67837 9.94337C5.69218 9.89046 5.71639 9.84083 5.74959 9.79738C5.78279 9.75393 5.8243 9.71753 5.87173 9.6903C5.91915 9.66308 5.97152 9.64557 6.02578 9.63881C6.13455 9.63454 6.24057 9.67353 6.32067 9.74724C6.40077 9.82094 6.44841 9.92337 6.45318 10.0321Z" fill="#B5B1B1"/>
<path d="M6.86229 7.54113C6.93571 7.86889 7.0301 8.04195 6.64465 8.16256L5.1186 8.5821C4.73053 8.70271 4.64401 8.50606 4.63614 8.25958L4.60205 7.29727C4.60205 7.16617 4.69382 7.03506 4.94292 6.95902L6.11237 6.64699C6.36147 6.56833 6.48209 6.63126 6.55289 6.74139L6.86229 7.54113Z" fill="white"/>
<path d="M4.60176 7.29203L4.63585 8.25434C4.63585 8.50082 4.73025 8.69747 5.11832 8.57686L5.71353 8.41166L5.40412 6.83841L4.94263 6.96165C4.69353 7.02982 4.59652 7.16093 4.60176 7.29203Z" fill="#B5B1B1"/>
<path d="M4.99026 7.90035C5.02087 7.92667 5.05715 7.94558 5.09626 7.95558C5.13537 7.96559 5.17627 7.96643 5.21576 7.95803C5.2637 7.9503 5.30663 7.92388 5.33514 7.88456C5.36364 7.84525 5.3754 7.79624 5.36784 7.74826C5.36747 7.72809 5.36225 7.7083 5.35263 7.69057C5.34301 7.67283 5.32926 7.65767 5.31255 7.64636C5.29585 7.63505 5.27667 7.62792 5.25663 7.62558C5.23659 7.62323 5.21627 7.62574 5.19741 7.63289C5.14465 7.64525 5.09702 7.67365 5.06106 7.71418L4.95618 7.67485L4.96928 7.23696L5.44388 7.12421L5.4701 7.27367L5.15021 7.34971V7.51228C5.17993 7.49059 5.21388 7.4754 5.24985 7.4677C5.28713 7.45486 5.32681 7.4506 5.36597 7.45522C5.40512 7.45985 5.44273 7.47324 5.47599 7.49441C5.50926 7.51557 5.53732 7.54397 5.55809 7.57748C5.57886 7.61099 5.5918 7.64875 5.59596 7.68796C5.61765 7.79468 5.59617 7.90565 5.53621 7.99657C5.47625 8.08749 5.38272 8.15095 5.27607 8.17304C5.21023 8.19353 5.14023 8.19682 5.07276 8.18259C5.00529 8.16836 4.94259 8.13709 4.89062 8.09176L4.99026 7.90035Z" fill="black"/>
<path d="M5.82401 7.70106C5.89783 7.7484 5.98676 7.76619 6.07311 7.75088C6.09578 7.7493 6.11772 7.74218 6.137 7.73015C6.15629 7.71812 6.17232 7.70155 6.18371 7.68188C6.1951 7.66221 6.20148 7.64005 6.20232 7.61734C6.20315 7.59462 6.1984 7.57205 6.18848 7.55161C6.18249 7.53116 6.17248 7.51211 6.15903 7.49558C6.14558 7.47905 6.12896 7.46538 6.11015 7.45537C6.09134 7.44535 6.07072 7.4392 6.0495 7.43726C6.02828 7.43533 6.00689 7.43765 5.98658 7.4441C5.93584 7.4544 5.89034 7.48225 5.85809 7.52276L5.74273 7.48605L5.66406 7.06914L6.13866 6.95639L6.19897 7.09798L5.87645 7.17402L5.90792 7.33135C5.93638 7.30919 5.96959 7.29394 6.00494 7.28677C6.08635 7.26284 6.1738 7.27064 6.24969 7.30858C6.32558 7.34653 6.38428 7.41181 6.41398 7.4913C6.43693 7.53673 6.44879 7.58695 6.4486 7.63785C6.44842 7.68875 6.43619 7.73888 6.41292 7.78414C6.38965 7.82941 6.35599 7.86852 6.3147 7.89829C6.27342 7.92806 6.22567 7.94763 6.17537 7.95541C6.10438 7.97357 6.03036 7.97666 5.9581 7.96447C5.88584 7.95227 5.81694 7.92507 5.75584 7.88461L5.82401 7.70106Z" fill="black"/>
<path d="M16.1783 16.999C16.2031 17.0433 16.2096 17.0956 16.1964 17.1446C16.1831 17.1936 16.1512 17.2355 16.1075 17.2612L14.605 17.7856C14.5237 17.8119 14.4267 17.7437 14.3847 17.6309C14.3614 17.5861 14.3561 17.534 14.3697 17.4853C14.3833 17.4367 14.4149 17.395 14.4582 17.3687L15.9606 16.8443C16.0419 16.8155 16.1389 16.8836 16.1783 16.999Z" fill="#302F2F"/>
<path d="M14.4949 17.5182L12.4917 18.567C12.4917 18.567 12.4182 18.9315 12.7093 18.9315C13.0003 18.9315 14.6051 17.7778 14.6051 17.7778L14.4949 17.5182Z" fill="#302F2F"/>
<path d="M10.1687 9.53916C9.7675 10.0636 10.5148 12.0511 11.0235 12.5624C11.5322 13.0737 12.4079 13.7817 12.4079 13.7817L13.8921 12.7853C13.8921 12.7853 13.2365 11.4008 12.6702 11.2933C12.5994 11.2776 12.033 9.0331 12.033 9.0331C12.033 9.0331 10.895 8.58996 10.1687 9.53916Z" fill="#234099"/>
<path style="mix-blend-mode:multiply" d="M6.77844 3.78105L5.26287 6.64961L3.90201 7.11635L2.69847 3.96984C2.69847 3.96984 2.46248 3.78629 3.90201 2.87642C3.9728 2.83185 6.14128 2.91576 6.14128 2.91576L6.77844 3.78105Z" fill="url(#paint1_linear_1232_3221)"/>
<path d="M7.11399 2.03473C7.06941 3.08357 6.53713 4.0249 5.45683 4.13241C4.37652 4.23991 3.86784 3.43493 3.52697 2.29694C3.45703 2.05153 3.44043 1.794 3.47827 1.54164C3.51611 1.28928 3.60752 1.04794 3.74637 0.833836C3.88521 0.619733 4.06827 0.437826 4.28325 0.300334C4.49822 0.162843 4.74012 0.0729512 4.99272 0.0366999C6.71281 -0.20191 7.15856 0.957053 7.11399 2.03473Z" fill="#CC4400"/>
<g style="mix-blend-mode:multiply">
<path d="M3.46387 1.99804C3.46387 1.99804 3.68674 3.19896 3.88602 3.29335C4.0853 3.38775 4.809 3.51885 4.9873 3.41921C5.1584 3.3006 5.31658 3.16438 5.45927 3.01279L5.99681 3.19109C5.99681 3.19109 6.95124 2.73485 6.93289 2.58014C6.91453 2.42544 6.55007 1.46051 6.55007 1.46051C6.0607 1.67266 5.55354 1.84113 5.0345 1.96395C4.51394 2.03488 3.98701 2.04631 3.46387 1.99804Z" fill="#CC4400"/>
</g>
<path d="M4.99276 2.69024C4.86952 3.03374 4.9272 3.21466 4.44998 3.14649C4.11838 3.05986 3.82672 2.86171 3.62402 2.58536C3.62402 2.58536 4.01734 3.79414 4.21399 3.92262C4.41065 4.05111 5.07142 4.94262 5.42802 4.92426C5.78463 4.90591 5.5801 4.90066 5.5801 4.90066L5.10289 2.63256L4.99276 2.69024Z" fill="#CC4400"/>
<path d="M7.13229 1.82758C6.91423 2.16018 6.64929 2.45957 6.34567 2.71646C5.95498 2.99441 5.7924 2.82397 5.53019 2.56963L5.11328 2.63256L5.14737 2.89477C5.11279 3.19532 5.12339 3.49935 5.17883 3.79677C5.21007 3.92796 5.26138 4.05355 5.33092 4.1691L5.43843 4.92951C5.68197 4.91215 5.92151 4.85823 6.14901 4.76956C6.47677 4.63059 6.95662 3.40083 7.07723 3.19631C7.19785 2.99178 7.13229 1.82758 7.13229 1.82758Z" fill="#EA6A13"/>
<path d="M5.07666 2.82135L5.11337 3.2304C5.11337 3.2304 5.79511 3.41132 6.08617 3.27498C6.37722 3.13863 6.89639 2.75056 6.87279 2.57488C6.86779 2.47959 6.84742 2.38573 6.81248 2.29694C6.81248 2.29694 6.46112 2.58012 6.40344 2.65092C6.34575 2.72171 5.19989 2.76891 5.16319 2.76891C5.12648 2.76891 5.07666 2.82135 5.07666 2.82135Z" fill="white"/>
<path d="M5.11345 3.23566C5.01119 3.34579 4.92991 3.5372 4.6677 3.51884C4.40549 3.50049 3.94662 3.49 3.88107 3.37201C3.81552 3.25401 3.66344 2.93412 3.72637 2.97083C3.7893 3.00754 4.80142 3.07047 4.90106 2.89741C5.0007 2.72435 5.08199 2.77942 5.08199 2.77942L5.11345 3.23566Z" fill="#DDDDDD"/>
<path d="M6.59457 2.42018L6.44249 1.9482C6.40469 1.83775 6.32792 1.74486 6.22656 1.68694C6.1252 1.62902 6.0062 1.61004 5.89185 1.63355L3.90955 2.05046C3.68405 2.10553 3.66045 2.31267 3.69716 2.56177L3.7732 3.12814C3.80204 3.31956 4.29762 3.39035 4.55983 3.39035C4.61687 3.39947 4.67533 3.39125 4.72764 3.36675C4.8771 3.28023 4.91643 2.97606 4.93741 2.91313C4.95839 2.8502 5.1498 2.80563 5.22059 2.84758C5.44391 2.95681 5.68593 3.02266 5.9338 3.04162C6.09899 3.01015 6.58932 2.80825 6.63652 2.65879C6.64025 2.57714 6.62593 2.49566 6.59457 2.42018Z" fill="#B5B1B1"/>
<path d="M6.39568 2.35202L6.29341 2.08981C6.25845 1.99562 6.19065 1.91723 6.10249 1.86905C6.01432 1.82088 5.91173 1.80616 5.81358 1.8276L4.34258 2.17372C4.24664 2.19731 4.16257 2.25504 4.10611 2.33612C4.04965 2.41719 4.02465 2.51606 4.0358 2.61423L4.0725 2.96035C4.08824 3.17011 4.35831 3.17798 4.57332 3.16487C4.62326 3.17068 4.67385 3.16345 4.72016 3.14389C4.85126 3.07047 4.88011 2.8004 4.89847 2.75058C4.93684 2.70693 4.98655 2.67475 5.04209 2.65763C5.09763 2.6405 5.15682 2.6391 5.21311 2.65356C5.41884 2.74815 5.63838 2.80923 5.8634 2.83449C6.01023 2.80826 6.38781 2.65881 6.42714 2.53557C6.43081 2.47279 6.42005 2.41 6.39568 2.35202Z" fill="#302F2F"/>
<path d="M3.85973 2.60897L3.89645 2.95509C3.90956 3.16748 4.18225 3.17535 4.39727 3.15961C4.50695 3.16408 4.6168 3.15704 4.72503 3.13864C4.85613 3.06522 4.81942 2.79514 4.98724 2.68239C4.97511 2.4672 4.94618 2.25328 4.9007 2.0426L4.02493 2.19731C3.83876 2.2445 3.83089 2.41494 3.85973 2.60897Z" fill="black"/>
<path d="M5.96019 1.71483C6.13587 1.63092 6.28795 1.52866 6.41381 1.56012C6.53967 1.59159 6.81237 2.0557 6.81237 2.29693L6.90676 2.16058C6.90676 2.16058 6.68913 1.332 6.45577 1.332C6.2224 1.332 5.94708 1.45786 5.91037 1.5575C5.84219 1.71745 5.96019 1.71483 5.96019 1.71483Z" fill="white"/>
<path d="M6.58707 1.13272C6.31498 1.45009 5.97546 1.70271 5.59329 1.87215C5.0951 2.0557 4.08297 2.25498 3.4458 2.01637L3.493 1.95868C4.0321 1.93894 4.56875 1.87581 5.09772 1.76989C5.60615 1.65596 6.08781 1.44495 6.51627 1.14845L6.58707 1.13272Z" fill="#EA6A13"/>
<path d="M11.8364 13.2573C12.1275 12.801 13.4752 12.1796 13.6037 12.2556C13.9656 12.4733 14.6054 14.6417 14.8964 15.2973C15.4051 15.6617 16.134 16.3173 15.843 16.6083C15.5519 16.8994 14.094 17.0462 14.094 17.0462C14.017 16.7168 13.9135 16.3941 13.7846 16.0813C13.4936 15.2789 11.8364 13.2573 11.8364 13.2573Z" fill="#B5B1B1"/>
<path d="M15.9423 16.5533C15.7955 17.0646 14.9223 17.492 14.5578 17.4185C14.1934 17.3451 13.6585 16.6948 14.1934 16.3068C14.8777 15.8164 15.9423 16.5533 15.9423 16.5533Z" fill="#302F2F"/>
<path d="M13.0375 12.4523C13.3888 12.3343 14.4849 15.3759 14.5661 15.5988C13.8005 15.3366 13.693 15.9003 13.693 15.9003C13.693 15.9003 11.9467 13.4382 11.8365 13.2625C11.7264 13.0868 12.8723 12.5074 13.0375 12.4523Z" fill="white"/>
</g>
<defs>
<linearGradient id="paint0_linear_1232_3221" x1="7.84003" y1="16.6419" x2="6.88401" y2="11.4443" gradientUnits="userSpaceOnUse">
<stop offset="0.12" stop-color="white"/>
<stop offset="0.87" stop-color="#646464"/>
</linearGradient>
<linearGradient id="paint1_linear_1232_3221" x1="5.40401" y1="7.50023" x2="4.42031" y2="2.15203" gradientUnits="userSpaceOnUse">
<stop offset="0.12" stop-color="white"/>
<stop offset="0.87" stop-color="#646464"/>
</linearGradient>
<clipPath id="clip0_1232_3221">
<rect width="18.5513" height="24" fill="white"/>
</clipPath>
</defs>
</svg>
