<svg width="16" height="18" viewBox="0 0 16 18" fill="none" xmlns="http://www.w3.org/2000/svg">
<path d="M8.43356 0.000105858C5.71363 -0.0202907 3.47791 2.12863 3.46595 4.77581C3.45549 7.42591 5.6688 9.59814 8.38424 9.60251C11.0982 9.60542 13.3205 7.4361 13.3145 4.78892C13.3085 2.17088 11.1161 0.0190455 8.43356 0.000105858ZM8.32596 8.72837C6.11564 8.69632 4.33125 6.89851 4.36263 4.73793C4.39402 2.58173 6.2367 0.842192 8.45448 0.872787C10.6648 0.904839 12.4507 2.70265 12.4193 4.86323C12.3864 7.01652 10.5393 8.76042 8.32596 8.72837Z" fill="#F3F3F5"/>
<path d="M15.752 14.5297C15.7281 15.2276 15.1826 15.6399 14.6251 15.975C12.7212 17.1186 10.5871 17.3823 8.51127 17.477C6.51018 17.4202 4.65406 17.1623 2.90403 16.3858C1.157 15.6093 0.711652 14.7177 1.1585 12.9068C1.43049 11.8039 1.87734 10.7957 2.74861 10.0075C3.29558 9.51364 3.93821 9.22809 4.68394 9.17272C4.97088 9.15233 5.19206 9.26888 5.2369 9.54423C5.28173 9.82833 5.08596 9.96819 4.81097 10.041C3.10579 10.5014 2.20761 11.5708 1.96999 13.4094C1.8056 14.674 1.94758 15.012 3.13568 15.5102C6.64469 16.9831 10.1746 16.9846 13.6776 15.4927C14.8374 14.9989 14.9883 14.6798 14.809 13.4473C14.6565 12.3968 14.2754 11.4338 13.4729 10.6748C13.0858 10.3091 12.6196 10.0935 12.0816 10.0483C11.7707 10.0236 11.5181 9.90846 11.545 9.5792C11.5749 9.20478 11.8798 9.14067 12.2071 9.17855C12.8931 9.26014 13.5043 9.51655 14.0019 9.98422C15.3216 11.2269 15.8103 12.7902 15.752 14.5297Z" fill="#F3F3F5"/>
<path d="M15.752 14.5297C15.7281 15.2276 15.1826 15.6399 14.6251 15.975C12.7212 17.1186 10.5871 17.3823 8.51127 17.477C6.51018 17.4202 4.65406 17.1623 2.90403 16.3858C1.157 15.6093 0.711652 14.7177 1.1585 12.9068C1.43049 11.8039 1.87734 10.7957 2.74861 10.0075C3.29558 9.51364 3.93821 9.22809 4.68394 9.17272C4.97088 9.15233 5.19206 9.26888 5.2369 9.54423C5.28173 9.82833 5.08596 9.96819 4.81097 10.041C3.10579 10.5014 2.20761 11.5708 1.96999 13.4094C1.8056 14.674 1.94758 15.012 3.13568 15.5102C6.64469 16.9831 10.1746 16.9846 13.6776 15.4927C14.8374 14.9989 14.9883 14.6798 14.809 13.4473C14.6565 12.3968 14.2754 11.4338 13.4729 10.6748C13.0858 10.3091 12.6196 10.0935 12.0816 10.0483C11.7707 10.0236 11.5181 9.90846 11.545 9.5792C11.5749 9.20478 11.8798 9.14067 12.2071 9.17855C12.8931 9.26014 13.5043 9.51655 14.0019 9.98422C15.3216 11.2269 15.8103 12.7902 15.752 14.5297Z" fill="#010101"/>
<path d="M8.43356 0.000105858C5.71363 -0.0202907 3.47791 2.12863 3.46595 4.77581C3.45549 7.42591 5.6688 9.59814 8.38424 9.60251C11.0982 9.60542 13.3205 7.4361 13.3145 4.78892C13.3085 2.17088 11.1161 0.0190455 8.43356 0.000105858ZM8.32596 8.72837C6.11564 8.69632 4.33125 6.89851 4.36263 4.73793C4.39402 2.58173 6.2367 0.842192 8.45448 0.872787C10.6648 0.904839 12.4507 2.70265 12.4193 4.86323C12.3864 7.01652 10.5393 8.76042 8.32596 8.72837Z" fill="#010101"/>
</svg>
