<svg width="114" height="113" viewBox="0 0 114 113" fill="none" xmlns="http://www.w3.org/2000/svg">
<g clip-path="url(#clip0_3052_2936)">
<path d="M112.033 112.538C110.928 112.968 109.862 112.846 108.969 112.044C107.282 110.529 105.662 108.938 103.965 107.429C101.804 105.5 100.249 105.439 97.9163 107.212C96.2451 108.484 94.6546 109.862 92.9834 111.135C90.267 113.195 87.6162 113.175 84.8998 111.084C83.168 109.751 81.4311 108.418 79.7851 106.984C77.9675 105.399 76.2659 105.303 74.4129 106.919C72.7619 108.348 71.0301 109.686 69.2932 111.014C66.4203 113.215 63.411 113.195 60.5128 110.963C58.7154 109.575 56.9583 108.146 55.2012 106.707C53.5906 105.389 52.0355 105.399 50.4299 106.732C48.6829 108.186 46.9107 109.6 45.1132 110.983C42.2251 113.205 39.221 113.205 36.3278 110.993C34.7929 109.822 33.3287 108.555 31.7938 107.378C29.1986 105.384 27.7444 105.429 25.3562 107.58C23.7304 109.039 22.1551 110.559 20.5445 112.033C19.6962 112.811 18.7773 113.321 17.5807 112.756C16.5002 112.246 16.273 111.357 16.278 110.266C16.3235 102.279 16.3437 94.2911 16.374 86.3085V31.8089C16.3639 30.6275 16.3588 29.451 16.3487 28.2746C16.273 28.1534 16.2427 28.0171 16.2578 27.8757C15.9296 27.8252 15.6065 27.7798 15.2783 27.7293C14.4402 27.7293 13.597 27.7293 12.7588 27.7243C12.0822 27.7293 11.4057 27.7293 10.7291 27.7293H8.21467C6.86657 27.7293 5.52352 27.7243 4.17542 27.7243C1.95383 27.8101 0.469406 26.3812 0.328033 24.5686C0.0402362 20.8979 -0.343493 17.1616 0.590584 13.4909C0.686516 11.4612 1.38834 9.66376 2.6607 8.08845C2.97879 7.2705 3.39281 6.52829 4.16532 6.04863C4.65508 5.19534 5.32155 4.51876 6.20009 4.0593C6.68985 3.69072 7.17456 3.31709 7.66432 2.94851C8.18437 2.31737 8.92659 2.08007 9.66375 1.83771C10.2898 1.3833 10.9462 1.01976 11.749 1.02481C13.1779 0.333092 14.6775 -0.0102439 16.2679 0.0907373C30.2942 0.065492 44.3205 0.0301486 58.3468 0.0150014C70.8634 0.00490327 83.375 -0.020342 95.8916 0.0301486C104.44 0.0604429 111.448 5.78103 113.018 13.8797C113.129 14.4452 113.079 15.041 113.104 15.6267C113.109 16.1417 113.109 16.6567 113.114 17.1717V58.0489C113.109 59.0537 113.109 60.0635 113.109 61.0733C113.109 62.7597 113.114 64.441 113.114 66.1224V73.186C113.114 74.3624 113.114 75.5389 113.109 76.7203V78.7349C113.109 79.5781 113.114 80.4163 113.114 81.2595C113.114 82.4359 113.109 83.6174 113.109 84.7938C113.109 86.4751 113.114 88.1565 113.114 89.8378C113.139 96.5632 113.164 103.289 113.2 110.014C113.205 111.049 113.23 112.084 112.033 112.538Z" fill="#F7F9FA"/>
<path d="M112.033 112.538C110.928 112.968 109.862 112.846 108.969 112.044C107.282 110.529 105.662 108.938 103.965 107.429C101.804 105.5 100.249 105.439 97.9163 107.212C96.2451 108.484 94.6546 109.862 92.9834 111.135C90.267 113.195 87.6162 113.175 84.8998 111.084C83.168 109.751 81.4311 108.418 79.7851 106.984C77.9675 105.399 76.2659 105.303 74.4129 106.919C72.7619 108.348 71.0301 109.686 69.2932 111.014C66.4203 113.215 63.411 113.195 60.5128 110.963C58.7154 109.575 56.9583 108.146 55.2012 106.707C53.5906 105.389 52.0355 105.399 50.4299 106.732C48.6829 108.186 46.9107 109.6 45.1132 110.983C42.2251 113.205 39.221 113.205 36.3278 110.993C34.7929 109.822 33.3287 108.555 31.7938 107.378C29.1986 105.384 27.7444 105.429 25.3562 107.58C23.7304 109.039 22.1551 110.559 20.5445 112.033C19.6962 112.811 18.7773 113.321 17.5807 112.756C16.5002 112.246 16.273 111.357 16.278 110.266C16.3235 102.279 16.3437 94.2911 16.374 86.3085C19.0954 84.7534 22.054 85.6624 24.8967 85.5917C26.6335 85.5513 28.3906 85.7886 30.1477 85.8795C30.2487 85.8896 30.3446 85.8946 30.4456 85.8946C30.4961 85.8946 30.5516 85.9047 30.6021 85.9047C32.9954 86.8035 35.4744 87.0054 38.0242 87.0004C51.8738 86.96 65.7234 86.9751 79.573 86.9852C80.9968 86.9852 82.4307 86.8893 83.8243 87.3185C83.9606 87.3942 84.0969 87.4598 84.2333 87.5255C84.4352 87.6214 84.6422 87.7072 84.8492 87.783C85.5107 88.0203 86.2024 88.1465 86.9446 88.1162C93.6649 87.8436 100.36 88.6868 107.08 88.5504C109.15 88.51 111.301 88.4847 113.114 89.8378C113.139 96.5632 113.164 103.289 113.2 110.014C113.205 111.049 113.23 112.084 112.033 112.538Z" fill="#E3EAEE"/>
<path d="M113.104 15.6267C109.095 14.5109 104.924 14.718 100.865 14.6271C93.8113 14.4605 86.7628 14.1676 79.7194 13.9C67.7278 13.4456 55.7313 13.0619 43.7397 12.6075C35.944 12.3045 28.1432 11.729 20.3222 11.9309C18.969 11.9663 17.5503 12.1379 16.3082 11.3351C16.2627 11.3149 16.2224 11.2846 16.1769 11.2543C16.1769 11.2493 16.1719 11.2493 16.1719 11.2493C15.0712 7.52308 14.9247 3.80192 16.2678 0.0959086C30.2941 0.0656142 44.3205 0.0301486 58.3468 0.0150014C70.8634 0.00490327 83.375 -0.020342 95.8916 0.0301486C104.44 0.0604429 111.448 5.78103 113.018 13.8797C113.129 14.4452 113.079 15.041 113.104 15.6267Z" fill="#E3EAEE"/>
<path d="M113.114 26.2551V31.804C111.574 33.0764 109.706 32.7835 108.024 32.5563C101.668 31.6929 95.2654 32.0969 88.8885 31.799C81.6027 31.4607 74.2765 31.3193 66.9806 31.0265C55.5697 30.567 44.1437 30.5418 32.7479 29.6935C29.3903 29.4461 26.0175 29.7137 22.6599 29.5875C20.4989 29.5016 18.2674 29.5874 16.3487 28.2746C16.273 28.1534 16.2427 28.0171 16.2578 27.8757C15.3439 26.4973 15.2782 25.0888 16.1214 23.6548C16.1769 23.6094 16.2325 23.5639 16.293 23.5236C16.3637 23.4731 16.4344 23.4276 16.5051 23.3872C17.1918 22.9934 17.9643 22.9934 18.7418 23.0944C23.084 23.67 27.4363 23.3418 31.7836 23.3721H31.7886C31.8391 23.3569 31.8846 23.3418 31.935 23.3317C31.9906 23.3115 32.0411 23.2963 32.0916 23.2863C33.3033 22.9581 34.5555 23.0136 35.7925 23.0136C46.3097 23.0086 56.8219 23.0893 67.334 22.9581C68.5155 22.9429 69.6566 23.1045 70.7876 23.3165C72.3679 23.6094 73.918 23.9881 75.5337 24.1092C81.739 24.5738 87.9645 24.5536 94.1698 24.801C99.6228 25.0181 105.076 25.422 110.539 25.4473C111.468 25.4523 112.402 25.5179 113.114 26.2551Z" fill="#E3EAEE"/>
<path d="M113.114 17.1717C112.18 18.0856 110.978 17.9696 109.837 17.9797C106.252 17.9999 102.662 17.9999 99.0775 18.0302H98.9159C98.9159 18.0302 98.9109 18.0251 98.9058 18.0251C96.4368 17.0406 93.8568 16.9699 91.2363 16.9699C73.4081 17.0052 55.5748 17.0103 37.7465 16.9699C35.1109 16.9648 32.5409 17.0153 30.2234 18.4795C30.1477 18.4745 30.077 18.4644 30.0013 18.4594C29.9811 18.4594 29.9659 18.4594 29.9457 18.4594C25.452 18.0504 20.8978 18.3533 16.4395 17.4192C16.394 17.4091 16.3486 17.4041 16.3031 17.394C16.2981 17.394 16.293 17.394 16.288 17.394C15.566 16.6265 15.5306 15.6723 15.5306 14.7028C15.5862 14.3595 15.5862 14.001 15.5862 13.6425C15.5811 13.173 15.571 12.6984 15.672 12.2541C15.7528 11.9057 15.9043 11.5724 16.1769 11.2644C16.2123 11.219 16.2577 11.1685 16.3082 11.1231C25.447 10.7494 34.5656 11.5169 43.6893 11.729C53.2976 11.9562 62.9111 12.3853 72.5194 12.7186C82.1278 13.0569 91.7362 13.4911 101.35 13.7435C104.505 13.8294 107.681 14.2131 110.857 14.1121C112.124 14.0717 112.644 14.7028 113.104 15.6369C113.109 16.1519 113.109 16.6669 113.114 17.1819L113.114 17.1717Z" fill="#E3EAEE"/>
<path d="M113.114 35.3384V39.8825C112.311 40.5742 111.377 40.2713 110.478 40.2461C106.833 40.1451 103.182 39.9734 99.542 40.4884C99.5319 40.4884 99.5218 40.4884 99.5117 40.4935C99.4208 40.5036 99.335 40.5137 99.2441 40.5288C96.9266 38.3274 94.089 38.1406 91.0697 38.1557C73.3576 38.2214 55.6454 38.2012 37.9333 38.1658C35.8329 38.1608 33.7477 38.489 31.6472 38.3224C31.5362 38.2921 31.4301 38.2668 31.3191 38.2416C31.2231 38.2163 31.1272 38.1911 31.0313 38.1658C27.4767 37.3327 23.8313 37.3277 20.2061 37.1358C18.8883 37.0651 17.4897 37.3782 16.3738 36.3482L16.374 31.8089C16.8233 31.3495 17.3937 31.2486 17.9946 31.2688C28.1382 31.6324 38.2918 31.7182 48.4253 32.3796C53.4441 32.7028 58.4881 32.7028 63.5119 32.834C70.8936 33.0259 78.2753 33.3591 85.652 33.5762C94.0335 33.8287 102.425 33.9499 110.796 34.5356C111.64 34.5911 112.483 34.6668 113.114 35.3384Z" fill="#E3EAEE"/>
<path d="M113.114 73.186C113.114 74.3624 113.114 75.5389 113.109 76.7203C112.326 77.5282 111.296 77.5284 110.291 77.5385C101.637 77.6243 93.0136 76.9023 84.3746 76.7054C76.0639 76.5135 67.7581 76.2004 59.4524 75.9076C45.9512 75.4279 32.4501 74.9281 18.9438 74.4989C18.0249 74.4686 17.0757 74.4434 16.3738 73.6911V69.6569C17.9138 68.3795 19.7769 68.6773 21.4582 68.9046C27.815 69.7629 34.2172 69.364 40.5891 69.6569C47.8749 69.9952 55.2011 70.1416 62.492 70.4344C73.9029 70.8888 85.3289 70.9191 96.7246 71.7623C100.077 72.0097 103.45 71.7421 106.808 71.8734C108.969 71.9592 111.2 71.8581 113.114 73.186Z" fill="#E3EAEE"/>
<path d="M113.114 31.804L113.114 35.3384C105.909 35.4444 98.719 34.9041 91.5241 34.7173C82.0823 34.475 72.6406 34.0761 63.1988 33.7429C53.6763 33.4147 44.1437 33.1117 34.6262 32.6876C29.8599 32.4755 25.0936 32.4957 20.3323 32.2938C19.0094 32.2382 17.6918 31.9756 16.374 31.8089C16.3639 30.6275 16.3588 29.451 16.3487 28.2746C26.6236 28.8451 36.9134 28.9967 47.1933 29.4158C51.6213 29.5976 56.0595 29.5319 60.4824 29.7995C70.3382 30.3953 80.2091 30.4963 90.0649 30.9305C94.498 31.1224 98.9361 31.0063 103.349 31.3345C106.606 31.5819 109.847 31.9201 113.114 31.804Z" fill="#E3EAEE"/>
<path d="M113.114 69.6518L113.114 73.186C102.839 72.6003 92.5541 72.454 82.2793 72.04C78.0178 71.8683 73.7514 71.8986 69.495 71.6613C59.4726 71.0958 49.4351 70.9494 39.4127 70.5253C34.9847 70.3435 30.5466 70.4495 26.1286 70.1214C22.877 69.879 19.6406 69.5357 16.3738 69.6569V66.1225C17.3079 65.1935 18.5197 65.3096 19.6759 65.3096C23.3567 65.2995 27.0375 65.2187 30.7182 65.3904C31.0363 65.4005 31.3494 65.4156 31.6624 65.4358H31.6775C32.0057 65.4409 32.3238 65.4863 32.6419 65.557C32.7934 65.6075 32.9398 65.6529 33.0913 65.6883C34.0052 65.9256 34.9443 65.9458 35.8784 65.9003C41.2556 65.6327 46.6379 65.8397 51.995 66.1982C53.6662 66.3043 55.3324 66.4305 56.9935 66.5567C67.2128 67.3444 77.4423 67.3343 87.6515 67.9099C95.1998 68.334 102.758 68.1674 110.291 68.8288C111.291 68.9197 112.326 68.849 113.114 69.6518Z" fill="#E3EAEE"/>
<path d="M113.114 45.4315V48.9608C112.084 49.9554 110.771 49.8292 109.534 49.7837C101.905 49.5111 94.2708 49.1829 86.6416 48.9557C78.2501 48.7133 69.8586 48.4053 61.4721 48.1479C51.8233 47.85 42.1796 47.4915 32.5359 47.133C28.3401 46.9765 24.1494 46.8149 19.9536 46.7392C18.7368 46.719 17.3887 46.9714 16.3738 45.9364V41.9022C16.6717 41.5942 17.0302 41.2963 17.4493 41.3013C21.5592 41.3316 25.6995 41.1347 29.7236 42.2657C29.8195 42.2909 29.9104 42.3162 30.0063 42.3515C30.1174 42.3768 30.2285 42.4121 30.3395 42.4475C32.031 43.6946 33.9345 44.1035 36.0147 44.1035C55.2971 44.0834 74.5794 44.0935 93.8618 44.0884C95.2049 44.0884 96.5328 43.8612 97.8708 43.7855C97.9162 43.7905 97.9667 43.7956 98.0121 43.8006C98.1232 43.8158 98.2393 43.8309 98.3555 43.841C102.41 44.3055 106.52 43.942 110.564 44.6135C111.463 44.765 112.407 44.7044 113.114 45.4315Z" fill="#E3EAEE"/>
<path d="M113.114 50.9804V53.5049C111.397 54.8328 109.362 54.4945 107.525 54.2471C101.415 53.4292 95.2654 53.7725 89.146 53.5049C81.7744 53.1818 74.3674 53.0252 66.9907 52.7374C55.4132 52.283 43.8205 52.2275 32.2582 51.3944C28.9006 51.152 25.5278 51.4398 22.1702 51.2682C20.1859 51.1621 18.1158 51.253 16.3738 49.9706V47.4511C17.0252 46.7745 17.8633 46.7644 18.7166 46.8048C27.7696 47.1986 36.8326 47.4258 45.8907 47.749C55.2819 48.0822 64.6782 48.3852 74.0695 48.7487C83.6273 49.1173 93.1903 49.4909 102.753 49.7282C105.434 49.7938 108.1 50.2584 110.796 50.1927C111.635 50.1675 112.478 50.3088 113.114 50.9804Z" fill="#E3EAEE"/>
<path d="M113.114 53.5049V56.0294C112.801 56.3425 112.442 56.5394 112.064 56.6454C111.564 56.7817 111.034 56.7615 110.524 56.6454C107.53 55.9638 104.505 56.3475 101.501 56.2465C90.3729 55.8729 79.2448 55.4387 68.1166 55.0903C64.1077 54.9691 60.0836 54.9338 56.0746 54.7167C45.7947 54.1613 35.5047 53.8735 25.2097 53.616C22.978 53.5604 20.716 53.2221 18.4591 53.1918C18.1208 53.1868 17.7825 53.1666 17.4644 53.0959C17.0656 53.005 16.6919 52.8283 16.3738 52.4951V49.9706C26.477 50.5512 36.5953 50.7128 46.7036 51.1167C50.965 51.2884 55.2314 51.253 59.4878 51.4954C69.6768 52.071 79.8809 52.2073 90.07 52.5961C97.7496 52.894 105.434 53.0959 113.114 53.5049Z" fill="#E3EAEE"/>
<path d="M113.114 58.0489C113.109 59.0537 113.109 60.0635 113.109 61.0733C112.165 61.9872 110.958 61.851 109.812 61.8611C106.565 61.8863 103.324 61.8712 100.082 61.9015C99.8803 61.8964 99.6935 61.8611 99.5168 61.8106C99.4966 61.8055 99.4713 61.8005 99.4461 61.7904C98.0172 61.3309 97.275 59.6446 95.6845 59.4678C94.7757 59.1851 93.8466 59.276 92.9277 59.276C73.8877 59.2709 54.8426 59.2709 35.7976 59.276C34.7928 59.276 33.783 59.2356 32.7984 59.5133C32.3238 59.6042 31.8492 59.6092 31.3746 59.5385C31.3544 59.5385 31.3342 59.5335 31.314 59.5335C31.1676 59.5234 31.0212 59.5133 30.8747 59.4981C27.2293 59.2103 23.6041 58.7155 19.9284 58.8216C18.7015 58.8569 17.3988 59.0185 16.3738 58.049V55.0196C17.318 54.0451 18.55 54.2522 19.7062 54.2774C27.7544 54.444 35.8077 54.6005 43.8357 55.2569C44.0881 55.2771 44.3406 55.2771 44.593 55.267C52.7473 54.9792 60.8813 55.7012 69.0204 55.9082C78.8307 56.1607 88.6411 56.5596 98.4463 56.9433C102.47 57.0998 106.495 57.1655 110.519 57.3321C111.438 57.3674 112.387 57.2966 113.114 58.0489Z" fill="#E3EAEE"/>
<path d="M113.114 81.2595C112.422 81.9209 111.574 81.7998 110.736 81.7342C106.722 81.406 102.703 81.5575 98.6837 81.6433C98.618 81.6433 98.5574 81.6433 98.4918 81.6484H98.416C93.68 80.6083 88.8784 81.2242 84.102 81.0627C82.0066 80.992 79.9011 81.2141 77.8159 80.8153C77.6442 80.7547 77.4776 80.6991 77.3059 80.6486C76.7758 80.4719 76.2355 80.3306 75.7003 80.2144C72.3881 79.4874 68.9699 79.6489 65.6476 79.5934C53.0805 79.3965 40.5336 78.5987 27.9665 78.4725C24.9673 78.4422 21.9631 77.9878 18.9388 78.0181C18.0148 78.0282 17.0807 77.9575 16.3738 77.2203V75.2058C16.8989 74.6756 17.5654 74.6504 18.247 74.6655C32.1673 75.0089 46.0825 75.6147 60.0028 76.0389C69.0558 76.3166 78.1138 76.6245 87.1617 77.0133C95.0382 77.3516 102.925 77.493 110.796 77.9323C111.64 77.9827 112.478 78.0634 113.109 78.7349C113.109 79.5781 113.114 80.4163 113.114 81.2595Z" fill="#E3EAEE"/>
<path d="M113.114 48.9608V50.9804C106.242 51.0713 99.3905 50.5562 92.5339 50.3644C83.178 50.1069 73.817 49.7282 64.4611 49.3899C54.6003 49.0365 44.7243 48.8699 34.8837 48.3044C28.7137 47.9509 22.4983 48.577 16.3738 47.4511V45.9364C25.3561 45.5779 34.3233 46.3605 43.3005 46.5473C52.6715 46.7442 62.0477 47.1986 71.4238 47.5218C81.0523 47.86 90.6809 48.2185 100.304 48.577C104.571 48.7335 108.842 48.8446 113.114 48.9608Z" fill="#E3EAEE"/>
<path d="M113.109 76.7203V78.7349C105.909 78.9066 98.719 78.3059 91.5241 78.1191C82.0823 77.8717 72.6406 77.4778 63.1988 77.1446C53.5097 76.7962 43.8003 76.6296 34.1263 76.054C28.2139 75.7056 22.2408 76.3771 16.3738 75.2058V73.6911C24.5988 73.4083 32.8085 74.1354 41.0284 74.307C50.147 74.504 59.2757 74.923 68.3994 75.2664C78.2753 75.64 88.1614 75.8824 98.0323 76.3469C103.066 76.5842 108.09 76.5184 113.109 76.7203Z" fill="#E3EAEE"/>
<path d="M113.114 66.1224L113.114 69.6518C105.899 69.7578 98.7038 69.2125 91.4988 69.0358C82.3853 68.8137 73.2364 68.6824 64.1632 67.9856C53.8884 67.203 43.6337 66.6274 33.3387 66.587C33.0357 66.587 32.7378 66.3396 32.4399 66.2084C32.647 65.9912 32.8641 65.8196 33.0913 65.6883C34.1869 65.0369 35.4946 65.2894 36.7064 65.2894C55.3223 65.2591 73.9331 65.2642 92.544 65.2743C94.4828 65.2793 96.4015 65.2339 98.2646 64.633C98.3353 64.6381 98.4059 64.6431 98.4766 64.6431C98.5877 64.6532 98.6937 64.6583 98.8048 64.6633C102.804 64.8502 106.823 64.6583 110.796 65.3096C111.624 65.4459 112.478 65.4559 113.114 66.1224Z" fill="#E3EAEE"/>
<path d="M113.114 21.2111L113.114 26.2551C105.904 26.4268 98.6988 25.937 91.5241 25.5735C85.6924 25.2756 79.8153 25.7603 74.0089 24.7606C61.1035 22.5289 48.0769 24.2708 35.116 23.7407C34.0304 23.6952 32.9247 23.6195 31.9351 24.2355C31.728 23.9275 31.6725 23.6397 31.7836 23.3721C31.7987 23.3266 31.8189 23.2812 31.8543 23.2358C31.8593 23.2206 31.8694 23.2004 31.8846 23.1853C31.9401 23.1045 32.0209 23.0187 32.1168 22.9429C33.5205 22.1704 35.0604 22.3976 36.5549 22.3976C55.08 22.3825 73.605 22.3572 92.135 22.4178C94.7656 22.4279 97.2245 22.2411 99.2391 20.378C99.2744 20.3477 99.3047 20.3174 99.34 20.2871C99.3905 20.277 99.441 20.272 99.4915 20.2669C104.101 19.5752 108.635 20.0195 113.114 21.2111Z" fill="#E3EAEE"/>
<path d="M77.8664 80.2094C77.6846 80.3912 77.4978 80.5325 77.3059 80.6486C76.2406 81.2848 74.9833 81.0627 73.8069 81.0677C62.0274 81.098 50.253 81.1182 38.4786 81.0576C35.5906 81.0475 32.7732 81.1384 30.1426 82.4865C30.0719 82.4714 30.0063 82.4562 29.9356 82.4461C29.8801 82.431 29.8195 82.4209 29.7589 82.4108C26.5073 81.8099 23.2103 82.1634 19.9284 82.0523C18.7015 82.0119 17.3988 82.2341 16.3738 81.2596V77.2203C23.7455 77.0184 31.1019 77.6647 38.4685 77.8363C47.6629 78.0534 56.8572 78.4675 66.0415 78.8764C69.9545 79.0481 74.0897 78.422 77.8664 80.2094Z" fill="#E3EAEE"/>
<path d="M113.114 57.0392L113.114 58.0489C104.47 57.8772 95.8208 57.8976 87.197 57.4886C77.8209 57.0392 68.4448 56.7868 59.0687 56.4586C49.4401 56.1203 39.8116 55.7871 30.1881 55.3983C25.5833 55.2115 20.9786 55.161 16.3738 55.0196V53.5049C16.7323 53.3282 17.0958 53.1919 17.4644 53.0959C19.1407 52.6415 20.8927 52.9293 22.5438 53.1414C24.3917 53.3787 26.2145 53.5301 28.0523 53.4948C35.5249 53.3433 42.9824 53.9492 50.4449 54.1259C59.6544 54.343 68.8689 54.7571 78.0784 55.0903C87.8787 55.4437 97.6739 55.9133 107.484 56.1001C108.984 56.1304 110.564 56.191 112.064 56.6454C112.422 56.7514 112.771 56.8827 113.114 57.0392Z" fill="#E3EAEE"/>
<path d="M113.114 56.0294V57.0392C102.501 56.5495 91.8826 56.2465 81.2644 55.9385C72.4134 55.681 63.5624 55.2468 54.7063 54.954C44.593 54.6207 34.4848 54.1512 24.3665 53.9139C21.7208 53.8533 19.0448 53.51 16.3738 53.5049V52.4951C23.0689 52.4446 29.7589 52.9142 36.4489 53.106C45.8048 53.3787 55.1607 53.7472 64.5217 54.0855C74.3825 54.439 84.2534 54.6157 94.0991 55.166C100.436 55.5195 106.818 54.9388 113.114 56.0294Z" fill="#E3EAEE"/>
<path d="M113.114 89.8378C104.086 89.2723 95.0584 88.7979 86.0156 88.8332C85.1269 88.8382 84.3241 88.7272 83.9202 87.7931C84.0212 87.6871 84.1272 87.6012 84.2333 87.5255C84.9048 87.0559 85.7177 87.0862 86.5053 87.066C87.9292 87.0206 89.3631 86.9448 90.7768 87.066C93.9981 87.3538 96.9417 86.859 99.3552 84.6223C99.3905 84.5869 99.4259 84.5566 99.4612 84.5213C99.5572 84.4304 99.6531 84.3395 99.744 84.2436C103.586 83.6983 107.444 84.0012 111.296 84.0416C111.978 84.0467 112.624 84.2636 113.109 84.7938C113.109 86.4751 113.114 88.1565 113.114 89.8378Z" fill="#E3EAEE"/>
<path d="M113.114 39.8825V45.4315C108.05 44.9871 102.93 45.2901 97.9061 44.3509C97.9314 44.1641 97.9667 43.9824 98.0121 43.8006C98.2797 42.604 98.8553 41.5285 99.5117 40.4935C99.5218 40.4783 99.5319 40.4581 99.542 40.443C99.6733 39.4281 100.395 39.3473 101.198 39.3776C105.167 39.5291 109.171 38.9585 113.114 39.8825Z" fill="#E3EAEE"/>
<path d="M31.4251 37.7922C31.3948 37.9437 31.3595 38.0901 31.3191 38.2416C30.9858 39.6402 30.4304 40.9731 30.0063 42.3515C29.9457 42.5383 29.8902 42.7251 29.8397 42.912C29.3752 42.7453 28.9056 42.4121 28.4562 42.4424C24.4018 42.7302 20.4181 41.6649 16.3738 41.9022V36.3482C20.7817 36.0048 25.1441 36.8682 29.5367 36.848C30.3446 36.843 31.0111 37.0399 31.4251 37.7922Z" fill="#E3EAEE"/>
<path d="M30.4456 85.8946C30.4052 86.0309 30.3493 86.1723 30.2786 86.3087C28.4003 87.3791 26.5271 86.2481 24.6489 86.2885C21.8921 86.3491 19.1307 86.3085 16.374 86.3085L16.3738 81.2596L27.1785 81.2596C28.1731 81.2596 29.2284 81.0778 29.91 82.1028C29.91 82.2189 29.9205 82.33 29.9356 82.4461C30.082 83.5973 30.8142 84.698 30.4456 85.8946Z" fill="#E3EAEE"/>
<path d="M8.21467 27.7293C6.86657 27.7293 5.52352 27.7243 4.17542 27.7243C2.24163 23.1649 0.408818 18.5804 0.590584 13.4909C0.686516 11.4612 1.38834 9.66376 2.6607 8.08845C3.77654 8.77007 3.97838 9.98703 4.31162 11.0827C5.75565 15.8843 6.95228 20.7567 8.31048 25.5836C8.51244 26.2955 8.78521 27.0376 8.21467 27.7293Z" fill="#E3EAEE"/>
<path d="M113.114 66.1224C108.257 65.673 103.354 65.9155 98.5271 65.1026C98.4968 64.9461 98.4817 64.7946 98.4766 64.6431C98.411 63.5778 98.8503 62.6639 99.4461 61.7904C99.4663 61.7551 99.4915 61.7248 99.5117 61.6945C100.188 60.7705 101.188 61.0936 102.067 61.0886C105.747 61.0583 109.428 61.0733 113.109 61.0733C113.109 62.7597 113.114 64.441 113.114 66.1224Z" fill="#E3EAEE"/>
<path d="M31.4503 59.1144C31.4049 59.2507 31.3595 59.3921 31.314 59.5335C30.9 60.8462 30.5365 62.1792 29.5014 63.1486C29.4913 63.1587 29.4762 63.1688 29.4661 63.1789C29.3045 63.3253 29.1278 63.4667 28.9309 63.5929C24.6795 64.0675 20.4838 63.8555 16.3738 62.5881V58.049C20.9634 57.9986 25.5581 58.0086 30.1275 58.5489C30.6425 58.6095 31.1272 58.6499 31.4503 59.1144Z" fill="#E3EAEE"/>
<path d="M113.114 81.2595C113.114 82.4359 113.109 83.6174 113.109 84.7938C108.55 84.7786 103.985 84.7586 99.4208 84.7434C99.3956 84.7031 99.3754 84.6627 99.3552 84.6223C98.82 83.6933 98.4161 82.739 98.4918 81.6484C98.5019 81.5474 98.512 81.4515 98.5271 81.3505C99.133 80.5073 100.037 80.7597 100.84 80.7648C104.934 80.8102 109.044 80.4769 113.114 81.2595Z" fill="#E3EAEE"/>
<path d="M15.2783 27.7293C14.4402 27.7293 13.597 27.7293 12.7588 27.7243C12.1024 27.1436 11.8145 26.3662 11.5873 25.5482C9.83024 19.2571 7.98229 12.9963 6.22521 6.70513C5.98286 5.83669 5.56391 4.94793 6.20009 4.0593C6.68985 3.69072 7.17456 3.31709 7.66432 2.94851C8.40653 3.13027 8.72955 3.69084 8.96181 4.35732C11.5419 11.729 13.41 19.3076 15.5559 26.8055C15.6569 27.1538 15.5106 27.4617 15.2783 27.7293Z" fill="#E3EAEE"/>
<path d="M12.7588 27.7243C12.0822 27.7293 11.4057 27.7293 10.7291 27.7293C9.89096 27.3506 9.5071 26.6186 9.29504 25.7906C7.70459 19.6661 5.83644 13.6173 4.13995 7.52308C4.00363 7.02827 3.98355 6.53839 4.16532 6.04863C4.65508 5.19534 5.32155 4.51876 6.20009 4.0593C8.32575 11.9661 10.9412 19.7366 12.7588 27.7243Z" fill="#E3EAEE"/>
<path d="M113.114 17.1717L113.114 21.2111C108.524 21.5191 103.995 20.4487 99.4107 20.6557C99.3501 20.5648 99.2946 20.4739 99.2391 20.378C98.7998 19.6358 98.5574 18.8683 98.9058 18.0251C98.9361 17.9443 98.9765 17.8636 99.0219 17.7777C99.7036 16.8638 100.698 17.192 101.577 17.1819C105.419 17.1516 109.267 17.1717 113.114 17.1717Z" fill="#E3EAEE"/>
<path d="M16.5051 23.3872C16.4597 23.5084 16.389 23.6195 16.2981 23.7306C16.2829 25.114 16.273 26.4923 16.2578 27.8757C15.9296 27.8252 15.6065 27.7798 15.2783 27.7293C13.0062 20.0598 10.7088 12.3954 8.51244 4.7057C8.31552 4.02408 7.84609 3.57964 7.66432 2.94851C8.18437 2.31737 8.92659 2.08007 9.66375 1.83771C11.1684 3.03434 11.2894 4.88242 11.8044 6.51832C13.3848 11.5775 14.5915 16.7427 16.2829 21.7665C16.3486 21.9685 16.4193 22.1755 16.49 22.3774C16.5152 22.4481 16.5354 22.5138 16.5606 22.5794C16.6162 22.8672 16.6061 23.1348 16.5051 23.3872Z" fill="#E3EAEE"/>
<path d="M10.7291 27.7293H8.21467C6.36166 21.1807 4.51371 14.632 2.6607 8.08845C2.97879 7.2705 3.39281 6.52829 4.16532 6.04863C6.52323 12.1025 7.89141 18.4442 9.71917 24.6545C10.0221 25.6896 10.3908 26.7043 10.7291 27.7293Z" fill="#E3EAEE"/>
<path d="M31.9401 66.1175C26.7497 66.1175 21.5592 66.1225 16.3738 66.1225V62.5881C20.7362 62.7548 25.0986 62.9214 29.461 63.0931C29.4762 63.1133 29.4863 63.1284 29.5014 63.1486C30.1224 63.9918 31.1322 64.5169 31.6624 65.4358C31.7836 65.6378 31.8795 65.865 31.9401 66.1175Z" fill="#E3EAEE"/>
<path d="M16.49 22.3774C16.4243 22.4936 16.3536 22.6097 16.2779 22.7208C14.6168 20.9889 14.6521 18.6159 13.9907 16.5205C12.4608 11.6532 11.0977 6.7353 9.66375 1.83771C10.2898 1.3833 10.9462 1.01976 11.749 1.02481C12.8598 1.48428 12.9405 2.56995 13.2333 3.50907C14.132 6.39209 14.9248 9.3155 15.672 12.244C15.874 13.0417 16.0759 13.8395 16.2728 14.6372C16.2829 15.4804 16.293 16.3236 16.3031 17.1668C16.3536 17.2476 16.3991 17.3334 16.4395 17.4142C17.3281 19.0753 17.4341 20.7264 16.49 22.3774Z" fill="#E3EAEE"/>
<path d="M16.3082 11.113L16.3082 11.3351C16.2981 12.4358 16.2829 13.5365 16.2728 14.6372C16.0052 14.3141 15.778 13.9758 15.5862 13.6325C14.2936 11.3755 14.2633 8.66922 13.3191 6.29111C12.6426 4.59462 12.259 2.78189 11.749 1.02481C13.1779 0.333092 14.6775 -0.0102439 16.2679 0.0907373C16.2831 3.77151 16.2981 7.4423 16.3082 11.113Z" fill="#E3EAEE"/>
<path d="M4.17542 27.7243C1.95383 27.8101 0.469406 26.3812 0.328033 24.5686C0.0402362 20.8979 -0.343493 17.1616 0.590584 13.4909C0.868282 17.4545 2.83224 20.9637 3.62999 24.7909C3.83701 25.7653 4.30669 26.6892 4.17542 27.7243Z" fill="#E3EAEE"/>
<path d="M16.2779 22.7208C16.288 20.8728 16.293 19.0198 16.3031 17.1718C20.3626 17.2072 24.4271 17.0103 28.4663 17.6666C29.052 17.7626 29.6327 17.7474 29.9861 18.323C30.1376 20.171 31.1676 21.6807 31.935 23.2863C31.935 23.6043 31.9351 23.9224 31.9351 24.2355C26.7194 24.2254 21.4936 24.4021 16.2981 23.7306C16.293 23.3923 16.2829 23.059 16.2779 22.7208Z" fill="#E3EAEE"/>
<path d="M98.5278 81.3505C99.0883 82.4108 99.7144 83.456 99.4215 84.7384C98.6642 86.9853 96.9828 87.6972 94.7511 87.682C91.1411 87.6618 87.531 87.7477 83.9209 87.7881C73.2876 87.7477 62.6542 87.7022 52.0209 87.6719C46.2397 87.6568 40.4636 87.6669 34.6824 87.6719C33.0667 87.6719 31.5116 87.5205 30.2746 86.3036C29.8959 84.9253 29.0527 83.5822 29.906 82.0978C31.2693 80.679 32.9203 80.265 34.8793 80.27C49.2035 80.2953 63.5328 80.2347 77.862 80.2044C83.4009 80.2397 88.9346 80.3003 94.4734 80.2852C95.9528 80.2852 97.2959 80.5275 98.5228 81.3505H98.5278Z" fill="#FDFEFE"/>
<path d="M31.9346 23.2863C29.9958 22.1351 29.2637 20.5143 29.9857 18.323C31.253 16.6619 32.8737 16.1116 35.0044 16.1217C54.7412 16.1974 74.473 16.1822 94.2098 16.1419C96.0577 16.1419 97.6936 16.4196 99.0215 17.7828C99.2134 18.732 99.7183 19.6409 99.4103 20.6608C98.5923 22.539 97.2543 23.3873 95.1085 23.3772C74.0488 23.3065 52.9943 23.3065 31.9346 23.2913V23.2863Z" fill="#FEFEFE"/>
<path d="M29.8396 42.912C29.3751 40.8974 29.8295 39.1656 31.43 37.7922C33.5153 37.6913 35.6006 37.4994 37.6858 37.4994C56.4684 37.4741 75.2559 37.5044 94.0384 37.454C96.5226 37.4489 98.5018 37.9892 99.547 40.448C99.6328 42.0183 98.9663 43.2705 97.906 44.356C96.7094 44.7902 95.4774 44.8963 94.2 44.8912C74.4632 44.871 54.7315 44.866 34.9947 44.8912C32.9751 44.8912 31.1473 44.6337 29.8396 42.912Z" fill="#FDFEFE"/>
<path d="M96.5132 58.9579C75.1657 58.9579 53.8133 58.968 32.4658 58.9731C33.1777 58.3066 34.0613 58.5641 34.8742 58.559C54.6161 58.5439 74.3579 58.5439 94.1048 58.559C94.9177 58.559 95.8013 58.3116 96.5182 58.9579H96.5132Z" fill="#E3EAEE"/>
<path d="M31.9408 66.1175C30.6584 65.4813 29.5425 64.7138 29.4668 63.088C29.8505 61.6238 29.8152 59.9475 31.4511 59.1144C31.7894 59.0639 32.1277 59.0185 32.4659 58.968C33.0314 58.7307 33.6272 58.8064 34.2129 58.8064C54.3991 58.8064 74.5852 58.8064 94.7663 58.8064C95.352 58.8064 95.9478 58.7358 96.5133 58.9529C97.9876 59.3467 98.8056 60.4575 99.5124 61.6895C99.5983 62.9467 99.2347 64.0726 98.5279 65.0976C97.306 66.2084 95.8165 66.1882 94.2917 66.1882C73.6764 66.1831 53.056 66.1983 32.4407 66.2084C32.2741 66.1781 32.1075 66.1478 31.9408 66.1175Z" fill="#FEFEFE"/>
</g>
<defs>
<clipPath id="clip0_3052_2936">
<rect width="113.2" height="112.998" fill="white"/>
</clipPath>
</defs>
</svg>
