<svg width="145" height="150" viewBox="0 0 145 150" fill="none" xmlns="http://www.w3.org/2000/svg">
<g clip-path="url(#clip0_3197_1278)">
<path d="M15.1849 39.7369C8.87799 50.0367 5.53677 61.2228 5.21948 73.2952C5.16768 75.3008 5.25186 77.5652 2.51283 77.4811C-0.213244 77.4035 -0.0254618 75.0938 0.0263401 73.1205C0.0328154 72.8035 0.0263401 72.48 0.0263401 72.1501C0.667389 59.4695 4.15754 47.6623 10.8983 36.8514C11.876 35.2793 12.8926 33.3578 15.1331 34.7552C17.4836 36.2174 16.2274 38.0289 15.1849 39.7369Z" fill="#F7F9FA"/>
<path d="M15.5793 67.2331C16.039 59.7347 18.2212 52.3852 22.32 45.6308C23.2589 44.091 24.3467 42.4995 26.3864 43.6252C28.588 44.8415 27.8498 46.5495 26.7814 48.2898C23.11 54.2743 21.1285 60.8022 20.7595 67.8089C20.6558 69.8469 21.0185 72.4089 18.0334 72.2989C15.0807 72.1889 15.5663 69.6204 15.5793 67.2331Z" fill="#F7F9FA"/>
<path d="M118.18 48.2122C117.144 46.6207 116.464 44.9903 118.426 43.7416C120.401 42.4865 121.573 43.8387 122.557 45.4432C125.743 50.6383 127.867 56.2282 128.825 62.245C129.11 64.05 129.298 65.868 129.46 67.1296C129.46 68.2359 129.453 68.7729 129.46 69.3099C129.486 71.0761 128.715 72.3312 126.883 72.3442C125.05 72.3442 124.292 71.0891 124.28 69.3293C124.228 63.099 122.771 57.1921 120.051 51.5959C119.488 50.4378 118.879 49.2926 118.18 48.2122Z" fill="#F7F9FA"/>
<path d="M130.1 114.999C129.951 113.388 129.116 112.359 127.4 112.437C125.697 112.521 124.881 113.595 124.965 115.232C125.062 117.166 125.328 119.088 125.477 121.022C125.885 126.03 125.25 126.728 120.309 126.728H72.7489C56.4572 126.728 40.1719 126.728 23.8867 126.722C20.0922 126.722 19.3411 125.868 19.4447 122.148C19.7167 112.689 21.7823 103.845 27.7848 96.2044C29.572 93.9271 30.867 91.2681 32.6153 88.9584C39.9777 79.2409 43.4096 68.4753 43.0534 56.157C42.7556 45.9155 45.9349 36.4115 52.5396 28.3179C63.5994 14.7703 81.2314 14.725 92.3624 28.182C94.3567 30.5952 96.0338 33.2219 97.4066 36.0362C101.033 43.4634 102.282 51.3759 102.095 59.5471C101.9 67.8477 103.83 75.5661 108.266 82.5793C111.885 88.3114 115.719 93.9077 119.396 99.601C120.445 101.218 121.695 102.493 123.579 101.322C125.736 99.9827 124.758 98.2618 123.657 96.612C120.193 91.4233 116.774 86.2023 113.362 80.9748C109.438 74.9774 107.32 68.4365 107.281 61.2228C107.255 57.5609 107.255 53.8667 106.77 50.2566C104.905 36.295 99.1937 24.5266 86.7548 16.8924C85.518 16.1354 85.3173 15.3914 85.3626 14.0716C85.6152 6.03623 80.176 0.0711642 72.6517 -2.54257e-06C64.9786 -0.0776389 59.3905 5.91977 59.6495 14.0975C59.6948 15.4367 59.4746 16.1807 58.2314 16.9053C49.969 21.7253 44.6981 29.0101 41.2663 37.783C38.6373 44.5051 37.5624 51.4988 37.7632 58.6543C38.0092 67.4725 35.6846 75.4173 30.5756 82.6181C28.1474 86.0341 26.1725 89.7865 23.6148 93.099C16.9194 101.768 14.5235 111.706 14.2451 122.387C14.0832 128.443 17.2949 131.872 23.3881 131.898C32.0131 131.924 40.6446 131.95 49.2761 131.865C51.1475 131.846 52.0216 132.208 52.5137 134.285C54.7153 143.601 63.0101 149.994 72.4963 150C81.9955 150 90.2838 143.621 92.4919 134.305C92.9775 132.241 93.8258 131.846 95.7165 131.865C104.562 131.95 113.407 131.95 122.252 131.885C127.542 131.84 130.916 128.32 130.754 123.054C130.67 120.362 130.346 117.684 130.1 114.999ZM64.7843 11.8331C65.2182 8.24887 68.6112 5.24045 72.3474 5.16929C76.2261 5.09812 79.768 8.12594 80.2278 11.8395C80.4091 13.3146 80.176 14.0522 78.3953 13.6058C74.4778 12.6289 70.5084 12.6224 66.5909 13.6187C64.7519 14.091 64.616 13.2499 64.7843 11.8331ZM73.4093 144.811C66.3319 145.18 59.2933 140.308 57.6745 133.903C57.422 132.888 56.9299 131.852 58.8595 131.872C68.4105 131.943 77.9614 131.904 87.5383 131.904C86.5865 138.995 80.5321 144.443 73.4093 144.811Z" fill="#F7F9FA"/>
<path d="M142.507 77.4423C139.075 77.5588 139.904 74.4598 139.8 72.3442C139.23 60.8669 136.103 50.1661 130.165 40.3062C129.673 39.4781 129.116 38.6694 128.779 37.7766C128.313 36.5409 128.656 35.454 129.828 34.7164C131.052 33.94 132.107 34.3088 133.014 35.2469C133.454 35.6998 133.759 36.2885 134.102 36.8385C140.842 47.6429 144.326 59.4565 144.987 72.2148C144.773 74.2333 145.887 77.3259 142.507 77.4423Z" fill="#F7F9FA"/>
<path d="M130.1 114.999C129.951 113.388 129.116 112.359 127.4 112.437C125.697 112.521 124.881 113.595 124.965 115.232C125.062 117.166 125.328 119.088 125.477 121.022C125.885 126.03 125.25 126.728 120.309 126.728H72.7489C56.4572 126.728 40.1719 126.728 23.8867 126.722C20.0922 126.722 19.3411 125.868 19.4447 122.148C19.7167 112.689 21.7823 103.845 27.7848 96.2044C29.572 93.9271 30.867 91.2681 32.6153 88.9584C39.9777 79.2409 43.4096 68.4753 43.0534 56.157C42.7556 45.9155 45.9349 36.4115 52.5396 28.3179C63.5994 14.7703 81.2314 14.725 92.3624 28.182C94.3567 30.5952 96.0338 33.2219 97.4066 36.0362C101.033 43.4634 102.282 51.3759 102.095 59.5471C101.9 67.8477 103.83 75.5661 108.266 82.5793C111.885 88.3114 115.719 93.9077 119.396 99.601C120.445 101.218 121.695 102.493 123.579 101.322C125.736 99.9827 124.758 98.2618 123.657 96.612C120.193 91.4233 116.774 86.2023 113.362 80.9748C109.438 74.9774 107.32 68.4365 107.281 61.2228C107.255 57.5609 107.255 53.8667 106.77 50.2566C104.905 36.295 99.1937 24.5266 86.7548 16.8924C85.518 16.1354 85.3173 15.3914 85.3626 14.0716C85.6152 6.03623 80.176 0.0711642 72.6517 -2.54257e-06C64.9786 -0.0776389 59.3905 5.91977 59.6495 14.0975C59.6948 15.4367 59.4746 16.1807 58.2314 16.9053C49.969 21.7253 44.6981 29.0101 41.2663 37.783C38.6373 44.5051 37.5624 51.4988 37.7632 58.6543C38.0092 67.4725 35.6846 75.4173 30.5756 82.6181C28.1474 86.0341 26.1725 89.7865 23.6148 93.099C16.9194 101.768 14.5235 111.706 14.2451 122.387C14.0832 128.443 17.2949 131.872 23.3881 131.898C32.0131 131.924 40.6446 131.95 49.2761 131.865C51.1475 131.846 52.0216 132.208 52.5137 134.285C54.7153 143.601 63.0101 149.994 72.4963 150C81.9955 150 90.2838 143.621 92.4919 134.305C92.9775 132.241 93.8258 131.846 95.7165 131.865C104.562 131.95 113.407 131.95 122.252 131.885C127.542 131.84 130.916 128.32 130.754 123.054C130.67 120.362 130.346 117.684 130.1 114.999ZM64.7843 11.8331C65.2182 8.24887 68.6112 5.24045 72.3474 5.16929C76.2261 5.09812 79.768 8.12594 80.2278 11.8395C80.4091 13.3146 80.176 14.0522 78.3953 13.6058C74.4778 12.6289 70.5084 12.6224 66.5909 13.6187C64.7519 14.091 64.616 13.2499 64.7843 11.8331ZM73.4093 144.811C66.3319 145.18 59.2933 140.308 57.6745 133.903C57.422 132.888 56.9299 131.852 58.8595 131.872C68.4105 131.943 77.9614 131.904 87.5383 131.904C86.5865 138.995 80.5321 144.443 73.4093 144.811Z" fill="black"/>
<path d="M15.1849 39.7369C8.87799 50.0367 5.53677 61.2228 5.21948 73.2952C5.16768 75.3008 5.25186 77.5652 2.51283 77.4811C-0.213244 77.4035 -0.0254618 75.0938 0.0263401 73.1205C0.0328154 72.8035 0.0263401 72.48 0.0263401 72.1501C0.667389 59.4695 4.15754 47.6623 10.8983 36.8514C11.876 35.2793 12.8926 33.3578 15.1331 34.7552C17.4836 36.2174 16.2274 38.0289 15.1849 39.7369Z" fill="#010101"/>
<path d="M142.507 77.4423C139.075 77.5588 139.904 74.4598 139.8 72.3442C139.23 60.8669 136.103 50.1661 130.165 40.3062C129.673 39.4781 129.116 38.6694 128.779 37.7766C128.313 36.5409 128.656 35.454 129.828 34.7164C131.052 33.94 132.107 34.3088 133.014 35.2469C133.454 35.6998 133.759 36.2885 134.102 36.8385C140.842 47.6429 144.326 59.4565 144.987 72.2148C144.773 74.2333 145.887 77.3259 142.507 77.4423Z" fill="#010101"/>
<path d="M26.7814 48.2898C23.11 54.2743 21.1285 60.8022 20.7595 67.8089C20.6558 69.8469 21.0185 72.4089 18.0334 72.2989C15.0807 72.1889 15.5663 69.6204 15.5793 67.2331C16.039 59.7347 18.2212 52.3852 22.32 45.6308C23.2589 44.091 24.3467 42.4995 26.3864 43.6252C28.588 44.8415 27.8498 46.5495 26.7814 48.2898Z" fill="#010101"/>
<path d="M129.46 69.3099C129.486 71.0761 128.715 72.3312 126.883 72.3442C125.05 72.3442 124.292 71.0891 124.28 69.3293C124.228 63.099 122.771 57.1921 120.051 51.5959C119.488 50.4378 118.879 49.2926 118.18 48.2122C117.144 46.6207 116.464 44.9903 118.426 43.7416C120.401 42.4865 121.573 43.8387 122.557 45.4432C125.743 50.6383 127.867 56.2282 128.825 62.245C129.11 64.05 129.298 65.868 129.46 67.1296C129.46 68.2359 129.453 68.7729 129.46 69.3099Z" fill="#010101"/>
</g>
<defs>
<clipPath id="clip0_3197_1278">
<rect width="145" height="150" fill="white"/>
</clipPath>
</defs>
</svg>
