<svg width="22" height="22" viewBox="0 0 22 22" fill="none" xmlns="http://www.w3.org/2000/svg">
<g clip-path="url(#clip0_1232_2581)">
<path fill-rule="evenodd" clip-rule="evenodd" d="M19.3618 15.8847C17.7322 14.8299 15.7571 13.8286 17.7699 13.5443C20.3441 13.1815 11.5478 8.34669 9.62648 7.4468C5.97109 5.73262 0.832748 3.99092 0.244691 6.82105C-0.493519 10.3692 12.4588 16.7652 15.3911 17.8582C18.0752 18.857 20.5881 19.5449 21.1581 18.9309C22.0199 18.0045 20.0357 16.3214 19.3618 15.8847ZM15.2057 13.61C15.0752 13.9157 14.3897 13.904 13.6736 13.5881C12.9575 13.2722 12.4829 12.7692 12.6135 12.467C12.744 12.1649 13.4295 12.173 14.1451 12.489C14.8607 12.8049 15.3358 13.3058 15.2057 13.61Z" fill="#F7D6AB"/>
<path fill-rule="evenodd" clip-rule="evenodd" d="M14.2095 13.0678C14.6142 13.2467 14.9416 13.4852 15.1264 13.7134C15.1604 13.6863 15.1876 13.6513 15.2058 13.6115C15.3359 13.3058 14.8613 12.8049 14.1452 12.4905C13.4291 12.1761 12.7436 12.1649 12.6135 12.4686C12.5568 12.6005 12.6135 12.7702 12.7566 12.9455C12.9887 12.7498 13.5873 12.7932 14.2095 13.0678Z" fill="#B1906F"/>
<path fill-rule="evenodd" clip-rule="evenodd" d="M9.58093 3.89257L9.49104 2.49738C9.42023 2.15037 9.35043 2.07291 9.21986 2.04183C9.16562 2.02909 9.12645 2.04591 9.03255 2.02094C8.96977 2.00412 8.907 1.93992 8.84272 1.92514C8.77844 1.91036 8.6765 1.9761 8.54593 1.95724C8.47864 1.94858 8.45102 1.89406 8.36012 1.89355C8.26923 1.89304 8.23608 1.971 8.16979 1.98986C8.1035 2.00871 8.04575 1.94196 7.98047 1.98374C7.91519 2.02553 7.91318 2.11011 7.85794 2.14629C7.8027 2.18247 7.68719 2.14935 7.62492 2.20744C7.56265 2.26553 7.5963 2.36744 7.54056 2.43012C7.48481 2.4928 7.37685 2.48413 7.3201 2.54885C7.26335 2.61356 7.30905 2.70885 7.26185 2.78478C7.21464 2.8607 7.10617 2.89688 7.07453 2.96924C7.04289 3.0416 7.14986 3.15625 7.11521 3.20568C7.01075 3.35549 6.96455 3.3983 7.28294 3.62098L7.38337 3.69181L8.44499 4.46074L9.01648 4.46482L9.58093 3.89257Z" fill="black"/>
<path fill-rule="evenodd" clip-rule="evenodd" d="M9.58093 3.89258L9.49104 2.49738C9.42023 2.15037 9.35043 2.07291 9.21986 2.04183C9.16562 2.02909 9.12645 2.04591 9.03255 2.02094C8.96977 2.00412 8.907 1.93992 8.84272 1.92514C8.77844 1.91036 8.6765 1.9761 8.54593 1.95724C8.47864 1.94858 8.45102 1.89406 8.36012 1.89355C8.26923 1.89304 8.23608 1.971 8.16979 1.98986C8.1035 2.00871 8.04575 1.94196 7.98047 1.98374C7.91519 2.02553 7.91318 2.11011 7.85794 2.14629C7.8027 2.18247 7.68719 2.14935 7.62492 2.20744C7.56265 2.26553 7.5963 2.36744 7.54056 2.43012C7.48481 2.4928 7.37685 2.48413 7.3201 2.54885C7.26335 2.61356 7.30905 2.70885 7.26185 2.78478C7.21464 2.8607 7.10617 2.89688 7.07453 2.96924C7.04289 3.0416 7.14986 3.15625 7.11521 3.20568C7.01075 3.35549 6.96455 3.3983 7.28294 3.62098L7.38337 3.69181L8.44499 4.46074H8.45503C8.02265 4.14685 7.56466 3.80289 7.40497 3.6541C7.27992 3.53792 7.30152 3.47881 7.65907 3.72493C7.80973 3.82684 8.05479 4.03474 8.31191 4.22991C8.30036 4.22023 7.51444 3.5532 7.50842 3.4783C7.49185 3.32543 7.85041 3.66327 8.1487 3.94761C8.13213 3.93793 7.84739 3.62047 7.66309 3.40441C7.51645 3.23167 7.62643 3.18428 7.73942 3.32899L8.37971 4.06634L7.8494 3.32237C7.77608 3.22046 7.72335 3.12313 7.74093 3.08033C7.75851 3.03752 7.84137 3.0467 7.9634 3.21536L8.38322 3.80493L7.99453 3.14249C7.92473 3.01612 7.88455 2.94325 7.89409 2.90555C7.90364 2.86784 7.95737 2.85765 8.06634 3.02784C8.25366 3.31982 8.55698 3.80187 8.55698 3.80187L8.10903 3.00695C8.03772 2.8709 8.1025 2.74962 8.21549 2.92746L8.80606 3.83397L8.29082 2.83981C8.21851 2.6956 8.30488 2.69051 8.3561 2.72975C8.40564 2.77601 8.44662 2.83089 8.47713 2.89179L8.84423 3.58887L8.48918 2.77815C8.43896 2.61866 8.53639 2.53509 8.64436 2.71752L8.96274 3.57715L8.71165 2.72465C8.6554 2.53713 8.68855 2.51522 8.72872 2.56312C8.76479 2.62122 8.79539 2.68264 8.82012 2.74656L9.12495 3.66939L8.85527 2.71446C8.793 2.4984 8.93512 2.43929 8.98735 2.65382L9.20078 3.53027L9.01899 2.57789C8.97429 2.43165 9.07573 2.37865 9.11089 2.51675L9.30322 3.47881L9.19576 2.58911C9.17065 2.41483 9.29368 2.34961 9.35344 2.56261L9.47949 3.56747L9.40567 2.67675C9.39613 2.53203 9.43931 2.48363 9.4599 2.61255C9.482 2.74962 9.48702 2.95599 9.49857 3.05791L9.54226 3.7769L9.57541 3.8992L9.58093 3.89258Z" fill="#1E1F1E"/>
<path fill-rule="evenodd" clip-rule="evenodd" d="M9.41137 2.21559C9.39746 2.17216 9.3724 2.13327 9.33878 2.10291C9.30515 2.07256 9.26417 2.05183 9.22004 2.04285C9.16581 2.03011 9.12664 2.04693 9.03273 2.02196C8.96996 2.00514 8.90718 1.94094 8.8429 1.92616C8.77862 1.91138 8.67668 1.97712 8.54611 1.95826C8.47882 1.9496 8.4512 1.89508 8.3603 1.89457C8.26941 1.89406 8.23626 1.97202 8.16998 1.99087C8.10369 2.00973 8.04594 1.94297 7.98065 1.98476C7.91537 2.02654 7.91336 2.11011 7.85812 2.14629C7.80288 2.18247 7.68738 2.14935 7.62511 2.20744C7.56284 2.26553 7.59648 2.36744 7.54074 2.43012C7.485 2.4928 7.37703 2.48413 7.32028 2.54885C7.26353 2.61356 7.30923 2.70885 7.26203 2.78478C7.21482 2.8607 7.10635 2.89688 7.07471 2.96924C7.04308 3.0416 7.15004 3.15625 7.11539 3.20568C7.02952 3.32899 6.98131 3.37995 7.14602 3.51804V3.51397V3.51091V3.50734V3.50378V3.50123V3.49664V3.49358V3.48951V3.48543V3.48186V3.47932V3.47677V3.4732V3.46862V3.46454V3.46148V3.45893V3.45537V3.45078V3.44619V3.44263V3.44008V3.43702V3.43295V3.42836V3.42377V3.42072V3.41766V3.41307V3.40849V3.40543V3.40288V3.3988V3.39473V3.39116V3.3881V3.38505V3.38148V3.37791V3.37536V3.37282V3.36976V3.36721V3.36466L7.29417 3.26275C7.31877 3.24594 7.34439 3.13893 7.35845 3.08084C7.38503 3.01188 7.41869 2.94595 7.45888 2.88414C7.58683 2.8069 7.72028 2.73945 7.85812 2.68236C7.90081 2.67828 8.21869 2.62172 8.2448 2.60898C8.30917 2.55988 8.36947 2.50551 8.42509 2.44643C8.43915 2.42604 8.58478 2.31088 8.6596 2.30884L9.11157 2.29712C9.21605 2.28977 9.31824 2.26263 9.41288 2.21712L9.41137 2.21559Z" fill="#31A31A"/>
<path fill-rule="evenodd" clip-rule="evenodd" d="M10.0806 7.17673L17.3934 20.4402C17.5119 20.6578 17.6726 20.7388 17.7826 20.6772C17.8659 20.6303 17.9136 20.4958 17.7966 20.2405L10.9609 6.66156L10.3487 6.67633L10.0806 7.17673Z" fill="#E2B99B"/>
<path fill-rule="evenodd" clip-rule="evenodd" d="M17.8218 20.644C17.877 20.5793 17.8926 20.4509 17.7962 20.2405L10.9605 6.66156L10.7129 6.80678L17.4346 19.7207C17.5702 19.9826 17.858 20.4051 17.8218 20.644Z" fill="#F2D0B8"/>
<path fill-rule="evenodd" clip-rule="evenodd" d="M10.0806 7.17673L17.3934 20.4402C17.4893 20.6165 17.6133 20.7032 17.7153 20.695C17.4802 20.5656 17.2161 19.8929 16.9946 19.4807L10.3467 7.02131L10.0806 7.17673Z" fill="#C9A184"/>
<path fill-rule="evenodd" clip-rule="evenodd" d="M9.56121 3.63422C9.38193 3.71575 8.75119 3.96952 8.40619 4.14379C8.24499 4.2243 8.21436 4.26456 8.21436 4.33029C8.92193 5.33363 9.48588 6.21569 10.1227 7.2659C10.308 6.92908 10.7052 6.77009 11.0351 6.77927C10.5701 5.92065 10.2186 5.07782 9.82486 4.18354C9.73296 3.98328 9.65311 3.83397 9.56121 3.63422Z" fill="#D2D8E6"/>
<path fill-rule="evenodd" clip-rule="evenodd" d="M9.43645 3.68824C9.28228 3.75397 9.04726 3.85181 8.82178 3.95066C9.48064 5.02534 9.93411 5.83606 10.5267 6.89137C10.6473 6.83213 10.7774 6.7952 10.9109 6.78232C10.3082 5.72599 9.91704 4.86737 9.43645 3.68824Z" fill="#E4E9F5"/>
<path fill-rule="evenodd" clip-rule="evenodd" d="M8.37955 4.15653C8.24245 4.22787 8.21533 4.2666 8.21533 4.32876C8.92291 5.3321 9.48686 6.21416 10.1236 7.26437C10.1639 7.19198 10.2147 7.12619 10.2743 7.06921C9.64153 6.02715 9.0806 5.15171 8.37955 4.15653Z" fill="#B5BBC9"/>
<path fill-rule="evenodd" clip-rule="evenodd" d="M11.8252 3.48594C10.7706 2.2426 11.1638 0.979386 12.019 0.0285358C11.8368 1.21684 13.155 2.40057 12.5473 3.4146L12.4042 3.50785L11.8252 3.48594Z" fill="black"/>
<path fill-rule="evenodd" clip-rule="evenodd" d="M11.4326 2.90045C10.9058 1.85329 11.2985 0.830083 12.0191 0.0285358C11.883 0.917728 12.5861 1.80386 12.6951 2.61968L12.691 2.61051C12.5356 2.07588 12.3163 1.56251 12.0382 1.08181C12.2853 1.66068 12.44 2.32923 12.3395 2.70732C12.3049 2.12336 12.1015 1.45124 11.9107 1.08792C11.8474 1.33353 12.1015 2.18451 12.1035 2.5305C12.0071 2.1254 11.8524 1.60309 11.7208 1.20003C11.5993 1.59239 11.7444 2.21916 11.8941 2.68337C11.5792 2.05661 11.5184 1.58118 11.5426 1.21684C11.2965 1.79673 11.4979 2.49076 11.7193 3.05128C11.3678 2.40362 11.2553 1.86043 11.4366 1.18882C11.1835 1.68564 11.185 2.184 11.4326 2.90045Z" fill="#1E1F1E"/>
<path fill-rule="evenodd" clip-rule="evenodd" d="M12.5396 6.77111L15.6189 21.6418C15.6692 21.8853 15.7666 22.0173 15.8504 21.9985C15.9137 21.9842 15.9654 21.8762 15.9228 21.5985L13.211 6.60143L12.7921 6.40066L12.5396 6.77111Z" fill="#E2B99B"/>
<path fill-rule="evenodd" clip-rule="evenodd" d="M15.8819 21.9817C15.9286 21.9404 15.9578 21.8288 15.9226 21.598L13.2108 6.60092L13.0215 6.65187L15.7488 20.99C15.8056 21.2795 15.9432 21.7722 15.8819 21.9817Z" fill="#F2D0B8"/>
<path fill-rule="evenodd" clip-rule="evenodd" d="M12.5396 6.77111L15.6189 21.6418C15.6591 21.8395 15.7314 21.9633 15.8017 21.9929C15.6601 21.789 15.5768 21.0756 15.4849 20.6135L12.7429 6.72016L12.5396 6.77111Z" fill="#C9A184"/>
<path fill-rule="evenodd" clip-rule="evenodd" d="M12.629 3.30199C12.4784 3.12975 11.946 3.15523 11.7607 3.43753C12.0987 4.61667 12.2755 5.66841 12.5587 6.86793C12.7335 6.61977 13.0267 6.61315 13.2502 6.73544C13.0197 5.61134 12.8058 4.44087 12.629 3.30199Z" fill="#D2D8E6"/>
<path fill-rule="evenodd" clip-rule="evenodd" d="M11.9401 3.30963C11.8366 3.32849 11.7678 3.37995 11.7593 3.43753C12.0972 4.61667 12.274 5.66841 12.5572 6.86793C12.6111 6.80366 12.6732 6.74709 12.7421 6.69977C12.4834 5.56293 12.1876 4.28086 11.9401 3.30963Z" fill="#B5BBC9"/>
<path fill-rule="evenodd" clip-rule="evenodd" d="M12.6289 3.30199C12.5973 3.26894 12.559 3.24323 12.5167 3.2266C12.4744 3.20998 12.4291 3.20284 12.3838 3.20568C12.4476 3.53537 12.886 5.90638 13.0266 6.66156C13.105 6.67171 13.1808 6.69678 13.2501 6.73544C13.0196 5.61134 12.8056 4.44087 12.6289 3.30199Z" fill="#E4E9F5"/>
<path fill-rule="evenodd" clip-rule="evenodd" d="M11.3901 1.02525C11.4815 0.671098 11.8923 0.158985 12.0339 0C12.0339 0 12.045 0.301154 12.0274 0.374021C11.9938 0.508547 12.1615 0.871358 12.1278 0.940659C12.1223 0.95136 11.5895 1.1185 11.3901 1.02525Z" fill="#5B0BD4"/>
<path fill-rule="evenodd" clip-rule="evenodd" d="M19.3618 15.8847C17.7322 14.8299 15.7571 13.8286 17.7699 13.5443C18.9812 13.3736 17.675 12.2128 15.7521 10.9378L14.6719 12.7814C15.0737 13.0643 15.3002 13.3894 15.2057 13.61C15.0752 13.9157 14.3897 13.904 13.6736 13.5881C12.9575 13.2722 12.4829 12.7692 12.6135 12.467C12.6175 12.4579 12.622 12.4487 12.6265 12.44L8.1129 11.1315L2.94644 5.33414C1.54032 5.25057 0.491765 5.63274 0.244691 6.82105C-0.493519 10.3692 12.4588 16.7652 15.3911 17.8582C18.0752 18.857 20.5881 19.5449 21.1581 18.9309C22.0199 18.0045 20.0357 16.3214 19.3618 15.8847Z" fill="#F7D6AB"/>
<path fill-rule="evenodd" clip-rule="evenodd" d="M21.3005 18.7225C21.2293 18.9136 21.1093 19.082 20.9527 19.2104C20.7961 19.3389 20.6087 19.4227 20.4096 19.4532C19.4324 19.6213 17.3202 19.0063 15.089 18.1757C12.1557 17.0842 -0.707211 10.7524 0.030497 7.20628C0.108335 6.83277 0.378009 6.27072 0.597463 6.04396L0.602986 6.03887C0.421658 6.26556 0.298473 6.53428 0.244428 6.82105C-0.493782 10.3692 12.4585 16.7652 15.3908 17.8582C18.075 18.857 20.5879 19.5449 21.1579 18.9309C21.2156 18.8694 21.2634 18.7991 21.2995 18.7225H21.3005ZM18.2286 13.2803C18.193 13.4133 18.0478 13.505 17.7696 13.5443C17.0957 13.6396 16.8697 13.8154 16.927 14.0462C17.0691 13.901 17.3322 13.8286 17.5914 13.7807C17.9464 13.7145 18.2075 13.6971 18.2286 13.2803Z" fill="#ECC094"/>
<path fill-rule="evenodd" clip-rule="evenodd" d="M13.5355 16.1945C13.8132 16.2704 14.452 16.6455 14.6996 16.4024C14.8643 16.2404 14.3576 15.8139 14.227 15.6962C13.5179 15.0567 13.4988 15.0006 12.5512 14.7484C12.4046 14.7091 12.1751 14.6256 11.9486 14.5822C11.7377 14.5415 11.5313 14.5364 11.4022 14.6368C11.3334 14.6903 11.2867 14.7749 11.4022 14.9186C11.7774 15.3802 12.0636 15.2819 12.2906 15.4847C12.3513 15.5392 12.395 15.6269 12.4548 15.713C12.6055 15.929 12.9806 16.0982 13.2377 16.1461C13.3457 16.1655 13.4421 16.169 13.5355 16.1945Z" fill="#F4A703"/>
<path fill-rule="evenodd" clip-rule="evenodd" d="M13.5531 15.1239C13.3211 14.971 13.0816 14.8895 12.5488 14.7484C12.4021 14.7091 12.1726 14.6256 11.9462 14.5822C11.7352 14.5415 11.5288 14.5364 11.3998 14.6368C11.331 14.6903 11.2843 14.7749 11.3998 14.9186C11.6433 15.2182 11.8517 15.2819 12.026 15.3456C11.9382 15.2776 11.8588 15.199 11.7895 15.1117C11.6725 14.968 11.7192 14.8834 11.7895 14.8299C11.9185 14.728 12.1249 14.7346 12.3358 14.7754C12.5603 14.8187 12.7878 14.9023 12.9385 14.9415C13.2061 15.0118 13.3985 15.0674 13.5531 15.1239Z" fill="#EBA100"/>
<path fill-rule="evenodd" clip-rule="evenodd" d="M13.5354 16.1945C13.8131 16.2704 14.4518 16.6455 14.6994 16.4024C14.8641 16.2404 14.3574 15.8139 14.2269 15.6962L14.0155 15.5051C14.2369 15.7267 14.5653 16.0972 14.4353 16.2154C14.2917 16.3459 13.8507 16.1252 13.5735 16.0493C13.4801 16.0238 13.3837 16.0202 13.2792 15.9983C13.0221 15.9504 12.6465 15.7813 12.4963 15.5657C12.4423 15.4955 12.3776 15.4346 12.3045 15.3853C12.1428 15.2528 11.8023 15.184 11.4819 15.0042C11.8199 15.366 12.0846 15.2941 12.294 15.4827C12.3547 15.5372 12.3984 15.6248 12.4582 15.7109C12.6088 15.927 12.984 16.0962 13.2411 16.1441C13.3455 16.1655 13.442 16.169 13.5354 16.1945Z" fill="#FCCA35"/>
<path fill-rule="evenodd" clip-rule="evenodd" d="M13.2996 15.6686C13.489 15.7196 13.9264 15.9744 14.0956 15.8103C14.2086 15.6997 13.8616 15.4077 13.7722 15.3272L13.6281 15.1968C13.7787 15.3497 14.0042 15.6014 13.9153 15.6824C13.8149 15.7716 13.5136 15.6207 13.3253 15.5688C13.2615 15.5514 13.1952 15.5489 13.1244 15.5356C12.9486 15.503 12.6915 15.3869 12.5885 15.2396C12.5518 15.1914 12.5075 15.1495 12.4575 15.1158C12.3465 15.0251 12.1135 14.9782 11.8945 14.8554C12.126 15.1025 12.3053 15.0536 12.4499 15.1825C12.4929 15.2305 12.5308 15.283 12.5629 15.339C12.6634 15.4867 12.9225 15.6024 13.0988 15.635C13.1691 15.6483 13.2354 15.6508 13.2996 15.6686Z" fill="#FCCA35"/>
<path fill-rule="evenodd" clip-rule="evenodd" d="M9.14585 13.6931C9.42356 13.7685 10.0623 14.1435 10.3099 13.9005C10.4746 13.7389 9.96792 13.3124 9.83736 13.1947C9.12827 12.5552 9.10919 12.4991 8.16157 12.2464C8.01493 12.2077 7.78543 12.1236 7.55895 12.0803C7.34803 12.0395 7.14163 12.0344 7.01257 12.1348C6.94377 12.1883 6.89707 12.2729 7.01257 12.4166C7.3877 12.8783 7.67395 12.7804 7.90094 12.9832C7.9617 13.0378 8.00539 13.1254 8.06515 13.2115C8.2158 13.4271 8.59093 13.5962 8.84805 13.6441C8.95602 13.6635 9.05244 13.6671 9.14585 13.6931Z" fill="#0172D2"/>
<path fill-rule="evenodd" clip-rule="evenodd" d="M9.16391 12.6225C8.9319 12.4696 8.69236 12.3875 8.16206 12.2464C8.01542 12.2077 7.78592 12.1241 7.55943 12.0803C7.34852 12.0395 7.14212 12.0344 7.01306 12.1348C6.94426 12.1883 6.89756 12.2729 7.01306 12.4166C7.25662 12.7162 7.46251 12.7804 7.63928 12.8436C7.55134 12.7757 7.47191 12.6972 7.40275 12.6097C7.28574 12.466 7.33245 12.3814 7.40275 12.3284C7.53181 12.2265 7.73821 12.2332 7.94913 12.2739C8.17361 12.3172 8.4011 12.4008 8.55175 12.4395C8.8164 12.5104 9.00824 12.5654 9.16391 12.6225Z" fill="#035EAD"/>
<path fill-rule="evenodd" clip-rule="evenodd" d="M9.14571 13.6931C9.42342 13.7685 10.0622 14.1435 10.3098 13.9004C10.4745 13.7389 9.96779 13.3124 9.83722 13.1947C9.75888 13.1244 9.68958 13.0607 9.6258 13.0036C9.84727 13.2253 10.1757 13.5952 10.0456 13.7134C9.902 13.8439 9.46109 13.6232 9.18388 13.5473C9.09047 13.5218 8.99406 13.5183 8.8896 13.4989C8.63248 13.451 8.25685 13.2818 8.1067 13.0658C8.05256 12.9957 7.98781 12.9348 7.91486 12.8854C7.75316 12.7529 7.41268 12.6846 7.09229 12.5047C7.43025 12.866 7.69491 12.7942 7.90432 12.9832C7.96508 13.0378 8.00877 13.1254 8.06853 13.2115C8.21919 13.4271 8.59432 13.5962 8.85143 13.6441C8.95589 13.6635 9.05231 13.6671 9.14571 13.6931Z" fill="#2698FC"/>
<path fill-rule="evenodd" clip-rule="evenodd" d="M8.91292 13.1667C9.10225 13.2176 9.53965 13.475 9.70888 13.3088C9.82188 13.1978 9.47487 12.9063 9.38548 12.8258L9.24135 12.6948C9.39201 12.8477 9.61749 13.0999 9.5286 13.1809C9.42816 13.2701 9.12685 13.1188 8.93853 13.0673C8.87476 13.0495 8.80847 13.0474 8.73766 13.0342C8.5619 13.0011 8.30478 12.8854 8.20233 12.7376C8.16509 12.6898 8.1207 12.6482 8.07076 12.6143C7.96028 12.5236 7.72676 12.4767 7.50781 12.3534C7.73932 12.6011 7.9186 12.5516 8.06373 12.6811C8.10634 12.729 8.14403 12.7813 8.17622 12.837C8.27917 12.9848 8.53578 13.1004 8.71205 13.1336C8.77984 13.1473 8.84613 13.1473 8.91292 13.1667Z" fill="#2698FC"/>
<path fill-rule="evenodd" clip-rule="evenodd" d="M9.29179 13.6813C9.44245 13.7481 9.55042 13.8403 9.53033 13.8852C9.51024 13.93 9.37114 13.9152 9.21948 13.8485C9.06782 13.7817 8.96085 13.6895 8.98094 13.6446C9.00103 13.5998 9.14013 13.6141 9.29179 13.6813Z" fill="#0172D2"/>
<path fill-rule="evenodd" clip-rule="evenodd" d="M9.29177 13.6813C9.30835 13.6885 9.32391 13.6956 9.33898 13.7032C9.20188 13.6477 9.08488 13.6294 9.07031 13.6635C9.05575 13.6976 9.16472 13.7843 9.31638 13.851C9.37257 13.8763 9.43089 13.8965 9.49064 13.9112C9.39667 13.9143 9.30341 13.8935 9.21946 13.8505C9.0688 13.7832 8.96083 13.6915 8.98092 13.6467C9.00101 13.6018 9.14011 13.6141 9.29177 13.6813Z" fill="#035EAD"/>
<path fill-rule="evenodd" clip-rule="evenodd" d="M9.43344 13.7588C9.50374 13.8097 9.54342 13.8566 9.53036 13.8867C9.51027 13.9336 9.37117 13.9168 9.21951 13.85C9.09045 13.7929 8.99403 13.718 8.98047 13.6681C9.04099 13.7156 9.10754 13.7547 9.17833 13.7843C9.32898 13.851 9.46608 13.8745 9.48265 13.8352C9.49019 13.8184 9.4711 13.7904 9.43344 13.7588Z" fill="#2698FC"/>
<path fill-rule="evenodd" clip-rule="evenodd" d="M7.5162 12.7845C7.70352 12.8671 7.82706 13.0016 7.7914 13.0841C7.75575 13.1667 7.57496 13.1667 7.38966 13.0841C7.20435 13.0016 7.0788 12.8671 7.11446 12.7845C7.15011 12.702 7.32839 12.7014 7.5162 12.7845Z" fill="#0172D2"/>
<path fill-rule="evenodd" clip-rule="evenodd" d="M7.51633 12.7845C7.53642 12.7932 7.5555 12.8028 7.57408 12.8125C7.40334 12.7458 7.25269 12.7381 7.22657 12.7983C7.20046 12.8584 7.32701 12.9832 7.51583 13.0658C7.58559 13.0974 7.65898 13.12 7.73428 13.133C7.65845 13.1611 7.52487 13.1448 7.38777 13.0821C7.20046 12.999 7.07692 12.865 7.11258 12.7825C7.14823 12.6999 7.32852 12.7014 7.51633 12.7845Z" fill="#035EAD"/>
<path fill-rule="evenodd" clip-rule="evenodd" d="M7.6879 12.8879C7.77127 12.9562 7.81395 13.0311 7.79136 13.0841C7.7557 13.1672 7.57491 13.1667 7.38961 13.0841C7.23042 13.0138 7.11742 12.9063 7.10889 12.8248C7.17799 12.8918 7.25891 12.945 7.34742 12.9817C7.53524 13.0643 7.71101 13.076 7.74013 13.0077C7.75168 12.9761 7.73159 12.9333 7.6879 12.8879Z" fill="#2698FC"/>
<path fill-rule="evenodd" clip-rule="evenodd" d="M5.57262 11.2976C5.84982 11.373 6.4886 11.7486 6.73618 11.505C6.9009 11.3434 6.39419 10.9169 6.26362 10.7992C5.55454 10.1597 5.53546 10.1037 4.58784 9.85093C4.4412 9.8122 4.2117 9.72863 3.98522 9.68532C3.7743 9.64455 3.5679 9.63895 3.43884 9.73984C3.37004 9.7908 3.32334 9.87743 3.43884 10.0211C3.81397 10.4833 4.10022 10.385 4.3272 10.5878C4.38847 10.6423 4.43166 10.7299 4.49192 10.816C4.64258 11.0321 5.0172 11.2008 5.27482 11.2487C5.38229 11.268 5.47871 11.2721 5.57262 11.2976Z" fill="#5B0BD4"/>
<path fill-rule="evenodd" clip-rule="evenodd" d="M5.59053 10.227C5.35802 10.0741 5.11848 9.99259 4.58617 9.85093C4.43953 9.8122 4.21003 9.72863 3.98354 9.68532C3.77263 9.64455 3.56623 9.63895 3.43717 9.73984C3.36837 9.7908 3.32217 9.87743 3.43717 10.0211C3.68073 10.3213 3.88662 10.385 4.06339 10.4481C3.97556 10.3803 3.89614 10.302 3.82686 10.2148C3.71036 10.0706 3.75656 9.98647 3.82686 9.93297C3.95593 9.83106 4.16232 9.83768 4.37324 9.87845C4.59772 9.92176 4.82521 10.0053 4.97586 10.0446C5.24302 10.1149 5.43536 10.1699 5.59053 10.227Z" fill="#4D06B8"/>
<path fill-rule="evenodd" clip-rule="evenodd" d="M5.57296 11.2976C5.85016 11.373 6.48894 11.7486 6.73652 11.505C6.90124 11.3434 6.39453 10.9169 6.26396 10.7992L6.05305 10.6081C6.27451 10.8298 6.60244 11.1997 6.47237 11.318C6.32875 11.4484 5.88833 11.2278 5.61062 11.1518C5.51722 11.1264 5.4208 11.1228 5.31634 11.1009C5.05923 11.053 4.6841 10.8838 4.53344 10.6683C4.47944 10.5981 4.41467 10.5372 4.34161 10.4879C4.1799 10.3549 3.83942 10.2841 3.51953 10.1067C3.857 10.4685 4.11964 10.3967 4.33106 10.5852C4.39182 10.6397 4.43551 10.7274 4.49578 10.8135C4.64643 11.0296 5.02106 11.1982 5.27868 11.2461C5.38263 11.268 5.47905 11.2721 5.57296 11.2976Z" fill="#8636FF"/>
<path fill-rule="evenodd" clip-rule="evenodd" d="M5.33675 10.7712C5.52658 10.8222 5.96348 11.08 6.13271 10.9134C6.2457 10.8028 5.89869 10.5108 5.80981 10.4303L5.66518 10.2993C5.81583 10.4522 6.04131 10.7045 5.95243 10.7855C5.85199 10.8746 5.55068 10.7238 5.36236 10.6718C5.29858 10.6545 5.2323 10.652 5.16149 10.6387C4.98572 10.6056 4.72861 10.4899 4.62616 10.3422C4.58892 10.2943 4.54452 10.2527 4.49459 10.2188C4.38411 10.1281 4.15059 10.0813 3.93164 9.95845C4.16315 10.2056 4.34293 10.1562 4.48756 10.2856C4.53017 10.3336 4.56786 10.3858 4.60005 10.4415C4.70299 10.5893 4.95961 10.705 5.13588 10.7381C5.20669 10.7524 5.27247 10.7524 5.33675 10.7712Z" fill="#8636FF"/>
<path fill-rule="evenodd" clip-rule="evenodd" d="M5.00337 11.0902C5.24542 11.1967 5.41566 11.345 5.38352 11.4184C5.35138 11.4917 5.12942 11.4693 4.88736 11.3598C4.64531 11.2502 4.47557 11.105 4.50721 11.0316C4.53885 10.9582 4.76132 10.9832 5.00337 11.0902Z" fill="#5B0BD4"/>
<path fill-rule="evenodd" clip-rule="evenodd" d="M5.00336 11.0902C5.02897 11.1014 5.05358 11.1131 5.07819 11.1254C4.85923 11.0367 4.67292 11.0071 4.64982 11.0611C4.62672 11.1152 4.80048 11.2538 5.04253 11.3608C5.13205 11.4013 5.225 11.4335 5.32024 11.4571C5.23085 11.4729 5.06463 11.4382 4.88736 11.3598C4.6458 11.2533 4.47556 11.105 4.5072 11.0316C4.53884 10.9582 4.76131 10.9832 5.00336 11.0902Z" fill="#4D06B8"/>
<path fill-rule="evenodd" clip-rule="evenodd" d="M5.2285 11.2145C5.34049 11.2925 5.40376 11.3705 5.38317 11.4184C5.35103 11.4928 5.12907 11.4693 4.88702 11.3598C4.68162 11.2691 4.52796 11.1493 4.50586 11.0698C4.60249 11.1454 4.70853 11.2078 4.82123 11.2553C5.06328 11.3618 5.28073 11.3985 5.30734 11.3368C5.3194 11.3088 5.28876 11.2645 5.2285 11.2145Z" fill="#8636FF"/>
<path fill-rule="evenodd" clip-rule="evenodd" d="M3.06603 9.51563C3.25636 9.5992 3.38994 9.71487 3.36483 9.77347C3.33972 9.83207 3.16396 9.81118 2.97514 9.72761C2.78632 9.64404 2.65173 9.52837 2.67684 9.46977C2.70195 9.41117 2.87621 9.43156 3.06603 9.51563Z" fill="#5B0BD4"/>
<path fill-rule="evenodd" clip-rule="evenodd" d="M3.06605 9.51563C3.08664 9.5243 3.10623 9.53398 3.12481 9.54315C2.95306 9.47385 2.80693 9.45092 2.78885 9.49219C2.77077 9.53347 2.90686 9.64506 3.09719 9.7271C3.16742 9.75894 3.24037 9.78418 3.31514 9.80252C3.24483 9.81526 3.11426 9.78774 2.97516 9.72659C2.78533 9.64252 2.65175 9.52735 2.67686 9.46875C2.70197 9.41015 2.87623 9.43156 3.06605 9.51563Z" fill="#4D06B8"/>
<path fill-rule="evenodd" clip-rule="evenodd" d="M3.2433 9.61347C3.33119 9.67462 3.3809 9.73577 3.36483 9.77347C3.33972 9.83207 3.16396 9.81118 2.97514 9.72761C2.81394 9.65627 2.69341 9.56251 2.67383 9.49984C2.74971 9.55907 2.83295 9.6079 2.9214 9.64506C3.11173 9.72914 3.28247 9.75768 3.30306 9.70978C3.31461 9.68736 3.2885 9.65271 3.2433 9.61347Z" fill="#8636FF"/>
<path fill-rule="evenodd" clip-rule="evenodd" d="M18.0834 17.8073C18.3611 17.8832 18.9512 18.2088 19.1993 17.9653C19.3635 17.8037 18.8573 17.3772 18.7267 17.2595C18.0177 16.62 18.0081 16.5823 17.0605 16.3301C16.9134 16.2908 16.6743 16.1889 16.4503 16.1456C16.0546 16.0692 15.4415 16.2888 15.8096 16.6949C16.1109 17.0277 16.6231 17.393 17.0273 17.5612C17.2207 17.6391 17.9388 17.7681 18.0834 17.8073Z" fill="#FFEF0A"/>
<path fill-rule="evenodd" clip-rule="evenodd" d="M18.0525 16.6873C17.8205 16.5344 17.6006 16.4676 17.0688 16.3265C16.9216 16.2873 16.6414 16.1848 16.4159 16.1415C16.2155 16.1065 16.0093 16.1408 15.8304 16.2388C15.4286 16.4794 16.0142 16.9685 16.3286 17.0873C16.0348 16.8646 15.8048 16.6164 16.1528 16.3459C16.2818 16.2439 16.6279 16.298 16.8388 16.3387C17.0627 16.382 17.2907 16.4656 17.4414 16.5048C17.7055 16.5752 17.8979 16.6307 18.0525 16.6873Z" fill="#EDDD00"/>
<path fill-rule="evenodd" clip-rule="evenodd" d="M18.0356 17.7579C18.3133 17.8338 18.9516 18.2088 19.1991 17.9653C19.3639 17.8037 18.8577 17.3772 18.7271 17.2595L18.5157 17.0684C18.7371 17.2901 19.0681 17.6605 18.9355 17.7788C18.7919 17.9087 18.351 17.6881 18.0737 17.6126C17.6534 17.498 17.205 17.5469 16.7856 17.4292C17.1804 17.6738 17.6273 17.6463 18.0356 17.7579Z" fill="#FFF99E"/>
<path fill-rule="evenodd" clip-rule="evenodd" d="M17.8016 17.2315C17.9914 17.2824 18.4288 17.5403 18.598 17.3737C18.711 17.2631 18.364 16.9711 18.2746 16.8906L18.1305 16.7601C18.2812 16.913 18.5066 17.1647 18.4178 17.2458C18.3173 17.3349 18.016 17.1841 17.8277 17.1321C17.7639 17.1148 17.6976 17.1122 17.6268 17.099C17.4506 17.0659 17.1939 16.9502 17.091 16.8024C17.0541 16.7545 17.0098 16.7129 16.9599 16.6791C16.8489 16.5884 16.6154 16.5415 16.397 16.4187C16.628 16.6659 16.8078 16.6169 16.9524 16.7459C16.9953 16.7939 17.0332 16.8463 17.0654 16.9023C17.1658 17.0501 17.4249 17.1658 17.6007 17.1984C17.6695 17.2116 17.7358 17.2142 17.8016 17.2315Z" fill="#FFF99E"/>
<path fill-rule="evenodd" clip-rule="evenodd" d="M18.2599 17.8832C18.4558 17.9698 18.5939 18.087 18.5677 18.1487C18.5416 18.2104 18.3623 18.1879 18.166 18.1018C17.9696 18.0157 17.8325 17.898 17.8587 17.8358C17.8848 17.7737 18.0641 17.7966 18.2599 17.8832Z" fill="#FFEF0A"/>
<path fill-rule="evenodd" clip-rule="evenodd" d="M18.2599 17.8832C18.281 17.8924 18.3011 17.9021 18.3207 17.9118C18.1434 17.8399 17.9923 17.8165 17.9737 17.8608C17.9551 17.9051 18.0957 18.0167 18.2916 18.1033C18.3641 18.136 18.4394 18.1621 18.5166 18.1813C18.4442 18.1941 18.3097 18.166 18.165 18.1028C17.9687 18.0162 17.8311 17.899 17.8572 17.8368C17.8833 17.7747 18.0641 17.7966 18.2599 17.8832Z" fill="#EDDD00"/>
<path fill-rule="evenodd" clip-rule="evenodd" d="M18.4425 17.9841C18.5329 18.0468 18.5841 18.11 18.5675 18.1487C18.5414 18.2093 18.3616 18.1879 18.1658 18.1018C17.9991 18.0284 17.8745 17.9311 17.8569 17.8669C17.935 17.9281 18.0208 17.9785 18.112 18.0167C18.3079 18.1033 18.4842 18.1329 18.5053 18.083C18.5158 18.06 18.4912 18.0244 18.4425 17.9841Z" fill="#FFF99E"/>
<path fill-rule="evenodd" clip-rule="evenodd" d="M3.62525 8.99944C3.90245 9.07486 4.49302 9.40047 4.7406 9.15741C4.90531 8.99588 4.39861 8.56937 4.26804 8.45166C3.55946 7.81215 3.54942 7.77445 2.60179 7.5217C2.45516 7.48298 2.21612 7.38106 1.99164 7.33775C1.59592 7.2608 0.983258 7.48094 1.35086 7.88706C1.65217 8.21981 2.16439 8.58517 2.56865 8.75332C2.76249 8.83129 3.48011 8.9597 3.62525 8.99944Z" fill="#D108CE"/>
<path fill-rule="evenodd" clip-rule="evenodd" d="M3.59449 7.87942C3.36198 7.72655 3.14252 7.6598 2.61021 7.51865C2.46357 7.47941 2.18285 7.37699 1.95737 7.33367C1.75701 7.29851 1.55082 7.3326 1.37182 7.43049C0.970078 7.67152 1.55613 8.1607 1.86999 8.27943C1.57672 8.05675 1.34672 7.80859 1.69423 7.53801C1.82329 7.4361 2.16929 7.49011 2.38021 7.53088C2.60469 7.57419 2.83218 7.65776 2.98283 7.69699C3.24698 7.76731 3.43881 7.82235 3.59449 7.87942Z" fill="#A306A0"/>
<path fill-rule="evenodd" clip-rule="evenodd" d="M3.5771 8.95002C3.8543 9.02543 4.49308 9.40098 4.74066 9.15741C4.90537 8.99588 4.39867 8.56937 4.2681 8.45166L4.05718 8.26057C4.27865 8.48223 4.60708 8.85218 4.47651 8.9704C4.33339 9.10085 3.89247 8.88021 3.61476 8.80428C3.19443 8.68963 2.74649 8.73906 2.32666 8.62135C2.72138 8.86696 3.16832 8.83842 3.5771 8.95002Z" fill="#F00CEC"/>
<path fill-rule="evenodd" clip-rule="evenodd" d="M3.34113 8.42363C3.53096 8.47459 3.96786 8.73243 4.13709 8.5658C4.25008 8.45523 3.90308 8.16325 3.81419 8.08273L3.66956 7.95178C3.82021 8.10465 4.0457 8.35688 3.95681 8.4379C3.85637 8.52708 3.55506 8.37624 3.36725 8.32427C3.30297 8.30694 3.23668 8.3044 3.16637 8.29115C2.99011 8.25802 2.73349 8.14235 2.63054 7.99458C2.5933 7.94675 2.54891 7.90514 2.49897 7.87126C2.38849 7.78056 2.15497 7.73368 1.93652 7.61088C2.16753 7.85802 2.34731 7.80859 2.49194 7.93802C2.53455 7.98599 2.57224 8.03823 2.60443 8.09394C2.70738 8.24172 2.96399 8.35739 3.14026 8.39051C3.21107 8.40376 3.27685 8.40835 3.34113 8.42363Z" fill="#F00CEC"/>
<path fill-rule="evenodd" clip-rule="evenodd" d="M3.80092 9.07486C3.99677 9.16149 4.13487 9.27869 4.10876 9.34085C4.08265 9.40302 3.90337 9.38009 3.70701 9.29346C3.51066 9.20684 3.37306 9.08964 3.39918 9.02798C3.42529 8.96632 3.60507 8.98874 3.80092 9.07486Z" fill="#D108CE"/>
<path fill-rule="evenodd" clip-rule="evenodd" d="M3.80094 9.07537C3.82203 9.08454 3.84212 9.09371 3.86171 9.10391C3.68443 9.03206 3.53378 9.00811 3.5147 9.05295C3.49561 9.09779 3.63673 9.20888 3.83308 9.2955C3.90546 9.32825 3.98059 9.35434 4.05756 9.37347C3.98524 9.38621 3.85066 9.35818 3.70603 9.29448C3.51018 9.20837 3.37208 9.09066 3.39819 9.029C3.4243 8.96734 3.60509 8.98874 3.80094 9.07537Z" fill="#A306A0"/>
<path fill-rule="evenodd" clip-rule="evenodd" d="M3.98398 9.17575C4.07488 9.23894 4.1261 9.30213 4.10903 9.34085C4.08342 9.40149 3.90363 9.38009 3.70728 9.29346C3.54056 9.22009 3.41652 9.12327 3.39844 9.05855C3.47656 9.12083 3.56252 9.17224 3.65405 9.21142C3.8499 9.29754 4.02566 9.3276 4.04726 9.27767C4.0573 9.25219 4.0327 9.21652 3.98398 9.17575Z" fill="#F00CEC"/>
<path fill-rule="evenodd" clip-rule="evenodd" d="M5.45394 7.84783C5.73115 7.92324 6.36992 8.29879 6.6175 8.05522C6.78222 7.89369 6.27551 7.46718 6.14545 7.34947C5.43636 6.70996 5.41728 6.65391 4.46966 6.40168C4.32252 6.36244 4.09302 6.27887 3.86704 6.23556C3.65662 6.19479 3.45023 6.1897 3.32117 6.29008C3.25237 6.34104 3.20566 6.42767 3.32117 6.57187C3.69881 7.03252 3.98505 6.93366 4.21254 7.13443C4.27331 7.18896 4.317 7.2766 4.37676 7.36272C4.52741 7.57877 4.90254 7.74744 5.15966 7.79585C5.26412 7.81725 5.36053 7.82082 5.45394 7.84783Z" fill="#ED1000"/>
<path fill-rule="evenodd" clip-rule="evenodd" d="M5.4711 6.77774C5.23859 6.62487 4.99904 6.54334 4.46673 6.40219C4.31959 6.36295 4.09009 6.27938 3.86411 6.23607C3.65369 6.1953 3.4473 6.19021 3.31824 6.29059C3.24944 6.34155 3.20273 6.42817 3.31824 6.57238C3.56129 6.87201 3.76719 6.9357 3.94396 6.99889C3.8564 6.93091 3.77717 6.85256 3.70793 6.76551C3.59092 6.62181 3.63762 6.53722 3.70793 6.48372C3.83699 6.3818 4.04339 6.38843 4.25431 6.42919C4.47828 6.47251 4.70627 6.55608 4.85693 6.59531C5.12359 6.66359 5.31592 6.71914 5.4711 6.77774Z" fill="#B30C00"/>
<path fill-rule="evenodd" clip-rule="evenodd" d="M5.45382 7.84783C5.73102 7.92324 6.3698 8.29879 6.61738 8.05522C6.7821 7.89369 6.27539 7.46718 6.14533 7.34947L5.93391 7.15838C6.15537 7.38004 6.4838 7.7505 6.35373 7.86821C6.21011 7.99866 5.76919 7.77801 5.49199 7.7026C5.39858 7.67712 5.30166 7.67304 5.1977 7.65164C4.94008 7.60374 4.56495 7.43457 4.4148 7.21902C4.36068 7.14896 4.29592 7.08807 4.22297 7.03863C4.06126 6.90615 3.72078 6.83736 3.40039 6.65748C3.73836 7.01927 4.00301 6.94742 4.21242 7.13596C4.27318 7.19049 4.31688 7.27813 4.37664 7.36425C4.52729 7.5803 4.90242 7.74897 5.15954 7.79738C5.26399 7.81725 5.36041 7.82082 5.45382 7.84783Z" fill="#FF584C"/>
<path fill-rule="evenodd" clip-rule="evenodd" d="M5.21754 7.31991C5.40737 7.37087 5.84427 7.62871 6.014 7.46208C6.12649 7.35151 5.77999 7.05953 5.6906 6.97902L5.54798 6.84857C5.69863 7.00144 5.92462 7.25316 5.83523 7.33418C5.7373 7.42336 5.43348 7.27253 5.24566 7.22055C5.18189 7.20322 5.1156 7.20068 5.04479 7.18743C4.86852 7.15431 4.61191 7.03863 4.50896 6.89086C4.47202 6.84293 4.42777 6.80131 4.37789 6.76755C4.26691 6.67684 4.03339 6.62996 3.81494 6.50716C4.04595 6.7543 4.22573 6.70538 4.37036 6.8343C4.41324 6.88223 4.45095 6.93467 4.48285 6.99074C4.58579 7.13851 4.84241 7.25418 5.01868 7.28679C5.08747 7.30004 5.15376 7.30259 5.21754 7.31991Z" fill="#FF584C"/>
<path fill-rule="evenodd" clip-rule="evenodd" d="M6.16996 8.04401C6.41201 8.15102 6.58225 8.29879 6.55062 8.37268C6.51898 8.44656 6.29651 8.42058 6.05446 8.31408C5.81241 8.20758 5.64217 8.05929 5.67431 7.98541C5.70645 7.91152 5.92841 7.937 6.16996 8.04401Z" fill="#ED1000"/>
<path fill-rule="evenodd" clip-rule="evenodd" d="M6.17046 8.04401C6.19608 8.05522 6.22068 8.06745 6.24479 8.07917C6.02634 7.9905 5.84003 7.96146 5.81693 8.01547C5.79383 8.06949 5.96758 8.20809 6.20913 8.3151C6.29881 8.35509 6.39172 8.38715 6.48684 8.4109C6.39795 8.4272 6.23173 8.39204 6.05446 8.31408C5.81241 8.20707 5.64217 8.05929 5.67431 7.98541C5.70645 7.91152 5.92841 7.937 6.17046 8.04401Z" fill="#B30C00"/>
<path fill-rule="evenodd" clip-rule="evenodd" d="M6.39598 8.16885C6.50797 8.24631 6.57124 8.32172 6.55065 8.37268C6.51851 8.44759 6.29655 8.42109 6.0545 8.31459C5.8491 8.22389 5.69544 8.10414 5.67334 8.02414C5.76977 8.10006 5.87585 8.16245 5.98871 8.20962C6.23076 8.31663 6.44821 8.35332 6.47432 8.29166C6.48688 8.26261 6.45624 8.21879 6.39598 8.16885Z" fill="#FF584C"/>
<path fill-rule="evenodd" clip-rule="evenodd" d="M3.39709 6.58716C3.58691 6.67124 3.72049 6.7864 3.69538 6.845C3.67027 6.9036 3.49451 6.88322 3.30619 6.79914C3.11787 6.71506 2.98228 6.5999 3.00739 6.5413C3.0325 6.4827 3.20726 6.50359 3.39709 6.58716Z" fill="#ED1000"/>
<path fill-rule="evenodd" clip-rule="evenodd" d="M3.39711 6.58716C3.4172 6.59633 3.43678 6.6055 3.45587 6.61519C3.28412 6.54538 3.13748 6.52244 3.11941 6.56423C3.10133 6.60601 3.23792 6.7171 3.42775 6.79965C3.49812 6.83111 3.57104 6.85634 3.64569 6.87506C3.57589 6.88729 3.44482 6.86029 3.30622 6.79863C3.11639 6.71506 2.98231 6.59939 3.00742 6.54079C3.03253 6.48219 3.20729 6.50359 3.39711 6.58716Z" fill="#B30C00"/>
<path fill-rule="evenodd" clip-rule="evenodd" d="M3.57436 6.685C3.66224 6.74614 3.71146 6.80729 3.69539 6.845C3.67028 6.9036 3.49451 6.88322 3.30619 6.79914C3.14499 6.72831 3.02397 6.63404 3.00488 6.57136C3.08071 6.63081 3.16396 6.67982 3.25246 6.7171C3.44229 6.80067 3.61303 6.82971 3.63362 6.7813C3.64517 6.75888 3.62157 6.72678 3.57436 6.685Z" fill="#FF584C"/>
<path fill-rule="evenodd" clip-rule="evenodd" d="M10.505 8.35739C10.6948 8.44147 10.8284 8.55663 10.8033 8.61523C10.7782 8.67383 10.6024 8.65345 10.4141 8.56937C10.2258 8.48529 10.0902 8.37013 10.1153 8.31153C10.1404 8.25293 10.3152 8.2728 10.505 8.35739Z" fill="#42D126"/>
<path fill-rule="evenodd" clip-rule="evenodd" d="M10.505 8.35739C10.5251 8.36656 10.5447 8.37574 10.5638 8.38542C10.392 8.31561 10.2454 8.29268 10.2273 8.33446C10.2092 8.37625 10.3458 8.48733 10.5357 8.56937C10.6059 8.6012 10.6789 8.62661 10.7536 8.6453C10.6838 8.65753 10.5527 8.63001 10.4141 8.56886C10.2243 8.48478 10.0902 8.36962 10.1153 8.31102C10.1404 8.25242 10.3152 8.2728 10.505 8.35739Z" fill="#31A31A"/>
<path fill-rule="evenodd" clip-rule="evenodd" d="M10.6823 8.45472C10.7702 8.51587 10.8194 8.57701 10.8033 8.61472C10.7782 8.67332 10.6024 8.65294 10.4141 8.56886C10.2529 8.49752 10.1319 8.40376 10.1128 8.34109C10.1885 8.40054 10.2718 8.44938 10.3604 8.48631C10.5502 8.57039 10.7209 8.59944 10.7415 8.55103C10.7531 8.52861 10.7295 8.49396 10.6823 8.45472Z" fill="#68E64E"/>
<path fill-rule="evenodd" clip-rule="evenodd" d="M9.48335 8.8211C9.76105 8.89702 10.3511 9.22263 10.5987 8.97906C10.7634 8.81753 10.2567 8.39102 10.1266 8.27331C9.41756 7.63381 9.40802 7.5961 8.4604 7.34335C8.31326 7.30463 8.07422 7.20271 7.84974 7.1594C7.45453 7.08297 6.84136 7.30259 7.20946 7.70871C7.51077 8.04146 8.023 8.40682 8.42726 8.57497C8.6206 8.65294 9.33822 8.78135 9.48335 8.8211Z" fill="#42D126"/>
<path fill-rule="evenodd" clip-rule="evenodd" d="M9.45247 7.70107C9.22046 7.5482 9.0005 7.48145 8.46819 7.3403C8.32155 7.30106 8.04083 7.19864 7.81535 7.15532C7.61493 7.11999 7.40863 7.15428 7.2298 7.25265C6.82805 7.49317 7.4136 7.98235 7.72797 8.10108C7.43419 7.8784 7.20419 7.63024 7.5522 7.35966C7.68126 7.25775 8.02727 7.31176 8.23768 7.35253C8.46216 7.39584 8.68965 7.47941 8.8403 7.51864C9.10495 7.58896 9.29729 7.644 9.45247 7.70107Z" fill="#31A31A"/>
<path fill-rule="evenodd" clip-rule="evenodd" d="M9.43495 8.77167C9.71216 8.84708 10.3509 9.22263 10.5985 8.97906C10.7632 8.81753 10.2565 8.39102 10.1265 8.27331L9.91705 8.08223C10.1385 8.30389 10.4694 8.67434 10.3369 8.79205C10.1932 8.9225 9.75233 8.70186 9.47513 8.62644C9.0548 8.51179 8.60635 8.56071 8.18652 8.443C8.57973 8.68759 9.02668 8.66007 9.43495 8.77167Z" fill="#68E64E"/>
<path fill-rule="evenodd" clip-rule="evenodd" d="M9.19904 8.24529C9.38887 8.29624 9.82627 8.55408 9.9955 8.38746C10.108 8.27688 9.76149 7.9849 9.6721 7.90439L9.52747 7.77394C9.67812 7.92681 9.90411 8.17853 9.81472 8.25956C9.71679 8.34873 9.41297 8.1979 9.22515 8.14592C9.16138 8.1286 9.09509 8.12605 9.02428 8.1128C8.84801 8.07968 8.5914 7.96401 8.48845 7.81623C8.45151 7.76831 8.40726 7.72668 8.35738 7.69292C8.2464 7.60221 8.01288 7.55533 7.79443 7.43253C8.02544 7.67967 8.20522 7.63075 8.34985 7.75967C8.39273 7.8076 8.43044 7.86004 8.46234 7.91611C8.56528 8.06388 8.8219 8.17955 8.99817 8.21217C9.06898 8.22541 9.13526 8.22796 9.19904 8.24529Z" fill="#68E64E"/>
<path fill-rule="evenodd" clip-rule="evenodd" d="M7.72662 8.06133C7.96817 8.16783 8.13841 8.31612 8.10677 8.38949C8.07513 8.46287 7.85266 8.44045 7.61061 8.33089C7.36856 8.22134 7.19832 8.07611 7.23046 8.00273C7.2626 7.92936 7.48456 7.95433 7.72662 8.06133Z" fill="#42D126"/>
<path fill-rule="evenodd" clip-rule="evenodd" d="M7.72662 8.06133C7.75223 8.07254 7.77683 8.08426 7.80094 8.09649C7.58249 8.00783 7.39618 7.97828 7.37308 8.03229C7.34998 8.0863 7.52373 8.22491 7.76579 8.33191C7.85517 8.37235 7.94794 8.40458 8.04299 8.42822C7.9541 8.44402 7.78788 8.40937 7.61061 8.33089C7.36856 8.2244 7.19832 8.07611 7.23046 8.00273C7.2626 7.92936 7.48456 7.95433 7.72662 8.06133Z" fill="#31A31A"/>
<path fill-rule="evenodd" clip-rule="evenodd" d="M7.95213 8.18567C8.06412 8.26363 8.1274 8.34159 8.10681 8.38949C8.07467 8.46389 7.8527 8.44045 7.61065 8.33089C7.40526 8.24019 7.25159 8.12044 7.22949 8.04095C7.32612 8.11658 7.43216 8.17894 7.54486 8.22643C7.78692 8.33293 8.00436 8.36962 8.03047 8.30796C8.04303 8.27994 8.0124 8.2356 7.95213 8.18567Z" fill="#68E64E"/>
</g>
<defs>
<clipPath id="clip0_1232_2581">
<rect width="21.3714" height="22" fill="white"/>
</clipPath>
</defs>
</svg>
