<svg width="17" height="16" viewBox="0 0 17 16" fill="none" xmlns="http://www.w3.org/2000/svg">
<g clip-path="url(#clip0_1129_35697)">
<path d="M5.34683 2.17717C6.12129 2.18558 6.7402 2.84378 6.73779 3.65497C6.73537 4.45607 6.0963 5.12436 5.33152 5.12688C4.57157 5.1294 3.92445 4.45775 3.91881 3.65917C3.91236 2.83453 4.55384 2.16877 5.34683 2.17717ZM5.32346 4.54854C5.79893 4.55274 6.18414 4.15177 6.18576 3.65076C6.18737 3.1464 5.81263 2.75635 5.32588 2.75383C4.8359 2.75131 4.47003 3.13295 4.46922 3.64656C4.46922 4.15597 4.83671 4.54433 5.32346 4.54854Z" fill="#F3F3F5"/>
<path d="M0.950302 2.34999C2.20023 0.242577 4.65334 -0.567772 6.80343 0.416584C8.98335 1.41355 10.0842 3.84123 9.42658 6.24118C9.35486 6.50009 9.45479 6.62198 9.60227 6.77497C11.7886 9.04546 13.9661 11.3269 16.163 13.5864C16.524 13.9563 16.7907 14.311 16.6239 14.8247C16.6239 15.0172 16.6312 15.1718 16.6231 15.3248C16.5949 15.8704 16.5313 15.9275 16.0195 15.9082C15.457 15.8864 14.8921 15.8864 14.3304 15.8468C13.298 15.7737 13.4818 15.9696 13.2094 14.8877C13.1216 14.538 12.9829 14.4052 12.638 14.3388C11.5646 14.132 11.725 14.3522 11.5267 13.2275C11.4727 12.9215 11.3454 12.8257 11.0778 12.7584C10.0076 12.4886 10.1615 12.6466 10.0995 11.6001C10.0939 11.516 10.0737 11.4328 10.0753 11.3496C10.0777 11.1688 9.98667 11.1167 9.82711 11.1024C8.82298 11.0091 8.99785 11.0923 8.76334 10.0567C8.75125 10.0021 8.73997 9.94659 8.73514 9.89111C8.71579 9.68096 8.62956 9.58009 8.40553 9.57925C8.03885 9.57757 7.68507 9.47585 7.37642 9.26822C7.20073 9.15053 7.06615 9.17996 6.89853 9.26318C6.05315 9.68348 5.17233 9.81462 4.23911 9.67255C0.967226 9.17491 -0.787182 5.28036 0.950302 2.34999ZM6.65112 8.6697C7.02505 8.48141 7.32242 8.41668 7.68104 8.69576C7.9776 8.92609 8.34912 8.97821 8.71982 8.91516C9.02687 8.86305 9.21947 8.95887 9.24445 9.30941C9.24687 9.3506 9.26944 9.39095 9.27185 9.4313C9.30812 10.1458 9.566 10.6023 10.3542 10.5106C10.5758 10.4846 10.6789 10.6628 10.6886 10.894C10.6983 11.1176 10.7474 11.3412 10.7353 11.5631C10.7168 11.9145 10.8304 12.1103 11.1882 12.1213C11.293 12.1238 11.3962 12.1809 11.5017 12.191C11.9039 12.2289 12.065 12.4684 12.1223 12.8719C12.2278 13.6226 12.2407 13.6655 12.9346 13.7428C13.4616 13.8025 13.6688 14.0656 13.7759 14.5666C13.8227 14.7868 13.7316 15.1769 14.1563 15.1853C14.7067 15.1954 15.2563 15.2206 15.806 15.2382C15.8809 15.2399 16.0002 15.2702 15.9953 15.1542C15.9808 14.8112 16.134 14.4699 15.8156 14.1421C13.5237 11.7816 11.2559 9.39599 8.97045 7.02967C8.72063 6.77076 8.64649 6.548 8.76656 6.18486C9.36211 4.39183 8.74158 2.49289 7.22572 1.37656C5.8396 0.35606 3.7991 0.416584 2.4565 1.56402C1.46365 2.41304 0.913231 3.51508 0.922901 5.22572C0.90356 7.92913 4.01346 9.99367 6.65112 8.6697Z" fill="#F3F3F5"/>
<path d="M5.34683 2.17717C6.12129 2.18558 6.7402 2.84378 6.73779 3.65497C6.73537 4.45607 6.0963 5.12436 5.33152 5.12688C4.57157 5.1294 3.92445 4.45775 3.91881 3.65917C3.91236 2.83453 4.55384 2.16877 5.34683 2.17717ZM5.32346 4.54854C5.79893 4.55274 6.18414 4.15177 6.18576 3.65076C6.18737 3.1464 5.81263 2.75635 5.32588 2.75383C4.8359 2.75131 4.47003 3.13295 4.46922 3.64656C4.46922 4.15597 4.83671 4.54433 5.32346 4.54854Z" fill="black"/>
<path d="M0.950302 2.34999C2.20023 0.242577 4.65334 -0.567772 6.80343 0.416584C8.98335 1.41355 10.0842 3.84123 9.42658 6.24118C9.35486 6.50009 9.45479 6.62198 9.60227 6.77497C11.7886 9.04546 13.9661 11.3269 16.163 13.5864C16.524 13.9563 16.7907 14.311 16.6239 14.8247C16.6239 15.0172 16.6312 15.1718 16.6231 15.3248C16.5949 15.8704 16.5313 15.9275 16.0195 15.9082C15.457 15.8864 14.8921 15.8864 14.3304 15.8468C13.298 15.7737 13.4818 15.9696 13.2094 14.8877C13.1216 14.538 12.9829 14.4052 12.638 14.3388C11.5646 14.132 11.725 14.3522 11.5267 13.2275C11.4727 12.9215 11.3454 12.8257 11.0778 12.7584C10.0076 12.4886 10.1615 12.6466 10.0995 11.6001C10.0939 11.516 10.0737 11.4328 10.0753 11.3496C10.0777 11.1688 9.98667 11.1167 9.82711 11.1024C8.82298 11.0091 8.99785 11.0923 8.76334 10.0567C8.75125 10.0021 8.73997 9.94659 8.73514 9.89111C8.71579 9.68096 8.62956 9.58009 8.40553 9.57925C8.03885 9.57756 7.68507 9.47585 7.37642 9.26822C7.20073 9.15053 7.06615 9.17996 6.89853 9.26318C6.05316 9.68348 5.17233 9.81462 4.23911 9.67255C0.967226 9.17491 -0.787182 5.28036 0.950302 2.34999V2.34999ZM6.65112 8.6697C7.02505 8.48141 7.32242 8.41668 7.68104 8.69576C7.9776 8.92609 8.34912 8.97821 8.71982 8.91516C9.02686 8.86305 9.21947 8.95888 9.24445 9.30941C9.24687 9.3506 9.26944 9.39095 9.27185 9.4313C9.30812 10.1458 9.566 10.6023 10.3542 10.5106C10.5758 10.4846 10.6789 10.6628 10.6886 10.894C10.6983 11.1176 10.7474 11.3412 10.7353 11.5631C10.7168 11.9145 10.8304 12.1103 11.1882 12.1213C11.293 12.1238 11.3962 12.1809 11.5017 12.191C11.9039 12.2289 12.065 12.4684 12.1223 12.8719C12.2278 13.6226 12.2407 13.6655 12.9346 13.7428C13.4616 13.8025 13.6688 14.0656 13.7759 14.5666C13.8227 14.7868 13.7316 15.1769 14.1563 15.1853C14.7067 15.1954 15.2563 15.2206 15.806 15.2382C15.8809 15.2399 16.0002 15.2702 15.9953 15.1542C15.9808 14.8112 16.134 14.4699 15.8156 14.1421C13.5237 11.7816 11.2559 9.39599 8.97045 7.02967C8.72063 6.77076 8.64649 6.548 8.76656 6.18486C9.36211 4.39183 8.74158 2.49289 7.22572 1.37656C5.8396 0.35606 3.7991 0.416584 2.4565 1.56402C1.46365 2.41304 0.913231 3.51508 0.922901 5.22572C0.90356 7.92913 4.01346 9.99367 6.65112 8.6697V8.6697Z" fill="black"/>
<path d="M5.34683 2.17717C6.12129 2.18558 6.7402 2.84378 6.73779 3.65497C6.73537 4.45607 6.0963 5.12436 5.33152 5.12688C4.57157 5.1294 3.92445 4.45775 3.91881 3.65917C3.91236 2.83453 4.55384 2.16877 5.34683 2.17717ZM5.32346 4.54854C5.79893 4.55274 6.18414 4.15177 6.18576 3.65076C6.18737 3.1464 5.81263 2.75635 5.32588 2.75383C4.8359 2.75131 4.47003 3.13295 4.46922 3.64656C4.46922 4.15597 4.83671 4.54433 5.32346 4.54854Z" fill="#F3F3F5"/>
<path d="M5.34683 2.17717C6.12129 2.18558 6.7402 2.84378 6.73779 3.65497C6.73537 4.45607 6.0963 5.12436 5.33152 5.12688C4.57157 5.1294 3.92445 4.45775 3.91881 3.65917C3.91236 2.83453 4.55384 2.16877 5.34683 2.17717ZM5.32346 4.54854C5.79893 4.55274 6.18414 4.15177 6.18576 3.65076C6.18737 3.1464 5.81263 2.75635 5.32588 2.75383C4.8359 2.75131 4.47003 3.13295 4.46922 3.64656C4.46922 4.15597 4.83671 4.54433 5.32346 4.54854Z" fill="#010101"/>
</g>
<defs>
<clipPath id="clip0_1129_35697">
<rect width="16.407" height="15.9103" fill="white" transform="matrix(-1 0 0 1 16.6743 0)"/>
</clipPath>
</defs>
</svg>
