<svg width="26" height="14" viewBox="0 0 26 14" fill="none" xmlns="http://www.w3.org/2000/svg">
<g clip-path="url(#clip0_1232_5836)">
<path d="M3.89861 5.83129C3.89763 5.83794 3.89526 5.84431 3.89166 5.84998C3.88805 5.85565 3.88327 5.8605 3.87767 5.8642L3.85375 5.87916C3.59247 6.03184 3.30717 6.13908 3.01001 6.19631C2.92624 6.19631 2.84245 6.22623 2.75569 6.2352C2.25157 6.30562 1.73787 6.25117 1.25972 6.07663C1.09749 6.01629 0.942058 5.93907 0.795968 5.84625C0.612997 5.7322 0.451063 5.58747 0.317264 5.4184C0.135679 5.1929 0.0234256 4.91956 -0.00587078 4.63152C-0.0104129 4.56078 -0.0104129 4.48983 -0.00587078 4.41909C-0.00587078 4.36524 -0.00587151 4.31438 0.0120802 4.26052C0.0283589 4.14945 0.0554199 4.04022 0.0928685 3.9344C0.17662 3.69414 0.318456 3.4783 0.505758 3.30609C0.692085 3.14281 0.919856 3.0341 1.16399 2.99194C1.36298 2.95637 1.56739 2.96557 1.76238 3.01886C1.9377 3.06052 2.1033 3.13571 2.25007 3.24027C2.3867 3.3298 2.50397 3.44584 2.59493 3.58151C2.6859 3.71719 2.7487 3.86975 2.77963 4.03014V4.05408C2.78057 4.06586 2.77711 4.07758 2.76993 4.08697C2.76275 4.09636 2.75235 4.10276 2.74073 4.10494C2.73305 4.10663 2.72506 4.10612 2.71765 4.10348C2.71024 4.10083 2.70373 4.09615 2.69886 4.08998C2.54084 3.90486 2.33353 3.76836 2.10104 3.69633C1.86854 3.62431 1.62039 3.61971 1.38539 3.68307C1.27565 3.71866 1.17695 3.78198 1.09885 3.86689C1.02075 3.95181 0.9659 4.05544 0.939594 4.16777C0.910817 4.28108 0.902704 4.39865 0.915653 4.51483C0.932026 4.62624 0.980938 4.73033 1.05627 4.81403C1.42375 5.1472 1.87274 5.37737 2.35777 5.48124C2.63303 5.55603 2.91427 5.62186 3.19551 5.67571C3.41093 5.72059 3.62934 5.75649 3.84776 5.78941C3.85395 5.78804 3.86038 5.78811 3.86655 5.78959C3.87272 5.79108 3.87847 5.79395 3.88337 5.79798C3.88826 5.80201 3.89219 5.80711 3.89483 5.81288C3.89748 5.81865 3.89876 5.82495 3.89861 5.83129Z" fill="#E7B54F"/>
<g style="mix-blend-mode:multiply" opacity="0.35">
<path d="M3.89841 5.83125C3.89742 5.83789 3.89506 5.84426 3.89145 5.84993C3.88784 5.8556 3.88307 5.86045 3.87746 5.86416L3.85354 5.87911C3.59226 6.0318 3.30697 6.13904 3.00981 6.19626C2.92604 6.19626 2.84225 6.22618 2.75548 6.23516C2.55203 6.04068 3.20727 5.66968 3.20727 5.66968C3.42269 5.71456 3.6411 5.75046 3.85951 5.78337C3.8653 5.78373 3.87095 5.78527 3.87611 5.78792C3.88127 5.79057 3.88582 5.79427 3.88948 5.79877C3.89313 5.80327 3.89581 5.80848 3.89735 5.81407C3.89889 5.81966 3.89925 5.82551 3.89841 5.83125Z" fill="#E7B54F"/>
</g>
<path d="M3.31205 7.0699C3.48455 7.54888 3.55982 8.05745 3.53345 8.56587C3.5155 8.82916 3.48858 9.08647 3.46464 9.29291C3.42899 9.61021 3.34735 9.92064 3.2223 10.2144C3.13017 10.4193 3.05219 10.6302 2.98892 10.8457C2.96203 10.9558 2.96203 11.0707 2.98892 11.1808C3.03932 11.669 3.19225 12.1411 3.43771 12.5661L3.48557 12.617C3.52801 12.6578 3.57775 12.6903 3.63219 12.7127C3.87509 12.8102 4.14358 12.8239 4.39513 12.7516C4.84692 12.4704 4.61953 12.0455 3.91344 12.1323C3.80207 11.8869 3.72166 11.6286 3.67407 11.3633C3.65533 11.2767 3.65955 11.1867 3.68632 11.1022C3.71308 11.0177 3.76146 10.9417 3.82666 10.8816L4.30538 10.4538C5.01308 9.87968 5.53385 9.10789 5.80135 8.23676C5.80135 8.23676 2.96798 6.04965 3.31205 7.0699Z" fill="#E59A51"/>
<path d="M13.0601 12.0694C12.5604 11.9071 12.0465 11.7919 11.5253 11.7254C11.2651 11.6669 11.0122 11.5796 10.7713 11.4651C10.7713 11.4142 11.2829 10.1127 11.3697 9.96909C11.4955 9.72827 11.5356 9.45182 11.4834 9.18519C11.3607 8.52696 9.08984 9.68485 9.08984 9.68485C9.12276 9.86436 9.15567 10.0289 9.18259 10.1995C9.20952 10.37 9.48179 11.9527 9.48179 11.9527C9.49529 12.0198 9.52385 12.0829 9.56532 12.1374C9.60678 12.1918 9.66006 12.2361 9.72114 12.2669C9.89733 12.3455 10.0854 12.394 10.2776 12.4105C10.4362 12.4255 11.271 12.4105 11.5313 12.4494C11.7916 12.4883 12.0489 12.5092 12.2972 12.5272C12.4551 12.5474 12.615 12.5474 12.7729 12.5272C12.8591 12.5998 12.9635 12.6474 13.0748 12.6648C13.1861 12.6822 13.3 12.6687 13.4042 12.6259C13.5179 12.5481 13.5508 12.3866 13.0601 12.0694Z" fill="#E59A51"/>
<path d="M11.9831 5.15205C11.9803 5.14564 11.9757 5.14019 11.9698 5.13636C11.964 5.13253 11.9571 5.13049 11.9501 5.13049C11.9432 5.13049 11.9363 5.13253 11.9305 5.13636C11.9246 5.14019 11.92 5.14564 11.9172 5.15205C11.8394 5.5021 11.618 6.58818 11.7108 6.83053C11.8245 7.12972 12.5186 6.49543 12.5186 6.49543L11.9831 5.15205Z" fill="#E59A51"/>
<path d="M14.6096 7.43492C14.602 7.44351 14.5929 7.45061 14.5827 7.45587C14.4682 7.55214 14.3295 7.61525 14.1818 7.63837L13.6642 7.68625L13.9634 7.78199C14.2296 7.84781 14.4271 7.8508 14.3942 8.0004C14.3403 8.21881 14.0741 8.23078 13.9663 8.21881H13.5026C13.2593 8.21806 13.0241 8.3064 12.8414 8.46714C12.7342 8.55158 12.6342 8.64464 12.5422 8.74539L12.1143 9.27497L11.5548 9.98406C11.4605 10.089 11.3606 10.1889 11.2556 10.2833C10.9705 10.6075 10.6006 10.8458 10.1875 10.9714C10.0521 10.9937 9.91449 10.9997 9.77763 10.9894C9.33993 11.0337 8.89886 11.0337 8.46116 10.9894C8.10928 10.9381 7.7628 10.855 7.42596 10.741C6.90229 10.5139 6.46434 10.1262 6.17533 9.63401C6.04451 9.40007 5.88686 9.18218 5.70559 8.98475C5.53206 8.79925 5.38247 8.62572 5.23885 8.46116C4.96947 9.32973 4.44893 10.0991 3.74288 10.6722C3.74288 10.6722 3.47659 10.9086 3.26416 11.103C3.19896 11.1631 3.15058 11.2391 3.12382 11.3236C3.09705 11.4081 3.09283 11.4981 3.11157 11.5848C3.15861 11.8498 3.23801 12.108 3.34794 12.3537C3.8087 12.2968 4.066 12.4554 4.066 12.6529C4.05753 12.7221 4.03169 12.788 3.99089 12.8445C3.95008 12.901 3.89564 12.9462 3.83263 12.976C3.58073 13.0452 3.31325 13.0316 3.06969 12.9371C3.01608 12.9131 2.9666 12.8808 2.92309 12.8414L2.87521 12.7905C2.62848 12.3617 2.47552 11.8855 2.42642 11.3933C2.39953 11.2832 2.39953 11.1682 2.42642 11.0582C2.49236 10.8435 2.57028 10.6328 2.6598 10.4269C2.78467 10.1328 2.86725 9.82256 2.90512 9.50534C2.92906 9.30189 2.956 9.0416 2.97395 8.7813C3.00056 8.27287 2.92528 7.76425 2.75255 7.28533C2.40548 6.26208 3.49156 5.30466 4.52976 5.34355C4.81655 5.34231 5.10288 5.36634 5.38545 5.41536C5.59301 5.47189 5.79368 5.55116 5.98384 5.65172C6.27377 5.80609 6.54915 5.98634 6.80663 6.19027C7.24944 6.52836 7.59051 6.80661 7.91962 7.01006C8.48016 7.23012 9.08013 7.33198 9.68188 7.30926C9.75967 7.29131 9.83747 7.26738 9.91227 7.24344C10.4234 7.06387 10.8833 6.76306 11.2527 6.3668C11.363 6.25132 11.4974 6.16146 11.6463 6.10356C11.7952 6.04567 11.9549 6.02113 12.1143 6.0317C12.1802 6.0317 12.246 6.0317 12.3088 6.0317C12.554 6.04329 12.7938 6.10758 13.0119 6.22019C13.0964 6.26715 13.1683 6.33388 13.2214 6.41467C13.2573 6.46852 13.2992 6.52238 13.338 6.57923C13.3863 6.64817 13.4556 6.69961 13.5355 6.72583L14.451 7.02502H14.475C14.5293 7.00717 14.5886 7.01164 14.6396 7.03745C14.6907 7.06326 14.7294 7.1083 14.7472 7.16266C14.7651 7.21701 14.7606 7.27623 14.7348 7.32729C14.709 7.37835 14.664 7.41707 14.6096 7.43492Z" fill="#E7B54F"/>
<g style="mix-blend-mode:multiply" opacity="0.35">
<path d="M11.2707 10.3012C10.9856 10.6254 10.6157 10.8637 10.2026 10.9893C10.0671 11.0116 9.92954 11.0177 9.79268 11.0073C9.35498 11.0516 8.91393 11.0516 8.47624 11.0073C8.12436 10.956 7.77785 10.8729 7.44102 10.7589C6.91734 10.5318 6.47939 10.1442 6.19039 9.65193C6.05956 9.418 5.90192 9.20011 5.72065 9.00268C5.54712 8.81717 5.39752 8.64364 5.25391 8.47908C5.29947 8.31393 5.33444 8.14605 5.35862 7.97644C5.47829 8.01833 6.2951 9.17321 7.45298 9.79554C8.82329 10.5465 11.2707 10.3012 11.2707 10.3012Z" fill="#E7B54F"/>
</g>
<g style="mix-blend-mode:multiply" opacity="0.35">
<path d="M12.3477 6.06764C11.863 6.17236 11.7882 6.46258 11.3245 6.8635C10.9019 7.09768 10.4331 7.23656 9.95117 7.2704C10.4623 7.09083 10.9222 6.79002 11.2916 6.39376C11.4019 6.27828 11.5363 6.18843 11.6852 6.13053C11.8341 6.07263 11.9938 6.0481 12.1532 6.05867C12.2191 6.05867 12.2759 6.06166 12.3477 6.06764Z" fill="#E7B54F"/>
</g>
<path d="M12.4348 12.1651C12.354 12.1412 11.2948 11.8929 11.0405 11.866C10.7557 11.811 10.4756 11.734 10.2028 11.6356C10.2028 11.5847 10.7114 10.2802 10.7832 10.1396C10.91 9.89914 10.9512 9.62267 10.8999 9.35571C10.7772 8.69449 8.50635 9.85537 8.50635 9.85537C8.53926 10.0319 8.57217 10.1994 8.5991 10.37C8.62602 10.5405 8.89829 12.1203 8.89829 12.1203C8.91109 12.1904 8.94062 12.2564 8.98438 12.3126C9.02813 12.3689 9.08482 12.4137 9.14962 12.4434C9.32533 12.5234 9.51366 12.572 9.70612 12.587C9.86469 12.605 10.6994 12.602 10.9597 12.6289C11.22 12.6558 11.588 12.6828 11.9261 12.7037C12.0285 12.7111 12.1293 12.7333 12.2253 12.7695C12.707 12.949 13.0391 12.964 13.0122 12.7695C12.9793 12.4973 12.8626 12.2908 12.4348 12.1651Z" fill="#E7B54F"/>
<path d="M11.5759 5.25382C11.5735 5.24497 11.5682 5.23716 11.5609 5.2316C11.5536 5.22604 11.5447 5.22302 11.5355 5.22302C11.5263 5.22302 11.5174 5.22604 11.5101 5.2316C11.5028 5.23716 11.4976 5.24497 11.4951 5.25382C11.4143 5.62482 11.1959 6.66901 11.2947 6.90537C11.3934 7.14173 11.8422 6.78868 12.0247 6.63609C12.0474 6.61737 12.0637 6.592 12.0712 6.56355C12.0787 6.5351 12.0771 6.50501 12.0666 6.47752L11.5759 5.25382Z" fill="#E7B54F"/>
<g style="mix-blend-mode:multiply" opacity="0.35">
<path d="M14.3732 8.01538C14.3194 8.23379 14.0531 8.24576 13.9454 8.2338H13.4817C13.2383 8.23305 13.0031 8.32138 12.8204 8.48213C12.7133 8.56656 12.6132 8.65962 12.5212 8.76038L12.1143 9.27499C12.1129 9.26909 12.1129 9.26294 12.1143 9.25704C12.2938 8.7514 12.3896 8.06026 13.2483 8.09317C14.2087 8.14105 14.3523 8.0453 14.3732 8.01538Z" fill="#E7B54F"/>
</g>
<g style="mix-blend-mode:multiply" opacity="0.35">
<path d="M10.2028 11.6356C10.2028 11.6356 9.78089 11.6805 9.69712 11.7912C9.61334 11.9019 10.2028 11.6356 10.2028 11.6356Z" fill="#E7B54F"/>
</g>
<g style="mix-blend-mode:multiply">
<path d="M11.558 5.41842C11.558 5.41842 11.4144 6.24719 11.558 6.54339C11.6717 6.77975 11.6717 6.73787 11.6717 6.73787C11.6717 6.73787 11.8901 6.59126 11.92 6.5045C11.9499 6.41773 11.5759 5.29575 11.558 5.41842Z" fill="#E7B54F"/>
</g>
<path d="M13.1917 6.71985C13.1879 6.75213 13.1718 6.7817 13.1467 6.80234C13.1216 6.82298 13.0895 6.83309 13.0571 6.83055C13.0243 6.83315 12.9918 6.82313 12.9663 6.80255C12.9407 6.78197 12.9239 6.75238 12.9194 6.71985C12.9239 6.68755 12.9408 6.65825 12.9665 6.63815C12.9921 6.61805 13.0246 6.60873 13.0571 6.61214C13.0892 6.60877 13.1213 6.61819 13.1465 6.63835C13.1717 6.65851 13.1879 6.6878 13.1917 6.71985Z" fill="#132541"/>
<path d="M14.6098 7.43491C14.4871 7.43491 14.4751 7.30625 14.4452 7.21649C14.4376 7.1866 14.4402 7.15501 14.4527 7.1268C14.4652 7.09858 14.4868 7.07538 14.514 7.06091C14.554 7.06819 14.591 7.08679 14.6208 7.11449C14.6505 7.1422 14.6717 7.17785 14.6817 7.21722C14.6918 7.25659 14.6904 7.29803 14.6776 7.33661C14.6649 7.37519 14.6413 7.40931 14.6098 7.43491Z" fill="#132541"/>
<path d="M13.6584 7.68921C13.6584 7.68921 13.5507 7.86274 13.9576 7.94053C14.3645 8.01832 14.3914 7.90463 14.2987 7.87471C14.2059 7.84479 13.6584 7.68921 13.6584 7.68921Z" fill="#D86F70"/>
<g style="mix-blend-mode:multiply" opacity="0.35">
<path d="M14.6037 7.43787C14.5961 7.44645 14.5869 7.45355 14.5767 7.45881C14.4622 7.55508 14.3236 7.6182 14.1758 7.64132L13.6582 7.68919C13.7553 7.65125 13.8554 7.62123 13.9574 7.59943C14.1775 7.56644 14.3939 7.51234 14.6037 7.43787Z" fill="#E7B54F"/>
</g>
<path d="M19.801 8.61074C19.801 8.61074 19.7801 8.67656 19.9117 8.80521C20.0434 8.93387 20.2289 9.24802 20.3665 9.21511C20.4682 9.07748 20.1301 8.61672 20.1301 8.61672C20.0537 8.58637 19.9729 8.56819 19.8908 8.56287L19.801 8.61074Z" fill="#5B124B"/>
<path d="M19.8935 8.62868C19.8572 8.72431 19.8023 8.81177 19.7319 8.88599C19.6511 8.94284 19.0916 9.1074 19.0019 9.14928C18.892 9.25836 18.8073 9.39007 18.7535 9.53524C18.7535 9.57115 18.7236 9.64595 18.7535 9.66689C18.7835 9.68783 19.4177 9.36769 19.684 9.34675C19.8551 9.34656 20.022 9.29439 20.1627 9.19716C20.2099 9.12978 20.264 9.06759 20.3243 9.01165C20.3243 9.01165 20.1388 8.50602 19.8935 8.62868Z" fill="#F4AE8C"/>
<path d="M20.0941 8.26672C19.9859 8.37375 19.8859 8.48876 19.7949 8.6108C19.8428 8.53899 20.4591 9.00872 20.3604 9.20918C20.875 8.82322 20.0941 8.26672 20.0941 8.26672Z" fill="#D86F70"/>
<path d="M16.8386 6.23212C16.7081 6.22217 16.5783 6.20519 16.4497 6.18126C16.3001 6.14835 15.597 5.81325 15.5311 5.83419C15.3707 5.99581 15.2481 6.19098 15.1721 6.40566C15.1482 6.51935 15.3845 6.68092 15.5222 6.75272C15.8423 6.92626 15.9111 6.76768 15.9111 6.76768C16.0532 6.79694 16.1998 6.79694 16.342 6.76768C16.4407 6.70784 16.8386 6.86941 16.8386 6.86941V6.23212Z" fill="#F4AE8C"/>
<path d="M15.5884 6.20823L15.3909 6.02871L15.2892 5.94494L15.2443 5.91202C15.2264 5.91202 15.2443 5.91202 15.2234 5.91202C15.1486 5.89706 15.0528 5.8851 14.9631 5.87313L14.6908 5.8462C14.6724 5.84261 14.6558 5.83274 14.6439 5.81828C14.632 5.80381 14.6255 5.78565 14.6255 5.76692C14.6255 5.74818 14.632 5.73002 14.6439 5.71555C14.6558 5.70109 14.6724 5.69122 14.6908 5.68763L14.969 5.66968C15.0618 5.66968 15.1515 5.66968 15.2682 5.66968C15.3067 5.67242 15.3443 5.68258 15.3789 5.6996L15.4508 5.73849L15.5764 5.81329L15.8128 5.97187C15.8488 5.9977 15.8732 6.03677 15.8804 6.08051C15.8877 6.12426 15.8774 6.16911 15.8517 6.20524C15.8392 6.22299 15.8232 6.23809 15.8049 6.24966C15.7865 6.26123 15.766 6.26905 15.7446 6.27266C15.7232 6.27628 15.7012 6.27562 15.6801 6.27072C15.6589 6.26583 15.6389 6.25679 15.6213 6.24413C15.6134 6.24115 15.6063 6.23635 15.6005 6.23011C15.5948 6.22388 15.5907 6.21638 15.5884 6.20823Z" fill="#F4AE8C"/>
<path d="M23.2177 2.31571C23.2177 3.27912 22.2184 3.81169 21.2789 3.81169C20.3394 3.81169 20.0821 2.47429 19.2922 1.89983C18.7597 1.5049 19.5465 0.317092 20.7373 0.0508089C22.1256 -0.272321 23.2177 1.34932 23.2177 2.31571Z" fill="#132541"/>
<path d="M22.8045 10.9954C23.235 11.066 23.6746 11.0599 24.103 10.9774C24.2037 10.9566 24.3085 10.9747 24.3964 11.028C24.4844 11.0813 24.5488 11.166 24.5769 11.2649C24.6049 11.3638 24.5945 11.4697 24.5476 11.5612C24.5008 11.6528 24.421 11.7232 24.3244 11.7583C23.8089 11.9302 23.2668 12.0082 22.7237 11.9887C22.6585 11.9887 22.5939 11.9759 22.5337 11.9509C22.4734 11.9259 22.4186 11.8894 22.3725 11.8432C22.3264 11.7971 22.2898 11.7424 22.2649 11.6821C22.2399 11.6218 22.2271 11.5573 22.2271 11.492C22.2271 11.4268 22.2399 11.3622 22.2649 11.302C22.2898 11.2417 22.3264 11.187 22.3725 11.1408C22.4186 11.0947 22.4734 11.0581 22.5337 11.0332C22.5939 11.0082 22.6585 10.9954 22.7237 10.9954H22.8045Z" fill="#F4AE8C"/>
<path d="M24.9799 10.9744C24.7543 10.8842 24.5195 10.819 24.2798 10.7799C24.0845 10.7531 23.8858 10.7673 23.6964 10.8218C23.5985 11.0715 23.5399 11.335 23.5228 11.6027C23.6089 11.6823 23.6674 11.7872 23.69 11.9023C23.7126 12.0174 23.6981 12.1367 23.6485 12.2429C23.6365 12.2746 23.6181 12.3035 23.5944 12.3277C23.5707 12.3519 23.5423 12.3709 23.5109 12.3836L23.4271 12.4195C23.1279 12.5362 22.9783 12.584 22.9005 12.6917C22.8555 12.744 22.832 12.8113 22.8347 12.8802C22.8416 12.915 22.8563 12.9479 22.8775 12.9763C22.8987 13.0048 22.926 13.0282 22.9573 13.0448C23.1357 13.1613 23.3428 13.2266 23.5557 13.2333C23.7628 13.2283 23.969 13.2053 24.1721 13.1645C24.3933 13.0813 24.5964 12.9564 24.7705 12.7965C24.8687 12.6681 24.9455 12.5246 24.9979 12.3716C25.0199 12.3076 25.0545 12.2486 25.0996 12.1981C25.2502 11.9843 25.3523 11.7403 25.3988 11.483C25.5005 11.2646 25.2791 11.094 24.9799 10.9744Z" fill="#605B55"/>
<path d="M25.4227 11.4831C25.3762 11.7404 25.2741 11.9844 25.1235 12.1981C25.0785 12.2493 25.0431 12.308 25.0188 12.3717C24.9674 12.5244 24.8916 12.6679 24.7944 12.7965C24.6203 12.9564 24.4172 13.0814 24.196 13.1645C23.7472 13.2333 23.4061 13.3171 22.9693 13.0449C22.9379 13.0286 22.9108 13.0053 22.89 12.9767C22.8692 12.9481 22.8554 12.9151 22.8496 12.8803C23.301 12.9796 23.7685 12.9796 24.2199 12.8803C24.567 12.7816 24.6149 12.5183 24.8183 12.0545C24.9457 11.7083 25.0017 11.3399 24.9829 10.9714C25.2791 11.0941 25.5035 11.2646 25.4227 11.4831Z" fill="#EBE9DC"/>
<g style="mix-blend-mode:multiply">
<path d="M23.6547 13.1316C23.6406 13.1749 23.6107 13.2113 23.5709 13.2334C23.3579 13.2266 23.1509 13.1614 22.9725 13.0449C22.9411 13.0283 22.9138 13.0049 22.8926 12.9764C22.8714 12.9479 22.8568 12.9151 22.8498 12.8803C22.8471 12.8114 22.8706 12.7441 22.9156 12.6918C22.9934 12.5841 23.155 12.5362 23.4422 12.4196C23.5462 12.5022 23.6224 12.6149 23.6604 12.7422C23.6984 12.8695 23.6964 13.0055 23.6547 13.1316Z" fill="#EBE9DC"/>
</g>
<path d="M24.5521 9.06847C22.6104 9.16122 20.4472 8.75431 18.5503 9.76858C18.4764 9.83106 18.4074 9.89907 18.3439 9.97203C18.3139 10.0049 18.29 10.0408 18.2631 10.0768C17.7874 10.6512 18.0985 11.9437 19.0769 11.9198C19.9206 11.7493 22.1406 12.3596 23.137 12.0335C23.3763 11.9527 23.2865 11.6715 23.6067 11.6116C26.0631 12.231 26.6345 9.38262 24.5521 9.06847Z" fill="#E59A51"/>
<g style="mix-blend-mode:multiply" opacity="0.51">
<path d="M19.75 10.5286C19.75 10.5286 22.9334 10.9355 23.46 11.0103C23.9866 11.0851 23.3912 10.1127 23.3912 10.1127C23.3912 10.1127 20.8899 10.5016 19.75 10.5286Z" fill="#E59A51"/>
</g>
<path d="M22.4545 1.8908C22.4545 2.76445 21.2787 4.11381 20.405 4.11381C19.9054 4.11381 19.292 2.76445 19.292 1.8908C19.2827 1.67736 19.3168 1.46425 19.392 1.26431C19.4673 1.06437 19.5823 0.881741 19.73 0.727426C19.8778 0.573111 20.0552 0.450305 20.2517 0.366407C20.4482 0.28251 20.6596 0.239258 20.8733 0.239258C21.0869 0.239258 21.2983 0.28251 21.4948 0.366407C21.6913 0.450305 21.8687 0.573111 22.0165 0.727426C22.1642 0.881741 22.2792 1.06437 22.3545 1.26431C22.4298 1.46425 22.4638 1.67736 22.4545 1.8908Z" fill="#F4AE8C"/>
<path d="M21.9879 4.53271C21.8921 4.53279 21.7973 4.51378 21.7089 4.47679C21.6205 4.43981 21.5404 4.38558 21.4733 4.31729C20.6355 3.47955 20.4141 1.90579 20.3932 1.72926C20.3784 1.63289 20.3831 1.53454 20.407 1.44001C20.4309 1.34548 20.4735 1.2567 20.5322 1.17889C20.591 1.10109 20.6647 1.03584 20.7491 0.987C20.8335 0.93816 20.9268 0.906716 21.0235 0.894525C21.1202 0.882333 21.2184 0.889638 21.3123 0.916014C21.4062 0.94239 21.4938 0.9873 21.57 1.04809C21.6462 1.10889 21.7095 1.18433 21.7561 1.26998C21.8027 1.35562 21.8316 1.44973 21.8413 1.54675C21.9041 2.02247 22.1405 2.91706 22.5055 3.28507C22.6067 3.38773 22.6754 3.51796 22.703 3.65945C22.7306 3.80095 22.7158 3.94744 22.6606 4.0806C22.6053 4.21375 22.512 4.32766 22.3924 4.40808C22.2727 4.4885 22.132 4.53185 21.9879 4.53271Z" fill="#F4AE8C"/>
<path d="M22.4336 11.0373L22.8555 11.8391C23.041 12.1862 21.2698 11.878 21.2578 11.8092L21.3595 11.4113C21.333 11.2756 21.3563 11.1348 21.4252 11.0149C21.494 10.895 21.6038 10.804 21.7344 10.7585C21.865 10.713 22.0076 10.7162 22.1361 10.7674C22.2645 10.8186 22.3702 10.9144 22.4336 11.0373Z" fill="#F4AE8C"/>
<path d="M22.8288 13.2633C22.2663 13.2812 21.8414 13.2633 21.3777 13.2633C21.1838 13.2824 20.9911 13.3114 20.8002 13.3501H20.7583L19.8967 13.386C19.8563 13.3854 19.8162 13.3804 19.777 13.371C19.6518 13.3393 19.5343 13.2827 19.4314 13.2046C19.3286 13.1264 19.2426 13.0284 19.1786 12.9162C19.1557 12.8778 19.1436 12.8338 19.1436 12.7891C19.1436 12.7443 19.1557 12.7004 19.1786 12.6619C19.2773 12.5243 19.8578 12.2939 20.3006 12.1503C20.6298 12.0642 20.9362 11.9069 21.1981 11.6895C21.3238 11.5878 21.4495 11.8511 21.5811 11.875C21.7857 11.9072 21.995 11.8885 22.1907 11.8207C22.3863 11.7529 22.5623 11.638 22.7031 11.4861C22.945 11.7401 23.0883 12.0722 23.107 12.4226C23.107 12.4944 23.107 12.5722 23.122 12.6499C23.1459 12.9611 23.11 13.2783 22.8288 13.2633Z" fill="#605B55"/>
<path d="M21.4404 11.5069C21.4083 11.4982 21.3782 11.4832 21.352 11.4626C21.3258 11.442 21.304 11.4164 21.2879 11.3872C20.866 10.37 19.7739 7.5785 19.5974 7.04593C19.5077 6.77965 19.2982 6.01371 19.2982 6.01371C19.2803 5.9449 19.1756 5.29564 19.1696 5.17896C19.1624 4.99168 19.2171 4.80726 19.3253 4.6542C19.4334 4.50115 19.589 4.388 19.768 4.33224C19.8427 4.30884 19.9201 4.29477 19.9983 4.29035C20.1645 4.28685 20.3281 4.33199 20.469 4.42023C20.6098 4.50847 20.7218 4.63596 20.7912 4.78701C20.8015 4.80169 20.8096 4.81782 20.8151 4.83489C20.8151 4.83489 21.5332 7.59944 21.6768 8.12603C21.976 9.17021 22.2752 10.2204 22.5894 11.2556C22.6642 11.5219 21.8085 11.6386 21.4404 11.5069Z" fill="#E7B54F"/>
<g style="mix-blend-mode:multiply" opacity="0.44">
<path d="M21.4404 11.507C21.9521 10.8577 21.3118 9.3049 20.872 8.42228C20.4561 7.58454 19.9086 5.08626 19.75 4.33229C19.8248 4.3089 19.9021 4.29483 19.9804 4.29041L20.7912 4.78707C20.8015 4.80174 20.8096 4.81788 20.8151 4.83494C20.8151 4.83494 21.5332 7.5995 21.6768 8.12608C21.976 9.17027 22.2752 10.2204 22.5894 11.2557C22.6642 11.5219 21.8084 11.6386 21.4404 11.507Z" fill="#E7B54F"/>
</g>
<path d="M25.7041 11.0911C25.2044 11.9707 23.6935 12.3118 22.9665 11.3663C21.7129 9.65493 20.8093 7.51868 19.7112 5.62179C19.7251 5.62445 19.7393 5.62445 19.7531 5.62179C19.6629 5.57667 19.5829 5.51349 19.5181 5.43615C19.4533 5.35881 19.405 5.26897 19.3764 5.17222C19.3478 5.07546 19.3394 4.97386 19.3517 4.87371C19.364 4.77357 19.3968 4.67702 19.4479 4.59006C19.4991 4.50311 19.5676 4.42761 19.6492 4.36825C19.7308 4.30889 19.8237 4.26695 19.9222 4.24502C20.0207 4.22308 20.1227 4.22163 20.2217 4.24076C20.3208 4.25989 20.4149 4.29918 20.4981 4.3562C22.5684 5.96314 24.3622 7.89747 25.8088 10.0828C25.8097 10.0987 25.8097 10.1147 25.8088 10.1306C25.8556 10.2897 25.8704 10.4565 25.8525 10.6213C25.8345 10.7862 25.7841 10.9458 25.7041 11.0911Z" fill="#E7B54F"/>
<g style="mix-blend-mode:multiply" opacity="0.44">
<path d="M25.7037 11.0911C25.2549 11.1181 24.6984 10.7112 24.2735 10.1756C23.7792 9.46337 23.3458 8.71072 22.978 7.92566C22.978 7.92566 24.9677 9.22716 25.8204 10.1277C25.8658 10.288 25.8788 10.4558 25.8588 10.6212C25.8387 10.7865 25.786 10.9463 25.7037 11.0911Z" fill="#E7B54F"/>
</g>
<path d="M25.8777 10.5975C25.7311 11.127 24.5073 9.98112 23.6666 8.99377C23.2029 8.44027 22.8558 7.94061 22.8857 7.797C22.8421 7.48194 22.77 7.1715 22.6703 6.8695C22.6192 6.72825 22.5592 6.59035 22.4908 6.45661C22.2893 6.05359 21.9861 5.71016 21.6111 5.46029C21.0786 5.09527 20.9709 4.61058 21.2371 4.18572C21.4556 3.82669 21.9343 3.50954 22.6464 3.32703C23.0263 3.2283 23.6397 3.62623 23.7564 3.71299C24.9113 4.51783 25.5515 5.64878 25.8747 7.06098C25.9345 7.29734 26.126 9.65201 25.8777 10.5975Z" fill="#D86F70"/>
<path d="M22.8289 13.2632C22.2664 13.2812 21.8416 13.2632 21.3778 13.2632C21.184 13.2823 20.9912 13.3113 20.8004 13.35H20.7585L19.8968 13.3859C19.8565 13.3854 19.8163 13.3803 19.7771 13.371C19.6519 13.3393 19.5344 13.2827 19.4316 13.2045C19.3288 13.1264 19.2428 13.0283 19.1787 12.9162L19.3343 12.994C19.8758 13.2603 20.9739 12.7845 21.7039 12.8264C22.1839 12.8417 22.6634 12.7821 23.1251 12.6499C23.146 12.9611 23.1101 13.2782 22.8289 13.2632Z" fill="#EBE9DC"/>
<g style="mix-blend-mode:multiply" opacity="0.51">
<path d="M19.0767 11.2616C19.0767 11.2616 19.675 11.0103 19.7498 10.6632C19.8246 10.3162 19.0767 11.2616 19.0767 11.2616Z" fill="#E59A51"/>
</g>
<g style="mix-blend-mode:multiply" opacity="0.51">
<path d="M18.8672 10.5974C18.8672 10.5974 19.6212 10.1785 19.7498 10.5286C19.4539 10.5158 19.1575 10.5389 18.8672 10.5974Z" fill="#E59A51"/>
</g>
<g style="mix-blend-mode:multiply" opacity="0.51">
<path d="M18.7686 11.0103C18.7686 11.0103 19.5255 10.412 19.7499 10.5286C19.2951 10.771 18.7686 11.0103 18.7686 11.0103Z" fill="#E59A51"/>
</g>
<g style="mix-blend-mode:multiply" opacity="0.44">
<path d="M23.3405 8.37737C23.3046 8.30557 23.2657 8.22478 23.2268 8.13802C23.7624 8.34147 24.9083 8.29061 24.2171 8.16195C23.7837 8.08365 23.3742 7.90653 23.0204 7.64435C22.8152 7.12804 22.6696 6.59 22.5865 6.04066C22.5506 5.82225 22.2424 5.72352 22.3172 5.51408C22.45 5.12994 22.49 4.71985 22.4339 4.3173L21.2371 4.21558C20.9709 4.64043 21.0786 5.11316 21.6111 5.49015C21.9861 5.74002 22.2893 6.08345 22.4908 6.48646C22.5592 6.6202 22.6192 6.7581 22.6703 6.89935C22.77 7.20136 22.8421 7.5118 22.8857 7.82686C22.8558 7.96448 23.2029 8.46414 23.6666 9.02363C23.6403 8.93415 23.602 8.84861 23.5529 8.76932C23.502 8.68554 23.4332 8.55988 23.3525 8.39532C23.3757 8.43411 23.4087 8.4661 23.4482 8.48807C23.3734 8.39831 23.3405 8.37737 23.3405 8.37737Z" fill="#D86F70"/>
</g>
<g style="mix-blend-mode:multiply" opacity="0.44">
<path d="M23.436 8.4552C23.7444 8.75865 24.1306 8.97092 24.552 9.06855C25.0966 9.14036 23.813 8.71849 23.436 8.4552Z" fill="#D86F70"/>
</g>
<path d="M21.2162 4.18863C21.2162 4.18863 20.1092 5.58586 19.9476 5.75341C19.8051 5.90761 19.6499 6.04972 19.4839 6.17827L19.3792 6.22913C19.3792 6.22913 18.6222 6.17528 18.3559 6.16929C17.8293 6.16929 17.3117 6.16929 16.7881 6.16929C16.5877 6.16929 16.6744 6.91429 16.6744 6.91429C17.1352 6.99806 17.7515 7.15365 18.2482 7.2434C18.4965 7.29127 19.3851 7.50071 19.445 7.5037C19.5906 7.50699 19.7356 7.48367 19.8728 7.43489C20.2317 7.25075 20.5767 7.04076 20.9051 6.80658C21.1235 6.63304 21.8026 5.89403 21.8026 5.86711C23.2328 4.18863 21.8864 3.20727 21.2162 4.18863Z" fill="#D86F70"/>
<g style="mix-blend-mode:multiply" opacity="0.44">
<path d="M19.3789 6.23218C19.3789 6.23218 19.9055 6.63908 19.7499 6.83057C19.5943 7.02205 19.3789 6.23218 19.3789 6.23218Z" fill="#D86F70"/>
</g>
<path d="M19.2951 1.89082C19.6122 2.01881 19.9605 2.04802 20.2945 1.9746C20.4307 1.93949 20.575 1.95354 20.702 2.01428C20.8289 2.07502 20.9304 2.17856 20.9886 2.3067C21.2638 2.90509 21.0095 3.97621 21.0395 4.40107C21.0813 4.9845 22.2153 3.70992 22.6371 3.31798C23.059 2.92603 23.08 1.02615 21.94 0.460671C20.7313 -0.12575 18.9361 0.613264 19.2951 1.89082Z" fill="#132541"/>
<path d="M21.3564 2.47132C21.3235 2.71666 21.153 2.8902 20.9974 2.86327C20.8418 2.83634 20.9735 2.58502 20.8628 2.38456C20.8352 2.33841 20.8219 2.28513 20.8246 2.23144C20.8272 2.17775 20.8457 2.12606 20.8777 2.08286C20.9097 2.03967 20.9538 2.00691 21.0044 1.98872C21.0549 1.97053 21.1098 1.96772 21.1619 1.98064C21.4163 2.02552 21.3893 2.28582 21.3564 2.47132Z" fill="#F4AE8C"/>
</g>
<defs>
<clipPath id="clip0_1232_5836">
<rect width="26" height="13.386" fill="white"/>
</clipPath>
</defs>
</svg>
