<svg width="13" height="23" viewBox="0 0 13 23" fill="none" xmlns="http://www.w3.org/2000/svg">
<path d="M6.5257 19.0987C5.97954 19.0856 5.53733 19.4981 5.52147 20.0365C5.50562 20.5968 5.94078 21.0504 6.49751 21.0522C7.03662 21.0539 7.47266 20.6248 7.47971 20.0863C7.48588 19.5409 7.07097 19.1109 6.5257 19.0987ZM6.50544 20.3835C6.31604 20.3888 6.19888 20.2769 6.18039 20.1047C6.15924 19.908 6.27376 19.7726 6.47461 19.7516C6.68514 19.7306 6.78116 19.8713 6.83225 20.0479C6.80494 20.2445 6.71685 20.3774 6.50544 20.3835Z" fill="#F7F9FA"/>
<path d="M5.18673 1.31893C4.97884 1.31456 4.85904 1.44741 4.85728 1.64058C4.85552 1.81189 4.96387 1.93775 5.15238 1.94999C5.36027 1.96397 5.46774 1.8451 5.51002 1.64844C5.48536 1.4614 5.39286 1.3233 5.18673 1.31893ZM7.81974 1.31631C7.38369 1.30757 6.94677 1.30844 6.50984 1.31543C6.30459 1.31805 6.17774 1.44654 6.17951 1.64232C6.18127 1.84423 6.32397 1.95261 6.52394 1.96135C6.72742 1.97009 6.93091 1.9631 7.13528 1.9631V1.95698C7.36784 1.95698 7.6004 1.96572 7.83295 1.95436C8.01794 1.94562 8.13774 1.82849 8.14215 1.65019C8.14655 1.45353 8.02499 1.32068 7.81974 1.31631ZM7.81974 1.31631C7.38369 1.30757 6.94677 1.30844 6.50984 1.31543C6.30459 1.31805 6.17774 1.44654 6.17951 1.64232C6.18127 1.84423 6.32397 1.95261 6.52394 1.96135C6.72742 1.97009 6.93091 1.9631 7.13528 1.9631V1.95698C7.36784 1.95698 7.6004 1.96572 7.83295 1.95436C8.01794 1.94562 8.13774 1.82849 8.14215 1.65019C8.14655 1.45353 8.02499 1.32068 7.81974 1.31631ZM5.18673 1.31893C4.97884 1.31456 4.85904 1.44741 4.85728 1.64058C4.85552 1.81189 4.96387 1.93775 5.15238 1.94999C5.36027 1.96397 5.46774 1.8451 5.51002 1.64844C5.48536 1.4614 5.39286 1.3233 5.18673 1.31893ZM12.9994 1.90716C12.9985 0.644168 12.3493 0.00174808 11.0782 0C8.02763 0 4.97708 0 1.92741 0C0.652746 0.00174808 0.0017618 0.64242 0.0017618 1.90279C0 8.08838 0 14.2731 0 20.4587C0 21.7217 0.650103 22.3641 1.92212 22.3641C4.94272 22.3658 7.96421 22.365 10.9848 22.365C12.3793 22.365 12.9994 21.7531 12.9994 20.3756V11.207C12.9994 8.10673 13.0012 5.00738 12.9985 1.90716H12.9994ZM12.3343 18.8277C12.3035 19.4221 12.3308 20.0208 12.3238 20.6169C12.3158 21.3091 11.9688 21.7007 11.2861 21.7024C8.08841 21.7147 4.89075 21.7138 1.69397 21.7007C1.05003 21.6981 0.690625 21.3117 0.679173 20.6833C0.667721 20.0287 0.685339 19.3731 0.670364 18.7185C0.665079 18.4886 0.732908 18.4099 0.964584 18.43C1.18217 18.4484 1.40415 18.4327 1.6235 18.4318C1.83315 18.4309 1.96969 18.3164 1.97938 18.1215C1.98995 17.9222 1.85517 17.8042 1.64904 17.7867C1.57681 17.7806 1.50281 17.7797 1.4297 17.778C0.926999 17.7681 0.675649 17.5193 0.675649 17.0316C0.675649 12.5932 0.680935 8.15393 0.66596 3.71468C0.665079 3.34408 0.76462 3.26717 1.12491 3.26891C4.71809 3.2829 8.31128 3.2829 11.9045 3.26891C12.2533 3.26717 12.3352 3.36156 12.3335 3.69894C12.3185 5.98369 12.3255 8.2693 12.3255 10.554C12.3255 12.8388 12.3167 15.0947 12.3343 17.3654C12.3379 17.7212 12.226 17.7867 11.8957 17.785C9.06445 17.7728 6.23412 17.778 3.40379 17.778C3.27166 17.778 3.13952 17.7762 3.00739 17.7841C2.80654 17.7964 2.65767 17.8986 2.65943 18.1031C2.6612 18.326 2.81359 18.4335 3.03822 18.4327C3.14129 18.4327 3.24347 18.4335 3.34653 18.4335C6.20681 18.4335 9.06621 18.4396 11.9265 18.4257C12.2524 18.4239 12.3511 18.4956 12.3343 18.8277ZM11.9142 2.63174C10.1101 2.60989 8.30511 2.62212 6.50103 2.62212C4.69695 2.62212 2.89199 2.61076 1.08791 2.63174C0.728503 2.63523 0.6272 2.52336 0.673007 2.19734C0.690625 2.06886 0.674769 1.936 0.675649 1.8049C0.684458 1.01826 1.03329 0.663397 1.83491 0.658153C2.9792 0.650287 4.12349 0.655531 5.26778 0.655531C7.17492 0.655531 9.08207 0.655531 10.9892 0.656405C12.0225 0.656405 12.3247 0.957075 12.3255 1.97883C12.3255 2.05137 12.3158 2.12567 12.3273 2.19734C12.3766 2.52073 12.2753 2.63611 11.9142 2.63174ZM7.81974 1.31631C7.38369 1.30757 6.94677 1.30844 6.50984 1.31543C6.30459 1.31805 6.17774 1.44654 6.17951 1.64232C6.18127 1.84423 6.32397 1.95261 6.52394 1.96135C6.72742 1.97009 6.93091 1.9631 7.13528 1.9631V1.95698C7.36784 1.95698 7.6004 1.96572 7.83295 1.95436C8.01794 1.94562 8.13774 1.82849 8.14215 1.65019C8.14655 1.45353 8.02499 1.32068 7.81974 1.31631ZM5.18673 1.31893C4.97884 1.31456 4.85904 1.44741 4.85728 1.64058C4.85552 1.81189 4.96387 1.93775 5.15238 1.94999C5.36027 1.96397 5.46774 1.8451 5.51002 1.64844C5.48536 1.4614 5.39286 1.3233 5.18673 1.31893ZM5.18673 1.31893C4.97884 1.31456 4.85904 1.44741 4.85728 1.64058C4.85552 1.81189 4.96387 1.93775 5.15238 1.94999C5.36027 1.96397 5.46774 1.8451 5.51002 1.64844C5.48536 1.4614 5.39286 1.3233 5.18673 1.31893ZM7.81974 1.31631C7.38369 1.30757 6.94677 1.30844 6.50984 1.31543C6.30459 1.31805 6.17774 1.44654 6.17951 1.64232C6.18127 1.84423 6.32397 1.95261 6.52394 1.96135C6.72742 1.97009 6.93091 1.9631 7.13528 1.9631V1.95698C7.36784 1.95698 7.6004 1.96572 7.83295 1.95436C8.01794 1.94562 8.13774 1.82849 8.14215 1.65019C8.14655 1.45353 8.02499 1.32068 7.81974 1.31631ZM7.81974 1.31631C7.38369 1.30757 6.94677 1.30844 6.50984 1.31543C6.30459 1.31805 6.17774 1.44654 6.17951 1.64232C6.18127 1.84423 6.32397 1.95261 6.52394 1.96135C6.72742 1.97009 6.93091 1.9631 7.13528 1.9631V1.95698C7.36784 1.95698 7.6004 1.96572 7.83295 1.95436C8.01794 1.94562 8.13774 1.82849 8.14215 1.65019C8.14655 1.45353 8.02499 1.32068 7.81974 1.31631ZM5.18673 1.31893C4.97884 1.31456 4.85904 1.44741 4.85728 1.64058C4.85552 1.81189 4.96387 1.93775 5.15238 1.94999C5.36027 1.96397 5.46774 1.8451 5.51002 1.64844C5.48536 1.4614 5.39286 1.3233 5.18673 1.31893Z" fill="#F7F9FA"/>
<path d="M6.5257 19.0987C5.97954 19.0856 5.53733 19.4981 5.52147 20.0365C5.50562 20.5968 5.94078 21.0504 6.49751 21.0522C7.03662 21.0539 7.47266 20.6248 7.47971 20.0863C7.48588 19.5409 7.07097 19.1109 6.5257 19.0987ZM6.50544 20.3835C6.31604 20.3888 6.19888 20.2769 6.18039 20.1047C6.15924 19.908 6.27376 19.7726 6.47461 19.7516C6.68514 19.7306 6.78116 19.8713 6.83225 20.0479C6.80494 20.2445 6.71685 20.3774 6.50544 20.3835Z" fill="black"/>
<path d="M5.18673 1.31893C4.97884 1.31456 4.85904 1.44741 4.85728 1.64058C4.85552 1.81189 4.96387 1.93775 5.15238 1.94999C5.36027 1.96397 5.46774 1.8451 5.51002 1.64844C5.48536 1.4614 5.39286 1.3233 5.18673 1.31893ZM7.81974 1.31631C7.38369 1.30757 6.94677 1.30844 6.50984 1.31543C6.30459 1.31805 6.17774 1.44654 6.17951 1.64232C6.18127 1.84423 6.32397 1.95261 6.52394 1.96135C6.72742 1.97009 6.93091 1.9631 7.13528 1.9631V1.95698C7.36784 1.95698 7.6004 1.96572 7.83295 1.95436C8.01794 1.94562 8.13774 1.82849 8.14215 1.65019C8.14655 1.45353 8.02499 1.32068 7.81974 1.31631ZM7.81974 1.31631C7.38369 1.30757 6.94677 1.30844 6.50984 1.31543C6.30459 1.31805 6.17774 1.44654 6.17951 1.64232C6.18127 1.84423 6.32397 1.95261 6.52394 1.96135C6.72742 1.97009 6.93091 1.9631 7.13528 1.9631V1.95698C7.36784 1.95698 7.6004 1.96572 7.83295 1.95436C8.01794 1.94562 8.13774 1.82849 8.14215 1.65019C8.14655 1.45353 8.02499 1.32068 7.81974 1.31631ZM5.18673 1.31893C4.97884 1.31456 4.85904 1.44741 4.85728 1.64058C4.85552 1.81189 4.96387 1.93775 5.15238 1.94999C5.36027 1.96397 5.46774 1.8451 5.51002 1.64844C5.48536 1.4614 5.39286 1.3233 5.18673 1.31893ZM12.9994 1.90716C12.9985 0.644168 12.3493 0.00174808 11.0782 0C8.02763 0 4.97708 0 1.92741 0C0.652746 0.00174808 0.0017618 0.64242 0.0017618 1.90279C0 8.08838 0 14.2731 0 20.4587C0 21.7217 0.650103 22.3641 1.92212 22.3641C4.94272 22.3658 7.96421 22.365 10.9848 22.365C12.3793 22.365 12.9994 21.7531 12.9994 20.3756V11.207C12.9994 8.10673 13.0012 5.00738 12.9985 1.90716H12.9994ZM12.3343 18.8277C12.3035 19.4221 12.3308 20.0208 12.3238 20.6169C12.3158 21.3091 11.9688 21.7007 11.2861 21.7024C8.08841 21.7147 4.89075 21.7138 1.69397 21.7007C1.05003 21.6981 0.690625 21.3117 0.679173 20.6833C0.667721 20.0287 0.685339 19.3731 0.670364 18.7185C0.665079 18.4886 0.732908 18.4099 0.964584 18.43C1.18217 18.4484 1.40415 18.4327 1.6235 18.4318C1.83315 18.4309 1.96969 18.3164 1.97938 18.1215C1.98995 17.9222 1.85517 17.8042 1.64904 17.7867C1.57681 17.7806 1.50281 17.7797 1.4297 17.778C0.926999 17.7681 0.675649 17.5193 0.675649 17.0316C0.675649 12.5932 0.680935 8.15393 0.66596 3.71468C0.665079 3.34408 0.76462 3.26717 1.12491 3.26891C4.71809 3.2829 8.31128 3.2829 11.9045 3.26891C12.2533 3.26717 12.3352 3.36156 12.3335 3.69894C12.3185 5.98369 12.3255 8.2693 12.3255 10.554C12.3255 12.8388 12.3167 15.0947 12.3343 17.3654C12.3379 17.7212 12.226 17.7867 11.8957 17.785C9.06445 17.7728 6.23412 17.778 3.40379 17.778C3.27166 17.778 3.13952 17.7762 3.00739 17.7841C2.80654 17.7964 2.65767 17.8986 2.65943 18.1031C2.6612 18.326 2.81359 18.4335 3.03822 18.4327C3.14129 18.4327 3.24347 18.4335 3.34653 18.4335C6.20681 18.4335 9.06621 18.4396 11.9265 18.4257C12.2524 18.4239 12.3511 18.4956 12.3343 18.8277ZM11.9142 2.63174C10.1101 2.60989 8.30511 2.62212 6.50103 2.62212C4.69695 2.62212 2.89199 2.61076 1.08791 2.63174C0.728503 2.63523 0.6272 2.52336 0.673007 2.19734C0.690625 2.06886 0.674769 1.936 0.675649 1.8049C0.684458 1.01826 1.03329 0.663397 1.83491 0.658153C2.9792 0.650287 4.12349 0.655531 5.26778 0.655531C7.17492 0.655531 9.08207 0.655531 10.9892 0.656405C12.0225 0.656405 12.3247 0.957075 12.3255 1.97883C12.3255 2.05137 12.3158 2.12567 12.3273 2.19734C12.3766 2.52073 12.2753 2.63611 11.9142 2.63174ZM7.81974 1.31631C7.38369 1.30757 6.94677 1.30844 6.50984 1.31543C6.30459 1.31805 6.17774 1.44654 6.17951 1.64232C6.18127 1.84423 6.32397 1.95261 6.52394 1.96135C6.72742 1.97009 6.93091 1.9631 7.13528 1.9631V1.95698C7.36784 1.95698 7.6004 1.96572 7.83295 1.95436C8.01794 1.94562 8.13774 1.82849 8.14215 1.65019C8.14655 1.45353 8.02499 1.32068 7.81974 1.31631ZM5.18673 1.31893C4.97884 1.31456 4.85904 1.44741 4.85728 1.64058C4.85552 1.81189 4.96387 1.93775 5.15238 1.94999C5.36027 1.96397 5.46774 1.8451 5.51002 1.64844C5.48536 1.4614 5.39286 1.3233 5.18673 1.31893ZM5.18673 1.31893C4.97884 1.31456 4.85904 1.44741 4.85728 1.64058C4.85552 1.81189 4.96387 1.93775 5.15238 1.94999C5.36027 1.96397 5.46774 1.8451 5.51002 1.64844C5.48536 1.4614 5.39286 1.3233 5.18673 1.31893ZM7.81974 1.31631C7.38369 1.30757 6.94677 1.30844 6.50984 1.31543C6.30459 1.31805 6.17774 1.44654 6.17951 1.64232C6.18127 1.84423 6.32397 1.95261 6.52394 1.96135C6.72742 1.97009 6.93091 1.9631 7.13528 1.9631V1.95698C7.36784 1.95698 7.6004 1.96572 7.83295 1.95436C8.01794 1.94562 8.13774 1.82849 8.14215 1.65019C8.14655 1.45353 8.02499 1.32068 7.81974 1.31631ZM7.81974 1.31631C7.38369 1.30757 6.94677 1.30844 6.50984 1.31543C6.30459 1.31805 6.17774 1.44654 6.17951 1.64232C6.18127 1.84423 6.32397 1.95261 6.52394 1.96135C6.72742 1.97009 6.93091 1.9631 7.13528 1.9631V1.95698C7.36784 1.95698 7.6004 1.96572 7.83295 1.95436C8.01794 1.94562 8.13774 1.82849 8.14215 1.65019C8.14655 1.45353 8.02499 1.32068 7.81974 1.31631ZM5.18673 1.31893C4.97884 1.31456 4.85904 1.44741 4.85728 1.64058C4.85552 1.81189 4.96387 1.93775 5.15238 1.94999C5.36027 1.96397 5.46774 1.8451 5.51002 1.64844C5.48536 1.4614 5.39286 1.3233 5.18673 1.31893Z" fill="black"/>
<path d="M6.5257 19.0987C5.97954 19.0856 5.53733 19.4981 5.52147 20.0365C5.50562 20.5968 5.94078 21.0504 6.49751 21.0522C7.03662 21.0539 7.47266 20.6248 7.47971 20.0863C7.48588 19.5409 7.07097 19.1109 6.5257 19.0987ZM6.50544 20.3835C6.31604 20.3888 6.19888 20.2769 6.18039 20.1047C6.15924 19.908 6.27376 19.7726 6.47461 19.7516C6.68514 19.7306 6.78116 19.8713 6.83225 20.0479C6.80494 20.2445 6.71685 20.3774 6.50544 20.3835Z" fill="#F7F9FA"/>
<path d="M5.51002 1.64844C5.46774 1.8451 5.36027 1.96397 5.15238 1.94999C4.96387 1.93775 4.85552 1.81189 4.85728 1.64058C4.85904 1.44741 4.97884 1.31456 5.18673 1.31893C5.39286 1.3233 5.48536 1.4614 5.51002 1.64844Z" fill="#F7F9FA"/>
<path d="M8.14215 1.65019C8.13774 1.82849 8.01794 1.94562 7.83295 1.95436C7.6004 1.96572 7.36784 1.95698 7.13528 1.95698V1.9631C6.93091 1.9631 6.72742 1.97009 6.52394 1.96135C6.32397 1.95261 6.18127 1.84423 6.17951 1.64232C6.17774 1.44654 6.30459 1.31805 6.50984 1.31543C6.94677 1.30844 7.38369 1.30757 7.81974 1.31631C8.02499 1.32068 8.14655 1.45353 8.14215 1.65019Z" fill="#F7F9FA"/>
<path d="M6.5257 19.0987C5.97954 19.0856 5.53733 19.4981 5.52147 20.0365C5.50562 20.5968 5.94078 21.0504 6.49751 21.0522C7.03662 21.0539 7.47266 20.6248 7.47971 20.0863C7.48588 19.5409 7.07097 19.1109 6.5257 19.0987ZM6.50544 20.3835C6.31604 20.3888 6.19888 20.2769 6.18039 20.1047C6.15924 19.908 6.27376 19.7726 6.47461 19.7516C6.68514 19.7306 6.78116 19.8713 6.83225 20.0479C6.80494 20.2445 6.71685 20.3774 6.50544 20.3835Z" fill="#010101"/>
<path d="M8.14215 1.65019C8.13774 1.82849 8.01794 1.94562 7.83295 1.95436C7.6004 1.96572 7.36784 1.95698 7.13528 1.95698V1.9631C6.93091 1.9631 6.72742 1.97009 6.52394 1.96135C6.32397 1.95261 6.18127 1.84423 6.17951 1.64232C6.17774 1.44654 6.30459 1.31805 6.50984 1.31543C6.94677 1.30844 7.38369 1.30757 7.81974 1.31631C8.02499 1.32068 8.14655 1.45353 8.14215 1.65019Z" fill="#060606"/>
<path d="M5.51002 1.64844C5.46774 1.8451 5.36027 1.96397 5.15238 1.94999C4.96387 1.93775 4.85552 1.81189 4.85728 1.64058C4.85904 1.44741 4.97884 1.31456 5.18673 1.31893C5.39286 1.3233 5.48536 1.4614 5.51002 1.64844Z" fill="#0A0A0A"/>
</svg>
