<svg width="40" height="39" viewBox="0 0 40 39" fill="none" xmlns="http://www.w3.org/2000/svg">
<g clip-path="url(#clip0_237_1267)">
<path fill-rule="evenodd" clip-rule="evenodd" d="M39.718 16.3008L23.2753 27.3481L34.9473 32.5373C36.2497 31.1042 37.3503 29.4642 38.2042 27.6332C39.9215 23.957 40.362 20.0177 39.7197 16.2992L39.718 16.3008ZM23.9497 0.382198L25.2938 12.7906L7.02631 4.67237C11.6336 0.836433 17.8846 -0.811344 23.9497 0.382198ZM26.4584 1.04319C27.0688 1.24994 27.6791 1.47863 28.2719 1.74334C33.7026 4.15392 37.4945 8.65868 39.1157 13.8417L28.5971 20.9089L26.4568 1.04319H26.4584ZM5.15359 6.44702L16.8096 11.6222L0.350835 23.1519C0.120149 21.9631 0 20.7476 0 19.5259V19.5024C0 16.8067 0.570307 14.0735 1.78301 11.4624C2.6625 9.58281 3.80952 7.90371 5.15359 6.44702ZM13.359 37.9882C12.8127 37.7986 12.268 37.5903 11.7233 37.3538C6.42236 34.9965 2.67852 30.6421 0.994834 25.6126L11.4542 18.2806L13.359 37.9882ZM15.9814 38.6178L14.6454 26.2094L32.9112 34.3261C28.2975 38.1636 22.0449 39.8114 15.9814 38.6178Z" fill="#3797F0"/>
<path fill-rule="evenodd" clip-rule="evenodd" d="M12.606 30.3523C1.63718 23.1519 6.90131 6.46267 19.9992 6.46267C33.097 6.46267 38.3691 23.1409 27.3939 30.3523C22.9564 33.2657 17.0403 33.2641 12.606 30.3523Z" fill="#FEFEFE"/>
<path fill-rule="evenodd" clip-rule="evenodd" d="M14.4097 27.7021C6.11779 22.2591 10.0987 9.64546 19.999 9.64546C29.8993 9.64546 33.885 22.2513 25.5883 27.7021C22.237 29.9059 17.7626 29.9043 14.4097 27.7021Z" fill="#D5D5D7"/>
<path fill-rule="evenodd" clip-rule="evenodd" d="M15.5395 26.0449C8.92486 21.703 12.1 11.6378 19.9994 11.6378C27.8988 11.6378 31.0787 21.6952 24.4577 26.0449C21.7824 27.8023 18.2132 27.8023 15.5379 26.0449H15.5395Z" fill="#5F5F5F"/>
<path fill-rule="evenodd" clip-rule="evenodd" d="M16.0646 25.2758C10.227 21.4445 13.0288 12.5635 19.9991 12.5635C26.9693 12.5635 29.7744 21.4383 23.9336 25.2758C21.5738 26.8249 18.4243 26.8233 16.0646 25.2758Z" fill="#434443"/>
<path fill-rule="evenodd" clip-rule="evenodd" d="M17.8156 22.7039C14.5779 20.58 16.1319 15.6523 19.9991 15.6523C23.8663 15.6523 25.4218 20.5769 22.181 22.7039C20.8721 23.5639 19.1244 23.5639 17.8156 22.7039Z" fill="#22201E"/>
<path fill-rule="evenodd" clip-rule="evenodd" d="M17.5144 20.7961C15.9845 21.7986 16.7198 24.1277 18.5476 24.1277C20.3755 24.1277 21.1108 21.8001 19.5793 20.7961C18.961 20.3889 18.1343 20.3889 17.516 20.7961H17.5144Z" fill="#BABCBE"/>
<path fill-rule="evenodd" clip-rule="evenodd" d="M21.7613 15.6993C21.0083 16.1927 21.3704 17.3376 22.2675 17.3376C23.1646 17.3376 23.5282 16.1927 22.7737 15.6993C22.4709 15.4972 22.064 15.4972 21.7597 15.6993H21.7613Z" fill="#FEFEFE"/>
</g>
<defs>
<clipPath id="clip0_237_1267">
<rect width="40" height="39" fill="white" transform="matrix(1 0 0 -1 0 39)"/>
</clipPath>
</defs>
</svg>
