<svg width="23" height="22" viewBox="0 0 23 22" fill="none" xmlns="http://www.w3.org/2000/svg">
<g clip-path="url(#clip0_1232_9289)">
<path d="M16.2228 17.8857C16.2495 17.9911 16.2551 18.1008 16.2392 18.2084C16.2234 18.3161 16.1864 18.4195 16.1304 18.5128C16.0744 18.606 16.0005 18.6873 15.9129 18.7519C15.8254 18.8165 15.726 18.8631 15.6203 18.8891L5.04967 21.5251C4.83672 21.578 4.61149 21.5443 4.42337 21.4314C4.23525 21.3184 4.0996 21.1355 4.04619 20.9227L0.0342107 4.79112C-0.0186893 4.57818 0.0150301 4.35295 0.127972 4.16483C0.240914 3.97671 0.423853 3.84107 0.63667 3.78765L11.2073 1.15164C11.4203 1.09874 11.6455 1.13246 11.8336 1.2454C12.0217 1.35835 12.1574 1.54129 12.2108 1.7541L16.2228 17.8857Z" fill="white"/>
<path d="M16.5133 18.0605C16.5445 18.1608 16.5531 18.2668 16.5385 18.3709C16.5239 18.4749 16.4865 18.5745 16.4289 18.6624C16.3713 18.7503 16.295 18.8244 16.2055 18.8793C16.1159 18.9343 16.0153 18.9688 15.9109 18.9803L5.34021 21.6163C5.24092 21.6599 5.13313 21.6807 5.02475 21.6772C4.91637 21.6737 4.81016 21.6459 4.71391 21.596C4.61766 21.546 4.53382 21.4752 4.46855 21.3886C4.40328 21.302 4.35825 21.2019 4.33674 21.0956L0.315254 4.96403C0.288561 4.85869 0.282993 4.74911 0.298875 4.64161C0.314757 4.53411 0.351773 4.43082 0.407786 4.3377C0.463798 4.24459 0.537702 4.16348 0.625224 4.09908C0.712746 4.03467 0.812162 3.98824 0.917725 3.96246L11.4884 1.32645C11.7013 1.27355 11.9266 1.30727 12.1147 1.42021C12.3028 1.53315 12.4384 1.71609 12.4918 1.92891L16.5133 18.0605Z" fill="#8F8A80"/>
<path d="M16.3084 17.935C16.3348 18.0406 16.3401 18.1504 16.324 18.258C16.3079 18.3656 16.2708 18.469 16.2146 18.5623C16.1584 18.6555 16.0845 18.7367 15.9968 18.8013C15.9092 18.8658 15.8097 18.9125 15.704 18.9385L5.13338 21.5745C4.92044 21.6274 4.69521 21.5937 4.50709 21.4807C4.31897 21.3678 4.18332 21.1849 4.12991 20.972L0.108429 4.84049C0.0555294 4.62754 0.0892489 4.40231 0.202191 4.21419C0.315132 4.02607 0.498072 3.89043 0.710889 3.83702L11.2815 1.201C11.3871 1.17458 11.4969 1.16926 11.6045 1.18536C11.7121 1.20145 11.8156 1.23864 11.9088 1.29479C12.002 1.35095 12.0832 1.42495 12.1478 1.51257C12.2124 1.60019 12.259 1.69969 12.285 1.80537L16.3084 17.935Z" fill="#E6DECF"/>
<path d="M11.475 2.01858L0.92334 4.64941L4.9404 20.761L15.4921 18.1301L11.475 2.01858Z" fill="#9D6340"/>
<path d="M11.3877 2.16367L1.06836 4.73657L5.02749 20.6158L15.3468 18.0429L11.3877 2.16367Z" fill="#E6DECF"/>
<g style="mix-blend-mode:multiply">
<path d="M2.91162 11.1407L2.97244 11.3859L12.5795 18.4862L12.7829 18.4349L2.91162 11.1407Z" fill="#59C5E3"/>
<path d="M3.09961 11.8915L3.16043 12.1366L11.9598 18.6402L12.1632 18.5889L3.09961 11.8915Z" fill="#59C5E3"/>
<path d="M3.28613 12.644L3.34885 12.8892L11.3405 18.7941L11.542 18.7447L3.28613 12.644Z" fill="#59C5E3"/>
<path d="M2.72559 10.39L2.7864 10.6352L13.2012 18.3304L13.4027 18.2809L2.72559 10.39Z" fill="#59C5E3"/>
<path d="M2.35107 8.88672L2.41189 9.13189L14.4402 18.0206L14.6436 17.9712L2.35107 8.88672Z" fill="#59C5E3"/>
<path d="M3.47412 13.3948L3.53494 13.6399L10.7208 18.9481L10.9222 18.8987L3.47412 13.3948Z" fill="#59C5E3"/>
<path d="M2.16309 8.13599L2.2239 8.38115L15.0562 17.8628L14.9953 17.6176L2.16309 8.13599Z" fill="#59C5E3"/>
<path d="M2.53711 9.63928L2.59793 9.88445L13.8205 18.1764L14.0238 18.1251L2.53711 9.63928Z" fill="#59C5E3"/>
<path d="M1.97461 7.38538L2.03733 7.63054L14.8696 17.1122L14.8088 16.867L1.97461 7.38538Z" fill="#59C5E3"/>
<path d="M4.59766 17.9009L4.65847 18.1479L6.9999 19.8774L7.20136 19.8261L4.59766 17.9009Z" fill="#59C5E3"/>
<path d="M4.78564 18.6534L4.84646 18.8986L6.38017 20.0313L6.58163 19.98L4.78564 18.6534Z" fill="#59C5E3"/>
<path d="M4.97168 19.4042L5.0325 19.6493L5.75849 20.1853L5.96185 20.1359L4.97168 19.4042Z" fill="#59C5E3"/>
<path d="M5.16016 20.1567L5.20197 20.324L5.34261 20.2898L5.16016 20.1567Z" fill="#59C5E3"/>
<path d="M3.84863 14.8981L3.90945 15.1432L9.47985 19.2578L9.68321 19.2084L3.84863 14.8981Z" fill="#59C5E3"/>
<path d="M4.03467 15.6488L4.09738 15.894L8.86007 19.4137L9.06152 19.3624L4.03467 15.6488Z" fill="#59C5E3"/>
<path d="M3.66064 14.1455L3.72336 14.3907L10.0996 19.1039L10.3029 19.0526L3.66064 14.1455Z" fill="#59C5E3"/>
<path d="M4.41113 17.1501L4.47195 17.3953L7.6192 19.7215L7.82255 19.6721L4.41113 17.1501Z" fill="#59C5E3"/>
<path d="M4.22314 16.3994L4.28396 16.6446L8.23893 19.5676L8.44228 19.5163L4.22314 16.3994Z" fill="#59C5E3"/>
<path d="M3.03544 4.49084L2.83398 4.54216L13.7448 12.6041L13.684 12.359L3.03544 4.49084Z" fill="#59C5E3"/>
<path d="M8.61693 3.09961L8.41357 3.14902L12.0588 5.84395L11.9979 5.59878L8.61693 3.09961Z" fill="#59C5E3"/>
<path d="M6.13695 3.71729L5.93359 3.7686L12.8096 8.84867L12.7469 8.6035L6.13695 3.71729Z" fill="#59C5E3"/>
<path d="M7.37577 3.40942L7.17432 3.45884L12.4349 7.34538L12.3722 7.10022L7.37577 3.40942Z" fill="#59C5E3"/>
<path d="M6.75663 3.56335L6.55518 3.61467L12.6216 8.09608L12.5608 7.85091L6.75663 3.56335Z" fill="#59C5E3"/>
<path d="M7.9973 3.25366L7.79395 3.30498L12.2468 6.59476L12.186 6.3496L7.9973 3.25366Z" fill="#59C5E3"/>
<path d="M11.097 2.4801L10.8955 2.53142L11.3098 2.8393L11.249 2.59413L11.097 2.4801Z" fill="#59C5E3"/>
<path d="M9.23661 2.94568L9.03516 2.99509L11.8726 5.09136L11.8118 4.84619L9.23661 2.94568Z" fill="#59C5E3"/>
<path d="M10.4778 2.63599L10.2744 2.6854L11.4983 3.59004L11.4375 3.34488L10.4778 2.63599Z" fill="#59C5E3"/>
<path d="M1.78857 6.63464L1.84939 6.87791L14.6816 16.3615L14.6208 16.1163L1.78857 6.63464Z" fill="#59C5E3"/>
<path d="M9.85814 2.78992L9.65479 2.84123L11.6845 4.34073L11.6237 4.09557L9.85814 2.78992Z" fill="#59C5E3"/>
<path d="M5.51732 3.87317L5.31396 3.92258L12.9958 9.59941L12.935 9.35425L5.51732 3.87317Z" fill="#59C5E3"/>
<path d="M1.41406 5.13135L1.47488 5.37651L14.3071 14.8582L14.2463 14.613L1.41406 5.13135Z" fill="#59C5E3"/>
<path d="M1.79613 4.80066L1.59277 4.85007L14.121 14.1075L14.0582 13.8623L1.79613 4.80066Z" fill="#59C5E3"/>
<path d="M1.6001 5.88208L1.66091 6.12725L14.4951 15.6089L14.4324 15.3637L1.6001 5.88208Z" fill="#59C5E3"/>
<path d="M2.41581 4.64673L2.21436 4.69614L13.9329 13.3549L13.8721 13.1097L2.41581 4.64673Z" fill="#59C5E3"/>
<path d="M3.65648 4.33691L3.45312 4.38633L13.5581 11.8534L13.4973 11.6083L3.65648 4.33691Z" fill="#59C5E3"/>
<path d="M4.89579 4.0271L4.69434 4.07841L13.1839 10.352L13.1231 10.1049L4.89579 4.0271Z" fill="#59C5E3"/>
<path d="M4.27611 4.18103L4.07275 4.23234L13.3701 11.1027L13.3092 10.8575L4.27611 4.18103Z" fill="#59C5E3"/>
</g>
<g style="mix-blend-mode:multiply">
<path d="M8.09619 19.6037L8.29955 19.5524L13.0166 9.68115L12.9558 9.43408L8.09619 19.6037Z" fill="#7CB578"/>
<path d="M9.3374 19.2939L9.53886 19.2426L13.3912 11.1825L13.3304 10.9374L9.3374 19.2939Z" fill="#7CB578"/>
<path d="M8.71582 19.4478L8.91918 19.3984L13.2029 10.4318L13.1421 10.1866L8.71582 19.4478Z" fill="#7CB578"/>
<path d="M5.13916 20.0751L5.19998 20.3203L12.0798 5.92388L12.019 5.67871L5.13916 20.0751Z" fill="#7CB578"/>
<path d="M4.95264 19.3244L5.01345 19.5695L11.8933 5.17314L11.8306 4.92798L4.95264 19.3244Z" fill="#7CB578"/>
<path d="M6.85693 19.9115L7.05839 19.8621L12.6421 8.17778L12.5813 7.93262L6.85693 19.9115Z" fill="#7CB578"/>
<path d="M5.61621 20.2213L5.81957 20.1719L12.268 6.67449L12.2053 6.42932L5.61621 20.2213Z" fill="#7CB578"/>
<path d="M6.23535 20.0675L6.43871 20.0162L12.4538 7.42717L12.393 7.18201L6.23535 20.0675Z" fill="#7CB578"/>
<path d="M7.47656 19.7576L7.67992 19.7063L12.8284 8.92852L12.7676 8.68335L7.47656 19.7576Z" fill="#7CB578"/>
<path d="M15.0159 17.6993L14.9189 17.9027L15.0577 17.8685L15.0159 17.6993Z" fill="#7CB578"/>
<path d="M13.0566 18.3665L13.26 18.3152L14.5143 15.6906L14.4535 15.4454L13.0566 18.3665Z" fill="#7CB578"/>
<path d="M13.6777 18.2125L13.8792 18.1612L14.7021 16.4412L14.6413 16.196L13.6777 18.2125Z" fill="#7CB578"/>
<path d="M14.2974 18.0567L14.5007 18.0073L14.8884 17.1919L14.8276 16.9468L14.2974 18.0567Z" fill="#7CB578"/>
<path d="M12.437 18.5204L12.6404 18.471L14.328 14.9398L14.2653 14.6927L12.437 18.5204Z" fill="#7CB578"/>
<path d="M11.1978 18.8302L11.3992 18.7789L13.9535 13.4366L13.8908 13.1914L11.1978 18.8302Z" fill="#7CB578"/>
<path d="M9.95654 19.14L10.1599 19.0887L13.577 11.9333L13.5162 11.6881L9.95654 19.14Z" fill="#7CB578"/>
<path d="M10.5762 18.9841L10.7795 18.9347L13.7652 12.6858L13.7044 12.4387L10.5762 18.9841Z" fill="#7CB578"/>
<path d="M11.8174 18.6763L12.0188 18.625L14.1398 14.1873L14.079 13.9421L11.8174 18.6763Z" fill="#7CB578"/>
<path d="M1.67814 4.8291L1.47479 4.88042L1.39307 5.04956L1.45388 5.29473L1.67814 4.8291Z" fill="#7CB578"/>
<path d="M5.39729 3.90173L5.19584 3.95305L2.51611 9.55766L2.57883 9.80282L5.39729 3.90173Z" fill="#7CB578"/>
<path d="M6.01718 3.74768L5.81573 3.79709L2.70459 10.3082L2.76541 10.5534L6.01718 3.74768Z" fill="#7CB578"/>
<path d="M4.77794 4.0575L4.57458 4.10691L2.33008 8.80688L2.39089 9.05204L4.77794 4.0575Z" fill="#7CB578"/>
<path d="M4.15853 4.21143L3.95518 4.26274L2.14209 8.05616L2.20481 8.30133L4.15853 4.21143Z" fill="#7CB578"/>
<path d="M7.25784 3.43799L7.05639 3.4893L3.07861 11.8116L3.13943 12.0568L7.25784 3.43799Z" fill="#7CB578"/>
<path d="M8.49899 3.12817L8.29563 3.17949L3.45312 13.3149L3.51584 13.5601L8.49899 3.12817Z" fill="#7CB578"/>
<path d="M6.63849 3.59375L6.43703 3.64316L2.89258 11.0609L2.95339 11.306L6.63849 3.59375Z" fill="#7CB578"/>
<path d="M7.87963 3.28406L7.67628 3.33347L3.26709 12.5624L3.32791 12.8075L7.87963 3.28406Z" fill="#7CB578"/>
<path d="M3.53679 4.36536L3.33534 4.41667L1.95557 7.30355L2.01638 7.54871L3.53679 4.36536Z" fill="#7CB578"/>
<path d="M4.01562 15.567L4.07644 15.8122L10.3595 2.66443L10.1562 2.71574L4.01562 15.567Z" fill="#7CB578"/>
<path d="M2.91739 4.52124L2.71593 4.57065L1.76758 6.55289L1.8303 6.79805L2.91739 4.52124Z" fill="#7CB578"/>
<path d="M4.39014 17.0703L4.45095 17.3155L11.3308 2.91912L11.27 2.67395L4.39014 17.0703Z" fill="#7CB578"/>
<path d="M4.2041 16.3196L4.26492 16.5648L10.9794 2.5105L10.7761 2.56181L4.2041 16.3196Z" fill="#7CB578"/>
<path d="M4.57812 17.8211L4.63894 18.0662L11.5169 3.66985L11.4561 3.42468L4.57812 17.8211Z" fill="#7CB578"/>
<path d="M4.76465 18.5736L4.82546 18.8188L11.7053 4.42241L11.6445 4.17725L4.76465 18.5736Z" fill="#7CB578"/>
<path d="M3.82764 14.8163L3.89035 15.0615L9.73823 2.82031L9.53678 2.86973L3.82764 14.8163Z" fill="#7CB578"/>
<path d="M2.29755 4.67517L2.09419 4.72458L1.58105 5.80217L1.64187 6.04734L2.29755 4.67517Z" fill="#7CB578"/>
<path d="M3.6416 14.0656L3.70242 14.3108L9.11888 2.97424L8.91742 3.02556L3.6416 14.0656Z" fill="#7CB578"/>
</g>
<path style="mix-blend-mode:overlay" d="M16.3084 17.935C16.3348 18.0406 16.3401 18.1504 16.324 18.258C16.3079 18.3656 16.2708 18.469 16.2146 18.5623C16.1584 18.6555 16.0845 18.7367 15.9968 18.8013C15.9092 18.8658 15.8097 18.9125 15.704 18.9385L5.13338 21.5745C4.92044 21.6274 4.69521 21.5937 4.50709 21.4807C4.31897 21.3678 4.18332 21.1849 4.12991 20.972L0.108429 4.84049C0.0555294 4.62754 0.0892489 4.40231 0.202191 4.21419C0.315132 4.02607 0.498072 3.89043 0.710889 3.83702L11.2815 1.201C11.3871 1.17458 11.4969 1.16926 11.6045 1.18536C11.7121 1.20145 11.8156 1.23864 11.9088 1.29479C12.002 1.35095 12.0832 1.42495 12.1478 1.51257C12.2124 1.60019 12.259 1.69969 12.285 1.80537L16.3084 17.935Z" fill="url(#paint0_linear_1232_9289)"/>
<path d="M18.6251 17.344C18.6514 17.562 18.5901 17.7815 18.4547 17.9543C18.3192 18.1271 18.1208 18.2392 17.9029 18.2658L7.09085 19.5961C6.87287 19.623 6.65314 19.5622 6.47994 19.4271C6.30675 19.2921 6.19427 19.0938 6.1672 18.8758L4.14125 2.37369C4.11493 2.15601 4.17596 1.93677 4.31097 1.764C4.44597 1.59123 4.64397 1.47902 4.86155 1.45194L15.6755 0.12158C15.8934 0.094719 16.1132 0.155498 16.2864 0.29056C16.4596 0.425622 16.572 0.623916 16.5991 0.841873L18.6251 17.344Z" fill="white"/>
<path d="M18.7844 17.5018C18.7977 17.6096 18.7896 17.719 18.7606 17.8237C18.7316 17.9284 18.6822 18.0263 18.6153 18.1119C18.5485 18.1975 18.4653 18.2691 18.3708 18.3226C18.2762 18.376 18.172 18.4103 18.0641 18.4235L7.25023 19.7539C7.03234 19.7802 6.81289 19.7192 6.63981 19.5843C6.46674 19.4493 6.35413 19.2513 6.32658 19.0336L4.30064 2.53143C4.28735 2.4236 4.29544 2.31421 4.32446 2.20952C4.35347 2.10482 4.40284 2.00687 4.46973 1.92126C4.53663 1.83566 4.61975 1.76408 4.71433 1.71061C4.80891 1.65715 4.91309 1.62285 5.02093 1.60968L15.8349 0.279323C16.0527 0.252979 16.2722 0.313951 16.4453 0.448918C16.6183 0.583886 16.731 0.781874 16.7585 0.999616L18.7844 17.5018Z" fill="#8F8A80"/>
<path d="M18.7011 17.4049C18.7144 17.5127 18.7063 17.6221 18.6773 17.7268C18.6483 17.8315 18.5989 17.9294 18.532 18.015C18.4651 18.1006 18.382 18.1722 18.2874 18.2257C18.1928 18.2791 18.0887 18.3134 17.9808 18.3266L7.16691 19.657C6.94894 19.6833 6.72945 19.622 6.55662 19.4866C6.3838 19.3512 6.27178 19.1527 6.24516 18.9348L4.21541 2.44023C4.20187 2.33237 4.20978 2.22288 4.23869 2.11808C4.26761 2.01329 4.31695 1.91524 4.38389 1.82958C4.45083 1.74392 4.53403 1.67233 4.62874 1.61894C4.72344 1.56555 4.82776 1.53141 4.9357 1.51848L15.7496 0.188124C15.9673 0.161803 16.1865 0.222834 16.3593 0.357843C16.5321 0.492853 16.6443 0.690834 16.6714 0.908419L18.7011 17.4049Z" fill="#E6DECF"/>
<path style="mix-blend-mode:overlay" d="M18.7011 17.4049C18.7144 17.5127 18.7063 17.6221 18.6773 17.7268C18.6483 17.8315 18.5989 17.9294 18.532 18.015C18.4651 18.1006 18.382 18.1722 18.2874 18.2257C18.1928 18.2791 18.0887 18.3134 17.9808 18.3266L7.16691 19.657C6.94894 19.6833 6.72945 19.622 6.55662 19.4866C6.3838 19.3512 6.27178 19.1527 6.24516 18.9348L4.21541 2.44023C4.20187 2.33237 4.20978 2.22288 4.23869 2.11808C4.26761 2.01329 4.31695 1.91524 4.38389 1.82958C4.45083 1.74392 4.53403 1.67233 4.62874 1.61894C4.72344 1.56555 4.82776 1.53141 4.9357 1.51848L15.7496 0.188124C15.9673 0.161803 16.1865 0.222834 16.3593 0.357843C16.5321 0.492853 16.6443 0.690834 16.6714 0.908419L18.7011 17.4049Z" fill="url(#paint1_linear_1232_9289)"/>
<g style="mix-blend-mode:multiply">
<path d="M5.71094 4.50415L5.19971 5.52092L5.94281 6.38376L6.45404 5.36698L5.71094 4.50415Z" fill="#E63C3C"/>
<path d="M5.31396 3.92257C5.35284 3.92169 5.39159 3.91788 5.42989 3.91117C5.53632 3.89786 5.61995 3.84845 5.59714 3.68501L5.40709 2.05627L5.74158 2.01636L5.93163 3.61849C5.98295 4.0461 5.76819 4.18864 5.51542 4.21335C5.4546 4.21335 5.40898 4.22665 5.35387 4.22855L5.31396 3.92257Z" fill="#E63C3C"/>
</g>
<path d="M17.9694 0.300171H7.07379C6.61721 0.300171 6.24707 0.670307 6.24707 1.12689V17.7545C6.24707 18.2111 6.61721 18.5812 7.07379 18.5812H17.9694C18.426 18.5812 18.7962 18.2111 18.7962 17.7545V1.12689C18.7962 0.670307 18.426 0.300171 17.9694 0.300171Z" fill="white"/>
<path d="M7.19337 0.45801H18.089C18.3083 0.45801 18.5185 0.545111 18.6736 0.700152C18.8286 0.855192 18.9157 1.06547 18.9157 1.28473V17.9104C18.9157 18.1297 18.8286 18.34 18.6736 18.495C18.5185 18.65 18.3083 18.7371 18.089 18.7371H7.19337C6.9736 18.7371 6.76284 18.6498 6.60744 18.4944C6.45205 18.339 6.36475 18.1283 6.36475 17.9085V1.28473C6.36475 1.17601 6.38619 1.06835 6.42786 0.96792C6.46952 0.867493 6.53059 0.776272 6.60756 0.699479C6.68453 0.622685 6.77589 0.561829 6.87641 0.520394C6.97693 0.478959 7.08464 0.45776 7.19337 0.45801Z" fill="#8F8A80"/>
<path d="M18.0378 0.370483H7.14215C6.68557 0.370483 6.31543 0.74062 6.31543 1.19721V17.8229C6.31543 18.2795 6.68557 18.6496 7.14215 18.6496H18.0378C18.4944 18.6496 18.8645 18.2795 18.8645 17.8229V1.19721C18.8645 0.74062 18.4944 0.370483 18.0378 0.370483Z" fill="#E6DECF"/>
<path style="mix-blend-mode:overlay" d="M18.0378 0.370483H7.14215C6.68557 0.370483 6.31543 0.74062 6.31543 1.19721V17.8229C6.31543 18.2795 6.68557 18.6496 7.14215 18.6496H18.0378C18.4944 18.6496 18.8645 18.2795 18.8645 17.8229V1.19721C18.8645 0.74062 18.4944 0.370483 18.0378 0.370483Z" fill="url(#paint2_linear_1232_9289)"/>
<g style="mix-blend-mode:multiply">
<path d="M8.12262 4.09924C7.94777 4.09924 7.80143 4.33491 7.75202 4.42233V4.25699C7.84514 4.20377 8.06941 4.06693 8.06941 3.88829C8.07457 3.83827 8.06918 3.78773 8.05358 3.73992C8.03797 3.69212 8.01251 3.64813 7.97883 3.6108C7.94515 3.57346 7.90401 3.54361 7.85806 3.52318C7.81212 3.50275 7.76239 3.49219 7.71211 3.49219C7.66183 3.49219 7.6121 3.50275 7.56615 3.52318C7.52021 3.54361 7.47907 3.57346 7.44539 3.6108C7.41171 3.64813 7.38624 3.69212 7.37064 3.73992C7.35503 3.78773 7.34965 3.83827 7.35481 3.88829C7.35481 4.05933 7.57907 4.20377 7.6722 4.25699V4.42233C7.62278 4.33491 7.48215 4.09924 7.29209 4.09924C7.24208 4.09408 7.19153 4.09947 7.14373 4.11507C7.09593 4.13068 7.05194 4.15614 7.0146 4.18982C6.97727 4.2235 6.94741 4.26464 6.92698 4.31059C6.90655 4.35653 6.896 4.40626 6.896 4.45654C6.896 4.50682 6.90655 4.55655 6.92698 4.60249C6.94741 4.64844 6.97727 4.68958 7.0146 4.72326C7.05194 4.75694 7.09593 4.7824 7.14373 4.79801C7.19153 4.81361 7.24208 4.819 7.29209 4.81384C7.46504 4.81384 7.61328 4.58007 7.6722 4.49075V4.87085C7.62468 4.96017 7.53726 5.11982 7.44413 5.30607H7.98008C7.88695 5.11602 7.80143 4.96017 7.75202 4.87085V4.49075C7.80143 4.58007 7.94207 4.81384 8.12262 4.81384C8.17263 4.819 8.22318 4.81361 8.27098 4.79801C8.31878 4.7824 8.36277 4.75694 8.40011 4.72326C8.43745 4.68958 8.4673 4.64844 8.48773 4.60249C8.50816 4.55655 8.51872 4.50682 8.51872 4.45654C8.51872 4.40626 8.50816 4.35653 8.48773 4.31059C8.4673 4.26464 8.43745 4.2235 8.40011 4.18982C8.36277 4.15614 8.31878 4.13068 8.27098 4.11507C8.22318 4.09947 8.17263 4.09408 8.12262 4.09924Z" fill="#332117"/>
<path d="M7.16832 1.5089C7.16832 1.16491 7.35838 0.967252 7.68146 0.967252C7.75281 0.961492 7.82454 0.971797 7.89137 0.997408C7.95821 1.02302 8.01846 1.06329 8.06769 1.11525C8.11692 1.16721 8.15387 1.22954 8.17584 1.29767C8.1978 1.36579 8.20421 1.43797 8.1946 1.5089V2.6302C8.19759 2.73404 8.17541 2.83706 8.12998 2.93048C8.14519 2.97039 8.16989 2.97609 8.22501 2.97609H8.25542V3.27828H8.20601C8.14802 3.28537 8.08924 3.27507 8.03713 3.24867C7.98501 3.22227 7.94192 3.18098 7.91333 3.13004C7.83776 3.15718 7.75796 3.17069 7.67766 3.16994C7.60641 3.17601 7.53471 3.16599 7.46786 3.14061C7.40101 3.11523 7.34072 3.07514 7.29145 3.02332C7.24219 2.97149 7.2052 2.90926 7.18323 2.84121C7.16126 2.77317 7.15487 2.70105 7.16453 2.6302L7.16832 1.5089ZM7.50662 2.64921C7.50662 2.80315 7.57313 2.86016 7.68146 2.86016C7.78979 2.86016 7.85631 2.80315 7.85631 2.64921V1.48989C7.85631 1.33785 7.78789 1.27894 7.68146 1.27894C7.57503 1.27894 7.50662 1.33785 7.50662 1.48989V2.64921Z" fill="#332117"/>
</g>
<path d="M19.1912 18.758C19.178 18.8658 19.1437 18.97 19.0902 19.0646C19.0368 19.1592 18.9652 19.2423 18.8796 19.3092C18.794 19.3761 18.696 19.4255 18.5913 19.4545C18.4866 19.4835 18.3773 19.4916 18.2694 19.4783L7.4555 18.1479C7.34766 18.1348 7.24348 18.1005 7.1489 18.047C7.05432 17.9935 6.97121 17.922 6.90432 17.8364C6.83742 17.7507 6.78804 17.6528 6.75903 17.5481C6.73001 17.4434 6.72192 17.334 6.73521 17.2262L8.76115 0.729739C8.78871 0.512367 8.90105 0.314693 9.0737 0.179777C9.24635 0.0448619 9.46532 -0.0163611 9.68291 0.00944568L20.4968 1.3398C20.6048 1.35273 20.7091 1.38687 20.8038 1.44026C20.8985 1.49365 20.9817 1.56524 21.0486 1.6509C21.1156 1.73656 21.1649 1.83461 21.1938 1.9394C21.2228 2.0442 21.2307 2.15368 21.2171 2.26155L19.1912 18.758Z" fill="white"/>
<path d="M19.3282 18.9215C19.315 19.0293 19.2807 19.1335 19.2273 19.2281C19.1738 19.3227 19.1022 19.4058 19.0166 19.4727C18.931 19.5396 18.833 19.5889 18.7283 19.6179C18.6236 19.647 18.5143 19.6551 18.4064 19.6418L7.59252 18.3114C7.37478 18.2839 7.17679 18.1713 7.04182 17.9982C6.90685 17.8251 6.84587 17.6057 6.87222 17.3878L8.89817 0.887514C8.91134 0.779672 8.94564 0.675483 8.9991 0.580905C9.05256 0.486327 9.12415 0.403213 9.20975 0.336317C9.29536 0.269421 9.3933 0.220056 9.498 0.191041C9.60269 0.162026 9.71209 0.153929 9.81992 0.167218L20.6338 1.49758C20.8518 1.52464 21.0501 1.63713 21.1852 1.81032C21.3202 1.98352 21.381 2.20324 21.3541 2.42123L19.3282 18.9215Z" fill="#8F8A80"/>
<path d="M19.2522 18.834C19.239 18.9419 19.2048 19.0461 19.1513 19.1407C19.0978 19.2352 19.0262 19.3183 18.9406 19.3852C18.855 19.4521 18.7571 19.5015 18.6524 19.5305C18.5477 19.5595 18.4383 19.5676 18.3305 19.5543L7.51655 18.224C7.2986 18.1969 7.1003 18.0844 6.96524 17.9112C6.83018 17.738 6.7694 17.5183 6.79626 17.3003L8.8222 0.800086C8.83513 0.692143 8.86928 0.587822 8.92267 0.49312C8.97606 0.398418 9.04764 0.315205 9.1333 0.248265C9.21896 0.181326 9.31701 0.131984 9.42181 0.103071C9.52661 0.0741577 9.63609 0.066246 9.74396 0.0797928L20.5579 1.41015C20.7758 1.43722 20.9741 1.5497 21.1092 1.7229C21.2442 1.89609 21.305 2.11582 21.2782 2.3338L19.2522 18.834Z" fill="#E6DECF"/>
<path d="M19.2522 18.834C19.239 18.9419 19.2048 19.0461 19.1513 19.1407C19.0978 19.2352 19.0262 19.3183 18.9406 19.3852C18.855 19.4521 18.7571 19.5015 18.6524 19.5305C18.5477 19.5595 18.4383 19.5676 18.3305 19.5543L7.51655 18.224C7.2986 18.1969 7.1003 18.0844 6.96524 17.9112C6.83018 17.738 6.7694 17.5183 6.79626 17.3003L8.8222 0.800086C8.83513 0.692143 8.86928 0.587822 8.92267 0.49312C8.97606 0.398418 9.04764 0.315205 9.1333 0.248265C9.21896 0.181326 9.31701 0.131984 9.42181 0.103071C9.52661 0.0741577 9.63609 0.066246 9.74396 0.0797928L20.5579 1.41015C20.7758 1.43722 20.9741 1.5497 21.1092 1.7229C21.2442 1.89609 21.305 2.11582 21.2782 2.3338L19.2522 18.834Z" fill="#E6DECF"/>
<path style="mix-blend-mode:overlay" d="M19.2522 18.834C19.239 18.9419 19.2048 19.0461 19.1513 19.1407C19.0978 19.2352 19.0262 19.3183 18.9406 19.3852C18.855 19.4521 18.7571 19.5015 18.6524 19.5305C18.5477 19.5595 18.4383 19.5676 18.3305 19.5543L7.51655 18.224C7.2986 18.1969 7.1003 18.0844 6.96524 17.9112C6.83018 17.738 6.7694 17.5183 6.79626 17.3003L8.8222 0.800086C8.83513 0.692143 8.86928 0.587822 8.92267 0.49312C8.97606 0.398418 9.04764 0.315205 9.1333 0.248265C9.21896 0.181326 9.31701 0.131984 9.42181 0.103071C9.52661 0.0741577 9.63609 0.066246 9.74396 0.0797928L20.5579 1.41015C20.7758 1.43722 20.9741 1.5497 21.1092 1.7229C21.2442 1.89609 21.305 2.11582 21.2782 2.3338L19.2522 18.834Z" fill="url(#paint3_linear_1232_9289)"/>
<g style="mix-blend-mode:multiply">
<path d="M9.7099 3.65464C9.63198 2.97426 9.13975 3.18522 9.07704 3.64134C9.04093 3.92261 9.54836 4.9717 9.54836 4.9717C9.54836 4.9717 10.2953 4.07845 10.3295 3.79718C10.3846 3.35056 9.89805 3.01037 9.7099 3.65464Z" fill="#E63C3C"/>
<path d="M9.79745 1.99362L9.67012 2.18367L9.5884 2.83935L9.25391 2.79944L9.51618 0.665161L9.85067 0.706973L9.73853 1.63062L10.284 0.760187L10.6185 0.801998L10.0369 1.69524L10.3562 2.93437L10.0122 2.89256L9.79745 1.99362Z" fill="#E63C3C"/>
</g>
<path d="M18.8495 20.2499C18.8235 20.3556 18.7769 20.4551 18.7123 20.5427C18.6478 20.6303 18.5665 20.7043 18.4733 20.7605C18.3801 20.8166 18.2767 20.8538 18.169 20.8699C18.0614 20.886 17.9516 20.8807 17.846 20.8543L7.27729 18.2144C7.06448 18.161 6.88154 18.0254 6.7686 17.8373C6.65566 17.6492 6.62194 17.4239 6.67484 17.211L10.6963 1.07942C10.7497 0.866605 10.8854 0.683663 11.0735 0.570721C11.2616 0.457779 11.4868 0.42406 11.6998 0.47696L22.2704 3.11677C22.3761 3.14279 22.4756 3.18941 22.5632 3.25398C22.6509 3.31854 22.7249 3.39977 22.781 3.493C22.8372 3.58623 22.8744 3.68963 22.8904 3.79727C22.9065 3.90491 22.9012 4.01466 22.8748 4.12024L18.8495 20.2499Z" fill="white"/>
<path d="M18.954 20.4627C18.928 20.5684 18.8813 20.6678 18.8167 20.7554C18.7521 20.8429 18.6709 20.9168 18.5776 20.9728C18.4843 21.0288 18.3809 21.0658 18.2733 21.0817C18.1657 21.0975 18.056 21.0919 17.9505 21.0652L7.37985 18.4311C7.16703 18.3777 6.98408 18.242 6.87114 18.0539C6.75819 17.8658 6.72447 17.6406 6.77737 17.4276L10.7989 1.29988C10.8523 1.08706 10.9879 0.904122 11.176 0.79118C11.3642 0.678238 11.5894 0.644519 11.8023 0.697419L22.373 3.33343C22.4786 3.35943 22.5781 3.40606 22.6656 3.47066C22.7531 3.53525 22.827 3.61652 22.883 3.70979C22.939 3.80306 22.976 3.90649 22.9919 4.01411C23.0077 4.12174 23.0022 4.23144 22.9755 4.3369L18.954 20.4627Z" fill="#8F8A80"/>
<path d="M18.9025 20.3355C18.8491 20.5483 18.7135 20.7312 18.5253 20.8442C18.3372 20.9571 18.112 20.9908 17.8991 20.9379L7.3284 18.3019C7.11523 18.2489 6.93184 18.1135 6.81851 17.9253C6.70518 17.7371 6.6712 17.5117 6.72404 17.2984L10.7474 1.1669C10.8004 0.954232 10.9357 0.771303 11.1235 0.65833C11.3113 0.545357 11.5363 0.511586 11.749 0.564441L22.3215 3.20045C22.5344 3.25387 22.7173 3.38951 22.8302 3.57762C22.9432 3.76574 22.9769 3.99098 22.924 4.20392L18.9025 20.3355Z" fill="#E6DECF"/>
<path style="mix-blend-mode:overlay" d="M18.9025 20.3355C18.8491 20.5483 18.7135 20.7312 18.5253 20.8442C18.3372 20.9571 18.112 20.9908 17.8991 20.9379L7.3284 18.3019C7.11523 18.2489 6.93184 18.1135 6.81851 17.9253C6.70518 17.7371 6.6712 17.5117 6.72404 17.2984L10.7474 1.1669C10.8004 0.954232 10.9357 0.771303 11.1235 0.65833C11.3113 0.545357 11.5363 0.511586 11.749 0.564441L22.3215 3.20045C22.5344 3.25387 22.7173 3.38951 22.8302 3.57762C22.9432 3.76574 22.9769 3.99098 22.924 4.20392L18.9025 20.3355Z" fill="url(#paint4_linear_1232_9289)"/>
<g style="mix-blend-mode:multiply">
<path d="M13.1477 11.0191C13.3188 10.333 15.4284 8.3584 15.4284 8.3584C15.4284 8.3584 16.3634 11.0989 16.1886 11.7793C15.913 12.8854 14.613 13.2541 14.6263 11.5513C13.9631 13.0926 12.8703 12.0986 13.1477 11.0191ZM14.8962 13.3149C14.7271 12.5547 14.4933 12.6783 14.556 11.9295C14.2196 12.6174 14.1113 12.4008 13.6058 12.9918L14.8962 13.3149Z" fill="#332117"/>
</g>
<g style="mix-blend-mode:multiply">
<path d="M10.4869 4.66375C10.5573 4.38628 11.4068 3.58997 11.4068 3.58997C11.4068 3.58997 11.7869 4.69226 11.7128 4.96784C11.6025 5.41256 11.0799 5.5608 11.0856 4.87661C10.8233 5.49618 10.3843 5.10087 10.4869 4.66375ZM11.1844 5.5836C11.116 5.27952 11.0476 5.02675 11.0476 5.02675C11.0476 5.02675 10.8689 5.2168 10.6675 5.45437L11.1844 5.5836Z" fill="#332117"/>
<path d="M12.0493 3.47022L11.7186 3.3885L11.7566 2.99509L11.3537 2.89437L11.2036 3.25927L10.9014 3.18515L11.7547 1.18201L12.2355 1.30174L12.0493 3.47022ZM11.4658 2.6302L11.7813 2.70812L11.8896 1.61532L11.4658 2.6302Z" fill="#332117"/>
</g>
<g style="mix-blend-mode:multiply">
<path d="M19.1568 16.8385C19.0884 17.1141 18.2389 17.9104 18.2389 17.9104C18.2389 17.9104 17.8588 16.81 17.931 16.5325C18.0431 16.0878 18.5639 15.9396 18.5601 16.6237C18.8261 16.0042 19.2652 16.4052 19.1568 16.8385ZM18.4688 15.9167C18.5373 16.2227 18.6076 16.4736 18.6076 16.4736C18.6076 16.4736 18.7843 16.2835 18.9877 16.046L18.4688 15.9167Z" fill="#332117"/>
<path d="M17.6005 18.0244L17.9312 18.108L17.8931 18.4995L18.2942 18.6003L18.4462 18.2354L18.7465 18.3114L17.8989 20.3183L17.4199 20.2005L17.6005 18.0244ZM18.182 18.8739L17.8665 18.7941L17.7582 19.8869L18.182 18.8739Z" fill="#332117"/>
</g>
</g>
<defs>
<linearGradient id="paint0_linear_1232_9289" x1="-3.56607" y1="-10.9401" x2="13.5429" y2="21.4962" gradientUnits="userSpaceOnUse">
<stop offset="0.13" stop-color="#E3E3E3"/>
<stop offset="0.19" stop-color="#D1D1D1"/>
<stop offset="0.5" stop-color="#7E7E7E"/>
<stop offset="0.72" stop-color="#494949"/>
<stop offset="0.82" stop-color="#353535"/>
<stop offset="0.87" stop-color="#383838"/>
<stop offset="0.9" stop-color="#414141"/>
<stop offset="0.93" stop-color="#515151"/>
<stop offset="0.95" stop-color="#676767"/>
<stop offset="0.98" stop-color="#838383"/>
<stop offset="1" stop-color="#A8A8A8"/>
</linearGradient>
<linearGradient id="paint1_linear_1232_9289" x1="0.152538" y1="6.8551" x2="11.3034" y2="10.1274" gradientUnits="userSpaceOnUse">
<stop offset="0.13" stop-color="#E3E3E3"/>
<stop offset="0.19" stop-color="#D1D1D1"/>
<stop offset="0.5" stop-color="#7E7E7E"/>
<stop offset="0.72" stop-color="#494949"/>
<stop offset="0.82" stop-color="#353535"/>
<stop offset="0.89" stop-color="#383838"/>
<stop offset="0.93" stop-color="#414141"/>
<stop offset="0.97" stop-color="#515151"/>
<stop offset="1" stop-color="#626262"/>
</linearGradient>
<linearGradient id="paint2_linear_1232_9289" x1="5.35947" y1="16.9125" x2="24.6421" y2="-2.82998" gradientUnits="userSpaceOnUse">
<stop offset="0.13" stop-color="#E3E3E3"/>
<stop offset="0.19" stop-color="#D1D1D1"/>
<stop offset="0.5" stop-color="#7E7E7E"/>
<stop offset="0.72" stop-color="#494949"/>
<stop offset="0.82" stop-color="#353535"/>
<stop offset="0.89" stop-color="#383838"/>
<stop offset="0.93" stop-color="#414141"/>
<stop offset="0.97" stop-color="#515151"/>
<stop offset="1" stop-color="#626262"/>
</linearGradient>
<linearGradient id="paint3_linear_1232_9289" x1="6.26661" y1="23.3998" x2="24.1785" y2="-9.97745" gradientUnits="userSpaceOnUse">
<stop offset="0.13" stop-color="#E3E3E3"/>
<stop offset="0.19" stop-color="#D1D1D1"/>
<stop offset="0.5" stop-color="#7E7E7E"/>
<stop offset="0.72" stop-color="#494949"/>
<stop offset="0.82" stop-color="#353535"/>
<stop offset="0.89" stop-color="#383838"/>
<stop offset="0.93" stop-color="#414141"/>
<stop offset="0.97" stop-color="#515151"/>
<stop offset="1" stop-color="#626262"/>
</linearGradient>
<linearGradient id="paint4_linear_1232_9289" x1="22.11" y1="15.669" x2="7.53622" y2="5.83802" gradientUnits="userSpaceOnUse">
<stop offset="0.13" stop-color="#E3E3E3"/>
<stop offset="0.18" stop-color="#D1D1D1"/>
<stop offset="0.42" stop-color="#7E7E7E"/>
<stop offset="0.59" stop-color="#494949"/>
<stop offset="0.68" stop-color="#353535"/>
<stop offset="0.75" stop-color="#383838"/>
<stop offset="0.81" stop-color="#414141"/>
<stop offset="0.85" stop-color="#515151"/>
<stop offset="0.9" stop-color="#676767"/>
<stop offset="0.94" stop-color="#838383"/>
<stop offset="0.98" stop-color="#A6A6A6"/>
<stop offset="1" stop-color="#BFBFBF"/>
</linearGradient>
<clipPath id="clip0_1232_9289">
<rect width="23" height="21.6791" fill="white"/>
</clipPath>
</defs>
</svg>
