<svg width="72" height="63" viewBox="0 0 72 63" fill="none" xmlns="http://www.w3.org/2000/svg">
<path d="M45.3122 47.304C46.1052 49.2185 45.1502 51.2995 43.3184 51.79C43.0001 51.8756 42.6817 51.8652 42.3634 51.8652C37.8513 51.8675 33.3403 51.8663 28.8282 51.8663C24.3161 51.8663 19.693 51.8709 15.1243 51.864C13.3763 51.8617 12.2197 50.9189 11.9455 49.2879C11.805 48.455 11.9942 47.6742 12.4304 46.9697C14.5624 43.5214 16.6955 40.0743 18.8524 36.641C19.5978 35.4542 20.6922 34.914 22.0844 35.0724C22.7766 35.1499 23.326 35.5004 23.7554 36.0499C24.2255 36.6526 24.6956 37.2553 25.1567 37.8649C26.4255 39.5456 28.7874 39.5283 29.9894 37.7874C31.2593 35.947 32.4714 34.0649 33.721 32.2106C34.6533 30.8248 36.4001 30.3748 37.8264 31.1256C38.4574 31.4576 38.8969 31.9688 39.1733 32.627C41.2238 37.5178 43.281 42.4052 45.3122 47.304Z" fill="#F7F9FA"/>
<path d="M47.0975 24.7657C47.0896 27.1266 44.9633 29.2782 42.6613 29.2551C40.305 29.232 38.2897 27.1509 38.2818 24.7321C38.2738 22.3168 40.2858 20.2751 42.6795 20.2694C45.0075 20.2647 47.1043 22.4001 47.0975 24.7657Z" fill="#F7F9FA"/>
<path d="M58 19.7592C58.0011 18.7401 57.821 17.7684 57.4868 16.8234C56.0243 12.6926 52.2066 10.0147 47.7387 10.0066C41.5296 9.99615 35.3217 10.0042 29.1126 10.0042C22.9035 10.0042 16.6955 9.99268 10.4864 10.0077C4.60698 10.0216 0.00991235 14.7204 0.00538099 20.7089C-0.00141605 31.1522 -0.00254889 41.5954 0.00651383 52.0387C0.0110452 57.9358 4.57073 62.689 10.3493 62.7063C22.8049 62.7445 35.2594 62.7214 47.7149 62.7133C49.7642 62.7121 51.672 62.1372 53.352 60.9365C56.3347 58.8046 58.0023 55.9346 57.9977 52.1301C57.9841 41.3398 57.9887 30.5495 58 19.7592ZM51.749 54.2423C51.0817 55.9821 49.6544 56.9572 47.7399 56.9584C41.5308 56.963 35.3205 56.9607 29.1103 56.9607C22.9001 56.9607 16.691 56.9653 10.4819 56.9584C8.223 56.9561 6.41272 55.4893 5.95279 53.2961C5.87916 52.9433 5.87349 52.5696 5.87349 52.2052C5.86896 41.74 5.86783 31.2759 5.87123 20.8119C5.87236 18.0218 7.80385 16.0495 10.5385 16.0483C22.8264 16.0449 35.1132 16.0449 47.4011 16.0483C50.1211 16.0495 52.0843 18.0449 52.0854 20.8119C52.09 31.2759 52.0866 41.74 52.0888 52.2052C52.0888 52.9051 51.9993 53.5887 51.749 54.2423Z" fill="#F7F9FA"/>
<path d="M45.3122 47.304C46.1052 49.2185 45.1502 51.2995 43.3184 51.79C43.0001 51.8756 42.6817 51.8652 42.3634 51.8652C37.8513 51.8675 33.3403 51.8663 28.8282 51.8663C24.3161 51.8663 19.693 51.8709 15.1243 51.864C13.3763 51.8617 12.2197 50.9189 11.9455 49.2879C11.805 48.455 11.9942 47.6742 12.4304 46.9697C14.5624 43.5214 16.6955 40.0743 18.8524 36.641C19.5978 35.4542 20.6922 34.914 22.0844 35.0724C22.7766 35.1499 23.326 35.5004 23.7554 36.0499C24.2255 36.6526 24.6956 37.2553 25.1567 37.8649C26.4255 39.5456 28.7874 39.5283 29.9894 37.7874C31.2593 35.947 32.4714 34.0649 33.721 32.2106C34.6533 30.8248 36.4001 30.3748 37.8264 31.1256C38.4574 31.4576 38.8969 31.9688 39.1733 32.627C41.2238 37.5178 43.281 42.4052 45.3122 47.304Z" fill="#C4C4C4"/>
<path d="M47.0975 24.7657C47.0896 27.1266 44.9633 29.2782 42.6613 29.2551C40.305 29.232 38.2897 27.1509 38.2818 24.7321C38.2738 22.3168 40.2858 20.2751 42.6795 20.2694C45.0075 20.2647 47.1043 22.4001 47.0975 24.7657Z" fill="#C4C4C4"/>
<path d="M58 19.7592C58.0011 18.7401 57.821 17.7684 57.4868 16.8234C56.0243 12.6926 52.2066 10.0147 47.7387 10.0066C41.5296 9.99615 35.3217 10.0042 29.1126 10.0042C22.9035 10.0042 16.6955 9.99268 10.4864 10.0077C4.60698 10.0216 0.00991235 14.7204 0.00538099 20.7089C-0.00141605 31.1522 -0.00254889 41.5954 0.00651383 52.0387C0.0110452 57.9358 4.57073 62.689 10.3493 62.7063C22.8049 62.7445 35.2594 62.7214 47.7149 62.7133C49.7642 62.7121 51.672 62.1372 53.352 60.9365C56.3347 58.8046 58.0023 55.9346 57.9977 52.1301C57.9841 41.3398 57.9887 30.5495 58 19.7592ZM51.749 54.2423C51.0817 55.9821 49.6544 56.9572 47.7399 56.9584C41.5308 56.963 35.3205 56.9607 29.1103 56.9607C22.9001 56.9607 16.691 56.9653 10.4819 56.9584C8.223 56.9561 6.41272 55.4893 5.95279 53.2961C5.87916 52.9433 5.87349 52.5696 5.87349 52.2052C5.86896 41.74 5.86783 31.2759 5.87123 20.8119C5.87236 18.0218 7.80385 16.0495 10.5385 16.0483C22.8264 16.0449 35.1132 16.0449 47.4011 16.0483C50.1211 16.0495 52.0843 18.0449 52.0854 20.8119C52.09 31.2759 52.0866 41.74 52.0888 52.2052C52.0888 52.9051 51.9993 53.5887 51.749 54.2423Z" fill="#C4C4C4"/>
<path d="M45.3122 47.304C46.1052 49.2185 45.1502 51.2995 43.3184 51.79C43.0001 51.8756 42.6817 51.8652 42.3634 51.8652C37.8513 51.8675 33.3403 51.8663 28.8282 51.8663C24.3161 51.8663 19.693 51.8709 15.1243 51.864C13.3763 51.8617 12.2197 50.9189 11.9455 49.2879C11.805 48.455 11.9942 47.6742 12.4304 46.9697C14.5624 43.5214 16.6955 40.0743 18.8524 36.641C19.5978 35.4542 20.6922 34.914 22.0844 35.0724C22.7766 35.1499 23.326 35.5004 23.7554 36.0499C24.2255 36.6526 24.6956 37.2553 25.1567 37.8649C26.4255 39.5456 28.7874 39.5283 29.9894 37.7874C31.2593 35.947 32.4714 34.0649 33.721 32.2106C34.6533 30.8248 36.4001 30.3748 37.8264 31.1256C38.4574 31.4576 38.8969 31.9688 39.1733 32.627C41.2238 37.5178 43.281 42.4052 45.3122 47.304Z" fill="#F7F9FA"/>
<path d="M47.0975 24.7657C47.0896 27.1266 44.9633 29.2782 42.6613 29.2551C40.305 29.232 38.2897 27.1509 38.2818 24.7321C38.2738 22.3168 40.2858 20.2751 42.6795 20.2694C45.0075 20.2647 47.1043 22.4001 47.0975 24.7657Z" fill="#F7F9FA"/>
<path d="M43.3184 51.79C43.0001 51.8756 42.6817 51.8652 42.3634 51.8652C37.8513 51.8675 33.3403 51.8663 28.8282 51.8663C24.3161 51.8663 19.693 51.8709 15.1243 51.864C13.3763 51.8617 12.2197 50.9189 11.9455 49.2879C11.805 48.455 11.9942 47.6742 12.4304 46.9697C14.5624 43.5214 16.6955 40.0743 18.8524 36.641C19.5978 35.4542 20.6922 34.914 22.0844 35.0724C22.7766 35.1499 23.326 35.5004 23.7554 36.0499C24.2255 36.6526 24.6956 37.2553 25.1567 37.8649C26.4255 39.5456 28.7874 39.5283 29.9894 37.7874C31.2593 35.947 32.4714 34.0649 33.721 32.2106C34.6533 30.8248 36.4001 30.3748 37.8264 31.1256C38.4574 31.4576 38.8969 31.9688 39.1733 32.627C41.2238 37.5178 43.281 42.4052 45.3122 47.304C46.1052 49.2185 45.1502 51.2995 43.3184 51.79Z" fill="#C4C4C4"/>
<path d="M47.0975 24.7657C47.0896 27.1266 44.9633 29.2782 42.6613 29.2551C40.305 29.232 38.2897 27.1509 38.2818 24.7321C38.2738 22.3168 40.2858 20.2751 42.6795 20.2694C45.0075 20.2647 47.1043 22.4001 47.0975 24.7657Z" fill="#C4C4C4"/>
<g clip-path="url(#clip0_3480_5783)">
<path d="M47 12.4963C46.998 19.3841 52.609 24.998 59.4971 25C66.3827 25.002 71.999 19.389 72 12.5032C72.0015 5.61395 66.3925 0.00195421 59.5034 5.10171e-07C52.6153 -0.00195319 47.002 5.6076 47 12.4963Z" fill="#2195F2"/>
<path d="M62.8901 13.5338C63.5983 13.5338 64.3061 13.5421 65.0138 13.5308C65.5203 13.523 65.9422 13.1313 65.9965 12.6487C66.0565 12.11 65.7606 11.6504 65.2609 11.5004C65.1256 11.4599 64.9874 11.4643 64.8497 11.4643C63.5153 11.4633 62.1805 11.4643 60.8461 11.4638C60.6397 11.4638 60.5365 11.3568 60.5365 11.1429C60.5365 9.76751 60.5384 8.3926 60.534 7.01719C60.5326 6.58494 60.324 6.26697 59.9347 6.08968C59.5474 5.91336 59.1694 5.96171 58.8363 6.2323C58.5662 6.4516 58.4612 6.7471 58.4627 7.09485C58.468 8.45365 58.4592 9.81293 58.4705 11.1717C58.4724 11.4057 58.4123 11.4716 58.1755 11.4697C56.7923 11.4584 55.4086 11.4628 54.0254 11.4658C53.5819 11.4667 53.2586 11.6816 53.0842 12.0822C52.9108 12.4807 52.9709 12.8656 53.262 13.1962C53.4862 13.4507 53.7783 13.5401 54.1148 13.5386C55.4574 13.5328 56.8001 13.5362 58.1427 13.5362C58.3573 13.5362 58.4646 13.6472 58.4646 13.8693C58.4651 15.2447 58.4622 16.6196 58.468 17.995C58.47 18.4395 58.6995 18.7574 59.1005 18.925C59.4913 19.0886 59.8688 19.0261 60.1936 18.7428C60.4495 18.5191 60.5399 18.228 60.5389 17.8915C60.5335 16.5405 60.5433 15.1895 60.5306 13.839C60.5282 13.5909 60.5917 13.523 60.8403 13.5298C61.5236 13.5479 62.2073 13.5362 62.8906 13.5362V13.5338H62.8901Z" fill="#F9F9F9"/>
</g>
<defs>
<clipPath id="clip0_3480_5783">
<rect width="25" height="25" fill="white" transform="matrix(-1 0 0 1 72 0)"/>
</clipPath>
</defs>
</svg>
