<svg width="18" height="18" viewBox="0 0 18 18" fill="none" xmlns="http://www.w3.org/2000/svg">
<g clip-path="url(#clip0_3761_6077)">
<path d="M6.95315 5.45126C6.14989 5.45205 5.52616 6.09656 5.53153 6.92006C5.5369 7.73571 6.17981 8.38257 6.9754 8.37158C7.7472 8.36059 8.3809 7.70588 8.38474 6.91535C8.38857 6.10127 7.7518 5.45048 6.95315 5.45126ZM6.96389 7.52767C6.62939 7.5316 6.35013 7.26469 6.33709 6.92791C6.32481 6.58721 6.62785 6.27005 6.96159 6.27476C7.28995 6.28026 7.5577 6.56208 7.55923 6.90514C7.56077 7.25291 7.30222 7.52296 6.96389 7.52767Z" fill="#F7F9FA"/>
<path d="M12.0718 6.44746C10.2182 8.34175 8.36619 10.2368 6.51571 12.1335C6.3101 12.3446 6.08685 12.4553 5.85439 12.2151C5.62116 11.9749 5.73394 11.748 5.93955 11.5384C7.7931 9.6449 9.64511 7.74905 11.4956 5.85319C11.6513 5.69305 11.8147 5.59099 12.0395 5.7009C12.1953 5.77705 12.2513 5.916 12.2712 6.07065C12.2536 6.23001 12.1746 6.34227 12.0718 6.44746Z" fill="#F7F9FA"/>
<path d="M11.0538 9.62842C10.2644 9.62371 9.6138 10.2839 9.61304 11.0909C9.61227 11.9042 10.2513 12.5519 11.0508 12.548C11.8533 12.544 12.4739 11.8972 12.4662 11.0729C12.4586 10.2729 11.8333 9.63392 11.0538 9.62842ZM11.6584 11.1341C11.6323 11.467 11.3316 11.7417 11.0124 11.7229C10.6672 11.7025 10.4117 11.3932 10.4416 11.0321C10.4692 10.6914 10.7531 10.4496 11.0945 10.4755C11.4259 10.4998 11.6845 10.802 11.6584 11.1341Z" fill="#F7F9FA"/>
<path d="M16.9633 10.357C17.2004 10.1584 17.4467 9.96767 17.6584 9.74315C18.1126 9.25957 18.1157 8.7336 17.6546 8.25473C17.3876 7.97683 17.0784 7.73975 16.7823 7.49168C16.5882 7.32918 16.5306 7.15176 16.6472 6.90919C16.8091 6.57005 16.9733 6.22935 17.0976 5.87452C17.3392 5.18683 17.1052 4.69618 16.427 4.46146C16.114 4.35312 15.7887 4.27933 15.4634 4.21496C15.1343 4.15058 14.9832 3.97081 14.9909 3.62618C14.9978 3.28705 15.0001 2.94556 14.9732 2.60721C14.9195 1.91795 14.5336 1.58589 13.8569 1.61179C13.4964 1.62514 13.1503 1.72562 12.8074 1.81825C12.4507 1.9156 12.2497 1.79863 12.1177 1.46813C12.0364 1.26324 11.932 1.06776 11.8338 0.870721C11.339 -0.119989 10.7667 -0.255015 9.9097 0.415403C9.69642 0.581829 9.4839 0.749041 9.27446 0.919393C9.08726 1.07169 8.90697 1.07012 8.72131 0.917823C8.51186 0.746686 8.29935 0.579474 8.08607 0.413048C7.22757 -0.255015 6.65755 -0.118419 6.1627 0.873076C6.0645 1.0709 5.96016 1.26638 5.87884 1.47049C5.74611 1.80334 5.54204 1.91324 5.18759 1.81747C4.84466 1.72405 4.49865 1.62435 4.1373 1.61101C3.46217 1.58667 3.07857 1.91874 3.02333 2.61035C2.99878 2.92201 2.99801 3.23759 3.00952 3.55082C3.0241 3.93549 2.886 4.15451 2.49319 4.22595C2.13184 4.29189 1.76512 4.36254 1.42525 4.52034C0.905861 4.76213 0.718665 5.16406 0.858295 5.7285C0.943454 6.07391 1.11838 6.37851 1.26031 6.69801C1.4966 7.22948 1.492 7.25774 1.0616 7.6165C0.90356 7.74839 0.738612 7.87321 0.584405 8.00902C-0.196602 8.69828 -0.195068 9.30511 0.586707 9.99279C0.664194 10.0611 0.746284 10.1231 0.82684 10.1883C1.2892 10.5619 1.38792 11.0275 1.12298 11.5848C0.515357 12.8652 0.763162 13.3833 2.12187 13.6974C3.01412 13.9038 3.01029 13.7751 3.01335 14.8443C3.01335 14.9887 3.00722 15.1324 3.01489 15.2761C3.05555 16.0948 3.45449 16.4583 4.25468 16.3743C4.58304 16.3398 4.90757 16.2573 5.22826 16.1734C5.52133 16.0972 5.72003 16.1718 5.84738 16.4615C5.96707 16.7346 6.09519 17.0055 6.23712 17.2669C6.68133 18.0841 7.2245 18.2129 7.96485 17.6759C8.21419 17.4946 8.45356 17.2975 8.69062 17.0997C8.90237 16.9246 9.09954 16.9309 9.30975 17.102C9.58978 17.3297 9.8652 17.566 10.1636 17.7646C10.7659 18.1673 11.2814 18.0519 11.6627 17.431C11.8377 17.1452 11.9842 16.8375 12.1169 16.5282C12.2581 16.1985 12.456 16.0862 12.8097 16.1828C13.1526 16.2754 13.4987 16.3751 13.86 16.3884C14.5351 16.4128 14.9187 16.0807 14.9732 15.3891C14.9985 15.0774 14.9993 14.7619 14.9878 14.4486C14.9724 14.0632 15.1113 13.8449 15.5041 13.7735C15.8662 13.7083 16.2322 13.6377 16.572 13.4791C17.0937 13.2358 17.2786 12.8377 17.139 12.271C17.0569 11.9389 16.892 11.6437 16.7516 11.3376C16.4915 10.7715 16.5007 10.7456 16.9633 10.357ZM16.2514 9.87661C15.7274 10.3476 15.633 10.7472 15.8946 11.4121C16.0089 11.701 16.1432 11.9829 16.279 12.2631C16.4163 12.5457 16.3895 12.7255 16.0427 12.7875C15.755 12.8385 15.4719 12.921 15.1888 13.0003C14.4914 13.1957 14.2359 13.5121 14.193 14.2437C14.1723 14.5954 14.1684 14.9487 14.1592 15.3012C14.1531 15.5226 14.0526 15.6018 13.8378 15.5547C13.4764 15.4755 13.1135 15.404 12.7506 15.3349C12.1906 15.2282 11.7748 15.4425 11.5032 15.9457C11.3252 16.2762 11.1625 16.6161 10.9961 16.9537C10.8909 17.1672 10.7575 17.1955 10.5741 17.0471C10.324 16.8438 10.0746 16.6404 9.81533 16.4497C9.20771 16.003 8.78499 16.0038 8.1743 16.4544C7.9357 16.6295 7.70324 16.8139 7.47998 17.0086C7.23678 17.2198 7.08181 17.1507 6.95599 16.8791C6.82633 16.5965 6.69437 16.3139 6.54784 16.0399C6.21641 15.4197 5.87884 15.2439 5.20064 15.3444C4.87304 15.393 4.54545 15.455 4.22629 15.5422C3.92325 15.6246 3.83042 15.4943 3.82658 15.2148C3.82121 14.8749 3.82045 14.535 3.79897 14.1959C3.75754 13.5309 3.50053 13.2028 2.87449 13.0152C2.55687 12.9202 2.23235 12.8464 1.90936 12.7734C1.64774 12.7145 1.56719 12.5881 1.69531 12.3298C1.83417 12.0511 1.96153 11.767 2.08044 11.4789C2.38042 10.7551 2.27684 10.3327 1.68227 9.82009C1.45748 9.62618 1.23039 9.43621 1.00023 9.24937C0.786178 9.07509 0.799221 8.91337 1.00636 8.74459C1.2557 8.54127 1.50581 8.33795 1.74594 8.12285C2.26917 7.65183 2.36354 7.25225 2.10192 6.58732C1.98301 6.28509 1.84721 5.98991 1.70528 5.69867C1.57946 5.44039 1.61936 5.28574 1.91703 5.22294C2.24155 5.15464 2.56454 5.07692 2.88216 4.98115C3.50666 4.79274 3.7583 4.46617 3.8005 3.79497C3.82198 3.44327 3.82505 3.09001 3.83272 2.73753C3.83733 2.48239 3.94166 2.38976 4.19637 2.45021C4.55542 2.53656 4.91984 2.60564 5.28426 2.66923C5.81056 2.76108 6.21257 2.55932 6.47265 2.08752C6.66061 1.74682 6.82786 1.39512 7.00048 1.04657C7.10559 0.832255 7.23831 0.803994 7.42167 0.95315C7.69173 1.17139 7.96025 1.39434 8.24258 1.59531C8.78575 1.98154 9.21615 1.97997 9.76086 1.59217C10.0217 1.40533 10.2726 1.202 10.5166 0.990831C10.7598 0.780443 10.914 0.847955 11.0405 1.11958C11.1825 1.42495 11.3267 1.73112 11.4855 2.02786C11.7609 2.54284 12.1798 2.77599 12.7583 2.66373C13.0959 2.59779 13.438 2.54598 13.7695 2.45727C14.0717 2.37641 14.17 2.5028 14.1692 2.78306C14.1692 2.97932 14.1692 3.17558 14.1692 3.32002C14.1868 3.594 14.1884 3.81695 14.2191 4.03597C14.2942 4.57215 14.6494 4.84534 15.122 4.98429C15.4397 5.07771 15.7634 5.15307 16.0872 5.22608C16.3488 5.28496 16.4278 5.41056 16.302 5.66962C16.1547 5.97264 16.0158 6.28038 15.8931 6.59439C15.6338 7.25774 15.7304 7.65889 16.2567 8.12834C16.4976 8.34266 16.7477 8.54598 16.9971 8.7493C17.2104 8.92358 17.1988 9.08608 16.9917 9.25486C16.7424 9.45897 16.4907 9.66072 16.2514 9.87661Z" fill="#F7F9FA"/>
<path d="M6.95315 5.45126C6.14989 5.45205 5.52616 6.09656 5.53153 6.92006C5.5369 7.73571 6.17981 8.38257 6.9754 8.37158C7.7472 8.36059 8.3809 7.70588 8.38474 6.91535C8.38857 6.10127 7.7518 5.45048 6.95315 5.45126ZM6.96389 7.52767C6.62939 7.5316 6.35013 7.26469 6.33709 6.92791C6.32481 6.58721 6.62785 6.27005 6.96159 6.27476C7.28995 6.28026 7.5577 6.56208 7.55923 6.90514C7.56077 7.25291 7.30222 7.52296 6.96389 7.52767Z" fill="black"/>
<path d="M12.0718 6.44746C10.2182 8.34175 8.36619 10.2368 6.51571 12.1335C6.3101 12.3446 6.08685 12.4553 5.85439 12.2151C5.62116 11.9749 5.73394 11.748 5.93955 11.5384C7.7931 9.6449 9.64511 7.74905 11.4956 5.85319C11.6513 5.69305 11.8147 5.59099 12.0395 5.7009C12.1953 5.77705 12.2513 5.916 12.2712 6.07065C12.2536 6.23001 12.1746 6.34227 12.0718 6.44746Z" fill="black"/>
<path d="M11.0538 9.62842C10.2644 9.62371 9.6138 10.2839 9.61304 11.0909C9.61227 11.9042 10.2513 12.5519 11.0508 12.548C11.8533 12.544 12.4739 11.8972 12.4662 11.0729C12.4586 10.2729 11.8333 9.63392 11.0538 9.62842ZM11.6584 11.1341C11.6323 11.467 11.3316 11.7417 11.0124 11.7229C10.6672 11.7025 10.4117 11.3932 10.4416 11.0321C10.4692 10.6914 10.7531 10.4496 11.0945 10.4755C11.4259 10.4998 11.6845 10.802 11.6584 11.1341Z" fill="black"/>
<path d="M16.9633 10.357C17.2004 10.1584 17.4467 9.96767 17.6584 9.74315C18.1126 9.25957 18.1157 8.7336 17.6546 8.25473C17.3876 7.97683 17.0784 7.73975 16.7823 7.49168C16.5882 7.32918 16.5306 7.15176 16.6472 6.90919C16.8091 6.57005 16.9733 6.22935 17.0976 5.87452C17.3392 5.18683 17.1052 4.69618 16.427 4.46146C16.114 4.35312 15.7887 4.27933 15.4634 4.21496C15.1343 4.15058 14.9832 3.97081 14.9909 3.62618C14.9978 3.28705 15.0001 2.94556 14.9732 2.60721C14.9195 1.91795 14.5336 1.58589 13.8569 1.61179C13.4964 1.62514 13.1503 1.72562 12.8074 1.81825C12.4507 1.9156 12.2497 1.79863 12.1177 1.46813C12.0364 1.26324 11.932 1.06776 11.8338 0.870721C11.339 -0.119989 10.7667 -0.255015 9.9097 0.415403C9.69642 0.581829 9.4839 0.749041 9.27446 0.919393C9.08726 1.07169 8.90697 1.07012 8.72131 0.917823C8.51186 0.746686 8.29935 0.579474 8.08607 0.413048C7.22757 -0.255015 6.65755 -0.118419 6.1627 0.873076C6.0645 1.0709 5.96016 1.26638 5.87884 1.47049C5.74611 1.80334 5.54204 1.91324 5.18759 1.81747C4.84466 1.72405 4.49865 1.62435 4.1373 1.61101C3.46217 1.58667 3.07857 1.91874 3.02333 2.61035C2.99878 2.92201 2.99801 3.23759 3.00952 3.55082C3.0241 3.93549 2.886 4.15451 2.49319 4.22595C2.13184 4.29189 1.76512 4.36254 1.42525 4.52034C0.905861 4.76213 0.718665 5.16406 0.858295 5.7285C0.943454 6.07391 1.11838 6.37851 1.26031 6.69801C1.4966 7.22948 1.492 7.25774 1.0616 7.6165C0.90356 7.74839 0.738612 7.87321 0.584405 8.00902C-0.196602 8.69828 -0.195068 9.30511 0.586707 9.99279C0.664194 10.0611 0.746284 10.1231 0.82684 10.1883C1.2892 10.5619 1.38792 11.0275 1.12298 11.5848C0.515357 12.8652 0.763162 13.3833 2.12187 13.6974C3.01412 13.9038 3.01029 13.7751 3.01335 14.8443C3.01335 14.9887 3.00722 15.1324 3.01489 15.2761C3.05555 16.0948 3.45449 16.4583 4.25468 16.3743C4.58304 16.3398 4.90757 16.2573 5.22826 16.1734C5.52133 16.0972 5.72003 16.1718 5.84738 16.4615C5.96707 16.7346 6.09519 17.0055 6.23712 17.2669C6.68133 18.0841 7.2245 18.2129 7.96485 17.6759C8.21419 17.4946 8.45356 17.2975 8.69062 17.0997C8.90237 16.9246 9.09954 16.9309 9.30975 17.102C9.58978 17.3297 9.8652 17.566 10.1636 17.7646C10.7659 18.1673 11.2814 18.0519 11.6627 17.431C11.8377 17.1452 11.9842 16.8375 12.1169 16.5282C12.2581 16.1985 12.456 16.0862 12.8097 16.1828C13.1526 16.2754 13.4987 16.3751 13.86 16.3884C14.5351 16.4128 14.9187 16.0807 14.9732 15.3891C14.9985 15.0774 14.9993 14.7619 14.9878 14.4486C14.9724 14.0632 15.1113 13.8449 15.5041 13.7735C15.8662 13.7083 16.2322 13.6377 16.572 13.4791C17.0937 13.2358 17.2786 12.8377 17.139 12.271C17.0569 11.9389 16.892 11.6437 16.7516 11.3376C16.4915 10.7715 16.5007 10.7456 16.9633 10.357ZM16.2514 9.87661C15.7274 10.3476 15.633 10.7472 15.8946 11.4121C16.0089 11.701 16.1432 11.9829 16.279 12.2631C16.4163 12.5457 16.3895 12.7255 16.0427 12.7875C15.755 12.8385 15.4719 12.921 15.1888 13.0003C14.4914 13.1957 14.2359 13.5121 14.193 14.2437C14.1723 14.5954 14.1684 14.9487 14.1592 15.3012C14.1531 15.5226 14.0526 15.6018 13.8378 15.5547C13.4764 15.4755 13.1135 15.404 12.7506 15.3349C12.1906 15.2282 11.7748 15.4425 11.5032 15.9457C11.3252 16.2762 11.1625 16.6161 10.9961 16.9537C10.8909 17.1672 10.7575 17.1955 10.5741 17.0471C10.324 16.8438 10.0746 16.6404 9.81533 16.4497C9.20771 16.003 8.78499 16.0038 8.1743 16.4544C7.9357 16.6295 7.70324 16.8139 7.47998 17.0086C7.23678 17.2198 7.08181 17.1507 6.95599 16.8791C6.82633 16.5965 6.69437 16.3139 6.54784 16.0399C6.21641 15.4197 5.87884 15.2439 5.20064 15.3444C4.87304 15.393 4.54545 15.455 4.22629 15.5422C3.92325 15.6246 3.83042 15.4943 3.82658 15.2148C3.82121 14.8749 3.82045 14.535 3.79897 14.1959C3.75754 13.5309 3.50053 13.2028 2.87449 13.0152C2.55687 12.9202 2.23235 12.8464 1.90936 12.7734C1.64774 12.7145 1.56719 12.5881 1.69531 12.3298C1.83417 12.0511 1.96153 11.767 2.08044 11.4789C2.38042 10.7551 2.27684 10.3327 1.68227 9.82009C1.45748 9.62618 1.23039 9.43621 1.00023 9.24937C0.786178 9.07509 0.799221 8.91337 1.00636 8.74459C1.2557 8.54127 1.50581 8.33795 1.74594 8.12285C2.26917 7.65183 2.36354 7.25225 2.10192 6.58732C1.98301 6.28509 1.84721 5.98991 1.70528 5.69867C1.57946 5.44039 1.61936 5.28574 1.91703 5.22294C2.24155 5.15464 2.56454 5.07692 2.88216 4.98115C3.50666 4.79274 3.7583 4.46617 3.8005 3.79497C3.82198 3.44327 3.82505 3.09001 3.83272 2.73753C3.83733 2.48239 3.94166 2.38976 4.19637 2.45021C4.55542 2.53656 4.91984 2.60564 5.28426 2.66923C5.81056 2.76108 6.21257 2.55932 6.47265 2.08752C6.66061 1.74682 6.82786 1.39512 7.00048 1.04657C7.10559 0.832255 7.23831 0.803994 7.42167 0.95315C7.69173 1.17139 7.96025 1.39434 8.24258 1.59531C8.78575 1.98154 9.21615 1.97997 9.76086 1.59217C10.0217 1.40533 10.2726 1.202 10.5166 0.990831C10.7598 0.780443 10.914 0.847955 11.0405 1.11958C11.1825 1.42495 11.3267 1.73112 11.4855 2.02786C11.7609 2.54284 12.1798 2.77599 12.7583 2.66373C13.0959 2.59779 13.438 2.54598 13.7695 2.45727C14.0717 2.37641 14.17 2.5028 14.1692 2.78306C14.1692 2.97932 14.1692 3.17558 14.1692 3.32002C14.1868 3.594 14.1884 3.81695 14.2191 4.03597C14.2942 4.57215 14.6494 4.84534 15.122 4.98429C15.4397 5.07771 15.7634 5.15307 16.0872 5.22608C16.3488 5.28496 16.4278 5.41056 16.302 5.66962C16.1547 5.97264 16.0158 6.28038 15.8931 6.59439C15.6338 7.25774 15.7304 7.65889 16.2567 8.12834C16.4976 8.34266 16.7477 8.54598 16.9971 8.7493C17.2104 8.92358 17.1988 9.08608 16.9917 9.25486C16.7424 9.45897 16.4907 9.66072 16.2514 9.87661Z" fill="black"/>
<path d="M6.95315 5.45126C6.14989 5.45205 5.52616 6.09656 5.53153 6.92006C5.5369 7.73571 6.17981 8.38257 6.9754 8.37158C7.7472 8.36059 8.3809 7.70588 8.38474 6.91535C8.38857 6.10127 7.7518 5.45048 6.95315 5.45126ZM6.96389 7.52767C6.62939 7.5316 6.35013 7.26469 6.33709 6.92791C6.32481 6.58721 6.62785 6.27005 6.96159 6.27476C7.28995 6.28026 7.5577 6.56208 7.55923 6.90514C7.56077 7.25291 7.30222 7.52296 6.96389 7.52767Z" fill="#F7F9FA"/>
<path d="M12.0718 6.44746C10.2182 8.34175 8.36619 10.2368 6.51571 12.1335C6.3101 12.3446 6.08685 12.4553 5.85439 12.2151C5.62116 11.9749 5.73394 11.748 5.93955 11.5384C7.7931 9.6449 9.64511 7.74905 11.4956 5.85319C11.6513 5.69305 11.8147 5.59099 12.0395 5.7009C12.1953 5.77705 12.2513 5.916 12.2712 6.07065C12.2536 6.23001 12.1746 6.34227 12.0718 6.44746Z" fill="#F7F9FA"/>
<path d="M11.0538 9.62842C10.2644 9.62371 9.6138 10.2839 9.61304 11.0909C9.61227 11.9042 10.2513 12.5519 11.0508 12.548C11.8533 12.544 12.4739 11.8972 12.4662 11.0729C12.4586 10.2729 11.8333 9.63392 11.0538 9.62842ZM11.6584 11.1341C11.6323 11.467 11.3316 11.7417 11.0124 11.7229C10.6672 11.7025 10.4117 11.3932 10.4416 11.0321C10.4692 10.6914 10.7531 10.4496 11.0945 10.4755C11.4259 10.4998 11.6845 10.802 11.6584 11.1341Z" fill="#F7F9FA"/>
<path d="M12.2712 6.07065C12.2536 6.23001 12.1746 6.34227 12.0718 6.44746C10.2182 8.34175 8.36619 10.2368 6.51571 12.1335C6.3101 12.3446 6.08685 12.4553 5.85439 12.2151C5.62116 11.9749 5.73394 11.748 5.93955 11.5384C7.7931 9.6449 9.64511 7.74905 11.4956 5.85319C11.6513 5.69305 11.8147 5.59099 12.0395 5.7009C12.1953 5.77705 12.2513 5.916 12.2712 6.07065Z" fill="black"/>
<path d="M6.95315 5.45126C6.14989 5.45205 5.52616 6.09656 5.53153 6.92006C5.5369 7.73571 6.17981 8.38257 6.9754 8.37158C7.7472 8.36059 8.3809 7.70588 8.38474 6.91535C8.38857 6.10127 7.7518 5.45048 6.95315 5.45126ZM6.96389 7.52767C6.62939 7.5316 6.35013 7.26469 6.33709 6.92791C6.32481 6.58721 6.62785 6.27005 6.96159 6.27476C7.28995 6.28026 7.5577 6.56208 7.55923 6.90514C7.56077 7.25291 7.30222 7.52296 6.96389 7.52767Z" fill="black"/>
<path d="M11.0538 9.62842C10.2644 9.62371 9.6138 10.2839 9.61304 11.0909C9.61227 11.9042 10.2513 12.5519 11.0508 12.548C11.8533 12.544 12.4739 11.8972 12.4662 11.0729C12.4586 10.2729 11.8333 9.63392 11.0538 9.62842ZM11.6584 11.1341C11.6323 11.467 11.3316 11.7417 11.0124 11.7229C10.6672 11.7025 10.4117 11.3932 10.4416 11.0321C10.4692 10.6914 10.7531 10.4496 11.0945 10.4755C11.4259 10.4998 11.6845 10.802 11.6584 11.1341Z" fill="black"/>
</g>
<defs>
<clipPath id="clip0_3761_6077">
<rect width="18" height="18" fill="white"/>
</clipPath>
</defs>
</svg>
