<svg width="12" height="24" viewBox="0 0 12 24" fill="none" xmlns="http://www.w3.org/2000/svg">
<g clip-path="url(#clip0_1232_3288)">
<path d="M5.59269 21.9878C5.38775 21.8836 5.16152 21.8282 4.93164 21.8258C4.70176 21.8234 4.47444 21.8742 4.26738 21.9741L3.19842 22.5963H2.70065L2.04857 23.0941L1.93408 23.3977L2.3211 23.3902L2.56998 23.5383L2.98313 24.0062L3.4921 23.9963L5.60763 22.7668C5.96727 22.5453 5.96229 22.2018 5.59269 21.9878Z" fill="#E6E6E6"/>
<path d="M3.6261 21.3867H3.65473C3.809 21.4158 3.94793 21.4987 4.04672 21.6207L3.8501 21.7264L3.77792 21.6605C3.75058 21.8179 3.66863 21.9607 3.54646 22.0637L3.63855 22.0935L3.65348 22.3163C3.57122 22.3059 3.49185 22.2793 3.42005 22.2378C3.34824 22.1963 3.28545 22.1409 3.23535 22.0749C3.2087 22.0321 3.19568 21.9822 3.19802 21.9318C3.20326 21.83 3.23234 21.731 3.28292 21.6426C3.33351 21.5541 3.40417 21.4789 3.48922 21.4228C3.52927 21.3981 3.5753 21.3847 3.62237 21.3842L3.6261 21.3867Z" fill="#777A85"/>
<path d="M3.79071 21.6007C3.70583 21.6567 3.63526 21.7318 3.58468 21.8199C3.53411 21.9081 3.50494 22.0069 3.49951 22.1085C3.49951 22.2964 3.63018 22.3723 3.79071 22.2789C3.87617 22.2235 3.94724 22.1486 3.99808 22.0603C4.04892 21.972 4.07808 21.873 4.08315 21.7712C4.08688 21.5846 3.95622 21.5074 3.79071 21.6007Z" fill="#262626"/>
<path d="M3.96077 22.0338C4.03123 21.9102 4.03028 21.7769 3.95863 21.7361C3.88698 21.6952 3.77179 21.7623 3.70132 21.8859C3.63085 22.0095 3.63181 22.1428 3.70345 22.1836C3.7751 22.2245 3.8903 22.1574 3.96077 22.0338Z" fill="#262626"/>
<path d="M3.72228 22.1097C3.77533 22.0751 3.81945 22.0284 3.85102 21.9735C3.8826 21.9185 3.90074 21.8569 3.90397 21.7936C3.90454 21.7707 3.90074 21.7479 3.89277 21.7264C3.96246 21.7165 4.01721 21.765 4.01721 21.8509C4.01369 21.9141 3.99542 21.9756 3.96388 22.0305C3.93233 22.0854 3.88837 22.1321 3.83552 22.167C3.75713 22.2118 3.69117 22.1931 3.66504 22.1272C3.68503 22.1249 3.70443 22.119 3.72228 22.1097Z" fill="#777A85"/>
<path d="M4.75735 22.3536L4.6329 22.5677L3.72572 22.0438C3.718 22.0373 3.71194 22.029 3.70805 22.0197C3.70415 22.0104 3.70253 22.0003 3.70332 21.9903C3.70498 21.9598 3.71385 21.9301 3.72921 21.9037C3.74457 21.8773 3.76598 21.855 3.79167 21.8384C3.79985 21.8326 3.80937 21.8288 3.81936 21.8275C3.82934 21.8262 3.8395 21.8274 3.84892 21.831L4.75735 22.3536Z" fill="#262626"/>
<path d="M4.4588 22.0251C4.41715 21.9491 4.39896 21.8625 4.40653 21.7762L4.28209 21.7028C4.28987 21.736 4.28916 21.7706 4.28003 21.8034C4.27089 21.8363 4.25363 21.8663 4.22983 21.8907C4.1859 21.9259 4.13358 21.949 4.07801 21.9579L3.99463 22.0301L4.09045 22.0413L4.15889 22.0139V22.0064L4.36796 22.1309L4.41898 22.2553L4.526 22.3424L4.61062 22.2715C4.55332 22.1937 4.50255 22.1113 4.4588 22.0251Z" fill="#777A85"/>
<path d="M4.37396 22.096C4.33216 22.0201 4.31397 21.9335 4.32169 21.8471L4.19725 21.7737C4.20463 21.8072 4.20361 21.842 4.19427 21.875C4.18494 21.908 4.16757 21.9382 4.14374 21.9629C4.09955 21.9968 4.04795 22.0198 3.99316 22.0301L4.52827 22.3387C4.47001 22.2623 4.41839 22.1812 4.37396 22.096Z" fill="#262626"/>
<path d="M4.69014 22.3561C4.66488 22.373 4.64387 22.3954 4.62876 22.4218C4.61364 22.4481 4.60484 22.4776 4.60303 22.5079C4.60303 22.5639 4.64285 22.5876 4.69014 22.5589C4.71567 22.5424 4.73689 22.52 4.75204 22.4936C4.76719 22.4672 4.77583 22.4375 4.77725 22.4071C4.77725 22.3511 4.73867 22.3287 4.69014 22.3561Z" fill="#ECEBF2"/>
<path d="M4.67884 21.9977C4.68834 21.9965 4.69796 21.9965 4.70746 21.9977C4.86148 22.0265 5.00009 22.1095 5.09821 22.2317L4.90284 22.3362L4.82942 22.2715C4.80418 22.4304 4.72243 22.5749 4.5992 22.6784L4.69128 22.7083L4.70622 22.9323C4.62386 22.9218 4.54443 22.8949 4.47262 22.8532C4.40081 22.8116 4.33807 22.7559 4.28809 22.6896C4.26143 22.6468 4.24841 22.5969 4.25076 22.5465C4.25632 22.4449 4.28568 22.346 4.33648 22.2578C4.38728 22.1696 4.45809 22.0946 4.5432 22.0388C4.58317 22.0137 4.62919 22 4.67635 21.999L4.67884 21.9977Z" fill="#777A85"/>
<path d="M4.84713 22.2118C4.76178 22.2676 4.69082 22.3428 4.64001 22.4313C4.58919 22.5197 4.55996 22.6189 4.55469 22.7207C4.55469 22.9074 4.67913 22.9846 4.84713 22.8912C4.93217 22.8353 5.00293 22.7603 5.05371 22.6721C5.1045 22.584 5.13391 22.4851 5.13957 22.3835C5.13957 22.1956 5.00766 22.1197 4.84713 22.2118Z" fill="#262626"/>
<path d="M4.88188 22.3611C4.8289 22.3958 4.78484 22.4425 4.75327 22.4974C4.72171 22.5524 4.70352 22.6139 4.7002 22.6772C4.7002 22.7929 4.78233 22.8415 4.88188 22.783C4.935 22.7484 4.97917 22.7017 5.01075 22.6468C5.04234 22.5918 5.06044 22.5302 5.06357 22.4669C5.06357 22.3511 4.98268 22.3051 4.88188 22.3611Z" fill="#262626"/>
<path d="M4.77475 22.7207C4.82787 22.6862 4.87204 22.6395 4.90362 22.5845C4.93521 22.5296 4.95331 22.4679 4.95644 22.4046C4.957 22.3817 4.9532 22.3589 4.94524 22.3374C5.01368 22.3275 5.06968 22.376 5.06968 22.4619C5.06655 22.5252 5.04845 22.5868 5.01687 22.6418C4.98528 22.6967 4.94111 22.7434 4.88799 22.778C4.81084 22.8228 4.74364 22.8041 4.71875 22.7394C4.73829 22.7362 4.7572 22.7299 4.77475 22.7207Z" fill="#777A85"/>
<path d="M4.92312 22.4295L4.84721 22.3847C4.77171 22.4483 4.72104 22.5364 4.7041 22.6336L4.77752 22.6759L4.92312 22.4295Z" fill="#777A85"/>
<path d="M4.85058 22.4358C4.82088 22.4557 4.7962 22.4823 4.7785 22.5134C4.76079 22.5445 4.75054 22.5792 4.74854 22.615C4.74854 22.6809 4.79458 22.707 4.85058 22.6747C4.88069 22.6554 4.90577 22.6291 4.92373 22.5982C4.94169 22.5672 4.95202 22.5325 4.95387 22.4967C4.95387 22.4295 4.91031 22.4034 4.85058 22.4358Z" fill="#262626"/>
<path d="M4.86077 22.6635L4.8085 22.6324C4.8027 22.6275 4.79811 22.6214 4.79508 22.6145C4.79206 22.6076 4.79069 22.6001 4.79108 22.5926C4.79241 22.5709 4.79872 22.5499 4.80951 22.5311C4.82031 22.5124 4.83529 22.4963 4.8533 22.4843C4.85992 22.4805 4.86743 22.4785 4.87508 22.4785C4.88272 22.4785 4.89024 22.4805 4.89686 22.4843L4.95037 22.5154L4.86077 22.6635Z" fill="#777A85"/>
<path d="M4.91037 22.5154C4.89218 22.5269 4.87703 22.5427 4.8662 22.5613C4.85537 22.5799 4.84918 22.6009 4.84814 22.6224C4.84814 22.6622 4.87552 22.6784 4.91037 22.6585C4.92863 22.647 4.94383 22.6313 4.95467 22.6127C4.96551 22.594 4.97166 22.573 4.97259 22.5515C4.96761 22.5117 4.94023 22.4955 4.91037 22.5154Z" fill="#262626"/>
<path d="M2.29736 23.0692L2.42181 23.2832L4.1864 22.2565C4.19389 22.2499 4.19972 22.2416 4.20339 22.2323C4.20707 22.223 4.2085 22.213 4.20756 22.203C4.20614 22.1726 4.1975 22.143 4.18235 22.1166C4.1672 22.0902 4.14598 22.0678 4.12045 22.0512C4.11233 22.0452 4.10287 22.0413 4.0929 22.0398C4.08293 22.0383 4.07274 22.0392 4.0632 22.0425L2.29736 23.0692Z" fill="#777A85"/>
<path d="M2.36934 23.0717C2.39466 23.0884 2.41572 23.1109 2.43084 23.1373C2.44597 23.1636 2.45473 23.1931 2.45645 23.2235C2.45645 23.2795 2.41662 23.3019 2.36934 23.2745C2.3438 23.2579 2.32258 23.2355 2.30744 23.2091C2.29229 23.1827 2.28365 23.1531 2.28223 23.1227C2.28223 23.0667 2.3208 23.0443 2.36934 23.0717Z" fill="#ECEBF2"/>
<path d="M1.89047 22.4557H1.91909C2.0731 22.4845 2.21172 22.5675 2.30984 22.6896L2.11446 22.7954L2.04229 22.7294C2.01487 22.8865 1.9329 23.0288 1.81082 23.1314L1.90291 23.1613L1.91784 23.3853C1.83558 23.3749 1.75621 23.3482 1.68441 23.3068C1.6126 23.2653 1.54981 23.2099 1.49972 23.1438C1.47395 23.1002 1.46142 23.0501 1.46363 22.9995C1.46905 22.898 1.49823 22.7992 1.5488 22.711C1.59938 22.6228 1.66994 22.5477 1.75482 22.4918C1.79504 22.4673 1.84091 22.4535 1.88798 22.4519L1.89047 22.4557Z" fill="#777A85"/>
<path d="M2.05807 22.6709C1.97275 22.7265 1.90178 22.8015 1.85096 22.8897C1.80013 22.978 1.77089 23.077 1.76562 23.1787C1.76562 23.3653 1.89629 23.4425 2.05807 23.3492C2.14311 23.2933 2.21386 23.2182 2.26465 23.1301C2.31544 23.0419 2.34484 22.943 2.3505 22.8414C2.3505 22.6535 2.2186 22.5776 2.05807 22.6709Z" fill="#262626"/>
<path d="M2.09331 22.819C2.04046 22.8539 1.99651 22.9006 1.96496 22.9555C1.93341 23.0104 1.91514 23.0719 1.91162 23.1351C1.91162 23.2521 1.99375 23.2994 2.09331 23.2409C2.14634 23.2065 2.19045 23.1601 2.22204 23.1053C2.25362 23.0506 2.27177 22.9892 2.275 22.9261C2.275 22.8091 2.19411 22.7618 2.09331 22.819Z" fill="#262626"/>
<path d="M1.98605 23.1762C2.03896 23.1414 2.08297 23.0947 2.11453 23.0398C2.14609 22.9849 2.16431 22.9233 2.16774 22.8601C2.1683 22.8372 2.1645 22.8144 2.15654 22.7929C2.22498 22.7817 2.27476 22.8302 2.27476 22.9174C2.27153 22.9805 2.25338 23.0419 2.2218 23.0966C2.19022 23.1514 2.1461 23.1978 2.09307 23.2322C2.01592 23.2782 1.94872 23.2583 1.92383 23.1936C1.94545 23.1916 1.96653 23.1857 1.98605 23.1762Z" fill="#777A85"/>
<path d="M3.02009 23.4251L2.89565 23.6391L1.98846 23.1152C1.98064 23.1085 1.97453 23.1001 1.97064 23.0905C1.96674 23.081 1.96517 23.0707 1.96606 23.0605C1.96787 23.0301 1.97668 23.0007 1.99179 22.9743C2.0069 22.948 2.02791 22.9255 2.05317 22.9086C2.06175 22.9031 2.07145 22.8996 2.08157 22.8983C2.09169 22.897 2.10197 22.898 2.11166 22.9012L3.02009 23.4251Z" fill="#262626"/>
<path d="M2.72274 23.0941C2.68036 23.0184 2.66212 22.9315 2.67047 22.8452L2.54603 22.7718C2.5537 22.805 2.55293 22.8395 2.5438 22.8724C2.53467 22.9052 2.51747 22.9352 2.49377 22.9597C2.44951 22.9945 2.39739 23.018 2.34195 23.0281L2.25732 23.1003L2.35439 23.1115L2.42159 23.0829L2.63065 23.2073L2.68167 23.3318L2.78869 23.4201L2.87207 23.3479C2.81495 23.2678 2.76498 23.1829 2.72274 23.0941Z" fill="#777A85"/>
<path d="M2.63812 23.1662C2.59589 23.0905 2.57766 23.0037 2.58585 22.9173L2.46141 22.8439C2.46896 22.8771 2.46814 22.9117 2.45901 22.9445C2.44989 22.9773 2.43275 23.0073 2.40914 23.0318C2.36489 23.0667 2.31276 23.0902 2.25732 23.1003L2.79367 23.4089C2.73499 23.3326 2.68295 23.2514 2.63812 23.1662Z" fill="#262626"/>
<path d="M2.9543 23.4251C2.92876 23.4416 2.90754 23.4641 2.8924 23.4905C2.87725 23.5169 2.86861 23.5465 2.86719 23.5769C2.86719 23.6329 2.90576 23.6553 2.9543 23.6279C2.97969 23.6112 3.0008 23.5888 3.01593 23.5624C3.03106 23.536 3.03979 23.5064 3.04141 23.4761C3.0439 23.4251 3.00283 23.3989 2.9543 23.4251Z" fill="#ECEBF2"/>
<path d="M2.94181 23.0679H2.97043C3.12486 23.0965 3.26392 23.1795 3.36243 23.3019L3.16705 23.4076L3.09363 23.3417C3.06672 23.499 2.9852 23.6418 2.86341 23.7449L2.9555 23.7748L2.97043 23.9975C2.88817 23.9872 2.8088 23.9605 2.737 23.919C2.6652 23.8775 2.6024 23.8222 2.55231 23.7561C2.5254 23.7129 2.51237 23.6625 2.51497 23.6117C2.52044 23.5101 2.54976 23.4112 2.60057 23.323C2.65137 23.2347 2.72223 23.1597 2.80741 23.104C2.84739 23.0791 2.89347 23.0658 2.94057 23.0654L2.94181 23.0679Z" fill="#777A85"/>
<path d="M3.11129 23.282C3.02611 23.3377 2.95525 23.4127 2.90444 23.5009C2.85364 23.5891 2.82431 23.688 2.81885 23.7897C2.81885 23.9776 2.94951 24.0535 3.11129 23.9602C3.19637 23.9044 3.2671 23.8294 3.3177 23.7412C3.3683 23.653 3.39735 23.554 3.40248 23.4524C3.40248 23.2658 3.27182 23.1886 3.11129 23.282Z" fill="#262626"/>
<path d="M3.14604 23.4251C3.09313 23.4599 3.04912 23.5066 3.01756 23.5615C2.986 23.6164 2.96778 23.6779 2.96436 23.7412C2.96436 23.8581 3.04524 23.9054 3.14604 23.8482C3.19896 23.8134 3.24296 23.7667 3.27452 23.7118C3.30608 23.6569 3.3243 23.5953 3.32773 23.5321C3.32773 23.4251 3.24684 23.3728 3.14604 23.4251Z" fill="#262626"/>
<path d="M3.04384 23.7909C3.09669 23.7561 3.14064 23.7093 3.17219 23.6545C3.20374 23.5996 3.22201 23.5381 3.22553 23.4749C3.22573 23.4519 3.2215 23.4291 3.21308 23.4077C3.28277 23.3977 3.33752 23.4462 3.33752 23.5321C3.3341 23.5953 3.31587 23.6569 3.28432 23.7118C3.25276 23.7667 3.20875 23.8134 3.15584 23.8482C3.07744 23.893 3.01148 23.8743 2.98535 23.8084C3.00571 23.806 3.0255 23.8001 3.04384 23.7909Z" fill="#777A85"/>
<path d="M3.18706 23.4985L3.11115 23.455C3.03527 23.5184 2.98416 23.6065 2.9668 23.7038L3.04146 23.7474L3.18706 23.4985Z" fill="#777A85"/>
<path d="M3.11501 23.506C3.08489 23.5253 3.05982 23.5515 3.04186 23.5825C3.02389 23.6134 3.01356 23.6482 3.01172 23.6839C3.01172 23.7499 3.05776 23.7773 3.11501 23.7449C3.14471 23.725 3.16938 23.6984 3.18709 23.6673C3.20479 23.6362 3.21505 23.6014 3.21705 23.5657C3.21705 23.4998 3.16852 23.4736 3.11501 23.506Z" fill="#262626"/>
<path d="M3.12472 23.7324L3.07245 23.7026C3.06622 23.6981 3.0613 23.6921 3.05824 23.6851C3.05517 23.6781 3.05406 23.6703 3.05503 23.6627C3.05596 23.6412 3.06211 23.6202 3.07295 23.6016C3.08378 23.5829 3.09899 23.5672 3.11725 23.5557C3.12387 23.5519 3.13138 23.5499 3.13903 23.5499C3.14667 23.5499 3.15418 23.5519 3.16081 23.5557L3.21431 23.5868L3.12472 23.7324Z" fill="#777A85"/>
<path d="M3.16818 23.5844C3.14996 23.5962 3.13482 23.6122 3.124 23.631C3.11318 23.6498 3.107 23.6709 3.10596 23.6926C3.10596 23.7324 3.13333 23.7486 3.16818 23.7287C3.18619 23.7167 3.20117 23.7006 3.21197 23.6819C3.22276 23.6631 3.22907 23.6421 3.2304 23.6204C3.23164 23.5806 3.20302 23.5644 3.16818 23.5844Z" fill="#262626"/>
<path d="M1.79932 23.5109C1.79932 23.5047 1.79932 23.4985 1.79932 23.4923C1.80105 23.3933 1.83762 23.2981 1.9026 23.2235L1.98971 23.3342L1.95611 23.3865C2.05706 23.3861 2.15491 23.4213 2.23238 23.4861L2.24109 23.4251L2.37797 23.3915C2.3805 23.4439 2.37255 23.4964 2.3546 23.5457C2.33666 23.5951 2.30907 23.6404 2.27344 23.6789C2.24908 23.6999 2.21934 23.7137 2.18758 23.7188C2.12401 23.7264 2.05954 23.7192 1.99927 23.6976C1.93901 23.676 1.8846 23.6406 1.84038 23.5943C1.82085 23.5719 1.80717 23.5449 1.80056 23.5159L1.79932 23.5109Z" fill="#262626"/>
<path d="M1.91247 23.3827C1.95669 23.429 2.0111 23.4644 2.07136 23.486C2.13163 23.5076 2.1961 23.5149 2.25967 23.5072C2.37664 23.486 2.41024 23.3964 2.33433 23.3068C2.29004 23.2603 2.23544 23.2248 2.17492 23.2032C2.1144 23.1815 2.04966 23.1744 1.98589 23.1824C1.96251 23.1822 1.93964 23.1892 1.92041 23.2025C1.90118 23.2158 1.88654 23.2347 1.8785 23.2567C1.87045 23.2786 1.8694 23.3025 1.87548 23.3251C1.88157 23.3477 1.89449 23.3678 1.91247 23.3827Z" fill="#777A85"/>
<path d="M2.42166 22.8489L2.1902 22.7643L2.00229 23.2782C2.00069 23.2881 2.00142 23.2982 2.00445 23.3077C2.00748 23.3172 2.01271 23.3259 2.01971 23.333C2.04046 23.3552 2.06611 23.3723 2.09463 23.3829C2.12315 23.3935 2.15374 23.3973 2.18398 23.394C2.19414 23.3931 2.20395 23.3898 2.2126 23.3844C2.22125 23.379 2.2285 23.3716 2.23376 23.3629L2.42166 22.8489Z" fill="#262626"/>
<path d="M2.37436 22.89C2.34413 22.8933 2.31353 22.8895 2.28501 22.8789C2.2565 22.8683 2.23084 22.8512 2.2101 22.829C2.17401 22.7867 2.18895 22.7444 2.2437 22.7344C2.27384 22.7308 2.30441 22.7344 2.33293 22.7447C2.36146 22.7551 2.38716 22.772 2.40796 22.7941C2.44405 22.8377 2.42912 22.88 2.37436 22.89Z" fill="#ECEBF2"/>
<path d="M2.4218 23.0082L2.1082 22.8937L2.03603 23.0916C2.03411 23.1053 2.03536 23.1193 2.03968 23.1324C2.04399 23.1456 2.05126 23.1576 2.06092 23.1675C2.08922 23.1973 2.12409 23.2202 2.16275 23.2342C2.20141 23.2482 2.24281 23.2531 2.28367 23.2484C2.29726 23.2472 2.31035 23.2427 2.32184 23.2353C2.33332 23.2279 2.34285 23.2179 2.34962 23.2061L2.4218 23.0082Z" fill="#777A85"/>
<path d="M2.34801 23.063C2.30715 23.0677 2.26575 23.0628 2.22709 23.0488C2.18843 23.0348 2.15357 23.0119 2.12526 22.9821C2.07673 22.9236 2.09788 22.8663 2.1713 22.8576C2.21227 22.8529 2.25379 22.8578 2.29249 22.8721C2.33119 22.8863 2.36599 22.9095 2.39406 22.9398C2.44259 22.992 2.42143 23.0518 2.34801 23.063Z" fill="#ECEBF2"/>
<path d="M4.26823 19.3023C4.26947 19.3365 4.26037 19.3704 4.2421 19.3994C4.22367 19.4279 4.20195 19.4542 4.17739 19.4778C4.17788 19.472 4.17701 19.4661 4.17485 19.4607C4.17269 19.4553 4.1693 19.4505 4.16494 19.4466C4.16494 19.4466 4.15374 19.4466 4.15125 19.4342C4.14945 19.429 4.14945 19.4233 4.15125 19.418C4.15381 19.4098 4.15714 19.4019 4.16121 19.3944C4.1744 19.3645 4.18936 19.3354 4.20601 19.3073C4.21304 19.2967 4.21888 19.2855 4.22343 19.2737C4.22403 19.2702 4.22586 19.267 4.2286 19.2647C4.23133 19.2624 4.2348 19.2612 4.23836 19.2612C4.24318 19.2594 4.24849 19.2594 4.2533 19.2612C4.25875 19.2665 4.26292 19.2729 4.26551 19.28C4.2681 19.2871 4.26903 19.2948 4.26823 19.3023Z" fill="#498EA6"/>
<path d="M4.08566 19.2251C4.0911 19.2196 4.09741 19.215 4.10433 19.2115C4.11257 19.2102 4.12097 19.2102 4.12921 19.2115C4.1486 19.2132 4.16754 19.2182 4.18521 19.2264C4.19754 19.2306 4.20959 19.2356 4.2213 19.2413C4.23143 19.2461 4.24102 19.2519 4.24992 19.2587C4.26189 19.2702 4.26901 19.2858 4.26983 19.3023C4.26983 19.2923 4.25241 19.2948 4.24619 19.3023C4.23997 19.3098 4.23001 19.3185 4.22503 19.3272C4.20031 19.3737 4.1811 19.423 4.16779 19.474C4.16614 19.461 4.16173 19.4485 4.15487 19.4374C4.148 19.4262 4.13883 19.4166 4.12797 19.4093C4.10633 19.395 4.08159 19.386 4.05579 19.3832C4.02344 19.377 4.03961 19.3322 4.04459 19.3123C4.05014 19.28 4.06433 19.2499 4.08566 19.2251Z" fill="#B0E8E5"/>
<path d="M3.56759 21.9007C3.51274 21.9604 3.46122 22.0231 3.41328 22.0886C3.3584 22.1492 3.30689 22.2127 3.25897 22.279L3.2179 22.3399C3.20172 22.3636 3.18306 22.3847 3.16563 22.4071L3.08848 22.5017C3.06613 22.5309 3.04202 22.5588 3.0163 22.5851C2.94688 22.6542 2.8701 22.7156 2.78733 22.768C2.63987 22.8611 2.47666 22.9264 2.30574 22.9609C2.26094 22.9696 2.21489 22.9733 2.16885 22.9808C2.12201 22.9889 2.07452 22.9927 2.02699 22.992C1.95866 22.9902 1.89069 22.9815 1.82414 22.9659C1.77691 22.9542 1.73133 22.9367 1.6885 22.9136C1.64964 22.8923 1.61572 22.8631 1.58895 22.8278C1.57899 22.8166 1.57277 22.8041 1.56282 22.7941C1.55286 22.7842 1.53544 22.7705 1.52299 22.7556C1.50422 22.734 1.49064 22.7085 1.48331 22.6808C1.47597 22.6532 1.47507 22.6243 1.48068 22.5963C1.52417 22.4664 1.58939 22.3448 1.67357 22.2366L1.6997 22.2006C1.78148 22.0885 1.87585 21.9862 1.98094 21.8957C2.08796 21.8036 2.20245 21.7202 2.30947 21.6269C2.46891 21.4805 2.61895 21.3242 2.75871 21.159L2.86946 21.0345C2.9068 20.9969 2.93977 20.9551 2.96777 20.9101C3.01761 20.8172 3.06126 20.7212 3.09844 20.6226C3.17233 20.4233 3.21229 20.213 3.21666 20.0004C3.21087 19.9161 3.22186 19.8315 3.24901 19.7515C3.26366 19.712 3.29216 19.679 3.32924 19.6589C3.36632 19.6388 3.40944 19.6328 3.45061 19.642C3.52652 19.6681 3.56012 19.7092 3.64474 19.6955C3.73759 19.6841 3.82796 19.6576 3.91229 19.6171C3.96667 19.5916 4.01473 19.5544 4.05302 19.5082C4.09132 19.4619 4.11891 19.4078 4.1338 19.3496C4.19171 19.398 4.23912 19.4578 4.27314 19.5252C4.30717 19.5926 4.32708 19.6662 4.33166 19.7416C4.34099 19.8581 4.33849 19.9752 4.3242 20.0913C4.31754 20.1941 4.33107 20.2973 4.36402 20.3949C4.42414 20.5759 4.45931 20.7643 4.46855 20.9549C4.46855 21.1664 4.42002 21.4776 4.20971 21.5846C3.9994 21.6916 3.74056 21.7351 3.56759 21.9007Z" fill="#99E1EE"/>
<path d="M3.66602 21.373C3.54192 21.6168 3.34603 21.8166 3.10478 21.9455C2.99882 21.9951 2.8833 22.021 2.7663 22.0214C2.71274 22.0212 2.65934 22.0153 2.60701 22.0039C2.53481 21.9893 2.46727 21.9573 2.41024 21.9107C2.35321 21.8641 2.30841 21.8042 2.27972 21.7364C2.27004 21.7152 2.26254 21.6931 2.25732 21.6704L2.28221 21.6493C2.28806 21.6753 2.2964 21.7008 2.3071 21.7252C2.33419 21.7886 2.37635 21.8444 2.42992 21.8878C2.48349 21.9311 2.54684 21.9608 2.61448 21.9741C2.77515 22.0089 2.94287 21.9892 3.09109 21.9181C3.32724 21.7928 3.51891 21.5977 3.63988 21.3593C3.91939 20.8493 4.05489 20.2729 4.03188 19.6918H4.0605C4.08375 20.2776 3.9474 20.8587 3.66602 21.373Z" fill="#FD6467"/>
<path d="M4.46875 20.9561C4.46875 21.1664 4.42022 21.4788 4.20991 21.5858C4.03693 21.6754 3.83658 21.7177 3.6748 21.8185C3.73609 21.5284 3.8477 21.2513 4.00458 20.9997C4.12121 20.8295 4.25371 20.6708 4.4003 20.5256C4.44041 20.6658 4.46339 20.8104 4.46875 20.9561Z" fill="#F2F2F2"/>
<path d="M1.53086 22.8551C1.51544 22.75 1.53282 22.6427 1.58064 22.5478C1.71227 22.299 1.90551 22.0882 2.14188 21.9355L2.49902 21.6866L2.51271 21.7065C2.39574 21.7887 2.27378 21.8733 2.15556 21.9554C1.92274 22.1058 1.73214 22.3131 1.60179 22.5577C1.55731 22.6483 1.54085 22.7501 1.55451 22.8502L1.53086 22.8551Z" fill="#FD6467"/>
<path d="M3.67334 21.9492C3.70359 21.9417 3.7319 21.9278 3.75636 21.9085C3.78083 21.8892 3.80089 21.8649 3.8152 21.8372L3.88987 21.9728C3.90978 22.0089 3.94587 22.0587 3.88116 22.0687C3.8488 22.0687 3.75672 22.0015 3.73556 21.9878C3.71441 21.9741 3.68454 21.9467 3.67334 21.9492Z" fill="#C90004"/>
<path d="M3.95108 19.8859C3.92939 19.8641 3.90234 19.8483 3.87263 19.8402C3.84292 19.8322 3.81161 19.832 3.78184 19.8399C3.72303 19.8664 3.66279 19.8897 3.6014 19.9096C3.56695 19.9163 3.5315 19.9162 3.49711 19.9091C3.46271 19.9021 3.43006 19.8883 3.40105 19.8685C3.34629 19.8312 3.29527 19.7553 3.33261 19.6893C3.34642 19.6689 3.36494 19.6522 3.3866 19.6405C3.40826 19.6288 3.43243 19.6225 3.45705 19.6221C3.50434 19.6221 3.55287 19.6221 3.60016 19.6221C3.68527 19.6172 3.76592 19.5824 3.82789 19.5238C3.91002 19.4442 3.9934 19.2948 4.13028 19.3533C4.14187 19.358 4.15276 19.3643 4.16264 19.372C4.20601 19.4264 4.22613 19.4957 4.21864 19.5649C4.21741 19.6444 4.20093 19.723 4.1701 19.7963C4.14522 19.8548 4.10539 19.9432 4.02451 19.9295C3.99634 19.9223 3.97084 19.9072 3.95108 19.8859Z" fill="#498EA6"/>
<path d="M4.13756 19.2961C4.07848 19.0815 4.05452 18.8588 4.06663 18.6365C4.06041 18.2408 4.08032 17.8388 3.99321 17.4493C3.97725 17.376 3.95689 17.3037 3.93223 17.2328C3.81899 16.9043 3.59623 16.6106 3.50166 16.2634C3.38468 15.8478 3.55268 15.4807 3.66841 15.0837C3.81774 14.5722 3.95961 14.057 4.07783 13.5356C4.12665 13.3427 4.15707 13.1456 4.16867 12.947C4.1697 12.6511 4.12306 12.357 4.03054 12.0759C3.9602 11.791 3.83324 11.5231 3.65721 11.2882C3.45188 11.0393 2.95411 10.7357 2.64674 11.0094C2.59892 11.0589 2.56203 11.1178 2.53847 11.1824C2.06559 12.2626 1.77813 15.2256 1.80551 15.5578C1.87833 16.2946 2.05644 17.017 2.33439 17.7032C2.5449 18.2775 2.79436 18.8367 3.08104 19.377C3.13455 19.4728 3.19055 19.5686 3.2478 19.6619C3.28369 19.7231 3.32858 19.7784 3.38095 19.8262C3.40894 19.8471 3.44102 19.862 3.47511 19.8697C3.5092 19.8774 3.54454 19.8778 3.57881 19.871C3.62094 19.8664 3.66258 19.858 3.70326 19.8461C3.74427 19.829 3.78872 19.8218 3.83303 19.8251C3.87734 19.8283 3.92027 19.8419 3.95836 19.8648C3.97553 19.8802 3.99664 19.8905 4.01934 19.8946C4.05294 19.8946 4.07907 19.866 4.0965 19.8374C4.14517 19.7511 4.17127 19.654 4.17241 19.5549C4.17588 19.4673 4.16409 19.3797 4.13756 19.2961Z" fill="#FFB78C"/>
<path d="M2.48412 15.635C2.68264 15.7116 2.89352 15.7513 3.10633 15.7519C3.21398 15.7589 3.32169 15.7393 3.41993 15.6947C3.44213 15.6792 3.46775 15.6694 3.49459 15.6661C3.58543 15.6661 3.53566 15.844 3.52943 15.8926C3.51574 15.9658 3.51574 16.0409 3.52943 16.1141C3.55432 16.2062 3.62526 16.287 3.62152 16.3829C3.62152 16.5073 3.50455 16.5832 3.4025 16.643C3.16202 16.7904 2.90354 16.9063 2.63345 16.9877C2.40447 17.0499 2.14812 17.1121 1.98635 16.8931C1.81001 16.6503 1.69205 16.3701 1.64164 16.0743C1.5804 15.7721 1.60806 15.4588 1.72128 15.172C1.74335 15.1067 1.784 15.0491 1.83826 15.0065C1.77604 15.0476 2.00252 15.3052 2.03488 15.3376C2.14034 15.4454 2.26425 15.5335 2.40074 15.5976C2.42812 15.6113 2.4555 15.6238 2.48412 15.635Z" fill="#2C4A8F"/>
<path d="M3.64614 20.528C3.65224 20.543 3.65723 20.5584 3.66108 20.5741C3.66979 20.5741 3.67477 20.5654 3.67974 20.5579C3.73839 20.4572 3.78875 20.3519 3.83032 20.2431C3.84165 20.2123 3.85039 20.1807 3.85645 20.1485C3.86224 20.111 3.86433 20.0731 3.86267 20.0353C3.86005 19.9799 3.83751 19.9273 3.79921 19.8872C3.75567 19.8534 3.70571 19.8288 3.65237 19.815C3.55631 19.7723 3.45357 19.7466 3.34873 19.7391C3.32174 19.7386 3.295 19.7441 3.27044 19.7553C3.24589 19.7665 3.22416 19.7831 3.20686 19.8038C3.18006 19.8365 3.16515 19.8773 3.16455 19.9195C3.16455 19.9369 3.16455 19.9556 3.16455 19.973C3.16455 19.973 3.17326 19.973 3.17575 19.973C3.17695 19.9753 3.17758 19.9779 3.17758 19.9805C3.17758 19.9831 3.17695 19.9857 3.17575 19.988C3.17575 20.0017 3.17575 20.0178 3.17575 20.0328V20.0888C3.17575 20.1049 3.16579 20.2742 3.16579 20.2742C3.22204 20.2788 3.27568 20.2999 3.31996 20.3349C3.36425 20.3698 3.3972 20.4171 3.41468 20.4708C3.4209 20.487 3.4321 20.4907 3.44455 20.5019C3.45699 20.5131 3.45823 20.5368 3.47068 20.5467C3.48312 20.5567 3.55032 20.4882 3.56899 20.472C3.57502 20.4666 3.58229 20.4628 3.59014 20.4608C3.60632 20.4608 3.61752 20.4733 3.62623 20.4857C3.63449 20.499 3.64117 20.5132 3.64614 20.528Z" fill="#FD6467"/>
<path d="M3.61887 20.7993C3.71562 20.5697 3.77244 20.3251 3.78687 20.0763C3.78687 20.0315 3.78687 19.9768 3.73585 19.9631C3.70604 19.9583 3.6755 19.9618 3.64749 19.973C3.61016 19.9855 3.57407 19.9992 3.53923 20.0141C3.50173 20.0334 3.46203 20.048 3.42101 20.0577C3.40054 20.0624 3.37925 20.0621 3.3589 20.0569C3.33856 20.0517 3.31975 20.0417 3.30403 20.0278C3.27765 19.9957 3.26472 19.9547 3.26794 19.9133C3.27034 19.8935 3.27034 19.8734 3.26794 19.8536C3.26559 19.844 3.26097 19.8352 3.25447 19.8278C3.24797 19.8205 3.23978 19.8148 3.23061 19.8113C3.18208 19.7976 3.16839 19.8934 3.16715 19.9245C3.16108 20.0053 3.14562 20.085 3.1211 20.1622C3.09647 20.2605 3.06614 20.3573 3.03026 20.4521C2.97425 20.6075 2.90601 20.7581 2.82617 20.9026C2.70173 21.1328 2.52378 21.3382 2.418 21.5796C2.38789 21.6288 2.37397 21.6863 2.37818 21.7439C2.40182 21.8397 2.57604 21.8223 2.64822 21.8123C2.70873 21.803 2.76747 21.7845 2.82244 21.7575C2.91637 21.7104 3.00277 21.6496 3.07879 21.5771C3.3128 21.3598 3.49704 21.0945 3.61887 20.7993Z" fill="#F2F2F2"/>
<path d="M4.43651 21.21C4.4527 21.1704 4.46196 21.1283 4.46389 21.0856C4.53409 21.2451 4.55364 21.4223 4.51988 21.5933C4.51448 21.6523 4.49484 21.7091 4.46264 21.7588C4.34893 21.8979 4.1958 21.9995 4.02336 22.05C3.97427 22.0689 3.92134 22.0758 3.86905 22.0699C3.86406 22.0698 3.85914 22.0687 3.85463 22.0665C3.85012 22.0644 3.84613 22.0613 3.84292 22.0575C3.84111 22.051 3.84111 22.0441 3.84292 22.0376V21.9019C3.8274 21.9125 3.81119 21.9221 3.79438 21.9305L3.74336 21.9616C3.7105 21.9839 3.67893 22.008 3.64879 22.0338C3.57286 22.0979 3.50552 22.1715 3.44843 22.2528C3.39119 22.3362 3.34515 22.4283 3.29288 22.5154C3.24251 22.5988 3.17954 22.674 3.10622 22.7382C3.06639 22.7743 3.02408 22.8091 2.98177 22.8415C2.89495 22.9066 2.80102 22.9617 2.70178 23.0057C2.4677 23.1102 2.20934 23.1481 1.95512 23.1152C1.88296 23.1075 1.81243 23.0886 1.74606 23.0592C1.65762 23.0169 1.5833 22.9499 1.53202 22.8663C1.50205 22.8178 1.48255 22.7636 1.47477 22.7071C1.47034 22.6733 1.47288 22.639 1.48224 22.6063C1.48097 22.6207 1.48097 22.6353 1.48224 22.6498C1.49031 22.6861 1.50792 22.7196 1.53326 22.7469C1.55902 22.7782 1.58777 22.807 1.61913 22.8327C1.69491 22.9051 1.79158 22.9517 1.89539 22.9659C2.01052 22.9807 2.12725 22.9773 2.24134 22.9559C2.37934 22.9288 2.51408 22.8871 2.64329 22.8315C2.74124 22.789 2.83293 22.7333 2.91582 22.666C3.14853 22.4669 3.2655 22.1583 3.49821 21.9592C3.58094 21.8852 3.67149 21.8205 3.76825 21.7663C3.86883 21.7144 3.97229 21.6683 4.07811 21.6281C4.15311 21.5971 4.22089 21.5509 4.27722 21.4925C4.33625 21.4326 4.38279 21.3615 4.41411 21.2834C4.41286 21.2573 4.4278 21.2337 4.43651 21.21Z" fill="#FD6467"/>
<path d="M2.90223 21.9243C2.84606 21.838 2.76909 21.7673 2.67841 21.7186C2.58772 21.6699 2.48624 21.6448 2.3833 21.6456V21.5734C2.49839 21.5727 2.61181 21.6009 2.71313 21.6555C2.81446 21.7101 2.90045 21.7893 2.9632 21.8857L2.90223 21.9243Z" fill="#FD6467"/>
<path d="M3.16063 21.6679C3.08976 21.5772 2.99795 21.5051 2.89308 21.4576C2.78851 21.4102 2.67427 21.3881 2.55957 21.3929V21.3208C2.68584 21.3148 2.8117 21.3391 2.92668 21.3917C3.04178 21.4441 3.14253 21.5235 3.22036 21.6232L3.16063 21.6679Z" fill="#FD6467"/>
<path d="M3.41716 21.4153C3.32569 21.3169 3.2084 21.2462 3.07868 21.2112C2.94745 21.175 2.81004 21.1669 2.67548 21.1876L2.66553 21.1167C2.80961 21.0945 2.95675 21.103 3.09734 21.1416C3.2405 21.18 3.3699 21.2581 3.47067 21.3668L3.41716 21.4153Z" fill="#FD6467"/>
<path d="M3.62506 21.0719C3.38582 20.9411 3.12406 20.8567 2.85352 20.823L2.85974 20.7508C3.13878 20.7835 3.40929 20.8679 3.65741 20.9997C3.66874 21.0044 3.67799 21.013 3.68348 21.024C3.68896 21.0349 3.69031 21.0475 3.68728 21.0594L3.61884 21.0383C3.61567 21.0437 3.61455 21.05 3.6157 21.0562C3.61684 21.0624 3.62016 21.0679 3.62506 21.0719Z" fill="#FD6467"/>
<path d="M3.7617 20.7309C3.71214 20.7291 3.66291 20.722 3.61486 20.7097C3.40869 20.6699 3.21167 20.5922 3.03371 20.4808C3.0143 20.4683 2.99671 20.4532 2.98145 20.436L3.0362 20.3899C3.04754 20.4016 3.06005 20.412 3.07353 20.421C3.24412 20.5269 3.43264 20.6007 3.62979 20.6388C3.68391 20.6544 3.74037 20.6603 3.79654 20.6562L3.80525 20.7272C3.79087 20.7296 3.7763 20.7309 3.7617 20.7309Z" fill="#FD6467"/>
<path d="M3.18722 21.6891C2.92338 21.6281 2.65095 21.6134 2.38207 21.6455L2.36963 21.5746C2.64675 21.5413 2.92754 21.5561 3.19966 21.6182L3.18722 21.6891Z" fill="#FD6467"/>
<path d="M2.95533 21.9031H2.88316C2.88137 21.793 2.84574 21.6862 2.78111 21.597C2.71242 21.5055 2.62818 21.4267 2.53223 21.3643L2.57329 21.3046C2.6743 21.3716 2.76275 21.4558 2.83462 21.5535C2.91077 21.6543 2.95303 21.7768 2.95533 21.9031Z" fill="#FD6467"/>
<path d="M2.9741 21.8708C2.97427 21.8783 2.9729 21.8859 2.97009 21.8929C2.96727 21.8999 2.96306 21.9063 2.95771 21.9116C2.95236 21.917 2.94598 21.9212 2.93896 21.924C2.93194 21.9268 2.92442 21.9282 2.91685 21.928C2.90939 21.928 2.90201 21.9265 2.89513 21.9236C2.88826 21.9207 2.88203 21.9165 2.87681 21.9112C2.87159 21.9058 2.86749 21.8995 2.86475 21.8926C2.86201 21.8856 2.86069 21.8782 2.86085 21.8708C2.86085 21.8634 2.8623 21.8561 2.86512 21.8493C2.86793 21.8425 2.87206 21.8364 2.87726 21.8312C2.88246 21.826 2.88863 21.8218 2.89542 21.819C2.90222 21.8162 2.9095 21.8148 2.91685 21.8148C2.92431 21.8146 2.93173 21.8159 2.93866 21.8187C2.9456 21.8214 2.95193 21.8255 2.95726 21.8307C2.96259 21.8359 2.96683 21.8422 2.96972 21.8491C2.97261 21.8559 2.9741 21.8633 2.9741 21.8708Z" fill="#FD6467"/>
<path d="M2.94818 21.8708C2.94818 21.8791 2.94491 21.887 2.93907 21.8928C2.93324 21.8986 2.92532 21.9019 2.91707 21.9019C2.90904 21.9016 2.90144 21.8982 2.89587 21.8924C2.89031 21.8866 2.8872 21.8788 2.88721 21.8708C2.8872 21.8628 2.89031 21.855 2.89587 21.8492C2.90144 21.8434 2.90904 21.84 2.91707 21.8397C2.92532 21.8397 2.93324 21.843 2.93907 21.8488C2.94491 21.8546 2.94818 21.8626 2.94818 21.8708Z" fill="#498EA6"/>
<path d="M2.71053 21.1851L2.68066 21.1204C2.75993 21.0867 2.84385 21.0653 2.92955 21.0569C3.17407 21.0291 3.4202 21.0178 3.66625 21.0233V21.0955C3.42352 21.09 3.18069 21.1012 2.9395 21.1291C2.86085 21.1365 2.78371 21.1553 2.71053 21.1851Z" fill="#FD6467"/>
<path d="M3.42712 21.4514C3.42009 21.4513 3.4132 21.4495 3.4071 21.446C3.401 21.4425 3.39589 21.4375 3.39228 21.4315C3.23412 21.2039 3.05041 20.9951 2.84473 20.8093L2.89326 20.7558C3.09905 20.9422 3.28353 21.1509 3.4433 21.378C3.45035 21.3814 3.45611 21.387 3.4597 21.3939C3.46329 21.4009 3.46452 21.4088 3.46321 21.4166L3.44703 21.434L3.43459 21.4489L3.42712 21.4514ZM3.39352 21.4091C3.39253 21.4158 3.39368 21.4227 3.39681 21.4287C3.39993 21.4347 3.40488 21.4396 3.41094 21.4427L3.42588 21.4141L3.39352 21.4091Z" fill="#FD6467"/>
<path d="M3.1684 21.6729C3.06668 21.4704 2.90735 21.3024 2.71045 21.1901L2.74654 21.1279C2.95564 21.2472 3.1249 21.4255 3.23311 21.6406L3.1684 21.6729Z" fill="#FD6467"/>
<path d="M3.48579 21.4452C3.19066 21.349 2.87595 21.3293 2.57113 21.388L2.55371 21.3183C2.87072 21.2558 3.19846 21.2755 3.5057 21.3755L3.48579 21.4452Z" fill="#FD6467"/>
<path d="M2.88316 20.818L2.85205 20.7545C2.97832 20.6981 3.11354 20.6644 3.25151 20.655C3.4343 20.6283 3.62 20.6283 3.80279 20.655L3.7891 20.7259C3.61377 20.6998 3.43555 20.6998 3.26022 20.7259C3.13018 20.7347 3.00263 20.7659 2.88316 20.818Z" fill="#FD6467"/>
<path d="M3.63379 21.0818C3.55912 21.0009 3.4745 20.925 3.39237 20.8516C3.2527 20.7349 3.12738 20.6021 3.01904 20.4559L3.07877 20.416C3.18405 20.5572 3.3056 20.6854 3.4409 20.7981C3.52428 20.8728 3.61015 20.9499 3.68979 21.0333L3.63379 21.0818Z" fill="#FD6467"/>
<path d="M3.04388 20.4832L3.02148 20.4148C3.28693 20.3302 3.56647 20.2989 3.84405 20.3227L3.83783 20.3949C3.56994 20.3718 3.30014 20.4018 3.04388 20.4832Z" fill="#FD6467"/>
<path d="M3.89889 20.3725C3.89857 20.3876 3.89243 20.4019 3.88177 20.4126C3.8711 20.4233 3.85673 20.4294 3.84164 20.4297C3.82668 20.4294 3.81243 20.4232 3.80197 20.4125C3.7915 20.4018 3.78564 20.3875 3.78564 20.3725C3.78564 20.3575 3.7915 20.3431 3.80197 20.3324C3.81243 20.3217 3.82668 20.3156 3.84164 20.3152C3.85673 20.3156 3.8711 20.3217 3.88177 20.3324C3.89243 20.343 3.89857 20.3574 3.89889 20.3725Z" fill="#FD6467"/>
<path d="M3.87277 20.3725C3.87277 20.3807 3.86949 20.3886 3.86366 20.3945C3.85782 20.4003 3.84991 20.4036 3.84166 20.4036C3.83341 20.4036 3.82549 20.4003 3.81966 20.3945C3.81383 20.3886 3.81055 20.3807 3.81055 20.3725C3.81055 20.3642 3.81383 20.3563 3.81966 20.3505C3.82549 20.3446 3.83341 20.3414 3.84166 20.3414C3.84991 20.3414 3.85782 20.3446 3.86366 20.3505C3.86949 20.3563 3.87277 20.3642 3.87277 20.3725Z" fill="#498EA6"/>
<path d="M3.78293 20.7346C3.50029 20.6212 3.26254 20.4184 3.10596 20.1572L3.16818 20.1199C3.31591 20.3683 3.54169 20.5608 3.8103 20.6674L3.78293 20.7346Z" fill="#FD6467"/>
<path d="M2.89582 19.8486C2.91522 19.8454 2.93514 19.848 2.95307 19.8561C3.02898 19.8847 3.07751 19.9594 3.13973 20.0079C3.17699 20.031 3.21162 20.0582 3.24302 20.0888C3.26103 20.1113 3.27226 20.1385 3.27537 20.1672C3.25235 20.1286 3.21864 20.0974 3.17831 20.0776C3.13919 20.0578 3.09719 20.0444 3.05387 20.0378C3.01322 20.0351 2.97349 20.0245 2.93689 20.0066C2.89334 19.9805 2.80747 19.8673 2.89582 19.8486Z" fill="#498EA6"/>
<path d="M3.20819 20.0863C3.23324 20.1061 3.2536 20.1312 3.2678 20.1598C3.282 20.1885 3.28969 20.2199 3.29032 20.2518C3.26225 20.2148 3.22767 20.1831 3.18828 20.1585C3.15027 20.1292 3.10839 20.1053 3.06384 20.0875C3.02028 20.0701 2.97424 20.0589 2.93193 20.0415C2.90236 20.0296 2.87502 20.0127 2.85104 19.9917C2.84109 19.9818 2.8274 19.9668 2.82989 19.9519C2.83238 19.937 2.85353 19.9282 2.85353 19.9083C2.85353 19.8884 2.85353 19.8884 2.85353 19.8785C2.85353 19.8685 2.86349 19.8586 2.8722 19.861C2.86995 19.874 2.87106 19.8873 2.87542 19.8997C2.87978 19.9122 2.88723 19.9233 2.89709 19.932C2.91768 19.9491 2.94132 19.9622 2.96677 19.9706L3.12233 20.039C3.15278 20.0512 3.18162 20.0671 3.20819 20.0863Z" fill="#99E1EE"/>
<path d="M3.40345 20.3215C3.43083 20.3376 3.46194 20.3488 3.49056 20.3638C3.56907 20.4134 3.63305 20.483 3.67598 20.5654C3.71067 20.6195 3.73787 20.6781 3.75687 20.7396C3.75687 20.7471 3.75687 20.7645 3.76931 20.767C3.78176 20.7695 3.77927 20.7321 3.77678 20.7234C3.76739 20.6723 3.75279 20.6223 3.73322 20.5741C3.7177 20.5395 3.69939 20.5062 3.67847 20.4745C3.6333 20.4008 3.57706 20.3345 3.51172 20.2779C3.48215 20.2502 3.44627 20.2301 3.40719 20.2194C3.38727 20.2194 3.3487 20.2194 3.33625 20.2356C3.32381 20.2518 3.37981 20.314 3.40345 20.3215Z" fill="#498EA6"/>
<path d="M3.0325 20.2779C2.94673 20.3107 2.87206 20.3673 2.81721 20.4409C2.80712 20.4522 2.80177 20.4669 2.80228 20.482C2.81401 20.4785 2.82441 20.4716 2.83215 20.4621C2.85881 20.4349 2.88797 20.4103 2.91926 20.3887C2.94946 20.37 2.98109 20.3538 3.01383 20.3401C3.0609 20.3205 3.10963 20.3051 3.15943 20.2941C3.19801 20.2866 3.23907 20.2829 3.27765 20.2717C3.29507 20.2717 3.31747 20.2555 3.31125 20.2331C3.30503 20.2107 3.28761 20.2169 3.27267 20.2194C3.22027 20.2263 3.16833 20.2362 3.11712 20.2493C3.0885 20.258 3.05988 20.2667 3.0325 20.2779Z" fill="#498EA6"/>
<path d="M3.23574 20.146C3.21993 20.1586 3.20828 20.1757 3.20228 20.195C3.19629 20.2143 3.19624 20.235 3.20214 20.2543C3.20426 20.265 3.21053 20.2744 3.21957 20.2804C3.22776 20.2823 3.23626 20.2823 3.24445 20.2804H3.27805C3.29372 20.2801 3.30918 20.284 3.32285 20.2916C3.33281 20.2916 3.34152 20.309 3.35396 20.3066C3.36641 20.3041 3.3689 20.2891 3.3689 20.2767C3.3689 20.2443 3.36019 20.2107 3.39379 20.1921C3.40755 20.1802 3.42436 20.1724 3.44232 20.1697C3.44308 20.1605 3.4418 20.1513 3.43857 20.1427C3.43534 20.1341 3.43025 20.1263 3.42365 20.1199C3.41669 20.1135 3.40834 20.1089 3.39928 20.1063C3.39021 20.1037 3.38066 20.1032 3.37139 20.105C3.37022 20.1055 3.36895 20.1058 3.36765 20.1058C3.36636 20.1058 3.36509 20.1055 3.36392 20.105C3.35528 20.0991 3.3451 20.096 3.33468 20.096C3.32425 20.096 3.31407 20.0991 3.30543 20.105C3.28069 20.1159 3.2573 20.1297 3.23574 20.146Z" fill="#498EA6"/>
<path d="M3.82663 20.4783C3.81531 20.482 3.8031 20.482 3.79178 20.4783C3.77946 20.4726 3.76939 20.463 3.76316 20.4509C3.75694 20.4397 3.75196 20.426 3.74574 20.4148C3.71558 20.371 3.67861 20.3324 3.63623 20.3003C3.65543 20.3109 3.67539 20.3201 3.69596 20.3277C3.72583 20.3389 3.7557 20.3464 3.78432 20.3601C3.81273 20.3735 3.83561 20.3964 3.84903 20.4248C3.85774 20.4459 3.854 20.4721 3.82663 20.4783Z" fill="#498EA6"/>
<path d="M3.32283 20.1659C3.40989 20.1865 3.49795 20.2027 3.58664 20.2144C3.67608 20.226 3.76143 20.2589 3.83553 20.3103C3.86526 20.3298 3.8876 20.3587 3.89899 20.3924C3.90053 20.3955 3.90133 20.3989 3.90133 20.4024C3.90133 20.4058 3.90053 20.4092 3.89899 20.4123C3.89448 20.4159 3.88944 20.4189 3.88406 20.421C3.86664 20.431 3.86042 20.4534 3.84549 20.4671C3.84345 20.4676 3.8413 20.4676 3.83926 20.4671C3.83926 20.4671 3.83926 20.4671 3.8318 20.4596C3.82547 20.4417 3.81712 20.4246 3.80691 20.4086C3.78873 20.387 3.76509 20.3707 3.73846 20.3613C3.64202 20.3273 3.54351 20.2994 3.44354 20.2779C3.38501 20.2658 3.33211 20.2347 3.29296 20.1896C3.28929 20.1856 3.2866 20.1808 3.28509 20.1757C3.28357 20.1705 3.28329 20.165 3.28425 20.1597C3.28549 20.1385 3.31038 20.1622 3.32283 20.1659Z" fill="#99E1EE"/>
<path d="M3.2556 21.648C3.25528 21.6631 3.24915 21.6775 3.23848 21.6882C3.22781 21.6988 3.21344 21.705 3.19836 21.7053C3.18328 21.705 3.1689 21.6988 3.15823 21.6882C3.14756 21.6775 3.14143 21.6631 3.14111 21.648C3.14144 21.6331 3.14761 21.6188 3.15831 21.6084C3.16901 21.5979 3.18339 21.592 3.19836 21.592C3.21333 21.592 3.2277 21.5979 3.2384 21.6084C3.2491 21.6188 3.25527 21.6331 3.2556 21.648Z" fill="#FD6467"/>
<path d="M3.22921 21.648C3.22921 21.6563 3.22594 21.6642 3.2201 21.67C3.21427 21.6759 3.20635 21.6791 3.1981 21.6791C3.18985 21.6791 3.18194 21.6759 3.1761 21.67C3.17027 21.6642 3.16699 21.6563 3.16699 21.648C3.16699 21.6398 3.17027 21.6319 3.1761 21.626C3.18194 21.6202 3.18985 21.6169 3.1981 21.6169C3.20635 21.6169 3.21427 21.6202 3.2201 21.626C3.22594 21.6319 3.22921 21.6398 3.22921 21.648Z" fill="#498EA6"/>
<path d="M3.50807 21.3991C3.50807 21.4163 3.50125 21.4328 3.48912 21.4449C3.47698 21.457 3.46052 21.4638 3.44336 21.4638C3.43492 21.4638 3.42657 21.4622 3.41878 21.4589C3.411 21.4556 3.40395 21.4508 3.39804 21.4448C3.39213 21.4388 3.38748 21.4316 3.38436 21.4238C3.38125 21.416 3.37973 21.4076 3.3799 21.3991C3.3799 21.3823 3.38658 21.3662 3.39848 21.3543C3.41039 21.3424 3.42653 21.3357 3.44336 21.3357C3.4518 21.3355 3.46019 21.337 3.46803 21.3401C3.47587 21.3433 3.48302 21.3479 3.48904 21.3538C3.49507 21.3597 3.49986 21.3668 3.50312 21.3746C3.50639 21.3823 3.50807 21.3907 3.50807 21.3991Z" fill="#FD6467"/>
<path d="M3.47962 21.3992C3.47962 21.4087 3.47582 21.4179 3.46905 21.4247C3.46229 21.4314 3.45311 21.4353 3.44354 21.4353C3.43418 21.4349 3.42532 21.431 3.41882 21.4243C3.41232 21.4175 3.40869 21.4085 3.40869 21.3992C3.409 21.39 3.41277 21.3813 3.41924 21.3749C3.42571 21.3684 3.43439 21.3646 3.44354 21.3643C3.4529 21.3643 3.46189 21.3679 3.46862 21.3744C3.47536 21.3809 3.4793 21.3898 3.47962 21.3992Z" fill="#498EA6"/>
<path d="M3.70943 21.0457C3.70943 21.0609 3.7034 21.0755 3.69267 21.0862C3.68193 21.0969 3.66737 21.103 3.65219 21.103C3.63722 21.1027 3.62298 21.0965 3.61252 21.0858C3.60205 21.0751 3.59619 21.0607 3.59619 21.0457C3.59619 21.0309 3.60209 21.0166 3.61259 21.0061C3.6231 20.9956 3.63734 20.9897 3.65219 20.9897C3.65965 20.9896 3.66706 20.9909 3.674 20.9936C3.68094 20.9964 3.68726 21.0005 3.69259 21.0057C3.69793 21.0109 3.70216 21.0171 3.70506 21.024C3.70795 21.0309 3.70944 21.0383 3.70943 21.0457Z" fill="#FD6467"/>
<path d="M3.65367 21.0768C3.67085 21.0768 3.68478 21.0629 3.68478 21.0457C3.68478 21.0285 3.67085 21.0146 3.65367 21.0146C3.63649 21.0146 3.62256 21.0285 3.62256 21.0457C3.62256 21.0629 3.63649 21.0768 3.65367 21.0768Z" fill="#498EA6"/>
<path d="M3.84177 20.7122C3.84177 20.7271 3.83587 20.7413 3.82537 20.7518C3.81487 20.7623 3.80063 20.7682 3.78577 20.7682C3.77832 20.7684 3.7709 20.7671 3.76396 20.7643C3.75702 20.7616 3.7507 20.7575 3.74537 20.7523C3.74004 20.7471 3.7358 20.7408 3.73291 20.734C3.73002 20.7271 3.72853 20.7197 3.72853 20.7122C3.72836 20.7047 3.72972 20.6971 3.73254 20.6901C3.73536 20.6831 3.73957 20.6767 3.74492 20.6714C3.75027 20.666 3.75665 20.6618 3.76367 20.659C3.77069 20.6562 3.77821 20.6548 3.78577 20.655C3.79323 20.655 3.80062 20.6565 3.8075 20.6594C3.81437 20.6623 3.8206 20.6665 3.82582 20.6718C3.83103 20.6772 3.83513 20.6835 3.83787 20.6904C3.84061 20.6974 3.84194 20.7048 3.84177 20.7122Z" fill="#FD6467"/>
<path d="M3.78551 20.7421C3.80269 20.7421 3.81662 20.7282 3.81662 20.711C3.81662 20.6938 3.80269 20.6799 3.78551 20.6799C3.76832 20.6799 3.75439 20.6938 3.75439 20.711C3.75439 20.7282 3.76832 20.7421 3.78551 20.7421Z" fill="#498EA6"/>
<path d="M10.8935 20.7968C10.7009 20.6996 10.4886 20.6478 10.2729 20.6454C10.0571 20.643 9.84374 20.6902 9.64907 20.7832L8.63984 21.3693H8.16944L7.54723 21.8384L7.43896 22.1246L7.80483 22.1172L8.04251 22.2578L8.43202 22.6996L8.91237 22.6896L10.9122 21.5298C11.2482 21.322 11.2432 20.9984 10.8935 20.7968Z" fill="#E6E6E6"/>
<path d="M9.06676 20.2033C9.07625 20.202 9.08588 20.202 9.09538 20.2033C9.24998 20.2322 9.38907 20.3157 9.48737 20.4385L9.292 20.543L9.21858 20.4783C9.19169 20.6352 9.11014 20.7776 8.98836 20.8802L9.08044 20.9101L9.09538 21.1341C9.01254 21.1228 8.93282 21.095 8.86098 21.0522C8.78914 21.0095 8.72665 20.9527 8.67725 20.8852C8.65059 20.8424 8.63757 20.7925 8.63992 20.7421C8.64499 20.6404 8.67414 20.5413 8.72498 20.453C8.77583 20.3647 8.8469 20.2898 8.93236 20.2344C8.97206 20.2087 9.01825 20.1949 9.06551 20.1945L9.06676 20.2033Z" fill="#777A85"/>
<path d="M9.23629 20.4173C9.15111 20.473 9.08025 20.548 9.02944 20.6362C8.97864 20.7245 8.94931 20.8234 8.94385 20.925C8.94385 21.1129 9.06829 21.1888 9.23629 21.0968C9.32117 21.0408 9.39173 20.9657 9.44231 20.8776C9.49289 20.7894 9.52206 20.6905 9.52748 20.589C9.52748 20.4011 9.39682 20.3252 9.23629 20.4173Z" fill="#262626"/>
<path d="M9.40022 20.8503C9.47069 20.7267 9.46973 20.5934 9.39808 20.5526C9.32644 20.5117 9.21124 20.5788 9.14077 20.7024C9.07031 20.826 9.07126 20.9593 9.1429 21.0001C9.21455 21.041 9.32976 20.9739 9.40022 20.8503Z" fill="#262626"/>
<path d="M9.16415 20.9263C9.21713 20.8916 9.26119 20.8449 9.29276 20.79C9.32432 20.735 9.34251 20.6735 9.34583 20.6102C9.34603 20.5872 9.34181 20.5644 9.33339 20.543C9.40308 20.533 9.45783 20.5816 9.45783 20.6674C9.4544 20.7325 9.43515 20.7957 9.40175 20.8517C9.36836 20.9076 9.32183 20.9546 9.26619 20.9885C9.18779 21.0333 9.12184 21.0146 9.0957 20.9499C9.11971 20.9461 9.14287 20.9381 9.16415 20.9263Z" fill="#777A85"/>
<path d="M10.1981 21.1702L10.0736 21.3842L9.16645 20.8603C9.15896 20.8537 9.15314 20.8454 9.14946 20.8361C9.14579 20.8268 9.14436 20.8167 9.1453 20.8068C9.14672 20.7764 9.15536 20.7468 9.17051 20.7204C9.18566 20.694 9.20688 20.6715 9.23241 20.655C9.24064 20.6492 9.25014 20.6455 9.26011 20.6442C9.27008 20.6429 9.28022 20.644 9.28965 20.6475L10.1981 21.1702Z" fill="#262626"/>
<path d="M9.83331 20.7819C9.78875 20.7006 9.76926 20.608 9.77732 20.5156L9.63918 20.4384C9.64754 20.4739 9.64678 20.5108 9.63699 20.5458C9.6272 20.5809 9.60869 20.6129 9.58319 20.6388C9.53595 20.6759 9.48046 20.7011 9.42141 20.7122L9.33057 20.7881L9.43385 20.8006L9.50728 20.7707V20.7632L9.73127 20.8877L9.78603 21.0208L9.90051 21.1154L9.99136 21.0383C9.93169 20.9573 9.87883 20.8716 9.83331 20.7819Z" fill="#777A85"/>
<path d="M9.74394 20.8591C9.69858 20.7781 9.67863 20.6853 9.68669 20.5928L9.55105 20.5131C9.55935 20.5488 9.55845 20.5861 9.54844 20.6213C9.53843 20.6566 9.51963 20.6887 9.49381 20.7147C9.44686 20.7521 9.39119 20.7769 9.33203 20.7869L9.90571 21.1192C9.84455 21.0372 9.79043 20.9502 9.74394 20.8591Z" fill="#262626"/>
<path d="M10.1369 21.1739C10.1115 21.1904 10.0904 21.2126 10.0753 21.2387C10.0602 21.2649 10.0514 21.2943 10.0498 21.3245C10.0498 21.3805 10.0884 21.4041 10.1369 21.3755C10.1622 21.359 10.1833 21.3368 10.1984 21.3106C10.2135 21.2845 10.2223 21.2551 10.224 21.2249C10.219 21.1689 10.1792 21.1453 10.1369 21.1739Z" fill="#ECEBF2"/>
<path d="M10.1197 20.8118C10.1292 20.8111 10.1388 20.8111 10.1483 20.8118C10.3027 20.8404 10.4418 20.9234 10.5403 21.0457L10.3437 21.1515L10.2715 21.0856C10.2441 21.2426 10.1621 21.385 10.04 21.4875L10.1321 21.5174L10.147 21.7414C10.0648 21.731 9.98541 21.7043 9.9136 21.6629C9.8418 21.6214 9.77901 21.566 9.72891 21.5C9.70271 21.4565 9.68974 21.4063 9.69158 21.3556C9.69704 21.2539 9.72637 21.155 9.77717 21.0668C9.82798 20.9786 9.89884 20.9036 9.98402 20.8479C10.0237 20.8233 10.0692 20.8095 10.1159 20.808L10.1197 20.8118Z" fill="#777A85"/>
<path d="M10.2878 21.0295C10.2028 21.0854 10.1322 21.1605 10.0816 21.2487C10.031 21.3369 10.0019 21.4357 9.99658 21.5373C9.99658 21.7239 10.121 21.8011 10.2878 21.7078C10.373 21.652 10.4438 21.577 10.4946 21.4888C10.5454 21.4006 10.5748 21.3017 10.5802 21.2C10.5802 21.0121 10.4496 20.9362 10.2878 21.0295Z" fill="#262626"/>
<path d="M10.3239 21.1776C10.2699 21.2117 10.2248 21.2582 10.1923 21.3131C10.1599 21.3681 10.141 21.43 10.1372 21.4937C10.1372 21.6107 10.2181 21.658 10.3189 21.5995C10.3737 21.5659 10.4197 21.5197 10.4531 21.4647C10.4864 21.4097 10.5061 21.3476 10.5105 21.2834C10.5105 21.1677 10.4234 21.1204 10.3239 21.1776Z" fill="#262626"/>
<path d="M10.2154 21.5385C10.2684 21.5037 10.3124 21.457 10.3439 21.4021C10.3755 21.3472 10.3937 21.2857 10.3971 21.2224C10.3977 21.1995 10.3939 21.1767 10.3859 21.1552C10.4556 21.144 10.5104 21.1926 10.5104 21.2797C10.507 21.3429 10.4889 21.4045 10.4573 21.4594C10.4257 21.5144 10.3817 21.5611 10.3287 21.5958C10.2503 21.6418 10.1843 21.6219 10.1582 21.5572C10.1783 21.5546 10.1977 21.5482 10.2154 21.5385Z" fill="#777A85"/>
<path d="M10.3648 21.2461L10.2889 21.2025C10.2126 21.2656 10.1614 21.3539 10.1445 21.4514L10.2192 21.4937L10.3648 21.2461Z" fill="#777A85"/>
<path d="M10.2927 21.2536C10.2626 21.2729 10.2376 21.2991 10.2196 21.3301C10.2016 21.361 10.1913 21.3958 10.1895 21.4315C10.1895 21.4975 10.2355 21.5248 10.2927 21.4912C10.3226 21.4717 10.3473 21.4454 10.3651 21.4145C10.3828 21.3836 10.393 21.3489 10.3948 21.3133C10.3948 21.2473 10.3487 21.22 10.2927 21.2536Z" fill="#262626"/>
<path d="M10.3028 21.4801L10.2505 21.4489C10.2445 21.4443 10.2397 21.4382 10.2367 21.4313C10.2336 21.4243 10.2324 21.4167 10.2331 21.4091C10.2342 21.3874 10.2403 21.3663 10.2512 21.3475C10.262 21.3287 10.2771 21.3127 10.2953 21.3009C10.3017 21.297 10.309 21.295 10.3165 21.295C10.3239 21.295 10.3313 21.297 10.3376 21.3009L10.3924 21.3307L10.3028 21.4801Z" fill="#777A85"/>
<path d="M10.3461 21.3319C10.3283 21.344 10.3135 21.3601 10.3029 21.3789C10.2923 21.3977 10.2863 21.4187 10.2852 21.4402C10.2852 21.48 10.3125 21.4962 10.3461 21.4763C10.3643 21.4645 10.3795 21.4485 10.3903 21.4297C10.4011 21.4108 10.4073 21.3897 10.4084 21.368C10.4084 21.3282 10.386 21.3095 10.3461 21.3319Z" fill="#262626"/>
<path d="M7.79004 21.8173L7.90577 22.0201L9.57206 21.0507C9.5793 21.0442 9.58496 21.0361 9.58863 21.027C9.59229 21.018 9.59386 21.0082 9.59321 20.9984C9.59145 20.9697 9.583 20.9418 9.56852 20.917C9.55404 20.8921 9.53394 20.871 9.50984 20.8553C9.50211 20.85 9.49319 20.8466 9.48386 20.8455C9.47453 20.8445 9.46507 20.8457 9.45633 20.8491L7.79004 21.8173Z" fill="#777A85"/>
<path d="M7.85215 21.821C7.87631 21.8365 7.89638 21.8576 7.91067 21.8826C7.92496 21.9075 7.93306 21.9354 7.93428 21.9641C7.93428 22.0164 7.89819 22.0375 7.85215 22.0114C7.82821 21.9957 7.8083 21.9745 7.79403 21.9496C7.77977 21.9248 7.77154 21.8969 7.77002 21.8683C7.77251 21.816 7.80735 21.7949 7.85215 21.821Z" fill="#ECEBF2"/>
<path d="M7.35843 21.1677C7.36796 21.167 7.37752 21.167 7.38705 21.1677C7.54132 21.1967 7.68025 21.2796 7.77905 21.4016L7.58243 21.5074L7.51025 21.4415C7.48283 21.5985 7.40087 21.7409 7.27879 21.8434L7.37087 21.8733L7.38581 22.0973C7.30354 22.0869 7.22418 22.0602 7.15237 22.0188C7.08057 21.9773 7.01777 21.9219 6.96768 21.8558C6.94148 21.8124 6.92851 21.7622 6.93035 21.7115C6.93577 21.61 6.96494 21.5112 7.01552 21.423C7.0661 21.3348 7.13666 21.2597 7.22154 21.2038C7.26159 21.179 7.30763 21.1657 7.3547 21.1652L7.35843 21.1677Z" fill="#777A85"/>
<path d="M7.52362 21.383C7.43867 21.4388 7.36805 21.5139 7.31746 21.6021C7.26688 21.6903 7.23775 21.7892 7.23242 21.8907C7.23242 22.0786 7.35686 22.1545 7.52362 22.0612C7.60874 22.0064 7.67979 21.9323 7.73102 21.845C7.78225 21.7576 7.81223 21.6595 7.81855 21.5584C7.81855 21.3656 7.68788 21.2896 7.52362 21.383Z" fill="#262626"/>
<path d="M7.69173 21.8161C7.76219 21.6925 7.76123 21.5592 7.68959 21.5183C7.61794 21.4775 7.50274 21.5446 7.43228 21.6682C7.36181 21.7917 7.36276 21.925 7.43441 21.9659C7.50605 22.0067 7.62126 21.9397 7.69173 21.8161Z" fill="#262626"/>
<path d="M7.45422 21.8919C7.50713 21.8571 7.55114 21.8104 7.5827 21.7555C7.61425 21.7006 7.63248 21.6391 7.6359 21.5758C7.63647 21.5529 7.63267 21.5301 7.6247 21.5086C7.69439 21.4974 7.74914 21.546 7.74914 21.6331C7.74553 21.6963 7.72722 21.7577 7.69568 21.8126C7.66414 21.8675 7.62024 21.9142 7.56746 21.9492C7.48906 21.994 7.42311 21.9753 7.39697 21.9094C7.41696 21.9071 7.43636 21.9012 7.45422 21.8919Z" fill="#777A85"/>
<path d="M8.48955 22.1359L8.36511 22.3499L7.45916 21.826C7.45135 21.8193 7.44524 21.8109 7.44134 21.8013C7.43745 21.7918 7.43588 21.7815 7.43676 21.7712C7.43857 21.7409 7.44738 21.7114 7.46249 21.6851C7.47761 21.6588 7.49862 21.6363 7.52387 21.6194C7.53245 21.6139 7.54215 21.6104 7.55227 21.6091C7.56239 21.6078 7.57267 21.6088 7.58236 21.612L8.48955 22.1359Z" fill="#262626"/>
<path d="M8.19073 21.8073C8.14915 21.7313 8.13097 21.6447 8.13847 21.5584L8.01403 21.4838C8.02191 21.5171 8.02125 21.552 8.01212 21.585C8.00298 21.6181 7.98566 21.6483 7.96176 21.6729C7.91741 21.7074 7.86528 21.7305 7.80994 21.7401L7.72656 21.8123L7.82238 21.8235L7.89083 21.7949L8.09989 21.9193L8.15091 22.0438L8.25793 22.1321L8.34255 22.0612C8.2852 21.9808 8.23443 21.8959 8.19073 21.8073Z" fill="#777A85"/>
<path d="M8.10611 21.8782C8.06446 21.8023 8.04627 21.7157 8.05385 21.6294L7.9294 21.5559C7.9373 21.5891 7.93665 21.6238 7.92751 21.6566C7.91837 21.6895 7.90104 21.7195 7.87714 21.7438C7.83332 21.7787 7.78161 21.8022 7.72656 21.8123L8.26167 22.1209C8.20298 22.0446 8.15094 21.9634 8.10611 21.8782Z" fill="#262626"/>
<path d="M8.42207 22.1383C8.39675 22.1551 8.37568 22.1776 8.36056 22.2039C8.34544 22.2303 8.33668 22.2598 8.33496 22.2902C8.33496 22.3462 8.37478 22.3686 8.42207 22.3412C8.4476 22.3246 8.46882 22.3022 8.48397 22.2758C8.49912 22.2494 8.50776 22.2198 8.50918 22.1894C8.50918 22.1334 8.4706 22.111 8.42207 22.1383Z" fill="#ECEBF2"/>
<path d="M8.41099 21.7799H8.43962C8.59363 21.8087 8.73225 21.8917 8.83037 22.0139L8.63499 22.1197L8.56157 22.0537C8.53517 22.2112 8.45356 22.3541 8.33135 22.4569L8.42344 22.4868L8.43837 22.7095C8.35651 22.6993 8.2775 22.6729 8.20594 22.6319C8.13437 22.5909 8.07167 22.5361 8.02149 22.4706C7.99483 22.4278 7.98181 22.3779 7.98416 22.3275C7.98873 22.2262 8.01701 22.1273 8.06672 22.0389C8.11643 21.9506 8.18618 21.8751 8.27037 21.8185C8.31043 21.7938 8.35646 21.7805 8.40353 21.7799H8.41099Z" fill="#777A85"/>
<path d="M8.57906 21.994C8.49388 22.0497 8.42302 22.1247 8.37222 22.2129C8.32141 22.3011 8.29209 22.4001 8.28662 22.5017C8.28662 22.6896 8.41729 22.7655 8.57906 22.6722C8.66415 22.6165 8.73487 22.5414 8.78548 22.4532C8.83608 22.365 8.86513 22.2661 8.87026 22.1645C8.87026 21.9778 8.73959 21.9007 8.57906 21.994Z" fill="#262626"/>
<path d="M8.61381 22.1433C8.56099 22.1779 8.51704 22.2244 8.48548 22.2791C8.45392 22.3338 8.43565 22.3951 8.43213 22.4581C8.43213 22.5751 8.51426 22.6224 8.61381 22.5652C8.66687 22.5305 8.71098 22.4838 8.74256 22.4289C8.77413 22.374 8.79227 22.3124 8.7955 22.2491C8.7955 22.1321 8.71461 22.0848 8.61381 22.1433Z" fill="#262626"/>
<path d="M8.50668 22.5029C8.55974 22.4683 8.60385 22.4216 8.63542 22.3667C8.667 22.3118 8.68514 22.2501 8.68837 22.1869C8.68831 22.164 8.68453 22.1413 8.67717 22.1197C8.74561 22.1097 8.80161 22.1582 8.80161 22.2441C8.79838 22.3074 8.78024 22.369 8.74867 22.4239C8.71709 22.4789 8.67298 22.5255 8.61993 22.5602C8.54277 22.605 8.47557 22.5863 8.45068 22.5204C8.47018 22.5176 8.48909 22.5118 8.50668 22.5029Z" fill="#777A85"/>
<path d="M8.65505 22.2105L8.57914 22.167C8.50348 22.2304 8.45277 22.3186 8.43604 22.4158L8.50946 22.4594L8.65505 22.2105Z" fill="#777A85"/>
<path d="M8.583 22.218C8.55316 22.2378 8.52839 22.2643 8.51066 22.2954C8.49294 22.3266 8.48277 22.3614 8.48096 22.3972C8.48096 22.4619 8.527 22.4892 8.583 22.4569C8.61307 22.4372 8.63809 22.4108 8.65603 22.3796C8.67397 22.3485 8.68434 22.3136 8.68629 22.2777C8.68629 22.2118 8.64398 22.1806 8.583 22.218Z" fill="#262626"/>
<path d="M8.59283 22.4445L8.54057 22.4146C8.53452 22.41 8.52975 22.4039 8.52671 22.3969C8.52366 22.39 8.52243 22.3824 8.52315 22.3748C8.52448 22.3533 8.5308 22.3325 8.5416 22.3139C8.5524 22.2953 8.56739 22.2795 8.58537 22.2678C8.59199 22.2639 8.5995 22.2619 8.60715 22.2619C8.61479 22.2619 8.6223 22.2639 8.62892 22.2678L8.68243 22.2989L8.59283 22.4445Z" fill="#777A85"/>
<path d="M8.64376 22.2964C8.62555 22.3082 8.61041 22.3242 8.59959 22.343C8.58877 22.3618 8.58258 22.383 8.58154 22.4047C8.58154 22.4445 8.60892 22.4607 8.64376 22.4408C8.66177 22.4287 8.67676 22.4127 8.68755 22.3939C8.69834 22.3751 8.70465 22.3541 8.70599 22.3325C8.69976 22.2927 8.67114 22.2765 8.64376 22.2964Z" fill="#262626"/>
<path d="M7.3133 22.2354C7.31209 22.2297 7.31209 22.2237 7.3133 22.218C7.31498 22.1261 7.3494 22.0378 7.41037 21.9691L7.4925 22.0724L7.46139 22.1222C7.5564 22.1227 7.64828 22.1561 7.72147 22.2167L7.72894 22.1595L7.85338 22.1271C7.85582 22.1766 7.84838 22.2261 7.8315 22.2726C7.81462 22.3192 7.78864 22.362 7.75508 22.3984C7.7321 22.4179 7.70404 22.4304 7.67419 22.4345C7.61348 22.4413 7.55201 22.4336 7.49488 22.412C7.43775 22.3904 7.3866 22.3554 7.34566 22.3101C7.32703 22.2894 7.31453 22.264 7.30957 22.2366L7.3133 22.2354Z" fill="#1F1D1E"/>
<path d="M7.42183 22.1147C7.46337 22.1589 7.5148 22.1927 7.5719 22.2132C7.629 22.2338 7.69015 22.2405 7.75036 22.2329C7.85986 22.2142 7.89098 22.1296 7.82004 22.045C7.77923 21.9995 7.7281 21.9644 7.67093 21.9428C7.61377 21.9211 7.55224 21.9135 7.49151 21.9206C7.38201 21.9442 7.35089 22.0288 7.42183 22.1147Z" fill="#5C5659"/>
<path d="M7.90722 21.6107L7.6882 21.5311L7.51149 22.0164C7.51002 22.0258 7.51072 22.0353 7.51352 22.0444C7.51633 22.0535 7.52116 22.0617 7.52767 22.0687C7.54738 22.0895 7.57173 22.1055 7.59876 22.1152C7.62578 22.125 7.65472 22.1282 7.68322 22.1247C7.69263 22.124 7.70174 22.121 7.70976 22.116C7.71778 22.111 7.72447 22.1042 7.72926 22.096L7.90722 21.6107Z" fill="#1F1D1E"/>
<path d="M7.85732 21.6493C7.82892 21.6524 7.80019 21.6488 7.77341 21.6389C7.74663 21.6289 7.72253 21.6129 7.70301 21.592C7.66817 21.551 7.6831 21.5112 7.73412 21.5024C7.76261 21.4991 7.79149 21.5024 7.81848 21.5122C7.84547 21.5219 7.86984 21.5377 7.88967 21.5584C7.92327 21.5995 7.90958 21.6393 7.85732 21.6493Z" fill="#ECEBF2"/>
<path d="M7.89691 21.76L7.5995 21.653L7.53105 21.8397V21.8484C7.5293 21.8612 7.53052 21.8743 7.53462 21.8866C7.53872 21.8989 7.54559 21.9101 7.5547 21.9193C7.58127 21.9473 7.61399 21.9688 7.65028 21.9819C7.68656 21.9951 7.72541 21.9997 7.76376 21.9952C7.77679 21.9943 7.7894 21.9902 7.80047 21.9832C7.81154 21.9763 7.82073 21.9667 7.82723 21.9554L7.89691 21.76Z" fill="#5C5659"/>
<path d="M7.83237 21.8073C7.79392 21.8116 7.75501 21.8069 7.71872 21.7935C7.68243 21.7801 7.64976 21.7584 7.62331 21.7302C7.57726 21.6754 7.59593 21.6219 7.66686 21.6057C7.70521 21.6013 7.74406 21.6059 7.78034 21.619C7.81663 21.6322 7.84935 21.6536 7.87593 21.6816C7.92197 21.7451 7.89708 21.7999 7.83237 21.8073Z" fill="#ECEBF2"/>
<path d="M9.54475 18.1499C9.54589 18.178 9.53852 18.2058 9.5236 18.2296C9.50855 18.2537 9.49058 18.2759 9.47009 18.2955C9.47069 18.2907 9.47009 18.2858 9.46836 18.2812C9.46662 18.2767 9.4638 18.2726 9.46013 18.2694C9.45552 18.2667 9.45133 18.2634 9.44769 18.2595C9.44677 18.2573 9.44629 18.255 9.44629 18.2526C9.44629 18.2503 9.44677 18.2479 9.44769 18.2458C9.44961 18.2389 9.4521 18.2323 9.45516 18.2259C9.46636 18.2016 9.47882 18.1779 9.49249 18.1549C9.49795 18.1456 9.50294 18.1361 9.50742 18.1263C9.50742 18.1188 9.50742 18.1176 9.51862 18.1163C9.52057 18.1155 9.5227 18.115 9.52484 18.115C9.52699 18.115 9.52911 18.1155 9.53107 18.1163C9.53593 18.1204 9.53972 18.1256 9.54211 18.1314C9.54449 18.1373 9.5454 18.1437 9.54475 18.1499Z" fill="#498EA6"/>
<path d="M9.39043 18.0865C9.3953 18.0821 9.40074 18.0783 9.4066 18.0753C9.4136 18.074 9.42077 18.074 9.42776 18.0753C9.44368 18.0761 9.45931 18.0799 9.4738 18.0865L9.50367 18.1002C9.5122 18.1035 9.52018 18.1081 9.52731 18.1139C9.53851 18.1226 9.53976 18.1363 9.54349 18.15C9.54349 18.1413 9.5298 18.1437 9.52358 18.15C9.51586 18.1552 9.50981 18.1625 9.50616 18.1711C9.48578 18.2107 9.46992 18.2524 9.45887 18.2956C9.45783 18.285 9.45438 18.2747 9.44877 18.2657C9.44316 18.2566 9.43555 18.249 9.42652 18.2433C9.4085 18.2315 9.3881 18.2239 9.36678 18.2209C9.34065 18.2209 9.35309 18.1786 9.35683 18.1624C9.36145 18.1347 9.37301 18.1086 9.39043 18.0865Z" fill="#B0E8E5"/>
<path d="M8.64366 18.6962C8.73144 18.7218 8.82467 18.7218 8.91246 18.6962C9.04002 18.6799 9.1615 18.632 9.26587 18.5569C9.36032 18.4712 9.4234 18.3565 9.44507 18.2308C9.48706 18.2716 9.51197 18.3267 9.51476 18.3851C9.56951 18.6863 9.51476 19.0074 9.59813 19.2961C9.62551 19.3956 9.67031 19.4939 9.69022 19.5935C9.707 19.6804 9.70953 19.7695 9.69769 19.8573C9.67204 20.0337 9.5935 20.1981 9.47245 20.3289C9.41976 20.3831 9.36365 20.4338 9.30445 20.4808C9.26984 20.5073 9.23662 20.5355 9.2049 20.5654C9.1738 20.5971 9.14431 20.6303 9.11654 20.6649C9.05556 20.7359 8.9921 20.8093 8.94357 20.884C8.91743 20.9188 8.89254 20.9561 8.8689 20.9922C8.81912 21.0669 8.77059 21.1428 8.71584 21.2125C8.70109 21.229 8.68737 21.2465 8.67477 21.2647C8.66584 21.2806 8.65543 21.2956 8.64366 21.3095C8.61822 21.3364 8.59121 21.3618 8.56277 21.3855C8.52295 21.4228 8.48188 21.4576 8.43833 21.4912C8.26755 21.6247 8.06446 21.7106 7.84972 21.7401C7.77497 21.7488 7.69963 21.7513 7.62447 21.7476C7.57096 21.7476 7.51745 21.7414 7.46394 21.7339C7.35514 21.7218 7.2496 21.6893 7.15284 21.6381C7.12883 21.625 7.10594 21.6101 7.08439 21.5933C7.06697 21.5796 7.05328 21.5609 7.03462 21.5472C6.97189 21.506 6.92456 21.4453 6.90003 21.3743C6.87549 21.3034 6.87512 21.2264 6.89897 21.1552C6.96011 20.9948 7.04392 20.8439 7.14786 20.7072C7.2723 20.5243 7.39674 20.3339 7.52119 20.1497C7.64563 19.9656 7.77007 19.7764 7.88083 19.581C7.99158 19.3857 8.1098 19.1953 8.21931 18.9999C8.26286 18.924 8.30517 18.8481 8.34375 18.7709L8.40597 18.6552C8.42172 18.6179 8.44001 18.5817 8.46073 18.5469C8.47854 18.5199 8.50353 18.4983 8.53291 18.4847C8.53045 18.5016 8.53045 18.5188 8.53291 18.5357C8.53348 18.553 8.54059 18.5695 8.55282 18.5818C8.55282 18.6079 8.57646 18.6228 8.59264 18.6415C8.60468 18.6638 8.62224 18.6827 8.64366 18.6962Z" fill="#99E1EE"/>
<path d="M7.85872 20.6475C7.73525 20.6548 7.61395 20.6127 7.52148 20.5305L7.54139 20.5119C7.65837 20.6363 7.88361 20.6363 8.03917 20.5953C8.18169 20.5508 8.31376 20.478 8.42743 20.3812C8.68113 20.175 8.88143 19.9107 9.0114 19.6107C9.14136 19.3107 9.19716 18.9838 9.17408 18.6577H9.2027C9.22654 18.9866 9.17119 19.3165 9.04128 19.6196C8.91136 19.9227 8.71068 20.1903 8.45605 20.3999C8.33978 20.4998 8.20425 20.5748 8.05783 20.6201C7.99307 20.6386 7.92605 20.6478 7.85872 20.6475Z" fill="#FD6467"/>
<path d="M7.54252 20.5181L7.52386 20.5393C7.4638 20.4906 7.42031 20.4245 7.39941 20.3501C7.40688 20.3401 7.4131 20.3289 7.42057 20.3177C7.43675 20.3967 7.47986 20.4675 7.54252 20.5181Z" fill="#FD6467"/>
<path d="M9.69919 19.8573C9.67355 20.0337 9.59501 20.1981 9.47395 20.3289C9.42095 20.3828 9.36485 20.4335 9.30595 20.4808C9.27069 20.5069 9.23703 20.5352 9.20516 20.5654C9.17404 20.5965 9.14542 20.6313 9.1168 20.6649C9.08818 20.6985 9.05956 20.7334 9.03094 20.7695C9.01833 20.6388 9.01376 20.5075 9.01725 20.3762C9.01978 20.1758 9.05769 19.9774 9.12925 19.7901C9.23137 19.5652 9.3843 19.3672 9.57599 19.2115C9.57599 19.2401 9.58719 19.2687 9.59466 19.2961C9.62204 19.3956 9.66684 19.4939 9.68675 19.5935C9.70519 19.6802 9.70939 19.7693 9.69919 19.8573Z" fill="#F2F2F2"/>
<path d="M7.02624 21.6157C6.99206 21.5506 6.98362 21.4751 7.0026 21.4041C7.04991 21.2029 7.13894 21.0138 7.26393 20.8491C7.30997 20.7844 7.3585 20.7247 7.40579 20.6587C7.48046 20.5604 7.55761 20.4596 7.62357 20.3538L7.64223 20.3663C7.57628 20.472 7.49788 20.5741 7.42321 20.6724C7.37592 20.7346 7.32739 20.7968 7.28259 20.8628C7.15932 21.0243 7.07154 21.2101 7.025 21.4078C7.00611 21.4731 7.01325 21.5431 7.04491 21.6032L7.02624 21.6157Z" fill="#FD6467"/>
<path d="M8.82657 18.5021C8.94349 18.4854 9.05293 18.4348 9.14141 18.3565C9.18869 18.307 9.23942 18.2608 9.29323 18.2184C9.30885 18.206 9.32689 18.1971 9.34618 18.1922C9.36548 18.1872 9.3856 18.1864 9.40523 18.1898C9.42063 18.196 9.43463 18.2053 9.44638 18.2171C9.45814 18.2288 9.46742 18.2428 9.47367 18.2582C9.50852 18.3354 9.45252 18.4486 9.4127 18.5158C9.37303 18.5803 9.32718 18.6407 9.27581 18.6963C9.21477 18.769 9.13766 18.8265 9.05057 18.8643C8.96028 18.8956 8.86141 18.8912 8.77431 18.8518C8.71809 18.8294 8.66703 18.7958 8.62424 18.753C8.58145 18.7102 8.54783 18.6591 8.52542 18.6029C8.51994 18.5919 8.51709 18.5798 8.51709 18.5675C8.51709 18.5552 8.51994 18.543 8.52542 18.532C8.53017 18.5218 8.53692 18.5128 8.54525 18.5053C8.55359 18.4978 8.56335 18.4921 8.57396 18.4884C8.60152 18.4902 8.62872 18.4957 8.65484 18.5046C8.71189 18.5124 8.76977 18.5115 8.82657 18.5021Z" fill="#498EA6"/>
<path d="M7.25762 15.8104C7.5609 16.2936 7.82954 16.7976 8.06151 17.3187C8.24071 17.6982 8.4896 18.1126 8.5792 18.527C8.59072 18.5786 8.61092 18.6278 8.63893 18.6726C8.66506 18.7174 8.67377 18.7585 8.71733 18.7884C8.75895 18.8204 8.81039 18.8372 8.86293 18.8356C8.92048 18.8315 8.97628 18.814 9.02595 18.7846C9.17665 18.7093 9.29349 18.58 9.35323 18.4225C9.47767 18.0629 9.37438 17.6833 9.31216 17.3237C9.20141 16.6865 9.11181 16.0693 8.82933 15.4819C8.63644 15.0812 8.28924 14.8124 8.1088 14.3943C7.83254 13.7596 7.83254 13.0702 7.68943 12.4032C7.57587 11.9417 7.39427 11.4996 7.1506 11.0916C7.06715 10.9258 6.95982 10.7732 6.83202 10.6386C6.64478 10.7623 6.42669 10.8313 6.20234 10.8377C5.98083 10.8539 5.75684 10.8377 5.53409 10.8514C5.27547 10.8491 5.02415 10.9371 4.82352 11.1003C4.56592 11.343 4.54352 11.8096 4.73019 12.0958C4.80859 12.2203 4.91685 12.3248 5.00147 12.4455C5.13169 12.6465 5.25132 12.8542 5.35987 13.0677C5.50173 13.3266 5.64111 13.5854 5.79417 13.8368C6.19861 14.505 6.75238 15.0688 7.19415 15.7121C7.21779 15.7495 7.2377 15.7806 7.25762 15.8104Z" fill="#FFE5CC"/>
<path d="M6.57925 15.3475C6.60165 15.3811 6.62405 15.4122 6.64894 15.4433C6.82938 15.6661 7.10066 15.8975 7.39559 15.9299C7.6684 15.9572 7.94334 15.9062 8.18829 15.7831C8.31405 15.7209 8.43016 15.6408 8.533 15.5454C8.62219 15.475 8.6817 15.3738 8.69975 15.2616C8.71219 15.1248 8.60891 15.0128 8.52429 14.9082C8.43814 14.8333 8.3635 14.7461 8.30278 14.6494C8.24171 14.5499 8.21382 14.4335 8.22313 14.3171C8.22424 14.3039 8.22072 14.2907 8.21318 14.2798C8.19327 14.2561 8.15594 14.2798 8.13354 14.2985C7.97637 14.4711 7.78969 14.6144 7.58225 14.7216C7.46755 14.7671 7.34681 14.7956 7.22386 14.8062C7.08006 14.8221 6.93512 14.8251 6.7908 14.8149C6.70838 14.8164 6.62631 14.8037 6.54814 14.7776C6.48343 14.7477 6.42369 14.6942 6.42369 14.8136C6.41838 15.0035 6.47279 15.1902 6.57925 15.3475Z" fill="#2C4A8F"/>
<path d="M9.05958 18.9924C9.06442 18.951 9.05875 18.9089 9.0431 18.8702C9.02744 18.8315 9.00229 18.7974 8.96998 18.7709C8.94657 18.7554 8.92153 18.7424 8.89531 18.7323L8.58669 18.6079C8.53682 18.582 8.48106 18.5696 8.42492 18.5718C8.3973 18.5743 8.37163 18.5871 8.35296 18.6076C8.3343 18.6281 8.32401 18.6548 8.32412 18.6826V18.7535C8.28613 18.887 8.27847 19.0273 8.30172 19.1642C8.30172 19.1878 8.30172 19.2115 8.30172 19.2339C8.30172 19.2563 8.30172 19.2625 8.32536 19.2762C8.35408 19.2992 8.37424 19.3312 8.38261 19.367C8.41961 19.4736 8.45118 19.582 8.47718 19.6918C8.48011 19.705 8.48515 19.7176 8.49212 19.7291C8.50225 19.7392 8.51544 19.7457 8.52962 19.7475C8.5438 19.7493 8.55818 19.7463 8.57052 19.7391C8.59429 19.7267 8.6151 19.7093 8.63149 19.6881C8.75153 19.5457 8.85974 19.3938 8.95504 19.2339C8.9809 19.1945 9.00298 19.1529 9.021 19.1094C9.0408 19.0731 9.05387 19.0334 9.05958 18.9924Z" fill="#FD6467"/>
<path d="M8.8405 19.3185C8.89239 19.2315 8.93415 19.1388 8.96494 19.0422C8.97863 18.99 9.01223 18.8506 8.92761 18.8381C8.87907 18.8307 8.80316 18.8867 8.75588 18.9066C8.71225 18.9321 8.66644 18.9538 8.61899 18.9713C8.4597 19.0136 8.43606 18.8655 8.4373 18.7436C8.44446 18.6966 8.43381 18.6487 8.40744 18.6092C8.34397 18.5407 8.30041 18.7025 8.28299 18.7336L8.19215 18.9016C8.11997 19.0385 8.04904 19.1754 7.97811 19.3135C7.83749 19.586 7.7006 19.8598 7.56371 20.1336C7.52016 20.2232 7.46914 20.3962 7.56371 20.4708C7.58603 20.4861 7.61124 20.4966 7.63778 20.5017C7.66432 20.5069 7.69163 20.5065 7.71802 20.5007C7.77254 20.4886 7.82468 20.4676 7.87233 20.4385C7.95896 20.3932 8.04214 20.3416 8.12122 20.2842C8.44477 20.0427 8.6613 19.6831 8.8405 19.3185Z" fill="#F2F2F2"/>
<path d="M9.1416 20.757C9.17045 20.7505 9.19749 20.7376 9.22074 20.7193C9.24399 20.701 9.26286 20.6778 9.276 20.6512L9.34569 20.7757C9.36435 20.8105 9.3992 20.8566 9.33698 20.8665C9.30711 20.8665 9.22 20.8031 9.20009 20.7906C9.18018 20.7782 9.15529 20.7545 9.1416 20.757Z" fill="#C90004"/>
<path d="M6.8666 21.2834C6.86589 21.2731 6.86589 21.2627 6.8666 21.2523C6.86875 21.2465 6.87168 21.2411 6.87531 21.2361C6.87176 21.2705 6.87514 21.3052 6.88526 21.3382C6.89563 21.3705 6.91072 21.4011 6.93006 21.429C6.95046 21.4579 6.97336 21.485 6.99851 21.5099L7.02464 21.5348C7.07792 21.5807 7.13741 21.6188 7.20135 21.648C7.25919 21.6743 7.3203 21.6927 7.38303 21.7028C7.559 21.7314 7.73844 21.7314 7.9144 21.7028C8.08201 21.6741 8.24105 21.6082 8.37982 21.5099C8.5062 21.4107 8.61622 21.2923 8.70586 21.159C8.79297 21.042 8.87386 20.9213 8.96594 20.8081C9.01074 20.7508 9.05928 20.6961 9.10905 20.6425C9.13394 20.6152 9.15883 20.5878 9.18496 20.5617C9.23349 20.5131 9.28576 20.4658 9.33305 20.4136C9.38034 20.3613 9.43136 20.3016 9.47616 20.2431L9.4998 20.2132C9.53703 20.1643 9.56992 20.1123 9.59811 20.0577C9.67313 19.9005 9.70122 19.7251 9.679 19.5524C9.75748 19.728 9.80948 19.9142 9.83331 20.105C9.83766 20.175 9.83766 20.2452 9.83331 20.3153C9.83565 20.3824 9.82019 20.4489 9.78851 20.5081C9.73721 20.5839 9.67659 20.6529 9.60807 20.7135C9.53413 20.7773 9.45 20.8282 9.35918 20.8641C9.35428 20.8662 9.34898 20.8673 9.34363 20.8673C9.33827 20.8673 9.33297 20.8662 9.32807 20.8641C9.32296 20.8598 9.31909 20.8542 9.31687 20.8479C9.29447 20.8006 9.28949 20.7521 9.23101 20.7521C9.18686 20.7527 9.14377 20.7656 9.10656 20.7894C9.03666 20.8392 8.97813 20.9032 8.93483 20.9773C8.91492 21.0072 8.89626 21.0383 8.87759 21.0681C8.78875 21.2397 8.68594 21.4037 8.57022 21.5584C8.47115 21.6743 8.34193 21.7604 8.19689 21.8073C8.05636 21.8489 7.91036 21.8691 7.76383 21.8671C7.61386 21.8747 7.46368 21.857 7.31957 21.8148C7.1652 21.7769 7.02751 21.6895 6.92757 21.5659C6.89956 21.5242 6.8805 21.4772 6.87157 21.4278C6.86053 21.3804 6.85884 21.3314 6.8666 21.2834Z" fill="#FD6467"/>
<path d="M7.94053 20.5629C7.82032 20.4151 7.64964 20.3171 7.46143 20.2879L7.46889 20.2194C7.67387 20.2514 7.8599 20.3577 7.99155 20.5181L7.94053 20.5629Z" fill="#FD6467"/>
<path d="M8.17453 20.3874C8.0333 20.2058 7.82728 20.0858 7.59961 20.0527L7.60957 19.9855C7.8557 20.0212 8.07859 20.1504 8.23178 20.3464L8.17453 20.3874Z" fill="#FD6467"/>
<path d="M8.42623 20.1572C8.33325 20.0617 8.22676 19.9804 8.11014 19.9158C7.99625 19.8524 7.86703 19.8219 7.73682 19.8274V19.7602C7.88021 19.7532 8.02276 19.7859 8.14872 19.8548C8.27051 19.9214 8.382 20.0052 8.47974 20.1037L8.42623 20.1572Z" fill="#FD6467"/>
<path d="M8.67718 19.8772C8.60625 19.8262 8.53158 19.7727 8.45567 19.7266C8.28425 19.6237 8.0959 19.5521 7.89941 19.5151L7.91186 19.4479C8.11626 19.4865 8.31218 19.5611 8.49052 19.6681C8.56892 19.7154 8.64358 19.7702 8.717 19.8212L8.67718 19.8772Z" fill="#FD6467"/>
<path d="M8.87403 19.5798C8.55449 19.5295 8.25395 19.3956 8.00293 19.1915L8.04648 19.138C8.28795 19.3348 8.57745 19.4636 8.88523 19.5114L8.87403 19.5798Z" fill="#FD6467"/>
<path d="M8.21711 20.4123C7.9845 20.3027 7.72336 20.2687 7.47045 20.3153L7.45801 20.2481C7.72532 20.199 8.00131 20.2351 8.24697 20.3513L8.21711 20.4123Z" fill="#FD6467"/>
<path d="M7.95177 20.5816C7.94411 20.5815 7.93665 20.5791 7.93042 20.5746C7.92419 20.5702 7.91947 20.5639 7.91692 20.5567V20.5405C7.88519 20.4483 7.84693 20.3585 7.80243 20.2717C7.75775 20.1822 7.69302 20.1043 7.61328 20.044L7.6531 19.988C7.74022 20.0546 7.8116 20.1396 7.86217 20.2369C7.91064 20.3261 7.95224 20.4188 7.98661 20.5144V20.5305C7.98489 20.5257 7.98191 20.5214 7.97796 20.5181C7.97402 20.5149 7.96927 20.5127 7.96421 20.5119L7.99283 20.543V20.5517L7.97043 20.5791L7.95177 20.5816ZM7.95177 20.5144H7.95923H7.95177Z" fill="#FD6467"/>
<path d="M8.20308 20.4048C8.1951 20.4048 8.18735 20.4022 8.18088 20.3975C8.17442 20.3928 8.16957 20.3863 8.16699 20.3787C8.13719 20.3041 8.10053 20.2325 8.05749 20.1647C7.97834 20.024 7.86651 19.9045 7.73145 19.8162L7.76629 19.7578C7.91148 19.8515 8.03119 19.9798 8.11473 20.1311C8.16059 20.2026 8.19935 20.2785 8.23046 20.3576C8.22914 20.3536 8.22685 20.3501 8.22381 20.3473C8.22076 20.3444 8.21706 20.3424 8.21304 20.3414L8.23793 20.3737C8.23749 20.3816 8.23443 20.389 8.22923 20.3949C8.22404 20.4008 8.21702 20.4047 8.20931 20.4061L8.20308 20.4048ZM8.16948 20.3688C8.16957 20.3763 8.1722 20.3836 8.17694 20.3895C8.18168 20.3953 8.18826 20.3994 8.19562 20.4011V20.37L8.16948 20.3688ZM8.20308 20.3364H8.21179H8.20308Z" fill="#FD6467"/>
<path d="M8.45691 20.1659C8.38722 20.151 8.31878 20.1298 8.25158 20.1099C8.14929 20.0737 8.04327 20.0491 7.93549 20.0365C7.83229 20.0307 7.72877 20.0366 7.62688 20.0539L7.61816 19.9855C7.72469 19.9684 7.83277 19.963 7.94047 19.9693C8.05322 19.9819 8.16423 20.007 8.27149 20.044C8.33744 20.0651 8.40464 20.085 8.47184 20.1L8.45691 20.1659Z" fill="#FD6467"/>
<path d="M8.67235 19.8672C8.59396 19.8448 8.5168 19.8249 8.44089 19.81C8.22568 19.7704 8.00465 19.775 7.7913 19.8237L7.77637 19.7577C7.99866 19.7065 8.22915 19.7019 8.45334 19.7441C8.53173 19.759 8.61138 19.7789 8.69102 19.8013L8.67235 19.8672Z" fill="#FD6467"/>
<path d="M8.40594 20.1572C8.39154 20.122 8.37535 20.0875 8.35741 20.0539C8.33165 19.9981 8.30213 19.944 8.26906 19.8922C8.24155 19.8518 8.21163 19.8132 8.17946 19.7764C8.10016 19.6699 8.00488 19.5763 7.89697 19.4989L7.93306 19.4417C8.04892 19.5222 8.15139 19.6205 8.2367 19.7329C8.27043 19.7723 8.3016 19.8139 8.33003 19.8573C8.36497 19.9111 8.39615 19.9672 8.42337 20.0253C8.44079 20.0614 8.45945 20.0975 8.47439 20.1348L8.40594 20.1572Z" fill="#FD6467"/>
<path d="M8.65515 19.8499C8.55535 19.8027 8.45962 19.7473 8.36893 19.6843C8.19514 19.5582 8.06471 19.3812 7.99561 19.1779L8.06032 19.1567C8.1236 19.3455 8.24299 19.5105 8.40253 19.6296C8.49084 19.69 8.58361 19.7437 8.68004 19.7901L8.65515 19.8499Z" fill="#FD6467"/>
<path d="M8.46107 19.6258C8.27508 19.6285 8.09023 19.5965 7.91602 19.5313L7.9409 19.4678C8.15092 19.5444 8.37538 19.5733 8.59796 19.5524C8.68703 19.5514 8.7747 19.5302 8.85431 19.4902L8.88791 19.5499C8.79944 19.5947 8.70205 19.6189 8.60294 19.6209C8.55441 19.6234 8.50712 19.6258 8.46107 19.6258Z" fill="#FD6467"/>
<path d="M8.7209 19.2986C8.48205 19.2924 8.24547 19.2504 8.01904 19.1741L8.03895 19.1094C8.26261 19.1838 8.49641 19.2233 8.7321 19.2264C8.81946 19.2287 8.90659 19.2161 8.98969 19.1891L9.01209 19.2538C8.92168 19.2828 8.82706 19.2967 8.7321 19.2948L8.7209 19.2986Z" fill="#FD6467"/>
<path d="M8.98955 19.2836C9.0191 19.2836 9.04306 19.2597 9.04306 19.2301C9.04306 19.2006 9.0191 19.1766 8.98955 19.1766C8.95999 19.1766 8.93604 19.2006 8.93604 19.2301C8.93604 19.2597 8.95999 19.2836 8.98955 19.2836Z" fill="#FD6467"/>
<path d="M9.01725 19.2301C9.01725 19.234 9.01648 19.2379 9.01498 19.2416C9.01348 19.2452 9.01128 19.2485 9.0085 19.2512C9.00573 19.254 9.00244 19.2562 8.99882 19.2577C8.99519 19.2592 8.99131 19.26 8.98739 19.26C8.98346 19.26 8.97958 19.2592 8.97596 19.2577C8.97233 19.2562 8.96904 19.254 8.96627 19.2512C8.96349 19.2485 8.96129 19.2452 8.95979 19.2416C8.95829 19.2379 8.95752 19.234 8.95752 19.2301C8.95752 19.2263 8.9583 19.2224 8.95981 19.2189C8.96133 19.2153 8.96355 19.2121 8.96634 19.2094C8.96913 19.2068 8.97243 19.2047 8.97605 19.2033C8.97967 19.2019 8.98352 19.2013 8.98739 19.2015C8.99125 19.2013 8.9951 19.2019 8.99872 19.2033C9.00234 19.2047 9.00564 19.2068 9.00843 19.2094C9.01123 19.2121 9.01345 19.2153 9.01496 19.2189C9.01648 19.2224 9.01726 19.2263 9.01725 19.2301Z" fill="#498EA6"/>
<path d="M8.84661 19.54C8.70829 19.4725 8.57839 19.389 8.45959 19.2911C8.32127 19.1636 8.214 19.0061 8.146 18.8307L8.20946 18.8045C8.27285 18.9715 8.37475 19.1212 8.50688 19.2413C8.6215 19.3354 8.74681 19.4156 8.88021 19.4803L8.84661 19.54Z" fill="#FD6467"/>
<path d="M8.14616 18.7112C8.16171 18.7075 8.17789 18.7075 8.19345 18.7112C8.25442 18.7373 8.293 18.7983 8.34527 18.8356C8.37612 18.855 8.40453 18.8779 8.42989 18.9041C8.44474 18.9225 8.45345 18.9451 8.45478 18.9688C8.43617 18.9367 8.40903 18.9104 8.37638 18.8929C8.34357 18.8761 8.30827 18.8648 8.27184 18.8593C8.2379 18.8572 8.20479 18.8479 8.17478 18.8319C8.13869 18.8207 8.07025 18.7249 8.14616 18.7112Z" fill="#498EA6"/>
<path d="M8.39482 18.9115C8.41505 18.9282 8.43141 18.9491 8.4428 18.9727C8.45418 18.9964 8.46032 19.0222 8.46078 19.0484C8.43738 19.018 8.40923 18.9915 8.3774 18.97C8.3465 18.9459 8.31262 18.9258 8.2766 18.9103C8.24176 18.8953 8.20443 18.8866 8.16834 18.8705C8.14434 18.8603 8.12208 18.8465 8.10238 18.8294C8.09732 18.8253 8.09316 18.8202 8.09016 18.8144C8.08717 18.8086 8.08539 18.8023 8.08496 18.7958C8.08496 18.7821 8.10487 18.7771 8.10612 18.7597C8.1055 18.7518 8.1055 18.7439 8.10612 18.7361C8.10612 18.7274 8.11358 18.7186 8.12229 18.7211C8.11986 18.732 8.12043 18.7432 8.12394 18.7538C8.12745 18.7643 8.13377 18.7737 8.1422 18.7809C8.15874 18.795 8.17772 18.8059 8.1982 18.8132L8.32265 18.8717C8.34844 18.8816 8.37273 18.895 8.39482 18.9115Z" fill="#99E1EE"/>
<path d="M8.55662 19.1082C8.58027 19.1219 8.60515 19.1306 8.6288 19.1442C8.69367 19.1878 8.74567 19.248 8.77937 19.3185C8.8077 19.3637 8.82949 19.4127 8.84408 19.4641C8.84408 19.4641 8.84408 19.484 8.85528 19.4865C8.86648 19.489 8.86275 19.4578 8.85528 19.4504C8.8469 19.4081 8.83525 19.3665 8.82044 19.3259C8.80798 19.2973 8.79299 19.2698 8.77564 19.2438C8.74168 19.1788 8.6971 19.1199 8.64373 19.0696C8.61974 19.0461 8.59021 19.0289 8.55787 19.0198C8.54169 19.0198 8.50933 19.0198 8.49938 19.0323C8.48942 19.0447 8.53796 19.097 8.55662 19.1082Z" fill="#498EA6"/>
<path d="M8.25074 19.0696C8.17962 19.0955 8.11743 19.1413 8.07154 19.2015C8.06326 19.2107 8.05881 19.2227 8.0591 19.2351C8.06851 19.2317 8.07702 19.2261 8.08398 19.2189C8.10617 19.1964 8.1308 19.1763 8.1574 19.1592C8.18225 19.1438 8.2085 19.1309 8.2358 19.1206C8.27579 19.1039 8.31754 19.0918 8.36025 19.0845C8.39385 19.0783 8.4262 19.0758 8.45856 19.0671C8.49091 19.0584 8.49215 19.0534 8.48718 19.0347C8.4822 19.0161 8.46727 19.0223 8.45607 19.0235C8.4142 19.0287 8.37265 19.0361 8.33162 19.0459C8.30407 19.0516 8.27702 19.0596 8.25074 19.0696Z" fill="#498EA6"/>
<path d="M8.41969 18.9613C8.40656 18.9714 8.3968 18.9853 8.39169 19.0011C8.38658 19.0168 8.38637 19.0338 8.39107 19.0497C8.39182 19.0539 8.39342 19.058 8.39577 19.0616C8.39812 19.0653 8.40118 19.0684 8.40476 19.0708C8.41169 19.0727 8.41898 19.0727 8.42591 19.0708H8.45329C8.46639 19.0709 8.47925 19.0743 8.49062 19.0808C8.49809 19.0808 8.50556 19.0957 8.51551 19.0932C8.52547 19.0907 8.5292 19.0783 8.5292 19.0683C8.5292 19.0584 8.52173 19.0148 8.55036 18.9999C8.57898 18.985 8.574 18.9812 8.59018 18.9825C8.59139 18.9747 8.59066 18.9668 8.58805 18.9594C8.58544 18.9521 8.58104 18.9454 8.57524 18.9402C8.56968 18.9349 8.56294 18.931 8.55558 18.9289C8.54823 18.9267 8.54047 18.9263 8.53293 18.9277C8.52589 18.9232 8.51768 18.9207 8.50929 18.9207C8.5009 18.9207 8.49269 18.9232 8.48565 18.9277C8.46191 18.9351 8.43961 18.9465 8.41969 18.9613Z" fill="#498EA6"/>
<path d="M8.90506 19.2413C8.89578 19.2444 8.88573 19.2444 8.87644 19.2413C8.87122 19.2393 8.86644 19.2363 8.86238 19.2325C8.85832 19.2286 8.85507 19.224 8.8528 19.2189C8.84773 19.2092 8.84316 19.1992 8.83911 19.189C8.81463 19.1521 8.78438 19.1193 8.74951 19.092C8.76503 19.1015 8.78126 19.1098 8.79804 19.1169C8.82298 19.1247 8.84749 19.1338 8.87147 19.1442C8.89498 19.1555 8.91356 19.175 8.92373 19.199C8.9312 19.2164 8.92746 19.2363 8.90506 19.2413Z" fill="#498EA6"/>
<path d="M8.49197 18.9775C8.56361 18.9964 8.63634 19.011 8.70975 19.021C8.78288 19.0321 8.85237 19.0602 8.91259 19.1032C8.9376 19.1191 8.95614 19.1433 8.96486 19.1716C8.96607 19.1741 8.9667 19.1769 8.9667 19.1797C8.9667 19.1825 8.96607 19.1853 8.96486 19.1878C8.96486 19.1878 8.95739 19.1878 8.95241 19.1953C8.94744 19.2027 8.9325 19.2214 8.9213 19.2326C8.9213 19.2326 8.9213 19.2326 8.91508 19.2264C8.90879 19.2148 8.90128 19.204 8.89268 19.194C8.87859 19.1753 8.85902 19.1614 8.83668 19.1542C8.75555 19.1242 8.67237 19.1001 8.5878 19.082C8.53928 19.0714 8.49558 19.0452 8.46335 19.0074C8.46036 19.0038 8.45815 18.9996 8.45686 18.9951C8.45557 18.9906 8.45524 18.9859 8.45589 18.9812C8.46086 18.9551 8.48202 18.975 8.49197 18.9775Z" fill="#99E1EE"/>
<path d="M8.0079 20.5318C8.0079 20.546 8.00226 20.5596 7.99223 20.5696C7.98219 20.5797 7.96858 20.5853 7.95439 20.5853C7.9402 20.5853 7.92659 20.5797 7.91655 20.5696C7.90652 20.5596 7.90088 20.546 7.90088 20.5318C7.90088 20.5176 7.90652 20.504 7.91655 20.4939C7.92659 20.4839 7.9402 20.4783 7.95439 20.4783C7.96858 20.4783 7.98219 20.4839 7.99223 20.4939C8.00226 20.504 8.0079 20.5176 8.0079 20.5318Z" fill="#FD6467"/>
<path d="M7.95418 20.5604C7.97068 20.5604 7.98405 20.547 7.98405 20.5305C7.98405 20.514 7.97068 20.5007 7.95418 20.5007C7.93769 20.5007 7.92432 20.514 7.92432 20.5305C7.92432 20.547 7.93769 20.5604 7.95418 20.5604Z" fill="#498EA6"/>
<path d="M8.27059 20.3601C8.27059 20.3743 8.26496 20.3879 8.25492 20.3979C8.24489 20.4079 8.23128 20.4136 8.21708 20.4136C8.20289 20.4136 8.18928 20.4079 8.17925 20.3979C8.16921 20.3879 8.16357 20.3743 8.16357 20.3601C8.16357 20.3459 8.16921 20.3323 8.17925 20.3222C8.18928 20.3122 8.20289 20.3065 8.21708 20.3065C8.23128 20.3065 8.24489 20.3122 8.25492 20.3222C8.26496 20.3323 8.27059 20.3459 8.27059 20.3601Z" fill="#FD6467"/>
<path d="M8.24159 20.3601C8.24159 20.3677 8.23858 20.3749 8.23321 20.3803C8.22784 20.3857 8.22056 20.3887 8.21297 20.3887C8.20911 20.3889 8.20525 20.3882 8.20164 20.3869C8.19802 20.3855 8.19471 20.3834 8.19192 20.3808C8.18913 20.3781 8.18691 20.3749 8.1854 20.3713C8.18388 20.3678 8.1831 20.3639 8.18311 20.3601C8.18311 20.3521 8.18625 20.3446 8.19185 20.339C8.19745 20.3333 8.20505 20.3302 8.21297 20.3302C8.21684 20.3302 8.22066 20.331 8.22422 20.3325C8.22778 20.334 8.23099 20.3362 8.23366 20.339C8.23634 20.3418 8.23842 20.3451 8.23978 20.3487C8.24115 20.3524 8.24176 20.3562 8.24159 20.3601Z" fill="#498EA6"/>
<path d="M8.45341 20.1808C8.48297 20.1808 8.50692 20.1569 8.50692 20.1273C8.50692 20.0978 8.48297 20.0738 8.45341 20.0738C8.42386 20.0738 8.3999 20.0978 8.3999 20.1273C8.3999 20.1569 8.42386 20.1808 8.45341 20.1808Z" fill="#FD6467"/>
<path d="M8.45321 20.1572C8.4697 20.1572 8.48307 20.1438 8.48307 20.1273C8.48307 20.1108 8.4697 20.0975 8.45321 20.0975C8.43671 20.0975 8.42334 20.1108 8.42334 20.1273C8.42334 20.1438 8.43671 20.1572 8.45321 20.1572Z" fill="#498EA6"/>
<path d="M8.67851 19.8909C8.70806 19.8909 8.73202 19.8669 8.73202 19.8374C8.73202 19.8078 8.70806 19.7839 8.67851 19.7839C8.64896 19.7839 8.625 19.8078 8.625 19.8374C8.625 19.8669 8.64896 19.8909 8.67851 19.8909Z" fill="#FD6467"/>
<path d="M8.67879 19.8673C8.69529 19.8673 8.70866 19.8539 8.70866 19.8374C8.70866 19.8209 8.69529 19.8075 8.67879 19.8075C8.6623 19.8075 8.64893 19.8209 8.64893 19.8374C8.64893 19.8539 8.6623 19.8673 8.67879 19.8673Z" fill="#498EA6"/>
<path d="M8.86894 19.5835C8.89849 19.5835 8.92245 19.5596 8.92245 19.53C8.92245 19.5005 8.89849 19.4765 8.86894 19.4765C8.83939 19.4765 8.81543 19.5005 8.81543 19.53C8.81543 19.5596 8.83939 19.5835 8.86894 19.5835Z" fill="#FD6467"/>
<path d="M8.86922 19.5599C8.88572 19.5599 8.89909 19.5465 8.89909 19.53C8.89909 19.5135 8.88572 19.5002 8.86922 19.5002C8.85273 19.5002 8.83936 19.5135 8.83936 19.53C8.83936 19.5465 8.85273 19.5599 8.86922 19.5599Z" fill="#498EA6"/>
<path d="M3.10985 15.0327C3.60762 15.0737 4.09793 14.8647 4.54592 14.6345C4.80227 14.5038 5.0636 14.3594 5.35106 14.3358C5.75675 14.3034 6.1363 14.51 6.52829 14.617C7.29112 14.8236 8.10996 14.6432 8.83546 14.3296C9.06319 14.23 9.30958 14.0919 9.37429 13.8517C9.39228 13.7616 9.38965 13.6685 9.36659 13.5795C9.34353 13.4905 9.30064 13.4079 9.24114 13.3378C9.12038 13.1996 8.9809 13.079 8.82675 12.9794C8.50051 12.7605 8.20503 12.4989 7.94818 12.2016C7.56241 11.725 7.36206 11.1289 7.13682 10.5577C6.91157 9.98653 6.63905 9.40663 6.15496 9.02708C5.99743 8.90831 5.83102 8.80181 5.65719 8.7085C5.58096 8.65914 5.49675 8.62335 5.40831 8.60273C5.27784 8.59537 5.14735 8.61705 5.02627 8.6662C4.60568 8.79309 4.16412 8.83539 3.72709 8.79064C3.49653 8.78278 3.2684 8.74085 3.05012 8.6662C2.94932 8.6214 2.66186 8.29287 2.71413 8.16843C2.42791 8.85908 2.45777 9.63187 2.43164 10.3798C2.43164 10.4047 2.43164 10.4295 2.43164 10.4544C2.39687 11.2963 2.28481 12.1331 2.09689 12.9545C2.0496 13.1598 1.99858 13.3639 1.94134 13.5667C1.85174 13.8891 1.71983 14.0645 1.94134 14.3669C2.07697 14.5552 2.25151 14.7121 2.45313 14.827C2.65475 14.9418 2.87873 15.012 3.10985 15.0327Z" fill="#FFFA5E"/>
<path d="M0.869802 5.67087C0.690604 5.74429 0.602251 6.00935 0.518875 6.16864C0.38821 6.41752 0.262523 6.66641 0.145547 6.91529C0.0843377 7.03308 0.0395365 7.15869 0.0123923 7.28862C-0.041118 7.60222 0.103236 7.91083 0.242612 8.19705C0.302344 8.32149 0.484029 8.24434 0.577361 8.19705C0.695634 8.13563 0.805962 8.05999 0.905891 7.97181C1.13398 7.78509 1.32698 7.55923 1.47584 7.3048C1.60761 7.07735 1.68113 6.82086 1.68988 6.55814C1.69668 6.43853 1.66388 6.32 1.59655 6.2209C1.53059 6.11264 1.45344 6.01059 1.38002 5.9073C1.30299 5.78792 1.18398 5.70177 1.04651 5.66589C0.988436 5.64983 0.92688 5.65157 0.869802 5.67087Z" fill="#FFB78C"/>
<path d="M2.23752 3.79922C1.97037 3.84571 1.71107 3.92949 1.46722 4.04811C1.28003 4.16459 1.13051 4.3327 1.03665 4.53219L0.99558 4.61059C0.793712 5.05236 0.640172 5.51466 0.537632 5.98942C0.530325 6.01102 0.527778 6.03394 0.530166 6.05662C0.534687 6.07499 0.542716 6.09232 0.55381 6.10764C0.75043 6.40879 1.09887 6.57181 1.44357 6.67136C1.66362 6.74556 1.89743 6.76979 2.12801 6.7423C2.12801 6.69003 2.07948 6.65394 2.0409 6.61785C2.00263 6.57947 1.97279 6.53353 1.95329 6.48296C1.93379 6.43239 1.92506 6.37831 1.92766 6.32417C1.92766 6.19102 1.88659 6.05538 1.87788 5.92098C1.85194 5.56277 1.85777 5.20297 1.8953 4.84579C1.90775 4.72135 1.92517 4.60562 1.93139 4.48615C1.92579 4.43029 1.92579 4.37402 1.93139 4.31816C1.9441 4.21369 1.97797 4.11291 2.03094 4.02198C2.06828 3.96723 2.16534 3.81291 2.23752 3.79922Z" fill="#FFFA5E"/>
<path d="M1.99961 3.85149L1.92121 3.87637C1.76565 3.92366 1.58895 3.97343 1.50433 4.12525C1.42378 4.26993 1.38098 4.43256 1.37988 4.59814C1.38768 4.76644 1.41397 4.93337 1.45828 5.09591C1.62006 5.79653 2.32938 8.5803 2.40653 8.74581C2.46502 8.87772 2.5148 9.06065 2.63924 9.14154C2.93915 9.33816 3.35728 9.40536 3.70945 9.43273C4.15049 9.46121 4.59325 9.4192 5.02107 9.30829C5.30729 9.2386 5.60471 9.13532 5.78888 8.90635C5.89154 8.76158 5.96779 8.5998 6.01412 8.42848C6.29702 7.59389 6.57909 6.75929 6.86033 5.9247C6.96064 5.68314 7.00325 5.42152 6.98478 5.16062C6.92753 4.77111 6.61145 4.47619 6.29039 4.24472C5.83691 3.90614 5.32952 3.64656 4.78961 3.47691C4.53229 3.39416 4.26551 3.3444 3.99566 3.32883C3.7082 3.32883 3.40332 3.4346 3.13203 3.51674L1.99961 3.85149Z" fill="#FFDC22"/>
<path d="M4.64815 2.8995C4.63073 2.73524 4.46895 2.63195 4.32709 2.54733C4.031 2.37073 3.75226 2.16657 3.49457 1.93756C3.24568 1.71356 2.9968 1.42486 3.01049 1.08762C3.01049 1.00922 3.03164 0.932062 3.03164 0.853663C3.03354 0.814651 3.02683 0.775703 3.01199 0.739573C2.99715 0.703444 2.97455 0.671019 2.94578 0.644601C2.93072 0.632543 2.91332 0.623741 2.89469 0.618754C2.87606 0.613766 2.85659 0.6127 2.83753 0.615624C2.81846 0.618549 2.80021 0.625402 2.78393 0.635744C2.76764 0.646087 2.75369 0.659696 2.74294 0.675711L2.56996 0.685669C2.2363 0.966808 1.99266 1.33984 1.86935 1.75836C1.74713 2.17683 1.73641 2.61996 1.83824 3.04385C1.90668 3.3338 2.04108 3.63247 2.30116 3.77682C2.54009 3.90873 2.83378 3.88384 3.10009 3.82909C3.3624 3.77599 3.61908 3.69806 3.86665 3.59638C4.08455 3.51434 4.28726 3.39658 4.46647 3.24794C4.52186 3.20809 4.56715 3.15582 4.5987 3.09531C4.63026 3.0348 4.64719 2.96773 4.64815 2.8995Z" fill="#774443"/>
<path d="M9.29323 11.3255C9.21607 11.0667 9.16878 10.8004 9.11652 10.5341C9.04558 10.1782 8.97465 9.82225 8.88754 9.47008C8.81163 9.16395 8.71457 8.86405 8.61626 8.56414C8.56648 8.41357 8.5167 8.26424 8.46817 8.11366C8.23867 7.37223 7.88156 6.67653 7.4129 6.05787C7.39546 6.0305 7.37036 6.00886 7.34072 5.99565C7.31139 5.98766 7.28045 5.98766 7.25112 5.99565L6.94997 6.07031C6.82553 6.10266 6.70109 6.19475 6.56669 6.20595C6.53184 6.20595 6.19336 6.13129 6.19336 6.1624C6.1971 6.2441 6.21877 6.32396 6.25683 6.39635C6.34269 6.59172 6.43727 6.78213 6.53558 6.97128C6.67373 7.23996 6.8279 7.5001 6.99726 7.75028C7.13415 7.94815 8.31759 10.167 8.46817 10.7991C8.51572 10.9526 8.547 11.1107 8.5615 11.2708C8.5615 11.3952 8.47937 11.5072 8.4495 11.6229C8.42755 11.7464 8.42755 11.8728 8.4495 11.9963C8.46568 12.1506 8.49181 12.2987 8.50177 12.4517C8.51173 12.6048 8.5279 12.7852 8.54906 12.9495C8.54906 12.9868 8.56399 13.0316 8.60008 13.0453C8.63617 13.059 8.68843 13.0155 8.70834 12.9719C8.74614 12.8803 8.76924 12.7833 8.77679 12.6844C8.7975 12.5527 8.80831 12.4196 8.80914 12.2862C8.87336 12.3581 8.92132 12.443 8.94976 12.5351C8.95884 12.5576 8.96184 12.582 8.95847 12.606C8.94603 12.6595 8.8863 12.6844 8.85021 12.7305C8.77928 12.8114 8.80914 12.9445 8.75066 13.0354C8.72452 13.0752 8.68221 13.1038 8.65359 13.1424C8.63788 13.161 8.62927 13.1846 8.62927 13.209C8.62927 13.2333 8.63788 13.2569 8.65359 13.2755C8.69466 13.3116 8.77057 13.2905 8.80292 13.334C8.83528 13.3776 8.81537 13.3925 8.82781 13.4199C8.83758 13.4379 8.8525 13.4527 8.87068 13.4622C8.88885 13.4717 8.90945 13.4756 8.92985 13.4734C8.97061 13.467 9.0096 13.4521 9.04434 13.4298C9.10811 13.3958 9.16746 13.354 9.22105 13.3054C9.32525 13.1894 9.39166 13.0444 9.41145 12.8898C9.43758 12.7379 9.44007 12.5824 9.46496 12.4293C9.49676 12.2938 9.5151 12.1554 9.51971 12.0162C9.49891 11.8532 9.45051 11.695 9.3766 11.5483C9.34051 11.4786 9.31562 11.4002 9.29323 11.3255Z" fill="#FFE5CC"/>
<path d="M5.75797 4.65416C5.68941 5.02551 5.70001 5.40716 5.78908 5.77414C5.84783 6.02307 5.92862 6.26628 6.0305 6.50089C6.09023 6.64275 6.11761 6.84808 6.28934 6.87421C6.45501 6.89651 6.62324 6.89104 6.78711 6.85804C7.11533 6.79304 7.41334 6.62262 7.63581 6.37271C7.6794 6.33504 7.71166 6.28601 7.72902 6.23108C7.74638 6.17615 7.74815 6.11747 7.73412 6.0616C7.68932 5.93716 7.61839 5.81272 7.56115 5.68827C7.44586 5.43343 7.3102 5.18832 7.15546 4.95531C6.95013 4.65292 6.62907 4.26341 6.2657 4.15016C5.91975 4.03692 5.81148 4.39407 5.75797 4.65416Z" fill="#FFFA5E"/>
<path d="M2.91922 4.27211C2.88521 4.34084 2.86895 4.41698 2.87193 4.49361C2.89508 4.55213 2.93955 4.59971 2.99637 4.62676C3.07421 4.66245 3.15993 4.67745 3.24526 4.67032C3.72561 4.65165 4.16613 4.39157 4.52826 4.07424C4.6498 3.98202 4.7447 3.85921 4.80328 3.71833C4.80915 3.70588 4.8122 3.69228 4.8122 3.67851C4.8122 3.66474 4.80915 3.65114 4.80328 3.63869C4.77715 3.60011 4.73732 3.62251 4.70124 3.61505C4.66178 3.60327 4.62587 3.58189 4.5967 3.55282C4.51245 3.49385 4.44233 3.41692 4.39137 3.32758C4.34833 3.22318 4.32431 3.11192 4.32044 2.99905C4.30426 2.85594 4.27813 2.71533 4.25075 2.57471C4.22069 2.6623 4.1647 2.73869 4.09022 2.79373C3.95719 2.91587 3.8066 3.01738 3.64347 3.09488C3.47962 3.17156 3.29871 3.20458 3.11833 3.1907C3.08017 3.1826 3.04075 3.1826 3.00259 3.1907C2.98192 3.20147 2.95864 3.20621 2.9354 3.20439C2.9354 3.20439 2.87317 3.18447 2.87317 3.19567C2.88562 3.36243 2.93042 3.52545 2.95779 3.69344C2.99227 3.85391 2.988 4.02029 2.94535 4.17877C2.94286 4.20491 2.93042 4.23726 2.91922 4.27211Z" fill="#FFB78C"/>
<path d="M2.12198 1.8517C2.11058 1.90065 2.10847 1.9513 2.11575 2.00103C2.12446 2.03961 2.14562 2.07569 2.15806 2.11427C2.20286 2.26111 2.117 2.41293 2.10455 2.56599C2.10299 2.70282 2.13145 2.83833 2.18793 2.96297L2.3609 3.43585C2.38373 3.51264 2.42089 3.58443 2.47041 3.6474C2.54771 3.72501 2.6521 3.76962 2.76161 3.77184C2.87058 3.77617 2.97951 3.76229 3.08392 3.73078C3.31603 3.67165 3.54127 3.58822 3.75591 3.48189C3.93386 3.39354 4.12052 3.27034 4.17155 3.07745C4.19146 3.0003 4.20017 2.90075 4.27483 2.87213C4.30489 2.86439 4.3359 2.86104 4.36692 2.86217C4.5175 2.84848 4.61581 2.69541 4.67554 2.55728C4.85349 2.174 4.9966 1.74467 4.90078 1.33276C4.82817 1.04262 4.65429 0.787973 4.41048 0.614735C4.18108 0.445106 3.9073 0.345851 3.6225 0.329058C3.33769 0.312266 3.05415 0.37866 2.80641 0.520158C2.64157 0.619005 2.50043 0.752808 2.39292 0.912132C2.28541 1.07146 2.21416 1.25242 2.1842 1.44227C2.173 1.58165 2.14437 1.71605 2.12198 1.8517Z" fill="#FFE5CC"/>
<path d="M3.3139 2.89205C3.30732 2.95165 3.27749 3.00625 3.23089 3.04399C3.18429 3.08174 3.12469 3.09958 3.06502 3.09365C3.00542 3.08706 2.95082 3.05723 2.91307 3.01064C2.87533 2.96404 2.85749 2.90443 2.86342 2.84476C2.87 2.78525 2.89988 2.73076 2.94652 2.69322C2.99316 2.65567 3.05276 2.63813 3.11231 2.64441C3.17181 2.65069 3.2264 2.68026 3.26417 2.72666C3.30195 2.77306 3.31982 2.83251 3.3139 2.89205Z" fill="#FFB78C"/>
<path d="M2.94812 1.95873C2.99818 1.95436 3.04861 1.95814 3.09745 1.96993C3.13638 1.97596 3.17358 1.99016 3.20661 2.01161C3.23965 2.03306 3.26776 2.06127 3.2891 2.09438C3.2177 2.06491 3.14211 2.04684 3.0651 2.04086C2.9994 2.04166 2.9341 2.05129 2.87097 2.06949C2.81497 2.08442 2.76022 2.10184 2.70546 2.12175C2.67808 2.13171 2.59844 2.16904 2.58102 2.12175C2.54991 2.05331 2.74279 2.00726 2.77764 1.99731C2.83261 1.97731 2.88989 1.96434 2.94812 1.95873Z" fill="#774443"/>
<path d="M2.08437 1.96121C2.11749 1.98814 2.15336 2.01149 2.19139 2.0309C2.22021 2.04884 2.25239 2.06069 2.28597 2.06574C2.27 2.02085 2.25173 1.97682 2.23121 1.93383C2.2073 1.89209 2.17512 1.85567 2.13664 1.82681C2.12996 1.82073 2.12203 1.81621 2.1134 1.81358C2.10476 1.81094 2.09566 1.81025 2.08673 1.81156C2.0778 1.81287 2.06927 1.81615 2.06176 1.82115C2.05425 1.82615 2.04795 1.83276 2.0433 1.8405C2.01966 1.88405 2.04828 1.93259 2.08437 1.96121Z" fill="#774443"/>
<path d="M7.52365 1.61651C7.16775 1.53687 6.7994 1.55305 6.44598 1.47216C6.31396 1.43435 6.19477 1.3612 6.10127 1.26061C5.92207 1.0839 5.77897 0.871101 5.6035 0.68817C5.2704 0.34024 4.83401 0.108956 4.35908 0.0286258C3.88141 -0.0479778 3.39179 0.0328292 2.96407 0.258849C2.74381 0.375825 2.36551 0.619732 2.34186 0.895995C2.31822 1.17226 2.57332 1.24194 2.78861 1.25687C2.97278 1.26932 3.15572 1.23447 3.33989 1.2407C3.43188 1.23699 3.52346 1.25487 3.6073 1.2929C3.69115 1.33093 3.76492 1.38806 3.82273 1.45972C3.91482 1.60034 3.9061 1.78078 3.91233 1.94753C3.91855 2.11428 3.95961 2.30593 4.10521 2.38931C4.11475 2.30113 4.14365 2.21614 4.18983 2.14042C4.20797 2.10949 4.23215 2.08254 4.26095 2.06119C4.28975 2.03983 4.32256 2.02451 4.35742 2.01615C4.39229 2.00778 4.42848 2.00654 4.46383 2.0125C4.49918 2.01846 4.53297 2.03149 4.56316 2.05082C4.60325 2.07551 4.6369 2.10938 4.66135 2.14962C4.68579 2.18986 4.70034 2.23532 4.70378 2.28228C4.70249 2.34539 4.68824 2.40757 4.66191 2.46494C4.63558 2.52231 4.59773 2.57366 4.55072 2.61579C4.45656 2.6994 4.36683 2.78786 4.28192 2.88085C4.18289 3.01809 4.12193 3.17909 4.10521 3.34751C4.08675 3.55645 4.10486 3.767 4.15872 3.96972C4.18102 4.06209 4.22443 4.14803 4.28553 4.22079C4.34664 4.29356 4.42378 4.35117 4.5109 4.3891C4.71464 4.47191 4.94096 4.48071 5.15053 4.41398C5.32724 4.36296 5.49275 4.27585 5.66946 4.22359C5.75614 4.19204 5.84828 4.1782 5.94041 4.1829C6.03253 4.1876 6.12278 4.21075 6.2058 4.25096C6.35638 4.33807 6.44349 4.49985 6.553 4.63922C6.69545 4.80624 6.87751 4.93488 7.08251 5.01336C7.28752 5.09184 7.50893 5.11766 7.72649 5.08847C7.94137 5.05207 8.14578 4.96946 8.32561 4.84635C8.50544 4.72324 8.65641 4.56256 8.76808 4.37541C8.99402 3.9947 9.06906 3.54314 8.97839 3.10983C8.9004 2.74951 8.72263 2.4184 8.46539 2.15434C8.20814 1.89027 7.8818 1.7039 7.52365 1.61651Z" fill="#774443"/>
<path d="M1.88272 5.60737C1.88272 5.59119 1.87525 5.57626 1.87028 5.56133C1.85341 5.49095 1.8214 5.4251 1.77649 5.36836C1.73157 5.31162 1.67482 5.26536 1.61019 5.2328C1.55843 5.21115 1.50069 5.2085 1.44717 5.22533C1.35259 5.25769 1.30157 5.35724 1.25428 5.4456C1.16842 5.60364 1.06513 5.75172 0.966823 5.9023C0.92059 5.96324 0.882132 6.02971 0.852336 6.10017C0.822469 6.17981 0.800069 6.26194 0.76647 6.34034C0.729259 6.42694 0.684713 6.51021 0.633317 6.58922C0.538741 6.73358 0.434209 6.87047 0.33341 7.00984C0.272717 7.08873 0.217818 7.17191 0.169145 7.25873C0.100902 7.38863 0.0595587 7.53096 0.0475849 7.67722C0.0356111 7.82347 0.0532527 7.97063 0.0994575 8.10991C0.109106 8.15223 0.128255 8.19181 0.155456 8.22564C0.189481 8.25814 0.233165 8.27867 0.279899 8.28413C0.36327 8.29478 0.447935 8.28843 0.528784 8.26546C0.688709 8.24517 0.835227 8.1657 0.939445 8.04271C1.04771 7.8884 1.04024 7.66938 1.08131 7.49516C1.13063 7.28477 1.19086 7.07709 1.26175 6.87295C1.27137 6.81728 1.29349 6.76452 1.32646 6.71864C1.37304 6.67758 1.42395 6.64169 1.47828 6.61162C1.67412 6.48687 1.81754 6.29476 1.88148 6.07154C1.92003 5.91927 1.92046 5.75985 1.88272 5.60737Z" fill="#FFE5CC"/>
<path d="M2.05572 4.66909L2.02461 4.81344L1.9935 4.96402L1.7023 6.33289C1.70044 6.34014 1.69628 6.3466 1.69045 6.35131C1.68463 6.35602 1.67744 6.35872 1.66995 6.35902C1.66208 6.35892 1.65448 6.35616 1.64838 6.35119C1.64227 6.34622 1.63804 6.33933 1.63635 6.33164L1.4808 5.49539L1.4472 5.3137L1.32275 4.66785L2.05572 4.66909Z" fill="#E6E6E6"/>
<path d="M1.99366 4.96402L1.70246 6.33289C1.7006 6.34014 1.69644 6.3466 1.69061 6.35131C1.68479 6.35601 1.6776 6.35872 1.67011 6.35902C1.66224 6.35892 1.65464 6.35616 1.64854 6.35119C1.64243 6.34621 1.6382 6.33933 1.63651 6.33164L1.48096 5.49538C1.53075 5.42345 1.58521 5.35486 1.64398 5.29006C1.70371 5.2241 1.76842 5.16562 1.8294 5.10339C1.88043 5.05272 1.93535 5.00612 1.99366 4.96402Z" fill="#C5C5C5"/>
<path d="M1.32272 4.7649C1.35152 4.78381 1.37935 4.80416 1.4061 4.82588C1.41979 4.84206 1.42725 4.86321 1.44219 4.87939C1.47361 4.90516 1.51363 4.91806 1.55418 4.91548C1.59411 4.9122 1.63424 4.9186 1.67116 4.93414C1.6836 4.94037 1.69356 4.94908 1.706 4.95406C1.72097 4.9596 1.73697 4.96181 1.75287 4.96052C1.76878 4.95923 1.78421 4.95447 1.79809 4.94659C1.82796 4.9329 1.85409 4.91423 1.88396 4.90303C1.89817 4.89562 1.91397 4.89175 1.93 4.89175C1.94603 4.89175 1.96183 4.89562 1.97604 4.90303C1.98508 4.91037 1.99464 4.91703 2.00467 4.92295C2.01246 4.92604 2.021 4.92674 2.0292 4.92497C2.0374 4.9232 2.04489 4.91903 2.05071 4.91299C2.07435 4.88935 2.05071 4.85201 2.05071 4.82588C2.04712 4.80984 2.04728 4.79319 2.05116 4.77722C2.05505 4.76125 2.06256 4.74639 2.07311 4.73379C2.09178 4.71264 2.11915 4.69771 2.13284 4.67282C2.13953 4.65838 2.14494 4.6434 2.14902 4.62802C2.15146 4.62035 2.1555 4.61328 2.16086 4.60728C2.16622 4.60127 2.17279 4.59647 2.18013 4.59317H2.20502C2.22617 4.59317 2.23488 4.56082 2.23986 4.53842C2.24803 4.51548 2.24803 4.49042 2.23986 4.46749C2.23364 4.45629 2.22369 4.44882 2.21622 4.43762C2.19506 4.40651 2.20751 4.3642 2.20751 4.32687C2.20556 4.29804 2.19703 4.27003 2.18258 4.24501C2.16813 4.21999 2.14813 4.19861 2.12413 4.18251C2.07494 4.15141 2.01806 4.1346 1.95987 4.13398C1.95732 4.13285 1.95457 4.13226 1.95178 4.13226C1.94899 4.13226 1.94624 4.13285 1.94369 4.13398C1.94187 4.13879 1.94187 4.1441 1.94369 4.14891C1.93948 4.20748 1.91911 4.26373 1.88484 4.31141C1.85056 4.35908 1.80373 4.39631 1.74956 4.41896C1.64415 4.44721 1.5342 4.4544 1.42601 4.44011C1.38619 4.44011 1.36752 4.44011 1.34014 4.40651C1.34014 4.39655 1.30157 4.32935 1.32023 4.3194C1.30415 4.32927 1.2912 4.34352 1.2829 4.36047C1.25938 4.40609 1.24904 4.45737 1.25303 4.50855C1.24634 4.59945 1.27093 4.68991 1.32272 4.7649Z" fill="#00459C"/>
<path d="M2.1728 4.41274C2.17296 4.47396 2.16104 4.53462 2.13773 4.59123C2.11441 4.64784 2.08016 4.69929 2.03692 4.74264C1.99369 4.78599 1.94232 4.82038 1.88578 4.84385C1.82923 4.86732 1.76861 4.8794 1.70738 4.87939C1.58362 4.87939 1.46492 4.83023 1.37741 4.74272C1.28989 4.6552 1.24072 4.5365 1.24072 4.41274C1.24072 4.28897 1.28989 4.17028 1.37741 4.08276C1.46492 3.99525 1.58362 3.94608 1.70738 3.94608C1.76861 3.94608 1.82923 3.95815 1.88578 3.98162C1.94232 4.00509 1.99369 4.03949 2.03692 4.08284C2.08016 4.12619 2.11441 4.17764 2.13773 4.23425C2.16104 4.29086 2.17296 4.35151 2.1728 4.41274Z" fill="#2A7FE8"/>
<path d="M1.34511 6.35279C1.38495 6.33742 1.41969 6.3112 1.44542 6.27712C1.47115 6.24303 1.48684 6.20244 1.4907 6.15991C1.5276 6.1698 1.56607 6.17233 1.60394 6.16737C1.6228 6.16475 1.64056 6.15698 1.65528 6.1449C1.66999 6.13282 1.68108 6.11691 1.68732 6.09893C1.70209 6.09955 1.71677 6.09646 1.73003 6.08994C1.7433 6.08342 1.75471 6.07367 1.76323 6.06159C1.77958 6.0372 1.7906 6.00964 1.79559 5.98071C1.80533 5.8838 1.78819 5.78607 1.74604 5.69826C1.70389 5.61045 1.63837 5.53595 1.55666 5.48294C1.53682 5.47159 1.51913 5.45684 1.50439 5.43938C1.49704 5.43101 1.49202 5.42086 1.48984 5.40994C1.48765 5.39902 1.48838 5.38771 1.49195 5.37716C1.49496 5.36971 1.49951 5.36298 1.5053 5.35741C1.51109 5.35183 1.51799 5.34754 1.52555 5.34481C1.57894 5.33029 1.63584 5.33651 1.68483 5.36222C1.70897 5.37508 1.73589 5.38181 1.76323 5.38181C1.79058 5.38181 1.8175 5.37508 1.84163 5.36222C1.85992 5.34567 1.87245 5.3237 1.87737 5.29952C1.8823 5.27535 1.87937 5.25023 1.86901 5.22783C1.84634 5.18325 1.81136 5.1461 1.76821 5.12081C1.65462 5.0433 1.52114 5.0001 1.38368 4.99636C1.35771 4.99379 1.33159 4.99945 1.30902 5.01254C1.29546 5.02499 1.28484 5.0403 1.27791 5.05735C1.21664 5.18369 1.1799 5.3205 1.16964 5.46054C1.13127 5.47071 1.09589 5.4899 1.06644 5.51653C1.037 5.54316 1.01436 5.57644 1.0004 5.6136C0.996339 5.63373 0.98736 5.65254 0.974265 5.66836C0.965489 5.67639 0.955896 5.68348 0.945644 5.68951C0.911901 5.71797 0.889764 5.75782 0.883422 5.80151C0.874711 5.84507 0.874711 5.88986 0.866001 5.93342C0.865344 5.9433 0.861891 5.9528 0.856045 5.96079C0.847667 5.96998 0.838031 5.97794 0.827424 5.98444C0.803193 6.00622 0.787878 6.0362 0.784432 6.06859C0.780985 6.10099 0.78965 6.13352 0.808756 6.15991C0.82961 6.18532 0.856102 6.20553 0.886128 6.21892C0.916154 6.23231 0.948887 6.23852 0.981731 6.23706C1.02342 6.2307 1.06602 6.23411 1.10617 6.24702C1.13231 6.26071 1.13977 6.28185 1.15969 6.30301C1.18241 6.32842 1.21205 6.34667 1.24498 6.35551C1.27791 6.36435 1.3127 6.36341 1.34511 6.35279Z" fill="#FFB78C"/>
</g>
<defs>
<clipPath id="clip0_1232_3288">
<rect width="11.16" height="24" fill="white"/>
</clipPath>
</defs>
</svg>
