<svg width="17" height="23" viewBox="0 0 17 23" fill="none" xmlns="http://www.w3.org/2000/svg">
<g clip-path="url(#clip0_1232_3077)">
<path d="M2.87339 7.25967C3.4171 6.87221 4.35062 6.78853 4.36066 6.78769V6.75087C4.35146 6.75087 3.40706 6.83455 2.85498 7.22955L2.87339 7.25967Z" fill="#FF957D"/>
<path d="M2.89935 8.19109C2.89935 8.19109 2.60575 7.35424 2.54886 7.29148C2.49198 7.22871 2.20674 7.17934 2.10803 7.217C2.00933 7.25465 1.77344 7.35089 1.77344 7.35089C1.77344 7.35089 1.99762 7.70237 2.00933 7.7325C2.02104 7.76262 2.8157 8.1936 2.89935 8.19109Z" fill="#DBA172"/>
<path d="M4.27706 6.78602C6.20851 6.39688 6.426 4.09638 6.42768 4.07295H6.39087C6.39087 4.09638 6.17338 6.36927 4.26953 6.75087L4.27706 6.78602Z" fill="#FF957D"/>
<path d="M7.71078 6.05461C7.61709 6.32743 7.6472 6.85129 8.26202 7.03289C8.97638 7.24461 9.63135 7.20026 9.86139 7.21867C10.4971 7.2647 11.0567 7.5191 11.4181 7.50069C11.5017 7.49651 10.728 9.48905 10.728 9.48905C10.728 9.48905 10.4218 9.68738 10.1592 10.1853C10.1182 10.264 10.1333 10.4071 10.1374 10.5895C10.1374 10.7259 10.1374 10.8732 10.1374 10.8732C10.1374 10.8732 10.0923 11.1669 10.3047 10.9008C10.4888 10.6749 10.3984 10.4163 10.4461 10.4405C10.5205 10.479 10.4896 10.5242 10.4871 10.7276C10.4787 11.3552 10.3566 11.3971 10.3825 11.6038C10.3976 11.7209 10.6184 11.7167 10.8518 11.5536C10.9906 11.4556 11.2106 11.033 11.26 10.6221C11.2918 10.3644 11.1981 9.71416 11.1981 9.71416C11.1981 9.71416 12.8217 7.64379 12.2705 6.88895C11.9618 6.46551 9.0776 5.74749 9.0776 5.74749C9.0776 5.74749 7.87389 5.57928 7.71078 6.05461Z" fill="#DBA172"/>
<path d="M7.16513 12.7293C7.16513 12.7293 8.50936 15.3805 9.73231 17.1864C10.1004 17.7312 10.2969 17.8366 11.3409 17.8032C12.0444 17.7806 15.3334 17.5462 15.5844 17.5153L15.3393 16.901C15.3393 16.901 13.9089 16.3203 12.4952 16.1813C11.9515 16.1278 11.0657 16.4098 11.0657 16.4098L9.63528 12.2205C9.63528 12.2205 9.37513 10.8473 8.10534 11.0121C7.3617 11.1092 7.09486 12.2615 7.16513 12.7293Z" fill="#DBA172"/>
<path d="M7.96444 14.2825C7.48931 13.393 7.1681 12.7293 7.1681 12.7293C7.09532 12.2615 7.56627 11.536 8.11082 11.0121C9.34381 9.82462 9.64075 12.2205 9.64075 12.2205L10.0289 13.3704C9.50775 13.6808 8.65036 14.1294 7.96444 14.2825Z" fill="#27B4E0"/>
<path d="M14.6353 16.4374C14.6243 16.4614 14.6185 16.4875 14.6181 16.5139C14.6178 16.5403 14.623 16.5665 14.6334 16.5908C14.6438 16.6151 14.6592 16.6369 14.6785 16.6549C14.6979 16.6729 14.7208 16.6866 14.7458 16.6952C15.0569 16.8132 15.1339 16.9027 15.1531 16.9973C15.1621 17.0534 15.1518 17.111 15.1239 17.1605C15.0288 17.2942 14.9103 17.4096 14.7742 17.5011C14.504 17.6425 14.5166 17.804 14.5174 17.8191C14.5233 17.9764 14.6178 18.0701 14.7232 18.0484C14.944 17.999 15.1046 18.0166 15.169 18.1404L15.6517 19.1246C15.8499 19.6325 16.2372 19.558 16.4447 19.5187L16.5517 19.4944C16.6881 19.4643 16.7333 19.4317 16.7023 19.2894L16.3401 17.9638C16.3075 17.8157 16.0423 16.6826 16.0423 16.6826L15.875 16.1203C15.8508 16.0106 15.6241 16.0508 15.5404 16.07L14.8829 16.2483C14.7816 16.2818 14.6944 16.3484 14.6353 16.4374Z" fill="#D64422"/>
<path d="M16.3666 19.5346C16.1734 19.5672 15.8848 19.5672 15.71 19.2425C15.7936 19.025 16.1424 18.8199 16.4093 18.7605C16.4277 18.7563 16.4845 18.7923 16.5004 18.789C16.5113 18.825 16.5423 18.8785 16.5498 18.9145L16.4252 19.5237L16.3666 19.5346Z" fill="#70C8F9"/>
<path d="M15.0779 16.1864C15.0068 16.2031 14.9181 16.2324 14.8779 16.2466C14.9431 16.3365 15.0316 16.4069 15.1339 16.45C15.3623 16.5261 15.7261 16.4634 15.8407 16.4374C15.8349 16.4307 15.9068 16.4307 15.9018 16.424L15.6299 16.0458L15.0779 16.1864Z" fill="#70C8F9"/>
<path d="M16.4104 19.5262H16.4213C16.6982 19.4777 16.7559 19.4509 16.7174 19.2919L15.9261 16.183C15.8742 16.05 15.8207 16.0048 15.6751 16.0366L15.5254 16.0742L16.4104 19.5262Z" fill="#F0F0F0"/>
<path d="M15.1956 17.7203C15.2031 17.7074 15.2053 17.692 15.2017 17.6775C15.1981 17.663 15.189 17.6504 15.1764 17.6425C15.1705 17.6384 15.1639 17.6355 15.1569 17.6341C15.1499 17.6326 15.1427 17.6327 15.1357 17.6342C15.1287 17.6356 15.1221 17.6386 15.1163 17.6427C15.1105 17.6469 15.1056 17.6522 15.1019 17.6584C15.059 17.7317 15.0247 17.8098 14.9999 17.891C14.9831 17.9456 14.9831 18.0039 14.9999 18.0584C15.0026 18.0647 15.0068 18.0703 15.0121 18.0747C15.0174 18.079 15.0237 18.082 15.0305 18.0834C15.0372 18.0848 15.0442 18.0846 15.0508 18.0827C15.0574 18.0808 15.0635 18.0774 15.0685 18.0726C15.0803 18.0611 15.0894 18.0471 15.095 18.0316C15.1007 18.0161 15.1027 17.9995 15.1011 17.9831C15.1009 17.9624 15.104 17.9417 15.1103 17.922C15.1307 17.8516 15.1594 17.784 15.1956 17.7203Z" fill="white"/>
<path d="M15.3511 17.8735C15.3604 17.8619 15.3649 17.8473 15.3638 17.8326C15.3627 17.8178 15.3561 17.804 15.3453 17.794C15.3403 17.7888 15.3343 17.7847 15.3277 17.7819C15.3211 17.7791 15.314 17.7776 15.3068 17.7776C15.2996 17.7776 15.2925 17.7791 15.2859 17.7819C15.2793 17.7847 15.2733 17.7888 15.2683 17.794C15.2143 17.8596 15.168 17.9312 15.1303 18.0074C15.1081 18.052 15.0974 18.1015 15.0993 18.1513C15.1009 18.1602 15.1046 18.1686 15.1102 18.1757C15.1158 18.1828 15.1231 18.1884 15.1314 18.1919C15.1397 18.1955 15.1488 18.197 15.1578 18.1961C15.1668 18.1953 15.1755 18.1923 15.183 18.1873C15.1922 18.1813 15.1996 18.1729 15.2045 18.163C15.2094 18.1532 15.2115 18.1422 15.2106 18.1312C15.2124 18.1044 15.2196 18.0783 15.2315 18.0542C15.2647 17.9898 15.3048 17.9292 15.3511 17.8735Z" fill="white"/>
<path d="M2.65311 21.3188C2.85889 20.8878 4.35285 17.3111 4.34867 17.2584C4.31354 16.8257 4.64144 16.0767 4.64144 16.0767C4.64144 16.0767 5.51474 14.2147 6.21572 12.7879C6.42819 12.3561 6.92423 11.0899 6.94765 10.8632C6.98278 10.5209 6.69001 9.67985 6.43069 8.88317C6.32028 8.54843 5.53984 8.04632 5.64105 7.7484C5.75617 7.43598 5.90304 7.13621 6.07937 6.85381C6.35623 6.37597 6.60753 5.88377 6.83221 5.37928C6.91183 5.05834 6.88722 4.72039 6.76195 4.41439C6.62979 4.10559 6.49929 3.76499 6.49929 3.76499C6.49929 3.76499 7.59509 2.83943 7.72725 3.6947C7.79668 4.15078 7.98489 4.71816 8.1455 4.91985C8.28555 5.11242 8.4549 5.28184 8.64739 5.42196C9.33498 6.03369 9.0213 7.68564 9.1267 8.75932C9.29399 10.4498 9.28814 10.9828 9.37764 11.2648C9.42946 11.4484 9.45978 11.6374 9.46799 11.828C9.52571 12.5996 8.86154 13.3829 8.48595 13.8164C8.03007 14.3428 6.7678 16.0073 6.7678 16.0073C6.7678 16.0073 5.87192 17.2006 5.86774 17.4232C5.82089 19.5873 3.34154 22.1205 3.34154 22.1205C3.14413 22.3347 2.15038 22.3699 2.65311 21.3188Z" fill="#E0B490"/>
<path d="M3.60872 21.9113C3.59618 21.8903 3.58698 21.8518 3.38538 21.8451C3.01649 21.8334 2.92364 21.8502 2.85254 21.7966C2.79181 21.7483 2.75005 21.6802 2.7346 21.6041C2.70395 21.4439 2.68854 21.2811 2.68858 21.1179C2.69352 21.0061 2.67143 20.8947 2.62418 20.7932C2.5146 20.5865 2.39749 20.6259 2.34897 20.7196C2.24943 20.9229 2.19088 21.1497 2.05369 21.1221L0.904357 20.9229C0.394099 20.7556 0.191665 21.1104 0.100487 21.2953L0.0553189 21.3941C-0.00658129 21.5196 -0.01913 21.5874 0.111362 21.6518L1.38115 22.1857C1.5175 22.2535 2.5673 22.7548 2.5673 22.7548L3.11269 22.9724C3.2139 23.0226 3.32264 22.8226 3.36363 22.7423L3.63549 22.118C3.65166 22.0481 3.64216 21.9747 3.60872 21.9113Z" fill="#D64422"/>
<path d="M0.138724 21.2217C0.23492 21.0543 0.423967 20.81 0.781984 20.892C0.899929 21.0911 0.83719 21.4937 0.716736 21.7389C0.708371 21.7564 0.644802 21.7774 0.637273 21.7924C0.602977 21.7782 0.541074 21.769 0.508451 21.7523L0.112793 21.2719C0.119485 21.2577 0.131196 21.2351 0.138724 21.2217Z" fill="#70C8F9"/>
<path d="M3.55504 22.3121C3.58599 22.246 3.61862 22.159 3.632 22.1188C3.52138 22.1134 3.41141 22.1386 3.31414 22.1916C3.11171 22.3221 2.93353 22.6452 2.88167 22.7506C2.89087 22.7506 2.8457 22.8067 2.85407 22.8067L3.31915 22.831L3.55504 22.3121Z" fill="#70C8F9"/>
<path d="M0.116377 21.2644L0.111358 21.2736C-0.0375372 21.5087 -0.0367007 21.5799 0.111358 21.6518L3.03154 22.9782C3.16789 23.0209 3.23648 23.0075 3.30173 22.8753L3.3653 22.7347L0.116377 21.2644Z" fill="#F0F0F0"/>
<path d="M2.33728 21.4024C2.34289 21.4162 2.35353 21.4274 2.36705 21.4336C2.38056 21.4398 2.39594 21.4406 2.41005 21.4359C2.41693 21.4339 2.42331 21.4304 2.4288 21.4258C2.4343 21.4211 2.43878 21.4154 2.442 21.409C2.44521 21.4026 2.44708 21.3956 2.44748 21.3884C2.44788 21.3812 2.44682 21.374 2.44434 21.3673C2.41423 21.288 2.37463 21.2127 2.3264 21.143C2.29491 21.0956 2.25008 21.0587 2.19758 21.0367C2.16998 21.0267 2.14488 21.0526 2.14404 21.0819C2.14482 21.0989 2.14973 21.1153 2.15833 21.1299C2.16693 21.1445 2.17897 21.1568 2.1934 21.1656C2.20962 21.179 2.22398 21.1945 2.23606 21.2116C2.27667 21.2714 2.31061 21.3353 2.33728 21.4024Z" fill="white"/>
<path d="M2.12447 21.4276C2.12769 21.442 2.13635 21.4547 2.14865 21.4629C2.16095 21.4712 2.17595 21.4744 2.19055 21.4719C2.19772 21.4711 2.20464 21.4688 2.21088 21.4652C2.21712 21.4616 2.22255 21.4567 2.2268 21.4509C2.23105 21.4451 2.23404 21.4384 2.23557 21.4314C2.23711 21.4243 2.23716 21.417 2.23572 21.41C2.21753 21.3269 2.18945 21.2462 2.15207 21.1698C2.13131 21.1241 2.09902 21.0846 2.05839 21.0552C2.05039 21.05 2.0412 21.0471 2.03171 21.0466C2.02222 21.0461 2.01278 21.0482 2.00432 21.0525C1.99586 21.0568 1.98867 21.0633 1.98348 21.0712C1.97829 21.0792 1.97528 21.0883 1.97474 21.0978C1.97405 21.1088 1.97614 21.1198 1.98082 21.1297C1.9855 21.1397 1.99262 21.1483 2.00151 21.1547C2.02117 21.173 2.03708 21.1949 2.04835 21.2192C2.08167 21.2855 2.10722 21.3554 2.12447 21.4276Z" fill="white"/>
<path d="M6.26762 1.06699C6.26762 1.06699 5.34749 1.37997 5.2446 1.67621C5.11829 2.0302 5.15341 3.41435 5.15341 3.41435C5.17349 4.31313 5.38512 4.56837 5.80085 4.55582C6.31948 4.53992 6.81887 4.36585 7.0924 4.13237C7.59429 3.70307 7.65535 3.34908 7.67292 3.27209L8.15307 1.37411L6.26762 1.06699Z" fill="#E0B490"/>
<path d="M8.06356 14.3319C7.45795 14.1152 6.53363 13.757 5.92383 13.3846C6.02253 13.1812 6.12124 12.9796 6.21576 12.7862C6.37637 12.4607 6.69758 11.6607 6.85568 11.1887C7.17148 11.2365 7.48996 11.2645 7.80927 11.2724C8.32502 11.2726 8.83914 11.2142 9.34172 11.0983C9.35027 11.1549 9.36284 11.2109 9.37936 11.2657C9.43117 11.4493 9.4615 11.6383 9.46971 11.8289C9.52742 12.6005 8.86325 13.3838 8.48767 13.8172C8.38143 13.9369 8.2317 14.1219 8.06356 14.3319Z" fill="#2CCDFF"/>
<path d="M9.11948 8.61957C8.57827 8.74091 7.68406 8.85221 7.24909 8.92669C6.98924 8.96896 6.72589 8.98578 6.46279 8.9769C6.45191 8.9451 6.44104 8.91246 6.431 8.87983C6.32058 8.54508 5.54014 8.04297 5.64136 7.74506C5.72927 7.49513 5.84133 7.25437 5.97595 7.0262C6.09892 7.07307 6.38081 6.98436 6.61419 6.82034C6.92871 6.60108 7.2516 6.06717 7.74262 5.47217C7.81857 5.37235 7.92103 5.29589 8.03831 5.2515C8.15559 5.20711 8.28297 5.19659 8.40595 5.22112C8.65689 5.38849 8.77233 5.47719 8.80412 5.50565C9.46578 6.08809 9.06594 7.55007 9.11948 8.61957Z" fill="#D64422"/>
<path d="M8.90177 6.23202C9.15774 6.73999 8.2376 7.49567 8.2376 7.49567C8.2376 7.49567 6.72523 8.93589 6.23505 9.3677C5.66038 9.874 4.28435 9.73089 2.26758 8.58692L2.81548 8.26389C3.37007 8.35176 5.6403 8.49905 5.67627 8.41955C5.73315 8.29486 6.86241 6.95339 7.45883 6.27386C7.98331 5.68137 8.61988 5.67468 8.90177 6.23202Z" fill="#E0B490"/>
<path d="M5.00957 1.23436C5.00957 1.23436 6.35632 -0.0451825 7.56672 0.506302C8.16983 0.781626 8.34382 1.0921 8.37226 1.0921C8.45591 1.0921 8.43751 1.13227 8.56047 1.01929C8.50276 0.680366 8.58891 0.0610976 9.48646 0.00168122C10.3296 -0.0527141 10.7044 0.205873 11.535 0.587477C12.159 0.874516 12.7262 0.821795 12.8676 0.771583C13.0089 0.721372 12.5873 1.29713 11.5057 1.05109C11.3816 1.02147 11.2595 0.983729 11.1402 0.938117C11.2521 1.0462 11.3527 1.16537 11.4405 1.29378C11.7241 1.68459 12.2368 1.6804 12.2368 1.6804C12.2368 1.6804 11.6362 1.94903 10.7872 1.61848C10.5502 1.52538 10.3059 1.45177 10.0569 1.39838C10.2548 1.54547 10.4663 1.67326 10.6885 1.77999C10.8448 1.85328 11.0102 1.90508 11.1804 1.93397C11.0214 1.93983 10.4392 1.95405 10.1381 1.88376C9.7876 1.80007 9.55255 1.66701 9.25058 1.53061C8.7721 1.3147 8.61401 1.38751 8.62321 1.38248C8.61484 1.40508 8.56549 1.40089 8.56047 1.41094C8.55545 1.42098 8.63659 1.61429 8.63742 1.61848C8.84989 2.61684 7.81181 3.91982 7.76162 3.86877C7.33418 3.43612 7.25973 2.9566 6.60141 2.80262C6.26682 2.72563 5.75321 2.43524 5.32158 2.01765C5.21341 1.91946 5.12907 1.79786 5.075 1.66212C5.02093 1.52637 4.99855 1.38007 5.00957 1.23436Z" fill="#382404"/>
<path d="M11.1807 1.93814H11.2225C11.2088 1.94168 11.1944 1.94168 11.1807 1.93814Z" fill="#382404"/>
<path d="M8.48604 1.47286C8.50604 1.50968 8.53982 1.53705 8.57996 1.54897C8.62011 1.5609 8.66334 1.5564 8.70018 1.53646C8.73698 1.51646 8.76434 1.48266 8.77626 1.4425C8.78818 1.40233 8.78368 1.35908 8.76375 1.32223L8.56467 0.958197C8.55485 0.939888 8.54151 0.923706 8.52541 0.910585C8.5093 0.897464 8.49076 0.887664 8.47085 0.881751C8.45094 0.875838 8.43005 0.873927 8.4094 0.876132C8.38875 0.878337 8.36875 0.884613 8.35053 0.894597C8.31388 0.914743 8.28669 0.948599 8.27493 0.988751C8.26317 1.0289 8.2678 1.07208 8.2878 1.10883L8.48604 1.47286Z" fill="#D64422"/>
<path d="M6.62309 3.2679C6.61644 3.24133 6.61728 3.21344 6.62551 3.18733C6.63375 3.16121 6.64906 3.13789 6.66975 3.11995C6.69044 3.10202 6.71569 3.09017 6.74271 3.08573C6.76972 3.08129 6.79743 3.08443 6.82277 3.0948C6.84811 3.10517 6.87008 3.12236 6.88623 3.14447C6.90239 3.16658 6.9121 3.19273 6.91429 3.22003C6.91648 3.24733 6.91107 3.27471 6.89865 3.29911C6.88623 3.32352 6.86728 3.344 6.84393 3.35828C6.85508 3.39012 6.86457 3.42253 6.87237 3.45535C6.90164 3.57419 6.90332 3.67628 6.87237 3.68298C6.84142 3.68967 6.79959 3.59929 6.77032 3.47879C6.76246 3.44626 6.75659 3.41328 6.75274 3.38004C6.72209 3.37735 6.69307 3.36507 6.6698 3.34493C6.64652 3.3248 6.63018 3.29785 6.62309 3.2679Z" fill="#FF957D"/>
<path d="M4.24697 6.75757C4.22271 6.77264 4.22772 6.79774 4.25617 6.80276L4.3348 6.81615L4.41426 6.83038C4.44187 6.8354 4.47198 6.81615 4.4678 6.79607L4.45609 6.73833L4.44438 6.68142C4.44438 6.66134 4.40506 6.65464 4.38164 6.67054L4.31389 6.71406L4.24697 6.75757Z" fill="#FF957D"/>
<path d="M1.88794 7.28478C1.88135 7.28819 1.87636 7.29403 1.87402 7.30106C1.87168 7.3081 1.87217 7.31577 1.87539 7.32244L2.16565 7.90824C2.16905 7.91482 2.17489 7.91982 2.18192 7.92217C2.18895 7.92451 2.19662 7.92402 2.20329 7.92079L3.0172 7.51659C3.02372 7.51335 3.0287 7.50766 3.03105 7.50077C3.0334 7.49387 3.03293 7.48632 3.02975 7.47977L2.73949 6.89398C2.73798 6.89055 2.73578 6.88748 2.73301 6.88496C2.73025 6.88244 2.72699 6.88053 2.72345 6.87935C2.7199 6.87817 2.71614 6.87774 2.71242 6.8781C2.7087 6.87846 2.7051 6.87959 2.70184 6.88142L1.88794 7.28478Z" fill="#D3D3D3"/>
<path d="M1.90629 7.32076C1.90296 7.32236 1.89997 7.32462 1.89752 7.3274C1.89507 7.33017 1.89321 7.33342 1.89204 7.33693C1.89087 7.34044 1.89042 7.34416 1.89071 7.34785C1.891 7.35154 1.89203 7.35513 1.89374 7.35842L2.18317 7.94421C2.18672 7.95065 2.19257 7.95552 2.19954 7.95784C2.20652 7.96017 2.21411 7.95978 2.22081 7.95677L3.03472 7.55341C3.04145 7.55015 3.04662 7.54437 3.04913 7.53732C3.05163 7.53027 3.05127 7.52252 3.0481 7.51575L2.75784 6.92995C2.75624 6.92661 2.75398 6.92363 2.75121 6.92118C2.74843 6.91873 2.74519 6.91686 2.74168 6.91569C2.73817 6.91452 2.73445 6.91407 2.73076 6.91436C2.72707 6.91466 2.72348 6.91569 2.7202 6.9174L1.90629 7.32076Z" fill="#FF957D"/>
<path d="M2.17089 7.36262C2.13544 7.38015 2.10598 7.40782 2.08624 7.44211C2.0665 7.4764 2.05738 7.51578 2.06002 7.55526C2.06266 7.59475 2.07695 7.63256 2.10108 7.66391C2.1252 7.69527 2.15809 7.71876 2.19556 7.73141C2.23304 7.74407 2.27343 7.74532 2.31161 7.735C2.3498 7.72468 2.38407 7.70327 2.41008 7.67346C2.4361 7.64366 2.45269 7.6068 2.45776 7.56755C2.46283 7.52831 2.45615 7.48844 2.43857 7.45299C2.41502 7.40553 2.37361 7.36935 2.32342 7.35241C2.27323 7.33546 2.21838 7.33913 2.17089 7.36262Z" fill="#F5F5F5"/>
<path d="M2.21074 7.44463C2.19794 7.451 2.18652 7.45983 2.17714 7.47062C2.16775 7.48141 2.16058 7.49394 2.15604 7.5075C2.15149 7.52106 2.14966 7.53539 2.15065 7.54965C2.15164 7.56392 2.15543 7.57785 2.1618 7.59066C2.16817 7.60346 2.17701 7.61488 2.18779 7.62427C2.19857 7.63366 2.2111 7.64083 2.22465 7.64538C2.23821 7.64992 2.25252 7.65175 2.26678 7.65077C2.28104 7.64978 2.29497 7.64599 2.30777 7.63961C2.33361 7.62674 2.35329 7.60412 2.36247 7.57674C2.37165 7.54935 2.36957 7.51944 2.35671 7.49358C2.34384 7.46773 2.32123 7.44804 2.29386 7.43886C2.26648 7.42968 2.23658 7.43175 2.21074 7.44463Z" fill="#85CCC6"/>
<path d="M2.1817 7.38521L2.16748 7.42789L2.22436 7.39943L2.1817 7.38521Z" fill="#D3D3D3"/>
<path d="M2.41424 7.46303L2.40002 7.50655L2.37158 7.44881L2.41424 7.46303Z" fill="#D3D3D3"/>
<path d="M2.72429 6.95947L2.33301 7.15337L2.60887 7.71054L3.00015 7.51665L2.72429 6.95947Z" fill="#F5F5F5"/>
<path d="M2.4252 8.67145C2.4252 8.67145 1.17716 8.21788 1.27335 7.84966C1.31631 7.65879 1.39126 7.47657 1.49503 7.31073C1.49503 7.31073 1.70917 6.95842 1.81205 7.19776C1.95844 7.53919 2.45113 7.58773 2.67615 7.8187C2.7598 7.90238 3.00656 8.3752 3.00656 8.3752L2.4252 8.67145Z" fill="#E0B490"/>
<path d="M3.0665 8.2187C3.07136 8.20817 3.07397 8.19673 3.07418 8.18513C3.07438 8.17353 3.07217 8.16201 3.06769 8.15131C3.0632 8.1406 3.05654 8.13095 3.04813 8.12296C3.03971 8.11497 3.02973 8.10882 3.01882 8.10489C3.00913 8.09851 2.99822 8.09421 2.98679 8.09227C2.97535 8.09033 2.96363 8.09079 2.95238 8.09363C2.94113 8.09646 2.9306 8.1016 2.92144 8.10873C2.91228 8.11586 2.90471 8.12481 2.8992 8.13502L2.55457 8.82793C2.54971 8.83847 2.54709 8.8499 2.54689 8.86151C2.54668 8.87311 2.54889 8.88463 2.55338 8.89533C2.55786 8.90604 2.56452 8.91569 2.57293 8.92368C2.58134 8.93167 2.59133 8.93782 2.60225 8.94174C2.62224 8.95338 2.64602 8.95666 2.66842 8.95086C2.69082 8.94506 2.71002 8.93066 2.72186 8.91078L3.0665 8.2187Z" fill="#8396CC"/>
<path d="M2.74 8.26572L2.57658 8.56833C2.54211 8.63218 2.56589 8.71189 2.62971 8.74638L2.75187 8.81241C2.81569 8.8469 2.89537 8.8231 2.92984 8.75926L3.09326 8.45665C3.12773 8.39281 3.10395 8.3131 3.04013 8.27861L2.91796 8.21258C2.85415 8.17809 2.77447 8.20188 2.74 8.26572Z" fill="#6877AF"/>
<path d="M2.71956 8.29108L2.5561 8.59366C2.52161 8.65749 2.54538 8.73721 2.60918 8.77171L2.73134 8.83776C2.79515 8.87227 2.87483 8.84849 2.90932 8.78465L3.07279 8.48207C3.10727 8.41823 3.0835 8.33852 3.01969 8.30402L2.89754 8.23796C2.83373 8.20346 2.75405 8.22724 2.71956 8.29108Z" fill="#97A9FF"/>
<path d="M2.76476 8.31934L2.60179 8.62125C2.57874 8.66395 2.59466 8.71726 2.63734 8.74031L2.75879 8.80593C2.80147 8.82899 2.85475 8.81306 2.8778 8.77036L3.04077 8.46846C3.06381 8.42576 3.0479 8.37245 3.00522 8.34939L2.88377 8.28378C2.84109 8.26072 2.78781 8.27664 2.76476 8.31934Z" fill="#5E6991"/>
<path d="M2.59299 8.61538L2.75611 8.31327C2.7619 8.30237 2.7698 8.29272 2.77934 8.28488C2.78887 8.27704 2.79987 8.27116 2.81168 8.26758C2.8235 8.26401 2.8359 8.2628 2.84818 8.26403C2.86047 8.26527 2.87239 8.26892 2.88325 8.27478L3.00538 8.34089C3.02325 8.35029 3.03757 8.36526 3.04618 8.38353C3.05478 8.4018 3.0572 8.42238 3.05306 8.44215C3.05125 8.45119 3.04815 8.45993 3.04386 8.46809L2.87656 8.77019C2.86453 8.79211 2.84438 8.80842 2.82044 8.81562C2.7965 8.82282 2.7707 8.82033 2.74858 8.80869L2.62729 8.74258C2.60942 8.73318 2.59509 8.71821 2.58649 8.69994C2.57789 8.68167 2.57547 8.66109 2.57961 8.64132C2.58272 8.63204 2.58724 8.62329 2.59299 8.61538ZM2.99953 8.35261L2.8774 8.28649C2.8584 8.27701 2.83651 8.2751 2.81617 8.28116C2.79582 8.28722 2.77853 8.30079 2.76782 8.31913L2.6047 8.62123C2.60084 8.62832 2.59802 8.63593 2.59634 8.64383C2.59411 8.66027 2.59681 8.67701 2.60411 8.69191C2.61141 8.70681 2.62297 8.7192 2.63733 8.72752L2.75945 8.79279C2.77845 8.80228 2.80034 8.80418 2.82069 8.79812C2.84103 8.79206 2.85832 8.77849 2.86903 8.76015L3.03633 8.45805C3.04034 8.45103 3.04317 8.44339 3.0447 8.43545C3.04637 8.4187 3.04296 8.40183 3.0349 8.38705C3.02684 8.37227 3.01451 8.36027 2.99953 8.35261Z" fill="#020202"/>
<path d="M5.00959 1.23436C5.00959 1.23436 4.59134 1.56408 5.36342 2.67123C5.82684 3.33653 6.1698 3.5131 6.54538 3.67545C6.75833 3.76489 6.98429 3.81942 7.21457 3.83697C7.21457 3.83697 6.09703 3.53821 5.68297 2.58169C5.52007 2.18404 5.48213 1.74617 5.57422 1.32641L5.00959 1.23436Z" fill="#382404"/>
<path d="M4.43415 6.76844C5.78592 6.6722 6.37732 5.81025 6.63496 5.10478C6.80547 4.61585 6.88678 4.10025 6.87503 3.58255H6.83822C6.84938 4.09488 6.76864 4.60506 6.59982 5.08888C6.34888 5.78347 5.76333 6.63203 4.43164 6.7266L4.43415 6.76844Z" fill="#FF957D"/>
</g>
<defs>
<clipPath id="clip0_1232_3077">
<rect width="16.7273" height="23" fill="white"/>
</clipPath>
</defs>
</svg>
