<svg id="svg" version="1.1" xmlns="http://www.w3.org/2000/svg" xmlns:xlink="http://www.w3.org/1999/xlink" width="400" height="266.1818181818182" viewBox="0, 0, 400,266.1818181818182"><g id="svgg"><path id="path0" d="M0.000 44.208 L 0.000 88.415 200.000 88.415 L 400.000 88.415 400.000 44.208 L 400.000 0.000 200.000 0.000 L 0.000 0.000 0.000 44.208 " stroke="none" fill="#fcfcfc" fill-rule="evenodd"></path><path id="path1" d="M0.000 221.971 L 0.000 266.312 200.000 266.312 L 400.000 266.312 400.000 221.971 L 400.000 177.630 200.000 177.630 L 0.000 177.630 0.000 221.971 " stroke="none" fill="#fc0404" fill-rule="evenodd"></path><path id="path2" d="M0.000 133.156 L 0.000 177.097 200.000 177.097 L 400.000 177.097 400.000 133.156 L 400.000 89.214 200.000 89.214 L 0.000 89.214 0.000 133.156 " stroke="none" fill="#0404fc" fill-rule="evenodd"></path><path id="path3" d="M99.933 89.148 C 154.970 89.185,245.030 89.185,300.067 89.148 C 355.103 89.111,310.073 89.081,200.000 89.081 C 89.927 89.081,44.897 89.111,99.933 89.148 M0.000 177.364 C 0.000 177.541,66.844 177.630,200.000 177.630 C 333.156 177.630,400.000 177.541,400.000 177.364 C 400.000 177.186,333.156 177.097,200.000 177.097 C 66.844 177.097,0.000 177.186,0.000 177.364 " stroke="none" fill="#3c8480" fill-rule="evenodd"></path><path id="path4" d="" stroke="none" fill="#bcbc100" fill-rule="evenodd"></path></g></svg>