<?xml version="1.0" standalone="yes"?>
<svg xmlns="http://www.w3.org/2000/svg" width="182" height="130">
<path style="fill:#9d2941; stroke:none;" d="M0 0L0 13L182 13L182 0L0 0z"/>
<path style="fill:#020101; stroke:none;" d="M0 13L0 26L182 26L182 13L0 13z"/>
<path style="fill:#9d2941; stroke:none;" d="M0 26L0 104L182 104L182 26L0 26z"/>
<path style="fill:#dda226; stroke:none;" d="M85 36L89 35L85 37L85 38L89 39C89.8425 35.396 87.8829 32.1609 85 36M93 39L97 38L97 37L93 35L97 36C94.1171 32.1609 92.1575 35.396 93 39M80 35L78 37L79 41C83.5425 40.2065 83.6722 37.4443 80 35M101 35C98.4112 38.2082 98.7922 40.265 103 41L104 37L101 35z"/>
<path style="fill:#9d2941; stroke:none;" d="M80 37L82 40L83 39L82 37L80 37M99 39L100 40L102 37L99 39z"/>
<path style="fill:#dda226; stroke:none;" d="M73 40L73 41L77 41L76 44L73 42L78 45L77 39L73 40M105 39L104 45L109 42L106 44L105 41L109 41L105 39M90 41.6412C66.0621 43.5637 67.6085 90.3177 92 88.3588C115.938 86.4363 114.391 39.6823 90 41.6412z"/>
<path style="fill:#c2d7de; stroke:none;" d="M90.6667 42.3333L91.3333 42.6667L90.6667 42.3333M86.6667 43.3333L87.3333 43.6667L86.6667 43.3333z"/>
<path style="fill:#73c6f1; stroke:none;" d="M88 43.5617C67.07 48.7963 71.631 92.0327 94 86.4383C114.93 81.2037 110.369 37.9673 88 43.5617z"/>
<path style="fill:#c2d7de; stroke:none;" d="M94.6667 43.3333L95.3333 43.6667L94.6667 43.3333M84 44L85 45L84 44M97 44L98 45L97 44z"/>
<path style="fill:#dda226; stroke:none;" d="M68 46L68 50L74 50C73.0536 46.4548 71.5842 45.8515 68 46z"/>
<path style="fill:#c2d7de; stroke:none;" d="M83 45L84 46L83 45M98 45L99 46L98 45z"/>
<path style="fill:#dda226; stroke:none;" d="M108 50L114 50L114 46C110.474 45.8742 108.993 46.5331 108 50z"/>
<path style="fill:#c2d7de; stroke:none;" d="M81 46L82 47L81 46M100 46L101 47L100 46z"/>
<path style="fill:#9d2941; stroke:none;" d="M70 47L70 49L72 49L72 47L70 47M110 47L110 49L112 49L112 47L110 47z"/>
<path style="fill:#c2d7de; stroke:none;" d="M90 49C87.1649 55.4229 83.8048 56.976 77 57C80.173 63.848 80.1731 66.152 77 73C83.8048 73.024 87.1649 74.5771 90 81L92 81C94.8351 74.5771 98.1952 73.024 105 73C101.827 66.152 101.827 63.848 105 57C98.1952 56.976 94.8351 55.4229 92 49L90 49M78 50L79 51L78 50M103 50L104 51L103 50M77 51L78 52L77 51M104 51L105 52L104 51z"/>
<path style="fill:#dda226; stroke:none;" d="M65 55L69 54L68 58L71 57C69.6392 53.4814 67.9896 52.3271 65 55M114 58L113 54L117 55C113.526 51.8939 110.134 55.0356 114 58z"/>
<path style="fill:#c2d7de; stroke:none;" d="M76.3333 53.6667L76.6667 54.3333L76.3333 53.6667M105.333 53.6667L105.667 54.3333L105.333 53.6667z"/>
<path style="fill:#dda226; stroke:none;" d="M65.6667 56.3333L66.3333 56.6667L65.6667 56.3333z"/>
<path style="fill:#c2d7de; stroke:none;" d="M75 56L76 57L75 56M106 56L107 57L106 56z"/>
<path style="fill:#dda226; stroke:none;" d="M115.667 56.3333L116.333 56.6667L115.667 56.3333z"/>
<path style="fill:#73c6f1; stroke:none;" d="M88.044 57.7461C78.6786 61.4234 84.5171 75.96 93.956 72.2539C103.321 68.5766 97.4829 54.04 88.044 57.7461z"/>
<path style="fill:#c2d7de; stroke:none;" d="M74 59L74 62L75 62L74 59M107 59L107 62L108 62L107 59z"/>
<path style="fill:#dda226; stroke:none;" d="M65 60L65 66L66 66L65 60M67 60L67 66L68 66L67 60M88 60L86 68L94 70L96 62L88 60M114 60L114 66L115 66L114 60M116 60L116 66L117 66L116 60M67.0556 69.341C64.9886 69.4122 64.7397 72.7349 66.9444 72.659C69.0114 72.5878 69.2603 69.2651 67.0556 69.341z"/>
<path style="fill:#c2d7de; stroke:none;" d="M74 68L74 71L75 71L74 68M107 68L107 71L108 71L107 68z"/>
<path style="fill:#dda226; stroke:none;" d="M114.313 69.446C112.311 70.2178 113.772 73.292 115.687 72.554C117.689 71.7822 116.228 68.708 114.313 69.446z"/>
<path style="fill:#9d2941; stroke:none;" d="M66 70L66 72L68 72L68 70L66 70M114 70L114 72L116 72L116 70L114 70z"/>
<path style="fill:#c2d7de; stroke:none;" d="M75 73L76 74L75 73M106 73L107 74L106 73z"/>
<path style="fill:#dda226; stroke:none;" d="M69 75L68 81L72 80L72 79L68 80L68 77L72 78L72 77L69 75z"/>
<path style="fill:#c2d7de; stroke:none;" d="M76.3333 75.6667L76.6667 76.3333L76.3333 75.6667M105.333 75.6667L105.667 76.3333L105.333 75.6667z"/>
<path style="fill:#dda226; stroke:none;" d="M112 75L110 77L110 78L114 77L114 80L110 79L110 80L114 81L112 75z"/>
<path style="fill:#c2d7de; stroke:none;" d="M77 78L78 79L77 78M104 78L105 79L104 78M78 79L79 80L78 79M103 79L104 80L103 79z"/>
<path style="fill:#dda226; stroke:none;" d="M72.3133 83.446C70.3111 84.2178 71.7723 87.292 73.6867 86.554C75.6889 85.7822 74.2277 82.708 72.3133 83.446M109.056 83.341C106.989 83.4122 106.74 86.7349 108.944 86.659C111.011 86.5878 111.26 83.2651 109.056 83.341z"/>
<path style="fill:#c2d7de; stroke:none;" d="M81 83L82 84L81 83M100 83L101 84L100 83z"/>
<path style="fill:#9d2941; stroke:none;" d="M72 84L72 86L74 86L74 84L72 84z"/>
<path style="fill:#c2d7de; stroke:none;" d="M83 84L84 85L83 84M98 84L99 85L98 84z"/>
<path style="fill:#9d2941; stroke:none;" d="M108 84L108 86L110 86L110 84L108 84z"/>
<path style="fill:#c2d7de; stroke:none;" d="M84 85L85 86L84 85M97 85L98 86L97 85M86.6667 86.3333L87.3333 86.6667L86.6667 86.3333M94.6667 86.3333L95.3333 86.6667L94.6667 86.3333z"/>
<path style="fill:#dda226; stroke:none;" d="M76 93L80 93L80 87C76.4548 87.9464 75.8515 89.4157 76 93z"/>
<path style="fill:#c2d7de; stroke:none;" d="M90.6667 87.3333L91.3333 87.6667L90.6667 87.3333z"/>
<path style="fill:#dda226; stroke:none;" d="M102 87L102 93L106 93C106.126 89.4744 105.467 87.9927 102 87z"/>
<path style="fill:#9d2941; stroke:none;" d="M77 89L77 91L80 91L80 89L77 89M102 89L102 91L105 91L105 89L102 89z"/>
<path style="fill:#dda226; stroke:none;" d="M82 91L83 96L87 95L86 90L82 91M96 90L95 95L99 96L100 91L96 90z"/>
<path style="fill:#9d2941; stroke:none;" d="M83 92L84 95L85 95L86 92L83 92z"/>
<path style="fill:#dda226; stroke:none;" d="M88 93L88 96L94 96L94 95L90 96L90 93L94 94L88 93z"/>
<path style="fill:#9d2941; stroke:none;" d="M96 92L97 95L98 95L99 92L96 92z"/>
<path style="fill:#020101; stroke:none;" d="M0 104L0 117L182 117L182 104L0 104z"/>
<path style="fill:#9d2941; stroke:none;" d="M0 117L0 130L182 130L182 117L0 117z"/>
</svg>
