<svg width="31" height="24" viewBox="0 0 31 24" fill="none" xmlns="http://www.w3.org/2000/svg">
<g clip-path="url(#clip0_1232_6430)">
<path d="M22.4551 9.03322C21.1866 10.2097 22.1277 10.4757 23.4781 10.6291C24.8285 10.7826 30.3324 9.20714 30.3324 9.20714C28.3477 8.66494 29.2173 8.3478 28.2249 8.2455C27.9614 8.23299 27.7057 8.15183 27.4832 8.01007C27.2607 7.86831 27.0791 7.67087 26.9564 7.43732C26.9564 7.43732 23.8669 7.76468 22.4551 9.03322Z" fill="#FF7708"/>
<path d="M24.3273 8.66495C22.9871 9.83119 23.6316 9.93349 24.9718 10.0869C26.793 9.98745 28.5994 9.70296 30.3631 9.23784C28.3784 8.69564 29.7697 8.42965 28.7774 8.32735C28.1109 8.21761 27.4897 7.91942 26.9871 7.46802C26.0077 7.61605 25.0877 8.03006 24.3273 8.66495Z" fill="#FFA008"/>
<path d="M27.6009 8.69567C27.1099 8.85935 25.5549 9.37086 26.0971 9.25833C27.0845 9.11698 28.0503 8.85234 28.9718 8.4706C29.3401 8.266 28.0817 8.52175 27.6009 8.69567Z" fill="#FFDE08"/>
<path d="M19.7954 3.62148C19.3555 5.52429 20.1637 5.52429 21.2071 5.23785C22.2506 4.9514 25.6573 1.06393 25.6573 1.06393C23.9591 1.06393 24.4603 0.388744 23.6931 0.603578C23.4492 0.649037 23.1972 0.620761 22.9694 0.522363C22.7417 0.423965 22.5484 0.259909 22.4143 0.0511475C21.1725 0.92097 20.2521 2.17581 19.7954 3.62148Z" fill="#FF7708"/>
<path d="M20.3476 2.42455C19.8566 4.3376 20.3476 4.24553 21.3706 3.95908C22.3937 3.67264 24.9819 1.01279 24.9819 1.01279C23.2837 1.01279 24.2044 0.214834 23.4269 0.439898C22.8289 0.510779 22.2262 0.353709 21.7389 0C21.0239 0.635414 20.5354 1.48659 20.3476 2.42455Z" fill="#FFA008"/>
<path d="M22.803 1.28903C22.5166 1.66755 21.5652 2.86448 21.9437 2.51665C22.6325 1.94733 23.2324 1.27841 23.7237 0.531997C23.8977 0.14325 23.0895 0.910513 22.803 1.28903Z" fill="#FFDE08"/>
<path d="M2.00489 17.7698C2.88829 17.0803 3.85817 16.5093 4.8898 16.0716C6.19926 15.601 7.06882 15.3555 7.06882 15.3555L7.95885 14.4552C8.40795 14.21 8.88554 14.021 9.38085 13.8926C9.74913 13.8926 9.299 14.9156 8.93072 15.3862C8.56243 15.8568 5.70821 17.7391 5.39107 18.0358C5.07394 18.3325 1.56499 18.8747 2.00489 17.7698Z" fill="#003D79"/>
<path d="M24.266 9.62661C24.266 9.62661 24.266 9.68799 24.266 9.70845C24.266 10.179 23.8159 10.3632 23.4987 10.6087C23.0282 10.9668 22.5576 11.3248 22.1074 11.7136C21.4435 12.4375 20.6987 13.0829 19.8875 13.6368C19.1395 14.1645 18.5688 14.9064 18.2507 15.7647C17.7395 16.8947 16.9339 17.8664 15.9182 18.578C14.312 19.734 14.0767 19.4578 14.0767 19.4578L13.1253 16.798C13.1253 16.798 10.9054 16.0512 11.1611 15.5192C11.2927 15.2249 11.4919 14.9659 11.7426 14.7632C11.9933 14.5605 12.2883 14.42 12.6036 14.353C13.0247 14.2552 13.4668 14.3095 13.8517 14.5064C14.5894 14.4282 15.2943 14.1604 15.8977 13.7289C17.023 12.9821 17.3299 12.7673 17.7494 12.4501C18.1688 12.133 18.7008 11.1918 19.5806 10.7826C20.4604 10.3734 21.1458 10.4348 21.8108 9.91305C21.9624 9.79681 22.1028 9.66666 22.2302 9.5243C22.312 9.422 22.353 9.3197 22.4859 9.27878C22.9213 9.15135 23.3809 9.1303 23.8261 9.2174C23.9608 9.2288 24.0874 9.28666 24.1842 9.38108C24.2373 9.45192 24.266 9.53807 24.266 9.62661Z" fill="#424242"/>
<path d="M20.8697 4.5013C20.9313 4.56067 20.977 4.63453 21.0027 4.71614C21.0184 4.79378 21.0184 4.87379 21.0027 4.95143C21.0027 5.12535 20.7367 5.18673 20.6241 5.30949C20.4355 5.4883 20.2128 5.62745 19.9694 5.7187C19.785 5.91956 19.5904 6.11078 19.3863 6.29159C19.1258 6.70531 18.9 7.13987 18.7111 7.59082C18.5576 7.90795 17.5244 10.6599 17.1868 11.1305C16.8871 11.5368 16.617 11.9642 16.3786 12.4092C16.2252 12.7059 15.2635 14.4553 15.2635 14.4553C15.2635 14.4553 14.619 16.5013 14.5883 16.7878C14.5576 17.0742 14.3428 19.4476 14.3428 19.4476C14.084 19.7072 13.7916 19.9309 13.4732 20.1126C13.0147 20.3805 12.5228 20.5869 12.0103 20.7264C10.4349 21.1663 8.89013 23.0077 7.61135 23.4987C7.46785 23.5451 7.3207 23.5793 7.17146 23.6011C6.14844 23.6829 5.64716 22.7213 5.40163 22.578C5.15611 22.4348 5.40163 22.4655 4.12286 22.578C3.8879 22.5959 3.65193 22.5959 3.41697 22.578C2.81339 22.578 2.83386 22.3734 2.62925 22.1586C2.42465 21.9438 3.1203 20.2353 2.44511 19.3351C1.76992 18.4348 2.38373 18.0051 3.22261 17.4527C4.16916 17.0654 5.17737 16.8506 6.19958 16.8184C6.42846 16.784 6.64397 16.689 6.82382 16.5433C7.00368 16.3976 7.14135 16.2065 7.2226 15.9898C7.78158 15.0046 8.52894 14.1391 9.42209 13.4425C9.84501 13.1557 10.3348 12.983 10.8441 12.9412C11.4147 12.7111 11.9989 12.5164 12.5934 12.3581C13.121 12.3163 13.6336 12.1629 14.0973 11.908C14.2589 11.3479 14.4783 10.8062 14.752 10.2916C15.2703 9.46714 15.8775 8.70211 16.5628 8.01026C16.9822 7.56013 18.261 6.01537 18.6088 5.50386C18.8144 5.20339 19.0665 4.9375 19.3556 4.71614C19.55 4.57292 19.5909 4.35808 19.8569 4.33762C20.1641 4.31253 20.4729 4.36165 20.7571 4.48084L20.8697 4.5013Z" fill="#424242"/>
<path d="M0.797725 19.2634C0.797725 19.1918 0.715885 18.5269 2.15834 17.2992C2.35485 17.1096 2.58734 16.9612 2.8421 16.8628C3.09686 16.7644 3.36874 16.718 3.64171 16.7264C4.06156 16.7715 4.45063 16.9679 4.73634 17.2788L4.5522 17.4322C4.3064 17.1731 3.97639 17.0099 3.62126 16.9719C3.13305 16.9664 2.66243 17.1539 2.31179 17.4936C0.930721 18.6599 0.981871 19.2634 0.992101 19.2634H0.797725Z" fill="#86E718"/>
<path d="M2.00489 17.7698C2.88829 17.0803 3.85817 16.5093 4.8898 16.0716C6.19926 15.601 7.06882 15.3555 7.06882 15.3555L7.95885 14.4552C8.40795 14.21 8.88554 14.021 9.38085 13.8926C9.74913 13.8926 9.299 14.9156 8.93072 15.3862C8.56243 15.8568 5.70821 17.7391 5.39107 18.0358C5.07394 18.3325 1.56499 18.8747 2.00489 17.7698Z" fill="#885C00"/>
<path d="M24.266 9.62661C24.266 9.62661 24.266 9.68799 24.266 9.70845C24.266 10.179 23.8159 10.3632 23.4987 10.6087C23.0282 10.9668 22.5576 11.3248 22.1074 11.7136C21.4435 12.4375 20.6987 13.0829 19.8875 13.6368C19.1395 14.1645 18.5688 14.9064 18.2507 15.7647C17.7395 16.8947 16.9339 17.8664 15.9182 18.578C14.312 19.734 14.0767 19.4578 14.0767 19.4578L13.1253 16.798C13.1253 16.798 10.9054 16.0512 11.1611 15.5192C11.2927 15.2249 11.4919 14.9659 11.7426 14.7632C11.9933 14.5605 12.2883 14.42 12.6036 14.353C13.0247 14.2552 13.4668 14.3095 13.8517 14.5064C14.5894 14.4282 15.2943 14.1604 15.8977 13.7289C17.023 12.9821 17.3299 12.7673 17.7494 12.4501C18.1688 12.133 18.7008 11.1918 19.5806 10.7826C20.4604 10.3734 21.1458 10.4348 21.8108 9.91305C21.9624 9.79681 22.1028 9.66666 22.2302 9.5243C22.312 9.422 22.353 9.3197 22.4859 9.27878C22.9213 9.15135 23.3809 9.1303 23.8261 9.2174C23.9608 9.2288 24.0874 9.28666 24.1842 9.38108C24.2373 9.45192 24.266 9.53807 24.266 9.62661Z" fill="#424242"/>
<path d="M20.8697 4.5013C20.9313 4.56067 20.977 4.63453 21.0027 4.71614C21.0184 4.79378 21.0184 4.87379 21.0027 4.95143C21.0027 5.12535 20.7367 5.18673 20.6241 5.30949C20.4355 5.4883 20.2128 5.62745 19.9694 5.7187C19.785 5.91956 19.5904 6.11078 19.3863 6.29159C19.1258 6.70531 18.9 7.13987 18.7111 7.59082C18.5576 7.90795 17.5244 10.6599 17.1868 11.1305C16.8871 11.5368 16.617 11.9642 16.3786 12.4092C16.2252 12.7059 15.2635 14.4553 15.2635 14.4553C15.2635 14.4553 14.619 16.5013 14.5883 16.7878C14.5576 17.0742 14.3428 19.4476 14.3428 19.4476C14.084 19.7072 13.7916 19.9309 13.4732 20.1126C13.0147 20.3805 12.5228 20.5869 12.0103 20.7264C10.4349 21.1663 8.89013 23.0077 7.61135 23.4987C7.46785 23.5451 7.3207 23.5793 7.17146 23.6011C6.14844 23.6829 5.64716 22.7213 5.40163 22.578C5.15611 22.4348 5.40163 22.4655 4.12286 22.578C3.8879 22.5959 3.65193 22.5959 3.41697 22.578C2.81339 22.578 2.83386 22.3734 2.62925 22.1586C2.42465 21.9438 3.1203 20.2353 2.44511 19.3351C1.76992 18.4348 2.38373 18.0051 3.22261 17.4527C4.16916 17.0654 5.17737 16.8506 6.19958 16.8184C6.42846 16.784 6.64397 16.689 6.82382 16.5433C7.00368 16.3976 7.14135 16.2065 7.2226 15.9898C7.78158 15.0046 8.52894 14.1391 9.42209 13.4425C9.84501 13.1557 10.3348 12.983 10.8441 12.9412C11.4147 12.7111 11.9989 12.5164 12.5934 12.3581C13.121 12.3163 13.6336 12.1629 14.0973 11.908C14.2589 11.3479 14.4783 10.8062 14.752 10.2916C15.2703 9.46714 15.8775 8.70211 16.5628 8.01026C16.9822 7.56013 18.261 6.01537 18.6088 5.50386C18.8144 5.20339 19.0665 4.9375 19.3556 4.71614C19.55 4.57292 19.5909 4.35808 19.8569 4.33762C20.1641 4.31253 20.4729 4.36165 20.7571 4.48084L20.8697 4.5013Z" fill="#424242"/>
<path d="M0.797725 19.2634C0.797725 19.1918 0.715885 18.5268 2.15834 17.2992C2.57641 16.9445 3.08516 16.7135 3.62734 16.6322C4.16953 16.5509 4.72366 16.6224 5.22739 16.8389L5.12509 17.0537C4.65699 16.8469 4.13945 16.7784 3.63367 16.8564C3.12788 16.9343 2.65499 17.1554 2.27087 17.4936C0.93072 18.6598 0.981871 19.2634 0.992101 19.2634H0.797725Z" fill="#86E718"/>
<path d="M4.88999 20.9718C4.69355 21.3158 4.4205 21.6098 4.09204 21.8312C4.09204 21.8312 3.82605 22.7519 3.48845 22.9156C2.87941 23.2334 2.24666 23.5037 1.59587 23.7238C1.53483 23.7302 1.47311 23.7235 1.41487 23.7041C1.35664 23.6847 1.30324 23.653 1.25827 23.6112C1.02915 23.3894 0.845044 23.1254 0.716075 22.8337C0.466436 22.3855 0.273974 21.9078 0.143187 21.4117C0.143187 21.0741 -0.0921112 20.9923 0.0511113 20.2353C0.0511113 20.1023 0.051111 19.9693 0.122722 19.8465C0.142846 19.3201 0.26443 18.8025 0.480785 18.3222C0.79792 17.6982 2.52682 16.3376 3.9795 17.2992C4.50441 17.7333 4.87614 18.3243 5.04004 18.9855C5.20394 19.6466 5.15135 20.3428 4.88999 20.9718Z" fill="#424242"/>
<path d="M4.58334 20.8491C4.58334 20.8491 4.98232 20.8491 4.8391 21.3197C4.76235 21.4867 4.64206 21.6299 4.49085 21.7343C4.33964 21.8387 4.16309 21.9005 3.97977 21.9131C3.84678 21.9131 3.81608 21.6164 3.88769 21.4936C4.08478 21.244 4.31947 21.0266 4.58334 20.8491Z" fill="#424242"/>
<path d="M19.3351 19.2634L18.3939 19.642C18.2916 19.642 17.4732 20.4092 17.4732 20.4092L17.3197 20.532L17.1151 20.6752C17.0183 20.7563 16.9073 20.8187 16.7877 20.8593C16.035 21.1488 15.3034 21.4906 14.5985 21.8824C14.0605 22.1601 13.4648 22.3073 12.8594 22.312C12.1566 22.3547 11.4829 22.6078 10.9259 23.0384C10.1979 23.4625 9.40172 23.7567 8.57292 23.9079C8.08526 23.971 7.59246 23.8386 7.20207 23.5397C6.94554 23.3756 6.72885 23.1565 6.56779 22.8981C6.40674 22.6397 6.30539 22.3486 6.27112 22.046C6.26562 21.9711 6.26562 21.8959 6.27112 21.821C6.22033 21.5162 6.23434 21.2041 6.31223 20.905C6.39012 20.606 6.53015 20.3267 6.72319 20.0854C6.91623 19.8441 7.15794 19.6462 7.43259 19.5046C7.70723 19.363 8.00864 19.2808 8.31716 19.2634C9.08442 19.3555 9.98468 20.7059 9.98468 20.7059C10.6112 20.6331 11.2328 20.5238 11.8466 20.3785C12.6138 20.2046 13.1151 20.1125 13.5652 20.0512L14.2916 19.9591C15.0179 19.8772 16.3376 19.8056 16.3376 19.8056C16.3469 19.707 16.3469 19.6076 16.3376 19.509C16.4134 19.1872 16.5721 18.891 16.798 18.6496C17.0742 18.3734 16.9821 18.3632 17.1049 18.4859C17.1324 18.5453 17.1466 18.6098 17.1466 18.6752C17.1466 18.7406 17.1324 18.8052 17.1049 18.8645L18.3223 18.2404C18.5295 18.262 18.7347 18.2996 18.9361 18.353C19.0895 18.4143 18.9361 18.9258 18.9361 18.9258C19.069 18.9329 19.2022 18.9329 19.3351 18.9258C19.4169 18.8542 19.3351 19.2634 19.3351 19.2634Z" fill="#0071B8"/>
<path d="M19.3352 19.2634L18.3941 19.642C18.2918 19.642 17.4733 20.4092 17.4733 20.4092L17.3199 20.532C17.4222 19.9284 16.2969 19.8466 16.2969 19.8466C16.3061 19.7479 16.3061 19.6486 16.2969 19.5499C16.3727 19.2281 16.5314 18.9319 16.7572 18.6905C17.0334 18.4143 16.9414 18.4041 17.0641 18.5269C17.0916 18.5862 17.1059 18.6508 17.1059 18.7161C17.1059 18.7815 17.0916 18.8461 17.0641 18.9054L18.3224 18.2404C18.5297 18.262 18.7349 18.2996 18.9363 18.353C19.0897 18.4143 18.9363 18.9258 18.9363 18.9258C19.0692 18.9329 19.2023 18.9329 19.3352 18.9258C19.4171 18.8542 19.3352 19.2634 19.3352 19.2634Z" fill="#FCBA94"/>
<path d="M3.10991 22.2302C3.10991 22.8235 2.96668 23.0793 2.68024 23.1611C2.24339 23.4184 1.7535 23.5724 1.24802 23.6113C1.0189 23.3894 0.834791 23.1254 0.705822 22.8338C0.456183 22.3856 0.263714 21.9079 0.132926 21.4118C0.132926 21.0742 -0.102364 20.9923 0.0408585 20.2353C0.0408585 20.1023 0.0408582 19.9693 0.112469 19.8466C0.112469 19.8466 0.225001 20.3888 1.13549 20.5013C2.04597 20.6138 2.44495 20.7161 2.62909 21.0742C2.81324 21.4322 3.09968 21.6266 3.10991 22.2302Z" fill="#FCD1B9"/>
<path d="M17.6267 15.3555C17.7541 15.0017 17.9115 14.6595 18.0972 14.3325C18.2712 14.087 18.4962 13.8721 18.6701 13.6368C18.844 13.4015 18.8338 13.3606 18.7622 13.2378C18.728 13.1783 18.6785 13.1289 18.619 13.0946C18.438 12.9932 18.2367 12.9333 18.0297 12.9192C17.8227 12.905 17.6152 12.937 17.4221 13.0128C17.1113 13.1676 16.8252 13.3675 16.5729 13.6061C16.0305 14.0585 15.4192 14.4212 14.7622 14.6803C14.8934 14.7424 15.0064 14.837 15.0906 14.9552C15.1748 15.0734 15.2273 15.2112 15.243 15.3555C15.2518 15.5465 15.224 15.7375 15.1612 15.9182C15.0691 16.2558 14.977 16.5831 14.8952 16.9412C14.8545 17.078 14.8545 17.2238 14.8952 17.3606C14.9372 17.4534 15.0071 17.5308 15.0951 17.5821C15.183 17.6334 15.2848 17.6561 15.3862 17.6471C16.307 17.5345 17.2891 16.1228 17.6267 15.3555Z" fill="#575757"/>
<path d="M18.1891 12.5115C18.4417 12.6618 18.6812 12.8329 18.9053 13.023C19.1343 13.1322 19.3906 13.1714 19.6418 13.1356C19.7032 13.1356 19.9487 12.5729 20.0306 12.4808C20.289 12.233 20.5862 12.0291 20.9104 11.8772C21.5087 11.6348 22.0593 11.2885 22.537 10.8542C22.6802 10.7008 22.7927 10.5166 22.9359 10.3632C23.1903 10.0845 23.4916 9.85254 23.826 9.67775C23.8976 9.6266 23.9897 9.57545 23.9897 9.48338C23.9897 9.39131 23.8874 9.34016 23.7953 9.30947C23.5683 9.2441 23.3281 9.23897 23.0985 9.29458C22.8689 9.35018 22.6578 9.46461 22.4858 9.6266C22.3017 9.79029 22.1687 10.0154 21.9743 10.1586C21.7676 10.2763 21.543 10.3593 21.3093 10.4041C19.987 10.6959 18.8244 11.4782 18.0562 12.5934L18.1891 12.5115Z" fill="#575757"/>
<path d="M14.8234 16.0511C14.8292 16.3107 14.7804 16.5686 14.6802 16.8082C14.6363 16.9277 14.557 17.031 14.4527 17.1041C14.3485 17.1773 14.2244 17.2168 14.097 17.2174C13.9899 17.1944 13.8888 17.1491 13.8004 17.0844C13.162 16.511 12.4777 15.9909 11.7543 15.5294C11.6316 15.468 11.4883 15.3862 11.5088 15.2634C11.5293 15.1406 11.5088 15.1816 11.5906 15.1406C11.9778 14.7211 12.5058 14.4589 13.074 14.4041C13.5173 14.3633 13.9613 14.4752 14.3323 14.7212C14.5362 14.8697 14.6916 15.0752 14.779 15.3119C14.8664 15.5485 14.8818 15.8057 14.8234 16.0511Z" fill="#575757"/>
<path d="M11.4989 13.3197C11.1735 13.1876 10.8129 13.1695 10.4759 13.2685C10.2789 13.3501 10.0933 13.4567 9.92347 13.5857C9.71008 13.7089 9.5225 13.8721 9.37104 14.0665C9.31727 14.1355 9.27257 14.2111 9.23805 14.2915C9.23706 14.3086 9.23706 14.3257 9.23805 14.3427L9.42219 14.4041C9.76593 14.4297 10.1077 14.4775 10.4452 14.5473C10.6089 14.6087 10.7623 14.711 10.9158 14.7826C11.0724 14.8665 11.2537 14.8919 11.4273 14.8542C11.5175 14.8202 11.6034 14.7755 11.6831 14.7212C11.7923 14.6303 11.9086 14.5482 12.0309 14.4757C12.1601 14.4207 12.2935 14.3762 12.4299 14.3427H12.4912C12.5185 14.3107 12.5362 14.2717 12.5424 14.2302C12.5629 14.1635 12.5629 14.0922 12.5424 14.0256C12.5424 13.9335 12.4094 13.8926 12.3378 13.8312C12.277 13.7621 12.2083 13.7003 12.1332 13.647C11.9377 13.5095 11.7243 13.3993 11.4989 13.3197Z" fill="#575757"/>
<path d="M15.4783 12.6548C15.5806 12.7161 15.6932 12.7877 15.7136 12.9105C15.7341 13.0333 15.6113 13.156 15.5397 13.2686C15.4681 13.3811 15.4579 13.4425 15.4067 13.5243C15.268 13.7046 15.0846 13.8457 14.8748 13.9335C14.7867 13.9829 14.6942 14.024 14.5985 14.0563H14.4349L14.2712 14.1074L13.9234 14.1791H13.3198C13.1593 14.203 12.9953 14.178 12.8492 14.1074C12.7406 14.0018 12.6476 13.8812 12.573 13.7494C12.4906 13.6602 12.3979 13.5812 12.2967 13.5141L11.8671 13.2072C11.7852 13.156 11.6932 13.0947 11.6113 13.1253C11.9401 12.9518 12.2822 12.8047 12.6343 12.6854L13.2891 12.5115L13.7392 12.3683C13.8958 12.3186 14.0568 12.2843 14.22 12.266C14.3656 12.2406 14.5144 12.2406 14.6599 12.266C14.9469 12.3633 15.2216 12.4938 15.4783 12.6548Z" fill="#575757"/>
<path d="M18.5985 7.27366L17.3811 10.2711C17.3337 10.4051 17.2755 10.5351 17.2072 10.6598C17.1113 10.8329 17.0054 11.0003 16.8901 11.1611C16.6884 11.482 16.4015 11.7406 16.0614 11.9079C15.7847 12.0013 15.488 12.019 15.2021 11.9591C15.009 11.9427 14.8245 11.8717 14.6701 11.7545C14.6653 11.7378 14.6653 11.72 14.6701 11.7033C14.6701 11.7033 14.6701 11.7033 14.6701 11.6522C14.75 11.3799 14.8562 11.1161 14.9873 10.8645L15.2942 10.1893C15.376 10.0358 15.4476 9.87213 15.5397 9.71867C15.6318 9.56522 15.7341 9.47315 15.8364 9.35039C16.6241 8.42967 17.3914 7.46803 18.1689 6.52686L18.0768 6.62916L18.7622 5.60614C18.8065 5.53315 18.8658 5.47039 18.9361 5.422C18.9361 5.422 18.9975 5.47315 19.0077 5.50384C19.028 5.64291 19.028 5.7842 19.0077 5.92328C19.0179 6.04924 19.0179 6.17583 19.0077 6.30179C18.9866 6.41093 18.9449 6.51507 18.885 6.6087C18.7827 6.82353 18.6906 7.0486 18.5985 7.27366Z" fill="#575757"/>
<path d="M13.2482 16.5627C13.5198 16.7064 13.7464 16.9223 13.903 17.1867C13.9997 17.4268 14.0416 17.6854 14.0257 17.9437C14.0326 18.072 14.0152 18.2004 13.9746 18.3223C13.9221 18.4107 13.8482 18.4846 13.7597 18.5371C13.1564 18.8742 12.5091 19.1255 11.8365 19.2839C11.1817 19.468 10.5168 19.6113 9.8518 19.7954C9.33663 19.8964 8.84645 20.098 8.40935 20.3887C7.92617 20.7489 7.38212 21.0192 6.80321 21.1867C6.65745 21.2374 6.49884 21.2374 6.35308 21.1867C6.27467 21.1451 6.20872 21.0833 6.16198 21.0078C6.11525 20.9323 6.0894 20.8458 6.08709 20.757C6.07922 20.5794 6.10705 20.402 6.16894 20.2353C6.34285 19.6829 5.80065 19.0384 5.39144 18.7008C5.21753 18.5575 5.01292 18.3632 5.09476 18.1688C5.12 18.1212 5.15484 18.0794 5.19707 18.046C5.88724 17.5024 6.6566 17.0677 7.4784 16.757C7.60289 16.693 7.71676 16.6102 7.816 16.5115C7.92745 16.3671 8.00444 16.1992 8.04106 16.0205C8.14453 15.6537 8.31066 15.3076 8.53211 14.9974C8.76297 14.6799 9.10743 14.4637 9.49374 14.3939C9.85895 14.3701 10.2209 14.4751 10.5168 14.6905C10.7521 14.8542 10.9157 15.0793 11.1306 15.243C11.8262 15.7136 12.573 16.1125 13.2482 16.5627Z" fill="#575757"/>
<path d="M13.2582 14.977C13.2582 14.977 13.3912 15.0383 12.3682 15.7442C10.2929 16.9652 8.13605 18.0419 5.91292 18.9667C5.41164 19.0383 4.71599 18.3938 4.82852 18.1995C4.94105 18.0051 12.1431 13.8414 13.2582 14.977Z" fill="#373737"/>
<path d="M11.0283 13.1253L11.7751 12.7263C11.8857 12.6804 12.0065 12.6648 12.1252 12.6809C12.2438 12.6971 12.356 12.7446 12.4503 12.8184C12.721 13.0099 12.9427 13.2626 13.0973 13.5559C13.252 13.8492 13.3352 14.1748 13.3403 14.5064C13.3342 14.6373 13.3029 14.7658 13.2483 14.8849C13.2056 14.9797 13.134 15.0585 13.0437 15.11L12.2866 15.5089C12.3795 15.3657 12.4292 15.1988 12.4299 15.0281C12.4252 14.6846 12.3393 14.347 12.1793 14.043C12.0193 13.739 11.7896 13.4771 11.5091 13.2788C11.3697 13.1769 11.201 13.1231 11.0283 13.1253Z" fill="url(#paint0_linear_1232_6430)"/>
<path d="M11.4989 13.3197C11.1735 13.1876 10.8129 13.1695 10.4759 13.2685C10.2789 13.3501 10.0933 13.4567 9.92347 13.5857C9.71008 13.7089 9.5225 13.8721 9.37104 14.0665C9.31727 14.1355 9.27257 14.2111 9.23805 14.2915C9.23706 14.3086 9.23706 14.3257 9.23805 14.3427L9.42219 14.4041C9.76593 14.4297 10.1077 14.4775 10.4452 14.5473C10.6089 14.6087 10.7623 14.711 10.9158 14.7826C11.0724 14.8665 11.2537 14.8919 11.4273 14.8542C11.5175 14.8202 11.6034 14.7755 11.6831 14.7212C11.7923 14.6303 11.9086 14.5482 12.0309 14.4757C12.1601 14.4207 12.2935 14.3762 12.4299 14.3427H12.4912C12.5185 14.3107 12.5362 14.2717 12.5424 14.2302C12.5629 14.1635 12.5629 14.0922 12.5424 14.0256C12.5424 13.9335 12.4094 13.8926 12.3378 13.8312C12.277 13.7621 12.2083 13.7003 12.1332 13.647C11.9377 13.5095 11.7243 13.3993 11.4989 13.3197Z" fill="#575757"/>
<path d="M5.16602 16.1944L11.0279 13.1253C11.2006 13.1231 11.3693 13.1769 11.5087 13.2788C11.7892 13.4771 12.0189 13.739 12.1789 14.043C12.3389 14.347 12.4248 14.6846 12.4294 15.0281C12.4288 15.1988 12.3791 15.3657 12.2862 15.5089L6.47548 18.578C6.34541 18.6436 6.20174 18.6778 6.05604 18.6778C5.91034 18.6778 5.76668 18.6436 5.63661 18.578C5.36593 18.3865 5.14424 18.1338 4.98959 17.8405C4.83494 17.5472 4.75168 17.2216 4.74658 16.89C4.76529 16.7516 4.81216 16.6184 4.88429 16.4988C4.95643 16.3791 5.05231 16.2755 5.16602 16.1944Z" fill="url(#paint1_linear_1232_6430)"/>
<path d="M4.58323 17.2174C4.57314 17.4856 4.63405 17.7517 4.75979 17.9888C4.88554 18.226 5.07166 18.4257 5.29934 18.5678C5.7597 18.8645 6.32236 18.6803 6.32236 18.1381C6.31846 17.8406 6.24411 17.5483 6.10541 17.2852C5.9667 17.022 5.7676 16.7954 5.52441 16.624C5.42497 16.5688 5.3125 16.5413 5.19878 16.5444C5.08506 16.5476 4.97428 16.5812 4.87805 16.6419C4.78181 16.7026 4.70367 16.788 4.6518 16.8893C4.59993 16.9905 4.57624 17.1039 4.58323 17.2174Z" fill="#FFBE13"/>
<path d="M4.59326 17.3913C4.59956 17.593 4.65277 17.7905 4.74866 17.9681C4.84455 18.1456 4.98049 18.2984 5.14569 18.4143C5.46283 18.6189 5.72881 18.4757 5.73904 18.0972C5.73119 17.8958 5.67731 17.6989 5.58156 17.5216C5.4858 17.3443 5.3507 17.1912 5.18661 17.0742C4.88994 16.8696 4.60349 17.0128 4.59326 17.3913Z" fill="#FFDD36"/>
<path d="M5.30961 17.7903C5.30961 17.7903 5.62674 18.4348 5.61651 18.445L5.83134 18.6189C5.77692 18.6445 5.71755 18.6577 5.65743 18.6577C5.59731 18.6577 5.53793 18.6445 5.48352 18.6189C5.29937 18.5269 5.22776 18.5269 5.03339 18.179C4.83901 17.8312 5.30961 17.7903 5.30961 17.7903Z" fill="#EC7500"/>
<path d="M4.64434 17.5754L4.88987 17.422C4.93694 17.4107 4.98601 17.4107 5.03309 17.422C5.11512 17.4773 5.18228 17.552 5.22867 17.6394C5.27505 17.7268 5.29923 17.8243 5.29907 17.9233C5.31217 17.9701 5.31217 18.0196 5.29907 18.0665L5.01263 18.2199C4.98308 18.237 4.94956 18.246 4.91544 18.246C4.88132 18.246 4.8478 18.237 4.81825 18.2199C4.73954 18.1644 4.67525 18.0909 4.63075 18.0055C4.58626 17.92 4.56286 17.8252 4.5625 17.7289C4.56329 17.6987 4.57109 17.6691 4.5853 17.6425C4.5995 17.6159 4.61972 17.5929 4.64434 17.5754Z" fill="#FFAE00"/>
<path d="M4.53214 17.7698C4.53073 17.8665 4.55337 17.9619 4.59802 18.0476C4.64266 18.1334 4.70791 18.2066 4.78789 18.2609C4.94134 18.353 5.0641 18.2609 5.07433 18.1074C5.07041 18.0107 5.0444 17.9162 4.9983 17.8311C4.95219 17.7459 4.88721 17.6725 4.80835 17.6164C4.78327 17.5906 4.75042 17.5738 4.71484 17.5686C4.67927 17.5633 4.64297 17.57 4.61154 17.5874C4.5801 17.6049 4.5553 17.6322 4.54095 17.6652C4.5266 17.6982 4.5235 17.7349 4.53214 17.7698Z" fill="#FFC822"/>
<path d="M4.42989 17.8721L4.68564 17.7391C4.71196 17.7289 4.74117 17.7289 4.76748 17.7391C4.81616 17.7746 4.85618 17.8207 4.88453 17.8738C4.91288 17.927 4.92882 17.9859 4.93117 18.0461C4.93698 18.073 4.93698 18.1009 4.93117 18.1279L4.66518 18.2711C4.64778 18.2801 4.62849 18.2848 4.60891 18.2848C4.58934 18.2848 4.57005 18.2801 4.55265 18.2711C4.50435 18.2409 4.46479 18.1985 4.43787 18.1483C4.41096 18.098 4.39762 18.0416 4.39919 17.9847C4.39457 17.9648 4.39497 17.9442 4.40032 17.9245C4.40568 17.9049 4.41584 17.8869 4.42989 17.8721Z" fill="#9E9E9E"/>
<path d="M4.3582 17.9847C4.35774 18.0429 4.37147 18.1003 4.39821 18.152C4.42494 18.2037 4.46388 18.2481 4.51164 18.2814C4.60371 18.3325 4.67533 18.2814 4.67533 18.1893C4.6769 18.1323 4.66357 18.0759 4.63666 18.0257C4.60974 17.9754 4.57018 17.9331 4.52188 17.9028C4.50956 17.8838 4.49067 17.87 4.46882 17.8641C4.44697 17.8581 4.42369 17.8604 4.40343 17.8706C4.38318 17.8807 4.36736 17.8979 4.35902 17.919C4.35067 17.94 4.35038 17.9634 4.3582 17.9847Z" fill="#C7C7C7"/>
<path d="M1.07413 18.0051C0.903881 18.129 0.763971 18.2899 0.664934 18.4757C0.611664 18.5636 0.583496 18.6645 0.583496 18.7673C0.583496 18.8701 0.611664 18.9709 0.664934 19.0588C0.792016 19.1692 0.948376 19.2402 1.11506 19.2634L2.84396 19.6522C3.02878 19.677 3.20455 19.7473 3.35547 19.8568C3.49489 20.011 3.61829 20.1789 3.72375 20.3581C3.74467 20.4008 3.78134 20.4338 3.82606 20.4501C3.8921 20.4744 3.96462 20.4744 4.03066 20.4501L4.40917 20.266C4.54392 20.2099 4.66069 20.1179 4.74677 20C4.79081 19.9071 4.81519 19.8061 4.81838 19.7033C4.87987 19.4617 4.87987 19.2084 4.81838 18.9668C4.71993 18.7018 4.60019 18.4452 4.46033 18.1995C4.28549 17.882 4.03625 17.6117 3.73399 17.4118C3.30599 17.1676 2.80028 17.098 2.32222 17.2174C1.85435 17.3871 1.42862 17.6558 1.07413 18.0051Z" fill="#575757"/>
<path d="M7.71367 18.7928C7.52394 18.7621 7.33049 18.7621 7.14077 18.7928C6.94946 18.8186 6.77266 18.9088 6.63949 19.0486C6.49651 19.2674 6.42174 19.5238 6.42466 19.7852C6.42466 20.0716 6.42466 20.3581 6.42466 20.6445C6.40923 20.7462 6.40923 20.8497 6.42466 20.9514C6.45827 21.0438 6.50664 21.1302 6.56788 21.2072C6.87352 21.667 7.21563 22.1014 7.5909 22.5064C7.68191 22.6339 7.79945 22.7401 7.93543 22.8178C8.07141 22.8955 8.22261 22.9428 8.37863 22.9565C8.47676 22.9507 8.57268 22.9251 8.66061 22.8811C8.74853 22.8371 8.82662 22.7758 8.89014 22.7008C9.06532 22.4808 9.22921 22.252 9.38118 22.0153C9.56597 21.7393 9.66883 21.4165 9.67786 21.0844C9.70326 20.8909 9.70326 20.6948 9.67786 20.5013C9.6319 20.1588 9.49729 19.8342 9.28736 19.5596C9.07743 19.2851 8.79945 19.0702 8.48093 18.9361C8.23872 18.8328 7.97682 18.7839 7.71367 18.7928Z" fill="#3697FF"/>
<path d="M10.1381 21.0946C9.90637 21.2397 9.66736 21.3729 9.42204 21.4936C9.05572 21.6737 8.71227 21.8969 8.39902 22.1586C8.24414 22.2726 8.11224 22.4149 8.01028 22.578C7.95424 22.6551 7.92545 22.7487 7.92843 22.844C7.95176 22.9339 7.99392 23.0177 8.05212 23.09C8.11032 23.1623 8.18324 23.2215 8.26603 23.2634C8.34329 23.3217 8.42973 23.3666 8.52179 23.3964C8.62307 23.4168 8.7274 23.4168 8.82869 23.3964C9.25289 23.4016 9.67381 23.3216 10.0665 23.1611C10.2315 23.0757 10.3889 22.9765 10.5371 22.8645C10.8506 22.6541 11.1512 22.4252 11.4374 22.179C11.5373 22.0739 11.6551 21.9873 11.7852 21.9233C11.9238 21.8755 12.0685 21.8479 12.2149 21.8414C12.5204 21.7942 12.817 21.7011 13.0947 21.5652C13.2933 21.503 13.4681 21.3816 13.596 21.2174C13.6554 21.1261 13.687 21.0195 13.687 20.9105C13.687 20.8015 13.6554 20.6949 13.596 20.6036C13.5605 20.5333 13.504 20.4758 13.4343 20.4391C13.3646 20.4025 13.2852 20.3884 13.2072 20.399L12.5115 20.5013C11.6847 20.509 10.8714 20.7123 10.1381 21.0946Z" fill="#3697FF"/>
<path d="M16.6954 20.4399L14.4857 21.5959C14.352 21.6766 14.2015 21.7256 14.0458 21.7391C14.0458 21.7391 13.9231 21.7391 13.9128 21.6675C13.9039 21.652 13.8991 21.6343 13.8991 21.6164C13.8991 21.5984 13.9039 21.5808 13.9128 21.5652C14.0037 21.4606 14.0891 21.3513 14.1686 21.2379C14.2328 21.1621 14.268 21.066 14.268 20.9668C14.268 20.8675 14.2328 20.7714 14.1686 20.6957C13.9947 20.5422 13.7798 20.3888 13.5957 20.2353C14.2796 20.3149 14.9722 20.2733 15.6417 20.1125L16.1532 20C16.4026 19.9552 16.6592 19.9727 16.9 20.0512C17.0023 20.1125 17.0023 20.133 16.9 20.2353C16.7977 20.3376 16.8182 20.3683 16.6954 20.4399Z" fill="#3697FF"/>
<path d="M17.1661 20.6956C17.0692 20.7767 16.9582 20.8391 16.8387 20.8798C16.0859 21.1692 15.3544 21.5111 14.6494 21.9028C14.1111 22.1795 13.5156 22.3266 12.9103 22.3325C12.2078 22.3764 11.5344 22.6293 10.9768 23.0588C10.2488 23.4829 9.45267 23.7772 8.62386 23.9284C8.13778 23.991 7.64636 23.8627 7.25301 23.5703C6.22999 23.6522 5.72872 22.6905 5.48319 22.5473C5.23767 22.4041 5.48319 22.4348 4.20442 22.5473C3.96947 22.5652 3.73349 22.5652 3.49854 22.5473C3.54626 22.4293 3.62116 22.3243 3.71716 22.2407C3.81316 22.1572 3.92753 22.0975 4.05097 22.0665C4.26211 22.082 4.4741 22.082 4.68524 22.0665C4.79683 22.0365 4.89498 21.9696 4.96371 21.8768C5.03245 21.7839 5.06771 21.6705 5.06375 21.555C5.06375 21.3606 4.95122 21.1662 4.97168 20.9719C5.31951 21.2174 5.42181 21.7494 5.82079 21.8926C5.98447 21.954 6.15838 21.8926 6.31183 21.9846C6.68012 22.1074 6.81311 22.5473 7.03818 22.8644C7.20952 23.0919 7.43933 23.2687 7.70314 23.376C7.947 23.4719 8.20878 23.5138 8.4704 23.4987C9.14761 23.5004 9.81614 23.3464 10.4244 23.0486L10.9052 22.7519C11.0382 22.6701 11.1916 22.6189 11.3349 22.5268C11.6401 22.3642 11.9675 22.247 12.3067 22.179H12.5318C12.7361 22.1637 12.9413 22.1637 13.1456 22.179C13.3663 22.1692 13.5855 22.1384 13.8003 22.0869C13.9598 22.0569 14.1171 22.0159 14.2709 21.9642C14.412 21.9098 14.5488 21.8448 14.6801 21.7698C15.1022 21.5026 15.5433 21.2667 15.9998 21.0639C16.276 20.9412 16.5829 20.8696 16.8591 20.7366C16.9256 20.6899 17.0033 20.6617 17.0842 20.6547L17.1661 20.6956Z" fill="#003D79"/>
<path d="M4.88999 20.9718C4.69355 21.3158 4.4205 21.6098 4.09204 21.8312C4.09204 21.8312 3.82605 22.7519 3.48845 22.9156C2.87941 23.2334 2.24666 23.5037 1.59587 23.7238C1.53483 23.7302 1.47311 23.7235 1.41487 23.7041C1.35664 23.6847 1.30324 23.653 1.25827 23.6112C1.02915 23.3894 0.845044 23.1254 0.716075 22.8337C0.466436 22.3855 0.273974 21.9078 0.143187 21.4117C0.143187 21.0741 -0.0921112 20.9923 0.0511113 20.2353C0.0511113 20.1023 0.051111 19.9693 0.122722 19.8465C0.142846 19.3201 0.26443 18.8025 0.480785 18.3222C0.79792 17.6982 2.52682 16.3376 3.9795 17.2992C4.50441 17.7333 4.87614 18.3243 5.04004 18.9855C5.20394 19.6466 5.15135 20.3428 4.88999 20.9718Z" fill="#424242"/>
<path d="M4.58334 20.8491C4.58334 20.8491 4.98232 20.8491 4.8391 21.3197C4.76235 21.4867 4.64206 21.6299 4.49085 21.7343C4.33964 21.8387 4.16309 21.9005 3.97977 21.9131C3.84678 21.9131 3.81608 21.6164 3.88769 21.4936C4.08478 21.244 4.31947 21.0266 4.58334 20.8491Z" fill="#424242"/>
<path d="M19.3351 19.2634L18.3939 19.642C18.2916 19.642 17.4732 20.4092 17.4732 20.4092L17.3197 20.532L17.1151 20.6752C17.0183 20.7563 16.9073 20.8187 16.7877 20.8593C16.035 21.1488 15.3034 21.4906 14.5985 21.8824C14.0605 22.1601 13.4648 22.3073 12.8594 22.312C12.1566 22.3547 11.4829 22.6078 10.9259 23.0384C10.1979 23.4625 9.40172 23.7567 8.57292 23.9079C8.08526 23.971 7.59246 23.8386 7.20207 23.5397C6.94554 23.3756 6.72885 23.1565 6.56779 22.8981C6.40674 22.6397 6.30539 22.3486 6.27112 22.046C6.26562 21.9711 6.26562 21.8959 6.27112 21.821C6.22033 21.5162 6.23434 21.2041 6.31223 20.905C6.39012 20.606 6.53015 20.3267 6.72319 20.0854C6.91623 19.8441 7.15794 19.6462 7.43259 19.5046C7.70723 19.363 8.00864 19.2808 8.31716 19.2634C9.08442 19.3555 9.98468 20.7059 9.98468 20.7059C10.6112 20.6331 11.2328 20.5238 11.8466 20.3785C12.6138 20.2046 13.1151 20.1125 13.5652 20.0512L14.2916 19.9591C15.0179 19.8772 16.3376 19.8056 16.3376 19.8056C16.3469 19.707 16.3469 19.6076 16.3376 19.509C16.4134 19.1872 16.5721 18.891 16.798 18.6496C17.0742 18.3734 16.9821 18.3632 17.1049 18.4859C17.1324 18.5453 17.1466 18.6098 17.1466 18.6752C17.1466 18.7406 17.1324 18.8052 17.1049 18.8645L18.3223 18.2404C18.5295 18.262 18.7347 18.2996 18.9361 18.353C19.0895 18.4143 18.9361 18.9258 18.9361 18.9258C19.069 18.9329 19.2022 18.9329 19.3351 18.9258C19.4169 18.8542 19.3351 19.2634 19.3351 19.2634Z" fill="#C78100"/>
<path d="M19.3352 19.2634L18.3941 19.642C18.2918 19.642 17.4733 20.4092 17.4733 20.4092L17.3199 20.532C17.4222 19.9284 16.2969 19.8466 16.2969 19.8466C16.3061 19.7479 16.3061 19.6486 16.2969 19.5499C16.3727 19.2281 16.5314 18.9319 16.7572 18.6905C17.0334 18.4143 16.9414 18.4041 17.0641 18.5269C17.0916 18.5862 17.1059 18.6508 17.1059 18.7161C17.1059 18.7815 17.0916 18.8461 17.0641 18.9054L18.3224 18.2404C18.5297 18.262 18.7349 18.2996 18.9363 18.353C19.0897 18.4143 18.9363 18.9258 18.9363 18.9258C19.0692 18.9329 19.2023 18.9329 19.3352 18.9258C19.4171 18.8542 19.3352 19.2634 19.3352 19.2634Z" fill="#FCBA94"/>
<path d="M3.10991 22.2302C3.10991 22.8235 2.96668 23.0793 2.68024 23.1611C2.24339 23.4184 1.7535 23.5724 1.24802 23.6113C1.0189 23.3894 0.834791 23.1254 0.705822 22.8338C0.456183 22.3856 0.263714 21.9079 0.132926 21.4118C0.132926 21.0742 -0.102364 20.9923 0.0408585 20.2353C0.0408585 20.1023 0.0408582 19.9693 0.112469 19.8466C0.112469 19.8466 0.225001 20.3888 1.13549 20.5013C2.04597 20.6138 2.44495 20.7161 2.62909 21.0742C2.81324 21.4322 3.09968 21.6266 3.10991 22.2302Z" fill="#FCD1B9"/>
<path d="M17.6267 15.3555C17.7541 15.0017 17.9115 14.6595 18.0972 14.3325C18.2712 14.087 18.4962 13.8721 18.6701 13.6368C18.844 13.4015 18.8338 13.3606 18.7622 13.2378C18.728 13.1783 18.6785 13.1289 18.619 13.0946C18.438 12.9932 18.2367 12.9333 18.0297 12.9192C17.8227 12.905 17.6152 12.937 17.4221 13.0128C17.1113 13.1676 16.8252 13.3675 16.5729 13.6061C16.0305 14.0585 15.4192 14.4212 14.7622 14.6803C14.8934 14.7424 15.0064 14.837 15.0906 14.9552C15.1748 15.0734 15.2273 15.2112 15.243 15.3555C15.2518 15.5465 15.224 15.7375 15.1612 15.9182C15.0691 16.2558 14.977 16.5831 14.8952 16.9412C14.8545 17.078 14.8545 17.2238 14.8952 17.3606C14.9372 17.4534 15.0071 17.5308 15.0951 17.5821C15.183 17.6334 15.2848 17.6561 15.3862 17.6471C16.307 17.5345 17.2891 16.1228 17.6267 15.3555Z" fill="#575757"/>
<path d="M18.1891 12.5115C18.4417 12.6618 18.6812 12.8329 18.9053 13.023C19.1343 13.1322 19.3906 13.1714 19.6418 13.1356C19.7032 13.1356 19.9487 12.5729 20.0306 12.4808C20.289 12.233 20.5862 12.0291 20.9104 11.8772C21.5087 11.6348 22.0593 11.2885 22.537 10.8542C22.6802 10.7008 22.7927 10.5166 22.9359 10.3632C23.1903 10.0845 23.4916 9.85254 23.826 9.67775C23.8976 9.6266 23.9897 9.57545 23.9897 9.48338C23.9897 9.39131 23.8874 9.34016 23.7953 9.30947C23.5683 9.2441 23.3281 9.23897 23.0985 9.29458C22.8689 9.35018 22.6578 9.46461 22.4858 9.6266C22.3017 9.79029 22.1687 10.0154 21.9743 10.1586C21.7676 10.2763 21.543 10.3593 21.3093 10.4041C19.987 10.6959 18.8244 11.4782 18.0562 12.5934L18.1891 12.5115Z" fill="#575757"/>
<path d="M15.4783 12.6548C15.5806 12.7161 15.6932 12.7877 15.7136 12.9105C15.7341 13.0333 15.6113 13.156 15.5397 13.2686C15.4681 13.3811 15.4579 13.4425 15.4067 13.5243C15.268 13.7046 15.0846 13.8457 14.8748 13.9335C14.7867 13.9829 14.6942 14.024 14.5985 14.0563H14.4349L14.2712 14.1074L13.9234 14.1791H13.3198C13.1593 14.203 12.9953 14.178 12.8492 14.1074C12.7406 14.0018 12.6476 13.8812 12.573 13.7494C12.4906 13.6602 12.3979 13.5812 12.2967 13.5141L11.8671 13.2072C11.7852 13.156 11.6932 13.0947 11.6113 13.1253C11.9401 12.9518 12.2822 12.8047 12.6343 12.6854L13.2891 12.5115L13.7392 12.3683C13.8958 12.3186 14.0568 12.2843 14.22 12.266C14.3656 12.2406 14.5144 12.2406 14.6599 12.266C14.9469 12.3633 15.2216 12.4938 15.4783 12.6548Z" fill="#575757"/>
<path d="M18.5985 7.27366L17.3811 10.2711C17.3337 10.4051 17.2755 10.5351 17.2072 10.6598C17.1113 10.8329 17.0054 11.0003 16.8901 11.1611C16.6884 11.482 16.4015 11.7406 16.0614 11.9079C15.7847 12.0013 15.488 12.019 15.2021 11.9591C15.009 11.9427 14.8245 11.8717 14.6701 11.7545C14.6653 11.7378 14.6653 11.72 14.6701 11.7033C14.6701 11.7033 14.6701 11.7033 14.6701 11.6522C14.75 11.3799 14.8562 11.1161 14.9873 10.8645L15.2942 10.1893C15.376 10.0358 15.4476 9.87213 15.5397 9.71867C15.6318 9.56522 15.7341 9.47315 15.8364 9.35039C16.6241 8.42967 17.3914 7.46803 18.1689 6.52686L18.0768 6.62916L18.7622 5.60614C18.8065 5.53315 18.8658 5.47039 18.9361 5.422C18.9361 5.422 18.9975 5.47315 19.0077 5.50384C19.028 5.64291 19.028 5.7842 19.0077 5.92328C19.0179 6.04924 19.0179 6.17583 19.0077 6.30179C18.9866 6.41093 18.9449 6.51507 18.885 6.6087C18.7827 6.82353 18.6906 7.0486 18.5985 7.27366Z" fill="#575757"/>
<path d="M1.07413 18.0051C0.903881 18.129 0.763971 18.2899 0.664934 18.4757C0.611664 18.5636 0.583496 18.6645 0.583496 18.7673C0.583496 18.8701 0.611664 18.9709 0.664934 19.0588C0.792016 19.1692 0.948376 19.2402 1.11506 19.2634L2.84396 19.6522C3.02878 19.677 3.20455 19.7473 3.35547 19.8568C3.49489 20.011 3.61829 20.1789 3.72375 20.3581C3.74467 20.4008 3.78134 20.4338 3.82606 20.4501C3.8921 20.4744 3.96462 20.4744 4.03066 20.4501L4.40917 20.266C4.54392 20.2099 4.66069 20.1179 4.74677 20C4.79081 19.9071 4.81519 19.8061 4.81838 19.7033C4.87987 19.4617 4.87987 19.2084 4.81838 18.9668C4.71993 18.7018 4.60019 18.4452 4.46033 18.1995C4.28549 17.882 4.03625 17.6117 3.73399 17.4118C3.30599 17.1676 2.80028 17.098 2.32222 17.2174C1.85435 17.3871 1.42862 17.6558 1.07413 18.0051Z" fill="#575757"/>
<path d="M7.71367 18.7928C7.52394 18.7621 7.33049 18.7621 7.14077 18.7928C6.94946 18.8186 6.77266 18.9088 6.63949 19.0486C6.49651 19.2674 6.42174 19.5238 6.42466 19.7852C6.42466 20.0716 6.42466 20.3581 6.42466 20.6445C6.40923 20.7462 6.40923 20.8497 6.42466 20.9514C6.45827 21.0438 6.50664 21.1302 6.56788 21.2072C6.87352 21.667 7.21563 22.1014 7.5909 22.5064C7.68191 22.6339 7.79945 22.7401 7.93543 22.8178C8.07141 22.8955 8.22261 22.9428 8.37863 22.9565C8.47676 22.9507 8.57268 22.9251 8.66061 22.8811C8.74853 22.8371 8.82662 22.7758 8.89014 22.7008C9.06532 22.4808 9.22921 22.252 9.38118 22.0153C9.56597 21.7393 9.66883 21.4165 9.67786 21.0844C9.70326 20.8909 9.70326 20.6948 9.67786 20.5013C9.6319 20.1588 9.49729 19.8342 9.28736 19.5596C9.07743 19.2851 8.79945 19.0702 8.48093 18.9361C8.23872 18.8328 7.97682 18.7839 7.71367 18.7928Z" fill="#FFC036"/>
<path d="M10.1381 21.0946C9.90637 21.2397 9.66736 21.3729 9.42204 21.4936C9.05572 21.6737 8.71227 21.8969 8.39902 22.1586C8.24414 22.2726 8.11224 22.4149 8.01028 22.578C7.95424 22.6551 7.92545 22.7487 7.92843 22.844C7.95176 22.9339 7.99392 23.0177 8.05212 23.09C8.11032 23.1623 8.18324 23.2215 8.26603 23.2634C8.34329 23.3217 8.42973 23.3666 8.52179 23.3964C8.62307 23.4168 8.7274 23.4168 8.82869 23.3964C9.25289 23.4016 9.67381 23.3216 10.0665 23.1611C10.2315 23.0757 10.3889 22.9765 10.5371 22.8645C10.8506 22.6541 11.1512 22.4252 11.4374 22.179C11.5373 22.0739 11.6551 21.9873 11.7852 21.9233C11.9238 21.8755 12.0685 21.8479 12.2149 21.8414C12.5204 21.7942 12.817 21.7011 13.0947 21.5652C13.2933 21.503 13.4681 21.3816 13.596 21.2174C13.6554 21.1261 13.687 21.0195 13.687 20.9105C13.687 20.8015 13.6554 20.6949 13.596 20.6036C13.5605 20.5333 13.504 20.4758 13.4343 20.4391C13.3646 20.4025 13.2852 20.3884 13.2072 20.399L12.5115 20.5013C11.6847 20.509 10.8714 20.7123 10.1381 21.0946Z" fill="#FFC036"/>
<path d="M16.6954 20.4399L14.4857 21.5959C14.352 21.6766 14.2015 21.7256 14.0458 21.7391C14.0458 21.7391 13.9231 21.7391 13.9128 21.6675C13.9039 21.652 13.8991 21.6343 13.8991 21.6164C13.8991 21.5984 13.9039 21.5808 13.9128 21.5652C14.0037 21.4606 14.0891 21.3513 14.1686 21.2379C14.2328 21.1621 14.268 21.066 14.268 20.9668C14.268 20.8675 14.2328 20.7714 14.1686 20.6957C13.9947 20.5422 13.7798 20.3888 13.5957 20.2353C14.2796 20.3149 14.9722 20.2733 15.6417 20.1125L16.1532 20C16.4026 19.9552 16.6592 19.9727 16.9 20.0512C17.0023 20.1125 17.0023 20.133 16.9 20.2353C16.7977 20.3376 16.8182 20.3683 16.6954 20.4399Z" fill="#FFC036"/>
<path d="M17.1661 20.6956C17.0692 20.7767 16.9582 20.8391 16.8387 20.8798C16.0859 21.1692 15.3544 21.5111 14.6494 21.9028C14.1111 22.1795 13.5156 22.3266 12.9103 22.3325C12.2078 22.3764 11.5344 22.6293 10.9768 23.0588C10.2488 23.4829 9.45267 23.7772 8.62386 23.9284C8.13778 23.991 7.64636 23.8627 7.25301 23.5703C6.22999 23.6522 5.72872 22.6905 5.48319 22.5473C5.23767 22.4041 5.48319 22.4348 4.20442 22.5473C3.96947 22.5652 3.73349 22.5652 3.49854 22.5473C3.54626 22.4293 3.62116 22.3243 3.71716 22.2407C3.81316 22.1572 3.92753 22.0975 4.05097 22.0665C4.26211 22.082 4.4741 22.082 4.68524 22.0665C4.79683 22.0365 4.89498 21.9696 4.96371 21.8768C5.03245 21.7839 5.06771 21.6705 5.06375 21.555C5.06375 21.3606 4.95122 21.1662 4.97168 20.9719C5.31951 21.2174 5.42181 21.7494 5.82079 21.8926C5.98447 21.954 6.15838 21.8926 6.31183 21.9846C6.68012 22.1074 6.81311 22.5473 7.03818 22.8644C7.20952 23.0919 7.43933 23.2687 7.70314 23.376C7.947 23.4719 8.20878 23.5138 8.4704 23.4987C9.14761 23.5004 9.81614 23.3464 10.4244 23.0486L10.9052 22.7519C11.0382 22.6701 11.1916 22.6189 11.3349 22.5268C11.6401 22.3642 11.9675 22.247 12.3067 22.179H12.5318C12.7361 22.1637 12.9413 22.1637 13.1456 22.179C13.3663 22.1692 13.5855 22.1384 13.8003 22.0869C13.9598 22.0569 14.1171 22.0159 14.2709 21.9642C14.412 21.9098 14.5488 21.8448 14.6801 21.7698C15.1022 21.5026 15.5433 21.2667 15.9998 21.0639C16.276 20.9412 16.5829 20.8696 16.8591 20.7366C16.9256 20.6899 17.0033 20.6617 17.0842 20.6547L17.1661 20.6956Z" fill="#885C00"/>
</g>
<defs>
<linearGradient id="paint0_linear_1232_6430" x1="10.7323" y1="13.5889" x2="9.4629" y2="11.2123" gradientUnits="userSpaceOnUse">
<stop stop-color="#141414"/>
<stop offset="0.01" stop-color="#151515"/>
<stop offset="0.16" stop-color="#2A2A2A"/>
<stop offset="0.26" stop-color="#323232"/>
<stop offset="0.27" stop-color="#3B3B3B"/>
<stop offset="0.28" stop-color="#424242"/>
<stop offset="0.33" stop-color="#444444"/>
<stop offset="0.61" stop-color="#444444"/>
<stop offset="0.65" stop-color="#444444"/>
<stop offset="0.95" stop-color="#444444"/>
<stop offset="1" stop-color="#444444"/>
</linearGradient>
<linearGradient id="paint1_linear_1232_6430" x1="6.87865" y1="15.4733" x2="5.73911" y2="13.3397" gradientUnits="userSpaceOnUse">
<stop stop-color="#CF4F00"/>
<stop offset="0.05" stop-color="#D75900"/>
<stop offset="0.17" stop-color="#E76E00"/>
<stop offset="0.26" stop-color="#F38900"/>
<stop offset="0.27" stop-color="#F89A00"/>
<stop offset="0.28" stop-color="#FCA500"/>
<stop offset="0.29" stop-color="#FEAC00"/>
<stop offset="0.33" stop-color="#FFAE00"/>
<stop offset="0.49" stop-color="#FFB002"/>
<stop offset="0.55" stop-color="#FFB609"/>
<stop offset="0.59" stop-color="#FFC014"/>
<stop offset="0.63" stop-color="#FFCE25"/>
<stop offset="0.65" stop-color="#FFDD36"/>
<stop offset="0.95" stop-color="#FFCE25"/>
<stop offset="0.96" stop-color="#FFB609"/>
<stop offset="0.97" stop-color="#FFB002"/>
<stop offset="1" stop-color="#FFAE00"/>
</linearGradient>
<clipPath id="clip0_1232_6430">
<rect width="30.3223" height="24" fill="white"/>
</clipPath>
</defs>
</svg>
