<svg width="26" height="26" viewBox="0 0 26 26" fill="none" xmlns="http://www.w3.org/2000/svg">
<g clip-path="url(#clip0_4_165760)">
<path d="M25.4565 13.9949C25.2973 15.1376 25.0591 16.2532 24.6618 17.3391C24.4804 17.8327 24.1731 18.1375 23.6487 18.1955C22.68 18.3004 22.0543 18.7928 21.4336 19.585C20.7709 20.4303 20.3378 21.1942 20.497 22.2715C20.5661 22.738 20.2872 23.0884 19.8972 23.3377C18.8557 24.0041 17.7513 24.5371 16.5814 24.9407C16.0841 25.1122 15.6584 25.0591 15.2808 24.6889C14.5638 23.9868 13.8049 23.4154 12.7498 23.9448C11.6009 23.4302 10.8408 24.0423 10.1053 24.7432C9.77831 25.0554 9.40316 25.1036 8.96879 24.9617C7.75205 24.5618 6.61675 24.0004 5.54069 23.3105C5.09891 23.0267 4.90764 22.6022 4.97921 22.0987C5.11125 21.1609 4.73981 20.497 4.16599 19.7405C3.48481 18.8422 2.7913 18.2474 1.66217 18.1548C1.24754 18.1203 1.00074 17.8093 0.848953 17.407C0.409642 16.2483 0.144329 15.055 0.0122886 13.8234C-0.0506463 13.2434 0.136924 12.83 0.604617 12.5141C0.757635 12.4105 0.890909 12.2772 1.0501 12.1846C1.54617 11.8946 1.84357 11.4961 1.82012 10.8963C1.81642 10.7766 1.83863 10.6458 1.88429 10.5348C2.33348 9.44141 2.27795 8.41841 1.58073 7.42132C1.34379 7.0832 1.50668 6.67845 1.71276 6.31935C2.35322 5.20379 3.16767 4.23386 4.10306 3.36017C4.42884 3.05537 4.79904 2.93073 5.23218 3.09609C6.18978 3.4626 7.01287 3.28366 7.95319 2.8172C8.89968 2.34704 9.57963 1.81518 9.89924 0.816862C10.0387 0.383722 10.3805 0.180109 10.8272 0.12211C12.0983 -0.0420143 13.3656 -0.0395463 14.6366 0.119642C15.1142 0.180109 15.4511 0.41087 15.6016 0.858819C15.9348 1.85097 16.5333 2.55189 17.5933 2.78759C17.6513 2.80116 17.7081 2.83695 17.7562 2.8752C18.446 3.42558 19.1914 3.47494 19.9935 3.14669C20.6488 2.87891 21.1658 3.09362 21.6409 3.59834C22.4307 4.43994 23.1773 5.30498 23.761 6.30701C24.0238 6.75742 24.0978 7.1992 23.8017 7.63358C23.2402 8.45543 23.0822 9.2995 23.5401 10.2164C23.5759 10.2867 23.5907 10.3768 23.5882 10.4558C23.561 11.3652 23.9967 11.9847 24.7642 12.4314C25.3565 12.7757 25.554 13.2965 25.4565 13.9949Z" fill="#F3F3F5"/>
<path d="M25.4565 13.9949C25.2973 15.1376 25.0591 16.2532 24.6618 17.3391C24.4804 17.8327 24.1731 18.1375 23.6487 18.1955C22.68 18.3004 22.0543 18.7928 21.4336 19.585C20.7709 20.4303 20.3378 21.1942 20.497 22.2715C20.5661 22.738 20.2872 23.0884 19.8972 23.3377C18.8557 24.0041 17.7513 24.5371 16.5814 24.9407C16.0841 25.1122 15.6584 25.0591 15.2808 24.6889C14.5638 23.9868 13.8049 23.4154 12.7498 23.9448C11.6009 23.4302 10.8408 24.0423 10.1053 24.7432C9.77831 25.0554 9.40316 25.1036 8.96879 24.9617C7.75205 24.5618 6.61675 24.0004 5.54069 23.3105C5.09891 23.0267 4.90764 22.6022 4.97921 22.0987C5.11125 21.1609 4.73981 20.497 4.16599 19.7405C3.48481 18.8422 2.7913 18.2474 1.66217 18.1548C1.24754 18.1203 1.00074 17.8093 0.848953 17.407C0.409642 16.2483 0.144329 15.055 0.0122886 13.8234C-0.0506463 13.2434 0.136924 12.83 0.604617 12.5141C0.757635 12.4105 0.890909 12.2772 1.0501 12.1846C1.54617 11.8946 1.84357 11.4961 1.82012 10.8963C1.81642 10.7766 1.83863 10.6458 1.88429 10.5348C2.33348 9.44141 2.27795 8.41841 1.58073 7.42132C1.34379 7.0832 1.50668 6.67845 1.71276 6.31935C2.35322 5.20379 3.16767 4.23386 4.10306 3.36017C4.42884 3.05537 4.79904 2.93073 5.23218 3.09609C6.18978 3.4626 7.01287 3.28366 7.95319 2.8172C8.89968 2.34704 9.57963 1.81518 9.89924 0.816862C10.0387 0.383722 10.3805 0.180109 10.8272 0.12211C12.0983 -0.0420143 13.3656 -0.0395463 14.6366 0.119642C15.1142 0.180109 15.4511 0.41087 15.6016 0.858819C15.9348 1.85097 16.5333 2.55189 17.5933 2.78759C17.6513 2.80116 17.7081 2.83695 17.7562 2.8752C18.446 3.42558 19.1914 3.47494 19.9935 3.14669C20.6488 2.87891 21.1658 3.09362 21.6409 3.59834C22.4307 4.43994 23.1773 5.30498 23.761 6.30701C24.0238 6.75742 24.0978 7.1992 23.8017 7.63358C23.2402 8.45543 23.0822 9.2995 23.5401 10.2164C23.5759 10.2867 23.5907 10.3768 23.5882 10.4558C23.561 11.3652 23.9967 11.9847 24.7642 12.4314C25.3565 12.7757 25.554 13.2965 25.4565 13.9949Z" fill="#C0C0C0"/>
<path d="M7.17443 12.7758C7.15469 9.72782 9.65358 7.20919 12.7152 7.18945C15.7644 7.1697 18.2831 9.66736 18.3028 12.729C18.3226 15.7782 15.8249 18.2968 12.7621 18.3154C9.71157 18.3351 7.19418 15.8387 7.17443 12.7758Z" fill="#F3F3F5"/>
<path d="M8.99864 12.7819C8.98383 10.6742 10.614 9.02188 12.7204 9.01201C14.8207 9.00213 16.4768 10.6471 16.4793 12.7486C16.4817 14.8242 14.8639 16.4642 12.7858 16.4914C10.688 16.5198 9.01468 14.881 8.99987 12.7832L8.99864 12.7819Z" fill="#C0C0C0"/>
</g>
<defs>
<clipPath id="clip0_4_165760">
<rect width="25.48" height="25.0382" fill="white"/>
</clipPath>
</defs>
</svg>
