<svg width="26" height="26" viewBox="0 0 26 26" fill="none" xmlns="http://www.w3.org/2000/svg">
<g clip-path="url(#clip0_181_3)">
<path d="M25.9567 14.4949C25.7975 15.6376 25.5593 16.7532 25.162 17.8391C24.9806 18.3327 24.6733 18.6375 24.1488 18.6955C23.1801 18.8004 22.5545 19.2928 21.9338 20.085C21.2711 20.9303 20.838 21.6942 20.9972 22.7715C21.0663 23.238 20.7874 23.5884 20.3974 23.8377C19.3559 24.5041 18.2515 25.0371 17.0816 25.4407C16.5843 25.6122 16.1586 25.5591 15.781 25.1889C15.064 24.4868 14.3051 23.9154 13.25 24.4448C12.1011 23.9302 11.341 24.5423 10.6055 25.2432C10.2785 25.5554 9.90335 25.6036 9.46897 25.4617C8.25223 25.0618 7.11693 24.5004 6.04087 23.8105C5.59909 23.5267 5.40782 23.1022 5.47939 22.5987C5.61143 21.6609 5.23999 20.997 4.66617 20.2405C3.985 19.3422 3.29148 18.7474 2.16235 18.6548C1.74772 18.6203 1.50092 18.3093 1.34914 17.907C0.909825 16.7483 0.644512 15.555 0.512472 14.3234C0.449537 13.7434 0.637108 13.33 1.1048 13.0141C1.25782 12.9105 1.39109 12.7772 1.55028 12.6846C2.04636 12.3946 2.34375 11.9961 2.32031 11.3963C2.31661 11.2766 2.33882 11.1458 2.38448 11.0348C2.83366 9.94141 2.77813 8.91841 2.08091 7.92132C1.84398 7.5832 2.00687 7.17845 2.21295 6.81935C2.8534 5.70379 3.66785 4.73386 4.60324 3.86017C4.92902 3.55537 5.29923 3.43073 5.73237 3.59609C6.68996 3.9626 7.51305 3.78366 8.45338 3.3172C9.39987 2.84704 10.0798 2.31518 10.3994 1.31686C10.5389 0.883722 10.8807 0.680109 11.3274 0.62211C12.5984 0.457986 13.8658 0.460454 15.1368 0.619642C15.6144 0.680109 15.9513 0.91087 16.1018 1.35882C16.435 2.35097 17.0335 3.05189 18.0935 3.28759C18.1515 3.30116 18.2083 3.33695 18.2564 3.3752C18.9462 3.92558 19.6916 3.97494 20.4937 3.64669C21.1489 3.37891 21.666 3.59362 22.1411 4.09834C22.9309 4.93994 23.6775 5.80498 24.2611 6.80701C24.524 7.25742 24.598 7.6992 24.3019 8.13358C23.7404 8.95543 23.5824 9.7995 24.0403 10.7164C24.076 10.7867 24.0908 10.8768 24.0884 10.9558C24.0612 11.8652 24.4968 12.4847 25.2644 12.9314C25.8567 13.2757 26.0542 13.7965 25.9567 14.4949Z" fill="#F3F3F5"/>
<path d="M25.9567 14.4949C25.7975 15.6376 25.5593 16.7532 25.162 17.8391C24.9806 18.3327 24.6733 18.6375 24.1488 18.6955C23.1801 18.8004 22.5545 19.2928 21.9338 20.085C21.2711 20.9303 20.838 21.6942 20.9972 22.7715C21.0663 23.238 20.7874 23.5884 20.3974 23.8377C19.3559 24.5041 18.2515 25.0371 17.0816 25.4407C16.5843 25.6122 16.1586 25.5591 15.781 25.1889C15.064 24.4868 14.3051 23.9154 13.25 24.4448C12.1011 23.9302 11.341 24.5423 10.6055 25.2432C10.2785 25.5554 9.90335 25.6036 9.46897 25.4617C8.25223 25.0618 7.11693 24.5004 6.04087 23.8105C5.59909 23.5267 5.40782 23.1022 5.47939 22.5987C5.61143 21.6609 5.23999 20.997 4.66617 20.2405C3.985 19.3422 3.29148 18.7474 2.16235 18.6548C1.74772 18.6203 1.50092 18.3093 1.34914 17.907C0.909825 16.7483 0.644512 15.555 0.512472 14.3234C0.449537 13.7434 0.637108 13.33 1.1048 13.0141C1.25782 12.9105 1.39109 12.7772 1.55028 12.6846C2.04636 12.3946 2.34375 11.9961 2.32031 11.3963C2.31661 11.2766 2.33882 11.1458 2.38448 11.0348C2.83366 9.94141 2.77813 8.91841 2.08091 7.92132C1.84398 7.5832 2.00687 7.17845 2.21295 6.81935C2.8534 5.70379 3.66785 4.73386 4.60324 3.86017C4.92902 3.55537 5.29923 3.43073 5.73237 3.59609C6.68996 3.9626 7.51305 3.78366 8.45338 3.3172C9.39987 2.84704 10.0798 2.31518 10.3994 1.31686C10.5389 0.883722 10.8807 0.680109 11.3274 0.62211C12.5984 0.457986 13.8658 0.460454 15.1368 0.619642C15.6144 0.680109 15.9513 0.91087 16.1018 1.35882C16.435 2.35097 17.0335 3.05189 18.0935 3.28759C18.1515 3.30116 18.2083 3.33695 18.2564 3.3752C18.9462 3.92558 19.6916 3.97494 20.4937 3.64669C21.1489 3.37891 21.666 3.59362 22.1411 4.09834C22.9309 4.93994 23.6775 5.80498 24.2611 6.80701C24.524 7.25742 24.598 7.6992 24.3019 8.13358C23.7404 8.95543 23.5824 9.7995 24.0403 10.7164C24.076 10.7867 24.0908 10.8768 24.0884 10.9558C24.0612 11.8652 24.4968 12.4847 25.2644 12.9314C25.8567 13.2757 26.0542 13.7965 25.9567 14.4949Z" fill="black"/>
<path d="M7.67459 13.2758C7.65484 10.2278 10.1537 7.70913 13.2153 7.68939C16.2646 7.66964 18.7832 10.1673 18.803 13.2289C18.8227 16.2781 16.3251 18.7968 13.2622 18.8153C10.2117 18.835 7.69433 16.3386 7.67459 13.2758Z" fill="white"/>
<path d="M9.49845 13.282C9.48364 11.1743 11.1138 9.52191 13.2203 9.51204C15.3205 9.50217 16.9766 11.1471 16.9791 13.2486C16.9815 15.3243 15.3637 16.9643 13.2857 16.9914C11.1878 17.0198 9.51449 15.381 9.49969 13.2832L9.49845 13.282Z" fill="black"/>
</g>
<defs>
<clipPath id="clip0_181_3">
<rect width="25.48" height="25.0382" fill="white" transform="translate(0.5 0.5)"/>
</clipPath>
</defs>
</svg>
