<svg width="23" height="22" viewBox="0 0 23 22" fill="none" xmlns="http://www.w3.org/2000/svg">
<g clip-path="url(#clip0_1232_6340)">
<g style="mix-blend-mode:multiply" opacity="0.2">
<path d="M21.917 12.6765C21.9104 12.7852 21.8741 12.8901 21.8118 12.9795C21.7496 13.0689 21.6639 13.1395 21.5642 13.1834L6.64061 21.7984C6.37749 21.9322 6.08647 22.002 5.79127 22.002C5.49607 22.002 5.20504 21.9322 4.94192 21.7984L0.352783 19.1481C0.255187 19.1054 0.170913 19.0371 0.108832 18.9505C0.0467517 18.8639 0.00915788 18.7622 0 18.656V18.1668C0.00487899 18.2752 0.0443643 18.3791 0.112655 18.4633C0.178458 18.545 0.260144 18.6126 0.352783 18.6619L4.94192 21.3122C5.20504 21.4461 5.49607 21.5158 5.79127 21.5158C6.08647 21.5158 6.37749 21.4461 6.64061 21.3122L21.5642 12.6765C21.6577 12.6272 21.7404 12.5597 21.8073 12.4779C21.8735 12.3927 21.9118 12.2891 21.917 12.1814V12.6765Z" fill="#A0A2C1"/>
</g>
<path d="M22.2103 3.34401C22.2306 3.68027 22.132 4.01295 21.9317 4.28378C21.8644 4.37113 21.7808 4.44462 21.6856 4.50019L21.0067 4.89151C21.3269 4.70475 21.5285 4.2986 21.5285 3.7383C21.5285 2.43686 20.5028 0.904179 19.4533 0.503963C19.3075 0.438256 19.1493 0.404277 18.9893 0.404277C18.8294 0.404277 18.6712 0.438256 18.5254 0.503963L19.1657 0.136358C19.3528 0.0366828 19.5664 -0.00168829 19.7764 0.026669C20.897 0.145251 22.2103 1.85877 22.2103 3.34401Z" fill="#59D3FF"/>
<path d="M22.2106 3.34395C22.1757 2.74593 22.0068 2.16341 21.7163 1.63949C21.4259 1.11556 21.0214 0.663636 20.5327 0.317139C21.0208 0.617896 21.4284 1.03269 21.7207 1.52585C22.013 2.01901 22.1811 2.57579 22.2106 3.14829V3.34395Z" fill="#49C4FF"/>
<path d="M19.4507 0.503997C20.5031 0.904213 21.5259 2.43689 21.5259 3.73833C21.5259 4.94194 20.6365 5.34512 19.6553 4.71664C20.5179 5.16429 21.1879 4.71664 21.1879 3.73833C21.1879 2.59401 20.2986 1.23328 19.3588 0.833063C18.5613 0.498067 17.9981 0.933858 17.9595 1.77579C17.924 0.758949 18.5139 0.14825 19.4507 0.503997Z" fill="#49C4FF"/>
<path d="M17.9536 1.77572C17.9922 0.933781 18.5465 0.497991 19.3529 0.832986C20.3015 1.2332 21.1791 2.59393 21.182 3.73826C21.182 4.75213 20.4676 5.19978 19.5663 4.66913C19.0839 4.35289 18.6852 3.92452 18.4043 3.42065C18.1235 2.91677 17.9688 2.35238 17.9536 1.77572Z" fill="#4AB3FF"/>
<path d="M20.5088 0.302368L20.577 0.343872L20.5325 0.317191L20.5088 0.302368Z" fill="#B6BD00"/>
<path d="M19.7324 4.76402L19.5723 4.67212L19.6523 4.71659L19.7324 4.76402Z" fill="#B6BD00"/>
<path d="M17.9533 1.67789C17.9498 1.54482 17.9597 1.41172 17.983 1.28064V1.23025V1.18281L17.9978 1.13242V1.1087V1.08498V1.03755L18.0156 0.990117V0.969365V0.945648C18.0213 0.930277 18.0282 0.915404 18.0363 0.90118C18.0655 0.840146 18.1013 0.782488 18.1431 0.729236C18.1851 0.67581 18.2328 0.627103 18.2854 0.583972C18.3902 0.496954 18.5141 0.436 18.647 0.406098C18.7802 0.38091 18.917 0.38091 19.0502 0.406098C19.1826 0.42868 19.3119 0.466481 19.4356 0.518751C19.6804 0.627975 19.9065 0.775036 20.1056 0.954542C20.2103 1.04096 20.3093 1.13404 20.4021 1.23321C20.491 1.33104 20.577 1.4348 20.657 1.52967C20.817 1.74151 20.9569 1.9678 21.075 2.20559C21.1343 2.32713 21.1877 2.44868 21.2351 2.57319C21.2832 2.69613 21.3237 2.82186 21.3566 2.94969C21.3566 2.9823 21.3744 3.01491 21.3833 3.04752C21.3922 3.08013 21.3833 3.11274 21.4041 3.14535L21.4219 3.24318L21.4397 3.34101C21.4575 3.47268 21.4664 3.6054 21.4663 3.73826C21.463 3.60534 21.4521 3.47271 21.4337 3.34101L21.4159 3.24318L21.3952 3.14535C21.3952 3.11274 21.3804 3.0831 21.3744 3.05049C21.3685 3.01788 21.3596 2.98527 21.3478 2.95266C21.3138 2.82575 21.2722 2.70101 21.2232 2.57912C21.1728 2.45461 21.1195 2.33306 21.0602 2.21744C20.94 1.98115 20.7991 1.75595 20.6392 1.54449C20.5592 1.44073 20.4732 1.33993 20.3843 1.24803C20.2907 1.15064 20.1917 1.0586 20.0878 0.972329C19.8903 0.797484 19.6661 0.655365 19.4237 0.551362C19.303 0.500636 19.1766 0.464797 19.0472 0.444637C18.9199 0.420915 18.7892 0.420915 18.6619 0.444637C18.5344 0.471872 18.4148 0.527617 18.312 0.607689C18.2629 0.650398 18.2173 0.696993 18.1757 0.747023C18.1367 0.799072 18.1011 0.853531 18.0689 0.910073C18.0608 0.924297 18.0539 0.939171 18.0482 0.954542V0.975294V0.99901L18.0274 1.04348L18.0097 1.09091V1.11463V1.13834L17.9948 1.18578V1.23321C17.9948 1.24803 17.9948 1.26582 17.9948 1.28064C17.9688 1.4115 17.9549 1.54448 17.9533 1.67789Z" fill="white"/>
<path d="M19.1627 0.127453C19.2539 0.0728196 19.3544 0.0356235 19.4592 0.0177643C19.5645 0.00449524 19.671 0.00449524 19.7764 0.0177643C19.8292 0.0235258 19.8817 0.0324354 19.9335 0.0444454H19.972H19.9928H20.0106L20.0877 0.0681618C20.1898 0.102431 20.289 0.145068 20.3841 0.195638C20.4315 0.219354 20.476 0.246036 20.5234 0.275681L20.5887 0.317185L20.6539 0.361653C20.7398 0.426873 20.8229 0.492094 20.8999 0.563243C21.0562 0.704634 21.201 0.858293 21.3328 1.02275C21.4628 1.18861 21.5816 1.36291 21.6885 1.54451C21.7961 1.72564 21.8893 1.91497 21.9672 2.11074C22.0454 2.30274 22.1068 2.50111 22.151 2.70366C22.1972 2.90892 22.2201 3.11877 22.2192 3.32918C22.2156 3.11952 22.1897 2.91083 22.1421 2.70662C22.0957 2.50363 22.0312 2.30521 21.9494 2.11371C21.8693 1.92034 21.7751 1.73308 21.6678 1.55341C21.5622 1.37306 21.4423 1.20154 21.309 1.04054C21.1771 0.878012 21.0324 0.726333 20.8762 0.58696C20.7159 0.447908 20.5409 0.326642 20.3545 0.225284C20.2595 0.174278 20.1603 0.131625 20.058 0.0978075C19.962 0.0630956 19.8626 0.0382626 19.7615 0.0236935C19.6582 0.0103523 19.5536 0.0103523 19.4503 0.0236935C19.3471 0.0394884 19.247 0.0715058 19.1538 0.118559L19.1627 0.127453Z" fill="white"/>
<path d="M20.752 3.48632C20.7665 3.69851 20.7044 3.90887 20.5771 4.07923C20.5354 4.13458 20.4829 4.18096 20.4229 4.2156L19.83 4.55949C19.9262 4.50041 20.0058 4.41776 20.0612 4.31936C20.1388 4.17166 20.1746 4.00564 20.165 3.8391C20.1324 2.6266 19.0325 1.589 18.4011 1.76391C18.3509 1.77617 18.3029 1.79617 18.2588 1.8232L18.8517 1.48524C18.975 1.43427 19.1087 1.41334 19.2416 1.42416C19.3746 1.43499 19.5031 1.47726 19.6166 1.5475C19.9448 1.75873 20.2187 2.04436 20.416 2.38121C20.6132 2.71807 20.7284 3.09667 20.752 3.48632Z" fill="#32A6FA"/>
<path d="M21.9081 11.5054C21.9199 11.5736 21.9171 11.6435 21.8997 11.7104C21.8823 11.7774 21.8508 11.8399 21.8073 11.8937C21.7406 11.9765 21.6579 12.045 21.5642 12.0953L6.64065 20.7103C6.37753 20.8442 6.08651 20.9139 5.79131 20.9139C5.49611 20.9139 5.20508 20.8442 4.94196 20.7103L0.352825 18.063C0.26005 18.0126 0.178382 17.944 0.112697 17.8614C0.068371 17.808 0.0361389 17.7456 0.0182267 17.6786C0.000314542 17.6115 -0.00285413 17.5414 0.00893535 17.473C0.0694496 17.3035 0.192474 17.1635 0.352825 17.0817L15.2853 8.46374C15.549 8.32989 15.8405 8.26013 16.1361 8.26013C16.4318 8.26013 16.7233 8.32989 16.987 8.46374L21.5731 11.1141C21.7309 11.1967 21.8508 11.3368 21.9081 11.5054Z" fill="#FFFBF0"/>
<path d="M21.917 12.0835C21.9104 12.1923 21.8741 12.2971 21.8118 12.3865C21.7496 12.476 21.6639 12.5465 21.5642 12.5904L6.64061 21.2025C6.37749 21.3363 6.08647 21.4061 5.79127 21.4061C5.49607 21.4061 5.20504 21.3363 4.94192 21.2025L0.352783 18.5522C0.2556 18.5096 0.171602 18.4418 0.109552 18.3558C0.0475009 18.2698 0.00966896 18.1686 0 18.063V17.5709C0.00487899 17.6792 0.0443643 17.7831 0.112655 17.8674C0.17834 17.95 0.260008 18.0186 0.352783 18.0689L4.94192 20.7163C5.20504 20.8501 5.49607 20.9199 5.79127 20.9199C6.08647 20.9199 6.37749 20.8501 6.64061 20.7163L21.5642 12.0835C21.6579 12.0332 21.7405 11.9646 21.8073 11.8819C21.8735 11.7967 21.9118 11.6932 21.917 11.5854V12.0835Z" fill="#DED3BA"/>
<path d="M21.917 12.457C21.9099 12.5653 21.8733 12.6695 21.8111 12.7583C21.7489 12.8472 21.6635 12.9173 21.5642 12.961L6.64061 21.5701C6.37749 21.7039 6.08647 21.7737 5.79127 21.7737C5.49607 21.7737 5.20504 21.7039 4.94192 21.5701L0.352783 18.9198C0.2556 18.8773 0.171602 18.8094 0.109552 18.7234C0.0475009 18.6374 0.00966896 18.5363 0 18.4306V17.9474C0.00487899 18.0557 0.0443643 18.1596 0.112655 18.2439C0.17834 18.3265 0.260008 18.3951 0.352783 18.4454L4.94192 21.0928C5.20483 21.2273 5.49594 21.2975 5.79127 21.2975C6.0866 21.2975 6.3777 21.2273 6.64061 21.0928L21.5642 12.4778C21.6579 12.4275 21.7405 12.3589 21.8073 12.2762C21.8735 12.191 21.9118 12.0875 21.917 11.9797V12.457Z" fill="#33242C"/>
<path d="M19.4385 5.66528V11.4551L15.9048 13.4354V7.64857L19.4385 5.66528Z" fill="#EFE7D5"/>
<path d="M15.22 7.64859V13.4384L12.9521 12.1251V6.33826L15.22 7.64859Z" fill="#DED3BA"/>
<path d="M4.29862 17.2833H4.31937C4.44587 17.1962 4.5862 17.131 4.73441 17.0907C4.86263 17.0611 4.99428 17.0491 5.12573 17.0551C5.45057 17.0864 5.75942 17.211 6.0151 17.4138C6.22722 17.5101 6.42641 17.6326 6.60801 17.7784C6.78292 17.9711 6.70881 18.1994 6.45979 18.3417L5.35103 18.982L3.36182 17.8348L4.29862 17.2833Z" fill="#EFE7D5"/>
<path d="M5.35117 18.9702L3.64062 19.9574L1.64844 18.8101L3.35899 17.8229L5.35117 18.9702Z" fill="#EFE7D5"/>
<path d="M5.34811 18.9761L3.84507 18.1075L3.35889 17.8289L3.84804 18.1075L5.34811 18.9761Z" fill="#DED3BA"/>
<path d="M3.64062 19.9663L1.64844 18.8102L4.28689 17.2893H4.31061L4.34619 17.2656C4.46326 17.1882 4.59255 17.1311 4.72862 17.0966C4.92718 17.0498 5.13359 17.047 5.33334 17.0885C5.53309 17.13 5.72132 17.2147 5.8848 17.3368L6.02116 17.4198C6.13975 17.488 6.23165 17.5413 6.31762 17.5799C6.42669 17.6318 6.52677 17.7009 6.61408 17.7844C6.64888 17.8201 6.6752 17.8631 6.69111 17.9103C6.70702 17.9575 6.7121 18.0077 6.70598 18.0572C6.68937 18.1212 6.65903 18.181 6.61705 18.2321C6.57508 18.2833 6.52247 18.3248 6.46288 18.3536L3.64062 19.9663ZM1.66622 18.8102L3.64062 19.9486L6.45695 18.324C6.51604 18.2953 6.56798 18.2538 6.60901 18.2025C6.65004 18.1512 6.67911 18.0915 6.69412 18.0275C6.69947 17.9804 6.69398 17.9326 6.67805 17.8879C6.66212 17.8432 6.63618 17.8027 6.60221 17.7696C6.51604 17.6847 6.41572 17.6155 6.30576 17.565C6.23164 17.5265 6.13974 17.4761 6.0093 17.405L5.86997 17.322C5.64967 17.1594 5.38724 17.0637 5.11401 17.0462C4.98339 17.0408 4.85266 17.0538 4.72565 17.0848C4.59115 17.1169 4.46359 17.1732 4.34915 17.2508L4.31061 17.2745H4.29282L1.66622 18.8102Z" fill="#DED3BA"/>
<path d="M6.19901 18.0809C6.19901 18.0809 6.22569 18.0809 6.23755 18.0809L6.26423 18.1135C6.27905 18.1135 6.29091 18.1609 6.27905 18.1757L5.79879 18.4544C5.79879 18.4366 5.79879 18.407 5.78397 18.3892L5.75728 18.3595C5.75728 18.3595 5.73061 18.3358 5.71875 18.3417L6.19901 18.066V18.0809Z" fill="#49C4FF"/>
<path d="M5.79859 18.4692L6.27884 18.1906C6.25295 18.2336 6.21743 18.2702 6.17508 18.2973L5.69482 18.573C5.73756 18.5476 5.77324 18.512 5.79859 18.4692Z" fill="#49C4FF"/>
<path d="M6.00027 18.1935C6.00027 18.1935 6.0151 18.1935 5.71865 18.3566C5.70613 18.383 5.68785 18.4063 5.66514 18.4248C5.64244 18.4432 5.6159 18.4563 5.58745 18.4631C5.55901 18.47 5.5294 18.4703 5.5008 18.4642C5.4722 18.4581 5.44534 18.4456 5.42219 18.4277L4.31641 17.7933L4.79963 17.5146L5.90837 18.155C5.93661 18.1729 5.96769 18.186 6.00027 18.1935Z" fill="#59D3FF"/>
<path d="M5.79869 18.4691C5.78117 18.5024 5.7565 18.5314 5.72645 18.5541C5.6964 18.5767 5.66171 18.5924 5.62487 18.6001C5.58803 18.6077 5.54996 18.6071 5.51338 18.5983C5.47679 18.5895 5.44262 18.5727 5.4133 18.5492L4.31641 17.9088V17.7932L5.42812 18.4336C5.45126 18.4514 5.47813 18.4639 5.50673 18.47C5.53533 18.4762 5.56494 18.4758 5.59338 18.469C5.62182 18.4621 5.64837 18.449 5.67108 18.4306C5.69378 18.4121 5.71206 18.3888 5.72457 18.3624C5.72457 18.3476 5.76015 18.3624 5.77201 18.3624L5.79869 18.3921C5.79869 18.4217 5.79869 18.4513 5.79869 18.4691Z" fill="#32A6FA"/>
<path d="M5.14944 17.9178C5.14809 17.9311 5.14328 17.9439 5.13548 17.9548C5.12768 17.9657 5.11717 17.9744 5.10498 17.98C5.07032 17.9968 5.03231 18.0056 4.9938 18.0056C4.9553 18.0056 4.91729 17.9968 4.88263 17.98C4.87077 17.974 4.86054 17.9652 4.8528 17.9543C4.84506 17.9435 4.84004 17.931 4.83817 17.9178V16.3288C4.83519 16.3384 4.83519 16.3488 4.83817 16.3584C4.87207 16.3906 4.91537 16.4112 4.96177 16.417C5.00817 16.4229 5.05523 16.4138 5.09608 16.391C5.1091 16.3858 5.12028 16.3768 5.12819 16.3652C5.1361 16.3535 5.1404 16.3399 5.14055 16.3258C5.14055 16.3258 5.14944 16.2517 5.14944 17.9178Z" fill="#32A6FA"/>
<path d="M5.30364 16.566C5.30123 16.5927 5.29172 16.6184 5.27609 16.6403C5.26046 16.6622 5.23926 16.6795 5.2147 16.6905C5.14638 16.7256 5.07067 16.7439 4.99385 16.7439C4.91703 16.7439 4.84131 16.7256 4.77299 16.6905C4.75018 16.6783 4.73054 16.661 4.71561 16.6399C4.70069 16.6188 4.69089 16.5945 4.68701 16.5689C4.68701 13.2664 4.68701 13.4324 4.68701 13.4324C4.68693 13.4522 4.69204 13.4716 4.70183 13.4887C4.76662 13.5537 4.85049 13.5962 4.94116 13.6101C5.03184 13.6239 5.12457 13.6084 5.20581 13.5658C5.23075 13.5554 5.25229 13.5382 5.268 13.5162C5.28371 13.4942 5.29297 13.4683 5.29474 13.4413C5.29474 13.4413 5.30364 13.2694 5.30364 16.566Z" fill="#47313D"/>
<path d="M20.3841 2.7629V2.89334L19.7319 1.74902L19.8298 1.80535L20.3841 2.7629Z" fill="#E6DDC7"/>
<path d="M18.8784 1.25696L19.7322 1.74907L18.8784 1.25696Z" fill="#B6BD00"/>
<path d="M19.7883 3.21953C17.0214 4.82237 12.2573 7.48554 5.49617 11.209L5.1582 11.4047V13.3672L5.49617 13.1716C12.2494 9.64374 17.0135 7.07445 19.7883 5.46371L20.3812 5.11982V2.89343L19.7883 3.21953Z" fill="#EFE7D5"/>
<path d="M19.732 1.74902L19.1391 2.09291C16.3722 3.69377 11.6843 6.48738 5.07526 10.4737L4.7373 10.6694L5.16123 11.4046L5.49919 11.2089C12.2525 7.48545 17.0165 4.82228 19.7913 3.21944L20.3843 2.87852L19.732 1.74902Z" fill="#EFE7D5"/>
<path d="M20.3813 5.12866L19.8092 6.12179L19.2163 6.46568C18.315 6.98546 17.2112 7.59715 15.9048 8.30074L15.22 8.66835C12.5855 10.0775 9.20295 11.8236 5.07233 13.9067L4.73438 14.1024L5.1583 13.3672L5.49627 13.1715C9.40356 11.1299 12.6448 9.41047 15.22 8.01318L15.8782 7.63668C17.4494 6.77893 18.7488 6.0536 19.7766 5.46069L20.3813 5.12866Z" fill="#E6DDC7"/>
<path d="M5.15834 11.4047V13.3672L4.73441 14.1024L3.2877 13.2694L2.86377 12.0421V10.0795L3.2877 9.83643L4.73441 10.6695L5.15834 11.4047Z" fill="#DED3BA"/>
<path d="M17.9534 0.729248L17.3605 1.07314L16.7083 1.44964C13.9908 3.01888 9.61707 5.74528 3.58715 9.62886L3.19287 9.88381L3.27588 9.83638L4.72258 10.6694L5.06055 10.4738C11.6676 6.48939 16.3605 3.69578 19.1392 2.09295L19.7322 1.74906L17.9534 0.729248Z" fill="#FFFBF0"/>
<path d="M20.3843 2.89343L18.4959 3.98439L16.5986 5.06349C15.3337 5.78091 14.0659 6.49241 12.7951 7.19797C11.5242 7.90354 10.2515 8.6091 8.9767 9.31467L7.06752 10.3671L6.10997 10.8889L5.63268 11.1527L5.50224 11.1942C5.46073 11.215 5.42219 11.2387 5.38365 11.2624L5.14648 11.3958L5.38069 11.2594L5.50224 11.1942L5.62082 11.129L6.09811 10.8622L7.0527 10.3315L8.95891 9.27317L12.7713 7.15351C14.0421 6.44399 15.311 5.73447 16.5778 5.02495L18.4781 3.95178L20.3843 2.89343Z" fill="white"/>
<path d="M19.7322 1.74902L17.8468 2.84887L15.9702 3.95762L12.223 6.1929L8.4669 8.43411L6.59626 9.55471L5.65946 10.115L5.19402 10.4115L5.07544 10.4797C5.0369 10.5034 4.99836 10.5271 4.95686 10.5478L4.72266 10.6842L4.95686 10.5478L5.07544 10.4797L5.19106 10.4085L5.65649 10.112L6.59033 9.54582L8.4669 8.41335L12.2082 6.15436C13.4553 5.41124 14.7053 4.66912 15.9583 3.92798C16.5868 3.56037 17.2123 3.1898 17.8408 2.82516C18.4693 2.46052 19.1008 2.1107 19.7322 1.74902Z" fill="white"/>
<path d="M7.75505 10.2336V12.7624L5.37451 14.135V11.6062L7.75505 10.2336Z" fill="#EFE7D5"/>
<path d="M7.12957 9.05371L7.75509 10.2336L5.37455 11.6062L4.74902 10.4263L7.12957 9.05371Z" fill="#EFE7D5"/>
<path d="M7.75523 12.7625L7.19789 13.9008L4.82031 15.2734L5.37468 14.135L7.75523 12.7625Z" fill="#E6DDC7"/>
<path d="M7.12984 9.05374L4.7493 10.4263L3.02393 9.43024L5.40447 8.05469L7.12984 9.05374Z" fill="#FFFBF0"/>
<path d="M5.37461 11.6062V14.135L5.03369 14.0935V11.6803L5.37461 11.6062Z" fill="#DED3BA"/>
<path d="M4.75195 10.4264L5.37451 11.6122L5.03359 11.6863L4.50293 10.6813L4.75195 10.4264Z" fill="#E6DDC7"/>
<path d="M5.37458 14.135L4.82021 15.2734L4.53857 15.1133L5.03366 14.0935L5.37458 14.135Z" fill="#DED3BA"/>
<path d="M5.0339 11.6803V14.0935L4.53882 15.1133L2.89645 14.1587L2.40137 12.5667V10.1595L2.93203 9.76819L4.50324 10.6753L5.0339 11.6803Z" fill="#DED3BA"/>
<path d="M4.75237 10.4264L4.50335 10.6754L2.93213 9.76826C2.96474 9.6556 2.99438 9.54295 3.02403 9.4303L4.75237 10.4264Z" fill="#E6DDC7"/>
<path d="M3.02393 9.4303C2.99428 9.54295 2.96464 9.6556 2.93203 9.76826L2.40137 10.1596V9.8898L3.02393 9.4303Z" fill="#E6DDC7"/>
<path d="M7.12486 9.03804L4.74609 10.4142L4.76094 10.4398L7.1397 9.0637L7.12486 9.03804Z" fill="white"/>
<path d="M7.74764 10.2187L5.36768 11.5928L5.3825 11.6184L7.76246 10.2444L7.74764 10.2187Z" fill="white"/>
<path d="M15.905 7.63965V13.4383H15.2202V8.66835L15.905 7.63965Z" fill="#DED3BA"/>
<path d="M17.165 2.62059C17.1652 2.65209 17.1591 2.68332 17.1472 2.71249C17.1077 2.80034 17.0399 2.87237 16.9546 2.91704C16.7713 3.00942 16.5662 3.04943 16.3616 3.03266C16.2026 3.03502 16.0463 2.99181 15.911 2.90815C15.8561 2.87881 15.8093 2.83642 15.7747 2.78473C15.7401 2.73303 15.7187 2.67361 15.7124 2.61169V2.30042C15.7124 2.64727 16.4476 2.85775 16.9427 2.59687C17.0104 2.56207 17.0677 2.5099 17.1087 2.44568C17.1359 2.40194 17.1512 2.35188 17.1532 2.30042L17.165 2.62059Z" fill="#49C4FF"/>
<path d="M16.0055 1.95664C16.5717 1.71058 17.3603 2.01593 17.1202 2.428C17.0792 2.49222 17.0219 2.5444 16.9541 2.5792C16.3909 2.87565 15.5193 2.5792 15.7683 2.13748C15.8257 2.05312 15.9089 1.98966 16.0055 1.95664Z" fill="#59D3FF"/>
<path d="M14.5086 11.4491C14.5115 11.512 14.4971 11.5745 14.4671 11.6299C14.4524 11.6583 14.4318 11.6833 14.4068 11.7032C14.3818 11.7231 14.3528 11.7375 14.3219 11.7456C14.2597 11.7575 14.1952 11.7492 14.1381 11.7218C13.7912 11.5766 13.5452 11.0133 13.6934 10.7732C13.9009 10.4145 14.4938 10.9125 14.5086 11.4491Z" fill="#47313D"/>
<path d="M9.81844 6.54864C9.74573 6.53467 9.67754 6.50312 9.61982 6.45673C9.59099 6.43312 9.56797 6.40319 9.55255 6.36927C9.53713 6.33534 9.52972 6.29832 9.53088 6.26107C9.54172 6.22581 9.55969 6.19315 9.58365 6.16511C9.60762 6.13706 9.63708 6.11423 9.67022 6.09802L9.74136 6.05652C9.71304 6.07263 9.68872 6.09492 9.67022 6.12174C9.65852 6.14416 9.65242 6.16908 9.65242 6.19437C9.65242 6.21966 9.65852 6.24458 9.67022 6.267C9.74337 6.3382 9.83663 6.3852 9.93738 6.40163C10.0381 6.41807 10.1415 6.40316 10.2335 6.3589C10.2817 6.34154 10.3232 6.30937 10.3521 6.267C10.3637 6.24511 10.3699 6.22067 10.3699 6.19585C10.3699 6.17104 10.3637 6.1466 10.3521 6.1247C10.3446 6.10685 10.3323 6.09145 10.3165 6.08024C10.7256 6.27293 10.361 6.67315 9.81844 6.54864Z" fill="#33242C"/>
<path d="M10.3525 6.12481C10.3642 6.14671 10.3703 6.17115 10.3703 6.19596C10.3703 6.22078 10.3642 6.24521 10.3525 6.26711C10.3236 6.30948 10.2821 6.34165 10.2339 6.35901C10.1419 6.40326 10.0385 6.41818 9.93779 6.40174C9.83704 6.38531 9.74378 6.33831 9.67063 6.26711C9.65894 6.24469 9.65283 6.21977 9.65283 6.19448C9.65283 6.16919 9.65894 6.14427 9.67063 6.12185C9.68913 6.09503 9.71345 6.07273 9.74177 6.05663C9.83684 5.99907 9.94827 5.97455 10.0587 5.98688C10.1692 5.99921 10.2724 6.0477 10.3525 6.12481Z" fill="#47313D"/>
<path d="M10.4918 6.30852C10.4854 6.34669 10.469 6.38248 10.4443 6.41228C10.3607 6.48713 10.2592 6.53903 10.1495 6.56293C10.0399 6.58683 9.92597 6.58191 9.81881 6.54865C9.7461 6.53469 9.67791 6.50314 9.62019 6.45675C9.57087 6.41571 9.53905 6.35739 9.53125 6.2937V6.55755C9.53321 6.58564 9.54131 6.61296 9.55497 6.63759C9.69727 6.90737 10.3435 6.88661 10.474 6.61684C10.4874 6.59123 10.4946 6.56276 10.4947 6.53383L10.4918 6.30852Z" fill="#33242C"/>
<path d="M7.01137 10.8622V13.5095L6.50146 13.803V11.1557L7.01137 10.8622Z" fill="#FFFBF0"/>
<path d="M6.23744 9.39465L7.01119 10.8621L6.50129 11.1556L5.72754 9.68814L6.23744 9.39465Z" fill="#FFFBF0"/>
<path d="M6.50146 11.1556V13.8029L6.22576 13.6428V11.117L5.6032 9.93713L5.29785 9.75926V9.43909L5.72771 9.68811L6.50146 11.1556Z" fill="#DED3BA"/>
<path d="M6.23762 9.39465L5.72771 9.68814L5.29785 9.43912L5.80776 9.14563L6.23762 9.39465Z" fill="white"/>
<path d="M7.35498 12.9344C7.35498 12.5905 7.77594 12.2406 7.8886 12.5193C7.90496 12.5576 7.91109 12.5995 7.90638 12.6409C7.90638 12.4778 7.74037 12.4422 7.59214 12.5934C7.50038 12.6841 7.44546 12.8056 7.43799 12.9344C7.43799 13.0678 7.52989 13.1359 7.64847 13.0796C7.47356 13.1952 7.35498 13.1033 7.35498 12.9344Z" fill="#47313D"/>
<path d="M7.43808 12.9344C7.44555 12.8056 7.50047 12.6841 7.59223 12.5935C7.75825 12.4245 7.92723 12.4927 7.90352 12.7002C7.89402 12.7776 7.86689 12.8518 7.82424 12.917C7.78158 12.9823 7.72452 13.0369 7.65745 13.0767C7.63432 13.0922 7.60717 13.1005 7.57934 13.1007C7.55151 13.1009 7.52425 13.0929 7.5009 13.0778C7.47755 13.0627 7.45916 13.041 7.44799 13.0155C7.43683 12.99 7.43338 12.9618 7.43808 12.9344Z" fill="#33242C"/>
<path d="M7.52714 12.2644L7.8236 12.4274C7.66055 12.3563 7.36706 12.6468 7.36706 12.9344C7.36423 12.9666 7.36922 12.9991 7.38161 13.029C7.39399 13.059 7.41341 13.0855 7.43821 13.1063L7.14175 12.9403C7.11369 12.9204 7.09129 12.8935 7.07674 12.8623C7.06219 12.8311 7.05599 12.7967 7.05874 12.7624C7.06662 12.6642 7.09757 12.5693 7.14909 12.4853C7.2006 12.4013 7.27122 12.3307 7.3552 12.2792C7.38119 12.2647 7.40994 12.2559 7.43958 12.2533C7.46922 12.2508 7.49906 12.2545 7.52714 12.2644Z" fill="#47313D"/>
<path d="M7.6575 13.0767L7.63379 13.0915C7.63865 13.0927 7.64375 13.0927 7.64861 13.0915L7.6575 13.0767Z" fill="#B6BD00"/>
<path d="M7.83529 12.4422C7.80673 12.4253 7.77346 12.418 7.74042 12.4215C7.70903 12.425 7.67873 12.4351 7.65149 12.4511L7.56848 12.5074C7.49414 12.5714 7.43534 12.6515 7.39654 12.7416C7.37118 12.8028 7.35712 12.8681 7.35504 12.9343C7.35402 12.8681 7.36716 12.8024 7.39358 12.7416C7.41841 12.6796 7.45239 12.6217 7.49437 12.5697C7.53623 12.518 7.58754 12.4747 7.64557 12.4422C7.67471 12.4261 7.70717 12.417 7.74042 12.4155C7.7571 12.4126 7.77415 12.4126 7.79083 12.4155L7.83529 12.4392V12.4422Z" fill="white"/>
<path d="M17.248 9.71185C17.2099 9.61785 17.1927 9.51669 17.1976 9.41539C17.2063 9.17616 17.2691 8.94201 17.3814 8.73058C17.4839 8.51751 17.6352 8.33164 17.8231 8.18806C17.998 8.05466 18.2648 7.91236 18.4605 8.01908L18.4931 8.03687C18.5949 8.10771 18.6676 8.21303 18.6977 8.33332C18.7199 8.41739 18.7289 8.50441 18.7243 8.59124C18.723 8.50739 18.7016 8.42507 18.6621 8.35111C18.6118 8.26148 18.529 8.19461 18.4308 8.16434C18.3133 8.15793 18.1958 8.17896 18.0877 8.22579C17.9797 8.27261 17.884 8.34393 17.8083 8.43412C17.4288 8.82248 17.2658 9.41539 17.4288 9.71185C17.4792 9.80076 17.5621 9.86666 17.6601 9.89565C17.7784 9.91712 17.9006 9.895 18.004 9.83339C17.8677 9.93417 17.6978 9.97875 17.5296 9.9579C17.4674 9.94036 17.4098 9.90918 17.3611 9.86662C17.3123 9.82406 17.2737 9.77119 17.248 9.71185Z" fill="#47313D"/>
<path d="M18.3092 8.91139C18.3359 8.68608 18.1698 8.61493 17.992 8.7513C17.9278 8.80384 17.8755 8.86925 17.8382 8.94329C17.8009 9.01733 17.7796 9.09836 17.7755 9.18116C17.7696 9.37682 18.2944 9.04479 18.3092 8.91139ZM17.7755 9.18116C17.7755 9.37682 17.9505 9.45094 18.1372 9.2612C18.2323 9.16731 18.2929 9.04404 18.3092 8.91139C18.3359 8.68608 17.7815 9.01811 17.7755 9.18116ZM18.7153 8.73648C18.6323 9.44204 18.0157 9.98456 17.6599 9.89266C17.562 9.86367 17.479 9.79777 17.4287 9.70885C17.2656 9.4124 17.4287 8.81949 17.8082 8.4252C17.8839 8.33501 17.9796 8.26369 18.0876 8.21687C18.1957 8.17004 18.3131 8.14901 18.4307 8.15542C18.5289 8.18569 18.6117 8.25256 18.662 8.34219C18.7228 8.46411 18.7416 8.60276 18.7153 8.73648Z" fill="#47313D"/>
<path d="M18.4931 8.03695L18.4604 8.01917C18.4719 8.02394 18.4828 8.0299 18.4931 8.03695Z" fill="#B6BD00"/>
<path d="M18.2675 7.9064L18.4602 8.01905C18.2645 7.91529 17.9977 8.05463 17.8228 8.18803C17.635 8.33161 17.4836 8.51748 17.3811 8.73055C17.2689 8.94198 17.206 9.17613 17.1973 9.41536C17.1924 9.51666 17.2096 9.61782 17.2477 9.71182C17.2834 9.79222 17.3409 9.86102 17.4137 9.91044L17.1884 9.78297C17.1479 9.75976 17.1126 9.72848 17.0847 9.69107C16.9972 9.57566 16.9551 9.43225 16.9661 9.28788C16.9844 8.98599 17.0871 8.69531 17.2625 8.44891C17.3779 8.23972 17.5507 8.06792 17.7606 7.95383C17.8356 7.90711 17.9205 7.87851 18.0085 7.87027C18.0964 7.86204 18.1851 7.87441 18.2675 7.9064Z" fill="#33242C"/>
<path d="M17.992 8.75141C18.1699 8.60614 18.3359 8.68619 18.3092 8.91149C18.293 9.04415 18.2324 9.16742 18.1373 9.26131C17.9505 9.45104 17.7697 9.37693 17.7756 9.18127C17.774 9.15956 17.774 9.13776 17.7756 9.11605C17.8884 9.02374 17.965 8.89462 17.992 8.75141Z" fill="#33242C"/>
<path d="M18.7152 8.5261C18.7046 8.43071 18.6617 8.3418 18.5936 8.27412C18.5595 8.24151 18.5205 8.2145 18.478 8.19407L18.4098 8.17332H18.3416C18.2941 8.17475 18.247 8.18376 18.2023 8.2C18.1566 8.21317 18.1128 8.2321 18.0718 8.25633C17.9891 8.30185 17.9124 8.35763 17.8436 8.42235C17.7064 8.5545 17.594 8.71012 17.5115 8.88185C17.4705 8.96781 17.4368 9.05706 17.4108 9.14866C17.3832 9.23522 17.3662 9.32482 17.3604 9.41547C17.3621 9.31513 17.377 9.21545 17.4048 9.11902C17.4286 9.02707 17.4613 8.9377 17.5027 8.85221C17.5846 8.67922 17.696 8.52174 17.8317 8.38677C17.9022 8.32107 17.9797 8.26341 18.063 8.21483C18.1058 8.19246 18.1504 8.17362 18.1964 8.1585C18.2422 8.14295 18.2902 8.13494 18.3387 8.13478C18.3505 8.13329 18.3624 8.13329 18.3742 8.13478H18.4098C18.4339 8.13818 18.457 8.14623 18.478 8.1585C18.5225 8.17817 18.5628 8.20637 18.5966 8.24151C18.6302 8.27587 18.6573 8.31604 18.6766 8.36009C18.6966 8.40424 18.7096 8.45126 18.7152 8.49942V8.5261Z" fill="white"/>
<path d="M17.7754 9.18122C17.7769 9.21825 17.7859 9.25458 17.8021 9.28795C17.8199 9.32119 17.8495 9.34656 17.8851 9.3591C17.9199 9.36931 17.957 9.36931 17.9918 9.3591C18.0275 9.34621 18.0606 9.32714 18.0896 9.30277C18.1555 9.25364 18.2101 9.19097 18.2497 9.11897C18.2887 9.05362 18.314 8.98098 18.3238 8.90552C18.313 8.98076 18.2879 9.05323 18.2497 9.11897C18.214 9.1876 18.1646 9.24815 18.1045 9.29684C18.0755 9.32211 18.0424 9.34218 18.0066 9.35613C17.9682 9.36946 17.9264 9.36946 17.888 9.35613C17.8693 9.34969 17.852 9.33955 17.8372 9.32631C17.8225 9.31307 17.8105 9.297 17.8021 9.27905C17.7862 9.24377 17.78 9.20487 17.7843 9.1664L17.7754 9.18122Z" fill="white"/>
<path d="M15.2853 3.63749C15.1983 3.68531 15.0995 3.70762 15.0004 3.70185C14.9013 3.69608 14.8058 3.66247 14.725 3.60488C14.6064 3.49519 14.6894 3.36475 14.8495 3.30842C15.0096 3.25209 15.3031 3.28174 15.3772 3.42404C15.4068 3.50705 15.3564 3.58709 15.2853 3.63749Z" fill="#47313D"/>
<path d="M5.00408 9.01224V9.15454C5.00037 9.18974 4.98745 9.22333 4.96664 9.25196C4.94582 9.28058 4.91784 9.30321 4.8855 9.31759C4.78612 9.36944 4.67407 9.39205 4.56236 9.38281C4.47364 9.3841 4.38634 9.36048 4.31037 9.31463C4.28089 9.29832 4.25562 9.27536 4.23658 9.24757C4.21754 9.21977 4.20525 9.18792 4.20069 9.15454V9.01817C4.20056 9.043 4.20668 9.06747 4.21847 9.08932C4.3054 9.17281 4.41681 9.22622 4.53634 9.2417C4.65587 9.25717 4.77721 9.2339 4.88254 9.17529C4.91551 9.16135 4.94385 9.13836 4.96431 9.10898C4.98477 9.0796 4.9965 9.04504 4.99815 9.00928L5.00408 9.01224Z" fill="#33242C"/>
<path d="M4.98349 8.93222C4.99647 8.95691 5.00325 8.98438 5.00325 9.01227C5.00325 9.04015 4.99647 9.06763 4.98349 9.09231C4.96109 9.12792 4.92928 9.15664 4.89159 9.17532C4.78626 9.23392 4.66492 9.25719 4.54539 9.24172C4.42586 9.22624 4.31445 9.17284 4.22752 9.08934C4.21501 9.06452 4.2085 9.0371 4.2085 9.0093C4.2085 8.9815 4.21501 8.95409 4.22752 8.92926C4.26918 8.8824 4.32033 8.84495 4.37758 8.81939C4.43483 8.79384 4.49686 8.78076 4.55956 8.78103C4.69296 8.77214 4.92419 8.82253 4.98349 8.93222Z" fill="#47313D"/>
<path d="M4.82938 8.06653V9.00926C4.82725 9.02887 4.82014 9.04761 4.80872 9.06369C4.79731 9.07978 4.78196 9.09268 4.76416 9.10116C4.71392 9.12599 4.65863 9.13891 4.60258 9.13891C4.54654 9.13891 4.49126 9.12599 4.44102 9.10116C4.42431 9.09236 4.40994 9.0797 4.39911 9.06423C4.38829 9.04876 4.38131 9.03093 4.37876 9.01222V8.06949C4.3757 8.08316 4.3757 8.09733 4.37876 8.111C4.42779 8.15776 4.49051 8.1876 4.55773 8.19613C4.62495 8.20467 4.69313 8.19145 4.7523 8.15843C4.77046 8.15044 4.78613 8.13768 4.79761 8.1215C4.8091 8.10531 4.81598 8.08631 4.81752 8.06653H4.82938Z" fill="#49C4FF"/>
<path d="M4.82021 8.02208C4.82608 8.03617 4.82911 8.05128 4.82911 8.06655C4.82911 8.08181 4.82608 8.09693 4.82021 8.11102C4.80695 8.13129 4.78853 8.14766 4.76684 8.15845C4.70768 8.19147 4.6395 8.20469 4.57228 8.19615C4.50506 8.18761 4.44234 8.15778 4.39331 8.11102C4.38672 8.09712 4.3833 8.08193 4.3833 8.06655C4.3833 8.05117 4.38672 8.03598 4.39331 8.02208C4.42296 7.96575 4.51782 7.94204 4.58008 7.93611C4.64234 7.93018 4.78464 7.95686 4.82021 8.02208Z" fill="#59D3FF"/>
<path d="M7.87367 8.18222C7.78921 8.2292 7.69359 8.25235 7.59699 8.24922C7.5004 8.24609 7.40646 8.21678 7.32523 8.16443C7.2185 8.07846 7.23629 7.94209 7.40823 7.86797C7.49529 7.82506 7.59321 7.80919 7.68936 7.82239C7.78552 7.8356 7.87552 7.87729 7.94779 7.94209C8.01004 8.0251 7.9715 8.11996 7.87367 8.18222Z" fill="#47313D"/>
<path d="M16.5924 11.1941L18.8425 9.91638V10.8977L16.5894 12.1813C16.5894 12.1813 16.5776 11.1734 16.5924 11.1941Z" fill="#DED3BA"/>
<path d="M16.5747 12.1844V11.6834C16.5747 11.1883 16.5747 11.1853 16.5747 11.1824L18.8278 9.90759V10.8978L16.5747 12.1844ZM16.5984 11.1942C16.5984 11.2387 16.5984 11.7871 16.5984 12.1607L18.8426 10.8978V9.92834L16.5984 11.1942Z" fill="#47313D"/>
<path d="M9.99072 9.28496L12.9642 7.67224V8.65648L9.99665 10.2633L9.99072 9.28496Z" fill="#59D3FF"/>
<path d="M9.99072 10.2751V9.28198L12.976 7.66333V8.66239L9.99072 10.2751ZM9.99072 9.29087V10.2514L12.9553 8.65053V7.68408L9.99072 9.29087Z" fill="#47313D"/>
</g>
<defs>
<clipPath id="clip0_1232_6340">
<rect width="22.2105" height="22" fill="white"/>
</clipPath>
</defs>
</svg>
