<svg width="32" height="31" viewBox="0 0 32 31" fill="none" xmlns="http://www.w3.org/2000/svg">
<rect width="32" height="30.5116" rx="7" fill="white"/>
<path d="M22 8.33337H18C17.8232 8.33337 17.6536 8.40361 17.5286 8.52864C17.4036 8.65366 17.3333 8.82323 17.3333 9.00004C17.3333 9.17685 17.4036 9.34642 17.5286 9.47145C17.6536 9.59647 17.8232 9.66671 18 9.66671H20.3907L14.862 15.1954C14.7983 15.2569 14.7475 15.3304 14.7126 15.4118C14.6777 15.4931 14.6593 15.5806 14.6585 15.6691C14.6577 15.7576 14.6746 15.8454 14.7081 15.9273C14.7416 16.0093 14.7911 16.0837 14.8537 16.1463C14.9163 16.2089 14.9908 16.2584 15.0727 16.2919C15.1546 16.3254 15.2424 16.3423 15.3309 16.3415C15.4195 16.3408 15.5069 16.3224 15.5883 16.2874C15.6696 16.2525 15.7432 16.2017 15.8047 16.138L21.3333 10.6094V13C21.3333 13.1769 21.4036 13.3464 21.5286 13.4714C21.6536 13.5965 21.8232 13.6667 22 13.6667C22.1768 13.6667 22.3464 13.5965 22.4714 13.4714C22.5964 13.3464 22.6667 13.1769 22.6667 13V9.00004C22.6667 8.82323 22.5964 8.65366 22.4714 8.52864C22.3464 8.40361 22.1768 8.33337 22 8.33337Z" fill="black"/>
<path d="M20.6667 14.0586C20.4899 14.0586 20.3203 14.1289 20.1953 14.2539C20.0702 14.3789 20 14.5485 20 14.7253V19.5006C19.9998 19.7214 19.912 19.9331 19.7559 20.0892C19.5998 20.2453 19.3881 20.3331 19.1673 20.3333H11.4993C11.2785 20.3331 11.0669 20.2453 10.9107 20.0892C10.7546 19.9331 10.6668 19.7214 10.6667 19.5006V11.8326C10.6668 11.6118 10.7546 11.4002 10.9107 11.244C11.0669 11.0879 11.2785 11.0001 11.4993 11H15.6473C15.8241 11 15.9937 10.9297 16.1187 10.8047C16.2438 10.6797 16.314 10.5101 16.314 10.3333C16.314 10.1565 16.2438 9.98691 16.1187 9.86189C15.9937 9.73686 15.8241 9.66663 15.6473 9.66663H11.4993C10.9251 9.66733 10.3746 9.89576 9.96851 10.3018C9.56246 10.7079 9.33403 11.2584 9.33333 11.8326V19.4993C9.33368 20.0738 9.56195 20.6246 9.96804 21.031C10.3741 21.4373 10.9249 21.6659 11.4993 21.6666H19.166C19.7405 21.6663 20.2913 21.438 20.6977 21.0319C21.104 20.6258 21.3326 20.0751 21.3333 19.5006V14.7253C21.3333 14.5485 21.2631 14.3789 21.1381 14.2539C21.013 14.1289 20.8435 14.0586 20.6667 14.0586Z" fill="black"/>
</svg>
