<svg width="17" height="24" viewBox="0 0 17 24" fill="none" xmlns="http://www.w3.org/2000/svg">
<g clip-path="url(#clip0_1232_4813)">
<path d="M10.5124 7.44854C10.5932 7.92087 11.2701 8.17597 11.5227 7.70112C11.5669 7.63402 11.5868 7.55377 11.579 7.47378C11.5712 7.3938 11.5362 7.31891 11.4798 7.26164C11.1792 6.95349 10.4215 6.90803 10.5124 7.44854Z" fill="#1A2428"/>
<path d="M10.8913 19.0015C10.8808 19.0015 10.8704 18.9994 10.8608 18.9953C10.8511 18.9912 10.8424 18.9852 10.835 18.9777C10.8277 18.9701 10.822 18.9612 10.8182 18.9514C10.8145 18.9416 10.8127 18.9312 10.813 18.9207L10.8484 17.635C10.8487 17.6244 10.8511 17.614 10.8555 17.6043C10.8599 17.5946 10.8661 17.5859 10.8738 17.5786C10.8816 17.5713 10.8907 17.5657 10.9006 17.5619C10.9105 17.5582 10.9211 17.5564 10.9317 17.5567C10.9425 17.5567 10.9531 17.5589 10.9629 17.5631C10.9728 17.5674 10.9816 17.5736 10.989 17.5814C10.9963 17.5892 11.002 17.5985 11.0056 17.6086C11.0092 17.6187 11.0107 17.6294 11.01 17.6401L10.9747 18.9232C10.9744 18.9338 10.9719 18.9443 10.9676 18.9539C10.9632 18.9636 10.957 18.9723 10.9492 18.9796C10.9415 18.9869 10.9324 18.9926 10.9225 18.9963C10.9125 19.0001 10.9019 19.0018 10.8913 19.0015Z" fill="#141F23"/>
<path d="M11.2044 18.4685C11.2409 18.4804 11.2728 18.5035 11.2954 18.5346C11.318 18.5657 11.3302 18.6031 11.3302 18.6415C11.3302 18.68 11.318 18.7174 11.2954 18.7485C11.2728 18.7796 11.2409 18.8027 11.2044 18.8146C11.1107 18.8591 11.0078 18.8807 10.9042 18.8776C10.8005 18.8745 10.6991 18.8469 10.6083 18.7969C10.5717 18.785 10.5398 18.7619 10.5172 18.7308C10.4946 18.6998 10.4824 18.6623 10.4824 18.6239C10.4824 18.5854 10.4946 18.548 10.5172 18.5169C10.5398 18.4858 10.5717 18.4627 10.6083 18.4508C10.7022 18.4075 10.805 18.3866 10.9084 18.3896C11.0118 18.3927 11.1131 18.4197 11.2044 18.4685Z" fill="#253137"/>
<path d="M11.1108 18.5266C11.134 18.5353 11.154 18.5508 11.1681 18.5711C11.1822 18.5914 11.1898 18.6156 11.1898 18.6403C11.1898 18.665 11.1822 18.6892 11.1681 18.7095C11.154 18.7298 11.134 18.7453 11.1108 18.754C11.0497 18.785 10.9822 18.8012 10.9138 18.8012C10.8453 18.8012 10.7778 18.785 10.7167 18.754C10.6935 18.7453 10.6735 18.7298 10.6594 18.7095C10.6453 18.6892 10.6377 18.665 10.6377 18.6403C10.6377 18.6156 10.6453 18.5914 10.6594 18.5711C10.6735 18.5508 10.6935 18.5353 10.7167 18.5266C10.7778 18.4956 10.8453 18.4794 10.9138 18.4794C10.9822 18.4794 11.0497 18.4956 11.1108 18.5266Z" fill="#070709"/>
<path d="M10.9014 18.6327C10.89 18.6327 10.8787 18.6304 10.8683 18.6259C10.8578 18.6214 10.8484 18.6148 10.8406 18.6065C10.8328 18.5982 10.8267 18.5885 10.8229 18.5778C10.819 18.567 10.8173 18.5557 10.818 18.5443L11.1843 6.32203C11.1842 6.31065 11.1866 6.29938 11.1911 6.28892C11.1956 6.27847 11.2022 6.26904 11.2104 6.26123C11.2187 6.25342 11.2285 6.24739 11.2392 6.24351C11.2499 6.23963 11.2613 6.23799 11.2727 6.23868C11.2839 6.23901 11.2951 6.24155 11.3053 6.24617C11.3156 6.25079 11.3249 6.2574 11.3327 6.26561C11.3404 6.27382 11.3464 6.28347 11.3505 6.29402C11.3545 6.30457 11.3564 6.3158 11.356 6.32708L10.9898 18.5493C10.9898 18.5607 10.9875 18.572 10.983 18.5825C10.9785 18.5929 10.9719 18.6023 10.9636 18.6101C10.9553 18.618 10.9455 18.624 10.9348 18.6279C10.9241 18.6317 10.9127 18.6334 10.9014 18.6327Z" fill="#253137"/>
<path d="M11.2147 8.29216C11.1997 8.29157 11.185 8.28789 11.1715 8.28135C11.1581 8.27482 11.1461 8.26556 11.1364 8.25418C11.1267 8.24279 11.1194 8.22952 11.115 8.21519C11.1107 8.20087 11.1093 8.18579 11.1111 8.17092L11.1641 6.31195C11.1641 6.28314 11.1756 6.25552 11.196 6.23515C11.2163 6.21478 11.2439 6.20334 11.2727 6.20334C11.3016 6.20334 11.3292 6.21478 11.3495 6.23515C11.3699 6.25552 11.3814 6.28314 11.3814 6.31195L11.3283 8.17345C11.3298 8.18897 11.3279 8.20463 11.3228 8.21936C11.3177 8.23409 11.3094 8.24754 11.2986 8.2588C11.2879 8.27007 11.2748 8.27888 11.2603 8.28463C11.2458 8.29039 11.2302 8.29296 11.2147 8.29216Z" fill="#08181E"/>
<path d="M11.3481 6.32203C11.3481 6.33743 11.342 6.35221 11.3311 6.3631C11.3202 6.374 11.3054 6.38012 11.29 6.38012C11.2746 6.37889 11.2602 6.37204 11.2494 6.36086C11.2387 6.34969 11.2325 6.33497 11.2319 6.3195C11.2319 6.31165 11.2335 6.30389 11.2366 6.29667C11.2397 6.28945 11.2442 6.28293 11.2498 6.2775C11.2555 6.27208 11.2622 6.26785 11.2695 6.26508C11.2769 6.26232 11.2847 6.26107 11.2926 6.26141C11.3003 6.26138 11.308 6.26296 11.3151 6.26607C11.3221 6.26917 11.3285 6.27372 11.3337 6.27943C11.339 6.28513 11.343 6.29187 11.3454 6.29921C11.3479 6.30654 11.3488 6.31432 11.3481 6.32203Z" fill="#253137"/>
<path d="M11.3634 7.22881C11.2934 7.15891 11.2144 7.09861 11.1285 7.04948C11.0123 7.01159 10.7673 6.98381 10.7168 7.13535C10.6663 7.2869 10.8456 7.3652 10.9542 7.31721C10.9969 7.36263 11.051 7.39577 11.1108 7.41319C11.1483 7.42442 11.1882 7.42468 11.2258 7.41394C11.2634 7.40319 11.2971 7.3819 11.323 7.35257C11.3836 7.30711 11.4063 7.28437 11.3634 7.22881Z" fill="#CA0101"/>
<path d="M11.3637 8.1709C11.3423 8.18658 11.3195 8.20011 11.2955 8.21132C11.2248 8.24668 11.1338 8.26941 11.0934 8.21132C11.0747 8.18117 11.0687 8.14481 11.0767 8.11023C11.0848 8.07565 11.1062 8.04569 11.1364 8.02693H11.1111C10.8914 7.99157 11.0682 7.77436 11.2172 7.71374C11.2147 7.69699 11.2147 7.67997 11.2172 7.66322C11.2172 7.5142 11.3561 7.39549 11.4546 7.29698L11.4723 7.24899C11.4848 7.26267 11.4966 7.27701 11.5077 7.29193C11.5618 7.37027 11.5876 7.46469 11.5809 7.55967C11.5674 7.65217 11.5462 7.7434 11.5178 7.83245C11.5178 7.86529 11.5026 7.89812 11.4976 7.93096C11.4936 7.97817 11.4796 8.02399 11.4565 8.06536C11.4334 8.10674 11.4018 8.14272 11.3637 8.1709Z" fill="#253137"/>
<path d="M11.5126 7.83497L11.4671 7.86276C11.404 7.89812 11.1514 7.984 11.1817 7.84003C11.1923 7.80394 11.2101 7.77036 11.234 7.74129C11.2578 7.71222 11.2873 7.68824 11.3206 7.6708C11.3113 7.65284 11.3065 7.63292 11.3065 7.6127C11.3065 7.59249 11.3113 7.57256 11.3206 7.55461C11.3661 7.45782 11.4315 7.37174 11.5126 7.30203C11.5667 7.38037 11.5925 7.47479 11.5858 7.56977C11.5686 7.66 11.5441 7.74868 11.5126 7.83497Z" fill="#CA0101"/>
<path d="M11.3633 8.1709C11.342 8.18658 11.3191 8.20011 11.2951 8.21132H11.2774C11.2143 8.17848 11.2345 8.13049 11.2774 8.07492C11.3319 8.00527 11.4086 7.95627 11.4947 7.936C11.4903 7.98214 11.4764 8.02685 11.4537 8.06729C11.4311 8.10774 11.4003 8.14303 11.3633 8.1709Z" fill="#CA0101"/>
<path d="M10.833 7.03432C10.835 7.00423 10.8306 6.97406 10.8202 6.94577C10.8098 6.91749 10.7935 6.89172 10.7724 6.87014C10.5527 6.77669 9.8126 6.45844 9.40848 6.27153C9.33523 6.19323 9.25441 6.11746 9.25441 6.11746H9.13569C9.2241 5.98612 8.54719 3.84425 8.05719 3.59167C7.74904 3.73564 6.98625 4.40498 7.04687 4.69797C7.14032 5.24859 7.89301 6.76153 8.04203 6.94087C8.52193 7.50664 9.47667 7.81226 10.1713 7.91834C10.3178 7.94108 10.6587 7.89814 10.6764 7.76174C10.6206 7.69664 10.5837 7.61743 10.5699 7.53278C10.5561 7.44814 10.5659 7.36132 10.5981 7.28185C10.6148 7.22491 10.6448 7.17276 10.6857 7.12971C10.7265 7.08667 10.777 7.05397 10.833 7.03432Z" fill="#192226"/>
<path d="M16.7913 22.7043C16.7256 22.6588 16.4402 22.7321 16.3694 22.7043C16.0512 22.5376 15.637 22.3279 15.3187 22.1587C15.0005 21.9895 14.6418 21.8 14.3084 21.6157C13.2493 21.0398 12.1935 20.458 11.1411 19.8703L10.353 19.4132L9.73421 19.0646L8.50668 18.3675C8.10256 18.1377 7.70601 17.9078 7.32462 17.6855C6.94322 17.4633 6.56688 17.2486 6.23095 17.044C5.63234 16.6904 5.34945 16.5111 4.75589 16.1473L4.13455 15.7634L4.09161 15.7483C3.93754 15.6523 3.81378 15.574 3.73042 15.5184L3.62687 15.4528L3.59151 15.43C3.45684 15.3558 3.30651 15.3146 3.15284 15.3098C2.99917 15.305 2.84654 15.3367 2.70748 15.4022C2.62852 15.4317 2.55757 15.4793 2.50037 15.5412C2.49532 15.5966 2.49532 15.6524 2.50037 15.7079C2.51077 15.751 2.53007 15.7915 2.55704 15.8267C2.58401 15.8619 2.61804 15.8911 2.65697 15.9124L2.70748 15.9402L2.74537 15.9604L2.86156 16.0211L2.96764 16.0766L3.29599 16.2484L3.44249 16.3292L3.9628 16.607L4.00068 16.6298L4.16233 16.7156C5.21306 17.2839 5.93038 17.6956 6.97606 18.2917L7.80704 18.7792L9.01436 19.4864L9.61803 19.8451C10.5677 20.4092 11.5132 20.9758 12.4545 21.5449L12.5909 21.6308C13.0531 21.9112 13.5153 22.1941 13.9725 22.4795L14.0533 22.5275C14.4953 22.8028 14.9348 23.0781 15.3718 23.3585C15.5332 23.4466 15.7131 23.4955 15.897 23.5012C16.0808 23.5069 16.2635 23.4693 16.4301 23.3913C16.7382 23.2195 17.0262 22.8685 16.7913 22.7043Z" fill="#0D0D15"/>
<path d="M16.4301 23.2802C16.2637 23.3585 16.0812 23.3966 15.8973 23.3913C15.7135 23.3861 15.5335 23.3376 15.3718 23.2498C14.9357 22.9686 14.4962 22.6917 14.0533 22.4189L13.9725 22.3683C13.5128 22.0838 13.0523 21.8009 12.5909 21.5197L12.4545 21.4338C11.5132 20.863 10.5686 20.2964 9.62059 19.734L9.01441 19.3778L7.80708 18.6681L6.9761 18.1857C6.3295 17.8144 5.80161 17.5138 5.24089 17.2006L4.71552 16.9127L4.15985 16.6096L4.00073 16.5237L3.96284 16.506L3.44253 16.2282L3.29603 16.1473L2.96768 15.9756L2.8616 15.92L2.74541 15.8619L2.70752 15.8392L2.65701 15.8114C2.42716 15.6624 2.44737 15.4351 2.70752 15.3063C2.84658 15.2407 2.99921 15.209 3.15288 15.2138C3.30655 15.2187 3.45688 15.2599 3.59155 15.334L3.62691 15.3568L3.73047 15.425L4.09165 15.6548L4.12449 15.675L4.74583 16.0514L5.68795 16.6298L6.21836 16.948L6.62502 17.1854L7.31203 17.5896L8.49662 18.2741C8.90075 18.5064 9.31245 18.7388 9.72415 18.9712L10.3531 19.3147L11.1462 19.7617C12.2003 20.3494 13.256 20.9312 14.3135 21.5071C14.6494 21.6914 14.9879 21.8708 15.3238 22.0501C15.7685 22.3144 16.2423 22.5263 16.7357 22.6815C17.0161 22.7523 16.7383 23.121 16.4301 23.2802Z" fill="#B50202"/>
<path d="M16.1323 22.7169C16.1323 22.7169 16.0288 22.5477 15.9151 22.3683L15.8419 22.3304L15.319 22.0627C14.9579 22.1713 14.3744 22.338 14.0562 22.4315C14.1723 22.5022 14.2835 22.5704 14.3845 22.6361C14.9624 22.7266 15.5485 22.7537 16.1323 22.7169Z" fill="#830209"/>
<path d="M4.99093 16.2863L4.90758 16.1499L4.74593 16.0514L4.12458 15.6649L4.09175 15.6447L2.96777 15.9705L3.29613 16.1448L3.44262 16.2231C3.95555 16.2933 4.47399 16.3144 4.99093 16.2863Z" fill="#830209"/>
<path d="M6.66573 17.2461C6.19046 17.2721 5.71382 17.2569 5.24118 17.2006L4.71582 16.9126L5.68825 16.6298L6.21866 16.948L6.62531 17.1854L6.66573 17.2461Z" fill="#830209"/>
<path d="M14.7482 21.9187L14.5865 21.6662L14.3062 21.5146L13.8717 21.2772L12.7275 21.6106L12.9523 21.747L13.1241 21.8531C13.662 21.9285 14.206 21.9505 14.7482 21.9187Z" fill="#830209"/>
<path d="M13.3637 21.1181L13.245 20.9286L12.7399 20.6483L12.4418 20.4841C12.1211 20.5801 11.6841 20.7038 11.3911 20.7897L11.8331 21.0524C12.3402 21.122 12.8526 21.1439 13.3637 21.1181Z" fill="#830209"/>
<path d="M11.1715 20.2265C11.0786 20.2731 10.9761 20.2974 10.8722 20.2974C10.7683 20.2974 10.6658 20.2731 10.5729 20.2265L10.3658 20.1027L10.1284 19.9613L10.1006 19.9411C10.2712 20 10.4582 19.9891 10.6209 19.9108C10.7649 19.8299 10.7901 19.7037 10.6891 19.6102H10.7042L10.9568 19.7466L11.1715 19.8678H11.1841C11.3458 19.979 11.3407 20.133 11.1715 20.2265Z" fill="#070709"/>
<path d="M10.626 19.9108C10.4634 19.9891 10.2764 20 10.1057 19.9411L9.8178 19.7668L9.45156 19.5496L7.4865 18.3827L7.17583 18.1983L7.11773 18.1629C7.05961 18.0964 7.01883 18.0166 6.99902 17.9305C7.09753 17.8573 7.18846 17.784 7.29454 17.7158L7.32738 17.6931L7.35768 17.7108L7.77444 17.9634L8.21898 18.216C8.37305 18.3018 8.52712 18.3928 8.68119 18.4685L9.14341 18.7211L9.593 18.9737L10.0123 19.2263L10.3886 19.4384L10.6942 19.6102C10.7953 19.7036 10.77 19.8299 10.626 19.9108Z" fill="#424145"/>
<path d="M7.201 17.438L7.00146 17.9028V17.9406L7.23384 17.7361L7.55209 17.2637L7.201 17.438Z" fill="#070709"/>
<path d="M7.41837 17.8396C7.38806 17.8219 7.38806 17.5163 7.35775 17.5012L7.01172 17.9533C7.01172 17.9684 7.01172 17.9836 7.01172 17.9987L7.21883 18.12L7.55476 17.9255L7.41837 17.8396Z" fill="#070709"/>
<path d="M9.16087 19.249L9.12298 19.2263L8.68349 18.9737L8.22633 18.7211L7.76916 18.4534L7.32715 18.2008L7.6656 18.0038L8.11014 18.2564L8.58499 18.5014L9.04721 18.7539L9.4968 19.0065L9.53468 19.0267L9.16087 19.249Z" fill="#070709"/>
<path d="M9.57515 19.5218L9.36803 19.3955L9.0902 19.2313L8.86035 19.0949L9.24175 18.8752L9.49432 19.0091L9.77216 19.1656L9.98685 19.2844C10.0099 19.2945 10.0296 19.3112 10.0435 19.3322C10.0573 19.3533 10.0649 19.3779 10.0652 19.4031C10.0619 19.4282 10.052 19.452 10.0365 19.472C10.0209 19.492 10.0003 19.5074 9.97675 19.5167C9.9149 19.549 9.84632 19.5663 9.77655 19.5672C9.70678 19.5681 9.63779 19.5525 9.57515 19.5218Z" fill="#070709"/>
<path d="M14.6117 22.0956C14.2678 22.1318 13.9216 22.1411 13.5762 22.1233L13.9727 22.3759L14.6117 22.0956Z" fill="#F2F2F2"/>
<path d="M13.1796 21.2696C12.865 21.3018 12.5485 21.3119 12.2324 21.2999L12.4547 21.4338L12.5911 21.5197L13.1796 21.2696Z" fill="#F2F2F2"/>
<path d="M4.90268 16.4908C4.60318 16.5219 4.30194 16.5329 4.00098 16.5237L4.16263 16.6096L4.36469 16.7207L4.90268 16.4908Z" fill="#F2F2F2"/>
<path d="M15.9101 22.8457C15.5316 22.8842 15.1506 22.891 14.771 22.8659L14.8392 22.9088L15.2105 23.1437L15.9101 22.8457Z" fill="#F2F2F2"/>
<path d="M8.48176 18.9686C9.06522 19.2212 9.50976 19.1859 9.4744 18.8979C9.45038 18.8038 9.40354 18.717 9.33801 18.6453L9.29254 18.5999L9.11574 18.4584C9.02835 18.3704 8.91927 18.307 8.79953 18.2746C8.67979 18.2422 8.55362 18.242 8.43378 18.274C8.0145 18.4306 7.52449 17.6148 7.38052 17.9179C7.38052 17.9179 7.35779 18.1175 7.40073 18.1882C7.68748 18.5375 8.05996 18.8064 8.48176 18.9686Z" fill="#253137"/>
<path d="M8.50201 18.903C7.93876 18.663 7.34772 18.2033 7.37551 17.9558C7.37551 17.9078 7.32246 16.7586 7.31741 16.7283C7.31236 16.698 7.9337 16.6121 8.41865 16.5439C8.4818 16.7965 8.41866 17.2562 8.53484 17.6375L8.69649 17.8396L8.84804 18.0189L8.96928 18.1604L9.09304 18.3044C9.20417 18.4306 9.29258 18.5266 9.31278 18.5569C9.33058 18.5701 9.3467 18.5853 9.36077 18.6024C9.42683 18.6737 9.47375 18.7606 9.49717 18.855C9.53253 19.1202 9.09051 19.1505 8.50201 18.903Z" fill="#253137"/>
<path d="M7.87541 17.7992C7.90273 17.8253 7.93231 17.849 7.96381 17.8699C8.18215 17.876 8.39688 17.8133 8.57758 17.6906L8.53464 17.635C8.52215 17.5927 8.51203 17.5497 8.50433 17.5062C8.29258 17.628 8.04731 17.6784 7.80469 17.6502C7.81092 17.7064 7.83582 17.7588 7.87541 17.7992Z" fill="#CA0101"/>
<path d="M8.50201 18.903C7.95138 18.6681 7.37551 18.2235 7.37551 17.9735V17.9558C7.37551 17.9558 7.37551 17.8775 7.37551 17.7815C7.37551 17.6855 7.37551 17.5921 7.36035 17.4784C7.42599 17.5244 7.49625 17.5633 7.56999 17.5946C7.57488 17.6272 7.58248 17.6593 7.59272 17.6906C7.61432 17.75 7.64688 17.8048 7.6887 17.8522C7.94311 18.0799 8.23778 18.2581 8.55757 18.3776C8.64345 18.3776 8.72933 18.6302 8.81015 18.6302C8.89644 18.6517 8.98638 18.654 9.07365 18.6369C9.16093 18.6199 9.24341 18.584 9.31531 18.5317C9.3331 18.5448 9.34922 18.5601 9.3633 18.5771C9.38213 18.5983 9.39903 18.6212 9.41381 18.6453C9.4552 18.6972 9.48454 18.7576 9.49969 18.8221C9.53253 19.1202 9.09051 19.1505 8.50201 18.903Z" fill="#CA0101"/>
<path d="M8.43869 8.62302C8.43869 8.62302 6.5393 8.97915 6.26399 9.06503C6.24631 9.06503 6.97878 12.2879 7.42332 13.6519C7.3146 13.8444 7.23542 14.0521 7.18842 14.2681C7.12528 15.4881 7.23894 15.968 7.18842 17.1172C7.24146 17.6855 8.31492 17.7891 8.72157 17.3168C8.76704 16.6247 8.67611 14.7682 8.87817 13.8489C8.96405 13.0229 8.74178 11.3584 8.49678 9.77983C8.49173 9.27214 8.43869 8.62302 8.43869 8.62302Z" fill="#B50202"/>
<path d="M8.50201 18.903C7.95138 18.6681 7.37551 18.2235 7.37551 17.9735V17.9558C7.37551 17.9558 7.37551 17.8775 7.37551 17.7815C7.37551 17.6855 7.37551 17.5921 7.36035 17.4784C7.42599 17.5244 7.49625 17.5633 7.56999 17.5946C7.57488 17.6272 7.58248 17.6593 7.59272 17.6906C7.60727 17.8174 7.63958 17.9415 7.6887 18.0594C7.75437 18.2059 7.91097 18.4231 8.0802 18.4407C8.10546 18.4407 8.19891 18.3094 8.27468 18.3145C8.3624 18.3489 8.44292 18.3995 8.51211 18.4635C8.68386 18.6226 8.68134 18.7817 8.96422 18.812C9.1284 18.8322 9.34562 18.812 9.41381 18.658C9.4552 18.7098 9.48454 18.7702 9.49969 18.8348C9.53253 19.1202 9.09051 19.1505 8.50201 18.903Z" fill="#AA0000"/>
<path d="M8.83761 18.0215C8.7962 18.0108 8.75274 18.0108 8.71132 18.0215C8.43092 18.0834 8.17619 18.2298 7.98137 18.4407C7.97432 18.4556 7.96325 18.4682 7.94942 18.4771C7.93559 18.4861 7.91953 18.491 7.90307 18.4913C7.89149 18.4944 7.8793 18.4944 7.86771 18.4913C7.85742 18.4867 7.84816 18.48 7.8405 18.4717C7.83285 18.4634 7.82695 18.4537 7.82317 18.4431C7.8194 18.4324 7.81782 18.4212 7.81852 18.4099C7.81923 18.3987 7.82222 18.3877 7.8273 18.3776C8.04644 18.1149 8.34996 17.9363 8.68607 17.8724C8.75174 17.8068 8.90328 17.9533 8.83761 18.0215Z" fill="#9E9E9E"/>
<path d="M8.17828 18.2564C8.22673 18.2212 8.27734 18.1891 8.32983 18.1604C8.27931 18.1225 8.23132 18.0846 8.18586 18.0442C8.14292 18.072 8.09998 18.0998 8.05957 18.1301C8.09746 18.173 8.13787 18.2159 8.17828 18.2564Z" fill="#BCBCBC"/>
<path d="M8.60261 17.8826C8.5959 17.8762 8.59072 17.8685 8.58746 17.8598C8.47457 17.8932 8.36604 17.9398 8.26416 17.9988C8.31075 18.0402 8.35966 18.079 8.41065 18.1149C8.50708 18.0614 8.61228 18.0254 8.72133 18.0089C8.69129 17.9587 8.6508 17.9156 8.60261 17.8826Z" fill="#E5E5E5"/>
<path d="M9.09033 18.3018C8.83509 18.3736 8.605 18.5153 8.42605 18.711C8.41888 18.7256 8.40772 18.7378 8.39386 18.7463C8.38 18.7548 8.36401 18.7592 8.34775 18.759C8.33524 18.7614 8.32238 18.7614 8.30987 18.759C8.28936 18.7487 8.27368 18.7308 8.26614 18.7091C8.25859 18.6874 8.25978 18.6636 8.26945 18.6428C8.45071 18.4195 8.69288 18.2537 8.96657 18.1654C9.03729 18.1503 9.13327 18.274 9.09033 18.3018Z" fill="#9E9E9E"/>
<path d="M8.88588 18.1907C8.79764 18.2282 8.71309 18.2739 8.6333 18.3271L8.70907 18.3953C8.72865 18.4119 8.74643 18.4305 8.76211 18.4509C8.84219 18.4017 8.92677 18.3603 9.01469 18.3271C8.96418 18.2741 8.92629 18.2336 8.88588 18.1907Z" fill="#E5E5E5"/>
<path d="M8.61294 18.4357L8.54475 18.3776C8.49676 18.4104 8.45634 18.4433 8.41846 18.4736C8.46088 18.5145 8.50743 18.5509 8.55738 18.5822L8.67609 18.4963L8.61294 18.4357Z" fill="#BCBCBC"/>
<path d="M9.52235 19.4586L9.87596 19.2364C9.87596 19.2364 9.52235 18.3776 9.22936 18.5039C8.86817 18.663 9.52235 19.4586 9.52235 19.4586Z" fill="#070709"/>
<path d="M9.53752 18.7337C9.63931 18.9113 9.72958 19.0952 9.80778 19.2844L9.87598 19.2263C9.87598 19.2263 9.52237 18.3675 9.22938 18.4938L9.18896 18.519C9.34304 18.4837 9.4668 18.6074 9.53752 18.7337Z" fill="#565559"/>
<path d="M9.1738 18.6302C9.15603 18.6357 9.14023 18.6462 9.12833 18.6605C9.11318 18.9459 9.52993 19.4536 9.52993 19.4536L9.56024 19.4359C9.35985 19.2079 9.22614 18.9292 9.1738 18.6302Z" fill="#424145"/>
<path d="M9.59533 19.4132L9.64837 19.3829C9.56063 19.1156 9.41682 18.8702 9.22656 18.663C9.2802 18.9416 9.40754 19.2006 9.59533 19.4132Z" fill="#424145"/>
<path d="M9.52211 19.4586L8.9917 19.1657L9.12557 18.9838L9.17861 18.9106L9.52211 19.4586Z" fill="#36353B"/>
<path d="M9.32005 19.2945L8.9917 19.1656L9.12557 18.9838L9.32005 19.2945Z" fill="#070709"/>
<path d="M7.48628 18.3826L7.17561 18.1983L7.11752 18.1629C7.05939 18.0964 7.01861 18.0166 6.9988 17.9305C6.99259 17.8929 6.99259 17.8545 6.9988 17.8169L7.21097 17.438L7.30695 17.39C7.18824 17.4506 7.20592 17.6098 7.30695 17.7057C7.39047 17.9244 7.45058 18.1513 7.48628 18.3826Z" fill="#424145"/>
<path d="M7.35769 18.1907C7.35769 18.1907 7.04449 18.0164 7.02176 17.9129C6.99903 17.8093 7.0849 17.6805 7.17836 17.6855C7.27181 17.6906 7.35769 18.1907 7.35769 18.1907Z" fill="#070709"/>
<path d="M8.22642 17.8118C8.20652 17.8118 8.18722 17.805 8.17163 17.7927C8.15605 17.7803 8.1451 17.763 8.14055 17.7436C8.1366 17.7213 8.14115 17.6983 8.1533 17.6791C8.16545 17.66 8.18433 17.646 8.20622 17.6401C8.29455 17.6228 8.37972 17.5921 8.4588 17.5492H8.48153C8.52447 17.5264 8.54467 17.5492 8.5674 17.5971C8.59014 17.6451 8.59771 17.683 8.5674 17.7032C8.47114 17.7556 8.36711 17.7923 8.25926 17.8118H8.22642Z" fill="#9E9E9E"/>
<path d="M8.48434 17.5416H8.46919C8.39577 17.5801 8.31766 17.609 8.23682 17.6274C8.24218 17.6844 8.25492 17.7404 8.2747 17.7941C8.36142 17.7758 8.44605 17.7488 8.52728 17.7133C8.52237 17.6541 8.50787 17.5961 8.48434 17.5416Z" fill="#BCBCBC"/>
<path d="M14.2936 23.2145C14.2279 23.169 13.9425 23.2423 13.8718 23.2145C13.551 23.0478 13.1393 22.8407 12.8211 22.6689C12.5028 22.4972 12.1442 22.3102 11.8108 22.1259C10.7516 21.55 9.69584 20.9682 8.64343 20.3805L7.84781 19.9335L7.22899 19.5849L6.00146 18.8878L4.8194 18.2084C4.438 17.9861 4.06166 17.7714 3.72573 17.5643C3.12712 17.2107 2.84171 17.0314 2.25067 16.6676L1.62933 16.2837L1.5965 16.2635L1.23531 16.0337L1.13175 15.9655L1.09639 15.9427C0.961275 15.8685 0.810525 15.8273 0.656448 15.8225C0.502371 15.8177 0.349336 15.8494 0.20984 15.915C0.131561 15.9443 0.0614219 15.9919 0.00525091 16.0539C0.000202823 16.1093 0.000202823 16.1651 0.00525091 16.2206C0.0156496 16.2637 0.0349532 16.3042 0.0619217 16.3394C0.0888902 16.3747 0.122928 16.4039 0.16185 16.4252L0.212365 16.4529L0.250252 16.4732L0.366438 16.5338L0.472522 16.5893L0.800873 16.7611L0.947368 16.8419L1.46768 17.1198L1.50557 17.1425L1.66469 17.2284C2.71542 17.7992 3.43274 18.2084 4.48094 18.8045L5.30182 19.2844L6.50914 19.9941L7.11281 20.3502C8.0625 20.9126 9.00799 21.4793 9.94926 22.0501L10.0857 22.136C10.5487 22.4172 11.0093 22.7001 11.4673 22.9846L11.5481 23.0351C11.9909 23.3079 12.4304 23.5841 12.8665 23.8636C13.0278 23.9523 13.2078 24.0016 13.3917 24.0073C13.5757 24.013 13.7584 23.975 13.9248 23.8964C14.2406 23.7297 14.5285 23.3786 14.2936 23.2145Z" fill="#0D0D15"/>
<path d="M13.9322 23.7904C13.7658 23.8687 13.5833 23.9068 13.3994 23.9015C13.2155 23.8963 13.0355 23.8478 12.8739 23.7601C12.4361 23.4805 11.9966 23.2035 11.5554 22.9291L11.4746 22.8786C11.0149 22.5923 10.5544 22.3094 10.093 22.0299L9.95659 21.9465C9.01531 21.3723 8.06983 20.8049 7.12013 20.2442L6.51647 19.888L5.30157 19.1783L4.47058 18.6959C3.82398 18.3246 3.29609 18.024 2.73537 17.7133L2.21001 17.4229L1.65686 17.1198L1.49773 17.0339L1.45985 17.0137L0.939536 16.7333L0.793041 16.655L0.464689 16.4807L0.358606 16.4252L0.24242 16.3671L0.204533 16.3469L0.151492 16.3166C-0.0783545 16.1675 -0.0556226 15.9402 0.204533 15.8114C0.343749 15.7464 0.496295 15.7151 0.649858 15.7199C0.80342 15.7247 0.953697 15.7656 1.08856 15.8392L1.12392 15.8645L1.22748 15.9301L1.58866 16.16L1.6215 16.1802L2.24284 16.5666L3.18496 17.145L3.71537 17.4633L4.1195 17.7007L4.80904 18.1048C5.19043 18.3271 5.58698 18.5544 5.9911 18.7843C6.39523 19.0141 6.80693 19.249 7.21864 19.4814L7.83745 19.8325L8.63308 20.277C9.68548 20.8663 10.7413 21.4481 11.8004 22.0223C12.1363 22.2067 12.4748 22.386 12.8107 22.5654C13.2554 22.8297 13.7292 23.0416 14.2226 23.1968C14.5182 23.2625 14.2403 23.6312 13.9322 23.7904Z" fill="#B50202"/>
<path d="M13.6368 23.2271C13.6368 23.2271 13.5333 23.0579 13.4196 22.8785L13.3464 22.8407L12.821 22.5679C12.4598 22.6765 11.8764 22.8432 11.5581 22.9366L11.8865 23.1412C12.465 23.2337 13.052 23.2625 13.6368 23.2271Z" fill="#830209"/>
<path d="M2.49288 16.7965L2.40953 16.6601L2.24788 16.5616L1.62654 16.1751L1.5937 16.1549L0.469727 16.4807L0.798078 16.655L0.944574 16.7333C1.4575 16.8035 1.97594 16.8246 2.49288 16.7965Z" fill="#830209"/>
<path d="M4.16515 17.7689C3.69081 17.7966 3.21495 17.7822 2.74314 17.7259L2.21777 17.4355L3.19273 17.1526L3.72314 17.4708L4.12727 17.7083L4.16515 17.7689Z" fill="#830209"/>
<path d="M12.25 22.429L12.0883 22.1764L11.808 22.0248L11.3634 21.7798L10.2192 22.1132L10.4415 22.2496L10.6158 22.3557C11.1567 22.4343 11.7042 22.4588 12.25 22.429Z" fill="#830209"/>
<path d="M10.8583 21.6283C10.8583 21.6283 10.8103 21.5475 10.7421 21.4389L10.237 21.1585L9.93891 20.9943C9.61814 21.0903 9.18117 21.2166 8.88818 21.2999L9.34283 21.5702C9.84509 21.6365 10.3524 21.6559 10.8583 21.6283Z" fill="#830209"/>
<path d="M8.6733 20.7367C8.5806 20.7839 8.47804 20.8085 8.374 20.8085C8.26996 20.8085 8.16739 20.7839 8.07469 20.7367L7.86758 20.6129L7.63015 20.4715H7.60742C7.77807 20.5304 7.96508 20.5195 8.12773 20.4412C8.2717 20.3603 8.29696 20.234 8.19593 20.1406H8.21108L8.46366 20.277L8.67836 20.3982H8.69098C8.83748 20.4892 8.83748 20.6432 8.6733 20.7367Z" fill="#070709"/>
<path d="M8.12792 20.421C7.96526 20.4993 7.77825 20.5102 7.60761 20.4513L7.32219 20.277L6.95343 20.0598L4.99089 18.8929L4.68022 18.711L4.62213 18.6731C4.564 18.6067 4.52322 18.5268 4.50342 18.4408C4.5994 18.3675 4.69285 18.2943 4.79641 18.2261L4.83177 18.2033L4.86208 18.221L5.27883 18.461L5.72337 18.7135L6.18559 18.9661L6.64781 19.2187L7.09487 19.4713L7.51668 19.7087L7.89302 19.9209L8.19864 20.0926C8.29715 20.2139 8.27189 20.3402 8.12792 20.421Z" fill="#424145"/>
<path d="M4.70296 17.9482L4.50342 18.4155V18.4509L4.73579 18.2463L5.04899 17.7689L4.70296 17.9482Z" fill="#070709"/>
<path d="M4.92032 18.3498C4.89001 18.3321 4.89001 18.0265 4.8597 18.0114L4.51367 18.4635C4.51367 18.4786 4.51367 18.4938 4.51367 18.5089L4.72079 18.6302L5.05671 18.4357L4.92032 18.3498Z" fill="#070709"/>
<path d="M6.66282 19.7592L6.62493 19.7365L6.18545 19.4839L5.72828 19.2187L5.27111 18.951L4.8291 18.6984L5.16756 18.5039L5.61209 18.7565L6.07431 19.0091L6.53653 19.2616L6.98612 19.5142L7.02401 19.5344L6.66282 19.7592Z" fill="#070709"/>
<path d="M7.06961 20.0421L6.86249 19.9158L6.58971 19.7541L6.35986 19.6178L6.73873 19.398L6.99131 19.5319L7.26915 19.6885L7.48384 19.8072C7.50637 19.8181 7.52555 19.8349 7.53933 19.8558C7.55311 19.8767 7.56099 19.9009 7.56214 19.9259C7.55861 19.9512 7.54862 19.9752 7.53314 19.9956C7.51766 20.0159 7.4972 20.0319 7.47373 20.0421C7.41099 20.0734 7.34181 20.0898 7.27167 20.0898C7.20153 20.0898 7.13235 20.0734 7.06961 20.0421Z" fill="#070709"/>
<path d="M12.121 22.6083C11.777 22.643 11.4308 22.6514 11.0854 22.6336L11.482 22.8861L12.121 22.6083Z" fill="#F2F2F2"/>
<path d="M10.6816 21.7798C10.3662 21.812 10.0488 21.8221 9.73193 21.8102L9.95673 21.9465L10.0931 22.0299L10.6816 21.7798Z" fill="#F2F2F2"/>
<path d="M2.40463 17.0112C2.10514 17.0422 1.80389 17.0532 1.50293 17.044L1.66205 17.1299L1.86664 17.241L2.40463 17.0112Z" fill="#F2F2F2"/>
<path d="M13.4117 23.3559C13.0324 23.3959 12.6504 23.4027 12.27 23.3761L12.3407 23.4191L12.7095 23.654L13.4117 23.3559Z" fill="#F2F2F2"/>
<path d="M6.00396 19.4132C5.44071 19.1606 4.84968 18.7135 4.87746 18.4685C4.87746 18.418 4.82442 17.2688 4.81937 17.2385C4.81431 17.2082 5.43566 17.1223 5.92061 17.0541C5.98375 17.3067 5.92061 17.7664 6.03679 18.1478C6.07973 18.2033 6.1353 18.2741 6.19844 18.3498L6.34999 18.5292L6.47123 18.6706L6.59499 18.8146C6.70613 18.9409 6.79453 19.0368 6.81474 19.0672C6.83253 19.0803 6.84865 19.0956 6.86273 19.1126C6.92921 19.1833 6.97545 19.2705 6.99659 19.3652C7.03448 19.6304 6.58741 19.6632 6.00396 19.4132Z" fill="#253137"/>
<path d="M6.07978 18.2008L6.03432 18.1452C6.03432 18.1023 6.01411 18.0594 6.00653 18.0164C5.77761 18.1489 5.50984 18.198 5.2488 18.1553C5.23856 18.2287 5.24725 18.3035 5.27406 18.3726C5.55465 18.4178 5.84204 18.3566 6.07978 18.2008Z" fill="#CA0101"/>
<path d="M6.00396 19.4132C5.45334 19.1783 4.87746 18.7338 4.87746 18.4837V18.4685C4.87746 18.4559 4.87746 18.3877 4.87746 18.2917C4.87746 18.1958 4.87746 18.1023 4.8623 17.9886C4.92794 18.0346 4.99821 18.0735 5.07195 18.1048C5.07684 18.1374 5.08444 18.1695 5.09468 18.2008C5.11576 18.2605 5.14837 18.3154 5.19066 18.3625C5.44548 18.5889 5.74008 18.7662 6.05953 18.8853C6.14793 18.8853 6.23381 19.1379 6.31211 19.1379C6.39833 19.1601 6.48842 19.1627 6.57581 19.1457C6.6632 19.1286 6.74569 19.0923 6.81726 19.0394C6.83506 19.0525 6.85118 19.0678 6.86525 19.0848C6.88408 19.106 6.90099 19.1288 6.91577 19.153C6.95655 19.2049 6.98504 19.2654 6.99912 19.3298C7.03448 19.6304 6.58742 19.6632 6.00396 19.4132Z" fill="#CA0101"/>
<path d="M6.00396 19.4132C5.45334 19.1783 4.87746 18.7338 4.87746 18.4837V18.4685C4.87746 18.4559 4.87746 18.3877 4.87746 18.2917C4.87746 18.1958 4.87746 18.1023 4.8623 17.9886C4.92794 18.0346 4.99821 18.0735 5.07195 18.1048C5.07684 18.1374 5.08444 18.1695 5.09468 18.2008C5.10889 18.3277 5.14121 18.4519 5.19066 18.5696C5.25633 18.7161 5.41293 18.9333 5.58215 18.951C5.60741 18.951 5.70087 18.8196 5.77664 18.8247C5.86398 18.8599 5.94436 18.9104 6.01406 18.9737C6.18582 19.1328 6.18329 19.292 6.46618 19.3223C6.63035 19.3425 6.84757 19.3223 6.91577 19.1682C6.95655 19.2201 6.98504 19.2805 6.99912 19.345C7.03448 19.6304 6.58742 19.6632 6.00396 19.4132Z" fill="#AA0000"/>
<path d="M6.34983 18.5266C6.30761 18.5155 6.26323 18.5155 6.22101 18.5266C5.94104 18.5879 5.68691 18.7343 5.49359 18.9459C5.48678 18.961 5.47577 18.9738 5.46189 18.9827C5.448 18.9917 5.43182 18.9964 5.41529 18.9964C5.40374 18.9998 5.39147 18.9998 5.37993 18.9964C5.36938 18.9921 5.35986 18.9857 5.35199 18.9774C5.34412 18.9692 5.33808 18.9594 5.33426 18.9487C5.33044 18.9379 5.32894 18.9265 5.32985 18.9152C5.33075 18.9038 5.33405 18.8928 5.33952 18.8828C5.55934 18.6208 5.86255 18.4425 6.19828 18.3776C6.25385 18.317 6.4054 18.4635 6.34983 18.5266Z" fill="#9E9E9E"/>
<path d="M5.4129 18.365C5.20077 18.3635 4.99367 18.3003 4.81682 18.1831C4.79798 18.1699 4.78506 18.1498 4.78081 18.1271C4.77657 18.1045 4.78133 18.0811 4.79408 18.0619C4.80688 18.0432 4.82653 18.0304 4.84876 18.0261C4.87099 18.0218 4.89401 18.0265 4.9128 18.0392C5.022 18.1147 5.14687 18.1647 5.27808 18.1852C5.40929 18.2058 5.54345 18.1964 5.67053 18.1579C5.68148 18.1548 5.69292 18.154 5.7042 18.1554C5.71548 18.1568 5.72637 18.1604 5.73623 18.166C5.7461 18.1717 5.75475 18.1792 5.76168 18.1882C5.76862 18.1972 5.77369 18.2075 5.77661 18.2185C5.77967 18.2294 5.78052 18.2409 5.77913 18.2522C5.77773 18.2634 5.7741 18.2743 5.76846 18.2842C5.76283 18.2941 5.75528 18.3027 5.74628 18.3096C5.73727 18.3166 5.72698 18.3216 5.716 18.3246C5.61747 18.3527 5.51536 18.3664 5.4129 18.365Z" fill="#9E9E9E"/>
<path d="M5.68072 18.7792C5.72868 18.7446 5.77842 18.7126 5.82975 18.6832C5.78176 18.6453 5.73377 18.6075 5.6883 18.567C5.64284 18.5948 5.60242 18.6251 5.56201 18.6529C5.5999 18.6832 5.64031 18.7262 5.68072 18.7792Z" fill="#BCBCBC"/>
<path d="M6.10506 18.3928C6.09834 18.3864 6.09316 18.3787 6.0899 18.37C5.97741 18.4045 5.86901 18.451 5.7666 18.5089C5.81319 18.5504 5.8621 18.5892 5.9131 18.6251C6.00881 18.572 6.11311 18.5361 6.22124 18.519C6.19194 18.4692 6.15233 18.4261 6.10506 18.3928Z" fill="#E5E5E5"/>
<path d="M6.59473 18.812C6.33948 18.8838 6.1094 19.0256 5.93045 19.2212C5.92328 19.2358 5.91211 19.2481 5.89825 19.2566C5.88439 19.2651 5.8684 19.2694 5.85215 19.2692C5.83963 19.2716 5.82678 19.2716 5.81426 19.2692C5.79376 19.2589 5.77807 19.241 5.77053 19.2193C5.76299 19.1976 5.76418 19.1738 5.77385 19.153C5.95627 18.931 6.19804 18.7655 6.47097 18.6756C6.53916 18.6605 6.63514 18.7792 6.59473 18.812Z" fill="#9E9E9E"/>
<path d="M6.38783 18.7009C6.30051 18.7403 6.21611 18.7859 6.13525 18.8373L6.21103 18.9055L6.26407 18.9611C6.34415 18.9119 6.42872 18.8704 6.51665 18.8373C6.46613 18.7918 6.42824 18.7438 6.38783 18.7009Z" fill="#E5E5E5"/>
<path d="M6.1149 18.9459L6.0467 18.8878C6.00273 18.9182 5.96056 18.9511 5.92041 18.9863C5.96356 19.0256 6.01004 19.0611 6.05933 19.0924C6.09469 19.0646 6.13258 19.0368 6.17804 19.0065L6.1149 18.9459Z" fill="#BCBCBC"/>
<path d="M4.91748 18.2412C4.98638 18.278 5.05926 18.3068 5.1347 18.3271C5.1347 18.2665 5.1347 18.2058 5.1347 18.1452C5.06758 18.122 5.0032 18.0915 4.94274 18.0543C4.92919 18.1158 4.92074 18.1783 4.91748 18.2412Z" fill="#BCBCBC"/>
<path d="M5.4458 18.365C5.53112 18.3636 5.61595 18.3517 5.69838 18.3296C5.69337 18.2919 5.69337 18.2537 5.69838 18.216C5.69585 18.2077 5.69585 18.1989 5.69838 18.1907C5.69963 18.1798 5.69963 18.1688 5.69838 18.1579C5.61591 18.1798 5.53111 18.1916 5.4458 18.1932C5.45335 18.2502 5.45335 18.308 5.4458 18.365Z" fill="#BCBCBC"/>
<path d="M7.02431 19.9689L7.37792 19.7466C7.37792 19.7466 7.02431 18.8878 6.73131 19.0141C6.37013 19.1732 7.02431 19.9689 7.02431 19.9689Z" fill="#070709"/>
<path d="M7.03954 19.244C7.14554 19.4247 7.24002 19.612 7.32243 19.8047L7.39063 19.7466C7.39063 19.7466 7.03702 18.8878 6.74403 19.0141L6.70361 19.0394C6.84253 18.9939 6.96882 19.1202 7.03954 19.244Z" fill="#565559"/>
<path d="M6.67575 19.1404C6.65845 19.1468 6.64288 19.1572 6.63029 19.1707C6.61513 19.4561 7.03189 19.9638 7.03189 19.9638L7.0622 19.9461C6.86035 19.7191 6.72643 19.4399 6.67575 19.1404Z" fill="#424145"/>
<path d="M7.09484 19.9234L7.14535 19.8931C7.05937 19.6256 6.91632 19.38 6.72607 19.1732C6.77814 19.4523 6.90568 19.7117 7.09484 19.9234Z" fill="#424145"/>
<path d="M7.02407 19.9688L6.49365 19.6784L6.62499 19.494L6.68056 19.4207L7.02407 19.9688Z" fill="#36353B"/>
<path d="M6.81948 19.8047L6.49365 19.6784L6.62499 19.494L6.81948 19.8047Z" fill="#070709"/>
<path d="M4.98823 18.8929L4.67756 18.711L4.61947 18.6731C4.56134 18.6066 4.52056 18.5268 4.50076 18.4408C4.49454 18.4031 4.49454 18.3647 4.50076 18.3271L4.71292 17.9482L4.80638 17.9002C4.69019 17.9609 4.70787 18.12 4.80638 18.216C4.89183 18.4342 4.95282 18.6612 4.98823 18.8929Z" fill="#424145"/>
<path d="M4.85949 18.7009C4.85949 18.7009 4.54376 18.5292 4.52356 18.4231C4.50335 18.317 4.5867 18.1907 4.68016 18.1958C4.77361 18.2008 4.85949 18.7009 4.85949 18.7009Z" fill="#070709"/>
<path d="M6.77403 2.64704L6.53661 2.3793L5.21057 2.80616C5.10954 2.96276 5.00346 3.11683 4.8999 3.2709V4.0539L7.19584 4.21807L8.04703 3.4856L6.77403 2.64704Z" fill="#253137"/>
<path d="M6.05922 2.81373C6.31613 2.75793 6.5758 2.71577 6.83716 2.68744L7.74645 3.28352C7.7616 3.36688 7.7717 3.4477 7.78686 3.52095C7.80201 3.5942 7.80454 3.63208 7.81464 3.68765L7.19835 4.21806L6.94577 4.20038L6.78665 4.16502C6.36688 4.09436 5.96468 3.94343 5.60206 3.72048L5.47324 3.60935C5.10448 3.23553 5.76118 2.8895 6.05922 2.81373Z" fill="#1E1F23"/>
<path d="M7.17851 10.4062C7.18215 11.5835 7.06621 12.7582 6.83248 13.912C6.75418 14.2858 6.4031 15.2027 6.345 15.7735C6.27428 16.4883 6.24397 17.2006 6.16062 17.6047C6.13267 17.7487 6.05263 17.8773 5.93583 17.9659C5.74917 18.0854 5.52594 18.1343 5.30642 18.1038C5.08689 18.0732 4.88551 17.9652 4.7386 17.7992C4.70191 17.7561 4.67482 17.7056 4.65914 17.6511C4.64346 17.5967 4.63956 17.5396 4.64768 17.4835C4.81438 16.3444 4.63252 15.5614 5.15283 14.5132C5.23871 14.3338 5.49634 13.7958 5.45845 13.5433C5.45845 13.5433 4.72598 9.18629 5.59485 8.23912C5.6984 8.20376 5.68072 8.90592 6.03433 8.83015C6.16862 8.80312 6.30768 8.81226 6.43727 8.85664C6.56687 8.90102 6.68234 8.97905 6.77186 9.08273L7.25934 8.95897C7.30985 9.21155 7.37047 9.46412 7.43109 9.7167L7.15073 9.94655C7.16787 10.0992 7.17715 10.2526 7.17851 10.4062Z" fill="#CA0101"/>
<path d="M5.9733 10.5957C6.13536 10.5454 6.28871 10.4704 6.42794 10.3734C5.95814 10.3481 5.41763 10.1814 5.32165 10.7068C5.21696 11.1566 5.23176 11.6259 5.36458 12.0682C5.65281 12.0365 5.93512 11.9642 6.20314 11.8535C6.05863 12.0739 5.87035 12.2621 5.65 12.4067C5.78123 12.4142 5.91279 12.4142 6.04402 12.4067C5.91361 12.5873 5.79385 12.7753 5.68536 12.9699C5.60706 13.2225 5.81165 13.6291 5.62727 13.8236C5.7687 13.8322 5.9086 13.8577 6.04402 13.8994C5.90914 13.9795 5.75818 14.0286 5.60201 14.0434C5.70587 14.0586 5.80816 14.0831 5.90763 14.1166C5.44288 14.2656 5.40247 14.647 5.27618 15.0562C5.07664 15.7356 4.89984 16.2736 5.63484 16.65C5.4162 16.6348 5.19678 16.6348 4.97814 16.65C4.99329 17.0036 5.39994 17.0945 5.6702 17.1551C5.44793 17.3042 5.27871 17.5264 5.03876 17.6603C5.23072 17.9381 5.64242 17.8775 5.93541 17.9659C5.74875 18.0854 5.52553 18.1343 5.306 18.1037C5.08647 18.0732 4.8851 17.9652 4.73819 17.7992C4.66494 17.7083 4.56138 17.6224 4.57149 17.4734C4.73566 16.3368 4.57149 15.5386 5.07664 14.493C5.22882 14.1976 5.315 13.8727 5.32922 13.5407C5.0918 11.7373 4.69778 9.09536 5.04886 8.17092C5.15494 8.13556 5.66515 8.92865 6.01876 8.85035C6.15305 8.82332 6.29211 8.83246 6.4217 8.87684C6.5513 8.92123 6.66677 8.99925 6.75629 9.10293L7.24377 8.97917C7.29428 9.23175 7.3549 9.48433 7.41552 9.7369L7.13516 9.96675C7.15635 10.1175 7.16984 10.2693 7.17557 10.4214C6.78951 10.5553 6.38149 10.6144 5.9733 10.5957Z" fill="#B50202"/>
<path d="M7.63052 9.97178L7.55222 10.0097C7.15461 10.1803 6.71784 10.2389 6.28933 10.1789C5.95202 10.1364 5.62468 10.0356 5.32195 9.88085C5.04637 9.76062 4.82754 9.53908 4.71071 9.26204C4.56485 8.03349 4.52345 6.79478 4.58695 5.55924C4.61978 4.8015 4.68798 4.22057 4.79406 4.12712C4.84458 3.8215 5.86752 3.48304 6.51917 3.36938C6.73028 3.32112 6.94794 3.30832 7.16325 3.3315C7.47338 3.37288 7.7761 3.45792 8.06243 3.58407C8.68377 4.04377 8.37562 4.98083 8.44382 5.49357C8.63578 6.96357 8.56758 8.15322 8.6282 8.89075C8.66104 9.34286 8.11547 9.72426 7.63052 9.97178Z" fill="#253137"/>
<path d="M7.60763 9.87833L7.5268 9.91369C7.49902 9.60807 7.16814 4.6348 7.08984 3.98315L7.17319 3.97052C7.26412 4.69542 7.595 9.72173 7.60763 9.87833Z" fill="#CA0101"/>
<path d="M5.88525 6.8373C6.15299 6.56199 6.47881 6.22353 6.79959 5.8775L6.81474 5.98864C6.46366 6.36245 6.1252 6.71354 5.89536 6.94844L5.88525 6.8373Z" fill="#CA0101"/>
<path d="M8.28971 6.12502V6.23363L7.81738 5.76383C7.81738 5.72594 7.81738 5.68553 7.81738 5.64764C8.08006 5.91285 8.23666 6.07198 8.28971 6.12502Z" fill="#CA0101"/>
<path d="M7.84749 3.47546L7.17816 4.10691L7.14533 4.13722L7.09229 4.12207L7.14028 3.13196L7.84749 3.47546Z" fill="#CA0101"/>
<path d="M6.47615 2.27826L6.40542 3.54115C6.40244 3.59422 6.40994 3.64736 6.42749 3.69753C6.44504 3.74771 6.4723 3.79393 6.50772 3.83357C6.54313 3.87321 6.58601 3.90548 6.6339 3.92855C6.68178 3.95161 6.73375 3.96502 6.78682 3.96801C6.83989 3.97099 6.89303 3.9635 6.9432 3.94595C6.99337 3.92839 7.0396 3.90113 7.07924 3.86572C7.11887 3.8303 7.15115 3.78743 7.17421 3.73954C7.19728 3.69165 7.21069 3.63969 7.21368 3.58662C7.21499 3.56727 7.21499 3.54786 7.21368 3.52852L7.10759 2.26563C7.10055 2.18709 7.06437 2.11404 7.00617 2.06083C6.94798 2.00762 6.87198 1.97812 6.79313 1.97812C6.71428 1.97812 6.63828 2.00762 6.58009 2.06083C6.5219 2.11404 6.48572 2.18709 6.47867 2.26563L6.47615 2.27826Z" fill="#F2B09E"/>
<path d="M7.17831 4.10693L7.14548 4.13724L7.09244 4.12208L5.52393 3.66239L6.00382 3.07641L6.43826 2.95517L6.41048 3.62955L7.09496 4.05389L7.17831 4.10693Z" fill="#CA0101"/>
<path d="M7.60024 3.01074L8.02962 3.26332L7.09508 4.05389L7.06982 3.7508L7.18854 3.37193L7.60024 3.01074Z" fill="#192226"/>
<path d="M6.54929 2.55861C6.62759 2.65459 6.57708 2.85666 6.7463 3.06377C6.8915 3.24371 7.07312 3.39091 7.27924 3.49568C7.34891 3.54212 7.43224 3.56365 7.51569 3.55678C7.59914 3.5499 7.67781 3.51502 7.73894 3.45779C7.87727 3.25857 7.98695 3.04091 8.06476 2.81119C8.21774 2.34767 8.26942 1.85671 8.21631 1.37149C8.01172 0.767832 7.63285 0.613759 6.93574 0.669326C6.13759 0.729945 5.92795 1.77562 6.54929 2.55861Z" fill="#FFCCBC"/>
<path d="M7.14521 1.80342C7.01387 1.95749 6.89263 2.16461 6.77897 2.34141C6.63753 2.40708 6.49356 2.48538 6.49356 2.48538C6.30125 2.30505 6.18704 2.05669 6.17531 1.79332C6.11759 1.53623 6.15529 1.26693 6.28139 1.03558L7.14521 1.80342Z" fill="#263238"/>
<path d="M8.1787 1.81604C7.37803 2.11408 6.54957 1.92717 6.26416 1.15176C6.297 0.49758 7.35782 0.28794 7.95391 0.775417C8.42118 1.15934 8.44644 1.71501 8.1787 1.81604Z" fill="black"/>
<path d="M6.61995 2.13935C6.48355 1.75291 6.23098 1.94487 6.21582 2.09894C6.21678 2.20936 6.25138 2.31687 6.31501 2.40713C6.37864 2.49738 6.46827 2.56609 6.57196 2.6041C6.59721 2.6041 6.64268 2.42982 6.64268 2.36415C6.64851 2.28846 6.64082 2.21234 6.61995 2.13935Z" fill="#FFCCBC"/>
<path d="M7.08229 3.07641L7.09492 4.05388C6.91013 4.01213 6.73174 3.94587 6.5645 3.85687C6.22857 3.6927 6.24625 2.84656 6.24625 2.84656L6.46095 2.75058V2.96527L7.08229 3.07641Z" fill="#192226"/>
<path d="M6.4458 3.06631C6.4458 3.08147 6.87771 3.83668 7.0141 3.87709C7.0141 3.60683 7.05199 3.09662 7.05199 3.09662L6.4458 3.06631Z" fill="#253137"/>
<path d="M6.73354 9.58535C6.37749 9.71942 6.00841 9.81592 5.6323 9.87329H5.31658C5.041 9.75306 4.82216 9.53152 4.70534 9.25448C4.55948 8.02593 4.51808 6.78722 4.58158 5.55168C5.064 5.2991 5.59189 4.9859 5.59189 4.9859C5.59189 4.9859 5.11452 5.53147 4.90235 5.82194C5.40858 5.54883 5.92971 5.30429 6.46328 5.08946C6.41529 5.13997 4.94781 6.70596 4.92256 6.70596C4.66998 7.21112 4.83668 8.38308 4.83668 8.38308L6.80174 7.41318L5.37467 8.67607C5.69476 8.56244 6.02445 8.47791 6.35973 8.42349C6.35973 8.42349 5.7207 9.14587 5.3873 9.43381C5.8314 9.5194 6.28153 9.57007 6.73354 9.58535Z" fill="#1E1F23"/>
<path d="M6.07703 2.18987C6.11997 2.5258 6.32961 2.5258 6.42559 2.5258C6.42559 2.29595 6.93074 1.87162 7.09744 1.76806C7.16059 1.73018 8.30477 1.51549 8.36034 1.51549C8.4159 1.51549 8.54219 1.15177 8.34013 1.11894C8.2492 1.00023 7.7592 0.0101175 7.58239 0.00506592C7.54029 0.0169603 7.50199 0.03959 7.47126 0.0707368C7.44548 0.0908936 7.41849 0.109451 7.39044 0.126304C7.22319 0.195393 7.04568 0.236358 6.86507 0.247542C6.56477 0.228352 6.26327 0.241903 5.96589 0.287954C5.92639 0.299464 5.89066 0.321254 5.86234 0.351099C5.76888 0.459708 5.86234 0.477388 5.86234 0.588522C5.86234 0.699657 5.78656 0.818369 5.77646 0.942133C5.7512 1.25028 5.65775 1.69987 5.96337 2.00549C5.99422 2.02649 6.02029 2.05377 6.03988 2.08555C6.05947 2.11732 6.07212 2.15287 6.07703 2.18987Z" fill="#B50202"/>
<path d="M5.97119 0.282899C6.14547 0.512745 6.30712 0.47991 6.58748 0.555683C6.8148 0.616302 7.12042 0.735014 7.32754 0.808262C7.15682 0.814266 6.98734 0.839688 6.82238 0.884036C7.09264 1.04316 8.13326 1.31342 8.108 0.884036C8.09032 0.611251 7.75439 0.22228 7.47403 0.0682068C7.44825 0.0883635 7.42126 0.106921 7.39321 0.123774C7.22596 0.192863 7.04845 0.233828 6.86784 0.245012C6.56847 0.22517 6.26783 0.237874 5.97119 0.282899Z" fill="#CA0101"/>
<path d="M6.33213 8.36036C6.2621 8.29046 6.18311 8.23016 6.09723 8.18103C5.9344 8.15374 5.76717 8.173 5.61481 8.2366C5.50115 8.28711 5.81434 8.48917 5.92043 8.44876C5.96544 8.49504 6.02219 8.52822 6.0846 8.54474C6.12206 8.55597 6.16196 8.55623 6.19956 8.54549C6.23716 8.53474 6.27089 8.51345 6.29677 8.48412C6.34728 8.43866 6.37254 8.4235 6.33213 8.36036Z" fill="#CA0101"/>
<path d="M4.83925 21.1307C4.82873 21.1301 4.81845 21.1273 4.80901 21.1226C4.79958 21.1179 4.79119 21.1114 4.78435 21.1034C4.77751 21.0954 4.77236 21.086 4.76921 21.076C4.76606 21.0659 4.76497 21.0553 4.76601 21.0448L4.88472 19.7643C4.88807 19.7425 4.89993 19.723 4.91769 19.7099C4.92649 19.7035 4.93647 19.6988 4.94706 19.6962C4.95765 19.6936 4.96865 19.6932 4.97943 19.6948C4.99021 19.6965 5.00056 19.7002 5.00989 19.7059C5.01921 19.7116 5.02733 19.719 5.03378 19.7278C5.04023 19.7366 5.04489 19.7466 5.04748 19.7572C5.05007 19.7677 5.05055 19.7788 5.04889 19.7895L4.92766 21.0524C4.92736 21.0635 4.92479 21.0744 4.92011 21.0844C4.91543 21.0945 4.90874 21.1034 4.90045 21.1108C4.89216 21.1181 4.88245 21.1237 4.87192 21.1271C4.8614 21.1305 4.85028 21.1318 4.83925 21.1307Z" fill="#141F23"/>
<path d="M5.18788 20.6205C5.22279 20.636 5.25195 20.662 5.27122 20.695C5.2905 20.7279 5.29892 20.7661 5.29529 20.8041C5.29165 20.8421 5.27616 20.878 5.25099 20.9067C5.22582 20.9354 5.19225 20.9554 5.15505 20.964C5.05816 21.0015 4.9539 21.0159 4.85048 21.0063C4.74705 20.9966 4.64726 20.9632 4.55896 20.9084C4.40489 20.7973 4.41752 20.6432 4.5918 20.5649C4.68845 20.5263 4.7929 20.5112 4.89654 20.5208C5.00018 20.5305 5.10004 20.5647 5.18788 20.6205Z" fill="#253137"/>
<path d="M5.07915 20.6685C5.10182 20.679 5.12069 20.6962 5.1332 20.7178C5.1457 20.7395 5.15122 20.7644 5.14901 20.7893C5.1468 20.8141 5.13696 20.8377 5.12084 20.8568C5.10472 20.8759 5.08311 20.8895 5.05895 20.8958C4.99527 20.9206 4.92669 20.93 4.8587 20.9234C4.79071 20.9168 4.72521 20.8944 4.66745 20.8579C4.5639 20.7847 4.574 20.6837 4.68766 20.6331C4.75102 20.6074 4.8196 20.5972 4.88769 20.6034C4.95579 20.6095 5.02143 20.6319 5.07915 20.6685Z" fill="#070709"/>
<path d="M4.87207 20.7645C4.84951 20.7613 4.82903 20.7496 4.81492 20.7317C4.8008 20.7138 4.79413 20.6912 4.7963 20.6685L5.99352 7.80719C5.99607 7.78416 6.00756 7.76306 6.02551 7.74842C6.04346 7.73377 6.06644 7.72676 6.0895 7.72889C6.11186 7.73144 6.13232 7.74265 6.14649 7.76013C6.16066 7.7776 6.16741 7.79995 6.16528 7.82234L4.96805 20.6862C4.96551 20.7092 4.95402 20.7303 4.93607 20.7449C4.91812 20.7596 4.89514 20.7666 4.87207 20.7645Z" fill="#303E44"/>
<path d="M5.89763 9.77479C5.86925 9.77222 5.84302 9.75859 5.82459 9.73686C5.80617 9.71512 5.79702 9.68702 5.79912 9.6586L5.9734 7.80468C5.97905 7.77874 5.994 7.75577 6.01543 7.74011C6.03686 7.72444 6.06328 7.71717 6.0897 7.71966C6.11613 7.72214 6.14073 7.73422 6.15886 7.75361C6.17698 7.773 6.18739 7.79835 6.18809 7.82488L6.01634 9.68639C6.0114 9.7134 5.9964 9.73754 5.97438 9.75394C5.95235 9.77034 5.92493 9.77779 5.89763 9.77479Z" fill="#08181E"/>
<path d="M6.16045 7.8173C6.15855 7.83294 6.15063 7.84723 6.13837 7.85713C6.12611 7.86703 6.11048 7.87177 6.09478 7.87034C6.08714 7.86971 6.07971 7.86757 6.0729 7.86404C6.06609 7.86052 6.06004 7.85568 6.05511 7.84981C6.05018 7.84394 6.04646 7.83716 6.04417 7.82984C6.04187 7.82253 6.04105 7.81483 6.04174 7.8072C6.04365 7.79155 6.05157 7.77727 6.06383 7.76737C6.07609 7.75747 6.09172 7.75273 6.10741 7.75416C6.11505 7.75479 6.12249 7.75693 6.1293 7.76046C6.13611 7.76398 6.14215 7.76881 6.14708 7.77468C6.15201 7.78055 6.15573 7.78734 6.15803 7.79466C6.16032 7.80197 6.16115 7.80967 6.16045 7.8173Z" fill="#253137"/>
<path d="M6.47373 8.42349C6.39417 8.38943 6.3072 8.37639 6.22115 8.3856C5.86502 8.17091 5.30177 8.20122 5.35734 8.67607C5.4129 9.15091 6.11507 9.52473 6.42827 9.012C6.48574 8.9257 6.51161 8.82219 6.50152 8.719C6.56466 8.6205 6.58992 8.49926 6.47373 8.42349Z" fill="#474246"/>
<path d="M6.33961 8.75184C6.30425 8.34013 5.86476 8.32498 5.53893 8.31235C5.47331 8.34508 5.42009 8.39825 5.38729 8.46385C5.3545 8.52944 5.34389 8.60392 5.35708 8.67606C5.40254 9.1105 5.90012 9.40601 6.24363 9.1989C6.30937 9.05917 6.3422 8.90623 6.33961 8.75184Z" fill="#CA0101"/>
<path d="M5.55405 8.06987C5.34189 7.96126 4.83168 7.36771 4.44271 7.15554C4.42503 7.13533 4.26591 7.201 4.24822 7.1808C4.44271 6.94843 4.63719 6.76152 5.17771 5.59208C5.48586 4.9278 4.94787 4.2029 4.77864 4.12712C4.46292 3.99831 2.70497 6.56198 2.75801 7.13533C2.79842 7.66827 3.21013 8.16333 3.81631 8.52199C4.4225 8.88065 5.26611 9.26204 5.41261 8.9539C5.35704 8.85539 5.55911 8.31235 5.61467 8.23658C5.62478 8.22395 5.6071 8.09008 5.55405 8.06987Z" fill="#2B3A3F"/>
<path d="M8.37825 0.616287C8.37088 0.597304 8.36245 0.578751 8.35299 0.560719C8.3359 0.535253 8.31734 0.510797 8.29742 0.487472C8.26949 0.44944 8.2332 0.418331 8.19134 0.396544C8.1437 0.37399 8.09234 0.360297 8.03979 0.356132C7.97923 0.352359 7.9185 0.352359 7.85794 0.356132C7.73004 0.354508 7.60229 0.365506 7.47654 0.388966L7.36794 0.406646C7.20732 0.428793 7.05322 0.48475 6.91582 0.570823C6.88203 0.597378 6.84997 0.626062 6.81984 0.6567C6.74096 0.735333 6.68506 0.834025 6.65819 0.942113C6.64303 1.00833 6.63792 1.07644 6.64304 1.14418C6.64304 1.28815 6.73649 1.56598 6.97644 1.58366C7.07305 1.58501 7.16849 1.56245 7.25427 1.51799C7.36755 1.46922 7.46915 1.3969 7.55232 1.30583C7.6062 1.24181 7.64735 1.16808 7.67355 1.08861C7.69257 1.01872 7.71881 0.950999 7.75185 0.886546C7.76456 0.864842 7.7841 0.847965 7.80742 0.838556C7.91098 0.81835 8.00696 0.921907 8.10799 0.995155C8.17729 1.05001 8.25487 1.09349 8.33784 1.12397C8.38179 1.04656 8.4077 0.960216 8.41361 0.871391C8.42275 0.784746 8.41061 0.697179 8.37825 0.616287Z" fill="#1E1F23"/>
<path d="M6.64274 1.1366L6.50635 1.3033L6.68315 1.57356L6.90542 1.48515L6.64274 1.1366Z" fill="#1E1F23"/>
<path d="M5.97363 2.00041L6.55961 1.30835L6.70611 1.48515L6.07972 2.18985L5.97363 2.00041Z" fill="#1E1F23"/>
<path d="M7.11504 0.990121L7.40297 0.39151H7.36761C7.26658 0.596099 7.1706 0.803213 7.07715 1.01285L7.11504 0.990121Z" fill="#E0F7FA"/>
<path d="M7.78432 0.340973C7.69125 0.343123 7.59842 0.351561 7.50648 0.36623L7.25391 0.916851C7.36672 0.813553 7.49894 0.733707 7.64288 0.681953C7.68076 0.57587 7.73128 0.462211 7.78432 0.340973Z" fill="#E0F7FA"/>
<path d="M7.93839 0.340973H7.8803L7.73633 0.654171L7.80958 0.639015L7.93839 0.340973Z" fill="#E0F7FA"/>
<path d="M8.37811 0.616287C8.37075 0.597304 8.36231 0.578751 8.35286 0.560719C8.33576 0.535253 8.31721 0.510797 8.29729 0.487472C8.26936 0.44944 8.23306 0.418331 8.19121 0.396544C8.158 0.379562 8.12211 0.368453 8.08512 0.363708C8.03797 0.454637 7.99251 0.545564 7.94873 0.636493C8.10409 0.633098 8.25883 0.657037 8.4059 0.707215C8.39896 0.676243 8.38967 0.645845 8.37811 0.616287Z" fill="#E0F7FA"/>
<path d="M6.94836 1.09872C7.04686 0.873921 7.15042 0.649126 7.2565 0.429382C7.21549 0.437963 7.175 0.448927 7.13526 0.462218C7.01908 0.714796 6.90037 0.967375 6.78418 1.23763C6.83722 1.18207 6.89026 1.13408 6.94836 1.09872Z" fill="#E0F7FA"/>
</g>
<defs>
<clipPath id="clip0_1232_4813">
<rect width="16.8773" height="24" fill="white"/>
</clipPath>
</defs>
</svg>
