<svg width="36" height="19" viewBox="0 0 36 19" fill="none" xmlns="http://www.w3.org/2000/svg">
<g clip-path="url(#clip0_1232_6763)">
<path d="M13.2231 4.89274C12.7972 4.30836 12.483 3.64912 12.2968 2.94879C11.9168 1.6628 12.0178 0.995876 12.5937 0.708769C13.1697 0.421663 13.4844 1.1185 13.6358 1.70168C13.7872 2.28487 14.5057 2.56599 14.6393 3.21497C14.7156 3.66931 14.7156 4.13335 14.6393 4.5877L13.2231 4.89274Z" fill="#D83570"/>
<path d="M12.585 0.708776C12.1545 0.954013 11.7597 1.58206 12.1694 2.45534C12.4452 3.07821 12.9478 3.57066 13.5736 3.83106C13.9536 3.99854 14.6572 3.74433 14.6602 3.39442C14.6602 2.64376 13.9299 2.51217 13.8349 1.58206C13.7399 0.651957 13.2441 0.334939 12.585 0.708776Z" fill="#360548"/>
<path d="M22.6135 4.89274C23.0395 4.30836 23.3536 3.64912 23.5398 2.94879C23.9198 1.6628 23.8189 0.995876 23.2429 0.708769C22.667 0.421663 22.3523 1.1185 22.2009 1.70168C22.0495 2.28487 21.328 2.56599 21.1974 3.21497C21.121 3.66931 21.121 4.13335 21.1974 4.5877L22.6135 4.89274Z" fill="#D83570"/>
<path d="M23.252 0.708776C23.6795 0.954013 24.0773 1.58206 23.6676 2.45534C23.3918 3.07821 22.8891 3.57066 22.2633 3.83106C21.8833 3.99854 21.1768 3.74433 21.1768 3.39442C21.1768 2.64376 21.9071 2.51217 22.0021 1.58206C22.0971 0.651957 22.6018 0.334939 23.252 0.708776Z" fill="#360548"/>
<path d="M15.1559 4.42022C14.6231 4.20614 14.036 4.17048 13.4815 4.31854C13.1169 4.45683 12.8136 4.72207 12.6265 5.06621C12.6265 5.06621 13.1223 7.45876 13.5735 8.87037C14.0248 10.282 14.3543 12.3575 14.8115 13.3145C15.2687 14.2716 17.4835 12.9048 17.4835 12.9048C17.4835 12.9048 16.7769 10.1085 16.388 8.54438C15.8922 6.57651 15.1559 4.42022 15.1559 4.42022Z" fill="#607FC6"/>
<path d="M20.7133 4.42022C21.2461 4.20614 21.8332 4.17048 22.3877 4.31854C22.7517 4.45651 23.0542 4.72193 23.2398 5.06621C23.2398 5.06621 22.744 7.45876 22.2957 8.87037C21.8474 10.282 21.5119 12.3575 21.0577 13.3145C20.6035 14.2716 18.3857 12.9048 18.3857 12.9048C18.3857 12.9048 19.0923 10.1085 19.4783 8.55036C19.977 6.57651 20.7133 4.42022 20.7133 4.42022Z" fill="#607FC6"/>
<path d="M13.2645 13.6555C13.0125 13.0216 12.9835 12.3198 13.1822 11.6669C13.381 11.014 13.7956 10.4493 14.357 10.0667C16.3847 8.54442 20.17 8.7747 21.7108 10.0667C23.2516 11.3587 22.8034 14.0652 22.8034 14.0652L13.2645 13.6555Z" fill="#D83570"/>
<path d="M13.8108 13.5986C13.8108 13.5986 12.4778 13.5598 11.6228 13.5777C10.7678 13.5957 10.2067 13.7392 9.54463 13.5777C8.63236 13.3208 7.67208 13.289 6.74502 13.485C5.55749 13.7512 3.94542 13.9396 3.2329 13.7033C2.52038 13.4671 2.42835 13.1471 1.47833 13.3534C0.930005 13.4411 0.419155 13.6885 0.00876141 14.0652C-0.0387398 14.134 0.421421 14.4211 0.85487 14.5646C1.28832 14.7082 1.62083 14.8637 1.62083 14.8637C1.62083 14.8637 0.658934 15.0192 0.611433 15.2017C0.563932 15.3841 0.843002 15.423 1.27051 15.4349C1.88483 15.5049 2.50579 15.3861 3.05181 15.094C3.42885 14.8906 4.68763 15.1538 6.04141 15.2555C6.72142 15.3335 7.40554 15.3695 8.08991 15.3632C9.32197 15.2615 11.6525 16.4906 13.7307 16.2604C15.8089 16.0301 13.8108 13.5986 13.8108 13.5986Z" fill="#FEC7C4"/>
<path d="M22.1918 13.5986C22.1918 13.5986 23.5248 13.5598 24.3798 13.5777C25.2349 13.5957 25.7989 13.7392 26.458 13.5777C27.3703 13.3209 28.3306 13.2891 29.2576 13.485C30.4452 13.7512 32.0572 13.9396 32.7697 13.7033C33.4823 13.4671 33.5773 13.1471 34.5243 13.3534C35.0773 13.4402 35.5932 13.6875 36.0087 14.0652C36.0562 14.134 35.5931 14.4211 35.1597 14.5646C34.7262 14.7082 34.3937 14.8637 34.3937 14.8637C34.3937 14.8637 35.3586 15.0192 35.4031 15.2017C35.4476 15.3841 35.1715 15.423 34.744 15.4349C34.1297 15.5047 33.5088 15.3859 32.9627 15.094C32.5857 14.8906 31.3269 15.1538 29.9731 15.2555C29.2941 15.3334 28.611 15.3694 27.9276 15.3632C26.6926 15.2615 24.365 16.4906 22.2868 16.2604C20.2086 16.0301 22.1918 13.5986 22.1918 13.5986Z" fill="#FEC7C4"/>
<path d="M24.6474 14.5916C24.624 14.0789 24.4527 13.5842 24.1546 13.168C24.1546 13.168 22.6286 13.0633 21.2214 13.0484C20.2031 13.0484 19.3867 13.0872 19.3867 13.0872H16.4742C16.4742 13.0872 15.6578 13.0394 14.6395 13.0484C13.2323 13.0484 11.7063 13.168 11.7063 13.168C11.4082 13.5842 11.2369 14.0789 11.2135 14.5916C11.1566 15.215 11.2902 15.8411 11.5965 16.386C11.5965 16.386 13.4579 16.5654 13.9418 16.9093C14.4258 17.2533 15.1976 18.0189 15.6578 18.2611C16.3228 18.6081 17.3619 18.2611 17.9319 18.2611C18.502 18.2611 19.636 18.7038 20.2031 18.2611C20.6128 17.9381 21.4352 17.2503 21.9191 16.9093C22.403 16.5684 24.2644 16.386 24.2644 16.386C24.5707 15.8411 24.7043 15.215 24.6474 14.5916Z" fill="white"/>
<path d="M20.0721 14.469C19.9296 13.5718 19.2586 13.5718 19.2586 13.5718L18.1928 13.5927L17.127 13.5718C17.127 13.5718 16.456 13.5718 16.3135 14.469C16.171 15.3662 16.5065 15.6114 17.0646 16.3561C17.3914 16.7596 17.7709 17.1168 18.1928 17.4178C18.6466 17.0949 19.0568 16.7139 19.413 16.2843C19.98 15.5396 20.2264 15.3692 20.0721 14.469Z" fill="#FFA1A7"/>
<path d="M14.6602 9.86029C14.6602 9.86029 14.957 10.0906 15.055 11.5411C15.0911 12.1875 15.0911 12.8355 15.055 13.482L15.5835 13.3175C15.5835 13.3175 15.6132 12.0794 15.5152 11.0177C15.4172 9.95599 15.1352 9.60309 15.1352 9.60309L14.6602 9.86029Z" fill="#360548"/>
<path d="M21.5034 9.86029C21.5034 9.86029 21.2066 10.0906 21.1115 11.5411C21.0737 12.1875 21.0737 12.8356 21.1115 13.482L20.5831 13.3175C20.5663 12.5503 20.5881 11.7827 20.6484 11.0177C20.7464 9.95599 21.0284 9.60309 21.0284 9.60309L21.5034 9.86029Z" fill="#360548"/>
<path d="M14.6391 13.0364C14.6391 13.0364 13.8583 15.0761 13.7277 16.2484C13.6178 17.2294 14.6658 18.6141 15.5654 17.4058C16.4649 16.1976 16.4739 13.0753 16.4739 13.0753L14.6391 13.0364Z" fill="#360548"/>
<path d="M21.4973 13.0364C21.4973 13.0364 22.2781 15.0761 22.4088 16.2484C22.5186 17.2294 21.4706 18.6141 20.5711 17.4058C19.6715 16.1976 19.6626 13.0753 19.6626 13.0753L21.4973 13.0364Z" fill="#360548"/>
<path d="M18.1364 10.9669C19.0003 10.8801 19.8642 11.1343 20.0691 12.4772C20.0779 13.0488 20.0059 13.6187 19.8553 14.1699C19.6327 15.1837 18.7925 16.057 18.3056 16.0152C17.5575 15.9523 17.2962 15.5636 16.7915 14.6753C15.8534 13.0364 16.3343 11.1523 18.1364 10.9669Z" fill="#FEC7C4"/>
<path d="M16.5897 13.2278C16.5897 13.2278 16.2928 12.7942 16.1384 12.9287C15.9841 13.0633 16.0702 13.482 16.18 13.7063C16.2766 13.8604 16.4145 13.9837 16.5778 14.0622L16.5897 13.2278Z" fill="#FEC7C4"/>
<path d="M19.8198 13.3355C19.8198 13.3355 20.1375 12.9168 20.2829 13.0633C20.4284 13.2099 20.3215 13.6196 20.2028 13.8379C20.0964 13.9862 19.9516 14.1021 19.7842 14.1729L19.8198 13.3355Z" fill="#FEC7C4"/>
<path d="M16.3079 13.2278C15.9797 12.8617 15.8061 12.381 15.824 11.888C15.9152 11.3916 16.0667 10.9085 16.2753 10.4495C16.8364 8.95413 17.1036 7.71599 16.6523 6.54364C16.383 5.82063 16.3224 5.03561 16.4774 4.27933C16.6323 3.52306 16.9966 2.82642 17.5281 2.26994C18.297 1.46843 18.6088 1.37273 18.8166 0.828421C19.2085 1.31291 18.6088 2.13835 18.6088 2.13835C18.8315 2.0913 19.0382 1.98661 19.2085 1.83458C19.3787 1.68254 19.5068 1.48842 19.5799 1.27136C19.653 1.05429 19.6687 0.821785 19.6255 0.596744C19.5822 0.371704 19.4814 0.161903 19.3332 -0.0119629C19.3332 -0.0119629 20.4732 0.4187 20.5207 2.06657C20.5385 2.96378 19.3154 4.0165 19.3154 4.0165C19.6994 3.90521 20.0576 3.71816 20.3693 3.46621C20.5653 3.239 20.72 2.97883 20.8265 2.6976C20.8388 3.0405 20.7791 3.38215 20.6512 3.70016C20.5233 4.01817 20.3301 4.30535 20.0843 4.54286C19.4044 5.21876 19.3421 5.73914 19.9002 7.48271C20.3693 8.95114 20.8294 10.1893 20.7018 11.6218C20.6088 12.2519 20.3642 12.8495 19.9893 13.3624C19.9893 13.3624 19.8824 12.2858 19.2411 11.8222C18.5197 11.3018 17.8369 11.1224 16.8661 12.0166C16.5484 12.2977 16.3079 13.2278 16.3079 13.2278Z" fill="#360548"/>
<path d="M16.3406 12.7014C16.3406 12.7014 16.213 13.8977 16.59 14.2626C16.9671 14.6275 17.641 14.466 17.7775 14.1699C18.0032 13.6555 18.4544 13.6555 18.7038 14.1699C18.8998 14.5706 19.826 14.5736 19.9774 14.0652C20.0724 13.6042 20.1053 13.1324 20.0754 12.6626C20.0754 12.6626 19.5173 12.6087 18.8107 12.5788C17.9616 12.5429 16.9107 12.54 16.3406 12.7014Z" fill="white"/>
<path d="M16.5099 12.845C16.5099 12.845 16.403 13.796 16.6702 14.0652C16.9374 14.3344 17.4065 14.3942 17.6113 14.0293C17.923 13.485 18.4218 13.473 18.7335 13.9127C18.8439 14.0661 19.0015 14.1786 19.1818 14.2327C19.2445 14.2613 19.3125 14.2761 19.3813 14.2763C19.4501 14.2765 19.5182 14.262 19.5811 14.2337C19.6439 14.2055 19.7001 14.1641 19.7459 14.1124C19.7917 14.0606 19.8261 13.9997 19.8468 13.9336C19.8922 13.5707 19.9091 13.2046 19.8973 12.839C19.6863 12.7989 19.4732 12.7709 19.259 12.7553C18.3422 12.682 17.4201 12.7121 16.5099 12.845Z" fill="#D9D1ED"/>
</g>
<defs>
<clipPath id="clip0_1232_6763">
<rect width="36" height="18.4615" fill="white"/>
</clipPath>
</defs>
</svg>
