<svg width="25" height="24" viewBox="0 0 25 24" fill="none" xmlns="http://www.w3.org/2000/svg">
<g clip-path="url(#clip0_1232_4947)">
<path d="M24.4349 15.0224H24.2383V15.3778H24.4349V15.0224Z" fill="#0D0D15"/>
<path d="M7.10734 21.954H6.90723V22.3335H7.10734V21.954Z" fill="#0D0D15"/>
<path d="M7.62483 23.4514C8.26622 23.9061 9.05954 24.093 9.83645 23.9724C10.1407 23.9393 10.4383 23.8614 10.7197 23.7412C11.0086 23.5906 11.2824 23.4127 11.5374 23.2099C12.1102 22.8166 12.6956 22.4301 13.2936 22.0506L13.9837 21.6193L14.7703 21.1363L14.8117 21.1087L15.4259 20.736C15.94 20.429 16.4609 20.1219 16.9854 19.8217L17.1096 19.7493C17.5305 19.5078 17.9549 19.2697 18.3793 19.0316L19.3661 18.483L20.0113 18.138L20.5081 17.8758C20.9325 17.6481 21.3638 17.4238 21.7985 17.1857L22.2022 16.9822L22.423 16.8683C22.8405 16.6613 23.2614 16.4543 23.6927 16.2542C24.6105 15.8263 24.6967 15.0259 23.8859 14.46C23.4196 14.1764 22.8934 14.0058 22.3494 13.9621C21.8054 13.9183 21.2587 14.0026 20.7531 14.2081C20.6479 14.2576 20.5474 14.3165 20.4529 14.3841C20.1079 14.6291 19.7628 14.8741 19.3868 15.1156C19.0107 15.3571 18.7347 15.5468 18.4034 15.7608C17.917 16.0713 17.4201 16.3818 16.9198 16.6889L16.4471 16.9787L15.9641 17.2685C15.6398 17.4618 15.312 17.6584 14.9842 17.8482L14.9118 17.893L14.4046 18.1863C13.8905 18.4865 13.3695 18.7866 12.8451 19.0765L12.0584 19.5112C11.772 19.6665 11.4857 19.8217 11.1959 19.9735L10.4851 20.3531L9.76054 20.736C9.21984 21.0145 8.64595 21.2232 8.05267 21.3571C7.66819 21.4116 7.31517 21.5997 7.05554 21.8884C6.64151 22.437 7.18665 23.1167 7.62483 23.4514Z" fill="#0D0D15"/>
<path d="M24.3486 15.3743C24.1974 15.6334 23.9643 15.8349 23.6861 15.9471L23.1789 16.1886L22.4164 16.5612L22.1956 16.6751L21.7919 16.8787C21.3572 17.1029 20.9259 17.3237 20.5015 17.5515L20.0047 17.8171L19.3595 18.1622L19.0559 18.3312L18.3658 18.7073L17.8655 18.9902L17.1237 19.4353L16.9961 19.5078L16.8857 19.5699C16.5406 19.7803 16.1611 19.9908 15.8023 20.2047L15.4365 20.4221L15.1985 20.567L14.8259 20.7947L14.781 20.8223L13.9943 21.3053L13.3664 21.7021L13.3112 21.7366L12.4866 22.2714C12.1726 22.4784 11.8621 22.6854 11.5585 22.8959L11.1651 23.1788C11.0302 23.2743 10.8871 23.3574 10.7373 23.4272C10.4563 23.5452 10.1601 23.623 9.85748 23.6584C9.07953 23.7777 8.28562 23.591 7.64241 23.1374C7.20423 22.7924 6.65909 22.1196 7.07312 21.5676C7.1173 21.5068 7.16823 21.4512 7.22493 21.4019C7.39905 21.2634 7.59992 21.1624 7.81493 21.1052L8.0668 21.0362C8.40875 20.9552 8.74524 20.8526 9.07427 20.7292C9.21918 20.6739 9.36064 20.6153 9.50555 20.5463C9.59526 20.5083 9.68152 20.4635 9.77122 20.4152L10.482 20.046L11.1962 19.6699L11.7724 19.3594L12.0553 19.2076L12.3279 19.0558L12.842 18.7763L13.0317 18.6659C13.2801 18.5313 13.5217 18.3899 13.7666 18.2519L14.1117 18.0517L14.4015 17.8827L14.5153 17.8171L14.9087 17.5894L14.9811 17.5446L15.1847 17.4273L15.9644 16.9649L16.2301 16.8028L16.4406 16.6785L16.9133 16.3887C17.4135 16.0816 17.9104 15.7711 18.3969 15.4606L19.3836 14.8154L19.532 14.7153C19.7011 14.598 19.877 14.4842 20.0392 14.3703L20.4463 14.0874C20.5408 14.0197 20.6413 13.9608 20.7465 13.9114L20.8086 13.8873C21.0539 13.7826 21.3131 13.714 21.578 13.6837C22.3771 13.5712 23.1905 13.7395 23.8793 14.1599C24.4038 14.5256 24.5521 14.9776 24.3486 15.3743Z" fill="#F2F2F2"/>
<path d="M16.4336 16.6716L19.9977 17.8171L20.4946 17.5515C20.9189 17.3237 21.3502 17.0995 21.7849 16.8787L22.1886 16.6716L18.3933 15.4537C17.9069 15.7642 17.41 16.0748 16.9097 16.3818L16.4336 16.6716Z" fill="#1A2428"/>
<path d="M15.181 20.567L14.8084 20.7947C14.7923 20.8019 14.7772 20.8111 14.7636 20.8223L13.9769 21.3053C13.7664 21.4365 13.556 21.5676 13.3489 21.7021H13.3248L9.76758 20.4221L10.4783 20.0529C10.7164 19.9287 10.9545 19.8045 11.1891 19.6768L11.7687 19.3663L15.181 20.567Z" fill="#1A2428"/>
<path d="M18.9176 16.9684C18.5753 17.0375 18.2222 17.0316 17.8825 16.9511C17.603 16.8683 17.2925 16.6958 17.2338 16.5095C17.12 16.1369 18.1482 16.0334 18.6139 16.0299C19.1567 16.0607 19.6912 16.1771 20.1976 16.3749C20.584 16.5026 21.3017 16.6579 21.1464 16.9891C21.063 17.0943 20.9506 17.1729 20.8231 17.2152C20.6956 17.2574 20.5586 17.2616 20.4288 17.2271C20.2114 17.1926 20.132 17.0822 19.9526 17.0201C19.7707 16.9618 19.5812 16.9305 19.3902 16.927C19.295 16.9184 19.1991 16.9184 19.1039 16.927L18.9176 16.9684Z" fill="#2B3A3F"/>
<path d="M12.9382 21.1052C11.5581 20.8292 10.5955 20.5049 10.5645 20.0184L10.6611 19.7113L10.6921 19.6147C10.6921 19.6492 10.7749 20.253 12.1999 20.5911C12.9114 20.7951 13.6701 20.7599 14.3597 20.4911C14.4086 20.5412 14.4411 20.605 14.4529 20.6739V20.7085V20.8637C14.4529 20.8637 14.2976 21.3778 12.9382 21.1052Z" fill="#FFF8E1"/>
<path d="M13.442 20.8913C11.1511 20.567 10.7543 19.9942 10.6611 19.7113C10.6683 19.6819 10.6775 19.6531 10.6887 19.6251C10.806 19.3076 11.0096 19.1765 11.2546 18.8453C11.2546 18.8453 11.5754 18.4209 12.3069 18.7797C12.8022 19.0847 13.2781 19.42 13.7319 19.7838C14.4633 20.3151 14.4875 20.4497 14.4461 20.7188C14.4047 20.9879 13.6732 20.9051 13.442 20.8913Z" fill="#075D99"/>
<path d="M12.59 18.9868C12.6375 19.0312 12.6714 19.0881 12.688 19.151C12.7045 19.2138 12.7029 19.2801 12.6835 19.3421C12.664 19.4041 12.6274 19.4594 12.5779 19.5015C12.5284 19.5436 12.468 19.5709 12.4037 19.5802C12.2181 19.613 12.0273 19.601 11.8472 19.5452C11.6672 19.4894 11.5031 19.3914 11.3686 19.2593C11.3212 19.2152 11.2872 19.1585 11.2705 19.0959C11.2537 19.0333 11.255 18.9673 11.2741 18.9053C11.2932 18.8434 11.3293 18.7881 11.3784 18.7458C11.4274 18.7034 11.4874 18.6757 11.5515 18.6659C11.7376 18.6331 11.9289 18.6451 12.1095 18.7009C12.2901 18.7567 12.4548 18.8547 12.59 18.9868Z" fill="#003366"/>
<path d="M20.7222 17.2341C20.58 17.2686 20.4336 17.2825 20.2875 17.2755C19.3697 17.2444 19.211 16.8959 18.6831 16.8476H18.5969C18.4476 16.8456 18.2985 16.8583 18.1518 16.8856L18.0034 16.9028C17.809 16.928 17.6116 16.8893 17.441 16.7924C17.3894 16.7662 17.3426 16.7312 17.303 16.6889C17.2304 16.6082 17.1831 16.5079 17.1671 16.4005C17.1512 16.2931 17.1672 16.1834 17.2133 16.0851C17.228 16.0438 17.2453 16.0035 17.2651 15.9644C17.2859 15.924 17.3089 15.8848 17.3341 15.847L17.9137 15.9678L18.7211 16.1403L19.0661 16.2128L21.0983 16.6441V16.789V16.9408C21.0983 16.9408 21.0638 17.1478 20.7222 17.2341Z" fill="#FFF8E1"/>
<path d="M21.1055 16.7821C21.0296 16.9235 20.7605 17.0443 20.3706 17.0339H20.2533C20.1373 17.0225 20.022 17.0041 19.9082 16.9787C19.7665 16.9423 19.6271 16.8974 19.4908 16.8442C18.7455 16.5543 18.5902 16.5647 18.3487 16.5854C18.2419 16.5932 18.1347 16.5932 18.0278 16.5854C17.3964 16.5854 17.2998 16.3784 17.2412 16.2024C17.2285 16.1609 17.2204 16.1181 17.217 16.0748C17.2153 16.0072 17.2234 15.9398 17.2412 15.8746C17.3194 15.6382 17.4463 15.4207 17.6138 15.2363C17.7035 15.1309 17.8003 15.0317 17.9036 14.9396C18.0485 14.8154 18.6144 14.8706 19.3424 15.2018C19.5781 15.3052 19.8084 15.4204 20.0324 15.5469L20.2291 15.6711C20.399 15.7824 20.5615 15.9045 20.7156 16.0368L20.8398 16.1541C20.9999 16.283 21.1078 16.4657 21.1434 16.6682C21.1437 16.7093 21.1303 16.7493 21.1055 16.7821Z" fill="#075D99"/>
<path d="M19.1043 15.2156C19.1534 15.2579 19.1897 15.3131 19.2089 15.3749C19.2282 15.4368 19.2296 15.5029 19.213 15.5655C19.1964 15.6282 19.1626 15.6849 19.1153 15.7292C19.068 15.7735 19.0092 15.8036 18.9456 15.816C18.7635 15.8543 18.5749 15.8493 18.3951 15.8014C18.2153 15.7534 18.0493 15.6639 17.9105 15.54C17.6655 15.295 17.738 15.0293 18.0692 14.9396C18.2513 14.9013 18.4398 14.9062 18.6197 14.9542C18.7995 15.0021 18.9655 15.0917 19.1043 15.2156Z" fill="#003366"/>
<path d="M10.7959 19.356C10.9759 19.9975 11.3993 20.5435 11.9759 20.8775C11.9759 20.8775 13.1766 21.2812 13.701 21.1742C12.9443 20.9693 12.2882 20.4959 11.8551 19.8424C11.8551 19.8424 10.8891 19.6009 11.0305 19.0661L10.8856 19.2317L10.7959 19.356Z" fill="#070709"/>
<path d="M11.2099 19.701C11.0553 19.5744 10.9562 19.3924 10.9339 19.1938L10.896 19.2386L10.7959 19.3628C10.9759 20.0044 11.3993 20.5504 11.9759 20.8844C11.9759 20.8844 12.138 20.9362 12.3727 21.0017C12.3727 20.9638 12.3727 20.9224 12.3451 20.881C12.1898 20.322 11.6654 20.0115 11.2099 19.701Z" fill="#253137"/>
<path d="M13.5628 21.1984L12.7485 20.8534C12.7485 20.8534 13.6145 19.6527 13.2626 19.4319C13.2799 19.4319 13.4144 19.5216 13.5869 19.6423C13.7447 19.7539 13.8957 19.8749 14.0389 20.0046L14.0941 20.0564L14.1493 20.1116C14.0632 20.523 13.8594 20.9006 13.5628 21.1984Z" fill="#070709"/>
<path d="M20.7117 17.2858C20.5693 17.3189 20.423 17.3317 20.277 17.3238C19.3592 17.2961 19.2005 16.9442 18.6761 16.8959H18.5864C18.5864 16.8959 18.5864 16.8442 18.5622 16.8338C18.4853 16.7586 18.4128 16.6791 18.3448 16.5958C18.3282 16.5777 18.3097 16.5615 18.2896 16.5474C17.9446 16.3266 17.5444 16.4715 17.3029 16.0472C17.2889 16.0237 17.2762 15.9996 17.2649 15.9747C17.2542 15.9488 17.245 15.9223 17.2373 15.8953C17.3155 15.6589 17.4424 15.4414 17.6099 15.257C17.5663 15.3525 17.5525 15.4589 17.5703 15.5623C17.5882 15.6658 17.6369 15.7614 17.71 15.8367C17.7684 15.8961 17.8375 15.9441 17.9136 15.9782C18.0764 16.0487 18.2483 16.0963 18.4242 16.1196C18.5224 16.1361 18.6215 16.1464 18.7209 16.1507C18.8395 16.1528 18.9565 16.1774 19.0659 16.2231C19.103 16.2412 19.1388 16.262 19.1729 16.2852C19.3696 16.4198 19.5524 16.5716 19.7456 16.7096C19.9074 16.8334 20.0755 16.9486 20.2494 17.0546C20.3948 17.148 20.5498 17.2255 20.7117 17.2858Z" fill="#070709"/>
<path d="M17.7928 16.0989C17.7019 16.034 17.6246 15.9519 17.5651 15.8574C17.4912 15.709 17.4682 15.5405 17.4995 15.3778C17.383 15.5276 17.2942 15.697 17.2373 15.8781C17.245 15.9051 17.2542 15.9316 17.2649 15.9574C17.2762 15.9823 17.2889 16.0065 17.3029 16.0299C17.5444 16.4543 18.576 16.8718 18.5864 16.8787H18.6761C19.1246 16.9201 19.3075 17.1823 19.9182 17.2754C19.6804 16.9715 19.3864 16.7162 19.0521 16.5233C18.6726 16.2507 18.1585 16.3646 17.7928 16.0989Z" fill="#253137"/>
<path d="M20.3703 17.0339C20.344 17.0944 20.3221 17.1567 20.3047 17.2202C20.1566 17.1638 20.0208 17.0795 19.9045 16.9718C19.7825 16.8795 19.6546 16.7953 19.5215 16.72C19.5215 16.72 19.8217 16.0299 20.0183 15.5676L20.215 15.6918C20.3849 15.8031 20.5474 15.9252 20.7015 16.0575L20.8257 16.1748C20.6559 16.4513 20.5038 16.7382 20.3703 17.0339Z" fill="#070709"/>
<path d="M20.7014 16.0575C20.5219 16.2714 20.3356 16.4784 20.1597 16.6751C20.1597 16.3577 20.1804 16.0195 20.2149 15.6918C20.3848 15.8031 20.5473 15.9252 20.7014 16.0575Z" fill="#424145"/>
<path d="M14.1046 20.046C13.9321 20.2772 13.4767 20.7361 13.4663 20.7706C13.4663 20.5946 13.556 19.8356 13.5871 19.6285C13.7448 19.7401 13.8958 19.8611 14.0391 19.9908L14.1046 20.046Z" fill="#424145"/>
<path d="M24.3484 15.3744C24.1972 15.6335 23.9642 15.8349 23.686 15.9471L23.1788 16.1886C23.2099 15.9575 21.709 15.1811 20.0391 14.36L20.4462 14.0771C20.5407 14.0094 20.6412 13.9505 20.7464 13.9011L20.8085 13.877C22.6233 14.5705 24.2449 15.2157 24.3484 15.3744Z" fill="#FF8CBD"/>
<path d="M19.0559 18.3381L18.3658 18.7142L17.8655 18.9971C17.8931 18.797 16.6545 18.1484 15.1743 17.4238L15.9541 16.9615C17.5895 17.6032 18.9593 18.1829 19.0559 18.3381Z" fill="#FF8CBD"/>
<path d="M16.8685 19.5699C16.5235 19.7803 16.1439 19.9908 15.7851 20.2047C15.8093 20.0218 14.5361 19.3801 13.0249 18.6624C13.2733 18.5279 13.5148 18.3864 13.7598 18.2484C15.3987 18.8764 16.7788 19.4422 16.8685 19.5699Z" fill="#FF8CBD"/>
<path d="M12.4695 22.2714C12.1555 22.4784 11.845 22.6855 11.5414 22.8959L11.148 23.1788C11.186 22.8925 9.55055 22.0126 7.80127 21.1087L8.05314 21.0397C8.3951 20.9586 8.73159 20.8561 9.06062 20.7326C10.8271 21.4261 12.3625 22.0886 12.4695 22.2714Z" fill="#FF8CBD"/>
<path d="M8.43267 11.4203C8.26361 11.4928 8.19115 13.908 8.08764 13.977C7.42174 15.2122 13.891 12.3002 13.891 12.3002C13.891 12.3002 13.7323 14.0667 17.5966 15.5641C18.052 15.7401 18.7593 16.092 19.1871 15.6711C19.4079 15.4537 19.4873 15.2881 19.3803 15.1225C19.1897 14.9461 18.9718 14.8016 18.7351 14.6946C16.7892 13.456 15.4747 10.6371 14.305 10.4336C13.7254 10.3335 11.7035 9.98848 8.43267 11.4203Z" fill="#D50179"/>
<path d="M16.0645 7.69409C15.9515 7.66825 15.8464 7.61555 15.7581 7.54047C15.6698 7.4654 15.6009 7.37016 15.5573 7.26281C15.5248 7.21112 15.5076 7.15133 15.5076 7.09029C15.5076 7.02926 15.5248 6.96946 15.5573 6.91778C15.5573 6.91778 15.4331 6.73837 15.3813 6.75562C15.1087 6.84187 14.3462 7.05234 13.8287 7.19725C13.701 7.19725 13.5699 7.17655 13.5699 7.17655C13.3715 7.19218 13.1751 7.22684 12.9834 7.28005C11.9966 6.71421 10.6648 5.67914 10.0162 5.8275C9.9491 5.99989 9.90165 6.17928 9.8747 6.36228H8.86377L8.39453 6.83152C8.39453 6.83152 12.1898 8.92583 12.3485 8.93273C12.5072 8.93963 14.6671 8.57045 14.6671 8.57045L14.8914 8.51869L15.9264 8.17367C15.9264 8.17367 16.1438 7.84245 16.0645 7.69409Z" fill="#001133"/>
<path d="M17.3412 6.20012C17.3412 6.11386 17.2895 6.07936 17.2135 6.03796C17.0548 6.08281 16.8099 6.38299 16.6581 6.5279L16.5684 6.62105L16.6201 6.54169C16.696 6.42438 16.8789 6.19667 16.872 6.04141C16.8665 6.01081 16.8516 5.98269 16.8293 5.96102C16.807 5.93935 16.7785 5.92523 16.7478 5.92065C16.6098 5.8827 16.5166 6.07592 16.4476 6.16217C15.9646 6.75907 15.6471 6.73836 15.4884 6.89363C15.3297 7.04889 15.1434 7.43186 15.4263 7.66648C15.5748 7.76258 15.748 7.81371 15.9249 7.81371C16.1018 7.81371 16.2749 7.76258 16.4234 7.66648C16.6001 7.62424 16.7706 7.55929 16.9306 7.47327C17.0871 7.40926 17.2317 7.31946 17.3585 7.2076C17.383 7.17936 17.3965 7.14321 17.3965 7.10581C17.3965 7.06842 17.383 7.03228 17.3585 7.00404C17.2722 6.87983 16.8202 7.1662 16.7754 7.19725L16.9237 7.09029C17.0411 6.99935 17.1477 6.89515 17.2412 6.77976C17.4137 6.5831 17.493 6.4934 17.2895 6.35539C17.3189 6.30853 17.3367 6.25528 17.3412 6.20012Z" fill="#D50179"/>
<path d="M13.7667 13.111C13.5873 12.1242 13.4217 11.4756 9.45389 11.5963C9.32623 11.6757 7.59765 11.9862 7.50794 12.0966C7.41824 12.207 6.59017 13.7941 7.85297 14.6429C9.11576 15.4916 11.4585 14.1702 11.9139 14.0011C11.7966 14.0494 10.5752 14.7222 10.903 18.552C10.9426 18.7665 11.0353 18.9677 11.1728 19.137C11.3102 19.3064 11.4879 19.4386 11.6897 19.5216C11.9691 19.6251 12.3797 19.8666 12.7247 19.418C12.9316 17.2949 13.2797 15.1878 13.7667 13.111Z" fill="#EF4795"/>
<path d="M11.1928 7.75274C11.1548 8.40139 10.6718 9.28465 10.4579 10.2128H10.7339C10.797 10.3334 10.8697 10.4488 10.9513 10.5578C10.8132 10.6751 10.6649 10.7924 10.5131 10.9028C10.4521 11.0728 10.3543 11.2271 10.2267 11.3548L10.1335 11.4273C9.73823 11.6402 9.31221 11.7904 8.87074 11.8723C8.01163 12.0932 7.14562 13.4905 7.14562 13.4905C6.97586 12.9419 6.86823 12.376 6.82474 11.8033C6.9731 10.5992 7.32848 9.97126 7.04901 9.10524C7.01796 9.01209 6.61082 8.69466 6.57632 8.61185C6.44521 8.31513 5.88627 7.44912 6.43831 6.69696C6.95585 6.00691 8.35665 5.37551 8.64647 5.29616C9.39173 5.09604 10.3544 5.72399 10.4924 5.81369C10.8305 6.06211 11.2135 7.41116 11.1928 7.75274Z" fill="#001133"/>
<path d="M10.8375 0.631389C11.0065 1.75962 8.99158 1.77342 9.24 0.727996C9.42977 -0.0759146 10.6891 -0.355385 10.8375 0.631389Z" fill="#F2F2F2"/>
<path d="M10.513 3.88155C10.7272 3.64027 10.8841 3.35365 10.9718 3.04314C10.9056 3.1172 10.8249 3.17685 10.7347 3.21839C10.6445 3.25994 10.5467 3.2825 10.4474 3.28467C10.6866 3.19013 10.8888 3.02066 11.0236 2.80162C11.0741 2.53637 11.0428 2.26202 10.9339 2.01496C10.9203 1.98816 10.9041 1.96274 10.8856 1.93906C10.8856 2.28408 10.4819 3.09489 10.1955 2.89823V3.11215L9.70215 4.04372C9.83785 4.10226 9.9861 4.12568 10.1332 4.11181C10.2804 4.09794 10.4216 4.04724 10.544 3.96437C10.5353 3.96271 10.5271 3.95882 10.5203 3.9531C10.5135 3.94738 10.5083 3.94 10.5052 3.93168C10.5021 3.92337 10.5012 3.91438 10.5025 3.9056C10.5039 3.89682 10.5075 3.88854 10.513 3.88155Z" fill="#FFD180"/>
<path d="M8.246 4.54053L6.61057 4.93386L6.53467 6.60723L7.04876 6.75214L9.31213 6.61068L10.2644 5.48245L9.53984 4.67854L8.246 4.54053Z" fill="#192226"/>
<path d="M8.08405 4.89935L7.23184 5.26163L6.82471 6.33121L7.98054 6.48647L8.79135 5.09257L8.08405 4.89935Z" fill="#D50179"/>
<path d="M9.36755 6.6245L6.82471 6.42439L7.93224 5.2927L8.27037 5.22025L9.68842 5.66533L9.36755 6.6245Z" fill="#192226"/>
<path d="M10.3234 5.39621L9.19514 6.54169L9.10889 5.16504L10.3234 5.39621Z" fill="#D50179"/>
<path d="M8.29094 3.53997L8.2737 5.72744C8.26761 5.80523 8.27768 5.88343 8.30326 5.95715C8.32885 6.03086 8.3694 6.09849 8.42238 6.15577C8.47536 6.21306 8.53962 6.25877 8.61111 6.29003C8.6826 6.32129 8.75979 6.33743 8.83781 6.33743C8.91584 6.33743 8.99302 6.32129 9.06452 6.29003C9.13601 6.25877 9.20026 6.21306 9.25324 6.15577C9.30622 6.09849 9.34677 6.03086 9.37236 5.95715C9.39795 5.88343 9.40802 5.80523 9.40193 5.72744V5.69639L9.29843 3.51237C9.29614 3.37877 9.24087 3.25155 9.14478 3.1587C9.04869 3.06584 8.91966 3.01497 8.78606 3.01726C8.65246 3.01954 8.52524 3.07481 8.43239 3.1709C8.33954 3.26699 8.28866 3.39602 8.29094 3.52962V3.53997Z" fill="#F2B09E"/>
<path d="M9.74702 2.28062C9.18463 1.54572 8.59464 1.51466 7.65962 1.90799L7.59751 1.9356C7.42176 2.20693 7.27271 2.49464 7.15243 2.79471C7.09033 2.93962 7.03512 3.08453 6.98682 3.22945C7.04841 3.52637 7.17058 3.80739 7.34571 4.05495C7.52085 4.3025 7.74517 4.51127 8.00465 4.6682C8.15301 4.76825 8.17716 5.06843 8.50838 5.2789C8.79312 5.45677 9.11138 5.5742 9.4434 5.62393C9.56074 5.65482 9.68504 5.64543 9.7964 5.59726C9.90776 5.54908 9.99972 5.46492 10.0575 5.35825C10.1534 5.02156 10.2021 4.67323 10.2025 4.32317C10.1991 3.61751 10.0438 2.92087 9.74702 2.28062Z" fill="#FFCCBC"/>
<path d="M8.22561 3.80563C7.98754 3.26739 7.65286 3.57102 7.64941 3.80563C7.66021 3.98163 7.73363 4.14795 7.8564 4.27452C7.97917 4.40108 8.14318 4.47954 8.31877 4.49569C8.31281 4.26297 8.28158 4.0316 8.22561 3.80563Z" fill="#FFCCBC"/>
<path d="M8.26681 5.20989L9.16733 5.07533L9.20183 6.37263V6.53134H8.69809C8.58522 6.5082 8.47944 6.45861 8.38947 6.38663C8.2995 6.31465 8.2279 6.22236 8.18055 6.11731C8.09952 5.79381 8.06581 5.46027 8.08049 5.12709L8.28406 5.05463L8.26681 5.20989Z" fill="#001133"/>
<path d="M7.88732 4.38528C7.5906 5.07533 8.67053 5.47557 9.08111 5.00978C9.00488 5.03583 8.92356 5.04347 8.8438 5.03207C8.76405 5.02068 8.68812 4.99058 8.62223 4.94423C8.1806 4.69581 8.25305 4.32663 8.40486 3.90915L7.88732 4.38528Z" fill="#FFD180"/>
<path d="M8.40127 4.09201C8.24256 4.43704 8.61518 4.67855 8.8705 4.78206C8.78137 4.83368 8.68079 4.86231 8.57783 4.86539C8.47488 4.86847 8.37278 4.84589 8.28072 4.79969C8.18866 4.75349 8.10953 4.68511 8.05047 4.60073C7.99141 4.51634 7.95427 4.41859 7.94238 4.31628L8.40127 4.09201Z" fill="#FFD180"/>
<path d="M9.76083 1.29729C9.75508 1.28732 9.75205 1.27601 9.75205 1.26451C9.75205 1.253 9.75508 1.2417 9.76083 1.23173C9.93334 1.00056 9.23984 0.541678 8.0012 1.48015C7.25939 2.04599 7.07308 2.37721 6.93852 3.33294C6.90056 3.59516 7.01442 4.71304 7.16279 4.61989C7.25939 4.56813 7.29734 4.78895 7.38705 4.85795C7.4457 5.14778 7.97704 5.09602 8.0771 5.03736C8.0251 4.75881 8.04748 4.47148 8.14198 4.20433C8.23648 3.93719 8.39976 3.69969 8.61534 3.5158C9.18463 2.98791 10.2887 2.94306 10.2922 2.91546C10.3247 2.76655 10.3247 2.61238 10.2922 2.46347C10.212 2.17695 10.0413 1.92401 9.80568 1.74237C9.76596 1.72221 9.73194 1.69239 9.70676 1.65564C9.68157 1.6189 9.66603 1.57641 9.66156 1.53209C9.6571 1.48777 9.66385 1.44303 9.68119 1.402C9.69854 1.36097 9.72593 1.32496 9.76083 1.29729Z" fill="#EF4795"/>
<path d="M8.49814 4.08511L7.3423 4.89938C7.27426 4.8144 7.22064 4.71882 7.18359 4.61646C7.54084 4.29915 7.93057 4.02043 8.34633 3.78494L8.49814 4.08511Z" fill="#212121"/>
<path d="M10.6305 3.50545C10.6356 3.56054 10.6356 3.61598 10.6305 3.67107C10.6253 3.78252 10.5872 3.88993 10.5208 3.97963C10.4544 4.06933 10.3629 4.13727 10.2578 4.1748C10.0819 4.26106 10.0543 3.95399 9.8369 4.01609C9.61954 4.0782 9.36422 4.56813 9.20895 4.57158C8.93717 4.59301 8.66582 4.52517 8.4361 4.37836C8.3389 4.31134 8.26813 4.2125 8.23598 4.09889C8.11867 3.68486 8.35674 3.20873 9.48498 2.94651C10.6822 2.66014 10.5856 3.10177 10.6305 3.50545Z" fill="url(#paint0_linear_1232_4947)"/>
<path d="M8.43609 4.37147C8.39431 4.34002 8.35714 4.30285 8.32568 4.26106C8.5051 3.87464 8.69831 3.49511 8.90878 3.12248C8.98813 3.08798 9.07439 3.05693 9.171 3.02588C8.92948 3.51236 8.73627 3.91259 8.56375 4.28522L8.43609 4.37147ZM9.48842 2.93962L9.29521 2.99137C9.29945 2.99871 9.30168 3.00705 9.30168 3.01553C9.30168 3.024 9.29945 3.03233 9.29521 3.03967C9.10889 3.41575 8.92603 3.79183 8.74662 4.17135L8.91913 4.0713C9.10889 3.69523 9.29865 3.3157 9.48842 2.93962ZM10.3682 2.89476C10.3394 2.8831 10.3093 2.87499 10.2785 2.87061C10.1164 3.15008 9.9542 3.43645 9.79549 3.71937L9.90935 3.69522C10.0612 3.4261 10.2233 3.16043 10.3682 2.89476ZM10.5822 3.13283C10.5634 3.06183 10.5237 2.99811 10.4683 2.94997C10.3268 3.18804 10.1888 3.42955 10.0543 3.67107C10.1332 3.65991 10.2127 3.653 10.2923 3.65037L10.5822 3.13283ZM10.0853 2.85336C9.96954 2.85503 9.85411 2.86656 9.74029 2.88786C9.63678 3.06727 9.52983 3.23289 9.43322 3.42955C9.33661 3.62622 9.2469 3.77458 9.16065 3.95054C9.27295 3.89603 9.38813 3.84765 9.50567 3.80563C9.70924 3.48475 9.9059 3.18114 10.0853 2.85336Z" fill="url(#paint1_linear_1232_4947)"/>
<path d="M9.21541 4.613C8.63922 4.6337 8.18033 4.5095 8.09063 4.13342C8.07041 4.06154 8.05996 3.98726 8.05957 3.9126C8.05957 3.53652 8.27349 3.00863 9.43967 2.79126C10.0297 2.68086 10.1884 2.70157 10.4057 2.86373C10.5063 2.94524 10.5831 3.05231 10.628 3.17373C10.673 3.29515 10.6844 3.42643 10.6611 3.55378C10.6642 3.6913 10.6287 3.82694 10.5585 3.94527C10.4884 4.0636 10.3864 4.15988 10.2643 4.22313C10.0745 4.31974 9.87441 4.09892 9.86061 4.10237C9.67283 4.2834 9.47219 4.4506 9.26026 4.60265L9.21541 4.613ZM9.31892 3.13974C8.81518 3.28466 8.24243 3.56068 8.37699 4.05062C8.44255 4.28179 8.76687 4.42669 9.19125 4.41289C9.27682 4.34485 9.35438 4.26729 9.42242 4.18172C9.51822 4.04562 9.64624 3.93539 9.79505 3.86085C9.87003 3.84568 9.94784 3.85374 10.0181 3.88395C10.0884 3.91416 10.1478 3.96507 10.1884 4.02991L10.2263 4.07476C10.3392 4.03415 10.4348 3.95633 10.4975 3.85411C10.5602 3.75189 10.5863 3.63136 10.5714 3.51237V3.45027C10.5714 3.2605 10.5334 3.13974 10.4471 3.07419C10.3609 3.00863 10.1021 2.95343 9.53973 3.07419L9.31892 3.13974Z" fill="#001133"/>
<path d="M7.8252 4.06096L8.13917 4.47154L8.31858 4.35078L8.07016 3.85739L7.8252 4.06096Z" fill="#001133"/>
<path d="M9.56408 10.2266L9.96776 9.02588L9.60203 8.89477L10.0989 7.78034V7.75619C10.0989 7.75619 9.65379 6.99024 9.42952 6.57275C9.40244 6.60097 9.37363 6.62747 9.34326 6.6521C9.54683 7.03163 9.9091 7.65613 9.98501 7.78724L9.46057 8.96033L9.8401 9.09489L9.46057 10.2197V10.2369C9.46057 10.2818 9.67449 11.134 10.1506 11.4583L10.2438 11.3859C9.8056 11.1271 9.59513 10.3473 9.56408 10.2266Z" fill="#B7E6E6"/>
<path d="M1.94266 12.628C2.11354 12.416 2.25834 12.1844 2.37394 11.9379C2.42476 11.8305 2.44045 11.7097 2.4188 11.5929C2.40857 11.5407 2.3874 11.4913 2.35669 11.448L2.20143 11.2962C2.11517 11.1202 1.71839 11.2961 1.60798 11.3514C1.43828 11.4195 1.28092 11.5151 1.1422 11.6343C1.01799 11.7171 0.879983 11.7757 0.759224 11.8516C0.636657 11.9147 0.53484 12.0117 0.46595 12.1311C0.321039 12.1932 0.0174147 12.4761 0.0760691 12.5624C0.0397984 12.5881 0.0121411 12.6242 -0.00328541 12.6659C-0.0446885 12.7832 0.120922 12.8281 0.248582 12.8177C0.303786 12.9592 0.545307 12.9109 0.666066 12.8729C1.06019 12.7574 1.42652 12.5625 1.74254 12.3002C1.69522 12.3622 1.66413 12.4351 1.65208 12.5122C1.64003 12.5894 1.64741 12.6683 1.67354 12.7418C1.7943 12.9937 1.87711 12.7625 1.94266 12.628Z" fill="#D50179"/>
<path d="M7.11807 6.82462C6.60743 6.15527 5.70347 6.98334 5.30324 7.33871C4.8133 7.77 4.26816 8.05637 3.78857 8.48075C3.58168 8.69022 3.387 8.91139 3.20548 9.14319L2.8363 9.48822L2.21525 10.4267C2.03467 10.7185 1.82795 10.9934 1.59766 11.2479C1.88058 11.5929 2.34981 11.6757 2.63273 12.0104C2.97776 11.6653 4.70289 9.83324 4.70289 9.83324C4.70289 9.83324 6.03469 9.18115 6.47287 8.88788C7.07667 8.48765 7.62181 7.9839 7.29058 7.20069L7.11807 6.82462Z" fill="#001133"/>
<path d="M15.2675 7.31455C15.44 7.74583 15.9369 6.78667 15.9231 6.46579C15.9058 6.07246 15.6505 6.00345 15.6401 6.42094C15.6332 6.6314 15.0777 6.84532 15.2675 7.31455Z" fill="#D50179"/>
</g>
<defs>
<linearGradient id="paint0_linear_1232_4947" x1="8.2243" y1="3.98567" x2="10.6694" y2="3.47442" gradientUnits="userSpaceOnUse">
<stop stop-color="#02123A"/>
<stop offset="1" stop-color="#145C86"/>
</linearGradient>
<linearGradient id="paint1_linear_1232_4947" x1="8.23965" y1="3.80623" x2="10.6273" y2="3.30698" gradientUnits="userSpaceOnUse">
<stop stop-color="#0623B4"/>
<stop offset="1" stop-color="#01C4EB"/>
</linearGradient>
<clipPath id="clip0_1232_4947">
<rect width="24.4382" height="24" fill="white"/>
</clipPath>
</defs>
</svg>
