<svg width="28" height="24" viewBox="0 0 28 24" fill="none" xmlns="http://www.w3.org/2000/svg">
<path fill-rule="evenodd" clip-rule="evenodd" d="M14.9748 1.72598L18.0303 7.35146C18.1819 7.63536 18.4763 7.83227 18.8183 7.8792L25.6559 8.78473C25.9328 8.81793 26.1833 8.95187 26.3524 9.15564C26.6706 9.53456 26.623 10.0749 26.2409 10.4023L21.2875 14.7983C21.0369 15.0124 20.9242 15.3306 20.9893 15.6374L22.1832 21.8341C22.2659 22.3493 21.8838 22.8278 21.3238 22.9125C21.0908 22.9457 20.8528 22.9114 20.6436 22.8152L14.5451 19.8949C14.2394 19.7426 13.8711 19.7426 13.5667 19.8949L7.42815 22.8358C6.91577 23.0716 6.2944 22.8942 6.01629 22.4386C5.9098 22.2543 5.87097 22.0413 5.90855 21.8341L7.10244 15.6374C7.16006 15.3306 7.04857 15.0158 6.80428 14.7983L1.81201 10.4012C1.40486 10.0303 1.4036 9.4281 1.8095 9.0549C1.81075 9.0549 1.81075 9.05375 1.81201 9.05261C1.97862 8.91409 2.18533 8.82022 2.40832 8.78473L9.24592 7.8792C9.58542 7.82883 9.87982 7.63193 10.0339 7.35146L13.0894 1.72598C13.2109 1.49703 13.4289 1.32187 13.6932 1.24174C13.9576 1.16046 14.247 1.17878 14.4975 1.2944C14.703 1.38827 14.8696 1.53938 14.9748 1.72598Z" stroke="#FFB803" stroke-width="1.5" stroke-linecap="round" stroke-linejoin="round"/>
<mask id="mask0_209_19180" style="mask-type:alpha" maskUnits="userSpaceOnUse" x="0" y="0" width="28" height="24">
<path fill-rule="evenodd" clip-rule="evenodd" d="M14.9748 1.72598L18.0303 7.35146C18.1819 7.63536 18.4763 7.83227 18.8183 7.8792L25.6559 8.78473C25.9328 8.81793 26.1833 8.95187 26.3524 9.15564C26.6706 9.53456 26.623 10.0749 26.2409 10.4023L21.2875 14.7983C21.0369 15.0124 20.9242 15.3306 20.9893 15.6374L22.1832 21.8341C22.2659 22.3493 21.8838 22.8278 21.3238 22.9125C21.0908 22.9457 20.8528 22.9114 20.6436 22.8152L14.5451 19.8949C14.2394 19.7426 13.8711 19.7426 13.5667 19.8949L7.42815 22.8358C6.91577 23.0716 6.2944 22.8942 6.01629 22.4386C5.9098 22.2543 5.87097 22.0413 5.90855 21.8341L7.10244 15.6374C7.16006 15.3306 7.04857 15.0158 6.80428 14.7983L1.81201 10.4012C1.40486 10.0303 1.4036 9.4281 1.8095 9.0549C1.81075 9.0549 1.81075 9.05375 1.81201 9.05261C1.97862 8.91409 2.18533 8.82022 2.40832 8.78473L9.24592 7.8792C9.58542 7.82883 9.87982 7.63193 10.0339 7.35146L13.0894 1.72598C13.2109 1.49703 13.4289 1.32187 13.6932 1.24174C13.9576 1.16046 14.247 1.17878 14.4975 1.2944C14.703 1.38827 14.8696 1.53938 14.9748 1.72598Z" fill="#D9D9D9" stroke="#FFB803" stroke-width="1.5" stroke-linecap="round" stroke-linejoin="round"/>
</mask>
<g mask="url(#mask0_209_19180)">
<rect x="-0.951172" y="-18.6688" width="41" height="59" fill="#FFB803"/>
</g>
</svg>
