<svg width="59" height="59" viewBox="0 0 59 59" fill="none" xmlns="http://www.w3.org/2000/svg">
<g clip-path="url(#clip0_3653_1659)">
<path d="M13.5502 46.8438C6.09852 46.8321 0.019139 40.7447 0.00977173 33.2841C0.00274625 25.8119 6.06105 19.6987 13.501 19.6776C21.0277 19.6542 27.1469 25.7299 27.1609 33.2373C27.1773 40.747 21.0722 46.8485 13.5502 46.8415V46.8438Z" fill="#F7F9FA"/>
<path d="M32.903 17.8031C31.1537 17.8148 29.402 17.8031 27.6527 17.8031C25.9033 17.8031 24.0767 17.7984 22.2875 17.8054C21.3391 17.8078 20.6529 17.4235 20.6389 16.4183C20.6248 15.4178 21.2852 14.9937 22.2454 14.9937C25.8214 14.9937 29.3973 14.9984 32.9756 14.9913C33.9311 14.9913 34.5657 15.3733 34.636 16.3761C34.6969 17.2548 34.0271 17.7914 32.903 17.8007V17.8031Z" fill="#F7F9FA"/>
<path d="M34.6447 10.7737C34.6471 11.6524 34.0171 12.1702 32.8837 12.1796C31.1343 12.1913 29.385 12.1819 27.6357 12.1819C25.8863 12.1819 24.137 12.1913 22.3876 12.1796C21.2495 12.1725 20.6195 11.6594 20.6172 10.7807C20.6149 9.90206 21.2425 9.37954 22.3782 9.3772C25.8769 9.36548 29.3756 9.36782 32.8743 9.3772C34.0124 9.37954 34.6424 9.89503 34.6447 10.7737Z" fill="#F7F9FA"/>
<path d="M26.0289 44.974C28.9469 44.9576 31.8671 44.9693 34.7874 44.9693C39.1479 44.9693 43.5083 44.9764 47.8688 44.9623C48.8102 44.96 49.487 45.2692 49.6158 46.2698C49.7306 47.1766 49.0187 47.7717 47.8431 47.7764C44.1828 47.7858 40.5248 47.7787 36.8646 47.7787C33.2043 47.7787 29.7009 47.7717 26.1179 47.7834C25.1812 47.7881 24.4997 47.4765 24.3709 46.476C24.2609 45.602 24.947 44.981 26.0289 44.974Z" fill="#F7F9FA"/>
<path d="M32.7781 39.3505C37.7591 39.3458 42.7379 39.3458 47.7189 39.3505C48.9742 39.3505 49.6111 39.8238 49.6252 40.7306C49.6416 41.6491 48.9976 42.1529 47.7634 42.1552C45.2741 42.1646 42.7847 42.1552 40.293 42.1552C37.8013 42.1552 35.3143 42.1599 32.8226 42.1552C31.5697 42.1505 30.9304 41.6796 30.9163 40.7728C30.8999 39.8566 31.5463 39.3505 32.7781 39.3482V39.3505Z" fill="#F7F9FA"/>
<path d="M46.5437 20.5328C45.998 20.322 45.7428 20.0689 45.7685 19.448C45.8201 18.2413 45.7709 17.0322 45.7919 15.8232C45.799 15.4975 45.5976 15.0359 45.9535 14.8718C46.2673 14.7266 46.5788 15.0851 46.8809 15.2491C46.9816 15.3053 47.0682 15.385 47.1689 15.4459C47.9254 15.9052 48.6162 15.7927 49.1127 15.0827C49.6232 14.3493 49.396 13.6698 48.7333 13.1332C48.1221 12.6412 47.4406 12.2241 46.6772 12.0741C45.9606 11.9359 45.7381 11.6172 45.7568 10.9026C45.7826 10.0052 45.2978 9.3772 44.3494 9.39595C43.4056 9.41469 42.9443 10.0544 42.9958 10.9518C43.0403 11.7039 42.7452 11.9851 42.0591 12.2639C40.1669 13.0278 39.1599 14.5438 38.8929 16.5472C38.6424 18.424 39.2161 20.1579 40.9209 20.8984C42.9771 21.7911 43.1878 23.2345 42.9794 25.0621C42.9583 25.2543 42.9771 25.4511 42.9771 25.6456V27.0491C42.9771 28.7924 42.2011 29.2321 40.6493 28.3683C39.8554 27.9231 39.1271 27.916 38.6096 28.7127C38.0967 29.5047 38.359 30.1959 39.1131 30.7161C40.0193 31.3464 41.0099 31.7986 42.1059 31.9462C42.7476 32.0306 43.0614 32.2274 42.9958 32.9608C42.9115 33.8934 43.3307 34.5705 44.3447 34.6479C45.2042 34.7135 45.7732 34.0504 45.7638 32.9046C45.7592 32.2297 45.9395 31.9017 46.6116 31.6416C49.1408 30.6575 50.6325 28.394 50.6067 25.7604C50.5833 23.2977 49.2789 21.5873 46.5437 20.5328ZM42.8576 18.738C42.6024 18.8598 42.4361 18.6466 42.2628 18.5037C41.2348 17.6485 41.4783 16.102 42.9958 14.9046C42.9958 16.1442 43.0005 17.1798 42.9935 18.2155C42.9935 18.3959 43.0778 18.6349 42.8576 18.738ZM45.7826 28.8955C45.7826 27.1756 45.8037 25.5893 45.7732 24.0054C45.7592 23.2181 46.0542 23.2602 46.5858 23.593C48.4546 24.7669 48.1221 27.6255 45.7826 28.8955Z" fill="#F7F9FA"/>
<path d="M58.984 6.91707C58.977 3.08136 55.8694 0.0212348 52.0218 0.0165485C37.0037 -0.00453962 21.9855 -0.00453962 6.96737 0.0165485C3.12912 0.0235779 0.08006 3.10479 0.0168307 6.93815C-0.0112712 8.65567 0.00512156 10.3732 0.012147 12.0907C0.0168307 13.609 0.445385 14.0519 1.93479 14.0566C4.31408 14.0636 6.69338 14.0589 9.07268 14.0589C11.1827 14.0589 11.1991 14.0589 11.2389 16.1021C11.2576 17.0581 11.6112 17.7048 12.6159 17.7868C13.4917 17.8595 14.042 17.18 14.0514 16.0576C14.0655 14.3003 14.0842 12.5453 14.0491 10.7879C13.9952 8.098 14.5315 5.30968 12.6416 2.81893H13.9039C26.3881 2.81893 38.8701 2.81659 51.352 2.81893C54.5463 2.81893 56.1879 4.44975 56.1879 7.62469C56.1902 19.1763 56.1902 30.728 56.1902 42.2796V55.3308C54.4058 54.4404 52.7641 53.6531 51.153 52.8073C50.4247 52.423 49.7947 52.4253 49.0641 52.8073C47.2046 53.7844 45.3031 54.6771 43.4437 55.6518C42.8699 55.9517 42.418 55.9869 41.8255 55.6729C39.9707 54.6911 38.0622 53.8078 36.2074 52.826C35.4346 52.416 34.7859 52.4394 34.0178 52.8471C32.1631 53.8336 30.2615 54.7239 28.3998 55.694C27.8565 55.9775 27.4186 55.9705 26.8823 55.6893C25.1587 54.7896 23.3812 53.9929 21.6858 53.0439C20.6249 52.4511 19.721 52.4019 18.6461 53.0205C17.1941 53.8546 15.6556 54.5388 14.0561 55.3355C14.0561 53.5735 14.0655 52.0129 14.0514 50.4548C14.0397 49.3301 13.4894 48.6599 12.6042 48.7349C11.5972 48.8216 11.2365 49.4753 11.2412 50.429C11.2553 52.6925 11.2365 54.9559 11.2506 57.2194C11.2599 58.8338 12.1803 59.4102 13.6205 58.7026C15.5408 57.7606 17.4588 56.814 19.3486 55.8158C19.9388 55.5042 20.3907 55.5253 20.9668 55.8299C22.8262 56.8046 24.7301 57.6974 26.5872 58.6721C27.3155 59.0564 27.9455 59.0658 28.6761 58.6815C30.4301 57.756 32.231 56.9218 33.9827 55.9916C34.7625 55.5792 35.4065 55.5019 36.2309 55.9611C37.9615 56.9241 39.7834 57.7232 41.5327 58.6534C42.3079 59.0658 42.9542 59.0494 43.7224 58.6417C45.5443 57.6786 47.4201 56.8187 49.2444 55.8604C49.8579 55.537 50.3404 55.5159 50.9609 55.8463C52.8157 56.8304 54.7032 57.7536 56.5884 58.6815C58.0497 59.4008 58.9934 58.8549 58.9934 57.2616C59.0004 40.4801 59.0121 23.7009 58.984 6.91941V6.91707ZM10.5152 11.2565C9.35135 11.2237 8.18278 11.2472 7.01655 11.2472C5.85032 11.2472 4.68175 11.2167 3.51552 11.2589C2.94646 11.28 2.78955 11.0925 2.80829 10.5372C2.8481 9.29534 2.78019 8.04646 2.83639 6.8046C2.93709 4.55285 4.80587 2.8119 7.04934 2.81893C9.29047 2.82596 11.1382 4.57394 11.2318 6.8374C11.2834 8.07926 11.2108 9.32815 11.2599 10.57C11.2834 11.1745 11.0375 11.2706 10.5152 11.2565Z" fill="#F7F9FA"/>
<path d="M58.984 6.91707C58.977 3.08136 55.8694 0.0212348 52.0218 0.0165485C37.0037 -0.00453962 21.9855 -0.00453962 6.96737 0.0165485C3.12912 0.0235779 0.08006 3.10479 0.0168307 6.93815C-0.0112712 8.65567 0.00512156 10.3732 0.012147 12.0907C0.0168307 13.609 0.445385 14.0519 1.93479 14.0566C4.31408 14.0636 6.69338 14.0589 9.07268 14.0589C11.1827 14.0589 11.1991 14.0589 11.2389 16.1021C11.2576 17.0581 11.6112 17.7048 12.6159 17.7868C13.4917 17.8595 14.042 17.18 14.0514 16.0576C14.0655 14.3003 14.0842 12.5453 14.0491 10.7879C13.9952 8.098 14.5315 5.30968 12.6416 2.81893H13.9039C26.3881 2.81893 38.8701 2.81659 51.352 2.81893C54.5463 2.81893 56.1879 4.44975 56.1879 7.62469C56.1902 19.1763 56.1902 30.728 56.1902 42.2796V55.3308C54.4058 54.4404 52.7641 53.6531 51.153 52.8073C50.4247 52.423 49.7947 52.4253 49.0641 52.8073C47.2046 53.7844 45.3031 54.6771 43.4437 55.6518C42.8699 55.9517 42.418 55.9869 41.8255 55.6729C39.9707 54.6911 38.0622 53.8078 36.2074 52.826C35.4346 52.416 34.7859 52.4394 34.0178 52.8471C32.1631 53.8336 30.2615 54.7239 28.3998 55.694C27.8565 55.9775 27.4186 55.9705 26.8823 55.6893C25.1587 54.7896 23.3812 53.9929 21.6858 53.0439C20.6249 52.4511 19.721 52.4019 18.6461 53.0205C17.1941 53.8546 15.6556 54.5388 14.0561 55.3355C14.0561 53.5735 14.0655 52.0129 14.0514 50.4548C14.0397 49.3301 13.4894 48.6599 12.6042 48.7349C11.5972 48.8216 11.2365 49.4753 11.2412 50.429C11.2553 52.6925 11.2365 54.9559 11.2506 57.2194C11.2599 58.8338 12.1803 59.4102 13.6205 58.7026C15.5408 57.7606 17.4588 56.814 19.3486 55.8158C19.9388 55.5042 20.3907 55.5253 20.9668 55.8299C22.8262 56.8046 24.7301 57.6974 26.5872 58.6721C27.3155 59.0564 27.9455 59.0658 28.6761 58.6815C30.4301 57.756 32.231 56.9218 33.9827 55.9916C34.7625 55.5792 35.4065 55.5019 36.2309 55.9611C37.9615 56.9241 39.7834 57.7232 41.5327 58.6534C42.3079 59.0658 42.9542 59.0494 43.7224 58.6417C45.5443 57.6786 47.4201 56.8187 49.2444 55.8604C49.8579 55.537 50.3404 55.5159 50.9609 55.8463C52.8157 56.8304 54.7032 57.7536 56.5884 58.6815C58.0497 59.4008 58.9934 58.8549 58.9934 57.2616C59.0004 40.4801 59.0121 23.7009 58.984 6.91941V6.91707ZM10.5152 11.2565C9.35135 11.2237 8.18278 11.2472 7.01655 11.2472C5.85032 11.2472 4.68175 11.2167 3.51552 11.2589C2.94646 11.28 2.78955 11.0925 2.80829 10.5372C2.8481 9.29534 2.78019 8.04646 2.83639 6.8046C2.93709 4.55285 4.80587 2.8119 7.04934 2.81893C9.29047 2.82596 11.1382 4.57394 11.2318 6.8374C11.2834 8.07926 11.2108 9.32815 11.2599 10.57C11.2834 11.1745 11.0375 11.2706 10.5152 11.2565Z" fill="#181725"/>
<path d="M27.1609 33.2396C27.1773 40.7493 21.0722 46.8509 13.5502 46.8438C6.09852 46.8321 0.019139 40.7447 0.00977173 33.2841C0.00274625 25.8119 6.06106 19.6987 13.501 19.6776C21.0277 19.6542 27.1469 25.7299 27.1609 33.2373V33.2396Z" fill="#3797F0"/>
<path d="M46.5437 20.5328C45.998 20.322 45.7428 20.0689 45.7685 19.448C45.8201 18.2413 45.7709 17.0322 45.7919 15.8232C45.799 15.4975 45.5976 15.0359 45.9535 14.8718C46.2673 14.7266 46.5788 15.0851 46.8809 15.2491C46.9816 15.3053 47.0682 15.385 47.1689 15.4459C47.9254 15.9052 48.6162 15.7927 49.1127 15.0827C49.6232 14.3493 49.396 13.6698 48.7333 13.1332C48.1221 12.6412 47.4406 12.2241 46.6772 12.0741C45.9606 11.9359 45.7381 11.6172 45.7568 10.9026C45.7826 10.0052 45.2978 9.3772 44.3494 9.39595C43.4056 9.41469 42.9443 10.0544 42.9958 10.9518C43.0403 11.7039 42.7452 11.9851 42.0591 12.2639C40.1669 13.0278 39.1599 14.5438 38.8929 16.5472C38.6424 18.424 39.2161 20.1579 40.9209 20.8984C42.9771 21.7911 43.1878 23.2345 42.9794 25.0621C42.9583 25.2543 42.9771 25.4511 42.9771 25.6456V27.0491C42.9771 28.7924 42.2011 29.2321 40.6493 28.3683C39.8554 27.9231 39.1271 27.916 38.6096 28.7127C38.0967 29.5047 38.359 30.1959 39.1131 30.7161C40.0193 31.3464 41.0099 31.7986 42.1059 31.9462C42.7476 32.0306 43.0614 32.2274 42.9958 32.9608C42.9115 33.8934 43.3307 34.5705 44.3447 34.6479C45.2042 34.7135 45.7732 34.0504 45.7638 32.9046C45.7592 32.2297 45.9395 31.9017 46.6116 31.6416C49.1408 30.6575 50.6325 28.394 50.6067 25.7604C50.5833 23.2977 49.2789 21.5873 46.5437 20.5328ZM42.8576 18.738C42.6024 18.8598 42.4361 18.6466 42.2628 18.5037C41.2348 17.6485 41.4783 16.102 42.9958 14.9046C42.9958 16.1442 43.0005 17.1798 42.9935 18.2155C42.9935 18.3959 43.0778 18.6349 42.8576 18.738ZM45.7826 28.8955C45.7826 27.1756 45.8037 25.5893 45.7732 24.0054C45.7592 23.2181 46.0542 23.2602 46.5858 23.593C48.4546 24.7669 48.1221 27.6255 45.7826 28.8955Z" fill="#181725"/>
<path d="M47.8431 47.7764C44.1828 47.7858 40.5248 47.7787 36.8646 47.7787C33.2043 47.7787 29.7009 47.7717 26.1179 47.7834C25.1812 47.7881 24.4997 47.4765 24.3709 46.476C24.2609 45.602 24.947 44.981 26.0289 44.974C28.9469 44.9576 31.8671 44.9693 34.7874 44.9693C39.1479 44.9693 43.5083 44.9764 47.8688 44.9623C48.8102 44.96 49.487 45.2692 49.6158 46.2698C49.7306 47.1766 49.0187 47.7717 47.8431 47.7764Z" fill="#181725"/>
<path d="M49.6252 40.7306C49.6416 41.6491 48.9976 42.1529 47.7634 42.1553C45.2741 42.1646 42.7847 42.1553 40.293 42.1553C37.8013 42.1553 35.3143 42.1599 32.8226 42.1553C31.5697 42.1506 30.9304 41.6796 30.9163 40.7728C30.8999 39.8566 31.5463 39.3505 32.7781 39.3482C37.7591 39.3435 42.7379 39.3435 47.7189 39.3482C48.9742 39.3482 49.6111 39.8215 49.6252 40.7283V40.7306Z" fill="#181725"/>
<path d="M34.6447 10.7737C34.6471 11.6524 34.0171 12.1702 32.8837 12.1796C31.1343 12.1913 29.385 12.1819 27.6357 12.1819C25.8863 12.1819 24.137 12.1913 22.3876 12.1796C21.2495 12.1725 20.6195 11.6594 20.6172 10.7807C20.6149 9.90206 21.2425 9.37954 22.3782 9.3772C25.8769 9.36548 29.3756 9.36782 32.8743 9.3772C34.0124 9.37954 34.6424 9.89503 34.6447 10.7737Z" fill="#181725"/>
<path d="M32.903 17.8031C31.1537 17.8148 29.402 17.8031 27.6527 17.8031C25.9033 17.8031 24.0767 17.7984 22.2875 17.8054C21.3391 17.8078 20.6529 17.4235 20.6389 16.4183C20.6248 15.4178 21.2852 14.9937 22.2454 14.9937C25.8214 14.9937 29.3973 14.9984 32.9756 14.9913C33.9311 14.9913 34.5657 15.3733 34.636 16.3761C34.6969 17.2548 34.0271 17.7914 32.903 17.8007V17.8031Z" fill="#181725"/>
<path d="M7.07468 35.557C7.88963 38.3875 10.6577 40.3159 13.6927 40.2807C16.8214 40.2456 19.5988 38.0688 20.3692 35.0438C21.4699 30.7325 18.4747 26.5734 14.0322 26.243C12.7653 26.1493 12.1541 25.6619 12.1916 24.7715C12.2314 23.8249 12.9339 23.3704 14.2594 23.436C19.0883 23.6773 23.2146 27.8738 23.4066 32.7405C23.615 37.9985 19.9337 42.3567 14.7044 43.0433C9.87082 43.6783 5.00919 40.2268 4.00454 35.4234C3.86169 34.7416 3.76568 34.0339 3.77504 33.3404C3.79144 32.211 4.63449 31.5947 5.67192 31.972C7.24329 32.5414 8.79592 33.1717 10.3345 33.8348C11.1143 34.1698 11.4656 34.8259 11.1096 35.6507C10.7677 36.4474 10.112 36.7098 9.28068 36.4075C8.56642 36.1474 7.86153 35.8616 7.07234 35.5546L7.07468 35.557Z" fill="#F7F9FA"/>
</g>
<defs>
<clipPath id="clip0_3653_1659">
<rect width="59" height="59" fill="white"/>
</clipPath>
</defs>
</svg>
