<svg width="36" height="12" viewBox="0 0 36 12" fill="none" xmlns="http://www.w3.org/2000/svg">
<path d="M30.3634 4.09775C30.3612 4.14806 30.3914 4.19387 30.4379 4.21222C30.6584 4.29825 31.3087 4.54601 31.8693 4.69948C32.1568 4.77822 32.4594 4.74529 32.7198 4.61126C32.7842 4.57833 32.8462 4.53896 32.9048 4.49351C33.1196 4.32631 33.3757 4.09107 33.6131 3.78085C33.7001 3.66711 33.6174 3.50259 33.4744 3.50563L30.5912 3.57246C30.475 3.57525 30.3807 3.66797 30.3761 3.78449L30.3752 3.8043L30.3633 4.09775H30.3634Z" fill="#D8AF03"/>
<path d="M33.2605 4.06969C33.2605 4.06969 32.4871 4.11695 32.3886 4.06969C32.2901 4.02242 32.2014 3.86433 31.9206 3.85935C31.6397 3.85437 30.9945 3.87928 31.0404 4.011C31.081 4.12728 31.2547 4.28938 31.753 4.30748C31.8801 4.3121 31.9957 4.3392 32.0847 4.43021C32.1617 4.50883 32.3116 4.60069 32.3901 4.59729C32.5412 4.59073 33.6619 4.70847 33.6619 4.70847L33.2604 4.06969H33.2605Z" fill="#896303"/>
<path d="M31.7379 7.10371L32.3307 7.45488L32.8967 7.79013L34.1688 7.51247C34.3443 7.47408 34.4903 7.35354 34.5618 7.18877L34.8638 6.49008C34.9238 6.35095 34.9176 6.19444 34.8511 6.0626V6.06236C34.8344 6.02943 34.8137 5.99832 34.7897 5.96904L33.965 4.97203L33.9191 4.91687L33.5629 4.48611L33.2369 4.46448L32.5403 4.41782L32.255 4.39862L32.4998 4.73326L32.585 4.84955L33.5337 6.14559C33.5814 6.20781 33.6003 6.28776 33.5863 6.36492L33.5662 6.47294C33.5473 6.57489 33.4713 6.65655 33.3713 6.68255L31.7378 7.10383L31.7379 7.10371Z" fill="black"/>
<path d="M31.7378 7.10371L32.3306 7.45488L33.6098 7.03226C33.7543 6.98451 33.8721 6.87806 33.9346 6.73893L34.0012 6.59045C34.0828 6.40879 34.0525 6.19614 33.9236 6.04449L32.5403 4.4177L32.2551 4.39862L33.5337 6.14535C33.5814 6.20756 33.6003 6.28752 33.5863 6.36468L33.5662 6.4727C33.5473 6.57465 33.4713 6.6563 33.3713 6.68231L31.7378 7.10359V7.10371Z" fill="#201F1D"/>
<path d="M32.2549 4.3985L32.6257 4.90508C33.2453 5.1735 33.7126 5.04263 33.9649 4.97215L33.5628 4.48611L33.2368 4.46448L32.5402 4.41782L32.2549 4.39862V4.3985Z" fill="#D8AF03"/>
<path d="M32.2549 4.3985L32.4997 4.73314C32.9993 5.11104 33.679 5.02173 33.9649 4.97203L33.5628 4.48599L33.2368 4.46436L32.5402 4.4177L32.2549 4.3985Z" fill="#9D7600"/>
<path d="M32.5807 7.01622L33.2207 7.39533L33.8319 7.75731L35.2053 7.45755C35.3947 7.41599 35.5524 7.28597 35.6295 7.10808L35.9557 6.35374C36.0204 6.20355 36.0138 6.03452 35.9419 5.89223V5.89187C35.9238 5.85627 35.9015 5.82273 35.8755 5.79114L34.9851 4.71467L34.9356 4.655L34.5511 4.18998L34.199 4.16665L33.4469 4.11622L33.1388 4.09544L33.4032 4.45682L33.4951 4.58234L34.5194 5.98155C34.5711 6.04874 34.5914 6.13501 34.5763 6.21837L34.5546 6.33502C34.5342 6.44499 34.4521 6.53333 34.344 6.56128L32.5806 7.01609L32.5807 7.01622Z" fill="black"/>
<path d="M34.1992 4.16678C34.4459 4.5578 35.3457 5.9807 35.4248 6.03465C35.5167 6.09723 35.8156 6.18618 35.9043 6.11376C35.9411 6.0835 35.9473 5.99054 35.9421 5.89236V5.892C35.924 5.8564 35.9017 5.82286 35.8757 5.79127L34.5513 4.19011L34.1992 4.16678Z" fill="#201F1D"/>
<path d="M33.662 4.74141C33.6348 4.773 32.839 4.51431 32.5807 4.50252C32.3224 4.49073 33.6489 4.45634 33.6489 4.45634L33.662 4.74141Z" fill="#201F1D"/>
<path d="M32.5806 7.01622L33.2206 7.39533L34.6017 6.93906C34.7577 6.88754 34.885 6.77259 34.9523 6.6224L35.0243 6.46213C35.1122 6.26588 35.0796 6.03647 34.9404 5.87279L33.4469 4.11647L33.1391 4.09581L34.5196 5.98167C34.5712 6.04886 34.5915 6.13514 34.5764 6.21849L34.5547 6.33515C34.5343 6.44511 34.4522 6.53345 34.3441 6.5614L32.5807 7.01622H32.5806Z" fill="#201F1D"/>
<path d="M31.0405 4.01099C31.0865 4.14271 31.3623 4.19545 32.0127 4.20529C32.0127 4.20529 32.2392 4.51162 32.3903 4.50506C32.5414 4.4985 33.5922 4.50506 33.5922 4.50506L33.4641 4.31368L33.2605 4.01026C33.2605 4.01026 32.4871 4.05765 32.3886 4.01026C32.2901 3.96312 32.2014 3.80503 31.9206 3.80017C31.8766 3.79956 31.8237 3.80078 31.7659 3.80418C31.7649 3.80418 31.7636 3.80418 31.7622 3.80454C31.7619 3.80418 31.7616 3.80418 31.7613 3.80454C31.7563 3.80491 31.7521 3.80552 31.7482 3.80552C31.7476 3.80515 31.7469 3.80515 31.7459 3.80552C31.4355 3.82593 31.0024 3.90236 31.0404 4.01099H31.0405Z" fill="#C3A723"/>
<path d="M31.8518 3.97308C31.8735 3.93724 31.6696 3.89653 31.5611 3.9088C31.4527 3.92108 31.2483 3.97053 31.2582 4.00273C31.268 4.03481 31.8099 4.04222 31.8518 3.97308Z" fill="#FFF9AF"/>
<path d="M33.1388 4.09557L33.5392 4.64249C34.2082 4.93229 34.7125 4.79098 34.9851 4.71479L34.5509 4.1901L34.1989 4.16677L33.4468 4.11634L33.1387 4.09557H33.1388Z" fill="#D8AF03"/>
<path d="M33.1389 4.09557L33.4033 4.45694C33.9426 4.86485 34.6764 4.7685 34.9851 4.71479L34.5509 4.1901L34.1989 4.16677L33.4468 4.11634L33.1387 4.09557H33.1389Z" fill="#9D7600"/>
<path d="M32.7331 4.22997C32.7331 4.22997 32.2159 4.32876 32.3148 4.32876H33.4721L33.4639 4.31357L33.2602 4.01016C33.2602 4.01016 32.4868 4.05754 32.3883 4.01016C32.2898 3.96301 32.2012 3.80492 31.9203 3.80006C31.8764 3.79945 31.8234 3.80067 31.7656 3.80407C32.0185 3.79484 32.1903 4.0392 32.3022 4.09558C32.4181 4.1539 32.5015 4.12122 32.5804 4.12353C32.6592 4.12547 32.733 4.22997 32.733 4.22997H32.7331Z" fill="#9D7600"/>
<path d="M32.3741 3.86931C32.3718 3.92363 32.4043 3.97308 32.4546 3.99289C32.6926 4.08572 33.3948 4.35329 34.0001 4.51891C34.3105 4.60385 34.6372 4.56837 34.9183 4.42377C34.9879 4.38817 35.0549 4.34576 35.1179 4.29667C35.3498 4.11622 35.6263 3.86227 35.8828 3.52726C35.9766 3.40441 35.8874 3.22688 35.733 3.23016L32.6201 3.30234C32.4947 3.30526 32.3928 3.40538 32.388 3.53127L32.387 3.55265L32.3741 3.86956V3.86931Z" fill="#F9DD03"/>
<path d="M32.3741 3.86931C32.3718 3.92363 32.4043 3.97308 32.4546 3.99289C32.6926 4.08572 33.3948 4.35329 34.0001 4.51891C34.3105 4.60385 34.6372 4.56837 34.9183 4.42377C35.1133 4.25706 35.3275 4.04368 35.5295 3.77988C35.6234 3.65703 35.5341 3.4795 35.3797 3.48315L32.387 3.55265L32.3741 3.86955V3.86931Z" fill="#EDC20D"/>
<path d="M0.847358 10.7267C0.936039 10.539 1.60067 10.4167 2.26081 10.3822L2.26408 10.1098C2.26541 10.0228 2.22107 9.94209 2.14814 9.89531C2.00627 9.80442 1.76264 9.62847 1.5705 9.38678C1.53016 9.33611 1.53016 9.26357 1.56953 9.21193C1.60369 9.16648 1.65094 9.1112 1.70643 9.06271C1.74023 9.03343 1.73538 8.97972 1.69722 8.957C1.665 8.93756 1.62792 8.91192 1.59049 8.87862C1.55705 8.84861 1.54809 8.79891 1.5705 8.75966C1.71697 8.50206 2.12488 8.08151 3.46237 7.52644C4.63643 7.0393 5.58612 6.80539 5.58612 6.80539C5.58612 6.80539 6.86692 6.20598 7.8028 6.04777C8.73868 5.88968 9.86186 5.86988 9.86186 5.86988C9.86186 5.86988 13.6187 4.03189 15.8749 3.44888C15.9419 3.43138 16.0098 3.41498 16.0778 3.39943C16.0782 3.39943 16.0782 3.39906 16.0782 3.39906C17.0663 3.17281 18.1441 3.11946 18.5488 3.11813C18.6568 3.11776 18.7626 3.0858 18.8525 3.02554L18.9214 2.96332C18.9583 2.93829 19.0026 2.92711 19.0468 2.93173C19.4672 2.97292 21.7295 3.21594 23.2703 3.81451L27.4082 4.97069C27.4082 4.97069 29.349 4.86194 30.482 4.95088C31.5368 5.03351 33.7017 5.72455 33.9956 5.81945C34.0186 5.82698 34.039 5.8395 34.056 5.857C34.1315 5.93476 34.3457 6.17985 34.4344 6.54512C34.4409 6.57185 34.4025 6.58534 34.391 6.5603C34.391 6.5603 34.3244 6.69506 34.2701 6.72471C34.216 6.75436 33.6199 6.92229 33.61 6.99155C33.6001 7.06069 33.9518 7.36337 33.9518 7.36337L34.0783 7.36568C34.1221 7.36665 34.1637 7.38512 34.1935 7.41769L34.5498 7.80239C34.8267 7.84492 35.3121 7.92099 35.6483 7.98126C35.7245 7.99511 35.7318 8.10144 35.6579 8.12525C35.4191 8.20205 35.0678 8.31165 34.7886 8.38614C34.7377 8.6226 34.6462 9.00342 34.4984 9.47634C34.7798 9.26284 35.0652 9.03659 35.3512 8.80863C35.3896 8.77801 35.4461 8.81033 35.439 8.85869C35.3069 9.74476 34.8051 10.4262 34.6308 10.6407C34.5943 10.6857 34.5401 10.7125 34.4824 10.7141L34.1963 10.7216L34.196 10.722L34.0528 10.8523C34.0048 10.8962 33.9431 10.9212 33.8787 10.9241C33.4938 10.9409 33.1227 10.938 32.863 10.932H32.8616C32.6416 10.9268 32.5017 10.9192 32.5017 10.9192L26.8125 10.8618L26.781 10.8631L11.7403 11.0937L11.5449 11.0989C11.5911 10.667 6.07835 10.8087 6.29897 11.2418L6.17709 11.2451C6.17709 11.2451 5.97477 11.2622 5.64936 11.2799C4.95409 11.3181 3.69704 11.3593 2.65006 11.2451C1.11316 11.0771 0.758434 10.9141 0.847116 10.7263L0.847358 10.7267ZM14.6795 5.99455V5.81884C14.6795 5.77121 14.7104 5.72904 14.7558 5.71483L15.0564 5.62078C15.1027 5.60632 15.1523 5.62904 15.1718 5.67364L15.3064 5.98215C16.869 5.91168 18.9587 5.58019 18.9587 5.58019C18.7485 5.36281 18.5055 5.4023 18.4792 5.39574C18.4737 5.39404 18.4366 5.39343 18.3817 5.39307C18.0202 5.39039 17.7236 5.10448 17.7065 4.74225C17.6944 4.48003 17.8947 4.25705 18.1561 4.24187L20.0785 4.13093C20.0785 4.13093 19.4842 4.0387 18.1705 4.0387C16.7256 4.03833 15.2741 4.71722 14.7157 5.00046C14.1575 5.2837 13.9473 5.9293 13.9473 5.9293C14.1309 5.97146 14.3841 5.99102 14.6796 5.99455H14.6795Z" fill="black"/>
<path d="M0.847245 10.7267C0.903701 10.6068 1.19507 10.5136 1.57002 10.4533C1.78216 10.4187 2.02191 10.3946 2.2607 10.3821L2.26397 10.1097C2.2653 10.0227 2.22096 9.94197 2.14803 9.89519C2.00616 9.8043 1.76253 9.62835 1.57039 9.38666C1.55791 9.37087 1.54906 9.35313 1.54446 9.33429C1.53392 9.29273 1.54216 9.24729 1.56942 9.21181C1.60358 9.16636 1.65083 9.11071 1.70632 9.06259C1.74012 9.03331 1.73527 8.9796 1.69711 8.95688C1.69348 8.95457 1.68984 8.95262 1.68633 8.95031C1.65677 8.9316 1.62357 8.90815 1.59038 8.87814C1.55694 8.84812 1.54797 8.79843 1.57039 8.75954C1.71686 8.50157 2.12477 8.08102 3.46226 7.52596C4.61791 7.04672 5.55609 6.81256 5.58541 6.80564L5.58601 6.80527C5.58601 6.80527 6.86681 6.20586 7.80269 6.04765C8.73857 5.88956 9.86174 5.86976 9.86174 5.86976C9.86174 5.86976 12.7234 4.46994 14.9512 3.72617C15.276 3.61742 15.5876 3.52288 15.8746 3.44888C16.9137 3.18046 18.116 3.11946 18.5485 3.11813C18.6566 3.11776 18.7624 3.08581 18.8523 3.02554L18.9212 2.96296C18.958 2.93829 19.0024 2.92711 19.0466 2.93137C19.467 2.97256 21.7293 3.21594 23.2701 3.81439L27.0746 4.87725L27.4078 4.97045C27.4078 4.97045 29.3487 4.8617 30.4817 4.95064C31.5365 5.03327 33.7013 5.72431 33.9952 5.81921C34.0182 5.8265 34.0386 5.83926 34.0557 5.85639C34.1312 5.9344 34.3454 6.17949 34.434 6.54451C34.4406 6.57148 34.4022 6.58497 34.3907 6.5597C34.3037 6.37099 34.1505 6.08641 33.9791 5.97839C33.9791 5.97839 33.1932 5.93489 32.8432 6.18496H32.8429C32.7594 6.24462 32.701 6.32069 32.6835 6.41814C32.6319 6.706 33.3295 7.11513 33.6858 7.28111C33.6993 7.28743 33.7121 7.29326 33.7246 7.29861C33.7331 7.30262 33.7411 7.30614 33.7489 7.30942C33.765 7.31635 33.7802 7.32255 33.7939 7.32826C33.8027 7.3319 33.8116 7.33518 33.8194 7.3381C33.8618 7.3539 33.9064 7.36216 33.9515 7.36313L34.078 7.36544C34.0888 7.36581 34.0997 7.36678 34.1102 7.36945C34.126 7.3731 34.1411 7.37905 34.1551 7.38695C34.1693 7.39485 34.182 7.40505 34.1932 7.4172V7.41757L34.7216 7.98843C34.7978 8.07106 34.8301 8.1854 34.8073 8.29573C34.7445 8.60243 34.5873 9.28058 34.2756 10.1316C34.2602 10.1742 34.2345 10.2117 34.2017 10.2414C34.1813 10.2598 34.1579 10.2749 34.133 10.2868C34.1178 10.2941 34.1017 10.2997 34.0854 10.3036C33.9668 10.3336 33.775 10.3804 33.5183 10.437C33.486 10.4439 33.453 10.4512 33.4188 10.4588C33.3846 10.466 33.3495 10.4736 33.3134 10.4811C33.2953 10.4851 33.2769 10.489 33.2585 10.4927C33.1656 10.5121 33.0667 10.5322 32.9617 10.5529C32.92 10.5612 32.877 10.5695 32.8333 10.578C32.7676 10.5905 32.6997 10.6034 32.63 10.6165C32.6067 10.6207 32.583 10.625 32.5594 10.6294L32.5519 10.6297C32.5578 10.5369 32.5626 10.4397 32.5666 10.3388C32.5755 10.1185 32.5801 9.87903 32.5801 9.61814C32.5801 9.08252 32.5042 8.61555 32.3695 8.21298C32.3607 8.18625 32.3515 8.16 32.3417 8.13388C32.3365 8.11808 32.3305 8.10229 32.3246 8.08673C32.3223 8.08054 32.32 8.07422 32.3177 8.06826C32.3108 8.04979 32.3035 8.03169 32.296 8.01358C32.2868 7.99086 32.2776 7.9685 32.2678 7.94639C32.2549 7.91637 32.2418 7.88709 32.2284 7.85817C32.2178 7.83508 32.2071 7.81272 32.1959 7.79037C32.1815 7.76133 32.1667 7.73301 32.1519 7.70507C32.1408 7.68429 32.1297 7.66387 32.1181 7.64382C32.1051 7.62074 32.0919 7.59777 32.078 7.57529C32.0646 7.55257 32.0508 7.53045 32.0366 7.50846C32.0232 7.48707 32.009 7.46569 31.9949 7.44491C31.9943 7.44394 31.9936 7.44297 31.993 7.44224C31.9788 7.42121 31.9648 7.40044 31.95 7.38027C31.9365 7.36155 31.9231 7.34272 31.9093 7.32461C31.9079 7.32267 31.9064 7.3206 31.9047 7.31866C31.8893 7.29861 31.8738 7.27844 31.858 7.259C31.8423 7.23919 31.8265 7.22011 31.8104 7.20104C31.7943 7.1822 31.7782 7.16349 31.7618 7.14502C31.7444 7.12558 31.7267 7.1065 31.709 7.08767C31.6925 7.07053 31.6765 7.05413 31.6601 7.0376C31.6459 7.02339 31.6318 7.00965 31.6174 6.9958C31.6128 6.99119 31.6082 6.98657 31.6033 6.98232C31.5871 6.96713 31.5708 6.95206 31.5543 6.93723C31.5366 6.92107 31.5186 6.90528 31.5002 6.88985C31.5002 6.88985 31.5 6.88972 31.4998 6.88948C31.4817 6.87405 31.4633 6.85886 31.4447 6.84403C31.4263 6.82885 31.4076 6.81402 31.3885 6.79993C31.3691 6.78474 31.3493 6.77028 31.3293 6.75606C31.3106 6.74257 31.2919 6.72933 31.2731 6.71657C31.256 6.70503 31.239 6.69348 31.2219 6.68267C31.195 6.66493 31.1677 6.64779 31.1401 6.63127C31.1247 6.62203 31.1096 6.61316 31.0938 6.60429C31.0784 6.59542 31.0626 6.58655 31.0468 6.57792C31.0071 6.55581 30.9667 6.53515 30.9257 6.51535C30.9126 6.50879 30.899 6.50247 30.8859 6.49663C30.8725 6.49007 30.8587 6.48375 30.8449 6.47792C30.8239 6.46832 30.8025 6.45909 30.7811 6.45022H30.7808C30.7594 6.44135 30.7381 6.43272 30.7164 6.42458C30.6948 6.41607 30.6731 6.40805 30.6514 6.40015C30.6297 6.39225 30.6076 6.38472 30.5857 6.37743C30.54 6.36224 30.4941 6.34815 30.4477 6.33563C30.4274 6.32968 30.407 6.32445 30.3863 6.31911C30.3721 6.31546 30.3577 6.31181 30.3433 6.30853C30.3279 6.30465 30.3128 6.30124 30.2974 6.29796C30.2822 6.29432 30.2669 6.29104 30.2517 6.28812C30.2304 6.28387 30.2093 6.27961 30.188 6.2756C30.164 6.27135 30.1398 6.2671 30.1158 6.26345C30.0928 6.25981 30.0701 6.25653 30.0471 6.25361C30.0277 6.25094 30.0083 6.24839 29.9886 6.24632C29.9705 6.24401 29.9525 6.24207 29.9344 6.24073C29.9233 6.23939 29.9118 6.23842 29.9006 6.23745C29.8806 6.23551 29.8609 6.23417 29.8409 6.23283C29.8209 6.2315 29.8005 6.23016 29.7804 6.22955C29.767 6.22894 29.7538 6.22821 29.7403 6.22785C29.7256 6.22724 29.7104 6.22688 29.6954 6.22651C29.6747 6.22615 29.6543 6.22591 29.6336 6.22591C29.2458 6.22591 28.8911 6.28557 28.5722 6.39517C28.5229 6.4117 28.4747 6.4298 28.4274 6.44888H28.4271C28.3568 6.47719 28.2888 6.50818 28.2225 6.54147C28.2215 6.54184 28.2205 6.54208 28.2195 6.54281C28.1752 6.56492 28.1316 6.58825 28.0888 6.61292C28.0671 6.62507 28.0458 6.63759 28.0247 6.65047C27.7518 6.81609 27.5157 7.02497 27.3193 7.26677C27.3072 7.2816 27.2953 7.29642 27.2841 7.31125C27.273 7.32473 27.2625 7.33859 27.2526 7.35244C27.2517 7.35378 27.2507 7.35475 27.2497 7.35608L26.6261 7.92622C26.6261 7.92622 26.1302 9.34061 26.6261 10.8538C26.6274 10.858 26.6287 10.8617 26.6301 10.8657L12.0777 11.0887C12.0658 9.51486 11.4452 8.48954 11.4452 8.48954H11.4448C11.4389 8.4718 11.4323 8.45467 11.4254 8.43717C11.4123 8.40254 11.3982 8.36803 11.3834 8.33437C11.3765 8.31724 11.369 8.30084 11.3611 8.28395C11.3538 8.26718 11.3459 8.25065 11.3378 8.23425C11.3313 8.21979 11.324 8.20557 11.3169 8.19148C11.2913 8.14081 11.2643 8.09135 11.2357 8.04287C11.2275 8.02841 11.2186 8.01383 11.2098 7.99973C11.2081 7.99706 11.2065 7.99451 11.2052 7.99183L11.1815 7.95429C11.1789 7.95064 11.1763 7.94675 11.174 7.94274C11.1662 7.93059 11.1583 7.91868 11.1501 7.9069C11.1402 7.89207 11.1303 7.87761 11.1199 7.86303C11.1101 7.84881 11.1001 7.83508 11.09 7.82123C11.0894 7.82026 11.0886 7.81953 11.088 7.81856C11.0795 7.80665 11.0706 7.79523 11.0617 7.78368C11.0362 7.74978 11.0095 7.71685 10.9819 7.68417C10.9704 7.67031 10.9586 7.65646 10.9468 7.64297C10.9333 7.62778 10.9199 7.61272 10.9061 7.59789C10.8899 7.58015 10.8736 7.56265 10.8565 7.54516C10.8411 7.52936 10.8254 7.51356 10.8095 7.49801C10.7429 7.43252 10.6732 7.37115 10.6003 7.31356C10.5878 7.30371 10.5753 7.29375 10.5625 7.28427C10.4972 7.23384 10.4291 7.18682 10.3592 7.14295C10.348 7.13603 10.3369 7.1291 10.3257 7.12218C10.2801 7.09423 10.2334 7.06749 10.1858 7.04246C10.1707 7.0342 10.1553 7.02594 10.1399 7.0184C10.1255 7.01087 10.1109 7.00358 10.0965 6.99665C10.0801 6.98839 10.0633 6.98049 10.0463 6.97259C10.0282 6.96433 10.0102 6.95607 9.99174 6.94817C9.97793 6.94197 9.96412 6.93602 9.95006 6.93043C9.93528 6.92411 9.92087 6.91791 9.90609 6.91232C9.89397 6.90734 9.88149 6.90248 9.86901 6.89786C9.85096 6.89057 9.83291 6.88401 9.8145 6.87745C9.79475 6.87016 9.77476 6.86323 9.75477 6.85667C9.73866 6.85108 9.72254 6.84586 9.70619 6.84088C9.69274 6.83662 9.67929 6.83237 9.66585 6.82836C9.64937 6.82338 9.63301 6.81852 9.61654 6.8139C9.59618 6.80831 9.57583 6.80272 9.55512 6.79737C9.53149 6.79142 9.5075 6.78547 9.48352 6.77988C9.46353 6.77526 9.44342 6.77101 9.42343 6.76675C9.40174 6.76214 9.37969 6.75788 9.35813 6.75387C9.33814 6.75023 9.31802 6.74658 9.29804 6.7433C9.27998 6.74039 9.2623 6.73771 9.24412 6.73504C9.23104 6.73309 9.21747 6.73139 9.20439 6.72981C9.19712 6.72848 9.18961 6.72787 9.1821 6.7269C9.16998 6.7252 9.15774 6.72398 9.14563 6.72265C9.08881 6.71645 9.03139 6.71183 8.97384 6.70879C8.95942 6.70819 8.94488 6.70746 8.93047 6.70685C8.91532 6.70624 8.89994 6.70588 8.88479 6.70551C8.86408 6.70515 8.84312 6.7049 8.82204 6.7049C8.79841 6.7049 8.77479 6.70527 8.75105 6.70588C8.72439 6.70624 8.69786 6.70721 8.67157 6.70855C8.66273 6.70891 8.65388 6.70916 8.64492 6.70989C8.62396 6.71122 8.60324 6.71256 8.58216 6.71414C8.57926 6.71414 8.57586 6.7145 8.57296 6.71475C8.55163 6.71645 8.53031 6.71839 8.50887 6.7207C8.50596 6.7207 8.50293 6.72107 8.50002 6.72167C8.4787 6.72362 8.45762 6.72593 8.43666 6.72896C8.41437 6.73164 8.39196 6.73455 8.36967 6.7382C8.35949 6.73953 8.34968 6.74111 8.33974 6.74282C8.33744 6.74282 8.33514 6.74318 8.33284 6.74379C8.31345 6.7467 8.29443 6.75011 8.27565 6.75363C8.25106 6.75788 8.22707 6.76287 8.20272 6.76785C8.1751 6.7738 8.1476 6.78 8.12034 6.78656C8.0743 6.79774 8.02899 6.80989 7.98441 6.82313C7.96079 6.83006 7.93716 6.83735 7.91378 6.84489C7.8675 6.86007 7.82146 6.87648 7.77615 6.89398C7.73121 6.91147 7.6865 6.92982 7.64277 6.94963C7.62072 6.95947 7.59903 6.96943 7.57771 6.97988C7.5347 7.00066 7.4923 7.02241 7.45062 7.04514C7.42991 7.05668 7.40919 7.06822 7.38884 7.08038C7.36752 7.09253 7.34644 7.10541 7.32584 7.11853C7.31373 7.12582 7.30149 7.13372 7.28938 7.14162C7.27956 7.14757 7.26963 7.15413 7.26018 7.16069C7.246 7.16993 7.23195 7.17941 7.21778 7.18974C7.21184 7.19338 7.2059 7.19727 7.20033 7.20164C7.18555 7.21185 7.17077 7.22242 7.15635 7.23324C7.13333 7.25 7.11044 7.26714 7.08802 7.28524C7.06925 7.2997 7.05095 7.31453 7.03254 7.32972C7.03157 7.33032 7.03084 7.33069 7.0306 7.33142C7.00928 7.34916 6.9882 7.36702 6.9676 7.38549C6.96566 7.38719 6.96373 7.38877 6.96167 7.39072C6.94592 7.40457 6.93041 7.41866 6.91502 7.43324C6.90654 7.44078 6.8983 7.44868 6.89007 7.45657C6.8536 7.4912 6.81847 7.52669 6.78394 7.56326C6.77643 7.57116 6.7688 7.57906 6.76189 7.58732C6.74808 7.60215 6.73463 7.61697 6.72155 7.63216C6.71888 7.63483 6.71658 7.63738 6.71428 7.64042C6.69853 7.65816 6.68278 7.67663 6.66764 7.6951C6.664 7.69935 6.66037 7.70361 6.6571 7.70798C6.63965 7.729 6.62293 7.75015 6.60658 7.77153C6.60524 7.77323 6.60391 7.77481 6.6027 7.77651C6.58598 7.79826 6.5695 7.82001 6.55375 7.84237C6.53958 7.86145 6.52589 7.88089 6.51269 7.9007C6.50384 7.91321 6.49524 7.92573 6.48712 7.93861C6.47404 7.95769 6.46156 7.97713 6.44932 7.99694C6.43878 8.01346 6.42861 8.0295 6.41879 8.04639C6.4148 8.05235 6.41128 8.0583 6.40765 8.0645V8.0651C6.40014 8.07568 5.68257 9.10002 5.59122 10.1823C5.55996 10.5518 5.60176 10.9284 5.76992 11.2736C5.62248 11.2825 5.44087 11.2917 5.23528 11.3C5.22147 11.3006 5.20742 11.3013 5.19361 11.3017C5.15157 11.3034 5.1082 11.305 5.06422 11.3063C5.04253 11.3069 5.02085 11.308 4.99892 11.3086C4.99105 11.3086 4.98317 11.309 4.9753 11.3092C4.96015 11.3096 4.94513 11.3102 4.92962 11.3106C4.83307 11.3132 4.73288 11.3155 4.62978 11.3171C4.58713 11.3177 4.54413 11.3185 4.50039 11.3191C3.91063 11.3253 3.24589 11.3108 2.64947 11.2457C2.3661 11.2147 2.12307 11.1841 1.91554 11.1531C1.88368 11.1485 1.85254 11.1435 1.82226 11.1389C1.79209 11.1339 1.76277 11.1293 1.73394 11.1246H1.73333C0.967546 10.9975 0.77928 10.8693 0.846639 10.7267H0.847245ZM12.5024 6.2428C14.6193 6.40878 21.5088 5.61239 24.3455 4.9984C24.488 4.96741 24.4989 4.76753 24.3607 4.72074C22.6892 4.15851 18.8429 3.28496 16.6561 3.83237C14.728 4.31526 13.0397 5.53499 12.4328 6.0112C12.3399 6.08435 12.3846 6.23356 12.5024 6.2428Z" fill="#F9DD03"/>
<path d="M15.8746 3.449C16.9137 3.18059 18.116 3.11959 18.5485 3.11825C18.6565 3.11789 18.7623 3.08593 18.8522 3.02566L18.9211 2.96308C18.958 2.93841 19.0023 2.92723 19.0465 2.93149C19.4669 2.97268 21.7292 3.21607 23.27 3.81451L27.0745 4.87737L27.1483 5.0001C27.1483 5.0001 27.1423 5.00144 27.1299 5.00277C25.2066 5.27289 22.5107 5.86599 20.2584 6.09419C20.2584 6.09419 23.6561 5.44191 25.394 5.05016C25.6235 4.9984 25.6295 4.67287 25.4023 4.61236C23.9929 4.23701 21.3305 3.59178 19.8215 3.48388C18.033 3.35593 16.367 3.58364 15.5473 3.85473C15.2899 3.94003 15.0958 3.86688 14.9507 3.72629C15.2755 3.61754 15.5871 3.52301 15.8741 3.449H15.8746Z" fill="#EDC20D"/>
<path d="M21.6091 5.90135C21.523 5.76222 21.3852 5.53244 21.381 5.50656C21.3813 5.49088 21.3633 5.4277 21.2507 5.05283C21.1488 4.71357 21.0093 4.24891 20.967 4.06009C20.8946 3.73614 20.399 3.32579 20.3821 3.31279L20.3672 3.33248C20.3713 3.33563 20.8726 3.75035 20.943 4.06555C20.9854 4.25523 21.1194 4.70142 21.2271 5.06C21.2931 5.27982 21.3555 5.48748 21.3566 5.50547C21.3569 5.51786 21.6092 5.90147 21.6092 5.90147L21.6091 5.90135Z" fill="black"/>
<path opacity="0.72" d="M12.4518 6.13222C12.4547 6.14182 12.4672 6.17402 12.508 6.1773C12.6946 6.19176 12.9254 6.19942 13.1941 6.19942C14.7625 6.19942 17.4606 5.95044 19.9283 5.63548C19.9792 5.62929 20.0298 5.6226 20.0807 5.61604C20.1164 5.61142 20.1519 5.60681 20.1874 5.60219C20.5835 5.55043 20.9724 5.49708 21.3481 5.44337C21.3645 5.4407 21.3809 5.43839 21.3974 5.43608C22.357 5.2978 23.2291 5.15418 23.9181 5.01906C24.065 4.99001 24.2032 4.9617 24.3322 4.93376C24.3749 4.92452 24.3917 4.89062 24.3933 4.86194C24.395 4.8329 24.3818 4.79705 24.3401 4.7832C23.252 4.41697 20.5944 3.72459 18.3242 3.72459C17.6828 3.72459 17.1272 3.78256 16.6726 3.89617C14.7676 4.3731 13.1016 5.57048 12.4737 6.06284C12.4419 6.08787 12.4491 6.12214 12.452 6.13198L12.4518 6.13222Z" fill="black"/>
<path d="M2.26067 10.3822C2.02188 10.3947 1.78213 10.4188 1.57 10.4534C1.61894 10.6827 1.67806 10.9165 1.73391 11.1246H1.73452C1.76347 11.1293 1.79267 11.1339 1.82284 11.1389C1.853 11.1435 1.88426 11.1485 1.91612 11.1531C2.12365 11.1841 2.36668 11.2147 2.65004 11.2457C3.24646 11.3109 3.91109 11.3254 4.50097 11.3191C4.5447 11.3185 4.58771 11.3177 4.63036 11.3171C4.73345 11.3154 4.83365 11.3131 4.9302 11.3106C4.94559 11.3102 4.96073 11.3096 4.97588 11.3092C4.98375 11.3089 4.99162 11.3086 4.9995 11.3086C5.02155 11.308 5.04323 11.3069 5.0648 11.3063C5.10878 11.305 5.15215 11.3034 5.19419 11.3017C5.208 11.3013 5.22205 11.3007 5.23586 11.3C5.44145 11.2917 5.62306 11.2825 5.7705 11.2736C6.0243 11.2584 6.17707 11.2457 6.17707 11.2457L6.29895 11.2424C6.24734 11.1409 6.20082 11.0358 6.16036 10.9278L5.59192 10.1824L4.91603 9.29577C4.00716 9.75399 2.93826 9.51437 2.88847 10.7275L2.85103 10.7256L2.82087 10.7239C2.82087 10.7239 2.80839 10.4528 2.84752 10.243C2.85503 10.2018 2.8646 10.1629 2.87672 10.129C2.95062 9.9218 3.62154 8.91885 3.62154 8.91885L4.19688 8.58189C4.19688 8.58189 1.87711 9.12772 1.54443 9.33454C1.54904 9.35325 1.55788 9.37111 1.57036 9.38691C1.7625 9.62872 2.00613 9.80454 2.148 9.89543C2.22093 9.94221 2.26527 10.0229 2.26394 10.1099L2.26297 10.205L2.26261 10.2166L2.26067 10.3822Z" fill="#CCA701"/>
<path d="M7.64375 6.94976C7.6217 6.95936 7.60001 6.96956 7.57869 6.98001C7.53568 7.00043 7.49328 7.02218 7.4516 7.04527C7.43089 7.05681 7.41017 7.06835 7.38982 7.0805C7.36849 7.09265 7.34741 7.10553 7.32682 7.11866C7.31434 7.12595 7.30247 7.13348 7.29035 7.14175C7.28054 7.1477 7.27061 7.15426 7.26116 7.16082C7.24698 7.17006 7.23293 7.17954 7.21875 7.18986C7.21282 7.19351 7.20688 7.1974 7.20131 7.20177C7.18653 7.21198 7.17175 7.22255 7.15733 7.23336C7.13431 7.25013 7.11141 7.26727 7.089 7.28537C7.07022 7.29959 7.05157 7.31466 7.03352 7.32984C7.03255 7.33045 7.03182 7.33082 7.03158 7.33155C7.01025 7.34904 6.98917 7.36715 6.96858 7.38562C6.96664 7.38732 6.9647 7.3889 6.96264 7.39084C6.94689 7.4047 6.93139 7.41879 6.916 7.43337C6.90752 7.44091 6.89928 7.4488 6.89104 7.4567C6.85458 7.49133 6.81944 7.52682 6.78492 7.56339C6.77741 7.57129 6.77014 7.57919 6.76287 7.58745C6.74906 7.60227 6.73561 7.6171 6.72252 7.63229C6.71986 7.63496 6.71756 7.63751 6.71526 7.64055C6.69951 7.65829 6.684 7.67676 6.66861 7.69523C6.66498 7.69948 6.66134 7.70374 6.65807 7.70811C6.64099 7.72913 6.62391 7.75027 6.60755 7.77166C6.60622 7.77336 6.60489 7.77494 6.60368 7.77664C6.5872 7.79839 6.57085 7.82014 6.55473 7.8425C6.54056 7.86158 6.52711 7.88102 6.51366 7.90083C6.50482 7.91334 6.49622 7.92586 6.4881 7.93874C6.47502 7.95782 6.46254 7.97726 6.4503 7.99706C6.43976 8.01323 6.42958 8.02963 6.41977 8.04652C6.41577 8.05247 6.41226 8.05843 6.40863 8.06463V8.06499L5.9502 8.48943C5.96413 8.45285 5.97842 8.4164 5.99345 8.38019C6.62403 6.86506 7.91124 6.52252 8.77831 6.51584C9.64526 6.50928 12.6994 6.80905 14.0196 6.87819C15.3398 6.94733 19.957 6.37756 22.2821 6.12725C24.6072 5.87693 27.773 5.76162 29.6153 5.88021C31.4576 5.99881 32.3311 7.28173 32.3311 7.28173H33.6864C33.6999 7.28805 33.7127 7.29388 33.7252 7.29922C33.7337 7.30323 33.7417 7.30676 33.7495 7.31004C33.7657 7.31696 33.7808 7.32316 33.7945 7.32887C33.8037 7.33252 33.8122 7.3358 33.8201 7.33872C33.8625 7.35451 33.907 7.36277 33.9521 7.36375L34.0786 7.36606C34.0894 7.36642 34.1003 7.36776 34.1108 7.37007C34.1266 7.37371 34.1417 7.37966 34.1558 7.38756C34.1699 7.39583 34.1827 7.40603 34.1938 7.41818L34.7223 7.98904C34.7985 8.07167 34.8307 8.18602 34.8079 8.29635C34.7452 8.60304 34.5879 9.2812 34.2762 10.1323C34.2608 10.1748 34.2351 10.2123 34.2023 10.242C34.1819 10.2605 34.1586 10.2759 34.1336 10.2874C34.1184 10.2947 34.1023 10.3003 34.086 10.3042C33.9674 10.3342 33.7756 10.381 33.5189 10.4376C33.4867 10.4445 33.4536 10.4518 33.4194 10.4594C33.3853 10.4667 33.3501 10.4742 33.314 10.4817C33.296 10.4857 33.2775 10.4896 33.2591 10.4933C33.1662 10.5127 33.0674 10.5331 32.9623 10.5535C32.9206 10.5618 32.8776 10.5703 32.8339 10.5786C32.7682 10.5915 32.7003 10.6042 32.6306 10.6171C32.6073 10.6213 32.5836 10.6256 32.56 10.63L32.5525 10.6303C32.5584 10.5375 32.5633 10.4403 32.5672 10.3394C32.5761 10.1191 32.5807 9.87964 32.5807 9.61876C32.5807 9.08313 32.5049 8.61617 32.3701 8.2136C32.3613 8.18687 32.3521 8.16062 32.3423 8.13449C32.3371 8.1187 32.3311 8.1029 32.3252 8.08735C32.3229 8.08115 32.3206 8.07483 32.3183 8.06888C32.311 8.05041 32.3041 8.0323 32.2966 8.0142C32.2874 7.99147 32.2782 7.96912 32.2684 7.947C32.2555 7.91699 32.2424 7.8877 32.229 7.85878C32.2185 7.83606 32.2077 7.81334 32.1965 7.79098C32.1821 7.76194 32.1673 7.73363 32.1526 7.70568C32.1414 7.6849 32.1303 7.66449 32.1188 7.64444C32.1059 7.62135 32.0925 7.59863 32.0787 7.57591C32.0652 7.55355 32.0514 7.53107 32.0372 7.50907C32.0238 7.48769 32.0096 7.4663 31.9955 7.44552C31.9949 7.44455 31.9942 7.44358 31.9936 7.44285C31.9798 7.42183 31.9654 7.40129 31.9506 7.38088C31.9375 7.36217 31.9237 7.3437 31.9099 7.32523C31.9086 7.32328 31.907 7.32122 31.9053 7.31927C31.8901 7.29922 31.8748 7.27905 31.8586 7.25961C31.8433 7.23981 31.8271 7.22073 31.811 7.20165C31.7949 7.18257 31.7788 7.1641 31.7624 7.14563C31.745 7.12619 31.7273 7.10711 31.7096 7.08828C31.6935 7.07115 31.6772 7.05438 31.6607 7.03822C31.6465 7.02376 31.6325 7.0099 31.618 6.99642C31.6134 6.9918 31.6088 6.98718 31.6039 6.98293C31.5878 6.9675 31.5714 6.95267 31.5549 6.93785C31.5372 6.92169 31.5192 6.90589 31.5008 6.89046C31.5008 6.89046 31.5006 6.89034 31.5004 6.89009C31.4824 6.87466 31.4639 6.85911 31.4453 6.84465C31.4265 6.82922 31.4078 6.81464 31.3891 6.80054C31.3697 6.78535 31.3499 6.77089 31.33 6.75668C31.3115 6.74319 31.2929 6.72994 31.2737 6.71718C31.257 6.70564 31.2399 6.6941 31.2225 6.68328C31.1956 6.66554 31.1683 6.64841 31.1407 6.63188C31.1253 6.62265 31.1098 6.61341 31.0944 6.60491C31.0787 6.59567 31.0632 6.58717 31.0474 6.57854C31.0077 6.55642 30.9673 6.53577 30.9263 6.51596C30.9132 6.5094 30.8996 6.50308 30.8865 6.49725C30.8731 6.49069 30.8593 6.48437 30.8455 6.47854C30.8245 6.46894 30.8031 6.4597 30.7817 6.45083H30.7814C30.7601 6.44196 30.7387 6.43333 30.7171 6.42519C30.6954 6.41669 30.6737 6.40867 30.652 6.40077C30.6303 6.39287 30.6083 6.38534 30.5863 6.37805C30.5407 6.36286 30.4947 6.34876 30.4483 6.33625C30.428 6.33029 30.4076 6.3247 30.3869 6.31972C30.3725 6.31607 30.3583 6.31243 30.3439 6.30915C30.3285 6.30526 30.3134 6.30186 30.298 6.29858C30.2829 6.29493 30.2675 6.29165 30.2523 6.28873C30.231 6.28448 30.2099 6.28023 30.1886 6.27622C30.1646 6.27197 30.1404 6.26771 30.1164 6.26407C30.0934 6.26042 30.0704 6.25714 30.0477 6.25423C30.0283 6.25155 30.0086 6.249 29.9892 6.24693C29.9711 6.24463 29.9531 6.24268 29.935 6.24135C29.9235 6.24001 29.9124 6.23867 29.9012 6.23806C29.8812 6.23612 29.8615 6.23478 29.8415 6.23345C29.8215 6.23211 29.8014 6.23077 29.781 6.23017C29.768 6.22956 29.7544 6.22883 29.741 6.22846C29.7262 6.22786 29.711 6.22749 29.696 6.22713C29.6753 6.22676 29.6549 6.22652 29.6342 6.22652C29.2464 6.22652 28.8917 6.28618 28.5728 6.39579C28.5235 6.41255 28.4757 6.43042 28.4281 6.44949C28.4281 6.44949 28.4281 6.44986 28.4277 6.44949C28.3578 6.47781 28.2895 6.50879 28.2231 6.54209C28.2221 6.54245 28.2211 6.54269 28.2202 6.54342C28.1758 6.56578 28.1322 6.58923 28.0894 6.61353C28.0678 6.62569 28.0464 6.6382 28.0254 6.65108C27.9946 6.66979 27.9643 6.68924 27.9345 6.70904C27.9192 6.71913 27.9044 6.72958 27.8894 6.74003C27.8749 6.75011 27.8603 6.76008 27.846 6.77041C27.8295 6.78244 27.8131 6.79459 27.7969 6.80698C27.7846 6.81622 27.7725 6.82545 27.7605 6.83493C27.7438 6.84805 27.7271 6.8613 27.7107 6.87478C27.6998 6.88378 27.689 6.89289 27.6783 6.902C27.6614 6.91622 27.6446 6.93056 27.6282 6.94526C27.6193 6.95328 27.6105 6.96154 27.6016 6.96956C27.5387 7.02704 27.4786 7.08719 27.4215 7.15001C27.4175 7.15438 27.4134 7.15864 27.4095 7.16301C27.404 7.16896 27.3984 7.17504 27.3936 7.18099C27.3682 7.20931 27.344 7.23798 27.32 7.26727C27.3081 7.28209 27.2964 7.29692 27.2849 7.31174C27.2741 7.32523 27.2636 7.33908 27.2534 7.35293L26.6297 7.92306C26.6297 7.92306 26.1338 9.33746 26.6297 10.8508C26.6314 10.856 26.6331 10.8608 26.6349 10.8661L12.0785 11.0892C12.0666 9.51547 11.4459 8.48992 11.4459 8.48992H11.4455C11.4394 8.47242 11.4327 8.45504 11.4262 8.43754C11.4127 8.40267 11.3989 8.3684 11.3841 8.33474C11.3769 8.31761 11.3693 8.30121 11.3618 8.28432C11.3543 8.26755 11.3464 8.25102 11.3386 8.23462C11.3317 8.22016 11.3248 8.20594 11.3176 8.19185C11.292 8.14118 11.265 8.09172 11.2364 8.04324C11.228 8.02878 11.2194 8.0142 11.2105 8.0001C11.2088 7.99743 11.2072 7.99488 11.2059 7.9922L11.1823 7.95466C11.1796 7.95101 11.1771 7.94712 11.1748 7.94311C11.1669 7.93096 11.159 7.91905 11.1508 7.90727C11.141 7.89244 11.131 7.87798 11.1206 7.8634C11.1108 7.84919 11.1009 7.83545 11.0907 7.8216C11.0901 7.82063 11.0894 7.8199 11.0888 7.81893C11.0803 7.80702 11.0713 7.7956 11.0625 7.78405C11.0369 7.75015 11.0103 7.71722 10.9826 7.68454C10.9711 7.67068 10.9596 7.65683 10.9475 7.64334C10.9344 7.62816 10.9206 7.61309 10.9068 7.59826C10.8907 7.58052 10.8743 7.56303 10.8572 7.54553C10.8419 7.52973 10.8261 7.51393 10.8102 7.49838C10.7436 7.43289 10.6739 7.37152 10.601 7.31393C10.5885 7.30408 10.5761 7.29412 10.5632 7.28464C10.4979 7.23422 10.4298 7.18719 10.3599 7.14332C10.3488 7.1364 10.3376 7.12947 10.3265 7.12255C10.2808 7.0946 10.2342 7.06787 10.1866 7.04283C10.1714 7.03457 10.156 7.02667 10.1406 7.01878C10.1262 7.01124 10.1117 7.00432 10.0973 6.99702C10.0808 6.98876 10.0641 6.98086 10.047 6.97297C10.0289 6.9647 10.0109 6.95644 9.99247 6.94854C9.97866 6.94234 9.96485 6.93639 9.9508 6.9308C9.93638 6.92448 9.9216 6.91865 9.90682 6.9127C9.89471 6.90771 9.88223 6.90285 9.86975 6.89824C9.8517 6.89095 9.83365 6.88438 9.81523 6.87782C9.79548 6.87053 9.77549 6.86361 9.7555 6.85704C9.73939 6.85145 9.72328 6.84623 9.70692 6.84125C9.69348 6.83699 9.68003 6.83274 9.66658 6.82873C9.6501 6.82375 9.63375 6.81889 9.61727 6.81427C9.59692 6.80868 9.57657 6.80309 9.55585 6.79775C9.53223 6.79179 9.50824 6.78584 9.48425 6.78025C9.46426 6.77563 9.44415 6.77138 9.42416 6.76713C9.40247 6.76251 9.38079 6.75825 9.35886 6.75424C9.33887 6.7506 9.31876 6.74695 9.29877 6.74367C9.28072 6.74076 9.26303 6.73808 9.24486 6.73541C9.23177 6.73347 9.21857 6.73177 9.20512 6.73019C9.19785 6.72885 9.19034 6.72824 9.18283 6.72727C9.17096 6.72557 9.15848 6.72435 9.14636 6.72302C9.08955 6.71682 9.03212 6.7122 8.97457 6.70916C8.96016 6.70856 8.94562 6.70783 8.9312 6.70722C8.91606 6.70661 8.90067 6.70625 8.88553 6.70588C8.86445 6.70552 8.84385 6.70528 8.82277 6.70528C8.79915 6.70528 8.77553 6.70564 8.75178 6.70625C8.72513 6.70661 8.6986 6.70758 8.67231 6.70892C8.66346 6.70929 8.65462 6.70953 8.64565 6.71026C8.62469 6.71159 8.60361 6.71293 8.5829 6.71451C8.57999 6.71451 8.5766 6.71488 8.57369 6.71512C8.55237 6.71682 8.53105 6.71876 8.5096 6.72107C8.50669 6.72107 8.50367 6.72144 8.50076 6.72204C8.47944 6.72399 8.45836 6.7263 8.4374 6.72934C8.41511 6.73201 8.39269 6.73492 8.3704 6.73857C8.36059 6.73991 8.35041 6.74124 8.34048 6.74319C8.33818 6.74319 8.33587 6.74355 8.33357 6.74416C8.31455 6.74708 8.29553 6.75048 8.27639 6.754C8.25204 6.75825 8.22781 6.76324 8.20346 6.76822C8.17583 6.77417 8.14833 6.78037 8.12108 6.78693C8.07504 6.79775 8.02973 6.81002 7.98515 6.82351C7.96116 6.83043 7.9379 6.83772 7.91452 6.84526C7.86787 6.86045 7.82196 6.87661 7.77689 6.89435C7.73158 6.91148 7.68724 6.93019 7.6435 6.95L7.64375 6.94976ZM23.9636 10.0268C24.9488 9.7896 24.3314 9.57878 24.3314 9.57878C22.0982 9.60515 19.852 10.198 18.1443 10.2902C18.1443 10.2902 22.9784 10.2639 23.9636 10.0267V10.0268Z" fill="#EDC20D"/>
<path d="M10.5504 7.2748C10.6588 7.35682 10.7612 7.4471 10.8564 7.54516C11.1102 7.80604 11.3133 8.12295 11.4452 8.48955H11.4456C16.1275 8.48955 13.4844 7.85319 13.2465 7.05206C13.2451 7.04781 13.2544 7.05012 13.2573 7.04915C12.476 7.06227 10.5837 7.27115 10.5503 7.2748H10.5504Z" fill="#CCA701"/>
<path d="M11.763 9.5117C11.763 10.1553 11.7399 11.094 11.7399 11.094L26.7807 10.8635L26.8122 10.8622C26.8122 10.8622 26.3701 9.95765 24.9613 9.78972C24.2964 9.71049 23.7829 9.59153 23.426 9.48813C23.1608 9.41121 23.0622 9.08313 23.2449 8.87559C24.0365 7.97628 24.2336 6.48898 24.2446 6.46164L22.0385 7.39181L11.4453 8.48967C11.5547 8.79272 11.7628 9.14486 11.7628 9.5117H11.763Z" fill="#D8AF03"/>
<path d="M12.4331 8.70924C12.4331 8.70924 11.9833 8.75408 11.9307 8.87923C11.8781 9.00439 12.4298 10.5023 12.4331 10.6789C12.4364 10.8555 11.6679 10.8226 11.6679 10.8226L11.6948 9.20865L11.5825 8.55674L12.5612 8.39319L12.4331 8.70924Z" fill="#9D7600"/>
<path d="M27.8891 6.73953C27.8745 6.74962 27.86 6.75958 27.8457 6.76991C27.8291 6.78194 27.8128 6.79409 27.7965 6.80649C27.7843 6.81572 27.7722 6.82496 27.7602 6.83443C27.7435 6.84756 27.7267 6.8608 27.7104 6.87429C27.6995 6.88328 27.6887 6.89239 27.6779 6.90151C27.6611 6.91572 27.6442 6.93006 27.6279 6.94477C27.6189 6.95279 27.6102 6.96105 27.6012 6.96907C27.5383 7.02654 27.4783 7.08669 27.4212 7.14951C27.4172 7.15389 27.4131 7.15814 27.4092 7.16251C27.4036 7.16847 27.3981 7.17454 27.3932 7.1805C27.3679 7.20881 27.3437 7.23749 27.3197 7.26677C27.3078 7.2816 27.296 7.29642 27.2845 7.31124C27.2738 7.32473 27.2632 7.33858 27.253 7.35244C27.2521 7.35377 27.2511 7.35475 27.2501 7.35608L26.7056 7.63167C27.2494 6.53175 28.3507 5.83719 29.615 5.87972C31.4601 5.94181 32.3308 7.28123 32.3308 7.28123H33.6861C33.6995 7.28743 33.7124 7.29338 33.7249 7.29873C33.7333 7.30262 33.7413 7.30626 33.7492 7.30954C33.7653 7.31647 33.7805 7.32267 33.7941 7.32826C33.8034 7.3319 33.8118 7.33518 33.8197 7.3381C33.8621 7.35389 33.9067 7.36216 33.9518 7.36313L34.0782 7.36544C34.089 7.3658 34.0999 7.36714 34.1105 7.36933C34.1262 7.37297 34.1414 7.37893 34.1554 7.38682C34.1696 7.39509 34.1823 7.40529 34.1935 7.41745L34.7219 7.98831C34.7981 8.07093 34.8303 8.18528 34.8076 8.29561C34.7448 8.6023 34.5876 9.28046 34.2758 10.1315C34.2605 10.1741 34.2348 10.2116 34.2019 10.2413C34.1816 10.2597 34.1582 10.2752 34.1332 10.2867C34.1181 10.294 34.102 10.2996 34.0856 10.3035C33.967 10.3335 33.7753 10.3803 33.5185 10.4369C33.4863 10.4438 33.4532 10.4511 33.4191 10.4586C33.3849 10.4659 33.3498 10.4735 33.3137 10.481C33.2956 10.485 33.2772 10.4889 33.2588 10.4925C33.1659 10.512 33.067 10.5324 32.962 10.5528C32.9203 10.5611 32.8773 10.5696 32.8336 10.5778C32.7679 10.5907 32.6999 10.6035 32.6303 10.6164C32.607 10.6206 32.5833 10.6249 32.5596 10.6292L32.5521 10.6296C32.5575 10.5461 32.5618 10.4588 32.5656 10.3687C32.5656 10.369 32.5656 10.3691 32.5656 10.3693L33.9203 10.1055C33.9203 10.1055 34.3012 9.05153 34.38 8.5509C34.4411 8.16219 33.4375 8.49197 32.429 8.40861C32.4299 8.41165 32.4302 8.41469 32.431 8.41785C32.4121 8.34798 32.3921 8.27933 32.3699 8.21298C32.3611 8.18625 32.3519 8.16 32.3421 8.13388C32.3368 8.11808 32.3309 8.10228 32.325 8.08673C32.3227 8.08053 32.3204 8.07422 32.3181 8.06826C32.3108 8.04979 32.3039 8.03169 32.2964 8.01358C32.2872 7.99086 32.278 7.9685 32.2681 7.94638C32.2553 7.91637 32.2422 7.88709 32.2288 7.85817C32.2182 7.83545 32.2075 7.81272 32.1963 7.79036C32.1819 7.76132 32.1671 7.73301 32.1523 7.70506C32.1412 7.68428 32.13 7.66387 32.1185 7.64382C32.1057 7.62073 32.0922 7.59801 32.0784 7.57529C32.065 7.55293 32.0512 7.53045 32.037 7.50846C32.0235 7.48707 32.0094 7.46569 31.9953 7.44491C31.9947 7.44394 31.994 7.44296 31.9934 7.44223C31.9796 7.42121 31.9652 7.4008 31.9504 7.38026C31.9373 7.36143 31.9235 7.34308 31.9097 7.32461C31.9083 7.32267 31.9068 7.3206 31.9051 7.31866C31.8899 7.29861 31.8745 7.27844 31.8584 7.25899C31.843 7.23919 31.8269 7.22011 31.8108 7.20103C31.7947 7.18196 31.7786 7.16349 31.7622 7.14502C31.7448 7.12558 31.7271 7.1065 31.7094 7.08766C31.6933 7.07053 31.6769 7.05376 31.6605 7.0376C31.6463 7.02314 31.6322 7.00929 31.6178 6.9958C31.6132 6.99118 31.6086 6.98657 31.6036 6.98231C31.5875 6.96688 31.5712 6.95206 31.5547 6.93723C31.537 6.92107 31.519 6.90527 31.5005 6.88984C31.5005 6.88984 31.5004 6.88972 31.5002 6.88948C31.4821 6.87405 31.4637 6.85849 31.4451 6.84403C31.4263 6.8286 31.4076 6.81402 31.3888 6.79992C31.3695 6.78473 31.3497 6.77028 31.3297 6.75618C31.3113 6.74269 31.2927 6.72945 31.2735 6.71669C31.2568 6.70515 31.2397 6.6936 31.2223 6.68279C31.1954 6.66505 31.1681 6.64791 31.1405 6.63139C31.1251 6.62215 31.1096 6.61292 31.0942 6.60441C31.0785 6.59518 31.063 6.58667 31.0472 6.57804C31.0075 6.55593 30.9671 6.53527 30.9261 6.51547C30.913 6.5089 30.8994 6.50258 30.8863 6.49663C30.8729 6.49007 30.8591 6.48375 30.8452 6.47792C30.8243 6.46832 30.8028 6.45908 30.7815 6.45021H30.7812C30.7598 6.44134 30.7385 6.43272 30.7168 6.42457C30.6951 6.41607 30.6735 6.40805 30.6518 6.40015C30.6301 6.39225 30.608 6.38472 30.5861 6.37743C30.5404 6.36224 30.4945 6.34814 30.4481 6.33563C30.4278 6.32967 30.4074 6.32408 30.3867 6.3191C30.3723 6.31546 30.3581 6.31181 30.3437 6.30853C30.3283 6.30452 30.3132 6.30124 30.2978 6.29796C30.2826 6.29431 30.2672 6.29103 30.2521 6.28812C30.2308 6.28386 30.2097 6.27961 30.1884 6.2756C30.1644 6.27135 30.1402 6.2671 30.1162 6.26345C30.0932 6.2598 30.0701 6.25652 30.0475 6.25361C30.0281 6.25093 30.0083 6.24838 29.989 6.24632C29.9709 6.24401 29.9529 6.24206 29.9348 6.24073C29.9233 6.23939 29.9122 6.23805 29.901 6.23745C29.881 6.2355 29.8613 6.23417 29.8413 6.23283C29.8213 6.23149 29.8012 6.23016 29.7808 6.22955C29.7677 6.22894 29.7542 6.22821 29.7407 6.22785C29.7259 6.22724 29.7108 6.22688 29.6958 6.22651C29.6751 6.22615 29.6547 6.2259 29.634 6.2259C29.2462 6.2259 28.8915 6.28557 28.5726 6.39517C28.5233 6.41194 28.4754 6.4298 28.4278 6.44888C28.4278 6.44888 28.4278 6.44924 28.4275 6.44888C28.3576 6.47719 28.2892 6.50817 28.2228 6.54147C28.2219 6.54183 28.2209 6.54208 28.2199 6.54281C28.1756 6.56516 28.132 6.58862 28.0892 6.61292C28.0675 6.62507 28.0462 6.63758 28.0251 6.65046C27.9944 6.66918 27.9641 6.68862 27.9343 6.70843C27.919 6.71851 27.9042 6.72896 27.8892 6.73941L27.8891 6.73953Z" fill="#D8AF03"/>
<path d="M24.0537 6.4688C24.0537 6.4688 24.5907 6.3739 25.8615 6.35421C25.8615 6.35421 24.2557 6.28702 22.3542 6.37924C20.5318 6.46758 13.7719 7.50578 11.4458 8.48953L21.1523 7.12545L24.0537 6.46868V6.4688Z" fill="#9D7600"/>
<path d="M27.2502 7.3562C27.2502 7.3562 25.7037 7.4511 24.1768 7.76727C24.1768 7.76727 25.3451 7.66496 25.4674 7.76727C25.5896 7.86959 25.1817 8.35029 25.1817 8.35029L26.3197 8.20702L27.2503 7.3562H27.2502Z" fill="#9D7600"/>
<path d="M11.6991 8.74023C11.7014 8.74679 11.7037 8.75335 11.7056 8.76004C11.8908 8.73403 12.3581 8.67376 12.433 8.70937C12.5266 8.75384 12.7877 9.14255 12.9453 9.39445C13.1029 9.64646 13.4304 10.0657 13.786 10.2245C14.2287 10.4224 14.4229 10.4228 16.6529 10.2047C20.7086 9.80819 21.3329 9.4919 22.5605 8.49222C23.7301 7.53982 24.2061 6.44305 24.2061 6.44305H24.0682C23.6347 7.194 22.9122 8.40619 20.9681 9.3021C19.4473 10.003 15.8648 10.1957 14.3765 10.2408C13.8353 10.2573 13.499 9.97758 13.2477 9.64525L12.5864 8.70195C12.5374 8.63208 12.456 8.59223 12.371 8.59624C12.058 8.61045 11.857 8.63378 11.7526 8.64897C11.7096 8.65493 11.6843 8.69904 11.6991 8.74023Z" fill="#FFF9AF"/>
<path d="M11.4458 8.48955C16.0782 7.12558 21.9799 6.40356 24.0685 6.44305C25.5164 6.34523 26.9611 6.95024 27.412 7.15972C27.4054 7.16665 27.3991 7.17358 27.3936 7.1805C26.9325 6.97199 25.4816 6.38205 24.0537 6.46869C23.6186 7.22133 22.8908 8.41603 20.9684 9.30197C20.6587 9.44463 20.264 9.56614 19.8187 9.66991L19.8348 9.77404L19.8338 9.77696C19.8332 9.7789 19.7682 9.9766 19.7655 10.082C19.7649 10.1106 19.7649 10.1347 19.7649 10.1557C19.7645 10.2146 19.7643 10.2502 19.7528 10.2901C19.7459 10.3151 19.7015 10.4232 19.6572 10.5298L20.8762 10.5012C22.2361 10.4688 23.71 9.85558 24.6334 8.85396L25.7138 7.74164C25.8238 7.62839 25.9641 7.54892 26.1181 7.51539C26.6399 7.40177 27.2504 7.35596 27.2504 7.35596C26.8389 7.90508 26.6202 8.60765 26.6202 9.35592C26.6202 9.97782 26.6888 10.4709 26.8125 10.8618L26.781 10.8632L11.7403 11.0937L11.5449 11.0989C11.5912 10.667 11.6155 10.1397 11.6155 9.49615C11.6155 9.12918 11.5551 8.79223 11.4458 8.48918V8.48955ZM11.6994 8.74022C11.7017 8.74679 11.704 8.75335 11.7059 8.76003C11.8816 9.288 11.8389 10.6791 11.8389 10.6791H11.99L12.0255 9.81609C12.0278 9.76469 12.0702 9.72386 12.1217 9.72386H12.3532C12.4356 9.72386 12.5141 9.7591 12.569 9.8207L13.2553 10.5882C13.3052 10.6442 13.3764 10.6761 13.4513 10.6761H13.4579L19.6302 10.5309C19.6759 10.4216 19.7221 10.3086 19.729 10.2835C19.7396 10.247 19.7398 10.2146 19.7402 10.1561C19.7402 10.1347 19.7402 10.1106 19.7408 10.082C19.7435 9.97818 19.8012 9.79798 19.8095 9.77234L19.7947 9.6755C18.0528 10.0767 15.5566 10.2052 14.3768 10.241C13.8356 10.2575 13.4993 9.97782 13.248 9.64548L12.5867 8.70219C12.5377 8.63232 12.4563 8.59247 12.3713 8.59648C12.0583 8.61069 11.8573 8.63402 11.7529 8.64921C11.7099 8.65517 11.6846 8.69927 11.6994 8.74047V8.74022Z" fill="black"/>
<path d="M16.0776 3.39955C16.0776 3.39955 17.3561 3.19201 19.0142 3.24146C20.6722 3.29092 23.2538 3.87393 23.2538 3.87393L27.1487 5.00046L27.408 4.97081L23.2702 3.81463C21.7293 3.21619 19.4669 2.97304 19.0467 2.93185C19.0023 2.92723 18.958 2.93841 18.9213 2.96344L18.8523 3.02566C18.7623 3.08593 18.6565 3.11788 18.5486 3.11825C18.144 3.11959 17.0662 3.17293 16.078 3.39918L16.0776 3.39955Z" fill="black"/>
<path d="M21.4528 3.01518L21.4897 3.02249L22.0606 0.11739L22.0237 0.110082L21.4528 3.01518Z" fill="black"/>
<path d="M21.3687 3.25531L21.4765 3.27658L21.5139 2.97705L21.4473 2.96381L21.3687 3.25531Z" fill="black"/>
<path d="M21.3272 3.29732L21.4995 3.33139L21.5162 3.24627L21.3439 3.2122L21.3272 3.29732Z" fill="black"/>
<path d="M21.9825 0.230451L22.0522 0.244232L22.0975 0.0137761L22.0277 -4.81583e-06L21.9825 0.230451Z" fill="black"/>
<path d="M9.35449 5.94898C9.35449 5.94898 10.14 5.9971 10.7558 6.07912C11.1582 6.13247 11.566 6.04559 11.9088 5.82808C12.3528 5.54642 12.9761 5.15746 13.4678 4.87519C14.25 4.42596 15.1732 3.96604 15.6059 3.83663C15.6979 3.80892 15.7814 3.75983 15.8496 3.69239C15.9241 3.61827 16.0151 3.51487 16.0778 3.39955C16.0098 3.41498 15.9419 3.43151 15.8749 3.44901C15.3212 3.5919 14.6772 3.81062 14.0204 4.05936C12.0011 4.82354 9.86187 5.87 9.86187 5.87L9.35449 5.94911V5.94898Z" fill="#343636"/>
<path d="M9.35449 5.94898C9.35449 5.94898 10.14 5.9971 10.7558 6.07912C11.1582 6.13247 11.566 6.04559 11.9088 5.82808C12.3528 5.54642 12.9761 5.15746 13.4678 4.87519C14.25 4.42596 15.1732 3.96604 15.6059 3.83663C15.6979 3.80892 15.7814 3.75983 15.8496 3.69239C15.9241 3.61827 16.0151 3.51487 16.0778 3.39955C16.0098 3.41498 15.9419 3.43151 15.8749 3.44901C15.3212 3.5919 14.6772 3.81062 14.0204 4.05936C14.0204 4.05936 14.2067 4.08633 14.4973 4.23956C14.4973 4.23956 13.3693 4.8572 12.9801 5.08941C12.7416 5.2317 12.2163 5.54107 11.8453 5.7593C11.5847 5.91253 11.2823 5.97742 10.982 5.94473C10.6188 5.90524 10.1286 5.86016 9.86199 5.87012L9.35461 5.94923L9.35449 5.94898Z" fill="black"/>
<path d="M12.8911 8.70559C13.0482 8.99308 13.3332 9.44705 13.7397 9.82677C13.8819 9.95946 14.0701 10.031 14.2645 10.0293C14.9564 10.0241 16.7768 9.98656 18.2066 9.74342C18.9927 9.60963 19.5786 9.46503 20.004 9.33599C20.0227 9.3304 20.041 9.32445 20.0591 9.31886C20.5728 9.15943 20.839 9.02638 20.9356 8.97267C21.113 8.87388 21.438 8.81592 21.6745 8.76586C21.911 8.71579 23.1129 7.61891 23.6646 6.73953C23.6646 6.73953 23.0079 6.69008 21.9648 6.71183C21.9529 6.71219 21.9411 6.71219 21.929 6.71243C21.4187 6.72398 20.8181 6.75229 20.1579 6.81195C19.4525 6.8755 18.6794 6.97429 17.8766 7.12557C17.2007 7.25304 16.5771 7.38573 16.0145 7.51587C14.5656 7.85088 13.5229 8.16741 13.0434 8.32149C12.8835 8.37289 12.8102 8.55771 12.891 8.70559H12.8911Z" fill="#201F1D"/>
<path d="M16.0142 7.51587C17.3294 7.68975 21.0731 8.52307 21.4328 8.56755C21.7924 8.61202 22.0387 8.3679 22.0387 8.3679C21.1224 8.3063 16.955 7.56945 16.955 7.56945C16.955 7.56945 17.3097 7.32509 18.0388 7.24866C18.7564 7.17357 20.1248 6.82969 20.1576 6.81183C19.4521 6.87538 18.6791 6.97417 17.8762 7.12545C17.2003 7.25292 16.5768 7.38561 16.0142 7.51574V7.51587Z" fill="#373B3C"/>
<path d="M20.7876 8.88384C20.7876 8.88384 20.4624 9.01228 20.1965 8.94314C19.9304 8.874 17.1029 7.86606 16.3838 7.75731C16.3838 7.75731 19.0635 8.24153 20.7876 8.88384Z" fill="#373B3C"/>
<path d="M26.6059 10.2136C26.5717 9.954 26.5542 9.66614 26.5542 9.35617C26.5542 8.64739 26.752 7.97118 27.1138 7.43422C27.1138 7.43422 27.1132 7.43422 27.1119 7.43458C26.9007 7.45536 26.4928 7.50141 26.1317 7.57979C25.9911 7.61041 25.8631 7.68259 25.7606 7.78758L25.0768 8.49173H25.0765V8.4921L24.6801 8.89989C24.1376 9.48886 23.396 9.95984 22.5605 10.2519L26.6057 10.2134L26.6059 10.2136Z" fill="#201F1D"/>
<path d="M25.7604 7.7877L25.0767 8.49186C25.0943 8.47667 25.6652 7.99646 26.0336 7.78733C26.3962 7.58149 27.0701 7.44309 27.1117 7.43459C26.9006 7.45536 26.4927 7.50142 26.1315 7.57979C25.991 7.61041 25.8629 7.68259 25.7604 7.78758V7.7877Z" fill="#818785"/>
<path d="M25.0767 8.49185V8.4927L25.0775 8.49185H25.0767Z" fill="#201F1D"/>
<path d="M18.5376 10.7096L19.693 10.6826C20.0781 10.6725 20.4633 10.6681 20.8485 10.6608L22.0041 10.641L23.1597 10.628C23.545 10.6243 23.9301 10.6179 24.3154 10.617L25.4711 10.6111C25.8564 10.6119 26.2416 10.6102 26.627 10.6132C26.242 10.6272 25.8569 10.6364 25.4717 10.6481L24.3163 10.675C23.9312 10.6851 23.5461 10.6897 23.1608 10.6969L22.0053 10.7167L20.8496 10.7297C20.4644 10.7334 20.0792 10.7399 19.694 10.7408L18.5382 10.7466C18.153 10.7458 17.7677 10.7476 17.3823 10.7444C17.7673 10.7303 18.1525 10.7212 18.5376 10.7094V10.7096Z" fill="#818785"/>
<path d="M5.44997 9.19164L5.96982 9.22226C6.02337 8.91532 6.1169 8.62381 6.24629 8.35661C6.28469 8.27726 6.32613 8.2001 6.37071 8.12537V8.12501C6.38282 8.10459 6.3953 8.08418 6.40814 8.06401C6.40814 8.06401 5.23966 8.29573 4.07129 9.24061C4.10545 9.22153 5.20392 8.60559 5.43022 8.61835C5.66005 8.63147 5.44997 9.19152 5.44997 9.19152V9.19164Z" fill="#9D7600"/>
<path d="M21.1867 10.8284L21.9834 10.8098C22.2489 10.8029 22.5145 10.7998 22.7802 10.7947L23.577 10.7811L24.3739 10.7721C24.6396 10.7696 24.9051 10.7652 25.1708 10.7645L25.9677 10.7605C26.2334 10.761 26.4991 10.7597 26.7648 10.7619C26.4992 10.7716 26.2337 10.778 25.9681 10.786L25.1714 10.8046C24.9059 10.8115 24.6403 10.8147 24.3746 10.8196L23.5778 10.8334L22.781 10.8424C22.5153 10.8449 22.2498 10.8494 21.9841 10.85L21.1872 10.854C20.9215 10.8534 20.6558 10.8546 20.3901 10.8526C20.6557 10.8429 20.9213 10.8365 21.1868 10.8284H21.1867Z" fill="#818785"/>
<path d="M12.2537 10.9397L12.8125 10.9267C12.9989 10.9218 13.1852 10.9197 13.3715 10.9161L13.9305 10.9065L14.4895 10.9002C14.6758 10.8984 14.8622 10.8954 15.0485 10.8949L15.6076 10.8921C15.7939 10.8924 15.9804 10.8916 16.1667 10.893C15.9804 10.8999 15.7942 10.9042 15.6078 10.9099L15.049 10.9229C14.8626 10.9278 14.6763 10.93 14.49 10.9335L13.931 10.9431L13.372 10.9494C13.1857 10.9513 12.9994 10.9544 12.813 10.9548L12.2539 10.9576C12.0676 10.9572 11.8812 10.9581 11.6948 10.9565C11.8812 10.9497 12.0674 10.9453 12.2537 10.9396V10.9397Z" fill="#818785"/>
<path d="M2.2627 10.2165L2.55503 10.2615C2.65825 10.2775 2.73591 10.364 2.74112 10.4685L2.75856 10.8224C2.75856 10.8224 2.87026 10.8883 2.88007 10.8981C2.88334 10.9014 2.88637 10.8269 2.88855 10.7272L2.85112 10.7252L2.82095 10.7235C2.82095 10.7235 2.81514 10.5962 2.82398 10.4484C2.83089 10.3343 2.74487 10.2359 2.63123 10.2286L2.26306 10.2048L2.2627 10.2163V10.2165Z" fill="#9D7600"/>
<path d="M13.1873 10.6106L12.5202 9.86457C12.4778 9.81694 12.417 9.7896 12.3534 9.7896H12.1218C12.1054 9.7896 12.0919 9.80248 12.0912 9.81888L12.0586 10.613L13.1875 10.6106H13.1873Z" fill="#201F1D"/>
<path d="M1.7337 11.1246C1.97733 11.1649 2.27912 11.205 2.64995 11.2455C4.18686 11.4135 6.17698 11.2455 6.17698 11.2455L6.29886 11.2423C6.24725 11.1408 6.20073 11.0357 6.16026 10.9277C6.02664 10.5742 5.9537 10.1879 5.9537 9.78304C5.9537 9.15032 6.11459 8.55735 6.40826 8.06462V8.06425L5.81257 8.27107C5.81257 8.27107 5.41483 8.66173 4.91606 9.29541C4.81223 9.42749 4.70393 9.57039 4.59356 9.72228C4.46126 9.90479 4.45726 10.1505 4.58338 10.3369C4.67727 10.4752 4.79685 10.6382 4.92587 10.7809C4.92587 10.7809 3.89828 10.7734 3.0294 10.7337L3.00638 10.7328C2.9538 10.7305 2.90195 10.7278 2.85106 10.7252L2.8209 10.7235C2.64547 10.7139 2.48168 10.7031 2.33981 10.6906C2.28929 10.686 2.25113 10.6422 2.25307 10.5911L2.25598 10.5094L2.26058 10.382C2.02179 10.3945 1.78204 10.4185 1.56991 10.4532C1.19483 10.5134 0.903583 10.6066 0.847128 10.7266C0.779768 10.8692 0.968035 10.9973 1.73382 11.1245L1.7337 11.1246Z" fill="black"/>
<path d="M23.4181 9.68947C23.4181 9.68947 22.8658 10.0008 22.5606 10.0699C22.2555 10.1391 20.3491 10.1984 20.3491 10.1984C20.3491 10.1984 22.1175 10.0501 22.5067 9.96615C22.8958 9.88219 23.418 9.68947 23.418 9.68947H23.4181Z" fill="#FFF9AF"/>
<path d="M10.5503 7.2748C10.6587 7.35682 10.7611 7.4471 10.8563 7.54516H10.8567C11.2909 7.34199 13.0448 7.10079 13.2465 7.05206C13.2507 7.05073 13.2544 7.05012 13.2573 7.04915C12.476 7.06227 10.5837 7.27115 10.5503 7.2748Z" fill="#9D7600"/>
<path d="M14.9615 6.94829C15.9839 6.94829 17.9069 6.71389 19.9408 6.46588C22.4884 6.1553 25.3766 5.80316 27.2502 5.81167C30.0335 5.82406 31.0125 6.22566 31.3042 6.39772C31.6449 6.5987 32.3975 6.56613 32.3975 6.56613C32.3903 6.56552 31.6757 6.50222 31.3543 6.31254C31.0556 6.13635 30.0581 5.72527 27.2508 5.71288C25.3696 5.70425 22.4796 6.05688 19.929 6.36782C17.8607 6.61996 15.9057 6.858 14.9065 6.84925C13.4457 6.83625 11.7644 6.69457 10.5365 6.59116C9.88521 6.53624 8.91602 6.53235 8.91602 6.53235C9.21901 6.54219 9.87843 6.63491 10.5283 6.68959C11.7576 6.79311 13.4411 6.93504 14.9055 6.94804C14.9238 6.94816 14.9426 6.94829 14.9616 6.94829H14.9615Z" fill="#FFF9AF"/>
<path d="M31.3673 6.784C31.3735 6.78826 31.3798 6.79324 31.386 6.79786C31.785 6.73163 32.4572 6.62033 32.7182 6.57549C32.7156 6.57027 32.7127 6.56492 32.7104 6.56006C32.4621 6.60259 31.846 6.70502 31.3672 6.784H31.3673Z" fill="black"/>
<path d="M10.1349 5.87327C10.1405 5.90001 10.2735 6.52081 10.306 6.63211C10.325 6.69737 10.3651 6.9608 10.3943 7.16543C10.4067 7.17333 10.4189 7.18159 10.4311 7.18985C10.4015 6.98134 10.3582 6.69384 10.3374 6.623C10.3052 6.51303 10.1683 5.87303 10.167 5.86647L10.1348 5.8734L10.1349 5.87327Z" fill="black"/>
<path d="M4.91602 10.8996C4.91602 10.8996 5.45755 10.9605 6.17113 10.9556C6.03059 10.595 5.95378 10.1987 5.95378 9.78303C5.95378 9.24644 6.06972 8.73828 6.28379 8.29585L6.1933 8.3498C6.1933 8.3498 5.81919 8.99418 5.829 9.90819C5.56792 10.0466 5.22495 10.127 5.00966 10.1535C5.00966 10.1535 5.14269 10.5043 5.3742 10.7365L5.92095 10.6871L5.96033 10.781C5.96033 10.781 5.34949 10.8848 4.91602 10.8996Z" fill="#201F1D"/>
<path d="M5.22172 10.697C5.22172 10.697 4.97543 10.3809 4.91631 10.1783C4.91631 10.1783 5.04933 9.52118 5.38431 9.03696C5.38431 9.03696 4.83259 9.60514 4.60107 10.0942C4.60107 10.0942 4.81684 10.4572 5.10845 10.697H5.22172Z" fill="#201F1D"/>
<path d="M5.85878 10.4537C5.85878 10.4537 5.80293 10.2857 5.79965 10.0749C5.79965 10.0749 5.56644 10.1737 5.33008 10.2066C5.33008 10.2066 5.55336 10.2197 5.72091 10.2066C5.72091 10.2066 5.76694 10.3219 5.85878 10.4537Z" fill="#373B3C"/>
<path d="M4.8568 10.177C4.8568 10.177 4.93566 10.3911 5.03743 10.5195C5.03743 10.5195 4.82396 10.2988 4.7583 10.1572C4.7583 10.1572 4.86176 9.85812 4.99224 9.69202C4.99224 9.69202 4.84189 10.0246 4.8568 10.1768V10.177Z" fill="#373B3C"/>
<path d="M4.96229 11.0334L5.13311 11.1322C5.13311 11.1322 2.95908 11.221 2.03955 10.9559C2.03955 10.9559 3.27431 11.1651 4.96229 11.0333V11.0334Z" fill="#818785"/>
<path d="M1.70627 9.06271C2.04779 8.874 3.68683 8.59756 4.21819 8.51202C4.31208 8.49659 4.3712 8.48735 4.38271 8.48565C4.37156 8.4893 4.29803 8.54774 4.19687 8.58177C3.9135 8.67691 3.36796 8.8401 3.0245 9.0717C2.68613 9.29941 2.50162 9.70271 2.42215 9.92034C2.39331 9.99932 2.44359 10.0855 2.52646 10.0982C2.72417 10.129 2.8767 10.129 2.8767 10.129C3.15292 9.52883 3.60311 9.11946 4.05439 8.77485C4.413 8.50108 4.77233 8.26887 5.04588 8.01492C5.26165 7.8143 5.43405 7.62195 5.56477 7.45985C5.69149 7.3031 5.56767 7.11367 5.36935 7.14963C4.19202 7.36203 3.38226 7.81734 2.91426 8.09001C2.8131 8.14894 2.86604 8.30448 2.98186 8.28929C2.98186 8.28929 2.98682 8.28868 2.99567 8.28759C3.49056 8.22307 4.08626 8.17227 4.45273 8.14396C4.47672 8.14202 4.48133 8.17689 4.45794 8.18151C4.39386 8.19439 4.32819 8.20751 4.2612 8.22173C3.11706 8.46147 1.59033 8.8785 1.59033 8.8785C1.62777 8.91179 1.66484 8.93743 1.69706 8.95687C1.73511 8.9796 1.74007 9.0333 1.70627 9.06259V9.06271Z" fill="#9D7600"/>
<path d="M2.98157 8.28929C2.98157 8.28929 2.98654 8.28868 2.99538 8.28759C3.13168 8.27313 4.2242 8.15684 4.26103 8.22173C4.28502 8.2645 4.27484 8.37751 4.21803 8.5119C4.21342 8.52247 4.20882 8.53292 4.20361 8.54349C4.16884 8.61798 4.11989 8.69732 4.0552 8.77376C4.33069 8.56366 4.60692 8.37787 4.84401 8.18746C4.91488 8.13084 4.9826 8.07348 5.0456 8.01492C5.26137 7.8143 5.43376 7.62195 5.56448 7.45985C5.6912 7.3031 5.56739 7.11367 5.36907 7.14963C4.19174 7.36203 3.38197 7.81734 2.91397 8.09001C2.81281 8.14894 2.86575 8.30448 2.98157 8.28929Z" fill="black"/>
<path d="M4.84443 8.18759C4.91531 8.13096 4.98303 8.07361 5.04603 8.01504C5.26179 7.81442 5.43419 7.62207 5.56491 7.45998C5.56491 7.45998 5.60598 7.28804 5.49271 7.23858C5.37943 7.18913 4.40466 7.43592 3.79395 7.75707C3.82678 7.74626 5.02155 7.34891 5.14307 7.45597C5.2229 7.52608 5.00677 7.9188 4.84455 8.18747L4.84443 8.18759Z" fill="white"/>
<path d="M3.94242 8.58165C3.9578 8.58165 3.97028 8.5588 3.97028 8.53062C3.97028 8.50243 3.9578 8.47958 3.94242 8.47958C3.92703 8.47958 3.91455 8.50243 3.91455 8.53062C3.91455 8.5588 3.92703 8.58165 3.94242 8.58165Z" fill="black"/>
<path d="M3.10986 8.71349C3.10986 8.74447 3.12089 8.7695 3.13446 8.7695C3.14803 8.7695 3.15905 8.74447 3.15905 8.71349C3.15905 8.6825 3.14803 8.65747 3.13446 8.65747C3.12089 8.65747 3.10986 8.6825 3.10986 8.71349Z" fill="black"/>
<path d="M2.43652 8.85006C2.43652 8.87643 2.44391 8.89782 2.453 8.89782C2.46209 8.89782 2.46948 8.87643 2.46948 8.85006C2.46948 8.82369 2.46209 8.80231 2.453 8.80231C2.44391 8.80231 2.43652 8.82369 2.43652 8.85006Z" fill="black"/>
<path d="M1.93408 8.98348C1.93408 9.00535 1.94147 9.02297 1.95056 9.02297C1.95964 9.02297 1.96703 9.00523 1.96703 8.98348C1.96703 8.96173 1.95964 8.94398 1.95056 8.94398C1.94147 8.94398 1.93408 8.96173 1.93408 8.98348Z" fill="black"/>
<path d="M4.32972 8.1035C4.14012 8.06413 3.0293 8.18746 3.0293 8.18746C3.0293 8.18746 3.5351 8.09523 3.81992 8.06413C4.07942 8.03581 4.23813 8.03424 4.32972 8.1035Z" fill="#373B3C"/>
<path d="M4.35367 9.15992L4.37475 9.17717C4.52558 9.30403 4.46416 9.73916 4.37984 9.81936C4.15728 10.031 3.68625 10.4425 3.06415 10.4536C3.02441 10.4544 3.0083 10.009 3.0083 9.96906V9.9382C3.0083 9.86699 3.05749 9.80563 3.12666 9.78947C3.34909 9.73783 3.83285 9.58472 4.12215 9.19066C4.17691 9.11605 4.28195 9.10123 4.35355 9.1598L4.35367 9.15992Z" fill="#9D7600"/>
<path d="M4.29077 9.83734H4.18331C4.15835 9.83734 4.13485 9.84816 4.11885 9.86735C4.02109 9.984 3.62275 10.4019 2.91378 10.4274C2.88385 10.4285 2.86035 10.4536 2.86035 10.4838V10.571C2.86035 10.5894 2.87428 10.6047 2.89258 10.606C3.07212 10.62 3.9868 10.9059 4.42972 10.3118C4.49902 10.2189 4.53028 9.83722 4.29089 9.83722L4.29077 9.83734Z" fill="#9D7600"/>
<path d="M4.29077 9.83734H4.18331C4.15835 9.83734 4.13485 9.84816 4.11885 9.86735C4.02109 9.984 3.62275 10.4019 2.91378 10.4274C2.88385 10.4285 2.86035 10.4536 2.86035 10.4838V10.571C2.86035 10.5894 2.87428 10.6047 2.89258 10.606C3.07212 10.62 3.95809 10.6564 4.40101 10.0624C4.47031 9.96942 4.40646 9.83722 4.29089 9.83722L4.29077 9.83734Z" fill="black"/>
<path d="M4.35367 9.15992L4.37475 9.17717C4.46464 9.25081 4.47058 9.38714 4.38638 9.46722C4.16383 9.67889 3.70309 10.029 3.08099 10.0401C3.04125 10.0409 3.0083 10.0089 3.0083 9.96906V9.9382C3.0083 9.86699 3.05749 9.80563 3.12666 9.78947C3.34909 9.73783 3.83285 9.58472 4.12215 9.19066C4.17691 9.11605 4.28195 9.10123 4.35355 9.1598L4.35367 9.15992Z" fill="black"/>
<path d="M1.5905 8.87826C1.6237 8.90827 1.65689 8.9316 1.68645 8.95043L4.26149 8.22185L2.03949 8.69781C1.93009 8.72114 1.86079 8.58347 1.94487 8.5091C2.89359 7.66752 5.21772 7.07758 5.32603 7.05024C5.3287 7.04963 5.33003 7.04927 5.33003 7.04927L5.58553 6.80588C5.55634 6.8128 4.61803 7.04696 3.46239 7.5262C2.70835 7.83909 2.24992 8.10921 1.96716 8.33158C1.74812 8.50351 1.63448 8.64751 1.57039 8.75978C1.5481 8.79867 1.55695 8.84836 1.59038 8.87838L1.5905 8.87826Z" fill="#CCA701"/>
<path d="M2.90527 7.82292C3.77343 7.41683 5.30064 7.00867 5.39223 6.98984C5.3949 6.98923 5.32996 7.04914 5.32996 7.04914L5.46892 6.91681C5.43972 6.92374 3.88174 7.33031 2.90527 7.82292Z" fill="black"/>
<path d="M6.8667 7.04915C6.8667 7.04915 6.34127 7.36775 6.03258 8.06413C6.03258 8.06413 5.74558 8.15381 5.46875 8.29586C5.46875 8.29586 5.83111 8.06401 5.94983 7.99475C6.06868 7.92561 6.16766 7.48586 6.8667 7.04915Z" fill="#FFF9AF"/>
<path d="M12.4885 6.0321C13.0955 5.55602 14.7167 4.36946 16.6448 3.88657C18.8316 3.33904 22.5578 4.18306 24.2293 4.74541C24.3677 4.79195 24.3728 4.94141 24.2867 4.95794C24.2493 4.96511 24.2483 4.96608 24.2096 4.97422C24.2573 4.90387 24.2574 4.84202 24.1601 4.80933C22.5311 4.26119 18.7829 3.41 16.6518 3.94356C14.7728 4.41405 13.1275 5.6028 12.536 6.06685C12.4763 6.11363 12.4944 6.14268 12.533 6.19395C12.5294 6.19371 12.5254 6.19286 12.5217 6.19322C12.4487 6.19942 12.3956 6.10525 12.4887 6.03222L12.4885 6.0321Z" fill="#928D77"/>
<path d="M20.9736 4.09897L21.1483 4.65099L21.3969 5.4362C22.3566 5.29792 23.2287 5.1543 23.9177 5.01917C23.6175 4.70592 22.3627 4.30505 20.9736 4.09885V4.09897Z" fill="#201F1D"/>
<path d="M20.187 5.60219C20.583 5.55043 20.9719 5.49708 21.3476 5.44337L21.0967 4.65027L20.9197 4.09132C20.7479 4.06628 20.5746 4.04453 20.4005 4.02643L20.4753 4.2076C20.5197 4.31563 20.5262 4.43689 20.4938 4.54881L20.4623 4.65719L20.187 5.60219Z" fill="#201F1D"/>
<path d="M19.9277 5.63548C19.9786 5.62928 20.0293 5.6226 20.0801 5.61604L20.399 4.52122C20.4253 4.43069 20.42 4.33276 20.3839 4.24551L20.289 4.01525C20.2285 4.00929 20.1681 4.00407 20.1078 3.99908L20.2253 4.17795C20.2798 4.26094 20.2955 4.36374 20.2679 4.45888L19.9277 5.63548Z" fill="#201F1D"/>
<path d="M20.9736 4.09897L21.1483 4.651C22.8494 4.6787 23.9177 5.0193 23.9177 5.0193C23.6175 4.70604 22.3627 4.30517 20.9736 4.09897Z" fill="#373B3C"/>
<path d="M1.43848 10.697C1.43654 10.9296 4.92613 10.781 4.92613 10.781C4.92613 10.781 3.89854 10.7735 3.02966 10.7339L3.00664 10.7329C2.95406 10.7306 2.90221 10.7279 2.85132 10.7254L2.82116 10.7237C2.64573 10.7141 2.48194 10.7032 2.34007 10.6907C2.28955 10.6861 2.25139 10.6424 2.25333 10.5912L2.25624 10.5096C1.79223 10.5115 1.43933 10.6082 1.43848 10.6969V10.697Z" fill="#373B3C"/>
<path d="M22.2032 6.562C22.4618 6.18944 22.2341 5.78238 22.2341 5.78238C22.236 5.78639 22.4238 6.18677 22.1763 6.54316L22.2032 6.562Z" fill="black"/>
<path d="M20.0039 9.33611C20.0227 9.33052 20.041 9.32456 20.059 9.31897C20.1756 9.17632 20.2882 9.05517 20.3253 9.02419C20.3812 8.97777 20.4649 8.88287 20.5388 8.79927C20.5762 8.75674 20.6121 8.71664 20.6386 8.68857C20.6902 8.6345 20.7582 8.62636 20.8242 8.6181C20.8534 8.61445 20.8807 8.61117 20.907 8.60388C20.969 8.58735 21.0413 8.50898 21.1509 8.39038C21.2038 8.33376 21.2636 8.26911 21.3345 8.19803C21.5036 8.0284 21.8225 7.12921 21.9647 6.71182C21.9528 6.71219 21.9411 6.71219 21.929 6.71243C21.7861 7.13177 21.4725 8.01321 21.3116 8.17458C21.24 8.24603 21.1803 8.31091 21.1271 8.3679C21.025 8.47823 20.9514 8.55795 20.8985 8.57216C20.8745 8.57872 20.8482 8.58176 20.8203 8.58529C20.752 8.59355 20.6748 8.60303 20.6151 8.66561C20.5878 8.69392 20.5521 8.7345 20.5143 8.77727C20.4414 8.8599 20.3586 8.95383 20.3045 8.99867C20.2634 9.03257 20.1324 9.17523 20.004 9.33599L20.0039 9.33611Z" fill="black"/>
<path d="M20.1716 5.78238C20.1716 5.78238 17.8483 6.26514 13.3394 6.562C13.3394 6.562 16.0141 6.65593 18.6594 6.26563L20.1716 5.78238Z" fill="#EDC20D"/>
<path d="M20.2064 5.79138C20.2064 5.79138 19.3493 6.12736 18.6597 6.26564C18.6597 6.26564 19.5957 5.82103 20.2064 5.79138Z" fill="black"/>
<g opacity="0.26">
<path d="M16.2217 5.74921L19.138 5.56051L18.7979 4.28427L16.5179 4.43944L16.2217 5.74921ZM18.9698 5.43936L16.3887 5.60644L16.6245 4.56436L18.6991 4.42316L18.9698 5.43948V5.43936Z" fill="black"/>
</g>
<path d="M20.187 5.60219L20.4623 4.65719L20.4938 4.54881C20.5262 4.43677 20.5197 4.31563 20.4753 4.2076L20.4005 4.02643C20.5746 4.04453 20.7479 4.06628 20.9197 4.09132L21.0967 4.65027C21.0208 4.6493 20.9435 4.64893 20.865 4.64942C20.6899 4.65027 20.5325 4.75732 20.466 4.91978L20.187 5.60219Z" fill="#373B3C"/>
<path d="M32.8628 10.9323C33.1225 10.9382 33.4936 10.9412 33.8785 10.9244C33.9428 10.9215 34.0046 10.8964 34.0526 10.8526L34.1958 10.7222L34.1962 10.7218C34.1962 10.7218 34.9245 9.88122 35.3384 8.9333C35.3092 8.98276 34.3675 10.5545 33.9401 10.7831C33.7923 10.8622 33.1844 10.9102 32.8629 10.9323H32.8628Z" fill="#373B3C"/>
<path d="M32.8434 6.18519H32.8437C33.1938 5.93524 33.9796 5.97862 33.9796 5.97862C33.9796 5.97862 32.134 5.44154 31.4772 5.35587C30.96 5.28831 32.3034 5.87181 32.8434 6.18507V6.18519Z" fill="#EDC20D"/>
<path d="M31.7377 3.80612C31.7325 3.80673 31.7281 3.80709 31.7246 3.80782C31.7309 3.80745 31.7388 3.80648 31.7479 3.80551C31.7473 3.80515 31.7465 3.80515 31.7456 3.80551C31.7429 3.80551 31.7404 3.80587 31.7377 3.80612Z" fill="#201F1D"/>
<path d="M31.7085 3.8096C31.7098 3.8096 31.7127 3.80912 31.7174 3.80879C31.712 3.80928 31.709 3.8096 31.7085 3.8096Z" fill="#201F1D"/>
<path d="M12.8307 5.43269C12.8303 5.46197 12.8428 5.49138 12.8681 5.51143C12.9085 5.54375 12.9555 5.57959 12.9992 5.60985C13.062 5.65372 13.1453 5.65141 13.2061 5.60487C13.2541 5.56866 13.3102 5.53208 13.343 5.53208C13.392 5.53208 13.8898 5.50304 14.143 5.48798C14.2451 5.48202 14.3394 5.43135 14.4004 5.34897C14.477 5.24617 14.5761 5.08419 14.6425 4.86936C14.6527 4.83643 14.649 4.80216 14.6346 4.77349C14.6231 4.74882 14.6033 4.72804 14.5784 4.71492C14.5709 4.71091 14.563 4.70763 14.5544 4.70508C14.4723 4.68041 14.364 4.64845 14.2828 4.62597C14.2778 4.62464 14.273 4.6233 14.2676 4.62233C14.2177 4.61212 14.1661 4.62002 14.1212 4.64469C13.8857 4.77409 13.1625 5.17399 12.8776 5.34994C12.847 5.36877 12.8309 5.40061 12.8306 5.43257L12.8307 5.43269Z" fill="#EDC20D"/>
<path d="M13.4824 5.19451C13.861 5.1826 14.3898 4.84407 14.5783 4.71491C14.5708 4.7109 14.563 4.70762 14.5544 4.70506C14.4722 4.6804 14.3639 4.64844 14.2827 4.62596C14.2778 4.62462 14.2729 4.62329 14.2676 4.62231C13.8161 4.8555 13.4824 5.19439 13.4824 5.19439V5.19451Z" fill="black"/>
<path d="M12.8306 5.43267C12.8302 5.46195 12.8427 5.49136 12.868 5.51141C12.9084 5.54373 12.9554 5.57958 12.9991 5.60983C13.0618 5.6537 13.1452 5.65139 13.206 5.60485C13.254 5.56864 13.3101 5.53206 13.3429 5.53206C13.3919 5.53206 13.8897 5.50302 14.1429 5.48796C14.245 5.482 14.3392 5.43133 14.4003 5.34895C14.4769 5.24615 14.576 5.08417 14.6424 4.86934C14.6525 4.83641 14.6489 4.80214 14.6345 4.77347L14.0353 5.13144C13.8401 5.24797 13.6236 5.32392 13.3985 5.35478L12.8306 5.43255V5.43267Z" fill="#CCA701"/>
</svg>
