<svg width="24" height="24" viewBox="0 0 24 24" fill="none" xmlns="http://www.w3.org/2000/svg">
<g clip-path="url(#clip0_1232_6659)">
<path d="M13.185 21.8906C12.7162 21.5456 12.1104 21.4483 11.5554 21.3201C10.8611 21.1697 10.1668 21.0216 9.46583 20.8977C8.1922 20.6766 6.62227 20.2764 5.79972 20.1747C4.61232 20.0266 3.25024 19.9425 2.58468 20.6346C1.5587 21.6982 2.85666 22.2355 3.62835 21.9481C4.12587 21.7601 5.22924 21.1189 6.11591 21.1034C5.46583 21.4771 4.35803 22.5804 4.72067 23.0249C5.1629 23.5622 5.99209 23.0249 6.47633 22.7065C7.43156 22.0918 8.33814 21.6783 9.4592 21.6584C9.1629 21.8508 8.48186 22.7153 8.87103 22.9077C9.35748 23.1487 9.97661 22.4655 10.4188 22.0232C10.5007 22.4058 10.6753 23.1288 11.0822 23.2084C11.489 23.288 11.5775 22.5075 11.635 22.0785C11.7566 22.3726 12.3448 22.963 12.6035 23.1576C12.8246 23.3345 13.3907 23.6728 13.6914 23.5158C14.3127 23.1929 13.5764 22.178 13.185 21.8906Z" fill="#41D6E5"/>
<path d="M5.59227 15.3941C4.88027 15.3234 4.81836 15.6948 4.96429 16.1525C4.53975 15.8341 3.57789 15.3035 3.33687 15.8695C3.09586 16.4356 3.79016 16.9906 4.30979 17.2935C4.28046 17.2935 4.25235 17.3052 4.23161 17.3259C4.21088 17.3466 4.19923 17.3747 4.19923 17.4041C4.19923 17.4334 4.21088 17.4615 4.23161 17.4822C4.25235 17.503 4.28046 17.5146 4.30979 17.5146C5.24631 17.7302 6.20579 17.8297 7.16661 17.8109C7.18348 17.8101 7.19995 17.8055 7.21487 17.7976C7.22978 17.7897 7.24276 17.7786 7.25289 17.7651C7.26302 17.7516 7.27006 17.736 7.27349 17.7195C7.27692 17.7029 7.27667 17.6858 7.27275 17.6694C7.08922 16.7274 6.71996 15.5091 5.59227 15.3941Z" fill="#13B6D1"/>
<path d="M10.3308 16.5219C10.3013 16.3719 10.2209 16.2368 10.1032 16.1393C9.98561 16.0418 9.83792 15.9879 9.68514 15.9868C9.55136 16.0064 9.42977 16.0754 9.34426 16.1801C9.25875 16.2849 9.2155 16.4178 9.223 16.5528C9.223 16.9331 9.51267 17.2007 9.78464 17.4262C9.79513 17.4349 9.80712 17.4417 9.82002 17.4461L9.80012 17.4749C9.72273 17.5965 9.91289 17.707 9.99028 17.5876C10.1893 17.2803 10.4215 16.9044 10.3308 16.5219Z" fill="#13B6D1"/>
<path d="M14.8788 14.1581C13.7246 13.5456 12.9175 15.8629 12.7915 16.5904C13.1028 16.1747 13.5123 15.8428 13.9833 15.6241C14.2863 15.4693 14.744 15.3897 14.9806 15.1244C15.2172 14.859 15.268 14.3659 14.8788 14.1581Z" fill="#13B6D1"/>
<path d="M17.1961 15.8519C16.9308 15.4384 16.3117 15.4915 15.9026 15.5887C15.2083 15.7546 14.514 16.356 14.0762 16.9154C14.8169 16.6169 15.8827 16.7761 16.7075 16.628C17.0745 16.5595 17.4526 16.2477 17.1961 15.8519Z" fill="#13B6D1"/>
<path d="M0 18.6092V18.8966C0 18.8966 6.86788 20.6811 8.1592 21.0348C9.74461 21.4771 12.4312 22.1824 14.1294 22.4522C16.3687 22.8 18.6462 22.8276 20.8933 22.534C21.9549 22.4169 22.999 22.1757 24.0044 21.8154V21.497L3.59757 18.0365L0 18.6092Z" fill="#E24980"/>
<path d="M2.03227 16.4423C2.03227 16.4423 11.255 16.942 15.0781 17.853C20.9598 19.2549 24.0046 21.497 24.0046 21.497C24.0046 21.497 19.098 23.2659 12.8316 21.9016C8.12182 20.8734 0.00683594 18.6092 0.00683594 18.6092L2.03227 16.4423Z" fill="#EF6590"/>
<path d="M2.52502 16.9353L2.15797 17.3775C2.69505 17.4203 3.22507 17.5272 3.73674 17.6959C4.40009 17.9502 4.32712 18.2863 3.44929 18.2399C2.88544 18.203 2.33024 18.0822 1.80197 17.8817L1.18506 18.5097C1.18506 18.5097 8.05957 20.2786 10.0894 20.6943C12.0419 21.0945 16.1436 21.7158 17.5786 21.7158C19.0137 21.7158 22.3636 21.2736 22.3636 21.2736C22.3636 21.2736 19.1574 19.7258 16.5593 18.9453C15.1397 18.5185 10.4675 17.8286 7.83625 17.5566C6.20219 17.3864 2.52502 16.9353 2.52502 16.9353Z" fill="#E24980"/>
<path d="M10.4566 1.85736C10.3836 1.73795 10.3305 1.67604 10.377 1.51462C10.4021 1.39455 10.403 1.27066 10.3794 1.15027C10.3559 1.02987 10.3084 0.915425 10.2399 0.813686C9.97895 0.484222 9.85955 0.512963 9.85955 0.512963C9.53893 0.512963 8.7208 1.21833 8.64562 1.39743C8.50914 1.68263 8.396 1.97842 8.30731 2.2819C8.28254 2.37777 8.2648 2.47532 8.25424 2.57377C8.24018 2.62151 8.22244 2.66809 8.20117 2.71308C8.51799 2.90612 8.85641 3.06122 9.20946 3.17521C9.22985 3.11678 9.26194 3.06312 9.30376 3.0175C9.34558 2.97188 9.39625 2.93525 9.45269 2.90987C9.61368 2.92674 9.77108 2.96851 9.91925 3.03369C10.0563 3.05801 10.2531 2.98505 10.2509 2.85901C10.2487 2.73298 10.2686 2.76172 10.3018 2.73961C10.3349 2.7175 10.3725 2.68875 10.3394 2.63568C10.3946 2.60915 10.4566 2.59367 10.4079 2.52734C10.3593 2.461 10.3681 2.42341 10.4676 2.36592C10.5251 2.33275 10.6733 2.33275 10.6688 2.25536C10.6179 2.11304 10.5464 1.97895 10.4566 1.85736Z" fill="#FFB680"/>
<path d="M7.60859 0.196815C7.51001 0.308052 7.45955 0.453833 7.46825 0.602211C7.47695 0.750589 7.54412 0.889461 7.65503 0.98841C7.76683 1.08645 7.91295 1.13616 8.06134 1.12663C8.20973 1.11709 8.34829 1.0491 8.44663 0.937557C8.54494 0.826038 8.59502 0.680088 8.5859 0.531702C8.57678 0.383316 8.50921 0.244598 8.39798 0.145956C8.28655 0.0480428 8.14079 -0.00160375 7.99276 0.0079333C7.84473 0.0174704 7.70654 0.0854125 7.60859 0.196815Z" fill="#6B2415"/>
<path d="M10.1162 0.681028C9.99733 0.930151 9.84885 1.16401 9.67394 1.37754C9.53215 1.52075 9.34571 1.61125 9.14547 1.63404C9.05482 1.43282 8.90224 1.3886 8.82264 1.41292C8.76501 1.43804 8.7157 1.47903 8.68047 1.53109C8.64524 1.58316 8.62553 1.64417 8.62364 1.70701C8.6289 1.81805 8.6536 1.92732 8.69661 2.02984C8.69661 2.02984 8.35609 2.41901 8.23889 2.60253C8.19909 2.44603 8.11548 2.30413 7.99788 2.19347C7.81717 1.95941 7.72619 1.66843 7.74138 1.37312C7.74441 1.19443 7.78541 1.01842 7.86165 0.856785C7.9379 0.695147 8.04765 0.55157 8.18362 0.435585C8.4976 0.170245 9.25824 -0.176904 10.1162 0.681028Z" fill="#7E3422"/>
<path d="M10.9583 12.9928C10.8234 12.2034 9.70017 9.15424 9.70017 9.15424H6.65318C6.53618 9.74254 6.53618 10.3481 6.65318 10.9364C6.86641 11.824 7.14277 12.6952 7.48016 13.5434L7.28115 14.6158L8.38674 15.005C8.52805 14.5627 8.64251 14.1123 8.72947 13.6562C8.75158 12.9707 8.61006 11.0934 8.61006 11.0934C8.98126 11.8362 9.2947 12.6065 9.5476 13.3975C9.69354 13.9016 9.92129 14.4876 10.0871 15.0757L11.2104 14.8701C11.1352 14.0343 10.9915 13.194 10.9583 12.9928Z" fill="#383838"/>
<path d="M9.72049 4.74516C9.72049 4.16583 9.25173 3.47816 9.25173 3.47816C9.21734 3.45061 9.1926 3.41284 9.18107 3.37032C9.16955 3.32779 9.17183 3.2827 9.1876 3.24156C9.1876 3.21945 9.20308 3.20176 9.20971 3.18186C8.85666 3.06787 8.51824 2.91277 8.20142 2.71973C8.16302 2.81202 8.11946 2.90208 8.07096 2.98949C8.04124 3.0436 8.00082 3.09111 7.95216 3.12912C7.90351 3.16713 7.84763 3.19486 7.78794 3.21061C7.82095 3.51363 7.80903 3.81986 7.75256 4.11939C7.65084 4.52625 7.46732 5.1498 7.05162 5.33111C7.09805 5.84189 7.16881 6.77943 7.08921 7.22608C6.93221 8.11055 6.64697 9.15201 6.64697 9.15201H9.69396C9.53956 8.58318 9.45054 7.99861 9.42862 7.40961C9.47848 6.71459 9.576 6.02382 9.72049 5.34217C9.72492 5.14537 9.72492 4.9331 9.72049 4.74516Z" fill="#EF6590"/>
<path d="M7.78785 3.21283L7.75247 3.22388C7.51588 3.28801 7.17757 3.38309 6.97635 3.445C6.63443 3.63029 6.3447 3.89873 6.1339 4.22554C5.88846 4.55722 5.64523 4.88889 5.42853 5.16971C5.21184 5.45052 4.90006 5.84411 4.80498 5.9392C4.50648 6.2377 2.79282 7.3057 2.39481 7.4052C1.94549 7.53948 1.50713 7.70802 1.08359 7.90935C0.314105 8.3162 0.506476 8.47983 1.21405 8.4356C1.57668 8.41349 1.77348 8.22996 1.94816 8.30072C2.04545 8.34052 2.08967 8.49088 2.16927 8.67219C2.27541 8.92648 2.44346 8.8712 2.44346 8.8712C2.44346 8.8712 2.39924 8.06634 2.7088 7.94473C3.53249 7.59377 4.33112 7.18669 5.09907 6.72637C5.28039 6.60033 5.64965 6.28414 5.95479 5.99669L6.0366 5.9193L6.08967 5.87286L6.31079 5.67165C6.34617 5.63406 6.38155 5.60088 6.41692 5.56993C6.75966 5.24046 7.02721 4.97292 7.02721 4.97292C7.02721 4.97292 7.04268 5.11443 7.06258 5.3267C7.47828 5.14539 7.66181 4.52184 7.76353 4.11498C7.81566 3.81707 7.82386 3.51312 7.78785 3.21283Z" fill="#FFB680"/>
<path d="M15.3631 8.52403C14.9328 8.16489 14.4597 7.86038 13.9546 7.61745C13.0856 7.25482 11.9159 6.69982 11.697 6.37036C11.4228 5.95908 10.4521 4.3405 9.97673 3.92702C9.80338 3.79261 9.61578 3.67768 9.4173 3.58429C9.35848 3.55479 9.30289 3.51921 9.25146 3.47815C9.25146 3.47815 9.7136 4.16582 9.72023 4.74515C9.72023 4.9331 9.72023 5.14537 9.72023 5.34437V5.32226C9.72023 5.32226 10.2973 6.10501 10.8125 6.68876C10.9427 6.84388 11.0815 6.99152 11.2282 7.13099C11.7744 7.62851 13.2183 7.8452 13.7689 8.28744C13.9436 8.42232 13.8839 8.64122 13.8264 8.84023C13.7888 8.96848 13.8485 9.08346 13.9259 8.98838C14.0033 8.8933 14.0983 8.74957 14.1868 8.65228C14.2752 8.55499 14.629 8.82696 14.901 8.95079C15.2747 9.10778 15.8606 8.92204 15.3631 8.52403Z" fill="#FFB680"/>
<path d="M8.38933 18.9453C8.07351 18.7904 7.80763 18.5498 7.62206 18.2509C7.55049 18.0987 7.52734 17.9281 7.55572 17.7623C7.72377 17.2183 8.10409 15.9933 8.38933 15.005L7.28375 14.6158C7.28375 14.6158 7.01399 16.7297 6.73759 17.6451C6.67165 17.8672 6.56847 18.0766 6.43245 18.2642C6.31305 18.43 6.36169 18.649 6.76855 18.8126C7.1754 18.9762 7.45843 19.4914 7.97363 19.5401C8.48884 19.5887 8.80061 19.5401 8.80061 19.3764C8.80061 19.2128 8.66131 19.0978 8.38933 18.9453Z" fill="#FFB680"/>
<path d="M13.258 18.9564C12.9771 18.8082 12.1236 18.4611 11.9622 18.1603C11.5708 17.4373 11.52 16.3251 11.2126 14.8701L10.0894 15.0758C10.3414 15.989 10.8168 17.2007 11.0335 17.9282C11.1352 18.2731 10.9119 18.7972 11.2126 18.8325C11.5133 18.8679 12.0175 19.1996 12.1723 19.2748C12.4605 19.4312 12.787 19.5032 13.1142 19.4826C13.4437 19.4074 13.6405 19.1598 13.258 18.9564Z" fill="#FFB680"/>
</g>
<defs>
<clipPath id="clip0_1232_6659">
<rect width="24" height="23.56" fill="white"/>
</clipPath>
</defs>
</svg>
