<svg width="26" height="17" viewBox="0 0 26 17" fill="none" xmlns="http://www.w3.org/2000/svg">
<g clip-path="url(#clip0_1232_6491)">
<path d="M16.2761 -1.03071e-05C16.0543 -0.0176579 15.0156 0.320168 14.4332 0.756317C14.0576 1.04876 11.0197 2.52108 10.4928 3.97071C10.3617 4.3287 10.1776 6.13884 9.95577 6.74391C9.38096 8.28177 9.45155 8.99524 9.19944 9.59274C9.00256 9.78208 8.81654 9.9824 8.64228 10.1928C8.24977 10.6807 7.88934 11.1935 7.56326 11.7281C7.26035 12.2011 6.85004 12.5958 6.36574 12.8802C6.02287 13.0819 5.8237 13.0592 5.42285 13.1323L6.6834 15.119H10.7474C10.9995 14.9954 11.4583 14.7559 11.6373 14.6551C12.3828 14.1839 13.0265 13.5684 13.5307 12.8449C13.4979 12.6382 13.45 12.4315 13.3996 12.2399C13.3996 12.2399 13.3996 12.2399 13.3996 12.2248C13.3567 12.0609 13.3113 11.9071 13.2685 11.7735C13.2672 11.702 13.2827 11.6311 13.3139 11.5667C13.3845 11.4331 13.8433 11.0424 14.0299 11.0373C14.282 11.0373 14.4257 11.1936 14.5643 11.4205C14.7458 11.718 15.0181 11.36 15.2173 11.4709C15.3459 11.5415 15.3383 11.4256 15.366 11.3499C15.4165 11.3348 15.5097 11.3953 15.5551 11.3827C15.6686 11.3525 15.6156 11.2365 15.666 11.2113C15.7946 11.1508 16.0619 11.4281 16.145 11.3046C16.2888 11.0877 16.3467 10.4297 16.5106 10.3617C16.799 10.2543 17.0419 10.0515 17.1989 9.78686C17.2913 9.66224 17.3554 9.51894 17.3868 9.36698C17.4181 9.21501 17.416 9.05803 17.3804 8.907C17.3199 8.48598 16.5686 7.32123 15.7089 7.22039C14.8492 7.11955 14.2643 8.01201 14.0803 8.33219C13.8567 8.78748 13.5943 9.2227 13.2962 9.63307C13.0325 9.8421 12.7288 9.99484 12.4037 10.0818H12.3659C12.1704 9.85017 12.0445 9.56781 12.0029 9.26751C11.9726 8.97759 11.955 8.63724 11.9399 8.2742C11.9197 7.72965 12.2399 5.36487 12.2096 4.3892C12.2096 4.1371 14.587 1.73954 15.2349 1.45214C16.1904 1.03868 17.272 1.45213 17.9149 1.23028C19.1603 0.824383 18.1317 0.156297 16.2761 -1.03071e-05Z" fill="#FFB680"/>
<path d="M16.9693 10.0944C16.7552 9.80389 16.4798 9.56404 16.1626 9.39194C15.8454 9.21983 15.4942 9.11968 15.1339 9.0986C14.6026 9.09481 14.0727 9.15491 13.5557 9.2776C13.5522 8.69017 13.7618 8.12139 14.1456 7.6767C14.9574 6.72625 16.7474 7.21534 17.2214 8.11537C17.6953 9.0154 17.4205 9.6734 16.9693 10.0944Z" fill="#FC2E3D"/>
<path d="M10.0186 8.75574C10.1093 9.07592 10.3337 9.57761 10.132 9.91544C10.0466 10.0254 9.9294 10.1064 9.79635 10.1475C9.66329 10.1885 9.52082 10.1876 9.3883 10.1449C9.21686 9.94569 10.0186 8.75574 10.0186 8.75574Z" fill="#ED8A40"/>
<path d="M16.0239 10.4348C16.0782 10.5139 16.1609 10.569 16.2548 10.5887C16.3487 10.6084 16.4466 10.5912 16.5281 10.5407C16.5839 10.5005 16.6258 10.444 16.648 10.3789C16.6701 10.3138 16.6714 10.2435 16.6516 10.1776C16.581 9.92552 16.2382 9.52466 15.9407 9.6482C15.7718 9.71627 15.8751 10.2432 16.0239 10.4348Z" fill="#383838"/>
<path d="M15.9558 9.79697L14.2969 7.52799L14.4179 7.43219L16.0969 9.73899L15.9558 9.79697Z" fill="#383838"/>
<path d="M16.1273 9.92046C16.0466 9.96584 15.9584 10.1095 16.0971 10.3339C16.1098 10.3702 16.1307 10.4031 16.1581 10.4301C16.1855 10.4571 16.2187 10.4775 16.2552 10.4897C16.2917 10.5018 16.3305 10.5055 16.3687 10.5003C16.4068 10.4952 16.4433 10.4814 16.4752 10.46C16.5609 10.4171 16.5811 10.2406 16.513 10.1095C16.445 9.97845 16.2887 9.8297 16.1273 9.92046Z" fill="#6B6B6B"/>
<path d="M24.5958 12.5903C23.5621 11.9273 22.5436 11.4231 21.3814 12.2298C21.018 12.4594 20.6298 12.6471 20.2242 12.7895C19.4931 13.0971 18.3359 12.8374 18.0409 12.5828C16.9921 11.6827 15.9913 11.4155 14.8265 12.2222C14.4113 12.5445 13.9244 12.7616 13.4072 12.855C12.9398 12.9173 12.465 12.8215 12.0584 12.5828C11.0272 11.9197 10.0087 11.4155 8.84398 12.2222C8.48149 12.4539 8.09419 12.6441 7.68932 12.7895C6.95569 13.0971 5.79851 12.8374 5.50354 12.5828C4.45477 11.6827 3.45389 11.4155 2.28915 12.2222C0.857171 13.2181 0 12.8097 0 12.8097V14.9854H26V12.855C25.5159 12.9109 25.0263 12.8186 24.5958 12.5903Z" fill="#13B6D1"/>
<path d="M24.5958 13.6593C23.5621 12.9937 22.5436 12.4895 21.3814 13.2988C21.0177 13.5293 20.6296 13.7187 20.2242 13.8635C19.4931 14.1736 18.3359 13.9114 18.0409 13.6593C16.9921 12.7593 15.9913 12.4895 14.8265 13.2988C14.4113 13.621 13.9244 13.8381 13.4072 13.9316C12.9398 13.9927 12.4654 13.8969 12.0584 13.6593C11.0272 12.9937 10.0087 12.4895 8.84398 13.2988C8.48093 13.5287 8.09373 13.7181 7.68932 13.8635C6.95569 14.1736 5.79851 13.9114 5.50354 13.6593C4.45477 12.7593 3.45389 12.4895 2.28915 13.2988C0.857171 14.2921 0 13.8862 0 13.8862V16.0669H26V13.9341C25.5149 13.9869 25.0252 13.8911 24.5958 13.6593Z" fill="#41D6E5"/>
</g>
<defs>
<clipPath id="clip0_1232_6491">
<rect width="26" height="16.0619" fill="white"/>
</clipPath>
</defs>
</svg>
