<svg width="26" height="18" viewBox="0 0 26 18" fill="none" xmlns="http://www.w3.org/2000/svg">
<g clip-path="url(#clip0_1232_5271)">
<g style="mix-blend-mode:multiply" opacity="0.3">
<path d="M26.0002 16.0782C26.0002 16.6357 23.2125 17.0919 19.775 17.0919C16.3375 17.0919 13.5498 16.6414 13.5498 16.0782C13.5498 15.515 16.3363 15.0645 19.775 15.0645C23.2136 15.0645 26.0002 15.5207 26.0002 16.0782Z" fill="#A3B848"/>
</g>
<g style="mix-blend-mode:multiply" opacity="0.3">
<path d="M6.22518 15.818C9.66325 15.818 12.4504 15.3657 12.4504 14.8077C12.4504 14.2498 9.66325 13.7974 6.22518 13.7974C2.78711 13.7974 0 14.2498 0 14.8077C0 15.3657 2.78711 15.818 6.22518 15.818Z" fill="#A3B848"/>
</g>
<path d="M22.8327 13.4719C22.8335 13.7329 22.8105 13.9934 22.764 14.2502C22.6919 14.5881 22.684 14.8246 22.5534 15.0668C22.4227 15.3089 22.5331 15.63 22.8259 15.586C23.1188 15.5421 23.3553 15.1456 23.4826 14.9361C23.6099 14.7266 23.8092 14.0768 23.8509 13.9652C23.8926 13.8537 24.0446 13.4021 23.9917 13.2771C23.9387 13.152 23.3756 13.027 23.1807 12.9808C22.9859 12.9347 22.8327 13.4719 22.8327 13.4719Z" fill="#505366"/>
<g style="mix-blend-mode:multiply" opacity="0.5">
<path d="M23.9919 13.2771C23.9686 13.242 23.9352 13.2149 23.8961 13.1993C23.8707 13.4037 23.8204 13.6042 23.7463 13.7963C23.7047 13.9089 23.5042 14.5566 23.378 14.7672C23.2519 14.9778 23.0131 15.3731 22.7214 15.4171C22.6847 15.424 22.6471 15.4231 22.6108 15.4146C22.5745 15.4061 22.5404 15.39 22.5107 15.3675C22.5164 15.4029 22.5292 15.4368 22.5483 15.4671C22.5674 15.4974 22.5924 15.5236 22.6218 15.544C22.6513 15.5644 22.6846 15.5787 22.7197 15.5859C22.7548 15.5931 22.791 15.5931 22.8261 15.586C23.1178 15.5421 23.3555 15.1456 23.4828 14.935C23.61 14.7244 23.8094 14.0767 23.8511 13.9652C23.8927 13.8537 24.0504 13.4021 23.9919 13.2771Z" fill="#505366"/>
</g>
<path d="M15.4328 15.4351C15.2174 15.5819 14.9889 15.7086 14.7503 15.8135C14.4315 15.9419 14.2299 16.0704 13.9551 16.0974C13.6803 16.1244 13.4775 16.397 13.678 16.6144C13.8785 16.8317 14.3403 16.8058 14.5791 16.7923C14.8178 16.7788 15.4801 16.5828 15.5928 16.5547C15.7054 16.5265 16.1683 16.3992 16.2415 16.2844C16.3147 16.1695 16.2021 15.6288 16.1289 15.4407C16.0557 15.2526 15.4328 15.4351 15.4328 15.4351Z" fill="#505366"/>
<g style="mix-blend-mode:multiply" opacity="0.5">
<path d="M16.2482 16.0275C16.1705 16.1616 15.6963 16.3102 15.5724 16.3429C15.4485 16.3756 14.784 16.6065 14.5272 16.6211C14.2704 16.6357 13.8063 16.665 13.5968 16.4195C13.5957 16.4558 13.6019 16.492 13.615 16.5258C13.6282 16.5597 13.648 16.5906 13.6734 16.6166C13.8739 16.834 14.3357 16.8081 14.5745 16.7946C14.8132 16.781 15.4755 16.5851 15.5882 16.5569C15.7008 16.5287 16.1637 16.4015 16.2369 16.2866C16.2676 16.1923 16.2723 16.0916 16.2504 15.9949C16.2505 16.0058 16.2497 16.0167 16.2482 16.0275Z" fill="#505366"/>
</g>
<path d="M23.1978 13.0732C22.8092 12.8986 22.2393 12.4886 21.621 12.0967C21.0432 11.7295 20.1567 11.6405 19.9675 11.5335C19.7783 11.4265 18.545 8.61294 18.5033 8.57014C18.4616 8.52734 16.2935 8.98576 16.2935 8.98576C16.4658 9.26283 18.5776 11.7171 18.822 11.9637C19.0665 12.2104 19.0924 12.4267 19.5102 12.5156C19.9281 12.6046 22.9095 13.642 22.9951 13.6746C23.0807 13.7073 23.3859 13.1577 23.1978 13.0732Z" fill="#FDB171"/>
<path d="M16.291 8.99031C16.291 8.99031 18.0256 12.064 18.1123 12.0314C18.199 11.9987 19.3862 11.404 19.6193 10.9456L18.5009 8.57019L16.291 8.99031Z" fill="#A3B848"/>
<path d="M16.291 8.99031C16.291 8.99031 18.0256 12.064 18.1123 12.0314C18.199 11.9987 19.3862 11.404 19.6193 10.9456L18.5009 8.57019L16.291 8.99031Z" fill="#E6E7E8"/>
<path d="M18.4819 9.37551C18.5135 9.43972 19.1926 10.7958 19.4235 11.1956C19.4528 11.1679 19.4798 11.1397 19.5046 11.1112C19.312 10.7733 18.839 9.83956 18.5822 9.32483L18.4819 9.37551Z" fill="#D93601"/>
<path d="M18.3906 9.69421C18.4199 9.75165 18.9605 10.8329 19.2432 11.3533C19.2737 11.3285 19.3029 11.3048 19.3311 11.2801C19.1058 10.8667 18.7173 10.0941 18.492 9.64465L18.3906 9.69421Z" fill="#D93601"/>
<path d="M19.2072 8.13202C19.3683 8.41022 19.5203 8.80781 19.1137 9.19751C18.7071 9.58722 18.0832 10.388 16.6505 11.3296C16.7082 11.9478 16.6602 12.5713 16.5086 13.1734C16.3305 13.9195 16.2044 14.6771 16.1312 15.4407C16.1312 15.5702 15.5681 15.5533 15.4307 15.4407C15.4307 15.4407 15.532 12.1 15.4881 11.5774C15.4217 10.7699 15.4217 10.7699 16.0006 10.2698C16.5795 9.76969 17.4434 8.73122 17.4434 8.73122L19.2072 8.13202Z" fill="#FDB171"/>
<path d="M15.6704 10.441C15.6704 10.441 16.291 11.244 17.2292 11.511C17.2292 11.511 18.1021 10.334 18.4276 10.0839C18.7531 9.83389 19.929 9.07024 19.2093 8.13202L17.236 8.59381L15.6704 10.441Z" fill="#F2F2F2"/>
<path d="M12.9334 5.85008C12.9672 5.96271 13.046 6.24429 13.1327 6.54615C13.2521 6.44365 13.3715 6.34116 13.4954 6.24317C13.4422 6.1551 13.3941 6.0641 13.3512 5.9706C13.2862 5.82986 13.2598 5.67438 13.2746 5.52007C13.3377 5.26214 13.3974 5.37027 13.3794 5.11009C13.3614 4.84991 13.3219 4.56382 13.2397 4.59423C13.1575 4.62464 13.1924 4.89609 13.1924 4.89609C13.1924 4.89609 13.0922 4.44556 12.9401 4.44556C12.7881 4.44556 12.6124 4.7384 12.5617 4.93889C12.511 5.13937 12.6439 5.38942 12.6811 5.51106C12.7182 5.6327 12.8635 5.62932 12.9334 5.85008Z" fill="#FDB171"/>
<path d="M22.1165 6.30178C21.7865 6.01231 21.6581 6.08665 21.3867 5.71046C21.1152 5.33427 20.1872 4.11784 19.9709 4.07278C19.7547 4.02773 18.2319 4.20569 17.7464 4.17416C17.3756 4.1597 17.0079 4.24694 16.6832 4.42645C16.5785 4.48517 16.4569 4.50624 16.3385 4.48615C15.7506 4.60554 15.54 4.51881 14.9734 5.1518C14.5304 5.67737 14.1225 6.23159 13.7525 6.81087C13.7525 6.81087 13.837 6.72189 13.4495 6.16211C13.3087 6.23532 13.1893 6.18802 13.0508 6.26686C13.1276 6.6631 13.2619 7.04597 13.4495 7.40332C13.6061 7.72094 13.7074 7.6207 13.9834 7.40332C14.2593 7.18594 15.326 6.14859 15.326 6.14859C15.3879 6.68362 15.5402 7.20425 15.7765 7.68828C16.1617 8.44066 16.0569 8.87204 16.1144 8.91597C16.1718 8.95989 16.6325 9.15024 17.2407 8.98129C17.8489 8.81235 18.6261 8.75603 18.9302 8.6603C19.1436 8.5812 19.3362 8.45446 19.4933 8.28973C19.5373 8.2458 19.0518 7.42134 18.7049 7.0305C18.358 6.63967 17.9807 5.23853 17.9244 5.13716C17.9244 5.13716 19.4528 4.94568 19.6544 4.88937C19.8122 5.10833 20.0088 5.29653 20.2345 5.44464C20.6512 5.73523 21.0319 5.90644 21.1468 6.06637C21.2617 6.22631 21.1558 6.61602 21.3416 6.86268C21.5275 7.10935 21.4667 6.86268 21.7246 7.12174C21.8271 7.22311 22.0264 7.16679 22.2449 6.95166C22.4634 6.73653 22.4454 6.59237 22.1165 6.30178Z" fill="#FDB171"/>
<path d="M16.1332 15.4407C16.193 14.8252 16.2847 14.2131 16.408 13.6071C15.7322 13.6071 15.4822 13.4674 15.4822 13.4674C15.4619 14.4507 15.4326 15.4351 15.4326 15.4351C15.5757 15.5511 16.1332 15.5702 16.1332 15.4407Z" fill="#F2F2F2"/>
<path d="M16.4082 13.6071H16.2618C16.1176 14.346 16.0174 15.1952 16.0162 15.2966C16.0151 15.3979 15.6502 15.4092 15.4351 15.3461C15.4351 15.4058 15.4351 15.4396 15.4351 15.4396C15.5781 15.5522 16.1356 15.5748 16.1356 15.4396C16.1954 14.8241 16.2872 14.212 16.4105 13.606L16.4082 13.6071Z" fill="#E6E7E8"/>
<path d="M21.0576 13.0146C21.9711 13.3232 22.9442 13.6623 22.9926 13.6792C23.0794 13.7085 23.3857 13.1577 23.1976 13.0732C22.809 12.8986 22.2391 12.4886 21.6208 12.0967C21.6197 12.0967 21.5025 12.9178 21.0576 13.0146Z" fill="#F2F2F2"/>
<path d="M23.1976 13.0732C22.809 12.8986 22.2391 12.4886 21.6208 12.0967C21.6208 12.0967 21.6151 12.1305 21.605 12.1823C22.1681 12.5472 22.6885 12.911 23.0489 13.0732C23.2055 13.143 23.0208 13.5327 22.9036 13.6476L22.9937 13.6792C23.0793 13.7085 23.3857 13.1577 23.1976 13.0732Z" fill="#E6E7E8"/>
<path d="M18.7129 7.03385C18.4786 6.76691 18.2285 6.0348 18.0742 5.56174C18.0742 5.55273 18.0179 5.3545 18.0833 5.31621C18.1486 5.27791 19.1454 5.09094 19.1454 5.09094C19.1454 4.8837 18.8874 4.07162 18.8874 4.0705C18.4932 4.09865 17.9492 4.19214 17.7465 4.18313C17.3757 4.16867 17.008 4.25592 16.6832 4.43542C16.5785 4.49414 16.4569 4.51521 16.3386 4.49511C15.7506 4.6145 15.4612 4.52778 14.8935 5.16077C14.6034 5.46125 14.3336 5.7807 14.0859 6.11702C14.0859 6.11702 14.1377 6.52587 14.7144 6.91558C14.7144 6.91558 15.2111 6.33102 15.2449 6.42676C15.3958 6.86288 15.5757 7.28845 15.7833 7.70063C16.1674 8.45301 16.0638 8.88439 16.1212 8.92831C16.1786 8.97224 16.6393 9.16259 17.2475 8.99364C17.8557 8.82469 18.6329 8.76838 18.937 8.67264C19.1505 8.59355 19.3431 8.46681 19.5002 8.30208C19.5452 8.24914 19.0553 7.42468 18.7129 7.03385Z" fill="#FF4001"/>
<path d="M16.842 3.52538C16.7939 3.81553 16.8183 4.11307 16.913 4.39152C16.913 4.39152 16.2372 4.97496 15.8846 4.91413C15.8846 4.91413 15.8689 4.904 15.8846 4.7801C15.9004 4.65621 15.9128 4.34872 15.8092 4.26312C15.7055 4.17752 16.6562 3.4364 16.6562 3.4364L16.842 3.52538Z" fill="#FDB171"/>
<g style="mix-blend-mode:multiply" opacity="0.3">
<path d="M16.8236 3.78106C16.8241 3.69553 16.8301 3.61012 16.8417 3.52538L16.6547 3.4364C16.6547 3.4364 15.7041 4.17864 15.8077 4.26312C15.872 4.35036 15.9021 4.45817 15.8922 4.5661C15.8922 4.5661 16.4598 4.59989 16.8236 3.78106Z" fill="#FDB171"/>
</g>
<path d="M15.1243 2.51171C15.0499 2.6097 14.7413 2.6739 14.7548 2.8496C14.7548 2.8496 14.676 2.81806 14.6647 2.76963C14.6541 2.64596 14.6541 2.52161 14.6647 2.39795C14.6749 2.28531 14.8337 2.09947 14.9395 1.93165C15.0454 1.76383 15.3563 1.59375 15.5928 1.46197C15.8293 1.33019 16.3125 1.29753 16.5243 1.45184C16.5364 1.42373 16.5426 1.39345 16.5426 1.36286C16.5426 1.33226 16.5364 1.30199 16.5243 1.27388C16.5487 1.29706 16.5675 1.32561 16.579 1.35727C16.5905 1.38894 16.5946 1.42286 16.5907 1.45634C16.5907 1.45634 16.6696 1.26149 16.7935 1.23108C16.7563 1.26273 16.7273 1.30294 16.709 1.34826C16.6908 1.39358 16.6838 1.44265 16.6887 1.49126C16.7185 1.47175 16.7519 1.45858 16.787 1.45257C16.8221 1.44656 16.858 1.44785 16.8926 1.45634C16.8926 1.45634 16.7417 1.47999 16.7642 1.53856C16.7867 1.59713 17.0401 1.6602 17.1798 2.1434C17.3195 2.62659 17.1663 3.23819 16.9996 3.46458C16.8329 3.69097 16.6538 3.68083 16.6538 3.68083C16.6538 3.68083 15.6829 2.63786 15.666 2.62772C15.6491 2.61758 15.1243 2.51171 15.1243 2.51171Z" fill="#8A5D3B"/>
<path d="M16.3912 3.24829C16.4611 3.12102 16.594 3.02303 16.7043 3.08723C16.7547 3.12157 16.7914 3.17259 16.8079 3.23131C16.8244 3.29003 16.8196 3.35268 16.7944 3.40823C16.7111 3.68981 16.5545 3.77316 16.4565 3.7664C16.4521 3.82606 16.4354 3.88415 16.4075 3.93706C16.3796 3.98997 16.3411 4.03655 16.2944 4.07389C16.131 4.21693 15.6783 4.51315 15.5375 4.53793C15.5081 4.54309 15.478 4.54236 15.4489 4.53578C15.4198 4.52921 15.3923 4.51692 15.368 4.49963C15.3437 4.48234 15.323 4.46039 15.3073 4.43507C15.2915 4.40974 15.2809 4.38154 15.2762 4.35209C15.2593 4.2496 15.2041 4.28563 15.1489 4.22594C15.0937 4.16624 15.1489 4.1302 15.1489 4.1302C15.1489 4.1302 15.0475 4.12119 15.0577 4.08177C15.0678 4.04235 15.0903 3.92971 15.0577 3.9162C15.025 3.90268 14.8865 3.89255 14.9 3.81145C14.9135 3.73036 15.0126 3.51861 14.9811 3.41724C14.9495 3.31587 14.829 3.24716 14.8009 3.19873C14.7586 3.04291 14.7441 2.88088 14.7581 2.72005C14.7581 2.72005 14.9202 2.27627 15.5465 2.48014C15.7329 2.54258 15.9042 2.64312 16.0497 2.77536C16.1951 2.90761 16.3114 3.06866 16.3912 3.24829Z" fill="#FDB171"/>
<path d="M14.7546 2.84955C14.7546 2.72003 15.0835 2.65695 15.124 2.51166C15.124 2.51166 15.0553 2.60965 15.3414 2.67948C15.6275 2.74931 15.6185 2.87771 15.6185 2.87771C15.6295 2.82907 15.626 2.77826 15.6083 2.73161C15.5907 2.68495 15.5598 2.6445 15.5194 2.61528C15.646 2.67161 15.7547 2.7616 15.8336 2.87546C15.9384 3.04666 16.3168 3.03427 16.3968 3.25391C16.3968 3.25391 16.4429 2.56797 16.149 2.3123C15.855 2.05662 15.3211 2.00369 15.0688 2.06C14.8165 2.11632 14.687 2.59163 14.687 2.59163L14.7546 2.84955Z" fill="#8A5D3B"/>
<g style="mix-blend-mode:multiply" opacity="0.3">
<path d="M13.1926 4.90173C13.188 4.9507 13.1782 4.99903 13.1633 5.04591C13.1311 5.15105 13.0796 5.24923 13.0112 5.33537C12.9898 5.36053 12.9634 5.38087 12.9335 5.39506C12.9156 5.40281 12.8955 5.40402 12.8768 5.39846C12.858 5.3929 12.8418 5.38094 12.831 5.36466C12.8102 5.31756 12.7918 5.26944 12.7759 5.22048C12.7655 5.18731 12.7511 5.15554 12.733 5.12588C12.7195 5.10335 12.7026 5.10335 12.7026 5.1056C12.7026 5.10786 12.7207 5.1056 12.7398 5.12024C12.7645 5.14672 12.7857 5.17624 12.8029 5.2081C12.8223 5.25188 12.8445 5.29439 12.8693 5.33537C12.8907 5.37254 12.9335 5.33537 12.9696 5.29933C13.0337 5.21707 13.0885 5.12792 13.1329 5.03352C13.1723 4.9558 13.1926 4.90173 13.1926 4.90173Z" fill="#C49A6B"/>
</g>
<path d="M16.0819 7.24223C16.2341 7.09357 16.3568 6.91738 16.4434 6.723C16.4041 6.75511 16.3584 6.77853 16.3094 6.7917C16.1869 6.82823 16.055 6.81486 15.9423 6.75452C15.8296 6.69418 15.7454 6.59176 15.7079 6.46958C15.6246 6.18912 15.8318 5.86812 16.1585 5.77238C16.2308 5.75032 16.3069 5.74308 16.3822 5.75109C16.4574 5.75909 16.5303 5.78219 16.5964 5.81898C16.6626 5.85578 16.7206 5.90552 16.7671 5.96525C16.8135 6.02497 16.8475 6.09345 16.8669 6.16659C16.8916 6.25597 16.9004 6.349 16.8928 6.44142C16.8573 6.81148 16.6855 7.15512 16.4107 7.40555L16.0819 7.24223ZM16.3612 6.47521C16.409 6.46128 16.4495 6.42925 16.4741 6.38593C16.4987 6.3426 16.5055 6.2914 16.493 6.24318C16.4718 6.19318 16.4319 6.15342 16.3818 6.13238C16.3317 6.11134 16.2754 6.11069 16.2249 6.13055C16.2017 6.13488 16.1796 6.14373 16.1599 6.15661C16.1402 6.16949 16.1232 6.18615 16.1099 6.20561C16.0966 6.22507 16.0873 6.24697 16.0825 6.27004C16.0777 6.29311 16.0775 6.31689 16.0819 6.34005C16.1022 6.39408 16.1425 6.43824 16.1945 6.4634C16.2465 6.48855 16.3062 6.49277 16.3612 6.47521Z" fill="#F2F2F2"/>
<path d="M16.7295 11.3105C16.8759 11.0852 17.5078 10.1842 18.2658 9.63789C19.0238 9.09163 19.017 8.78977 19.0261 8.4316C19.0261 8.35501 19.0261 8.27617 19.0384 8.19282L18.9765 8.18494L18.9258 8.19732C18.9179 8.27955 18.9146 8.35614 18.9134 8.42935C18.9055 8.76724 18.8988 9.04094 18.2005 9.54666C17.4177 10.1098 16.77 11.0469 16.6304 11.2553L16.7295 11.3105Z" fill="#FF4001"/>
<path d="M18.0224 10.0941C18.1314 9.9906 18.2486 9.89606 18.3727 9.81136C18.7647 9.52415 19.2535 9.1671 19.2006 8.44513L19.0879 8.45301C19.1352 9.11304 18.6949 9.43517 18.2995 9.72013C18.1705 9.80848 18.0488 9.90717 17.9357 10.0152C17.5461 10.4464 17.1792 10.8976 16.8364 11.3668C16.8713 11.3826 16.9051 11.3983 16.9412 11.413C17.1687 11.1021 17.778 10.3441 18.0224 10.0941Z" fill="#FF4001"/>
<path d="M18.9201 5.12923L19.1454 5.08643C19.1454 4.87918 18.8874 4.06711 18.8874 4.06598C18.8007 4.07161 18.7061 4.08175 18.6104 4.09189C18.7083 4.39487 18.8334 4.79584 18.9201 5.12923Z" fill="#F2F2F2"/>
<path d="M19.4965 8.2931C19.5404 8.24917 19.055 7.4247 18.7081 7.03387C18.4738 6.76693 18.2238 6.03482 18.0695 5.56177C18.0695 5.56177 18.1753 6.42453 18.3443 6.67908C18.5132 6.93362 19.2048 8.13203 18.9807 8.18609C18.513 8.30398 18.0572 8.4646 17.6189 8.66591C17.2473 8.85626 16.5061 8.96213 16.0928 8.80895C16.0928 8.87089 16.1007 8.90806 16.1153 8.92158C16.1728 8.96551 16.6334 9.15586 17.2416 8.98691C17.8498 8.81796 18.627 8.76165 18.9311 8.66591C19.1456 8.58647 19.339 8.45893 19.4965 8.2931Z" fill="#D93601"/>
<path d="M15.1435 5.56177C15.1435 5.56177 14.9745 6.21841 14.8382 6.40651C14.7313 6.52799 14.6021 6.62779 14.4575 6.70048C14.5369 6.77617 14.6224 6.84512 14.7132 6.9066C14.7132 6.9066 15.1694 6.36934 15.2358 6.41101C15.1018 6.00328 15.175 5.84447 15.1435 5.56177Z" fill="#D93601"/>
<path d="M14.713 6.90434C14.713 6.90434 14.7659 6.84239 14.838 6.76242C14.5795 6.53079 14.3637 6.25554 14.2005 5.94922C14.1611 6.00103 14.1217 6.05284 14.0879 6.10577C14.0879 6.10577 14.1386 6.51688 14.713 6.90434Z" fill="#F2F2F2"/>
<g style="mix-blend-mode:multiply" opacity="0.3">
<path d="M14.7244 6.89308L14.7458 6.86829C14.7571 6.8559 14.7695 6.84239 14.783 6.82549L14.7942 6.81423L14.8235 6.78044L14.8348 6.76805C14.7672 6.70272 14.7075 6.6419 14.6512 6.57996C14.5878 6.62475 14.522 6.66611 14.4541 6.70385C14.4856 6.73313 14.5194 6.76242 14.5555 6.79283C14.5915 6.82324 14.6523 6.87055 14.7098 6.90546L14.7177 6.89645L14.7244 6.89308Z" fill="#A3B848"/>
</g>
<path d="M9.25736 4.79585C9.82052 5.29255 9.9906 5.42433 10.2384 5.27903C10.4862 5.13374 11.0561 4.40726 11.1113 4.32842C11.1935 4.21579 11.1439 3.93871 11.1439 3.82608C11.1439 3.71345 11.4819 3.37555 11.3467 3.37555C11.1468 3.3926 10.9571 3.47131 10.8038 3.60081C10.6968 3.72471 10.7306 3.87113 10.7486 4.06824C10.7542 4.13469 10.1269 4.53904 10.1269 4.53904C10.1269 4.53904 9.67635 4.11104 9.30692 3.94096C8.68068 3.65263 9.25736 4.79585 9.25736 4.79585Z" fill="#FDB171"/>
<g style="mix-blend-mode:multiply" opacity="0.3">
<path d="M10.0837 5.15177C9.93816 5.15257 9.79739 5.09963 9.68841 5.00309L9.52734 5.02788C9.88551 5.32748 10.0364 5.39731 10.2392 5.27904C10.4419 5.16078 10.835 4.68322 11.0186 4.45007C11.0152 4.4512 10.2043 5.14051 10.0837 5.15177Z" fill="#FDB171"/>
</g>
<path d="M10.1011 14.257C10.0391 14.6951 10.3849 14.8922 10.6282 14.9384C10.8715 14.9846 11.037 14.8257 11.3715 15.0195C11.5494 15.1252 11.7523 15.1815 11.9593 15.1825C12.1662 15.1835 12.3697 15.1291 12.5485 15.0251C12.9202 14.7897 12.7333 14.6433 12.3391 14.5183C11.8865 14.3748 11.4449 14.1986 11.0179 13.9911C10.6541 13.7985 10.6653 13.7569 10.5043 13.8335C10.1574 14.0002 10.1641 13.8143 10.1011 14.257Z" fill="#505366"/>
<path d="M8.72003 7.8865C8.8214 7.8696 11.154 9.32143 11.4074 9.64919C11.6609 9.97695 11.3162 10.3374 11.1675 11.7047C11.0188 13.0721 10.9828 13.9743 10.9423 14.1455C10.9017 14.3167 10.4174 14.3212 10.3352 14.1365C10.2529 13.9517 10.2462 13.3266 10.1651 12.6587C10.0525 11.7047 9.84072 11.921 10.4208 10.4061L8.28076 9.46786L8.72003 7.8865Z" fill="#FDB171"/>
<path d="M3.63687 11.8094C3.34853 11.7024 3.11651 11.6777 2.90814 11.8094C2.69977 11.9412 2.68288 12.171 2.31006 12.26C1.93725 12.349 1.66693 12.6947 1.55655 13.1205C1.44617 13.5462 1.6827 13.5248 2.05551 13.3458C2.42833 13.1667 2.93292 12.8592 3.27082 12.7668C3.66841 12.6542 3.87903 12.4548 3.94661 12.2893C4.08515 11.9333 3.63687 11.8094 3.63687 11.8094Z" fill="#505366"/>
<path d="M7.47314 8.97112C8.07208 9.51875 8.74368 9.98115 9.46898 10.3452C9.46898 10.3452 9.76971 9.87331 10.3869 8.72108C10.3869 8.72108 9.43294 8.13877 9.30679 8.00136C9.18064 7.86395 9.17952 7.10931 9.17952 7.10931L7.5441 8.07119L7.47314 8.97112Z" fill="#27AAE1"/>
<path d="M8.31232 9.02406C8.35286 9.1198 8.00483 11.5594 7.74916 11.8838C7.49348 12.2082 6.62283 12.0674 5.25998 12.251C3.89713 12.4346 3.68313 12.5213 3.50292 12.5213C3.32271 12.5213 3.25062 12.1372 3.37227 11.9773C3.49391 11.8173 3.8228 11.7588 4.45241 11.5267C5.39514 11.1888 5.09104 10.9703 6.6983 11.172L6.74898 8.72559L8.31232 9.02406Z" fill="#FDB171"/>
<path d="M8.86314 7.46753C8.63787 8.06786 8.20199 10.2676 8.18734 10.5919C8.1727 10.9163 6.51701 10.601 6.35031 10.5007C6.35031 10.5007 6.60712 9.66723 6.49561 9.31695C6.38411 8.96666 5.96061 7.77051 6.47984 7.46753H8.86314Z" fill="#27AAE1"/>
<path d="M5.65763 3.37109C5.28932 3.5254 4.17088 4.10433 3.98729 4.11897C3.8037 4.13361 3.53676 4.10433 2.74834 4.51543C1.95991 4.92654 1.7155 5.21488 1.41928 5.21488C1.12306 5.21488 0.339141 5.62824 0.301972 5.87378C0.286204 5.97177 0.429247 5.89292 0.598195 5.87378C0.849365 5.84787 1.22218 5.6395 1.27399 5.63387C1.45082 5.61697 0.989025 6.02921 1.10166 6.02921C1.21429 6.02921 1.35621 5.90419 1.60174 5.73411C1.84728 5.56404 1.81124 5.39622 2.56926 5.24867C3.73049 5.01665 3.85551 4.73619 4.00644 4.69902C4.15736 4.66186 5.87726 4.39717 5.87726 4.39717L5.65763 3.37109Z" fill="#FDB171"/>
<path d="M7.61634 2.67163C7.49583 3.05458 7.08247 2.78427 6.38865 2.98475C5.76575 3.1875 5.16587 3.45515 4.59893 3.78331C4.54261 3.8385 4.79491 4.83304 4.88839 4.87134C4.98188 4.90963 6.18254 4.53344 6.27602 4.64608C6.3695 4.75871 6.5576 5.69581 6.50128 6.31416C6.44497 6.93251 5.9201 7.6083 6.10707 7.66574C6.29404 7.72319 7.81345 8.02166 8.45095 7.81555C8.71402 7.72123 8.98352 7.64595 9.25739 7.59028C9.33173 7.57226 9.3137 5.1349 9.25739 4.797C9.20107 4.4591 9.44323 3.3891 8.46896 3.22015C7.4947 3.0512 7.61634 2.67163 7.61634 2.67163Z" fill="#F2F2F2"/>
<path d="M8.54524 3.85652C8.70405 3.76304 8.7705 3.54341 8.73108 3.30237C8.64796 3.26388 8.56008 3.2366 8.46977 3.22128C7.4955 3.05458 7.61602 2.67163 7.61602 2.67163C7.59918 2.73854 7.55967 2.79756 7.50423 2.83863C7.44878 2.8797 7.38083 2.90028 7.31191 2.8969C7.26348 2.99601 7.27812 3.12216 7.53718 3.37671C7.91788 3.75065 8.38643 3.95001 8.54524 3.85652Z" fill="#27AAE1"/>
<path d="M7.49326 2.31573C7.62391 2.61421 7.39978 2.86087 7.49326 3.0546C7.58674 3.24833 8.23551 3.73941 8.46753 3.64029C8.69955 3.54117 8.58016 3.44994 8.65562 2.92958C8.73109 2.40922 7.49326 2.31573 7.49326 2.31573Z" fill="#FDB171"/>
<g style="mix-blend-mode:multiply" opacity="0.3">
<path d="M7.49365 2.31573C7.54747 2.42675 7.55634 2.55425 7.51843 2.67165C7.75383 2.9949 8.22576 3.53554 8.6211 3.34744C8.62411 3.20877 8.63501 3.07039 8.65376 2.93296C8.73824 2.41034 7.49365 2.31573 7.49365 2.31573Z" fill="#FDB171"/>
</g>
<path d="M8.45761 0.16443C8.73845 0.207878 8.99248 0.355884 9.16878 0.578764C9.34507 0.801643 9.43061 1.08293 9.40823 1.36622C9.37219 2.04201 9.25392 1.84265 9.2956 2.06904C9.33727 2.29543 9.2359 2.67613 8.68851 3.05683C8.14112 3.43753 7.36508 2.47227 7.36508 2.25826C7.36508 2.25826 7.12968 2.23574 7.08237 2.05665C7.03507 1.87757 7.02268 1.52278 7.29638 1.65343C7.26162 1.6506 7.22776 1.6409 7.19678 1.62489C7.16579 1.60888 7.13829 1.58688 7.11587 1.56016C7.09345 1.53345 7.07656 1.50255 7.06617 1.46926C7.05578 1.43597 7.0521 1.40094 7.05534 1.36622C7.06435 1.09252 7.27948 0.0461658 8.45761 0.16443Z" fill="#FDB171"/>
<path d="M7.38076 2.00932C7.45419 2.10744 7.55605 2.18059 7.67249 2.21882C7.67249 2.21882 7.81778 1.54302 7.78512 1.31776C7.78512 1.31776 8.18834 1.53288 8.4136 1.49571C8.34211 1.41094 8.28227 1.317 8.23565 1.21639C8.46968 1.33789 8.71839 1.42874 8.97563 1.48671C9.08842 1.50821 9.20466 1.50334 9.31525 1.47246C9.42584 1.44159 9.52779 1.38556 9.61313 1.30875C9.57259 1.25243 9.36872 1.11164 9.4104 0.951705C9.47572 0.694904 9.19865 0.345742 9.0725 0.287173C8.8754 0.197067 8.67491 0.182425 8.50258 0.0833092C8.33026 -0.015807 7.87184 -0.0743749 7.68487 0.203826C7.58794 0.204434 7.49234 0.22646 7.40492 0.268323C7.31749 0.310186 7.2404 0.370849 7.17916 0.445981C6.98768 0.698277 6.94375 1.23441 6.9415 1.57906C6.93587 2.14222 7.19379 2.39339 7.46974 2.48012L7.38076 2.00932Z" fill="#58341F"/>
<path d="M7.38085 2.00936C7.38085 2.00936 7.37296 1.79424 7.30426 1.72553C7.23555 1.65683 7.1049 1.62079 7.11053 1.78298C7.11616 1.94517 7.09589 2.2977 7.38085 2.32474C7.45179 2.44609 7.5316 2.56204 7.61963 2.67164C7.61963 2.67164 7.51488 2.30334 7.49911 2.28194C7.48334 2.26054 7.38085 2.00936 7.38085 2.00936Z" fill="#FDB171"/>
<path d="M8.81813 3.34406C9.13237 3.47471 9.91404 4.23835 9.91404 4.23835C9.91404 4.23835 9.77888 5.07408 9.50856 5.22163L8.62891 4.8995L8.81813 3.34406Z" fill="#F2F2F2"/>
<path d="M9.73144 4.06598C9.71798 4.46126 9.59046 4.84421 9.36426 5.16865L9.50843 5.22159C9.77875 5.07404 9.9139 4.23831 9.9139 4.23831C9.9139 4.23831 9.84069 4.16735 9.73144 4.06598Z" fill="#27AAE1"/>
<path d="M9.27054 5.13487C9.27054 5.13487 9.27616 4.27775 9.06104 3.87903C9.06104 3.87903 9.34938 4.28788 9.41133 4.57847C9.47327 4.86906 9.52396 4.90172 9.52396 4.90172L9.36177 5.16867L9.27054 5.13487Z" fill="#E6E7E8"/>
<g style="mix-blend-mode:multiply" opacity="0.3">
<path d="M9.5263 4.90173C9.48065 4.99532 9.42675 5.08466 9.36523 5.16868L9.50941 5.22161C9.58861 5.16722 9.65071 5.09144 9.68849 5.00311C9.58149 4.94116 9.5263 4.90173 9.5263 4.90173Z" fill="#27AAE1"/>
</g>
<path d="M8.20636 4.92201C8.25159 4.91312 8.29773 4.90972 8.34377 4.91187C8.40336 4.91306 8.46208 4.92643 8.51632 4.95115C8.57055 4.97588 8.61916 5.01144 8.65914 5.05564C8.69912 5.09984 8.72964 5.15176 8.74882 5.20819C8.768 5.26463 8.77543 5.32439 8.77065 5.3838C8.76709 5.44948 8.75045 5.51378 8.72173 5.57295C8.693 5.63212 8.65276 5.68497 8.60336 5.72839C8.55396 5.77182 8.49639 5.80495 8.43402 5.82585C8.37165 5.84674 8.30574 5.85499 8.24015 5.8501C8.14523 5.84397 8.0534 5.81391 7.97324 5.7627C7.89308 5.71149 7.8272 5.64081 7.78174 5.55725L8.05769 5.39732C8.07281 5.43047 8.09704 5.45865 8.12754 5.47859C8.15804 5.49852 8.19357 5.5094 8.23001 5.50995C8.27782 5.51613 8.32617 5.50349 8.36484 5.4747C8.40351 5.44591 8.42948 5.40322 8.43726 5.35564C8.43726 5.2723 8.36855 5.21373 8.25367 5.2081C8.22013 5.20247 8.18569 5.20598 8.15397 5.21827C8.12226 5.23056 8.09445 5.25117 8.07346 5.27793L7.84819 5.15515L7.88536 4.45233L8.73911 4.49176L8.72447 4.80374L8.20298 4.77897L8.20636 4.92201Z" fill="#27AAE1"/>
<path d="M4.78026 3.67633C4.71747 3.70785 4.65688 3.7436 4.59893 3.78333C4.54261 3.83852 4.79491 4.83306 4.88839 4.87136C4.96894 4.87207 5.04911 4.86029 5.12604 4.83644C4.98118 4.45918 4.86558 4.07134 4.78026 3.67633Z" fill="#27AAE1"/>
<path d="M9.28447 7.43032C8.94658 7.47425 8.34962 7.55872 8.06804 7.62405C7.66482 7.71754 6.63424 7.47087 6.63424 7.47087C6.73258 6.78507 6.73258 6.08874 6.63424 5.40294C6.46529 4.34307 6.24002 4.41854 6.22538 4.27662C6.21299 4.1561 5.2376 4.52554 4.78369 4.65844C4.80126 4.73737 4.83714 4.81106 4.88844 4.87357C4.98192 4.91074 6.18258 4.53567 6.27607 4.6483C6.36955 4.76094 6.55765 5.69804 6.50133 6.31639C6.44502 6.93474 5.92015 7.61054 6.10712 7.66798C6.29409 7.72542 7.8135 8.02389 8.45099 7.81777C8.71406 7.72346 8.98357 7.64818 9.25744 7.59251C9.2687 7.58688 9.27772 7.52831 9.28447 7.43032Z" fill="#E6E7E8"/>
<g style="mix-blend-mode:multiply" opacity="0.3">
<path d="M9.16162 16.7878C9.16162 16.9263 9.75294 17.0401 10.4828 17.0401C11.2127 17.0401 11.8028 16.9274 11.8028 16.7878C11.8028 16.6481 11.2115 16.5344 10.4828 16.5344C9.75406 16.5344 9.16162 16.6481 9.16162 16.7878Z" fill="#A3B848"/>
</g>
<path d="M8.14453 15.5477C8.14609 15.2943 8.22268 15.047 8.36463 14.837C8.50659 14.6271 8.70756 14.4639 8.94217 14.368C9.17678 14.2721 9.43454 14.2479 9.6829 14.2984C9.93126 14.3489 10.1591 14.4718 10.3377 14.6516C10.5163 14.8315 10.6376 15.0602 10.6863 15.3089C10.7351 15.5576 10.709 15.8152 10.6115 16.0491C10.514 16.283 10.3494 16.4829 10.1385 16.6233C9.92755 16.7638 9.67972 16.8387 9.42628 16.8385C9.08533 16.8367 8.75899 16.6998 8.51874 16.4579C8.27849 16.216 8.14393 15.8887 8.14453 15.5477Z" fill="#F2F2F2"/>
<g style="mix-blend-mode:multiply">
<path d="M10.4745 15.0138V14.8055C10.5779 14.9519 10.6493 15.1184 10.684 15.2943L10.4835 15.0364L10.123 15.0026V14.9812L10.4745 15.0138Z" fill="#403D3D"/>
<path d="M8.15771 15.3675L8.32103 15.327L8.39198 15.9825H8.39874L8.34131 16.2291C8.46423 16.4261 8.63821 16.5861 8.84477 16.6921H8.87743L9.16802 16.5028L8.96754 16.0399L9.32233 15.4993L9.33922 15.4914H9.90239L10.1502 16.0816V16.094L9.82917 16.5028H9.81904L9.15676 16.4927V16.5141L9.82016 16.5254L9.90802 16.7157H9.93167C10.1703 16.608 10.3703 16.43 10.505 16.2055V16.032H10.5151L10.6807 15.6941L10.6874 15.6322L10.4948 16.0197H10.505L10.1671 16.067L9.91928 15.4745V15.4633L10.113 14.9744L9.60391 14.6219V14.6163L9.54985 14.3313H9.53858H9.52845L9.58138 14.6095V14.6208L9.12072 14.9012H9.1072H8.59247L8.56657 14.5633C8.33807 14.7735 8.19293 15.059 8.15771 15.3675ZM8.33905 15.3146L8.58684 14.962L8.60599 14.9496H9.11509L9.31219 15.4925L8.9574 16.0332L8.94952 16.0388L8.45056 15.9814L8.41451 15.9678L8.34468 15.3202L8.33905 15.3146Z" fill="#403D3D"/>
<path d="M9.4259 14.257C9.498 14.2576 9.56994 14.264 9.64103 14.2761L9.55205 14.3527L9.35156 14.2603L9.4259 14.257Z" fill="#403D3D"/>
</g>
<g style="mix-blend-mode:multiply">
<path d="M9.25047 16.531C9.52191 16.5266 9.78323 16.4272 9.98901 16.2502C10.1948 16.0731 10.332 15.8295 10.3769 15.5618C10.4217 15.294 10.3713 15.019 10.2345 14.7846C10.0976 14.5501 9.88298 14.371 9.62779 14.2784C9.86322 14.3138 10.0842 14.4137 10.2663 14.5671C10.4484 14.7204 10.5845 14.9213 10.6594 15.1472C10.7343 15.3732 10.7451 15.6155 10.6906 15.8473C10.6362 16.0791 10.5186 16.2912 10.3509 16.4602C10.1832 16.6292 9.97193 16.7484 9.74059 16.8046C9.50925 16.8609 9.26686 16.8519 9.0403 16.7787C8.81375 16.7056 8.6119 16.5711 8.45714 16.3902C8.30238 16.2093 8.20076 15.989 8.16357 15.7539C8.2421 15.9799 8.3888 16.1761 8.58346 16.3153C8.77813 16.4544 9.01117 16.5298 9.25047 16.531Z" fill="#E6E7E8"/>
</g>
<path d="M6.46148 10.058C6.44459 10.1403 6.42656 10.2169 6.40967 10.2833C6.80013 10.4549 7.22211 10.5432 7.64862 10.5424C7.8346 10.5423 8.02014 10.5246 8.20277 10.4894C8.21178 10.4264 8.22304 10.3475 8.23881 10.2518C7.64087 10.3784 7.0181 10.3105 6.46148 10.058Z" fill="#F2F2F2"/>
<path d="M9.14016 10.1707L10.1426 8.56794L9.95224 8.44855L8.94531 10.0581L9.14016 10.1707Z" fill="#F2F2F2"/>
<g style="mix-blend-mode:multiply" opacity="0.3">
<path d="M8.40237 8.6659C8.40355 8.64316 8.40127 8.62037 8.39562 8.59832C8.38661 8.57579 8.39449 8.6062 8.40237 8.6659Z" fill="#27AAE1"/>
<path d="M8.31543 9.65255C8.68158 9.91263 9.06716 10.1442 9.46878 10.3452C9.46878 10.3452 9.52848 10.2529 9.64674 10.0501L9.68729 9.89133C9.68729 9.89133 8.95744 9.51739 8.74118 9.40476C8.57787 9.31916 8.44271 8.85174 8.40329 8.66589C8.40667 8.90693 8.31543 9.6503 8.31543 9.65255Z" fill="#27AAE1"/>
</g>
</g>
<defs>
<clipPath id="clip0_1232_5271">
<rect width="26" height="17.0885" fill="white"/>
</clipPath>
</defs>
</svg>
