<svg width="24" height="14" viewBox="0 0 24 14" fill="none" xmlns="http://www.w3.org/2000/svg">
<g clip-path="url(#clip0_1232_5728)">
<path d="M17.4399 1.43726H6.56627C6.55103 1.43726 6.53593 1.44026 6.52185 1.44609C6.50777 1.45193 6.49497 1.46047 6.48419 1.47125C6.47341 1.48203 6.46486 1.49483 6.45903 1.50891C6.4532 1.52299 6.4502 1.53809 6.4502 1.55333V12.427C6.4502 12.4422 6.4532 12.4573 6.45903 12.4714C6.46486 12.4855 6.47341 12.4983 6.48419 12.5091C6.49497 12.5198 6.50777 12.5284 6.52185 12.5342C6.53593 12.5401 6.55103 12.5431 6.56627 12.5431H17.4399C17.4706 12.5427 17.4999 12.5303 17.5216 12.5087C17.5433 12.487 17.5556 12.4577 17.556 12.427V1.55333C17.556 1.52254 17.5438 1.49302 17.522 1.47125C17.5002 1.44949 17.4707 1.43726 17.4399 1.43726ZM14.1927 9.84041H9.81346C9.63788 9.84041 9.46948 9.77066 9.34532 9.6465C9.22117 9.52234 9.15141 9.35395 9.15141 9.17836V4.80052C9.15141 4.62494 9.22117 4.45654 9.34532 4.33238C9.46948 4.20823 9.63788 4.13847 9.81346 4.13847H14.1927C14.3683 4.13847 14.5367 4.20823 14.6609 4.33238C14.785 4.45654 14.8548 4.62494 14.8548 4.80052V9.17979C14.8544 9.35513 14.7845 9.52316 14.6604 9.64701C14.5362 9.77085 14.3681 9.84041 14.1927 9.84041Z" fill="#C6CCE7"/>
<path d="M18.1663 0H5.84247C5.62318 0 5.41287 0.0871134 5.2578 0.242177C5.10274 0.39724 5.01562 0.607552 5.01562 0.826845V13.1507C5.01562 13.2593 5.03701 13.3668 5.07857 13.4671C5.12012 13.5674 5.18102 13.6586 5.2578 13.7354C5.33458 13.8122 5.42573 13.8731 5.52605 13.9146C5.62637 13.9562 5.73389 13.9775 5.84247 13.9775H18.1663C18.2749 13.9775 18.3824 13.9562 18.4828 13.9146C18.5831 13.8731 18.6742 13.8122 18.751 13.7354C18.8278 13.6586 18.8887 13.5674 18.9302 13.4671C18.9718 13.3668 18.9932 13.2593 18.9932 13.1507V0.826845C18.9932 0.607552 18.9061 0.39724 18.751 0.242177C18.5959 0.0871134 18.3856 0 18.1663 0ZM17.841 12.427C17.8412 12.4798 17.831 12.5322 17.8109 12.581C17.7908 12.6299 17.7613 12.6743 17.724 12.7117C17.6867 12.7491 17.6424 12.7788 17.5937 12.799C17.5449 12.8193 17.4926 12.8297 17.4398 12.8297H6.56614C6.51326 12.8297 6.4609 12.8193 6.41204 12.7991C6.36319 12.7788 6.3188 12.7492 6.2814 12.7118C6.24401 12.6744 6.21435 12.63 6.19412 12.5811C6.17388 12.5323 6.16346 12.4799 6.16346 12.427V1.55338C6.16346 1.5005 6.17388 1.44814 6.19412 1.39928C6.21435 1.35043 6.24401 1.30604 6.2814 1.26865C6.3188 1.23125 6.36319 1.20159 6.41204 1.18136C6.4609 1.16112 6.51326 1.1507 6.56614 1.1507H17.4398C17.4926 1.1507 17.5449 1.16113 17.5937 1.18138C17.6424 1.20164 17.6867 1.23132 17.724 1.26873C17.7613 1.30614 17.7908 1.35054 17.8109 1.39939C17.831 1.44824 17.8412 1.50057 17.841 1.55338V12.427Z" fill="#C6CCE7"/>
<path d="M23.275 9.43352C23.1393 9.43427 23.0066 9.47352 22.8924 9.54673L20.9005 7.54768H16.4668V6.7538H20.9005L22.8967 4.75762C23.0472 4.8518 23.2273 4.88675 23.4021 4.85568C23.5769 4.82461 23.734 4.72975 23.8428 4.58947C23.9517 4.4492 24.0046 4.27351 23.9912 4.09646C23.9779 3.91941 23.8993 3.75361 23.7707 3.63121C23.6421 3.50881 23.4726 3.43852 23.2951 3.43396C23.1176 3.42941 22.9448 3.49091 22.8101 3.60656C22.6753 3.72221 22.5884 3.88376 22.566 4.05989C22.5436 4.23602 22.5874 4.41419 22.6889 4.55986L20.7816 6.46863H16.4668V5.65898H19.4446L20.3402 4.76335C20.4755 4.84574 20.6344 4.88095 20.7918 4.86347C20.9493 4.84598 21.0966 4.77679 21.2105 4.66672C21.3245 4.55665 21.3988 4.4119 21.4217 4.25513C21.4447 4.09836 21.415 3.9384 21.3374 3.80027C21.2597 3.66215 21.1385 3.55365 20.9927 3.49176C20.8468 3.42987 20.6845 3.41807 20.5313 3.4582C20.378 3.49834 20.2423 3.58815 20.1455 3.71359C20.0487 3.83903 19.9962 3.99301 19.9963 4.15146C19.9968 4.30063 20.0439 4.4459 20.131 4.56703L19.3256 5.37238H16.4668V4.61862H17.6863L19.9175 2.38886H21.8162C21.8517 2.56283 21.9506 2.71742 22.0936 2.82266C22.2366 2.92789 22.4136 2.97628 22.5902 2.95843C22.7669 2.94059 22.9306 2.85778 23.0497 2.72607C23.1688 2.59435 23.2347 2.42312 23.2347 2.24556C23.2347 2.068 23.1688 1.89676 23.0497 1.76505C22.9306 1.63333 22.7669 1.55053 22.5902 1.53268C22.4136 1.51484 22.2366 1.56322 22.0936 1.66846C21.9506 1.77369 21.8517 1.92828 21.8162 2.10226H19.7985L17.5702 4.33202H16.4668V4.26323C16.4653 3.8036 16.2816 3.3633 15.9561 3.03883C15.6305 2.71435 15.1896 2.53216 14.73 2.53216H9.27595C9.04787 2.53216 8.82202 2.57708 8.6113 2.66436C8.40059 2.75165 8.20912 2.87958 8.04784 3.04086C7.88657 3.20213 7.75864 3.3936 7.67135 3.60432C7.58407 3.81504 7.53915 4.04088 7.53915 4.26896V4.33775H6.43143L4.20167 2.10226H2.18543C2.14992 1.92828 2.05107 1.77369 1.90806 1.66846C1.76505 1.56322 1.58805 1.51484 1.41139 1.53268C1.23473 1.55053 1.07099 1.63333 0.951908 1.76505C0.832831 1.89676 0.766902 2.068 0.766902 2.24556C0.766902 2.42312 0.832831 2.59435 0.951908 2.72607C1.07099 2.85778 1.23473 2.94059 1.41139 2.95843C1.58805 2.97628 1.76505 2.92789 1.90806 2.82266C2.05107 2.71742 2.14992 2.56283 2.18543 2.38886H4.08273L6.31249 4.61718H7.53915V5.37095H4.67313L3.86922 4.56703C3.95628 4.4459 4.00337 4.30063 4.00392 4.15146C4.00394 3.99301 3.95145 3.83903 3.85465 3.71359C3.75785 3.58815 3.6222 3.49834 3.46892 3.4582C3.31564 3.41807 3.15338 3.42987 3.00753 3.49176C2.86167 3.55365 2.74044 3.66215 2.66281 3.80027C2.58518 3.9384 2.55552 4.09836 2.57847 4.25513C2.60142 4.4119 2.67569 4.55665 2.78966 4.66672C2.90363 4.77679 3.05087 4.84598 3.20835 4.86347C3.36583 4.88095 3.52466 4.84574 3.66 4.76335L4.55563 5.65898H7.53915V6.46863H3.22006L1.3113 4.5613C1.39571 4.44126 1.44123 4.2982 1.4417 4.15146C1.4417 4.00975 1.39968 3.87122 1.32095 3.75339C1.24222 3.63556 1.13032 3.54372 0.999391 3.48949C0.868467 3.43526 0.724403 3.42107 0.585415 3.44872C0.446427 3.47637 0.318759 3.54461 0.218554 3.64481C0.118349 3.74502 0.0501086 3.87269 0.0224621 4.01167C-0.00518431 4.15066 0.00900403 4.29473 0.0632345 4.42565C0.117465 4.55657 0.209302 4.66848 0.32713 4.74721C0.444959 4.82594 0.583487 4.86796 0.725198 4.86796C0.86074 4.86764 0.993412 4.82888 1.10781 4.75619L3.10542 6.75236H7.54774V7.54768H3.10542L1.10351 9.55389C0.989266 9.48069 0.856583 9.44143 0.720899 9.44069C0.579188 9.44069 0.440659 9.48271 0.32283 9.56144C0.205002 9.64017 0.113166 9.75207 0.0589356 9.88299C0.00470518 10.0139 -0.00948425 10.158 0.0181622 10.297C0.0458086 10.436 0.114049 10.5636 0.214254 10.6638C0.314459 10.764 0.442128 10.8323 0.581116 10.8599C0.720105 10.8876 0.864169 10.8734 0.995092 10.8192C1.12602 10.7649 1.23792 10.6731 1.31665 10.5553C1.39538 10.4374 1.4374 10.2989 1.4374 10.1572C1.43749 10.0104 1.39192 9.86713 1.307 9.74735L3.22006 7.83428H7.53915V8.64537H4.55563L3.66 9.541C3.50851 9.44831 3.328 9.41519 3.15348 9.44805C2.97895 9.48091 2.82285 9.57741 2.71545 9.71884C2.60804 9.86027 2.55698 10.0365 2.57218 10.2135C2.58737 10.3904 2.66774 10.5554 2.79768 10.6765C2.92763 10.7975 3.0979 10.866 3.27547 10.8686C3.45304 10.8712 3.62526 10.8078 3.75872 10.6907C3.89219 10.5735 3.97739 10.411 3.99781 10.2345C4.01822 10.0581 3.9724 9.88042 3.86922 9.73588L4.67456 8.93197H7.54058V9.6843H6.31393L4.08273 11.9155H2.18543C2.14992 11.7415 2.05107 11.5869 1.90806 11.4817C1.76505 11.3765 1.58805 11.3281 1.41139 11.3459C1.23473 11.3638 1.07099 11.4466 0.951908 11.5783C0.832831 11.71 0.766902 11.8812 0.766902 12.0588C0.766902 12.2363 0.832831 12.4076 0.951908 12.5393C1.07099 12.671 1.23473 12.7538 1.41139 12.7717C1.58805 12.7895 1.76505 12.7411 1.90806 12.6359C2.05107 12.5307 2.14992 12.3761 2.18543 12.2021H4.20167L6.43143 9.97233H7.55921C7.62041 10.3845 7.82777 10.761 8.14345 11.033C8.45914 11.305 8.8621 11.4545 9.27882 11.4541H14.7328C15.1496 11.4545 15.5525 11.305 15.8682 11.033C16.1839 10.761 16.3912 10.3845 16.4524 9.97233H17.5759L19.8043 12.2021H21.8219C21.8574 12.3761 21.9563 12.5307 22.0993 12.6359C22.2423 12.7411 22.4193 12.7895 22.596 12.7717C22.7726 12.7538 22.9364 12.671 23.0555 12.5393C23.1745 12.4076 23.2405 12.2363 23.2405 12.0588C23.2405 11.8812 23.1745 11.71 23.0555 11.5783C22.9364 11.4466 22.7726 11.3638 22.596 11.3459C22.4193 11.3281 22.2423 11.3765 22.0993 11.4817C21.9563 11.5869 21.8574 11.7415 21.8219 11.9155H19.9175L17.6863 9.68573H16.4653V8.9334H19.3242L20.1295 9.73732C20.0422 9.85884 19.9951 10.0047 19.9948 10.1543C19.9936 10.3155 20.0459 10.4725 20.1436 10.6006C20.2413 10.7287 20.3789 10.8208 20.5346 10.8622C20.6903 10.9036 20.8554 10.8921 21.0039 10.8294C21.1523 10.7668 21.2757 10.6565 21.3547 10.516C21.4337 10.3756 21.4637 10.2128 21.44 10.0534C21.4164 9.89403 21.3404 9.74702 21.224 9.63552C21.1077 9.52402 20.9576 9.45437 20.7973 9.43752C20.6371 9.42066 20.4758 9.45757 20.3388 9.54243L19.4431 8.6468H16.4668V7.83428H20.7816L22.6889 9.74305C22.6044 9.86296 22.5593 10.0062 22.5599 10.1529C22.5599 10.2946 22.6019 10.4331 22.6807 10.551C22.7594 10.6688 22.8713 10.7606 23.0022 10.8149C23.1332 10.8691 23.2772 10.8833 23.4162 10.8556C23.5552 10.828 23.6829 10.7597 23.7831 10.6595C23.8833 10.5593 23.9515 10.4317 23.9792 10.2927C24.0068 10.1537 23.9926 10.0096 23.9384 9.8787C23.8842 9.74777 23.7923 9.63587 23.6745 9.55714C23.5567 9.47841 23.4181 9.43639 23.2764 9.43639L23.275 9.43352ZM23.275 3.71726C23.36 3.71726 23.4431 3.74247 23.5138 3.78971C23.5845 3.83695 23.6396 3.90409 23.6722 3.98264C23.7047 4.0612 23.7132 4.14763 23.6966 4.23103C23.68 4.31442 23.6391 4.39102 23.579 4.45114C23.5189 4.51127 23.4423 4.55221 23.3589 4.5688C23.2755 4.58539 23.189 4.57687 23.1105 4.54434C23.0319 4.5118 22.9648 4.4567 22.9175 4.386C22.8703 4.3153 22.8451 4.23218 22.8451 4.14716C22.8451 4.03314 22.8904 3.92379 22.971 3.84317C23.0516 3.76255 23.161 3.71726 23.275 3.71726ZM20.7128 3.71726C20.7978 3.71726 20.8809 3.74247 20.9516 3.78971C21.0223 3.83695 21.0774 3.90409 21.11 3.98264C21.1425 4.0612 21.151 4.14763 21.1344 4.23103C21.1178 4.31442 21.0769 4.39102 21.0168 4.45114C20.9566 4.51127 20.88 4.55221 20.7966 4.5688C20.7133 4.58539 20.6268 4.57687 20.5483 4.54434C20.4697 4.5118 20.4026 4.4567 20.3553 4.386C20.3081 4.3153 20.2829 4.23218 20.2829 4.14716C20.2829 4.09034 20.2941 4.03408 20.316 3.98164C20.3379 3.9292 20.3699 3.88162 20.4103 3.84164C20.4507 3.80166 20.4986 3.77009 20.5512 3.74874C20.6039 3.72739 20.6603 3.71669 20.7171 3.71726H20.7128ZM22.5212 1.81566C22.6063 1.81566 22.6894 1.84087 22.7601 1.88811C22.8308 1.93535 22.8859 2.00249 22.9184 2.08104C22.9509 2.1596 22.9595 2.24603 22.9429 2.32943C22.9263 2.41282 22.8853 2.48942 22.8252 2.54954C22.7651 2.60967 22.6885 2.65061 22.6051 2.6672C22.5217 2.68379 22.4353 2.67527 22.3567 2.64274C22.2782 2.6102 22.211 2.5551 22.1638 2.4844C22.1165 2.4137 22.0913 2.33058 22.0913 2.24556C22.0913 2.13154 22.1366 2.02219 22.2172 1.94157C22.2979 1.86095 22.4072 1.81566 22.5212 1.81566ZM1.47896 2.67546C1.39393 2.67546 1.31082 2.65025 1.24012 2.60301C1.16942 2.55577 1.11432 2.48863 1.08178 2.41007C1.04924 2.33152 1.04073 2.24508 1.05732 2.16169C1.07391 2.07829 1.11485 2.00169 1.17497 1.94157C1.2351 1.88145 1.3117 1.8405 1.39509 1.82392C1.47848 1.80733 1.56492 1.81584 1.64348 1.84838C1.72203 1.88092 1.78917 1.93602 1.83641 2.00672C1.88365 2.07741 1.90886 2.16053 1.90886 2.24556C1.90886 2.35957 1.86357 2.46892 1.78295 2.54954C1.70232 2.63017 1.59298 2.67546 1.47896 2.67546ZM3.28455 4.58422C3.19952 4.58422 3.1164 4.55901 3.04571 4.51177C2.97501 4.46453 2.91991 4.39739 2.88737 4.31884C2.85483 4.24028 2.84632 4.15385 2.86291 4.07045C2.87949 3.98706 2.92044 3.91046 2.98056 3.85034C3.04068 3.79021 3.11729 3.74927 3.20068 3.73268C3.28407 3.71609 3.37051 3.72461 3.44906 3.75715C3.52762 3.78968 3.59476 3.84479 3.642 3.91548C3.68924 3.98618 3.71445 4.0693 3.71445 4.15432C3.71445 4.26834 3.66916 4.37769 3.58854 4.45831C3.50791 4.53893 3.39857 4.58422 3.28455 4.58422ZM0.720899 4.58422C0.635872 4.58422 0.552755 4.55901 0.482058 4.51177C0.411361 4.46453 0.35626 4.39739 0.323721 4.31884C0.291183 4.24028 0.282669 4.15385 0.299257 4.07045C0.315845 3.98706 0.356789 3.91046 0.416912 3.85034C0.477035 3.79021 0.553636 3.74927 0.637029 3.73268C0.720422 3.71609 0.806861 3.72461 0.885415 3.75715C0.963969 3.78968 1.03111 3.84479 1.07835 3.91548C1.12559 3.98618 1.1508 4.0693 1.1508 4.15432C1.1508 4.26834 1.10551 4.37769 1.02489 4.45831C0.944264 4.53893 0.834916 4.58422 0.720899 4.58422ZM0.720899 10.5885C0.635872 10.5885 0.552755 10.5633 0.482058 10.5161C0.411361 10.4688 0.35626 10.4017 0.323721 10.3231C0.291183 10.2446 0.282669 10.1581 0.299257 10.0748C0.315845 9.99136 0.356789 9.91476 0.416912 9.85464C0.477035 9.79451 0.553636 9.75357 0.637029 9.73698C0.720422 9.72039 0.806861 9.72891 0.885415 9.76144C0.963969 9.79398 1.03111 9.84908 1.07835 9.91978C1.12559 9.99048 1.1508 10.0736 1.1508 10.1586C1.1508 10.2726 1.10551 10.382 1.02489 10.4626C0.944264 10.5432 0.834916 10.5885 0.720899 10.5885ZM3.28455 10.5885C3.19952 10.5885 3.1164 10.5633 3.04571 10.5161C2.97501 10.4688 2.91991 10.4017 2.88737 10.3231C2.85483 10.2446 2.84632 10.1581 2.86291 10.0748C2.87949 9.99136 2.92044 9.91476 2.98056 9.85464C3.04068 9.79451 3.11729 9.75357 3.20068 9.73698C3.28407 9.72039 3.37051 9.72891 3.44906 9.76144C3.52762 9.79398 3.59476 9.84908 3.642 9.91978C3.68924 9.99048 3.71445 10.0736 3.71445 10.1586C3.71445 10.2726 3.66916 10.382 3.58854 10.4626C3.50791 10.5432 3.39857 10.5885 3.28455 10.5885ZM1.47896 12.493C1.39393 12.493 1.31082 12.4678 1.24012 12.4205C1.16942 12.3733 1.11432 12.3062 1.08178 12.2276C1.04924 12.149 1.04073 12.0626 1.05732 11.9792C1.07391 11.8958 1.11485 11.8192 1.17497 11.7591C1.2351 11.699 1.3117 11.658 1.39509 11.6414C1.47848 11.6249 1.56492 11.6334 1.64348 11.6659C1.72203 11.6984 1.78917 11.7536 1.83641 11.8242C1.88365 11.8949 1.90886 11.9781 1.90886 12.0631C1.90886 12.1771 1.86357 12.2865 1.78295 12.3671C1.70232 12.4477 1.59298 12.493 1.47896 12.493ZM14.8546 9.17988C14.8546 9.35546 14.7849 9.52386 14.6607 9.64802C14.5366 9.77218 14.3682 9.84193 14.1926 9.84193H9.81333C9.63774 9.84193 9.46935 9.77218 9.34519 9.64802C9.22103 9.52386 9.15128 9.35546 9.15128 9.17988V4.80061C9.15128 4.62502 9.22103 4.45663 9.34519 4.33247C9.46935 4.20831 9.63774 4.13856 9.81333 4.13856H14.1926C14.3682 4.13856 14.5366 4.20831 14.6607 4.33247C14.7849 4.45663 14.8546 4.62502 14.8546 4.80061V9.17988ZM22.5212 11.6246C22.6063 11.6246 22.6894 11.6498 22.7601 11.697C22.8308 11.7443 22.8859 11.8114 22.9184 11.89C22.9509 11.9685 22.9595 12.055 22.9429 12.1384C22.9263 12.2218 22.8853 12.2984 22.8252 12.3585C22.7651 12.4186 22.6885 12.4595 22.6051 12.4761C22.5217 12.4927 22.4353 12.4842 22.3567 12.4517C22.2782 12.4191 22.211 12.364 22.1638 12.2933C22.1165 12.2226 22.0913 12.1395 22.0913 12.0545C22.0913 11.9405 22.1366 11.8311 22.2172 11.7505C22.2979 11.6699 22.4072 11.6246 22.5212 11.6246ZM20.7171 9.72012C20.8021 9.72012 20.8852 9.74533 20.9559 9.79257C21.0266 9.83981 21.0817 9.90695 21.1143 9.98551C21.1468 10.0641 21.1553 10.1505 21.1387 10.2339C21.1221 10.3173 21.0812 10.3939 21.0211 10.454C20.9609 10.5141 20.8843 10.5551 20.8009 10.5717C20.7176 10.5883 20.6311 10.5797 20.5526 10.5472C20.474 10.5147 20.4069 10.4596 20.3596 10.3889C20.3124 10.3182 20.2872 10.2351 20.2872 10.15C20.2872 10.036 20.3325 9.92666 20.4131 9.84604C20.4937 9.76542 20.6031 9.72012 20.7171 9.72012ZM23.275 10.5885C23.19 10.5885 23.1068 10.5633 23.0362 10.5161C22.9655 10.4688 22.9104 10.4017 22.8778 10.3231C22.8453 10.2446 22.8368 10.1581 22.8534 10.0748C22.8699 9.99136 22.9109 9.91476 22.971 9.85464C23.0311 9.79451 23.1077 9.75357 23.1911 9.73698C23.2745 9.72039 23.361 9.72891 23.4395 9.76144C23.5181 9.79398 23.5852 9.84908 23.6324 9.91978C23.6797 9.99048 23.7049 10.0736 23.7049 10.1586C23.7049 10.2726 23.6596 10.382 23.579 10.4626C23.4984 10.5432 23.389 10.5885 23.275 10.5885Z" fill="#4031A2"/>
<path d="M12.0027 7.57205C12.324 7.57205 12.5845 7.31157 12.5845 6.99025C12.5845 6.66893 12.324 6.40845 12.0027 6.40845C11.6814 6.40845 11.4209 6.66893 11.4209 6.99025C11.4209 7.31157 11.6814 7.57205 12.0027 7.57205Z" fill="#4031A2"/>
<path d="M10.6646 5.65173V8.32859H13.3414V5.65173H10.6646ZM12.003 7.85856C11.8312 7.85856 11.6633 7.80763 11.5205 7.71221C11.3777 7.61679 11.2664 7.48117 11.2007 7.32249C11.135 7.16381 11.1178 6.9892 11.1513 6.82075C11.1848 6.65229 11.2675 6.49756 11.3889 6.37611C11.5104 6.25466 11.6651 6.17195 11.8336 6.13845C12.002 6.10494 12.1766 6.12214 12.3353 6.18786C12.494 6.25359 12.6296 6.3649 12.725 6.5077C12.8205 6.65051 12.8714 6.81841 12.8714 6.99016C12.871 7.22036 12.7794 7.44102 12.6166 7.6038C12.4538 7.76657 12.2332 7.85819 12.003 7.85856Z" fill="#4031A2"/>
</g>
<defs>
<clipPath id="clip0_1232_5728">
<rect width="24" height="13.9804" fill="white"/>
</clipPath>
</defs>
</svg>
