<svg width="22" height="20" viewBox="0 0 22 20" fill="none" xmlns="http://www.w3.org/2000/svg">
<g clip-path="url(#clip0_1232_5348)">
<path d="M8.55036 18.9885C8.43872 19.1522 8.28598 19.2419 8.2079 19.1885L7.34971 18.607C7.27163 18.5535 7.29902 18.3782 7.40998 18.2145C7.52162 18.0508 7.67504 17.9611 7.75243 18.0145L8.60857 18.596C8.68665 18.6494 8.65925 18.8248 8.5483 18.9885H8.55036Z" fill="#2B242A"/>
<path d="M7.36944 18.0515C7.36944 18.0515 7.28589 18.3816 7.86327 18.7741C8.44065 19.1665 8.7194 18.9679 8.7194 18.9679C8.7194 18.9679 11.17 15.0482 11.5077 14.5523C11.8453 14.0564 10.9152 13.2742 10.5084 13.8728C10.1016 14.4715 7.36944 18.0515 7.36944 18.0515Z" fill="#95C11F"/>
<g style="mix-blend-mode:soft-light">
<path d="M8.60992 18.8761C9.03456 18.1988 11.0181 15.031 11.3187 14.5886C11.321 14.5853 11.3231 14.5819 11.3249 14.5783C10.7578 14.5454 8.51403 18.796 8.60992 18.8761Z" fill="white"/>
</g>
<g style="mix-blend-mode:multiply">
<path d="M8.60023 18.7556C8.4201 18.5604 8.28996 18.3296 8.28517 18.0577C8.279 17.7104 8.4016 17.3782 8.53859 17.0645C8.86323 16.3228 9.25363 15.631 9.88786 15.1105C10.3557 14.7269 10.9296 14.4256 11.5467 14.4749C11.7522 13.9804 10.8926 13.3044 10.5063 13.8729C10.0995 14.4715 7.36944 18.0508 7.36944 18.0508C7.36944 18.0508 7.28589 18.3809 7.86327 18.7734C8.44065 19.1658 8.7194 18.9679 8.7194 18.9679L8.75982 18.8994C8.70316 18.8555 8.64982 18.8074 8.60023 18.7556Z" fill="#BBCBC8"/>
</g>
<g style="mix-blend-mode:soft-light">
<path d="M8.90639 18.6659L7.56396 18.5193C7.61856 18.5799 7.67837 18.6356 7.74273 18.6857L8.82009 18.8028C8.84543 18.7631 8.87351 18.7172 8.90639 18.6659Z" fill="white"/>
<path d="M9.26192 18.0981L7.48115 17.9042L7.37842 18.0412L9.17562 18.2371L9.26192 18.0981Z" fill="white"/>
<path d="M9.73449 17.344L8.04756 17.1604C8.01263 17.207 7.97907 17.2522 7.94482 17.2974L9.64888 17.483L9.73449 17.344Z" fill="white"/>
<path d="M10.2085 16.5906L8.61133 16.4166L8.50928 16.5536L10.1222 16.7296L10.2085 16.5906Z" fill="white"/>
<path d="M10.6836 15.8372L9.17676 15.6728C9.14251 15.7173 9.10827 15.7625 9.07471 15.8098L10.6 15.9762L10.6836 15.8372Z" fill="white"/>
<path d="M11.161 15.0838L9.73222 14.9283L9.63086 15.0653L11.074 15.2221C11.1041 15.1735 11.1336 15.1276 11.161 15.0838Z" fill="white"/>
<path d="M11.285 14.292L10.2844 14.1831C10.2535 14.2256 10.2207 14.2708 10.1851 14.3201L11.5412 14.468L11.285 14.292Z" fill="white"/>
</g>
<path d="M11.9255 13.8304C12.3016 13.277 16.5727 11.2387 17.7473 10.7086C17.3713 10.512 14.5768 10.9065 14.5768 10.9065C14.5768 10.9065 15.2706 11.1428 14.5837 11.5229C13.6419 12.0448 12.5289 12.6188 12.307 12.7339C11.9536 12.9154 11.8276 12.7469 11.8653 12.4373C11.8879 12.2489 12.0132 10.9908 12.1748 9.88463C12.255 9.32985 12.7646 9.67916 12.7646 9.67916C12.7646 9.67916 12.0166 5.869 11.7701 6.64158C11.7865 8.13948 11.4105 12.5969 11.0016 13.1982C10.5927 13.7996 11.5488 14.3838 11.9255 13.8304Z" fill="#352E35"/>
<path d="M13.3905 3.1725C15.0309 0.760249 17.9246 -0.131504 19.854 1.18078C21.6834 2.42458 21.9889 5.20258 20.6184 7.54292C20.7615 7.61894 20.915 7.68606 21.0492 7.77578C22.58 5.16354 22.2389 2.06363 20.1972 0.675321C18.0445 -0.788332 14.8152 0.206157 12.9864 2.89717C12.7713 3.21404 12.5812 3.54724 12.418 3.89371C12.5632 3.97037 12.7125 4.03896 12.8652 4.09919C13.015 3.77658 13.1906 3.46667 13.3905 3.1725Z" fill="#95C11F"/>
<path d="M21.1381 2.78552L21.0655 2.89305L20.6367 2.59991L20.8717 2.25403C20.8552 2.22732 20.8381 2.19992 20.821 2.17389L20.5648 2.55128L20.134 2.25814L20.4271 1.82733L20.7217 2.02732C20.6669 1.9513 20.6086 1.87664 20.5477 1.80473L20.4792 1.75541L20.4922 1.73624C20.4723 1.71432 20.4525 1.69172 20.4319 1.66775L20.4073 1.70405L19.9765 1.4109L20.045 1.31228C20.0224 1.29447 19.9991 1.27735 19.9765 1.26022L19.908 1.36228L19.4772 1.06913L19.5368 0.982151L19.4587 0.942426L19.4053 1.02051L19.0197 0.765034C18.9299 0.734898 18.8395 0.708871 18.7457 0.685584L18.8429 0.754075L18.5498 1.18488L18.1197 0.891742L18.3128 0.60682L18.2156 0.595861L18.0478 0.843114L17.6608 0.580109C17.6019 0.580109 17.543 0.583533 17.4841 0.590382L17.2033 1.00133L16.7725 0.708187C16.73 0.71846 16.6869 0.729419 16.6444 0.741747L16.3567 1.16434L16.0478 0.94996L15.9533 0.99037L16.3136 1.23557L16.0204 1.66638L15.5896 1.37323L15.8033 1.05955C15.7499 1.08489 15.6972 1.11091 15.6444 1.13831L15.5177 1.32461L15.4232 1.26022C15.3951 1.27598 15.3677 1.29242 15.3403 1.30885L15.4691 1.39652L15.1759 1.82733L14.8732 1.62186L14.7999 1.67733L15.1273 1.89993L14.8342 2.33074L14.404 2.03691L14.4582 1.95815C14.3582 2.0465 14.2609 2.13828 14.165 2.23211L13.991 2.48895L13.9493 2.46087C13.9294 2.4821 13.9102 2.50402 13.891 2.52594L13.9417 2.56087L13.6506 2.99373L13.5637 2.93414L13.5123 3.00264L13.6013 3.06291L13.3082 3.49577L13.2192 3.43618L13.1739 3.51084L13.2561 3.56632L12.9657 3.9985L12.9267 3.97178L12.8883 4.05123L12.9164 4.07041L12.8041 4.23547C12.7479 4.36424 12.6966 4.49437 12.65 4.62382L13.0774 4.9149L12.7849 5.34571L12.4863 5.14435L12.4637 5.23407L12.7335 5.41763L12.4411 5.84844L12.3548 5.79022C12.3507 5.82173 12.3459 5.85392 12.3425 5.88611L12.3918 5.92035L12.3274 6.01487C12.3212 6.07446 12.3164 6.13268 12.3123 6.19158L12.4637 5.96898L12.8945 6.26144L12.602 6.69225L12.2993 6.48677C12.2993 6.52239 12.2993 6.55527 12.2993 6.59157L12.5527 6.76416L12.3274 7.09634C12.3342 7.16483 12.3431 7.23333 12.3534 7.30182L12.7431 7.56688L12.4945 7.93193C12.5055 7.96755 12.5164 8.00042 12.5281 8.03741L12.8144 7.61619L13.2459 7.90865L12.9527 8.33946L12.5336 8.05453C12.5493 8.10111 12.5664 8.14768 12.5836 8.19151L12.9041 8.40932L12.7671 8.60863C12.7822 8.63739 12.7972 8.66616 12.813 8.69492L12.974 8.45795L13.4048 8.75109L13.1219 9.16751C13.2048 9.27519 13.294 9.37788 13.389 9.47504L13.5657 9.59558L13.5452 9.62572L13.6137 9.68325L13.6404 9.64421L14.0712 9.93735L14.0342 9.99146L14.1088 10.0367L14.1431 9.98598L14.5177 10.2408C14.6255 10.286 14.7354 10.3257 14.8472 10.3599L14.6944 10.2558L14.9876 9.82503L15.4184 10.1182L15.1944 10.4476L15.2876 10.4647L15.4931 10.1668L15.9232 10.4599L15.8834 10.5188H15.9882L15.9951 10.5079L16.0102 10.5182C16.0595 10.5182 16.1088 10.5182 16.1581 10.5134L16.0444 10.436L16.3369 10.0052L16.7677 10.2983L16.6595 10.4572C16.6999 10.4503 16.7396 10.4435 16.7793 10.4353L16.8396 10.3469L16.9245 10.4045C16.9622 10.3962 16.9999 10.3867 17.0382 10.3771L16.8882 10.275L17.1519 9.88735L17.5827 10.1805L17.5628 10.2099C17.6108 10.1915 17.6587 10.173 17.7067 10.1531L17.9964 9.7264L18.2437 9.89489L18.3286 9.84763L18.045 9.65517L18.3382 9.22436L18.7258 9.48805L18.5888 9.68804C18.6573 9.64627 18.7183 9.60312 18.7827 9.55791L18.7971 9.53668L18.8053 9.54216L18.8799 9.48805L18.8457 9.46476L19.1388 9.03395L19.3046 9.14628C19.3265 9.12642 19.3491 9.10724 19.3731 9.08669L19.1895 8.96204L19.4827 8.53123L19.7511 8.7141C19.771 8.69287 19.7915 8.67164 19.8107 8.64972L19.5313 8.45931L19.8244 8.02851L20.147 8.24836C20.1648 8.22508 20.1819 8.20179 20.1998 8.17987L19.8676 7.95659L20.1607 7.52578L20.4908 7.74975L20.5367 7.67646L20.2093 7.45387L20.4997 7.02511L20.7915 7.22305L20.8306 7.14497L20.5484 6.9532L20.8415 6.52239L21.047 6.65937C21.0579 6.63197 21.0682 6.60389 21.0792 6.5765L20.8929 6.44979L21.186 6.01898L21.2545 6.0635C21.2627 6.03405 21.2703 6.0046 21.2785 5.97515L21.2374 5.94706L21.3141 5.83474C21.3326 5.75871 21.349 5.68269 21.3641 5.60666L21.1655 5.89844L20.7737 5.63543L21.0669 5.20462L21.3929 5.42653C21.3983 5.39503 21.4031 5.36352 21.4079 5.33202L21.1162 5.13271L21.4093 4.7019L21.4648 4.73957C21.4648 4.70532 21.4648 4.67108 21.4648 4.63683L21.4552 4.62998L21.4655 4.6156C21.4655 4.56355 21.4655 4.51218 21.4655 4.46081L21.3833 4.58135L20.9525 4.28821L21.2456 3.8574L21.4367 3.98754C21.4326 3.94918 21.4278 3.91083 21.4223 3.87316L21.2942 3.78617L21.3874 3.64919C21.3799 3.60878 21.3716 3.56906 21.3634 3.52933L21.2223 3.7348L20.7915 3.44235L21.0847 3.01154L21.2607 3.13071C21.2465 3.08505 21.2315 3.03939 21.2155 2.99373L21.1333 2.93825L21.1737 2.87935C21.1641 2.8499 21.1518 2.81976 21.1381 2.78552ZM13.1246 4.84025L12.6931 4.54711L12.9863 4.12109L13.4171 4.41424L13.1246 4.84025ZM13.4671 4.33753L13.0342 4.04712L13.3267 3.61632L13.7575 3.90946L13.4671 4.33753ZM13.8095 3.8348L13.378 3.54235L13.6712 3.11154L14.102 3.40399L13.8095 3.8348ZM14.152 3.33276L13.7191 3.04236L14.0123 2.61155L14.4431 2.90469L14.152 3.33276ZM14.4945 2.83004L14.0616 2.53964L14.3547 2.10883L14.7855 2.40197L14.4945 2.83004ZM12.9466 6.1861L12.5157 5.89296L12.8089 5.46215L13.2397 5.75529L12.9466 6.1861ZM13.289 5.68337L12.8582 5.39023L13.1513 4.95942L13.5822 5.25257L13.289 5.68337ZM13.6315 5.18065L13.2007 4.88751L13.4938 4.4567L13.9246 4.74984L13.6315 5.18065ZM13.9739 4.67793L13.5431 4.38478L13.8363 3.95398L14.2671 4.24712L13.9739 4.67793ZM14.3164 4.1752L13.8856 3.88275L14.1787 3.45194L14.6095 3.74439L14.3164 4.1752ZM14.6588 3.67316L14.228 3.38002L14.5212 2.94921L14.952 3.24235L14.6588 3.67316ZM15.0013 3.17044L14.5705 2.8773L14.8636 2.44649L15.2944 2.73963L15.0013 3.17044ZM15.3437 2.66771L14.9129 2.37457L15.2061 1.94376L15.6369 2.23691L15.3437 2.66771ZM15.6862 2.16499L15.2554 1.87185L15.5485 1.44104L15.9793 1.73418L15.6862 2.16499ZM12.8007 7.48948L12.361 7.20319L12.6246 6.81553L13.0555 7.10799L12.8007 7.48948ZM13.113 7.02991L12.6822 6.73745L12.9657 6.31281L13.3965 6.60526L13.113 7.02991ZM13.4554 6.52787L13.0246 6.23473L13.3178 5.80392L13.7486 6.09706L13.4554 6.52787ZM13.7979 6.02514L13.3671 5.732L13.6602 5.30119L14.091 5.59434L13.7979 6.02514ZM14.1404 5.52242L13.7095 5.22928L13.9931 4.806L14.4239 5.09915L14.1404 5.52242ZM14.4828 5.0197L14.052 4.72655L14.3451 4.29575L14.7759 4.58889L14.4828 5.0197ZM14.8253 4.51697L14.3945 4.22452L14.6876 3.79371L15.1184 4.08616L14.8253 4.51697ZM15.1677 4.01425L14.7369 3.72179L15.0301 3.29098L15.4609 3.58344L15.1677 4.01425ZM15.5102 3.51221L15.0794 3.21907L15.3725 2.78826L15.8033 3.0814L15.5102 3.51221ZM15.8526 3.00948L15.4218 2.71634L15.715 2.28553L16.1458 2.57868L15.8526 3.00948ZM16.1951 2.50676L15.7643 2.21362L16.0574 1.78281L16.4882 2.07595L16.1951 2.50676ZM16.5375 2.00404L16.1067 1.71158L16.3999 1.28009L16.8307 1.57323L16.5375 2.00404ZM16.88 1.50131L16.4492 1.20886L16.7423 0.778048L17.1731 1.0705L16.88 1.50131ZM13.2945 7.83536L12.8637 7.54565L13.1274 7.1573L13.5582 7.45044L13.2945 7.83536ZM13.6068 7.37579L13.176 7.08333L13.4691 6.65252L13.9 6.94498L13.6068 7.37579ZM13.9493 6.87375L13.5185 6.58061L13.8116 6.1498L14.2424 6.44294L13.9493 6.87375ZM14.2917 6.37102L13.8609 6.07788L14.1541 5.64707L14.5849 5.94022L14.2917 6.37102ZM14.6342 5.8683L14.1986 5.57516L14.4917 5.14435L14.9225 5.43749L14.6342 5.8683ZM14.9766 5.36558L14.541 5.07243L14.8342 4.64163L15.265 4.93477L14.9766 5.36558ZM15.3191 4.86285L14.8835 4.57039L15.1766 4.13959L15.6074 4.43204L15.3191 4.86285ZM15.6615 4.36081L15.2259 4.06767L15.5191 3.63686L15.9499 3.93L15.6615 4.36081ZM16.004 3.85809L15.5684 3.56495L15.8615 3.13414L16.2923 3.42728L16.004 3.85809ZM16.3464 3.35536L15.9108 3.06222L16.204 2.63141L16.6348 2.92456L16.3464 3.35536ZM16.6889 2.85264L16.2533 2.5595L16.5464 2.12869L16.9773 2.42183L16.6889 2.85264ZM17.0314 2.34992L16.5958 2.05677L16.8889 1.62597L17.3197 1.91911L17.0314 2.34992ZM17.3738 1.84719L16.9382 1.55474L17.2307 1.12393L17.6622 1.41638L17.3738 1.84719ZM17.7163 1.34515L17.2807 1.05201L17.5738 0.621203L18.0046 0.914345L17.7163 1.34515ZM13.4554 8.67986L13.0246 8.3874L13.3171 7.95659L13.7479 8.24905L13.4554 8.67986ZM13.7979 8.17713L13.3664 7.8881L13.6301 7.49976L14.0609 7.7929L13.7979 8.17713ZM14.1102 7.71756L13.6794 7.4251L13.9726 6.99429L14.4034 7.28675L14.1102 7.71756ZM14.4527 7.21483L14.0219 6.92238L14.315 6.49157L14.7451 6.78471L14.4527 7.21483ZM14.7951 6.71279L14.3643 6.41965L14.6575 5.98884L15.0876 6.28199L14.7951 6.71279ZM15.1376 6.21007L14.7068 5.91693L14.9992 5.48612L15.43 5.77926L15.1376 6.21007ZM15.48 5.70735L15.0492 5.41421L15.3417 4.9834L15.7732 5.27654L15.48 5.70735ZM15.8225 5.20462L15.3917 4.91217L15.6841 4.48136L16.1149 4.77381L15.8225 5.20462ZM16.1649 4.7019L15.7341 4.40944L16.0266 3.97863L16.4574 4.27109L16.1649 4.7019ZM16.5074 4.19986L16.0766 3.90672L16.3691 3.47591L16.7999 3.76905L16.5074 4.19986ZM16.8499 3.69713L16.419 3.40399L16.7115 2.97318L17.1423 3.26633L16.8499 3.69713ZM17.1923 3.19441L16.7615 2.90127L17.054 2.47046L17.4848 2.7636L17.1923 3.19441ZM17.5348 2.69169L17.104 2.39854L17.3964 1.96774L17.8272 2.26088L17.5348 2.69169ZM17.8772 2.18896L17.4464 1.89651L17.7389 1.4657L18.1697 1.75815L17.8772 2.18896ZM18.2197 1.68692L17.7896 1.39378L18.082 0.962973L18.5128 1.25543L18.2197 1.68692ZM13.6157 9.52435L13.1856 9.23121L13.478 8.8004L13.9089 9.09354L13.6157 9.52435ZM13.9582 9.02163L13.5274 8.72917L13.8205 8.29768L14.2513 8.59082L13.9582 9.02163ZM14.3006 8.5189L13.8705 8.22645L14.1335 7.8381L14.5643 8.13124L14.3006 8.5189ZM14.6095 8.05933L14.1787 7.76687L14.4712 7.33606L14.902 7.62852L14.6095 8.05933ZM14.952 7.55729L14.5212 7.26415L14.815 6.83334L15.2458 7.12648L14.952 7.55729ZM15.2944 7.05456L14.8636 6.76142L15.1561 6.33061L15.5869 6.62376L15.2944 7.05456ZM15.6369 6.55184L15.2061 6.2587L15.4985 5.82789L15.9293 6.12103L15.6369 6.55184ZM15.9793 6.04912L15.5485 5.75597L15.841 5.32517L16.2718 5.61831L15.9793 6.04912ZM16.3218 5.54639L15.891 5.25394L16.1834 4.82313L16.6143 5.11558L16.3218 5.54639ZM16.6642 5.04367L16.2341 4.75121L16.5266 4.3204L16.9574 4.61286L16.6642 5.04367ZM17.0067 4.54163L16.5766 4.24849L16.869 3.81768L17.2998 4.11082L17.0067 4.54163ZM17.3492 4.03891L16.9184 3.74576L17.2115 3.31495L17.6423 3.6081L17.3492 4.03891ZM17.6916 3.53618L17.2608 3.24304L17.5539 2.81223L17.9848 3.10537L17.6916 3.53618ZM18.0341 3.03346L17.6033 2.74031L17.8964 2.30951L18.3272 2.60265L18.0341 3.03346ZM18.3765 2.53073L17.9457 2.23828L18.2389 1.80747L18.6697 2.09992L18.3765 2.53073ZM18.719 2.02801L18.2882 1.73555L18.5813 1.30474L19.0121 1.5972L18.719 2.02801ZM19.0614 1.52597L18.6306 1.23283L18.9238 0.802019L19.3546 1.09516L19.0614 1.52597ZM14.1184 9.86612L13.6876 9.57298L13.9808 9.14217L14.4116 9.43531L14.1184 9.86612ZM14.4609 9.3634L14.0301 9.07094L14.3232 8.63945L14.754 8.93259L14.4609 9.3634ZM14.8033 8.86067L14.3725 8.56822L14.6362 8.17987L15.067 8.47301L14.8033 8.86067ZM15.1164 8.4011L14.6855 8.10864L14.978 7.67783L15.4088 7.97029L15.1164 8.4011ZM15.4588 7.89906L15.0287 7.60592L15.3211 7.17511L15.7519 7.46825L15.4588 7.89906ZM15.8013 7.39634L15.3705 7.10319L15.6636 6.67238L16.0944 6.96553L15.8013 7.39634ZM16.1437 6.89361L15.7122 6.60047L16.0054 6.16966L16.4362 6.4628L16.1437 6.89361ZM16.4862 6.39089L16.0478 6.09774L16.341 5.66694L16.7718 5.96008L16.4862 6.39089ZM16.8286 5.88816L16.3903 5.59502L16.6834 5.16421L17.1142 5.45735L16.8286 5.88816ZM17.1711 5.38544L16.7327 5.09298L17.0259 4.66217L17.4567 4.95463L17.1711 5.38544ZM17.5135 4.8834L17.0752 4.59026L17.3683 4.15945L17.7991 4.45259L17.5135 4.8834ZM17.856 4.38067L17.4176 4.08753L17.7108 3.65673L18.1416 3.94987L17.856 4.38067ZM18.1984 3.87795L17.7601 3.58481L18.0532 3.154L18.4841 3.44714L18.1984 3.87795ZM18.5409 3.37523L18.1026 3.08209L18.3957 2.65128L18.8265 2.94442L18.5409 3.37523ZM18.8834 2.8725L18.445 2.58005L18.7382 2.14924L19.169 2.44169L18.8834 2.8725ZM19.2258 2.37046L18.7875 2.07732L19.0806 1.64651L19.5114 1.93897L19.2258 2.37046ZM19.5683 1.86774L19.1299 1.5746L19.4231 1.14379L19.8539 1.43693L19.5683 1.86774ZM14.6212 10.2079L14.1904 9.91475L14.4835 9.48394L14.9143 9.77708L14.6212 10.2079ZM14.9636 9.70517L14.5328 9.41203L14.8259 8.98122L15.2568 9.27436L14.9636 9.70517ZM15.3061 9.20244L14.8753 8.90999L15.139 8.52164L15.5698 8.81478L15.3061 9.20244ZM15.6184 8.74287L15.1876 8.45041L15.4807 8.0196L15.9115 8.31206L15.6184 8.74287ZM15.9608 8.24014L15.53 7.94769L15.8232 7.51688L16.254 7.80934L15.9608 8.24014ZM16.3033 7.7381L15.8725 7.44496L16.1656 7.01416L16.5964 7.3073L16.3033 7.7381ZM16.6458 7.23538L16.2149 6.94224L16.5081 6.51143L16.9389 6.80457L16.6458 7.23538ZM16.9882 6.73266L16.5574 6.43952L16.8505 6.00871L17.2814 6.30185L16.9882 6.73266ZM17.3307 6.22993L16.8999 5.93748L17.193 5.50667L17.6238 5.79912L17.3307 6.22993ZM17.6731 5.72721L17.2423 5.43475L17.5355 5.00394L17.9663 5.2964L17.6731 5.72721ZM18.0156 5.22517L17.5848 4.93203L17.8779 4.50122L18.3087 4.79368L18.0156 5.22517ZM18.358 4.72245L17.9272 4.4293L18.2204 3.9985L18.6512 4.29164L18.358 4.72245ZM18.7005 4.21972L18.2697 3.92658L18.5628 3.49577L18.9936 3.78891L18.7005 4.21972ZM19.0429 3.717L18.6121 3.42386L18.9053 2.99305L19.3361 3.28619L19.0429 3.717ZM19.3854 3.21427L18.9546 2.92182L19.2477 2.49101L19.6785 2.78346L19.3854 3.21427ZM19.7278 2.71155L19.297 2.41909L19.5902 1.98828L20.021 2.28074L19.7278 2.71155ZM20.0703 2.20951L19.6395 1.91637L19.9326 1.48556L20.3634 1.7787L20.0703 2.20951ZM15.4657 10.0469L15.0348 9.75448L15.328 9.32299L15.7588 9.61613L15.4657 10.0469ZM15.8081 9.54421L15.3773 9.25176L15.641 8.86341L16.0718 9.15655L15.8081 9.54421ZM16.1204 9.08464L15.6896 8.79218L15.9828 8.36137L16.4136 8.65383L16.1204 9.08464ZM16.4629 8.58191L16.0321 8.28946L16.3252 7.85865L16.756 8.15111L16.4629 8.58191ZM16.8053 8.07988L16.3745 7.78673L16.6677 7.35592L17.0985 7.64907L16.8053 8.07988ZM17.1478 7.57715L16.717 7.28401L17.0101 6.8532L17.4409 7.14634L17.1478 7.57715ZM17.4902 7.07443L17.0594 6.78129L17.3526 6.35048L17.7834 6.64362L17.4902 7.07443ZM17.8327 6.5717L17.4019 6.27925L17.695 5.84775L18.1258 6.14089L17.8327 6.5717ZM18.1752 6.06898L17.7444 5.77652L18.0375 5.34571L18.4683 5.63817L18.1752 6.06898ZM18.5176 5.56626L18.0868 5.2738L18.3799 4.84299L18.8108 5.13545L18.5176 5.56626ZM18.8601 5.06422L18.4293 4.77107L18.719 4.34027L19.1498 4.63341L18.8601 5.06422ZM19.2025 4.56149L18.7717 4.26835L19.0649 3.83754L19.4957 4.13068L19.2025 4.56149ZM19.545 4.05877L19.1142 3.76563L19.4073 3.33482L19.8381 3.62796L19.545 4.05877ZM19.8874 3.55604L19.4566 3.26359L19.7498 2.83278L20.1806 3.12523L19.8874 3.55604ZM20.2299 3.05332L19.7991 2.76086L20.0922 2.33005L20.5223 2.62251L20.2299 3.05332ZM15.9773 10.3887L15.5465 10.0956L15.8396 9.66476L16.2697 9.9579L15.9773 10.3887ZM16.3197 9.88598L15.8889 9.59353L16.1526 9.20518L16.5834 9.49832L16.3197 9.88598ZM16.6321 9.42641L16.2012 9.13395L16.4944 8.70314L16.9252 8.9956L16.6321 9.42641ZM16.9745 8.92368L16.5437 8.63123L16.8368 8.20042L17.2677 8.49288L16.9745 8.92368ZM17.317 8.42164L16.8862 8.1285L17.1793 7.6977L17.6101 7.99084L17.317 8.42164ZM17.6594 7.91892L17.2286 7.62578L17.5218 7.19497L17.9526 7.48811L17.6594 7.91892ZM18.0019 7.4162L17.5711 7.12306L17.8642 6.69225L18.295 6.98539L18.0019 7.4162ZM18.3443 6.91347L17.9135 6.62033L18.2067 6.18952L18.6368 6.48266L18.3443 6.91347ZM18.6868 6.41075L18.2395 6.11829L18.532 5.68748L18.9628 5.97994L18.6868 6.41075ZM19.0292 5.90802L18.582 5.61557L18.8751 5.18476L19.3053 5.47722L19.0292 5.90802ZM19.3717 5.40599L18.9245 5.11284L19.2176 4.68204L19.6477 4.97518L19.3717 5.40599ZM19.7142 4.90326L19.2669 4.61012L19.5594 4.17931L19.9902 4.47245L19.7142 4.90326ZM20.0566 4.40054L19.6094 4.1074L19.9018 3.67659L20.3326 3.96973L20.0566 4.40054ZM20.3991 3.89781L19.9518 3.60467L20.2443 3.17386L20.6751 3.467L20.3991 3.89781ZM20.7415 3.39509L20.2943 3.10263L20.5867 2.67182L21.0175 2.96428L20.7415 3.39509ZM20.7415 5.70735L21.1162 5.97035L20.823 6.40116L20.4313 6.13815L20.7415 5.70735ZM20.3991 6.21007L20.7867 6.47376L20.4936 6.90457L20.0888 6.64088L20.3991 6.21007ZM20.0566 6.71279L20.4443 6.9758L20.1374 7.40866L19.7498 7.14566L20.0566 6.71279ZM19.7142 7.21483L20.0888 7.47715L19.7957 7.90796L19.408 7.64427L19.7142 7.21483ZM19.3717 7.71756L19.7594 7.98125L19.4662 8.41206L19.0786 8.14837L19.3717 7.71756ZM19.0292 8.22028L19.4039 8.48397L19.1121 8.91547L18.7245 8.65177L19.0292 8.22028ZM18.6868 8.72301L19.0614 8.98396L18.769 9.41476L18.3813 9.15107L18.6868 8.72301ZM20.9107 4.36013L21.3415 4.65327L21.0477 5.08408L20.6169 4.79094L20.9107 4.36013ZM20.5682 4.86285L20.999 5.15599L20.7052 5.5868L20.2744 5.29366L20.5682 4.86285ZM20.2258 5.36558L20.6566 5.65872L20.3628 6.08953L19.932 5.79638L20.2258 5.36558ZM19.8833 5.8683L20.3141 6.16076L20.0203 6.59157L19.5902 6.29911L19.8833 5.8683ZM19.5409 6.37102L19.9717 6.66348L19.6779 7.09429L19.247 6.80183L19.5409 6.37102ZM19.1984 6.87306L19.6292 7.16621L19.3354 7.59701L18.9046 7.30387L19.1984 6.87306ZM18.856 7.37579L19.2868 7.66893L18.9929 8.09974L18.5621 7.8066L18.856 7.37579ZM18.5135 7.87851L18.9443 8.17165L18.6505 8.60246L18.2197 8.30932L18.5135 7.87851ZM18.1711 8.38124L18.6019 8.67438L18.3094 9.10519L17.8786 8.81204L18.1711 8.38124ZM17.8286 8.88396L18.2594 9.17642L17.9669 9.60723L17.5361 9.31477L17.8286 8.88396ZM17.4861 9.38668L17.9169 9.67914L17.6245 10.1099L17.1937 9.81749L17.4861 9.38668ZM16.8094 10.2278L16.3786 9.93461L16.6423 9.54695L17.0752 9.84009L16.8094 10.2278ZM17.1218 9.76818L16.691 9.47504L16.9834 9.04423L17.4149 9.33737L17.1218 9.76818ZM17.4642 9.26545L17.0334 8.973L17.3259 8.54219L17.7567 8.83465L17.4642 9.26545ZM17.8067 8.76342L17.3759 8.47027L17.6683 8.03947L18.0991 8.33261L17.8067 8.76342ZM18.1491 8.26069L17.7183 7.96755L18.0108 7.53674L18.4423 7.82988L18.1491 8.26069ZM18.4916 7.75797L18.0608 7.46483L18.3532 7.03402L18.784 7.32716L18.4916 7.75797ZM18.834 7.25524L18.4032 6.9621L18.6957 6.53129L19.1265 6.82443L18.834 7.25524ZM19.1765 6.75252L18.7457 6.46006L19.0381 6.02925L19.469 6.32171L19.1765 6.75252ZM19.519 6.24979L19.0881 5.95734L19.3806 5.52653L19.8114 5.81899L19.519 6.24979ZM19.8614 5.74776L19.4306 5.45461L19.7231 5.02381L20.1539 5.31695L19.8614 5.74776ZM20.2039 5.24503L19.7731 4.95189L20.0655 4.52108L20.4963 4.81422L20.2039 5.24503ZM20.5463 4.74231L20.1155 4.44917L20.408 4.01836L20.8388 4.3115L20.5463 4.74231ZM21.1805 3.80878L20.8881 4.23958L20.4566 3.94644L20.7497 3.51563L21.1805 3.80878Z" fill="#9D9D9C"/>
<path d="M21.2073 7.49222C21.0443 7.45702 20.884 7.40986 20.7279 7.35113C20.6216 7.54787 20.5053 7.73899 20.3793 7.92372C18.7396 10.336 15.8459 11.227 13.9158 9.91543C12.1569 8.71958 11.8069 6.10528 13.0007 3.82521C12.8471 3.76771 12.7003 3.69328 12.5631 3.6033C11.2172 6.15254 11.6042 9.08258 13.5726 10.4202C15.7253 11.8846 18.954 10.8894 20.7841 8.19836C20.9379 7.97087 21.0792 7.73514 21.2073 7.49222Z" fill="#352E35"/>
<path d="M13.2865 3.33071L12.8324 3.13345C12.6307 3.45524 12.4546 3.79233 12.3057 4.14164L12.7584 4.33889C12.9048 3.98813 13.0815 3.65079 13.2865 3.33071Z" fill="#D1D1D1"/>
<path d="M20.5142 7.71551L20.9669 7.91277C21.1663 7.58976 21.3399 7.2515 21.486 6.90116L21.032 6.70322C20.8891 7.05504 20.7158 7.39375 20.5142 7.71551Z" fill="#D1D1D1"/>
<g style="mix-blend-mode:soft-light">
<path d="M19.924 1.039C21.8226 2.33006 22.111 5.23682 20.6089 7.61414C20.6546 7.55387 20.6984 7.49223 20.7405 7.42922C22.3459 5.06833 21.9918 2.1876 20.0412 0.860928C18.0905 -0.465743 15.2331 0.543815 13.7975 2.39239C13.3664 2.95 12.9989 3.55394 12.7017 4.19302C12.8736 3.90124 13.5133 2.77868 14.1098 2.15335C15.7858 0.393134 18.2234 -0.120548 19.924 1.039Z" fill="white"/>
</g>
<path d="M13.7122 10.2599C11.726 8.90929 11.8746 6.47923 11.9198 5.52652C11.4232 7.43536 12.0424 9.38119 13.593 10.436C15.293 11.5914 17.6073 11.1209 19.1655 9.86063C18.2011 10.4907 15.4916 11.4702 13.7122 10.2599Z" fill="#2B242A"/>
<path d="M12.0435 13.9105C12.0173 13.9439 11.9789 13.9655 11.9368 13.9706C11.8947 13.9758 11.8523 13.964 11.8188 13.9379L10.9627 13.3557C10.9261 13.3342 10.8996 13.299 10.8889 13.2579C10.8783 13.2168 10.8843 13.1732 10.9058 13.1366C10.9321 13.1033 10.9705 13.0818 11.0125 13.0767C11.0546 13.0716 11.097 13.0832 11.1305 13.1092L11.9859 13.6913C12.0226 13.7128 12.0493 13.7479 12.0601 13.789C12.0709 13.8301 12.0649 13.8738 12.0435 13.9105Z" fill="#2B242A"/>
<path d="M10.915 13.2666L10.5889 13.7463L11.588 14.4256L11.9142 13.9459L10.915 13.2666Z" fill="#161013"/>
<path d="M11.659 14.4762C11.6325 14.5096 11.594 14.5311 11.5518 14.5361C11.5096 14.5411 11.4671 14.5292 11.4336 14.503L10.5782 13.9215C10.5416 13.8999 10.5151 13.8648 10.5043 13.8237C10.4935 13.7827 10.4994 13.739 10.5206 13.7023C10.5471 13.669 10.5855 13.6475 10.6277 13.6424C10.6699 13.6373 10.7123 13.6489 10.746 13.6749L11.6014 14.2578C11.638 14.2795 11.6646 14.3147 11.6754 14.3559C11.6861 14.397 11.6802 14.4408 11.659 14.4776V14.4762Z" fill="#2B242A"/>
<path d="M15.1777 17.9597C15.2968 18.1179 15.3318 18.2919 15.2564 18.3487L14.4284 18.9693C14.3523 19.0254 14.1955 18.9432 14.0763 18.785C13.9578 18.6268 13.9229 18.4521 13.9982 18.396L14.8263 17.7755C14.9016 17.7186 15.0592 17.8008 15.1777 17.9597Z" fill="#2B242A"/>
<path d="M13.9083 18.772C13.9083 18.772 14.1939 18.9583 14.7528 18.5398C15.3117 18.1214 15.2124 17.7947 15.2124 17.7947C15.2124 17.7947 12.3002 14.2044 11.9385 13.7242C11.5769 13.2441 10.5372 13.8701 10.9714 14.4496C11.4057 15.029 13.9083 18.772 13.9083 18.772Z" fill="#A1D2D9"/>
<g style="mix-blend-mode:soft-light">
<path d="M15.0893 17.8666C14.5859 17.2454 12.2332 14.3413 11.912 13.9133C11.9098 13.91 11.9073 13.907 11.9044 13.9044C11.6914 14.4297 14.9838 17.9323 15.0893 17.8666Z" fill="white"/>
</g>
<g style="mix-blend-mode:multiply">
<path d="M14.9739 17.8364C14.7307 17.9433 14.4698 17.9919 14.2109 17.9083C13.8808 17.8015 13.6061 17.5775 13.3541 17.346C12.7582 16.7981 12.2294 16.205 11.9438 15.4358C11.7329 14.8687 11.6343 14.2283 11.8801 13.6605C11.4788 13.3078 10.561 13.8996 10.9733 14.4496C11.4075 15.0283 13.9082 18.772 13.9082 18.772C13.9082 18.772 14.1938 18.9583 14.7526 18.5398C15.3115 18.1214 15.2122 17.7947 15.2122 17.7947L15.1636 17.7351C15.1029 17.7735 15.0395 17.8074 14.9739 17.8364Z" fill="#BACDD8"/>
</g>
<g style="mix-blend-mode:soft-light">
<path d="M14.9885 17.5179L14.4146 18.7405C14.4891 18.7079 14.5608 18.6692 14.6289 18.6248L15.0892 17.644L14.9885 17.5179Z" fill="white"/>
<path d="M14.5666 16.9974L13.8057 18.6179L13.9002 18.759L14.668 17.1228L14.5666 16.9974Z" fill="white"/>
<path d="M14.0069 16.3057L13.2856 17.8419L13.3802 17.983L14.1082 16.431L14.0069 16.3057Z" fill="white"/>
<path d="M13.4452 15.6125L12.7603 17.0673L12.8548 17.2077L13.5445 15.7386C13.5137 15.6961 13.4815 15.655 13.4452 15.6125Z" fill="white"/>
<path d="M12.889 14.9187L12.2432 16.294C12.2747 16.3406 12.3069 16.3871 12.3384 16.431L12.9904 15.042L12.889 14.9187Z" fill="white"/>
<path d="M12.3316 14.2228L11.7207 15.5242L11.8159 15.6612L12.4323 14.3475L12.3316 14.2228Z" fill="white"/>
<path d="M11.6227 13.8468L11.1953 14.7578L11.2912 14.8947L11.8706 13.6619L11.6227 13.8468Z" fill="white"/>
</g>
<path d="M11.3942 13.0934C10.9928 12.5578 10.4504 7.85658 10.3298 6.57443C10.0223 6.86689 9.48877 9.63804 9.48877 9.63804C9.48877 9.63804 9.9367 9.05792 10.0744 9.83118C10.2627 10.8921 10.4449 12.1325 10.4812 12.3784C10.5381 12.7708 10.3381 12.8345 10.0572 12.6996C9.8867 12.6174 8.73674 12.09 7.74293 11.5791C7.24432 11.3222 7.74293 10.9551 7.74293 10.9551C7.74293 10.9551 3.89716 10.4264 4.54714 10.9099C5.96833 11.3811 10.0627 13.1824 10.5004 13.7639C10.938 14.3454 11.7955 13.629 11.3942 13.0934Z" fill="#259DAB"/>
<path d="M3.93581 0.79519L4.01389 0.902035L3.59678 1.21504L3.3461 0.880118L3.25364 0.90135L3.52761 1.26641L3.11049 1.57941L2.79817 1.1623L3.0831 0.948609C2.99269 0.976006 2.90365 1.00614 2.81598 1.04039L2.74749 1.09313L2.73311 1.07395L2.6516 1.10956L2.67763 1.14518L2.26121 1.4575L2.19271 1.3623C2.16806 1.37805 2.14409 1.39449 2.12011 1.41092L2.19409 1.50955L1.77766 1.82187L1.71465 1.73763C1.69273 1.75749 1.67218 1.77804 1.65095 1.79858L1.7078 1.87392L1.34274 2.14789C1.28521 2.22254 1.2311 2.29925 1.17905 2.3787L1.27357 2.31021L1.58588 2.72664L1.16946 3.03964L0.963985 2.76568C0.949602 2.79513 0.93522 2.82458 0.922207 2.85403L1.10097 3.09375L0.721528 3.36771C0.704406 3.42456 0.688653 3.48072 0.674269 3.53825L0.973575 3.93824L0.557148 4.25056C0.553039 4.29622 0.549615 4.34006 0.546875 4.38206L0.853716 4.79301L0.549615 5.02108C0.549615 5.05533 0.554409 5.08958 0.557148 5.12382L0.906453 4.86287L1.21877 5.2793L0.801662 5.59162L0.572216 5.28546C0.579065 5.34368 0.586601 5.40258 0.59482 5.4608L0.731802 5.64161L0.640024 5.7101C0.646188 5.74161 0.653036 5.77312 0.659885 5.80394L0.784539 5.71079L1.09686 6.1279L0.803716 6.34707C0.81262 6.37652 0.822209 6.40529 0.831798 6.43474L1.14891 6.19708L1.46123 6.61419L1.04412 6.92651L0.987272 6.85048C1.03864 6.97308 1.09343 7.09499 1.15371 7.21691L1.33932 7.46484L1.29891 7.49498L1.34206 7.571L1.39137 7.53402L1.70369 7.95113L1.62013 8.01414C1.63588 8.03811 1.65301 8.06209 1.66944 8.08263L1.75574 8.01825L2.06806 8.43468L1.98519 8.497L2.04066 8.56549L2.1208 8.50591L2.43312 8.92233L2.39545 8.95041C2.416 8.97165 2.43723 8.99219 2.45777 9.01206L2.48517 8.99219L2.60503 9.15178C2.70845 9.24698 2.81461 9.33739 2.92214 9.42574L3.33309 9.11616L3.64541 9.53259L3.35912 9.74765L3.43651 9.79833L3.69746 9.60245L4.00978 10.0189L3.92759 10.0812C3.95636 10.0963 3.98512 10.1107 4.01389 10.1243L4.06252 10.0887L4.13101 10.1805C4.18512 10.2059 4.23923 10.2291 4.29333 10.249L4.13033 10.0333L4.54744 9.72025L4.85975 10.1374L4.5673 10.3565L4.66593 10.3908L4.91181 10.2065L5.15221 10.5284C5.2207 10.5435 5.28919 10.5572 5.35426 10.5695L5.73165 10.2874L5.99602 10.6408H6.10698L5.80082 10.2333L6.21793 9.92025L6.53025 10.3374L6.12478 10.6415C6.1741 10.6415 6.22341 10.6415 6.27204 10.6415L6.5823 10.4086L6.72682 10.6017L6.82339 10.586L6.65353 10.3538L7.07064 10.0415L7.37269 10.4449C7.50132 10.4013 7.62732 10.3503 7.75007 10.2922L7.9213 10.1634L7.94322 10.1928L8.01925 10.149L7.99116 10.1113L8.40759 9.79902L8.44732 9.85107C8.46923 9.83326 8.49184 9.81477 8.51581 9.79559L8.47951 9.74696L8.84182 9.473C8.91984 9.38558 8.99323 9.29413 9.06168 9.19904L8.91374 9.30931L8.60142 8.89288L9.01784 8.57988L9.25688 8.89905L9.30345 8.81617L9.08771 8.52851L9.50413 8.21551L9.54728 8.27304C9.55893 8.24016 9.57057 8.20455 9.58153 8.17373L9.57399 8.16345L9.58838 8.15249C9.60344 8.10592 9.61851 8.05866 9.63221 8.0114L9.52194 8.09428L9.20757 7.68265L9.62399 7.37033L9.73974 7.52443C9.74591 7.48402 9.75207 7.4443 9.75755 7.40389L9.69385 7.31827L9.77535 7.25663C9.77946 7.21828 9.78289 7.17924 9.78631 7.1402L9.6418 7.24841L9.3603 6.87377L9.77741 6.56076L9.79864 6.58953C9.79864 6.53816 9.79453 6.48679 9.79111 6.43542L9.48221 6.02448L9.72125 5.84503C9.71577 5.81353 9.71029 5.78202 9.70413 5.74983L9.43016 5.9553L9.11784 5.53819L9.49249 5.25738L9.63837 5.45121C9.61988 5.37587 9.59934 5.30121 9.57742 5.22587L9.56235 5.20533L9.56988 5.19916C9.56098 5.16971 9.55276 5.14026 9.54317 5.11081L9.51029 5.13546L9.19866 4.71767L9.35893 4.59713L9.324 4.51494L9.14661 4.64781L8.8336 4.2307L9.09387 4.03618L9.05209 3.95879L8.77812 4.16426L8.46581 3.74715L8.77812 3.5136C8.76237 3.48894 8.74594 3.46497 8.7295 3.441L8.41375 3.67798L8.1028 3.25813L8.42197 3.01909L8.36786 2.9506L8.05075 3.18827L7.73843 2.77116L8.02061 2.55952L7.95898 2.49719L7.68501 2.70266L7.37269 2.28555L7.57063 2.13693L7.50214 2.0794L7.31995 2.21638L7.00763 1.79927L7.07133 1.75201L6.99531 1.69996L6.95558 1.73009L6.87681 1.62119C6.81106 1.57873 6.74463 1.53832 6.67751 1.49996L6.88915 1.78214L6.51381 2.06638L6.20149 1.64996L6.51724 1.41298L6.43231 1.36777L6.14944 1.5801L5.83712 1.16367L5.89055 1.12326L5.79397 1.08696L5.78507 1.09381L5.77411 1.07943C5.72548 1.0623 5.67685 1.04518 5.62822 1.02943L5.71521 1.14586L5.29878 1.45818L4.98646 1.03902L5.1707 0.902035C5.13303 0.893816 5.09536 0.885598 5.05769 0.878749L4.93373 0.970526L4.8351 0.833544L4.71455 0.817107L4.86455 1.01779L4.44744 1.3301L4.13512 0.913679L4.30498 0.786285C4.25703 0.786285 4.20977 0.786285 4.16183 0.786285L4.08307 0.845188L4.0406 0.78834L3.93581 0.79519ZM3.28172 9.04288L2.86461 9.3552L2.55503 8.93877L2.97214 8.62577L3.28172 9.04288ZM2.91735 8.55659L2.50024 8.86891L2.18792 8.4518L2.60503 8.13948L2.91735 8.55659ZM2.55298 8.0703L2.13587 8.38262L1.82355 7.96551L2.23997 7.65319L2.55298 8.0703ZM2.18792 7.58402L1.77149 7.89634L1.45918 7.47717L1.8756 7.16485L2.18792 7.58402ZM1.82355 7.09773L1.40712 7.40868L1.09412 6.99157L1.51123 6.67925L1.82355 7.09773ZM4.4947 9.65108L4.07759 9.9634L3.76527 9.54697L4.18238 9.23397L4.4947 9.65108ZM4.12964 9.16479L3.71938 9.47711L3.40706 9.06L3.82349 8.74768L4.12964 9.16479ZM3.76527 8.6785L3.34884 8.99082L3.03858 8.57303L3.45569 8.26071L3.76527 8.6785ZM3.4009 8.19222L2.98652 8.50454L2.67421 8.08743L3.09132 7.77511L3.4009 8.19222ZM3.03652 7.70593L2.62352 8.01825L2.3112 7.60114L2.72831 7.28882L3.03652 7.70593ZM2.67215 7.21965L2.25504 7.53197L1.94272 7.11486L2.35915 6.80254L2.67215 7.21965ZM2.3071 6.73336L1.89067 7.04568L1.57767 6.62857L1.99478 6.31625L2.3071 6.73336ZM1.94546 6.24433L1.52767 6.55939L1.21466 6.14228L1.63177 5.82996L1.94546 6.24433ZM1.58109 5.75805L1.16398 6.07105L0.851661 5.65394L1.26877 5.34162L1.58109 5.75805ZM5.68165 10.2168L5.26454 10.5291L4.98304 10.1538L5.40015 9.84148L5.68165 10.2168ZM5.3481 9.77231L4.93099 10.0846L4.61867 9.66889L5.03578 9.35657L5.3481 9.77231ZM4.98372 9.28602L4.56661 9.60039L4.25429 9.18328L4.6714 8.87097L4.98372 9.28602ZM4.61867 8.79973L4.20224 9.11205L3.88992 8.69494L4.30635 8.38262L4.61867 8.79973ZM4.25429 8.31345L3.83787 8.62577L3.52487 8.20866L3.94198 7.89634L4.25429 8.31345ZM3.88992 7.82716L3.47281 8.13948L3.16049 7.72237L3.5776 7.41005L3.88992 7.82716ZM3.52555 7.34088L3.10844 7.65319L2.79612 7.23608L3.21323 6.92377L3.52555 7.34088ZM3.16118 6.8539L2.74407 7.16691L2.43175 6.7498L2.84817 6.43748L3.16118 6.8539ZM2.79612 6.36762L2.3797 6.68062L2.06738 6.26351L2.4838 5.95119L2.79612 6.36762ZM2.43175 5.88133L2.01464 6.19365L1.70232 5.77723L2.11943 5.46491L2.43175 5.88133ZM2.06738 5.39505L1.65027 5.70737L1.33795 5.29094L1.75506 4.97794L2.06738 5.39505ZM1.703 4.90876L1.28589 5.22108L0.973575 4.80602L1.39 4.49302L1.703 4.90876ZM1.33795 4.42247L0.921521 4.73753L0.609202 4.32111L1.02563 4.0081L1.33795 4.42247ZM6.16793 9.85244L5.75082 10.1648L5.46932 9.78943L5.88644 9.47711L6.16793 9.85244ZM5.83438 9.40793L5.41727 9.72025L5.10495 9.30314L5.52206 8.99082L5.83438 9.40793ZM5.47001 8.92165L5.0529 9.23397L4.74058 8.81686L5.15769 8.50454L5.47001 8.92165ZM5.10564 8.43536L4.68853 8.74768L4.37621 8.33057L4.79263 8.01825L5.10564 8.43536ZM4.74058 7.94839L4.32415 8.26139L4.01184 7.84428L4.42826 7.53197L4.74058 7.94839ZM4.37621 7.4621L3.95978 7.77511L3.64678 7.358L4.06389 7.04568L4.37621 7.4621ZM4.01184 6.97582L3.59473 7.28814L3.28241 6.87171L3.69952 6.55939L4.01184 6.97582ZM3.64746 6.48953L3.23035 6.80185L2.91803 6.38543L3.33515 6.07311L3.64746 6.48953ZM3.28309 6.00325L2.86598 6.31556L2.55503 5.90188L2.97146 5.58887L3.28309 6.00325ZM2.91803 5.51696L2.50161 5.83339L2.18929 5.41696L2.60571 5.10396L2.91803 5.51696ZM2.55366 5.03067L2.13655 5.34299L1.82423 4.92588L2.24134 4.61356L2.55366 5.03067ZM2.18929 4.54439L1.77218 4.85671L1.45918 4.44028L1.87629 4.12796L2.18929 4.54439ZM1.82492 4.0581L1.40781 4.37042L1.09549 3.95331L1.51191 3.64099L1.82492 4.0581ZM1.45918 3.57318L1.04207 3.8855L0.729747 3.46839L1.14617 3.15607L1.45918 3.57318ZM7.01722 9.97572L6.60148 10.2853L6.28916 9.86819L6.70627 9.55587L7.01722 9.97572ZM6.65285 9.48944L6.23574 9.80176L5.95424 9.42643L6.37135 9.11411L6.65285 9.48944ZM6.3193 9.04425L5.90219 9.35725L5.58987 8.94014L6.00698 8.62782L6.3193 9.04425ZM5.95493 8.55796L5.53782 8.87097L5.22618 8.45317L5.64329 8.14085L5.95493 8.55796ZM5.59055 8.07167L5.17344 8.38399L4.86113 7.96757L5.27755 7.65525L5.59055 8.07167ZM5.2255 7.58539L4.80907 7.89771L4.49675 7.48128L4.91318 7.16896L5.2255 7.58539ZM4.86113 7.0991L4.44607 7.40868L4.13033 6.99774L4.54744 6.68473L4.86113 7.0991ZM4.49675 6.61282L4.07964 6.92514L3.76732 6.50871L4.18443 6.19571L4.49675 6.61282ZM4.13238 6.12653L3.71938 6.43816L3.40706 6.02174L3.82417 5.70873L4.13238 6.12653ZM3.76801 5.64024L3.3509 5.95256L3.03858 5.53545L3.45501 5.22313L3.76801 5.64024ZM3.40295 5.15396L2.98652 5.46628L2.67421 5.04917L3.09063 4.73685L3.40295 5.15396ZM3.03858 4.66767L2.62352 4.97931L2.31052 4.5622L2.72763 4.24988L3.03858 4.66767ZM2.67421 4.18139L2.2571 4.4937L1.94478 4.07659L2.36189 3.76427L2.67421 4.18139ZM2.30984 3.6951L1.89272 4.00742L1.5804 3.59031L1.99751 3.27799L2.30984 3.6951ZM1.94478 3.20881L1.52767 3.52045L1.21535 3.10334L1.63177 2.79102L1.94478 3.20881ZM7.86788 10.0976L7.45145 10.41L7.13845 9.99285L7.55556 9.68053L7.86788 10.0976ZM7.50351 9.61135L7.0864 9.92367L6.77408 9.50656L7.19119 9.19424L7.50351 9.61135ZM7.14393 9.12096L6.72682 9.43396L6.44532 9.05863L6.86243 8.74631L7.14393 9.12096ZM6.81038 8.67645L6.39053 8.99151L6.07752 8.57303L6.49463 8.26071L6.81038 8.67645ZM6.44601 8.19016L6.02547 8.50454L5.71315 8.08811L6.13026 7.77579L6.44601 8.19016ZM6.08163 7.70388L5.66452 8.0162L5.35221 7.59977L5.76932 7.28677L6.08163 7.70388ZM5.71726 7.21759L5.29467 7.53265L4.98235 7.11622L5.39878 6.80322L5.71726 7.21759ZM5.35221 6.73131L4.93578 7.04362L4.62278 6.62651L5.03989 6.3142L5.35221 6.73131ZM4.98783 6.24502L4.57072 6.55734L4.2584 6.14023L4.67551 5.82791L4.98783 6.24502ZM4.62346 5.75873L4.20635 6.07105L3.89403 5.65394L4.31114 5.34162L4.62346 5.75873ZM4.25909 5.27245L3.84198 5.58477L3.52966 5.16766L3.94677 4.85534L4.25909 5.27245ZM3.89403 4.78616L3.47761 5.09848L3.16529 4.68137L3.58171 4.36905L3.89403 4.78616ZM3.52966 4.29919L3.11323 4.61219L2.80023 4.19508L3.21734 3.88276L3.52966 4.29919ZM3.16529 3.8129L2.74818 4.12591L2.43243 3.71017L2.84954 3.39785L3.16529 3.8129ZM2.80091 3.32662L2.38038 3.64168L2.06806 3.22525L2.48517 2.91293L2.80091 3.32662ZM2.43654 2.84033L2.01943 3.15334L1.70711 2.73622L2.12354 2.42322L2.43654 2.84033ZM2.07149 2.35404L1.65506 2.66636L1.34206 2.24994L1.75917 1.93693L2.07149 2.35404ZM8.35896 9.72916L7.94253 10.0422L7.63022 9.62505L8.04664 9.31273L8.35896 9.72916ZM7.99459 9.24287L7.57817 9.55587L7.26516 9.13876L7.68227 8.82645L7.99459 9.24287ZM7.63022 8.75658L7.21242 9.07164L6.93161 8.697L7.34803 8.38399L7.63022 8.75658ZM7.29666 8.31208L6.88024 8.6244L6.56723 8.20797L6.98435 7.89497L7.29666 8.31208ZM6.93229 7.82579L6.51518 8.13811L6.20286 7.721L6.61655 7.40868L6.93229 7.82579ZM6.56792 7.33951L6.15081 7.65182L5.83849 7.23471L6.2556 6.92239L6.56792 7.33951ZM6.20355 6.85322L5.78644 7.16554L5.47412 6.74843L5.89055 6.43611L6.20355 6.85322ZM5.83849 6.36693L5.42207 6.67925L5.10975 6.26214L5.52617 5.94982L5.83849 6.36693ZM5.47412 5.88065L5.05769 6.19297L4.74469 5.77586L5.1618 5.46354L5.47412 5.88065ZM5.10975 5.39436L4.69264 5.70668L4.38032 5.28957L4.79743 4.97725L5.10975 5.39436ZM4.74538 4.90807L4.32827 5.22039L4.01252 4.80602L4.42895 4.4937L4.74538 4.90807ZM4.38032 4.4211L3.96047 4.73753L3.65089 4.31974L4.06731 4.00742L4.38032 4.4211ZM4.01594 3.93482L3.59952 4.24714L3.2872 3.83071L3.70363 3.51839L4.01594 3.93482ZM3.65157 3.44853L3.23446 3.76085L2.92214 3.34443L3.33926 3.03211L3.65157 3.44853ZM3.2872 2.96225L2.87009 3.27456L2.55503 2.86088L2.97214 2.54856L3.2872 2.96225ZM2.92283 2.47596L2.50572 2.78828L2.1934 2.37185L2.61051 2.05885L2.92283 2.47596ZM2.55777 1.98967L2.14135 2.30199L1.82903 1.88488L2.24545 1.57256L2.55777 1.98967ZM8.84525 9.36478L8.42882 9.6771L8.1165 9.26068L8.53293 8.94836L8.84525 9.36478ZM8.48088 8.8785L8.06445 9.19082L7.74802 8.7785L8.16513 8.46618L8.48088 8.8785ZM8.1165 8.39221L7.69597 8.71001L7.41516 8.33468L7.83158 8.02236L8.1165 8.39221ZM7.78295 7.94771L7.36653 8.26002L7.05421 7.84291L7.47063 7.5306L7.78295 7.94771ZM7.41858 7.46142L7.00215 7.77374L6.68915 7.35663L7.10626 7.04431L7.41858 7.46142ZM7.05421 6.97513L6.6371 7.28745L6.32204 6.87308L6.73915 6.56076L7.05421 6.97513ZM6.68983 6.48885L6.27272 6.80117L5.96041 6.38406L6.37683 6.07174L6.68983 6.48885ZM6.32204 6.00462L5.90561 6.31762L5.59261 5.90188L6.00903 5.58956L6.32204 6.00462ZM5.95767 5.51833L5.54056 5.83339L5.22618 5.41422L5.64329 5.1019L5.95767 5.51833ZM5.59329 5.03204L5.17687 5.34436L4.86386 4.92794L5.28097 4.61562L5.59329 5.03204ZM5.22618 4.54576L4.80907 4.85808L4.49675 4.44165L4.91386 4.12933L5.22618 4.54576ZM4.86181 4.05947L4.4447 4.37179L4.13238 3.95536L4.54949 3.64305L4.86181 4.05947ZM4.49675 3.57318L4.08033 3.8855L3.76801 3.46908L4.18443 3.15607L4.49675 3.57318ZM4.13238 3.0869L3.71938 3.39922L3.40638 2.98211L3.82349 2.66979L4.13238 3.0869ZM3.76801 2.60061L3.3509 2.91293L3.03858 2.49582L3.45569 2.1835L3.76801 2.60061ZM3.40364 2.11433L2.98652 2.42665L2.67421 2.00953L3.09063 1.69722L3.40364 2.11433ZM3.03926 1.62804L2.62352 1.94036L2.3112 1.52325L2.72763 1.21093L3.03926 1.62804ZM8.96168 8.51687L8.54526 8.82919L8.23225 8.41276L8.64936 8.09976L8.96168 8.51687ZM8.59731 8.03058L8.1802 8.3429L7.89939 7.96757L8.31581 7.65525L8.59731 8.03058ZM8.26376 7.58607L7.84733 7.89839L7.53433 7.48128L7.95144 7.16896L8.26376 7.58607ZM7.89939 7.09979L7.48639 7.41211L7.17201 6.99774L7.58912 6.68542L7.89939 7.09979ZM7.53502 6.61282L7.11996 6.92924L6.80764 6.51213L7.22475 6.19982L7.53502 6.61282ZM7.17064 6.12653L6.75353 6.43953L6.44121 6.02242L6.85832 5.7101L7.17064 6.12653ZM6.80627 5.64024L6.39053 5.95256L6.07821 5.53614L6.49463 5.22382L6.80627 5.64024ZM6.44121 5.15396L6.02479 5.46628L5.71178 5.04985L6.12889 4.73753L6.44121 5.15396ZM6.07684 4.66767L5.65973 4.97999L5.34741 4.56357L5.76452 4.25125L6.07684 4.66767ZM5.71247 4.18139L5.29467 4.4937L4.98235 4.07728L5.39946 3.76427L5.71247 4.18139ZM5.3481 3.6951L4.93099 4.00742L4.61867 3.59099L5.03578 3.27799L5.3481 3.6951ZM4.98304 3.20881L4.56661 3.52113L4.25429 3.10402L4.67072 2.7917L4.98304 3.20881ZM4.61867 2.72253L4.20224 3.03485L3.88924 2.61774L4.30635 2.30542L4.61867 2.72253ZM4.25429 2.23624L3.83924 2.54582L3.52692 2.13487L3.94403 1.82255L4.25429 2.23624ZM3.88992 1.74995L3.47281 2.06227L3.16049 1.64516L3.5824 1.33284L3.88992 1.74995ZM9.44797 8.15249L9.03154 8.46481L8.71922 8.0477L9.13634 7.73538L9.44797 8.15249ZM9.0836 7.66621L8.66648 7.97853L8.38567 7.6032L8.8021 7.29088L9.0836 7.66621ZM8.75005 7.22102L8.33362 7.53402L8.0213 7.11691L8.43773 6.80459L8.75005 7.22102ZM8.38567 6.73473L7.96856 7.04773L7.65624 6.63062L8.07335 6.3183L8.38567 6.73473ZM8.0213 6.24844L7.60419 6.56145L7.29187 6.14434L7.70898 5.83202L8.0213 6.24844ZM7.65693 5.76216L7.23982 6.07448L6.9275 5.65805L7.34461 5.34573L7.65693 5.76216ZM7.29255 5.27587L6.87545 5.58819L6.56313 5.17176L6.97955 4.85876L7.29255 5.27587ZM6.9275 4.78958L6.51107 5.1019L6.19876 4.68548L6.61518 4.37247L6.9275 4.78958ZM6.56313 4.3033L6.14602 4.61562L5.8337 4.19919L6.25081 3.88619L6.56313 4.3033ZM6.19876 3.81701L5.78164 4.12933L5.47138 3.71017L5.88849 3.39785L6.19876 3.81701ZM5.83438 3.33073L5.41933 3.64168L5.10701 3.22457L5.52412 2.91225L5.83438 3.33073ZM5.47001 2.84444L5.0529 3.15676L4.74058 2.73965L5.15701 2.42733L5.47001 2.84444ZM5.10495 2.35815L4.68853 2.67047L4.37552 2.25336L4.79263 1.94104L5.10495 2.35815ZM4.74058 1.87187L4.32347 2.18419L4.01115 1.76708L4.42826 1.45476L4.74058 1.87187ZM4.37621 1.38558L3.9591 1.6979L3.65089 1.28079L4.06594 0.970526L4.37621 1.38558ZM6.56587 2.13487L6.93846 1.85132L7.25351 2.27186L6.87818 2.55267L6.56587 2.13487ZM6.93024 2.62116L7.30557 2.33966L7.61789 2.75677L7.24324 3.03759L6.93024 2.62116ZM7.2953 3.10745L7.67063 2.82595L7.98295 3.24306L7.60762 3.52387L7.2953 3.10745ZM7.65967 3.59373L8.035 3.31223L8.34732 3.72934L7.97199 4.01084L7.65967 3.59373ZM8.02404 4.08002L8.39937 3.79852L8.71169 4.21563L8.33636 4.49713L8.02404 4.08002ZM8.38841 4.5663L8.76374 4.28481L9.07606 4.70192L8.70073 4.98341L8.38841 4.5663ZM8.75278 5.05259L9.12811 4.77178L9.44044 5.1882L9.06579 5.4697L8.75278 5.05259ZM5.35084 1.52462L5.76726 1.21161L6.08027 1.62873L5.66316 1.94104L5.35084 1.52462ZM5.71521 2.01091L6.13232 1.69859L6.44464 2.11501L6.02753 2.42733L5.71521 2.01091ZM6.07958 2.49719L6.49669 2.18487L6.80901 2.6013L6.39053 2.9143L6.07958 2.49719ZM6.44395 2.98348L6.86106 2.67116L7.17338 3.08758L6.75696 3.40059L6.44395 2.98348ZM6.80832 3.46976L7.22543 3.15744L7.53775 3.57387L7.12133 3.88687L6.80832 3.46976ZM7.17338 3.95605L7.58981 3.64373L7.90281 4.06084L7.48639 4.37316L7.17338 3.95605ZM7.53775 4.44234L7.95487 4.13002L8.26718 4.54713L7.85007 4.85945L7.53775 4.44234ZM7.90213 4.92862L8.31923 4.6163L8.63155 5.03341L8.21445 5.34573L7.90213 4.92862ZM8.2665 5.41491L8.68361 5.10259L8.99593 5.5197L8.58224 5.83339L8.2665 5.41491ZM8.63155 5.90188L9.04798 5.58887L9.3603 6.00599L8.94388 6.3183L8.63155 5.90188ZM8.99593 6.38748L9.41235 6.07516L9.72536 6.49227L9.30824 6.80459L8.99593 6.38748ZM9.57194 7.30184L9.15551 7.61415L8.87401 7.23882L9.29112 6.92651L9.57194 7.30184ZM9.23907 6.85664L8.82196 7.16896L8.50964 6.75254L8.92607 6.44022L9.23907 6.85664ZM8.87401 6.37036L8.45759 6.68268L8.14527 6.26625L8.5617 5.95325L8.87401 6.37036ZM8.50964 5.88407L8.09321 6.19639L7.78021 5.77928L8.19732 5.46696L8.50964 5.88407ZM8.14527 5.39779L7.72816 5.7101L7.41789 5.29299L7.83501 4.98068L8.14527 5.39779ZM7.7809 4.9115L7.36379 5.22382L7.05147 4.80602L7.46789 4.4937L7.7809 4.9115ZM7.41652 4.42521L6.99942 4.73753L6.68709 4.32042L7.10352 4.0081L7.41652 4.42521ZM7.05147 3.93893L6.63504 4.25125L6.32204 3.83414L6.73846 3.52182L7.05147 3.93893ZM6.68709 3.45264L6.27067 3.76496L5.95767 3.34785L6.37478 3.03553L6.68709 3.45264ZM6.32204 2.96567L5.90493 3.27867L5.59261 2.86156L6.00972 2.54924L6.32204 2.96567ZM5.95767 2.47938L5.54056 2.79239L5.22618 2.37528L5.64261 2.06296L5.95767 2.47938ZM5.59261 1.9931L5.17618 2.30542L4.86386 1.88899L5.28029 1.57667L5.59261 1.9931ZM4.91592 1.09039L5.22618 1.50681L4.81524 1.81913L4.50292 1.4027L4.91592 1.09039Z" fill="#DADADA"/>
<path d="M8.72984 2.62113L8.70381 2.59031C8.69011 2.57388 8.67573 2.55744 8.66203 2.54031L8.62642 2.49922C8.61888 2.48963 8.61066 2.48073 8.60313 2.47182L8.54902 2.41018C8.54504 2.40529 8.54069 2.40071 8.53601 2.39648L8.52711 2.38621C8.4908 2.3458 8.45451 2.30608 8.41752 2.26704L8.41204 2.26019C8.26136 2.09992 8.1052 1.94718 7.94356 1.80472C6.00047 0.0828574 3.39576 -0.31439 1.63691 1.00338C-0.445904 2.56497 -0.554805 5.94158 1.39924 8.54561C1.51248 8.69674 1.63006 8.84195 1.75197 8.98121L1.75951 8.98943C1.78416 9.0182 1.80951 9.04628 1.83485 9.07436C1.84238 9.08189 1.84923 9.09011 1.85608 9.09765L1.92457 9.16614L1.9321 9.17436L1.93827 9.1812L1.95676 9.20107L2.00265 9.24764L2.03553 9.28189L2.05607 9.30312L2.09511 9.34216L2.13415 9.38051L2.15539 9.40175L2.15949 9.40586L2.18621 9.4312L2.23415 9.47709L2.28415 9.52366L2.33483 9.57023L2.35743 9.59146C4.30463 11.3469 6.93537 11.7599 8.70724 10.4325C10.79 8.87094 10.8989 5.49433 8.9449 2.8903C8.8723 2.79647 8.80175 2.70812 8.72984 2.62113ZM8.3367 9.94282C6.74291 11.1366 4.3745 10.7599 2.6266 9.17299L2.61633 9.1634C2.59099 9.14079 2.56633 9.11751 2.54167 9.0949L2.52318 9.07778L2.45469 9.00929L2.43346 8.98806L2.36497 8.91957L2.34442 8.89834L2.28004 8.82985L2.27114 8.82094L2.19032 8.73396L2.17867 8.72026C2.14991 8.68875 2.12183 8.65725 2.09374 8.62506L2.08621 8.61615C2.05676 8.58191 2.02731 8.54766 1.99854 8.51273L1.99512 8.50862C1.96498 8.47232 1.93484 8.43534 1.90539 8.39767C1.86567 8.34835 1.82663 8.29836 1.78896 8.24767C0.0396975 5.9135 0.1349 2.88756 2.00265 1.48761C3.57041 0.312987 5.88883 0.658867 7.62713 2.18211L7.69014 2.23758L7.72713 2.27115L7.78877 2.32868L7.82507 2.36292L7.88945 2.42525L7.92164 2.45676C7.95178 2.48689 7.98191 2.51703 8.01137 2.54785C8.02301 2.55949 8.03465 2.57182 8.04561 2.58415L8.1052 2.64648C8.11959 2.66291 8.13465 2.67935 8.14972 2.6951L8.18259 2.7314L8.19903 2.7499L8.24218 2.79921L8.2778 2.84031L8.31684 2.88619L8.37711 2.95674C8.43692 3.02888 8.49514 3.10285 8.55176 3.17865C10.299 5.51488 10.2038 8.5415 8.3367 9.94282Z" fill="#259DAB"/>
<g style="mix-blend-mode:soft-light">
<path d="M1.88658 1.37598C3.72351 -0.0013769 6.56657 0.669835 8.3309 2.86018C8.28844 2.79854 8.24392 2.73689 8.19871 2.67594C6.48644 0.391762 3.6468 -0.208219 1.76056 1.20612C-0.125687 2.62046 -0.0996598 5.65119 1.18318 7.60866C1.57026 8.19792 2.0219 8.74214 2.52971 9.23121C2.30985 8.97369 1.45577 8.00454 1.05715 7.23675C-0.0633594 5.07997 0.24074 2.6095 1.88658 1.37598Z" fill="white"/>
</g>
<g style="mix-blend-mode:multiply">
<path d="M8.59703 10.2442C6.67449 11.6825 4.42456 10.7558 3.5376 10.4038C5.18138 11.4935 7.22379 11.5387 8.72442 10.4141C10.3682 9.18122 10.6716 6.83814 9.98877 4.9567C10.2696 6.07241 10.3189 8.95383 8.59703 10.2442Z" fill="#9D9D9C"/>
</g>
<path d="M11.5084 13.0078C11.5199 13.0256 11.5278 13.0455 11.5315 13.0664C11.5353 13.0873 11.5349 13.1087 11.5303 13.1294C11.5257 13.1501 11.517 13.1697 11.5048 13.187C11.4926 13.2044 11.4771 13.2191 11.4591 13.2304L10.6311 13.8516C10.5987 13.879 10.5568 13.8925 10.5146 13.8893C10.4723 13.8861 10.4329 13.8664 10.405 13.8345C10.382 13.7988 10.3741 13.7554 10.3829 13.7138C10.3918 13.6722 10.4167 13.6358 10.4523 13.6126L11.2804 12.992C11.2963 12.9783 11.3148 12.9679 11.3348 12.9613C11.3548 12.9548 11.3759 12.9522 11.3969 12.9538C11.4179 12.9554 11.4384 12.9611 11.4572 12.9706C11.4759 12.9801 11.4927 12.9932 11.5064 13.0092L11.5084 13.0078Z" fill="#2B242A"/>
<path d="M11.503 13.1414L10.5356 13.8664L10.8836 14.3306L11.8509 13.6056L11.503 13.1414Z" fill="#161013"/>
<path d="M11.918 13.5551C11.9298 13.5728 11.9379 13.5927 11.9418 13.6136C11.9458 13.6345 11.9455 13.656 11.9411 13.6768C11.9366 13.6976 11.928 13.7173 11.9158 13.7347C11.9036 13.7522 11.8881 13.767 11.8701 13.7783L11.0434 14.3948C11.011 14.4221 10.9691 14.4357 10.9269 14.4325C10.8846 14.4293 10.8453 14.4096 10.8174 14.3776C10.7943 14.342 10.7862 14.2987 10.7949 14.2571C10.8037 14.2155 10.8285 14.1791 10.8639 14.1557L11.692 13.5352C11.708 13.5215 11.7265 13.511 11.7465 13.5045C11.7665 13.4979 11.7876 13.4954 11.8085 13.4969C11.8295 13.4985 11.85 13.5042 11.8688 13.5137C11.8876 13.5233 11.9043 13.5364 11.918 13.5523V13.5551Z" fill="#2B242A"/>
<path d="M13.4705 12.6585C13.4705 13.1294 13.3309 13.5897 13.0693 13.9812C12.8077 14.3727 12.4358 14.6778 12.0008 14.858C11.5658 15.0382 11.0871 15.0854 10.6253 14.9935C10.1635 14.9017 9.73924 14.6749 9.40629 14.342C9.07334 14.009 8.84659 13.5848 8.75473 13.123C8.66287 12.6612 8.71002 12.1825 8.89021 11.7474C9.0704 11.3124 9.37555 10.9406 9.76706 10.679C10.1586 10.4174 10.6189 10.2778 11.0897 10.2778C11.7211 10.278 12.3265 10.5288 12.773 10.9753C13.2194 11.4217 13.4703 12.0272 13.4705 12.6585Z" fill="#D4D921"/>
<g style="mix-blend-mode:multiply">
<path d="M9.57122 13.4393C9.24863 12.8523 9.21987 12.1257 9.3589 11.4805C9.40558 11.2568 9.47441 11.0384 9.56438 10.8284C9.10768 11.2073 8.80891 11.743 8.72662 12.3306C8.64434 12.9183 8.78446 13.5155 9.11954 14.0052C9.45461 14.4949 9.96048 14.8418 10.538 14.978C11.1156 15.1142 11.7231 15.0298 12.2417 14.7413C11.2068 14.8441 10.0835 14.3701 9.57122 13.4393Z" fill="#C1CCBC"/>
</g>
<g style="mix-blend-mode:multiply">
<path d="M9.79769 14.6584C9.85685 14.6566 9.91525 14.6446 9.97029 14.6228L9.99289 14.6139H9.99837L10.0059 14.6105L10.0134 14.6064C10.0251 14.6002 10.0347 14.5954 10.047 14.5879C10.0593 14.5804 10.0764 14.5694 10.0908 14.5591C10.1052 14.5489 10.1162 14.5393 10.1285 14.529C10.2274 14.4415 10.3016 14.3295 10.3436 14.2043C10.3873 14.0799 10.4147 13.9503 10.4251 13.8187C10.4374 13.6846 10.4402 13.5498 10.4333 13.4153C10.4278 13.2783 10.4162 13.1414 10.4004 13.001C10.3929 12.9325 10.3847 12.864 10.3764 12.7955C10.3723 12.7599 10.3703 12.727 10.3668 12.6948C10.3634 12.6626 10.3614 12.6263 10.3593 12.5928C10.3343 12.3219 10.3599 12.0488 10.4347 11.7873C10.4547 11.7256 10.4797 11.6656 10.5093 11.6078C10.5376 11.5517 10.572 11.4988 10.612 11.4503C10.6907 11.3531 10.7889 11.2735 10.9004 11.2168C11.017 11.1582 11.1416 11.1171 11.2702 11.0949L11.373 11.0784L11.4668 11.0695H11.5648L11.6627 11.0729C11.7906 11.0794 11.917 11.1041 12.038 11.1462C12.1573 11.1849 12.2699 11.242 12.3716 11.3154C12.4737 11.3871 12.5658 11.4721 12.6455 11.5681C12.7241 11.6633 12.793 11.7661 12.851 11.875L12.8627 11.8948C12.8586 11.8866 12.8627 11.8948 12.8627 11.8948V11.9003L12.8681 11.9113L12.8894 11.9551C12.9031 11.9839 12.9168 12.0133 12.9305 12.0414C12.9606 12.0996 12.9791 12.1537 12.999 12.2078L13.0305 12.288C13.0407 12.3147 13.0483 12.3428 13.0572 12.3702C13.0661 12.3976 13.075 12.4243 13.0832 12.451L13.0955 12.4914C13.0955 12.5051 13.1024 12.5181 13.1051 12.5318C13.1576 12.7269 13.1884 12.9272 13.1969 13.129C13.2047 13.285 13.2008 13.4414 13.1853 13.5968C13.1777 13.6653 13.1805 13.7585 13.1716 13.8098C13.3122 13.5632 13.4052 13.2923 13.4455 13.0112C13.44 12.851 13.3585 12.6571 13.3202 12.4729C13.3202 12.4578 13.3154 12.4434 13.3126 12.4284C13.3099 12.4133 13.3051 12.3996 13.3017 12.3845C13.2948 12.3551 13.2873 12.3256 13.2798 12.2955C13.2722 12.2654 13.2661 12.2352 13.2572 12.2044C13.2483 12.1736 13.238 12.1434 13.2284 12.1119C13.2085 12.0503 13.1894 11.9845 13.1654 11.927L13.1305 11.838L13.1127 11.7921L13.1085 11.7811V11.775V11.7681L13.0969 11.7441C13.039 11.6128 12.9679 11.4877 12.8846 11.3709C12.7969 11.2458 12.6923 11.1335 12.5736 11.0373C12.4501 10.9367 12.3114 10.8563 12.1627 10.799C12.0125 10.741 11.8547 10.7048 11.6942 10.6914C11.3657 10.6642 11.036 10.7289 10.7422 10.8784C10.5872 10.9601 10.4512 11.0735 10.3429 11.2113C10.288 11.2797 10.2407 11.3539 10.2018 11.4325C10.163 11.5089 10.1313 11.5887 10.1073 11.6709C10.0614 11.8281 10.0342 11.9901 10.0264 12.1537C10.0184 12.3076 10.0213 12.4619 10.0354 12.6154C10.0388 12.653 10.0429 12.69 10.047 12.727C10.0511 12.764 10.0566 12.803 10.0621 12.8366C10.0723 12.9051 10.0833 12.9736 10.0936 13.0421C10.1127 13.179 10.1285 13.3064 10.1388 13.4325C10.1486 13.553 10.1513 13.6739 10.147 13.7948C10.1437 13.9012 10.1271 14.0068 10.0977 14.1091C10.0747 14.1924 10.0314 14.2686 9.97166 14.3311L9.95111 14.3502L9.93262 14.3646C9.9244 14.3708 9.91275 14.3776 9.90248 14.3838L9.89494 14.3886L9.88399 14.3941C9.85447 14.408 9.82269 14.4166 9.79015 14.4194C9.75605 14.4223 9.7217 14.4205 9.6881 14.4139C9.65387 14.4078 9.6202 14.3988 9.58742 14.3872C9.52584 14.3649 9.46646 14.3369 9.41003 14.3037C9.37852 14.2852 9.35044 14.2674 9.32373 14.2495C9.46329 14.4059 9.62261 14.5433 9.79769 14.6584Z" fill="#C1CCBC"/>
</g>
<path d="M9.92895 14.5434L9.95224 14.5317H9.95772L9.96526 14.5276L9.97416 14.5235L10.0084 14.5057L10.0536 14.477C10.068 14.4667 10.0796 14.4571 10.0926 14.4468C10.194 14.3597 10.2708 14.2475 10.3152 14.1215C10.3601 13.9972 10.3884 13.8676 10.3995 13.7359C10.4117 13.602 10.4147 13.4674 10.4084 13.3332C10.4022 13.1962 10.3899 13.0592 10.3741 12.9188C10.3659 12.8503 10.3577 12.7818 10.3495 12.7099C10.3447 12.6743 10.3426 12.6414 10.3392 12.6092L10.331 12.5071C10.3054 12.2361 10.3321 11.9626 10.4098 11.7017C10.4301 11.64 10.4558 11.5802 10.4865 11.5229C10.5162 11.4666 10.5517 11.4135 10.5926 11.3647C10.6747 11.2668 10.7764 11.1872 10.8913 11.1312C11.0122 11.0725 11.1409 11.0315 11.2734 11.0093L11.3803 10.9928L11.4769 10.9846L11.5789 10.9812L11.6803 10.9846C11.8124 10.9914 11.9431 11.016 12.0686 11.0579C12.1905 11.0971 12.3059 11.1541 12.4111 11.2271C12.5162 11.2984 12.6111 11.3836 12.6933 11.4805C12.7754 11.5748 12.8474 11.6774 12.9083 11.7866L12.92 11.8065C12.92 11.7983 12.92 11.8065 12.92 11.8065V11.812L12.9254 11.8229L12.9474 11.8668L12.9898 11.9531C13.0173 12.0071 13.0415 12.0626 13.0624 12.1195C13.0741 12.1462 13.085 12.1729 13.096 12.1996C13.1069 12.2263 13.1145 12.2544 13.1234 12.2818L13.1501 12.3633L13.1631 12.403C13.1631 12.4167 13.17 12.4304 13.1727 12.4435C13.2269 12.6383 13.2588 12.8387 13.2679 13.0407C13.2758 13.1969 13.2717 13.3536 13.2556 13.5092C13.2473 13.5777 13.2384 13.6373 13.2295 13.6886C13.3464 13.4446 13.4207 13.1824 13.4494 12.9133C13.4432 12.7385 13.4221 12.5646 13.3864 12.3935L13.3782 12.3496C13.3741 12.3346 13.3706 12.3202 13.3672 12.3058L13.3446 12.2161C13.3364 12.1866 13.3302 12.1558 13.3213 12.125C13.3124 12.0941 13.3015 12.064 13.2912 12.0325C13.2706 11.9709 13.2508 11.9051 13.2227 11.8483C13.211 11.8181 13.1994 11.7887 13.1871 11.7585L13.1686 11.7133L13.1645 11.7017V11.6962V11.6928V11.6859L13.1528 11.6627C13.0927 11.5307 13.019 11.4054 12.933 11.2887C12.8418 11.163 12.7334 11.0507 12.6111 10.9551C12.4831 10.8544 12.3403 10.774 12.1878 10.7168C12.0321 10.6587 11.8692 10.6225 11.7036 10.6093C11.3644 10.5821 11.0241 10.6469 10.7187 10.7969C10.5601 10.878 10.4202 10.9911 10.3077 11.1291C10.2514 11.1975 10.2025 11.2717 10.1618 11.3503C10.1221 11.4266 10.0896 11.5064 10.0646 11.5887C10.0172 11.7445 9.98892 11.9055 9.98032 12.0681C9.97247 12.2223 9.97568 12.3768 9.98991 12.5304C9.99311 12.5674 9.99722 12.6044 10.0022 12.6414C10.007 12.6784 10.0118 12.7174 10.0173 12.751C10.0283 12.8195 10.0392 12.888 10.0495 12.9564C10.07 13.0934 10.0865 13.2208 10.0968 13.3468C10.1072 13.4673 10.11 13.5883 10.105 13.7092C10.1019 13.8157 10.0849 13.9214 10.0543 14.0235C10.0302 14.1074 9.9852 14.1838 9.92348 14.2455C9.91663 14.2516 9.90909 14.2591 9.90224 14.2646L9.88375 14.279C9.87553 14.2852 9.86252 14.292 9.85224 14.2982L9.84402 14.303L9.83238 14.3085C9.8018 14.3228 9.76883 14.3314 9.73513 14.3338C9.69988 14.3367 9.6644 14.3349 9.62965 14.3283C9.5943 14.3222 9.55949 14.3132 9.52554 14.3016C9.46188 14.2796 9.40043 14.2516 9.34199 14.2181C9.30569 14.1975 9.2735 14.1776 9.24268 14.1578C9.36965 14.3124 9.51553 14.4505 9.67691 14.5687C9.69972 14.5701 9.72259 14.5701 9.7454 14.5687C9.80759 14.5711 9.86971 14.5625 9.92895 14.5434Z" fill="white"/>
<g style="mix-blend-mode:soft-light" opacity="0.4">
<path d="M13.2432 12.1859C13.2434 12.5318 13.1409 12.8699 12.9489 13.1576C12.7568 13.4452 12.4838 13.6694 12.1643 13.8019C11.8448 13.9343 11.4932 13.969 11.154 13.9017C10.8147 13.8343 10.5031 13.6678 10.2585 13.4233C10.0139 13.1788 9.84727 12.8672 9.77974 12.528C9.71222 12.1888 9.74681 11.8372 9.87913 11.5176C10.0115 11.1981 10.2356 10.9249 10.5231 10.7328C10.8107 10.5406 11.1488 10.438 11.4947 10.438C11.7243 10.4379 11.9516 10.4831 12.1638 10.5709C12.3759 10.6587 12.5687 10.7874 12.7311 10.9497C12.8934 11.112 13.0222 11.3048 13.1101 11.5169C13.198 11.729 13.2432 11.9563 13.2432 12.1859Z" fill="white"/>
</g>
<g style="mix-blend-mode:soft-light" opacity="0.4">
<path d="M12.6627 12.9531C13.1971 12.4187 13.1971 11.5523 12.6627 11.0179C12.1283 10.4834 11.2618 10.4834 10.7274 11.0179C10.193 11.5523 10.193 12.4187 10.7274 12.9531C11.2618 13.4876 12.1283 13.4876 12.6627 12.9531Z" fill="white"/>
</g>
<g style="mix-blend-mode:soft-light" opacity="0.4">
<path d="M12.9659 11.6893C12.9659 11.8821 12.9087 12.0705 12.8016 12.2308C12.6945 12.3911 12.5423 12.516 12.3642 12.5898C12.1861 12.6636 11.9901 12.6829 11.8011 12.6452C11.612 12.6076 11.4384 12.5148 11.3021 12.3785C11.1658 12.2422 11.0729 12.0685 11.0353 11.8795C10.9977 11.6904 11.017 11.4945 11.0908 11.3164C11.1646 11.1383 11.2895 10.9861 11.4498 10.879C11.61 10.7719 11.7985 10.7147 11.9912 10.7147C12.2497 10.7147 12.4976 10.8174 12.6804 11.0002C12.8632 11.183 12.9659 11.4309 12.9659 11.6893Z" fill="white"/>
</g>
</g>
<defs>
<clipPath id="clip0_1232_5348">
<rect width="22" height="19.2035" fill="white"/>
</clipPath>
</defs>
</svg>
