<svg width="63" height="101" viewBox="0 0 63 101" fill="none" xmlns="http://www.w3.org/2000/svg">
<g opacity="0.1" clip-path="url(#clip0_1129_93327)">
<path d="M73.7802 73.0648C74.7219 76.4015 73.8691 79.3358 71.1166 81.497C70.1021 82.2953 69.9517 82.9099 70.3123 84.0661C71.2342 87.0285 71.1204 87.1343 68.0854 87.9946C66.8798 88.3363 65.6581 88.6213 64.4805 89.0328C62.835 89.6054 61.6981 89.2331 61.4647 87.4239C61.2124 85.4321 60.3905 85.1707 58.5017 85.7551C52.7198 87.5493 46.8783 89.148 41.0326 90.7315C39.7961 91.0656 39.5313 91.4798 39.9134 92.7116C40.8217 95.6697 40.7178 95.7522 37.6524 96.6211C36.4506 96.9618 35.2289 97.2468 34.0475 97.6593C32.3829 98.2374 31.3495 97.7949 31.0345 96.017C30.7568 94.4287 30.1818 93.603 28.2357 93.3619C24.973 92.9548 22.9544 90.7038 22.0528 87.5232C19.6687 79.0836 17.2695 70.6484 14.8778 62.211L7.96968 37.8404C6.28505 31.8828 8.41027 28.1466 14.4639 26.4266C16.6773 25.7992 18.886 25.1404 21.1172 24.5611C21.9201 24.3498 22.1849 24.0664 21.9101 23.2127C21.3143 21.3428 20.7821 19.4508 20.3042 17.5474C20.1094 16.7733 19.6682 16.6082 18.9616 16.4204C16.7086 15.821 15.3891 13.8621 15.3904 11.3735C15.396 9.34943 16.6219 7.86198 18.8941 7.20974C24.0214 5.7441 29.1519 4.28981 34.2818 2.84794C36.5658 2.20867 38.3813 2.8299 39.4493 4.55371C40.7541 6.6639 40.6815 9.07467 39.0555 10.7164C38.4356 11.3415 38.3286 11.8049 38.5674 12.5748C39.1126 14.3243 39.6475 16.0807 40.0547 17.8652C40.299 18.9154 40.7415 19.027 41.6896 18.7337C44.1407 17.9735 46.6192 17.2955 49.0929 16.6147C53.8738 15.3044 58.0419 17.5428 59.3793 22.2464C64.2037 39.179 69.0052 56.1181 73.7802 73.0648Z" fill="#F7F9FA"/>
<path d="M73.7802 73.0648C74.7219 76.4015 73.8691 79.3358 71.1166 81.497C70.1021 82.2953 69.9517 82.9099 70.3123 84.0661C71.2342 87.0285 71.1204 87.1343 68.0854 87.9946C66.8798 88.3363 65.6581 88.6213 64.4805 89.0328C62.835 89.6054 61.6981 89.2331 61.4647 87.4239C61.2124 85.4321 60.3905 85.1707 58.5017 85.7551C52.7198 87.5493 46.8783 89.148 41.0326 90.7315C39.7961 91.0656 39.5313 91.4798 39.9134 92.7116C40.8217 95.6697 40.7178 95.7522 37.6524 96.6211C36.4506 96.9618 35.2289 97.2468 34.0475 97.6593C32.3829 98.2374 31.3495 97.7949 31.0345 96.017C30.7568 94.4287 30.1818 93.603 28.2357 93.3619C24.973 92.9548 22.9544 90.7038 22.0528 87.5232C19.6687 79.0836 17.2695 70.6484 14.8778 62.211L7.96968 37.8404C6.28505 31.8828 8.41027 28.1466 14.4639 26.4266C16.6773 25.7992 18.886 25.1404 21.1172 24.5611C21.9201 24.3498 22.1849 24.0664 21.9101 23.2127C21.3143 21.3428 20.7821 19.4508 20.3042 17.5474C20.1094 16.7733 19.6682 16.6082 18.9616 16.4204C16.7086 15.821 15.3891 13.8621 15.3904 11.3735C15.396 9.34943 16.6219 7.86198 18.8941 7.20974C24.0214 5.7441 29.1519 4.28981 34.2818 2.84794C36.5658 2.20867 38.3813 2.8299 39.4493 4.55371C40.7541 6.6639 40.6815 9.07467 39.0555 10.7164C38.4356 11.3415 38.3286 11.8049 38.5674 12.5748C39.1126 14.3243 39.6475 16.0807 40.0547 17.8652C40.299 18.9154 40.7415 19.027 41.6896 18.7337C44.1407 17.9735 46.6192 17.2955 49.0929 16.6147C53.8738 15.3044 58.0419 17.5428 59.3793 22.2464C64.2037 39.179 69.0052 56.1181 73.7802 73.0648Z" fill="black"/>
<path d="M22.7043 60.8463C21.2764 55.8088 19.8409 50.7735 18.4205 45.7339C17.5024 42.4803 18.7225 39.8996 21.5216 39.1348C24.2483 38.3904 26.6174 39.9211 27.5078 43.0477C30.3895 53.1848 33.2636 63.324 36.1301 73.4655C37.0166 76.5931 35.8042 79.1431 33.0973 79.9431C30.3144 80.7646 27.9149 79.2139 26.9892 75.9626C25.5537 70.9272 24.1333 65.8876 22.7054 60.8501L22.7043 60.8463Z" fill="#F7F9FA"/>
<path d="M45.5406 54.4958C46.9685 59.5333 48.404 64.5686 49.8244 69.6082C50.699 72.7229 49.4687 75.2821 46.7575 76.0669C44.0349 76.855 41.6055 75.3291 40.7248 72.2366C37.8222 62.0401 34.9298 51.8365 32.05 41.6335C31.1795 38.5626 32.4963 35.9749 35.2388 35.2424C37.9052 34.5316 40.2983 36.0309 41.1485 39.0013C42.6308 44.1582 44.08 49.3286 45.5433 54.4909L45.5406 54.4958Z" fill="#F7F9FA"/>
<path d="M59.1863 50.497C60.6142 55.5345 62.0498 60.5698 63.4701 65.6094C64.3844 68.864 63.1605 71.4459 60.3653 72.2096C57.6499 72.9507 55.2689 71.4071 54.3807 68.2881C51.499 58.151 48.626 48.0155 45.7595 37.8741C44.8751 34.754 46.0929 32.1943 48.7971 31.3992C51.5887 30.5793 53.9746 32.1256 54.9025 35.3845C56.338 40.4199 57.7584 45.4595 59.1863 50.497Z" fill="#F7F9FA"/>
<path d="M31.2664 21.6637C29.6843 22.1122 28.0925 22.5266 26.5243 23.0243C25.6457 23.3019 25.1109 23.3432 24.8604 22.213C24.4695 20.428 23.945 18.6646 23.3693 16.9237C23.0541 15.9712 23.3911 15.6959 24.2538 15.4636C27.5554 14.5727 30.8521 13.6505 34.1258 12.6612C35.0864 12.3685 35.3725 12.6674 35.5903 13.5372C36.0328 15.3157 36.5182 17.0862 37.0928 18.8232C37.408 19.7757 37.0802 20.0689 36.2083 20.2833C34.5492 20.6923 32.9143 21.2007 31.2675 21.6675L31.2664 21.6637Z" fill="#F7F9FA"/>
<path d="M25.7197 59.9018C24.31 54.9286 22.9079 49.9532 21.483 44.9843C21.1614 43.8498 20.8628 42.6515 22.3303 42.2191C23.7979 41.7868 24.2025 42.9387 24.5273 44.0846C27.3524 54.0947 30.1901 64.1054 33.0391 74.1129C33.3618 75.2512 33.6517 76.4479 32.1918 76.8781C30.728 77.3093 30.3158 76.1596 29.9948 75.0126C28.5821 69.9708 27.1476 64.9392 25.7197 59.9018Z" fill="black"/>
<path d="M39.4035 56.0229C37.9938 51.0497 36.5917 46.0744 35.1668 41.1055C34.8452 39.9709 34.5466 38.7726 36.0142 38.3403C37.4817 37.9079 37.8852 39.0561 38.2111 40.2058C41.0374 50.2197 43.8739 60.2266 46.723 70.234C47.0456 71.3724 47.3394 72.568 45.8756 72.9992C44.4119 73.4305 43.9997 72.2807 43.6787 71.1337C42.2659 66.0919 40.8315 61.0604 39.4035 56.0229Z" fill="black"/>
<path d="M53.0502 52.0279C51.6588 47.119 50.2738 42.2042 48.8709 37.2985C48.5547 36.1829 48.1786 34.9575 49.6267 34.4857C51.2221 33.9681 51.5904 35.2529 51.9243 36.4453C54.7361 46.3938 57.5555 56.3402 60.3825 66.2844C60.6988 67.4001 61.0711 68.6265 59.6267 69.0972C58.0351 69.6138 57.663 68.3301 57.3292 67.1377C55.9126 62.097 54.4782 57.0654 53.0502 52.0279Z" fill="black"/>
</g>
<defs>
<clipPath id="clip0_1129_93327">
<rect width="53.7294" height="91.1772" fill="white" transform="translate(0.742188 12.3428) rotate(-15.826)"/>
</clipPath>
</defs>
</svg>
