<svg width="19" height="22" viewBox="0 0 19 22" fill="none" xmlns="http://www.w3.org/2000/svg">
<g clip-path="url(#clip0_1232_6129)">
<path d="M2.01294 9.10404L0.628418 9.14441L0.664278 10.3744L2.0488 10.334L2.01294 9.10404Z" fill="#23202F"/>
<path d="M18.1784 10.1151L18.472 20.2136C18.4823 20.5651 18.3526 20.9064 18.1114 21.1623C17.8702 21.4182 17.5372 21.5679 17.1857 21.5784L2.70581 21.9995C2.35423 22.0098 2.01295 21.8801 1.75693 21.6389C1.50091 21.3977 1.3511 21.0648 1.34042 20.7132L1.04688 10.6147L18.1784 10.1151Z" fill="#323B4B"/>
<path d="M16.6815 10.1588C14.6722 16.1734 6.19717 18.9508 1.32184 20.0718L1.04688 10.6133L16.6815 10.1588Z" fill="#334055"/>
<path d="M18.4751 9.6761L18.5083 10.8114C18.511 10.9072 18.4756 11.0001 18.4098 11.0697C18.3441 11.1394 18.2533 11.1801 18.1576 11.183L1.06064 11.68C1.01318 11.6814 0.965912 11.6735 0.921537 11.6566C0.877162 11.6397 0.836554 11.6142 0.802038 11.5816C0.767523 11.549 0.739778 11.5099 0.720393 11.4666C0.701008 11.4232 0.690363 11.3765 0.689068 11.329L0.655913 10.194C0.654542 10.1466 0.662525 10.0994 0.679408 10.055C0.696291 10.0107 0.721742 9.97009 0.754309 9.93559C0.786875 9.90108 0.825919 9.87333 0.869211 9.85392C0.912502 9.83451 0.959194 9.82381 1.00662 9.82244L18.1036 9.32539C18.1589 9.32357 18.2139 9.33473 18.2642 9.35797C18.3257 9.38588 18.378 9.43051 18.4153 9.48676C18.4526 9.54301 18.4734 9.60862 18.4751 9.6761Z" fill="#CBD3DB"/>
<path d="M2.79189 9.771L1.25672 11.6746L1.06064 11.6803C1.01318 11.6817 0.965912 11.6738 0.921537 11.6569C0.877162 11.64 0.836554 11.6145 0.802038 11.5819C0.767523 11.5493 0.739778 11.5102 0.720393 11.4669C0.701008 11.4235 0.690363 11.3768 0.689068 11.3293L0.655913 10.1943C0.654542 10.1469 0.662525 10.0996 0.679408 10.0553C0.696291 10.011 0.721742 9.97039 0.754309 9.93588C0.786875 9.90138 0.825919 9.87363 0.869211 9.85421C0.912502 9.8348 0.959194 9.8241 1.00662 9.82273L2.79189 9.771Z" fill="#363545"/>
<path d="M6.66747 9.65808L5.13258 11.562L2.66162 11.6337L4.19622 9.72982L6.66747 9.65808Z" fill="#363545"/>
<path d="M10.5435 9.54541L9.00836 11.449L6.53711 11.521L8.07199 9.61715L10.5435 9.54541Z" fill="#363545"/>
<path d="M14.4195 9.4325L12.8843 11.3364L10.4131 11.4084L11.948 9.50452L14.4195 9.4325Z" fill="#363545"/>
<path d="M18.2643 9.35822L16.76 11.2238L14.2891 11.2958L15.8239 9.39194L18.1037 9.32563C18.159 9.32381 18.2141 9.33497 18.2643 9.35822Z" fill="#363545"/>
<g style="mix-blend-mode:screen">
<path d="M17.3566 9.88072L1.28003 10.3483C1.25931 10.3496 1.23854 10.3467 1.21897 10.3397C1.1994 10.3328 1.18142 10.322 1.16609 10.308C1.15077 10.294 1.13842 10.2771 1.12978 10.2582C1.12114 10.2393 1.11638 10.2189 1.11579 10.1981C1.11519 10.1774 1.11878 10.1567 1.12632 10.1374C1.13387 10.118 1.14523 10.1004 1.15973 10.0855C1.17422 10.0707 1.19156 10.0589 1.2107 10.0508C1.22984 10.0428 1.25041 10.0387 1.27117 10.0388L17.3477 9.57117C17.3879 9.5713 17.4265 9.58709 17.4553 9.61517C17.4841 9.64326 17.5009 9.68144 17.502 9.72165C17.5032 9.76186 17.4887 9.80094 17.4615 9.83063C17.4344 9.86032 17.3967 9.87828 17.3566 9.88072Z" fill="#272631"/>
</g>
<path d="M15.8012 0.192387L16.332 1.19621C16.3542 1.23817 16.3679 1.2841 16.3724 1.33138C16.3769 1.37865 16.372 1.42634 16.358 1.47173C16.3441 1.51712 16.3213 1.55931 16.291 1.59589C16.2608 1.63248 16.2236 1.66275 16.1816 1.68497L1.06144 9.68066C1.01947 9.70285 0.973528 9.71655 0.926252 9.72098C0.878975 9.72541 0.83129 9.72047 0.785923 9.70646C0.740556 9.69244 0.698396 9.66962 0.661856 9.63929C0.625315 9.60897 0.59511 9.57174 0.572968 9.52974L0.0416187 8.52592C0.01937 8.48401 0.00560946 8.43812 0.00112569 8.39088C-0.00335809 8.34364 0.00152283 8.29598 0.0154889 8.25063C0.029455 8.20528 0.0522317 8.16313 0.0825142 8.1266C0.112797 8.09006 0.14999 8.05986 0.191963 8.03773L15.3121 0.0420425C15.3609 0.0159025 15.4152 0.00160816 15.4705 0.00031306C15.5381 -0.00188678 15.6049 0.014954 15.6634 0.048916C15.7219 0.0828779 15.7696 0.132593 15.8012 0.192387Z" fill="#CBD3DB"/>
<path d="M1.77144 7.20288L1.23494 9.58895L1.06144 9.68071C1.01947 9.7029 0.973528 9.7166 0.926252 9.72103C0.878975 9.72546 0.83129 9.72052 0.785923 9.7065C0.740556 9.69249 0.698396 9.66966 0.661855 9.63934C0.625315 9.60902 0.59511 9.57179 0.572968 9.52979L0.0416187 8.52597C0.01937 8.48406 0.00560946 8.43816 0.00112569 8.39092C-0.00335809 8.34368 0.00152283 8.29603 0.0154889 8.25068C0.029455 8.20533 0.0522317 8.16318 0.0825142 8.12664C0.112797 8.09011 0.14999 8.05991 0.191963 8.03778L1.77144 7.20288Z" fill="#363545"/>
<path d="M5.19946 5.39014L4.66296 7.77621L2.47754 8.9318L3.01375 6.54602L5.19946 5.39014Z" fill="#363545"/>
<path d="M8.62699 3.57739L8.09049 5.96346L5.90479 7.11934L6.44128 4.73327L8.62699 3.57739Z" fill="#363545"/>
<path d="M12.0547 1.76501L11.5182 4.1508L9.33252 5.30668L9.86901 2.92089L12.0547 1.76501Z" fill="#363545"/>
<path d="M15.4712 0.000366211L14.9453 2.33871L12.7607 3.4943L13.2972 1.10823L15.3135 0.0420956C15.3621 0.0160421 15.4161 0.00175043 15.4712 0.000366211Z" fill="#363545"/>
<g style="mix-blend-mode:screen">
<path d="M0.602309 8.4073C0.567336 8.40832 0.533046 8.39747 0.505024 8.37652C0.477002 8.35557 0.456897 8.32575 0.447983 8.29191C0.439069 8.25808 0.441871 8.22222 0.455932 8.19018C0.469993 8.15815 0.494486 8.13181 0.525422 8.11547L14.7432 0.598255C14.7613 0.58796 14.7812 0.581394 14.8018 0.578954C14.8225 0.576513 14.8434 0.578246 14.8633 0.584048C14.8833 0.58985 14.9018 0.599604 14.9179 0.612728C14.934 0.625853 14.9473 0.642082 14.957 0.660448C14.9667 0.678814 14.9726 0.698942 14.9744 0.719637C14.9762 0.740332 14.9737 0.761173 14.9673 0.780916C14.9608 0.800659 14.9505 0.818903 14.9368 0.834564C14.9232 0.850225 14.9065 0.86298 14.8879 0.872075L0.670622 8.38843C0.649659 8.40002 0.62625 8.40649 0.602309 8.4073Z" fill="#272631"/>
</g>
<path d="M1.2266 9.14124C1.22586 9.20092 1.20742 9.25904 1.17363 9.30823C1.13983 9.35743 1.09219 9.39549 1.03675 9.41759C0.981307 9.4397 0.920552 9.44485 0.862178 9.4324C0.803805 9.41995 0.75044 9.39045 0.708841 9.34765C0.667241 9.30485 0.63928 9.25066 0.628497 9.19196C0.617714 9.13326 0.624595 9.07267 0.648268 9.01788C0.671942 8.96309 0.711342 8.91656 0.76148 8.88417C0.811618 8.85179 0.870239 8.83502 0.929917 8.83598C1.00969 8.83726 1.08571 8.8701 1.14132 8.92732C1.19693 8.98453 1.2276 9.06146 1.2266 9.14124Z" fill="#23202F"/>
<path d="M17.4905 14.4905L2.17943 14.9358C2.13834 14.937 2.09847 14.9218 2.06859 14.8936C2.03871 14.8654 2.02126 14.8264 2.02008 14.7853C2.01891 14.7442 2.0341 14.7044 2.06232 14.6745C2.09055 14.6446 2.12948 14.6272 2.17057 14.626L17.4817 14.1809C17.5024 14.1797 17.5232 14.1826 17.5427 14.1895C17.5623 14.1965 17.5803 14.2072 17.5956 14.2213C17.6109 14.2353 17.6233 14.2522 17.6319 14.2711C17.6406 14.29 17.6453 14.3104 17.6459 14.3312C17.6465 14.3519 17.6429 14.3726 17.6354 14.3919C17.6278 14.4112 17.6165 14.4289 17.602 14.4437C17.5875 14.4586 17.5702 14.4704 17.551 14.4784C17.5319 14.4865 17.5113 14.4906 17.4905 14.4905Z" fill="#CBD3DB"/>
<path d="M6.48242 14.8098C6.44134 14.811 6.40149 14.7958 6.37159 14.7676C6.3417 14.7395 6.3242 14.7006 6.32293 14.6595L6.2569 12.3889C6.25572 12.3478 6.27092 12.3079 6.29914 12.2781C6.32736 12.2482 6.3663 12.2307 6.40739 12.2296C6.44847 12.2284 6.48834 12.2436 6.51823 12.2718C6.54811 12.3 6.56556 12.339 6.56673 12.38L6.63276 14.6504C6.63391 14.6914 6.61874 14.7313 6.59055 14.7612C6.56237 14.7911 6.52348 14.8086 6.48242 14.8098Z" fill="#CBD3DB"/>
<path d="M14.2568 14.5846C14.2364 14.5852 14.2162 14.5818 14.1972 14.5746C14.1782 14.5674 14.1608 14.5564 14.146 14.5425C14.1312 14.5285 14.1193 14.5118 14.111 14.4932C14.1027 14.4746 14.0981 14.4546 14.0976 14.4343L14.0315 12.164C14.0303 12.1432 14.0332 12.1225 14.0401 12.1029C14.047 12.0834 14.0578 12.0654 14.0718 12.0501C14.0858 12.0347 14.1027 12.0224 14.1216 12.0137C14.1404 12.0051 14.1608 12.0003 14.1816 11.9997C14.2023 11.9991 14.223 12.0026 14.2423 12.0102C14.2617 12.0177 14.2793 12.029 14.2942 12.0435C14.309 12.058 14.3209 12.0753 14.3289 12.0944C14.337 12.1135 14.3411 12.1341 14.3411 12.1548L14.4071 14.4254C14.4083 14.4665 14.3931 14.5063 14.3649 14.5361C14.3367 14.566 14.2978 14.5834 14.2568 14.5846Z" fill="#CBD3DB"/>
<path d="M17.5936 18.0222L2.28248 18.4684C2.26177 18.4696 2.24102 18.4667 2.22145 18.4598C2.20189 18.4529 2.18391 18.4421 2.16859 18.4281C2.15327 18.4141 2.14092 18.3972 2.13227 18.3783C2.12362 18.3595 2.11884 18.3391 2.11823 18.3183C2.11762 18.2976 2.12118 18.2769 2.1287 18.2576C2.13622 18.2382 2.14755 18.2206 2.16202 18.2057C2.17649 18.1909 2.1938 18.179 2.21292 18.171C2.23204 18.1629 2.25259 18.1588 2.27334 18.1588L17.5844 17.7135C17.6247 17.7136 17.6633 17.7293 17.6922 17.7574C17.7211 17.7854 17.7379 17.8236 17.739 17.8638C17.7402 17.9041 17.7257 17.9432 17.6986 17.9729C17.6714 18.0026 17.6338 18.0206 17.5936 18.0231V18.0222Z" fill="#CBD3DB"/>
<path d="M2.05127 12.4486C2.10393 12.4375 2.15752 12.4314 2.21133 12.4303C2.30051 12.4278 2.35853 12.4426 2.39998 12.4792C2.41727 12.4951 2.43103 12.5145 2.44038 12.5361C2.44974 12.5576 2.45447 12.5809 2.45428 12.6044C2.45619 12.6421 2.44582 12.6794 2.42475 12.7106C2.40367 12.7419 2.37301 12.7655 2.33738 12.7779V12.7808C2.38769 12.7971 2.41884 12.8436 2.43628 12.9125C2.44927 12.9745 2.46773 13.0353 2.49144 13.094L2.40569 13.0966C2.38486 13.0455 2.36888 12.9926 2.35796 12.9385C2.33595 12.8471 2.3008 12.8136 2.22448 12.8128L2.14588 12.8151L2.15417 13.1037L2.07071 13.1063L2.05127 12.4486ZM2.14359 12.7499L2.22934 12.7473C2.31852 12.7447 2.37368 12.6927 2.37225 12.6164C2.36997 12.5307 2.30823 12.4946 2.21991 12.4964C2.19215 12.4964 2.1645 12.4998 2.13759 12.5067L2.14359 12.7499Z" fill="#CBD3DB"/>
<path d="M3.22822 12.7322C3.23479 12.9608 3.10303 13.0872 2.93811 13.092C2.76661 13.0969 2.64342 12.964 2.63742 12.7622C2.63141 12.5507 2.75489 12.4086 2.92782 12.4035C3.10074 12.3983 3.2225 12.5344 3.22822 12.7322ZM2.72659 12.7576C2.73088 12.9005 2.80948 13.0254 2.94096 13.0217C3.07244 13.018 3.14447 12.8899 3.14104 12.7387C3.13704 12.6061 3.06587 12.4698 2.92667 12.4738C2.78748 12.4778 2.72259 12.6113 2.72659 12.7576Z" fill="#CBD3DB"/>
<path d="M3.42334 12.4L3.5068 12.3975L3.52424 12.9917L3.80034 12.9837L3.80263 13.056L3.44306 13.0663L3.42334 12.4Z" fill="#CBD3DB"/>
<path d="M3.97217 12.384L4.05563 12.3815L4.07306 12.9757L4.34946 12.9677L4.35146 13.04L3.9916 13.0503L3.97217 12.384Z" fill="#CBD3DB"/>
<path d="M2.35449 15.733C2.42824 15.7079 2.50529 15.6938 2.58315 15.6913C2.73864 15.6867 2.85126 15.7561 2.92872 15.8913C3.00618 16.0265 3.05648 16.2209 3.06448 16.4936C3.07249 16.7662 3.0359 16.9955 2.96301 17.153C2.89013 17.3105 2.76294 17.4016 2.59944 17.4065C2.53347 17.409 2.46743 17.4042 2.40251 17.3922L2.35449 15.733ZM2.50598 17.2216C2.54184 17.2305 2.57888 17.2337 2.61574 17.231C2.84668 17.2241 2.96473 16.9603 2.95158 16.5047C2.94129 16.1068 2.8221 15.8573 2.59316 15.8639C2.54982 15.864 2.50694 15.8728 2.46711 15.8899L2.50598 17.2216Z" fill="#CBD3DB"/>
<path d="M3.35169 15.6815L3.40086 17.3679L3.29281 17.371L3.24365 15.6847L3.35169 15.6815Z" fill="#CBD3DB"/>
<path d="M3.60352 15.6959C3.66936 15.6698 3.73937 15.6559 3.81017 15.6547C3.9245 15.6516 4.00167 15.6919 4.05655 15.7853C4.10085 15.8594 4.12801 15.9737 4.13172 16.1037C4.1383 16.3267 4.07284 16.4753 3.98652 16.5388V16.5465C4.05255 16.5896 4.09456 16.7085 4.11943 16.8832C4.15373 17.1176 4.17831 17.2799 4.19775 17.3445L4.0857 17.3477C4.07084 17.3005 4.04797 17.1559 4.01825 16.9475C3.98652 16.7154 3.93908 16.6291 3.84075 16.6245L3.739 16.6274L3.76015 17.3582L3.65211 17.3614L3.60352 15.6959ZM3.73414 16.461L3.84475 16.4579C3.95908 16.4545 4.02997 16.3247 4.02425 16.132C4.01796 15.9142 3.93679 15.8213 3.82246 15.8222C3.7857 15.8215 3.74928 15.8295 3.71613 15.8454L3.73414 16.461Z" fill="#CBD3DB"/>
<path d="M4.79388 16.5362L4.46832 16.5459L4.48604 17.1538L4.84876 17.1435L4.85419 17.3262L4.38315 17.3399L4.33398 15.6535L4.78645 15.6387L4.79188 15.8213L4.44746 15.8313L4.46289 16.3644L4.78873 16.355L4.79388 16.5362Z" fill="#CBD3DB"/>
<path d="M5.6406 17.2482C5.58109 17.3034 5.50286 17.3341 5.42166 17.3339C5.18528 17.3408 4.99892 17.0455 4.98292 16.4925C4.96748 15.9643 5.13498 15.6013 5.39451 15.5935C5.43079 15.5913 5.46717 15.5963 5.50152 15.6082C5.53586 15.6201 5.5675 15.6387 5.59458 15.663L5.57343 15.8414C5.5271 15.7979 5.46546 15.7744 5.40194 15.7762C5.20558 15.7819 5.08238 16.0386 5.09525 16.4816C5.10725 16.8946 5.23301 17.1564 5.43681 17.1504C5.50239 17.1482 5.56473 17.1213 5.61145 17.0753L5.6406 17.2482Z" fill="#CBD3DB"/>
<path d="M5.99037 15.7902L5.73541 15.7976L5.72998 15.6124L6.35022 15.5944L6.35565 15.7796L6.09841 15.787L6.14214 17.2887L6.03267 17.2919L5.99037 15.7902Z" fill="#CBD3DB"/>
<path d="M7.21197 16.3958C7.22883 16.9766 7.06277 17.2896 6.84897 17.2956C6.62774 17.3022 6.46225 16.9612 6.44738 16.4507C6.43166 15.915 6.58687 15.5598 6.81067 15.5532C7.03933 15.5466 7.19739 15.8959 7.21197 16.3958ZM6.56286 16.4424C6.57343 16.8025 6.67976 17.1227 6.84868 17.1178C7.01761 17.1129 7.10793 16.7922 7.09678 16.4092C7.08706 16.0737 6.98988 15.7258 6.81095 15.7313C6.63203 15.7367 6.552 16.072 6.56286 16.4424Z" fill="#CBD3DB"/>
<path d="M7.3916 15.5866C7.45731 15.5605 7.52725 15.5465 7.59797 15.5455C7.71373 15.5421 7.78947 15.5826 7.84435 15.6761C7.88894 15.7499 7.9158 15.8645 7.91952 15.9945C7.92609 16.2172 7.86093 16.3661 7.77432 16.4295V16.437C7.84006 16.4804 7.88208 16.5993 7.90723 16.774C7.94124 17.0083 7.96611 17.1704 7.98526 17.235L7.8735 17.2393C7.85835 17.1921 7.83549 17.0475 7.80576 16.8391C7.77404 16.6073 7.72687 16.521 7.62855 16.5162L7.52651 16.5193L7.54766 17.2502L7.43962 17.2533L7.3916 15.5866ZM7.52194 16.3532L7.63255 16.3501C7.74831 16.3467 7.81777 16.2169 7.81234 16.0242C7.80605 15.8064 7.72487 15.7136 7.61054 15.7144C7.57377 15.7136 7.53732 15.7215 7.50422 15.7376L7.52194 16.3532Z" fill="#CBD3DB"/>
<path d="M7.17255 12.8528C7.21826 12.8796 7.27051 12.8931 7.32347 12.892C7.40922 12.8897 7.45724 12.8416 7.45552 12.7745C7.45352 12.7122 7.41808 12.6776 7.32976 12.6456C7.22315 12.6101 7.15626 12.5555 7.1534 12.4615C7.15026 12.3577 7.23172 12.2783 7.3572 12.2746C7.40651 12.2716 7.45574 12.2814 7.50011 12.3032L7.47925 12.374C7.44109 12.3541 7.3985 12.3443 7.35548 12.3455C7.26716 12.348 7.23515 12.4026 7.23629 12.4489C7.23829 12.5112 7.2786 12.5407 7.36863 12.5738C7.47953 12.6141 7.5367 12.667 7.54013 12.7648C7.54298 12.8677 7.47181 12.9588 7.31918 12.9631C7.26137 12.9655 7.20397 12.9525 7.15283 12.9254L7.17255 12.8528Z" fill="#CBD3DB"/>
<path d="M8.20725 12.9059C8.15402 12.9303 8.09606 12.9428 8.03747 12.9425C7.85512 12.9479 7.71449 12.833 7.7082 12.6146C7.7022 12.406 7.83511 12.2605 8.03576 12.2548C8.08846 12.251 8.14131 12.2596 8.1901 12.2799L8.1721 12.3508C8.13063 12.333 8.08569 12.3248 8.04062 12.3268C7.88913 12.3314 7.79138 12.434 7.79624 12.6092C7.8011 12.7721 7.89542 12.8744 8.05348 12.8699C8.09995 12.8688 8.14566 12.8577 8.18753 12.8376L8.20725 12.9059Z" fill="#CBD3DB"/>
<path d="M8.73444 12.5998L8.48291 12.6069L8.49006 12.8473L8.77017 12.839L8.77245 12.9113L8.4086 12.9219L8.38916 12.2554L8.73844 12.2454L8.74073 12.3174L8.47491 12.3251L8.48091 12.5358L8.73244 12.5283L8.73444 12.5998Z" fill="#CBD3DB"/>
<path d="M8.97696 12.9053L8.95752 12.2387L9.0487 12.2362L9.26564 12.5674C9.31111 12.6357 9.35207 12.7068 9.38826 12.7804H9.39026C9.37997 12.6915 9.37568 12.6106 9.37282 12.5066L9.36454 12.2279L9.44314 12.2256L9.46257 12.8921L9.37825 12.8944L9.16303 12.5623C9.11635 12.4918 9.07379 12.4187 9.03555 12.3433H9.03269C9.04012 12.4271 9.04441 12.5071 9.04755 12.618L9.05584 12.9038L8.97696 12.9053Z" fill="#CBD3DB"/>
<path d="M10.0298 12.5621L9.77832 12.5692L9.78547 12.8096L10.0656 12.8013L10.0679 12.8736L9.70401 12.8842L9.68457 12.2176L10.0338 12.2076L10.0361 12.2797L9.77032 12.2877L9.77632 12.498L10.0278 12.4909L10.0298 12.5621Z" fill="#CBD3DB"/>
<path d="M11.1772 19.383C11.1234 19.4076 11.0649 19.4201 11.0057 19.4196C10.8237 19.4251 10.6828 19.3104 10.6765 19.0918C10.6705 18.8831 10.8037 18.7376 11.004 18.7319C11.0567 18.7282 11.1096 18.7368 11.1584 18.7571L11.1404 18.828C11.099 18.8102 11.0541 18.802 11.0092 18.804C10.8574 18.8085 10.7596 18.9111 10.7648 19.0864C10.7694 19.2493 10.8637 19.3516 11.022 19.347C11.0689 19.3463 11.1152 19.3355 11.1575 19.3153L11.1772 19.383Z" fill="#CBD3DB"/>
<path d="M11.4809 19.1872L11.4197 19.399L11.334 19.4013L11.5341 18.7284L11.6347 18.7256L11.8748 19.3856L11.7856 19.3881L11.7104 19.1806L11.4809 19.1872ZM11.691 19.114L11.6221 18.9239C11.6064 18.8808 11.5955 18.8416 11.5849 18.8033H11.5829C11.5744 18.8431 11.5652 18.8839 11.5544 18.9248L11.4972 19.1195L11.691 19.114Z" fill="#CBD3DB"/>
<path d="M12.5984 19.0717C12.591 18.9789 12.5819 18.8674 12.5804 18.7842H12.5776C12.5579 18.8631 12.5333 18.9468 12.5033 19.0397L12.3987 19.3664L12.3352 19.3684L12.2209 19.054C12.1874 18.9608 12.1591 18.8757 12.1386 18.7968H12.1366C12.1366 18.88 12.1366 18.9917 12.1326 19.0918L12.1237 19.3776L12.0439 19.3799L12.0697 18.7122L12.1763 18.709L12.296 19.028C12.3246 19.1095 12.3495 19.1821 12.3678 19.2507H12.3706C12.3849 19.1829 12.4058 19.1078 12.4324 19.0243L12.5381 18.6985L12.6445 18.6953L12.7042 19.3607L12.6227 19.363L12.5984 19.0717Z" fill="#CBD3DB"/>
<path d="M13.2547 19.0329L13.0034 19.04L13.0103 19.2804L13.2907 19.2724L13.2927 19.3444L12.9291 19.355L12.9097 18.6885L13.2589 18.6785L13.2609 18.7505L12.9951 18.7585L13.0014 18.9689L13.2527 18.9617L13.2547 19.0329Z" fill="#CBD3DB"/>
<path d="M13.478 18.681C13.5306 18.6696 13.5841 18.6634 13.6378 18.6624C13.7273 18.6598 13.7853 18.675 13.8264 18.7113C13.8438 18.7271 13.8576 18.7465 13.867 18.7681C13.8764 18.7896 13.8812 18.8129 13.881 18.8365C13.8829 18.8741 13.8726 18.9114 13.8515 18.9427C13.8304 18.974 13.7998 18.9976 13.7641 19.0099V19.0131C13.8144 19.0294 13.8456 19.076 13.863 19.1449C13.876 19.2068 13.8945 19.2674 13.9182 19.3261L13.8325 19.3286C13.8116 19.2776 13.7956 19.2248 13.7844 19.1709C13.7627 19.0794 13.7273 19.0457 13.6512 19.0451L13.5726 19.0474L13.5809 19.3361L13.4975 19.3384L13.478 18.681ZM13.5703 18.9819L13.6561 18.9797C13.7453 18.9771 13.8004 18.9248 13.799 18.8487C13.7964 18.763 13.735 18.727 13.6467 18.7284C13.6189 18.7284 13.5913 18.7319 13.5643 18.7387L13.5703 18.9819Z" fill="#CBD3DB"/>
<path d="M14.2128 19.1077L14.1517 19.3195L14.0659 19.3218L14.266 18.6493L14.3669 18.6461L14.607 19.3061L14.5175 19.3089L14.4423 19.1012L14.2128 19.1077ZM14.4229 19.0346L14.354 18.8445C14.3383 18.8013 14.3277 18.7622 14.3169 18.7239H14.3149C14.3066 18.7636 14.2971 18.8045 14.2863 18.8453L14.2291 19.0403L14.4229 19.0346Z" fill="#CBD3DB"/>
<path d="M15.2805 12.7004C15.2272 12.7247 15.1693 12.7372 15.1107 12.737C14.9284 12.7421 14.7878 12.6275 14.7815 12.4092C14.7752 12.2005 14.9084 12.055 15.109 12.0493C15.1617 12.0456 15.2146 12.0542 15.2634 12.0745L15.2451 12.1453C15.2037 12.1275 15.1589 12.1193 15.1139 12.1213C14.9624 12.1259 14.8644 12.2285 14.8695 12.4037C14.8744 12.5666 14.9684 12.669 15.1267 12.6644C15.1736 12.6635 15.2198 12.6527 15.2622 12.6327L15.2805 12.7004Z" fill="#CBD3DB"/>
<path d="M15.5457 12.0476L15.5572 12.442C15.5618 12.5912 15.6278 12.6527 15.7141 12.6501C15.8101 12.6472 15.8696 12.5803 15.8653 12.4329L15.8539 12.0384L15.9382 12.0361L15.9496 12.4246C15.9556 12.6292 15.8533 12.7164 15.7132 12.7204C15.5809 12.7244 15.4789 12.6489 15.4729 12.4426L15.4614 12.0499L15.5457 12.0476Z" fill="#CBD3DB"/>
<path d="M16.3054 12.0988L16.1087 12.1045L16.1064 12.0313L16.5855 12.0173L16.5875 12.0905L16.3897 12.0962L16.4071 12.6893L16.3214 12.6919L16.3054 12.0988Z" fill="#CBD3DB"/>
<path d="M2.24268 19.0077C2.30117 18.9968 2.36041 18.9904 2.41989 18.9886C2.53965 18.9851 2.62597 19.0114 2.68428 19.064C2.74258 19.1166 2.77917 19.1929 2.78231 19.3007C2.78595 19.3478 2.78025 19.3952 2.76553 19.4402C2.75082 19.4851 2.72738 19.5267 2.69657 19.5625C2.63769 19.6265 2.53908 19.6631 2.41331 19.6668C2.36269 19.6686 2.31202 19.6673 2.26154 19.6631L2.24268 19.0077ZM2.34329 19.5945C2.37175 19.5978 2.40043 19.5986 2.42903 19.5971C2.60739 19.592 2.70143 19.4862 2.69628 19.3061C2.69257 19.1489 2.60339 19.0517 2.42675 19.0569C2.39392 19.0572 2.36123 19.0611 2.32928 19.0686L2.34329 19.5945Z" fill="#CBD3DB"/>
<path d="M3.08051 19.4316L3.01934 19.6431L2.93359 19.6457L3.13367 18.9728L3.23457 18.97L3.47466 19.6299L3.3852 19.6325L3.31003 19.425L3.08051 19.4316ZM3.29059 19.3581L3.22171 19.168C3.20599 19.1252 3.19541 19.0857 3.18455 19.0474H3.18255C3.17426 19.0872 3.16483 19.128 3.15397 19.1689L3.0968 19.3635L3.29059 19.3581Z" fill="#CBD3DB"/>
<path d="M3.69698 19.0297L3.50005 19.0354L3.49805 18.9622L3.9768 18.9482L3.97909 19.0214L3.7813 19.0271L3.79845 19.6205L3.71413 19.6228L3.69698 19.0297Z" fill="#CBD3DB"/>
<path d="M4.48952 19.2875L4.23828 19.2949L4.24514 19.5353L4.52525 19.527L4.52754 19.5993L4.16368 19.6099L4.14453 18.9434L4.49381 18.9333L4.49581 19.0054L4.22999 19.0131L4.236 19.2237L4.48752 19.2163L4.48952 19.2875Z" fill="#CBD3DB"/>
<path d="M9.89747 21.3446C9.87717 21.3453 9.85694 21.3419 9.83794 21.3346C9.81895 21.3274 9.80156 21.3165 9.78677 21.3026C9.77199 21.2887 9.7601 21.272 9.75177 21.2534C9.74345 21.2349 9.73886 21.2149 9.73827 21.1946L9.64823 18.0985C9.64698 18.0778 9.64989 18.0571 9.65681 18.0375C9.66372 18.0179 9.6745 18 9.68849 17.9846C9.70249 17.9693 9.71942 17.957 9.73828 17.9483C9.75714 17.9397 9.77755 17.9349 9.79829 17.9343C9.81903 17.9337 9.83969 17.9372 9.85903 17.9447C9.87837 17.9523 9.896 17.9636 9.91087 17.9781C9.92575 17.9925 9.93757 18.0098 9.94563 18.029C9.95368 18.0481 9.95782 18.0686 9.95778 18.0894L10.0478 21.1854C10.0484 21.2058 10.045 21.226 10.0378 21.245C10.0306 21.2641 10.0196 21.2815 10.0057 21.2962C9.99172 21.311 9.97497 21.3229 9.9564 21.3312C9.93783 21.3395 9.91781 21.3441 9.89747 21.3446Z" fill="#CBD3DB"/>
<path d="M1.78149 20.4863C1.76623 20.4868 1.75103 20.4842 1.73675 20.4788C1.72248 20.4733 1.70942 20.4651 1.69832 20.4547C1.68722 20.4442 1.6783 20.4316 1.67207 20.4176C1.66584 20.4037 1.66243 20.3887 1.66202 20.3734L1.42193 12.1173C1.42102 12.0866 1.43237 12.0567 1.45349 12.0343C1.47461 12.0119 1.50376 11.9988 1.53454 11.9979C1.56532 11.9969 1.5952 12.0083 1.6176 12.0294C1.64001 12.0505 1.65311 12.0797 1.65402 12.1105L1.89411 20.3668C1.89496 20.3976 1.88358 20.4274 1.86248 20.4498C1.84137 20.4722 1.81225 20.4853 1.78149 20.4863Z" fill="#556987"/>
<path d="M16.9515 21.2157L12.0853 21.3586C12.0553 21.3583 12.0265 21.3464 12.0051 21.3253C11.9836 21.3043 11.9712 21.2757 11.9703 21.2457C11.9694 21.2157 11.9802 21.1865 12.0003 21.1642C12.0205 21.1419 12.0485 21.1283 12.0785 21.1262L16.945 20.9833C16.9606 20.9822 16.9763 20.9843 16.9911 20.9895C17.0059 20.9946 17.0195 21.0027 17.0311 21.0132C17.0427 21.0237 17.0521 21.0365 17.0587 21.0507C17.0652 21.065 17.0688 21.0804 17.0693 21.0961C17.0697 21.1117 17.067 21.1273 17.0612 21.1419C17.0555 21.1565 17.0469 21.1698 17.0359 21.181C17.0249 21.1921 17.0117 21.201 16.9972 21.2069C16.9828 21.2129 16.9672 21.2159 16.9515 21.2157Z" fill="#302F3D"/>
<path d="M18.1343 20.0118C18.119 20.0122 18.1038 20.0097 18.0896 20.0042C18.0753 19.9988 18.0623 19.9907 18.0512 19.9802C18.0401 19.9698 18.0312 19.9572 18.0249 19.9433C18.0187 19.9294 18.0152 19.9144 18.0148 19.8991L17.7747 11.6431C17.7736 11.6274 17.7757 11.6118 17.7808 11.5969C17.7859 11.5821 17.794 11.5685 17.8045 11.5569C17.815 11.5453 17.8278 11.5359 17.842 11.5294C17.8562 11.5228 17.8717 11.5192 17.8873 11.5187C17.903 11.5183 17.9186 11.521 17.9332 11.5267C17.9477 11.5324 17.961 11.541 17.9722 11.552C17.9834 11.5629 17.9922 11.5761 17.9982 11.5905C18.0042 11.605 18.0072 11.6205 18.0071 11.6362L18.2472 19.8923C18.248 19.9231 18.2366 19.953 18.2154 19.9754C18.1943 19.9978 18.1651 20.0109 18.1343 20.0118Z" fill="#302F3D"/>
<path d="M8.55941 21.4598L2.84804 21.6259C2.81799 21.6256 2.78923 21.6137 2.76778 21.5926C2.74632 21.5716 2.73385 21.543 2.73296 21.513C2.73207 21.483 2.74285 21.4537 2.76302 21.4315C2.78319 21.4092 2.8112 21.3956 2.84118 21.3935L8.55255 21.2275C8.56818 21.2264 8.58387 21.2285 8.59867 21.2336C8.61347 21.2387 8.62709 21.2468 8.6387 21.2573C8.65032 21.2678 8.65968 21.2806 8.66625 21.2948C8.67281 21.309 8.67643 21.3244 8.67689 21.3401C8.67735 21.3557 8.67465 21.3713 8.66894 21.3859C8.66322 21.4005 8.65462 21.4138 8.64365 21.425C8.63268 21.4362 8.61957 21.445 8.60509 21.451C8.59061 21.457 8.57507 21.46 8.55941 21.4598Z" fill="#302F3D"/>
</g>
<defs>
<clipPath id="clip0_1232_6129">
<rect width="18.5084" height="22" fill="white"/>
</clipPath>
</defs>
</svg>
