<svg width="12" height="12" viewBox="0 0 12 12" fill="none" xmlns="http://www.w3.org/2000/svg">
<g clip-path="url(#clip0_3746_3374)">
<path d="M8.22598 7.71311C8.05434 7.9359 7.77765 7.9495 7.50189 7.74406C6.93303 7.3196 6.36745 6.89044 5.79625 6.46832C5.61101 6.33136 5.52941 6.16204 5.53128 5.92988C5.53785 5.07109 5.53316 4.21231 5.5341 3.35305C5.53456 2.99988 5.72356 2.77756 6.01151 2.78507C6.29148 2.7921 6.46594 3.00785 6.46688 3.35165C6.46828 3.7264 6.46735 4.10115 6.46735 4.4759C6.46735 4.85065 6.47438 5.22587 6.46406 5.60015C6.45984 5.7479 6.50205 5.84029 6.62445 5.92894C7.11077 6.28165 7.58865 6.64514 8.06747 7.00816C8.34088 7.215 8.39903 7.48845 8.22598 7.71311Z" fill="#F7F9FA"/>
<path d="M6.02018 2.69777e-05C2.71066 -0.00982254 0.00704831 2.67863 1.37607e-05 5.98619C-0.00702079 9.29469 2.68393 11.9958 5.99157 12C9.30015 12.0043 11.9986 9.31064 12 6.00261C12.001 2.70396 9.3175 0.0098765 6.02018 2.69777e-05ZM5.98782 11.0676C3.18619 11.0615 0.921539 8.78064 0.932795 5.97634C0.94405 3.18517 3.21808 0.927289 6.01221 0.932917C8.81383 0.938546 11.0785 3.21941 11.0672 6.02418C11.056 8.81535 8.78194 11.0732 5.98782 11.0676Z" fill="#F7F9FA"/>
<path d="M8.22598 7.71311C8.05434 7.9359 7.77765 7.9495 7.50189 7.74406C6.93303 7.3196 6.36745 6.89044 5.79625 6.46832C5.61101 6.33136 5.52941 6.16204 5.53128 5.92988C5.53785 5.07109 5.53316 4.21231 5.5341 3.35305C5.53456 2.99988 5.72356 2.77756 6.01151 2.78507C6.29148 2.7921 6.46594 3.00785 6.46688 3.35165C6.46828 3.7264 6.46735 4.10115 6.46735 4.4759C6.46735 4.85065 6.47438 5.22587 6.46406 5.60015C6.45984 5.7479 6.50205 5.84029 6.62445 5.92894C7.11077 6.28165 7.58865 6.64514 8.06747 7.00816C8.34088 7.215 8.39903 7.48845 8.22598 7.71311Z" fill="black"/>
<path d="M6.02018 2.69777e-05C2.71066 -0.00982254 0.00704831 2.67863 1.37607e-05 5.98619C-0.00702079 9.29469 2.68393 11.9958 5.99157 12C9.30015 12.0043 11.9986 9.31064 12 6.00261C12.001 2.70396 9.3175 0.0098765 6.02018 2.69777e-05ZM5.98782 11.0676C3.18619 11.0615 0.921539 8.78064 0.932795 5.97634C0.94405 3.18517 3.21808 0.927289 6.01221 0.932917C8.81383 0.938546 11.0785 3.21941 11.0672 6.02418C11.056 8.81535 8.78194 11.0732 5.98782 11.0676Z" fill="black"/>
<path d="M8.22598 7.71311C8.05434 7.9359 7.77765 7.9495 7.50189 7.74406C6.93303 7.3196 6.36745 6.89044 5.79625 6.46832C5.61101 6.33136 5.52941 6.16204 5.53128 5.92988C5.53785 5.07109 5.53316 4.21231 5.5341 3.35305C5.53456 2.99988 5.72356 2.77756 6.01151 2.78507C6.29148 2.7921 6.46594 3.00785 6.46688 3.35165C6.46828 3.7264 6.46735 4.10115 6.46735 4.4759C6.46735 4.85065 6.47438 5.22587 6.46406 5.60015C6.45984 5.7479 6.50205 5.84029 6.62445 5.92894C7.11077 6.28165 7.58865 6.64514 8.06747 7.00816C8.34088 7.215 8.39903 7.48845 8.22598 7.71311Z" fill="#F7F9FA"/>
<path d="M8.22598 7.71311C8.05434 7.9359 7.77765 7.9495 7.50189 7.74406C6.93303 7.3196 6.36745 6.89044 5.79625 6.46832C5.61101 6.33136 5.52941 6.16204 5.53128 5.92988C5.53785 5.07109 5.53316 4.21231 5.5341 3.35305C5.53456 2.99988 5.72356 2.77756 6.01151 2.78507C6.29148 2.7921 6.46594 3.00785 6.46688 3.35165C6.46828 3.7264 6.46735 4.10115 6.46735 4.4759C6.46735 4.85065 6.47438 5.22587 6.46406 5.60015C6.45984 5.7479 6.50205 5.84029 6.62445 5.92894C7.11077 6.28165 7.58865 6.64514 8.06747 7.00816C8.34088 7.215 8.39903 7.48845 8.22598 7.71311Z" fill="black"/>
</g>
<defs>
<clipPath id="clip0_3746_3374">
<rect width="12" height="12" fill="white"/>
</clipPath>
</defs>
</svg>
