<svg width="27" height="24" viewBox="0 0 27 24" fill="none" xmlns="http://www.w3.org/2000/svg">
<path fill-rule="evenodd" clip-rule="evenodd" d="M14.4406 1.72598L17.4961 7.35146C17.6477 7.63536 17.9421 7.83227 18.2841 7.8792L25.1217 8.78473C25.3986 8.81793 25.6491 8.95187 25.8183 9.15564C26.1365 9.53456 26.0889 10.0749 25.7068 10.4023L20.7533 14.7983C20.5028 15.0124 20.39 15.3306 20.4552 15.6374L21.6491 21.8341C21.7317 22.3493 21.3496 22.8278 20.7897 22.9125C20.5566 22.9457 20.3186 22.9114 20.1094 22.8152L14.0109 19.8949C13.7053 19.7426 13.3369 19.7426 13.0325 19.8949L6.89398 22.8358C6.38159 23.0716 5.76022 22.8942 5.48211 22.4386C5.37562 22.2543 5.33679 22.0413 5.37437 21.8341L6.56826 15.6374C6.62588 15.3306 6.51439 15.0158 6.2701 14.7983L1.27783 10.4012C0.870677 10.0303 0.869424 9.4281 1.27532 9.0549C1.27657 9.0549 1.27657 9.05375 1.27783 9.05261C1.44444 8.91409 1.65115 8.82022 1.87414 8.78473L8.71174 7.8792C9.05124 7.82883 9.34564 7.63193 9.49973 7.35146L12.5552 1.72598C12.6767 1.49703 12.8947 1.32187 13.1591 1.24174C13.4234 1.16046 13.7128 1.17878 13.9633 1.2944C14.1688 1.38827 14.3354 1.53938 14.4406 1.72598Z" stroke="#FFB803" stroke-width="1.5" stroke-linecap="round" stroke-linejoin="round"/>
</svg>
