<svg width="70" height="75" viewBox="0 0 70 75" fill="none" xmlns="http://www.w3.org/2000/svg">
<path d="M61.4926 73.7637C60.7088 74.7057 59.4187 74.3549 58.887 73.1171C58.1879 71.485 57.5827 69.8148 56.9398 68.1612C53.5147 59.3313 50.0937 50.5007 46.6687 41.6707C46.5149 41.2679 46.331 40.8762 46.1112 40.3626C43.5875 43.2283 41.1612 45.9959 38.7247 48.7525C37.3525 50.3087 35.9881 51.8743 34.5668 53.3873C33.951 54.044 33.8439 54.6128 34.1843 55.4792C35.53 58.9258 36.7434 62.4227 38.0933 65.8687C38.5366 67.0014 38.4621 67.8624 37.7235 68.8632C35.6944 71.6049 35.2807 72.8247 32.2779 69.1123C30.1716 66.5106 27.786 64.1352 25.6755 61.5343C24.6726 60.2978 23.3798 59.7245 22.031 59.1324C18.6439 57.6502 15.2504 56.1817 11.8651 54.697C10.3564 54.0322 10.2334 53.2253 11.0443 51.7737C12.2845 49.5585 13.8956 48.6254 16.5542 48.9834C19.6704 49.4037 22.8574 49.2948 26.0066 49.504C26.9248 49.5645 27.4319 49.3027 27.8918 48.5174C30.7892 43.5719 33.7356 38.6547 36.7106 33.6482C36.1779 33.3215 35.6179 33.4344 35.0947 33.4014C24.3113 32.7318 13.5297 32.0747 2.74885 31.4217C1.81655 31.3655 0.788462 31.4857 0.272482 30.4726C-0.297534 29.3576 0.574912 28.6311 1.12909 27.8374C1.4978 27.3127 1.90179 26.8101 2.26092 26.2784C3.70749 24.1478 5.72136 23.0053 8.25758 22.6157C21.2027 20.6184 34.1384 18.5737 47.0855 16.5888C48.2387 16.4131 49.0337 16.0087 49.7197 15.0246C51.8079 12.0209 54.044 9.12154 56.1603 6.13471C57.8354 3.76673 60.0202 2.08364 62.654 0.927173C66.103 -0.585883 69.7115 2.03608 69.3331 5.79639C69.0529 8.60278 68.1492 11.1668 66.444 13.4502C64.1635 16.5009 61.9692 19.6146 59.6785 22.6541C59.0903 23.434 58.956 24.1557 59.1068 25.1005C61.1263 37.9402 62.9989 50.8051 65.1736 63.6185C65.8992 67.8987 63.9206 70.8428 61.4926 73.7637Z" fill="#333333" fill-opacity="0.15"/>
</svg>
