<svg width="14" height="23" viewBox="0 0 14 23" fill="none" xmlns="http://www.w3.org/2000/svg">
<g clip-path="url(#clip0_1232_3053)">
<path d="M4.77969 10.3469C4.99169 10.0912 5.16428 9.80524 5.29175 9.49853L5.90864 7.77365L4.42084 7.28981C4.24102 7.81235 4.06603 8.79132 3.97087 9.07839C3.91875 9.23781 3.83906 9.38683 3.73541 9.51869L2.70644 11.5137C2.65242 11.5943 3.38946 12.0661 3.38946 12.0661L4.77969 10.3469Z" fill="#E8C5AC"/>
<path d="M3.33913 11.5645C3.39095 11.5963 3.4351 11.6392 3.46842 11.6901C3.50173 11.741 3.5234 11.7986 3.53186 11.8588L3.56573 12.0911C3.5841 12.2143 3.5553 12.3398 3.48509 12.4427L3.35526 12.629C3.32031 12.6794 3.2755 12.7223 3.22353 12.755C3.17156 12.7878 3.1135 12.8096 3.05286 12.8193L2.89158 12.8459C2.83191 12.8555 2.70934 13.1878 2.64967 13.1886C2.07551 13.195 1.88439 12.8225 1.88439 12.8225C1.83768 12.7051 1.82784 12.5763 1.85617 12.4532L1.93681 12.0951C1.9658 11.9724 2.033 11.862 2.12873 11.7798L2.63515 11.3476C2.67806 11.311 2.73145 11.289 2.78766 11.2847C2.84387 11.2803 2.90001 11.2939 2.94803 11.3234L3.33913 11.5645Z" fill="#E8C5AC"/>
<path d="M6.69482 13.924C6.69482 13.924 6.83594 16.9278 7.84394 18.0165C8.5576 18.7882 10.0623 20.1937 10.7203 21.0808C10.7203 21.0808 12.6251 22.9847 11.4824 20.2252C11.4824 20.2252 10.4599 17.277 9.29464 17.2061L8.68017 14.7957L6.69482 13.924Z" fill="#C6A48D"/>
<path d="M9.22423 11.2282L5.28418 13.67L7.17114 17.4189L9.36535 16.6666L9.22423 11.2282Z" fill="#172A3A"/>
<path d="M4.42285 16.3384C4.42285 16.3384 3.81725 19.1938 2.81006 21.6364L3.68984 22.0549C3.68984 22.0549 5.90984 18.5487 6.16869 17.6334C6.52109 16.3916 4.42285 16.3384 4.42285 16.3384Z" fill="#E8C5AC"/>
<path d="M4.49747 6.18424C4.49747 6.18424 4.73939 5.03674 5.69255 5.05529C6.49894 5.07061 6.47233 5.95523 6.36508 6.49713C6.31267 6.75679 6.04252 7.53254 5.78287 8.2712L4.13379 7.44867L4.49747 6.18424Z" fill="#D1C15E"/>
<path d="M9.40246 11.9903L5.67691 11.6363L4.13428 16.8077L6.29219 17.6012L9.40246 11.9903Z" fill="#253F59"/>
<path d="M4.92381 7.28417L5.15847 9.74851L5.40039 12.0177C5.41168 12.2403 5.42297 12.2903 5.64231 12.2782L9.32431 12.0806C9.54768 12.0693 9.57751 12.0177 9.56622 11.7951L9.59767 9.61787L9.69605 6.39874C9.6646 5.79475 9.74444 5.23754 9.43236 5.00449C9.12029 4.77144 7.21639 4.5013 7.21639 4.5013C7.21639 4.5013 5.61892 4.92546 5.28991 5.11335C4.23999 5.71331 4.91655 7.03257 4.92381 7.28417Z" fill="#F4E46C"/>
<path d="M12.1998 9.03807C12.1003 8.72098 11.9538 8.42061 11.7651 8.14701L10.6515 6.6955L9.44189 7.68252C9.783 8.11717 10.5096 8.79615 10.6999 9.03162C10.8049 9.16214 10.8867 9.3097 10.9418 9.46788L12.053 11.4089C12.0949 11.5 12.8876 11.1347 12.8876 11.1347L12.1998 9.03807Z" fill="#E8C5AC"/>
<path d="M10.0726 5.68751C10.0726 5.68751 9.53072 4.55855 8.69207 5.03674C7.99373 5.43349 8.12759 6.09635 8.40096 6.57535C8.5324 6.80597 9.03156 7.45674 9.51459 8.07121L10.8177 6.76807L10.0726 5.68751Z" fill="#FFF4B3"/>
<path d="M7.82744 3.13526C7.82744 3.13526 7.79034 4.31905 7.97017 4.61339C7.97017 4.61339 7.61536 5.9262 6.17352 5.70041C5.91709 5.66009 5.8179 5.4972 6.43318 4.70128C6.43318 4.70128 6.47028 4.19648 6.46705 4.11584C6.46705 4.11584 6.76783 1.93857 7.48875 2.07082C8.20967 2.20307 7.82744 3.13526 7.82744 3.13526Z" fill="#C6A48D"/>
<path d="M6.40825 1.01283L7.61784 1.0838L7.57107 3.36106C7.54688 3.50863 7.54527 3.64571 7.51462 3.76909C7.47519 3.92813 7.37426 4.06502 7.234 4.14971C7.234 4.14971 6.9574 4.25696 6.66952 4.36421C6.4448 4.45957 6.19807 4.49083 5.95667 4.45453C5.57847 4.41824 5.46315 4.07794 5.42203 3.87312C5.34139 3.46992 5.06641 1.437 5.06641 1.437L5.18092 0.732208L6.40825 1.01283Z" fill="#E8C5AC"/>
<path d="M12.2534 11.2678C12.1958 11.2871 12.1432 11.3187 12.0992 11.3605C12.0552 11.4023 12.0208 11.4532 11.9986 11.5097L11.9131 11.7282C11.8675 11.8443 11.8675 11.9734 11.9131 12.0895L11.9728 12.3064C12.0287 12.422 12.1272 12.5113 12.2477 12.5556L12.3985 12.6177C12.455 12.6411 12.5921 12.9209 12.5921 12.9209C12.6091 12.9829 12.6177 13.0469 12.6179 13.1112V13.1652C12.618 13.2096 12.6299 13.2532 12.6522 13.2916C12.6746 13.33 12.7067 13.3617 12.7453 13.3837C12.7803 13.4036 12.8215 13.4096 12.8607 13.4007C12.9 13.3917 12.9344 13.3684 12.9574 13.3354L13.3864 12.8249C13.4587 12.7213 13.4976 12.5981 13.4977 12.4717V12.1024C13.4976 11.9765 13.4575 11.854 13.3832 11.7524L12.988 11.2162C12.9545 11.1708 12.9076 11.1372 12.8538 11.1201C12.8001 11.103 12.7424 11.1033 12.6888 11.121L12.2534 11.2678Z" fill="#E8C5AC"/>
<path d="M3.77005 21.9315H3.63942C3.44185 21.8606 3.208 21.7896 3.11768 21.7501C2.98866 21.6928 2.93866 21.6307 2.91931 21.5428C2.88866 21.4025 3.0701 21.08 3.08623 21.0187C3.13622 20.8219 3.06446 20.7211 3.05317 20.7082C2.93866 20.5768 2.73061 20.5171 2.64997 20.6106C2.49434 20.8058 2.29435 20.9735 2.15162 20.9122L1.11782 20.2671C0.605759 19.9623 0.302554 20.3002 0.159822 20.4784L0.0840208 20.5736C-0.0119402 20.6945 -0.0417768 20.7647 0.0840208 20.8647L1.53553 21.8944C1.66697 21.9993 2.68626 22.7895 2.68626 22.7895L2.97737 22.9589C3.07494 23.0395 3.24025 22.846 3.29993 22.7694L3.74183 22.1597C3.79586 22.0799 3.79666 21.9404 3.77005 21.9315Z" fill="#BFBFBF"/>
<path d="M0.186144 20.4486L0.178887 20.4582C-0.0235182 20.7123 -0.0541624 20.7526 0.0869568 20.8614L2.89079 22.9419C3.02707 23.0226 3.10529 23.0226 3.2069 22.8944L3.30931 22.7589L0.186144 20.4486Z" fill="#C4332C"/>
<path d="M12.4909 20.6792C12.2595 20.5066 11.5523 20.3647 11.5523 20.3647C11.3724 20.4187 11.5297 21.1816 11.4442 21.2009C11.3216 21.2283 10.7733 20.9743 10.7588 20.9711C10.6064 20.938 10.4362 21.2759 10.4362 21.3832C10.4282 21.6065 11.0652 21.6477 10.9676 21.7436C10.7943 21.9138 10.0104 21.9114 10.0104 21.9114C9.48064 21.9654 9.30807 22.3702 9.30081 22.5734V22.6823C9.29597 22.8202 9.87577 22.875 10.0201 22.8798C10.0201 22.8798 11.3103 22.9411 11.9893 22.4766C12.2447 22.2998 12.4269 22.0361 12.5022 21.7348C12.5498 21.4993 12.7619 20.8816 12.4909 20.6792Z" fill="#A3A3A2"/>
<path d="M12.4912 20.655C12.4686 20.6381 12.3517 20.6155 12.3194 20.6018C12.3057 23.0363 10.1131 22.6178 9.30998 22.4565C9.30316 22.4859 9.29911 22.5158 9.29788 22.546V22.6887C9.29304 22.8274 9.87204 22.8718 10.0164 22.8766C10.0164 22.8766 11.3171 22.9573 11.9856 22.4734C12.2666 22.2732 12.4593 21.9721 12.5235 21.6332C12.5751 21.4009 12.7622 20.8574 12.4912 20.655Z" fill="#A52626"/>
<path d="M8.05038 3.04978C8.19506 2.57244 8.3074 2.08588 8.38664 1.59343C8.55599 0.651561 7.40445 0.0749888 6.59241 0.00402605C6.38724 -0.0022157 6.18187 0.00640899 5.97794 0.0298313L6.17309 0.165305C6.17309 0.165305 5.80618 0.259654 5.50459 0.367711C5.26035 0.459439 5.02431 0.571659 4.79899 0.703172L5.20864 0.758811C5.06511 0.904757 4.9427 1.07006 4.84496 1.24991C4.74571 1.42655 4.69742 1.62725 4.70545 1.8297C4.70545 1.8297 5.89246 1.27168 6.40775 1.27007C6.57629 1.27007 6.82627 1.29426 6.94158 1.48295C7.13431 1.79906 7.22947 2.46918 7.28108 2.56433C7.33269 2.65948 7.44235 2.49337 7.49477 2.38289C7.49477 2.37563 7.61331 2.36273 7.62299 2.42563C7.68185 2.80625 7.79717 3.48685 7.82781 3.4941C7.85845 3.50136 7.97861 3.3175 8.05038 3.04978Z" fill="#19120A"/>
<path d="M7.79877 2.18855C7.4867 2.17323 7.43186 2.56272 7.43186 2.56272L7.40283 3.09816C7.40502 3.13529 7.41813 3.17094 7.44051 3.20063C7.46289 3.23033 7.49355 3.25276 7.52863 3.26509C7.70281 3.31025 7.78829 3.15945 7.87699 2.99414C7.88183 2.98285 7.99553 2.73609 8.0036 2.72238C8.10198 2.51433 8.09472 2.20629 7.79877 2.18855Z" fill="#E8C5AC"/>
</g>
<defs>
<clipPath id="clip0_1232_3053">
<rect width="13.4982" height="23" fill="white"/>
</clipPath>
</defs>
</svg>
