<svg width="27" height="17" viewBox="0 0 27 17" fill="none" xmlns="http://www.w3.org/2000/svg">
<path d="M18.4336 13.1122C18.4336 13.4921 17.5054 13.7266 17.2164 13.7233L14.8496 12.6563C14.5507 12.6563 14.3062 12.326 14.3029 11.9445L13.8652 9.0839C13.8652 8.68916 14.8017 8.74367 15.1023 8.75358L17.8803 9.16979C18.0395 9.18771 18.1856 9.26645 18.2881 9.38957C18.3906 9.51268 18.4415 9.67064 18.4303 9.83043L18.4336 13.1122Z" fill="#87AF38"/>
<path d="M17.6396 13.0858C17.6396 13.4475 17.4182 13.7382 17.1441 13.7365L14.2389 12.7935C13.9548 12.7935 13.7203 12.4879 13.717 12.1179L13.6938 9.51831C13.6938 9.14339 13.9218 8.84775 14.2092 8.85766L17.1358 9.36966C17.4133 9.37792 17.6313 9.68182 17.6313 10.0485L17.6396 13.0858Z" fill="#547C0E"/>
<path d="M13.119 9.43564C13.261 9.73293 13.1454 10.0137 12.8547 10.0599L8.15092 10.8048C7.95864 10.8371 7.76119 10.798 7.59571 10.6949C7.43024 10.5918 7.30816 10.4318 7.25244 10.2449L7.29869 7.81375C7.28486 7.7006 7.29352 7.58583 7.32417 7.47603C7.35482 7.36624 7.40686 7.26358 7.4773 7.17395C7.54774 7.08433 7.6352 7.0095 7.73464 6.95377C7.83409 6.89804 7.94356 6.86251 8.05678 6.84921L11.7547 6.67249C11.895 6.67292 12.0326 6.7112 12.1529 6.78329C12.2733 6.85538 12.3719 6.95861 12.4385 7.08209L13.119 9.43564Z" fill="#547C0E"/>
<path d="M13.9681 9.28048C14.1101 9.57446 14.0424 9.86019 13.755 9.90644L9.1586 10.4812C8.76387 10.5423 8.72588 10.6232 8.6367 10.2582L7.94632 7.12017C7.8753 6.83609 7.84557 6.81792 8.19406 6.80306L13.0234 6.62964C13.1616 6.63241 13.2966 6.67198 13.4145 6.74426C13.5323 6.81654 13.6288 6.91893 13.6939 7.04089L13.9681 9.28048Z" fill="#87AF38"/>
<path d="M7.76102 9.97412C7.90141 10.3044 7.77093 10.6348 7.46703 10.6909L2.81609 11.5762C2.43952 11.6489 1.87137 11.3664 1.76401 10.9766L1.22229 8.15404C1.1364 7.45376 1.81521 7.05902 2.16205 7.02434L5.99875 6.95332C6.28613 6.92359 6.52561 6.98635 6.64618 7.28364L7.76102 9.97412Z" fill="#547C0E"/>
<path d="M8.09632 9.65043C8.23505 9.98075 8.09632 10.3111 7.80233 10.3656L3.17781 10.7653C2.8029 10.8363 2.53203 10.9387 2.42468 10.5489L1.8367 7.64207C1.81358 7.56722 1.808 7.48804 1.82039 7.41068C1.83279 7.33333 1.86283 7.25986 1.90819 7.19598C1.95354 7.1321 2.01299 7.07952 2.08194 7.04231C2.15088 7.0051 2.22747 6.98427 2.30576 6.98142L7.0112 6.83773C7.29693 6.80965 7.49678 6.87737 7.6157 7.16805L8.09632 9.65043Z" fill="#87AF38"/>
<path d="M16.5211 10.1013C17.0662 10.1888 17.3717 10.866 17.1075 10.9023L7.70648 11.7083C7.13006 11.7892 4.504 12.0221 3.97713 11.847L3.10178 11.0741C2.71035 10.9436 0.964592 10.529 1.52944 10.4811L10.2153 9.80728C10.5192 9.78085 13.9215 9.46539 14.3757 9.53806L16.5211 10.1013Z" fill="#547C0E"/>
<path d="M17.1322 13.5713L3.99365 14.9719L4.01843 11.8355L17.119 10.757L17.1322 13.5713Z" fill="#87AF38"/>
<path d="M4.54865 15.0264C4.55691 15.441 3.36444 15.4641 3.07706 15.4641L1.50307 14.2667C1.20909 14.2667 0.497241 13.9545 0.48568 13.5284L0.379976 10.2615C0.366764 9.82881 1.75577 9.84037 2.05141 9.84863L4.06803 10.572C4.36036 10.7273 4.47267 10.9024 4.48093 11.3301L4.54865 15.0264Z" fill="#87AF38"/>
<path d="M3.5693 14.8529C3.57756 15.2493 3.34964 15.464 3.07382 15.464L0.617873 14.4599C0.251215 14.369 0.0992664 14.1295 0.0860535 13.7249L-0.00313254 10.709C-0.0146938 10.2978 0.327189 9.97078 0.617873 9.97903L2.97968 10.7751C3.31 10.8659 3.47516 11.1137 3.49168 11.515L3.5693 14.8529Z" fill="#547C0E"/>
<path d="M16.3213 6.49256C16.4865 7.93937 15.991 10.8264 15.9728 11.1171C15.9547 11.4078 15.6888 13.1717 15.6772 13.6077C15.6772 13.8191 14.6862 13.9182 14.6862 13.9182C14.6301 12.5771 14.7176 12.4466 14.8514 10.9998C14.9455 9.95764 14.4897 8.42659 14.597 7.80889C14.6502 7.45881 14.7905 7.1277 15.005 6.846L16.0406 6.27124L16.3213 6.49256Z" fill="#6A7B9B"/>
<path d="M16.1597 7.22753C16.1481 8.07811 15.1357 10.6232 14.9193 11.2723C14.703 11.9214 14.1546 13.5928 14.0225 13.9149C13.8904 14.237 12.8664 14.3559 12.9044 14.0652C13.0972 12.9398 13.348 11.8252 13.6558 10.7256C13.9366 9.62567 14.0687 7.50831 14.6468 6.61148C14.9342 6.16389 15.5767 6.9418 15.5767 6.9418L16.1597 7.22753Z" fill="#6A7B9B"/>
<path d="M15.6887 13.6853C15.7383 12.9933 15.9679 11.373 15.991 11.079C16.0108 10.8181 16.4122 8.41995 16.3659 6.89551C16.242 6.90542 16.0703 6.94505 16.0736 7.09535C16.0901 7.88813 15.7812 10.9387 15.7581 11.1451C15.735 11.3516 15.3452 14.0239 15.3452 14.0239H15.5467C15.6293 13.9776 15.6755 13.8125 15.6887 13.6853Z" fill="#8FA4BC"/>
<path d="M14.024 13.9049C14.1562 13.5878 14.7028 11.9131 14.9192 11.2623C14.9275 11.2409 14.9357 11.2161 14.944 11.1897C15.1901 10.2747 15.4395 9.38609 15.5749 8.95337C15.5749 8.95337 14.5063 11.4919 14.2999 12.1129C14.1033 12.6992 13.6392 14.0205 13.5913 14.1675C13.6774 14.1551 13.7601 14.1255 13.8345 14.0804C13.9088 14.0352 13.9733 13.9756 14.024 13.9049Z" fill="#8FA4BC"/>
<path d="M14.8202 13.6985C14.7724 14.1279 14.7724 14.3591 15.0019 14.3426C15.0845 14.3426 15.1671 14.2319 15.2893 14.3063C15.3749 14.3723 15.4744 14.418 15.5803 14.4397C15.6862 14.4615 15.7957 14.4588 15.9004 14.4318C16.3034 14.412 16.2852 14.1329 15.9896 14.0569C15.6939 13.9809 15.3868 13.5118 15.3868 13.5118L14.8202 13.6985Z" fill="#6A7B9B"/>
<path d="M15.2544 13.791C15.3403 13.857 15.403 13.9215 15.4774 13.9776C15.655 14.0742 15.8467 14.1422 16.0455 14.1791C16.1149 14.1626 16.143 14.1197 16.0653 14.0883C15.966 14.0619 15.8762 14.0081 15.806 13.933C15.6409 13.786 15.5517 13.7299 15.5054 13.7266C15.4592 13.7233 15.2627 13.7266 15.2627 13.7266L15.2544 13.791Z" fill="#8FA4BC"/>
<path d="M15.6013 13.7927C15.7218 13.5417 15.56 13.4624 15.38 13.4987C15.1999 13.5351 15.1207 13.5962 15.2495 13.7299C15.2983 13.7687 15.3561 13.7948 15.4175 13.8057C15.4789 13.8167 15.542 13.8122 15.6013 13.7927Z" fill="#8FA4BC"/>
<path d="M13.0479 14.052C12.9603 14.4748 12.9372 14.7126 13.1701 14.7126C13.251 14.7126 13.3501 14.6185 13.4575 14.7027C13.5368 14.7765 13.6318 14.8313 13.7353 14.863C13.8389 14.8948 13.9483 14.9026 14.0553 14.8861C14.4583 14.9026 14.4666 14.6251 14.1776 14.5194C13.8885 14.4137 13.6309 13.9215 13.6309 13.9215L13.0479 14.052Z" fill="#6A7B9B"/>
<path d="M13.4741 14.1841C13.5517 14.2584 13.6079 14.3294 13.6773 14.3905C13.8442 14.5039 14.0282 14.5898 14.2223 14.6449C14.295 14.6366 14.3264 14.597 14.252 14.5574C14.1553 14.5215 14.0706 14.4591 14.0076 14.3773C13.854 14.2122 13.7731 14.1527 13.7285 14.1428C13.6839 14.1329 13.4857 14.1279 13.4857 14.1279L13.4741 14.1841Z" fill="#8FA4BC"/>
<path d="M13.8176 14.2204C13.9613 13.9809 13.8061 13.89 13.6244 13.9066C13.4427 13.9231 13.3568 13.9776 13.4741 14.1229C13.5187 14.1666 13.5735 14.1984 13.6335 14.2154C13.6935 14.2324 13.7568 14.2341 13.8176 14.2204Z" fill="#8FA4BC"/>
<path d="M15.9133 3.0572C15.9595 2.99939 16.2436 2.16037 16.2436 2.16037C16.2436 2.16037 16.1561 0.880371 16.1264 0.703649C15.9843 0.630978 15.9612 0.616114 15.9199 0.551701C15.8905 0.495741 15.8699 0.435574 15.8588 0.373326C15.8588 0.373326 15.9232 0.117325 15.9612 0.26597C15.9612 0.29735 15.9612 0.374976 15.9612 0.384886C15.9843 0.42948 16.0619 0.244501 16.0619 0.244501C16.0607 0.206646 16.0697 0.169153 16.088 0.136003C16.1063 0.102852 16.1333 0.0752824 16.166 0.0562168C16.1363 -0.00489283 16.2684 0.090899 16.2667 0.0776861C16.2651 0.0644732 16.3741 0.0314422 16.3972 0.0479583C16.455 0.0909002 16.4897 0.186693 16.536 0.612809C16.5475 0.715209 16.8547 1.84987 16.8448 2.26442C16.825 2.98287 16.1165 4.51557 15.8159 4.27113C15.5153 4.02669 15.6424 4.05477 15.6424 4.05477C15.6146 3.87879 15.6243 3.69892 15.671 3.52697C15.7177 3.35503 15.8003 3.19493 15.9133 3.0572Z" fill="#D6A092"/>
<g style="mix-blend-mode:multiply">
<path d="M15.9185 0.55665C15.889 0.501334 15.8683 0.441688 15.8574 0.379926C15.8574 0.379926 15.9185 0.109061 15.9582 0.257706C15.964 0.302056 15.9668 0.346758 15.9664 0.391489C15.9896 0.434431 16.0672 0.251101 16.0672 0.251101C16.0657 0.213409 16.0745 0.176028 16.0925 0.142892C16.1105 0.109757 16.1372 0.0820944 16.1696 0.0628169C16.1564 0.0330879 16.3067 0.114016 16.3116 0.0875901L16.4289 0.0760301C16.4821 0.193262 16.5097 0.320527 16.5098 0.449294C16.5263 0.526919 16.5379 0.591332 16.5412 0.614455C16.5445 0.637578 16.6221 1.06039 16.6634 1.3263C16.5531 1.29337 16.4507 1.23831 16.3624 1.16448C16.2741 1.09065 16.2017 0.999597 16.1498 0.896882C16.1484 0.832318 16.1401 0.768088 16.125 0.705294C15.9829 0.635926 15.9598 0.621063 15.9185 0.55665Z" fill="url(#paint0_linear_1232_5607)"/>
</g>
<path d="M16.0901 0.0594482C16.0604 0.0594482 15.9943 0.0842242 15.9795 0.138727C15.9704 0.19008 15.9704 0.242625 15.9795 0.293977C15.9795 0.343525 16.0637 0.483912 16.0951 0.459138C16.1091 0.450334 16.1196 0.437031 16.125 0.421419C16.1304 0.405807 16.1304 0.388819 16.1248 0.373256C16.1132 0.341876 16.0653 0.292326 16.0835 0.251036C16.0925 0.187592 16.0948 0.123363 16.0901 0.0594482Z" fill="#EAC4B2"/>
<path d="M16.1874 0.0297705C16.1528 4.1442e-05 16.1164 0.0297693 16.09 0.0594983C16.0669 0.120646 16.0618 0.18711 16.0751 0.251086C16.0988 0.316187 16.131 0.377842 16.1709 0.434415C16.1974 0.450931 16.2452 0.434415 16.2419 0.398079C16.2386 0.361744 16.2023 0.275859 16.1941 0.247782C16.188 0.175276 16.1858 0.102507 16.1874 0.0297705Z" fill="#EAC4B2"/>
<path d="M16.3248 0.0314016C16.3149 2.09562e-05 16.229 -0.0197984 16.1877 0.0314016C16.1718 0.0678676 16.1636 0.107226 16.1636 0.147014C16.1636 0.186802 16.1718 0.226163 16.1877 0.262629C16.2125 0.310526 16.2455 0.404668 16.2802 0.404668C16.3149 0.404668 16.3248 0.386499 16.3017 0.333647C16.2873 0.290405 16.279 0.245387 16.2769 0.199867C16.2861 0.142004 16.3022 0.0854466 16.3248 0.0314016Z" fill="#EAC4B2"/>
<path d="M16.3645 0.0231934C16.3099 0.0231934 16.2885 0.085956 16.2637 0.135504C16.2389 0.185053 16.3149 0.312228 16.3347 0.34526C16.3545 0.378292 16.4124 0.393157 16.4008 0.34526C16.3892 0.297363 16.3595 0.247813 16.3727 0.211477C16.3859 0.175142 16.4157 0.10082 16.4289 0.0810008C16.4421 0.0611815 16.3645 0.0231934 16.3645 0.0231934Z" fill="#EAC4B2"/>
<path d="M15.4756 3.47011C15.6407 3.4536 15.7382 3.23889 15.7828 3.21411C15.9539 3.51184 16.1489 3.7952 16.3658 4.06139C16.2946 4.28515 16.145 4.47573 15.9446 4.59816C15.7514 4.61138 15.4756 3.47011 15.4756 3.47011Z" fill="#4BAEE0"/>
<path d="M15.9118 3.43378C15.8648 3.36302 15.8218 3.28969 15.783 3.21411C15.7417 3.23723 15.6591 3.42221 15.5088 3.46185V3.60885L15.5303 3.68812C15.6078 3.67399 15.6817 3.64414 15.7473 3.6004C15.8129 3.55666 15.8689 3.49995 15.9118 3.43378Z" fill="#74D8F7"/>
<path d="M13.2313 3.88623C13.0348 4.15875 12.9737 4.28427 13.0447 4.38171C13.0717 4.42047 13.108 4.45187 13.1502 4.47307C13.1925 4.49427 13.2393 4.50459 13.2865 4.50312C13.3338 4.50164 13.3799 4.48841 13.4207 4.46462C13.4615 4.44082 13.4958 4.40722 13.5203 4.36685C13.6673 4.11746 13.2313 3.88623 13.2313 3.88623Z" fill="#74D8F7"/>
<path d="M15.1618 3.21411C15.1519 3.3578 15.1899 3.7096 15.4525 3.7096C15.5384 3.7096 15.2328 4.48255 14.7456 4.14892C14.7093 4.12415 14.8876 3.29834 14.8876 3.29834L15.1618 3.21411Z" fill="#EAC4B2"/>
<path d="M15.2529 3.551L15.5832 3.42383C15.96 4.06275 16.2478 4.75011 16.4387 5.46687C16.769 6.73696 16.807 7.04416 16.807 7.04416L16.0687 7.45706C16.0687 7.45706 15.015 4.15384 15.0117 4.03823C15.5105 3.99198 15.2529 3.551 15.2529 3.551Z" fill="#74D8F7"/>
<path d="M14.2934 2.83423C14.3016 2.99939 14.3859 3.35779 14.2768 3.57415C14.1678 3.79051 14.1431 3.77069 14.1431 3.77069L14.295 4.14891L14.845 4.2414C14.845 4.2414 15.0102 3.43376 15.1142 3.23227C15.1489 3.1662 14.2934 2.83423 14.2934 2.83423Z" fill="#D6A092"/>
<path style="mix-blend-mode:multiply" d="M15.2001 3.32475L14.4767 4.6576L14.0952 3.96888C14.2062 3.73961 14.2947 3.50011 14.3595 3.25373C14.3595 3.10508 14.3727 3.1249 14.3727 3.1249L15.2001 3.32475Z" fill="url(#paint1_linear_1232_5607)"/>
<path d="M15.1998 3.99362C14.9059 3.99362 14.5656 4.0283 14.374 3.89121C14.2584 3.81194 14.2403 3.65338 14.2089 3.6699C14.077 3.72582 13.9309 3.7391 13.791 3.70789C13.791 3.70789 14.4054 5.05725 14.0338 7.71305C14.0156 7.84187 15.8324 7.72296 16.2602 7.36125C16.3626 7.26546 15.5682 3.98371 15.1998 3.99362Z" fill="#4BAEE0"/>
<path d="M15.2427 2.35521C15.3518 2.81932 15.4475 3.23883 15.2064 3.34618C15.0889 3.3949 14.9617 3.41581 14.8348 3.40729C14.6843 3.38573 14.5408 3.32983 14.4153 3.24391C14.2899 3.15799 14.1859 3.04436 14.1114 2.91181C13.8719 2.50055 13.9132 2.02984 14.3377 1.86303C14.8034 1.6797 15.1503 1.96048 15.2427 2.35521Z" fill="#D6A092"/>
<path d="M14.7093 1.87461C14.7341 1.98857 14.3393 1.97371 14.2386 2.08767C14.1378 2.20163 14.2039 2.59637 14.2088 2.64096C14.2138 2.68555 14.1114 2.58315 14.0734 2.69711C14.0354 2.81108 14.2154 2.98119 14.2733 2.97789C14.3311 2.97458 14.2815 3.23389 14.2815 3.23389C14.2815 3.23389 14.0453 3.07699 13.8323 2.57324C13.6044 2.02821 14.1808 1.72597 14.3757 1.70284C14.6614 1.66486 14.7093 1.87461 14.7093 1.87461Z" fill="#A0593A"/>
<path d="M15.1158 1.80029C15.1158 1.80029 15.2429 2.2165 15.3074 2.40809C15.3718 2.59967 15.4345 3.14471 15.3387 3.24215C15.2429 3.3396 15.2066 3.34785 15.2066 3.34785C15.1703 3.06227 15.1112 2.78005 15.0299 2.50388C14.978 2.2704 14.8678 2.05389 14.7095 1.87462L15.1158 1.80029Z" fill="#EAC4B2"/>
<path d="M15.1423 2.88867C15.0664 2.92666 14.992 3.00594 15.0135 3.08191C15.035 3.15788 15.1473 3.16614 15.2216 3.13476C15.2959 3.10338 15.291 2.9217 15.2596 2.9217C15.2194 2.91497 15.1801 2.90389 15.1423 2.88867Z" fill="#EAC4B2"/>
<path d="M14.9307 2.32056C15.1256 2.61124 15.1999 2.65914 15.1999 2.70703C15.1999 2.75493 15.1256 2.74502 15.0562 2.84082C14.9997 2.67126 14.9577 2.49721 14.9307 2.32056Z" fill="#D6A092"/>
<path d="M15.015 1.86298C15.0563 1.84811 15.1322 1.92409 15.1917 2.07934C15.2313 2.18339 15.2875 2.3436 15.2875 2.3436C15.2875 2.3436 15.2726 2.16357 15.2644 2.10742C15.265 2.03435 15.2507 1.96193 15.2223 1.89461C15.1939 1.82729 15.152 1.7665 15.0992 1.71599C15.0216 1.66313 14.7425 1.62349 14.7028 1.67965C14.6632 1.7358 15.015 1.86298 15.015 1.86298Z" fill="#C6824F"/>
<path d="M14.4319 1.94895C14.6351 2.05631 14.8762 1.93244 14.9604 1.91923C15.0447 1.90601 15.1025 1.71938 15.1256 1.60707C15.0711 1.75737 14.9604 1.73259 14.9604 1.73259C15.0264 1.65697 15.0679 1.56309 15.0793 1.46338C15.0232 1.61202 14.9439 1.688 14.8233 1.56743C14.7622 1.50632 14.1627 1.51788 13.9893 1.89775C13.8159 2.27762 14.4319 1.94895 14.4319 1.94895Z" fill="#A0593A"/>
<path d="M13.1702 3.3875C12.9386 3.2314 12.7179 3.05979 12.5095 2.87385C12.5095 2.87385 13.0215 2.01005 13.1404 1.87297C13.3056 1.87297 13.3452 1.89774 13.4146 1.86306C13.4776 1.82717 13.5373 1.78572 13.593 1.73919C13.593 1.73919 13.6326 1.48484 13.522 1.59385C13.4972 1.61697 13.4691 1.71441 13.4592 1.71937C13.4162 1.7458 13.4311 1.50136 13.4311 1.50136C13.4518 1.46907 13.4635 1.43182 13.465 1.39348C13.4664 1.35514 13.4576 1.31711 13.4394 1.28334C13.4972 1.24536 13.403 1.1347 13.4129 1.11818C13.4229 1.10167 13.2709 1.14791 13.2478 1.14956C13.1669 1.14956 12.8844 1.49971 12.8316 1.57073C12.7787 1.64174 11.8406 2.64427 11.905 3.05718C11.9513 3.35116 13.0298 4.40159 13.4212 4.34709C13.8126 4.29258 13.7515 3.82187 13.7515 3.82187C13.593 3.60551 13.4179 3.41723 13.1702 3.3875Z" fill="#EAC4B2"/>
<g style="mix-blend-mode:multiply">
<path d="M13.4094 1.86309C13.4717 1.8269 13.5308 1.78546 13.5861 1.73922C13.5861 1.73922 13.6373 1.50139 13.5266 1.61039C13.5035 1.63517 13.4639 1.71445 13.454 1.7194C13.411 1.74583 13.4259 1.50139 13.4259 1.50139C13.4457 1.46848 13.4562 1.43079 13.4562 1.39238C13.4562 1.35397 13.4457 1.31629 13.4259 1.28337C13.4506 1.26594 13.4691 1.24106 13.4787 1.21236L13.4028 1.15125C13.2521 1.26093 13.093 1.35868 12.9271 1.44358C12.8863 1.48561 12.8477 1.52971 12.8115 1.57571C12.7851 1.61039 12.5076 1.9242 12.3325 2.13395C12.4977 2.15212 12.7867 2.21323 13.0212 2.03321C13.053 1.97601 13.0883 1.92085 13.1269 1.86804C13.2971 1.88126 13.34 1.89777 13.4094 1.86309Z" fill="url(#paint2_linear_1232_5607)"/>
</g>
<path d="M13.621 1.35925C13.6364 1.37961 13.6458 1.40384 13.6481 1.42922C13.6504 1.4546 13.6456 1.48013 13.6343 1.50294C13.6138 1.56221 13.5799 1.61593 13.5352 1.65985C13.4922 1.68957 13.3551 1.72756 13.3568 1.68627C13.3551 1.66959 13.3596 1.65287 13.3693 1.63921C13.379 1.62554 13.3933 1.61586 13.4096 1.61195C13.4427 1.60039 13.4889 1.60204 13.5137 1.5624C13.5385 1.52276 13.621 1.35925 13.621 1.35925Z" fill="#EAC4B2"/>
<path d="M13.5797 1.27014C13.5885 1.27123 13.5969 1.2742 13.6045 1.27887C13.612 1.28353 13.6184 1.28976 13.6233 1.29714C13.6281 1.30452 13.6313 1.31287 13.6327 1.32161C13.634 1.33035 13.6334 1.33928 13.6309 1.34777C13.6059 1.43601 13.5638 1.5185 13.5071 1.59055C13.4396 1.61122 13.3695 1.6218 13.299 1.62194C13.2692 1.61037 13.261 1.55587 13.2874 1.54266C13.3138 1.52945 13.4113 1.50302 13.4394 1.49311C13.4942 1.42419 13.5413 1.34942 13.5797 1.27014Z" fill="#EAC4B2"/>
<path d="M13.469 1.17436C13.502 1.16445 13.5895 1.2206 13.573 1.28337C13.5565 1.34613 13.4574 1.50303 13.4079 1.50964C13.3583 1.51624 13.2559 1.53606 13.2543 1.49973C13.2526 1.46339 13.2543 1.45679 13.3104 1.44357C13.3666 1.43036 13.3715 1.39733 13.4029 1.38246C13.4343 1.3676 13.469 1.17436 13.469 1.17436Z" fill="#EAC4B2"/>
<path d="M13.461 1.12806C13.4858 1.18951 13.4858 1.25819 13.461 1.31965C13.4346 1.36919 13.3074 1.46499 13.2744 1.44352C13.2413 1.42205 13.1885 1.38901 13.238 1.36754C13.2803 1.34738 13.3146 1.31366 13.3355 1.27175C13.3565 1.22324 13.373 1.17294 13.385 1.12145C13.3933 1.09503 13.461 1.12806 13.461 1.12806Z" fill="#EAC4B2"/>
<path d="M13.0844 4.3768C12.911 4.29918 13.3751 4.60803 13.4412 4.67409C13.5073 4.74016 14.1018 5.62872 14.1861 6.11099C14.2703 6.59327 14.0771 4.37845 14.0539 4.29422C14.0308 4.20999 13.8574 3.72441 13.8574 3.72441L13.5618 3.59229C13.6112 3.64608 13.645 3.71235 13.6596 3.78395C13.6741 3.85555 13.6689 3.92976 13.6443 3.99858C13.5766 4.27936 13.3801 4.50728 13.0844 4.3768Z" fill="#4BAEE0"/>
<path d="M7.17959 14.6267C7.08545 15.1222 7.06398 15.3815 7.32989 15.3832C7.42568 15.3832 7.53469 15.2725 7.66021 15.3667C7.7526 15.4496 7.86251 15.5107 7.98175 15.5453C8.10099 15.5799 8.2265 15.5871 8.34894 15.5665C8.81304 15.5797 8.81634 15.2593 8.48437 15.1454C8.1524 15.0314 7.84685 14.4731 7.84685 14.4731L7.17959 14.6267Z" fill="black"/>
<path d="M7.46533 14.5822C7.55617 14.6664 7.83364 14.9306 7.90797 15.0066C7.98724 15.0956 8.08444 15.1667 8.19318 15.2154C8.30192 15.2641 8.41974 15.2892 8.53888 15.289C8.62146 15.2775 8.6578 15.2312 8.57191 15.1883C8.4597 15.1492 8.36108 15.0787 8.28784 14.9852C8.10781 14.8035 7.84686 14.3988 7.79235 14.3889C7.71695 14.3992 7.64382 14.4221 7.57599 14.4566L7.46533 14.5822Z" fill="#232121"/>
<path d="M5.43568 14.82C5.32832 15.3336 5.30025 15.6144 5.58102 15.6177C5.68177 15.6177 5.77096 15.517 5.90309 15.6177C6.12416 15.784 6.39881 15.8628 6.67439 15.839C7.16162 15.8605 7.15005 15.5087 6.80156 15.3881C6.45307 15.2676 6.14092 14.6631 6.14092 14.6631L5.43568 14.82Z" fill="black"/>
<path d="M5.94287 14.9818C6.03701 15.0726 6.10803 15.1568 6.18896 15.2312C6.39128 15.3683 6.61434 15.4721 6.84961 15.5384C6.93714 15.5285 6.97678 15.4806 6.88594 15.4327C6.76877 15.3894 6.66626 15.3138 6.5903 15.2147C6.40532 15.0214 6.30788 14.9438 6.25998 14.9322C6.21208 14.9207 5.96599 14.9141 5.96599 14.9141L5.94287 14.9818Z" fill="#232121"/>
<path d="M8.39224 11.8437C8.34434 11.3994 7.26914 9.74121 6.99828 9.32996L6.70264 9.63881C6.90744 9.96913 7.96117 11.3152 7.98264 11.8503C8.0008 12.288 7.84225 14.1956 7.8406 14.8232H8.1957C8.1957 14.8232 8.42197 12.1096 8.39224 11.8437Z" fill="#4686D3"/>
<path d="M8.31107 11.8916C8.29125 11.6372 6.95344 9.66687 6.77507 9.3382C6.84443 9.10533 6.93197 8.85263 6.93197 8.85263L4.74193 8.45459C4.43638 8.97154 4.02017 9.75111 4.30425 10.2482C4.32003 10.275 4.34012 10.299 4.36371 10.3193C4.67256 10.9469 5.38441 11.7628 5.33321 12.0402C5.13667 13.0973 5.35633 15.0891 5.35633 15.0891L6.57852 15.0577C6.57852 15.0577 6.57852 12.1278 6.57852 11.8586C6.5509 11.6846 6.50665 11.5137 6.44639 11.3482C6.78663 11.5563 7.09052 11.7347 7.07566 11.8916C6.9774 12.8799 6.97188 13.8752 7.05914 14.8645L8.19215 14.8249C8.19215 14.8249 8.32923 12.1608 8.31107 11.8916Z" fill="#2B55B2"/>
<path d="M6.24163 10.1938C6.37376 10.4482 6.71234 11.3978 6.70243 11.8702C6.69252 12.3426 6.57856 15.0578 6.57856 15.0578L6.19209 15.0495C6.19209 15.0495 6.19208 13.867 6.3077 11.9544C6.34899 11.2674 5.33985 9.99891 5.4373 9.92459C5.53474 9.85027 6.24163 10.1938 6.24163 10.1938Z" fill="#4686D3"/>
<path d="M9.26748 2.60136C9.26533 2.59077 9.26017 2.58102 9.25262 2.57329C9.21463 2.54191 9.1783 2.55182 9.137 2.58485C9.0825 2.46428 9.00818 2.5386 8.97184 2.57164C8.95698 2.54851 8.9322 2.5386 8.88926 2.56173C8.84632 2.58485 8.83806 2.73845 8.83806 2.73845C8.83806 2.77478 8.8265 2.82103 8.81824 2.87058C8.78851 2.82268 8.77365 2.76157 8.7274 2.7401C8.68116 2.71863 8.66299 2.75662 8.69272 2.7946C8.72711 2.88878 8.752 2.98616 8.76704 3.08529C8.76704 3.11006 8.88926 3.21907 8.9322 3.28018C8.9322 3.3512 8.96689 3.54113 8.90413 3.63362L9.23445 3.79878C9.34661 3.53169 9.41574 3.2485 9.43925 2.95976C9.44451 2.8546 9.4241 2.74974 9.37979 2.65422C9.37998 2.63247 9.37237 2.61137 9.35832 2.59476C9.35202 2.58902 9.34462 2.58462 9.33657 2.58183C9.32852 2.57904 9.31998 2.57792 9.31148 2.57854C9.30298 2.57916 9.2947 2.5815 9.28713 2.58542C9.27957 2.58935 9.27288 2.59477 9.26748 2.60136Z" fill="#D6A092"/>
<path d="M9.3416 3.39405C9.3416 4.24958 9.21773 5.11998 9.12359 5.14641C8.98485 5.41067 8.19043 6.21831 7.83698 6.39668C7.57438 6.52881 7.34976 6.12416 7.39435 5.88798C7.43894 5.6518 8.33907 4.94161 8.62811 4.59477C8.63802 4.24793 8.90062 3.63353 8.9287 3.27348C8.9353 3.1942 9.3416 3.39405 9.3416 3.39405Z" fill="#D6A092"/>
<path d="M7.70508 5.40907C7.75793 5.36448 7.87024 5.19436 7.91979 5.20427C8.19561 5.36943 8.30957 6.1523 8.25837 6.24149C8.20717 6.33067 7.76288 6.83607 7.74967 6.91369C7.73646 6.99132 7.70508 5.40907 7.70508 5.40907Z" fill="black"/>
<path d="M7.38143 4.66748L7.4095 5.51641L7.47557 5.73938C7.47557 5.73938 7.32032 6.48095 7.05276 6.52224C6.78519 6.56353 6.16749 5.3529 6.33431 5.29509C6.61673 5.19599 6.60187 4.66913 6.60187 4.66913L7.38143 4.66748Z" fill="#D6A092"/>
<g style="mix-blend-mode:multiply">
<path d="M6.6759 4.57664C6.64617 4.41148 7.34646 5.23729 7.51492 5.41236L6.55038 6.25633C6.43807 6.19027 6.23988 5.43052 6.2085 5.37107C6.42651 5.33803 6.7271 4.85742 6.6759 4.57664Z" fill="url(#paint3_linear_1232_5607)"/>
</g>
<path d="M7.16989 5.96231C7.46223 5.9012 7.36974 5.44371 7.36974 5.44371C7.48301 5.46552 7.60035 5.44557 7.70006 5.38755C7.81402 5.3314 7.99239 6.37852 7.93128 6.6114C7.8454 6.94172 7.89495 6.93181 7.70501 7.27204C7.59766 7.46528 7.45562 8.64453 7.06914 9.60577C7.04272 9.67183 6.68597 9.90141 5.97412 9.70321C6.20204 8.93356 6.50099 6.39008 6.66615 5.98544C6.68101 5.96066 7.05593 5.98378 7.16989 5.96231Z" fill="#232121"/>
<path d="M6.34254 5.24885C6.05415 5.32035 5.7512 5.30658 5.47049 5.20921C5.2822 5.15305 5.16824 6.75181 5.14016 6.97148C5.11209 7.19114 4.42336 8.60988 4.28628 8.97324C4.20865 9.17638 5.61913 9.79904 6.40695 9.78913C7.28396 8.38691 7.29552 6.04988 7.23276 6.05483C6.34915 6.11925 6.34254 5.24885 6.34254 5.24885Z" fill="black"/>
<path d="M7.25239 6.11095C7.38947 6.07957 7.61244 5.83513 7.48856 5.43049C7.40268 5.30827 7.36635 5.4437 7.36635 5.4437C7.38774 5.57403 7.37289 5.70773 7.3234 5.83018C7.31077 5.86854 7.2868 5.90218 7.25466 5.92665C7.22252 5.95112 7.18372 5.96528 7.14338 5.96726C7.12521 5.96726 7.25239 6.11095 7.25239 6.11095Z" fill="white"/>
<path d="M7.22952 5.9508C7.0995 5.98367 6.96227 5.97286 6.83901 5.92003C6.71574 5.8672 6.61327 5.77529 6.5474 5.65847C6.4648 5.53051 6.40864 5.38731 6.38224 5.2373L6.25342 5.26208C6.26381 5.47501 6.33805 5.67989 6.46648 5.85005C6.56384 5.9606 6.68899 6.04309 6.82897 6.08897C6.96894 6.13486 7.11865 6.14246 7.26255 6.11101L7.22952 5.9508Z" fill="#8FA4BC"/>
<path d="M5.1054 5.03579C5.02117 5.23564 4.83288 5.79058 4.90225 5.94253C4.99805 6.15724 5.26065 6.76834 5.3581 6.78815C5.49023 6.81128 6.06168 5.54119 6.10793 5.43218C6.15418 5.32317 5.9246 5.24224 5.55629 4.8409C5.28377 4.55022 5.1054 5.03579 5.1054 5.03579Z" fill="black"/>
<path d="M6.3409 2.74671C6.2996 2.97133 5.77935 4.09939 5.69842 4.15389C5.64226 4.44622 5.94946 5.47518 5.49197 5.94754C5.28882 6.1606 4.94693 5.83193 4.91886 5.59244C4.89078 5.35296 4.94198 4.25299 5.1154 3.83678C5.23101 3.47177 5.79917 2.92179 5.94121 2.70377C5.9858 2.63441 6.3409 2.74671 6.3409 2.74671Z" fill="#D6A092"/>
<path d="M6.34904 2.95146C6.51835 2.88246 6.67178 2.77961 6.79993 2.64922C6.81712 2.57533 6.81712 2.49849 6.79993 2.4246C6.79993 2.38331 6.7636 2.35358 6.72396 2.44277C6.71074 2.47415 6.70909 2.53856 6.68432 2.56003C6.65954 2.5815 6.6166 2.60462 6.62486 2.56003C6.63312 2.51544 6.85113 2.33046 6.71074 2.29577C6.60834 2.271 6.32427 2.05794 6.15911 2.25944C6.06496 2.3734 5.99394 2.70537 5.82878 2.88705C5.69005 3.02909 6.17232 3.17113 6.17232 3.17113L6.34904 2.95146Z" fill="#D6A092"/>
<path d="M6.75697 2.36681C6.65952 2.42627 6.66282 2.42627 6.63475 2.48408C6.60667 2.54188 6.56042 2.58648 6.5307 2.57657C6.50097 2.56666 6.49436 2.52867 6.5307 2.42627C6.56703 2.32387 6.61493 2.26111 6.69586 2.26111C6.77679 2.26111 6.75697 2.36681 6.75697 2.36681Z" fill="#EAC4B2"/>
<path d="M6.69573 2.26113C6.69573 2.2215 6.666 2.15048 6.6148 2.15213C6.58666 2.15332 6.5593 2.16168 6.5353 2.17642C6.51131 2.19117 6.49149 2.2118 6.47771 2.23636C6.42712 2.31957 6.39975 2.41481 6.39844 2.51218C6.4133 2.58485 6.48102 2.5353 6.50249 2.46594C6.51899 2.40671 6.55365 2.35414 6.60159 2.31564C6.63196 2.29579 6.66339 2.27759 6.69573 2.26113Z" fill="#EAC4B2"/>
<path d="M6.57665 2.17515C6.57467 2.16312 6.56975 2.15176 6.56234 2.14207C6.55493 2.13238 6.54525 2.12467 6.53415 2.11961C6.52305 2.11455 6.51088 2.1123 6.4987 2.11306C6.48653 2.11382 6.47473 2.11756 6.46434 2.12395C6.41479 2.16029 6.31074 2.19332 6.29918 2.25443C6.28762 2.31554 6.22321 2.50548 6.29918 2.50878C6.37515 2.51208 6.38672 2.34362 6.42636 2.30068C6.47417 2.25618 6.52434 2.21427 6.57665 2.17515Z" fill="#EAC4B2"/>
<path d="M6.43469 2.14881C6.43469 2.11412 6.34715 2.08439 6.30256 2.11412C6.246 2.14963 6.20476 2.20501 6.18695 2.26937C6.17208 2.347 6.17043 2.47087 6.21007 2.46922C6.24971 2.46757 6.26622 2.31727 6.2943 2.27763C6.33698 2.23041 6.38398 2.18728 6.43469 2.14881Z" fill="#EAC4B2"/>
<path d="M6.28781 4.01672C6.24132 4.27568 6.25832 4.54204 6.33736 4.79298C6.42159 5.04237 6.54546 5.13487 6.57024 5.13652C6.59501 5.13817 6.61979 5.03742 6.61979 5.03742L6.28781 4.01672Z" fill="black"/>
<path d="M6.48273 4.64272C6.38859 4.29093 6.37208 3.98208 6.87417 3.83508C7.49848 3.65671 7.55463 4.0564 7.68511 4.48086C7.81559 4.90533 7.68511 5.44045 7.36965 5.53789C7.12852 5.61222 6.84774 5.40907 6.67102 5.12169C6.6261 5.10707 6.58545 5.08165 6.55262 5.04768C6.5198 5.0137 6.4958 4.9722 6.48273 4.9268C6.42658 4.78971 6.3952 4.68071 6.48273 4.64272Z" fill="#D6A092"/>
<path d="M7.36805 4.80289C7.25244 3.90936 7.08728 3.81192 7.1071 3.81192C7.48202 3.75081 7.5646 3.94405 7.65874 4.2562C7.65874 4.2562 7.65874 4.29584 7.65874 4.29254C7.75784 4.27107 7.80408 4.40319 7.79913 4.55184C7.79417 4.70048 7.78096 4.78967 7.73306 4.8194C7.73306 5.14973 7.63892 5.44536 7.40274 5.51638H7.37136C7.41056 5.28007 7.40944 5.03882 7.36805 4.80289Z" fill="#EAC4B2"/>
<path d="M7.10041 3.73764L7.08059 3.70791C7.08059 3.70791 6.97489 3.52458 7.00131 3.51963C7.08411 3.50059 7.17107 3.5142 7.2441 3.55761L7.25731 3.51467C7.25731 3.51467 7.33164 3.55761 7.39275 3.589C7.45386 3.62038 7.50175 3.6435 7.50175 3.6435C7.50175 3.6435 7.50175 3.69965 7.47698 3.62533C7.5546 3.62533 7.64214 3.8004 7.66856 3.93088C7.68343 3.96887 7.69829 4.01181 7.71151 4.05805C7.76931 4.24964 7.74124 4.3091 7.74124 4.3091L7.7082 4.34213L7.65866 4.39828L7.63553 4.21661C7.63368 4.15963 7.61334 4.10481 7.57759 4.06042C7.54184 4.01602 7.49261 3.98447 7.43734 3.97052C7.28918 3.95168 7.13867 3.97043 6.99966 4.02502L7.10041 3.73764Z" fill="#232121"/>
<path d="M6.26972 4.10101C6.26082 4.03741 6.27466 3.97271 6.3088 3.91832C6.34295 3.86393 6.3952 3.82334 6.45636 3.80372C6.47617 3.70463 6.67107 3.58901 6.68758 3.60058C6.7041 3.61214 6.58188 3.72114 6.6017 3.77565C6.64346 3.66571 6.71218 3.56802 6.80154 3.49157C6.78854 3.55845 6.7841 3.62672 6.78833 3.69472L6.76356 3.71619C6.75034 3.59892 6.88908 3.40403 6.89734 3.44367C6.9056 3.48331 6.82467 3.58901 6.87091 3.66829C6.86458 3.60803 6.87494 3.54719 6.90087 3.49243C6.92679 3.43766 6.96728 3.39108 7.01791 3.35779C7.01791 3.4767 7.01791 3.55928 7.27391 3.68811C7.27391 3.68811 7.47375 3.92264 7.27391 3.99366C7.2128 4.01678 6.97331 4.06468 6.81641 4.10762C6.72276 4.17197 6.64896 4.26121 6.60335 4.36527C6.59316 4.45892 6.59706 4.55356 6.61491 4.64605H6.47287L6.41672 4.69725C6.32643 4.51102 6.27635 4.30787 6.26972 4.10101Z" fill="black"/>
<path d="M17.3735 13.1584L23.5902 12.549L26.0032 12.9916L25.5424 13.6291L18.6717 14.1807L17.5915 13.6522L17.3735 13.1584Z" fill="#EAA74E"/>
<path d="M25.9916 15.6738L19.1655 16.64V13.6754L25.9916 12.985V15.6738Z" fill="#CC7425"/>
<path d="M19.1657 16.6401L17.3506 15.8638V13.1519L19.1657 13.6523V16.6401Z" fill="#EAA74E"/>
<path d="M18.6947 12.2517L18.338 12.3871H18.0522V7.21594H18.3677H18.6947V12.2517Z" fill="#232121"/>
<path d="M18.0522 7.2159L24.814 6.9054L25.1426 6.94008L24.9064 7.47355L18.4718 7.43887L18.0522 7.2159Z" fill="#232121"/>
<path d="M25.1326 11.7165L18.3379 12.3871L18.3428 7.2836L25.1425 6.94006L25.1326 11.7165Z" fill="black"/>
<path d="M23.1624 12.767L20.4307 12.9107V13.1518C20.4307 13.2492 21.0913 13.2806 21.8742 13.2261C22.5976 13.1749 23.1525 13.061 23.1542 12.98L23.1624 12.767Z" fill="black"/>
<path d="M23.1622 12.767C23.1622 12.8529 22.604 12.9553 21.8789 12.9999C21.1027 13.0461 20.4321 13.0081 20.4321 12.9107C20.4321 12.8132 21.106 12.7026 21.8856 12.6679C22.6123 12.6349 23.1655 12.6794 23.1622 12.767Z" fill="#232121"/>
<path d="M21.9354 11.5597L22.4408 12.8017C22.037 12.8981 21.6195 12.9233 21.207 12.876C21.4482 12.0948 21.615 11.5944 21.615 11.5944L21.9354 11.5597Z" fill="black"/>
<path d="M11.7381 12.9503C11.7536 13.3394 11.6802 13.7269 11.5234 14.0833C11.5234 14.0833 12.298 14.2848 12.3592 14.2749C12.4203 14.265 12.2815 13.4161 12.2617 13.2212C12.2419 13.0263 11.7381 12.9503 11.7381 12.9503Z" fill="#232121"/>
<path d="M11.5799 13.9265C11.5239 13.9912 11.4837 14.0679 11.4622 14.1506C11.4407 14.2334 11.4386 14.32 11.456 14.4038C11.4841 14.6532 11.5881 14.602 11.5881 14.602C11.5881 14.602 11.8326 14.6317 11.9284 14.64C12.0241 14.6482 12.4238 14.8299 12.6088 14.8233C12.7938 14.8167 13.1456 14.744 13.1687 14.6812C13.1836 14.6449 13.2331 14.3823 13.106 14.3674C12.873 14.2815 12.6534 14.1631 12.4536 14.0156C12.3875 13.9578 12.4106 13.8356 12.328 13.8125C12.2455 13.7894 12.1117 13.8852 12.1365 13.938C12.1443 13.9507 12.1494 13.9649 12.1517 13.9796C12.154 13.9944 12.1533 14.0094 12.1497 14.0239C12.1497 14.0239 11.7781 14.118 11.7087 14.0371C11.6724 13.9931 11.6289 13.9557 11.5799 13.9265Z" fill="black"/>
<path d="M8.98811 9.64541C8.63962 9.97573 9.33165 11.0047 9.60086 11.0724C9.87008 11.1401 11.7859 11.2772 11.7612 11.4027C11.7447 11.487 11.4507 11.9907 11.596 13.5862C11.9235 13.6396 12.2552 13.6629 12.587 13.6555C12.587 13.6555 13.0924 11.2822 12.9999 10.9205C12.8826 10.425 11.3714 9.95426 11.2178 9.88819C11.0642 9.82213 11.0741 9.36133 11.0741 9.36133C11.0741 9.36133 9.15493 9.49181 8.98811 9.64541Z" fill="black"/>
<path d="M10.0224 13.1089C10.0533 13.4901 9.98979 13.873 9.8374 14.2237C9.8374 14.2237 10.6632 14.4054 10.7309 14.3971C10.7986 14.3889 10.6236 13.5515 10.5955 13.3583C10.5674 13.165 10.0224 13.1089 10.0224 13.1089Z" fill="#232121"/>
<path d="M9.92961 13.9908C9.86365 14.0401 9.81098 14.105 9.77638 14.1797C9.74178 14.2543 9.72632 14.3365 9.73142 14.4186C9.73142 14.6581 9.80739 14.7093 9.80739 14.7093C9.80739 14.7093 10.0535 14.7853 10.1509 14.8117C10.2484 14.8381 10.44 15.0545 10.6349 15.0875C10.8611 15.1618 11.1072 15.1458 11.3219 15.0429C11.3583 15.0248 11.4458 14.7671 11.3071 14.7258C11.1683 14.6845 10.8958 14.3096 10.8347 14.2402C10.7736 14.1709 10.8182 14.0569 10.7323 14.0189C10.6464 13.9809 10.3491 14.0751 10.3673 14.1312C10.3734 14.1444 10.3765 14.1588 10.3765 14.1733C10.3765 14.1879 10.3734 14.2023 10.3673 14.2155C10.3673 14.2155 10.1047 14.2155 10.037 14.1197C10.0084 14.0712 9.97217 14.0277 9.92961 13.9908Z" fill="black"/>
<path d="M8.54585 9.63878C8.237 10.0021 8.4451 10.9353 8.68458 11.0592C9.18007 11.3185 10.2784 11.3168 10.2553 11.4539C10.2404 11.5431 9.95467 11.9494 9.93651 13.8207C10.432 13.9759 10.6731 13.8983 10.9803 13.9065C10.9803 13.9065 11.4642 11.8222 11.6922 11.0294C11.8953 10.3225 10.4237 9.88322 10.2569 9.83037C10.0901 9.77751 10.2388 9.39929 10.2388 9.39929C10.2388 9.39929 8.69614 9.46371 8.54585 9.63878Z" fill="black"/>
<path d="M11.5315 10.7834C11.5315 10.7834 11.2788 10.3143 10.2416 10.0335C9.8419 9.92618 9.16309 10.1128 9.16309 10.1128C9.8571 10.1466 10.5236 10.3947 11.0707 10.823C11.1579 10.9175 11.2126 11.0373 11.2269 11.1651C11.2412 11.2929 11.2142 11.4218 11.15 11.5332C11.0509 12.1311 10.5356 13.9082 10.5835 13.9198C10.7157 13.9229 10.8481 13.9185 10.9799 13.9066C10.9799 13.9066 11.4919 11.7363 11.5827 11.4936C11.6376 11.3812 11.6618 11.2563 11.6528 11.1316C11.6438 11.0068 11.6019 10.8867 11.5315 10.7834Z" fill="#232121"/>
<path d="M13.0429 10.9551C13.0296 10.5339 11.5564 9.8766 11.1831 9.86339C10.9576 9.85372 10.7317 9.86812 10.5093 9.90633C10.5093 9.90633 12.6679 10.3787 12.7786 10.9402C12.8859 11.4357 12.3459 13.5828 12.3459 13.6638H12.6679C12.6679 13.6638 12.8661 12.5374 12.9735 11.6405C13.0396 11.1054 13.0462 11.0856 13.0379 10.9898C13.0329 10.9914 13.0412 10.9535 13.0429 10.9551Z" fill="#232121"/>
<path d="M9.97768 6.32408C10.0966 6.23159 10.5508 6.19855 10.6763 6.40005C10.8018 6.60155 9.97438 7.09538 9.92318 7.09538C9.87198 7.09538 9.97768 6.32408 9.97768 6.32408Z" fill="#4686D3"/>
<path d="M11.0311 6.25299C10.9668 6.3925 10.9573 6.55113 11.0047 6.69728C11.041 6.86244 10.6579 7.11018 10.5621 7.09531C10.3077 7.05402 9.9873 6.54203 9.9873 6.54203C10.2096 6.30091 10.3784 6.01555 10.4828 5.70466C10.5191 5.56592 11.0311 6.25299 11.0311 6.25299Z" fill="#D6A092"/>
<path style="mix-blend-mode:multiply" d="M11.1751 6.55854C11.071 6.65599 11.0347 7.28525 10.7787 7.38435C10.6598 7.42894 9.82899 7.1234 9.76953 7.01934C9.97763 6.765 10.4979 6.10435 10.5095 5.89129C10.5095 5.88469 11.1866 6.45449 11.1751 6.55854Z" fill="url(#paint4_linear_1232_5607)"/>
<path d="M11.3301 6.60479C11.4449 6.54359 11.5629 6.48846 11.6835 6.43962C11.8256 6.40824 12.5391 6.2051 12.6415 6.12252C12.7439 6.03994 13.2327 5.43214 13.2922 5.19761C13.2707 5.03245 13.2476 4.84747 13.2476 4.84747L13.383 4.65919C13.4194 4.60964 13.4474 4.64598 13.4524 4.7236C13.4524 4.75663 13.4161 4.78802 13.4128 4.82435C13.4095 4.86069 13.4276 4.86234 13.4276 4.86234C13.4276 4.86234 13.5829 4.55349 13.6655 4.65423C13.748 4.75498 13.8917 4.89042 13.8686 5.03411C13.8257 5.29341 13.6688 5.32314 13.639 5.42719C13.573 5.66998 13.1815 6.64608 12.9586 6.72536C12.7356 6.80463 11.8685 7.27039 11.6554 7.25718C11.4424 7.24396 11.3301 6.60479 11.3301 6.60479Z" fill="#D6A092"/>
<path d="M13.5779 4.61293C13.639 4.5799 13.672 4.60137 13.6737 4.67239C13.6737 4.76984 13.5234 4.89041 13.4936 4.86398C13.4639 4.83755 13.5564 4.6245 13.5779 4.61293Z" fill="#EAC4B2"/>
<path d="M13.6936 4.68066C13.7828 4.68066 13.8439 4.76985 13.8125 4.80454C13.7811 4.83922 13.7382 4.92841 13.7052 4.93006C13.6721 4.93171 13.573 5.01594 13.54 5.00107C13.4773 4.973 13.54 4.8772 13.5896 4.85408C13.6391 4.83096 13.6639 4.73847 13.6639 4.73847L13.6936 4.68066Z" fill="#EAC4B2"/>
<path d="M13.7994 4.80457C13.8423 4.80457 13.8737 4.85742 13.8638 4.8954C13.8454 4.93855 13.8197 4.97822 13.7878 5.01267C13.7647 5.03744 13.6226 5.09855 13.5962 5.07213C13.5698 5.0457 13.6243 4.98789 13.6821 4.9433C13.7279 4.90321 13.7675 4.85644 13.7994 4.80457Z" fill="#EAC4B2"/>
<path d="M13.8308 4.92847C13.8638 4.92847 13.8787 4.9681 13.8803 5.00939C13.8759 5.03468 13.8644 5.0582 13.8472 5.07721C13.8299 5.09622 13.8076 5.10993 13.7829 5.11675C13.7333 5.12996 13.6475 5.15804 13.6475 5.12996C13.6475 5.10188 13.6871 5.06555 13.7317 5.03912C13.7707 5.00804 13.8042 4.97063 13.8308 4.92847Z" fill="#EAC4B2"/>
<path d="M10.1177 6.29602C10.0071 6.4298 9.12675 6.59826 9.04582 6.64616C8.69237 6.86417 8.91699 7.52647 8.91699 7.77256C8.91699 8.01865 8.6676 8.62314 8.55859 8.91548C8.22827 9.79414 8.30755 10.2615 8.25635 10.4548C8.52697 10.1598 8.8679 9.93823 9.24732 9.81065C9.81683 9.64414 10.415 9.59913 11.003 9.67852C11.1351 9.70495 11.0773 8.25814 11.0723 7.79569C11.0681 7.47565 11.0083 7.15879 10.8956 6.85922C10.7758 6.9009 10.6476 6.91276 10.5221 6.89376C10.3966 6.87477 10.2777 6.8255 10.1755 6.75021C9.9955 6.61313 10.1177 6.29602 10.1177 6.29602Z" fill="#2B55B2"/>
<path d="M11.3965 6.4132C11.4741 6.39668 11.5881 6.40329 11.6442 6.38677C11.8209 6.33062 11.9415 6.37026 12.0142 6.33557C12.0836 6.69397 12.1232 7.17955 12.0307 7.35131C11.5352 7.54786 11.5815 7.75266 11.4923 7.87653C11.4031 8.0004 11.3965 6.4132 11.3965 6.4132Z" fill="#2B55B2"/>
<path d="M10.9588 6.48098C11.0711 6.32573 11.4708 6.40501 11.4708 6.40501C11.4708 6.40501 11.7003 7.24733 11.5963 7.69327C11.4154 8.09141 11.2819 8.50936 11.1982 8.93858C11.1107 9.53151 11.0909 9.70823 11.0909 9.70823L10.5376 9.62896C10.5376 9.62896 10.7556 8.88903 10.9026 8.11112C11.081 7.17301 10.8349 6.97647 10.8349 6.90875C10.8349 6.84103 10.8217 6.92691 10.934 6.79148C10.9653 6.74656 10.984 6.69414 10.9884 6.63958C10.9927 6.58502 10.9825 6.53029 10.9588 6.48098Z" fill="#4686D3"/>
<path d="M10.1211 5.46191C10.1211 5.58579 10.2466 5.9574 10.2285 6.04989C10.2285 6.07797 10.1921 6.1622 10.1673 6.15394C10.1426 6.14568 10.3474 6.27451 10.3903 6.23652C10.4844 6.15559 10.529 5.60726 10.5092 5.57588C10.3836 5.52609 10.2537 5.48795 10.1211 5.46191Z" fill="black"/>
<path d="M10.4384 5.57262C10.4384 5.22909 10.3591 4.90042 10.886 4.88886C11.5466 4.87399 11.4937 5.24891 11.5136 5.66676C11.5334 6.08462 11.3715 6.58176 11.0379 6.55368C10.8863 6.55375 10.7398 6.49866 10.6259 6.39867C10.5119 6.29868 10.4382 6.16063 10.4185 6.0103C10.3781 5.98123 10.3448 5.9434 10.3211 5.89965C10.2973 5.85589 10.2838 5.80733 10.2815 5.7576C10.2699 5.62217 10.3178 5.50491 10.4384 5.57262Z" fill="#D6A092"/>
<path d="M10.8431 5.46355C10.8117 5.89297 10.8596 6.50902 11.0991 6.55857C11.3848 6.58335 11.4426 6.27285 11.5235 5.98546C11.6028 5.70917 11.6028 5.41614 11.5235 5.13984C11.4575 4.98459 11.3864 4.90696 11.2659 4.88879C11.038 4.94495 10.8678 5.11011 10.8431 5.46355Z" fill="#EAC4B2"/>
<path d="M11.0695 4.86068L11.0579 4.8293C11.0579 4.8293 10.9209 4.75002 10.9456 4.75002C10.9704 4.75002 11.0117 4.70542 11.0431 4.77479L10.9803 4.65918L11.2974 4.75993C11.3406 4.75499 11.3842 4.76617 11.4196 4.79131L11.5105 4.86068C11.5105 4.86068 11.4989 4.91187 11.4907 4.84086C11.5617 4.86233 11.6228 5.02088 11.6211 5.1431C11.6211 5.17778 11.631 5.22899 11.636 5.27358C11.6407 5.40352 11.6318 5.5336 11.6096 5.66171L11.5749 5.68153C11.5749 5.68153 11.6261 5.24055 11.4626 5.11502C11.2991 4.9895 10.9126 5.09355 10.9126 5.09355L11.0695 4.86068Z" fill="#232121"/>
<path d="M10.1395 5.11345C10.2007 4.97871 10.2903 4.85873 10.4021 4.76165C10.4433 4.67742 10.7324 4.71376 11.0099 4.62127C11.0099 4.62127 10.7605 4.70715 10.7555 4.77322C10.8873 4.69588 11.0334 4.64589 11.1849 4.62622C11.066 4.8046 11.0941 4.68403 11.1205 4.76331C11.1205 4.76331 11.1056 4.76331 11.1205 4.76331C11.1106 4.68403 11.1998 4.61136 11.2625 4.59814C11.2345 4.7022 11.3583 4.69889 11.4376 4.81451C11.5169 4.93012 11.6028 5.09693 11.502 5.17291C11.2559 5.34798 11.066 5.19438 10.9091 5.19933C10.8582 5.19887 10.808 5.21136 10.7632 5.23563C10.7184 5.2599 10.6805 5.29515 10.6531 5.33807C10.6144 5.47114 10.5895 5.60784 10.5788 5.74601L10.4797 5.6783L10.3806 5.53956L10.2022 5.76748C10.2022 5.76748 10.0288 5.32485 10.1395 5.11345Z" fill="black"/>
<path d="M8.8563 7.37118C8.9108 7.59085 9.06275 7.66352 9.48887 7.61397C10.0174 7.55121 10.2569 7.31007 10.2635 7.21428C10.275 7.01443 9.90342 6.61475 9.90342 6.61475C9.70096 6.69281 9.49047 6.7482 9.27581 6.77991C8.97191 6.81624 8.76051 6.98801 8.8563 7.37118Z" fill="#EAC4B2"/>
<path d="M10.5242 4.90864C10.5126 4.86075 10.4845 4.8112 10.4466 4.82606C10.4466 4.82606 10.3854 4.72036 10.3392 4.74018C10.3251 4.71388 10.3019 4.69366 10.2739 4.68331C10.2459 4.67297 10.2151 4.67322 10.1873 4.68402C10.1873 4.68402 10.1047 4.61961 10.0386 4.68402C10.0215 4.69479 10.0087 4.71112 10.0023 4.73027C9.98815 4.75837 9.97655 4.78766 9.96759 4.8178C9.94188 4.98923 9.952 5.16414 9.99731 5.33146C9.99731 5.59571 9.75618 6.65275 9.66699 6.76836L10.2335 7.28532C10.3987 7.08877 10.4102 5.76748 10.4234 5.49332C10.4234 5.3744 10.5242 5.24392 10.539 4.99783C10.5405 4.96738 10.5354 4.93698 10.5242 4.90864Z" fill="#EAC4B2"/>
<path d="M9.59461 6.67915C9.17345 6.95662 9.40963 7.64534 9.52194 7.81381C8.84808 7.91455 8.80349 7.60735 8.75889 7.41577C8.73189 7.28196 8.74209 7.1433 8.78839 7.01489C8.83469 6.88647 8.91532 6.7732 9.0215 6.68741C9.1685 6.59657 9.59461 6.67915 9.59461 6.67915Z" fill="#2B55B2"/>
<defs>
<linearGradient id="paint0_linear_1232_5607" x1="16.9406" y1="1.12343" x2="15.898" y2="0.505166" gradientUnits="userSpaceOnUse">
<stop stop-color="white"/>
<stop offset="0.25" stop-color="#FDFCFC"/>
<stop offset="0.44" stop-color="#F5F3F2"/>
<stop offset="0.61" stop-color="#E8E4E2"/>
<stop offset="0.76" stop-color="#D5CECB"/>
<stop offset="0.91" stop-color="#BEB2AE"/>
<stop offset="0.97" stop-color="#B3A6A1"/>
</linearGradient>
<linearGradient id="paint1_linear_1232_5607" x1="14.2726" y1="4.66081" x2="14.8585" y2="3.00507" gradientUnits="userSpaceOnUse">
<stop stop-color="white"/>
<stop offset="0.25" stop-color="#FDFCFC"/>
<stop offset="0.44" stop-color="#F5F3F2"/>
<stop offset="0.61" stop-color="#E8E4E2"/>
<stop offset="0.76" stop-color="#D5CECB"/>
<stop offset="0.91" stop-color="#BEB2AE"/>
<stop offset="0.97" stop-color="#B3A6A1"/>
</linearGradient>
<linearGradient id="paint2_linear_1232_5607" x1="12.3391" y1="1.65499" x2="13.5993" y2="1.65499" gradientUnits="userSpaceOnUse">
<stop stop-color="white"/>
<stop offset="0.25" stop-color="#FDFCFC"/>
<stop offset="0.44" stop-color="#F5F3F2"/>
<stop offset="0.61" stop-color="#E8E4E2"/>
<stop offset="0.76" stop-color="#D5CECB"/>
<stop offset="0.91" stop-color="#BEB2AE"/>
<stop offset="0.97" stop-color="#B3A6A1"/>
</linearGradient>
<linearGradient id="paint3_linear_1232_5607" x1="6.41614" y1="6.32636" x2="7.18552" y2="4.7126" gradientUnits="userSpaceOnUse">
<stop stop-color="white"/>
<stop offset="0.64" stop-color="#C6C0B9"/>
</linearGradient>
<linearGradient id="paint4_linear_1232_5607" x1="9.77278" y1="7.05922" x2="12.56" y2="5.69136" gradientUnits="userSpaceOnUse">
<stop stop-color="white"/>
<stop offset="0.52" stop-color="#C6C0B9"/>
</linearGradient>
</defs>
</svg>
