<svg width="22" height="24" viewBox="0 0 22 24" fill="none" xmlns="http://www.w3.org/2000/svg">
<g clip-path="url(#clip0_1232_6733)">
<path d="M1.08379 20.3774C1.32739 20.5803 1.61299 20.7268 1.92001 20.806C3.23926 21.1562 7.38115 22.2641 11.3691 23.3872C16.1993 24.7426 21.3615 23.52 21.4279 22.8407C21.4944 22.1615 18.2883 21.4702 13.1261 21.1079C9.92304 20.8845 4.21435 18.1041 1.65435 17.8807C1.2047 17.8183 0.746545 17.8712 0.323028 18.0347C-0.286784 18.4 -0.0392307 19.4204 1.08379 20.3774Z" fill="#1C327F"/>
<path d="M13.1169 21.1079C11.686 21.0566 8.21728 19.8008 6.26709 19.1879C7.00973 19.5955 9.61803 20.9993 10.1675 21.446C13.0475 23.7977 14.6595 24.1268 17.2648 23.9577C19.6497 23.8038 21.3826 23.2332 21.4188 22.8408C21.4943 22.1615 18.7743 21.3072 13.1169 21.1079Z" fill="#5473A8"/>
<path d="M13.2073 0.156982C13.2073 0.156982 19.562 10.1857 20.1507 15.6891C20.1704 15.8921 20.1122 16.095 19.9877 16.2566C19.3477 17.0928 16.7877 19.4506 8.05713 19.7857L13.2073 0.156982Z" fill="#FF9900"/>
<path d="M18.0981 5.7449C17.607 5.5476 17.0586 5.5476 16.5675 5.7449C15.8943 6.04679 15.8853 6.60528 15.8853 7.49283H18.7804C18.7804 6.61434 18.7713 6.04679 18.0981 5.7449Z" fill="#2B2A28"/>
<path d="M17.9081 9.27698H16.7881C16.8234 9.60348 16.7836 9.93373 16.6716 10.2424C16.5596 10.5512 16.3785 10.8302 16.1421 11.0581L17.2953 12.4498H17.401L18.5511 11.0581C18.3153 10.8299 18.1347 10.5508 18.0232 10.2421C17.9118 9.93334 17.8724 9.60324 17.9081 9.27698Z" fill="#FCC083"/>
<path d="M17.9078 9.27698H16.7878C16.8154 9.49546 16.8052 9.71705 16.7576 9.93207C16.7274 10.083 17.5999 9.64527 17.8957 9.39169C17.9018 9.31923 17.9078 9.27698 17.9078 9.27698Z" fill="#E8AA63"/>
<path d="M18.8257 7.43545C18.7835 7.32376 18.708 7.38112 18.6476 7.45659C18.6789 6.97979 18.5204 6.50995 18.2069 6.14941H16.4891C16.1749 6.50749 16.0144 6.97495 16.0423 7.45055C15.985 7.37809 15.9125 7.32677 15.8703 7.45055C15.7918 7.65281 15.9759 7.92753 15.9397 8.20828C15.9186 8.39847 16.0665 8.37734 16.1601 8.32602C16.204 8.50068 16.2626 8.67135 16.3352 8.8362C16.4281 9.03996 16.5684 9.21857 16.7443 9.35719C16.9202 9.49581 17.1267 9.59044 17.3465 9.63319C17.5654 9.58816 17.7709 9.49266 17.9464 9.35431C18.122 9.21595 18.2628 9.03855 18.3578 8.8362C18.4336 8.67188 18.4913 8.4998 18.5299 8.323C18.6265 8.37734 18.7804 8.40149 18.7563 8.20828C18.7201 7.91244 18.9042 7.63772 18.8257 7.43545Z" fill="#FCC083"/>
<path d="M17.3644 12.4498H17.3433V12.477L17.3644 12.4498Z" fill="#4D5053"/>
<path d="M16.1357 6.19474C16.1357 6.19474 16.6308 6.99173 17.3735 6.99475C17.8126 6.99025 18.2443 6.8805 18.6324 6.67474C18.6324 6.67474 17.2769 5.06871 16.1357 6.19474Z" fill="#2B2A28"/>
<path d="M16.3231 8.15997C16.2597 7.62563 16.2084 6.37582 17.0084 6.02563L16.7638 5.9079C16.7638 5.9079 16.0483 6.0528 15.9819 7.1577L16.1721 8.326C16.1934 8.3266 16.2146 8.3226 16.2342 8.31425C16.2538 8.3059 16.2714 8.29341 16.2857 8.27765C16.3001 8.26188 16.3108 8.2432 16.3173 8.22289C16.3237 8.20258 16.3257 8.18112 16.3231 8.15997Z" fill="#2B2A28"/>
<path d="M18.5115 8.33511L18.7017 7.17586C18.6353 6.06794 17.9198 5.92303 17.9198 5.92303L17.6753 6.04379C18.4753 6.39096 18.421 7.64077 18.3606 8.17511C18.3578 8.19599 18.3598 8.21722 18.3663 8.23726C18.3727 8.2573 18.3836 8.27564 18.3981 8.29096C18.4125 8.30628 18.4302 8.31819 18.4498 8.32583C18.4694 8.33347 18.4905 8.33663 18.5115 8.33511Z" fill="#2B2A28"/>
<path d="M17.3071 15.1698H16.0995L14.6656 18.3336L14.6021 20.5947C14.4896 20.5664 14.374 20.5522 14.258 20.5524C13.8354 20.5524 13.6542 20.7185 13.5697 20.9298C13.5407 21.0257 13.5348 21.1271 13.5523 21.2257C13.5699 21.3243 13.6105 21.4174 13.6708 21.4974C13.7311 21.5774 13.8094 21.642 13.8994 21.6861C13.9893 21.7301 14.0884 21.7524 14.1886 21.7509H15.5501C15.852 21.6483 16.012 18.5449 16.012 18.5449L17.3071 15.1698Z" fill="#FCC083"/>
<path d="M18.1221 18.249L19.1545 15.1638H17.6632L16.8089 18.2853L17.4428 20.7758C17.2901 20.7771 17.1384 20.8015 16.993 20.8483C16.5885 20.9751 16.4587 21.1955 16.4526 21.4189C16.452 21.5201 16.4756 21.62 16.5215 21.7102C16.5674 21.8004 16.6342 21.8783 16.7164 21.9374C16.7985 21.9966 16.8937 22.0351 16.9938 22.05C17.0939 22.0648 17.1961 22.0554 17.2919 22.0226L18.587 21.609C18.7591 21.5396 18.1221 18.249 18.1221 18.249Z" fill="#FCC083"/>
<path d="M13.0715 0.612854L8.20508 19.2634C10.5689 18.1978 13.0685 17.3706 15.1485 15.8793C15.3211 15.7523 15.4569 15.5816 15.5418 15.3847C15.6267 15.1879 15.6576 14.972 15.6315 14.7593C14.9915 9.98945 14.0798 5.25587 13.0715 0.612854Z" fill="#F8AD00"/>
<path d="M19.1548 15.2875H19.1065L19.1457 15.1698H16.6431H16.0997H15.7978L14.6566 18.3275L14.5933 20.5887C14.5933 20.5887 15.7223 20.8906 15.7827 20.9389C15.9095 20.0996 15.985 18.877 16 18.5962L16.9057 16.4166H17.3072L16.8001 18.2702L17.431 20.7456L18.5117 20.5404C18.391 19.7011 18.1857 18.6143 18.1283 18.3155L19.1548 15.2875Z" fill="#2B2A28"/>
<path d="M19.0579 10.3849C19.0466 10.2688 18.9923 10.1611 18.9058 10.083C18.8192 10.0048 18.7066 9.96174 18.59 9.96229H16.362C16.2446 9.96174 16.1312 10.0051 16.0441 10.0838C15.9569 10.1626 15.9024 10.2711 15.8911 10.3879L15.7764 15.2876H19.1545L19.0579 10.3849Z" fill="#2B2A28"/>
<path d="M11.0278 10.2732C11.5289 9.7751 12.0452 10.3155 12.1357 10.4181L13.3131 11.4325C13.3694 11.489 13.4367 11.5333 13.511 11.5625C13.5853 11.5917 13.6648 11.6052 13.7445 11.6021C13.8243 11.5989 13.9025 11.5793 13.9742 11.5444C14.046 11.5095 14.1097 11.4601 14.1614 11.3993C14.8316 10.8227 15.5742 9.9502 16.2957 9.97737L15.4686 12.0906L14.2882 12.9962C13.9863 13.1774 13.7599 13.1442 13.3976 12.9298L11.3055 11.3993C11.3055 11.3993 10.3999 10.8921 11.0278 10.2732Z" fill="#FCC083"/>
<path d="M13.8989 11.4083C14.5691 10.8287 15.5804 9.95019 16.2989 9.97736L15.7646 11.9879L14.557 12.7879C14.557 12.7879 13.9623 11.5049 13.8989 11.4083Z" fill="#2B2A28"/>
<path d="M8.28675 20.2355C9.44901 17.0596 12.5917 5.46114 13.2256 0.0573705C13.2255 0.0475972 13.222 0.0381703 13.2157 0.0306993C13.2094 0.0232282 13.2007 0.0181715 13.191 0.0163917C13.1814 0.0146119 13.1715 0.0162239 13.1629 0.0209428C13.1544 0.0256618 13.1477 0.0331937 13.1441 0.0422706L7.91846 20.0151C7.99228 20.0225 8.06356 20.046 8.12722 20.0841C8.19088 20.1222 8.24536 20.1739 8.28675 20.2355Z" fill="#614841"/>
<path d="M11.0854 8.61285C11.0854 8.61285 14.5602 10.8046 13.7571 11.7012C12.4953 13.111 9.76318 13.9653 9.76318 13.9653L9.93826 13.1713C9.93826 13.1713 13.739 11.9427 12.9964 10.9978C12.3858 10.3126 11.706 9.69239 10.9677 9.14719L11.0854 8.61285Z" fill="#614841"/>
<path d="M13.5368 11.0339C13.9594 10.4694 14.5481 10.9313 14.6537 11.0339L15.9669 11.8702C16.0309 11.9179 16.1041 11.952 16.1818 11.9701C16.2595 11.9883 16.3402 11.9902 16.4187 11.9758C16.4972 11.9613 16.5719 11.9308 16.638 11.8861C16.7042 11.8415 16.7604 11.7836 16.8032 11.7162C17.3828 11.046 17.9926 10.077 18.7081 9.99847L18.1949 12.2204L17.1564 13.2739C16.8877 13.4973 16.6552 13.4973 16.2658 13.3373L13.9715 12.1298C13.9715 12.1298 13.0085 11.7313 13.5368 11.0339Z" fill="#FCC083"/>
<path d="M16.8062 11.6921C17.3858 11.0219 17.9926 10.0558 18.7081 9.97736H18.7231C18.7842 9.97861 18.8445 9.99089 18.9012 10.0136C18.983 10.0474 19.057 10.0975 19.1187 10.1608C19.1805 10.2241 19.2287 10.2993 19.2605 10.3819C19.3354 10.561 19.3538 10.7587 19.3134 10.9486C19.2729 11.1385 19.1755 11.3115 19.0341 11.4445L17.5669 12.8362C17.5669 12.8362 16.8846 11.7826 16.8062 11.6921Z" fill="#2B2A28"/>
</g>
<defs>
<clipPath id="clip0_1232_6733">
<rect width="21.4279" height="24" fill="white"/>
</clipPath>
</defs>
</svg>
