<svg width="8" height="22" viewBox="0 0 8 22" fill="none" xmlns="http://www.w3.org/2000/svg">
<g clip-path="url(#clip0_1232_2131)">
<path opacity="0.3" d="M5.11152 19.2982C3.90109 19.3744 2.85791 19.6252 2.85791 19.7185C2.85791 19.8118 4.02331 20.0369 5.14904 20.0176C6.36161 19.9973 7.7082 19.7003 7.69748 19.502C7.68676 19.3036 6.32195 19.2232 5.11152 19.2982Z" fill="url(#paint0_radial_1232_2131)"/>
<path opacity="0.99" d="M6.02738 5.52251C5.69073 4.51793 5.5996 1.25224 5.5996 1.16218C5.5996 1.08284 5.67894 1.16003 5.67894 1.03888V0.357011C5.67894 0.269097 5.58674 0.317342 5.58674 0.254087C5.58674 0.212274 5.60711 0.0493111 5.44843 0.022508C5.28869 -0.00429513 4.66685 -6.62715e-06 4.66685 -6.62715e-06C4.66685 -6.62715e-06 4.04502 -0.00429513 3.88635 0.0214359C3.72767 0.048239 3.74804 0.21013 3.74804 0.253015C3.74804 0.317342 3.65584 0.268025 3.65584 0.355939V1.03781C3.65584 1.15896 3.73518 1.08177 3.73518 1.1611C3.73518 1.25116 3.64405 4.51685 3.3074 5.52144C3.05438 6.27621 1.98547 9.25994 1.97904 10.6601C1.96617 13.7897 1.9458 18.7922 1.9458 18.9487C1.9458 19.5234 2.02943 19.5824 2.45613 19.7056C3.28596 19.9458 4.66793 19.964 4.66793 19.964C4.66793 19.964 6.04882 19.9458 6.87972 19.7056C7.30535 19.5824 7.39005 19.5234 7.39005 18.9487C7.39005 18.7922 7.36968 13.7897 7.35681 10.6601C7.35145 9.26101 6.28147 6.27728 6.02845 5.52144L6.02738 5.52251Z" fill="#0C0A0C"/>
<path opacity="0.99" d="M6.87865 19.3583C6.04882 19.5984 4.66685 19.6167 4.66685 19.6167C4.66685 19.6167 3.28596 19.5984 2.45506 19.3583C2.05301 19.2414 1.95545 19.1825 1.9458 18.6925C1.9458 18.8415 1.9458 18.9316 1.9458 18.9498C1.9458 19.5245 2.02943 19.5834 2.45613 19.7067C3.28596 19.9469 4.66793 19.9651 4.66793 19.9651C4.66793 19.9651 6.04882 19.9469 6.87972 19.7067C7.30535 19.5834 7.39005 19.5245 7.39005 18.9498C7.39005 18.9305 7.39005 18.8404 7.39005 18.6925C7.3804 19.1825 7.28284 19.2414 6.88079 19.3583H6.87865Z" fill="#2C2D2E"/>
<path d="M2.06152 11.8984C2.10012 13.4916 2.05616 16.4314 2.10012 18.2358C2.79807 18.4234 6.56552 18.4191 7.23238 18.2358C7.27741 16.426 7.23345 13.4766 7.27205 11.8824C7.27205 11.9638 2.06152 11.981 2.06152 11.8995V11.8984Z" fill="url(#paint1_linear_1232_2131)"/>
<path d="M5.67773 1.03889V0.357018C5.67773 0.318421 5.66057 0.306628 5.6402 0.299123C5.63163 0.296979 5.62412 0.294835 5.61662 0.291618C5.59946 0.286258 5.58553 0.278753 5.58553 0.253022C5.58553 0.211209 5.6059 0.0482459 5.44722 0.0214428C5.42256 0.0171543 5.38718 0.0139379 5.3443 0.0107216C5.10843 -0.00321606 4.66671 3.1176e-07 4.66671 3.1176e-07C4.66671 3.1176e-07 4.225 -0.00321606 3.98913 0.0117937C3.94625 0.0150101 3.91087 0.0182264 3.88621 0.0225149C3.72753 0.049318 3.7479 0.211209 3.7479 0.254094C3.7479 0.278753 3.73397 0.286258 3.71681 0.29269C3.70931 0.294835 3.70073 0.296979 3.69323 0.300195C3.67286 0.3077 3.6557 0.319493 3.6557 0.35809V1.03996C3.6557 1.16111 3.73504 1.08392 3.73504 1.16326C3.73504 1.22973 3.68572 3.01803 3.5249 4.35712C3.84011 4.3732 4.2979 4.38285 4.66671 4.38285C5.03553 4.38285 5.49332 4.3732 5.80853 4.35712C5.64771 3.01803 5.59839 1.22973 5.59839 1.16326C5.59839 1.08392 5.67773 1.16111 5.67773 1.03996V1.03889Z" fill="url(#paint2_linear_1232_2131)"/>
<path d="M4.66681 3.89181C4.3173 3.89181 3.88952 3.88323 3.57646 3.86823C3.57539 3.88109 3.57431 3.89396 3.57324 3.90682C3.8863 3.92183 4.31622 3.93041 4.66681 3.93041C5.01739 3.93041 5.44732 3.92183 5.76038 3.90682C5.7593 3.89396 5.75823 3.88109 5.75716 3.86823C5.44517 3.88323 5.01739 3.89181 4.66788 3.89181H4.66681Z" fill="url(#paint3_linear_1232_2131)"/>
<path d="M4.66683 3.37076C4.3334 3.37076 3.92921 3.36326 3.62151 3.34932C3.60972 3.4962 3.59792 3.64415 3.58398 3.78996C3.89597 3.8039 4.31946 3.81355 4.66683 3.81355C5.0142 3.81355 5.43769 3.80497 5.74968 3.78996C5.73574 3.64415 5.72395 3.4962 5.71215 3.34932C5.40445 3.36326 5.00026 3.37076 4.66683 3.37076Z" fill="url(#paint4_linear_1232_2131)"/>
<path d="M4.66691 3.25818C4.3367 3.25818 3.9368 3.25068 3.63017 3.23674C3.63017 3.24961 3.62803 3.26247 3.62695 3.27534C3.93358 3.2882 4.33563 3.29678 4.66691 3.29678C4.9982 3.29678 5.39918 3.28927 5.70688 3.27534C5.70688 3.26247 5.70473 3.24961 5.70366 3.23674C5.39703 3.24961 4.99713 3.25818 4.66691 3.25818Z" fill="url(#paint5_linear_1232_2131)"/>
<path opacity="0.5" d="M5.98209 5.52358C5.64545 4.519 5.55432 1.25331 5.55432 1.16325C5.55432 1.08391 5.63365 1.16111 5.63365 1.03996V0.357014C5.63365 0.269099 5.54145 0.317345 5.54145 0.25409C5.54145 0.212277 5.56182 0.0493137 5.40315 0.0225106C5.29701 0.00535661 5.25626 0.00106812 5.25626 0.00106812C5.25626 0.00106812 4.73414 0.00428449 4.60227 0.01715C4.62049 0.0192942 4.63658 0.0203664 4.64944 0.0225106C4.80812 0.0493137 4.78775 0.211205 4.78775 0.25409C4.78775 0.318417 4.87995 0.269099 4.87995 0.357014V1.03888C4.87995 1.16004 4.80061 1.08284 4.80061 1.16218C4.80061 1.25224 4.98931 4.47076 5.11582 5.52251C5.23482 6.5153 5.96279 9.26101 5.96816 10.6612C5.98102 13.7907 6.00139 18.7933 6.00139 18.9498C6.00139 19.5245 5.91777 19.5834 5.49106 19.7067C5.05685 19.8322 4.47254 19.8976 4.01367 19.9308C4.32244 19.9533 4.57332 19.9608 4.68482 19.964C4.9625 19.9576 6.1086 19.9169 6.83443 19.7067C7.26007 19.5834 7.34476 19.5245 7.34476 18.9498C7.34476 18.7933 7.32439 13.7907 7.31153 10.6612C7.30617 9.26208 6.23619 6.27836 5.98317 5.52251L5.98209 5.52358Z" fill="url(#paint6_linear_1232_2131)"/>
<path d="M3.92827 0.310911C3.92827 0.310911 4.80527 0.253016 5.66083 0.310911C5.63402 0.288396 5.58578 0.301261 5.58578 0.25516C4.51365 0.18976 3.92827 0.25516 3.92827 0.25516C3.92827 0.25516 3.93792 0.0761153 4.03763 0.00964355C3.97223 0.0128599 3.91755 0.0171484 3.88432 0.022509C3.72564 0.0493122 3.74601 0.212275 3.74601 0.254088C3.74601 0.318415 3.65381 0.269098 3.65381 0.358084V1.04317H5.67905C4.79669 0.969195 4.17057 1.05711 4.02476 0.904867C3.86931 0.741905 3.92934 0.367733 3.92934 0.310911H3.92827Z" fill="url(#paint7_linear_1232_2131)"/>
<path d="M3.6557 1.03996C3.6557 1.15896 3.73504 1.08284 3.73504 1.16218C3.73504 1.22865 3.68572 3.01696 3.5249 4.35604C3.56564 4.35818 3.60853 4.36033 3.65249 4.36247C3.66213 4.21666 3.85512 1.41842 3.85512 1.27261C3.85512 1.1268 4.33757 1.09356 5.59839 1.16647V1.16218V1.15896C5.60054 1.08499 5.67558 1.15682 5.67773 1.0421C5.6713 1.00779 3.74898 1.00672 3.6557 1.03996Z" fill="url(#paint8_linear_1232_2131)"/>
<g opacity="0.8">
<path opacity="0.99" d="M4.04056 0.010728C3.88189 0.0375311 3.90226 0.200494 3.90226 0.242307C3.90226 0.306634 3.81005 0.257317 3.81005 0.345231V1.0271C3.81005 1.14825 3.88939 1.07106 3.88939 1.1504C3.88939 1.24046 3.93657 4.59513 3.59992 5.59971C3.3469 6.35449 2.44738 9.2503 2.44095 10.6494C2.42809 13.779 2.40771 18.7815 2.40771 18.938C2.40771 19.5127 2.49134 19.5716 2.91805 19.6949C2.98881 19.7153 3.06386 19.7346 3.14212 19.7518C3.0006 19.6542 2.96522 19.4987 2.96522 19.1256C2.96522 18.9691 2.98559 13.9666 2.99846 10.837C3.00382 9.43792 3.69105 6.4542 3.94407 5.69835C4.28072 4.69377 4.18423 1.23938 4.18423 1.14932C4.18423 1.06999 4.10489 1.14718 4.10489 1.02603V0.345231C4.10489 0.257317 4.19709 0.305562 4.19709 0.242307C4.19709 0.200494 4.17672 0.0375311 4.3354 0.010728C4.40401 -0.00106539 4.13598 -0.00535389 4.04056 0.010728Z" fill="url(#paint9_linear_1232_2131)"/>
</g>
<path style="mix-blend-mode:screen" d="M2.40786 5.83344C2.1677 6.47993 1.87823 7.49094 1.86429 8.63168C1.85035 9.77778 2.11946 10.8006 2.3446 11.4524C2.43895 11.7258 2.856 11.7312 2.95786 11.4599C3.19801 10.8135 3.49177 9.79815 3.50464 8.65098C3.51858 7.51024 3.25269 6.49279 3.02862 5.84094C2.9332 5.56326 2.50971 5.55897 2.40786 5.83344Z" fill="url(#paint10_radial_1232_2131)"/>
<path style="mix-blend-mode:screen" d="M2.38961 14.5959C2.14624 15.0312 1.85462 15.712 1.84497 16.4818C1.83532 17.2558 2.11514 17.9463 2.3478 18.3869C2.44536 18.5724 2.87314 18.5767 2.97499 18.3944C3.21836 17.9592 3.51427 17.2751 3.52392 16.5011C3.53357 15.7313 3.25696 15.0441 3.02431 14.6023C2.92567 14.4147 2.49253 14.4094 2.38854 14.5948L2.38961 14.5959Z" fill="url(#paint11_radial_1232_2131)"/>
<path d="M7.51864 21.2495C7.52829 21.614 6.097 21.9485 4.32049 21.9946C2.54398 22.0407 1.09661 21.7834 1.08696 21.4189C1.07731 21.0544 2.50967 20.721 4.28511 20.6749C6.06162 20.6288 7.50792 20.8861 7.51757 21.2495H7.51864Z" fill="url(#paint12_radial_1232_2131)"/>
<path d="M1.06872 12.814C1.04728 12.8119 1.02584 12.8097 1.00439 12.8076C1.11804 14.8414 2.75089 15.5362 2.94065 15.6026C2.95245 15.6058 2.95888 15.608 2.95888 15.608C2.95888 15.608 1.05907 14.8822 1.06872 12.814Z" fill="url(#paint13_linear_1232_2131)"/>
<path d="M1.71654 12.8612C1.47853 12.8483 1.25982 12.8323 1.06791 12.813C1.05826 14.8811 2.95806 15.6069 2.95806 15.6069C2.95806 15.6069 1.73155 15.0323 1.71654 12.8612Z" fill="url(#paint14_linear_1232_2131)"/>
<path d="M4.88873 12.8087C4.84692 14.9326 3.13259 15.5501 2.9707 15.6037C5.1171 14.9465 5.23717 13.1914 5.23289 12.7658C5.13211 12.7819 5.01632 12.7958 4.88873 12.8098V12.8087Z" fill="url(#paint15_linear_1232_2131)"/>
<path d="M1.00432 12.8065C0.856367 12.7904 0.72664 12.7733 0.616211 12.7551C0.698765 14.8414 2.72937 15.5351 2.94165 15.6026C2.75081 15.5362 1.11904 14.8414 1.00539 12.8076L1.00432 12.8065Z" fill="url(#paint16_linear_1232_2131)"/>
<path d="M5.49992 12.7143C5.54495 13.1614 5.52887 14.8264 2.96971 15.6048C2.96435 15.6069 2.96113 15.608 2.95898 15.608C2.99973 15.5973 5.2201 15.0097 5.63608 13.5141C5.71327 13.2386 5.73043 12.9277 5.70791 12.6039C5.70791 12.6425 5.63286 12.68 5.49885 12.7143H5.49992Z" fill="url(#paint17_linear_1232_2131)"/>
<path d="M1.7164 12.8612C1.73141 15.0323 2.95792 15.6069 2.95792 15.6069C2.95792 15.6069 2.9665 15.6048 2.96972 15.6026C3.13161 15.5501 4.84594 14.9326 4.88775 12.8076C4.39028 12.8591 3.70734 12.8912 2.95471 12.8912C2.5087 12.8912 2.08736 12.8805 1.71533 12.8601L1.7164 12.8612Z" fill="url(#paint18_linear_1232_2131)"/>
<path d="M0.616422 12.7551C0.359112 12.7111 0.210086 12.6596 0.209014 12.6039C0.1865 12.9266 0.205798 13.2386 0.281919 13.5131C0.688254 14.9711 2.80784 15.5662 2.95151 15.6048C2.94829 15.6048 2.94508 15.6026 2.94186 15.6016C2.72958 15.5351 0.698975 14.8403 0.616422 12.754V12.7551Z" fill="url(#paint19_linear_1232_2131)"/>
<path d="M2.95996 15.608C2.95996 15.608 2.96425 15.6069 2.97068 15.6048L2.95996 15.608Z" fill="url(#paint20_linear_1232_2131)"/>
<path d="M5.23396 12.7658C5.23717 13.1925 5.11817 14.9465 2.97178 15.6037H2.9707C5.52879 14.8253 5.54595 13.1614 5.50092 12.7133C5.42909 12.7315 5.3401 12.7486 5.23503 12.7647L5.23396 12.7658Z" fill="url(#paint21_linear_1232_2131)"/>
<path d="M2.95953 15.6081L2.95166 15.6059L2.95953 15.6081Z" fill="url(#paint22_linear_1232_2131)"/>
<path d="M2.95898 15.608L2.96971 15.6048H2.97078C2.97078 15.6048 2.9622 15.6069 2.95898 15.608Z" fill="url(#paint23_linear_1232_2131)"/>
<path d="M2.95898 15.608L2.96971 15.6048H2.97078C2.97078 15.6048 2.9622 15.6069 2.95898 15.608Z" fill="url(#paint24_linear_1232_2131)"/>
<path d="M2.95164 15.6058L2.95914 15.608C2.95914 15.608 2.95271 15.6058 2.94092 15.6026C2.94521 15.6037 2.94842 15.6048 2.95057 15.6058H2.95164Z" fill="url(#paint25_linear_1232_2131)"/>
<path d="M2.95164 15.6058L2.95914 15.608C2.95914 15.608 2.95271 15.6058 2.94092 15.6026C2.94521 15.6037 2.94842 15.6048 2.95057 15.6058H2.95164Z" fill="url(#paint26_linear_1232_2131)"/>
<path d="M2.95586 12.3144C1.43774 12.3144 0.208008 12.4441 0.208008 12.6039C0.208008 12.7636 1.43881 12.8934 2.95586 12.8934C4.47292 12.8934 5.70801 12.7636 5.70801 12.6039C5.70801 12.4441 4.47399 12.3144 2.95586 12.3144Z" fill="url(#paint27_linear_1232_2131)"/>
<path d="M5.69514 12.5759C5.68013 12.5598 5.65333 12.5438 5.61473 12.5298C5.53861 12.4998 5.42068 12.473 5.26951 12.4483C4.96717 12.399 4.53082 12.3594 4.00762 12.3368C3.74602 12.325 3.46191 12.3175 3.16064 12.3154C2.86045 12.3133 2.5431 12.3154 2.21503 12.3261C1.88696 12.3358 1.54816 12.3529 1.20616 12.3829C1.03462 12.398 0.862004 12.4162 0.689392 12.443C0.603622 12.4558 0.51678 12.4719 0.432082 12.4923C0.389197 12.503 0.347384 12.5148 0.306643 12.5298C0.286273 12.5373 0.265903 12.5459 0.247676 12.5577C0.238027 12.5631 0.22945 12.5706 0.221945 12.5781C0.214441 12.5856 0.208008 12.5963 0.208008 12.607C0.208008 12.5963 0.214441 12.5856 0.221945 12.5781C0.22945 12.5706 0.238027 12.5641 0.247676 12.5577C0.265903 12.5459 0.286273 12.5373 0.306643 12.5298C0.347384 12.5148 0.389197 12.503 0.432082 12.4923C0.51678 12.4719 0.60255 12.4569 0.689392 12.4441C0.862004 12.4183 1.03462 12.4001 1.20616 12.3851C1.54924 12.3561 1.88803 12.3401 2.21503 12.3304C2.5431 12.3208 2.85937 12.3186 3.16064 12.3208C3.46083 12.3229 3.74495 12.3304 4.00762 12.3411C4.53189 12.3636 4.96824 12.4022 5.26951 12.4505C5.42068 12.4751 5.53861 12.5019 5.61473 12.532C5.65333 12.547 5.68013 12.5631 5.69514 12.5781C5.70265 12.5856 5.70586 12.5931 5.70694 12.5984C5.70694 12.6038 5.70801 12.6059 5.70801 12.6059C5.70801 12.6059 5.70801 12.6027 5.70694 12.5984C5.70479 12.5931 5.70265 12.5856 5.69514 12.5781V12.5759Z" fill="#751328"/>
<path d="M5.69514 12.6328C5.68013 12.6489 5.65333 12.665 5.61473 12.6789C5.53861 12.709 5.42068 12.7358 5.26951 12.7604C4.96717 12.8087 4.53082 12.8473 4.00762 12.8698C3.74602 12.8805 3.46191 12.888 3.16064 12.8902C2.86045 12.8923 2.5431 12.8902 2.21503 12.8805C1.88696 12.8709 1.54924 12.8548 1.20616 12.8258C1.03462 12.8108 0.862004 12.7926 0.689392 12.7669C0.603622 12.754 0.51678 12.739 0.432082 12.7186C0.389197 12.7079 0.347384 12.6961 0.306643 12.6811C0.286273 12.6736 0.265903 12.665 0.247676 12.6532C0.238027 12.6479 0.22945 12.6414 0.221945 12.6328C0.214441 12.6253 0.208008 12.6146 0.208008 12.6039C0.208008 12.6146 0.214441 12.6253 0.221945 12.6328C0.22945 12.6404 0.238027 12.6479 0.247676 12.6532C0.265903 12.665 0.286273 12.6736 0.306643 12.6811C0.347384 12.6961 0.389197 12.7079 0.432082 12.7186C0.51678 12.739 0.60255 12.754 0.689392 12.7679C0.862004 12.7947 1.03462 12.813 1.20616 12.828C1.54924 12.858 1.88803 12.8741 2.21503 12.8848C2.5431 12.8944 2.85937 12.8977 3.16064 12.8955C3.46083 12.8934 3.74495 12.8848 4.00762 12.873C4.53189 12.8494 4.96824 12.8097 5.26951 12.7604C5.42068 12.7358 5.53861 12.7079 5.61473 12.6779C5.65333 12.6629 5.68013 12.6468 5.69514 12.6307C5.70265 12.6232 5.70586 12.6157 5.70694 12.6103C5.70694 12.605 5.70801 12.6028 5.70801 12.6028C5.70801 12.6028 5.70801 12.606 5.70694 12.6103C5.70479 12.6157 5.70265 12.6232 5.69514 12.6307V12.6328Z" fill="#751328"/>
<path opacity="0.1" d="M4.22423 9.60838C5.99216 13.1249 2.11107 15.1341 0.278809 13.5141C0.699082 15.0237 2.9559 15.608 2.9559 15.608C2.9559 15.608 5.2138 15.0237 5.633 13.5141C6.05327 12.0024 4.69703 9.44327 4.69703 9.44327C4.69703 9.44327 4.66487 9.53869 4.22423 9.60945V9.60838Z" fill="url(#paint28_linear_1232_2131)"/>
<path opacity="0.1" d="M2.95548 9.67484C1.29583 9.67484 1.21434 9.43576 1.21434 9.43576C1.21434 9.43576 -0.142965 11.9949 0.27838 13.5066C0.698653 15.0162 2.95655 15.608 2.95655 15.608C2.95655 15.608 0.315904 14.6592 1.2122 12.412C1.74076 11.0879 4.6162 9.82173 4.69661 9.43576C4.69661 9.43576 4.61512 9.67484 2.95548 9.67484Z" fill="url(#paint29_linear_1232_2131)"/>
<g opacity="0.5">
<path d="M1.21777 9.43577C1.21777 9.43577 1.23814 9.49581 1.46758 9.55585C1.7206 9.61696 2.1784 9.67164 2.8935 9.67485H2.90423C2.91924 9.67485 2.93532 9.67485 2.95033 9.67485H2.95676C3.73512 9.67485 4.22187 9.61374 4.47703 9.54834C4.68074 9.49045 4.70003 9.43577 4.70003 9.43577C4.61534 9.34786 3.91846 9.28246 2.95569 9.28246C1.99292 9.28246 1.30247 9.34571 1.21777 9.43577Z" fill="url(#paint30_linear_1232_2131)"/>
</g>
<path opacity="0.5" d="M3.34277 9.67056C3.89921 9.65448 4.26587 9.60409 4.47601 9.54941C4.67971 9.49152 4.69901 9.43684 4.69901 9.43684C4.63147 9.36715 4.17367 9.31033 3.50145 9.29103C3.53468 9.51082 3.34277 9.67056 3.34277 9.67056Z" fill="url(#paint31_linear_1232_2131)"/>
<g opacity="0.5">
<path opacity="0.5" d="M2.41534 9.28996C1.74311 9.30926 1.28532 9.36608 1.21777 9.43577C1.21777 9.43577 1.23707 9.49152 1.44078 9.54834C1.65091 9.60302 2.01758 9.65341 2.57401 9.66949C2.57401 9.66949 2.38103 9.50868 2.41534 9.28996Z" fill="url(#paint32_linear_1232_2131)"/>
</g>
<path opacity="0.94" d="M2.97606 20.5848C1.97255 20.5848 1.09984 20.7971 0.916504 21.0501V21.1316C0.916504 21.4339 1.83853 21.6784 2.97606 21.6784C4.11358 21.6784 5.03561 21.4339 5.03561 21.1316V21.0501C4.86943 20.7917 3.99457 20.5848 2.97606 20.5848Z" fill="url(#paint33_linear_1232_2131)"/>
<path opacity="0.94" d="M2.97606 20.5033C1.83853 20.5033 0.916504 20.7478 0.916504 21.0501C0.916504 21.3524 1.83853 21.5969 2.97606 21.5969C4.11358 21.5969 5.03561 21.3524 5.03561 21.0501C5.03561 20.7478 4.11358 20.5033 2.97606 20.5033Z" fill="url(#paint34_linear_1232_2131)"/>
<path opacity="0.6" d="M1.64028 20.633C1.19642 20.7338 0.915527 20.8828 0.915527 21.0501C0.915527 21.3524 1.83755 21.5969 2.97508 21.5969C4.1126 21.5969 5.03463 21.3524 5.03463 21.0501C4.68083 21.5133 1.07742 21.5969 1.64028 20.633Z" fill="white"/>
<path opacity="0.94" d="M3.78756 20.9139C3.78756 20.9139 3.77148 21.1616 2.95774 21.1616C2.51066 21.1616 2.13863 20.9332 2.11183 20.8539C2.06251 20.7092 2.5246 20.3886 4.11456 20.5944C4.11456 20.5944 3.09283 20.3918 1.85667 20.5912C1.85667 20.5912 2.02821 20.6309 1.96817 20.7424C1.90813 20.8539 1.71515 20.8593 1.71193 20.9343C1.70871 21.0083 2.21904 21.257 2.95452 21.257C3.64283 21.257 4.33863 21.1251 4.34721 21.0512C4.35472 20.9772 3.78649 20.915 3.78649 20.915L3.78756 20.9139Z" fill="white"/>
<g opacity="0.5">
<path d="M2.97603 20.5033H2.87418C2.80771 20.5055 2.71015 20.5076 2.58685 20.514C2.46356 20.5205 2.31346 20.5312 2.14192 20.5526C1.97038 20.5741 1.77847 20.6041 1.57262 20.6556C1.4697 20.6813 1.36356 20.7135 1.25849 20.7563C1.20596 20.7778 1.15342 20.8024 1.10303 20.8325C1.05264 20.8625 1.0044 20.8979 0.967945 20.944C0.949719 20.9675 0.935781 20.9933 0.930421 21.0222C0.927204 21.0362 0.927204 21.0501 0.927204 21.0662V21.1134C0.927204 21.1209 0.927204 21.1294 0.927204 21.1359C0.927204 21.1402 0.927204 21.1434 0.927204 21.1477V21.1584C0.931493 21.1723 0.936853 21.1873 0.943286 21.2002C0.956152 21.227 0.976522 21.2506 0.999037 21.272C1.04407 21.3149 1.09982 21.3481 1.15664 21.3771C1.21453 21.406 1.27457 21.4307 1.33783 21.4521C1.46219 21.4961 1.59299 21.5283 1.72701 21.5561C1.86102 21.5829 1.99718 21.6044 2.13549 21.6205C2.4121 21.6537 2.69407 21.6676 2.97711 21.6676C3.26015 21.6676 3.54212 21.6526 3.81872 21.6194C3.95703 21.6022 4.09319 21.5819 4.2272 21.554C4.36015 21.5272 4.49095 21.494 4.61639 21.45C4.67857 21.4286 4.73968 21.4039 4.7965 21.375C4.8544 21.346 4.90908 21.3128 4.9541 21.2699C4.97662 21.2484 4.99592 21.2249 5.00985 21.1981C5.01629 21.1841 5.02165 21.1702 5.02379 21.1562V21.1455C5.02379 21.1455 5.02594 21.138 5.02594 21.1348C5.02594 21.1273 5.02594 21.1198 5.02594 21.1112V21.0501C5.02594 21.0501 5.02594 21.0501 5.02594 21.048V21.0362C5.02594 21.0362 5.02594 21.0329 5.02486 21.0308C5.02486 21.0276 5.02486 21.0244 5.02272 21.0201C5.01736 20.9922 5.00235 20.9654 4.9852 20.9429C4.94874 20.8968 4.89943 20.8614 4.85011 20.8314C4.79972 20.8014 4.74718 20.7767 4.69465 20.7553C4.58958 20.7124 4.48344 20.6813 4.38052 20.6545C4.17467 20.602 3.98276 20.5719 3.81122 20.5505C3.72545 20.5398 3.64504 20.5312 3.57106 20.5258C3.49709 20.5194 3.42847 20.5151 3.36629 20.5119C3.24299 20.5055 3.14543 20.5033 3.07896 20.5022H2.97711L2.97603 20.5033ZM2.97603 20.5033H3.00177C3.01892 20.5033 3.04465 20.5033 3.07789 20.5033C3.14436 20.5033 3.24192 20.5055 3.36522 20.5119C3.4274 20.5151 3.49601 20.5194 3.56999 20.5248C3.64397 20.5301 3.72438 20.5376 3.81015 20.5473C3.98169 20.5666 4.17467 20.5944 4.38159 20.6438C4.48451 20.6684 4.59173 20.6984 4.69894 20.7413C4.75255 20.7628 4.80615 20.7874 4.85761 20.8164C4.90908 20.8464 4.95947 20.8818 4.99913 20.9311C5.01843 20.9558 5.03451 20.9847 5.04202 21.0169C5.04202 21.0212 5.04309 21.0254 5.04416 21.0297C5.04416 21.034 5.04416 21.0383 5.04524 21.0415V21.0469C5.04524 21.0469 5.04524 21.049 5.04524 21.0501V21.0651C5.04524 21.0801 5.04524 21.0962 5.04524 21.1123C5.04524 21.1198 5.04524 21.1273 5.04524 21.1359C5.04524 21.1402 5.04524 21.1444 5.04524 21.1487L5.04309 21.1616C5.03987 21.1777 5.03451 21.1938 5.02701 21.2088C5.012 21.2388 4.99056 21.2645 4.96697 21.287C4.91872 21.3321 4.86297 21.3664 4.80401 21.3964C4.74504 21.4264 4.68393 21.4511 4.62067 21.4736C4.49523 21.5175 4.36336 21.5508 4.22935 21.5787C4.09533 21.6065 3.9581 21.6269 3.8198 21.643C3.54212 21.6751 3.25908 21.6902 2.97496 21.6902C2.69192 21.6902 2.40781 21.6751 2.1312 21.6419C1.9929 21.6248 1.85566 21.6044 1.72165 21.5765C1.58763 21.5486 1.45576 21.5154 1.33032 21.4714C1.26707 21.4489 1.20596 21.4243 1.14699 21.3953C1.08802 21.3653 1.03227 21.331 0.984027 21.286C0.96044 21.2635 0.938998 21.2377 0.923988 21.2077C0.916483 21.1927 0.911122 21.1766 0.907906 21.1605L0.905762 21.1477C0.905762 21.1477 0.905762 21.1402 0.905762 21.1359C0.905762 21.1273 0.905762 21.1198 0.905762 21.1123C0.905762 21.0962 0.905762 21.0812 0.905762 21.0651C0.905762 21.0501 0.905762 21.0329 0.908978 21.0169C0.915411 20.9847 0.932565 20.9558 0.951863 20.9311C0.991532 20.8818 1.04192 20.8464 1.09338 20.8164C1.14485 20.7864 1.19845 20.7628 1.25206 20.7413C1.35927 20.6995 1.46541 20.6684 1.56941 20.6438C1.77633 20.5944 1.96931 20.5666 2.14085 20.5462C2.22662 20.5366 2.30703 20.529 2.38101 20.5237C2.45498 20.5183 2.5236 20.514 2.58578 20.5108C2.70908 20.5044 2.80664 20.5033 2.87311 20.5022C2.90635 20.5022 2.93208 20.5022 2.94923 20.5022H2.97496L2.97603 20.5033Z" fill="black"/>
</g>
<path opacity="0.5" d="M3.629 20.5312C4.44167 20.6341 4.77939 21.3149 2.97607 21.5969C4.1136 21.5969 5.03563 21.3524 5.03563 21.0501C5.03563 20.8089 4.44596 20.6041 3.629 20.5312Z" fill="#B3B3B3"/>
<path opacity="0.7" d="M2.41311 20.5237C2.23621 20.5365 2.06896 20.558 1.91458 20.5805C1.10834 20.6984 1.18875 21.3224 1.18875 21.3224C1.56721 21.4929 1.97354 21.5283 2.2212 21.5594C1.28202 20.8228 2.41311 20.5237 2.41311 20.5237Z" fill="white"/>
<path d="M3.26135 20.7424C3.27529 20.7703 3.27529 20.7896 3.24098 20.7917C3.21739 20.7939 3.19166 20.7917 3.16915 20.7853C3.12304 20.7713 3.0362 20.6984 2.95472 20.6984C2.87324 20.6984 2.78747 20.7703 2.74244 20.7853C2.71993 20.7928 2.6749 20.7939 2.65131 20.7917C2.617 20.7885 2.61807 20.7703 2.63094 20.7424C2.64166 20.7199 2.7939 20.4572 2.7939 20.4572C2.7939 20.4572 2.53016 20.7681 2.53981 20.781C2.54946 20.7939 2.68776 20.825 2.75209 20.8014C2.81642 20.7789 2.87324 20.7167 2.95365 20.7167C3.03406 20.7167 3.09303 20.7789 3.15735 20.8014C3.22168 20.8239 3.32675 20.7853 3.3364 20.7724C3.34605 20.7596 3.11447 20.4572 3.11447 20.4572C3.11447 20.4572 3.24956 20.721 3.26028 20.7424H3.26135Z" fill="#1A1A1A"/>
<path d="M3.92501 14.9272C3.72774 14.9915 3.31926 15.058 2.96975 15.058C2.62024 15.058 2.34685 15.0226 2.08739 14.9508C2.36936 15.0451 2.587 15.0462 2.50123 15.0934C2.4948 15.0934 2.49158 15.0923 2.48837 15.0923C1.43661 14.9787 0.953084 14.5498 0.882324 14.479C1.48915 15.0848 2.30289 15.356 2.44119 15.4375C2.57092 15.5265 2.70065 15.6294 2.76176 15.7163C2.8411 15.8288 2.83681 16.3939 2.83681 16.6372C2.83681 16.8806 2.85503 19.6381 2.85503 19.755C2.85503 19.8718 2.8486 20.1088 2.79071 20.2707C2.77891 20.3018 2.65347 20.5205 2.55698 20.6866C2.4948 20.7939 2.44441 20.8796 2.44441 20.8796C2.44441 20.8796 2.70172 20.5408 2.95903 20.5408C3.21634 20.5408 3.41575 20.8646 3.41575 20.8646C3.41575 20.8646 3.40289 20.8389 3.38252 20.7981C3.35786 20.7499 3.32355 20.6791 3.28603 20.6062C3.21205 20.4572 3.13164 20.2942 3.12306 20.2717C3.0641 20.1098 3.05874 19.8729 3.05874 19.756C3.05874 19.6392 3.07696 16.8806 3.07696 16.6383C3.07696 16.396 3.07375 15.831 3.15308 15.7173C3.20991 15.6359 3.32677 15.5415 3.44792 15.4568C3.59802 15.3657 4.42677 15.0859 5.03574 14.4769C5.00786 14.5005 4.41283 15.0172 3.3986 15.0966C3.54548 15.0398 3.81137 14.9883 3.92716 14.9283L3.92501 14.9272Z" fill="black"/>
<path d="M0.88121 14.4781L0.878906 14.4758L0.88121 14.4781Z" fill="black"/>
<path d="M3.34052 20.8067C3.35768 20.8593 3.35875 20.8946 3.31586 20.9C3.28692 20.9032 3.25475 20.9021 3.22688 20.8882C3.17006 20.8614 3.0607 20.7252 2.95885 20.7252C2.857 20.7252 2.75085 20.8603 2.69403 20.8871C2.66616 20.9011 2.60933 20.9021 2.58039 20.8989C2.5375 20.8936 2.53857 20.8582 2.55573 20.8057C2.56859 20.7638 2.79052 20.2685 2.79052 20.2685C2.79052 20.2685 2.43136 20.8528 2.44316 20.8775C2.45495 20.9011 2.62756 20.959 2.70797 20.9161C2.78838 20.8732 2.85914 20.7563 2.95885 20.7563C3.05855 20.7563 3.13253 20.8732 3.21294 20.9161C3.29335 20.959 3.42415 20.8861 3.43594 20.8625C3.44774 20.8389 3.12181 20.2685 3.12181 20.2685C3.12181 20.2685 3.32766 20.7638 3.34052 20.8057V20.8067Z" fill="black"/>
<path d="M2.81108 20.8228L2.68457 20.9054C2.68457 20.9054 2.7489 20.9761 2.95582 20.9761C3.16274 20.9761 3.23243 20.9054 3.23243 20.9054L3.11556 20.8228C3.11556 20.8228 2.94724 20.8989 2.81108 20.8228Z" fill="black"/>
<path d="M2.85824 20.7746L2.82715 20.8003C2.82715 20.8003 2.84966 20.8335 2.95902 20.8335C3.06838 20.8335 3.09518 20.7971 3.09518 20.7971L3.0673 20.7746C3.0673 20.7746 2.96009 20.8432 2.85824 20.7746Z" fill="black"/>
<path d="M3.26786 20.9633C3.02341 21.0737 2.89261 21.0758 2.64924 20.9686C2.51951 20.9107 2.41016 20.9686 2.41016 20.9686C2.41016 20.9686 2.59349 21.0898 2.96016 21.0898C3.32682 21.0898 3.48979 20.9568 3.48979 20.9568C3.48979 20.9568 3.4008 20.9043 3.26786 20.9643V20.9633Z" fill="#666666"/>
<path d="M3.38777 20.6974C3.38777 20.6974 3.38455 20.6974 3.38563 20.6984C3.40814 20.7381 3.46925 20.8518 3.46282 20.8635C3.4328 20.9172 3.31487 20.9536 3.24196 20.945C3.24089 20.945 3.23982 20.9472 3.24196 20.9472C3.33524 20.9943 3.60541 20.959 3.63114 20.9C3.63972 20.8807 3.48962 20.8142 3.38884 20.6952L3.38777 20.6974Z" fill="#333333"/>
<path d="M2.646 20.944C2.56988 20.9557 2.44552 20.9279 2.41764 20.8764C2.41228 20.8657 2.45731 20.7799 2.48411 20.7306C2.48626 20.7263 2.4809 20.7231 2.47768 20.7263C2.3769 20.8346 2.24181 20.8957 2.25039 20.9139C2.27612 20.9708 2.54522 20.9911 2.64815 20.9482C2.65136 20.9472 2.64922 20.9429 2.64708 20.9429L2.646 20.944Z" fill="#333333"/>
<path d="M2.95591 20.5709C2.88729 20.5709 2.83154 20.6481 2.83154 20.6663C2.83154 20.6845 2.88729 20.6395 2.95591 20.6395C3.02453 20.6395 3.08028 20.6856 3.08028 20.6663C3.08028 20.647 3.02453 20.5709 2.95591 20.5709Z" fill="black"/>
<path d="M2.76181 15.7163C2.84115 15.8288 2.83686 16.3939 2.83686 16.6372L2.85509 19.755C2.85509 19.8718 2.84866 20.1088 2.79076 20.2707C2.77897 20.3018 2.65353 20.5205 2.55704 20.6866C2.49486 20.7939 2.70178 20.5033 2.95909 20.5033L2.95694 15.8642C2.86581 15.7924 2.7586 15.712 2.76181 15.7163Z" fill="url(#paint35_linear_1232_2131)"/>
<path opacity="0.25" d="M1.21434 9.43576C1.21434 9.43576 -0.142965 11.9949 0.27838 13.5066C0.574286 14.568 1.77828 15.1727 2.46659 15.4375C2.61561 15.4954 2.77643 15.3764 2.70353 15.2617C2.24894 14.5455 1.51561 12.398 2.95548 9.67484C1.29583 9.67484 1.21434 9.43576 1.21434 9.43576Z" fill="url(#paint36_linear_1232_2131)"/>
<path d="M1.5299 9.57193C1.5299 9.57193 -0.323806 12.4141 0.748319 14.3397C0.886623 14.5209 1.20612 14.7717 1.46235 14.9358C0.0964674 12.6789 1.93409 9.63304 1.93409 9.63304C1.76148 9.61589 1.62961 9.59444 1.5299 9.57193Z" fill="url(#paint37_linear_1232_2131)"/>
<path d="M4.2518 9.59659C4.2518 9.59659 6.31242 14.0448 3.77148 15.3014C4.17568 15.118 4.70959 14.8918 5.03874 14.4705C6.32636 12.8215 4.567 9.51833 4.567 9.51833C4.50053 9.54406 4.40082 9.57193 4.2518 9.59766V9.59659Z" fill="url(#paint38_linear_1232_2131)"/>
<g opacity="0.94">
<path d="M4.70198 9.42934C4.70198 9.42934 4.69447 9.43041 4.69233 9.43363C4.68911 9.44113 4.68053 9.44864 4.6741 9.454C4.66659 9.46043 4.65802 9.46686 4.64944 9.47222C4.628 9.48509 4.60441 9.49688 4.5819 9.50653C4.52829 9.52904 4.47147 9.54513 4.41572 9.55799C4.30529 9.58265 4.19486 9.60088 4.08229 9.61589C3.96435 9.6309 3.84642 9.64269 3.72741 9.65127C3.60626 9.65984 3.48404 9.66628 3.36182 9.67056C3.23852 9.67485 3.11416 9.677 2.99086 9.67807C2.86543 9.67807 2.74106 9.67807 2.61562 9.67378C2.4934 9.67057 2.37118 9.66628 2.24895 9.65877C2.12995 9.65127 2.00987 9.64162 1.89086 9.62768C1.77722 9.61481 1.66357 9.59873 1.55207 9.57515C1.49632 9.56335 1.4395 9.55049 1.38589 9.53119C1.33872 9.51403 1.29047 9.49581 1.25081 9.46579C1.24223 9.45936 1.23365 9.45185 1.22722 9.44327C1.22507 9.44006 1.224 9.43577 1.22079 9.43363C1.2165 9.42934 1.20899 9.43363 1.21006 9.44006C1.21006 9.44435 1.21435 9.44863 1.21757 9.45292C1.22079 9.45721 1.22507 9.4615 1.22936 9.46579C1.23687 9.47329 1.24544 9.47865 1.25402 9.48509C1.29905 9.51403 1.35051 9.53333 1.40197 9.54834C1.5124 9.58158 1.62605 9.5998 1.73969 9.61481C1.85548 9.6309 1.97235 9.64269 2.08813 9.65127C2.20928 9.65984 2.32936 9.66735 2.45051 9.67164C2.57381 9.67593 2.69817 9.67807 2.82147 9.67914C2.94583 9.67914 3.0702 9.67914 3.19457 9.677C3.31786 9.67485 3.44116 9.67057 3.56445 9.6652C3.6856 9.65877 3.80675 9.65127 3.92683 9.63947C4.04369 9.62875 4.16162 9.61481 4.27741 9.59552C4.39106 9.57622 4.50792 9.55478 4.61406 9.5076C4.63336 9.49902 4.65266 9.48938 4.67088 9.47651C4.67624 9.47222 4.7202 9.44006 4.7009 9.43255L4.70198 9.42934Z" fill="url(#paint39_linear_1232_2131)"/>
</g>
<path d="M5.65869 12.1868L5.66084 12.1997C5.6662 12.234 5.67048 12.2587 5.65869 12.1868Z" fill="url(#paint40_linear_1232_2131)"/>
<path d="M5.65626 12.175L5.65841 12.1868C5.64662 12.1139 5.6509 12.1407 5.65626 12.175Z" fill="url(#paint41_linear_1232_2131)"/>
<path d="M0.374023 11.6165V11.6197C0.374023 11.6133 0.376168 11.6058 0.378312 11.5993C0.37724 11.6047 0.375096 11.61 0.374023 11.6165Z" fill="url(#paint42_linear_1232_2131)"/>
<path d="M5.69062 12.4088C5.68204 12.3391 5.6724 12.2683 5.6606 12.1986L5.65631 12.175C5.64345 12.0989 5.62951 12.0228 5.61343 11.9467C5.59735 11.8673 5.57912 11.788 5.55982 11.7087C5.54052 11.6293 5.52015 11.5511 5.49871 11.4728C5.47727 11.3945 5.45475 11.3163 5.43117 11.2391C5.40758 11.1619 5.38292 11.0836 5.35719 11.0075C5.33146 10.9314 5.30573 10.8542 5.27785 10.777C5.25105 10.7009 5.22318 10.6248 5.19423 10.5486C5.16528 10.4725 5.13633 10.3975 5.10631 10.3213C5.07629 10.2452 5.0452 10.1712 5.01411 10.0962C4.98302 10.0211 4.95086 9.94717 4.91762 9.87212C4.88438 9.79815 4.85115 9.72417 4.81684 9.65019C4.79969 9.61374 4.78253 9.57622 4.76431 9.53977C4.75573 9.52154 4.74608 9.50331 4.7375 9.48401C4.73321 9.47544 4.72893 9.46579 4.72464 9.45721C4.72035 9.44863 4.71606 9.43899 4.7107 9.43041C4.70641 9.42398 4.69783 9.41862 4.6914 9.4154C4.68282 9.41111 4.67425 9.40682 4.66567 9.40361C4.64744 9.3961 4.62815 9.39074 4.60885 9.38538C4.57025 9.37466 4.52951 9.36715 4.48984 9.36072C4.40943 9.34785 4.32902 9.33821 4.24754 9.3307C4.16606 9.3232 4.08458 9.31676 4.0031 9.3114C3.92162 9.30604 3.84013 9.30175 3.75758 9.29854C3.6761 9.29532 3.59354 9.2921 3.51206 9.28996C3.43058 9.28782 3.34803 9.28567 3.26655 9.2846C3.18507 9.28353 3.10251 9.28246 3.02103 9.28246C2.98565 9.28246 2.95134 9.28246 2.91596 9.28246C2.87737 9.28246 2.8377 9.28246 2.7991 9.28246C2.7723 9.28246 2.74657 9.28246 2.71976 9.28246C2.63828 9.28246 2.55573 9.28353 2.47425 9.28567C2.39169 9.28674 2.31021 9.28889 2.22766 9.2921C2.1451 9.29532 2.06362 9.29854 1.98107 9.30283C1.89959 9.30711 1.81703 9.31247 1.73555 9.31998C1.65407 9.32748 1.57366 9.33606 1.49218 9.34786C1.45144 9.35429 1.41177 9.36072 1.37103 9.3693C1.33243 9.37787 1.29384 9.38645 1.25738 9.40146C1.24023 9.40789 1.22308 9.41647 1.20914 9.42934C1.20271 9.4347 1.20056 9.44435 1.19627 9.45185C1.19199 9.4615 1.18662 9.47008 1.18234 9.47973C1.16411 9.51511 1.14588 9.55156 1.12873 9.58694C1.09335 9.65984 1.05797 9.73275 1.02473 9.80672C0.990426 9.8807 0.95719 9.95468 0.925026 10.0287C0.892863 10.1026 0.860699 10.1777 0.829607 10.2527C0.798516 10.3278 0.768496 10.4028 0.739549 10.4789C0.710601 10.5551 0.681654 10.6301 0.653779 10.7073C0.625904 10.7834 0.5991 10.8606 0.573369 10.9367C0.547638 11.0139 0.521907 11.0911 0.498321 11.1683C0.473662 11.2455 0.451147 11.3238 0.428633 11.402C0.410406 11.4674 0.39218 11.5339 0.375026 11.6004C0.390036 11.5425 0.405046 11.4857 0.4222 11.4278C0.440426 11.3656 0.458652 11.3034 0.47795 11.2412C0.497249 11.179 0.517619 11.1169 0.537989 11.0547C0.55836 10.9925 0.579802 10.9314 0.601245 10.8703C0.622687 10.8081 0.646274 10.747 0.668788 10.6859C0.692375 10.6248 0.715962 10.5636 0.739549 10.5025C0.763135 10.4414 0.787794 10.3814 0.813525 10.3213C0.839256 10.2613 0.863915 10.2002 0.890718 10.1402C0.916449 10.0801 0.943252 10.0211 0.970056 9.96111C0.996859 9.90214 1.02473 9.8421 1.05261 9.78314C1.08048 9.72417 1.10836 9.66628 1.13731 9.60838C1.15124 9.58051 1.16518 9.55263 1.17912 9.52476C1.18662 9.51082 1.19306 9.49688 1.20056 9.48294C1.20378 9.47651 1.20807 9.46901 1.21128 9.46257L1.21664 9.45185L1.21879 9.44649C1.21879 9.44649 1.222 9.44113 1.21986 9.44327V9.44113C1.21986 9.44113 1.222 9.44113 1.22308 9.44006C1.22415 9.43899 1.22522 9.43791 1.22737 9.43684C1.23058 9.4347 1.23273 9.43255 1.23594 9.43041C1.24238 9.42719 1.24881 9.42398 1.25524 9.42076C1.26811 9.4154 1.28097 9.41004 1.29491 9.40575C1.32278 9.39717 1.35173 9.39074 1.37961 9.38431C1.43857 9.37251 1.49754 9.36286 1.55758 9.35536C1.67766 9.33928 1.79774 9.32963 1.91781 9.31998C2.04004 9.3114 2.16119 9.3039 2.28341 9.29854C2.40456 9.29318 2.52571 9.28889 2.64793 9.28674C2.77015 9.2846 2.8913 9.28353 3.01353 9.28353C3.13468 9.28353 3.25583 9.28567 3.37698 9.28782C3.4992 9.29103 3.62035 9.29532 3.74257 9.30068C3.86372 9.30711 3.98487 9.31462 4.10495 9.32534C4.22503 9.33606 4.34618 9.34893 4.46518 9.37037C4.52308 9.38109 4.58204 9.39181 4.63779 9.41218C4.65066 9.41647 4.66353 9.42183 4.67532 9.42826C4.68068 9.43148 4.68604 9.4347 4.69033 9.43899C4.69569 9.44327 4.69891 9.45078 4.70212 9.45721C4.71606 9.48401 4.72893 9.50975 4.74286 9.53655C4.79647 9.64376 4.84793 9.75205 4.89832 9.86033C4.94871 9.96969 4.99696 10.079 5.04413 10.1895C5.0913 10.301 5.13633 10.4125 5.18029 10.525C5.22425 10.6365 5.26606 10.7491 5.30573 10.8628C5.3454 10.9764 5.38399 11.0911 5.41937 11.2069C5.45475 11.3216 5.48799 11.4374 5.51908 11.5532C5.55017 11.6701 5.57805 11.7869 5.60378 11.9049C5.62844 12.0217 5.64988 12.1397 5.66703 12.2587C5.68419 12.3788 5.69813 12.4988 5.70563 12.62C5.71314 12.7401 5.71528 12.8612 5.70992 12.9813C5.70778 13.0403 5.70349 13.0981 5.69705 13.156C5.71421 12.9952 5.69277 13.1968 5.69705 13.156C5.68312 13.2836 5.65846 13.4112 5.62093 13.5334C5.58555 13.6492 5.53838 13.7629 5.48048 13.8701C5.42366 13.9773 5.35612 14.0802 5.28214 14.1767C5.20602 14.2764 5.12132 14.3697 5.03234 14.4576C4.94442 14.5434 4.85222 14.6249 4.75573 14.6999C4.65709 14.7782 4.55417 14.8511 4.44803 14.9197C4.33974 14.9894 4.22932 15.0548 4.11674 15.1159C4.0031 15.177 3.88838 15.2349 3.77152 15.2885C3.65466 15.3421 3.53565 15.3925 3.41557 15.4397C3.29442 15.4868 3.17113 15.5308 3.04783 15.5705C3.01781 15.5801 2.98779 15.5887 2.95778 15.5973C2.95778 15.5973 2.95563 15.5973 2.95778 15.5973C2.89452 15.5801 2.83126 15.5597 2.76908 15.5394C2.7069 15.519 2.64579 15.4965 2.5836 15.474C2.52249 15.4515 2.46245 15.4279 2.40134 15.4032C2.3413 15.3796 2.28234 15.3539 2.22337 15.3282C2.1644 15.3024 2.10544 15.2756 2.04754 15.2467C1.98965 15.2188 1.93175 15.1899 1.87493 15.1598C1.81811 15.1298 1.76236 15.0998 1.70661 15.0687C1.65085 15.0376 1.59618 15.0044 1.54257 14.9711C1.48896 14.9379 1.43643 14.9036 1.3839 14.8682C1.33136 14.8328 1.2799 14.7964 1.22951 14.7578C1.18019 14.7203 1.13087 14.6817 1.0837 14.642C1.03653 14.6023 0.989354 14.5616 0.944325 14.5187C0.899295 14.4769 0.855338 14.4329 0.812453 14.3879C0.77064 14.344 0.7299 14.2979 0.691303 14.2518C0.652707 14.2046 0.615182 14.1563 0.579802 14.1059C0.544422 14.0566 0.512258 14.0052 0.481167 13.9537C0.450075 13.9012 0.4222 13.8476 0.395397 13.7929C0.369666 13.7382 0.346079 13.6814 0.325709 13.6246C0.313915 13.5913 0.302122 13.5581 0.292473 13.5238C0.277463 13.4712 0.263525 13.4187 0.252804 13.3651C0.239939 13.3019 0.229217 13.2375 0.221712 13.1732C0.214208 13.1078 0.208847 13.0424 0.205631 12.977C0.202414 12.9116 0.201342 12.8462 0.202414 12.7808C0.202414 12.7154 0.205631 12.6489 0.209919 12.5835C0.214208 12.5181 0.219568 12.4527 0.227073 12.3873C0.234578 12.3219 0.243155 12.2576 0.252804 12.1922C0.262453 12.1279 0.274247 12.0625 0.28604 11.9981C0.297833 11.9338 0.311771 11.8706 0.325709 11.8062C0.339646 11.743 0.354656 11.6808 0.370738 11.6186C0.369666 11.624 0.367521 11.6304 0.366449 11.6358C0.346079 11.714 0.327853 11.7934 0.310699 11.8727C0.293545 11.952 0.277463 12.0314 0.263525 12.1118C0.249588 12.1922 0.236722 12.2726 0.226001 12.353C0.21528 12.4334 0.206703 12.5138 0.20027 12.5953C0.193837 12.6768 0.189549 12.7583 0.188477 12.8398C0.188477 12.9212 0.188477 13.0027 0.194909 13.0853C0.20027 13.1657 0.209919 13.2472 0.223857 13.3265C0.23565 13.3962 0.251732 13.4637 0.27103 13.5313C0.284968 13.5795 0.30105 13.6267 0.318204 13.6728C0.345007 13.7436 0.376098 13.8122 0.410406 13.8787C0.444714 13.9451 0.483311 14.0105 0.525124 14.0738C0.569081 14.1392 0.615182 14.2024 0.665572 14.2635C0.71489 14.3247 0.767424 14.3826 0.823174 14.4383C0.878925 14.4951 0.935748 14.5487 0.995787 14.6013C1.05583 14.6538 1.11694 14.7042 1.18126 14.7524C1.24345 14.7996 1.30777 14.8457 1.37317 14.8886C1.43857 14.9326 1.50505 14.9744 1.57152 15.014C1.63906 15.0548 1.70768 15.0934 1.77737 15.1309C1.84705 15.1684 1.91781 15.2038 1.98965 15.2381C2.06148 15.2724 2.13438 15.3057 2.20729 15.3367C2.28126 15.3678 2.35524 15.3989 2.43029 15.4268C2.50641 15.4557 2.58253 15.4836 2.65865 15.5094C2.73477 15.5351 2.81197 15.5597 2.89023 15.5823C2.90953 15.5876 2.92883 15.593 2.94813 15.5983C2.95134 15.5983 2.95456 15.6005 2.95778 15.6005C2.96314 15.6005 2.9685 15.5983 2.97278 15.5962C2.98243 15.5941 2.99316 15.5908 3.0028 15.5887C3.0414 15.578 3.08 15.5672 3.11859 15.5555C3.19579 15.5319 3.27298 15.5061 3.35017 15.4793C3.42629 15.4525 3.50241 15.4236 3.57746 15.3936C3.65251 15.3635 3.72649 15.3325 3.80047 15.2992C3.87444 15.266 3.94735 15.2317 4.01918 15.1952C4.09101 15.1588 4.16284 15.1212 4.2336 15.0816C4.30222 15.043 4.37084 15.0022 4.43731 14.9604C4.50378 14.9186 4.56811 14.8757 4.63136 14.8296C4.69462 14.7846 4.75573 14.7385 4.81577 14.6892C4.87581 14.6409 4.9337 14.5905 4.98945 14.538C5.0452 14.4865 5.09881 14.4319 5.15027 14.3761C5.20066 14.3204 5.24891 14.2625 5.29501 14.2024C5.34111 14.1424 5.38399 14.0802 5.42259 14.0159C5.46119 13.9516 5.49764 13.8851 5.5298 13.8175C5.56197 13.7489 5.58984 13.6782 5.6145 13.6063C5.64023 13.5313 5.65953 13.453 5.67561 13.3748C5.69169 13.2954 5.70241 13.215 5.70885 13.1346C5.71635 13.0531 5.71957 12.9716 5.71957 12.8902C5.71957 12.8087 5.71635 12.7272 5.71206 12.6457C5.7067 12.5642 5.6992 12.4838 5.68955 12.4034L5.69062 12.4088Z" fill="url(#paint43_linear_1232_2131)"/>
<path d="M5.69833 13.156C5.69405 13.1968 5.71549 12.9952 5.69833 13.156V13.156Z" fill="url(#paint44_linear_1232_2131)"/>
<path d="M5.65839 12.1868L5.65625 12.175L5.66054 12.1986L5.65839 12.1858V12.1868Z" fill="url(#paint45_linear_1232_2131)"/>
<path d="M2.896 20.1635C2.896 20.1635 2.89707 20.2481 2.90136 20.2674C2.90457 20.2867 2.93995 20.3028 2.95925 20.3028C2.97855 20.3028 3.01393 20.2867 3.01715 20.2674C3.02036 20.2481 3.02251 20.1635 3.02251 20.1635C3.02251 20.1635 2.99785 20.1817 2.95925 20.1817C2.92065 20.1817 2.896 20.1635 2.896 20.1635Z" fill="white"/>
<path d="M2.95905 20.3436C2.92045 20.3436 2.89579 20.3253 2.89579 20.3253C2.89579 20.3253 2.89365 20.4036 2.90115 20.4186C2.91831 20.4519 2.95476 20.4519 2.95905 20.4519C2.96334 20.4519 2.99979 20.4519 3.01694 20.4186C3.02445 20.4036 3.0223 20.3253 3.0223 20.3253C3.0223 20.3253 2.99764 20.3436 2.95905 20.3436Z" fill="white"/>
<path d="M2.95686 15.6316C2.9322 15.6316 2.89575 15.6348 2.87109 15.6498C2.8861 15.7109 2.88503 16.6211 2.88503 17.6407C2.88503 18.6603 2.90219 20.0552 2.90219 20.0552C2.90219 20.0552 2.91291 20.1056 2.95579 20.1056C2.99868 20.1056 3.0094 20.0552 3.0094 20.0552C3.0094 20.0552 2.99117 18.6603 2.99117 17.6407C2.99117 16.6211 3.02655 15.7109 3.04156 15.6498C3.0169 15.6348 2.98045 15.6316 2.95579 15.6316H2.95686Z" fill="url(#paint46_linear_1232_2131)"/>
<path d="M2.83008 15.6337C2.88261 15.6198 2.92657 15.6187 2.95659 15.6187C2.98661 15.6187 3.03057 15.6198 3.0831 15.6337C3.0831 15.6337 3.03914 15.6101 2.95659 15.6101C2.87404 15.6101 2.83008 15.6337 2.83008 15.6337Z" fill="#8C8C8C"/>
<path d="M2.59766 15.0709C2.61374 15.0784 2.71452 15.0902 2.71452 15.0902C2.71452 15.0923 2.74883 15.1191 2.95682 15.1191C3.16481 15.1191 3.20019 15.0923 3.19912 15.0902C3.19912 15.0902 3.2999 15.0784 3.31598 15.0709C3.20984 15.0859 2.98577 15.0891 2.95682 15.0891C2.92894 15.0891 2.7038 15.0859 2.59766 15.0709Z" fill="#B3B3B3"/>
<path d="M2.80473 15.1288C2.80473 15.1288 2.80045 15.1641 2.87442 15.1641H3.0406C3.11351 15.1641 3.11029 15.1288 3.11029 15.1288H2.80581H2.80473Z" fill="#EFEEE1"/>
<path d="M2.77003 15.2252C2.78504 15.2327 2.77754 15.2424 2.77968 15.2531C2.77968 15.2585 2.7904 15.2638 2.80112 15.266C2.81613 15.2692 2.81077 15.2735 2.80863 15.2756C2.80327 15.2788 2.8022 15.2831 2.80541 15.2853C2.80863 15.2864 2.83114 15.2853 2.83114 15.2885C2.83114 15.2917 2.79791 15.2917 2.79791 15.2917C2.79791 15.3228 2.79683 15.3582 2.8172 15.3678C2.83436 15.3753 2.86223 15.3753 2.87403 15.3753H3.04342C3.05522 15.3753 3.08309 15.3753 3.10025 15.3678C3.12062 15.3593 3.11954 15.3228 3.11954 15.2917C3.11954 15.2917 3.08631 15.2917 3.08631 15.2885C3.08631 15.2864 3.10882 15.2864 3.11204 15.2853C3.11526 15.2842 3.11418 15.2799 3.10882 15.2756C3.10668 15.2735 3.10132 15.2692 3.11633 15.266C3.12598 15.2638 3.1367 15.2585 3.13777 15.2531C3.13884 15.2424 3.13241 15.2327 3.14742 15.2252C3.16243 15.2177 3.19781 15.2156 3.19781 15.2156H2.72607C2.72607 15.2156 2.76145 15.2177 2.77646 15.2252H2.77003ZM3.08631 15.266C3.08631 15.266 3.08631 15.2724 3.07344 15.2746C3.06165 15.2756 2.85151 15.2756 2.83972 15.2746C2.82685 15.2735 2.82685 15.266 2.82685 15.266H3.08738H3.08631Z" fill="url(#paint47_linear_1232_2131)"/>
<path d="M3.27433 15.3678C3.27433 15.3678 3.28291 15.3528 3.31615 15.3475C3.35045 15.3421 3.39656 15.3367 3.41049 15.34C3.42014 15.3421 3.42014 15.3507 3.38476 15.3582C3.35045 15.3657 3.3065 15.3903 3.2872 15.4011C3.2679 15.4107 3.17463 15.4429 2.95698 15.4429C2.73934 15.4429 2.64607 15.4107 2.62677 15.4011C2.60747 15.3914 2.56351 15.3668 2.52921 15.3582C2.4949 15.3507 2.49383 15.3421 2.50348 15.34C2.51741 15.3367 2.56351 15.341 2.59782 15.3475C2.63213 15.3528 2.63964 15.3678 2.63964 15.3678C2.62141 15.3153 2.27833 15.2939 2.26868 15.3067C2.26439 15.3121 2.26439 15.3196 2.43164 15.3914C2.58603 15.4579 2.85299 15.4675 2.9602 15.4675C3.06741 15.4675 3.32794 15.4579 3.48233 15.3914C3.64958 15.3196 3.64958 15.3121 3.64529 15.3067C3.63564 15.2939 3.29256 15.3153 3.27433 15.3678Z" fill="url(#paint48_linear_1232_2131)"/>
<path d="M2.62451 15.4482C2.62451 15.4482 2.65131 15.4579 2.67919 15.4686C2.69742 15.4761 2.69206 15.4815 2.71671 15.4911C2.75531 15.5051 2.86896 15.5072 2.95687 15.5072C3.04478 15.5072 3.15843 15.5061 3.19703 15.4911C3.22169 15.4815 3.21632 15.4761 3.23455 15.4686C3.26243 15.4579 3.28923 15.4482 3.28923 15.4482C3.18309 15.4697 3.04264 15.4772 2.95687 15.4772C2.8711 15.4772 2.73065 15.4697 2.62451 15.4482Z" fill="#666666"/>
<path d="M2.80022 15.5297H3.11221C3.13472 15.5297 3.1508 15.5147 3.1508 15.5147H2.7627C2.7627 15.5147 2.7777 15.5297 2.80129 15.5297H2.80022Z" fill="#8C8C8C"/>
<path d="M2.81939 15.5512C2.81939 15.5512 2.83547 15.5512 2.84941 15.5512C2.84941 15.5544 2.84941 15.5608 2.86227 15.5651C2.87192 15.5683 2.94161 15.5672 2.95662 15.5672C2.97163 15.5672 3.04132 15.5694 3.05097 15.5651C3.06383 15.5608 3.06383 15.5544 3.06383 15.5512C3.07777 15.5512 3.08957 15.5512 3.09385 15.5512C3.11208 15.549 3.11744 15.5351 3.11744 15.5351H2.79688C2.79688 15.5351 2.80224 15.549 2.82046 15.5512H2.81939Z" fill="#B3B3B3"/>
<path d="M2.62867 15.2049H3.28481C3.3009 15.2049 3.30411 15.1984 3.30411 15.1984H2.60938C2.60938 15.1984 2.61259 15.2049 2.62867 15.2049Z" fill="#EFEEE1"/>
<path style="mix-blend-mode:screen" d="M2.77324 15.6745C2.70141 16.0594 2.61564 16.6608 2.61671 17.3363C2.61671 18.016 2.70462 18.6196 2.77753 19.0045C2.80755 19.1664 2.93727 19.1664 2.96729 19.0045C3.03913 18.6196 3.12597 18.016 3.1249 17.3363C3.1249 16.6608 3.03805 16.0594 2.96515 15.6745C2.93406 15.5104 2.80326 15.5104 2.77324 15.6745Z" fill="url(#paint49_radial_1232_2131)"/>
<path style="mix-blend-mode:screen" d="M0.404038 10.7577C0.224993 11.2123 0.00949614 11.9242 -0.000152985 12.7272C-0.00980211 13.5345 0.190685 14.255 0.359009 14.7128C0.429769 14.9057 0.740685 14.909 0.815734 14.7181C0.994779 14.2635 1.21242 13.5484 1.22207 12.7411C1.23172 11.9381 1.03338 11.2219 0.866124 10.762C0.794291 10.5669 0.479087 10.5626 0.402966 10.7566L0.404038 10.7577Z" fill="url(#paint50_radial_1232_2131)"/>
<path style="mix-blend-mode:screen" d="M4.6098 8.99191C4.51438 8.8536 4.29888 8.91686 4.29245 9.08411C4.27851 9.47758 4.30103 10.0812 4.48543 10.7116C4.67091 11.3463 4.97861 11.8684 5.20268 12.1922C5.29703 12.3284 5.50931 12.2662 5.51575 12.1011C5.52968 11.7076 5.50824 11.1018 5.32383 10.4671C5.13943 9.83674 4.83387 9.31676 4.61087 8.99191H4.6098Z" fill="url(#paint51_radial_1232_2131)"/>
</g>
<defs>
<radialGradient id="paint0_radial_1232_2131" cx="0" cy="0" r="1" gradientUnits="userSpaceOnUse" gradientTransform="translate(5.2777 19.6445) scale(1.73148 1.73148)">
<stop offset="0.3" stop-color="#333333"/>
<stop offset="0.61" stop-color="#363637"/>
<stop offset="0.93" stop-color="#424143"/>
<stop offset="0.99" stop-color="#454447"/>
</radialGradient>
<linearGradient id="paint1_linear_1232_2131" x1="2.06152" y1="15.1277" x2="7.27205" y2="15.1277" gradientUnits="userSpaceOnUse">
<stop stop-color="#B7B5B5"/>
<stop offset="0.04" stop-color="#CAC8C9"/>
<stop offset="0.09" stop-color="#E0DFE0"/>
<stop offset="0.15" stop-color="#EFEFF1"/>
<stop offset="0.21" stop-color="#F9F8FB"/>
<stop offset="0.29" stop-color="#FCFCFF"/>
<stop offset="0.37" stop-color="#F0F1F2"/>
<stop offset="0.54" stop-color="#DFE0E0"/>
<stop offset="0.65" stop-color="#DADBDA"/>
<stop offset="1" stop-color="#9F9E9E"/>
</linearGradient>
<linearGradient id="paint2_linear_1232_2131" x1="3.47987" y1="2.19142" x2="5.85356" y2="2.19142" gradientUnits="userSpaceOnUse">
<stop stop-color="#7D1819"/>
<stop offset="0.07" stop-color="#993531"/>
<stop offset="0.14" stop-color="#AD4943"/>
<stop offset="0.21" stop-color="#B9554D"/>
<stop offset="0.28" stop-color="#BE5A51"/>
<stop offset="0.49" stop-color="#953C38"/>
<stop offset="0.75" stop-color="#5D1215"/>
<stop offset="0.85" stop-color="#631215"/>
<stop offset="0.98" stop-color="#741515"/>
<stop offset="1" stop-color="#771615"/>
</linearGradient>
<linearGradient id="paint3_linear_1232_2131" x1="3.57324" y1="3.89824" x2="5.76038" y2="3.89824" gradientUnits="userSpaceOnUse">
<stop stop-color="#AFAFAF"/>
<stop offset="0.05" stop-color="#C1C1C1"/>
<stop offset="0.12" stop-color="#D8D8D8"/>
<stop offset="0.2" stop-color="#E9E9E9"/>
<stop offset="0.29" stop-color="#F3F3F3"/>
<stop offset="0.4" stop-color="#F7F7F7"/>
<stop offset="0.5" stop-color="#EFEFEF"/>
<stop offset="0.65" stop-color="#DBDBDB"/>
<stop offset="0.7" stop-color="#D3D3D3"/>
<stop offset="1" stop-color="#A3A3A3"/>
</linearGradient>
<linearGradient id="paint4_linear_1232_2131" x1="3.58398" y1="3.5809" x2="5.74968" y2="3.5809" gradientUnits="userSpaceOnUse">
<stop stop-color="#B7B5B5"/>
<stop offset="0.04" stop-color="#CAC8C9"/>
<stop offset="0.09" stop-color="#E0DFE0"/>
<stop offset="0.15" stop-color="#EFEFF1"/>
<stop offset="0.21" stop-color="#F9F8FB"/>
<stop offset="0.29" stop-color="#FCFCFF"/>
<stop offset="0.37" stop-color="#F0F1F2"/>
<stop offset="0.54" stop-color="#DFE0E0"/>
<stop offset="0.65" stop-color="#DADBDA"/>
<stop offset="1" stop-color="#9F9E9E"/>
</linearGradient>
<linearGradient id="paint5_linear_1232_2131" x1="3.62695" y1="3.26783" x2="5.70688" y2="3.26783" gradientUnits="userSpaceOnUse">
<stop stop-color="#AFAFAF"/>
<stop offset="0.05" stop-color="#C1C1C1"/>
<stop offset="0.12" stop-color="#D8D8D8"/>
<stop offset="0.2" stop-color="#E9E9E9"/>
<stop offset="0.29" stop-color="#F3F3F3"/>
<stop offset="0.4" stop-color="#F7F7F7"/>
<stop offset="0.5" stop-color="#EFEFEF"/>
<stop offset="0.65" stop-color="#DBDBDB"/>
<stop offset="0.7" stop-color="#D3D3D3"/>
<stop offset="1" stop-color="#A3A3A3"/>
</linearGradient>
<linearGradient id="paint6_linear_1232_2131" x1="4.0126" y1="9.98255" x2="7.34262" y2="9.98255" gradientUnits="userSpaceOnUse">
<stop stop-color="white"/>
<stop offset="1" stop-color="white"/>
</linearGradient>
<linearGradient id="paint7_linear_1232_2131" x1="3.65274" y1="0.526408" x2="5.67798" y2="0.526408" gradientUnits="userSpaceOnUse">
<stop stop-color="#5D1215"/>
<stop offset="0.23" stop-color="#631216"/>
<stop offset="0.55" stop-color="#74151A"/>
<stop offset="0.92" stop-color="#901920"/>
<stop offset="1" stop-color="#981B22"/>
</linearGradient>
<linearGradient id="paint8_linear_1232_2131" x1="3.5249" y1="2.68888" x2="5.67773" y2="2.68888" gradientUnits="userSpaceOnUse">
<stop stop-color="#5D1215"/>
<stop offset="0.23" stop-color="#631216"/>
<stop offset="0.55" stop-color="#74151A"/>
<stop offset="0.92" stop-color="#901920"/>
<stop offset="1" stop-color="#981B22"/>
</linearGradient>
<linearGradient id="paint9_linear_1232_2131" x1="2.40771" y1="9.87642" x2="4.34612" y2="9.87642" gradientUnits="userSpaceOnUse">
<stop stop-color="white"/>
<stop offset="1" stop-color="white"/>
</linearGradient>
<radialGradient id="paint10_radial_1232_2131" cx="0" cy="0" r="1" gradientUnits="userSpaceOnUse" gradientTransform="translate(2.68446 8.64562) scale(2.20965)">
<stop stop-color="#4E545E"/>
<stop offset="0.26" stop-color="#363A3F"/>
<stop offset="0.55" stop-color="#222323"/>
<stop offset="0.81" stop-color="#151512"/>
<stop offset="1" stop-color="#11110D"/>
</radialGradient>
<radialGradient id="paint11_radial_1232_2131" cx="0" cy="0" r="1" gradientUnits="userSpaceOnUse" gradientTransform="translate(2.68444 16.4946) scale(1.55673)">
<stop stop-color="#4E545E"/>
<stop offset="0.26" stop-color="#363A3F"/>
<stop offset="0.55" stop-color="#222323"/>
<stop offset="0.81" stop-color="#151512"/>
<stop offset="1" stop-color="#11110D"/>
</radialGradient>
<radialGradient id="paint12_radial_1232_2131" cx="0" cy="0" r="1" gradientUnits="userSpaceOnUse" gradientTransform="translate(5.45168 34.2217) rotate(-1.49) scale(3.27511 0.606501)">
<stop stop-color="#4D4D4D"/>
<stop offset="0.06" stop-color="#585858"/>
<stop offset="0.38" stop-color="#929292"/>
<stop offset="0.66" stop-color="#BCBCBC"/>
<stop offset="0.87" stop-color="#D6D6D6"/>
<stop offset="1" stop-color="#E0E0E0"/>
</radialGradient>
<linearGradient id="paint13_linear_1232_2131" x1="1.9811" y1="14.8757" x2="1.9811" y2="12.917" gradientUnits="userSpaceOnUse">
<stop stop-color="#AE182D"/>
<stop offset="0.2" stop-color="#871523"/>
<stop offset="0.44" stop-color="#63121B"/>
<stop offset="0.65" stop-color="#491015"/>
<stop offset="0.84" stop-color="#390F11"/>
<stop offset="1" stop-color="#340F10"/>
</linearGradient>
<linearGradient id="paint14_linear_1232_2131" x1="2.01352" y1="14.9379" x2="2.01352" y2="13.1453" gradientUnits="userSpaceOnUse">
<stop stop-color="#891722"/>
<stop offset="1" stop-color="#89162B"/>
</linearGradient>
<linearGradient id="paint15_linear_1232_2131" x1="4.10287" y1="14.8757" x2="4.10287" y2="12.917" gradientUnits="userSpaceOnUse">
<stop stop-color="#9C182D"/>
<stop offset="0.01" stop-color="#97172B"/>
<stop offset="0.12" stop-color="#781423"/>
<stop offset="0.23" stop-color="#5F121C"/>
<stop offset="0.35" stop-color="#4C1116"/>
<stop offset="0.5" stop-color="#3E0F12"/>
<stop offset="0.68" stop-color="#360F10"/>
<stop offset="1" stop-color="#340F10"/>
</linearGradient>
<linearGradient id="paint16_linear_1232_2131" x1="1.77839" y1="14.8757" x2="1.77839" y2="12.917" gradientUnits="userSpaceOnUse">
<stop stop-color="#9C182D"/>
<stop offset="0.01" stop-color="#97172B"/>
<stop offset="0.12" stop-color="#781423"/>
<stop offset="0.23" stop-color="#5F121C"/>
<stop offset="0.35" stop-color="#4C1116"/>
<stop offset="0.5" stop-color="#3E0F12"/>
<stop offset="0.68" stop-color="#360F10"/>
<stop offset="1" stop-color="#340F10"/>
</linearGradient>
<linearGradient id="paint17_linear_1232_2131" x1="4.33881" y1="14.8757" x2="4.33881" y2="12.917" gradientUnits="userSpaceOnUse">
<stop stop-color="#9C182D"/>
<stop offset="0.01" stop-color="#97172B"/>
<stop offset="0.12" stop-color="#781423"/>
<stop offset="0.23" stop-color="#5F121C"/>
<stop offset="0.35" stop-color="#4C1116"/>
<stop offset="0.5" stop-color="#3E0F12"/>
<stop offset="0.68" stop-color="#360F10"/>
<stop offset="1" stop-color="#340F10"/>
</linearGradient>
<linearGradient id="paint18_linear_1232_2131" x1="3.30315" y1="14.8757" x2="3.30315" y2="12.917" gradientUnits="userSpaceOnUse">
<stop stop-color="#AE182D"/>
<stop offset="0.2" stop-color="#871523"/>
<stop offset="0.44" stop-color="#63121B"/>
<stop offset="0.65" stop-color="#491015"/>
<stop offset="0.84" stop-color="#390F11"/>
<stop offset="1" stop-color="#340F10"/>
</linearGradient>
<linearGradient id="paint19_linear_1232_2131" x1="1.5749" y1="14.8757" x2="1.5749" y2="12.917" gradientUnits="userSpaceOnUse">
<stop stop-color="#AE182D"/>
<stop offset="0.2" stop-color="#871523"/>
<stop offset="0.44" stop-color="#63121B"/>
<stop offset="0.65" stop-color="#491015"/>
<stop offset="0.84" stop-color="#390F11"/>
<stop offset="1" stop-color="#340F10"/>
</linearGradient>
<linearGradient id="paint20_linear_1232_2131" x1="2.96425" y1="14.8758" x2="2.96425" y2="12.916" gradientUnits="userSpaceOnUse">
<stop stop-color="#AE182D"/>
<stop offset="0.2" stop-color="#871523"/>
<stop offset="0.44" stop-color="#63121B"/>
<stop offset="0.65" stop-color="#491015"/>
<stop offset="0.84" stop-color="#390F11"/>
<stop offset="1" stop-color="#340F10"/>
</linearGradient>
<linearGradient id="paint21_linear_1232_2131" x1="4.23903" y1="14.8757" x2="4.23903" y2="12.917" gradientUnits="userSpaceOnUse">
<stop stop-color="#AE182D"/>
<stop offset="0.2" stop-color="#871523"/>
<stop offset="0.44" stop-color="#63121B"/>
<stop offset="0.65" stop-color="#491015"/>
<stop offset="0.84" stop-color="#390F11"/>
<stop offset="1" stop-color="#340F10"/>
</linearGradient>
<linearGradient id="paint22_linear_1232_2131" x1="2.95503" y1="14.8405" x2="2.95503" y2="12.7848" gradientUnits="userSpaceOnUse">
<stop stop-color="#9C182D"/>
<stop offset="0.01" stop-color="#97172B"/>
<stop offset="0.12" stop-color="#781423"/>
<stop offset="0.23" stop-color="#5F121C"/>
<stop offset="0.35" stop-color="#4C1116"/>
<stop offset="0.5" stop-color="#3E0F12"/>
<stop offset="0.68" stop-color="#360F10"/>
<stop offset="1" stop-color="#340F10"/>
</linearGradient>
<linearGradient id="paint23_linear_1232_2131" x1="2.96542" y1="14.8758" x2="2.96542" y2="12.9149" gradientUnits="userSpaceOnUse">
<stop stop-color="#AE182D"/>
<stop offset="0.2" stop-color="#871523"/>
<stop offset="0.44" stop-color="#63121B"/>
<stop offset="0.65" stop-color="#491015"/>
<stop offset="0.84" stop-color="#390F11"/>
<stop offset="1" stop-color="#340F10"/>
</linearGradient>
<linearGradient id="paint24_linear_1232_2131" x1="2.96542" y1="14.8758" x2="2.96542" y2="12.9149" gradientUnits="userSpaceOnUse">
<stop stop-color="#9C182D"/>
<stop offset="0.01" stop-color="#97172B"/>
<stop offset="0.12" stop-color="#781423"/>
<stop offset="0.23" stop-color="#5F121C"/>
<stop offset="0.35" stop-color="#4C1116"/>
<stop offset="0.5" stop-color="#3E0F12"/>
<stop offset="0.68" stop-color="#360F10"/>
<stop offset="1" stop-color="#340F10"/>
</linearGradient>
<linearGradient id="paint25_linear_1232_2131" x1="2.95057" y1="14.8768" x2="2.95057" y2="12.9189" gradientUnits="userSpaceOnUse">
<stop stop-color="#AE182D"/>
<stop offset="0.2" stop-color="#871523"/>
<stop offset="0.44" stop-color="#63121B"/>
<stop offset="0.65" stop-color="#491015"/>
<stop offset="0.84" stop-color="#390F11"/>
<stop offset="1" stop-color="#340F10"/>
</linearGradient>
<linearGradient id="paint26_linear_1232_2131" x1="2.95057" y1="14.8768" x2="2.95057" y2="12.9189" gradientUnits="userSpaceOnUse">
<stop stop-color="#9C182D"/>
<stop offset="0.01" stop-color="#97172B"/>
<stop offset="0.12" stop-color="#781423"/>
<stop offset="0.23" stop-color="#5F121C"/>
<stop offset="0.35" stop-color="#4C1116"/>
<stop offset="0.5" stop-color="#3E0F12"/>
<stop offset="0.68" stop-color="#360F10"/>
<stop offset="1" stop-color="#340F10"/>
</linearGradient>
<linearGradient id="paint27_linear_1232_2131" x1="0.852355" y1="12.71" x2="5.33598" y2="12.4849" gradientUnits="userSpaceOnUse">
<stop stop-color="#AE182D"/>
<stop offset="0.2" stop-color="#871523"/>
<stop offset="0.44" stop-color="#63121B"/>
<stop offset="0.65" stop-color="#491015"/>
<stop offset="0.84" stop-color="#390F11"/>
<stop offset="1" stop-color="#340F10"/>
</linearGradient>
<linearGradient id="paint28_linear_1232_2131" x1="2.99772" y1="15.608" x2="2.99772" y2="9.4422" gradientUnits="userSpaceOnUse">
<stop stop-color="#E6E6E6"/>
<stop offset="0.52" stop-color="#B3B3B3"/>
<stop offset="1" stop-color="#808080"/>
</linearGradient>
<linearGradient id="paint29_linear_1232_2131" x1="2.44729" y1="15.608" x2="2.44729" y2="9.43576" gradientUnits="userSpaceOnUse">
<stop stop-color="#DEF0FB"/>
<stop offset="0.2" stop-color="#E7F4FC"/>
<stop offset="0.66" stop-color="#F8FCFE"/>
<stop offset="1" stop-color="white"/>
</linearGradient>
<linearGradient id="paint30_linear_1232_2131" x1="2.9589" y1="9.67592" x2="2.9589" y2="9.28246" gradientUnits="userSpaceOnUse">
<stop stop-color="#B3B3B3"/>
<stop offset="0.65" stop-color="#DFDFDF"/>
<stop offset="1" stop-color="#F2F2F2"/>
</linearGradient>
<linearGradient id="paint31_linear_1232_2131" x1="4.33342" y1="9.19561" x2="3.49287" y2="9.81744" gradientUnits="userSpaceOnUse">
<stop stop-color="white"/>
<stop offset="1" stop-color="#E6E6E6"/>
</linearGradient>
<linearGradient id="paint32_linear_1232_2131" x1="2.25237" y1="9.28889" x2="1.53405" y2="9.81959" gradientUnits="userSpaceOnUse">
<stop stop-color="#E6E6E6"/>
<stop offset="1" stop-color="#333333"/>
</linearGradient>
<linearGradient id="paint33_linear_1232_2131" x1="0.916504" y1="21.1316" x2="5.03561" y2="21.1316" gradientUnits="userSpaceOnUse">
<stop stop-color="#0E100F"/>
<stop offset="0.1" stop-color="#313232"/>
<stop offset="0.21" stop-color="#535453"/>
<stop offset="0.32" stop-color="#6C6C6C"/>
<stop offset="0.42" stop-color="#7A7A7A"/>
<stop offset="0.5" stop-color="#808080"/>
<stop offset="0.69" stop-color="#7D7D7D"/>
<stop offset="0.77" stop-color="#767676"/>
<stop offset="0.84" stop-color="#6A6A6A"/>
<stop offset="0.89" stop-color="#585858"/>
<stop offset="0.93" stop-color="#404241"/>
<stop offset="0.97" stop-color="#242625"/>
<stop offset="1" stop-color="#0E100F"/>
</linearGradient>
<linearGradient id="paint34_linear_1232_2131" x1="2.97606" y1="21.5969" x2="2.97606" y2="20.5033" gradientUnits="userSpaceOnUse">
<stop stop-color="#4D4D4D"/>
<stop offset="0.7" stop-color="white"/>
</linearGradient>
<linearGradient id="paint35_linear_1232_2131" x1="2.75109" y1="20.7102" x2="2.75109" y2="15.7163" gradientUnits="userSpaceOnUse">
<stop stop-color="#EEEEEE"/>
<stop offset="0.31" stop-color="#F7F7F7"/>
<stop offset="0.5" stop-color="white"/>
<stop offset="0.64" stop-color="#DFDFDF"/>
<stop offset="0.94" stop-color="#8F8F8F"/>
<stop offset="1" stop-color="#808080"/>
</linearGradient>
<linearGradient id="paint36_linear_1232_2131" x1="1.57672" y1="15.4525" x2="1.57672" y2="9.43576" gradientUnits="userSpaceOnUse">
<stop stop-color="white"/>
<stop offset="0.26" stop-color="#FAFAFA"/>
<stop offset="1" stop-color="#F2F2F2"/>
</linearGradient>
<linearGradient id="paint37_linear_1232_2131" x1="1.17503" y1="14.9358" x2="1.17503" y2="9.57193" gradientUnits="userSpaceOnUse">
<stop stop-color="#EEEEEE"/>
<stop offset="1" stop-color="white"/>
</linearGradient>
<linearGradient id="paint38_linear_1232_2131" x1="4.64098" y1="15.3014" x2="4.64098" y2="9.51725" gradientUnits="userSpaceOnUse">
<stop stop-color="#F2F2F2"/>
<stop offset="0.38" stop-color="#F8F8F8"/>
<stop offset="1" stop-color="white"/>
</linearGradient>
<linearGradient id="paint39_linear_1232_2131" x1="1.21006" y1="9.55263" x2="4.70734" y2="9.55263" gradientUnits="userSpaceOnUse">
<stop stop-color="#666666"/>
<stop offset="0.5" stop-color="#999999"/>
<stop offset="1" stop-color="#666666"/>
</linearGradient>
<linearGradient id="paint40_linear_1232_2131" x1="5.66191" y1="12.2329" x2="5.66191" y2="12.1868" gradientUnits="userSpaceOnUse">
<stop stop-color="#1D1E1C"/>
<stop offset="1" stop-color="#666666"/>
</linearGradient>
<linearGradient id="paint41_linear_1232_2131" x1="5.65412" y1="12.1868" x2="5.65412" y2="12.1407" gradientUnits="userSpaceOnUse">
<stop stop-color="#1D1E1C"/>
<stop offset="1" stop-color="#666666"/>
</linearGradient>
<linearGradient id="paint42_linear_1232_2131" x1="0.376168" y1="11.6197" x2="0.376168" y2="11.5993" gradientUnits="userSpaceOnUse">
<stop stop-color="#1D1E1C"/>
<stop offset="1" stop-color="#666666"/>
</linearGradient>
<linearGradient id="paint43_linear_1232_2131" x1="2.95563" y1="15.6166" x2="2.95563" y2="9.26637" gradientUnits="userSpaceOnUse">
<stop stop-color="#1D1E1C"/>
<stop offset="1" stop-color="#666666"/>
</linearGradient>
<linearGradient id="paint44_linear_1232_2131" x1="5.70155" y1="13.1614" x2="5.70155" y2="13.0928" gradientUnits="userSpaceOnUse">
<stop stop-color="#1D1E1C"/>
<stop offset="1" stop-color="#666666"/>
</linearGradient>
<linearGradient id="paint45_linear_1232_2131" x1="5.65839" y1="12.1997" x2="5.65839" y2="12.175" gradientUnits="userSpaceOnUse">
<stop stop-color="#1D1E1C"/>
<stop offset="1" stop-color="#666666"/>
</linearGradient>
<linearGradient id="paint46_linear_1232_2131" x1="2.95686" y1="20.1045" x2="2.95686" y2="15.6316" gradientUnits="userSpaceOnUse">
<stop stop-color="white"/>
<stop offset="0.82" stop-color="white"/>
<stop offset="0.86" stop-color="#FAFAFA"/>
<stop offset="0.9" stop-color="#ECECEC"/>
<stop offset="0.94" stop-color="#D6D6D6"/>
<stop offset="0.99" stop-color="#B3B3B3"/>
</linearGradient>
<linearGradient id="paint47_linear_1232_2131" x1="2.95658" y1="15.3743" x2="2.95658" y2="15.2156" gradientUnits="userSpaceOnUse">
<stop offset="0.4" stop-color="#E6E6E6"/>
<stop offset="0.62" stop-color="#E3E3E3"/>
<stop offset="0.72" stop-color="#DCDCDC"/>
<stop offset="0.79" stop-color="#D0D0D0"/>
<stop offset="0.85" stop-color="#BEBEBE"/>
<stop offset="0.9" stop-color="#A7A7A7"/>
<stop offset="0.95" stop-color="#8B8B8B"/>
<stop offset="0.99" stop-color="#666666"/>
</linearGradient>
<linearGradient id="paint48_linear_1232_2131" x1="2.95698" y1="15.4675" x2="2.95698" y2="15.3035" gradientUnits="userSpaceOnUse">
<stop offset="0.8" stop-color="#E6E6E6"/>
<stop offset="0.83" stop-color="#E1E1E1"/>
<stop offset="0.87" stop-color="#D3D3D3"/>
<stop offset="0.9" stop-color="#BDBDBD"/>
<stop offset="0.94" stop-color="#9E9E9E"/>
<stop offset="0.98" stop-color="#767676"/>
<stop offset="0.99" stop-color="#666666"/>
</linearGradient>
<radialGradient id="paint49_radial_1232_2131" cx="0" cy="0" r="1" gradientUnits="userSpaceOnUse" gradientTransform="translate(3.04234 17.3384) scale(2.15615 1.26832)">
<stop stop-color="#CBB269"/>
<stop offset="0.43" stop-color="#74673E"/>
<stop offset="0.82" stop-color="#2C291A"/>
<stop offset="1" stop-color="#11110D"/>
</radialGradient>
<radialGradient id="paint50_radial_1232_2131" cx="0" cy="0" r="1" gradientUnits="userSpaceOnUse" gradientTransform="translate(0.61203 12.7368) scale(1.56209)">
<stop offset="0.02" stop-color="white"/>
<stop offset="0.1" stop-color="#EDE5CD"/>
<stop offset="0.19" stop-color="#DBC997"/>
<stop offset="0.26" stop-color="#CFB875"/>
<stop offset="0.3" stop-color="#CBB269"/>
<stop offset="0.6" stop-color="#74673E"/>
<stop offset="0.87" stop-color="#2C291A"/>
<stop offset="1" stop-color="#11110D"/>
</radialGradient>
<radialGradient id="paint51_radial_1232_2131" cx="0" cy="0" r="1" gradientUnits="userSpaceOnUse" gradientTransform="translate(4.90463 10.5915) scale(1.26189)">
<stop stop-color="#CBB269"/>
<stop offset="0.28" stop-color="#74673E"/>
<stop offset="0.53" stop-color="#2C291A"/>
<stop offset="0.65" stop-color="#11110D"/>
</radialGradient>
<clipPath id="clip0_1232_2131">
<rect width="7.69786" height="22" fill="white"/>
</clipPath>
</defs>
</svg>
