<svg width="15" height="25" viewBox="0 0 15 25" fill="none" xmlns="http://www.w3.org/2000/svg">
<g clip-path="url(#clip0_1232_2759)">
<path d="M2.79959 9.47413C2.76605 9.47435 2.73293 9.46655 2.70295 9.45138C2.13062 9.17062 1.58122 8.84459 1.0599 8.47634C1.02334 8.43211 1.00449 8.37568 1.00707 8.31814C1.00965 8.2606 1.03346 8.20611 1.07383 8.16538C1.1142 8.12465 1.16821 8.10063 1.22525 8.09803C1.28228 8.09543 1.33822 8.11444 1.38207 8.15133C1.86545 8.47993 2.37025 8.77528 2.89302 9.03537C2.92281 9.04778 2.94965 9.06641 2.9718 9.09003C2.99395 9.11364 3.0109 9.14171 3.02155 9.1724C3.0322 9.20308 3.03629 9.23569 3.03358 9.26809C3.03086 9.30048 3.02139 9.33193 3.00578 9.36038C2.98457 9.39615 2.95427 9.42555 2.91802 9.44555C2.88178 9.46555 2.84089 9.47541 2.79959 9.47413Z" fill="#3E494D"/>
<path d="M3.71152 10.4232H3.59876C2.97376 10.4232 0.937683 9.31487 0.69928 9.14261C0.673685 9.12618 0.651547 9.10482 0.634133 9.07976C0.616719 9.05469 0.604368 9.02642 0.597787 8.99654C0.591205 8.96666 0.590522 8.93577 0.595775 8.90562C0.601028 8.87548 0.612115 8.84667 0.628404 8.82085C0.644692 8.79502 0.665862 8.77269 0.690706 8.75512C0.71555 8.73756 0.74358 8.7251 0.773196 8.71846C0.802813 8.71182 0.833435 8.71113 0.863316 8.71643C0.893197 8.72173 0.92175 8.73291 0.947346 8.74934C1.3275 9.00285 3.17995 9.95189 3.60843 9.95189H3.68575C4.11745 9.95189 4.84554 9.95189 5.06461 9.81864C5.15359 9.77283 5.22498 9.69853 5.26758 9.60738C4.94524 9.58079 4.62095 9.59169 4.30108 9.63988C3.98055 9.67994 3.65727 9.69298 3.33459 9.67888C3.30419 9.67606 3.27466 9.66712 3.24774 9.6526C3.22082 9.63809 3.19706 9.61828 3.17784 9.59435C3.15863 9.57043 3.14435 9.54286 3.13586 9.51328C3.12737 9.4837 3.12483 9.4527 3.1284 9.42212C3.1316 9.39174 3.14075 9.36231 3.15531 9.33552C3.16988 9.30873 3.18957 9.28513 3.21325 9.26609C3.23692 9.24704 3.26411 9.23292 3.29324 9.22456C3.32236 9.2162 3.35284 9.21375 3.38291 9.21736C3.67349 9.22451 3.9642 9.21039 4.25276 9.17511C4.89709 9.11661 5.28047 9.08736 5.47699 9.21086C5.54692 9.25122 5.60515 9.30937 5.64585 9.37951C5.68655 9.44966 5.70831 9.52935 5.70894 9.61063C5.69948 9.73632 5.65919 9.85767 5.59171 9.96376C5.52423 10.0698 5.43167 10.1574 5.32235 10.2184C5.00018 10.4069 4.41384 10.4232 3.71152 10.4232Z" fill="#3E494D"/>
<path d="M9.40076 18.5517C9.5715 18.308 10.3479 17.1964 10.1965 16.7187C10.1233 16.5705 10.0324 16.4319 9.92588 16.3059L10.5702 15.7989C10.6375 15.9134 10.714 16.0221 10.7989 16.1239C11.0535 16.3482 11.6044 16.7739 11.6366 17.0339C11.6688 17.2939 11.2629 17.5572 11.1211 17.645C10.9794 17.7327 9.89689 18.62 9.75191 18.75C9.60694 18.88 9.23323 18.7955 9.40076 18.5517Z" fill="#FFCDAB"/>
<path d="M11.8877 16.9397L11.9103 16.9689C11.9908 17.1022 11.6912 17.4727 11.5881 17.5767C11.5335 17.6184 11.4711 17.6485 11.4047 17.6652C11.3382 17.682 11.2692 17.685 11.2015 17.6742C11.1081 17.6742 11.1113 17.9407 11.0308 18.087V18.113C10.9522 18.2325 10.8591 18.3417 10.7537 18.438C10.4918 18.6884 10.1662 18.8605 9.813 18.9353C9.67194 18.9615 9.52631 18.9312 9.40707 18.8508C9.36843 18.8224 9.33652 18.7858 9.31364 18.7435C9.31364 18.7435 9.31364 18.7175 9.31364 18.7013C9.29454 18.651 9.29454 18.5955 9.31364 18.5452C9.3523 18.438 9.6358 18.0447 9.7389 17.8952C9.84199 17.7457 9.99019 17.463 10.0933 17.2452L10.1158 17.1964C10.1533 17.1268 10.1845 17.0539 10.2093 16.9787C10.2093 16.9559 10.2254 16.9462 10.2318 16.9462C10.2383 16.9462 10.2705 16.9689 10.322 16.9852C10.3359 16.9875 10.35 16.9875 10.3639 16.9852C10.4023 16.9919 10.4415 16.9919 10.4799 16.9852C10.7103 16.9723 10.9286 16.8766 11.0952 16.7154C11.1521 16.6311 11.1946 16.5377 11.2209 16.4392C11.2195 16.4262 11.2195 16.4131 11.2209 16.4002C11.4811 16.5262 11.7093 16.7108 11.8877 16.9397Z" fill="#9A6B80"/>
<path d="M9.79681 18.932C10.291 18.8246 10.7262 18.5318 11.0146 18.113C11.1048 17.9732 11.0951 17.6677 11.195 17.6742C11.2626 17.685 11.3317 17.682 11.3982 17.6652C11.4646 17.6485 11.527 17.6184 11.5816 17.5767C11.6911 17.4695 11.9908 17.1022 11.9038 16.9689L11.8812 16.9397C11.907 17.0892 11.646 17.4142 11.5591 17.515C11.4474 17.5963 11.3086 17.6301 11.1725 17.6092C11.0726 17.6092 11.079 17.9082 10.992 18.048C10.7046 18.4678 10.2689 18.7608 9.77426 18.867C9.68639 18.8869 9.5948 18.8819 9.50954 18.8527C9.42428 18.8234 9.34867 18.771 9.29102 18.7013C9.33687 18.7919 9.41192 18.8641 9.50383 18.9061C9.59574 18.948 9.69906 18.9571 9.79681 18.932Z" fill="#57334F"/>
<path d="M13.7919 11.538C13.2024 12.188 11.5368 12.8608 10.0999 12.8705C9.77774 12.8705 8.99811 12.63 8.43432 12.5975C8.97555 12.812 9.60055 13.9658 9.94205 14.5281C10.1031 14.7978 10.5123 15.7014 10.5864 15.7989L10.0451 16.2247L9.92594 16.3189C9.86151 16.2539 9.60377 16.0231 9.33638 15.7631C9.06898 15.5031 8.65339 15.1424 8.45042 14.9668C8.07349 14.6418 6.28225 12.9095 6.34024 12.3667C6.35252 12.1829 6.40339 12.0038 6.48948 11.8413C6.57557 11.6788 6.69491 11.5366 6.8396 11.4242C7.18432 11.1479 7.98006 10.8587 9.1463 10.7222C9.51035 10.6799 11.4015 10.6604 11.5497 10.5044C11.6978 10.3484 14.3138 10.9789 13.7919 11.538Z" fill="#2D2D2D"/>
<path d="M9.70341 5.27496C9.67704 5.3041 9.64666 5.32928 9.61321 5.34972C9.10097 5.70723 8.00238 6.82527 7.47726 7.16654C7.01879 7.43811 6.53545 7.66449 6.03396 7.84256C5.38963 8.11233 4.76463 8.37234 4.12674 8.6356C3.95407 8.71336 3.7977 8.82367 3.66604 8.96061C3.52839 9.0749 3.37265 9.165 3.20535 9.22712C3.04608 9.265 2.88471 9.29322 2.7221 9.31162C2.35161 9.39288 2.15831 9.47088 1.81037 9.22712C1.58164 9.06461 1.39156 9.00611 1.40123 8.7461C1.39816 8.72128 1.39816 8.69617 1.40123 8.67135C1.44311 8.39509 2.10354 8.16758 2.32262 8.20333C2.79942 8.27483 3.00883 8.42109 3.43731 8.25208C3.65316 8.16433 6.01463 6.70827 6.33679 6.59777C6.86704 6.30368 7.34502 5.92253 7.7511 5.46997C7.95084 5.19371 8.71759 4.05941 8.9721 3.94566C9.3136 3.7864 9.50045 3.7669 9.67764 3.90666C9.85918 4.08563 9.96364 4.32946 9.96846 4.58548C9.97328 4.8415 9.87808 5.08916 9.70341 5.27496Z" fill="#FFC5A3"/>
<path opacity="0.2" d="M9.70342 5.27497C9.67705 5.30411 9.64667 5.32928 9.61322 5.34972C9.10097 5.70724 8.00239 6.82528 7.47726 7.16654C7.01879 7.43811 6.53546 7.6645 6.03396 7.84257C5.38963 8.11233 4.76463 8.37234 4.12675 8.6356C3.95407 8.71336 3.79771 8.82368 3.66605 8.96062C3.5284 9.07491 3.37266 9.165 3.20536 9.22713C3.04609 9.26501 2.88472 9.29323 2.72211 9.31163C2.35162 9.39288 2.15832 9.47089 1.81038 9.22713C1.58164 9.06462 1.39157 9.00612 1.40123 8.74611C1.5811 8.65621 1.78059 8.61372 1.98113 8.6226C2.45471 8.70711 2.65768 8.85986 3.0926 8.7006C3.31167 8.6226 5.7118 7.2348 6.03396 7.12754C6.57331 6.85186 7.06242 6.48591 7.48048 6.04525C7.68667 5.77549 8.49853 4.66394 8.74015 4.55344C9.08487 4.40393 9.27494 4.38768 9.45213 4.53394C9.5444 4.63194 9.61462 4.74888 9.65799 4.87677C9.70135 5.00466 9.71685 5.14048 9.70342 5.27497Z" fill="black"/>
<path d="M6.20172 9.85765H5.77002V10.3614H6.20172V9.85765Z" fill="#3E494D"/>
<path d="M6.51075 10.5564C6.47233 10.5563 6.43432 10.5485 6.39892 10.5334C6.36353 10.5184 6.33145 10.4964 6.30456 10.4687L5.33807 9.49364C5.31078 9.46568 5.28922 9.43258 5.27461 9.39621C5.26 9.35985 5.25264 9.32094 5.25294 9.2817C5.25324 9.24247 5.26119 9.20368 5.27635 9.16755C5.29151 9.13142 5.31358 9.09865 5.34129 9.07112C5.369 9.04359 5.40181 9.02184 5.43786 9.0071C5.4739 8.99237 5.51247 8.98494 5.55136 8.98524C5.59025 8.98554 5.6287 8.99357 5.66452 9.00886C5.70033 9.02415 5.73281 9.04641 5.7601 9.07437L6.7266 10.0494C6.76545 10.0906 6.79153 10.1424 6.80167 10.1984C6.81181 10.2543 6.80556 10.312 6.78368 10.3645C6.7618 10.4169 6.72524 10.4617 6.67848 10.4935C6.63172 10.5253 6.57679 10.5427 6.52041 10.5434L6.51075 10.5564Z" fill="#C8C8C8"/>
<path d="M5.85153 9.16238L5.70654 9.30566L6.55422 10.1786L6.69921 10.0353L5.85153 9.16238Z" fill="#4DB3C5"/>
<path d="M6.67519 10.4947L6.55599 10.8067L3.99477 17.4792L3.7306 18.1682L2.58691 17.7132L2.74478 17.3004L4.55212 12.6495L4.72609 12.2042L5.26733 10.8067L5.38975 10.4947L5.39619 10.4752L6.67519 10.4947Z" fill="#C8C8C8"/>
<path d="M14.1365 14.6158L14.1204 14.6646L14.0849 14.7881L13.5115 16.6537L13.4438 16.8714L12.4741 16.7707L12.5901 16.4359L13.17 14.7881L13.2151 14.6646L13.2312 14.6158H14.1365Z" fill="#C8C8C8"/>
<path opacity="0.2" d="M6.67544 10.4947L6.55624 10.8067H5.26758L5.39 10.4947H6.67544Z" fill="black"/>
<path d="M6.78141 10.3192H3.54688V10.6312H6.78141V10.3192Z" fill="#3E494D"/>
<path d="M14.1236 13.9561H13.3149V14.4046H14.1236V13.9561Z" fill="#2A3B44"/>
<path d="M10.8472 18.3372L11.121 18.6102L11.9393 17.7685L11.6655 17.502L10.8472 18.3372Z" fill="#96969A"/>
<path opacity="0.2" d="M3.99477 17.4792L3.7306 18.1682L2.58691 17.7132L2.74478 17.3004L3.99477 17.4792Z" fill="black"/>
<path d="M1.26912 21.8116C1.16924 20.5896 1.936 18.399 2.43535 17.5637L4.04618 17.7977C4.18149 18.3535 4.36834 19.6893 4.89347 20.0176C4.35546 20.4498 1.26912 21.8116 1.26912 21.8116Z" fill="#3E494D"/>
<path opacity="0.3" d="M2.90253 17.632L2.47727 17.5637C2.02624 18.399 1.33036 20.5896 1.42057 21.8116C1.42057 21.8116 1.60098 21.7271 1.8716 21.5874C2.01611 20.2241 2.36366 18.8906 2.90253 17.632Z" fill="white"/>
<path d="M11.1663 18.8247H11.1212C11.1075 18.8204 11.0947 18.8132 11.0838 18.8037C11.0729 18.7942 11.064 18.7826 11.0577 18.7695C11.0513 18.7565 11.0477 18.7422 11.047 18.7277C11.0463 18.7132 11.0485 18.6986 11.0536 18.685L11.2855 18.035C11.2899 18.0215 11.2969 18.009 11.3061 17.9982C11.3153 17.9875 11.3265 17.9787 11.339 17.9723C11.3516 17.966 11.3653 17.9622 11.3794 17.9612C11.3934 17.9603 11.4075 17.9621 11.4208 17.9667C11.4346 17.9711 11.4473 17.9782 11.4583 17.9877C11.4692 17.9972 11.4781 18.0089 11.4844 18.0219C11.4907 18.035 11.4944 18.0492 11.4951 18.0638C11.4958 18.0783 11.4935 18.0928 11.4885 18.1065L11.2565 18.7565C11.2497 18.7755 11.2375 18.792 11.2215 18.8042C11.2055 18.8163 11.1863 18.8234 11.1663 18.8247Z" fill="#616161"/>
<path d="M14.916 14.7166C14.9165 14.7433 14.9086 14.7694 14.8935 14.7913C14.8549 14.8388 14.8053 14.8761 14.7492 14.8999C14.6931 14.9237 14.632 14.9333 14.5713 14.9278C14.5108 14.9325 14.4499 14.9225 14.3939 14.8988C14.3379 14.875 14.2883 14.8382 14.2492 14.7913C14.2363 14.7686 14.2297 14.7428 14.2298 14.7166C14.2255 14.6995 14.2255 14.6816 14.2298 14.6646C14.2709 14.6197 14.3207 14.5838 14.3761 14.5593C14.4316 14.5348 14.4915 14.5221 14.552 14.5221C14.6125 14.5221 14.6724 14.5348 14.7279 14.5593C14.7833 14.5838 14.8331 14.6197 14.8742 14.6646C14.8934 14.6768 14.9082 14.6951 14.916 14.7166Z" fill="#C8C8C8"/>
<path d="M14.5395 20.3003C13.8114 20.5408 13.3764 21.9904 13.9467 23.2644C13.9467 23.3034 13.9821 23.3457 14.0014 23.3847C13.5407 23.3847 13.0801 23.7097 13.0349 24.5482H0.812012V21.9709C2.29397 20.7846 7.04268 18.9385 8.38933 18.6102C9.73598 18.282 13.9112 18.1682 14.5427 18.2852C14.5833 18.9563 14.5822 19.6293 14.5395 20.3003Z" fill="#C8C8C8"/>
<path opacity="0.2" d="M13.5115 16.6537L13.4438 16.8714L12.4741 16.7707L12.5901 16.4359L13.5115 16.6537Z" fill="black"/>
<path d="M11.395 18.399L12.4678 16.6114L13.56 16.8747C13.56 16.8747 13.56 18.0285 13.8821 18.399H11.395Z" fill="#3E494D"/>
<path opacity="0.2" d="M13.215 14.6646H14.1203L14.0849 14.7881H13.1699L13.215 14.6646Z" fill="black"/>
<path opacity="0.2" d="M14.916 14.7166C14.9165 14.7433 14.9086 14.7694 14.8935 14.7913H14.2492C14.2363 14.7686 14.2297 14.7428 14.2298 14.7166C14.2255 14.6995 14.2255 14.6816 14.2298 14.6646H14.8742C14.8934 14.6768 14.9082 14.6951 14.916 14.7166Z" fill="black"/>
<path d="M15 14.3558H12.7319V14.7198H15V14.3558Z" fill="#2A3B44"/>
<path d="M11.8812 21.6166C11.8812 22.0622 11.7502 22.4978 11.5047 22.8683C11.2593 23.2388 10.9104 23.5274 10.5023 23.6978C10.0941 23.8682 9.64504 23.9126 9.21187 23.8254C8.7787 23.7383 8.3809 23.5234 8.06879 23.2081C7.75669 22.8928 7.5443 22.4912 7.45852 22.054C7.37274 21.6169 7.41741 21.1639 7.58689 20.7524C7.75636 20.3409 8.04302 19.9894 8.4106 19.7423C8.77817 19.4952 9.21014 19.3636 9.65184 19.3643C9.94488 19.3643 10.235 19.4226 10.5057 19.5358C10.7764 19.649 11.0223 19.815 11.2294 20.0242C11.4365 20.2334 11.6006 20.4817 11.7124 20.7549C11.8243 21.0282 11.8816 21.321 11.8812 21.6166Z" fill="#3E494D"/>
<path d="M9.65209 24.025C9.18057 24.025 8.71965 23.8839 8.3276 23.6196C7.93555 23.3554 7.62998 22.9797 7.44954 22.5403C7.2691 22.1008 7.22189 21.6172 7.31388 21.1507C7.40586 20.6841 7.63292 20.2556 7.96633 19.9192C8.29974 19.5828 8.72453 19.3538 9.18699 19.261C9.64944 19.1682 10.1288 19.2158 10.5644 19.3978C11 19.5799 11.3724 19.8881 11.6343 20.2837C11.8963 20.6792 12.0361 21.1442 12.0361 21.6199C12.0353 22.2575 11.7838 22.8687 11.3369 23.3196C10.89 23.7704 10.2841 24.0241 9.65209 24.025ZM9.65209 19.5235C9.24111 19.5235 8.83935 19.6465 8.49763 19.8768C8.15591 20.1072 7.88958 20.4346 7.7323 20.8176C7.57502 21.2007 7.53387 21.6222 7.61405 22.0288C7.69423 22.4355 7.89214 22.809 8.18274 23.1022C8.47335 23.3954 8.84361 23.595 9.2467 23.6759C9.64978 23.7568 10.0676 23.7153 10.4473 23.5566C10.827 23.398 11.1515 23.1293 11.3799 22.7845C11.6082 22.4398 11.7301 22.0345 11.7301 21.6199C11.7305 21.3443 11.677 21.0714 11.5728 20.8166C11.4686 20.5619 11.3156 20.3304 11.1226 20.1354C10.9296 19.9404 10.7004 19.7857 10.448 19.6802C10.1957 19.5746 9.92524 19.5203 9.65209 19.5203V19.5235Z" fill="#96969A"/>
<path d="M9.65214 22.2634C9.52471 22.2634 9.40013 22.2253 9.29417 22.1538C9.18821 22.0824 9.10563 21.9809 9.05686 21.8621C9.00809 21.7433 8.99533 21.6126 9.02019 21.4865C9.04506 21.3605 9.10642 21.2446 9.19653 21.1537C9.28664 21.0628 9.40145 21.0009 9.52644 20.9758C9.65143 20.9507 9.78098 20.9636 9.89872 21.0128C10.0165 21.062 10.1171 21.1453 10.1879 21.2522C10.2587 21.3591 10.2965 21.4848 10.2965 21.6134C10.2965 21.7858 10.2286 21.9511 10.1078 22.073C9.98692 22.1949 9.82303 22.2634 9.65214 22.2634ZM9.65214 21.0608C9.54318 21.0608 9.43667 21.0934 9.34608 21.1545C9.25548 21.2156 9.18487 21.3024 9.14318 21.4039C9.10148 21.5055 9.09057 21.6172 9.11183 21.725C9.13308 21.8328 9.18555 21.9319 9.2626 22.0096C9.33964 22.0873 9.4378 22.1403 9.54467 22.1617C9.65153 22.1831 9.7623 22.1721 9.86296 22.1301C9.96363 22.088 10.0497 22.0168 10.1102 21.9254C10.1707 21.834 10.203 21.7265 10.203 21.6166C10.2022 21.4695 10.1439 21.3286 10.0408 21.2246C9.93762 21.1205 9.79799 21.0617 9.65214 21.0608Z" fill="#96969A"/>
<path d="M12.1198 14.2551C12.181 14.5606 12.5966 14.3786 12.9284 14.2551C13.3422 14.1473 13.7632 14.0702 14.1881 14.0243C14.2912 14.0048 14.768 13.891 14.7486 13.5628C14.7293 13.2345 14.8098 12.7275 14.3749 12.76C13.94 12.7925 13.4664 13.4718 13.0863 13.5628C12.7061 13.6538 12.0586 13.9496 12.1198 14.2551Z" fill="#C8C8C8"/>
<path opacity="0.2" d="M14.0014 23.3749C13.5407 23.3749 13.08 23.6999 13.0349 24.5385H12.993C12.9439 24.4247 12.9186 24.3018 12.9189 24.1777C12.9189 24.0552 12.9429 23.9339 12.9893 23.8208C13.0358 23.7076 13.1039 23.6048 13.1898 23.5181C13.2756 23.4315 13.3775 23.3628 13.4897 23.3159C13.6019 23.2691 13.7221 23.2449 13.8436 23.2449C13.8821 23.2416 13.921 23.2416 13.9595 23.2449C13.9628 23.3034 13.9821 23.3457 14.0014 23.3749Z" fill="black"/>
<path d="M14.6358 24.1875C14.6365 24.349 14.5896 24.507 14.5011 24.6416C14.4126 24.7762 14.2866 24.8812 14.1389 24.9435C13.9912 25.0057 13.8285 25.0223 13.6714 24.9912C13.5143 24.9601 13.37 24.8827 13.2565 24.7687C13.1431 24.6548 13.0658 24.5094 13.0343 24.3511C13.0029 24.1927 13.0187 24.0285 13.0798 23.8793C13.1409 23.73 13.2445 23.6024 13.3776 23.5127C13.5106 23.4229 13.6671 23.3749 13.8272 23.3749C14.0411 23.3749 14.2463 23.4604 14.3978 23.6127C14.5494 23.765 14.635 23.9717 14.6358 24.1875Z" fill="#3E494D"/>
<path opacity="0.2" d="M1.73018 24.1875C1.73208 24.3118 1.70678 24.4349 1.65608 24.5482H0.812012V23.2482C0.933435 23.249 1.0535 23.274 1.16536 23.3217C1.27722 23.3693 1.37867 23.4388 1.46393 23.526C1.54919 23.6132 1.61659 23.7165 1.66227 23.83C1.70795 23.9435 1.73103 24.065 1.73018 24.1875Z" fill="black"/>
<path d="M1.61726 24.1875C1.6179 24.3491 1.57093 24.5073 1.48233 24.6419C1.39372 24.7766 1.26746 24.8816 1.11957 24.9438C0.97168 25.0059 0.808826 25.0223 0.651667 24.991C0.494508 24.9596 0.350127 24.8818 0.236844 24.7676C0.123561 24.6533 0.0464802 24.5076 0.0153816 24.3491C-0.0157169 24.1905 0.000568131 24.0262 0.0621707 23.877C0.123773 23.7278 0.227917 23.6004 0.361388 23.5111C0.49486 23.4217 0.651644 23.3743 0.81185 23.3749C1.0252 23.3758 1.22956 23.4617 1.38043 23.6139C1.53129 23.7661 1.61641 23.9722 1.61726 24.1875Z" fill="#3E494D"/>
<path opacity="0.2" d="M5.87634 12.4187C5.87679 12.4494 5.87107 12.4799 5.85953 12.5083C5.84799 12.5368 5.83087 12.5625 5.8092 12.5841C5.78752 12.6056 5.76175 12.6226 5.73342 12.6338C5.7051 12.645 5.67481 12.6504 5.64439 12.6495C5.59606 12.6495 5.29 12.669 5.00006 12.669C4.8645 12.6698 4.72899 12.6633 4.59413 12.6495H4.55225L4.72944 12.2042C5.03098 12.2207 5.33318 12.2207 5.63472 12.2042C5.66461 12.202 5.69463 12.2059 5.72303 12.2155C5.75143 12.2251 5.77765 12.2404 5.80014 12.2603C5.82264 12.2803 5.84097 12.3046 5.85405 12.3318C5.86713 12.359 5.87471 12.3886 5.87634 12.4187Z" fill="black"/>
<path d="M5.01919 12.8673C4.87718 12.8687 4.73521 12.8622 4.59393 12.8478C4.41351 12.8218 4.10101 12.669 3.1764 11.733C3.10062 11.6565 3.04366 11.5631 3.01009 11.4604C2.97652 11.3577 2.96728 11.2484 2.9831 11.1414C3.02527 10.9099 3.11317 10.6893 3.24158 10.4928C3.36998 10.2963 3.53626 10.1278 3.73053 9.9974C3.77983 9.97367 3.83593 9.96853 3.88867 9.9829C3.94141 9.99728 3.98731 10.0302 4.01807 10.0758C4.04882 10.1213 4.06239 10.1765 4.05633 10.2313C4.05028 10.286 4.02498 10.3368 3.98503 10.3744C3.70742 10.5609 3.51226 10.8486 3.44058 11.1772C3.43256 11.2158 3.43395 11.2558 3.44461 11.2937C3.45527 11.3316 3.47489 11.3664 3.50179 11.395C4.38774 12.2887 4.62292 12.37 4.66158 12.37C4.98342 12.3908 5.30624 12.3908 5.62808 12.37C5.69088 12.3678 5.75196 12.3909 5.79787 12.4342C5.84379 12.4775 5.87079 12.5374 5.87292 12.6008C5.87506 12.6641 5.85216 12.7257 5.80926 12.772C5.76637 12.8184 5.70699 12.8456 5.64418 12.8478C5.60875 12.851 5.32202 12.8673 5.01919 12.8673Z" fill="#3E494D"/>
<path d="M9.66517 21.4591L9.63574 21.7697L11.4124 21.9411L11.4419 21.6305L9.66517 21.4591Z" fill="#616161"/>
<path d="M10.728 22.0749L10.9697 22.4064L11.9716 21.6589L11.7267 21.3339L10.728 22.0749Z" fill="#C8C8C8"/>
<path d="M8.72114 4.69969C8.66612 4.6038 8.5953 4.51807 8.51173 4.44618C8.49813 4.42758 8.48184 4.41115 8.4634 4.39743C8.30728 4.25074 8.12155 4.13987 7.91895 4.07242C8.18312 4.03992 8.78879 3.44514 9.16572 3.42239C9.22136 3.47324 9.28058 3.51995 9.34292 3.56215L9.40091 3.5979C9.66508 3.77341 10.0162 3.95217 10.0162 3.95217C9.60958 4.2431 9.17584 4.49346 8.72114 4.69969Z" fill="#FFC5A3"/>
<path d="M10.0128 3.95866C10.2705 4.02367 10.9792 4.70619 11.3304 5.54473C11.5849 6.12325 11.8845 7.37455 12.0585 7.87507C12.2325 8.37559 13.5662 9.69514 13.7241 9.77315C12.9197 10.0704 12.0963 10.3126 11.2595 10.4979C11.2595 10.4979 9.39098 7.89782 9.35876 7.70931C8.71443 7.94007 8.13775 6.79928 8.84974 6.05175C9.33298 5.54473 9.0076 4.42668 9.0076 4.42668L10.0128 3.95866Z" fill="#FFC5A3"/>
<path d="M11.15 10.5564C11.0308 10.3777 9.39096 7.89781 9.35552 7.7093C8.7724 7.92056 8.23439 6.97152 8.71119 6.24674C8.81428 6.27925 8.94315 6.31175 9.09779 6.3475C9.65513 6.46125 10.235 5.77873 10.2286 5.41146C10.2059 5.19185 10.1243 4.98264 9.99261 4.80627C9.86093 4.62991 9.68412 4.49306 9.48117 4.41042C9.37807 4.35842 9.13967 4.28367 8.60488 4.56968C8.71246 4.43706 8.85278 4.33539 9.01171 4.27491C9.17064 4.21443 9.34256 4.19727 9.51016 4.22516C10.1287 4.38442 11.0276 5.35296 11.2241 5.37246H11.2434C11.2724 5.43096 11.295 5.48296 11.3207 5.54147C11.5752 6.11999 11.8748 7.37129 12.0488 7.86856C12.2228 8.36583 13.5566 9.61388 13.7112 9.69513C13.2151 9.94864 11.15 10.5564 11.15 10.5564Z" fill="#9A6B80"/>
<path opacity="0.2" d="M9.37842 7.67356C8.95316 7.82631 8.56979 7.25429 8.54079 6.66602C8.43448 7.28679 8.87906 7.88156 9.35587 7.70931C9.39131 7.89781 11.0311 10.3777 11.1503 10.5564C11.2449 10.5431 11.3386 10.5236 11.4306 10.4979C10.6804 9.60728 9.99453 8.66339 9.37842 7.67356Z" fill="black"/>
<path opacity="0.2" d="M11.8428 7.74506C12.0329 8.27808 13.2861 9.66914 13.4697 9.85765C13.5492 9.79806 13.6333 9.74481 13.721 9.69839C13.5664 9.61714 12.2326 8.37234 12.0586 7.87182C11.8847 7.3713 11.585 6.12325 11.3305 5.54472C11.3048 5.48622 11.2822 5.43422 11.2532 5.37572H11.2339C11.3812 6.17899 11.5847 6.97075 11.8428 7.74506Z" fill="black"/>
<path opacity="0.2" d="M8.4634 4.39743C8.30728 4.25074 8.12155 4.13987 7.91895 4.07242C8.18312 4.03992 8.78879 3.44514 9.16572 3.42239C9.22136 3.47324 9.28058 3.51995 9.34292 3.56215C9.06638 3.85788 8.77269 4.13679 8.4634 4.39743Z" fill="black"/>
<path d="M8.56978 0.718278C8.24502 0.651545 7.90726 0.709495 7.62262 0.880784C7.43127 0.998077 7.26627 1.15432 7.13813 1.33955C7.00999 1.52478 6.92154 1.73493 6.87842 1.95658V1.97933C6.89505 2.17153 6.94068 2.36005 7.01373 2.53835C7.06528 2.69225 7.06528 2.85897 7.01373 3.01287C6.97833 3.12596 6.94929 3.24099 6.92674 3.35738C6.92674 3.51014 7.1877 3.46464 7.21991 3.50364C7.24108 3.52489 7.25522 3.55222 7.26041 3.58189C7.2656 3.61156 7.26158 3.64212 7.24891 3.66939C7.2038 3.80265 7.34878 3.80265 7.40999 3.82215C7.36166 3.8839 7.32945 4.05941 7.40999 4.06916C7.49053 4.07891 7.55819 4.06916 7.57107 4.09841C7.60651 4.20242 7.48409 4.37467 7.65484 4.44943C7.82558 4.52418 8.58589 4.09191 8.84362 3.83515C9.23364 3.48994 9.51664 3.03853 9.6587 2.5351C9.70585 2.34366 9.71507 2.14471 9.68582 1.94967C9.65657 1.75463 9.58944 1.56734 9.48827 1.39854C9.38709 1.22973 9.25388 1.08275 9.09626 0.966012C8.93864 0.849276 8.75973 0.765087 8.56978 0.718278Z" fill="#FFCDAB"/>
<path d="M9.71306 2.50585C9.62044 2.8546 9.44583 3.17569 9.20404 3.44188C9.02685 2.86336 8.94309 2.66835 9.02363 2.26859C9.10417 1.86882 8.7659 1.77132 8.64992 1.81357C8.53207 1.8956 8.44466 2.01489 8.40149 2.15261C8.35832 2.29033 8.36185 2.43863 8.41151 2.5741C8.21499 2.4896 8.2601 1.94357 8.10868 1.83957C7.95726 1.73557 7.57711 1.92407 7.57711 1.92407L7.13574 1.10504C7.25583 0.957936 7.40092 0.833574 7.56422 0.737777C7.8674 0.552624 8.22875 0.489932 8.57582 0.562269C8.98119 0.669369 9.32817 0.933741 9.54119 1.29779C9.7542 1.66183 9.81598 2.09605 9.71306 2.50585Z" fill="#804A22"/>
<path d="M7.15847 1.07579C7.0371 1.13033 6.929 1.21097 6.84175 1.31207C6.75451 1.41317 6.69022 1.53229 6.65339 1.66109C6.61657 1.78988 6.60809 1.92524 6.62856 2.05769C6.64902 2.19014 6.69794 2.31647 6.77188 2.42784L7.63528 1.97933L7.15847 1.07579Z" fill="#804A22"/>
<path d="M9.06592 0.42901C9.20324 0.230303 9.40895 0.0902758 9.643 0.0362028C9.87705 -0.0178702 10.1227 0.0178832 10.332 0.136499C11.1632 0.67277 11.0601 1.59581 10.6284 2.7366C10.4383 3.23062 10.6961 4.22841 11.3501 4.71268C10.564 4.66068 9.95187 3.8189 9.85844 3.13962C9.76502 2.46034 9.98409 0.711772 9.45896 0.848277L9.06592 0.42901Z" fill="#804A22"/>
<path d="M9.28143 1.05955L8.84329 0.734535C8.82678 0.722587 8.81278 0.707476 8.80206 0.690065C8.79135 0.672654 8.78414 0.653284 8.78085 0.633062C8.77756 0.61284 8.77825 0.592163 8.78288 0.57221C8.78751 0.552257 8.796 0.533421 8.80785 0.516777L8.84651 0.461524C8.8715 0.428194 8.90847 0.406106 8.94945 0.400026C8.99043 0.393946 9.03214 0.40436 9.06558 0.429023L9.50695 0.754036C9.53977 0.778655 9.56159 0.815392 9.56763 0.856204C9.57367 0.897016 9.56343 0.938579 9.53916 0.971795L9.50051 1.0238C9.476 1.05764 9.43926 1.08037 9.39825 1.08706C9.35724 1.09375 9.31527 1.08387 9.28143 1.05955Z" fill="#9A6B80"/>
<path d="M9.13023 22.0456C9.35574 21.8084 10.3931 20.7228 10.3061 20.1736C10.2534 19.9983 10.1776 19.8311 10.0806 19.6763L10.8764 19.231C10.9314 19.3651 10.9972 19.4944 11.0729 19.6178C11.3113 19.907 11.8461 20.4531 11.8364 20.7586C11.8267 21.0641 11.3338 21.2753 11.1566 21.3436C10.9795 21.4119 9.65214 22.1984 9.47172 22.3186C9.29131 22.4389 8.90471 22.2829 9.13023 22.0456Z" fill="#FFCDAB"/>
<path d="M12.1232 20.7033L12.1426 20.7391C12.207 20.8983 11.8204 21.2526 11.6819 21.3501C11.6146 21.3862 11.5409 21.4082 11.4651 21.4149C11.3893 21.4216 11.3129 21.4128 11.2405 21.3891C11.1374 21.3696 11.0955 21.6654 10.986 21.8149V21.8376C10.8804 21.9546 10.7602 22.0573 10.6284 22.1431C10.2988 22.3742 9.91139 22.5072 9.51046 22.5266C9.35147 22.5325 9.19651 22.4753 9.07876 22.3674C9.04082 22.3309 9.01304 22.2849 8.99822 22.2341C8.99639 22.2179 8.99639 22.2016 8.99822 22.1854C8.99182 22.1267 9.00424 22.0674 9.03366 22.0164C9.09165 21.9059 9.47825 21.5224 9.61033 21.3664C9.74242 21.2103 9.95827 20.9341 10.1032 20.7163L10.1355 20.6643C10.1803 20.5964 10.2191 20.5246 10.2514 20.4498C10.2514 20.4238 10.274 20.4173 10.2804 20.4206C10.2869 20.4238 10.3223 20.4498 10.3739 20.4758C10.3879 20.4853 10.403 20.493 10.419 20.4986C10.4598 20.5105 10.5021 20.5171 10.5446 20.5181C10.7997 20.5431 11.0553 20.4763 11.2663 20.3296C11.3412 20.2446 11.4021 20.148 11.4467 20.0435L11.4692 20.0045C11.736 20.1855 11.9594 20.4242 12.1232 20.7033Z" fill="#9A6B80"/>
<path d="M9.51048 22.5266C10.0695 22.4948 10.5951 22.2482 10.9796 21.8376C11.0988 21.7011 11.1439 21.3664 11.2534 21.3891C11.3248 21.4119 11.4001 21.4202 11.4747 21.4135C11.5494 21.4068 11.622 21.3853 11.6883 21.3501C11.8268 21.2493 12.2167 20.8983 12.1522 20.7391C12.1522 20.7391 12.1522 20.7163 12.1329 20.7033C12.1329 20.8723 11.8107 21.1811 11.6658 21.2753C11.5994 21.3105 11.5268 21.3321 11.4522 21.3388C11.3775 21.3455 11.3023 21.3372 11.2308 21.3143C11.1213 21.2916 11.0762 21.6394 10.957 21.7629C10.5726 22.1735 10.0469 22.42 9.48793 22.4519C9.38818 22.4595 9.28831 22.4389 9.19953 22.3924C9.11075 22.3459 9.03658 22.2753 8.98535 22.1886C9.02093 22.2973 9.09261 22.3903 9.18828 22.4519C9.28395 22.5135 9.39776 22.5399 9.51048 22.5266Z" fill="#57334F"/>
<path d="M13.7208 9.69838C13.9849 9.87064 14.9675 11.343 14.5713 12.0937C14.001 13.1695 13.0797 13.5725 11.4044 14.6093C10.8299 14.9632 10.2809 15.3574 9.76136 15.7891C10.095 16.344 10.3631 16.9363 10.5603 17.5539C10.699 18.1064 10.8065 18.6663 10.8825 19.231L10.09 19.6795C10.0288 19.595 8.75298 17.2842 8.2053 16.3222C8.07339 16.1337 7.99782 15.9111 7.98754 15.6807C7.97726 15.4503 8.03271 15.2217 8.14731 15.0221C8.64512 14.2784 9.222 13.5918 9.86767 12.9745C10.4261 12.4667 10.9522 11.9239 11.4431 11.3495C11.5687 11.1317 11.1628 10.5694 11.1628 10.5694C11.1628 10.5694 13.5339 9.68863 13.7208 9.69838Z" fill="#444444"/>
<path d="M9.37511 4.52419C9.46958 4.62017 9.54322 4.73493 9.59135 4.86117C9.63949 4.98741 9.66106 5.12238 9.6547 5.25749C9.64833 5.3926 9.61418 5.52489 9.55439 5.64596C9.49461 5.76704 9.41052 5.87423 9.30745 5.96075C8.79199 6.31826 7.6773 7.4363 7.1715 7.77757C6.7124 8.04792 6.22918 8.27425 5.7282 8.4536C5.08387 8.72336 4.45565 8.98337 3.82098 9.24663C3.64731 9.32431 3.48988 9.43461 3.35706 9.57164C3.2203 9.68722 3.06433 9.77745 2.89637 9.83815C2.7384 9.8763 2.57801 9.90345 2.41634 9.9194C2.04585 10.0039 1.84933 10.0819 1.50139 9.83815C1.25011 9.66264 1.05036 9.60739 1.10191 9.28238C1.15346 8.95737 1.80101 8.77861 2.02008 8.81436C2.50011 8.88911 2.70629 9.03537 3.13477 8.86311C3.35384 8.77861 5.71209 7.3193 6.03425 7.2088C6.56535 6.91456 7.04436 6.53345 7.45178 6.081C7.65152 5.80474 8.41828 4.67369 8.66956 4.55669C9.00784 4.41368 9.18825 4.39418 9.37511 4.52419Z" fill="#FFCDAB"/>
</g>
<defs>
<clipPath id="clip0_1232_2759">
<rect width="15" height="25" fill="white"/>
</clipPath>
</defs>
</svg>
