<svg width="20" height="23" viewBox="0 0 20 23" fill="none" xmlns="http://www.w3.org/2000/svg">
<g clip-path="url(#clip0_1232_2820)">
<path d="M15.7736 10.1979C15.7731 11.7278 15.1631 13.1948 14.0777 14.2765C12.9923 15.3581 11.5203 15.9657 9.98544 15.9657C8.45056 15.9657 6.97851 15.3581 5.89299 14.2765C4.80747 13.1949 4.19734 11.7278 4.19678 10.1979C4.19664 9.44013 4.34626 8.68973 4.63711 7.98957C4.92795 7.28941 5.35432 6.65322 5.89186 6.11732C6.4294 5.58143 7.06758 5.15633 7.76997 4.86629C8.47235 4.57626 9.22517 4.42699 9.98544 4.42699C10.7457 4.42699 11.4985 4.57627 12.2008 4.8663C12.9032 5.15634 13.5413 5.58145 14.0788 6.11735C14.6163 6.65326 15.0426 7.28946 15.3334 7.98961C15.6242 8.68976 15.7738 9.44016 15.7736 10.1979Z" fill="#FF6174"/>
<path d="M9.93229 1.02271C10.0942 1.02246 10.2253 0.891416 10.225 0.730021C10.2248 0.568625 10.0933 0.437993 9.93137 0.438246C9.76945 0.4385 9.63839 0.569543 9.63864 0.730939C9.6389 0.892335 9.77037 1.02297 9.93229 1.02271Z" fill="white" stroke="#231F20" stroke-width="0.55" stroke-miterlimit="10"/>
<path d="M11.3973 1.46117C11.3973 1.07373 11.243 0.70216 10.9682 0.428154C10.6934 0.154147 10.3207 0.000140629 9.93196 0C10.1263 0.000140596 10.3127 0.0772025 10.4501 0.214248C10.5875 0.351294 10.6647 0.537108 10.6647 0.730849C10.6647 0.924541 10.5875 1.1103 10.4501 1.24726C10.3126 1.38422 10.1263 1.46117 9.93196 1.46117C9.73791 1.46103 9.55173 1.53762 9.41427 1.67413C9.27681 1.81065 9.19929 1.99595 9.19873 2.18936C9.19873 2.3832 9.27598 2.56909 9.41349 2.70615C9.55099 2.84321 9.73749 2.92021 9.93196 2.92021C10.3203 2.92021 10.6928 2.76654 10.9676 2.49297C11.2423 2.21939 11.3969 1.84828 11.3973 1.46117ZM9.93196 1.89925C10.0093 1.89925 10.0836 1.92975 10.1385 1.98409C10.1934 2.03844 10.2246 2.11223 10.2251 2.18936C10.2251 2.26687 10.1943 2.3412 10.1393 2.396C10.0843 2.45081 10.0097 2.4816 9.93196 2.4816C9.89344 2.48167 9.85528 2.47416 9.81968 2.4595C9.78408 2.44483 9.75173 2.42331 9.72449 2.39616C9.69725 2.36901 9.67566 2.33677 9.66095 2.30128C9.64624 2.26579 9.6387 2.22776 9.63877 2.18936C9.63934 2.11223 9.67047 2.03844 9.72539 1.98409C9.78032 1.92975 9.85457 1.89925 9.93196 1.89925Z" fill="#FFEFD7"/>
<path d="M10.225 2.18936C10.225 2.11185 10.1942 2.03752 10.1392 1.98272C10.0842 1.92791 10.0096 1.89713 9.93186 1.89713C9.8541 1.89713 9.77953 1.92791 9.72454 1.98272C9.66956 2.03752 9.63867 2.11185 9.63867 2.18936C9.6386 2.22775 9.64614 2.26579 9.66085 2.30127C9.67556 2.33676 9.69715 2.369 9.72439 2.39615C9.75163 2.42331 9.78397 2.44483 9.81958 2.45949C9.85518 2.47415 9.89333 2.48166 9.93186 2.48159C10.0096 2.48159 10.0842 2.4508 10.1392 2.396C10.1942 2.34119 10.225 2.26686 10.225 2.18936Z" fill="white" stroke="#231F20" stroke-width="0.55" stroke-miterlimit="10"/>
<path d="M10.225 2.18936C10.225 2.11185 10.1942 2.03752 10.1392 1.98272C10.0842 1.92791 10.0096 1.89713 9.93186 1.89713C9.8541 1.89713 9.77953 1.92791 9.72454 1.98272C9.66956 2.03752 9.63867 2.11185 9.63867 2.18936C9.6386 2.22775 9.64614 2.26579 9.66085 2.30127C9.67556 2.33676 9.69715 2.369 9.72439 2.39615C9.75163 2.42331 9.78397 2.44483 9.81958 2.45949C9.85518 2.47415 9.89333 2.48166 9.93186 2.48159C10.0096 2.48159 10.0842 2.4508 10.1392 2.396C10.1942 2.34119 10.225 2.26686 10.225 2.18936Z" fill="white" stroke="#231F20" stroke-width="0.55" stroke-miterlimit="10"/>
<path d="M10.225 2.18936C10.225 2.11185 10.1942 2.03752 10.1392 1.98272C10.0842 1.92791 10.0096 1.89713 9.93186 1.89713C9.8541 1.89713 9.77953 1.92791 9.72454 1.98272C9.66956 2.03752 9.63867 2.11185 9.63867 2.18936C9.6386 2.22775 9.64614 2.26579 9.66085 2.30127C9.67556 2.33676 9.69715 2.369 9.72439 2.39615C9.75163 2.42331 9.78397 2.44483 9.81958 2.45949C9.85518 2.47415 9.89333 2.48166 9.93186 2.48159C10.0096 2.48159 10.0842 2.4508 10.1392 2.396C10.1942 2.34119 10.225 2.26686 10.225 2.18936Z" fill="#1A2F42"/>
<path d="M10.6649 0.730849C10.6649 0.537108 10.5877 0.351294 10.4504 0.214248C10.313 0.0772026 10.1266 0.000140596 9.93223 0C9.54344 0 9.17058 0.153944 8.89567 0.427966C8.62075 0.701988 8.46631 1.07364 8.46631 1.46117C8.46624 1.65307 8.50411 1.84311 8.57775 2.02041C8.6514 2.19772 8.75937 2.35883 8.89551 2.49452C9.03165 2.63022 9.19328 2.73785 9.37116 2.81125C9.54905 2.88466 9.7397 2.92241 9.93223 2.92234C9.83576 2.92234 9.74024 2.90336 9.65114 2.8665C9.56205 2.82964 9.48112 2.77562 9.41301 2.70753C9.34489 2.63943 9.29093 2.55862 9.2542 2.4697C9.21748 2.38078 9.19872 2.28552 9.199 2.18936C9.199 2.09341 9.21797 1.9984 9.25483 1.90976C9.29168 1.82112 9.3457 1.74059 9.41379 1.67276C9.48189 1.60494 9.56272 1.55116 9.65168 1.51449C9.74063 1.47782 9.83597 1.45898 9.93223 1.45905C10.1262 1.45905 10.3122 1.38239 10.4496 1.24589C10.5869 1.10939 10.6644 0.924174 10.6649 0.730849ZM10.2254 0.730849C10.2253 0.808262 10.1943 0.882457 10.1394 0.937146C10.0844 0.991836 10.0099 1.02255 9.93223 1.02255C9.89375 1.02262 9.85564 1.01513 9.82007 1.0005C9.78451 0.985872 9.75218 0.964396 9.72495 0.937302C9.69772 0.910208 9.67611 0.878027 9.66137 0.842602C9.64663 0.807176 9.63905 0.769201 9.63905 0.730849C9.63905 0.692497 9.64663 0.654522 9.66137 0.619096C9.67611 0.583671 9.69772 0.55149 9.72495 0.524396C9.75218 0.497302 9.78451 0.475826 9.82007 0.461198C9.85564 0.44657 9.89375 0.439076 9.93223 0.439146C10.0099 0.439146 10.0844 0.469862 10.1394 0.524551C10.1943 0.579241 10.2253 0.653436 10.2254 0.730849Z" fill="#1A2F42"/>
<path d="M9.93186 1.02255C10.0938 1.02255 10.225 0.89171 10.225 0.730313C10.225 0.568917 10.0938 0.43808 9.93186 0.43808C9.76994 0.43808 9.63867 0.568917 9.63867 0.730313C9.63867 0.89171 9.76994 1.02255 9.93186 1.02255Z" fill="white" stroke="#231F20" stroke-width="0.55" stroke-miterlimit="10"/>
<path d="M9.93186 1.02255C10.0938 1.02255 10.225 0.89171 10.225 0.730313C10.225 0.568917 10.0938 0.43808 9.93186 0.43808C9.76994 0.43808 9.63867 0.568917 9.63867 0.730313C9.63867 0.89171 9.76994 1.02255 9.93186 1.02255Z" fill="#FFEFD7"/>
<g style="mix-blend-mode:multiply">
<path d="M9.93213 2.92234V0C10.3208 0.000140629 10.6935 0.154147 10.9683 0.428154C11.2431 0.70216 11.3975 1.07373 11.3975 1.46117C11.3976 1.65303 11.3597 1.84302 11.2861 2.02029C11.2125 2.19757 11.1046 2.35865 10.9685 2.49434C10.8324 2.63003 10.6709 2.73766 10.493 2.8111C10.3152 2.88454 10.1246 2.92234 9.93213 2.92234Z" fill="#D9D3CA"/>
</g>
<path d="M0.703125 6.00803C0.703162 5.99759 0.70565 5.98731 0.71039 5.97801C0.71513 5.9687 0.721989 5.96064 0.73042 5.95445C0.738851 5.94826 0.748618 5.94413 0.758939 5.94238C0.76926 5.94063 0.779849 5.94132 0.789857 5.94438C1.09559 6.03264 1.42037 6.03117 1.72528 5.94014C1.73567 5.93736 1.74657 5.93701 1.75713 5.93912C1.76768 5.94124 1.77759 5.94577 1.7861 5.95234C1.7946 5.95892 1.80147 5.96737 1.80615 5.97703C1.81083 5.98669 1.8132 5.9973 1.81307 6.00803V8.5713H0.703125V6.00803Z" fill="#F3C5EA"/>
<path d="M0.962402 5.50418C0.962402 5.24377 1.25771 4.74469 1.25771 4.74469C1.25771 4.74469 1.55303 5.24377 1.55303 5.50418C1.55303 5.76459 1.42107 5.8224 1.25771 5.8224C1.09436 5.8224 0.962402 5.76459 0.962402 5.50418Z" fill="#FAAA17"/>
<path d="M1.07666 5.59911C1.07666 5.44 1.2581 5.13292 1.2581 5.13292C1.2581 5.13292 1.43955 5.43947 1.43955 5.59911C1.43955 5.75876 1.35814 5.79641 1.2581 5.79641C1.15807 5.79641 1.07666 5.75929 1.07666 5.59911Z" fill="#F48627"/>
<path d="M1.31858 5.6845C1.31858 5.73011 1.29145 5.76724 1.25792 5.76724C1.2244 5.76724 1.19727 5.73011 1.19727 5.6845C1.19727 5.63889 1.2244 5.60176 1.25792 5.60176C1.29145 5.60176 1.31858 5.63677 1.31858 5.6845Z" fill="#912C75"/>
<path d="M1.27301 5.67654H1.24268V5.94279H1.27301V5.67654Z" fill="#912C75"/>
<path d="M1.7252 5.94226C1.57016 5.98506 1.41036 6.0084 1.24951 6.01174V8.57343H1.813V6.00803C1.8128 5.99748 1.81019 5.98712 1.80537 5.97772C1.80055 5.96833 1.79365 5.96015 1.78519 5.95382C1.77672 5.94748 1.76693 5.94314 1.75653 5.94114C1.74614 5.93914 1.73543 5.93952 1.7252 5.94226Z" fill="#EB88D7"/>
<path d="M2.50928 7.31326C2.50928 7.05285 2.80459 6.55377 2.80459 6.55377C2.80459 6.55377 3.0999 7.05285 3.0999 7.31326C3.0999 7.57367 2.96741 7.63148 2.80459 7.63148C2.64177 7.63148 2.50928 7.57367 2.50928 7.31326Z" fill="#FAAA17"/>
<path d="M2.625 7.40819C2.625 7.24908 2.80644 6.94147 2.80644 6.94147C2.80644 6.94147 2.98789 7.24802 2.98789 7.40819C2.98789 7.56836 2.90648 7.60496 2.80644 7.60496C2.70641 7.60496 2.625 7.56836 2.625 7.40819Z" fill="#F48627"/>
<path d="M2.86546 7.49306C2.86546 7.53867 2.83832 7.5758 2.8048 7.5758C2.77128 7.5758 2.74414 7.53867 2.74414 7.49306C2.74414 7.44745 2.77128 7.41032 2.8048 7.41032C2.83832 7.41032 2.86546 7.44745 2.86546 7.49306Z" fill="#912C75"/>
<path d="M2.81939 7.48563H2.78906V7.75187H2.81939V7.48563Z" fill="#912C75"/>
<path d="M2.08887 7.86008C2.08887 8.04927 2.16427 8.23071 2.29848 8.36449C2.4327 8.49827 2.61473 8.57342 2.80454 8.57342C2.99434 8.57342 3.17638 8.49827 3.31059 8.36449C3.4448 8.23071 3.5202 8.04927 3.5202 7.86008H2.08887Z" fill="#F3C5EA"/>
<path d="M2.80908 7.86008V8.57342C2.90283 8.57328 2.99562 8.55471 3.08215 8.51876C3.16867 8.48281 3.24723 8.43019 3.31332 8.36392C3.37941 8.29765 3.43173 8.21904 3.46728 8.13258C3.50283 8.04612 3.52091 7.95352 3.52049 7.86008H2.80908Z" fill="#EB88D7"/>
<path d="M18.5737 6.57499C18.7647 6.38989 18.8834 6.23502 18.8834 5.94862H16.8391C16.8391 6.23502 16.9582 6.38989 17.1493 6.57499C16.9691 6.69286 16.8213 6.85359 16.7191 7.04267C16.6169 7.23176 16.5636 7.44323 16.564 7.658C16.5638 7.828 16.5972 7.99636 16.6624 8.15345C16.7276 8.31054 16.8233 8.45325 16.9439 8.57342H18.7828C18.9034 8.45325 18.9991 8.31054 19.0643 8.15345C19.1295 7.99636 19.1629 7.828 19.1627 7.658C19.1626 7.44291 19.1086 7.23125 19.0058 7.04215C18.9029 6.85306 18.7544 6.6925 18.5737 6.57499ZM18.5609 8.21065H17.162C17.0753 8.07701 17.0292 7.92115 17.0295 7.76196C17.0298 7.54219 17.1175 7.3315 17.2734 7.1761C17.4294 7.0207 17.6407 6.93327 17.8612 6.93299C18.0819 6.93299 18.2935 7.02029 18.4497 7.17572C18.6058 7.33116 18.6937 7.542 18.6939 7.76196C18.6939 7.92117 18.6477 8.07697 18.5609 8.21065Z" fill="#6BE8C9"/>
<path d="M18.5738 6.57499C18.7648 6.38989 18.8835 6.23502 18.8835 5.94862H17.8613V6.93299C18.082 6.93299 18.2936 7.02029 18.4498 7.17572C18.6059 7.33116 18.6938 7.542 18.6941 7.76196C18.6943 7.92106 18.6485 8.07685 18.5621 8.21065H17.8624V8.57342H18.7819C18.9025 8.45325 18.9981 8.31054 19.0633 8.15345C19.1285 7.99636 19.162 7.828 19.1618 7.658C19.1617 7.44301 19.108 7.23141 19.0053 7.04232C18.9027 6.85324 18.7544 6.69262 18.5738 6.57499Z" fill="#39BF9E"/>
<path d="M17.8715 5.12337C17.8715 5.12337 17.5624 5.31907 17.7619 5.48084C17.8151 5.52327 17.9689 5.55085 17.8715 5.7142" stroke="#39BF9E" stroke-width="1.17" stroke-linecap="round" stroke-linejoin="round"/>
<path d="M17.5529 5.12337C17.5529 5.12337 17.2432 5.31907 17.4433 5.48084C17.4965 5.52327 17.6503 5.55085 17.5529 5.7142" stroke="#39BF9E" stroke-width="1.17" stroke-linecap="round" stroke-linejoin="round"/>
<path d="M18.19 5.12337C18.19 5.12337 17.8808 5.31907 18.0836 5.48084C18.1368 5.52327 18.29 5.55085 18.19 5.7142" stroke="#39BF9E" stroke-width="1.17" stroke-linecap="round" stroke-linejoin="round"/>
<path d="M17.5522 7.84311C17.5522 7.83727 17.5536 7.83151 17.5562 7.82629C17.5589 7.82108 17.5627 7.81655 17.5674 7.81309C17.5721 7.80963 17.5776 7.80732 17.5834 7.80637C17.5892 7.80541 17.5951 7.80582 17.6007 7.80757C17.7709 7.85682 17.9518 7.8559 18.1216 7.80492C18.1274 7.80347 18.1335 7.80336 18.1393 7.8046C18.1452 7.80584 18.1507 7.8084 18.1554 7.81208C18.1602 7.81576 18.164 7.82047 18.1666 7.82585C18.1692 7.83123 18.1706 7.83713 18.1705 7.84311V8.21437H17.5522V7.84311Z" fill="#F3C5EA"/>
<path d="M17.6968 7.56147C17.6968 7.41615 17.8612 7.13718 17.8612 7.13718C17.8612 7.13718 18.0256 7.41509 18.0256 7.56147C18.0256 7.70785 17.9522 7.73968 17.8612 7.73968C17.7702 7.73968 17.6968 7.7052 17.6968 7.56147Z" fill="#FAAA17"/>
<path d="M17.7603 7.61398C17.7603 7.52488 17.8614 7.35463 17.8614 7.35463C17.8614 7.35463 17.9625 7.52488 17.9625 7.61398C17.9625 7.70308 17.9172 7.72377 17.8614 7.72377C17.8055 7.72377 17.7603 7.7052 17.7603 7.61398Z" fill="#F48627"/>
<path d="M17.8962 7.66171C17.8962 7.68717 17.8808 7.70785 17.8621 7.70785C17.8435 7.70785 17.8286 7.68717 17.8286 7.66171C17.8286 7.63625 17.8435 7.61557 17.8621 7.61557C17.8808 7.61557 17.8962 7.63625 17.8962 7.66171Z" fill="#912C75"/>
<path d="M17.8701 7.65694H17.853V7.80544H17.8701V7.65694Z" fill="#912C75"/>
<path d="M18.1215 7.80492C18.0349 7.82919 17.9455 7.84238 17.8555 7.84416V8.21542H18.1694V7.84416C18.1695 7.83821 18.1683 7.8323 18.1658 7.82689C18.1634 7.82148 18.1597 7.8167 18.155 7.81292C18.1504 7.80914 18.145 7.80645 18.1392 7.80506C18.1334 7.80368 18.1273 7.80363 18.1215 7.80492Z" fill="#EB88D7"/>
<path d="M19.8648 12.3078C19.8648 12.7077 19.0853 13.0317 18.1238 13.0317C17.1623 13.0317 16.3828 12.7077 16.3828 12.3078C16.3828 11.9079 17.1623 11.5838 18.1238 11.5838C19.0853 11.5838 19.8648 11.9079 19.8648 12.3078Z" fill="#284966"/>
<path d="M16.3818 12.3078C16.3818 12.7077 17.1614 13.0317 18.1229 13.0317C19.0843 13.0317 19.8649 12.7077 19.8649 12.3078C19.0327 12.9251 17.007 12.8636 16.3818 12.3078Z" fill="#1A2F42"/>
<path d="M16.9263 12.112C16.9263 12.006 17.0992 11.9169 17.312 11.9169C17.5249 11.9169 17.6978 12.0044 17.6978 12.112C17.6978 12.2197 17.5249 12.3078 17.312 12.3078C17.0992 12.3078 16.9263 12.2202 16.9263 12.112Z" fill="#37658C"/>
<path d="M19.436 11.5833C19.436 11.8845 18.8507 12.129 18.1228 12.129C17.3949 12.129 16.8091 11.8845 16.8091 11.5833C16.8091 11.282 17.3976 11.037 18.1228 11.037C18.8481 11.037 19.436 11.2815 19.436 11.5833Z" fill="#284966"/>
<path d="M16.8091 11.5833C16.8091 11.8845 17.3976 12.129 18.1228 12.129C18.8481 12.129 19.436 11.8845 19.436 11.5833C18.8092 12.0489 17.2811 12.0012 16.8091 11.5833Z" fill="#1A2F42"/>
<path d="M17.2202 11.4358C17.2202 11.3541 17.3506 11.2884 17.5113 11.2884C17.672 11.2884 17.8023 11.3541 17.8023 11.4358C17.8023 11.5175 17.672 11.5833 17.5113 11.5833C17.3506 11.5833 17.2202 11.517 17.2202 11.4358Z" fill="#37658C"/>
<path d="M19.1917 10.9808C19.1917 11.2263 18.7128 11.4252 18.1227 11.4252C17.5326 11.4252 17.0537 11.2263 17.0537 10.9808C17.0537 10.7352 17.5326 10.5363 18.1227 10.5363C18.7128 10.5363 19.1917 10.7352 19.1917 10.9808Z" fill="#284966"/>
<path d="M17.0537 10.9808C17.0537 11.2263 17.5326 11.4252 18.1227 11.4252C18.7128 11.4252 19.1917 11.2263 19.1917 10.9808C18.6814 11.3595 17.4379 11.3218 17.0537 10.9808Z" fill="#1A2F42"/>
<path d="M17.3877 10.8604C17.3877 10.7941 17.4941 10.7405 17.625 10.7405C17.7559 10.7405 17.8618 10.7935 17.8618 10.8604C17.8618 10.9272 17.7554 10.9808 17.625 10.9808C17.4946 10.9808 17.3877 10.9267 17.3877 10.8604Z" fill="#37658C"/>
<path d="M18.9403 10.4456C18.9403 10.6334 18.5743 10.7856 18.1225 10.7856C17.6708 10.7856 17.3047 10.6334 17.3047 10.4456C17.3047 10.2579 17.6708 10.1057 18.1225 10.1057C18.5743 10.1057 18.9403 10.2579 18.9403 10.4456Z" fill="#284966"/>
<path d="M17.3047 10.4456C17.3047 10.6334 17.6708 10.7856 18.1225 10.7856C18.5743 10.7856 18.9403 10.6334 18.9403 10.4456C18.5498 10.7352 17.5984 10.7066 17.3047 10.4456Z" fill="#1A2F42"/>
<path d="M17.5605 10.3539C17.5605 10.3008 17.642 10.2621 17.7415 10.2621C17.841 10.2621 17.9229 10.303 17.9229 10.3539C17.9229 10.4048 17.842 10.4456 17.7415 10.4456C17.6409 10.4456 17.5605 10.4043 17.5605 10.3539Z" fill="#37658C"/>
<path d="M2.6924 12.5936H0.155904C0.0698005 12.5936 0 12.6632 0 12.749V12.8758C0 12.9616 0.0698005 13.0312 0.155904 13.0312H2.6924C2.7785 13.0312 2.8483 12.9616 2.8483 12.8758V12.749C2.8483 12.6632 2.7785 12.5936 2.6924 12.5936Z" fill="#A64292"/>
<path d="M1.896 12.1211L2.41319 12.6361" stroke="#A64292" stroke-width="2.34" stroke-linecap="round" stroke-linejoin="round"/>
<path d="M0.617337 11.0322C0.605061 11.02 0.595324 11.0055 0.588679 10.9895C0.582035 10.9735 0.578613 10.9564 0.578613 10.9391C0.578613 10.9218 0.582035 10.9047 0.588679 10.8888C0.595324 10.8728 0.605061 10.8583 0.617337 10.8461C0.642136 10.8216 0.675592 10.8079 0.710453 10.8079C0.745314 10.8079 0.778771 10.8216 0.80357 10.8461L1.89596 11.9349C1.90824 11.9471 1.91798 11.9616 1.92462 11.9776C1.93126 11.9936 1.93468 12.0107 1.93468 12.028C1.93468 12.0453 1.93126 12.0624 1.92462 12.0784C1.91798 12.0943 1.90824 12.1088 1.89596 12.1211C1.88375 12.1333 1.86924 12.143 1.85326 12.1496C1.83728 12.1562 1.82015 12.1596 1.80284 12.1596C1.78554 12.1596 1.76841 12.1562 1.75243 12.1496C1.73645 12.143 1.72194 12.1333 1.70973 12.1211L0.617337 11.0322Z" fill="#F48627"/>
<path d="M1.27067 10.251C1.27067 10.251 0.960991 10.4467 1.16106 10.6084C1.21427 10.6514 1.36751 10.6785 1.27067 10.8418" stroke="#F48627" stroke-width="1.17" stroke-linecap="round" stroke-linejoin="round"/>
<path d="M1.78558 10.7315C1.78558 10.7315 1.47644 10.9272 1.67597 11.089C1.72918 11.1314 1.88296 11.159 1.78558 11.3223" stroke="#F48627" stroke-width="1.17" stroke-linecap="round" stroke-linejoin="round"/>
<path d="M0.754822 9.87971C0.754822 9.87971 0.445675 10.0749 0.645211 10.2372C0.69842 10.2796 0.852196 10.3072 0.754822 10.47" stroke="#F48627" stroke-width="1.17" stroke-linecap="round" stroke-linejoin="round"/>
<path d="M0.664666 12.5926H0.402344L0.533239 12.3661L0.558247 12.3231C0.569039 12.3045 0.584554 12.2891 0.603234 12.2783C0.621913 12.2676 0.6431 12.2619 0.664666 12.2619C0.686233 12.2619 0.707419 12.2676 0.726099 12.2783C0.744778 12.2891 0.760294 12.3045 0.771085 12.3231L0.796094 12.3661L0.926989 12.5926H0.664666Z" fill="#F48627"/>
<path d="M4.94833 17.3717C4.89512 17.7642 4.63173 18.0612 4.22521 18.0644H2.1958V15.6523H3.62341V17.0843C3.6233 17.2547 3.68363 17.4198 3.79375 17.5502C3.90387 17.6806 4.05668 17.7681 4.22521 17.7971C4.26582 17.8065 4.30757 17.8101 4.34919 17.8077C4.66206 17.77 4.79242 17.6231 4.94833 17.3717Z" fill="#6BE8C9"/>
<path d="M4.93875 17.3266C4.91765 17.5132 4.82899 17.6857 4.68939 17.8118C4.5498 17.9378 4.36886 18.0088 4.18051 18.0114H2.1958V15.6523H3.59149V17.0503C3.59132 17.2172 3.65036 17.3787 3.75815 17.5063C3.86595 17.6339 4.01556 17.7195 4.18051 17.7478C4.22025 17.757 4.26112 17.7604 4.30183 17.7578C4.60779 17.7234 4.78551 17.5701 4.93875 17.3266Z" fill="#BD5CAA"/>
<path d="M4.93875 17.3266C4.91765 17.5132 4.82899 17.6857 4.68939 17.8118C4.5498 17.9378 4.36886 18.0088 4.18051 18.0113H2.1958V16.9808H3.59149V17.0503C3.59132 17.2172 3.65036 17.3787 3.75815 17.5063C3.86595 17.6339 4.01556 17.7195 4.18051 17.7477C4.22025 17.757 4.26112 17.7604 4.30183 17.7578C4.60779 17.7234 4.78551 17.5701 4.93875 17.3266Z" fill="#A64292"/>
<path d="M4.99478 15.5446V17.0503H3.57568V15.5446C3.57554 15.4516 3.59381 15.3596 3.62943 15.2737C3.66505 15.1878 3.71733 15.1097 3.78327 15.044C3.84921 14.9783 3.92752 14.9262 4.0137 14.8907C4.09988 14.8551 4.19225 14.8369 4.2855 14.8371C4.37869 14.8371 4.47096 14.8554 4.55705 14.8909C4.64314 14.9265 4.72136 14.9786 4.78723 15.0443C4.8531 15.11 4.90533 15.188 4.94094 15.2739C4.97656 15.3597 4.99485 15.4517 4.99478 15.5446Z" fill="#6BE8C9"/>
<path d="M5.00417 17.0503C5.00432 17.1464 4.98495 17.2414 4.94724 17.3298C4.89241 17.4596 4.80034 17.5704 4.68258 17.6483C4.56482 17.7261 4.42661 17.7675 4.28531 17.7674C4.2443 17.7676 4.20335 17.7642 4.16293 17.7573C3.99572 17.7286 3.84407 17.6419 3.73481 17.5125C3.62555 17.3832 3.56572 17.2194 3.56592 17.0503C3.56597 16.8814 3.62591 16.7179 3.73515 16.5887C3.84439 16.4596 3.9959 16.373 4.16293 16.3444C4.20335 16.3375 4.2443 16.3341 4.28531 16.3343C4.37969 16.3342 4.47315 16.3527 4.56037 16.3887C4.64758 16.4246 4.72683 16.4773 4.79359 16.5438C4.86035 16.6103 4.91331 16.6893 4.94944 16.7762C4.98557 16.8631 5.00417 16.9562 5.00417 17.0503Z" fill="#F3C5EA"/>
<g style="mix-blend-mode:multiply">
<path d="M4.28564 17.7674C4.42695 17.7675 4.56516 17.7261 4.68292 17.6483C4.80068 17.5704 4.89275 17.4596 4.94757 17.3298C4.98529 17.2414 5.00466 17.1464 5.00451 17.0503C5.00403 17.013 5.00083 16.9758 4.99493 16.9389V15.5446C4.995 15.4517 4.9767 15.3597 4.94109 15.2739C4.90548 15.188 4.85324 15.11 4.78737 15.0443C4.7215 14.9786 4.64329 14.9265 4.5572 14.8909C4.47111 14.8554 4.37883 14.8371 4.28564 14.8371" fill="#D1EDE6"/>
</g>
<path d="M4.22109 17.8883C4.63666 17.813 4.97507 17.5091 4.89898 17.0927C4.83886 16.7613 4.57973 16.5417 4.24983 16.6021C4.12212 16.6254 4.00889 16.6982 3.93505 16.8046C3.86121 16.911 3.8328 17.0423 3.85608 17.1696C3.87471 17.2715 3.93317 17.3618 4.01858 17.4206C4.104 17.4795 4.20938 17.5022 4.31155 17.4836C4.35204 17.4763 4.39069 17.461 4.42528 17.4388C4.45987 17.4166 4.48973 17.3878 4.51315 17.354C4.53657 17.3203 4.55309 17.2823 4.56178 17.2422C4.57046 17.2021 4.57114 17.1607 4.56376 17.1203C4.55086 17.0563 4.51337 16.9998 4.4593 16.963C4.40522 16.9261 4.33884 16.9118 4.2743 16.923C4.24851 16.9278 4.22391 16.9376 4.20192 16.9519C4.17993 16.9661 4.16098 16.9846 4.14615 17.0062C4.13132 17.0277 4.12091 17.052 4.11551 17.0776C4.11011 17.1032 4.10982 17.1296 4.11467 17.1553C4.11833 17.176 4.12606 17.1958 4.13742 17.2135C4.14877 17.2312 4.16353 17.2465 4.18085 17.2584C4.19816 17.2704 4.21769 17.2789 4.23829 17.2833C4.2589 17.2877 4.28018 17.288 4.30091 17.2842C4.33434 17.2781 4.364 17.2591 4.38335 17.2312C4.40271 17.2034 4.41018 17.169 4.40413 17.1357C4.40176 17.1225 4.39679 17.1098 4.38952 17.0985C4.38224 17.0872 4.3728 17.0774 4.36173 17.0697C4.35067 17.062 4.33819 17.0566 4.32501 17.0537C4.31184 17.0509 4.29822 17.0506 4.28495 17.053" stroke="#A64292" stroke-width="2.05" stroke-linecap="round" stroke-linejoin="round"/>
<path d="M2.19573 15.6523H2.13135V18.0649H2.19573V15.6523Z" fill="#6BE8C9"/>
<path d="M15.821 15.386C16.087 15.6512 16.0376 16.1381 16.0376 16.1381C16.0376 16.1381 15.5512 16.1911 15.283 15.9222C15.0149 15.6533 15.0665 15.1707 15.0665 15.1707C15.0665 15.1707 15.5549 15.1192 15.821 15.386Z" fill="#6BE8C9"/>
<path d="M15.0659 15.1707L16.037 16.1381C16.037 16.1381 16.0902 15.6533 15.8204 15.386C15.5507 15.1187 15.0659 15.1707 15.0659 15.1707Z" fill="#39BF9E"/>
<path d="M16.3704 15.6544C16.3704 16.032 15.9905 16.3386 15.9905 16.3386C15.9905 16.3386 15.6079 16.032 15.6079 15.6544C15.6079 15.2768 15.9884 14.9702 15.9884 14.9702C15.9884 14.9702 16.3704 15.2762 16.3704 15.6544Z" fill="#6BE8C9"/>
<path d="M15.9907 14.9713V16.3396C15.9907 16.3396 16.3706 16.0331 16.3706 15.6554C16.3706 15.2778 15.9907 14.9713 15.9907 14.9713Z" fill="#39BF9E"/>
<path d="M17.3294 16.6684C17.3001 16.7512 16.1832 16.5793 16.212 16.4961L17.1431 14.7347C17.1724 14.6514 17.3065 14.6228 17.4427 14.67C17.5789 14.7172 17.6651 14.8238 17.6359 14.9071L17.3294 16.6684Z" fill="#F3C5EA"/>
<path d="M15.0121 16.0564C15.0079 16.0302 15.0094 16.0034 15.0166 15.9779C15.0237 15.9524 15.0364 15.9287 15.0536 15.9085C15.0709 15.8883 15.0923 15.8721 15.1165 15.8611C15.1407 15.85 15.167 15.8442 15.1936 15.8443H17.5481C17.5747 15.8443 17.6009 15.8501 17.625 15.8612C17.6491 15.8724 17.6705 15.8886 17.6878 15.9087C17.705 15.9289 17.7177 15.9525 17.7249 15.978C17.7321 16.0035 17.7337 16.0302 17.7295 16.0564L17.4704 17.5701C17.466 17.5957 17.4526 17.619 17.4327 17.6358C17.4127 17.6526 17.3874 17.6618 17.3613 17.6618H15.3809C15.3547 17.6618 15.3295 17.6526 15.3095 17.6358C15.2895 17.619 15.2762 17.5957 15.2718 17.5701L15.0121 16.0564Z" fill="#F3C5EA"/>
<path d="M17.3456 17.6597H15.3949C15.3432 17.6597 15.3013 17.7015 15.3013 17.7531V17.971C15.3013 18.0226 15.3432 18.0644 15.3949 18.0644H17.3456C17.3973 18.0644 17.4392 18.0226 17.4392 17.971V17.7531C17.4392 17.7015 17.3973 17.6597 17.3456 17.6597Z" fill="#EB88D7"/>
<path d="M17.5481 15.8421H16.3706V17.6597H17.3608C17.3867 17.6599 17.4119 17.6511 17.4319 17.6347C17.452 17.6183 17.4656 17.5954 17.4704 17.5701L17.7301 16.0585C17.735 16.032 17.7339 16.0047 17.727 15.9787C17.72 15.9526 17.7074 15.9284 17.6901 15.9078C17.6727 15.8871 17.651 15.8705 17.6264 15.8592C17.6019 15.8478 17.5752 15.842 17.5481 15.8421Z" fill="#F5A9E5"/>
<path d="M17.3459 17.6597H16.3706V18.0644H17.3459C17.3582 18.0645 17.3704 18.0621 17.3817 18.0575C17.3931 18.0528 17.4034 18.046 17.4121 18.0374C17.4208 18.0288 17.4277 18.0185 17.4324 18.0072C17.4372 17.9959 17.4396 17.9838 17.4396 17.9716V17.7531C17.4396 17.7283 17.4297 17.7046 17.4122 17.6871C17.3946 17.6695 17.3708 17.6597 17.3459 17.6597Z" fill="#A64292"/>
<path d="M14.4699 3.00931C14.9419 3.28829 15.0435 3.98625 15.0435 3.98625C15.0435 3.98625 14.38 4.23128 13.9086 3.95231C13.4371 3.67333 13.335 2.97484 13.335 2.97484C13.335 2.97484 13.9985 2.72981 14.4699 3.00931Z" fill="#FF6174"/>
<path d="M14.8097 2.87884C15.1247 3.327 14.9289 4.00482 14.9289 4.00482C14.9289 4.00482 14.2233 3.95602 13.9088 3.50839C13.5944 3.06076 13.7891 2.38242 13.7891 2.38242C13.7891 2.38242 14.4931 2.42909 14.8097 2.87884Z" fill="#FF8493"/>
<path d="M15.2357 3.00931C14.7637 3.28829 14.6626 3.98625 14.6626 3.98625C14.6626 3.98625 15.3256 4.23128 15.7976 3.95231C16.2695 3.67333 16.3706 2.97484 16.3706 2.97484C16.3706 2.97484 15.7076 2.72981 15.2357 3.00931Z" fill="#FF3D55"/>
<path d="M14.8984 2.87884C14.5839 3.327 14.7792 4.00482 14.7792 4.00482C14.7792 4.00482 15.4847 3.95602 15.7997 3.50839C16.1147 3.06076 15.9189 2.38242 15.9189 2.38242C15.9189 2.38242 15.2128 2.42909 14.8984 2.87884Z" fill="#FF6174"/>
<path d="M15.3953 3.45059C15.3953 3.9974 14.8451 4.44079 14.8451 4.44079C14.8451 4.44079 14.2954 3.9974 14.2954 3.45059C14.2954 2.90378 14.8451 2.46039 14.8451 2.46039C14.8451 2.46039 15.3953 2.90378 15.3953 3.45059Z" fill="#FF6174"/>
<path d="M14.8462 2.46039V4.44079C14.8462 4.44079 15.3953 3.9974 15.3953 3.45059C15.3953 2.90378 14.8462 2.46039 14.8462 2.46039Z" fill="#F23A51"/>
<path d="M15.5229 3.26972C14.9615 3.47286 14.8599 4.44078 14.8599 4.44078C15.2144 4.52915 15.5872 4.51182 15.932 4.39093C16.4934 4.18726 16.7435 3.46225 16.7435 3.46225C16.7435 3.46225 16.0837 3.06606 15.5229 3.26972Z" fill="#DE2F44"/>
<path d="M14.1835 3.26972C14.7443 3.47286 14.846 4.44078 14.846 4.44078C14.4914 4.52915 14.1186 4.51182 13.7738 4.39093C13.2135 4.18726 12.9629 3.46225 12.9629 3.46225C12.9629 3.46225 13.6222 3.06606 14.1835 3.26972Z" fill="#FF8493"/>
<path d="M3.12012 2.4747C3.12012 2.91703 3.30635 4.02232 3.599 4.29016H5.39589C5.6896 4.02497 5.87477 2.91703 5.87477 2.4747H3.12012Z" fill="#37658C"/>
<path d="M5.46254 4.39305C5.46254 4.45033 5.43008 4.49913 5.39017 4.49913H3.60659C3.56668 4.49913 3.53369 4.45298 3.53369 4.39305C3.53369 4.33312 3.56668 4.29016 3.60659 4.29016H5.39177C5.43008 4.29016 5.46254 4.3363 5.46254 4.39305Z" fill="#284966"/>
<path d="M4.49854 2.4747V4.29016H5.39671C5.69043 4.02497 5.8756 2.91703 5.8756 2.4747H4.49854Z" fill="#284966"/>
<path d="M5.39179 4.29016H4.5V4.49647H5.39179C5.4317 4.49647 5.46416 4.45033 5.46416 4.3904C5.46416 4.33047 5.4301 4.29016 5.39179 4.29016Z" fill="#1A2F42"/>
<path d="M4.54047 1.68869C4.54047 1.68869 4.23132 1.8844 4.43086 2.04616C4.48406 2.08859 4.63731 2.11617 4.54047 2.27899" stroke="#39BF9E" stroke-width="1.17" stroke-linecap="round" stroke-linejoin="round"/>
<path d="M4.2209 1.68869C4.2209 1.68869 3.91175 1.8844 4.11182 2.04616C4.16503 2.08859 4.31827 2.11617 4.2209 2.27899" stroke="#39BF9E" stroke-width="1.17" stroke-linecap="round" stroke-linejoin="round"/>
<path d="M4.8598 1.68869C4.8598 1.68869 4.55066 1.8844 4.75019 2.04616C4.8034 2.08859 4.95718 2.11617 4.8598 2.27899" stroke="#39BF9E" stroke-width="1.17" stroke-linecap="round" stroke-linejoin="round"/>
<path d="M4.82245 3.36254C4.82245 3.685 4.49841 3.94594 4.49841 3.94594C4.49841 3.94594 4.17383 3.68447 4.17383 3.36254C4.17383 3.0406 4.49841 2.77913 4.49841 2.77913C4.49841 2.77913 4.82245 3.03795 4.82245 3.36254Z" fill="#6BE8C9"/>
<path d="M4.49854 2.77913V3.94594C4.49854 3.94594 4.82258 3.68447 4.82258 3.36254C4.82258 3.0406 4.49854 2.77913 4.49854 2.77913Z" fill="#39BF9E"/>
<path d="M7.99321 10.3618C7.99321 11.2682 8.70568 12.0028 9.58417 12.0028H10.4467C11.3252 12.0028 12.0377 11.2682 12.0377 10.3618V8.6376C12.0377 7.7312 11.3252 6.99345 10.4467 6.99345H9.58364C8.70515 6.99345 7.99268 7.72855 7.99268 8.6376L7.99321 10.3618Z" fill="#FFB469"/>
<path d="M12.0381 10.3634C12.0377 10.3863 12.0418 10.4091 12.0502 10.4304C12.0586 10.4517 12.0712 10.4711 12.0872 10.4876C12.1031 10.504 12.1222 10.5172 12.1433 10.5263C12.1643 10.5354 12.187 10.5402 12.21 10.5406C12.2329 10.5401 12.2555 10.5352 12.2765 10.5261C12.2975 10.517 12.3166 10.5038 12.3325 10.4874C12.3484 10.4709 12.3609 10.4515 12.3693 10.4302C12.3776 10.409 12.3817 10.3863 12.3813 10.3634V10.0203C12.3817 9.99742 12.3776 9.97472 12.3693 9.95345C12.3609 9.93218 12.3484 9.91277 12.3325 9.89632C12.3166 9.87987 12.2975 9.8667 12.2765 9.85758C12.2555 9.84845 12.2329 9.84354 12.21 9.84312C12.187 9.84347 12.1643 9.84833 12.1433 9.85743C12.1222 9.86652 12.1031 9.87968 12.0872 9.89613C12.0712 9.91259 12.0586 9.93203 12.0502 9.95333C12.0418 9.97463 12.0377 9.99738 12.0381 10.0203V10.3634Z" fill="#FFB469"/>
<path d="M7.64993 10.3634C7.64951 10.3863 7.65362 10.4091 7.66204 10.4304C7.67045 10.4517 7.683 10.4711 7.69897 10.4876C7.71494 10.504 7.73401 10.5172 7.75508 10.5263C7.77616 10.5354 7.79883 10.5402 7.8218 10.5406C7.84472 10.5401 7.86733 10.5352 7.88835 10.5261C7.90936 10.517 7.92837 10.5038 7.94428 10.4874C7.96019 10.4709 7.97269 10.4515 7.98108 10.4302C7.98946 10.409 7.99356 10.3863 7.99313 10.3634V10.0203C7.99356 9.99742 7.98946 9.97472 7.98108 9.95345C7.97269 9.93218 7.96019 9.91277 7.94428 9.89632C7.92837 9.87987 7.90936 9.8667 7.88835 9.85758C7.86733 9.84845 7.84472 9.84354 7.8218 9.84312C7.79883 9.84347 7.77616 9.84833 7.75508 9.85743C7.73401 9.86652 7.71494 9.87968 7.69897 9.89613C7.683 9.91259 7.67045 9.93203 7.66204 9.95333C7.65362 9.97463 7.64951 9.99738 7.64993 10.0203V10.3634Z" fill="#FFB469"/>
<path d="M11.7698 19.6656H8.19947L6.21582 20.8515L6.76122 22.9279L15.0928 21.9886L11.7698 19.6656Z" fill="#442650"/>
<path d="M11.0123 21.0986C11.1246 21.4895 11.3848 21.7833 11.8557 21.9393C11.8557 21.9393 4.86288 24.1138 4.36697 22.2357C4.36697 22.2357 4.21798 21.0498 5.33379 21.0986C6.44959 21.1474 11.0123 21.0986 11.0123 21.0986Z" fill="#442650"/>
<path d="M8.7699 21.1236L8.54642 21C8.54642 21 8.57143 20.135 7.38113 20.8027C7.38113 20.8027 7.10816 20.9698 6.33982 20.8366C5.57147 20.7035 4.84995 21.5685 5.00054 21.865C5.15112 22.1615 5.79389 21.6672 6.11794 21.6428C6.44198 21.6184 7.5067 21.6921 7.72965 21.8406L8.00262 21.96C8.45383 21.7902 8.76032 21.5394 8.7699 21.1236Z" fill="#FFB469"/>
<path d="M10.6343 21.1236L10.8578 21C10.8578 21 10.8327 20.135 12.023 20.8027C12.023 20.8027 12.296 20.9698 13.0644 20.8366C13.8327 20.7035 14.5542 21.5685 14.4036 21.865C14.2531 22.1615 13.6103 21.6672 13.2862 21.6428C12.9622 21.6184 11.8975 21.6921 11.674 21.8406L11.4016 21.96L10.6343 21.1236Z" fill="#FFB469"/>
<path d="M8.74372 21.0986C8.63198 21.4895 8.37125 21.7833 7.90088 21.9393C7.90088 21.9393 14.8931 24.1138 15.3891 22.2357C15.3891 22.2357 15.538 21.0498 14.4222 21.0986C13.3064 21.1474 8.74372 21.0986 8.74372 21.0986Z" fill="#643875"/>
<path d="M8.93265 15.7886C8.3564 15.5319 8.16112 14.5157 8.49102 14.1513C8.82092 13.787 8.69587 12.8036 8.72833 12.697C8.76079 12.5904 9.18274 12.4987 9.18274 12.4987C9.07313 13.8448 10.0155 13.7986 10.0155 13.7986C10.0155 13.7986 10.9578 13.8448 10.8482 12.4987C10.8482 12.4987 11.2707 12.5899 11.3031 12.697C11.3356 12.8042 11.2095 13.7864 11.5399 14.1513C11.8704 14.5162 11.6745 15.5303 11.0983 15.7886C10.522 16.0469 11.8698 19.0912 11.8288 19.6656C11.8288 19.6656 10.4709 19.8395 10.0155 19.8395C9.55999 19.8395 8.20209 19.6656 8.20209 19.6656C8.16112 19.0912 9.50891 16.0447 8.93265 15.7886Z" fill="#6BE8C9"/>
<path d="M9.56847 12.4785V11.9349H10.4624V12.4785C10.591 12.4579 10.7225 12.4647 10.8482 12.4987C10.9578 13.8448 10.0154 13.7986 10.0154 13.7986C10.0154 13.7986 9.07309 13.8448 9.1827 12.4987C9.30839 12.4647 9.4399 12.4579 9.56847 12.4785Z" fill="#FFB469"/>
<path d="M10.018 14.9087C9.9504 14.9087 9.81206 14.9617 9.8078 15.0312L9.57687 16.0071L7.5863 16.1068C7.69804 15.752 8.14234 14.8472 8.36423 14.4043C8.38598 14.3111 8.42956 14.2244 8.4914 14.1513C8.82183 13.7864 8.69625 12.8036 8.72871 12.697C8.12798 13.0747 7.31334 14.0489 6.62587 16.5035C6.4572 17.1044 6.92757 17.1325 6.92757 17.1325L9.6072 16.7358C9.66122 16.7345 9.71445 16.7226 9.76385 16.7008C9.81326 16.6789 9.85786 16.6476 9.89512 16.6086C9.93237 16.5696 9.96156 16.5237 9.98099 16.4734C10.0004 16.4232 10.0097 16.3696 10.0084 16.3157L10.0589 15.0259C10.0579 14.9596 10.0845 14.9071 10.018 14.9087Z" fill="#FFB469"/>
<path d="M10.013 14.9087C10.0811 14.9087 10.2194 14.9617 10.2258 15.0312L10.4568 16.0071L12.4479 16.1068C12.3356 15.752 11.8913 14.8472 11.6694 14.4043C11.6477 14.3111 11.6041 14.2244 11.5422 14.1513C11.2118 13.7864 11.3374 12.8036 11.3055 12.697C11.9057 13.0747 12.7203 14.0489 13.4078 16.5035C13.5764 17.1044 13.1061 17.1325 13.1061 17.1325L10.4264 16.7358C10.3724 16.7345 10.3192 16.7226 10.2698 16.7008C10.2204 16.6789 10.1758 16.6476 10.1385 16.6086C10.1013 16.5696 10.0721 16.5237 10.0526 16.4734C10.0332 16.4232 10.0239 16.3696 10.0252 16.3157L9.97202 15.0259C9.97415 14.9596 9.94702 14.9071 10.013 14.9087Z" fill="#FFB469"/>
<path d="M10.9033 7.75824C10.9033 7.75824 10.2355 9.1372 8.09705 9.77365L7.75704 9.85851C7.75704 9.85851 7.52558 8.36127 7.96988 7.62194C8.41418 6.8826 9.51295 6.30821 10.8368 6.7394C11.0257 6.79933 10.9033 7.75824 10.9033 7.75824Z" fill="#331C00"/>
<path d="M10.9033 7.75824C10.9033 7.75824 11.3928 9.1319 12.0994 9.72698C12.0994 9.72698 12.2223 9.88609 12.3123 9.36685C12.7981 6.6206 10.8623 6.76274 10.8623 6.76274L10.9033 7.75824Z" fill="#331C00"/>
<path d="M11.5225 7.47131C11.5226 7.67087 11.6022 7.86221 11.7438 8.00332C11.8853 8.14443 12.0773 8.22376 12.2775 8.2239C12.4778 8.2239 12.6698 8.14461 12.8114 8.00347C12.953 7.86234 13.0325 7.67091 13.0325 7.47131C13.0326 7.37243 13.0131 7.27451 12.9752 7.18314C12.9373 7.09177 12.8817 7.00874 12.8116 6.9388C12.7415 6.86886 12.6582 6.81338 12.5666 6.77552C12.4749 6.73767 12.3767 6.71819 12.2775 6.71819C12.0772 6.71833 11.8852 6.79773 11.7436 6.93896C11.602 7.08018 11.5225 7.27166 11.5225 7.47131Z" fill="#331C00"/>
<path d="M7.17139 7.47131C7.17139 7.67091 7.25093 7.86234 7.39253 8.00347C7.53413 8.14461 7.72618 8.2239 7.92643 8.2239C8.12668 8.2239 8.31873 8.14461 8.46033 8.00347C8.60192 7.86234 8.68147 7.67091 8.68147 7.47131C8.68154 7.37243 8.66206 7.27451 8.62415 7.18314C8.58624 7.09177 8.53063 7.00874 8.46051 6.9388C8.39039 6.86886 8.30714 6.81338 8.21549 6.77552C8.12385 6.73767 8.02563 6.71819 7.92643 6.71819C7.82723 6.71819 7.729 6.73767 7.63736 6.77552C7.54572 6.81338 7.46246 6.86886 7.39235 6.9388C7.32223 7.00874 7.26662 7.09177 7.22871 7.18314C7.19079 7.27451 7.17132 7.37243 7.17139 7.47131Z" fill="#331C00"/>
<path d="M10.543 9.97041C10.543 10.097 10.5934 10.2184 10.6832 10.3079C10.773 10.3975 10.8948 10.4477 11.0219 10.4477C11.1489 10.4477 11.2707 10.3975 11.3605 10.3079C11.4503 10.2184 11.5007 10.097 11.5007 9.97041" stroke="#231F20" stroke-width="0.2" stroke-linecap="round" stroke-linejoin="round"/>
<path d="M8.53467 9.97041C8.53467 10.097 8.58512 10.2184 8.67493 10.3079C8.76474 10.3975 8.88655 10.4477 9.01355 10.4477C9.14056 10.4477 9.26237 10.3975 9.35218 10.3079C9.44198 10.2184 9.49244 10.097 9.49244 9.97041" stroke="#231F20" stroke-width="0.2" stroke-linecap="round" stroke-linejoin="round"/>
<path d="M9.56299 11.1595C9.56299 11.4247 9.77583 11.474 10.0419 11.474C10.3079 11.474 10.5208 11.4242 10.5208 11.1595" stroke="#231F20" stroke-width="0.2" stroke-linecap="round" stroke-linejoin="round"/>
<path d="M11.5027 9.52013C11.5027 9.25495 11.2899 9.2873 11.0238 9.2873C10.7578 9.2873 10.5449 9.25548 10.5449 9.52013" stroke="#331C00" stroke-width="0.2" stroke-linecap="round" stroke-linejoin="round"/>
<path d="M9.51685 9.57052C9.51685 9.30533 9.30401 9.33769 9.03797 9.33769C8.77192 9.33769 8.55908 9.30586 8.55908 9.57052" stroke="#331C00" stroke-width="0.2" stroke-linecap="round" stroke-linejoin="round"/>
<path d="M11.7901 10.8232C11.7901 10.9367 11.5895 11.0285 11.3421 11.0285C11.0947 11.0285 10.8936 10.9367 10.8936 10.8232C10.8936 10.7097 11.0947 10.618 11.3421 10.618C11.5895 10.618 11.7901 10.7103 11.7901 10.8232Z" fill="#FF5959"/>
<path d="M9.2105 10.8232C9.2105 10.9367 9.0099 11.0285 8.76248 11.0285C8.51505 11.0285 8.31445 10.9367 8.31445 10.8232C8.31445 10.7097 8.51505 10.618 8.76248 10.618C9.0099 10.618 9.2105 10.7103 9.2105 10.8232Z" fill="#FF5959"/>
<path d="M10.2629 9.67978C10.2629 9.90784 10.1522 9.98315 10.0155 9.98315C9.87874 9.98315 9.76807 9.90784 9.76807 9.67978C9.76807 9.45172 10.0155 9.15736 10.0155 9.15736C10.0155 9.15736 10.2629 9.45172 10.2629 9.67978Z" fill="#D90019"/>
</g>
<defs>
<clipPath id="clip0_1232_2820">
<rect width="19.8636" height="23" fill="white"/>
</clipPath>
</defs>
</svg>
