<svg width="43" height="38" viewBox="0 0 43 38" fill="none" xmlns="http://www.w3.org/2000/svg">
<g clip-path="url(#clip0_1129_96040)">
<path d="M41.3498 22.7537L36.4872 22.3464C36.1838 22.3206 36.1838 21.8695 36.4872 21.8445L41.3991 21.4324C42.371 21.3511 43.0949 20.4755 42.9894 19.4911C42.8423 18.1214 42.5712 16.7899 42.1869 15.5077C41.9782 14.8103 41.3752 14.3091 40.6597 14.2497L35.955 13.8557C35.6516 13.8299 35.6516 13.3788 35.955 13.3537L38.5966 13.1325C39.8873 13.0246 40.6212 11.5712 39.9427 10.45C39.0648 8.99814 38.0244 7.65885 36.8468 6.45717C36.5573 6.16086 36.1707 5.9826 35.761 5.9482L28.7998 5.36495C28.4964 5.33915 28.4964 4.88803 28.7998 4.86301L31.3435 4.64957C32.4063 4.56044 32.7059 3.11952 31.7663 2.60585C28.7289 0.942893 25.2526 0 21.5591 0C16.095 0 11.1061 2.06404 7.30635 5.46659C6.15116 6.50096 6.77496 8.43365 8.30982 8.56265L12.2436 8.89259C12.5471 8.91839 12.5471 9.36951 12.2436 9.39453L4.25203 10.0646C3.68367 10.1122 3.17308 10.4383 2.88736 10.9394C2.19887 12.1466 1.6205 13.4272 1.1669 14.7665C0.799551 15.8517 1.54965 16.9971 2.67635 17.0909L6.16117 17.3833C6.4646 17.4091 6.4646 17.8602 6.16117 17.8852L1.68443 18.2605C0.839597 18.3317 0.168817 19.0095 0.0910346 19.8672C0.0309648 20.5325 -0.000610352 21.2057 -0.000610352 21.8867C-0.000610352 22.4965 0.0240337 23.1001 0.0717815 23.6966C0.141863 24.5637 0.812643 25.254 1.66671 25.326L8.20277 25.874C8.5062 25.8998 8.5062 26.351 8.20277 26.376L2.72949 26.8349C1.58585 26.9311 0.850379 28.1015 1.23313 29.1992C2.31054 32.2859 4.05102 35.0543 6.28054 37.3279C6.4723 37.5234 6.78266 37.2818 6.64404 37.0449C5.90318 35.7768 5.73914 34.6329 6.46845 33.8488C8.20277 31.9817 11.6922 34.7846 14.9129 34.8276C16.2283 34.8448 17.251 33.6713 17.1224 32.3429C16.8806 29.8403 16.0365 27.2978 15.6222 26.5245C13.4304 22.4293 10.1935 14.969 18.6218 8.20614C20.6218 6.60181 20.4239 3.50418 21.5675 3.50418C22.7112 3.50418 22.514 6.60181 24.5133 8.20614C32.9423 14.969 29.7055 22.4285 27.5129 26.5245C27.0994 27.2978 26.2545 29.8403 26.0127 32.3429C25.8841 33.6721 26.9076 34.8456 28.2222 34.8276C31.4429 34.7846 34.9323 31.9817 36.6666 33.8488C37.4352 34.6759 37.168 35.9026 36.2585 37.2529C36.1006 37.4874 36.4086 37.754 36.6081 37.5554C39.992 34.2045 42.2939 29.7324 42.9339 24.7302C43.061 23.7349 42.3332 22.8358 41.3475 22.753L41.3498 22.7537Z" fill="#3797F0"/>
<path d="M24.1881 10.873C22.7526 9.36717 20.386 9.36795 18.9505 10.873C17.4734 12.4218 15.9755 14.7806 15.9755 18.2723C15.9755 20.9743 17.1838 23.3354 19.4087 23.2979C19.9077 23.2893 20.3467 22.9578 20.4884 22.4715C20.4938 22.4535 20.4984 22.4355 20.5038 22.4168C20.6286 21.9516 20.4391 21.4512 20.0425 21.1854C19.0275 20.506 18.3374 19.1706 18.3374 17.6335C18.3374 15.4076 19.7845 13.6031 21.5704 13.6031C23.3564 13.6031 24.8034 15.4076 24.8034 17.6335C24.8034 19.1706 24.1134 20.506 23.0976 21.1854C22.701 21.4512 22.5108 21.9516 22.6363 22.4168C22.6409 22.4347 22.6463 22.4527 22.6517 22.4715C22.7926 22.9578 23.2316 23.2893 23.7314 23.2979C25.9563 23.3354 27.1646 20.9743 27.1646 18.2723C27.1646 14.7806 25.6667 12.4218 24.1896 10.873H24.1881Z" fill="#434443"/>
</g>
<defs>
<clipPath id="clip0_1129_96040">
<rect width="43" height="37.625" fill="white"/>
</clipPath>
</defs>
</svg>
